<svg viewBox="0 0 116 114" xmlns="http://www.w3.org/2000/svg">
<path d="M20.7273 91.0908H16.3636C12.0237 91.0908 7.86157 92.8148 4.7928 95.8836C1.72402 98.9524 0 103.115 0 107.454L0 114H37.0909V107.454C37.0909 103.115 35.3669 98.9524 32.2981 95.8836C29.2293 92.8148 25.0672 91.0908 20.7273 91.0908Z" fill="#fff"/>
<path d="M18.5454 87.8182C24.5704 87.8182 29.4545 82.934 29.4545 76.9091C29.4545 70.8842 24.5704 66 18.5454 66C12.5205 66 7.63635 70.8842 7.63635 76.9091C7.63635 82.934 12.5205 87.8182 18.5454 87.8182Z" fill="#fff"/>
<path d="M59.7273 91.0908H55.3636C51.0237 91.0908 46.8616 92.8148 43.7928 95.8836C40.724 98.9524 39 103.115 39 107.454L39 114H76.0909V107.454C76.0909 103.115 74.3669 98.9524 71.2981 95.8836C68.2293 92.8148 64.0672 91.0908 59.7273 91.0908Z" fill="#fff"/>
<path d="M57.5454 87.8182C63.5704 87.8182 68.4545 82.934 68.4545 76.9091C68.4545 70.8842 63.5704 66 57.5454 66C51.5205 66 46.6364 70.8842 46.6364 76.9091C46.6364 82.934 51.5205 87.8182 57.5454 87.8182Z" fill="#fff"/>
<path d="M98.7273 91.0908H94.3636C90.0237 91.0908 85.8616 92.8148 82.7928 95.8836C79.724 98.9524 78 103.115 78 107.454V114H115.091V107.454C115.091 103.115 113.367 98.9524 110.298 95.8836C107.229 92.8148 103.067 91.0908 98.7273 91.0908Z" fill="#fff"/>
<path d="M96.5454 87.8182C102.57 87.8182 107.455 82.934 107.455 76.9091C107.455 70.8842 102.57 66 96.5454 66C90.5205 66 85.6364 70.8842 85.6364 76.9091C85.6364 82.934 90.5205 87.8182 96.5454 87.8182Z" fill="#fff"/>
<path fill-rule="evenodd" clip-rule="evenodd" d="M57 14C55.1689 14 53.3631 14.3352 51.669 14.9793L51.7796 15.0733C52.3449 15.5528 53.1065 16.194 53.9848 16.8832C55.7507 18.269 57.9523 19.82 59.9485 20.6465C62.0066 21.4987 64.8312 21.9894 67.174 22.2649C68.3389 22.402 69.3726 22.4846 70.1149 22.5328C70.2729 22.5431 70.4177 22.5518 70.5476 22.5592C69.8133 21.0144 68.8193 19.6049 67.6072 18.3928C66.2143 16.9999 64.5606 15.895 62.7406 15.1413C60.9206 14.3875 58.9699 13.9997 57 14ZM50.9494 15.6802C50.8343 15.5824 50.7303 15.4941 50.6378 15.4161C49.9565 15.7352 49.2973 16.1064 48.6665 16.528C46.1997 18.1762 44.2771 20.5189 43.1418 23.2597C42.0065 26.0006 41.7094 29.0166 42.2882 31.9264C42.4755 32.868 42.7518 33.7847 43.111 34.6652L43.3401 34.6808C44.0831 34.7317 45.0913 34.8045 46.2208 34.9252C48.4681 35.1655 51.2422 35.6 53.3832 36.4534C55.5874 37.332 58.0445 39.0225 59.9286 40.469C60.8758 41.1963 61.6879 41.8695 62.2634 42.3611C62.479 42.5453 62.6616 42.7041 62.8058 42.8309C65.5185 41.6922 67.837 39.7806 69.472 37.3336C71.1203 34.8668 72 31.9667 72 29C72.0003 27.1464 71.6569 25.3098 70.9884 23.5831L70.9419 23.5809C70.7318 23.5712 70.4278 23.5553 70.05 23.5307C69.2947 23.4816 68.2432 23.3976 67.0572 23.2581C64.6982 22.9806 61.7583 22.4782 59.5659 21.5704C57.4364 20.6887 55.1454 19.0652 53.3674 17.6699C52.4738 16.9686 51.7006 16.3176 51.1327 15.8358L50.9494 15.6802ZM61.7416 43.2309C61.7005 43.1955 61.6579 43.159 61.6139 43.1214C61.0483 42.6383 60.25 41.9765 59.3196 41.2622C57.4485 39.8256 55.0822 38.2072 53.0129 37.3823C51.006 36.5823 48.3465 36.1582 46.1145 35.9196C45.1517 35.8166 44.2771 35.749 43.5794 35.6998C44.2971 37.1374 45.245 38.4582 46.3934 39.6066C48.4912 41.7044 51.1639 43.133 54.0736 43.7118C56.6339 44.221 59.2765 44.0522 61.7416 43.2309Z" fill="#fff"/>
<path d="M26.0001 28.1256C26.3313 28.1246 26.6487 27.9925 26.8829 27.7583C27.1171 27.5241 27.2491 27.2067 27.2501 26.8755V16.2501C27.2491 15.9188 27.1171 15.6014 26.8829 15.3672C26.6487 15.133 26.3313 15.001 26.0001 15H7.25001C6.91879 15.001 6.60142 15.133 6.36721 15.3672C6.133 15.6014 6.00099 15.9188 6 16.2501V26.8755C6.00099 27.2067 6.133 27.5241 6.36721 27.7583C6.60142 27.9925 6.91879 28.1246 7.25001 28.1256H11.1306L13.7138 30.4644C13.8049 30.5452 13.9178 30.5976 14.0384 30.615C14.1589 30.6324 14.282 30.614 14.3922 30.5622C14.5025 30.5104 14.5952 30.4274 14.6588 30.3235C14.7224 30.2196 14.7541 30.0993 14.75 29.9775V28.1256H26.0001ZM10.0625 18.1251H23.1876C23.4362 18.1251 23.6747 18.2239 23.8505 18.3997C24.0263 18.5756 24.1251 18.814 24.1251 19.0627C24.1251 19.3113 24.0263 19.5498 23.8505 19.7256C23.6747 19.9014 23.4362 20.0002 23.1876 20.0002H10.0625C9.81388 20.0002 9.57542 19.9014 9.3996 19.7256C9.22379 19.5498 9.12502 19.3113 9.12502 19.0627C9.12502 18.814 9.22379 18.5756 9.3996 18.3997C9.57542 18.2239 9.81388 18.1251 10.0625 18.1251V18.1251ZM9.12502 23.4379C9.12485 23.3147 9.14899 23.1927 9.19604 23.0789C9.2431 22.9651 9.31215 22.8616 9.39924 22.7745C9.48633 22.6875 9.58974 22.6184 9.70356 22.5713C9.81738 22.5243 9.93936 22.5002 10.0625 22.5003H23.1876C23.4362 22.5003 23.6747 22.5991 23.8505 22.7749C24.0263 22.9507 24.1251 23.1892 24.1251 23.4379C24.1251 23.6865 24.0263 23.925 23.8505 24.1008C23.6747 24.2766 23.4362 24.3754 23.1876 24.3754H10.0625C9.93936 24.3756 9.81738 24.3514 9.70356 24.3044C9.58974 24.2573 9.48633 24.1883 9.39924 24.1012C9.31215 24.0141 9.2431 23.9107 9.19604 23.7968C9.14899 23.683 9.12485 23.561 9.12502 23.4379ZM34.2626 32.3632C33.7114 31.8113 33.0567 31.3738 32.3359 31.0756C31.6151 30.7774 30.8426 30.6245 30.0626 30.6257H22.5626C20.9878 30.6257 19.4776 31.2512 18.3641 32.3648C17.2506 33.4783 16.6251 34.9886 16.6251 36.5634C16.6251 38.1382 17.2506 39.6485 18.3641 40.762C19.4776 41.8756 20.9878 42.5012 22.5626 42.5012H26.6251V44.375C26.6251 44.495 26.6597 44.6125 26.7247 44.7134C26.7897 44.8144 26.8824 44.8944 26.9917 44.9441C27.1009 44.9937 27.2222 45.0108 27.341 44.9934C27.4597 44.9759 27.571 44.9246 27.6614 44.8456L30.3751 42.5012C30.5996 42.4885 30.8229 42.4614 31.0439 42.4199H31.0501C32.1249 42.238 33.1289 41.7639 33.9522 41.0496C34.7756 40.3352 35.3865 39.4081 35.7182 38.3697C36.0499 37.3313 36.0896 36.2217 35.8329 35.1623C35.5761 34.1029 35.0329 33.1345 34.2626 32.3632V32.3632ZM31.3126 39.376H21.3126C21.0639 39.376 20.8255 39.2772 20.6497 39.1014C20.4738 38.9256 20.3751 38.6871 20.3751 38.4385C20.3751 38.1898 20.4738 37.9514 20.6497 37.7755C20.8255 37.5997 21.0639 37.5009 21.3126 37.5009H31.3126C31.5613 37.5009 31.7997 37.5997 31.9755 37.7755C32.1514 37.9514 32.2501 38.1898 32.2501 38.4385C32.2501 38.6871 32.1514 38.9256 31.9755 39.1014C31.7997 39.2772 31.5613 39.376 31.3126 39.376ZM31.3126 35.6259H21.3126C21.0639 35.6259 20.8255 35.5271 20.6497 35.3513C20.4738 35.1754 20.3751 34.937 20.3751 34.6883C20.3751 34.4397 20.4738 34.2012 20.6497 34.0254C20.8255 33.8496 21.0639 33.7508 21.3126 33.7508H31.3126C31.5613 33.7508 31.7997 33.8496 31.9755 34.0254C32.1514 34.2012 32.2501 34.4397 32.2501 34.6883C32.2501 34.937 32.1514 35.1754 31.9755 35.3513C31.7997 35.5271 31.5613 35.6259 31.3126 35.6259Z" fill="#fff"/>
<path d="M86.75 30.875C86.7499 30.5467 86.8145 30.2215 86.9401 29.9182C87.0657 29.6148 87.2499 29.3392 87.482 29.107C87.7142 28.8749 87.9898 28.6907 88.2932 28.5651C88.5965 28.4395 88.9217 28.3749 89.25 28.375H93V14.625C92.9995 14.4594 92.9335 14.3007 92.8164 14.1836C92.6993 14.0665 92.5406 14.0005 92.375 14H78.625C78.4594 14.0005 78.3007 14.0665 78.1836 14.1836C78.0665 14.3007 78.0005 14.4594 78 14.625V32.75C78.0005 32.9156 78.0665 33.0743 78.1836 33.1914C78.3007 33.3085 78.4594 33.3745 78.625 33.375H86.75V30.875ZM84.25 17.75H90.5C90.6658 17.75 90.8247 17.8158 90.9419 17.9331C91.0592 18.0503 91.125 18.2092 91.125 18.375C91.125 18.5408 91.0592 18.6997 90.9419 18.8169C90.8247 18.9342 90.6658 19 90.5 19H84.25C84.0842 19 83.9253 18.9342 83.8081 18.8169C83.6908 18.6997 83.625 18.5408 83.625 18.375C83.625 18.2092 83.6908 18.0503 83.8081 17.9331C83.9253 17.8158 84.0842 17.75 84.25 17.75V17.75ZM81.75 31.5H79.875V15.875H81.75V31.5ZM83.625 22.125C83.6255 21.9594 83.6915 21.8007 83.8086 21.6836C83.9257 21.5665 84.0844 21.5005 84.25 21.5H90.5C90.6658 21.5 90.8247 21.5658 90.9419 21.6831C91.0592 21.8003 91.125 21.9592 91.125 22.125C91.125 22.2908 91.0592 22.4497 90.9419 22.5669C90.8247 22.6842 90.6658 22.75 90.5 22.75H84.25C84.0844 22.7495 83.9257 22.6835 83.8086 22.5664C83.6915 22.4493 83.6255 22.2906 83.625 22.125V22.125Z" fill="#fff"/>
<path d="M89.25 29.6248C88.9188 29.6257 88.6014 29.7578 88.3672 29.992C88.133 30.2262 88.001 30.5435 88 30.8748V40.2498H90.5V32.1248H104.25V40.2498H106.75V30.8748C106.749 30.5435 106.617 30.2262 106.383 29.992C106.149 29.7578 105.831 29.6257 105.5 29.6248H89.25ZM107.375 41.4998H100.5C100.5 41.6654 100.433 41.824 100.316 41.9412C100.199 42.0583 100.041 42.1243 99.875 42.1248H94.875C94.7094 42.1243 94.5507 42.0583 94.4336 41.9412C94.3165 41.824 94.2505 41.6654 94.25 41.4998H87.375C87.2094 41.5002 87.0507 41.5663 86.9336 41.6834C86.8165 41.8005 86.7505 41.9591 86.75 42.1248V43.3748C86.7505 43.5404 86.8165 43.699 86.9336 43.8162C87.0507 43.9333 87.2094 43.9993 87.375 43.9998H107.375C107.541 43.9993 107.699 43.9333 107.816 43.8162C107.933 43.699 108 43.5404 108 43.3748V42.1248C108 41.9591 107.933 41.8005 107.816 41.6834C107.699 41.5663 107.541 41.5002 107.375 41.4998Z" fill="#fff"/>
<path d="M5.22727 60H109.773C111.158 59.9968 112.485 59.5744 113.464 58.8249C114.444 58.0755 114.996 57.0599 115 56V4C114.996 2.94011 114.444 1.92453 113.464 1.17507C112.485 0.425609 111.158 0.00316545 109.773 0H5.22727C3.84219 0.00316545 2.51501 0.425609 1.5356 1.17507C0.556194 1.92453 0.00413667 2.94011 0 4V56C0.00413667 57.0599 0.556194 58.0755 1.5356 58.8249C2.51501 59.5744 3.84219 59.9968 5.22727 60ZM4 4H111V56H4V4Z" fill="#fff"/>
</svg>
