<svg xmlns="http://www.w3.org/2000/svg" viewBox="0 0 48 48">
  <g fill="#fff">
    <path d="M24 18c-5.99 0-10.5 4.08-10.5 9.5a1.5 1.5 0 0 0 3 0 6.23 6.23 0 0 1 3.5-5.56V46.5a1.5 1.5 0 0 0 3 0V34h2v12.5a1.5 1.5 0 0 0 3 0V21.94a6.23 6.23 0 0 1 3.5 5.55 1.5 1.5 0 0 0 3 0c0-5.41-4.51-9.5-10.5-9.5Zm.05-2a3 3 0 1 0 0-6 3 3 0 0 0 0 6Z" />
    <path d="M46.76 12.84 25.26.34a2.5 2.5 0 0 0-2.52 0l-21.5 12.5A2.5 2.5 0 0 0 0 15v30.5a2.5 2.5 0 0 0 5 0V16.44L24 5.39l19 11.05V45.5a2.5 2.5 0 0 0 5 0V15a2.5 2.5 0 0 0-1.24-2.16Z" />
    <ellipse cx="42.0874" cy="3.66666" rx="2.51517" ry="2.66666" />
  </g>
  <g stroke="#fff">
    <line x1="38.9434" y1="4.16669" x2="38.0002" y2="4.16669" />
    <line x1="46.1738" y1="4.16669" x2="45.2306" y2="4.16669" />
    <path d="M44.2891 0.333373L43.6602 1.04676" />
    <path d="M39.5723 -3.30618e-05L40.2035 1.07962" />
    <path d="M43.6583 5.99996L44.2871 6.99996" />
  </g>
</svg>