<svg xmlns="http://www.w3.org/2000/svg" viewBox="0 0 48 48">
  <g fill="#fff">
    <path d="M41.39 2.18a5.63 5.63 0 0 1 1.05 4.46 6.07 6.07 0 0 1-3.37 4.12c-.84.4-1.07.44-2.59.44h-1.67l.46.35c3.66 2.85 9.16.88 9.92-3.52a5.74 5.74 0 0 0-3.66-6.16l-.58-.23ZM20.27 22.67c-5.06 0-8.87 3.44-8.87 8.02a1.27 1.27 0 0 0 2.53 0 5.26 5.26 0 0 1 2.96-4.7v20.74a1.27 1.27 0 0 0 2.53 0V36.18h1.69v10.55a1.27 1.27 0 0 0 2.53 0V26a5.26 5.26 0 0 1 2.96 4.7 1.27 1.27 0 0 0 2.53 0c0-4.58-3.8-8.03-8.86-8.03zm.04-1.7a2.53 2.53 0 1 0 0-5.06 2.53 2.53 0 0 0 0 5.07z"/>
    <path d="M39.48 18.31 21.33 7.76a2.11 2.11 0 0 0-2.13 0L1.05 18.3A2.11 2.11 0 0 0 0 20.13V45.9a2.11 2.11 0 0 0 4.22 0V21.35l16.05-9.33 16.04 9.33v24.54a2.11 2.11 0 0 0 4.22 0V20.13a2.11 2.11 0 0 0-1.05-1.82z"/>
  </g>
</svg>
