<svg xmlns="http://www.w3.org/2000/svg" viewBox="0 0 48 48">
  <g fill="#fff">
    <path d="M20.27 22.67c-5.06 0-8.87 3.44-8.87 8.02a1.27 1.27 0 0 0 2.53 0 5.26 5.26 0 0 1 2.96-4.7v20.74a1.27 1.27 0 0 0 2.53 0V36.18h1.69v10.55a1.27 1.27 0 0 0 2.53 0V26a5.26 5.26 0 0 1 2.96 4.7 1.27 1.27 0 0 0 2.53 0c0-4.58-3.8-8.03-8.86-8.03zm.04-1.7a2.53 2.53 0 1 0 0-5.06 2.53 2.53 0 0 0 0 5.07z"/>
    <path d="M39.48 18.31 21.33 7.76a2.11 2.11 0 0 0-2.13 0L1.05 18.3A2.11 2.11 0 0 0 0 20.13V45.9a2.11 2.11 0 0 0 4.22 0V21.35l16.05-9.33 16.04 9.33v24.54a2.11 2.11 0 0 0 4.22 0V20.13a2.11 2.11 0 0 0-1.05-1.82zM37.95 1.49c-.18.18-.18 1.69 0 1.87.21.21.62.16.8-.11.12-.15.19-.49.19-.83 0-.33-.07-.67-.18-.82-.2-.27-.6-.32-.81-.11zM34.34 3c-.39.27-.3.62.32 1.23.5.5.58.54.87.44.23-.08.32-.2.35-.46.03-.28-.06-.42-.53-.86-.32-.3-.61-.53-.66-.53a.92.92 0 0 0-.35.18zm6.96.35c-.48.44-.57.58-.54.86.02.26.11.38.35.46.28.1.36.06.87-.44.62-.61.7-.96.31-1.23a.92.92 0 0 0-.35-.18c-.04 0-.33.24-.65.53zm-3.75 1.43a2.4 2.4 0 0 0-1.65 2.36 2.38 2.38 0 0 0 2.42 2.43 2.47 2.47 0 0 0 1.92-4 2.56 2.56 0 0 0-2.69-.8zm-4.84 1.96c-.48.54-.1.92.92.92.84 0 1.03-.11 1.03-.59 0-.4-.27-.54-1.1-.54-.5 0-.71.06-.85.2zm9.47-.08c-.24.13-.27.66-.07.86.2.2 1.61.19 1.83-.04.23-.24.22-.53-.03-.75-.23-.22-1.4-.26-1.73-.07zM34.65 10c-.48.43-.57.58-.53.86.02.26.11.37.35.45.28.1.36.07.86-.44.62-.6.71-.96.32-1.23a.92.92 0 0 0-.35-.18c-.04 0-.34.24-.65.53zm6.34-.36c-.4.27-.3.62.31 1.23.5.5.59.54.87.44.24-.08.33-.2.35-.45.03-.28-.06-.43-.53-.87-.32-.3-.6-.53-.65-.53a.92.92 0 0 0-.35.18z"/>
  </g>
</svg>
