<svg xmlns="http://www.w3.org/2000/svg" viewBox="0 0 48 48">
  <defs>
    <mask id="a">
      <path fill="#fff" d="M0 0h100v100H0z"/>
      <ellipse cx="40.6" cy="3.4" rx="2.6" ry="2.8"/>
    </mask>
  </defs>
  <g fill="#fff">
    <path d="M24 18c-5.99 0-10.5 4.08-10.5 9.5a1.5 1.5 0 0 0 3 0 6.23 6.23 0 0 1 3.5-5.56V46.5a1.5 1.5 0 0 0 3 0V34h2v12.5a1.5 1.5 0 0 0 3 0V21.94a6.23 6.23 0 0 1 3.5 5.55 1.5 1.5 0 0 0 3 0c0-5.41-4.51-9.5-10.5-9.5Zm.05-2a3 3 0 1 0 0-6 3 3 0 0 0 0 6Z"/>
    <path d="M46.76 12.84 25.26.34a2.5 2.5 0 0 0-2.52 0l-21.5 12.5A2.5 2.5 0 0 0 0 15v30.5a2.5 2.5 0 0 0 5 0V16.44L24 5.39l19 11.05V45.5a2.5 2.5 0 0 0 5 0V15a2.5 2.5 0 0 0-1.24-2.16Z"/>
    <ellipse cx="42.09" cy="3.67" mask="url(#a)" rx="2.52" ry="2.67"/>
  </g>
</svg>