<svg width="48" height="48" viewBox="0 0 48 48" fill="none" xmlns="http://www.w3.org/2000/svg">
<g clip-path="url(#clip0_74_1373)">
<path d="M45 0C44.2058 0.00472277 43.4455 0.32231 42.8839 0.883898C42.3223 1.44549 42.0047 2.20581 42 3V19L37.194 23.844C37.1198 23.985 37.012 24.1057 36.8802 24.1952C36.7484 24.2848 36.5965 24.3406 36.4381 24.3577C36.2796 24.3748 36.1194 24.3527 35.9715 24.2933C35.8236 24.2338 35.6926 24.139 35.59 24.017C35.3619 23.7835 35.2341 23.47 35.2341 23.1435C35.2341 22.817 35.3619 22.5035 35.59 22.27L39.646 18.144C40.0374 17.7428 40.2565 17.2045 40.2565 16.644C40.2565 16.0835 40.0374 15.5452 39.646 15.144C39.4541 14.9475 39.2249 14.7913 38.9717 14.6846C38.7186 14.578 38.4467 14.5231 38.172 14.5231C37.8973 14.5231 37.6254 14.578 37.3723 14.6846C37.1191 14.7913 36.8899 14.9475 36.698 15.144L28.83 23.149C28.2063 23.7865 27.7228 24.5474 27.4106 25.3828C27.0983 26.2182 26.9643 27.1097 27.017 28H27V35H21V28H20.983C21.0357 27.1097 20.9017 26.2182 20.5894 25.3828C20.2772 24.5474 19.7937 23.7865 19.17 23.149L11.302 15.144C11.1101 14.9475 10.8809 14.7913 10.6277 14.6846C10.3746 14.578 10.1027 14.5231 9.828 14.5231C9.55332 14.5231 9.28142 14.578 9.02828 14.6846C8.77514 14.7913 8.54589 14.9475 8.354 15.144C7.96259 15.5452 7.7435 16.0835 7.7435 16.644C7.7435 17.2045 7.96259 17.7428 8.354 18.144L12.41 22.27C12.6381 22.5035 12.7659 22.817 12.7659 23.1435C12.7659 23.47 12.6381 23.7835 12.41 24.017C12.2982 24.1314 12.1647 24.2224 12.0173 24.2845C11.8698 24.3466 11.7115 24.3786 11.5515 24.3786C11.3915 24.3786 11.2332 24.3466 11.0857 24.2845C10.9383 24.2224 10.8048 24.1314 10.693 24.017L6 19V3C5.99528 2.20581 5.67769 1.44549 5.1161 0.883898C4.55452 0.32231 3.79419 0.00472277 3 0C2.20581 0.00472277 1.44549 0.32231 0.8839 0.883898C0.322312 1.44549 0.00472466 2.20581 1.88252e-06 3V20.399C-0.000882858 21.1928 0.310119 21.9553 0.866002 22.522L10.245 32.046L12 33.832V35C11.4696 35 10.9609 35.2107 10.5858 35.5858C10.2107 35.9609 10 36.4696 10 37C10 37.5304 10.2107 38.0391 10.5858 38.4142C10.9609 38.7893 11.4696 39 12 39V42C11.4696 42 10.9609 42.2107 10.5858 42.5858C10.2107 42.9609 10 43.4696 10 44C10 44.5304 10.2107 45.0391 10.5858 45.4142C10.9609 45.7893 11.4696 46 12 46V48H21V46H27V48H36V46C36.5304 46 37.0391 45.7893 37.4142 45.4142C37.7893 45.0391 38 44.5304 38 44C38 43.4696 37.7893 42.9609 37.4142 42.5858C37.0391 42.2107 36.5304 42 36 42V39C36.5304 39 37.0391 38.7893 37.4142 38.4142C37.7893 38.0391 38 37.5304 38 37C38 36.4696 37.7893 35.9609 37.4142 35.5858C37.0391 35.2107 36.5304 35 36 35V33.833L38.108 31.688L47.134 22.522C47.6896 21.9555 48.0006 21.1935 48 20.4V3C47.9953 2.20581 47.6777 1.44549 47.1161 0.883898C46.5545 0.32231 45.7942 0.00472277 45 0V0ZM27 42H21V39H27V42Z" fill="#011E41"/>
</g>
<defs>
<clipPath id="clip0_74_1373">
<rect width="48" height="48" fill="white"/>
</clipPath>
</defs>
</svg>
