<svg width="48" height="48" viewBox="0 0 48 48" fill="none" xmlns="http://www.w3.org/2000/svg">
<path d="M43.4286 0H4.57143C3.35901 0 2.19625 0.481631 1.33894 1.33894C0.481631 2.19625 0 3.35901 0 4.57143L0 43.4286C0 44.641 0.481631 45.8038 1.33894 46.6611C2.19625 47.5184 3.35901 48 4.57143 48H43.4286C44.641 48 45.8038 47.5184 46.6611 46.6611C47.5184 45.8038 48 44.641 48 43.4286V4.57143C48 3.35901 47.5184 2.19625 46.6611 1.33894C45.8038 0.481631 44.641 0 43.4286 0V0ZM27.4286 40H22.8571C22.2509 40 21.6696 39.7592 21.2409 39.3305C20.8122 38.9019 20.5714 38.3205 20.5714 37.7143V20.5714H25.1429C25.7491 20.5714 26.3304 20.8122 26.7591 21.2409C27.1878 21.6696 27.4286 22.2509 27.4286 22.8571V40ZM24 14.8571C23.3219 14.8571 22.659 14.6561 22.0952 14.2793C21.5314 13.9026 21.0919 13.3671 20.8324 12.7406C20.5729 12.1141 20.505 11.4248 20.6373 10.7597C20.7696 10.0946 21.0961 9.4837 21.5756 9.00421C22.0551 8.52471 22.666 8.19817 23.3311 8.06588C23.9962 7.93359 24.6856 8.00148 25.3121 8.26099C25.9385 8.52049 26.474 8.95993 26.8508 9.52376C27.2275 10.0876 27.4286 10.7505 27.4286 11.4286C27.4286 12.3379 27.0673 13.21 26.4244 13.8529C25.7814 14.4959 24.9093 14.8571 24 14.8571Z" fill="#011E41"/>
</svg>
