<svg width="116" height="114" viewBox="0 0 116 114" fill="none" xmlns="http://www.w3.org/2000/svg">
<g clip-path="url(#clip0_427_52)">
<path fill-rule="evenodd" clip-rule="evenodd" d="M57 15C55.1689 15 53.3631 15.3352 51.669 15.9793L51.7796 16.0733C52.3449 16.5528 53.1065 17.194 53.9848 17.8832C55.7507 19.269 57.9523 20.82 59.9485 21.6465C62.0066 22.4987 64.8312 22.9894 67.174 23.2649C68.3389 23.402 69.3726 23.4846 70.1149 23.5328C70.2729 23.5431 70.4177 23.5518 70.5476 23.5592C69.8133 22.0144 68.8193 20.6049 67.6072 19.3928C66.2143 17.9999 64.5606 16.895 62.7406 16.1413C60.9206 15.3875 58.9699 14.9997 57 15ZM50.9494 16.6802C50.8343 16.5824 50.7303 16.4941 50.6378 16.4161C49.9565 16.7352 49.2973 17.1064 48.6665 17.528C46.1997 19.1762 44.2771 21.5189 43.1418 24.2597C42.0065 27.0006 41.7094 30.0166 42.2882 32.9264C42.4755 33.868 42.7518 34.7847 43.111 35.6652L43.3401 35.6808C44.0831 35.7317 45.0913 35.8045 46.2208 35.9252C48.4681 36.1655 51.2422 36.6 53.3832 37.4534C55.5874 38.332 58.0445 40.0225 59.9286 41.469C60.8758 42.1963 61.6879 42.8695 62.2634 43.3611C62.479 43.5453 62.6616 43.7041 62.8058 43.8309C65.5185 42.6922 67.837 40.7806 69.472 38.3336C71.1203 35.8668 72 32.9667 72 30C72.0003 28.1464 71.6569 26.3098 70.9884 24.5831L70.9419 24.5809C70.7318 24.5712 70.4278 24.5553 70.05 24.5307C69.2947 24.4816 68.2432 24.3976 67.0572 24.2581C64.6982 23.9806 61.7583 23.4782 59.5659 22.5704C57.4364 21.6887 55.1454 20.0652 53.3674 18.6699C52.4738 17.9686 51.7006 17.3176 51.1327 16.8358L50.9494 16.6802ZM61.7416 44.2309C61.7005 44.1955 61.6579 44.159 61.6139 44.1214C61.0483 43.6383 60.25 42.9765 59.3196 42.2622C57.4485 40.8256 55.0822 39.2072 53.0129 38.3823C51.006 37.5823 48.3465 37.1582 46.1145 36.9196C45.1517 36.8166 44.2771 36.749 43.5794 36.6998C44.2971 38.1374 45.245 39.4582 46.3934 40.6066C48.4912 42.7044 51.1639 44.133 54.0736 44.7118C56.6339 45.221 59.2765 45.0522 61.7416 44.2309Z" fill="#011E41"/>
<path d="M26.0001 29.1256C26.3313 29.1246 26.6487 28.9925 26.8829 28.7583C27.1171 28.5241 27.2491 28.2067 27.2501 27.8755V17.2501C27.2491 16.9188 27.1171 16.6014 26.8829 16.3672C26.6487 16.133 26.3313 16.001 26.0001 16H7.25001C6.91879 16.001 6.60142 16.133 6.36721 16.3672C6.133 16.6014 6.00099 16.9188 6 17.2501V27.8755C6.00099 28.2067 6.133 28.5241 6.36721 28.7583C6.60142 28.9925 6.91879 29.1246 7.25001 29.1256H11.1306L13.7138 31.4644C13.8049 31.5452 13.9178 31.5976 14.0384 31.615C14.1589 31.6324 14.282 31.614 14.3922 31.5622C14.5025 31.5104 14.5952 31.4274 14.6588 31.3235C14.7224 31.2196 14.7541 31.0993 14.75 30.9775V29.1256H26.0001ZM10.0625 19.1251H23.1876C23.4362 19.1251 23.6747 19.2239 23.8505 19.3997C24.0263 19.5756 24.1251 19.814 24.1251 20.0627C24.1251 20.3113 24.0263 20.5498 23.8505 20.7256C23.6747 20.9014 23.4362 21.0002 23.1876 21.0002H10.0625C9.81388 21.0002 9.57542 20.9014 9.3996 20.7256C9.22379 20.5498 9.12502 20.3113 9.12502 20.0627C9.12502 19.814 9.22379 19.5756 9.3996 19.3997C9.57542 19.2239 9.81388 19.1251 10.0625 19.1251V19.1251ZM9.12502 24.4379C9.12485 24.3147 9.14899 24.1927 9.19604 24.0789C9.2431 23.9651 9.31215 23.8616 9.39924 23.7745C9.48633 23.6875 9.58974 23.6184 9.70356 23.5713C9.81738 23.5243 9.93936 23.5002 10.0625 23.5003H23.1876C23.4362 23.5003 23.6747 23.5991 23.8505 23.7749C24.0263 23.9507 24.1251 24.1892 24.1251 24.4379C24.1251 24.6865 24.0263 24.925 23.8505 25.1008C23.6747 25.2766 23.4362 25.3754 23.1876 25.3754H10.0625C9.93936 25.3756 9.81738 25.3514 9.70356 25.3044C9.58974 25.2573 9.48633 25.1883 9.39924 25.1012C9.31215 25.0141 9.2431 24.9107 9.19604 24.7968C9.14899 24.683 9.12485 24.561 9.12502 24.4379ZM34.2626 33.3632C33.7114 32.8113 33.0567 32.3738 32.3359 32.0756C31.6151 31.7774 30.8426 31.6245 30.0626 31.6257H22.5626C20.9878 31.6257 19.4776 32.2512 18.3641 33.3648C17.2506 34.4783 16.6251 35.9886 16.6251 37.5634C16.6251 39.1382 17.2506 40.6485 18.3641 41.762C19.4776 42.8756 20.9878 43.5012 22.5626 43.5012H26.6251V45.375C26.6251 45.495 26.6597 45.6125 26.7247 45.7134C26.7897 45.8144 26.8824 45.8944 26.9917 45.9441C27.1009 45.9937 27.2222 46.0108 27.341 45.9934C27.4597 45.9759 27.571 45.9246 27.6614 45.8456L30.3751 43.5012C30.5996 43.4885 30.8229 43.4614 31.0439 43.4199H31.0501C32.1249 43.238 33.1289 42.7639 33.9522 42.0496C34.7756 41.3352 35.3865 40.4081 35.7182 39.3697C36.0499 38.3313 36.0896 37.2217 35.8329 36.1623C35.5761 35.1029 35.0329 34.1345 34.2626 33.3632V33.3632ZM31.3126 40.376H21.3126C21.0639 40.376 20.8255 40.2772 20.6497 40.1014C20.4738 39.9256 20.3751 39.6871 20.3751 39.4385C20.3751 39.1898 20.4738 38.9514 20.6497 38.7755C20.8255 38.5997 21.0639 38.5009 21.3126 38.5009H31.3126C31.5613 38.5009 31.7997 38.5997 31.9755 38.7755C32.1514 38.9514 32.2501 39.1898 32.2501 39.4385C32.2501 39.6871 32.1514 39.9256 31.9755 40.1014C31.7997 40.2772 31.5613 40.376 31.3126 40.376ZM31.3126 36.6259H21.3126C21.0639 36.6259 20.8255 36.5271 20.6497 36.3513C20.4738 36.1754 20.3751 35.937 20.3751 35.6883C20.3751 35.4397 20.4738 35.2012 20.6497 35.0254C20.8255 34.8496 21.0639 34.7508 21.3126 34.7508H31.3126C31.5613 34.7508 31.7997 34.8496 31.9755 35.0254C32.1514 35.2012 32.2501 35.4397 32.2501 35.6883C32.2501 35.937 32.1514 36.1754 31.9755 36.3513C31.7997 36.5271 31.5613 36.6259 31.3126 36.6259Z" fill="#011E41"/>
<path d="M86.75 31.875C86.7499 31.5467 86.8145 31.2215 86.9401 30.9182C87.0657 30.6148 87.2499 30.3392 87.482 30.107C87.7142 29.8749 87.9898 29.6907 88.2932 29.5651C88.5965 29.4395 88.9217 29.3749 89.25 29.375H93V15.625C92.9995 15.4594 92.9335 15.3007 92.8164 15.1836C92.6993 15.0665 92.5406 15.0005 92.375 15H78.625C78.4594 15.0005 78.3007 15.0665 78.1836 15.1836C78.0665 15.3007 78.0005 15.4594 78 15.625V33.75C78.0005 33.9156 78.0665 34.0743 78.1836 34.1914C78.3007 34.3085 78.4594 34.3745 78.625 34.375H86.75V31.875ZM84.25 18.75H90.5C90.6658 18.75 90.8247 18.8158 90.9419 18.9331C91.0592 19.0503 91.125 19.2092 91.125 19.375C91.125 19.5408 91.0592 19.6997 90.9419 19.8169C90.8247 19.9342 90.6658 20 90.5 20H84.25C84.0842 20 83.9253 19.9342 83.8081 19.8169C83.6908 19.6997 83.625 19.5408 83.625 19.375C83.625 19.2092 83.6908 19.0503 83.8081 18.9331C83.9253 18.8158 84.0842 18.75 84.25 18.75V18.75ZM81.75 32.5H79.875V16.875H81.75V32.5ZM83.625 23.125C83.6255 22.9594 83.6915 22.8007 83.8086 22.6836C83.9257 22.5665 84.0844 22.5005 84.25 22.5H90.5C90.6658 22.5 90.8247 22.5658 90.9419 22.6831C91.0592 22.8003 91.125 22.9592 91.125 23.125C91.125 23.2908 91.0592 23.4497 90.9419 23.5669C90.8247 23.6842 90.6658 23.75 90.5 23.75H84.25C84.0844 23.7495 83.9257 23.6835 83.8086 23.5664C83.6915 23.4493 83.6255 23.2906 83.625 23.125V23.125Z" fill="#011E41"/>
<path d="M89.25 30.6248C88.9188 30.6257 88.6014 30.7578 88.3672 30.992C88.133 31.2262 88.001 31.5435 88 31.8748V41.2498H90.5V33.1248H104.25V41.2498H106.75V31.8748C106.749 31.5435 106.617 31.2262 106.383 30.992C106.149 30.7578 105.831 30.6257 105.5 30.6248H89.25ZM107.375 42.4998H100.5C100.5 42.6654 100.433 42.824 100.316 42.9412C100.199 43.0583 100.041 43.1243 99.875 43.1248H94.875C94.7094 43.1243 94.5507 43.0583 94.4336 42.9412C94.3165 42.824 94.2505 42.6654 94.25 42.4998H87.375C87.2094 42.5002 87.0507 42.5663 86.9336 42.6834C86.8165 42.8005 86.7505 42.9591 86.75 43.1248V44.3748C86.7505 44.5404 86.8165 44.699 86.9336 44.8162C87.0507 44.9333 87.2094 44.9993 87.375 44.9998H107.375C107.541 44.9993 107.699 44.9333 107.816 44.8162C107.933 44.699 108 44.5404 108 44.3748V43.1248C108 42.9591 107.933 42.8005 107.816 42.6834C107.699 42.5663 107.541 42.5002 107.375 42.4998Z" fill="#011E41"/>
</g>
<rect width="115" height="60" rx="3" stroke="#011E41" stroke-width="8" stroke-linecap="round" mask="url(#path-1-inside-1_427_52)"/>
<path d="M20.7273 91.0908H16.3636C12.0237 91.0908 7.86157 92.8148 4.7928 95.8836C1.72402 98.9524 0 103.115 0 107.454L0 114H37.0909V107.454C37.0909 103.115 35.3669 98.9524 32.2981 95.8836C29.2293 92.8148 25.0672 91.0908 20.7273 91.0908Z" fill="#011E41"/>
<path d="M18.5454 87.8182C24.5704 87.8182 29.4545 82.934 29.4545 76.9091C29.4545 70.8842 24.5704 66 18.5454 66C12.5205 66 7.63635 70.8842 7.63635 76.9091C7.63635 82.934 12.5205 87.8182 18.5454 87.8182Z" fill="#011E41"/>
<path d="M59.7273 91.0908H55.3636C51.0237 91.0908 46.8616 92.8148 43.7928 95.8836C40.724 98.9524 39 103.115 39 107.454L39 114H76.0909V107.454C76.0909 103.115 74.3669 98.9524 71.2981 95.8836C68.2293 92.8148 64.0672 91.0908 59.7273 91.0908Z" fill="#011E41"/>
<path d="M57.5454 87.8182C63.5704 87.8182 68.4545 82.934 68.4545 76.9091C68.4545 70.8842 63.5704 66 57.5454 66C51.5205 66 46.6364 70.8842 46.6364 76.9091C46.6364 82.934 51.5205 87.8182 57.5454 87.8182Z" fill="#011E41"/>
<path d="M98.7273 91.0908H94.3636C90.0237 91.0908 85.8616 92.8148 82.7928 95.8836C79.724 98.9524 78 103.115 78 107.454V114H115.091V107.454C115.091 103.115 113.367 98.9524 110.298 95.8836C107.229 92.8148 103.067 91.0908 98.7273 91.0908Z" fill="#011E41"/>
<path d="M96.5454 87.8182C102.57 87.8182 107.455 82.934 107.455 76.9091C107.455 70.8842 102.57 66 96.5454 66C90.5205 66 85.6364 70.8842 85.6364 76.9091C85.6364 82.934 90.5205 87.8182 96.5454 87.8182Z" fill="#011E41"/>
<defs>
<clipPath id="clip0_427_52">
<rect width="115" height="60" rx="3" fill="white"/>
</clipPath>
</defs>
</svg>
