<svg width="48" height="48" viewBox="0 0 48 48" fill="none" xmlns="http://www.w3.org/2000/svg">
<g clip-path="url(#clip0_419_6)">
<path fill-rule="evenodd" clip-rule="evenodd" d="M21.569 13.644C21.577 13.6486 21.5972 13.6601 21.6255 13.6716L21.6627 13.5799C21.6275 13.5986 21.5924 13.6176 21.5576 13.6371L21.569 13.644ZM23.2007 13.6988C22.9692 13.5171 22.762 13.3454 22.5922 13.2023C23.047 13.0688 23.5209 13 24 13C24.6566 12.9999 25.3069 13.1292 25.9135 13.3804C26.5202 13.6317 27.0714 14 27.5357 14.4643C27.8475 14.7761 28.1161 15.1271 28.3349 15.5078C28.0973 15.4915 27.7819 15.4653 27.4303 15.4239C26.6548 15.3327 25.7516 15.1731 25.1103 14.9075C24.4894 14.6504 23.7853 14.1576 23.2007 13.6988ZM28.7464 16.5313L28.7494 16.4364C28.9152 16.9402 29.0001 17.468 29 18C29 18.9889 28.7068 19.9556 28.1574 20.7779C27.6798 21.4925 27.0275 22.0701 26.2651 22.4575L26.2626 22.4553C26.2482 22.4423 26.2273 22.4235 26.2004 22.3997C26.1465 22.3519 26.0686 22.2837 25.971 22.2002C25.7758 22.0336 25.5005 21.8053 25.1792 21.5586C24.5469 21.0731 23.6976 20.4856 22.9178 20.1748C22.1595 19.8725 21.1965 19.7243 20.4424 19.6436C20.0594 19.6027 19.7182 19.5781 19.4695 19.5611L19.3878 19.5555C19.3337 19.5518 19.2862 19.5486 19.2449 19.5456C19.1843 19.3593 19.1346 19.169 19.0961 18.9755C18.9031 18.0055 19.0022 17.0002 19.3806 16.0866C19.759 15.173 20.3999 14.3921 21.2222 13.8427C21.3312 13.7698 21.4428 13.7014 21.5566 13.6377C21.5671 13.6459 21.5822 13.6582 21.6033 13.6756C21.6455 13.7106 21.6992 13.7563 21.7661 13.8131L21.7661 13.8131L21.7662 13.8131L21.8286 13.8661C22.0187 14.0274 22.2804 14.2477 22.5834 14.4855C23.18 14.9538 23.9735 15.5191 24.7278 15.8314C25.5033 16.1526 26.5217 16.3239 27.3135 16.4171C27.7158 16.4644 28.0723 16.4929 28.3284 16.5095C28.4566 16.5179 28.56 16.5233 28.6318 16.5266C28.6678 16.5283 28.6959 16.5294 28.7153 16.5302L28.7377 16.531L28.7439 16.5312L28.7456 16.5313L28.7462 16.5313L28.7464 16.5313ZM19.718 20.5816C19.9262 20.9269 20.1764 21.2475 20.4645 21.5355C21.1637 22.2348 22.0546 22.711 23.0246 22.9039C23.7463 23.0475 24.4878 23.0294 25.1964 22.8548C25.0257 22.7115 24.8114 22.537 24.5702 22.3518C23.9508 21.8763 23.1923 21.3608 22.5475 21.1037C21.9233 20.8549 21.075 20.717 20.3361 20.638C20.1125 20.6141 19.9032 20.5959 19.718 20.5816Z" fill="#011E41"/>
</g>
<rect x="0.5" y="4.5" width="47" height="26" rx="3.5" stroke="#011E41"/>
<g clip-path="url(#clip1_419_6)">
<path d="M10.6667 17.375C10.7771 17.3747 10.8829 17.3307 10.9609 17.2526C11.039 17.1745 11.083 17.0687 11.0833 16.9583V13.4167C11.083 13.3063 11.039 13.2005 10.9609 13.1224C10.8829 13.0443 10.7771 13.0003 10.6667 13H4.41667C4.30626 13.0003 4.20047 13.0443 4.1224 13.1224C4.04433 13.2005 4.00033 13.3063 4 13.4167V16.9583C4.00033 17.0687 4.04433 17.1745 4.1224 17.2526C4.20047 17.3307 4.30626 17.3747 4.41667 17.375H5.71021L6.57125 18.1546C6.60163 18.1815 6.63925 18.199 6.67944 18.2048C6.71963 18.2106 6.76064 18.2044 6.7974 18.1872C6.83415 18.1699 6.86504 18.1422 6.88624 18.1076C6.90744 18.073 6.91802 18.0329 6.91667 17.9923V17.375H10.6667ZM5.35417 14.0417H9.72917C9.81205 14.0417 9.89153 14.0746 9.95014 14.1332C10.0087 14.1918 10.0417 14.2713 10.0417 14.3542C10.0417 14.437 10.0087 14.5165 9.95014 14.5751C9.89153 14.6337 9.81205 14.6667 9.72917 14.6667H5.35417C5.27129 14.6667 5.1918 14.6337 5.1332 14.5751C5.07459 14.5165 5.04167 14.437 5.04167 14.3542C5.04167 14.2713 5.07459 14.1918 5.1332 14.1332C5.1918 14.0746 5.27129 14.0417 5.35417 14.0417ZM5.04167 15.8125C5.04161 15.7714 5.04966 15.7308 5.06534 15.6928C5.08103 15.6549 5.10404 15.6204 5.13307 15.5914C5.1621 15.5624 5.19657 15.5394 5.23451 15.5237C5.27245 15.508 5.31311 15.4999 5.35417 15.5H9.72917C9.81205 15.5 9.89153 15.5329 9.95014 15.5915C10.0087 15.6501 10.0417 15.7296 10.0417 15.8125C10.0417 15.8954 10.0087 15.9749 9.95014 16.0335C9.89153 16.0921 9.81205 16.125 9.72917 16.125H5.35417C5.31311 16.1251 5.27245 16.117 5.23451 16.1013C5.19657 16.0856 5.1621 16.0626 5.13307 16.0336C5.10404 16.0046 5.08103 15.9701 5.06534 15.9322C5.04966 15.8942 5.04161 15.8536 5.04167 15.8125ZM13.4208 18.7875C13.2371 18.6035 13.0188 18.4577 12.7786 18.3583C12.5383 18.2589 12.2808 18.2079 12.0208 18.2083H9.52083C8.99593 18.2083 8.49252 18.4169 8.12135 18.788C7.75019 19.1592 7.54167 19.6626 7.54167 20.1875C7.54167 20.7124 7.75019 21.2158 8.12135 21.587C8.49252 21.9581 8.99593 22.1667 9.52083 22.1667H10.875V22.7913C10.875 22.8313 10.8865 22.8704 10.9082 22.9041C10.9299 22.9377 10.9608 22.9644 10.9972 22.9809C11.0336 22.9975 11.074 23.0032 11.1136 22.9974C11.1532 22.9915 11.1903 22.9745 11.2204 22.9481L12.125 22.1667C12.1998 22.1625 12.2743 22.1534 12.3479 22.1396H12.35C12.7082 22.079 13.0429 21.9209 13.3174 21.6828C13.5918 21.4447 13.7955 21.1357 13.906 20.7896C14.0166 20.4435 14.0298 20.0736 13.9442 19.7205C13.8587 19.3674 13.6776 19.0446 13.4208 18.7875ZM12.4375 21.125H9.10417C9.02129 21.125 8.9418 21.0921 8.8832 21.0335C8.82459 20.9749 8.79167 20.8954 8.79167 20.8125C8.79167 20.7296 8.82459 20.6501 8.8832 20.5915C8.9418 20.5329 9.02129 20.5 9.10417 20.5H12.4375C12.5204 20.5 12.5999 20.5329 12.6585 20.5915C12.7171 20.6501 12.75 20.7296 12.75 20.8125C12.75 20.8954 12.7171 20.9749 12.6585 21.0335C12.5999 21.0921 12.5204 21.125 12.4375 21.125ZM12.4375 19.875H9.10417C9.02129 19.875 8.9418 19.8421 8.8832 19.7835C8.82459 19.7249 8.79167 19.6454 8.79167 19.5625C8.79167 19.4796 8.82459 19.4001 8.8832 19.3415C8.9418 19.2829 9.02129 19.25 9.10417 19.25H12.4375C12.5204 19.25 12.5999 19.2829 12.6585 19.3415C12.7171 19.4001 12.75 19.4796 12.75 19.5625C12.75 19.6454 12.7171 19.7249 12.6585 19.7835C12.5999 19.8421 12.5204 19.875 12.4375 19.875Z" fill="#011E41"/>
</g>
<g clip-path="url(#clip2_419_6)">
<path d="M36.9167 18.625C36.9166 18.5156 36.9382 18.4072 36.98 18.3061C37.0219 18.2049 37.0833 18.1131 37.1607 18.0357C37.2381 17.9583 37.3299 17.8969 37.4311 17.855C37.5322 17.8132 37.6406 17.7916 37.75 17.7917H39V13.2083C38.9998 13.1531 38.9778 13.1002 38.9388 13.0612C38.8998 13.0222 38.8469 13.0002 38.7917 13H34.2083C34.1531 13.0002 34.1002 13.0222 34.0612 13.0612C34.0222 13.1002 34.0002 13.1531 34 13.2083V19.25C34.0002 19.3052 34.0222 19.3581 34.0612 19.3971C34.1002 19.4362 34.1531 19.4582 34.2083 19.4583H36.9167V18.625ZM36.0833 14.25H38.1667C38.2219 14.25 38.2749 14.2719 38.314 14.311C38.3531 14.3501 38.375 14.4031 38.375 14.4583C38.375 14.5136 38.3531 14.5666 38.314 14.6056C38.2749 14.6447 38.2219 14.6667 38.1667 14.6667H36.0833C36.0281 14.6667 35.9751 14.6447 35.936 14.6056C35.8969 14.5666 35.875 14.5136 35.875 14.4583C35.875 14.4031 35.8969 14.3501 35.936 14.311C35.9751 14.2719 36.0281 14.25 36.0833 14.25ZM35.25 18.8333H34.625V13.625H35.25V18.8333ZM35.875 15.7083C35.8752 15.6531 35.8972 15.6002 35.9362 15.5612C35.9752 15.5222 36.0281 15.5002 36.0833 15.5H38.1667C38.2219 15.5 38.2749 15.5219 38.314 15.561C38.3531 15.6001 38.375 15.6531 38.375 15.7083C38.375 15.7636 38.3531 15.8166 38.314 15.8556C38.2749 15.8947 38.2219 15.9167 38.1667 15.9167H36.0833C36.0281 15.9165 35.9752 15.8945 35.9362 15.8555C35.8972 15.8164 35.8752 15.7635 35.875 15.7083Z" fill="#011E41"/>
<path d="M37.75 18.2083C37.6396 18.2086 37.5338 18.2526 37.4557 18.3307C37.3776 18.4087 37.3336 18.5145 37.3333 18.6249V21.7499H38.1666V19.0416H42.75V21.7499H43.5833V18.6249C43.583 18.5145 43.539 18.4087 43.4609 18.3307C43.3828 18.2526 43.277 18.2086 43.1666 18.2083H37.75ZM43.7916 22.1666H41.5C41.4998 22.2218 41.4778 22.2747 41.4388 22.3137C41.3997 22.3528 41.3468 22.3748 41.2916 22.3749H39.625C39.5698 22.3748 39.5169 22.3528 39.4778 22.3137C39.4388 22.2747 39.4168 22.2218 39.4166 22.1666H37.125C37.0698 22.1667 37.0169 22.1888 36.9778 22.2278C36.9388 22.2668 36.9168 22.3197 36.9166 22.3749V22.7916C36.9168 22.8468 36.9388 22.8997 36.9778 22.9387C37.0169 22.9778 37.0698 22.9998 37.125 22.9999H43.7916C43.8468 22.9998 43.8997 22.9778 43.9388 22.9387C43.9778 22.8997 43.9998 22.8468 44 22.7916V22.3749C43.9998 22.3197 43.9778 22.2668 43.9388 22.2278C43.8997 22.1888 43.8468 22.1667 43.7916 22.1666Z" fill="#011E41"/>
</g>
<path d="M11.0294 42.0881H9.97059C8.91752 42.0881 7.90759 42.5065 7.16296 43.2511C6.41833 43.9957 6 45.0057 6 46.0587L6 47.647H15V46.0587C15 45.0057 14.5817 43.9957 13.837 43.2511C13.0924 42.5065 12.0825 42.0881 11.0294 42.0881Z" fill="#011E41"/>
<path d="M10.5 41.2941C11.9619 41.2941 13.147 40.109 13.147 38.6471C13.147 37.1851 11.9619 36 10.5 36C9.03803 36 7.85291 37.1851 7.85291 38.6471C7.85291 40.109 9.03803 41.2941 10.5 41.2941Z" fill="#011E41"/>
<path d="M25.0294 42.0881H23.9706C22.9175 42.0881 21.9076 42.5065 21.163 43.2511C20.4183 43.9957 20 45.0057 20 46.0587V47.647H29V46.0587C29 45.0057 28.5817 43.9957 27.837 43.2511C27.0924 42.5065 26.0825 42.0881 25.0294 42.0881Z" fill="#011E41"/>
<path d="M24.5 41.2941C25.9619 41.2941 27.147 40.109 27.147 38.6471C27.147 37.1851 25.9619 36 24.5 36C23.038 36 21.8529 37.1851 21.8529 38.6471C21.8529 40.109 23.038 41.2941 24.5 41.2941Z" fill="#011E41"/>
<path d="M38.0294 42.0881H36.9706C35.9175 42.0881 34.9076 42.5065 34.163 43.2511C33.4183 43.9957 33 45.0057 33 46.0587V47.647H42V46.0587C42 45.0057 41.5817 43.9957 40.837 43.2511C40.0924 42.5065 39.0825 42.0881 38.0294 42.0881Z" fill="#011E41"/>
<path d="M37.5 41.2941C38.9619 41.2941 40.147 40.109 40.147 38.6471C40.147 37.1851 38.9619 36 37.5 36C36.038 36 34.8529 37.1851 34.8529 38.6471C34.8529 40.109 36.038 41.2941 37.5 41.2941Z" fill="#011E41"/>
<defs>
<clipPath id="clip0_419_6">
<rect y="4" width="48" height="27" rx="4" fill="white"/>
</clipPath>
<clipPath id="clip1_419_6">
<rect width="10" height="10" fill="white" transform="translate(4 13)"/>
</clipPath>
<clipPath id="clip2_419_6">
<rect width="10" height="10" fill="white" transform="translate(34 13)"/>
</clipPath>
</defs>
</svg>
