<svg width="48" height="48" viewBox="0 0 48 48" fill="none" xmlns="http://www.w3.org/2000/svg">
<g clip-path="url(#clip0_408_203)">
</g>
<rect x="0.5" y="4.5" width="47" height="26" rx="3.5" stroke="#011E41"/>
<g clip-path="url(#clip1_408_203)">
<path d="M15.3333 16.4375C15.521 16.4369 15.7009 16.3621 15.8336 16.2294C15.9663 16.0967 16.0411 15.9169 16.0417 15.7292V9.70833C16.0411 9.52064 15.9663 9.3408 15.8336 9.20809C15.7009 9.07537 15.521 9.00056 15.3333 9H4.70833C4.52064 9.00056 4.3408 9.07537 4.20809 9.20809C4.07537 9.3408 4.00056 9.52064 4 9.70833V15.7292C4.00056 15.9169 4.07537 16.0967 4.20809 16.2294C4.3408 16.3621 4.52064 16.4369 4.70833 16.4375H6.90735L8.37113 17.7628C8.42277 17.8086 8.48672 17.8383 8.55505 17.8481C8.62338 17.858 8.6931 17.8476 8.75558 17.8182C8.81806 17.7888 8.87057 17.7418 8.90661 17.6829C8.94264 17.6241 8.96063 17.5559 8.95833 17.4869V16.4375H15.3333ZM6.30208 10.7708H13.7396C13.8805 10.7708 14.0156 10.8268 14.1152 10.9264C14.2149 11.0261 14.2708 11.1612 14.2708 11.3021C14.2708 11.443 14.2149 11.5781 14.1152 11.6777C14.0156 11.7774 13.8805 11.8333 13.7396 11.8333H6.30208C6.16119 11.8333 6.02606 11.7774 5.92643 11.6777C5.8268 11.5781 5.77083 11.443 5.77083 11.3021C5.77083 11.1612 5.8268 11.0261 5.92643 10.9264C6.02606 10.8268 6.16119 10.7708 6.30208 10.7708V10.7708ZM5.77083 13.7812C5.77074 13.7115 5.78442 13.6423 5.81108 13.5778C5.83775 13.5133 5.87688 13.4547 5.92623 13.4054C5.97557 13.356 6.03418 13.3169 6.09867 13.2902C6.16317 13.2636 6.23229 13.2499 6.30208 13.25H13.7396C13.8805 13.25 14.0156 13.306 14.1152 13.4056C14.2149 13.5052 14.2708 13.6404 14.2708 13.7812C14.2708 13.9221 14.2149 14.0573 14.1152 14.1569C14.0156 14.2565 13.8805 14.3125 13.7396 14.3125H6.30208C6.23229 14.3126 6.16317 14.2989 6.09867 14.2723C6.03418 14.2456 5.97557 14.2065 5.92623 14.1571C5.87688 14.1078 5.83775 14.0492 5.81108 13.9847C5.78442 13.9202 5.77074 13.851 5.77083 13.7812ZM20.0154 18.8387C19.7031 18.526 19.332 18.2781 18.9236 18.1091C18.5152 17.9401 18.0774 17.8535 17.6354 17.8542H13.3854C12.4931 17.8542 11.6373 18.2086 11.0063 18.8396C10.3753 19.4706 10.0208 20.3264 10.0208 21.2187C10.0208 22.1111 10.3753 22.9669 11.0063 23.5979C11.6373 24.2289 12.4931 24.5833 13.3854 24.5833H15.6875V25.6451C15.6875 25.7131 15.7071 25.7797 15.7439 25.8369C15.7808 25.8941 15.8333 25.9395 15.8952 25.9676C15.9571 25.9957 16.0259 26.0054 16.0932 25.9955C16.1605 25.9856 16.2235 25.9566 16.2747 25.9118L17.8125 24.5833C17.9397 24.5762 18.0663 24.5608 18.1915 24.5373H18.195C18.804 24.4342 19.373 24.1656 19.8395 23.7608C20.3061 23.356 20.6523 22.8307 20.8403 22.2423C21.0282 21.6539 21.0507 21.0251 20.9052 20.4248C20.7597 19.8245 20.4519 19.2758 20.0154 18.8387V18.8387ZM18.3438 22.8125H12.6771C12.5362 22.8125 12.4011 22.7565 12.3014 22.6569C12.2018 22.5573 12.1458 22.4221 12.1458 22.2812C12.1458 22.1404 12.2018 22.0052 12.3014 21.9056C12.4011 21.806 12.5362 21.75 12.6771 21.75H18.3438C18.4846 21.75 18.6198 21.806 18.7194 21.9056C18.819 22.0052 18.875 22.1404 18.875 22.2812C18.875 22.4221 18.819 22.5573 18.7194 22.6569C18.6198 22.7565 18.4846 22.8125 18.3438 22.8125ZM18.3438 20.6875H12.6771C12.5362 20.6875 12.4011 20.6315 12.3014 20.5319C12.2018 20.4323 12.1458 20.2971 12.1458 20.1562C12.1458 20.0154 12.2018 19.8802 12.3014 19.7806C12.4011 19.681 12.5362 19.625 12.6771 19.625H18.3438C18.4846 19.625 18.6198 19.681 18.7194 19.7806C18.819 19.8802 18.875 20.0154 18.875 20.1562C18.875 20.2971 18.819 20.4323 18.7194 20.5319C18.6198 20.6315 18.4846 20.6875 18.3438 20.6875Z" fill="#011E41"/>
</g>
<g clip-path="url(#clip2_408_203)">
<path d="M33.6667 18C33.6666 17.8249 33.7011 17.6515 33.7681 17.4897C33.8351 17.3279 33.9333 17.1809 34.0571 17.0571C34.1809 16.9333 34.3279 16.8351 34.4897 16.7681C34.6515 16.7011 34.8249 16.6666 35 16.6667H37V9.33333C36.9997 9.24501 36.9645 9.16038 36.9021 9.09792C36.8396 9.03547 36.755 9.00026 36.6667 9H29.3333C29.245 9.00026 29.1604 9.03547 29.0979 9.09792C29.0355 9.16038 29.0003 9.24501 29 9.33333V19C29.0003 19.0883 29.0355 19.173 29.0979 19.2354C29.1604 19.2979 29.245 19.3331 29.3333 19.3333H33.6667V18ZM32.3333 11H35.6667C35.7551 11 35.8399 11.0351 35.9024 11.0976C35.9649 11.1601 36 11.2449 36 11.3333C36 11.4217 35.9649 11.5065 35.9024 11.569C35.8399 11.6315 35.7551 11.6667 35.6667 11.6667H32.3333C32.2449 11.6667 32.1601 11.6315 32.0976 11.569C32.0351 11.5065 32 11.4217 32 11.3333C32 11.2449 32.0351 11.1601 32.0976 11.0976C32.1601 11.0351 32.2449 11 32.3333 11V11ZM31 18.3333H30V10H31V18.3333ZM32 13.3333C32.0003 13.245 32.0355 13.1604 32.0979 13.0979C32.1604 13.0355 32.245 13.0003 32.3333 13H35.6667C35.7551 13 35.8399 13.0351 35.9024 13.0976C35.9649 13.1601 36 13.2449 36 13.3333C36 13.4217 35.9649 13.5065 35.9024 13.569C35.8399 13.6315 35.7551 13.6667 35.6667 13.6667H32.3333C32.245 13.6664 32.1604 13.6312 32.0979 13.5687C32.0355 13.5063 32.0003 13.4217 32 13.3333V13.3333Z" fill="#011E41"/>
<path d="M35 17.3333C34.8233 17.3338 34.654 17.4042 34.5291 17.5291C34.4042 17.654 34.3338 17.8233 34.3333 17.9999V22.9999H35.6666V18.6666H43V22.9999H44.3333V17.9999C44.3328 17.8233 44.2624 17.654 44.1374 17.5291C44.0125 17.4042 43.8433 17.3338 43.6666 17.3333H35ZM44.6666 23.6666H41C40.9997 23.7549 40.9645 23.8395 40.902 23.902C40.8396 23.9645 40.7549 23.9997 40.6666 23.9999H38C37.9116 23.9997 37.827 23.9645 37.7645 23.902C37.7021 23.8395 37.6669 23.7549 37.6666 23.6666H34C33.9116 23.6668 33.827 23.7021 33.7645 23.7645C33.7021 23.827 33.6669 23.9116 33.6666 23.9999V24.6666C33.6669 24.7549 33.7021 24.8395 33.7645 24.902C33.827 24.9645 33.9116 24.9997 34 24.9999H44.6666C44.7549 24.9997 44.8396 24.9645 44.902 24.902C44.9645 24.8395 44.9997 24.7549 45 24.6666V23.9999C44.9997 23.9116 44.9645 23.827 44.902 23.7645C44.8396 23.7021 44.7549 23.6668 44.6666 23.6666Z" fill="#011E41"/>
</g>
<path d="M11.0294 42.0881H9.97059C8.91752 42.0881 7.90759 42.5065 7.16296 43.2511C6.41833 43.9957 6 45.0057 6 46.0587L6 47.647H15V46.0587C15 45.0057 14.5817 43.9957 13.837 43.2511C13.0924 42.5065 12.0825 42.0881 11.0294 42.0881Z" fill="#011E41"/>
<path d="M10.5 41.2941C11.9619 41.2941 13.147 40.109 13.147 38.6471C13.147 37.1851 11.9619 36 10.5 36C9.03803 36 7.85291 37.1851 7.85291 38.6471C7.85291 40.109 9.03803 41.2941 10.5 41.2941Z" fill="#011E41"/>
<path d="M25.0294 42.0881H23.9706C22.9175 42.0881 21.9076 42.5065 21.163 43.2511C20.4183 43.9957 20 45.0057 20 46.0587V47.647H29V46.0587C29 45.0057 28.5817 43.9957 27.837 43.2511C27.0924 42.5065 26.0825 42.0881 25.0294 42.0881Z" fill="#011E41"/>
<path d="M24.5 41.2941C25.9619 41.2941 27.147 40.109 27.147 38.6471C27.147 37.1851 25.9619 36 24.5 36C23.038 36 21.8529 37.1851 21.8529 38.6471C21.8529 40.109 23.038 41.2941 24.5 41.2941Z" fill="#011E41"/>
<path d="M38.0294 42.0881H36.9706C35.9175 42.0881 34.9076 42.5065 34.163 43.2511C33.4183 43.9957 33 45.0057 33 46.0587V47.647H42V46.0587C42 45.0057 41.5817 43.9957 40.837 43.2511C40.0924 42.5065 39.0825 42.0881 38.0294 42.0881Z" fill="#011E41"/>
<path d="M37.5 41.2941C38.9619 41.2941 40.147 40.109 40.147 38.6471C40.147 37.1851 38.9619 36 37.5 36C36.038 36 34.8529 37.1851 34.8529 38.6471C34.8529 40.109 36.038 41.2941 37.5 41.2941Z" fill="#011E41"/>
<defs>
<clipPath id="clip0_408_203">
<rect y="4" width="48" height="27" rx="4" fill="white"/>
</clipPath>
<clipPath id="clip1_408_203">
<rect width="17" height="17" fill="white" transform="translate(4 9)"/>
</clipPath>
<clipPath id="clip2_408_203">
<rect width="16" height="16" fill="white" transform="translate(29 9)"/>
</clipPath>
</defs>
</svg>
