<svg width="48" height="48" viewBox="0 0 48 48" fill="none" xmlns="http://www.w3.org/2000/svg">
<g clip-path="url(#clip0_74_1697)">
<path d="M47.0604 2H18.9404C18.6833 2.00836 18.44 2.11831 18.2638 2.30575C18.0876 2.4932 17.9929 2.74285 18.0004 3V28H24.0004C25.3265 28 26.5983 28.5268 27.536 29.4645C28.4736 30.4021 29.0004 31.6739 29.0004 33C29.0004 34.3261 28.4736 35.5979 27.536 36.5355C26.5983 37.4732 25.3265 38 24.0004 38H18.0004V43C17.9929 43.2571 18.0876 43.5068 18.2638 43.6942C18.44 43.8817 18.6833 43.9916 18.9404 44H39.0004V37.78C39.0023 37.0433 39.2958 36.3372 39.8167 35.8163C40.3377 35.2953 41.0437 35.0018 41.7804 35H48.0004V3C48.008 2.74285 47.9133 2.4932 47.7371 2.30575C47.5609 2.11831 47.3175 2.00836 47.0604 2V2ZM42.0004 25H24.0004C23.7352 25 23.4808 24.8946 23.2933 24.7071C23.1058 24.5196 23.0004 24.2652 23.0004 24C23.0004 23.7348 23.1058 23.4804 23.2933 23.2929C23.4808 23.1054 23.7352 23 24.0004 23H42.0004C42.2656 23 42.52 23.1054 42.7075 23.2929C42.8951 23.4804 43.0004 23.7348 43.0004 24C43.0004 24.2652 42.8951 24.5196 42.7075 24.7071C42.52 24.8946 42.2656 25 42.0004 25ZM42.0004 19H24.0004C23.7352 19 23.4808 18.8946 23.2933 18.7071C23.1058 18.5196 23.0004 18.2652 23.0004 18C23.0004 17.7348 23.1058 17.4804 23.2933 17.2929C23.4808 17.1054 23.7352 17 24.0004 17H42.0004C42.2656 17 42.52 17.1054 42.7075 17.2929C42.8951 17.4804 43.0004 17.7348 43.0004 18C43.0004 18.2652 42.8951 18.5196 42.7075 18.7071C42.52 18.8946 42.2656 19 42.0004 19ZM42.0004 13H24.0004C23.7352 13 23.4808 12.8946 23.2933 12.7071C23.1058 12.5196 23.0004 12.2652 23.0004 12C23.0004 11.7348 23.1058 11.4804 23.2933 11.2929C23.4808 11.1054 23.7352 11 24.0004 11H42.0004C42.2656 11 42.52 11.1054 42.7075 11.2929C42.8951 11.4804 43.0004 11.7348 43.0004 12C43.0004 12.2652 42.8951 12.5196 42.7075 12.7071C42.52 12.8946 42.2656 13 42.0004 13Z" fill="#011E41"/>
<path d="M41.78 37C41.5732 37.0003 41.375 37.0825 41.2287 37.2287C41.0825 37.375 41.0003 37.5732 41 37.78V44L48 37H41.78ZM24 31H15V22C15 21.4696 14.7893 20.9609 14.4142 20.5858C14.0391 20.2107 13.5304 20 13 20C12.4696 20 11.9609 20.2107 11.5858 20.5858C11.2107 20.9609 11 21.4696 11 22V31H2C1.46957 31 0.960859 31.2107 0.585786 31.5858C0.210714 31.9609 0 32.4696 0 33C0 33.5304 0.210714 34.0391 0.585786 34.4142C0.960859 34.7893 1.46957 35 2 35H11V44C11 44.5304 11.2107 45.0391 11.5858 45.4142C11.9609 45.7893 12.4696 46 13 46C13.5304 46 14.0391 45.7893 14.4142 45.4142C14.7893 45.0391 15 44.5304 15 44V35H24C24.5304 35 25.0391 34.7893 25.4142 34.4142C25.7893 34.0391 26 33.5304 26 33C26 32.4696 25.7893 31.9609 25.4142 31.5858C25.0391 31.2107 24.5304 31 24 31Z" fill="#011E41"/>
</g>
<defs>
<clipPath id="clip0_74_1697">
<rect width="48" height="48" fill="white"/>
</clipPath>
</defs>
</svg>
