<svg width="48" height="48" viewBox="0 0 48 48" fill="none" xmlns="http://www.w3.org/2000/svg">
<path d="M44.0005 19.996H43.9995L27.9955 20L27.9925 3.99998C27.9922 2.93928 27.5707 1.92213 26.8206 1.1722C26.0705 0.422267 25.0532 0.000976529 23.9925 0.000976563C23.4671 0.000976546 22.9469 0.104473 22.4615 0.305554C21.9762 0.506635 21.5352 0.801363 21.1637 1.1729C20.7923 1.54444 20.4977 1.98552 20.2967 2.47094C20.0957 2.95635 19.9924 3.4766 19.9925 4.00198L19.9955 20.002L3.9995 20.005C2.93863 20.0051 1.92127 20.4267 1.17122 21.1769C0.421168 21.9271 -0.000132577 22.9446 3.12953e-08 24.0055C0.00013264 25.0663 0.421687 26.0837 1.17193 26.8338C1.92217 27.5838 2.93963 28.0051 4.0005 28.005H4.0015L19.9975 28L20.0005 44C20.0005 45.0608 20.4219 46.0783 21.1721 46.8284C21.9222 47.5785 22.9396 48 24.0005 48H24.0015C24.5268 47.9998 25.0469 47.8963 25.5322 47.6951C26.0174 47.494 26.4583 47.1992 26.8296 46.8277C27.201 46.4562 27.4955 46.0151 27.6964 45.5298C27.8973 45.0444 28.0006 44.5243 28.0005 43.999L27.9975 27.999L44.0005 27.996C45.0614 27.9958 46.0787 27.5743 46.8288 26.8241C47.5788 26.0738 48.0001 25.0563 48 23.9955C47.9999 22.9346 47.5783 21.9172 46.8281 21.1672C46.0778 20.4171 45.0604 19.9958 43.9995 19.996H44.0005Z" fill="#011E41"/>
</svg>
