<svg width="104" height="48" viewBox="0 0 104 48" fill="none" xmlns="http://www.w3.org/2000/svg">
<path d="M37.0346 44H26.0056V7H36.3328L31.5993 18.953C31.5269 19.1359 31.4913 19.3312 31.4946 19.5278C31.4978 19.7243 31.5399 19.9184 31.6183 20.0987C31.6968 20.2791 31.8101 20.4423 31.9517 20.579C32.0934 20.7157 32.2607 20.8233 32.444 20.8955C32.6274 20.9677 32.8232 21.0032 33.0203 21C33.2174 20.9967 33.4119 20.9548 33.5928 20.8766C33.7737 20.7983 33.9373 20.6853 34.0744 20.544C34.2114 20.4027 34.3192 20.2359 34.3917 20.053L38.5386 9.58L42.6855 20.053C42.7579 20.2359 42.8657 20.4027 43.0028 20.544C43.1398 20.6853 43.3035 20.7983 43.4843 20.8766C43.6652 20.9548 43.8597 20.9967 44.0568 21C44.2539 21.0032 44.4497 20.9677 44.6331 20.8955C44.8164 20.8233 44.9837 20.7157 45.1254 20.579C45.2671 20.4423 45.3804 20.2791 45.4588 20.0987C45.5372 19.9184 45.5793 19.7243 45.5825 19.5278C45.5858 19.3312 45.5502 19.1359 45.4778 18.953L39.9322 4.95C39.8233 4.66981 39.6318 4.42908 39.3831 4.25951C39.1343 4.08993 38.8399 3.99946 38.5386 4H26.0056V2C26.0056 1.46957 25.7944 0.960859 25.4183 0.585786C25.0422 0.210714 24.5322 0 24.0004 0C23.4685 0 22.9585 0.210714 22.5824 0.585786C22.2064 0.960859 21.9951 1.46957 21.9951 2V4H9.46216C9.16084 3.99946 8.86643 4.08993 8.61766 4.25951C8.3689 4.42908 8.17744 4.66981 8.0685 4.95L2.52293 18.953C2.45051 19.1359 2.41491 19.3312 2.41817 19.5278C2.42143 19.7243 2.46348 19.9184 2.54192 20.0987C2.62036 20.2791 2.73365 20.4423 2.87533 20.579C3.01701 20.7157 3.1843 20.8233 3.36765 20.8955C3.55099 20.9677 3.74681 21.0032 3.94391 21C4.14102 20.9967 4.33555 20.9548 4.5164 20.8766C4.69726 20.7983 4.86089 20.6853 4.99796 20.544C5.13503 20.4027 5.24285 20.2359 5.31526 20.053L9.46216 9.58L13.6091 20.053C13.6815 20.2359 13.7893 20.4027 13.9264 20.544C14.0634 20.6853 14.2271 20.7983 14.4079 20.8766C14.5888 20.9548 14.7833 20.9967 14.9804 21C15.1775 21.0032 15.3733 20.9677 15.5567 20.8955C15.74 20.8233 15.9073 20.7157 16.049 20.579C16.1907 20.4423 16.304 20.2791 16.3824 20.0987C16.4608 19.9184 16.5029 19.7243 16.5061 19.5278C16.5094 19.3312 16.4738 19.1359 16.4014 18.953L11.667 7H21.9941V44H10.9651C10.4333 44 9.92323 44.2107 9.54717 44.5858C9.17111 44.9609 8.95984 45.4696 8.95984 46C8.95984 46.5304 9.17111 47.0391 9.54717 47.4142C9.92323 47.7893 10.4333 48 10.9651 48H37.0336C37.5654 48 38.0755 47.7893 38.4515 47.4142C38.8276 47.0391 39.0389 46.5304 39.0389 46C39.0389 45.4696 38.8276 44.9609 38.4515 44.5858C38.0755 44.2107 37.5654 44 37.0336 44H37.0346Z" fill="#011E41"/>
<path d="M18.9187 24.311C18.9269 24.2736 18.9266 24.2348 18.9178 24.1975C18.9091 24.1601 18.8921 24.1252 18.868 24.0953C18.844 24.0654 18.8136 24.0412 18.7789 24.0246C18.7443 24.0079 18.7064 23.9992 18.668 23.999H0.256629C0.218196 23.9992 0.180285 24.0079 0.145673 24.0246C0.11106 24.0412 0.0806232 24.0654 0.0565909 24.0953C0.0325585 24.1252 0.0155396 24.1601 0.0067808 24.1975C-0.00197803 24.2348 -0.00225494 24.2736 0.00597034 24.311C0.513113 26.432 1.72221 28.3205 3.43801 29.6717C5.15382 31.0228 7.27616 31.7578 9.46231 31.7578C11.6485 31.7578 13.7708 31.0228 15.4866 29.6717C17.2024 28.3205 18.4115 26.432 18.9187 24.311V24.311ZM47.7454 23.999H29.332C29.2936 23.9992 29.2557 24.0079 29.221 24.0246C29.1864 24.0412 29.156 24.0654 29.132 24.0953C29.1079 24.1252 29.0909 24.1601 29.0822 24.1975C29.0734 24.2348 29.0731 24.2736 29.0813 24.311C29.5885 26.432 30.7976 28.3205 32.5134 29.6717C34.2292 31.0228 36.3515 31.7578 38.5377 31.7578C40.7238 31.7578 42.8462 31.0228 44.562 29.6717C46.2778 28.3205 47.4869 26.432 47.994 24.311C48.0023 24.2736 48.002 24.2348 47.9932 24.1975C47.9845 24.1601 47.9674 24.1252 47.9434 24.0953C47.9194 24.0654 47.8889 24.0412 47.8543 24.0246C47.8197 24.0079 47.7818 23.9992 47.7434 23.999H47.7454Z" fill="#011E41"/>
<g clip-path="url(#clip0_1643_5827)">
<path d="M102 9.97001V30.15C102 40.01 94.7 48 86 48C77.3 48 70 40.01 70 30.15V22.83C71.7686 22.5625 73.4626 21.931 74.9747 20.9754C76.4869 20.0199 77.7844 18.7611 78.7853 17.2786C79.7861 15.7961 80.4686 14.122 80.7896 12.3623C81.1106 10.6026 81.063 8.79542 80.65 7.055L85.81 6.04C85.9349 6.00995 86.0651 6.00995 86.19 6.04L101.19 8.99C101.418 9.03354 101.624 9.15524 101.771 9.33414C101.919 9.51303 102 9.73791 102 9.97001ZM58 10C58 8.02219 58.5865 6.08879 59.6853 4.4443C60.7841 2.79981 62.3459 1.51809 64.1732 0.761209C66.0004 0.00433284 68.0111 -0.193701 69.9509 0.192152C71.8907 0.578004 73.6725 1.53041 75.0711 2.92894C76.4696 4.32746 77.422 6.10929 77.8079 8.0491C78.1937 9.98891 77.9957 11.9996 77.2388 13.8268C76.4819 15.6541 75.2002 17.2159 73.5557 18.3147C71.9112 19.4135 69.9778 20 68 20C65.3482 19.9989 62.8052 18.945 60.9301 17.0699C59.055 15.1948 58.0011 12.6518 58 10V10ZM62.29 10.71L65.29 13.71C65.4802 13.895 65.7347 13.999 66 14C66.2382 13.9994 66.4685 13.9144 66.65 13.76L73.65 7.76C73.7498 7.67465 73.8318 7.57046 73.8914 7.45341C73.9509 7.33635 73.9868 7.20872 73.997 7.07779C74.0072 6.94686 73.9916 6.81519 73.9509 6.69032C73.9102 6.56545 73.8454 6.44981 73.76 6.35C73.6746 6.2502 73.5705 6.16818 73.4534 6.10864C73.3363 6.0491 73.2087 6.0132 73.0778 6.00298C72.8134 5.98235 72.5516 6.06761 72.35 6.24L66.05 11.64L63.71 9.29C63.5217 9.1017 63.2663 8.99591 63 8.99591C62.7337 8.99591 62.4783 9.1017 62.29 9.29C62.1017 9.47831 61.9959 9.7337 61.9959 10C61.9959 10.2663 62.1017 10.5217 62.29 10.71V10.71Z" fill="#011E41"/>
<line x1="75" y1="26" x2="98" y2="26" stroke="white" stroke-width="2"/>
<line x1="75" y1="30" x2="98" y2="30" stroke="white" stroke-width="2"/>
<line x1="75" y1="34" x2="98" y2="34" stroke="white" stroke-width="2"/>
</g>
<defs>
<clipPath id="clip0_1643_5827">
<rect width="48" height="48" fill="white" transform="translate(56)"/>
</clipPath>
</defs>
</svg>
