<svg width="103" height="52" viewBox="0 0 103 52" fill="none" xmlns="http://www.w3.org/2000/svg">
<path d="M40.0161 47.6667H28.0994V7.58333H39.2578L34.1434 20.5324C34.0651 20.7305 34.0267 20.9421 34.0302 21.1551C34.0337 21.368 34.0791 21.5782 34.1639 21.7736C34.2486 21.969 34.3711 22.1458 34.5241 22.2939C34.6772 22.442 34.858 22.5585 35.0561 22.6368C35.2542 22.715 35.4658 22.7535 35.6787 22.75C35.8917 22.7465 36.1019 22.701 36.2973 22.6163C36.4927 22.5315 36.6695 22.4091 36.8176 22.256C36.9657 22.1029 37.0822 21.9222 37.1605 21.7241L41.6411 10.3783L46.1218 21.7241C46.2 21.9222 46.3165 22.1029 46.4646 22.256C46.6127 22.4091 46.7895 22.5315 46.985 22.6163C47.1804 22.701 47.3906 22.7465 47.6035 22.75C47.8165 22.7535 48.0281 22.715 48.2262 22.6368C48.4243 22.5585 48.605 22.442 48.7581 22.2939C48.9112 22.1458 49.0336 21.969 49.1184 21.7736C49.2031 21.5782 49.2485 21.368 49.2521 21.1551C49.2556 20.9421 49.2171 20.7305 49.1389 20.5324L43.147 5.3625C43.0292 5.05896 42.8224 4.79817 42.5536 4.61447C42.2848 4.43076 41.9667 4.33275 41.6411 4.33333H28.0994V2.16667C28.0994 1.59203 27.8712 1.04093 27.4648 0.634602C27.0585 0.228273 26.5074 0 25.9328 0C25.3581 0 24.807 0.228273 24.4007 0.634602C23.9944 1.04093 23.7661 1.59203 23.7661 2.16667V4.33333H10.2244C9.89887 4.33275 9.58076 4.43076 9.31197 4.61447C9.04318 4.79817 8.83632 5.05896 8.71861 5.3625L2.72669 20.5324C2.64844 20.7305 2.60998 20.9421 2.6135 21.1551C2.61702 21.368 2.66246 21.5782 2.74721 21.7736C2.83196 21.969 2.95438 22.1458 3.10746 22.2939C3.26054 22.442 3.44129 22.5585 3.6394 22.6368C3.8375 22.715 4.04908 22.7535 4.26205 22.75C4.47501 22.7465 4.6852 22.701 4.88061 22.6163C5.07602 22.5315 5.25282 22.4091 5.40093 22.256C5.54903 22.1029 5.66553 21.9222 5.74377 21.7241L10.2244 10.3783L14.7051 21.7241C14.7834 21.9222 14.8999 22.1029 15.048 22.256C15.1961 22.4091 15.3729 22.5315 15.5683 22.6163C15.7637 22.701 15.9739 22.7465 16.1868 22.75C16.3998 22.7535 16.6114 22.715 16.8095 22.6368C17.0076 22.5585 17.1883 22.442 17.3414 22.2939C17.4945 22.1458 17.6169 21.969 17.7017 21.7736C17.7864 21.5782 17.8319 21.368 17.8354 21.1551C17.8389 20.9421 17.8004 20.7305 17.7222 20.5324L12.6067 7.58333H23.765V47.6667H11.8484C11.2737 47.6667 10.7226 47.8949 10.3163 48.3013C9.90996 48.7076 9.68169 49.2587 9.68169 49.8333C9.68169 50.408 9.90996 50.9591 10.3163 51.3654C10.7226 51.7717 11.2737 52 11.8484 52H40.015C40.5897 52 41.1408 51.7717 41.5471 51.3654C41.9534 50.9591 42.1817 50.408 42.1817 49.8333C42.1817 49.2587 41.9534 48.7076 41.5471 48.3013C41.1408 47.8949 40.5897 47.6667 40.015 47.6667H40.0161Z" fill="#011E41"/>
<path d="M20.4414 26.337C20.4503 26.2965 20.45 26.2544 20.4405 26.214C20.431 26.1736 20.4126 26.1357 20.3867 26.1033C20.3607 26.0709 20.3278 26.0447 20.2904 26.0267C20.253 26.0086 20.2121 25.9992 20.1705 25.999H0.277284C0.235758 25.9992 0.194796 26.0086 0.157398 26.0267C0.119999 26.0447 0.0871124 26.0709 0.0611457 26.1033C0.0351791 26.1357 0.0167904 26.1736 0.00732657 26.214C-0.00213724 26.2544 -0.00243644 26.2965 0.00645087 26.337C0.554412 28.6347 1.86083 30.6806 3.71473 32.1444C5.56863 33.6081 7.8618 34.4043 10.2239 34.4043C12.586 34.4043 14.8792 33.6081 16.7331 32.1444C18.587 30.6806 19.8934 28.6347 20.4414 26.337V26.337ZM51.5883 25.999H31.6929C31.6513 25.9992 31.6104 26.0086 31.573 26.0267C31.5356 26.0447 31.5027 26.0709 31.4767 26.1033C31.4508 26.1357 31.4324 26.1736 31.4229 26.214C31.4134 26.2544 31.4131 26.2965 31.422 26.337C31.97 28.6347 33.2764 30.6806 35.1303 32.1444C36.9842 33.6081 39.2774 34.4043 41.6395 34.4043C44.0016 34.4043 46.2948 33.6081 48.1487 32.1444C50.0026 30.6806 51.309 28.6347 51.8569 26.337C51.8658 26.2965 51.8655 26.2544 51.8561 26.214C51.8466 26.1736 51.8282 26.1357 51.8022 26.1033C51.7763 26.0709 51.7434 26.0447 51.706 26.0267C51.6686 26.0086 51.6276 25.9992 51.5861 25.999H51.5883Z" fill="#011E41"/>
<g clip-path="url(#clip0_1643_5856)">
<path d="M101 13.97V34.15C101 44.01 93.7 52 85 52C76.3 52 69 44.01 69 34.15V26.83C70.7686 26.5625 72.4626 25.931 73.9747 24.9754C75.4869 24.0199 76.7844 22.7611 77.7853 21.2786C78.7861 19.7961 79.4686 18.122 79.7896 16.3623C80.1106 14.6026 80.063 12.7954 79.65 11.055L84.81 10.04C84.9349 10.0099 85.0651 10.0099 85.19 10.04L100.19 12.99C100.418 13.0335 100.624 13.1552 100.771 13.3341C100.919 13.513 101 13.7379 101 13.97ZM57 14C57 12.0222 57.5865 10.0888 58.6853 8.4443C59.7841 6.79981 61.3459 5.51809 63.1732 4.76121C65.0004 4.00433 67.0111 3.8063 68.9509 4.19215C70.8907 4.578 72.6725 5.53041 74.0711 6.92894C75.4696 8.32746 76.422 10.1093 76.8079 12.0491C77.1937 13.9889 76.9957 15.9996 76.2388 17.8268C75.4819 19.6541 74.2002 21.2159 72.5557 22.3147C70.9112 23.4135 68.9778 24 67 24C64.3482 23.9989 61.8052 22.945 59.9301 21.0699C58.055 19.1948 57.0011 16.6518 57 14V14ZM61.29 14.71L64.29 17.71C64.4802 17.895 64.7347 17.999 65 18C65.2382 17.9994 65.4685 17.9144 65.65 17.76L72.65 11.76C72.7498 11.6746 72.8318 11.5705 72.8914 11.4534C72.9509 11.3364 72.9868 11.2087 72.997 11.0778C73.0072 10.9469 72.9916 10.8152 72.9509 10.6903C72.9102 10.5654 72.8454 10.4498 72.76 10.35C72.6746 10.2502 72.5705 10.1682 72.4534 10.1086C72.3363 10.0491 72.2087 10.0132 72.0778 10.003C71.8134 9.98235 71.5516 10.0676 71.35 10.24L65.05 15.64L62.71 13.29C62.5217 13.1017 62.2663 12.9959 62 12.9959C61.7337 12.9959 61.4783 13.1017 61.29 13.29C61.1017 13.4783 60.9959 13.7337 60.9959 14C60.9959 14.2663 61.1017 14.5217 61.29 14.71V14.71Z" fill="#011E41"/>
<line x1="74" y1="30" x2="97" y2="30" stroke="white" stroke-width="2"/>
<line x1="74" y1="34" x2="97" y2="34" stroke="white" stroke-width="2"/>
<line x1="74" y1="38" x2="97" y2="38" stroke="white" stroke-width="2"/>
</g>
<defs>
<clipPath id="clip0_1643_5856">
<rect width="48" height="48" fill="white" transform="translate(55 4)"/>
</clipPath>
</defs>
</svg>
