<svg width="112" height="56" viewBox="0 0 112 56" fill="none" xmlns="http://www.w3.org/2000/svg">
<g filter="url(#filter0_d_1643_5827)">
<path d="M41.0346 44H30.0056V7H40.3328L35.5993 18.953C35.5269 19.1359 35.4913 19.3312 35.4946 19.5278C35.4978 19.7243 35.5399 19.9184 35.6183 20.0987C35.6968 20.2791 35.8101 20.4423 35.9517 20.579C36.0934 20.7157 36.2607 20.8233 36.444 20.8955C36.6274 20.9677 36.8232 21.0032 37.0203 21C37.2174 20.9967 37.4119 20.9548 37.5928 20.8766C37.7737 20.7983 37.9373 20.6853 38.0744 20.544C38.2114 20.4027 38.3192 20.2359 38.3917 20.053L42.5386 9.58L46.6855 20.053C46.7579 20.2359 46.8657 20.4027 47.0028 20.544C47.1398 20.6853 47.3035 20.7983 47.4843 20.8766C47.6652 20.9548 47.8597 20.9967 48.0568 21C48.2539 21.0032 48.4497 20.9677 48.6331 20.8955C48.8164 20.8233 48.9837 20.7157 49.1254 20.579C49.2671 20.4423 49.3804 20.2791 49.4588 20.0987C49.5372 19.9184 49.5793 19.7243 49.5825 19.5278C49.5858 19.3312 49.5502 19.1359 49.4778 18.953L43.9322 4.95C43.8233 4.66981 43.6318 4.42908 43.3831 4.25951C43.1343 4.08993 42.8399 3.99946 42.5386 4H30.0056V2C30.0056 1.46957 29.7944 0.960859 29.4183 0.585786C29.0422 0.210714 28.5322 0 28.0004 0C27.4685 0 26.9585 0.210714 26.5824 0.585786C26.2064 0.960859 25.9951 1.46957 25.9951 2V4H13.4622C13.1608 3.99946 12.8664 4.08993 12.6177 4.25951C12.3689 4.42908 12.1774 4.66981 12.0685 4.95L6.52293 18.953C6.45051 19.1359 6.41491 19.3312 6.41817 19.5278C6.42143 19.7243 6.46348 19.9184 6.54192 20.0987C6.62036 20.2791 6.73365 20.4423 6.87533 20.579C7.01701 20.7157 7.1843 20.8233 7.36765 20.8955C7.55099 20.9677 7.74681 21.0032 7.94391 21C8.14102 20.9967 8.33555 20.9548 8.5164 20.8766C8.69726 20.7983 8.86089 20.6853 8.99796 20.544C9.13503 20.4027 9.24285 20.2359 9.31526 20.053L13.4622 9.58L17.6091 20.053C17.6815 20.2359 17.7893 20.4027 17.9264 20.544C18.0634 20.6853 18.2271 20.7983 18.4079 20.8766C18.5888 20.9548 18.7833 20.9967 18.9804 21C19.1775 21.0032 19.3733 20.9677 19.5567 20.8955C19.74 20.8233 19.9073 20.7157 20.049 20.579C20.1907 20.4423 20.304 20.2791 20.3824 20.0987C20.4608 19.9184 20.5029 19.7243 20.5061 19.5278C20.5094 19.3312 20.4738 19.1359 20.4014 18.953L15.667 7H25.9941V44H14.9651C14.4333 44 13.9232 44.2107 13.5472 44.5858C13.1711 44.9609 12.9598 45.4696 12.9598 46C12.9598 46.5304 13.1711 47.0391 13.5472 47.4142C13.9232 47.7893 14.4333 48 14.9651 48H41.0336C41.5654 48 42.0755 47.7893 42.4515 47.4142C42.8276 47.0391 43.0389 46.5304 43.0389 46C43.0389 45.4696 42.8276 44.9609 42.4515 44.5858C42.0755 44.2107 41.5654 44 41.0336 44H41.0346Z" fill="#011E41"/>
<path d="M22.9187 24.311C22.9269 24.2736 22.9266 24.2348 22.9178 24.1975C22.9091 24.1601 22.8921 24.1252 22.868 24.0953C22.844 24.0654 22.8136 24.0412 22.7789 24.0246C22.7443 24.0079 22.7064 23.9992 22.668 23.999H4.25663C4.2182 23.9992 4.18029 24.0079 4.14567 24.0246C4.11106 24.0412 4.08062 24.0654 4.05659 24.0953C4.03256 24.1252 4.01554 24.1601 4.00678 24.1975C3.99802 24.2348 3.99775 24.2736 4.00597 24.311C4.51311 26.432 5.72221 28.3205 7.43801 29.6717C9.15382 31.0228 11.2762 31.7578 13.4623 31.7578C15.6485 31.7578 17.7708 31.0228 19.4866 29.6717C21.2024 28.3205 22.4115 26.432 22.9187 24.311V24.311ZM51.7454 23.999H33.332C33.2936 23.9992 33.2557 24.0079 33.221 24.0246C33.1864 24.0412 33.156 24.0654 33.132 24.0953C33.1079 24.1252 33.0909 24.1601 33.0822 24.1975C33.0734 24.2348 33.0731 24.2736 33.0813 24.311C33.5885 26.432 34.7976 28.3205 36.5134 29.6717C38.2292 31.0228 40.3515 31.7578 42.5377 31.7578C44.7238 31.7578 46.8462 31.0228 48.562 29.6717C50.2778 28.3205 51.4869 26.432 51.994 24.311C52.0023 24.2736 52.002 24.2348 51.9932 24.1975C51.9845 24.1601 51.9674 24.1252 51.9434 24.0953C51.9194 24.0654 51.8889 24.0412 51.8543 24.0246C51.8197 24.0079 51.7818 23.9992 51.7434 23.999H51.7454Z" fill="#011E41"/>
<g clip-path="url(#clip0_1643_5827)">
<path d="M106 9.97001V30.15C106 40.01 98.7 48 90 48C81.3 48 74 40.01 74 30.15V22.83C75.7686 22.5625 77.4626 21.931 78.9747 20.9754C80.4869 20.0199 81.7844 18.7611 82.7853 17.2786C83.7861 15.7961 84.4686 14.122 84.7896 12.3623C85.1106 10.6026 85.063 8.79542 84.65 7.055L89.81 6.04C89.9349 6.00995 90.0651 6.00995 90.19 6.04L105.19 8.99C105.418 9.03354 105.624 9.15524 105.771 9.33414C105.919 9.51303 106 9.73791 106 9.97001ZM62 10C62 8.02219 62.5865 6.08879 63.6853 4.4443C64.7841 2.79981 66.3459 1.51809 68.1732 0.761209C70.0004 0.00433284 72.0111 -0.193701 73.9509 0.192152C75.8907 0.578004 77.6725 1.53041 79.0711 2.92894C80.4696 4.32746 81.422 6.10929 81.8079 8.0491C82.1937 9.98891 81.9957 11.9996 81.2388 13.8268C80.4819 15.6541 79.2002 17.2159 77.5557 18.3147C75.9112 19.4135 73.9778 20 72 20C69.3482 19.9989 66.8052 18.945 64.9301 17.0699C63.055 15.1948 62.0011 12.6518 62 10V10ZM66.29 10.71L69.29 13.71C69.4802 13.895 69.7347 13.999 70 14C70.2382 13.9994 70.4685 13.9144 70.65 13.76L77.65 7.76C77.7498 7.67465 77.8318 7.57046 77.8914 7.45341C77.9509 7.33635 77.9868 7.20872 77.997 7.07779C78.0072 6.94686 77.9916 6.81519 77.9509 6.69032C77.9102 6.56545 77.8454 6.44981 77.76 6.35C77.6746 6.2502 77.5705 6.16818 77.4534 6.10864C77.3363 6.0491 77.2087 6.0132 77.0778 6.00298C76.8134 5.98235 76.5516 6.06761 76.35 6.24L70.05 11.64L67.71 9.29C67.5217 9.1017 67.2663 8.99591 67 8.99591C66.7337 8.99591 66.4783 9.1017 66.29 9.29C66.1017 9.47831 65.9959 9.7337 65.9959 10C65.9959 10.2663 66.1017 10.5217 66.29 10.71V10.71Z" fill="#011E41"/>
<line x1="79" y1="26" x2="102" y2="26" stroke="white" stroke-width="2"/>
<line x1="79" y1="30" x2="102" y2="30" stroke="white" stroke-width="2"/>
<line x1="79" y1="34" x2="102" y2="34" stroke="white" stroke-width="2"/>
</g>
</g>
<defs>
<filter id="filter0_d_1643_5827" x="0" y="0" width="112" height="56" filterUnits="userSpaceOnUse" color-interpolation-filters="sRGB">
<feFlood flood-opacity="0" result="BackgroundImageFix"/>
<feColorMatrix in="SourceAlpha" type="matrix" values="0 0 0 0 0 0 0 0 0 0 0 0 0 0 0 0 0 0 127 0" result="hardAlpha"/>
<feOffset dy="4"/>
<feGaussianBlur stdDeviation="2"/>
<feComposite in2="hardAlpha" operator="out"/>
<feColorMatrix type="matrix" values="0 0 0 0 0 0 0 0 0 0 0 0 0 0 0 0 0 0 0.25 0"/>
<feBlend mode="normal" in2="BackgroundImageFix" result="effect1_dropShadow_1643_5827"/>
<feBlend mode="normal" in="SourceGraphic" in2="effect1_dropShadow_1643_5827" result="shape"/>
</filter>
<clipPath id="clip0_1643_5827">
<rect width="48" height="48" fill="white" transform="translate(60)"/>
</clipPath>
</defs>
</svg>
