<svg width="48" height="48" viewBox="0 0 48 48" fill="none" xmlns="http://www.w3.org/2000/svg">
<g clip-path="url(#clip0_74_536)">
<path d="M31.9496 0.219814L14.5573 9.47437C14.3792 9.57321 14.2312 9.71844 14.129 9.89464C14.0268 10.0708 13.9743 10.2714 13.9769 10.4751V22.5106C13.9743 22.7143 14.0268 22.9149 14.129 23.091C14.2312 23.2672 14.3792 23.4125 14.5573 23.5113L31.9496 32.7649C32.2796 32.9281 32.6465 33.0022 33.014 32.9797C33.3814 32.9572 33.7366 32.839 34.0442 32.6367C34.3517 32.4345 34.601 32.1552 34.7673 31.8268C34.9335 31.4983 35.0109 31.1321 34.9918 30.7645V2.22023C35.0111 1.85252 34.9339 1.48614 34.7677 1.15755C34.6015 0.828948 34.3522 0.549569 34.0446 0.347187C33.737 0.144806 33.3818 0.0264712 33.0142 0.00394982C32.6467 -0.0185715 32.2797 0.0555047 31.9496 0.218813V0.219814ZM10.9738 9.98773H3.00213C2.20591 9.98773 1.44231 10.304 0.879302 10.867C0.316295 11.43 0 12.1936 0 12.9899L0 19.9948C0 20.791 0.316295 21.5546 0.879302 22.1176C1.44231 22.6807 2.20591 22.9969 3.00213 22.9969H3.96881V29.5016C3.96881 30.1651 4.23239 30.8014 4.70156 31.2706C5.17074 31.7398 5.80707 32.0033 6.47058 32.0033C7.13409 32.0033 7.77043 31.7398 8.2396 31.2706C8.70878 30.8014 8.97235 30.1651 8.97235 29.5016V22.9969H10.9738C11.2392 22.9969 11.4937 22.8915 11.6814 22.7038C11.8691 22.5162 11.9745 22.2616 11.9745 21.9962V10.9884C11.9745 10.723 11.8691 10.4685 11.6814 10.2808C11.4937 10.0932 11.2392 9.98773 10.9738 9.98773V9.98773ZM46.4989 14.9913H39.494C39.0959 14.9913 38.7141 15.1494 38.4326 15.4309C38.1511 15.7124 37.9929 16.0942 37.9929 16.4923C37.9929 16.8904 38.1511 17.2722 38.4326 17.5538C38.7141 17.8353 39.0959 17.9934 39.494 17.9934H46.4989C46.897 17.9934 47.2788 17.8353 47.5603 17.5538C47.8419 17.2722 48 16.8904 48 16.4923C48 16.0942 47.8419 15.7124 47.5603 15.4309C47.2788 15.1494 46.897 14.9913 46.4989 14.9913ZM40.1825 10.7873L46.2488 7.28482C46.4208 7.18698 46.5719 7.05606 46.6932 6.89961C46.8145 6.74316 46.9036 6.56426 46.9555 6.37321C47.0073 6.18217 47.0209 5.98275 46.9954 5.78644C46.9699 5.59013 46.9058 5.40081 46.8068 5.22937C46.7078 5.05793 46.5759 4.90777 46.4186 4.78752C46.2614 4.66727 46.0819 4.57932 45.8905 4.52872C45.6991 4.47812 45.4996 4.46588 45.3035 4.49269C45.1074 4.51951 44.9185 4.58486 44.7477 4.68498L38.6814 8.18746C38.5093 8.2853 38.3583 8.41622 38.237 8.57267C38.1157 8.72912 38.0265 8.90802 37.9747 9.09907C37.9228 9.29011 37.9092 9.48953 37.9348 9.68584C37.9603 9.88215 38.0244 10.0715 38.1234 10.2429C38.2223 10.4143 38.3543 10.5645 38.5115 10.6848C38.6688 10.805 38.8482 10.893 39.0396 10.9436C39.231 10.9942 39.4305 11.0064 39.6267 10.9796C39.8228 10.9528 40.0117 10.8874 40.1825 10.7873V10.7873ZM46.2488 25.6999L40.1825 22.1974C40.0117 22.0973 39.8228 22.0319 39.6267 22.0051C39.4305 21.9783 39.231 21.9905 39.0396 22.0411C38.8482 22.0917 38.6688 22.1797 38.5115 22.2999C38.3543 22.4202 38.2223 22.5703 38.1234 22.7418C38.0244 22.9132 37.9603 23.1025 37.9348 23.2988C37.9092 23.4952 37.9228 23.6946 37.9747 23.8856C38.0265 24.0767 38.1157 24.2556 38.237 24.412C38.3583 24.5685 38.5093 24.6994 38.6814 24.7972L44.7477 28.2997C44.9185 28.3998 45.1074 28.4652 45.3035 28.492C45.4996 28.5188 45.6991 28.5066 45.8905 28.456C46.0819 28.4054 46.2614 28.3174 46.4186 28.1972C46.5759 28.0769 46.7078 27.9267 46.8068 27.7553C46.9058 27.5839 46.9699 27.3946 46.9954 27.1982C47.0209 27.0019 47.0073 26.8025 46.9555 26.6115C46.9036 26.4204 46.8145 26.2415 46.6932 26.0851C46.5719 25.9286 46.4208 25.7977 46.2488 25.6999V25.6999Z" fill="#011E41"/>
</g>
<defs>
<clipPath id="clip0_74_536">
<rect width="48" height="48" fill="white"/>
</clipPath>
</defs>
</svg>
