<svg width="48" height="48" viewBox="0 0 48 48" fill="none" xmlns="http://www.w3.org/2000/svg">
<path d="M7.71699 37.3905L0.614053 44.5734C0.424456 44.7588 0.273656 44.98 0.170443 45.2243C0.0672298 45.4685 0.0136683 45.7309 0.0128805 45.9961C0.0120927 46.2612 0.0640944 46.5239 0.165855 46.7688C0.267615 47.0136 0.417097 47.2358 0.605589 47.4223C0.794081 47.6088 1.01781 47.7559 1.26374 47.855C1.50967 47.9542 1.77287 48.0034 2.03801 47.9998C2.30315 47.9962 2.56493 47.9399 2.80807 47.8341C3.05122 47.7283 3.27087 47.5751 3.45423 47.3836L10.5572 40.2007C10.7468 40.0154 10.8976 39.7941 11.0008 39.5498C11.104 39.3056 11.1575 39.0432 11.1583 38.7781C11.1591 38.5129 11.1071 38.2502 11.0054 38.0054C10.9036 37.7605 10.7541 37.5383 10.5656 37.3518C10.3771 37.1653 10.1534 37.0182 9.90747 36.9191C9.66155 36.8199 9.39834 36.7707 9.1332 36.7743C8.86806 36.7779 8.60629 36.8342 8.36314 36.94C8.12 37.0458 7.90034 37.199 7.71699 37.3905V37.3905ZM38.8071 11.1227C39.333 11.1234 39.8378 10.9162 40.2117 10.5462L47.3945 3.44331C47.7714 3.07078 47.9849 2.56379 47.988 2.03388C47.9911 1.50396 47.7835 0.994512 47.411 0.617617C47.0385 0.240722 46.5315 0.0272472 46.0016 0.0241559C45.4716 0.0210646 44.9622 0.22861 44.5853 0.601133L37.4024 7.70407C37.1208 7.98258 36.9284 8.33852 36.8495 8.72666C36.7706 9.11479 36.8088 9.51763 36.9593 9.88398C37.1099 10.2503 37.3659 10.5637 37.6949 10.7842C38.0239 11.0048 38.411 11.1226 38.8071 11.1227V11.1227ZM40.2956 37.3985C39.9224 37.0223 39.415 36.8097 38.8851 36.8076C38.3552 36.8054 37.8461 37.0139 37.4699 37.387C37.0937 37.7602 36.8811 38.2676 36.8789 38.7975C36.8768 39.3274 37.0852 39.8365 37.4584 40.2127L44.5713 47.3856C44.7561 47.5719 44.9758 47.72 45.2178 47.8213C45.4598 47.9227 45.7194 47.9755 45.9818 47.9766C46.2442 47.9776 46.5042 47.927 46.747 47.8276C46.9899 47.7281 47.2107 47.5819 47.397 47.3971C47.5833 47.2123 47.7314 46.9926 47.8328 46.7506C47.9342 46.5086 47.9869 46.249 47.988 45.9866C47.989 45.7242 47.9384 45.4642 47.839 45.2214C47.7396 44.9785 47.5933 44.7577 47.4085 44.5714L40.2956 37.3985ZM7.7999 10.5532C8.17821 10.9159 8.68388 11.1154 9.20791 11.1088C9.73194 11.1021 10.2324 10.8899 10.6014 10.5177C10.9704 10.1456 11.1784 9.64336 11.1806 9.11929C11.1828 8.59522 10.979 8.09127 10.6131 7.71605L3.44024 0.603131C3.25508 0.413245 3.03398 0.262122 2.78981 0.158575C2.54564 0.055027 2.2833 0.00112696 2.01809 1.74841e-05C1.75288 -0.00109199 1.49009 0.0506113 1.24507 0.152113C1.00004 0.253614 0.777679 0.402882 0.590941 0.591212C0.404202 0.779542 0.256827 1.00317 0.157409 1.24904C0.0579904 1.49492 0.00851898 1.75813 0.0118791 2.02333C0.0152393 2.28852 0.0713637 2.55039 0.17698 2.79367C0.282596 3.03695 0.43559 3.25677 0.62704 3.44031L7.7999 10.5532ZM24.0118 10.0138C16.6081 10.0138 11.0247 15.1686 11.0247 22.0018C11.0247 22.5317 11.2352 23.0399 11.6099 23.4146C11.9846 23.7893 12.4928 23.9999 13.0227 23.9999C13.5526 23.9999 14.0608 23.7893 14.4355 23.4146C14.8102 23.0399 15.0207 22.5317 15.0207 22.0018C14.9945 20.6184 15.3546 19.255 16.0605 18.0649C16.7664 16.8747 17.7901 15.905 19.0167 15.2645V45.979C19.0167 46.5089 19.2272 47.0171 19.6019 47.3918C19.9766 47.7665 20.4848 47.977 21.0148 47.977C21.5447 47.977 22.0529 47.7665 22.4276 47.3918C22.8023 47.0171 23.0128 46.5089 23.0128 45.979V30.9929H25.0108V45.978C25.0108 46.5079 25.2213 47.0161 25.596 47.3908C25.9707 47.7655 26.4789 47.976 27.0088 47.976C27.5387 47.976 28.0469 47.7655 28.4216 47.3908C28.7963 47.0161 29.0068 46.5079 29.0068 45.978V15.2645C30.2334 15.905 31.2571 16.8747 31.963 18.0649C32.6689 19.255 33.029 20.6184 33.0028 22.0018C33.0028 22.5317 33.2133 23.0399 33.588 23.4146C33.9627 23.7893 34.4709 23.9999 35.0008 23.9999C35.5307 23.9999 36.0389 23.7893 36.4136 23.4146C36.7883 23.0399 36.9989 22.5317 36.9989 22.0018C36.9989 15.1666 31.4154 10.0138 24.0118 10.0138Z" fill="#011E41"/>
<path d="M24.0116 8.01646C26.2186 8.01646 28.0077 6.22738 28.0077 4.02044C28.0077 1.8135 26.2186 0.0244141 24.0116 0.0244141C21.8047 0.0244141 20.0156 1.8135 20.0156 4.02044C20.0156 6.22738 21.8047 8.01646 24.0116 8.01646Z" fill="#011E41"/>
</svg>
