<svg width="48" height="48" viewBox="0 0 48 48" fill="none" xmlns="http://www.w3.org/2000/svg">
<g clip-path="url(#clip0_74_539)">
<path d="M42.5 43C40.9592 42.9903 39.4358 42.6731 38.0192 42.0671C36.6026 41.4611 35.3212 40.5784 34.2501 39.4707C33.1791 38.363 32.3399 37.0527 31.7818 35.6165C31.2237 34.1803 30.9579 32.6472 31 31.107V8.53097L33.741 11.272C33.9716 11.5107 34.2474 11.7012 34.5525 11.8322C34.8575 11.9632 35.1855 12.0322 35.5175 12.0351C35.8494 12.038 36.1786 11.9747 36.4859 11.849C36.7931 11.7233 37.0722 11.5377 37.307 11.303C37.5417 11.0682 37.7273 10.7891 37.853 10.4819C37.9787 10.1746 38.042 9.84541 38.0391 9.51346C38.0362 9.18151 37.9672 8.85346 37.8362 8.54845C37.7052 8.24344 37.5147 7.96758 37.276 7.73697L30.272 0.731966C29.8031 0.263288 29.1674 0 28.5045 0C27.8416 0 27.2058 0.263288 26.737 0.731966L19.732 7.73697C19.2666 8.20657 19.0062 8.84141 19.0077 9.50255C19.0092 10.1637 19.2726 10.7973 19.7402 11.2647C20.2078 11.7322 20.8414 11.9954 21.5026 11.9967C22.1637 11.9981 22.7985 11.7375 23.268 11.272L26 8.54097V25.881C22.8984 23.3435 19.0071 21.9706 15 22H11.54L14.272 19.268C14.7375 18.7985 14.9981 18.1637 14.9967 17.5026C14.9954 16.8414 14.7322 16.2078 14.2647 15.7402C13.7973 15.2726 13.1637 15.0092 12.5026 15.0077C11.8414 15.0062 11.2066 15.2666 10.737 15.732L3.73197 22.737C3.26329 23.2058 3 23.8416 3 24.5045C3 25.1674 3.26329 25.8031 3.73197 26.272L10.737 33.276C11.2085 33.7314 11.84 33.9833 12.4955 33.9776C13.151 33.972 13.778 33.709 14.2415 33.2455C14.705 32.782 14.968 32.155 14.9737 31.4995C14.9793 30.844 14.7274 30.2125 14.272 29.741L11.532 27H15C17.5717 26.9407 20.0915 27.7287 22.1713 29.2424C24.2512 30.7561 25.7757 32.9116 26.51 35.377L26.53 35.372C27.3722 38.9723 29.4097 42.1809 32.3101 44.4744C35.2105 46.7678 38.8024 48.0106 42.5 48C43.163 48 43.7989 47.7366 44.2677 47.2677C44.7366 46.7989 45 46.163 45 45.5C45 44.8369 44.7366 44.201 44.2677 43.7322C43.7989 43.2634 43.163 43 42.5 43V43Z" fill="#011E41"/>
</g>
<defs>
<clipPath id="clip0_74_539">
<rect width="48" height="48" fill="white"/>
</clipPath>
</defs>
</svg>
