<svg width="48" height="48" viewBox="0 0 48 48" fill="none" xmlns="http://www.w3.org/2000/svg">
<path d="M8 21H9V18C9 17.3434 8.87067 16.6932 8.6194 16.0866C8.36812 15.48 7.99983 14.9288 7.53553 14.4645C7.07124 14.0002 6.52005 13.6319 5.91342 13.3806C5.30679 13.1293 4.65661 13 4 13H3V16C3 17.3261 3.52678 18.5979 4.46447 19.5355C5.40215 20.4732 6.67392 21 8 21ZM8 30H9V27C9 26.3434 8.87067 25.6932 8.6194 25.0866C8.36812 24.48 7.99983 23.9288 7.53553 23.4645C7.07124 23.0002 6.52005 22.6319 5.91342 22.3806C5.30679 22.1293 4.65661 22 4 22H3V25C3 26.3261 3.52678 27.5979 4.46447 28.5355C5.40215 29.4732 6.67392 30 8 30ZM9 36C9 35.3434 8.87067 34.6932 8.6194 34.0866C8.36812 33.48 7.99983 32.9288 7.53553 32.4645C7.07124 32.0002 6.52005 31.6319 5.91342 31.3806C5.30679 31.1293 4.65661 31 4 31H3V34C3 35.3261 3.52678 36.5979 4.46447 37.5355C5.40215 38.4732 6.67392 39 8 39H9V36ZM12 18V21H13C14.3261 21 15.5979 20.4732 16.5355 19.5355C17.4732 18.5979 18 17.3261 18 16V13H17C15.6739 13 14.4021 13.5268 13.4645 14.4645C12.5268 15.4021 12 16.6739 12 18ZM12 27V30H13C14.3261 30 15.5979 29.4732 16.5355 28.5355C17.4732 27.5979 18 26.3261 18 25V22H17C15.6739 22 14.4021 22.5268 13.4645 23.4645C12.5268 24.4021 12 25.6739 12 27ZM12 36V39H13C14.3261 39 15.5979 38.4732 16.5355 37.5355C17.4732 36.5979 18 35.3261 18 34V31H17C15.6739 31 14.4021 31.5268 13.4645 32.4645C12.5268 33.4021 12 34.6739 12 36ZM9 46.5C9 46.8978 9.15804 47.2794 9.43934 47.5607C9.72064 47.842 10.1022 48 10.5 48C10.8978 48 11.2794 47.842 11.5607 47.5607C11.842 47.2794 12 46.8978 12 46.5V41H9V46.5ZM4.5 11C4.89782 11 5.27936 10.842 5.56066 10.5607C5.84196 10.2794 6 9.89782 6 9.5V5.5C6 5.10218 5.84196 4.72064 5.56066 4.43934C5.27936 4.15804 4.89782 4 4.5 4C4.10218 4 3.72064 4.15804 3.43934 4.43934C3.15804 4.72064 3 5.10218 3 5.5V9.5C3 9.89782 3.15804 10.2794 3.43934 10.5607C3.72064 10.842 4.10218 11 4.5 11ZM16.5 4C16.1022 4 15.7206 4.15804 15.4393 4.43934C15.158 4.72064 15 5.10218 15 5.5V9.5C15 9.89782 15.158 10.2794 15.4393 10.5607C15.7206 10.842 16.1022 11 16.5 11C16.8978 11 17.2794 10.842 17.5607 10.5607C17.842 10.2794 18 9.89782 18 9.5V5.5C18 5.10218 17.842 4.72064 17.5607 4.43934C17.2794 4.15804 16.8978 4 16.5 4ZM10.5 14C10.8978 14 11.2794 13.842 11.5607 13.5607C11.842 13.2794 12 12.8978 12 12.5V1.5C12 1.10218 11.842 0.720644 11.5607 0.43934C11.2794 0.158035 10.8978 0 10.5 0C10.1022 0 9.72064 0.158035 9.43934 0.43934C9.15804 0.720644 9 1.10218 9 1.5V12.5C9 12.8978 9.15804 13.2794 9.43934 13.5607C9.72064 13.842 10.1022 14 10.5 14V14ZM31.278 21.221L32.243 21.481L33.02 18.583C33.19 17.9487 33.2333 17.2872 33.1476 16.6361C33.0619 15.9851 32.8488 15.3573 32.5204 14.7886C32.1921 14.2199 31.7549 13.7215 31.2339 13.3218C30.7129 12.9221 30.1183 12.6289 29.484 12.459L28.518 12.2L27.742 15.098C27.399 16.3789 27.5789 17.7435 28.242 18.8918C28.9051 20.04 29.9972 20.8779 31.278 21.221V21.221ZM28.948 29.915L29.914 30.174L30.691 27.276C30.861 26.6417 30.9043 25.9802 30.8186 25.3291C30.7329 24.6781 30.5198 24.0503 30.1914 23.4816C29.8631 22.9129 29.4259 22.4145 28.9049 22.0148C28.3839 21.6151 27.7893 21.3219 27.155 21.152L26.189 20.893L25.413 23.791C25.0697 25.0719 25.2492 26.4366 25.9122 27.5851C26.5751 28.7336 27.6671 29.5717 28.948 29.915V29.915ZM27.585 38.867L28.361 35.969C28.7043 34.6881 28.5248 33.3234 27.8618 32.1749C27.1989 31.0264 26.1069 30.1883 24.826 29.845L23.86 29.587L23.083 32.484C22.913 33.1183 22.8697 33.7798 22.9554 34.4309C23.0411 35.0819 23.2542 35.7097 23.5826 36.2784C23.9109 36.8471 24.3481 37.3455 24.8691 37.7452C25.3901 38.1449 25.9847 38.4381 26.619 38.608L27.585 38.867ZM35.918 19.359L35.141 22.257L36.107 22.516C36.7413 22.686 37.4028 22.7293 38.0539 22.6436C38.7049 22.5579 39.3327 22.3448 39.9014 22.0164C40.4701 21.6881 40.9685 21.2509 41.3682 20.7299C41.7679 20.2089 42.0611 19.6143 42.231 18.98L43.007 16.082L42.041 15.824C40.7603 15.481 39.3957 15.6607 38.2475 16.3236C37.0993 16.9865 36.2613 18.0784 35.918 19.359V19.359ZM33.588 28.052L32.812 30.95L33.778 31.209C34.4123 31.379 35.0738 31.4223 35.7249 31.3366C36.3759 31.2509 37.0037 31.0378 37.5724 30.7094C38.1411 30.3811 38.6395 29.9439 39.0392 29.4229C39.4389 28.9019 39.7321 28.3073 39.902 27.673L40.678 24.776L39.712 24.516C39.0777 24.346 38.4162 24.3027 37.7651 24.3884C37.1141 24.4741 36.4863 24.6872 35.9176 25.0156C35.3489 25.3439 34.8505 25.7811 34.4508 26.3021C34.0511 26.8231 33.7579 27.4177 33.588 28.052V28.052ZM31.259 36.746L30.483 39.643L31.448 39.903C32.0823 40.073 32.7438 40.1163 33.3949 40.0306C34.0459 39.9449 34.6737 39.7318 35.2424 39.4034C35.8111 39.0751 36.3095 38.6379 36.7092 38.1169C37.1089 37.5959 37.4021 37.0013 37.572 36.367L38.349 33.469L37.383 33.21C36.7487 33.04 36.0872 32.9967 35.4361 33.0824C34.7851 33.1681 34.1573 33.3812 33.5886 33.7096C33.0199 34.0379 32.5215 34.4751 32.1218 34.9961C31.7221 35.5171 31.4289 36.1117 31.259 36.746V36.746ZM25.644 46.111C25.55 46.4922 25.6091 46.895 25.8087 47.233C26.0084 47.5711 26.3326 47.8174 26.7118 47.9191C27.0909 48.0208 27.4949 47.9698 27.8369 47.777C28.1789 47.5842 28.4317 47.2651 28.541 46.888L29.965 41.575L27.067 40.799L25.644 46.111ZM30.485 10.656C30.8692 10.759 31.2785 10.7051 31.623 10.5063C31.9675 10.3076 32.2189 9.98012 32.322 9.596L33.357 5.732C33.4134 5.54009 33.4308 5.33884 33.4083 5.1401C33.3857 4.94135 33.3237 4.74912 33.2258 4.57471C33.1278 4.4003 32.996 4.24724 32.838 4.12454C32.6801 4.00183 32.4992 3.91196 32.306 3.8602C32.1127 3.80845 31.9111 3.79586 31.713 3.82318C31.5148 3.85049 31.3242 3.91716 31.1522 4.01927C30.9802 4.12137 30.8303 4.25684 30.7114 4.41771C30.5926 4.57858 30.5071 4.7616 30.46 4.956L29.424 8.819C29.373 9.00929 29.3601 9.20774 29.3858 9.40305C29.4115 9.59835 29.4755 9.78667 29.574 9.95725C29.6726 10.1278 29.8037 10.2773 29.96 10.3972C30.1163 10.5171 30.2947 10.6051 30.485 10.656V10.656ZM43.888 7C43.6977 6.94904 43.4993 6.93606 43.304 6.9618C43.1086 6.98754 42.9203 7.0515 42.7497 7.15003C42.5792 7.24855 42.4297 7.37971 42.3098 7.53602C42.1899 7.69232 42.1019 7.87071 42.051 8.061L41.015 11.925C40.912 12.3093 40.9658 12.7188 41.1647 13.0634C41.3636 13.408 41.6912 13.6595 42.0755 13.7625C42.4598 13.8655 42.8693 13.8117 43.2139 13.6128C43.5585 13.4139 43.81 13.0863 43.913 12.702L44.948 8.838C44.9991 8.64771 45.0123 8.44922 44.9867 8.25386C44.9611 8.05849 44.8972 7.87009 44.7988 7.6994C44.7003 7.52872 44.5692 7.3791 44.413 7.2591C44.2567 7.13909 44.0783 7.05105 43.888 7ZM35.504 15.107C35.8882 15.21 36.2975 15.1561 36.642 14.9573C36.9865 14.7586 37.2379 14.4311 37.341 14.047L40.188 3.42C40.2909 3.0357 40.2369 2.62626 40.038 2.28176C39.839 1.93726 39.5113 1.6859 39.127 1.583C38.7427 1.4801 38.3333 1.53407 37.9888 1.73304C37.6443 1.93202 37.3929 2.2597 37.29 2.644L34.443 13.27C34.392 13.4603 34.3791 13.6587 34.4048 13.854C34.4305 14.0493 34.4945 14.2377 34.593 14.4082C34.6916 14.5788 34.8227 14.7283 34.979 14.8482C35.1353 14.9681 35.3137 15.0561 35.504 15.107V15.107Z" fill="#011E41"/>
</svg>
