<svg width="48" height="48" viewBox="0 0 48 48" fill="none" xmlns="http://www.w3.org/2000/svg">
<g clip-path="url(#clip0_74_609)">
<path d="M20 10C20 8.02219 19.4135 6.08879 18.3147 4.4443C17.2159 2.79981 15.6541 1.51809 13.8268 0.761209C11.9996 0.00433284 9.98891 -0.193701 8.0491 0.192152C6.10929 0.578004 4.32746 1.53041 2.92894 2.92894C1.53041 4.32746 0.578004 6.10929 0.192152 8.0491C-0.193701 9.98891 0.00433284 11.9996 0.761209 13.8268C1.51809 15.6541 2.79981 17.2159 4.4443 18.3147C6.08879 19.4135 8.02219 20 10 20C12.6518 19.9989 15.1948 18.945 17.0699 17.0699C18.945 15.1948 19.9989 12.6518 20 10V10ZM10 17C9.80222 17 9.60888 16.9414 9.44443 16.8315C9.27999 16.7216 9.15181 16.5654 9.07613 16.3827C9.00044 16.2 8.98063 15.9989 9.01922 15.8049C9.0578 15.6109 9.15305 15.4328 9.2929 15.2929C9.43275 15.153 9.61093 15.0578 9.80491 15.0192C9.9989 14.9806 10.2 15.0004 10.3827 15.0761C10.5654 15.1518 10.7216 15.28 10.8315 15.4444C10.9414 15.6089 11 15.8022 11 16C10.9992 16.265 10.8936 16.5189 10.7062 16.7062C10.5189 16.8936 10.265 16.9992 10 17ZM11 12C11 12.2652 10.8946 12.5196 10.7071 12.7071C10.5196 12.8946 10.2652 13 10 13C9.73479 13 9.48043 12.8946 9.2929 12.7071C9.10536 12.5196 9 12.2652 9 12V4C9 3.73479 9.10536 3.48043 9.2929 3.2929C9.48043 3.10536 9.73479 3 10 3C10.2652 3 10.5196 3.10536 10.7071 3.2929C10.8946 3.48043 11 3.73479 11 4V12ZM47.988 28.866C47.984 28.805 47.985 28.743 47.975 28.682C47.9608 28.61 47.9424 28.5389 47.92 28.469C47.906 28.416 47.896 28.361 47.877 28.309C47.8509 28.2459 47.8215 28.1841 47.789 28.124C47.763 28.07 47.741 28.014 47.709 27.962C47.675 27.906 47.633 27.857 47.594 27.805C47.556 27.755 47.522 27.701 47.478 27.653C47.4242 27.5973 47.3671 27.5449 47.307 27.496C47.267 27.462 47.234 27.425 47.192 27.394C47.0964 27.324 46.9946 27.2628 46.888 27.211C46.875 27.205 46.865 27.196 46.853 27.191L46.85 27.189L46.835 27.182L32.001 20V12C32.001 11.2044 31.6849 10.4413 31.1223 9.87868C30.5597 9.31607 29.7967 9 29.001 9C28.2054 9 27.4423 9.31607 26.8797 9.87868C26.3171 10.4413 26.001 11.2044 26.001 12V20L11.165 27.183L11.155 27.188L11.15 27.19C11.129 27.2 11.112 27.215 11.091 27.226C10.9933 27.2739 10.8996 27.3298 10.811 27.393C10.764 27.429 10.724 27.471 10.681 27.51C10.6265 27.5548 10.5744 27.6026 10.525 27.653C10.4809 27.7048 10.4395 27.7589 10.401 27.815C10.365 27.865 10.325 27.91 10.294 27.961C10.26 28.016 10.236 28.076 10.208 28.134C10.18 28.192 10.148 28.248 10.126 28.309C10.106 28.365 10.094 28.423 10.079 28.481C10.0585 28.5467 10.0414 28.6135 10.028 28.681C10.018 28.747 10.018 28.813 10.014 28.879C10.0071 28.9421 10.0035 29.0055 10.003 29.069C10.0085 29.1594 10.0202 29.2492 10.038 29.338C10.045 29.378 10.044 29.418 10.054 29.458L10.056 29.464C10.06 29.482 10.069 29.5 10.074 29.518C10.1017 29.6231 10.1378 29.7257 10.182 29.825L10.192 29.852C10.198 29.865 10.21 29.875 10.217 29.889C10.2919 30.0422 10.3864 30.185 10.498 30.314L10.52 30.343C10.6331 30.4639 10.7607 30.5704 10.9 30.66C10.927 30.678 10.953 30.697 10.98 30.714C11.1177 30.7959 11.2648 30.861 11.418 30.908L11.503 30.93C11.665 30.9744 11.832 30.998 12 31H12.003C12.1521 30.9996 12.3007 30.9825 12.446 30.949L12.46 30.947L26.001 28V43C26.001 43 22.323 46.278 22.191 46.41C22.0541 46.5749 21.9861 46.7862 22.001 47C21.9977 47.0607 22.0045 47.1215 22.021 47.18C22.031 47.23 22.041 47.27 22.051 47.31C22.0915 47.4398 22.1598 47.5592 22.251 47.66C22.301 47.71 22.351 47.76 22.411 47.81C22.4137 47.81 22.4162 47.8111 22.4181 47.8129C22.42 47.8148 22.421 47.8174 22.421 47.82C22.5048 47.8752 22.5956 47.919 22.691 47.95C22.7913 47.982 22.8958 47.9989 23.001 48C23.0615 47.9983 23.1217 47.9916 23.181 47.98L23.311 47.95L23.371 47.93L29.001 46L34.661 47.94L34.691 47.95C34.8923 48.0167 35.1097 48.0167 35.311 47.95C35.3604 47.937 35.4075 47.9167 35.451 47.89C35.5685 47.8311 35.6732 47.7496 35.759 47.65C35.8449 47.5505 35.9101 47.4349 35.951 47.31C35.961 47.27 35.971 47.23 35.981 47.18C35.9975 47.1215 36.0043 47.0607 36.001 47C36.0105 46.8939 35.9986 46.7871 35.966 46.6857C35.9333 46.5843 35.8806 46.4906 35.811 46.41C35.689 46.288 32.001 43 32.001 43V28L45.528 30.944L45.538 30.946L45.543 30.947C45.56 30.951 45.577 30.95 45.593 30.954C45.7078 30.9794 45.8246 30.9944 45.942 30.999L45.972 30.997C46.0925 30.9993 46.213 30.9906 46.332 30.971C46.346 30.969 46.358 30.964 46.371 30.961C46.4847 30.9406 46.5965 30.9105 46.705 30.871C46.719 30.865 46.732 30.856 46.746 30.851C46.851 30.8096 46.9524 30.7594 47.049 30.701C47.068 30.69 47.084 30.674 47.103 30.661C47.1912 30.6047 47.2748 30.5415 47.353 30.472C47.39 30.438 47.42 30.398 47.454 30.362C47.509 30.3071 47.5608 30.249 47.609 30.188C47.6713 30.1009 47.7265 30.009 47.774 29.913C47.784 29.892 47.8 29.873 47.811 29.852V29.849C47.8443 29.7715 47.8727 29.6921 47.896 29.611C47.912 29.561 47.935 29.513 47.946 29.464L47.949 29.458C47.959 29.413 47.959 29.368 47.966 29.322C47.9829 29.2385 47.9942 29.154 48 29.069C47.9996 29.0012 47.9956 28.9334 47.988 28.866V28.866Z" fill="#011E41"/>
</g>
<defs>
<clipPath id="clip0_74_609">
<rect width="48" height="48" fill="white"/>
</clipPath>
</defs>
</svg>
