<svg width="48" height="48" viewBox="0 0 48 48" fill="none" xmlns="http://www.w3.org/2000/svg">
<g clip-path="url(#clip0_74_959)">
<path d="M10.001 5C9.20557 5.00079 8.44297 5.31712 7.88053 5.87956C7.3181 6.44199 7.00177 7.20459 7.00098 8H13.001C13.0002 7.20459 12.6839 6.44199 12.1214 5.87956C11.559 5.31712 10.7964 5.00079 10.001 5V5Z" fill="#011E41"/>
<path d="M20.001 10C20.001 8.02219 19.4145 6.08879 18.3157 4.4443C17.2169 2.79981 15.6551 1.51809 13.8278 0.761209C12.0006 0.00433284 9.98989 -0.193701 8.05008 0.192152C6.11027 0.578004 4.32844 1.53041 2.92991 2.92894C1.53139 4.32746 0.57898 6.10929 0.193128 8.0491C-0.192724 9.98891 0.0053094 11.9996 0.762186 13.8268C1.51906 15.6541 2.80079 17.2159 4.44528 18.3147C6.08977 19.4135 8.02317 20 10.001 20C12.6528 19.9989 15.1957 18.945 17.0709 17.0699C18.946 15.1948 19.9999 12.6518 20.001 10V10ZM15.001 14C15.001 14.5304 14.7903 15.0391 14.4152 15.4142C14.0401 15.7893 13.5314 16 13.001 16H7.00098C6.47055 16 5.96184 15.7893 5.58677 15.4142C5.21169 15.0391 5.00098 14.5304 5.00098 14V8C5.00098 6.67392 5.52777 5.40215 6.46545 4.46447C7.40313 3.52679 8.6749 3 10.001 3C11.3271 3 12.5988 3.52679 13.5365 4.46447C14.4742 5.40215 15.001 6.67392 15.001 8V14ZM47.988 28.866C47.984 28.805 47.985 28.743 47.975 28.682C47.9607 28.61 47.9424 28.5389 47.92 28.469C47.906 28.416 47.896 28.361 47.877 28.309C47.8509 28.2459 47.8215 28.1841 47.789 28.124C47.762 28.07 47.741 28.014 47.709 27.962C47.675 27.906 47.633 27.857 47.594 27.805C47.556 27.755 47.522 27.701 47.478 27.653C47.4238 27.5973 47.3664 27.5449 47.306 27.496C47.268 27.462 47.234 27.425 47.192 27.394C47.096 27.3239 46.994 27.2627 46.887 27.211C46.875 27.205 46.865 27.196 46.853 27.191L46.849 27.189L46.835 27.182L32.001 20V12.09C32.0157 11.4482 31.8269 10.8183 31.4617 10.2904C31.0966 9.76244 30.5737 9.36362 29.968 9.151C29.5157 8.99935 29.0339 8.95734 28.5623 9.02845C28.0906 9.09956 27.6426 9.28174 27.2552 9.55998C26.8677 9.83823 26.552 10.2046 26.3339 10.6288C26.1159 11.053 26.0017 11.523 26.001 12V20L11.165 27.183L11.155 27.188L11.149 27.19C11.129 27.2 11.111 27.215 11.091 27.226C10.9932 27.2739 10.8996 27.3298 10.811 27.393C10.763 27.429 10.724 27.471 10.68 27.51C10.6254 27.5548 10.5734 27.6026 10.524 27.653C10.4802 27.7049 10.4392 27.7589 10.401 27.815C10.365 27.865 10.325 27.91 10.293 27.961C10.26 28.016 10.236 28.076 10.208 28.134C10.18 28.192 10.148 28.248 10.126 28.309C10.105 28.365 10.094 28.423 10.079 28.481C10.0581 28.5467 10.0407 28.6135 10.027 28.681C10.017 28.747 10.017 28.813 10.013 28.879C10.0065 28.9421 10.0031 29.0055 10.003 29.069C10.0085 29.1594 10.0202 29.2492 10.038 29.338C10.045 29.378 10.044 29.418 10.054 29.458L10.056 29.464C10.06 29.482 10.069 29.5 10.074 29.518C10.1017 29.6231 10.1378 29.7257 10.182 29.825C10.186 29.834 10.187 29.843 10.192 29.852C10.198 29.865 10.21 29.875 10.216 29.889C10.2912 30.0423 10.386 30.1851 10.498 30.314L10.52 30.343C10.6328 30.4639 10.7601 30.5704 10.899 30.66C10.926 30.678 10.952 30.697 10.981 30.714C11.1181 30.7958 11.2645 30.8609 11.417 30.908L11.503 30.93C11.6647 30.9743 11.8313 30.9979 11.999 31H12.002C12.1511 30.9996 12.2997 30.9825 12.445 30.949L12.459 30.947L26.001 28V43C26.001 43 22.323 46.278 22.191 46.41C22.054 46.5749 21.986 46.7862 22.001 47C21.9977 47.0607 22.0045 47.1215 22.021 47.18C22.031 47.23 22.041 47.27 22.051 47.31C22.0915 47.4398 22.1597 47.5592 22.251 47.66C22.301 47.71 22.351 47.76 22.411 47.81C22.4136 47.81 22.4162 47.8111 22.4181 47.8129C22.4199 47.8148 22.421 47.8174 22.421 47.82C22.5048 47.8752 22.5956 47.919 22.691 47.95C22.7912 47.982 22.8957 47.9989 23.001 48C23.0614 47.9983 23.1216 47.9916 23.181 47.98L23.311 47.95L23.371 47.93L29.001 46L34.661 47.94L34.691 47.95C34.8923 48.0167 35.1097 48.0167 35.311 47.95C35.3603 47.937 35.4075 47.9167 35.451 47.89C35.5685 47.8311 35.6732 47.7496 35.759 47.65C35.8448 47.5505 35.9101 47.4349 35.951 47.31C35.961 47.27 35.971 47.23 35.981 47.18C35.9975 47.1215 36.0043 47.0607 36.001 47C36.0105 46.8939 35.9986 46.7871 35.9659 46.6857C35.9333 46.5843 35.8806 46.4906 35.811 46.41C35.689 46.288 32.001 43 32.001 43V28L45.528 30.944L45.537 30.946L45.543 30.947C45.56 30.951 45.577 30.95 45.593 30.954C45.7077 30.9794 45.8245 30.9944 45.942 30.999L45.972 30.997C46.0925 30.9993 46.213 30.9906 46.332 30.971C46.345 30.969 46.358 30.964 46.371 30.961C46.4847 30.9406 46.5964 30.9105 46.705 30.871C46.719 30.865 46.732 30.856 46.746 30.851C46.8507 30.8096 46.9517 30.7594 47.048 30.701C47.068 30.69 47.084 30.674 47.103 30.661C47.1912 30.6047 47.2748 30.5415 47.353 30.472C47.389 30.438 47.419 30.398 47.453 30.362C47.508 30.3071 47.5597 30.249 47.608 30.188C47.6707 30.101 47.7262 30.009 47.774 29.913C47.784 29.892 47.8 29.873 47.811 29.852V29.849C47.8443 29.7715 47.8727 29.6921 47.896 29.611C47.912 29.561 47.934 29.513 47.946 29.464L47.948 29.458C47.959 29.413 47.958 29.368 47.966 29.322C47.9825 29.2385 47.9935 29.154 47.999 29.069C47.9989 29.0012 47.9952 28.9334 47.988 28.866V28.866Z" fill="#011E41"/>
<path d="M11 10H8.99902C8.73381 10 8.47945 10.1054 8.29192 10.2929C8.10438 10.4804 7.99902 10.7348 7.99902 11V13C7.99902 13.2652 8.10438 13.5196 8.29192 13.7071C8.47945 13.8946 8.73381 14 8.99902 14H11C11.2651 13.9997 11.5192 13.8943 11.7065 13.7068C11.8938 13.5192 11.999 13.265 11.999 13V11C11.999 10.735 11.8938 10.4808 11.7065 10.2932C11.5192 10.1057 11.2651 10.0003 11 10Z" fill="#011E41"/>
</g>
<defs>
<clipPath id="clip0_74_959">
<rect width="48" height="48" fill="white"/>
</clipPath>
</defs>
</svg>
