<svg width="48" height="48" viewBox="0 0 48 48" fill="none" xmlns="http://www.w3.org/2000/svg">
<g clip-path="url(#clip0_74_1729)">
<path d="M46.4 24.35C46.39 24.34 28 14 28 14V4C28 2.93913 27.5786 1.92172 26.8284 1.17157C26.0783 0.421427 25.0609 0 24 0C22.9391 0 21.9217 0.421427 21.1716 1.17157C20.4214 1.92172 20 2.93913 20 4V14L1.28 24.57C0.885452 24.8407 0.562738 25.2035 0.339729 25.6268C0.116721 26.0502 0.000122233 26.5215 2.67404e-06 27C-0.000523864 27.3941 0.0767141 27.7845 0.227292 28.1487C0.377869 28.5129 0.598827 28.8438 0.877508 29.1225C1.15619 29.4012 1.48712 29.6221 1.85133 29.7727C2.21554 29.9233 2.60589 30.0005 3 30C3.31288 30.0015 3.62381 29.9508 3.92 29.85L20 25V40L13.94 44.31C13.77 44.4149 13.618 44.5466 13.49 44.7C13.1716 45.0579 12.9971 45.521 13 46C13.0016 46.5299 13.2128 47.0377 13.5875 47.4125C13.9623 47.7872 14.4701 47.9984 15 48C15.1008 48.0002 15.2013 47.9901 15.3 47.97L24 45.11L32.28 47.86C32.5088 47.9526 32.7532 48.0001 33 48C33.53 47.9984 34.0377 47.7872 34.4125 47.4125C34.7872 47.0377 34.9984 46.5299 35 46C35.0003 45.5656 34.8561 45.1434 34.59 44.8C34.4487 44.6021 34.2683 44.4354 34.06 44.31L28 40V25L43.97 29.81C44.2992 29.9345 44.6481 29.9988 45 30C45.67 30.0004 46.3208 29.7764 46.8486 29.3637C47.3764 28.951 47.7507 28.3734 47.9118 27.7231C48.073 27.0727 48.0116 26.3872 47.7376 25.7758C47.4636 25.1644 46.9927 24.6625 46.4 24.35Z" fill="#011E41"/>
</g>
<defs>
<clipPath id="clip0_74_1729">
<rect width="48" height="48" fill="white"/>
</clipPath>
</defs>
</svg>
