<svg width="48" height="48" viewBox="0 0 48 48" fill="none" xmlns="http://www.w3.org/2000/svg">
<path d="M46 25.9988C45.4696 25.9988 44.9609 26.2095 44.5858 26.5845C44.2107 26.9596 44 27.4683 44 27.9988V30.9988L32 21.9988V17.4788C31.9976 17.0157 31.8663 16.5624 31.6207 16.1698C31.3752 15.7772 31.0252 15.4607 30.6098 15.2559C30.1945 15.051 29.7304 14.9659 29.2694 15.01C28.8085 15.0542 28.3689 15.2258 28 15.5058V10.6288C28.0002 10.249 27.9282 9.87267 27.788 9.51975L25.096 0.742754C25.0085 0.523539 24.8574 0.335587 24.662 0.203181C24.4666 0.0707752 24.236 0 24 0C23.764 0 23.5334 0.0707752 23.338 0.203181C23.1426 0.335587 22.9915 0.523539 22.904 0.742754L20.212 9.51875C20.0717 9.87198 19.9997 10.2487 20 10.6288V15.5058C19.6311 15.2258 19.1915 15.0542 18.7306 15.01C18.2696 14.9659 17.8055 15.051 17.3902 15.2559C16.9748 15.4607 16.6248 15.7772 16.3793 16.1698C16.1337 16.5624 16.0024 17.0157 16 17.4788V21.9988L4 30.9988V27.9988C4 27.4683 3.78929 26.9596 3.41421 26.5845C3.03914 26.2095 2.53043 25.9988 2 25.9988C1.46957 25.9988 0.960859 26.2095 0.585786 26.5845C0.210714 26.9596 0 27.4683 0 27.9988L0 41.9988C0 42.5292 0.210714 43.0379 0.585786 43.413C0.960859 43.788 1.46957 43.9988 2 43.9988C2.53043 43.9988 3.03914 43.788 3.41421 43.413C3.78929 43.0379 4 42.5292 4 41.9988V39.9988L20 35.9988V40.9988L15.55 44.8098C15.2883 45.071 15.11 45.4041 15.0378 45.7667C14.9655 46.1294 15.0025 46.5053 15.1441 46.8469C15.2856 47.1885 15.5254 47.4804 15.833 47.6857C16.1406 47.8909 16.5022 48.0002 16.872 47.9998L23.989 46.9998L31.129 47.9998C31.4986 47.9998 31.8599 47.8902 32.1672 47.6848C32.4745 47.4794 32.714 47.1875 32.8553 46.846C32.9966 46.5045 33.0335 46.1287 32.9611 45.7662C32.8888 45.4037 32.7106 45.0709 32.449 44.8098L28 40.9998V35.9998L44 39.9998V41.9998C44 42.5302 44.2107 43.0389 44.5858 43.414C44.9609 43.789 45.4696 43.9998 46 43.9998C46.5304 43.9998 47.0391 43.789 47.4142 43.414C47.7893 43.0389 48 42.5302 48 41.9998V27.9988C48 27.4683 47.7893 26.9596 47.4142 26.5845C47.0391 26.2095 46.5304 25.9988 46 25.9988Z" fill="#011E41"/>
</svg>
