<svg id="Layer_1" data-name="Layer 1" xmlns="http://www.w3.org/2000/svg" xmlns:xlink="http://www.w3.org/1999/xlink" viewBox="0 0 15.13 12.9"><defs><style>.cls-1,.cls-2,.cls-3{fill:none;}.cls-1,.cls-2{clip-rule:evenodd;}.cls-2{clip-path:url(#clip-path);}.cls-4{clip-path:url(#clip-path-2);}.cls-5{clip-path:url(#clip-path-3);}.cls-6{fill:#6200ee;}</style><clipPath id="clip-path"><polygon class="cls-1" points="0.21 14.45 15.72 14.45 15.72 1.18 0.21 1.18 0.21 14.45 0.21 14.45"/></clipPath><clipPath id="clip-path-2" transform="translate(-0.53 -1.5)"><polygon class="cls-2" points="0.21 1.18 15.72 1.18 15.72 14.45 0.21 14.45 0.21 1.18 0.21 1.18"/></clipPath><clipPath id="clip-path-3" transform="translate(-0.53 -1.5)"><polygon class="cls-3" points="0.21 14.45 15.72 14.45 15.72 1.18 0.21 1.18 0.21 14.45 0.21 14.45"/></clipPath></defs><g class="cls-4"><g class="cls-5"><path class="cls-6" d="M15.56,13.27,9.08,2.06a1.14,1.14,0,0,0-1.55-.41,1.18,1.18,0,0,0-.42.41L.63,13.27a.75.75,0,0,0,.28,1,.8.8,0,0,0,.38.1H14.91a.76.76,0,0,0,.75-.76.69.69,0,0,0-.1-.37ZM8.1,12.2a.63.63,0,0,1-.63-.63.63.63,0,1,1,1.26,0,.65.65,0,0,1-.63.63Zm.63-2.84a.63.63,0,0,1-1.26,0V5.91a.63.63,0,1,1,1.26,0Z" transform="translate(-0.53 -1.5)"/></g></g></svg>