<svg width="48" height="48" viewBox="0 0 48 48" fill="none" xmlns="http://www.w3.org/2000/svg">
<path d="M47.6769 40.9099L27.1209 5.28954C26.8043 4.74204 26.3493 4.28746 25.8015 3.97142C25.2537 3.65538 24.6324 3.48901 24 3.48901C23.3676 3.48901 22.7463 3.65538 22.1985 3.97142C21.6507 4.28746 21.1957 4.74204 20.8791 5.28954L0.323103 40.9099C0.111685 41.2749 0.000238081 41.6891 3.81032e-07 42.1109C-0.000237319 42.5327 0.110743 42.9471 0.321749 43.3123C0.532756 43.6775 0.836328 43.9806 1.20185 44.191C1.56738 44.4015 1.98193 44.5118 2.40371 44.511H45.5963C46.0181 44.5118 46.4326 44.4015 46.7981 44.191C47.1637 43.9806 47.4672 43.6775 47.6782 43.3123C47.8893 42.9471 48.0002 42.5327 48 42.1109C47.9998 41.6891 47.8883 41.2749 47.6769 40.9099ZM24 37.5089C23.6043 37.5089 23.2175 37.3916 22.8885 37.1718C22.5595 36.9519 22.3031 36.6395 22.1517 36.2739C22.0003 35.9084 21.9607 35.5061 22.0379 35.118C22.1151 34.73 22.3056 34.3735 22.5854 34.0937C22.8652 33.8139 23.2216 33.6234 23.6097 33.5462C23.9978 33.469 24.4 33.5086 24.7656 33.66C25.1311 33.8115 25.4436 34.0679 25.6634 34.3969C25.8833 34.7259 26.0006 35.1127 26.0006 35.5083C25.999 36.0384 25.7877 36.5464 25.4129 36.9212C25.038 37.2961 24.5301 37.5073 24 37.5089ZM26.0006 28.5063C26.0006 29.0369 25.7898 29.5457 25.4146 29.9209C25.0394 30.2961 24.5306 30.5069 24 30.5069C23.4694 30.5069 22.9606 30.2961 22.5854 29.9209C22.2102 29.5457 21.9994 29.0369 21.9994 28.5063V17.5031C21.9994 16.9725 22.2102 16.4637 22.5854 16.0885C22.9606 15.7133 23.4694 15.5025 24 15.5025C24.5306 15.5025 25.0394 15.7133 25.4146 16.0885C25.7898 16.4637 26.0006 16.9725 26.0006 17.5031V28.5063Z" fill="#F9D949"/>
</svg>
