<svg width="48" height="48" viewBox="0 0 48 48" fill="none" xmlns="http://www.w3.org/2000/svg">
<path d="M47.6769 40.9092L27.1209 5.28881C26.8043 4.74131 26.3493 4.28673 25.8015 3.97069C25.2537 3.65465 24.6324 3.48828 24 3.48828C23.3676 3.48828 22.7463 3.65465 22.1985 3.97069C21.6507 4.28673 21.1957 4.74131 20.8791 5.28881L0.323103 40.9092C0.111685 41.2741 0.000238081 41.6884 3.81032e-07 42.1102C-0.000237319 42.532 0.110743 42.9463 0.321749 43.3115C0.532756 43.6768 0.836328 43.9799 1.20185 44.1903C1.56738 44.4008 1.98193 44.5111 2.40371 44.5102H45.5963C46.0181 44.5111 46.4326 44.4008 46.7981 44.1903C47.1637 43.9799 47.4672 43.6768 47.6783 43.3115C47.8893 42.9463 48.0002 42.532 48 42.1102C47.9998 41.6884 47.8883 41.2741 47.6769 40.9092V40.9092ZM24 37.5082C23.6043 37.5082 23.2175 37.3909 22.8885 37.171C22.5595 36.9512 22.3031 36.6388 22.1517 36.2732C22.0003 35.9076 21.9607 35.5054 22.0379 35.1173C22.1151 34.7292 22.3056 34.3728 22.5854 34.093C22.8652 33.8132 23.2216 33.6227 23.6097 33.5455C23.9978 33.4683 24.4 33.5079 24.7656 33.6593C25.1311 33.8107 25.4436 34.0671 25.6634 34.3961C25.8833 34.7251 26.0006 35.1119 26.0006 35.5076C25.999 36.0377 25.7877 36.5456 25.4129 36.9205C25.038 37.2953 24.5301 37.5066 24 37.5082V37.5082ZM26.0006 28.5056C26.0006 29.0362 25.7898 29.545 25.4146 29.9202C25.0394 30.2954 24.5306 30.5061 24 30.5061C23.4694 30.5061 22.9606 30.2954 22.5854 29.9202C22.2102 29.545 21.9994 29.0362 21.9994 28.5056V17.5024C21.9994 16.9718 22.2102 16.4629 22.5854 16.0877C22.9606 15.7126 23.4694 15.5018 24 15.5018C24.5306 15.5018 25.0394 15.7126 25.4146 16.0877C25.7898 16.4629 26.0006 16.9718 26.0006 17.5024V28.5056Z" fill="#6200EE"/>
</svg>
