<svg width="18" height="18" viewBox="0 0 18 18" fill="none" xmlns="http://www.w3.org/2000/svg">
<path d="M17.8788 15.3412L10.1703 1.98355C10.0516 1.77824 9.881 1.60777 9.67557 1.48925C9.47015 1.37074 9.23716 1.30835 9 1.30835C8.76284 1.30835 8.52985 1.37074 8.32443 1.48925C8.119 1.60777 7.94837 1.77824 7.82966 1.98355L0.121164 15.3412C0.041882 15.478 8.92805e-05 15.6334 1.42887e-07 15.7916C-8.89947e-05 15.9497 0.0415286 16.1051 0.120656 16.2421C0.199783 16.379 0.313623 16.4927 0.450695 16.5716C0.587767 16.6505 0.743224 16.6919 0.901391 16.6916H17.0986C17.2568 16.6919 17.4122 16.6505 17.5493 16.5716C17.6864 16.4927 17.8002 16.379 17.8793 16.2421C17.9585 16.1051 18.0001 15.9497 18 15.7916C17.9999 15.6334 17.9581 15.478 17.8788 15.3412V15.3412ZM9 14.0658C8.85162 14.0658 8.70657 14.0218 8.5832 13.9394C8.45983 13.8569 8.36367 13.7398 8.30689 13.6027C8.25011 13.4656 8.23525 13.3148 8.2642 13.1692C8.29314 13.0237 8.36459 12.89 8.46951 12.7851C8.57443 12.6802 8.70811 12.6087 8.85364 12.5798C8.99917 12.5508 9.15001 12.5657 9.2871 12.6225C9.42418 12.6793 9.54135 12.7754 9.62378 12.8988C9.70622 13.0222 9.75022 13.1672 9.75022 13.3156C9.74962 13.5144 9.67039 13.7049 9.52983 13.8454C9.38926 13.986 9.19879 14.0652 9 14.0658V14.0658ZM9.75022 10.6898C9.75022 10.8888 9.67118 11.0796 9.53048 11.2203C9.38979 11.361 9.19897 11.44 9 11.44C8.80103 11.44 8.61021 11.361 8.46951 11.2203C8.32882 11.0796 8.24978 10.8888 8.24978 10.6898V6.56363C8.24978 6.36466 8.32882 6.17384 8.46951 6.03315C8.61021 5.89245 8.80103 5.81341 9 5.81341C9.19897 5.81341 9.38979 5.89245 9.53048 6.03315C9.67118 6.17384 9.75022 6.36466 9.75022 6.56363V10.6898Z" fill="#6200EE"/>
</svg>
