<svg width="16" height="16" viewBox="0 0 16 16" fill="none" xmlns="http://www.w3.org/2000/svg">
<path d="M15.8923 13.6367L9.0403 1.76326C8.93478 1.58076 8.78311 1.42923 8.60051 1.32389C8.41791 1.21854 8.21081 1.16309 8 1.16309C7.78919 1.16309 7.58209 1.21854 7.39949 1.32389C7.21689 1.42923 7.06522 1.58076 6.9597 1.76326L0.107701 13.6367C0.0372284 13.7584 7.93604e-05 13.8965 1.27011e-07 14.0371C-7.91064e-05 14.1776 0.0369143 14.3158 0.10725 14.4375C0.177585 14.5592 0.278776 14.6603 0.400618 14.7304C0.522459 14.8006 0.660644 14.8374 0.801236 14.8371H15.1988C15.3394 14.8374 15.4775 14.8006 15.5994 14.7304C15.7212 14.6603 15.8224 14.5592 15.8927 14.4375C15.9631 14.3158 16.0001 14.1776 16 14.0371C15.9999 13.8965 15.9628 13.7584 15.8923 13.6367V13.6367ZM8 12.5031C7.86811 12.5031 7.73918 12.4639 7.62951 12.3907C7.51985 12.3174 7.43437 12.2132 7.3839 12.0914C7.33343 11.9695 7.32022 11.8355 7.34595 11.7061C7.37168 11.5767 7.4352 11.4579 7.52846 11.3647C7.62172 11.2714 7.74054 11.2079 7.8699 11.1821C7.99926 11.1564 8.13334 11.1696 8.2552 11.2201C8.37705 11.2706 8.4812 11.356 8.55447 11.4657C8.62775 11.5754 8.66686 11.7043 8.66686 11.8362C8.66633 12.0129 8.5959 12.1822 8.47096 12.3072C8.34601 12.4321 8.1767 12.5025 8 12.5031V12.5031ZM8.66686 9.50218C8.66686 9.67904 8.5966 9.84866 8.47154 9.97372C8.34648 10.0988 8.17686 10.169 8 10.169C7.82314 10.169 7.65352 10.0988 7.52846 9.97372C7.4034 9.84866 7.33314 9.67904 7.33314 9.50218V5.83445C7.33314 5.65758 7.4034 5.48797 7.52846 5.3629C7.65352 5.23784 7.82314 5.16759 8 5.16759C8.17686 5.16759 8.34648 5.23784 8.47154 5.3629C8.5966 5.48797 8.66686 5.65758 8.66686 5.83445V9.50218Z" fill="#6200EE"/>
</svg>
