<svg width="48" height="48" viewBox="0 0 48 48" fill="none" xmlns="http://www.w3.org/2000/svg">
<g clip-path="url(#clip0_74_541)">
<path d="M8.38443 33.7958L1.20523 40.975C0.433533 41.7467 -1.62622e-08 42.7934 0 43.8847C1.62622e-08 44.976 0.433533 46.0227 1.20523 46.7944C1.97692 47.5661 3.02356 47.9996 4.1149 47.9996C5.20624 47.9996 6.25288 47.5661 7.02458 46.7944L14.2038 39.6152C11.9435 38.0248 9.97479 36.0561 8.38443 33.7958V33.7958ZM22.0029 19.9974H18.0034C17.7384 19.9982 17.4845 20.1038 17.2972 20.2911C17.1099 20.4785 17.0043 20.7323 17.0035 20.9973V25.9367C18.3347 28.3918 20.4455 30.3337 23.0028 31.4561V20.9973C23.002 20.7323 22.8964 20.4785 22.7091 20.2911C22.5217 20.1038 22.2678 19.9982 22.0029 19.9974ZM38.0011 13.998H34.0016C33.7366 13.9988 33.4828 14.1044 33.2954 14.2918C33.1081 14.4791 33.0025 14.733 33.0017 14.9979V31.4561C35.559 30.3337 37.6697 28.3918 39.001 25.9367V14.9979C39.0002 14.733 38.8946 14.4791 38.7073 14.2918C38.5199 14.1044 38.2661 13.9988 38.0011 13.998ZM30.002 16.9977H26.0025C25.7375 16.9985 25.4836 17.1041 25.2963 17.2914C25.109 17.4788 25.0034 17.7327 25.0026 17.9976V32.136C26.9735 32.616 29.0309 32.616 31.0019 32.136V17.9976C31.0011 17.7327 30.8955 17.4788 30.7082 17.2914C30.5208 17.1041 30.267 16.9985 30.002 16.9977V16.9977Z" fill="#011E41"/>
<path d="M28.0027 9.00523e-07C24.0475 9.00523e-07 20.1811 1.17285 16.8925 3.37023C13.6039 5.56761 11.0407 8.69084 9.52713 12.345C8.01355 15.9991 7.61753 20.0199 8.38914 23.8991C9.16076 27.7783 11.0654 31.3416 13.8621 34.1383C16.6588 36.9351 20.2221 38.8397 24.1013 39.6113C27.9805 40.3829 32.0014 39.9869 35.6555 38.4733C39.3096 36.9597 42.4328 34.3965 44.6302 31.1079C46.8276 27.8193 48.0004 23.9529 48.0004 19.9978C48.0012 17.3714 47.4845 14.7706 46.4798 12.344C45.4751 9.91742 44.0021 7.71257 42.145 5.85545C40.2878 3.99833 38.083 2.52534 35.6564 1.52063C33.2298 0.515932 30.629 -0.000787364 28.0027 9.00523e-07V9.00523e-07ZM39.0014 30.1766C36.9529 32.3863 34.2862 33.9277 31.349 34.6C28.4118 35.2723 25.3402 35.0443 22.5344 33.9457C19.7287 32.8471 17.3188 30.9289 15.6189 28.441C13.9191 25.9532 13.008 23.0109 13.0043 19.9978C13.0014 17.5545 13.5954 15.1475 14.7347 12.9861C15.8739 10.8247 17.524 8.97441 19.5413 7.59604C21.5587 6.21767 23.8822 5.35301 26.3099 5.07725C28.7375 4.80149 31.1958 5.12298 33.4709 6.01377C35.746 6.90456 37.769 8.33766 39.364 10.1885C40.959 12.0392 42.0778 14.2517 42.6229 16.6334C43.168 19.015 43.1231 21.4938 42.4919 23.8542C41.8608 26.2145 40.6625 28.3849 39.0014 30.1766Z" fill="#011E41"/>
</g>
<defs>
<clipPath id="clip0_74_541">
<rect width="48" height="48" fill="white"/>
</clipPath>
</defs>
</svg>
