<svg width="48" height="48" viewBox="0 0 48 48" fill="none" xmlns="http://www.w3.org/2000/svg">
<path d="M5.71429 11.4286C8.8702 11.4286 11.4286 8.8702 11.4286 5.71429C11.4286 2.55837 8.8702 0 5.71429 0C2.55837 0 0 2.55837 0 5.71429C0 8.8702 2.55837 11.4286 5.71429 11.4286Z" fill="#011E41"/>
<path d="M5.71429 29.7147C8.8702 29.7147 11.4286 27.1563 11.4286 24.0004C11.4286 20.8445 8.8702 18.2861 5.71429 18.2861C2.55837 18.2861 0 20.8445 0 24.0004C0 27.1563 2.55837 29.7147 5.71429 29.7147Z" fill="#011E41"/>
<path d="M5.71429 47.9999C8.8702 47.9999 11.4286 45.4415 11.4286 42.2856C11.4286 39.1297 8.8702 36.5713 5.71429 36.5713C2.55837 36.5713 0 39.1297 0 42.2856C0 45.4415 2.55837 47.9999 5.71429 47.9999Z" fill="#011E41"/>
<path d="M5.71429 11.4286C8.8702 11.4286 11.4286 8.8702 11.4286 5.71429C11.4286 2.55837 8.8702 0 5.71429 0C2.55837 0 0 2.55837 0 5.71429C0 8.8702 2.55837 11.4286 5.71429 11.4286Z" fill="#011E41"/>
<path d="M5.71429 29.7147C8.8702 29.7147 11.4286 27.1563 11.4286 24.0004C11.4286 20.8445 8.8702 18.2861 5.71429 18.2861C2.55837 18.2861 0 20.8445 0 24.0004C0 27.1563 2.55837 29.7147 5.71429 29.7147Z" fill="#011E41"/>
<path d="M5.71429 47.9999C8.8702 47.9999 11.4286 45.4415 11.4286 42.2856C11.4286 39.1297 8.8702 36.5713 5.71429 36.5713C2.55837 36.5713 0 39.1297 0 42.2856C0 45.4415 2.55837 47.9999 5.71429 47.9999Z" fill="#011E41"/>
<path d="M23.9994 11.4286C27.1554 11.4286 29.7137 8.8702 29.7137 5.71429C29.7137 2.55837 27.1554 0 23.9994 0C20.8435 0 18.2852 2.55837 18.2852 5.71429C18.2852 8.8702 20.8435 11.4286 23.9994 11.4286Z" fill="#011E41"/>
<path d="M23.9994 29.7147C27.1554 29.7147 29.7137 27.1563 29.7137 24.0004C29.7137 20.8445 27.1554 18.2861 23.9994 18.2861C20.8435 18.2861 18.2852 20.8445 18.2852 24.0004C18.2852 27.1563 20.8435 29.7147 23.9994 29.7147Z" fill="#011E41"/>
<path d="M23.9994 47.9999C27.1554 47.9999 29.7137 45.4415 29.7137 42.2856C29.7137 39.1297 27.1554 36.5713 23.9994 36.5713C20.8435 36.5713 18.2852 39.1297 18.2852 42.2856C18.2852 45.4415 20.8435 47.9999 23.9994 47.9999Z" fill="#011E41"/>
<path d="M23.9994 11.4286C27.1554 11.4286 29.7137 8.8702 29.7137 5.71429C29.7137 2.55837 27.1554 0 23.9994 0C20.8435 0 18.2852 2.55837 18.2852 5.71429C18.2852 8.8702 20.8435 11.4286 23.9994 11.4286Z" fill="#011E41"/>
<path d="M23.9994 29.7147C27.1554 29.7147 29.7137 27.1563 29.7137 24.0004C29.7137 20.8445 27.1554 18.2861 23.9994 18.2861C20.8435 18.2861 18.2852 20.8445 18.2852 24.0004C18.2852 27.1563 20.8435 29.7147 23.9994 29.7147Z" fill="#011E41"/>
<path d="M23.9994 47.9999C27.1554 47.9999 29.7137 45.4415 29.7137 42.2856C29.7137 39.1297 27.1554 36.5713 23.9994 36.5713C20.8435 36.5713 18.2852 39.1297 18.2852 42.2856C18.2852 45.4415 20.8435 47.9999 23.9994 47.9999Z" fill="#011E41"/>
<path d="M42.2866 11.4286C45.4425 11.4286 48.0008 8.8702 48.0008 5.71429C48.0008 2.55837 45.4425 0 42.2866 0C39.1306 0 36.5723 2.55837 36.5723 5.71429C36.5723 8.8702 39.1306 11.4286 42.2866 11.4286Z" fill="#011E41"/>
<path d="M42.2866 29.7147C45.4425 29.7147 48.0008 27.1563 48.0008 24.0004C48.0008 20.8445 45.4425 18.2861 42.2866 18.2861C39.1306 18.2861 36.5723 20.8445 36.5723 24.0004C36.5723 27.1563 39.1306 29.7147 42.2866 29.7147Z" fill="#011E41"/>
<path d="M42.2866 47.9999C45.4425 47.9999 48.0008 45.4415 48.0008 42.2856C48.0008 39.1297 45.4425 36.5713 42.2866 36.5713C39.1306 36.5713 36.5723 39.1297 36.5723 42.2856C36.5723 45.4415 39.1306 47.9999 42.2866 47.9999Z" fill="#011E41"/>
<path d="M42.2866 11.4286C45.4425 11.4286 48.0008 8.8702 48.0008 5.71429C48.0008 2.55837 45.4425 0 42.2866 0C39.1306 0 36.5723 2.55837 36.5723 5.71429C36.5723 8.8702 39.1306 11.4286 42.2866 11.4286Z" fill="#011E41"/>
<path d="M42.2866 29.7147C45.4425 29.7147 48.0008 27.1563 48.0008 24.0004C48.0008 20.8445 45.4425 18.2861 42.2866 18.2861C39.1306 18.2861 36.5723 20.8445 36.5723 24.0004C36.5723 27.1563 39.1306 29.7147 42.2866 29.7147Z" fill="#011E41"/>
<path d="M42.2866 47.9999C45.4425 47.9999 48.0008 45.4415 48.0008 42.2856C48.0008 39.1297 45.4425 36.5713 42.2866 36.5713C39.1306 36.5713 36.5723 39.1297 36.5723 42.2856C36.5723 45.4415 39.1306 47.9999 42.2866 47.9999Z" fill="#011E41"/>
</svg>
