<svg width="48" height="48" viewBox="0 0 48 48" fill="none" xmlns="http://www.w3.org/2000/svg">
<g clip-path="url(#clip0_74_1375)">
<path d="M17.0012 25.0891V23.4991C16.9993 22.8367 16.7353 22.2019 16.2669 21.7335C15.7985 21.265 15.1637 21.0011 14.5013 20.9992H9.50144C8.83899 21.0011 8.2042 21.265 7.73578 21.7335C7.26736 22.2019 7.00338 22.8367 7.00153 23.4991V25.0791C5.29072 25.8636 3.78831 27.0394 2.61557 28.5116C1.44284 29.9837 0.632618 31.7109 0.250305 33.5538C-0.132008 35.3967 -0.0757045 37.3037 0.414671 39.1209C0.905046 40.938 1.81576 42.6144 3.0733 44.0148C4.33085 45.4152 5.90001 46.5003 7.65414 47.1826C9.40826 47.8648 11.2982 48.1252 13.1715 47.9426C15.0448 47.76 16.8489 47.1395 18.4382 46.1313C20.0275 45.123 21.3575 43.7553 22.321 42.1384C21.4509 40.2085 21.001 38.1156 21.001 35.9986C21.001 33.8816 21.4509 31.7888 22.321 29.8589C21.0704 27.7679 19.2156 26.105 17.0012 25.0891V25.0891ZM12.0013 42.9984C10.6169 42.9984 9.2636 42.5878 8.1125 41.8187C6.9614 41.0496 6.06423 39.9564 5.53443 38.6773C5.00464 37.3983 4.86602 35.9909 5.13611 34.6331C5.40619 33.2752 6.07285 32.028 7.05179 31.0491C8.03072 30.0702 9.27795 29.4035 10.6358 29.1334C11.9936 28.8633 13.401 29.0019 14.68 29.5317C15.9591 30.0615 17.0523 30.9587 17.8214 32.1098C18.5906 33.2609 19.0011 34.6142 19.0011 35.9986C18.999 37.8544 18.2608 39.6336 16.9486 40.9459C15.6363 42.2581 13.8571 42.9963 12.0013 42.9984V42.9984ZM12.0013 17.9993C12.5313 17.9977 13.039 17.7865 13.4138 17.4118C13.7885 17.0371 13.9997 16.5293 14.0013 15.9994V12.9995C14.0013 12.4691 13.7906 11.9604 13.4155 11.5853C13.0404 11.2103 12.5318 10.9996 12.0013 10.9996C11.4709 10.9996 10.9622 11.2103 10.5872 11.5853C10.2121 11.9604 10.0014 12.4691 10.0014 12.9995V15.9994C10.003 16.5293 10.2142 17.0371 10.5889 17.4118C10.9637 17.7865 11.4714 17.9977 12.0013 17.9993V17.9993ZM16.3612 8.43168L18.4271 6.36876C18.613 6.18664 18.761 5.96945 18.8624 5.72976C18.9639 5.49006 19.0167 5.23263 19.018 4.97236C19.0193 4.71209 18.9689 4.45416 18.8698 4.2135C18.7707 3.97284 18.6248 3.75422 18.4406 3.57032C18.2565 3.38641 18.0376 3.24086 17.7968 3.1421C17.556 3.04334 17.298 2.99333 17.0378 2.99496C16.7775 2.99659 16.5201 3.04984 16.2806 3.15161C16.041 3.25338 15.8241 3.40166 15.6422 3.58786L13.5753 5.64979C13.2133 6.02047 13.012 6.51898 13.0153 7.03711C13.0185 7.55524 13.226 8.05119 13.5926 8.41731C13.9593 8.78342 14.4555 8.99017 14.9737 8.99268C15.4918 8.99518 15.99 8.79324 16.3602 8.43068L16.3612 8.43168ZM34.0005 12.9995V15.9994C34.0005 16.5298 34.2112 17.0385 34.5863 17.4136C34.9613 17.7886 35.47 17.9993 36.0004 17.9993C36.5309 17.9993 37.0395 17.7886 37.4146 17.4136C37.7897 17.0385 38.0004 16.5298 38.0004 15.9994V12.9995C38.0004 12.4691 37.7897 11.9604 37.4146 11.5853C37.0395 11.2103 36.5309 10.9996 36.0004 10.9996C35.47 10.9996 34.9613 11.2103 34.5863 11.5853C34.2112 11.9604 34.0005 12.4691 34.0005 12.9995ZM31.6606 8.42568C31.8408 8.61519 32.057 8.76673 32.2967 8.87137C32.5363 8.97602 32.7945 9.03165 33.0559 9.035C33.3174 9.03835 33.5769 8.98934 33.8191 8.89087C34.0614 8.79239 34.2814 8.64644 34.4664 8.46161C34.6514 8.27678 34.7975 8.0568 34.8961 7.81464C34.9948 7.57248 35.044 7.31302 35.0408 7.05155C35.0377 6.79009 34.9822 6.53189 34.8777 6.29219C34.7733 6.05248 34.6219 5.8361 34.4325 5.65579L32.3476 3.57387C31.9791 3.20695 31.4805 3.00062 30.9605 2.99987C30.4404 2.99912 29.9412 3.20401 29.5717 3.56987C29.2051 3.93855 28.9996 4.43751 29.0001 4.95743C29.0007 5.47736 29.2073 5.97586 29.5747 6.34376L31.6606 8.42568ZM27.0008 1.99992C27.0008 1.46951 26.7901 0.960823 26.415 0.585764C26.04 0.210706 25.5313 0 25.0009 0L23.0009 0C22.4705 0 21.9618 0.210706 21.5868 0.585764C21.2117 0.960823 21.001 1.46951 21.001 1.99992C21.001 2.53034 21.2117 3.03903 21.5868 3.41408C21.9618 3.78914 22.4705 3.99985 23.0009 3.99985H25.0009C25.5313 3.99985 26.04 3.78914 26.415 3.41408C26.7901 3.03903 27.0008 2.53034 27.0008 1.99992Z" fill="#011E41"/>
<path d="M41.0013 25.0798V23.4999C40.9995 22.8375 40.7355 22.2027 40.2671 21.7342C39.7987 21.2658 39.1639 21.0018 38.5014 21H33.5016C32.8392 21.0018 32.2044 21.2658 31.736 21.7342C31.2675 22.2027 31.0036 22.8375 31.0017 23.4999V25.0798C28.5127 26.2207 26.4887 28.1784 25.2657 30.628C24.0426 33.0777 23.6941 35.8719 24.278 38.5469C24.8618 41.2219 26.3429 43.6168 28.4754 45.3341C30.6079 47.0514 33.2635 47.9877 36.0015 47.9877C38.7395 47.9877 41.3951 47.0514 43.5276 45.3341C45.6601 43.6168 47.1412 41.2219 47.7251 38.5469C48.3089 35.8719 47.9604 33.0777 46.7374 30.628C45.5143 28.1784 43.4903 26.2207 41.0013 25.0798ZM36.0015 42.9992C34.6171 42.9992 33.2638 42.5886 32.1127 41.8195C30.9616 41.0504 30.0644 39.9572 29.5346 38.6781C29.0048 37.3991 28.8662 35.9917 29.1363 34.6339C29.4064 33.276 30.073 32.0288 31.052 31.0499C32.0309 30.0709 33.2781 29.4043 34.6359 29.1342C35.9938 28.8641 37.4012 29.0027 38.6802 29.5325C39.9592 30.0623 41.0524 30.9595 41.8216 32.1106C42.5907 33.2617 43.0013 34.615 43.0013 35.9994C42.9991 37.8552 42.261 39.6344 40.9487 40.9467C39.6365 42.2589 37.8573 42.9971 36.0015 42.9992V42.9992Z" fill="#011E41"/>
</g>
<defs>
<clipPath id="clip0_74_1375">
<rect width="48" height="48" fill="white"/>
</clipPath>
</defs>
</svg>
