<svg width="48" height="48" viewBox="0 0 48 48" fill="none" xmlns="http://www.w3.org/2000/svg">
<path d="M12.496 41C12.0982 41 11.7166 41.158 11.4353 41.4393C11.154 41.7206 10.996 42.1022 10.996 42.5V46.499C10.996 46.8968 11.154 47.2784 11.4353 47.5597C11.7166 47.841 12.0982 47.999 12.496 47.999C12.8938 47.999 13.2754 47.841 13.5567 47.5597C13.838 47.2784 13.996 46.8968 13.996 46.499V42.5C13.996 42.1022 13.838 41.7206 13.5567 41.4393C13.2754 41.158 12.8938 41 12.496 41V41ZM23.498 34.003H19.498C19.1002 34.003 18.7186 34.161 18.4373 34.4423C18.156 34.7236 17.998 35.1052 17.998 35.503C17.998 35.9008 18.156 36.2824 18.4373 36.5637C18.7186 36.845 19.1002 37.003 19.498 37.003H23.498C23.8958 37.003 24.2774 36.845 24.5587 36.5637C24.84 36.2824 24.998 35.9008 24.998 35.503C24.998 35.1052 24.84 34.7236 24.5587 34.4423C24.2774 34.161 23.8958 34.003 23.498 34.003V34.003ZM12.502 23.001C12.1042 23.001 11.7226 23.159 11.4413 23.4403C11.16 23.7216 11.002 24.1032 11.002 24.501V28.5C11.002 28.8978 11.16 29.2794 11.4413 29.5607C11.7226 29.842 12.1042 30 12.502 30C12.8998 30 13.2814 29.842 13.5627 29.5607C13.844 29.2794 14.002 28.8978 14.002 28.5V24.501C14.002 24.1032 13.844 23.7216 13.5627 23.4403C13.2814 23.159 12.8998 23.001 12.502 23.001V23.001ZM6.999 35.497C6.999 35.0992 6.84096 34.7176 6.55966 34.4363C6.27836 34.155 5.89682 33.997 5.499 33.997H1.5C1.10218 33.997 0.720644 34.155 0.43934 34.4363C0.158035 34.7176 0 35.0992 0 35.497C0 35.8948 0.158035 36.2764 0.43934 36.5577C0.720644 36.839 1.10218 36.997 1.5 36.997H5.499C5.89682 36.997 6.27836 36.839 6.55966 36.5577C6.84096 36.2764 6.999 35.8948 6.999 35.497V35.497ZM18.56 39.436C18.4207 39.2967 18.2553 39.1861 18.0732 39.1107C17.8912 39.0353 17.696 38.9965 17.499 38.9965C17.302 38.9965 17.1068 39.0353 16.9248 39.1107C16.7427 39.1861 16.5773 39.2967 16.438 39.436C16.2987 39.5753 16.1881 39.7407 16.1127 39.9228C16.0373 40.1048 15.9985 40.3 15.9985 40.497C15.9985 40.694 16.0373 40.8892 16.1127 41.0712C16.1881 41.2533 16.2987 41.4187 16.438 41.558L19.441 44.561C19.7224 44.8424 20.104 45.0005 20.502 45.0005C20.9 45.0005 21.2816 44.8424 21.563 44.561C21.8444 44.2796 22.0025 43.898 22.0025 43.5C22.0025 43.102 21.8444 42.7204 21.563 42.439L18.56 39.436ZM18.556 31.564L21.56 28.561C21.8414 28.2796 21.9995 27.898 21.9995 27.5C21.9995 27.102 21.8414 26.7204 21.56 26.439C21.2786 26.1576 20.897 25.9995 20.499 25.9995C20.101 25.9995 19.7194 26.1576 19.438 26.439L16.435 29.442C16.2957 29.5813 16.1851 29.7466 16.1097 29.9286C16.0343 30.1106 15.9954 30.3056 15.9954 30.5026C15.9953 30.6996 16.0341 30.8947 16.1094 31.0767C16.1848 31.2588 16.2952 31.4242 16.4345 31.5635C16.5738 31.7028 16.7391 31.8134 16.9211 31.8888C17.1031 31.9642 17.2981 32.0031 17.4951 32.0031C17.6921 32.0032 17.8872 31.9644 18.0692 31.8891C18.2513 31.8137 18.4167 31.7033 18.556 31.564V31.564ZM6.441 31.563C6.72471 31.8315 7.10195 31.9787 7.49252 31.9734C7.88308 31.968 8.25616 31.8105 8.53242 31.5344C8.80869 31.2583 8.96634 30.8853 8.97186 30.4947C8.97739 30.1041 8.83034 29.7268 8.562 29.443L5.56 26.438C5.27861 26.1566 4.89695 25.9985 4.499 25.9985C4.10105 25.9985 3.71939 26.1566 3.438 26.438C3.15661 26.7194 2.99852 27.101 2.99852 27.499C2.99852 27.897 3.15661 28.2786 3.438 28.56L6.441 31.563ZM6.441 39.436L3.438 42.44C3.29867 42.5793 3.18814 42.7447 3.11274 42.9268C3.03733 43.1088 2.99852 43.304 2.99852 43.501C2.99852 43.698 3.03733 43.8932 3.11274 44.0752C3.18814 44.2573 3.29867 44.4227 3.438 44.562C3.71939 44.8434 4.10105 45.0015 4.499 45.0015C4.69605 45.0015 4.89116 44.9627 5.07321 44.8873C5.25526 44.8119 5.42067 44.7013 5.56 44.562L8.563 41.559C8.70233 41.4197 8.81286 41.2543 8.88826 41.0722C8.96367 40.8902 9.00248 40.695 9.00248 40.498C9.00248 40.301 8.96367 40.1058 8.88826 39.9238C8.81286 39.7417 8.70233 39.5763 8.563 39.437C8.42367 39.2977 8.25826 39.1871 8.07621 39.1117C7.89416 39.0363 7.69905 38.9975 7.502 38.9975C7.30495 38.9975 7.10984 39.0363 6.92779 39.1117C6.74574 39.1871 6.58033 39.2977 6.441 39.437V39.436ZM34.999 10C27.588 10 21.999 15.16 21.999 22C21.999 22.5304 22.2097 23.0391 22.5848 23.4142C22.9599 23.7893 23.4686 24 23.999 24C24.5294 24 25.0381 23.7893 25.4132 23.4142C25.7883 23.0391 25.999 22.5304 25.999 22C25.9726 20.615 26.333 19.25 27.0396 18.0585C27.7462 16.867 28.771 15.8962 29.999 15.255V46C29.999 46.5304 30.2097 47.0391 30.5848 47.4142C30.9599 47.7893 31.4686 48 31.999 48C32.5294 48 33.0381 47.7893 33.4132 47.4142C33.7883 47.0391 33.999 46.5304 33.999 46V31H35.999V46C35.999 46.5304 36.2097 47.0391 36.5848 47.4142C36.9599 47.7893 37.4686 48 37.999 48C38.5294 48 39.0381 47.7893 39.4132 47.4142C39.7883 47.0391 39.999 46.5304 39.999 46V15.255C41.227 15.8962 42.2518 16.867 42.9584 18.0585C43.665 19.25 44.0254 20.615 43.999 22C43.999 22.5304 44.2097 23.0391 44.5848 23.4142C44.9599 23.7893 45.4686 24 45.999 24C46.5294 24 47.0381 23.7893 47.4132 23.4142C47.7883 23.0391 47.999 22.5304 47.999 22C47.999 15.16 42.41 10 34.999 10Z" fill="#011E41"/>
<path d="M34.998 8C37.2072 8 38.998 6.20914 38.998 4C38.998 1.79086 37.2072 0 34.998 0C32.7889 0 30.998 1.79086 30.998 4C30.998 6.20914 32.7889 8 34.998 8Z" fill="#011E41"/>
</svg>
