<svg width="48" height="48" viewBox="0 0 48 48" fill="none" xmlns="http://www.w3.org/2000/svg">
<path d="M24 29C26.7614 29 29 26.7614 29 24C29 21.2386 26.7614 19 24 19C21.2386 19 19 21.2386 19 24C19 26.7614 21.2386 29 24 29Z" fill="#011E41"/>
<path d="M46 22H37.829L39.414 20.414C39.7783 20.0368 39.9799 19.5316 39.9753 19.0072C39.9708 18.4828 39.7605 17.9812 39.3896 17.6104C39.0188 17.2395 38.5172 17.0292 37.9928 17.0247C37.4684 17.0201 36.9632 17.2217 36.586 17.586L31.586 22.586C31.462 22.7135 31.3557 22.8571 31.27 23.013C31.249 23.05 31.23 23.087 31.211 23.125C31.1348 23.2755 31.078 23.4351 31.042 23.6L31.038 23.612C31.0072 23.7818 30.9985 23.9549 31.012 24.127C31.015 24.169 31.019 24.209 31.024 24.25C31.0434 24.4256 31.0861 24.5977 31.151 24.762L31.152 24.766L31.161 24.78C31.229 24.9344 31.3164 25.0796 31.421 25.212C31.449 25.249 31.478 25.285 31.509 25.32C31.536 25.35 31.557 25.385 31.586 25.414L36.586 30.414C36.9632 30.7783 37.4684 30.9799 37.9928 30.9753C38.5172 30.9708 39.0188 30.7605 39.3896 30.3896C39.7605 30.0188 39.9708 29.5172 39.9753 28.9928C39.9799 28.4684 39.7783 27.9632 39.414 27.586L37.828 26H46C46.5304 26 47.0391 25.7893 47.4142 25.4142C47.7893 25.0391 48 24.5304 48 24C48 23.4696 47.7893 22.9609 47.4142 22.5858C47.0391 22.2107 46.5304 22 46 22ZM16.988 24.127C17.0015 23.9549 16.9928 23.7818 16.962 23.612L16.958 23.6C16.9217 23.4351 16.8646 23.2755 16.788 23.125C16.7698 23.0871 16.7505 23.0497 16.73 23.013C16.6443 22.8571 16.538 22.7135 16.414 22.586L11.414 17.586C11.0368 17.2217 10.5316 17.0201 10.0072 17.0247C9.4828 17.0292 8.98118 17.2395 8.61036 17.6104C8.23955 17.9812 8.02921 18.4828 8.02465 19.0072C8.02009 19.5316 8.22168 20.0368 8.586 20.414L10.17 22H2C1.46957 22 0.960859 22.2107 0.585786 22.5858C0.210714 22.9609 0 23.4696 0 24C0 24.5304 0.210714 25.0391 0.585786 25.4142C0.960859 25.7893 1.46957 26 2 26H10.172L8.586 27.586C8.39498 27.7705 8.24262 27.9912 8.1378 28.2352C8.03298 28.4792 7.97781 28.7416 7.9755 29.0072C7.97319 29.2728 8.02379 29.5361 8.12436 29.7819C8.22492 30.0277 8.37342 30.251 8.56121 30.4388C8.749 30.6266 8.9723 30.7751 9.21809 30.8756C9.46388 30.9762 9.72724 31.0268 9.9928 31.0245C10.2584 31.0222 10.5208 30.967 10.7648 30.8622C11.0088 30.7574 11.2295 30.605 11.414 30.414L16.414 25.414C16.444 25.384 16.464 25.35 16.491 25.32C16.522 25.285 16.551 25.249 16.579 25.212C16.6836 25.0796 16.771 24.9344 16.839 24.78L16.848 24.766V24.762C16.9132 24.5978 16.9563 24.4256 16.976 24.25C16.981 24.209 16.986 24.169 16.988 24.127V24.127ZM22.586 16.414C22.6806 16.5089 22.7844 16.5939 22.896 16.668C22.9852 16.7249 23.0788 16.7744 23.176 16.816C23.199 16.826 23.22 16.842 23.242 16.851C23.3445 16.8914 23.4502 16.9232 23.558 16.946C23.578 16.95 23.595 16.958 23.615 16.962C23.7418 16.987 23.8707 16.9998 24 17L24.026 16.998C24.1468 16.9968 24.2673 16.9848 24.386 16.962C24.401 16.959 24.416 16.952 24.432 16.948C24.5447 16.9242 24.6551 16.8908 24.762 16.848H24.765L24.775 16.842C24.9318 16.7732 25.079 16.6845 25.213 16.578C25.249 16.5505 25.284 16.5218 25.318 16.492C25.35 16.465 25.384 16.444 25.414 16.414L30.414 11.414C30.7783 11.0368 30.9799 10.5316 30.9753 10.0072C30.9708 9.4828 30.7605 8.98118 30.3896 8.61036C30.0188 8.23955 29.5172 8.02921 28.9928 8.02465C28.4684 8.02009 27.9632 8.22168 27.586 8.586L26 10.172V2C26 1.46957 25.7893 0.960859 25.4142 0.585786C25.0391 0.210714 24.5304 0 24 0C23.4696 0 22.9609 0.210714 22.5858 0.585786C22.2107 0.960859 22 1.46957 22 2V10.172L20.414 8.586C20.0368 8.22168 19.5316 8.02009 19.0072 8.02465C18.4828 8.02921 17.9812 8.23955 17.6104 8.61036C17.2395 8.98118 17.0292 9.4828 17.0247 10.0072C17.0201 10.5316 17.2217 11.0368 17.586 11.414L22.586 16.414ZM25.414 31.586C25.384 31.556 25.35 31.536 25.318 31.508C25.284 31.4781 25.249 31.4494 25.213 31.422C25.0787 31.3154 24.9311 31.2267 24.774 31.158L24.765 31.152H24.763C24.5994 31.0869 24.4279 31.0438 24.253 31.024C24.2098 31.0187 24.1664 31.0147 24.123 31.012C23.9532 30.9992 23.7826 31.0079 23.615 31.038C23.605 31.039 23.597 31.043 23.588 31.045C23.4285 31.0806 23.274 31.1357 23.128 31.209C23.088 31.229 23.049 31.249 23.011 31.271C22.8559 31.3565 22.7129 31.4625 22.586 31.586L17.586 36.586C17.2217 36.9632 17.0201 37.4684 17.0247 37.9928C17.0292 38.5172 17.2395 39.0188 17.6104 39.3896C17.9812 39.7605 18.4828 39.9708 19.0072 39.9753C19.5316 39.9799 20.0368 39.7783 20.414 39.414L22 37.828V46C22 46.5304 22.2107 47.0391 22.5858 47.4142C22.9609 47.7893 23.4696 48 24 48C24.5304 48 25.0391 47.7893 25.4142 47.4142C25.7893 47.0391 26 46.5304 26 46V37.828L27.586 39.414C27.9632 39.7783 28.4684 39.9799 28.9928 39.9753C29.5172 39.9708 30.0188 39.7605 30.3896 39.3896C30.7605 39.0188 30.9708 38.5172 30.9753 37.9928C30.9799 37.4684 30.7783 36.9632 30.414 36.586L25.414 31.586Z" fill="#011E41"/>
</svg>
