<?xml version="1.0" encoding="utf-8"?>
<!-- Generator: Adobe Illustrator 25.2.1, SVG Export Plug-In . SVG Version: 6.00 Build 0)  -->
<svg version="1.1" id="Layer_1" xmlns="http://www.w3.org/2000/svg" xmlns:xlink="http://www.w3.org/1999/xlink" x="0px" y="0px"
	 viewBox="0 0 288 560" style="enable-background:new 0 0 288 560;" xml:space="preserve">
<style type="text/css">
	.st0{fill:#FDFDFD;}
	.st1{fill:#F9B402;}
	.st2{fill:#3375A3;}
	.st3{fill:#3376A3;}
	.st4{fill:#F9B403;}
	.st5{fill:#FCFCFC;}
	.st6{fill:#B6CEDE;}
	.st7{fill:#FEFEFE;}
</style>
<g>
	<g>
		<path class="st0" d="M143.98,297.36c-18.36,0-36.71,0-55.07,0c-0.17,0-0.2-0.04-0.2-0.2c0-21.2,0-42.39,0-63.59
			c0-0.17,0.04-0.2,0.2-0.2c36.73,0,73.46,0,110.19,0c0.17,0,0.2,0.04,0.2,0.2c0,21.2,0,42.39,0,63.59c0,0.17-0.04,0.2-0.2,0.2
			C180.72,297.36,162.35,297.36,143.98,297.36z"/>
		<path class="st1" d="M112.27,274.81c-1.2,0.56-2.4,1.12-3.61,1.68c-3.85,1.78-7.7,3.56-11.62,5.17c-0.18,0.07-0.35,0.14-0.54,0.21
			c-0.01-0.08,0.03-0.13,0.06-0.17c1.51-2.71,3.01-5.42,4.51-8.13c0.07-0.12,0.15-0.19,0.27-0.24c1.59-0.66,3.18-1.32,4.76-1.98
			c0.08-0.03,0.15-0.07,0.22-0.1c0.13-0.15,0.32-0.18,0.49-0.25c2.18-0.92,4.36-1.86,6.52-2.82c0.24-0.11,0.47-0.23,0.71-0.32
			c0.77-0.36,1.54-0.71,2.3-1.08c1.79-0.88,3.42-2,5-3.21c1.2-0.92,2.31-1.94,3.34-3.04c1.18-1.27,2.22-2.65,3.07-4.17
			c0.87-1.57,1.49-3.23,1.84-5c0.24-1.21,0.33-2.43,0.24-3.66c-0.1-1.45-0.61-2.76-1.46-3.94c-0.89-1.23-2.04-2.15-3.46-2.72
			c-0.71-0.29-1.44-0.46-2.2-0.54c-1.57-0.15-3.05,0.13-4.44,0.86c-1.47,0.77-2.59,1.9-3.36,3.37c-0.28,0.53-0.49,1.08-0.64,1.66
			c-0.01,0.03-0.01,0.06-0.03,0.09c-0.02,0.05-0.04,0.12-0.11,0.12c-0.06,0-0.07-0.07-0.08-0.12c-0.05-0.28-0.2-0.53-0.21-0.82
			c0.08-0.49,0.24-0.95,0.42-1.41c0.16-0.21,0.23-0.46,0.34-0.69c0.29-0.66,0.68-1.26,1.1-1.85c0.28-0.39,0.59-0.75,0.92-1.08
			c0.58-0.59,1.21-1.11,1.91-1.55c1.24-0.77,2.58-1.27,4.02-1.49c0.19-0.03,0.38-0.06,0.57-0.08c0.09-0.04,0.19,0.01,0.28-0.03
			c0.14,0,0.29-0.01,0.43-0.01c0.25-0.02,0.5-0.02,0.75,0c0.14,0,0.29,0.01,0.43,0.01c0.08,0.04,0.16,0,0.24,0.03
			c1.35,0.16,2.65,0.52,3.86,1.16c0.87,0.46,1.67,1.03,2.38,1.71c1.37,1.3,2.32,2.86,2.87,4.67c0.19,0.64,0.3,1.3,0.4,1.96
			c0.04,0.09-0.01,0.19,0.03,0.28c0,0.14,0.01,0.29,0.01,0.43c0.02,0.27,0.02,0.53,0,0.8c0,0.2-0.01,0.41-0.01,0.61
			c-0.05,0.12,0.01,0.25-0.03,0.37c0,0.1-0.01,0.2-0.01,0.3c-0.04,0.09,0,0.19-0.03,0.28c-0.03,0.19-0.07,0.38-0.05,0.57
			c-0.04,0.07,0,0.16-0.04,0.23c-0.13,0.71-0.24,1.42-0.41,2.12c-0.34,1.39-0.81,2.73-1.4,4.03c-0.8,1.76-1.83,3.39-3,4.93
			c-0.59,0.77-1.22,1.5-1.88,2.22c-0.66,0.72-1.35,1.4-2.07,2.05c-0.89,0.82-1.83,1.59-2.79,2.33c-0.92,0.7-1.87,1.36-2.83,2
			c-0.04,0.1-0.13,0.14-0.21,0.19c-1.03,0.65-2.07,1.27-3.14,1.85c-1.44,0.79-2.95,1.43-4.42,2.14
			C112.41,274.79,112.35,274.82,112.27,274.81z"/>
		<path class="st2" d="M114.25,244.26c0.06,0.06,0.01,0.12-0.01,0.18c-0.15,0.41-0.26,0.82-0.37,1.24
			c-0.09-0.03-0.11-0.11-0.14-0.19c-0.4-1.02-1-1.92-1.78-2.7c-1.3-1.29-2.85-2.06-4.67-2.29c-1.38-0.18-2.74-0.03-4.01,0.53
			c-2.77,1.21-4.43,3.32-4.91,6.31c-0.12,0.76-0.08,1.52-0.03,2.29c0.08,1.15,0.31,2.28,0.65,3.38c0.36,1.14,0.83,2.22,1.42,3.26
			c0.77,1.36,1.69,2.6,2.73,3.76c1.38,1.54,2.93,2.88,4.6,4.09c1.8,1.31,3.7,2.45,5.71,3.41c0.13,0.06,0.27,0.12,0.41,0.18
			c0.08,0.04,0.19,0.06,0.22,0.17c-1.9,0.87-3.82,1.69-5.74,2.51c-0.67,0.28-1.34,0.56-2.01,0.84c-0.81-0.6-1.63-1.19-2.42-1.82
			c-3-2.4-5.69-5.1-7.82-8.33c-1.67-2.54-2.9-5.27-3.53-8.25c-0.35-1.65-0.52-3.33-0.46-5.02c0.18-5.12,3.99-9.63,9-10.68
			c0.99-0.21,1.98-0.29,2.99-0.25c0.07,0,0.13,0,0.2,0c0.09,0.04,0.19,0,0.28,0.03c0.07,0,0.14,0.01,0.21,0.01
			c0.07,0.04,0.16,0,0.23,0.03c0.66,0.12,1.31,0.24,1.95,0.44c1.3,0.41,2.48,1.03,3.56,1.85c1.11,0.85,2.03,1.89,2.77,3.08
			C113.68,242.96,113.98,243.6,114.25,244.26z"/>
		<path class="st3" d="M112.27,274.81c0.84-0.43,1.72-0.81,2.57-1.21c1.81-0.85,3.54-1.83,5.22-2.91c0.06-0.04,0.13-0.08,0.19-0.11
			c1.76,0.75,3.52,1.5,5.29,2.25c1.69,0.71,3.38,1.4,5.06,2.1c1.9,0.8,3.82,1.56,5.74,2.32c1.88,0.74,3.76,1.47,5.65,2.16
			c1.33,0.49,2.66,0.96,4.01,1.4c0.17,0.05,0.34,0.08,0.51,0.19c-0.62,0.24-1.23,0.49-1.83,0.72c-0.84,0.33-1.68,0.65-2.52,0.98
			c-0.87,0.34-1.75,0.68-2.62,1.02c-1,0.39-2,0.77-2.99,1.17c-0.19,0.08-0.33,0-0.48-0.05c-0.53-0.21-1.06-0.38-1.59-0.57
			c-0.66-0.24-1.32-0.5-1.98-0.74c-0.49-0.18-0.97-0.36-1.46-0.54c-0.61-0.23-1.22-0.47-1.83-0.7c-0.61-0.24-1.21-0.48-1.82-0.72
			c-0.77-0.31-1.54-0.63-2.31-0.94c-0.59-0.24-1.17-0.48-1.75-0.73c-0.77-0.32-1.54-0.64-2.3-0.97c-0.95-0.42-1.91-0.84-2.85-1.28
			c-1.08-0.5-2.15-1.01-3.23-1.51c-0.84-0.38-1.67-0.76-2.49-1.19C112.39,274.89,112.33,274.85,112.27,274.81z"/>
		<path class="st3" d="M170.07,289.05c-0.72,0.29-1.39,0.55-2.05,0.82c-1.05,0.42-2.1,0.83-3.14,1.25
			c-1.12,0.44-2.23,0.89-3.35,1.34c-0.86,0.34-1.73,0.68-2.59,1.03c-0.17,0.07-0.32,0.1-0.5,0.03c-0.87-0.31-1.74-0.61-2.6-0.93
			c-0.52-0.19-1.03-0.4-1.53-0.63c-0.04-0.02-0.08-0.04-0.12-0.06c0.04-0.02,0.07-0.05,0.11-0.06c1.62-0.64,3.23-1.29,4.85-1.93
			c1.3-0.52,2.6-1.04,3.9-1.55c0.77-0.3,1.53-0.61,2.3-0.91c0.1-0.04,0.17-0.03,0.27,0.01c1.32,0.55,2.67,1.02,4.03,1.46
			C169.76,288.95,169.9,289,170.07,289.05z"/>
		<path class="st3" d="M158.45,284.96c-0.4,0.16-0.76,0.31-1.12,0.45c-1.13,0.45-2.26,0.9-3.39,1.34c-1.2,0.48-2.4,0.95-3.59,1.43
			c-0.85,0.34-1.7,0.68-2.55,1.02c-0.12,0.05-0.22,0.08-0.36,0.04c-1.06-0.33-2.1-0.7-3.14-1.06c-0.34-0.12-0.68-0.23-1.07-0.37
			c0.29-0.12,0.54-0.23,0.78-0.33c1.28-0.51,2.57-1.01,3.85-1.52c1.42-0.56,2.85-1.13,4.27-1.69c0.56-0.22,1.11-0.44,1.66-0.67
			c0.16-0.07,0.3-0.08,0.48-0.02c1.24,0.42,2.48,0.83,3.72,1.24C158.13,284.85,158.27,284.9,158.45,284.96z"/>
		<path class="st3" d="M144.15,264.69c0.79,0.07,1.53,0.29,2.13,0.85c0.53,0.49,0.84,1.1,0.99,1.8c0.04,0.19,0.07,0.38,0.1,0.56
			c0.02,0.3,0.02,0.59,0,0.89c-0.1,0.81-0.32,1.57-0.82,2.23c-0.52,0.69-1.19,1.15-2.02,1.38c-0.17,0.05-0.34,0.09-0.51,0.1
			c-0.08,0.03-0.16-0.01-0.24,0.03c-0.18,0-0.36,0-0.55,0c-0.08-0.04-0.16,0-0.24-0.03c-0.76-0.07-1.42-0.38-1.95-0.92
			c-0.49-0.5-0.77-1.11-0.9-1.8c-0.03-0.15-0.02-0.3-0.05-0.45c-0.02-0.33-0.02-0.65,0-0.98c0.06-0.82,0.33-1.57,0.83-2.23
			c0.6-0.79,1.4-1.24,2.38-1.38c0.15-0.02,0.31-0.04,0.46-0.05C143.89,264.67,144.02,264.67,144.15,264.69z"/>
		<path class="st3" d="M147.69,259.08c-0.1,0.4-0.1,0.4-0.53,0.4c-0.68,0-1.35-0.01-2.03,0.01c-0.16,0-0.22-0.06-0.25-0.19
			c-0.01-0.02-0.01-0.04-0.01-0.06c-0.03-0.3-0.03-0.29,0.28-0.32c0.15-0.01,0.3-0.06,0.46-0.07c0.18-0.01,0.22-0.09,0.16-0.25
			c-0.16-0.39-0.32-0.77-0.47-1.16c-0.04-0.09-0.07-0.12-0.17-0.12c-1.04,0-2.08,0-3.12,0c-0.11,0-0.16,0.04-0.2,0.13
			c-0.16,0.4-0.32,0.8-0.49,1.2c-0.05,0.11-0.04,0.18,0.1,0.2c0.18,0.03,0.36,0.08,0.55,0.08c0.18,0,0.27,0.05,0.2,0.25
			c-0.02,0.05-0.02,0.12-0.03,0.17c-0.02,0.1-0.07,0.15-0.18,0.14c-0.68-0.01-1.37-0.01-2.05,0c-0.2,0.01-0.15-0.14-0.18-0.22
			c-0.08-0.26-0.03-0.33,0.23-0.35c0.23-0.03,0.38-0.1,0.48-0.36c0.38-1,0.81-1.97,1.21-2.96c0.37-0.9,0.73-1.81,1.11-2.7
			c0.12-0.27-0.05-0.27-0.22-0.3c-0.13-0.02-0.27-0.04-0.41-0.06c-0.08-0.04-0.16,0-0.24-0.03c-0.09-0.19-0.01-0.37,0.05-0.55
			c0.41-0.02,0.83,0,1.24-0.01c0.08,0,0.16,0.02,0.24-0.02c0.14,0,0.29-0.01,0.43-0.01c0.11-0.04,0.22,0.01,0.33-0.03
			c0.22,0.31,0.32,0.67,0.46,1.01c0.78,1.9,1.55,3.81,2.31,5.73c0.09,0.23,0.25,0.25,0.43,0.29c0.08,0.02,0.16,0.01,0.24,0.01
			C147.71,258.94,147.71,259.01,147.69,259.08z"/>
		<path class="st3" d="M156.72,271.82c0.13,0.02,0.1,0.11,0.08,0.18c-0.04,0.1-0.03,0.2-0.04,0.3c-0.02,0.1-0.11,0.08-0.18,0.08
			c-0.83,0-1.66,0-2.49,0c-0.1,0-0.16-0.02-0.18-0.12c-0.01-0.15-0.14-0.31,0.04-0.45c0.07-0.04,0.16,0.01,0.23-0.03
			c0.7-0.02,0.71-0.03,0.71-0.71c0-1.8,0-3.61,0-5.41c0-0.39,0-0.39-0.37-0.34c-0.17,0.03-0.33,0.01-0.5,0.01
			c-0.06,0-0.1-0.02-0.12-0.08c0-0.02-0.01-0.04-0.01-0.06c-0.09-0.35-0.06-0.39,0.28-0.46c0.38-0.08,0.75-0.19,1.09-0.39
			c0.18-0.1,0.39-0.05,0.59-0.04c0.09,0,0.06,0.11,0.06,0.17c0,0.44,0,0.88,0,1.31c0,1.22,0,2.44,0,3.67
			c0.53-0.23,0.99-0.53,1.35-0.99c0.21-0.27,0.49-0.49,0.75-0.74c-0.14-0.16-0.34-0.08-0.49-0.14c-0.07-0.04-0.16,0-0.23-0.03
			c-0.06-0.01-0.13-0.01-0.13-0.11c0.01-0.15,0.02-0.3,0.08-0.45c0.83-0.02,1.65,0,2.48-0.01c0.02,0,0.04,0.01,0.06,0.02
			c0.01,0.09,0.03,0.17,0.04,0.26c0.04,0.27,0.02,0.31-0.26,0.31c-0.41-0.01-0.68,0.18-0.93,0.48c-0.31,0.37-0.67,0.7-1.01,1.04
			c-0.11,0.11-0.13,0.19-0.05,0.32c0.41,0.77,0.9,1.47,1.47,2.13c0.15,0.17,0.35,0.18,0.53,0.23c0.14,0.03,0.28,0.05,0.42,0.05
			c0.16,0,0.17,0.08,0.14,0.19c-0.02,0.09-0.04,0.19-0.04,0.28c-0.03,0.11-0.13,0.08-0.2,0.08c-0.25,0.01-0.5-0.02-0.74,0.02
			c-0.16,0-0.32,0.01-0.48,0.01c-0.09,0.02-0.18,0.02-0.26,0c-0.33-0.33-0.59-0.71-0.83-1.11c-0.28-0.48-0.52-0.97-0.71-1.49
			c-0.04-0.12-0.12-0.16-0.23-0.08c-0.01,0.01-0.02,0.02-0.04,0.03c-0.23,0.14-0.55,0.24-0.67,0.45c-0.12,0.21-0.03,0.53-0.04,0.81
			c0,0.1,0,0.19,0,0.29c0,0.45,0,0.45,0.46,0.47c0.04,0,0.07,0,0.11,0C156.56,271.83,156.65,271.79,156.72,271.82z"/>
		<path class="st3" d="M137.56,285.7c0.6-0.23,1.19-0.46,1.78-0.69c0.97-0.38,1.94-0.74,2.9-1.13c0.26-0.1,0.47-0.02,0.7,0.05
			c1.32,0.41,2.63,0.82,3.95,1.23c0.1,0.03,0.21,0.07,0.35,0.11c-0.27,0.11-0.51,0.22-0.76,0.32c-1.29,0.51-2.6,0.99-3.87,1.56
			c-0.57,0.26-1.03,0.09-1.52-0.1c-1.09-0.42-2.2-0.79-3.28-1.24C137.73,285.78,137.64,285.8,137.56,285.7z"/>
		<path class="st3" d="M164.17,286.78c-0.38,0.16-0.76,0.31-1.13,0.46c-1.05,0.42-2.1,0.83-3.14,1.25
			c-0.18,0.07-0.35,0.16-0.53,0.22c-0.11,0.04-0.22,0.06-0.36,0.01c-1.09-0.38-2.2-0.74-3.29-1.1c-0.29-0.1-0.6-0.17-0.92-0.31
			c0.35-0.14,0.67-0.28,0.99-0.41c1.29-0.51,2.59-1.03,3.88-1.54c0.1-0.04,0.19-0.06,0.3-0.02c1.38,0.49,2.78,0.94,4.17,1.39
			C164.14,286.73,164.15,286.74,164.17,286.78z"/>
		<path class="st3" d="M158.15,289.37c-0.65,0.26-1.28,0.52-1.92,0.77c-0.94,0.37-1.88,0.74-2.81,1.12c-0.2,0.08-0.38,0.11-0.6,0.03
			c-1.12-0.39-2.25-0.77-3.38-1.15c-0.22-0.08-0.45-0.14-0.68-0.26c0.35-0.14,0.7-0.28,1.06-0.42c1.23-0.49,2.45-0.97,3.68-1.46
			c0.16-0.06,0.31-0.1,0.48-0.04c1.34,0.47,2.69,0.92,4.04,1.34C158.05,289.32,158.08,289.34,158.15,289.37z"/>
		<path class="st3" d="M167.24,254.85c-0.53,0.09-0.86,0.42-1.1,0.87c-0.23,0.42-0.39,0.87-0.41,1.35c-0.04,0.09,0,0.19-0.03,0.28
			c0,0.44-0.01,0.89-0.01,1.33c0,0.11,0.04,0.13,0.14,0.15c0.2,0.03,0.39,0.08,0.59,0.09c0.13,0.01,0.2,0.04,0.18,0.21
			c-0.05,0.35-0.04,0.36-0.39,0.36c-0.76,0-1.53-0.01-2.29,0.01c-0.18,0-0.22-0.09-0.26-0.21c-0.02-0.08-0.01-0.17-0.04-0.26
			c-0.04-0.11,0.08-0.1,0.15-0.1c0.25-0.02,0.5-0.06,0.74-0.12c0.12-0.03,0.17-0.08,0.17-0.21c-0.01-0.98-0.01-1.96-0.02-2.94
			c-0.04-0.13,0.02-0.28-0.03-0.41c-0.02-0.12,0.08-0.32-0.18-0.25c-0.08,0.03-0.16-0.01-0.24,0.03c-0.13,0-0.25-0.01-0.38,0
			c-0.13,0-0.2-0.06-0.18-0.18c0.03-0.13-0.13-0.26-0.02-0.35c0.09-0.07,0.24-0.06,0.36-0.08c0.41-0.07,0.79-0.24,1.17-0.42
			c0.09-0.01,0.2-0.05,0.26,0.06c0.06,0.34,0.12,0.68,0.19,1.02c0.04,0.07-0.01,0.16,0.03,0.23c0,0.07,0.01,0.14,0.01,0.21
			c0.03,0.04,0.05,0.03,0.08,0c0.23-0.51,0.56-0.94,1.04-1.24c0.26-0.16,0.54-0.23,0.84-0.28c0.16-0.02,0.32-0.02,0.49,0
			c0.68,0.13,1.02,0.56,1.12,1.22c0.01,0.06,0.03,0.11,0.05,0.17c0.04,0.14-0.01,0.28,0.03,0.41c0,0.94-0.01,1.88-0.01,2.83
			c0,0.13,0.06,0.17,0.17,0.19c0.23,0.03,0.46,0.1,0.7,0.1c0.14,0,0.2,0.04,0.16,0.2c-0.09,0.36-0.08,0.36-0.46,0.36
			c-0.46,0-0.92-0.01-1.38,0c-0.16,0-0.19-0.05-0.19-0.2c0-1.11,0-2.21,0-3.32c-0.04-0.09,0.01-0.19-0.03-0.28
			c-0.06-0.39-0.2-0.72-0.62-0.83C167.48,254.81,167.36,254.82,167.24,254.85z"/>
		<path class="st3" d="M176.57,267.94c-0.12-0.06-0.24-0.04-0.36-0.02c-0.18,0.02-0.35,0.02-0.53,0c-0.02-0.04-0.03-0.08-0.05-0.12
			c-0.12-0.28-0.05-0.42,0.24-0.46c0.4-0.07,0.78-0.2,1.14-0.38c0.22-0.11,0.36-0.14,0.4,0.19c0.05,0.36,0.12,0.72,0.19,1.08
			c0.04,0.08-0.02,0.18,0.04,0.25c0.24-0.38,0.45-0.77,0.79-1.08c0.58-0.51,1.63-0.71,2.24-0.24c0.35,0.27,0.49,0.64,0.53,1.05
			c0.1,1.09,0.03,2.18,0.04,3.26c0,0.14,0.01,0.23,0.19,0.24c0.17,0.01,0.34,0.08,0.52,0.07c0.07,0.04,0.16,0,0.23,0.03
			c0.16,0.04,0.09,0.16,0.08,0.25c-0.01,0.09-0.04,0.18-0.04,0.28c-0.02,0.06-0.07,0.04-0.11,0.04c-0.59,0-1.18,0-1.77,0
			c-0.04,0-0.09,0.02-0.11-0.04c0-1.19,0.01-2.39,0-3.58c0-0.21-0.06-0.41-0.14-0.6c-0.15-0.35-0.62-0.49-0.94-0.41
			c-0.4,0.1-0.7,0.34-0.92,0.67c-0.34,0.53-0.55,1.1-0.54,1.74c-0.03,0.51-0.04,1.02,0,1.52c0.18,0.07,0.37,0.11,0.57,0.1
			c0.07,0.04,0.16,0,0.23,0.03c0.13,0.02,0.1,0.11,0.08,0.18c-0.04,0.1-0.03,0.2-0.04,0.3c-0.02,0.09-0.09,0.09-0.16,0.09
			c-0.88,0-1.75,0-2.63,0c-0.02,0-0.04-0.01-0.06-0.02c-0.03-0.09-0.08-0.19-0.08-0.28c-0.01-0.12-0.03-0.24,0.19-0.26
			c0.28-0.02,0.57-0.04,0.83-0.18c0.03-0.04,0.02-0.08,0.02-0.13c0-0.91,0-1.82,0-2.73c0-0.04,0.01-0.09-0.02-0.13
			c0-0.14-0.01-0.29-0.01-0.43C176.56,268.13,176.61,268.03,176.57,267.94z"/>
		<path class="st3" d="M167.93,266.89c0.41,0,0.81,0.02,1.2,0.16c0.61,0.22,0.94,0.67,1.06,1.3c0.08,0.41,0.01,0.83,0.04,1.24
			c-0.05,0.27,0.01,0.54-0.03,0.82c0,0.26-0.01,0.53-0.01,0.79c-0.03,0.05-0.01,0.11-0.02,0.17c-0.01,0.14,0.05,0.16,0.17,0.12
			c0.06,0,0.11-0.01,0.17-0.01c0.19-0.01,0.39-0.05,0.58,0.02c0.02,0.09,0.04,0.17,0.05,0.26c0.02,0.09,0.03,0.18-0.01,0.27
			c-0.5,0.06-0.97,0.22-1.42,0.42c-0.07,0.03-0.13,0.07-0.21,0.07c-0.09,0-0.15,0.01-0.14-0.13c0-0.19-0.04-0.39-0.06-0.58
			c-0.04-0.07,0.02-0.15-0.04-0.21c-0.22,0.13-0.36,0.35-0.58,0.5c-0.6,0.41-1.24,0.56-1.92,0.3c-0.46-0.17-0.66-0.56-0.72-1.03
			c-0.02-0.13-0.02-0.27,0-0.4c0.06-0.71,0.54-1.07,1.13-1.33c0.62-0.27,1.28-0.4,1.93-0.58c0.11-0.03,0.18-0.07,0.15-0.19
			c-0.03-0.07,0.01-0.16-0.03-0.23c-0.1-0.72-0.72-1.05-1.4-0.94c-0.08,0.01-0.16,0.01-0.24,0.02c-0.52,0.13-0.64,0.29-0.68,0.84
			c-0.01,0.1,0,0.19,0,0.29c-0.06,0.08-0.14,0.03-0.22,0.03c-0.35-0.03-0.35-0.03-0.35-0.37c0-0.3,0.01-0.59,0-0.89
			c-0.01-0.17,0.06-0.25,0.2-0.31c0.37-0.18,0.77-0.28,1.17-0.35C167.77,266.89,167.85,266.93,167.93,266.89z"/>
		<path class="st3" d="M152.77,283.07c-0.65,0.26-1.27,0.51-1.88,0.76c-0.64,0.26-1.28,0.51-1.92,0.76
			c-0.08,0.03-0.16,0.06-0.26,0.03c-0.95-0.31-1.9-0.6-2.84-0.9c-0.57-0.18-1.14-0.36-1.76-0.55c0.47-0.18,0.88-0.35,1.3-0.52
			c0.89-0.34,1.79-0.68,2.69-1.03c0.21-0.08,0.39-0.09,0.61-0.01c1.32,0.48,2.64,0.93,3.96,1.39
			C152.68,283.03,152.7,283.04,152.77,283.07z"/>
		<path class="st3" d="M182.49,254c0.42,0.08,0.82,0.21,1.17,0.48c0.5,0.39,0.76,0.93,0.87,1.53c0.15,0.86,0.02,1.68-0.47,2.41
			c-0.48,0.71-1.16,1.09-2.01,1.16c-0.13,0.02-0.27,0.02-0.4,0c-0.61-0.03-1.15-0.24-1.56-0.7c-0.36-0.41-0.59-0.89-0.63-1.45
			c-0.03-0.07,0.01-0.16-0.03-0.23c0-0.49,0.01-0.98,0.2-1.46c0.39-0.99,1.1-1.58,2.16-1.74c0.03,0,0.06-0.01,0.09-0.01
			C182.08,253.98,182.28,253.97,182.49,254z"/>
		<path class="st3" d="M187.57,269.6c-0.31,0.08-0.62,0.01-0.93,0.05c-0.24,0.04-0.49-0.02-0.73,0.03c-0.25,0-0.5,0.01-0.74,0.01
			c-0.25,0.04-0.51-0.02-0.77,0.03c-0.1,0-0.2,0-0.31,0c-0.07,0-0.09,0.03-0.07,0.1c0.03,0.08,0,0.16,0.03,0.24
			c0.1,1.32,1.23,1.99,2.5,1.47c0.16-0.07,0.32-0.15,0.47-0.25c0.28-0.18,0.29-0.18,0.43,0.14c0.03,0.09,0.02,0.17,0.01,0.26
			c-0.45,0.41-0.98,0.66-1.57,0.77c-0.07,0.04-0.16-0.01-0.23,0.03c-0.44,0-0.88-0.01-1.3-0.21c-0.76-0.36-1.14-0.98-1.31-1.77
			c-0.07-0.34-0.04-0.69-0.05-1.03c0.04-0.07,0-0.16,0.03-0.23c0.06-0.6,0.3-1.13,0.69-1.58c0.33-0.38,0.76-0.61,1.25-0.71
			c0.62-0.12,1.23-0.09,1.78,0.27c0.43,0.28,0.65,0.68,0.78,1.16c0.02,0.08,0.04,0.16,0.05,0.24c0.03,0.07-0.01,0.16,0.03,0.23
			c0,0.17,0,0.34,0,0.51C187.57,269.44,187.63,269.53,187.57,269.6z"/>
		<path class="st3" d="M185.6,256.46c0.17-1.3,1.02-2.31,2.42-2.46c0.21-0.02,0.41-0.02,0.62,0c0.42,0.08,0.81,0.21,1.15,0.47
			c0.5,0.38,0.76,0.91,0.88,1.5c0.14,0.7,0.08,1.38-0.23,2.03c-0.45,0.95-1.2,1.48-2.25,1.59c-0.13,0.02-0.27,0.02-0.4,0
			c-0.62-0.02-1.16-0.25-1.57-0.72c-0.36-0.4-0.56-0.89-0.62-1.43c-0.03-0.08,0-0.16-0.03-0.24c0-0.17,0-0.33,0-0.5
			C185.61,256.62,185.57,256.53,185.6,256.46z"/>
		<path class="st3" d="M152.99,269.51c-0.03,0.12-0.11,0.13-0.22,0.13c-0.24,0-0.49,0.01-0.73,0.02c-0.25,0.04-0.51-0.02-0.77,0.03
			c-0.23,0-0.47,0.01-0.7,0.01c-0.26,0.04-0.51-0.02-0.77,0.03c-0.44-0.02-0.45,0-0.37,0.43c0.09,0.51,0.29,0.96,0.72,1.27
			c0.57,0.39,1.18,0.35,1.79,0.12c0.19-0.08,0.38-0.16,0.54-0.3c0.13-0.11,0.23-0.09,0.3,0.08c0.08,0.19,0.1,0.36-0.1,0.51
			c-0.42,0.32-0.89,0.54-1.41,0.63c-0.07,0.04-0.16-0.01-0.23,0.03c-0.16,0-0.31,0-0.47,0c-0.07-0.04-0.16,0-0.23-0.03
			c-0.7-0.11-1.24-0.46-1.59-1.07c-0.25-0.43-0.36-0.89-0.38-1.39c-0.02-0.12-0.02-0.24,0-0.35c0.02-0.51,0.13-1,0.37-1.46
			c0.37-0.71,0.95-1.13,1.73-1.26c0.58-0.1,1.13-0.03,1.64,0.28c0.55,0.34,0.77,0.89,0.87,1.5
			C153.01,268.98,153.01,269.24,152.99,269.51z"/>
		<path class="st3" d="M161.57,256.76c-0.25,0-0.5,0.01-0.75,0.01c-0.24,0.04-0.49-0.02-0.73,0.03c-0.25,0-0.5,0.01-0.74,0.01
			c-0.02,0.01-0.04,0.01-0.06,0.01c-0.24,0.01-0.24,0.01-0.21,0.26c0.01,0.77,0.48,1.43,1.18,1.66c0.08,0.03,0.16,0.03,0.24,0.03
			c0.17,0.03,0.34,0.03,0.51,0c0.45-0.02,0.82-0.23,1.17-0.47c0.12-0.08,0.17-0.04,0.22,0.05c0.14,0.22,0.1,0.45-0.12,0.61
			c-0.48,0.35-1.01,0.57-1.6,0.62c-0.15,0.02-0.3,0.02-0.44,0c-0.48-0.04-0.91-0.16-1.3-0.47c-0.44-0.35-0.68-0.81-0.83-1.34
			c-0.04-0.14-0.03-0.29-0.06-0.43c-0.03-0.09,0.01-0.19-0.03-0.28c0-0.11,0-0.22,0-0.33c0.04-0.09,0-0.19,0.03-0.28
			c0.05-0.6,0.25-1.14,0.63-1.61c0.41-0.51,0.97-0.76,1.61-0.85c0.21-0.02,0.41-0.02,0.62,0c0.43,0.09,0.83,0.22,1.15,0.55
			c0.4,0.4,0.53,0.9,0.58,1.44c0.01,0.12,0.01,0.24,0,0.36c-0.01,0.36-0.02,0.36-0.36,0.39
			C162.06,256.77,161.81,256.72,161.57,256.76z"/>
		<path class="st3" d="M174.04,254.05c0.37,0,0.38-0.01,0.52,0.36c0.44,1.17,0.88,2.35,1.32,3.53c0.07,0.18,0.11,0.36,0.17,0.6
			c0.16-0.45,0.29-0.85,0.44-1.25c0.22-0.58,0.45-1.15,0.68-1.73c0.08-0.2,0.15-0.41,0.26-0.6c0.07-0.13-0.01-0.18-0.09-0.19
			c-0.23-0.04-0.47-0.08-0.71-0.1c-0.1-0.01-0.12-0.02-0.14-0.12c-0.03-0.14,0.05-0.25,0.05-0.39c0-0.08,0.11-0.07,0.19-0.07
			c0.64,0,1.28,0,1.92,0c0.13,0,0.17,0.06,0.19,0.16c0.01,0.05,0,0.11,0.01,0.15c0.1,0.23-0.02,0.27-0.22,0.26
			c-0.18,0-0.28,0.07-0.35,0.26c-0.43,1.18-0.94,2.33-1.4,3.49c-0.12,0.3-0.25,0.6-0.36,0.9c-0.06,0.16-0.17,0.21-0.32,0.21
			c-0.06,0-0.12-0.01-0.18,0c-0.59,0.02-0.58,0.02-0.79-0.53c-0.36-0.91-0.73-1.82-1.09-2.72c-0.17-0.42-0.34-0.85-0.48-1.28
			c-0.07-0.23-0.2-0.33-0.43-0.32c-0.07-0.05-0.26,0.03-0.19-0.17c0.06-0.4,0.06-0.4,0.46-0.4c0.06,0,0.12-0.01,0.17-0.01
			C173.79,254.05,173.92,254.1,174.04,254.05z"/>
		<path class="st3" d="M153.3,258.02c0.17-0.05,0.35-0.09,0.53-0.09c0.06,0.07,0,0.16,0.05,0.23c0.01,0.55,0.07,0.62,0.61,0.66
			c0.06,0,0.12,0,0.18,0c0.16,0.03,0.31,0.03,0.47,0c0.33,0,0.59-0.15,0.76-0.41c0.22-0.33,0.08-0.72-0.29-0.94
			c-0.38-0.23-0.79-0.42-1.18-0.62c-0.44-0.22-0.84-0.5-0.95-1.01c-0.1-0.47-0.04-0.9,0.31-1.27c0.37-0.4,0.85-0.49,1.34-0.57
			c0.22-0.02,0.44-0.02,0.67,0c0.32,0.06,0.64,0.13,0.97,0.19c0.17,0.14,0.05,0.32,0.07,0.48c0,0.19-0.03,0.39,0,0.58
			c0.03,0.21-0.07,0.29-0.26,0.31c-0.04,0-0.07,0.01-0.11,0.02c-0.15,0.05-0.21-0.02-0.22-0.16c-0.02-0.14-0.03-0.29-0.05-0.43
			c-0.03-0.19-0.17-0.24-0.34-0.23c-0.22-0.03-0.43-0.03-0.65,0c-0.41,0.03-0.66,0.19-0.75,0.49c-0.04,0.11-0.03,0.22,0,0.33
			c0.03,0.26,0.24,0.36,0.42,0.46c0.41,0.22,0.82,0.42,1.23,0.64c0.49,0.26,0.83,0.63,0.9,1.2c0.02,0.1,0.02,0.21,0,0.31
			c-0.08,0.49-0.31,0.89-0.76,1.12c-0.32,0.17-0.67,0.25-1.03,0.27c-0.16,0.02-0.32,0.02-0.49,0c-0.48-0.01-0.93-0.12-1.38-0.28
			c-0.03-0.02-0.06-0.04-0.06-0.08C153.28,258.82,153.24,258.42,153.3,258.02z"/>
		<path class="st3" d="M150.34,254.76c-0.15-0.01-0.29,0.04-0.43,0.1c-0.48,0.24-0.52,0.78-0.07,1.08c0.41,0.28,0.87,0.46,1.3,0.69
			c0.31,0.17,0.6,0.35,0.78,0.66c0.48,0.81,0.1,1.91-0.99,2.18c-0.19,0.05-0.39,0.07-0.59,0.1c-0.18,0.02-0.35,0.02-0.53,0
			c-0.47-0.03-0.93-0.09-1.36-0.28c-0.06-0.03-0.04-0.09-0.04-0.14c0-0.33,0-0.66,0-1c0-0.09,0-0.18,0.12-0.2c0.01,0,0.01,0,0.02,0
			c0.38-0.03,0.38-0.03,0.45,0.33c0.08,0.43,0.12,0.47,0.56,0.51c0.07,0.01,0.13,0,0.2,0c0.16,0.03,0.32,0.03,0.47,0
			c0.44-0.01,0.73-0.22,0.84-0.61c0.09-0.31-0.09-0.6-0.46-0.81c-0.51-0.28-1.05-0.5-1.52-0.83c-0.3-0.21-0.47-0.5-0.52-0.87
			c-0.13-0.96,0.53-1.5,1.34-1.65c0.12-0.02,0.23-0.04,0.35-0.06c0.21-0.02,0.41-0.02,0.62,0c0.31,0.04,0.62,0.1,0.92,0.19
			c0.11,0.03,0.15,0.09,0.15,0.2c-0.01,0.26-0.01,0.52-0.01,0.77c0,0.34,0,0.34-0.35,0.41c-0.07,0.01-0.15,0.05-0.22-0.03
			c-0.03-0.23-0.04-0.46-0.1-0.68c-0.03-0.1-0.17-0.13-0.29-0.11C150.77,254.73,150.56,254.73,150.34,254.76z"/>
		<path class="st3" d="M193.72,255.35c0,0.1,0.01,0.2,0.01,0.3c0.03,0.04,0.05,0.04,0.08,0c0.33-0.89,0.89-1.51,1.88-1.65
			c0.09-0.02,0.18-0.03,0.27,0.01c0,0.14,0,0.29,0,0.43c-0.05,0.15,0.01,0.31-0.03,0.46c0,0.21-0.03,0.43,0,0.64
			c0.03,0.27-0.07,0.38-0.32,0.39c-0.19,0.07-0.26-0.02-0.26-0.19c-0.05-0.17-0.04-0.34-0.08-0.51c-0.06-0.21-0.11-0.25-0.31-0.14
			c-0.42,0.25-0.71,0.62-0.9,1.06c-0.12,0.28-0.23,0.57-0.23,0.89c-0.04,0.07,0,0.16-0.03,0.23c-0.04,0.47-0.01,0.95-0.02,1.42
			c0,0.1,0.04,0.13,0.14,0.15c0.34,0.04,0.69,0.09,1.03,0.13c0.12,0.01,0.15,0.06,0.14,0.17c-0.03,0.27-0.11,0.36-0.38,0.36
			c-0.86,0-1.72,0-2.58,0c-0.36,0-0.36,0-0.39-0.35c-0.02-0.08-0.05-0.17,0.07-0.22c0.28,0.02,0.54-0.06,0.81-0.11
			c0.11-0.02,0.16-0.07,0.16-0.19c-0.01-0.89-0.01-1.79-0.01-2.68c-0.04-0.17,0.02-0.34-0.03-0.5c0.01-0.12-0.01-0.24-0.04-0.36
			c-0.02-0.12-0.08-0.07-0.14-0.06c-0.08,0.04-0.16,0-0.24,0.03c-0.09,0-0.18-0.01-0.26,0c-0.21,0.03-0.32-0.05-0.31-0.26
			c-0.01-0.1-0.05-0.21,0.02-0.31c0.52-0.04,1-0.21,1.46-0.45c0.09-0.02,0.18-0.03,0.27,0.01c0.08,0.37,0.15,0.74,0.23,1.12
			C193.72,255.19,193.68,255.28,193.72,255.35z"/>
		<path class="st3" d="M162.79,271.69c0.21,0.08,0.43,0.11,0.66,0.1c0.07,0.04,0.16,0,0.23,0.03c0.41,0.07,0.41,0.07,0.31,0.5
			c-0.03,0.06-0.09,0.07-0.15,0.07c-1,0-2,0-3,0c-0.02,0-0.04-0.01-0.06-0.02c-0.03-0.11-0.07-0.22-0.08-0.33
			c-0.01-0.11,0-0.19,0.17-0.21c0.29-0.03,0.58-0.04,0.85-0.18c0.03-0.04,0.02-0.08,0.02-0.13c0-0.91,0-1.82,0-2.73
			c0-0.04,0.01-0.09-0.02-0.13c0-0.13-0.01-0.26-0.01-0.39c-0.04-0.1,0.01-0.22-0.03-0.32c-0.12-0.07-0.24-0.04-0.36-0.03
			c-0.18,0.02-0.35,0.02-0.53,0c-0.03-0.07-0.07-0.13-0.09-0.2c-0.05-0.3-0.02-0.33,0.3-0.39c0.39-0.07,0.76-0.21,1.12-0.38
			c0.27-0.13,0.34-0.1,0.4,0.19c0.07,0.34,0.13,0.69,0.19,1.04c0.03,0.07-0.01,0.16,0.03,0.23c-0.01,0.07-0.01,0.13,0.02,0.21
			c0.18-0.4,0.37-0.79,0.68-1.11c0.37-0.38,0.84-0.56,1.36-0.61c0.09-0.01,0.16-0.01,0.17,0.11c-0.05,0.15,0.01,0.31-0.03,0.46
			c-0.01,0.36-0.02,0.71-0.02,1.07c0,0.17-0.03,0.25-0.21,0.29c-0.28,0.06-0.4,0-0.4-0.29c0-0.17-0.06-0.33-0.08-0.48
			c-0.02-0.22-0.12-0.14-0.21-0.09c-0.45,0.23-0.76,0.6-0.96,1.06c-0.16,0.38-0.29,0.77-0.27,1.19
			C162.76,270.7,162.75,271.19,162.79,271.69z"/>
		<path class="st3" d="M173.84,266.98c0,1.52,0,3.04-0.01,4.56c0,0.11,0.04,0.15,0.14,0.17c0.19,0.03,0.37,0.09,0.57,0.08
			c0.07,0.04,0.16,0,0.24,0.03c0.13,0.02,0.09,0.11,0.08,0.18c-0.02,0.1-0.05,0.2-0.04,0.3c-0.03,0.1-0.11,0.08-0.18,0.08
			c-0.87,0-1.74,0-2.61,0c-0.07,0-0.15,0.02-0.19-0.07c-0.07-0.12-0.02-0.26-0.08-0.39c-0.04-0.1,0.07-0.08,0.13-0.1
			c0.07-0.03,0.16,0.01,0.23-0.03c0.2,0.01,0.39-0.06,0.59-0.09c0.11-0.01,0.12-0.09,0.12-0.18c0-1.15,0-2.29,0-3.44
			c0-0.23-0.17-0.11-0.27-0.12c-0.09,0.04-0.19-0.01-0.28,0.03c-0.01,0-0.03-0.01-0.04-0.01c-0.39,0-0.46-0.07-0.48-0.45
			c0-0.08,0.04-0.1,0.1-0.11c0.52-0.06,1-0.24,1.46-0.47C173.49,266.96,173.67,266.92,173.84,266.98z"/>
		<path class="st4" d="M172.49,265.59c-0.29-0.01-0.52-0.23-0.51-0.51c0-0.29,0.24-0.51,0.55-0.51c0.27,0,0.51,0.24,0.52,0.51
			C173.04,265.36,172.78,265.6,172.49,265.59z"/>
		<path class="st4" d="M173.97,265.59c-0.31-0.01-0.49-0.21-0.48-0.52c0.01-0.3,0.22-0.51,0.53-0.5c0.27,0.01,0.5,0.25,0.5,0.52
			C174.5,265.38,174.27,265.6,173.97,265.59z"/>
		<path class="st5" d="M160.78,272.36c0.77,0,1.54,0.01,2.31,0.01c0.22,0,0.44,0,0.67,0c0.08,0,0.17,0.02,0.23-0.05
			c-0.01,0.1-0.08,0.09-0.15,0.09c-0.98,0-1.96,0-2.94,0C160.86,272.41,160.81,272.4,160.78,272.36z"/>
		<path class="st5" d="M171.84,272.31c0.06,0.08,0.14,0.06,0.22,0.06c0.85,0,1.69,0,2.54,0c0.08,0,0.17,0.02,0.22-0.07
			c0,0.09-0.06,0.11-0.13,0.11c-0.91,0-1.82,0-2.73,0C171.89,272.41,171.84,272.39,171.84,272.31z"/>
		<path class="st5" d="M161.72,268.65c0.04,0.08,0.03,0.16,0.03,0.24c0,0.86,0,1.73,0,2.59c0,0.05,0.03,0.12-0.03,0.16
			C161.72,270.64,161.72,269.65,161.72,268.65z"/>
		<path class="st5" d="M176.61,268.65c0.04,0.08,0.03,0.16,0.03,0.24c0,0.86,0,1.73,0,2.59c0,0.05,0.03,0.12-0.03,0.16
			C176.61,270.65,176.61,269.65,176.61,268.65z"/>
		<path class="st5" d="M153.92,272.27c0.03,0.09,0.1,0.11,0.19,0.11c0.82,0,1.64,0,2.46,0c0.08,0,0.15,0,0.19-0.08
			c0,0.11-0.07,0.11-0.15,0.11c-0.85,0-1.7,0-2.55,0C153.96,272.41,153.91,272.38,153.92,272.27z"/>
		<path class="st5" d="M175.67,272.36c0.9,0,1.8,0.01,2.7,0.01c0.07,0,0.11-0.02,0.15-0.08c0,0.09-0.05,0.11-0.13,0.11
			c-0.87,0-1.75,0-2.62,0C175.73,272.41,175.7,272.38,175.67,272.36z"/>
		<path class="st5" d="M159.8,267.02c-0.85,0-1.69-0.01-2.54-0.01c0.03-0.01,0.07-0.03,0.1-0.03c0.76,0,1.53,0,2.29,0
			C159.71,266.97,159.77,266.97,159.8,267.02z"/>
		<path class="st5" d="M180.22,272.34c0.13,0.06,0.26,0.03,0.39,0.03c0.54-0.01,1.07,0.04,1.61-0.03c-0.03,0.07-0.09,0.06-0.15,0.06
			c-0.57,0-1.14,0-1.7,0C180.31,272.41,180.25,272.42,180.22,272.34z"/>
		<path class="st5" d="M177.68,271.69c-0.06-0.03-0.04-0.09-0.04-0.14c0.02-0.46-0.04-0.93,0.03-1.39
			C177.67,270.67,177.68,271.18,177.68,271.69z"/>
		<path class="st5" d="M143.41,251.92c-0.49,0.06-0.99,0.03-1.48,0.03c0.25-0.07,0.5-0.02,0.75-0.03
			C142.92,251.91,143.17,251.91,143.41,251.92z"/>
		<path class="st5" d="M162.79,271.69c-0.08-0.1-0.04-0.21-0.03-0.31c0.01-0.39-0.04-0.78,0.03-1.16
			C162.79,270.7,162.79,271.19,162.79,271.69z"/>
		<path class="st5" d="M148.53,257.97c-0.03,0.03-0.11,0.03-0.11,0.1c0.02,0.41-0.05,0.82,0.03,1.23c-0.04-0.02-0.06-0.04-0.06-0.08
			c0-0.38,0-0.75,0-1.13C148.39,257.99,148.44,257.97,148.53,257.97z"/>
		<path class="st5" d="M153.3,258.02c0,0.38-0.01,0.75-0.01,1.13c0,0.06,0,0.12,0.05,0.16c-0.06-0.01-0.09-0.04-0.09-0.1
			c0-0.37,0-0.75,0-1.12C153.25,258.06,153.28,258.04,153.3,258.02z"/>
		<path class="st5" d="M140.09,268.36c0,0.33,0,0.65,0,0.98C140.03,269.01,140.03,268.68,140.09,268.36z"/>
		<path class="st5" d="M159.16,272.4c0.24-0.06,0.49-0.02,0.73-0.03c0.08,0,0.17,0.02,0.22-0.07c0,0.13-0.1,0.1-0.17,0.1
			C159.68,272.41,159.42,272.41,159.16,272.4z"/>
		<path class="st5" d="M147.37,268.8c0-0.3,0-0.59,0-0.89C147.43,268.21,147.43,268.5,147.37,268.8z"/>
		<path class="st5" d="M170.2,270.4c0-0.27-0.02-0.54,0.03-0.82C170.22,269.86,170.27,270.13,170.2,270.4z"/>
		<path class="st5" d="M134.8,248.52c0-0.27,0-0.53,0-0.8C134.86,247.99,134.86,248.26,134.8,248.52z"/>
		<path class="st5" d="M152.99,269.51c0-0.27,0-0.53,0-0.8C153.05,268.98,153.05,269.24,152.99,269.51z"/>
		<path class="st5" d="M124.59,237.47c-0.25,0-0.5,0-0.75,0C124.08,237.41,124.33,237.41,124.59,237.47z"/>
		<path class="st5" d="M184.4,269.73c0.25-0.05,0.51-0.03,0.77-0.03C184.91,269.78,184.65,269.72,184.4,269.73z"/>
		<path class="st5" d="M149.8,269.73c0.25-0.05,0.51-0.03,0.77-0.03C150.32,269.78,150.06,269.72,149.8,269.73z"/>
		<path class="st5" d="M151.28,269.69c0.25-0.05,0.51-0.03,0.77-0.03C151.79,269.73,151.53,269.68,151.28,269.69z"/>
		<path class="st5" d="M185.91,269.69c0.24-0.05,0.48-0.03,0.73-0.03C186.39,269.73,186.15,269.68,185.91,269.69z"/>
		<path class="st5" d="M161.57,256.76c0.24-0.05,0.48-0.03,0.73-0.03C162.06,256.81,161.81,256.76,161.57,256.76z"/>
		<path class="st5" d="M160.1,256.81c0.24-0.05,0.48-0.03,0.73-0.03C160.59,256.85,160.34,256.8,160.1,256.81z"/>
		<path class="st5" d="M153.92,265.27c0.19,0.14,0.41,0.03,0.62,0.06c-0.18,0.08-0.36,0.03-0.55,0.03
			C153.94,265.36,153.92,265.32,153.92,265.27z"/>
		<path class="st5" d="M155.79,254c-0.22,0-0.44,0-0.67,0C155.35,253.94,155.57,253.94,155.79,254z"/>
		<path class="st5" d="M150.89,254c-0.21,0-0.41,0-0.62,0C150.47,253.94,150.68,253.94,150.89,254z"/>
		<path class="st5" d="M150.34,254.76c0.22-0.06,0.43-0.06,0.65,0C150.77,254.76,150.56,254.76,150.34,254.76z"/>
		<path class="st5" d="M188.64,254c-0.21,0-0.41,0-0.62,0C188.23,253.94,188.43,253.94,188.64,254z"/>
		<path class="st5" d="M160.91,254c-0.21,0-0.41,0-0.62,0C160.5,253.94,160.71,253.94,160.91,254z"/>
		<path class="st5" d="M155.2,254.76c0.22-0.06,0.43-0.06,0.65,0C155.64,254.76,155.42,254.76,155.2,254.76z"/>
		<path class="st5" d="M182.49,254c-0.21,0-0.41,0-0.62,0C182.08,253.94,182.28,253.94,182.49,254z"/>
		<path class="st5" d="M171.08,271.48c-0.19-0.05-0.38,0-0.58-0.02C170.69,271.42,170.89,271.38,171.08,271.48z"/>
		<path class="st5" d="M159.09,257.09c-0.06-0.28-0.06-0.28,0.27-0.27C159.22,256.87,159.03,256.85,159.09,257.09z"/>
		<path class="st5" d="M156.82,254.67c-0.04-0.16,0.06-0.34-0.07-0.48C156.96,254.32,156.85,254.51,156.82,254.67z"/>
		<path class="st5" d="M173.84,266.98c-0.17-0.06-0.35-0.01-0.53-0.03C173.49,266.92,173.67,266.88,173.84,266.98z"/>
		<path class="st5" d="M175.67,267.92c0.18,0,0.35,0,0.53,0C176.03,267.97,175.85,267.98,175.67,267.92z"/>
		<path class="st5" d="M160.78,267.92c0.18,0,0.35,0,0.53,0C161.14,267.98,160.96,267.98,160.78,267.92z"/>
		<path class="st5" d="M149.82,259.58c0.18,0,0.35,0,0.53,0C150.17,259.64,150,259.64,149.82,259.58z"/>
		<path class="st5" d="M192.7,255.42c0.05,0.16,0.04,0.33,0.03,0.5C192.66,255.76,192.71,255.59,192.7,255.42z"/>
		<path class="st5" d="M161.02,258.78c-0.17,0.05-0.34,0.05-0.51,0C160.68,258.78,160.85,258.78,161.02,258.78z"/>
		<path class="st5" d="M154.72,259.58c0.16,0,0.32,0,0.49,0C155.05,259.64,154.88,259.64,154.72,259.58z"/>
		<path class="st5" d="M168.09,254c-0.16,0-0.32,0-0.49,0C167.77,253.94,167.93,253.94,168.09,254z"/>
		<path class="st5" d="M170.33,271.48c-0.2,0.05-0.21,0.04-0.15-0.28C170.22,271.3,170.11,271.47,170.33,271.48z"/>
		<path class="st5" d="M155.13,258.82c-0.16,0.05-0.31,0.05-0.47,0C154.82,258.82,154.97,258.82,155.13,258.82z"/>
		<path class="st5" d="M150.23,258.82c-0.16,0.05-0.32,0.05-0.47,0C149.92,258.82,150.08,258.82,150.23,258.82z"/>
		<path class="st5" d="M164.94,267.46c0-0.15-0.02-0.31,0.03-0.46C164.96,267.16,165.01,267.31,164.94,267.46z"/>
		<path class="st5" d="M195.92,254.9c0-0.15-0.02-0.31,0.03-0.46C195.94,254.59,195.99,254.75,195.92,254.9z"/>
		<path class="st5" d="M195.33,255.73c0.01,0.16,0.1,0.23,0.26,0.19C195.35,256,195.33,255.99,195.33,255.73z"/>
		<path class="st5" d="M160.25,259.58c0.15,0,0.3,0,0.44,0C160.54,259.64,160.4,259.64,160.25,259.58z"/>
		<path class="st5" d="M181.65,259.58c0.13,0,0.27,0,0.4,0C181.91,259.64,181.78,259.64,181.65,259.58z"/>
		<path class="st5" d="M144.15,264.69c-0.13,0-0.27,0-0.4,0C143.89,264.63,144.02,264.63,144.15,264.69z"/>
		<path class="st5" d="M187.8,259.58c0.13,0,0.27,0,0.4,0C188.06,259.64,187.93,259.64,187.8,259.58z"/>
		<path class="st5" d="M166.03,270.94c0,0.13,0,0.27,0,0.4C165.98,271.21,165.98,271.07,166.03,270.94z"/>
		<path class="st5" d="M169.29,255.8c-0.04-0.14-0.03-0.27-0.03-0.41C169.33,255.52,169.28,255.66,169.29,255.8z"/>
		<path class="st5" d="M164.62,255.24c0.05,0.13,0.04,0.27,0.03,0.41C164.58,255.52,164.63,255.38,164.62,255.24z"/>
		<path class="st5" d="M134.76,249.5c0-0.12-0.01-0.25,0.03-0.37C134.78,249.26,134.83,249.39,134.76,249.5z"/>
		<path class="st5" d="M174.04,254.05c-0.12,0.05-0.24,0.04-0.37,0.03C173.78,254.01,173.91,254.06,174.04,254.05z"/>
		<path class="st5" d="M173.03,254.5c-0.03,0.16,0.11,0.13,0.19,0.17C173.13,254.65,172.93,254.75,173.03,254.5z"/>
		<path class="st5" d="M167.24,254.85c0.12-0.05,0.25-0.05,0.37,0C167.48,254.85,167.36,254.85,167.24,254.85z"/>
		<path class="st5" d="M148.38,269.65c0,0.12,0,0.24,0,0.35C148.32,269.88,148.33,269.77,148.38,269.65z"/>
		<path class="st5" d="M156.24,255.41c0.02,0.13,0.08,0.19,0.22,0.16C156.28,255.66,156.22,255.59,156.24,255.41z"/>
		<path class="st5" d="M154.45,255.58c-0.06-0.11-0.05-0.22,0-0.33C154.45,255.36,154.45,255.47,154.45,255.58z"/>
		<path class="st5" d="M144.17,251.87c-0.1,0.05-0.22,0.04-0.33,0.03C143.95,251.83,144.06,251.88,144.17,251.87z"/>
		<path class="st5" d="M165.42,254.05c-0.07-0.09-0.17-0.05-0.26-0.06C165.25,253.97,165.36,253.89,165.42,254.05z"/>
		<path class="st5" d="M161.68,267.94c0.05,0.1,0.04,0.21,0.03,0.32C161.64,268.16,161.69,268.05,161.68,267.94z"/>
		<path class="st5" d="M157,258.19c0-0.1,0-0.21,0-0.31C157.06,257.99,157.06,258.09,157,258.19z"/>
		<path class="st5" d="M191.73,254.45c-0.06,0.1-0.01,0.21-0.02,0.31C191.66,254.65,191.63,254.55,191.73,254.45z"/>
		<path class="st5" d="M104.57,236.93c-0.1,0-0.19,0.01-0.28-0.03C104.38,236.9,104.48,236.86,104.57,236.93z"/>
		<path class="st5" d="M134.71,250.08c0-0.1-0.01-0.19,0.03-0.28C134.74,249.9,134.78,250,134.71,250.08z"/>
		<path class="st5" d="M191.78,258.91c-0.1,0.05-0.05,0.14-0.07,0.22C191.66,259.04,191.61,258.94,191.78,258.91z"/>
		<path class="st5" d="M123.4,237.48c-0.09,0.04-0.19,0.04-0.28,0.03C123.21,237.44,123.31,237.48,123.4,237.48z"/>
		<path class="st5" d="M172.27,267.99c0.09-0.04,0.18-0.04,0.28-0.03C172.46,268.03,172.36,267.99,172.27,267.99z"/>
		<path class="st5" d="M176.57,267.94c0.05,0.09,0.04,0.19,0.03,0.28C176.53,268.13,176.57,268.03,176.57,267.94z"/>
		<path class="st5" d="M158.42,272.42c0.09,0,0.18,0,0.26,0C158.6,272.47,158.51,272.47,158.42,272.42z"/>
		<path class="st5" d="M177.63,268.48c-0.06-0.08-0.04-0.17-0.04-0.25C177.66,268.3,177.62,268.39,177.63,268.48z"/>
		<path class="st5" d="M193.46,254.01c-0.09,0-0.18,0-0.27-0.01C193.28,253.94,193.37,253.94,193.46,254.01z"/>
		<path class="st5" d="M195.95,254.01c-0.09,0-0.18,0-0.27-0.01C195.78,253.94,195.87,253.94,195.95,254.01z"/>
		<path class="st5" d="M165.69,257.35c-0.01-0.09-0.01-0.19,0.03-0.28C165.72,257.16,165.76,257.26,165.69,257.35z"/>
		<path class="st5" d="M171.12,272.01c0-0.09,0.01-0.18,0.01-0.27C171.19,271.83,171.19,271.92,171.12,272.01z"/>
		<path class="st5" d="M158.02,257.07c0.04,0.09,0.03,0.18,0.03,0.28C157.99,257.26,158.03,257.16,158.02,257.07z"/>
		<path class="st5" d="M187.45,271.69c0-0.09,0-0.18-0.01-0.26C187.5,271.52,187.5,271.6,187.45,271.69z"/>
		<path class="st5" d="M158.05,256.46c0,0.09,0.01,0.19-0.03,0.28C158.03,256.64,157.99,256.55,158.05,256.46z"/>
		<path class="st5" d="M168.23,255.68c0.05,0.09,0.04,0.19,0.03,0.28C168.19,255.88,168.24,255.78,168.23,255.68z"/>
		<path class="st5" d="M134.79,247.29c-0.04-0.09-0.04-0.19-0.03-0.28C134.83,247.1,134.78,247.2,134.79,247.29z"/>
		<path class="st5" d="M184.05,270.07c-0.05-0.08-0.04-0.16-0.03-0.24C184.08,269.9,184.04,269.98,184.05,270.07z"/>
		<path class="st5" d="M151.38,255.55c0.07,0.05,0.15,0.02,0.22,0.03C151.52,255.62,151.44,255.65,151.38,255.55z"/>
		<path class="st5" d="M165.73,255.52c0,0.05-0.02,0.1-0.06,0.1c-0.05-0.01-0.02-0.06-0.02-0.1
			C165.68,255.52,165.7,255.52,165.73,255.52z"/>
		<path class="st6" d="M193.81,255.65c0,0.05-0.01,0.11-0.05,0.1c-0.06,0-0.02-0.07-0.03-0.1
			C193.76,255.65,193.78,255.65,193.81,255.65z"/>
		<path class="st5" d="M185.6,256.46c0,0.08,0.01,0.16-0.03,0.24C185.57,256.61,185.54,256.53,185.6,256.46z"/>
		<path class="st5" d="M167.93,266.89c-0.07,0.04-0.15,0.04-0.24,0.03C167.76,266.86,167.85,266.89,167.93,266.89z"/>
		<path class="st5" d="M193.72,255.35c-0.04-0.07-0.04-0.15-0.03-0.23C193.75,255.19,193.72,255.27,193.72,255.35z"/>
		<path class="st5" d="M165.64,255.31c-0.04-0.07-0.04-0.15-0.03-0.23C165.67,255.15,165.63,255.23,165.64,255.31z"/>
		<path class="st5" d="M192.28,255.03c0.08-0.04,0.16-0.04,0.24-0.03C192.45,255.06,192.36,255.02,192.28,255.03z"/>
		<path class="st5" d="M193.78,257.26c-0.01-0.08-0.01-0.16,0.03-0.23C193.8,257.11,193.84,257.19,193.78,257.26z"/>
		<path class="st5" d="M164.2,255.03c0.07-0.04,0.16-0.04,0.24-0.03C164.36,255.06,164.28,255.02,164.2,255.03z"/>
		<path class="st5" d="M169.25,271.57c0.06,0.06,0.04,0.14,0.04,0.21C169.23,271.72,169.26,271.64,169.25,271.57z"/>
		<path class="st5" d="M187.57,269.6c0.02-0.08,0.03-0.16,0.05-0.24C187.61,269.44,187.65,269.53,187.57,269.6z"/>
		<path class="st5" d="M154.2,271.79c-0.07,0.05-0.15,0.04-0.23,0.03C154.03,271.76,154.12,271.79,154.2,271.79z"/>
		<path class="st5" d="M156.72,271.82c-0.08,0.01-0.16,0.01-0.24-0.03C156.57,271.79,156.65,271.76,156.72,271.82z"/>
		<path class="st5" d="M163.68,271.82c-0.08,0-0.16,0.01-0.23-0.03C163.53,271.79,163.61,271.76,163.68,271.82z"/>
		<path class="st5" d="M172.11,271.79c-0.07,0.04-0.15,0.04-0.23,0.03C171.95,271.76,172.04,271.79,172.11,271.79z"/>
		<path class="st5" d="M174.78,271.82c-0.08,0.01-0.16,0.01-0.24-0.03C174.62,271.79,174.71,271.76,174.78,271.82z"/>
		<path class="st5" d="M178.48,271.82c-0.08,0.01-0.16,0.01-0.23-0.03C178.32,271.79,178.41,271.76,178.48,271.82z"/>
		<path class="st5" d="M182.18,271.82c-0.08,0.01-0.16,0.01-0.23-0.03C182.03,271.79,182.11,271.76,182.18,271.82z"/>
		<path class="st5" d="M183.02,269.25c0,0.08,0.01,0.16-0.03,0.23C182.99,269.4,182.95,269.32,183.02,269.25z"/>
		<path class="st5" d="M166.67,268.85c0.07-0.01,0.15,0.02,0.22-0.03C166.82,268.93,166.75,268.9,166.67,268.85z"/>
		<path class="st5" d="M179.42,257.2c0.04,0.07,0.04,0.15,0.03,0.23C179.39,257.37,179.42,257.28,179.42,257.2z"/>
		<path class="st5" d="M185.57,257.2c0.04,0.08,0.04,0.16,0.03,0.24C185.54,257.36,185.57,257.28,185.57,257.2z"/>
		<path class="st5" d="M187.61,268.86c-0.04-0.07-0.04-0.15-0.03-0.23C187.64,268.69,187.61,268.78,187.61,268.86z"/>
		<path class="st5" d="M169.21,268.61c0.05,0.07,0.04,0.15,0.03,0.23C169.18,268.77,169.22,268.69,169.21,268.61z"/>
		<path class="st5" d="M162.74,268.41c-0.04-0.07-0.04-0.15-0.03-0.23C162.77,268.25,162.74,268.33,162.74,268.41z"/>
		<path class="st5" d="M150.35,272.46c0.08,0,0.16,0,0.23,0.03C150.51,272.49,150.42,272.53,150.35,272.46z"/>
		<path class="st5" d="M151.05,272.49c0.07-0.04,0.15-0.04,0.23-0.03C151.22,272.53,151.13,272.49,151.05,272.49z"/>
		<path class="st5" d="M185.64,272.49c0.07-0.04,0.15-0.04,0.23-0.03C185.81,272.53,185.72,272.49,185.64,272.49z"/>
		<path class="st5" d="M143,272.51c0.08,0,0.16-0.01,0.24,0.03C143.16,272.53,143.07,272.57,143,272.51z"/>
		<path class="st5" d="M143.78,272.54c0.07-0.04,0.16-0.03,0.24-0.03C143.95,272.57,143.86,272.54,143.78,272.54z"/>
		<path class="st5" d="M125.25,237.51c-0.08,0-0.16,0.01-0.24-0.03C125.1,237.48,125.18,237.45,125.25,237.51z"/>
		<path class="st5" d="M153.87,258.16c-0.05-0.07-0.03-0.16-0.05-0.23C153.91,257.99,153.86,258.08,153.87,258.16z"/>
		<path class="st5" d="M147.69,259.08c-0.01-0.06,0.01-0.14-0.07-0.17C147.76,258.92,147.74,259,147.69,259.08z"/>
		<path class="st5" d="M141.88,252.5c0.08,0,0.16-0.01,0.24,0.03C142.04,252.53,141.96,252.56,141.88,252.5z"/>
		<path class="st5" d="M105.02,236.98c-0.08,0-0.16,0.01-0.23-0.03C104.86,236.95,104.95,236.91,105.02,236.98z"/>
		<path class="st5" d="M157.31,267.56c0.08-0.01,0.16-0.01,0.23,0.03C157.46,267.59,157.38,267.62,157.31,267.56z"/>
		<path class="st5" d="M134.62,250.89c0-0.08-0.01-0.16,0.04-0.23C134.65,250.73,134.69,250.82,134.62,250.89z"/>
		<path class="st7" d="M114.08,267.89c-2.09-0.96-4.07-2.1-5.95-3.42c-2.48-1.75-4.71-3.76-6.51-6.22c-1.5-2.04-2.58-4.27-3.08-6.76
			c-0.28-1.36-0.43-2.74-0.23-4.11c0.41-2.79,1.89-4.87,4.41-6.14c4.21-2.12,9.32-0.14,11.07,4.24c0.03,0.07,0.06,0.14,0.09,0.2
			c0.09,0.3,0.17,0.59,0.26,0.89c0.05-0.04,0.05-0.09,0.07-0.14c0.95-3.26,3.09-5.28,6.42-5.9c4.21-0.78,8.33,2.11,9.14,6.32
			c0.21,1.08,0.17,2.16,0.06,3.24c-0.43,3.94-2.21,7.25-4.82,10.16c-2.22,2.48-4.84,4.46-7.72,6.11
			C116.25,266.94,115.16,267.41,114.08,267.89z"/>
		<path class="st7" d="M146.27,268.48c0,0.72-0.14,1.4-0.54,2.01c-0.55,0.84-1.32,1.27-2.33,1.18c-1.06-0.1-1.71-0.74-2.02-1.72
			c-0.34-1.08-0.28-2.14,0.29-3.14c0.74-1.3,2.41-1.68,3.55-0.83c0.67,0.5,0.94,1.22,1.03,2.02
			C146.27,268.17,146.27,268.32,146.27,268.48z"/>
		<path class="st7" d="M143.61,253.06c0.25,0.64,0.5,1.27,0.74,1.9c0.17,0.44,0.34,0.88,0.52,1.32c0.05,0.13,0.05,0.18-0.11,0.18
			c-0.79-0.01-1.59,0-2.38,0c-0.13,0-0.15-0.03-0.1-0.15c0.43-1.06,0.86-2.11,1.29-3.17C143.57,253.11,143.59,253.09,143.61,253.06z
			"/>
		<path class="st7" d="M169.22,270.04c-0.02,0.42-0.13,0.82-0.38,1.17c-0.27,0.37-0.63,0.56-1.09,0.54
			c-0.34-0.02-0.57-0.18-0.66-0.47c-0.1-0.32-0.01-0.64,0.24-0.84c0.15-0.12,0.32-0.19,0.49-0.25c0.37-0.14,0.76-0.23,1.15-0.34
			C169.24,269.77,169.24,269.77,169.22,270.04z"/>
		<path class="st7" d="M183.57,256.82c0.01,0.39-0.08,0.86-0.34,1.27c-0.3,0.49-0.74,0.77-1.33,0.75c-0.61-0.02-1.03-0.36-1.26-0.91
			c-0.32-0.79-0.31-1.58,0.07-2.34c0.33-0.66,0.99-0.98,1.66-0.82c0.68,0.17,0.98,0.69,1.14,1.32
			C183.56,256.3,183.57,256.52,183.57,256.82z"/>
		<path class="st7" d="M185.33,269.01c-0.38,0-0.76,0-1.13,0c-0.06,0-0.14,0.03-0.12-0.09c0.21-0.95,0.98-1.43,1.77-1.23
			c0.46,0.11,0.85,0.69,0.8,1.16c-0.01,0.12-0.09,0.08-0.14,0.08c-0.39,0-0.79,0-1.18,0C185.33,268.96,185.33,268.99,185.33,269.01z
			"/>
		<path class="st7" d="M189.73,256.64c-0.01,0.7-0.13,1.24-0.52,1.69c-0.65,0.76-1.82,0.68-2.3-0.19c-0.49-0.9-0.47-1.83,0.05-2.71
			c0.29-0.49,0.75-0.73,1.33-0.7c0.59,0.04,0.98,0.38,1.22,0.9C189.68,255.99,189.74,256.37,189.73,256.64z"/>
		<path class="st7" d="M149.48,268.98c0.09-0.88,0.89-1.49,1.73-1.3c0.48,0.11,0.88,0.66,0.84,1.15c-0.01,0.12-0.08,0.1-0.15,0.1
			c-0.53,0.02-1.05,0.04-1.58,0.05C150.04,268.99,149.76,268.98,149.48,268.98z"/>
		<path class="st7" d="M160.38,256.1c-0.37,0-0.74,0-1.11,0c-0.09,0-0.17,0-0.13-0.13c0.2-0.75,0.71-1.19,1.32-1.22
			c0.67-0.03,1.1,0.31,1.21,0.97c0.05,0.3,0.05,0.31-0.25,0.31c-0.35,0.01-0.7,0-1.05,0C160.38,256.06,160.38,256.08,160.38,256.1z"
			/>
	</g>
</g>
</svg>
