<svg width="48" height="48" viewBox="0 0 48 48" fill="none" xmlns="http://www.w3.org/2000/svg">
<g clip-path="url(#clip0_74_545)">
<path d="M2.00086 11.0021H4.23074C4.68201 12.9906 5.79572 14.7668 7.38916 16.0391C8.98259 17.3114 10.9611 18.0044 13.0002 18.0044C15.0393 18.0044 17.0179 17.3114 18.6113 16.0391C20.2048 14.7668 21.3185 12.9906 21.7697 11.0021H26.2295C26.6808 12.9906 27.7945 14.7668 29.3879 16.0391C30.9813 17.3114 32.9599 18.0044 34.999 18.0044C37.0381 18.0044 39.0166 17.3114 40.6101 16.0391C42.2035 14.7668 43.3172 12.9906 43.7685 11.0021H45.9984C46.5288 11.0021 47.0374 10.7914 47.4125 10.4164C47.7875 10.0413 47.9982 9.53263 47.9982 9.00222C47.9982 8.47182 47.7875 7.96314 47.4125 7.58809C47.0374 7.21304 46.5288 7.00234 45.9984 7.00234H43.7685C43.3172 5.01381 42.2035 3.23769 40.6101 1.96535C39.0166 0.693013 37.0381 0 34.999 0C32.9599 0 30.9813 0.693013 29.3879 1.96535C27.7945 3.23769 26.6808 5.01381 26.2295 7.00234H21.7697C21.3185 5.01381 20.2048 3.23769 18.6113 1.96535C17.0179 0.693013 15.0393 0 13.0002 0C10.9611 0 8.98259 0.693013 7.38916 1.96535C5.79572 3.23769 4.68201 5.01381 4.23074 7.00234H2.00086C1.47046 7.00234 0.961781 7.21304 0.58673 7.58809C0.211678 7.96314 0.000976563 8.47182 0.000976562 9.00222C0.000976563 9.53263 0.211678 10.0413 0.58673 10.4164C0.961781 10.7914 1.47046 11.0021 2.00086 11.0021V11.0021ZM30.4232 7.00234C30.9177 5.8884 31.8071 4.99703 32.92 4.50022C34.0329 4.0034 35.2903 3.93634 36.4497 4.31198C37.6091 4.68761 38.5883 5.47932 39.1984 6.53436C39.8085 7.58939 40.0063 8.833 39.7535 10.0252C39.5007 11.2175 38.8154 12.2739 37.8297 12.9906C36.844 13.7073 35.6278 14.0336 34.4157 13.9065C33.2036 13.7794 32.0815 13.2078 31.266 12.3022C30.4504 11.3966 29.9992 10.221 29.9993 9.00222C30.0014 8.31352 30.1458 7.63268 30.4232 7.00234V7.00234ZM8.4245 7.00234C8.91892 5.8884 9.80837 4.99703 10.9212 4.50022C12.0341 4.0034 13.2916 3.93634 14.451 4.31198C15.6104 4.68761 16.5896 5.47932 17.1997 6.53436C17.8098 7.58939 18.0075 8.833 17.7548 10.0252C17.502 11.2175 16.8167 12.2739 15.8309 12.9906C14.8452 13.7073 13.629 14.0336 12.4169 13.9065C11.2048 13.7794 10.0828 13.2078 9.26723 12.3022C8.45167 11.3966 8.00041 10.221 8.00052 9.00222C8.00268 8.31352 8.14702 7.63268 8.4245 7.00234V7.00234ZM46.9983 23.0014H17C16.735 23.0022 16.4812 23.1078 16.2938 23.2952C16.1065 23.4825 16.0009 23.7364 16.0001 24.0014V27.9911H30.9992C31.7972 27.9919 32.5623 28.3093 33.1266 28.8736C33.6909 29.4379 34.0082 30.203 34.009 31.001V48H47.9982V24.0014C47.9975 23.7364 47.8918 23.4825 47.7045 23.2952C47.5171 23.1078 47.2633 23.0022 46.9983 23.0014Z" fill="#011E41"/>
<path d="M29.9993 30.001H2.00086C1.47095 30.0026 0.963187 30.2138 0.588478 30.5885C0.213769 30.9632 0.0025592 31.4709 0.000976562 32.0009L0.000976563 47.93L0.0709726 48H31.9892L31.9992 47.99V32.0009C31.9976 31.4709 31.7864 30.9632 31.4117 30.5885C31.0369 30.2138 30.5292 30.0026 29.9993 30.001V30.001ZM25.4995 45.0001H6.50061C6.1028 45.0001 5.72129 44.8421 5.44001 44.5608C5.15872 44.2795 5.00069 43.898 5.00069 43.5002C5.00069 43.1024 5.15872 42.7209 5.44001 42.4396C5.72129 42.1583 6.1028 42.0003 6.50061 42.0003H25.4995C25.8973 42.0003 26.2788 42.1583 26.5601 42.4396C26.8414 42.7209 26.9994 43.1024 26.9994 43.5002C26.9994 43.898 26.8414 44.2795 26.5601 44.5608C26.2788 44.8421 25.8973 45.0001 25.4995 45.0001ZM25.4995 39.0005H6.50061C6.1028 39.0005 5.72129 38.8424 5.44001 38.5612C5.15872 38.2799 5.00069 37.8984 5.00069 37.5005C5.00069 37.1027 5.15872 36.7212 5.44001 36.4399C5.72129 36.1587 6.1028 36.0006 6.50061 36.0006H25.4995C25.8973 36.0006 26.2788 36.1587 26.5601 36.4399C26.8414 36.7212 26.9994 37.1027 26.9994 37.5005C26.9994 37.8984 26.8414 38.2799 26.5601 38.5612C26.2788 38.8424 25.8973 39.0005 25.4995 39.0005Z" fill="#011E41"/>
</g>
<defs>
<clipPath id="clip0_74_545">
<rect width="48" height="48" fill="white"/>
</clipPath>
</defs>
</svg>
