<svg width="48" height="48" viewBox="0 0 48 48" fill="none" xmlns="http://www.w3.org/2000/svg">
<g clip-path="url(#clip0_103_2906)">
<path d="M47.25 22.5H24.75C24.5511 22.5 24.3603 22.579 24.2197 22.7197C24.079 22.8603 24 23.0511 24 23.25C24 23.4489 24.079 23.6397 24.2197 23.7803C24.3603 23.921 24.5511 24 24.75 24H47.25C47.4489 24 47.6397 23.921 47.7803 23.7803C47.921 23.6397 48 23.4489 48 23.25C48 23.0511 47.921 22.8603 47.7803 22.7197C47.6397 22.579 47.4489 22.5 47.25 22.5ZM26.75 21.5H45.25C45.4489 21.5 45.6397 21.421 45.7803 21.2803C45.921 21.1397 46 20.9489 46 20.75C46 20.5511 45.921 20.3603 45.7803 20.2197C45.6397 20.079 45.4489 20 45.25 20H26.75C26.5511 20 26.3603 20.079 26.2197 20.2197C26.079 20.3603 26 20.5511 26 20.75C26 20.9489 26.079 21.1397 26.2197 21.2803C26.3603 21.421 26.5511 21.5 26.75 21.5ZM29 8.5H31V19H29V8.5ZM33 8.5H35V19H33V8.5ZM37 8.5H39V19H37V8.5ZM41 8.5H43V19H41V8.5ZM28 7.5H44C44.2652 7.5 44.5196 7.39464 44.7071 7.20711C44.8946 7.01957 45 6.76522 45 6.5C45 6.23478 44.8946 5.98043 44.7071 5.79289C44.5196 5.60536 44.2652 5.5 44 5.5H36.5V4H41V1H36.5V0.75C36.5 0.551088 36.421 0.360322 36.2803 0.21967C36.1397 0.0790176 35.9489 0 35.75 0C35.5511 0 35.3603 0.0790176 35.2197 0.21967C35.079 0.360322 35 0.551088 35 0.75V5.5H28C27.7348 5.5 27.4804 5.60536 27.2929 5.79289C27.1054 5.98043 27 6.23478 27 6.5C27 6.76522 27.1054 7.01957 27.2929 7.20711C27.4804 7.39464 27.7348 7.5 28 7.5Z" fill="#011E41"/>
</g>
<path d="M14.0458 31.0191V31.0191C13.9228 30.6456 13.6565 30.3362 13.3055 30.159C12.9544 29.9818 12.5474 29.9514 12.1739 30.0744C11.8003 30.1973 11.491 30.4636 11.3138 30.8147C11.1366 31.1657 11.1062 31.5728 11.2291 31.9463V31.9463C11.3521 32.3198 11.6184 32.6292 11.9695 32.8064C12.3205 32.9835 12.7276 33.014 13.1011 32.891C13.4746 32.7681 13.784 32.5018 13.9611 32.1507C14.1383 31.7997 14.1688 31.3926 14.0458 31.0191Z" fill="#011E41"/>
<path d="M12.8954 35.2936C13.0547 35.7518 13.0255 36.2545 12.8143 36.6912L11.4585 39.3931L10.8044 40.6543C11.8042 41.4196 12.4985 42.5162 12.7624 43.7473C13.0263 44.9784 12.8426 46.2632 12.2443 47.3711C12.1498 47.5531 11.9868 47.6902 11.7912 47.7521C11.5956 47.814 11.3834 47.7956 11.2014 47.7011C11.0193 47.6065 10.8822 47.4435 10.8204 47.2479C10.7585 47.0524 10.7768 46.8402 10.8714 46.6581C11.3346 45.7628 11.4301 44.7221 11.1375 43.7575C10.8449 42.7929 10.1875 41.9806 9.30498 41.4934L7.91506 40.7981L4.46302 47.3661C4.41686 47.4566 4.35333 47.5371 4.27605 47.6031C4.19877 47.669 4.10925 47.7191 4.01262 47.7505C3.91598 47.7819 3.81411 47.7939 3.71282 47.7859C3.61154 47.7779 3.51282 47.75 3.42231 47.7038C3.3318 47.6577 3.25127 47.5941 3.18531 47.5169C3.11936 47.4396 3.06927 47.3501 3.0379 47.2534C3.00654 47.1568 2.99452 47.0549 3.00253 46.9536C3.01054 46.8524 3.03841 46.7536 3.08457 46.6631L10.0001 33.421C10.2783 33.487 10.5523 33.5775 10.8192 33.6937C10.8767 33.7072 10.9324 33.7273 10.9854 33.7534L11.9648 34.2477C12.4014 34.4591 12.7361 34.8354 12.8954 35.2936Z" fill="#011E41"/>
<path d="M9.32008 37.123L10.7409 34.7678L10.0311 33.4103L7.00628 33.3428C6.55387 33.4109 6.11128 33.5923 5.73473 33.8637C5.35817 34.1352 5.06463 34.4846 4.8914 34.8675C4.77245 35.1258 4.71188 35.3933 4.71338 35.6537C4.71487 35.9141 4.77839 36.1621 4.90009 36.3825L5.4147 37.3292C5.53351 37.5511 5.70825 37.7415 5.92834 37.8887C6.14843 38.0358 6.40928 38.1368 6.69511 38.1855C7.11703 38.2601 7.57796 38.2186 8.01934 38.0664C8.46073 37.9142 8.79316 37.6645 9.32008 37.123Z" fill="#011E41"/>
<path d="M36.3536 25.6464C36.1583 25.4512 35.8417 25.4512 35.6464 25.6464L32.4645 28.8284C32.2692 29.0237 32.2692 29.3403 32.4645 29.5355C32.6597 29.7308 32.9763 29.7308 33.1716 29.5355L36 26.7071L38.8284 29.5355C39.0237 29.7308 39.3403 29.7308 39.5355 29.5355C39.7308 29.3403 39.7308 29.0237 39.5355 28.8284L36.3536 25.6464ZM36.5 30L36.5 26L35.5 26L35.5 30L36.5 30Z" fill="#011E41"/>
<path d="M14.5 47C14.5 47 23.2486 45.5401 26.5 44C36 39.5 36 31 36 31" stroke="#011E41" stroke-dasharray="2 2"/>
<defs>
<clipPath id="clip0_103_2906">
<rect width="24" height="24" fill="white" transform="translate(24)"/>
</clipPath>
</defs>
</svg>
