<svg width="48" height="48" viewBox="0 0 48 48" fill="none" xmlns="http://www.w3.org/2000/svg">
<g clip-path="url(#clip0_1626_5786)">
<path d="M21.5417 30.2502H0.458333C0.205203 30.2502 0 30.4554 0 30.7086V32.5419C0 32.795 0.205203 33.0002 0.458333 33.0002H21.5417C21.7948 33.0002 22 32.795 22 32.5419V30.7086C22 30.4554 21.7948 30.2502 21.5417 30.2502Z" fill="#011E41"/>
<path d="M2.49179 19.0472L2.4927 19.049L2.49912 19.0531C2.56155 19.1145 2.63514 19.1633 2.71591 19.197C2.72187 19.1993 2.72829 19.2003 2.73425 19.2025C2.81026 19.2322 2.891 19.2479 2.97258 19.2488L2.97945 19.2502L2.98541 19.2493C3.06763 19.2483 3.14898 19.2324 3.22558 19.2025C3.23108 19.2003 3.23704 19.1993 3.24254 19.1975C3.32465 19.1633 3.39936 19.1135 3.46254 19.0508L3.46575 19.049L3.46712 19.0472L5.75741 16.7569C5.82127 16.6931 5.87194 16.6173 5.90651 16.5339C5.94108 16.4504 5.95889 16.361 5.95891 16.2708C5.95893 16.1805 5.94117 16.091 5.90663 16.0076C5.8721 15.9242 5.82147 15.8484 5.75764 15.7845C5.69381 15.7207 5.61803 15.67 5.53462 15.6354C5.45121 15.6009 5.3618 15.5831 5.27151 15.583C5.08916 15.583 4.91426 15.6554 4.78529 15.7843L3.6665 16.9031V11.6873C3.6665 11.5049 3.59406 11.3301 3.46513 11.2011C3.3362 11.0722 3.16133 10.9998 2.979 10.9998C2.79666 10.9998 2.62179 11.0722 2.49286 11.2011C2.36393 11.3301 2.2915 11.5049 2.2915 11.6873V16.9031L1.17316 15.7848C1.04356 15.6595 0.869927 15.5901 0.689665 15.5916C0.509403 15.593 0.336935 15.6653 0.209406 15.7927C0.0818772 15.9201 0.0094922 16.0925 0.00784137 16.2727C0.00619053 16.453 0.0754059 16.6267 0.20058 16.7564L2.49179 19.0472ZM5.65154 20.9323L4.58362 28.8752H12.8336V24.4248C12.8346 24.3949 12.8452 24.3661 12.864 24.3428C12.8828 24.3195 12.9087 24.303 12.9377 24.2957C12.9667 24.2885 12.9973 24.2909 13.0249 24.3026C13.0524 24.3143 13.0754 24.3347 13.0903 24.3606L15.5836 28.8752H21.542L20.474 20.9323C20.4624 20.8409 20.4324 20.7528 20.3859 20.6733C20.3395 20.5938 20.2775 20.5244 20.2036 20.4694L13.5211 15.281C13.3894 15.1808 13.2284 15.1265 13.0628 15.1265C12.8972 15.1265 12.7362 15.1808 12.6045 15.281L5.92195 20.4694C5.8481 20.5244 5.78609 20.5938 5.73963 20.6733C5.69317 20.7528 5.66321 20.8409 5.65154 20.9323V20.9323Z" fill="#011E41"/>
</g>
<path d="M46.625 18.6667H27.375C27.0107 18.6678 26.6616 18.8131 26.4039 19.0707C26.1463 19.3283 26.0011 19.6774 26 20.0417V31.9584C26.0011 32.3228 26.1463 32.6719 26.4039 32.9295C26.6616 33.1871 27.0107 33.3323 27.375 33.3334H46.625C46.9893 33.3323 47.3384 33.1871 47.5961 32.9295C47.8537 32.6719 47.9989 32.3228 48 31.9584V20.0417C47.9989 19.6774 47.8537 19.3283 47.5961 19.0707C47.3384 18.8131 46.9893 18.6678 46.625 18.6667V18.6667ZM29.8775 21.1692C30.2531 20.7913 30.7482 20.5554 31.2783 20.5018C31.8084 20.4481 32.3408 20.58 32.7845 20.875C33.2282 21.17 33.5558 21.6099 33.7114 22.1194C33.8671 22.629 33.8411 23.1768 33.638 23.6694C33.4348 24.162 33.0671 24.5688 32.5974 24.8205C32.1278 25.0723 31.5854 25.1532 31.0627 25.0497C30.5401 24.9461 30.0695 24.6644 29.7313 24.2527C29.3932 23.8409 29.2083 23.3246 29.2083 22.7917C29.2084 22.1838 29.4489 21.6005 29.8775 21.1692ZM35.1667 30.5834H27.8333V30.1251C27.8333 29.1526 28.2196 28.22 28.9073 27.5324C29.5949 26.8447 30.5275 26.4584 31.5 26.4584C32.4725 26.4584 33.4051 26.8447 34.0927 27.5324C34.7804 28.22 35.1667 29.1526 35.1667 30.1251V30.5834ZM44.5717 29.6667H37.6829C37.5006 29.6667 37.3257 29.5943 37.1968 29.4654C37.0678 29.3365 36.9954 29.1616 36.9954 28.9792C36.9954 28.7969 37.0678 28.622 37.1968 28.4931C37.3257 28.3642 37.5006 28.2917 37.6829 28.2917H44.5717C44.754 28.2917 44.9289 28.3642 45.0578 28.4931C45.1867 28.622 45.2592 28.7969 45.2592 28.9792C45.2592 29.1616 45.1867 29.3365 45.0578 29.4654C44.9289 29.5943 44.754 29.6667 44.5717 29.6667ZM44.5717 26.9167H37.6829C37.5006 26.9167 37.3257 26.8443 37.1968 26.7154C37.0678 26.5865 36.9954 26.4116 36.9954 26.2292C36.9954 26.0469 37.0678 25.872 37.1968 25.7431C37.3257 25.6142 37.5006 25.5417 37.6829 25.5417H44.5717C44.754 25.5417 44.9289 25.6142 45.0578 25.7431C45.1867 25.872 45.2592 26.0469 45.2592 26.2292C45.2592 26.4116 45.1867 26.5865 45.0578 26.7154C44.9289 26.8443 44.754 26.9167 44.5717 26.9167ZM44.5717 24.1667H37.6829C37.5006 24.1667 37.3257 24.0943 37.1968 23.9654C37.0678 23.8365 36.9954 23.6616 36.9954 23.4792C36.9954 23.2969 37.0678 23.122 37.1968 22.9931C37.3257 22.8642 37.5006 22.7917 37.6829 22.7917H44.5717C44.754 22.7917 44.9289 22.8642 45.0578 22.9931C45.1867 23.122 45.2592 23.2969 45.2592 23.4792C45.2592 23.6616 45.1867 23.8365 45.0578 23.9654C44.9289 24.0943 44.754 24.1667 44.5717 24.1667Z" fill="#011E41"/>
<defs>
<clipPath id="clip0_1626_5786">
<rect width="22" height="22" fill="white" transform="translate(0 11)"/>
</clipPath>
</defs>
</svg>
