<svg width="48" height="48" viewBox="0 0 48 48" fill="none" xmlns="http://www.w3.org/2000/svg">
<path d="M24 9C24.7956 9 25.5587 8.68393 26.1213 8.12132C26.6839 7.55871 27 6.79565 27 6V3C27 2.20435 26.6839 1.44129 26.1213 0.87868C25.5587 0.31607 24.7956 0 24 0C23.2044 0 22.4413 0.31607 21.8787 0.87868C21.3161 1.44129 21 2.20435 21 3V6C21 6.79565 21.3161 7.55871 21.8787 8.12132C22.4413 8.68393 23.2044 9 24 9ZM45.5 43H35.04L44.49 37.6C45.1673 37.1986 45.6594 36.5469 45.8601 35.7856C46.0608 35.0243 45.9538 34.2146 45.5624 33.5316C45.1709 32.8485 44.5264 32.3469 43.7681 32.1352C43.0098 31.9234 42.1987 32.0185 41.51 32.4L32.32 37.65L47.61 10.47C47.9999 9.77779 48.0988 8.95905 47.885 8.1939C47.6712 7.42875 47.1622 6.77987 46.47 6.39C45.7778 6.00013 44.959 5.90121 44.1939 6.115C43.4287 6.3288 42.7799 6.83779 42.39 7.53L27 34.89V20C27 19.2044 26.6839 18.4413 26.1213 17.8787C25.5587 17.3161 24.7956 17 24 17C23.2044 17 22.4413 17.3161 21.8787 17.8787C21.3161 18.4413 21 19.2044 21 20V35.59L11.5 21.34C11.0573 20.6828 10.3725 20.2273 9.59524 20.0731C8.81796 19.9188 8.01121 20.0783 7.35104 20.5166C6.69087 20.955 6.23088 21.6366 6.07145 22.4129C5.91201 23.1891 6.06606 23.9969 6.5 24.66L14.66 36.9L10.54 34.43C9.85839 34.0216 9.04245 33.9006 8.27168 34.0938C7.50091 34.287 6.83843 34.7784 6.43 35.46C6.02157 36.1416 5.90063 36.9575 6.09379 37.7283C6.28695 38.4991 6.77839 39.1616 7.46 39.57L13.18 43H2.5C1.83696 43 1.20107 43.2634 0.732233 43.7322C0.263392 44.2011 0 44.837 0 45.5C0 46.163 0.263392 46.7989 0.732233 47.2678C1.20107 47.7366 1.83696 48 2.5 48H45.5C46.163 48 46.7989 47.7366 47.2678 47.2678C47.7366 46.7989 48 46.163 48 45.5C48 44.837 47.7366 44.2011 47.2678 43.7322C46.7989 43.2634 46.163 43 45.5 43V43ZM23.24 43H17C16.9974 42.2844 17.1053 41.5727 17.32 40.89C17.6136 39.9743 18.0916 39.1284 18.7245 38.4043C19.3574 37.6803 20.1318 37.0935 21 36.68C21.1808 36.5798 21.3719 36.4993 21.57 36.44C22.3459 36.1445 23.1698 35.9953 24 36C24.7409 35.9975 25.4772 36.1157 26.18 36.35C26.4613 36.4391 26.7354 36.5495 27 36.68C27.8404 37.0739 28.5931 37.6328 29.2132 38.3234C29.8334 39.014 30.3084 39.8222 30.61 40.7C30.868 41.4394 30.9999 42.2169 31 43H23.24V43Z" fill="#011E41"/>
</svg>
