<svg width="48" height="48" viewBox="0 0 48 48" fill="none" xmlns="http://www.w3.org/2000/svg">
<path d="M9.26371 29.9916C9.26389 31.7715 9.79179 33.5113 10.7807 34.9911C11.7696 36.471 13.175 37.6244 14.8194 38.3056C16.4637 38.9867 18.2731 39.165 20.0187 38.8179C21.7644 38.4709 23.368 37.614 24.6267 36.3556L35.9407 25.0426C37.6287 23.3548 38.577 21.0656 38.5771 18.6785C38.5772 16.2914 37.629 14.0021 35.9412 12.3141C35.1055 11.4783 34.1133 10.8153 33.0213 10.363C31.9294 9.91063 30.759 9.67778 29.5771 9.67773C27.19 9.67764 24.9007 10.6258 23.2127 12.3136L11.8987 23.6276C11.0606 24.4615 10.3962 25.4534 9.94386 26.5457C9.49156 27.6381 9.26039 28.8093 9.26371 29.9916ZM22.4997 19.0006C22.9942 19.0006 23.4775 19.1473 23.8886 19.422C24.2998 19.6967 24.6202 20.0871 24.8094 20.5439C24.9986 21.0007 25.0481 21.5034 24.9517 21.9884C24.8552 22.4733 24.6171 22.9188 24.2675 23.2684C23.9178 23.618 23.4724 23.8561 22.9874 23.9526C22.5025 24.0491 21.9998 23.9996 21.543 23.8103C21.0862 23.6211 20.6957 23.3007 20.421 22.8896C20.1463 22.4784 19.9997 21.9951 19.9997 21.5006C19.9997 20.8376 20.2631 20.2017 20.7319 19.7329C21.2008 19.264 21.8367 19.0006 22.4997 19.0006ZM18.9997 27.0006C19.7908 27.0006 20.5642 27.2352 21.222 27.6748C21.8798 28.1143 22.3925 28.739 22.6952 29.4699C22.998 30.2008 23.0772 31.0051 22.9228 31.781C22.7685 32.5569 22.3875 33.2697 21.8281 33.8291C21.2687 34.3885 20.556 34.7694 19.7801 34.9238C19.0041 35.0781 18.1999 34.9989 17.469 34.6962C16.7381 34.3934 16.1134 33.8807 15.6738 33.2229C15.2343 32.5651 14.9997 31.7918 14.9997 31.0006C14.9997 29.9398 15.4211 28.9224 16.1713 28.1722C16.9214 27.4221 17.9388 27.0006 18.9997 27.0006V27.0006Z" fill="#011E41"/>
<path d="M46.0016 16.0005L43.3116 15.9975C43.2142 15.5045 43.0904 15.0172 42.9407 14.5375C42.9077 14.4305 42.8657 14.3275 42.8307 14.2215C42.7007 13.8315 42.5537 13.4466 42.3887 13.0676C42.3497 12.9796 42.3077 12.8926 42.2667 12.8046C42.078 12.3959 41.8687 11.9953 41.6387 11.6026L41.5527 11.4576C41.2829 11.0082 40.9878 10.5745 40.6687 10.1587L42.4127 8.41471C42.777 8.03752 42.9786 7.53233 42.974 7.00796C42.9695 6.48358 42.7591 5.98197 42.3883 5.61116C42.0175 5.24036 41.5159 5.03003 40.9915 5.02547C40.4671 5.02091 39.962 5.2225 39.5848 5.5868L37.8018 7.36975C36.0826 6.11521 34.0984 5.27193 32.002 4.90482H31.999V2.00091C31.999 1.4705 31.7883 0.961806 31.4132 0.586745C31.0382 0.211684 30.5295 0.000976563 29.9991 0.000976562C29.4686 0.000976563 28.96 0.211684 28.5849 0.586745C28.2098 0.961806 27.9991 1.4705 27.9991 2.00091V4.78283H27.9951C27.1439 4.87724 26.3031 5.04928 25.4832 5.29681C25.4682 5.30181 25.4532 5.30881 25.4392 5.31281C25.0432 5.43481 24.6512 5.5698 24.2652 5.7278C23.8619 5.89113 23.4653 6.07445 23.0753 6.27778L20.3844 3.58686C20.0072 3.22256 19.502 3.02098 18.9776 3.02553C18.4532 3.03009 17.9516 3.24042 17.5808 3.61123C17.21 3.98203 16.9997 4.48364 16.9951 5.00802C16.9906 5.53239 17.1921 6.03758 17.5565 6.41478L19.8044 8.66371C19.7634 8.7037 19.7174 8.7377 19.6764 8.7787L16.1415 12.3136L12.4136 8.58671C12.0364 8.2224 11.5312 8.02082 11.0069 8.02538C10.4825 8.02993 9.98087 8.24027 9.61006 8.61107C9.23926 8.98188 9.02893 9.48348 9.02437 10.0079C9.01981 10.5322 9.2214 11.0374 9.5857 11.4146L13.3136 15.1425L9.14171 19.3134L6.4138 16.5865C6.03661 16.2222 5.53142 16.0206 5.00704 16.0251C4.48266 16.0297 3.98105 16.24 3.61025 16.6108C3.23945 16.9816 3.02911 17.4832 3.02456 18.0076C3.02 18.532 3.22158 19.0372 3.58589 19.4144L6.5298 22.3583L6.5148 22.3843C5.60411 23.7949 4.95635 25.3587 4.60286 27.0001H1.99994C1.46952 27.0001 0.960829 27.2108 0.585768 27.5859C0.210707 27.961 0 28.4697 0 29.0001C0 29.5305 0.210707 30.0392 0.585768 30.4142C0.960829 30.7893 1.46952 31 1.99994 31H4.31786C4.34505 31.3604 4.38608 31.7197 4.44086 32.077C4.57444 32.9718 4.79447 33.8515 5.09784 34.7039L5.12584 34.7819C5.571 36.0071 6.18671 37.1635 6.95478 38.2168L5.58483 39.5857C5.39914 39.7716 5.25188 39.9921 5.15144 40.2349C5.05099 40.4776 4.99935 40.7377 4.99944 41.0004C4.99953 41.2631 5.05136 41.5232 5.15198 41.7658C5.25259 42.0085 5.40001 42.229 5.58583 42.4147C5.77164 42.6003 5.99221 42.7476 6.23494 42.848C6.47766 42.9485 6.7378 43.0001 7.00049 43C7.26318 42.9999 7.52328 42.9481 7.76593 42.8475C8.00859 42.7469 8.22905 42.5995 8.41474 42.4137L9.7447 41.0837C10.2528 41.4745 10.7874 41.8297 11.3446 42.1467C11.3746 42.1637 11.4056 42.1837 11.4366 42.2007C11.7836 42.3929 12.1386 42.5704 12.5006 42.7326C12.7286 42.8356 12.9566 42.9396 13.1896 43.0296C13.5009 43.1516 13.8156 43.2616 14.1336 43.3596C14.3036 43.4116 14.4735 43.4536 14.6455 43.4996C15.0269 43.6029 15.4126 43.6897 15.8015 43.7596C16.0955 43.8123 16.3905 43.8549 16.6865 43.8876C16.7815 43.8976 16.8745 43.9146 16.9695 43.9236V45.9995C16.9695 46.53 17.1802 47.0386 17.5552 47.4137C17.9303 47.7888 18.439 47.9995 18.9694 47.9995C19.4998 47.9995 20.0085 47.7888 20.3836 47.4137C20.7586 47.0386 20.9693 46.53 20.9693 45.9995V43.7216L21.0073 43.7116C22.7487 43.3669 24.4081 42.6925 25.8962 41.7247L28.5851 44.4146C28.9604 44.7896 29.4692 45.0002 29.9998 45C30.5303 44.9998 31.039 44.7889 31.414 44.4136C31.789 44.0383 31.9996 43.5295 31.9994 42.9989C31.9992 42.4684 31.7883 41.9597 31.413 41.5847L28.9401 39.1128L33.112 34.9409L36.5849 38.4138C36.962 38.7781 37.4672 38.9797 37.9916 38.9751C38.516 38.9706 39.0176 38.7602 39.3884 38.3894C39.7592 38.0186 39.9695 37.517 39.9741 36.9926C39.9787 36.4682 39.7771 35.9631 39.4128 35.5859L35.9399 32.113L39.4758 28.5771C39.5158 28.5371 39.5508 28.4911 39.5908 28.4501L41.5967 30.456C41.9739 30.8203 42.4791 31.0219 43.0035 31.0174C43.5278 31.0128 44.0294 30.8025 44.4003 30.4317C44.7711 30.0609 44.9814 29.5592 44.9859 29.0349C44.9905 28.5105 44.7889 28.0053 44.4246 27.6281L41.9757 25.1782C42.6083 23.969 43.0601 22.6736 43.3166 21.3333L43.3176 21.3263C43.4016 20.8863 43.4646 20.4437 43.5066 19.9984L45.9966 20.0004H45.9986C46.2612 20.0005 46.5213 19.949 46.764 19.8487C47.0067 19.7484 47.2273 19.6012 47.4132 19.4156C47.599 19.2301 47.7465 19.0097 47.8472 18.7671C47.9479 18.5246 47.9998 18.2645 48 18.0019C48.0002 17.7393 47.9487 17.4792 47.8483 17.2365C47.748 16.9937 47.6009 16.7732 47.4153 16.5873C47.2297 16.4015 47.0094 16.254 46.7668 16.1533C46.5242 16.0526 46.2642 16.0007 46.0016 16.0005V16.0005ZM21.7983 10.9006C21.8383 10.8586 21.8843 10.8246 21.9263 10.7846C22.9041 9.83423 24.0512 9.07519 25.3082 8.54671L25.3342 8.53471C26.1884 8.18145 27.0838 7.93752 27.9991 7.80873C28.3304 7.76073 28.6634 7.72807 28.9981 7.71074H29.0041C29.3347 7.6934 29.6661 7.69107 29.9981 7.70374H30.0161C30.3447 7.71707 30.673 7.74473 31.001 7.78673L31.017 7.78973C31.3464 7.8324 31.6737 7.89006 31.999 7.96273C32.6392 8.10613 33.2656 8.30556 33.8709 8.55871C33.9109 8.57571 33.9509 8.59671 33.9909 8.61471C34.2549 8.7287 34.5159 8.8497 34.7709 8.9857C34.8729 9.04069 34.9709 9.10469 35.0709 9.16269C35.2679 9.27569 35.4669 9.38668 35.6579 9.51268C35.9579 9.71201 36.2492 9.927 36.5319 10.1577C36.8181 10.3911 37.0924 10.6387 37.3538 10.8996C37.5798 11.1256 37.7868 11.3626 37.9888 11.6026C38.1775 11.8306 38.3561 12.0639 38.5248 12.3026C38.7255 12.5839 38.9111 12.8719 39.0818 13.1666L39.0898 13.1796C39.2584 13.4709 39.4124 13.7682 39.5518 14.0715L39.5618 14.0955C39.7004 14.3982 39.8248 14.7052 39.9348 15.0165L39.9408 15.0365C40.0514 15.3512 40.1471 15.6702 40.2277 15.9935C40.3907 16.6441 40.4944 17.3081 40.5377 17.9774V17.9974C40.5587 18.3244 40.5657 18.6524 40.5567 18.9804L40.5547 19.0124C40.5447 19.3394 40.5227 19.6664 40.4837 19.9924V19.9944C40.4251 20.4695 40.3363 20.9405 40.2177 21.4043L40.1877 21.5243C40.0635 22.0005 39.9068 22.4675 39.7188 22.9223C39.1901 24.1874 38.4283 25.3417 37.4728 26.3252C37.4318 26.3682 37.3968 26.4152 37.3538 26.4561L29.5111 34.2989L26.8192 36.9908L26.0402 37.7698C25.7075 38.0998 25.353 38.4072 24.9792 38.6898C24.9272 38.7298 24.8742 38.7668 24.8222 38.8058C24.4656 39.0704 24.094 39.3141 23.7093 39.5357L23.7063 39.5367C22.8482 40.0253 21.9278 40.3953 20.9703 40.6367C20.5561 40.7401 20.1364 40.8209 19.7134 40.8787C19.6654 40.8847 19.6184 40.8937 19.5704 40.8987C19.137 40.955 18.7005 40.984 18.2634 40.9857C17.8312 40.9829 17.3995 40.9548 16.9705 40.9017H16.9685C16.5376 40.8499 16.1102 40.7724 15.6885 40.6697C15.6535 40.6616 15.6185 40.6533 15.5835 40.6447C14.2557 40.3128 13.002 39.7345 11.8876 38.9398C11.6496 38.7704 11.4166 38.5924 11.1887 38.4058C10.9487 38.2028 10.7117 37.9958 10.4847 37.7698C9.96707 37.2517 9.50245 36.6832 9.09772 36.0729C8.86117 35.7136 8.64614 35.3406 8.45374 34.9559C8.40874 34.8659 8.36974 34.7729 8.32674 34.6819C8.18935 34.3909 8.0649 34.0939 7.95375 33.7919C7.91242 33.6799 7.87309 33.5669 7.83576 33.4529C7.73376 33.1443 7.64609 32.8326 7.57276 32.518C7.55176 32.428 7.52576 32.339 7.50677 32.249C7.13723 30.5109 7.19903 28.7088 7.68676 27.0001C7.92915 26.1432 8.27537 25.3191 8.71773 24.5462C8.93976 24.1608 9.18382 23.7885 9.44871 23.4312C9.4887 23.3792 9.5237 23.3272 9.5637 23.2752C9.84665 22.9011 10.1543 22.5463 10.4847 22.2133L11.2626 21.4353L15.4345 17.2634L18.2624 14.4355L21.7983 10.9006Z" fill="#011E41"/>
</svg>
