<svg width="48" height="48" viewBox="0 0 48 48" fill="none" xmlns="http://www.w3.org/2000/svg">
<path fill-rule="evenodd" clip-rule="evenodd" d="M7 15C7 13.8954 7.89543 13 9 13H39C40.1046 13 41 13.8954 41 15V16.8999H7V15ZM7 20.1499H41V33.1C41 34.2046 40.1046 35.1 39 35.1H9C7.89543 35.1 7 34.2046 7 33.1V20.1499ZM34.5 27.3C33.3954 27.3 32.5 28.1954 32.5 29.3V29.85C32.5 30.9545 33.3954 31.85 34.5 31.85H37.5833C38.6879 31.85 39.5833 30.9545 39.5833 29.85V29.3C39.5833 28.1954 38.6879 27.3 37.5833 27.3H34.5Z" fill="#011E41"/>
</svg>
