<svg xmlns="http://www.w3.org/2000/svg" xml:space="preserve" viewBox="0 0 765 284">
  <path fill="#fff" d="M-1-1h767v286H-1z"/>
  <path fill="#E42313" d="M283 94h-94V1H96v93H2v93h94v94h93v-94h94z"/>
  <path fill="#646363" d="M516 43c16 0 27 11 27 31 0 19-11 30-27 30s-27-11-27-30c0-20 11-31 27-31m0 76c25 0 44-19 44-45 0-28-19-46-44-46s-44 19-44 46 19 45 44 45m102-15c-16 0-26-11-26-30 0-20 10-31 26-31 15 0 27 11 27 31 0 19-12 30-27 30m26 11c0 1 1 2 3 2h11c2 0 3-1 3-2V3c0-2-1-3-3-3h-11c-2 0-3 1-3 3v39c-5-8-14-14-28-14-24 0-41 19-41 46s17 45 41 45c14 0 23-6 28-15v11zm15 47h-13l-2 2v13c0 2 1 3 2 3h13c2 0 3-1 3-3v-13c0-1-1-2-3-2m-1 31h-11c-2 0-3 1-3 3v82c0 2 1 3 3 3h11c2 0 3-1 3-3v-82c0-2-1-3-3-3M441 37c0 13-9 21-25 21h-23V17h23c16 0 25 7 25 20m-62 80h11c2 0 3 0 3-2V73h19l30 42 4 2h14c2 0 3-2 1-3l-31-44c18-4 28-16 28-33 0-25-20-37-41-37h-38c-2 0-3 1-3 3v112c0 2 1 2 3 2m238 76h-11c-2 0-3 1-3 3v47c0 14-8 24-22 24-13 0-22-8-22-24v-47c0-2 0-3-2-3h-11c-2 0-3 1-3 3v50c0 22 14 37 35 37 12 0 21-6 26-14v9c0 2 0 3 2 3h11c2 0 3-1 3-3v-82c-1-2-1-3-3-3m79-126c2-17 13-24 24-24 12 0 22 9 23 24h-47zm24-39c-23 0-41 18-41 46 0 27 18 45 43 45 15 0 28-7 34-16 2-1 1-2 0-3l-6-7h-4c-3 3-10 11-24 11-11 0-23-6-26-23h61c3 0 3-2 3-6 0-29-16-47-40-47m0 202c-10-3-20-6-20-14 0-6 6-10 17-10 10 1 17 4 22 7 2 1 3 0 4-1l4-9c1-2 0-3-1-4-8-4-20-7-30-7-19 0-32 9-32 25 0 18 16 23 30 27 12 3 19 6 19 13 0 6-4 11-18 11-11 0-17-3-27-9-1 0-3 0-3 2l-5 8 1 3c3 3 18 11 35 11 20 0 34-10 34-27 0-18-16-22-30-26m-303-14 45-48c1-2 1-4-2-4h-13l-4 2-50 53v-52c0-2-1-3-3-3h-12c-1 0-2 1-2 3v111c0 2 1 3 2 3h12c2 0 3-1 3-3v-38l12-13 40 52 4 2h13c3 0 3-2 2-4l-47-61zm77 31c0-23 13-37 32-37 1 0 2-1 2-3v-13l-2-2c-15 0-27 8-32 22v-18c0-2-1-3-3-3h-11c-1 0-2 1-2 3v82c0 2 1 3 2 3h12c1 0 2-1 2-3v-31z"/>
</svg>
