<svg width="50" height="48" viewBox="0 0 50 48" fill="none" xmlns="http://www.w3.org/2000/svg">
<path d="M9.61538 38.674C14.3735 38.674 18.2308 34.8168 18.2308 30.0586C18.2308 25.3005 14.3735 21.4432 9.61538 21.4432C4.85724 21.4432 1 25.3005 1 30.0586C1 34.8168 4.85724 38.674 9.61538 38.674Z" stroke="#011E41" stroke-width="2"/>
<path d="M40.3846 38.5135C45.1428 38.5135 49 34.6562 49 29.8981C49 25.14 45.1428 21.2827 40.3846 21.2827C35.6265 21.2827 31.7692 25.14 31.7692 29.8981C31.7692 34.6562 35.6265 38.5135 40.3846 38.5135Z" stroke="#011E41" stroke-width="2"/>
<path fill-rule="evenodd" clip-rule="evenodd" d="M21.0927 9C13.9989 9.06914 15.2019 8.26711 11.3854 20.5327C8.2762 30.3329 8.61486 29.2642 8.5986 29.9516C8.58721 30.4856 9.01831 30.9091 9.56004 30.9453C10.6867 30.8314 10.2128 31.0672 14.1187 18.9379C28.391 33.9937 23.0364 31.5522 30.7172 31.858C40.8117 31.7612 41.6322 32.3835 41.7521 30.9038C41.7382 30.4014 41.5031 30.1018 34.5752 14.6834L35.239 12.8581L37.5206 12.8166L37.4377 10.9083H28.9333C28.182 11.9362 29.2375 11.9316 33.0403 12.7751L32.3765 14.6419L15.4094 14.6834C16.5525 10.6916 15.9072 10.9406 21.0513 10.9498L21.0927 9ZM14.9191 16.7294L31.5218 16.7L26.7235 29.5936L14.9191 16.7294ZM33.5236 17.4948L28.8136 29.8585L39.1167 29.8879L33.5236 17.4948Z" fill="#011E41"/>
</svg>
