<svg width="48" height="48" viewBox="0 0 48 48" fill="none" xmlns="http://www.w3.org/2000/svg">
<path fill-rule="evenodd" clip-rule="evenodd" d="M12 48C9.79086 48 8 46.2091 8 44V4C8 1.79086 9.79086 0 12 0H36C38.2091 0 40 1.79086 40 4V44C40 46.2091 38.2091 48 36 48H12ZM17 27C17 28.6569 15.6569 30 14 30C12.3431 30 11 28.6569 11 27C11 25.3431 12.3431 24 14 24C15.6569 24 17 25.3431 17 27ZM14 9C15.6569 9 17 7.65685 17 6C17 4.34315 15.6569 3 14 3C12.3431 3 11 4.34315 11 6C11 7.65685 12.3431 9 14 9ZM17 13C17 14.6569 15.6569 16 14 16C12.3431 16 11 14.6569 11 13C11 11.3431 12.3431 10 14 10C15.6569 10 17 11.3431 17 13ZM14 23C15.6569 23 17 21.6569 17 20C17 18.3431 15.6569 17 14 17C12.3431 17 11 18.3431 11 20C11 21.6569 12.3431 23 14 23ZM17 34C17 35.6569 15.6569 37 14 37C12.3431 37 11 35.6569 11 34C11 32.3431 12.3431 31 14 31C15.6569 31 17 32.3431 17 34ZM14 44C15.6569 44 17 42.6569 17 41C17 39.3431 15.6569 38 14 38C12.3431 38 11 39.3431 11 41C11 42.6569 12.3431 44 14 44ZM37 6C37 7.65685 35.6569 9 34 9C32.3431 9 31 7.65685 31 6C31 4.34315 32.3431 3 34 3C35.6569 3 37 4.34315 37 6ZM34 16C35.6569 16 37 14.6569 37 13C37 11.3431 35.6569 10 34 10C32.3431 10 31 11.3431 31 13C31 14.6569 32.3431 16 34 16ZM37 20C37 21.6569 35.6569 23 34 23C32.3431 23 31 21.6569 31 20C31 18.3431 32.3431 17 34 17C35.6569 17 37 18.3431 37 20ZM34 30C35.6569 30 37 28.6569 37 27C37 25.3431 35.6569 24 34 24C32.3431 24 31 25.3431 31 27C31 28.6569 32.3431 30 34 30ZM37 34C37 35.6569 35.6569 37 34 37C32.3431 37 31 35.6569 31 34C31 32.3431 32.3431 31 34 31C35.6569 31 37 32.3431 37 34ZM34 44C35.6569 44 37 42.6569 37 41C37 39.3431 35.6569 38 34 38C32.3431 38 31 39.3431 31 41C31 42.6569 32.3431 44 34 44ZM23 5C23 4.44772 23.4477 4 24 4C24.5523 4 25 4.44772 25 5V32C25 32.5523 24.5523 33 24 33C23.4477 33 23 32.5523 23 32V5ZM24 44C25.6569 44 27 42.6569 27 41C27 39.3431 25.6569 38 24 38C22.3431 38 21 39.3431 21 41C21 42.6569 22.3431 44 24 44Z" fill="#011E41"/>
</svg>
