<svg width="48" height="48" viewBox="0 0 48 48" fill="none" xmlns="http://www.w3.org/2000/svg">
<path d="M34.999 8H12.999C12.4467 8 11.999 8.44772 11.999 9V39C11.999 39.5523 12.4467 40 12.999 40H34.999C35.5513 40 35.999 39.5523 35.999 39V9C35.999 8.44772 35.5513 8 34.999 8Z" fill="#011E41"/>
<path d="M35.999 3V1.5C35.999 1.10218 35.841 0.720644 35.5597 0.43934C35.2784 0.158035 34.8968 0 34.499 0C34.1012 0 33.7197 0.158035 33.4384 0.43934C33.1571 0.720644 32.999 1.10218 32.999 1.5V3H28.999V1.5C28.999 1.10218 28.841 0.720644 28.5597 0.43934C28.2784 0.158035 27.8968 0 27.499 0C27.1012 0 26.7197 0.158035 26.4384 0.43934C26.1571 0.720644 25.999 1.10218 25.999 1.5V3H21.999V1.5C21.999 1.10218 21.841 0.720644 21.5597 0.43934C21.2784 0.158035 20.8968 0 20.499 0C20.1012 0 19.7197 0.158035 19.4384 0.43934C19.1571 0.720644 18.999 1.10218 18.999 1.5V3H14.999V1.5C14.999 1.10218 14.841 0.720644 14.5597 0.43934C14.2784 0.158035 13.8968 0 13.499 0C13.1012 0 12.7197 0.158035 12.4384 0.43934C12.1571 0.720644 11.999 1.10218 11.999 1.5V3.5L12 3.514V5C12 5.26522 12.1054 5.51957 12.2929 5.70711C12.4805 5.89464 12.7348 6 13 6H35C35.2652 6 35.5196 5.89464 35.7071 5.70711C35.8947 5.51957 36 5.26522 36 5V3H35.999ZM35.999 43C35.999 42.7348 35.8937 42.4804 35.7061 42.2929C35.5186 42.1054 35.2642 42 34.999 42H12.999C12.7338 42 12.4795 42.1054 12.2919 42.2929C12.1044 42.4804 11.999 42.7348 11.999 43V45H12V46.5C12 46.8978 12.1581 47.2794 12.4394 47.5607C12.7207 47.842 13.1022 48 13.5 48C13.8978 48 14.2794 47.842 14.5607 47.5607C14.842 47.2794 15 46.8978 15 46.5V45H19V46.5C19 46.8978 19.1581 47.2794 19.4394 47.5607C19.7207 47.842 20.1022 48 20.5 48C20.8978 48 21.2794 47.842 21.5607 47.5607C21.842 47.2794 22 46.8978 22 46.5V45H26V46.5C26 46.8978 26.1581 47.2794 26.4394 47.5607C26.7207 47.842 27.1022 48 27.5 48C27.8978 48 28.2794 47.842 28.5607 47.5607C28.842 47.2794 29 46.8978 29 46.5V45H33V46.5C33 46.8978 33.1581 47.2794 33.4394 47.5607C33.7207 47.842 34.1022 48 34.5 48C34.8978 48 35.2794 47.842 35.5607 47.5607C35.842 47.2794 36 46.8978 36 46.5V44.5L35.999 44.486V43Z" fill="#011E41"/>
</svg>
