<?xml version="1.0" encoding="utf-8"?>
<!-- Generator: Adobe Illustrator 25.2.1, SVG Export Plug-In . SVG Version: 6.00 Build 0)  -->
<svg version="1.1" id="Layer_1" xmlns="http://www.w3.org/2000/svg" xmlns:xlink="http://www.w3.org/1999/xlink" x="0px" y="0px"
	 viewBox="0 0 560 288" style="enable-background:new 0 0 560 288;" xml:space="preserve">
<style type="text/css">
	.st0{fill:#FEFEFE;}
	.st1{fill:#010101;}
	.st2{fill:#040404;}
	.st3{fill:#030303;}
	.st4{fill:#1C1C1C;}
	.st5{fill:#0A0A0A;}
	.st6{fill:#060606;}
	.st7{fill:#181818;}
	.st8{fill:#F0F0F0;}
	.st9{fill:#090909;}
	.st10{fill:#080808;}
	.st11{fill:#F4F4F4;}
	.st12{fill:#050505;}
	.st13{fill:#121212;}
	.st14{fill:#F6F6F6;}
	.st15{fill:#8D8D8D;}
	.st16{fill:#111111;}
	.st17{fill:#FAFAFA;}
	.st18{fill:#101010;}
	.st19{fill:#161616;}
	.st20{fill:#0C0C0C;}
	.st21{fill:#535353;}
	.st22{fill:#DCDCDC;}
	.st23{fill:#151515;}
	.st24{fill:#0B0B0B;}
	.st25{fill:#2E2E2E;}
	.st26{fill:#FBFBFB;}
	.st27{fill:#F8F8F8;}
	.st28{fill:#1B1B1B;}
	.st29{fill:#0E0E0E;}
	.st30{fill:#373737;}
	.st31{fill:#F9F9F9;}
	.st32{fill:#F1F1F1;}
	.st33{fill:#363636;}
	.st34{fill:#1E1E1E;}
	.st35{fill:#0F0F0F;}
	.st36{fill:#F3F3F3;}
	.st37{fill:#3A3A3A;}
	.st38{fill:#222222;}
	.st39{fill:#575757;}
	.st40{fill:#1F1F1F;}
	.st41{fill:#515151;}
	.st42{fill:#3E3E3E;}
	.st43{fill:#262626;}
	.st44{fill:#393939;}
	.st45{fill:#BABABA;}
	.st46{fill:#3B3B3B;}
	.st47{fill:#F7F7F7;}
	.st48{fill:#303030;}
	.st49{fill:#353535;}
	.st50{fill:#0D0D0D;}
	.st51{fill:#252525;}
	.st52{fill:#F5F5F5;}
	.st53{fill:#FDFDFD;}
	.st54{fill:#EEEEEE;}
	.st55{fill:#E6E6E6;}
	.st56{fill:#EAEAEA;}
	.st57{fill:#808080;}
	.st58{fill:#383838;}
	.st59{fill:#282828;}
	.st60{fill:#1D1D1D;}
	.st61{fill:#2D2D2D;}
	.st62{fill:#212121;}
	.st63{fill:#E9E9E9;}
	.st64{fill:#E2E2E2;}
	.st65{fill:#2F2F2F;}
	.st66{fill:#484848;}
	.st67{fill:#333333;}
	.st68{fill:#6A6A6A;}
	.st69{fill:#DEDEDE;}
	.st70{fill:#191919;}
	.st71{fill:#F2F2F2;}
	.st72{fill:#FCFCFC;}
	.st73{fill:#4D4D4D;}
	.st74{fill:#E8E8E8;}
	.st75{fill:#6F6F6F;}
	.st76{fill:#6D6D6D;}
	.st77{fill:#E5E5E5;}
	.st78{fill:#3C3C3C;}
	.st79{fill:#676767;}
	.st80{fill:#505050;}
	.st81{fill:#5B5B5B;}
	.st82{fill:#818181;}
	.st83{fill:#838383;}
	.st84{fill:#626262;}
	.st85{fill:#565656;}
	.st86{fill:#323232;}
	.st87{fill:#424242;}
	.st88{fill:#7A7A7A;}
	.st89{fill:#5C5C5C;}
	.st90{fill:#242424;}
	.st91{fill:#6E6E6E;}
	.st92{fill:#777777;}
	.st93{fill:#757575;}
	.st94{fill:#2C2C2C;}
	.st95{fill:#5A5A5A;}
</style>
<g>
	<path class="st0" d="M217.48,200.6c0-37.5,0-75-0.02-112.5c0-0.65,0.18-0.71,0.75-0.71c37.24,0.02,74.48,0.02,111.72,0
		c0.59,0,0.74,0.09,0.74,0.72c-0.02,37.25-0.02,74.49,0.01,111.74c0,0.86-0.37,0.76-0.93,0.76
		C292.34,200.6,254.92,200.6,217.48,200.6z"/>
	<path class="st1" d="M270.88,165.3c-0.38-5.01-0.75-10.01-1.13-15.02c-0.07-0.95-0.16-1.9-0.23-2.85c-0.43-0.9-0.39-1.87-0.41-2.83
		c0-0.71,0-1.42,0-2.12c0-0.04,0.01-0.08,0-0.12c0,0.1,0,0.2,0,0.3c0,8.14,0,16.28,0,24.42c0,0.5,0.1,1.03-0.23,1.49
		c-0.99,0.72-2.08,0.92-3.22,0.48c-0.52-0.2-0.96-0.15-1.47,0c-1.15,0.35-2.31,0.37-3.45-0.03c-0.06-0.39,0.2-0.53,0.5-0.65
		c0.36-0.09,0.72-0.07,1.09-0.08c1.81-0.03,1.84-0.06,1.86-1.83c0-0.18,0-0.36-0.01-0.54c-0.02-0.45-0.12-0.89-0.11-1.35
		c0.14-2.28,0.05-4.56,0.06-6.84c0.02-6.58-0.02-13.16,0.02-19.74c0.02-0.19,0.03-0.39,0.03-0.58c0.01-0.42-0.07-0.84-0.06-1.27
		c0.09-0.8,0.07-1.6,0.06-2.41c-0.05-0.36,0-0.68,0.29-0.93c0.01-2.46,0.03-4.91,0-7.37c-0.01-0.74,0.15-1.01,0.94-0.76
		c0.88,0.28,1.81,0.34,2.7,0.01c0.85-0.32,1,0.07,0.99,0.82c-0.03,2.2,0.02,4.4-0.03,6.6c-0.02,0.76,0.22,1.01,0.97,1.07
		c1.33,0.09,2.63-0.08,3.92-0.35c0.67,0.76-0.24,0.69-0.5,0.96c-0.76,0.35-1.58,0.26-2.38,0.27c-1.4,0.02-1.41,0.03-1.42,1.42
		c0,0.22,0.01,0.44-0.01,0.66c-0.05,0.52,0.08,1.01,0.19,1.5c0.37,5.67,0.85,11.32,1.19,16.99c0.18,3.03,0.5,6.06,0.63,9.1
		c0.02,0.51,0.05,1.03-0.22,1.5C271.27,165.42,271.09,165.44,270.88,165.3z"/>
	<path class="st2" d="M273.52,133.49c0.12-0.24,0.77-0.14,0.43-0.67c0.74-0.51,0.85-0.04,0.9,0.57c0.21,2.82,0.44,5.64,0.64,8.46
		c0.39,5.46,0.77,10.92,1.15,16.38c0.25,0.71-0.11,1.48,0.21,2.19c0.07,0.01,0.14,0.02,0.21,0.03c0.28,0.88-0.14,1.76,0,2.63
		c0,0.07,0,0.14,0,0.21c0.01-0.04,0-0.08,0-0.12c0-0.25,0-0.5,0-0.76c0.25-5.43,0.07-10.87,0.11-16.3c0.03-5.43,0.01-10.87,0-16.3
		c0-0.74,0.07-1.28,1.01-0.95c0.4,0.08,0.8,0.15,1.19,0.23c0.5-0.15,1.01-0.07,1.52-0.08c0.15,0.03,0.21,0.12,0.21,0.26
		c-0.11,0.25-0.32,0.37-0.57,0.47c-0.24,0.08-0.5,0.11-0.75,0.11c-1.84-0.02-1.75-0.01-1.74,1.84c0,0.22,0.01,0.44,0,0.65
		c0,0.13,0,0.25,0,0.38c0.02,0.33,0.01,0.67,0.01,1c0.08,4.55,0.03,9.1,0.03,13.66c0.01,5.65,0.02,11.31-0.01,16.96
		c0,0.2-0.04,0.4-0.04,0.6c0,0.19,0.01,0.38,0,0.57c-0.01,0.24-0.01,0.47,0,0.71c0.01,0.37-0.01,0.73,0.01,1.1
		c0.03,0.52,0.31,0.8,0.8,0.91c0.58,0.12,1.17,0.11,1.75,0.04c0.7-0.08,1.04-0.46,1.02-1.18c-0.01-0.33-0.01-0.66,0.02-0.99
		c0.02-0.16,0.06-0.32,0.14-0.46c0.25-0.27,0.48-0.3,0.65,0.07c0.12,0.26,0.18,0.54,0.35,0.77c0.09,0.13,0.15,0.28,0.17,0.43
		c0.01,0.1,0,0.21-0.01,0.31c-0.16,0.74,0.17,1.05,0.89,1.15c0.76,0.11,1.49,0.12,2.26,0.02c0.84-0.11,1.14-0.51,1.05-1.3
		c0-0.17,0-0.34,0-0.51c-0.01-0.31,0-0.62,0.02-0.92c0.01-0.2,0.06-0.4,0.11-0.59c0.15-2.13,0.05-4.26,0.06-6.38
		c0.02-4-0.01-8,0.03-12c0-0.47-0.33-1.29,0.71-1.23c0.02,6.83,0.03,13.67,0.05,20.5c0,0.62-0.08,1.26,0.02,1.87
		c0.15,0.99-0.36,1.33-1.19,1.43c-0.76,0.09-1.53,0.15-2.3,0.23c-0.45-0.21-0.96,0.04-1.41-0.17c-0.14-0.02-0.28-0.04-0.43-0.06
		c-1.11,0.03-2.21,0.32-3.32,0.08c-0.7-0.11-1.43-0.13-2.02-0.62c-0.18-0.52-1.04,0-1.09-0.72c-0.1-0.56-0.06-1.13-0.06-1.7
		c0.03-0.5,0.13-1.01-0.16-1.48c-0.42-3.24-0.44-6.5-0.76-9.75c-0.46-4.78-0.58-9.58-1.06-14.35c-0.11-1.09,0.1-2.21-0.42-3.24
		c-0.2-0.45,0.16-0.92-0.05-1.37C274.07,135.18,274.07,134.3,273.52,133.49z"/>
	<path class="st3" d="M261.18,114.56c4.39-5.17,5.68-11.36,5.84-17.9c0.02-0.9,0.21-1.14,1.13-1.12c3.96,0.06,7.93,0.04,11.89,0.01
		c0.62,0,0.84,0.08,0.86,0.81c0.11,5.29,0.87,10.44,3.6,15.12c0.06,0.11,0.03,0.28,0.04,0.42c-0.11,0.16-0.01,0.41-0.23,0.51
		c-2.2-3.39-3.18-7.19-3.74-11.13c-0.2-1.42-0.27-2.85-0.29-4.28c-0.01-0.63-0.22-0.78-0.83-0.78c-3.63,0.03-7.27,0.04-10.9-0.01
		c-0.79-0.01-0.88,0.3-0.89,0.94c-0.09,3.83-0.65,7.59-2.05,11.18c-1.03,2.64-2.38,5.09-4.46,7.07
		C260.79,115.2,260.79,115.2,261.18,114.56z"/>
	<path class="st4" d="M292.86,148.51c0,7.61,0,15.21-0.01,22.82c0,0.39,0.27,1.09-0.32,1.1c-0.62,0.01-0.33-0.7-0.33-1.07
		c-0.02-15.21-0.01-30.43-0.01-45.64c0-0.18,0-0.37,0-0.55c-0.01-0.27-0.02-0.54,0.37-0.51c0.32,0.02,0.3,0.26,0.3,0.48
		c0,0.59,0.01,1.18,0.01,1.76C292.86,134.11,292.86,141.31,292.86,148.51z"/>
	<path d="M255.7,148.64c0,7.53,0,15.07,0,22.6c0,0.26,0,0.51,0,0.77c0,0.22-0.01,0.48-0.32,0.45c-0.27-0.02-0.33-0.23-0.31-0.48
		c0.01-0.26,0-0.51,0-0.77c0-15.18,0-30.35-0.01-45.53c0-0.22,0-0.44,0.01-0.66c0-0.22,0.13-0.33,0.34-0.33
		c0.23,0,0.3,0.16,0.29,0.36c0,0.22,0.01,0.44,0.01,0.66c0,7.64,0,15.29,0,22.93C255.7,148.64,255.7,148.64,255.7,148.64z"/>
	<path class="st5" d="M281.02,129.33c0-0.06-0.01-0.12-0.01-0.18c0.08-0.22,0.33-0.1,0.45-0.24c0.35-0.14,0.67-0.17,0.88,0.22
		c0.23,0.75,0.09,1.52,0.1,2.28c0.02,2.85,0,5.71,0.02,8.56c0,0.34-0.16,0.73,0.16,1.03l-0.04-0.03c0.43,0.34,0.98,0.02,1.43,0.25
		c0.18-0.1,0.36-0.08,0.54,0.01c0.37,0.19,0.74,0.2,1.11-0.01c0.1,0,0.21,0,0.31,0c0.39-0.19,0.84,0.01,1.23-0.18
		c0.7-0.34,0.88,0.08,0.9,0.65c0.02,0.58-0.02,1.17-0.03,1.75c-0.84,0.21-0.66-0.48-0.69-0.86c-0.05-0.59-0.22-0.91-0.87-0.69
		c-0.23,0.05-0.46,0.08-0.69,0.08c-0.59,0-1.19,0-1.78,0c-0.22,0-0.45-0.03-0.66-0.08c-0.86-0.01-0.95,0.18-0.61,1.35
		c0.06,0.09,0.11,0.19,0.14,0.29c0.02,0.11,0.02,0.23,0,0.34c-0.03,0.54-0.05,1.09,0,1.63c0.02,6.52,0.04,13.04,0,19.56
		c-0.02,0.21-0.02,0.41-0.03,0.62c0,0.35-0.06,0.68-0.33,0.93c-0.4-0.26-0.07-0.89-0.56-1.11c-0.05-0.03-0.11-0.06-0.16-0.09
		c-0.12-0.16-0.17-0.34-0.19-0.53c-0.02-0.2-0.05-0.39-0.06-0.59c-0.04-9.38-0.01-18.75-0.02-28.13c0-0.74,0.02-1.47-0.12-2.2
		c-0.21-0.47,0.21-0.91,0.09-1.38c-0.01-0.11,0-0.22,0.01-0.33c0.1-0.79,0.1-1.57,0.02-2.36
		C281.51,129.6,281.17,129.55,281.02,129.33z"/>
	<path class="st6" d="M264.46,132.81c-0.09,0.25-0.12,0.49,0.01,0.73c-0.63,0.69-1.46,0.49-2.24,0.5c-1.36,0-1.36-0.02-1.43,1.28
		c-0.01,0.22-0.02,0.43-0.1,0.64c-0.48,0.46-0.08,0.92,0.01,1.39c0.02,0.06,0.03,0.12,0.04,0.18c0.03,0.13,0.04,0.25,0.05,0.38
		c0.09,8.22,0.01,16.44,0.04,24.65c0,0.62-0.06,1.25,0.18,1.85c0.07,0.1,0.12,0.21,0.17,0.31c0.04,0.1,0.06,0.21,0.04,0.32
		c-0.25,0.29-0.52,0.58-0.56,0.99c-0.04,0.1-0.1,0.17-0.19,0.24c-0.31,0.12-0.49-0.04-0.62-0.3c-0.02-1.61-0.05-3.23-0.05-4.84
		c0-9.11,0.01-18.22-0.02-27.33c0-0.86,0.13-1.2,1.08-0.9C262.06,133.28,263.27,133.16,264.46,132.81z"/>
	<path class="st7" d="M278.6,184.05c-0.22,0-0.44,0-0.66,0c-2.5,0.16-5,0.21-7.5-0.01c-3.82-0.08-7.65-0.09-11.47,0.01
		c-2.08,0.27-4.17,0.02-6.26,0.1c-0.2,0.01-0.39-0.05-0.43-0.26c-0.05-0.26,0.16-0.39,0.37-0.47c0.31-0.13,0.65-0.12,0.98-0.12
		c4.71-0.01,9.42-0.16,14.12,0.04c7.12,0.3,14.24,0.06,21.36,0.15c1.94,0.02,3.88,0.04,5.83,0.01c0.28,0,0.69-0.1,0.71,0.31
		c0.02,0.42-0.39,0.34-0.67,0.34c-1.1,0.01-2.21-0.01-3.31,0.01c-1.42,0.1-2.84,0.03-4.26-0.01c-0.86-0.02-1.66,0.26-2.5,0.23
		c-0.62-0.02-1.25,0-1.85-0.22C281.57,184.09,280.08,184.29,278.6,184.05z"/>
	<path class="st8" d="M291.61,184.05c1.32,0,2.64,0,3.95,0c0-0.13-0.01-0.27-0.01-0.4c-14.4,0-28.79,0-43.19,0
		c2.17,0.55,4.4,0.17,6.59,0.41c-0.13,0.21-0.36,0.27-0.57,0.27c-1.95-0.01-3.9-0.04-5.85-0.06c-0.25,0-0.42-0.15-0.48-0.37
		c-0.12-0.43,0.23-0.55,0.5-0.73c1.98-0.17,3.96-0.1,5.94-0.09c2.97,0.01,5.95-0.03,8.92,0c0.51,0.01,1.04-0.08,1.49,0.27
		c0.57,0.06,0.97,0.15,0.89-0.78c-0.15-1.73-0.05-3.48-0.04-5.23c0-0.28-0.07-0.59,0.22-0.8c0.36,0.38,0.33,0.86,0.34,1.33
		c0.01,1.3,0,2.61,0.01,3.91c0,0.39-0.07,0.81,0.3,1.1c0.1,0.18-0.37,0.5-0.08,0.44c1.15-0.23,2.26,0.11,3.39,0.06
		c1.28-0.05,2.56-0.04,3.84,0c0.7,0.02,0.17-0.32,0.18-0.5c0.22-0.15,0.43-0.1,0.63,0.05c0.08,0.54,0.5,0.44,0.85,0.44
		c3.3,0,6.6,0.09,9.89-0.03c1.98-0.07,3.95,0.23,5.92-0.02c0.41-0.05,0.65,0.12,0.63,0.52c-0.02,0.37-0.18,0.5-0.64,0.47
		c-1.21-0.08-2.42-0.03-3.63-0.04c-0.06-0.05-0.08-0.1-0.06-0.15C291.58,184.07,291.6,184.05,291.61,184.05z"/>
	<path class="st9" d="M269.75,105.15c-0.02-1.36,0.77-2.24,1.78-3c0.21,0.17,0.23,0.39,0.21,0.64c-0.03,0.17-0.11,0.32-0.22,0.46
		c-0.37,0.45-0.75,0.89-0.91,1.48c-0.41,1.51,0.24,3.09,1.63,3.95c1.29,0.79,2.87,0.62,3.96-0.41c1.24-1.18,1.49-2.71,0.71-4.2
		c-0.22-0.42-0.61-0.74-0.69-1.24c0-0.18,0.04-0.33,0.18-0.45c1.86,0.86,2.48,3.54,1.3,5.61c-0.9,1.58-2.82,2.42-4.6,2.02
		c-1.89-0.42-3.21-1.83-3.35-3.55C269.61,106.02,269.64,105.58,269.75,105.15z"/>
	<path class="st6" d="M259.63,176.52c0.7,0.01,1.39,0.02,2.09,0.02c2.66,0.02,2.8,1.76,2.23,3.81c-0.1,0.35-0.44,0.59,0.08,0.84
		c0.28,0.35,0.17,0.74,0.13,1.13c-0.01,0.12-0.05,0.22-0.13,0.3c-0.31,0.26-0.7,0.35-1.07,0.49c-0.12,0.03-0.23,0.04-0.35,0.05
		c-0.97-0.04-1.95,0.12-2.92-0.09c-0.11-0.07-0.19-0.17-0.25-0.29c-0.24-1.76-0.05-3.54-0.11-5.3
		C259.4,177.15,259.07,176.69,259.63,176.52z"/>
	<path class="st10" d="M290.71,180.29c0-0.55,0-1.1,0-1.65c0-1.39,0.73-2.09,2.2-2.09c1.49-0.01,2.27,0.68,2.28,2.02
		c0.01,1.28,0.01,2.57,0,3.85c0,0.2,0.08,0.48-0.24,0.51c-0.35,0.04-0.46-0.23-0.4-0.5c0.32-1.52-0.61-1.43-1.68-1.47
		c-1.13-0.04-1.74,0.16-1.48,1.44c0.05,0.25,0,0.55-0.36,0.55c-0.41,0-0.3-0.35-0.3-0.57C290.7,181.68,290.71,180.98,290.71,180.29z
		"/>
	<path class="st11" d="M259.63,176.52c-0.4,0.21,0.2,0.48-0.04,0.7c-0.09,1.91-0.22,3.82,0.06,5.72l-0.02-0.02
		c1.1,0.25,2.19,0.23,3.29,0.02l-0.01,0c0.28-0.17,0.7,0,0.91-0.37c0.01-0.08,0.06-0.11,0.14-0.09c0.11-0.1,0.21-0.09,0.3,0.03
		c0.48,0.02,0.34-0.52,0.61-0.68c0.26,0.1,0.3,0.38,0.46,0.57c0.07,0.08,0.14,0.15,0.21,0.23c0.6,0.4,1.28,0.19,1.92,0.25
		c0.49,0.05,1.03-0.13,1.45,0.3c0,0.06,0,0.11,0.01,0.17c-5.21,0.01-10.43,0.02-15.64,0.03c-0.26,0-0.52,0.02-0.7-0.22c0,0,0,0,0,0
		c0.95-0.61,2.03-0.13,3.02-0.36c0.2-0.08,0.41-0.14,0.62-0.22c0.23-0.1,0.46-0.19,0.68-0.33c0.73-0.82,0.73-0.82,1.33,0.3
		c0.2,0.05,0.31-0.05,0.4-0.21c0.13-1.88-0.04-3.76,0.09-5.63c0.01-0.06,0.02-0.12,0.04-0.18c0-0.33,0.01-0.66,0.48-0.64
		C259.63,175.92,259.61,176.23,259.63,176.52z"/>
	<path class="st12" d="M256.94,182.49c-0.21,0.07-0.42,0.15-0.64,0.22c-0.05-0.02-0.1-0.04-0.15-0.06
		c-0.08-0.07-0.13-0.16-0.15-0.27c0.25-0.82-0.15-1.12-0.91-1.14c-0.53-0.02-1.07-0.05-1.59,0.1c-0.31,0.11-0.67,0.42-0.83-0.18
		c0-1.34,0.01-2.68,0-4.02c0-0.39-0.03-0.77,0.55-0.63c0.54,0.01,1.09,0.02,1.63,0.03c2.18,0.04,3.19,1.84,2.16,3.85
		c-0.09,0.18-0.52,0.31-0.12,0.59C257.48,181.48,257.5,181.98,256.94,182.49z"/>
	<path class="st13" d="M271.52,177.84c-0.06-0.54,0.5-0.67,0.69-1.05c0.75-0.77,1.58-0.35,2.4-0.19c1.08,0.46,1.53,1.25,1.38,2.43
		c-0.08,0.61-0.01,1.24-0.01,1.86c-0.01,1.22-0.47,1.77-1.7,2.03c-1.22,0.26-2.35-0.25-2.76-1.26
		C271.37,180.39,271.37,179.11,271.52,177.84z"/>
	<path class="st14" d="M263.82,188.32c-0.2,0.84-0.85,0.56-1.38,0.56c-0.03-0.09-0.01-0.18,0.04-0.24c0.08-0.02,0.13-0.05,0.14-0.08
		c-0.1,0.03-0.21,0.05-0.32,0.09c-0.48-0.01-1.05,0.33-1.32-0.38c0-1.02-0.17-2.05,0.11-3.07c0.44-0.42,0.98-0.21,1.48-0.24
		c0.41,0.14,0.86,0.21,1.16,0.58C264.3,186.44,264.03,187.38,263.82,188.32z"/>
	<path class="st15" d="M276.86,163.26c-0.13-0.95,0.1-1.88,0.19-2.82c-0.01-6.63-0.03-13.27-0.04-19.9
		c-0.01-3.63,0.01-7.26-0.01-10.89c-0.01-0.92,0.29-1.26,1.17-0.79c-0.87-0.1-0.96,0.39-0.96,1.12c0.03,10.95,0.03,21.9,0.04,32.86
		C277.08,162.94,277.31,163.41,276.86,163.26z"/>
	<path class="st16" d="M281.71,181.84c-0.07,0.19-0.09,0.36,0.13,0.47c0.82,0.23,1.68-0.1,2.5,0.16c0.12,0.11,0.19,0.32,0.04,0.35
		c-1,0.18-2.02,0.31-3-0.12c-0.33-0.15-0.37-0.51-0.37-0.86c0-1.39,0.01-2.79-0.01-4.18c-0.01-0.67,0.31-1.07,0.95-1.12
		c0.83-0.06,1.67-0.01,2.76-0.01c-0.75,0.73-1.43,0.48-2,0.45c-0.84-0.04-1.06,0.25-1.05,1.07c0.02,2.47-0.01,2.47,2.41,2.48
		c0.29,0,0.59,0,0.88-0.01c0.33,0.51-0.05,0.56-0.39,0.54c-0.66-0.04-1.31,0.07-1.96-0.02
		C281.95,180.97,281.77,181.32,281.71,181.84z"/>
	<path class="st17" d="M258.99,168.31c0-11.57,0-23.15,0-34.72c0.04,0,0.07,0,0.11,0c0,11.59,0,23.18,0,34.76
		C259.07,168.34,259.03,168.33,258.99,168.31z"/>
	<path class="st18" d="M284.31,112.41c0.02-0.2,0.05-0.39,0.23-0.51c1.41,1.84,2.91,3.59,4.8,4.97c1.37,1.01,2.8,1.89,4.48,2.31
		c0.12,0.16,0.52,0.12,0.42,0.34c-0.19,0.4-0.57,0.22-0.89,0.12c-3.57-0.97-6.18-3.27-8.36-6.14
		C284.74,113.16,284.3,112.91,284.31,112.41z"/>
	<path class="st19" d="M288.97,180.96c0.62,0.25,0.91,0.71,0.88,1.37c-0.01,0.23,0.13,0.56-0.27,0.61c-0.36,0.04-0.41-0.2-0.4-0.49
		c0.02-0.53-0.26-0.9-0.68-1.18c-0.46-0.31-0.98-0.3-1.49-0.25c-0.89,0.09-0.3,0.79-0.44,1.19c-0.1,0.27,0.15,0.75-0.38,0.73
		c-0.52-0.02-0.33-0.49-0.33-0.77c-0.02-1.65-0.01-3.31,0-4.96c0-0.25-0.17-0.64,0.32-0.66c0.58-0.02,0.37,0.44,0.38,0.71
		c0.03,0.73,0.07,1.48-0.01,2.2c-0.08,0.85,0.17,1.23,1.06,1.07c0.21-0.04,0.44-0.02,0.66-0.03
		C288.77,180.23,288.8,180.7,288.97,180.96z"/>
	<path class="st20" d="M286.54,141.69c0.74-0.47,1.1-0.31,1.12,0.6c0.01,0.4-0.29,0.97,0.41,1.15c0,0.66,0,1.32,0,1.99
		c-0.66,0.16-0.41,0.7-0.41,1.09c-0.02,5.86-0.01,11.72-0.01,17.59c0,0.4,0.09,0.81-0.12,1.18c-0.14-0.06-0.24-0.15-0.3-0.29
		c-0.21-0.57-0.14-1.16-0.15-1.74c-0.03-5.97,0.04-11.95-0.04-17.92c0-0.42,0.1-0.84,0.07-1.26c0-0.22-0.05-0.43-0.03-0.65
		C287.18,142.77,287.25,142.11,286.54,141.69z"/>
	<path class="st21" d="M269.3,142.16c0.01,0.8,0.02,1.6,0.03,2.41c-0.19,1.34-0.07,2.69-0.08,4.03c-0.06,6.2-0.02,12.4-0.03,18.6
		c0,0.4,0.08,0.81-0.09,1.19c-0.08,0.06-0.17,0.12-0.25,0.19c0.01-8.15,0.01-16.3,0.02-24.45c0-0.66,0.01-1.32,0.01-1.98
		C269.04,142,269.17,142,269.3,142.16z"/>
	<path class="st18" d="M261.18,114.56c0.41,0.3-0.49,0.55-0.03,0.85c-1.85,2.07-4.14,3.46-6.77,4.31c-0.27,0.09-0.68,0.38-0.85-0.1
		c-0.18-0.54,0.36-0.44,0.62-0.52C256.91,118.24,259.15,116.57,261.18,114.56z"/>
	<path class="st17" d="M288.81,168.32c0-8.72,0-17.44,0-26.17c0.04,0,0.07,0,0.11,0c0,8.73,0,17.47,0,26.2
		C288.88,168.34,288.84,168.33,288.81,168.32z"/>
	<path class="st22" d="M269.13,168.39c-0.01-7.64-0.01-15.29-0.01-22.93c0-0.3-0.18-0.67,0.21-0.89c0.07,0.96,0.13,1.91,0.19,2.87
		c-0.35,0.38-0.18,0.84-0.18,1.26c-0.01,6.18,0,12.37-0.01,18.55C269.32,167.63,269.47,168.05,269.13,168.39z"/>
	<path class="st23" d="M265.14,176.54c0.56-0.11,0.65,0.25,0.67,0.67c0.07,0.05,0.1,0.1,0.07,0.15c-0.02,0.05-0.05,0.07-0.07,0.07
		c-0.02,1.42-0.01,2.83-0.06,4.25c-0.02,0.65,0.28,0.83,0.85,0.81c0.62-0.02,1.24,0,1.85-0.01c0.3,0,0.6-0.03,0.63,0.39
		c-1.34,0.21-2.7,0.56-3.95-0.34l-0.01-0.02C264.92,180.52,264.96,178.53,265.14,176.54z"/>
	<path class="st24" d="M276.59,168.12c0.25,0.25,0.87-0.06,0.87,0.57c-0.77-0.14-1.39,0.38-2.11,0.49c-0.95,0.14-1.9,0.16-2.85,0.09
		c-1.39-0.11-1.5-0.27-1.43-1.71c-0.22-0.52,0.05-1.09-0.17-1.6c-0.01-0.22-0.02-0.44-0.02-0.66c0.16,0,0.32-0.01,0.47-0.01
		c0.21-0.07,0.35,0.04,0.47,0.2c0.03,0.09,0.05,0.18,0.05,0.27c-0.01,0.19-0.01,0.38-0.03,0.56c-0.13,0.33-0.07,0.66-0.05,1
		c0.1,0.3-0.29,0.78,0.32,0.9c1.19,0.12,2.37,0.16,3.54-0.12C275.96,168.02,276.29,167.92,276.59,168.12z"/>
	<path class="st16" d="M278.59,182.93c-0.21-0.02-0.42-0.03-0.63-0.05c0-1.61-0.04-3.22,0.02-4.82c0.04-0.86-0.22-1.22-1.09-1.07
		c-0.16,0.03-0.38,0.04-0.52-0.32c1.27,0,2.5,0,3.8,0c-0.37,0.7-1.21-0.01-1.59,0.54c-0.45,0.26-0.32,0.7-0.32,1.08
		c-0.01,1.29,0,2.58,0,3.87c0-1.32-0.01-2.64,0.02-3.95c0.01-0.26-0.23-0.69,0.3-0.78C278.58,179.27,278.59,181.1,278.59,182.93z"/>
	<path class="st23" d="M270.63,182.89c-0.53,0.16-0.7-0.04-0.69-0.58c0.04-1.92,0.03-3.84,0.05-5.76c0.55-0.09,0.66,0.16,0.65,0.67
		C270.6,179.11,270.62,181,270.63,182.89z"/>
	<path class="st2" d="M258.7,182.93c-0.18-0.01-0.35-0.01-0.53-0.02c-0.56-0.9-0.23-1.87-0.2-2.82c0.04-1.18-0.16-2.37,0.16-3.53
		c0.2-0.01,0.41-0.01,0.61-0.02l-0.01,0C258.9,178.68,258.97,180.81,258.7,182.93z"/>
	<path class="st25" d="M269.75,184.71c0.66-0.12,0.49,0.39,0.49,0.7c0.02,1.36,0.03,2.72-0.01,4.08c-0.02,0.57,0.15,0.78,0.73,0.75
		c0.78-0.04,1.57-0.01,2.35,0.17c-1.2,0.18-2.4,0.59-3.56-0.17C269.31,188.39,269.29,186.55,269.75,184.71z"/>
	<path class="st26" d="M291.61,184.05c0,0.07,0,0.15,0,0.22c-0.56,0.33-1.19,0.18-1.72,0.07c-1.08-0.22-2.15,0.36-3.22-0.05
		c-0.32-0.12-0.64,0.07-0.8,0.41c-0.12,0.19-0.32,0.23-0.52,0.28c-0.34,0.07-0.67,0.08-0.97-0.11c-0.06-0.04-0.11-0.13-0.18-0.12
		c-0.14,0.03,0.01-0.07,0.02,0.08c-0.01,0.08-0.04,0.15-0.09,0.22c-0.12,0.14-0.27,0.23-0.45,0.27c-0.15,0.02-0.29,0-0.41-0.08
		c-0.08-0.32,0.07-0.71-0.26-0.97c-0.07-0.05-0.1-0.1-0.07-0.15c0.02-0.05,0.05-0.07,0.07-0.07
		C285.88,184.05,288.75,184.05,291.61,184.05z"/>
	<path class="st27" d="M287.21,185.78c0.61,0.81,0.07,1.73,0.25,2.59c0.16,0.74-0.16,1.52,0.06,2.27c0.13,0.44-0.1,0.63-0.48,0.66
		c-0.44,0.04-0.71-0.19-0.7-0.64c0.01-0.55,0.55-1.21-0.1-1.62c-0.61-0.39-1.36-0.03-2.04-0.08c-0.28-0.02-0.32,0.28-0.51,0.37
		c-0.28-0.36-0.17-0.63,0.19-0.85c0.84-0.2,1.69-0.15,2.54-0.05c0.4,0.14,0.57,0.42,0.53,0.84
		C287.04,188.13,286.57,186.91,287.21,185.78z"/>
	<path class="st28" d="M283.89,188.71c-0.23,0.16-0.28,0.38-0.19,0.64c-0.2,0.4,0.24,1.2-0.31,1.19c-0.57-0.01-0.24-0.77-0.24-1.19
		c-0.02-1.37-0.13-2.74,0.13-4.1c0.14-0.01,0.27-0.02,0.41-0.04c0.18,0.04,0.3,0.16,0.35,0.34c-0.03,0.95-0.13,1.91-0.01,2.86
		C284.01,188.52,283.97,188.63,283.89,188.71z"/>
	<path class="st29" d="M271.56,102.9c-0.01-0.25-0.02-0.5-0.03-0.75c1.68-1.04,3.3-0.97,4.88,0.22c-0.01,0.18-0.02,0.36-0.04,0.54
		c-0.15,0.09-0.31,0.09-0.47,0.04C274.46,102.02,273.01,102.43,271.56,102.9z"/>
	<path class="st30" d="M266.25,190.61c-1.11-0.07-1.29-0.9-1.34-1.74c-0.06-1.02,0-2.04,0-3.06c0.21-0.25,0.13-0.79,0.69-0.7
		c0.16,0.07,0.25,0.19,0.29,0.36c-0.12,0.89-0.27,1.76-0.2,2.68c0.06,0.76,0.26,1.4,0.67,2
		C266.4,190.32,266.38,190.48,266.25,190.61z"/>
	<path class="st20" d="M282.62,141.01c-0.45-0.28-0.27-0.73-0.27-1.1c-0.01-3.59-0.01-7.19,0-10.78c0.33,1.21,0.12,2.45,0.14,3.68
		c0.04,2.45,0.01,4.9,0.02,7.35C282.51,140.44,282.58,140.72,282.62,141.01z"/>
	<path class="st31" d="M269.75,184.71c0,1.84,0,3.68,0,5.53c-0.26-0.18-0.3-0.57-0.64-0.67c-0.07-0.09-0.11-0.2-0.11-0.31
		c0.06-1.04,0.08-2.08-0.01-3.11c-0.06-0.14-0.12-0.29-0.17-0.44c-0.03-0.1-0.03-0.2,0.01-0.3
		C269.3,185.39,269.33,184.79,269.75,184.71z"/>
	<path class="st32" d="M278.88,190.64c-0.75-0.55-0.24-1.39-0.43-2.08c-0.04-0.15-0.47-0.49-0.07-0.76c0.22-0.3,0.06-0.64,0.12-0.95
		c-0.07,0.31,0.09,0.66-0.12,0.95c-0.24,0-0.51,0.08-0.67-0.19c0.51-0.59,0-1.37,0.38-1.99c0.12-0.24,0.51,0.7,0.45-0.08
		c-0.03-0.38-0.15-0.67,0.31-0.82c0.55,0.88,0.25,1.85,0.27,2.77C279.14,188.55,279.15,189.61,278.88,190.64z"/>
	<path class="st8" d="M258.13,176.57c0.01,2.12,0.03,4.23,0.04,6.35c-0.63-0.12-0.23-0.83-0.64-1.11c-0.21,0.22-0.06,0.76-0.58,0.69
		c0.4-0.51,0.3-1.01-0.04-1.5c0.95,0.28,0.89-0.38,0.9-0.97c0.02-1.01,0.03-2.01,0.05-3.02
		C257.86,176.81,257.95,176.66,258.13,176.57z"/>
	<path class="st29" d="M287.21,185.78c0,1.6,0,3.2,0,4.95c-0.85-0.61-0.1-1.52-0.67-2.03c-0.08-0.09-0.12-0.19-0.12-0.31
		c0.15-1.02-0.01-2.02-0.13-3.03c0.1-0.08,0.21-0.09,0.32-0.02C287.03,185.18,286.96,185.7,287.21,185.78z"/>
	<path class="st33" d="M281.46,188.24c0.73-0.85,0.34-1.88,0.45-2.83c0.03-0.26-0.15-0.7,0.28-0.69c0.39,0.01,0.29,0.43,0.29,0.71
		c-0.01,0.73,0,1.46-0.07,2.19c-0.04,0.41-0.31,0.73-0.74,0.85c-0.08,0.08-0.16,0.09-0.25,0.03
		C281.37,188.39,281.38,188.31,281.46,188.24z"/>
	<path class="st23" d="M281.46,188.24c-0.01,0.07-0.01,0.15-0.02,0.22c0.19,0.3,0.13,0.47-0.25,0.48c-0.18-0.03-0.35-0.05-0.53-0.09
		c-0.95-0.18-1.54,0.05-1.34,1.19c0.02,0.13-0.05,0.27-0.08,0.41c-0.48-0.04-0.3-0.42-0.3-0.66c0-1.67-0.04-3.33,0.01-5
		c0.49-0.22,0.42,0.18,0.42,0.42c-0.01,0.76-0.01,1.52,0,2.28c0,0.34-0.12,0.75,0.33,0.94C280.3,188.5,280.89,188.48,281.46,188.24z
		"/>
	<path class="st34" d="M288.97,180.96c-0.24-0.15-0.35-0.49-0.71-0.46c0.73-0.39,0.89-1.01,0.91-1.81c0.01-0.7-0.36-1.48,0.25-2.11
		c0.22,0.82,0.06,1.64,0.09,2.33c0.15-0.68-0.13-1.52,0.13-2.33c0.56,1.15,0.3,3.19-0.5,4.01
		C289.04,180.68,289.02,180.84,288.97,180.96z"/>
	<path class="st8" d="M253.23,176.51c-0.44,0-0.51,0.27-0.5,0.64c0.03,1.42,0.04,2.83,0.06,4.25c0.23,1.19,1.03,1.4,2.08,1.25
		c0.35-0.05,0.74-0.03,1.02,0.29c-1.07,0.5-2.21,0.1-3.31,0.22c-0.02-2.06-0.04-4.12-0.05-6.19c-0.06-0.15-0.08-0.3,0.03-0.44
		C252.76,176.29,252.98,176.26,253.23,176.51z"/>
	<path class="st18" d="M259.86,165.96c0.19,0.07,0.38,0.13,0.57,0.2c0.11,0.04,0.19,0.12,0.24,0.23c0.15,0.74,0.14,1.52,0.52,2.2
		c-0.16,0.15-0.31,0.29-0.47,0.44c-0.72-0.04-0.99-0.43-0.93-1.13C259.86,167.25,259.85,166.6,259.86,165.96z"/>
	<path class="st20" d="M268.83,185.41c0,0.07,0.02,0.14,0.05,0.2c0.38,1.39,0.35,2.77-0.01,4.15c-0.07,0.08-0.15,0.16-0.22,0.24
		c-0.22,0.06-0.31-0.09-0.38-0.26c0.06-1.36-0.33-2.73,0.06-4.09c0.07-0.1,0.17-0.15,0.3-0.15
		C268.7,185.47,268.76,185.44,268.83,185.41z"/>
	<path class="st32" d="M270.43,184.05c2.5-0.08,5-0.11,7.5,0.01c-0.02,0.07-0.04,0.2-0.06,0.2c-2.43-0.04-4.85,0.21-7.28-0.06
		C270.54,184.18,270.49,184.1,270.43,184.05z"/>
	<path class="st14" d="M279.48,169.31c1.11,0.24,2.19-0.81,3.32-0.08c-0.35,0.81-1.08,0.61-1.68,0.56
		C280.56,169.74,280.03,169.48,279.48,169.31z"/>
	<path class="st8" d="M265.14,176.54c-0.14,1.99-0.08,3.98-0.02,5.97c-0.25-0.17-0.18-0.45-0.25-0.69
		c-0.02-1.74-0.04-3.48-0.05-5.23c0-0.05,0.09-0.13,0.14-0.14C265.01,176.45,265.08,176.51,265.14,176.54z"/>
	<path class="st9" d="M261.18,185.17c0,1.09,0,2.17,0,3.26c0.04,0.41-0.16,0.41-0.44,0.26c0-1.25,0-2.5-0.01-3.75
		c0.16-0.09,0.28-0.01,0.39,0.09C261.15,185.07,261.16,185.12,261.18,185.17z"/>
	<path class="st17" d="M252.54,176.54c-0.01,0.15-0.02,0.29-0.03,0.44c-0.32-0.13-0.32-0.04-0.28,0.28
		c0.24,1.74,0.05,3.48-0.11,5.23c0-1.11,0.01-2.23-0.01-3.34c-0.01-0.62,0.09-1.24-0.15-1.85
		C251.79,176.82,251.99,176.52,252.54,176.54z"/>
	<path class="st20" d="M260.74,188.69c0.19-0.01,0.36-0.07,0.44-0.26c0.4,0.6,0.88-0.17,1.31,0.07c0.08,0.05,0.1,0.09,0.08,0.15
		c-0.02,0.05-0.04,0.08-0.07,0.08c-0.02,0.05-0.04,0.1-0.07,0.15c-1.84-0.53-0.98,1.12-1.46,1.91
		C260.51,190.04,260.72,189.35,260.74,188.69z"/>
	<path class="st19" d="M279.04,184.75c0,1.56-0.01,3.11,0,4.67c0,0.35-0.12,0.73,0.2,1.02c-0.02,0.26-0.24,0.15-0.37,0.2
		c-0.01-1.97-0.03-3.94-0.04-5.91l-0.01,0.01C278.91,184.63,278.98,184.63,279.04,184.75z"/>
	<path class="st35" d="M263.82,188.32c-0.25-0.9,0.21-1.85-0.18-2.73c0.03-0.1,0.09-0.17,0.18-0.21
		C264.47,186.12,264.47,187.52,263.82,188.32z"/>
	<path class="st1" d="M278.58,177.43c-0.43,1.05-0.11,2.15-0.19,3.22c-0.05,0.61-0.01,1.22-0.2,1.83c0-1.62,0-3.23,0-4.85
		c0-0.26,0.16-0.39,0.41-0.42C278.59,177.29,278.58,177.36,278.58,177.43z"/>
	<path class="st33" d="M277.13,190.5c-1.03,0.33-2.05,0.13-3.08,0.13c-0.01-0.12-0.01-0.24-0.02-0.36c0.79,0,1.58,0,2.37,0
		C276.61,190.45,276.96,190.21,277.13,190.5z"/>
	<path class="st6" d="M274.16,188.04c-0.21-0.79-0.16-1.58-0.01-2.37c0.07-0.35,0.37-0.39,0.58-0.27c0.23,0.13-0.07,0.28-0.12,0.42
		c-0.22,0.72,0.01,1.46-0.13,2.19C274.38,188.12,274.27,188.13,274.16,188.04z"/>
	<path class="st26" d="M274.61,176.6c-0.82-0.14-1.62-0.04-2.4,0.19c0.16-0.78,0.69-1.14,1.14-0.71
		C273.73,176.44,274.34,176.1,274.61,176.6z"/>
	<path class="st36" d="M281.71,181.84c-0.14-0.59-0.01-0.9,0.69-0.84c0.69,0.05,1.38,0.01,2.08,0.01c0.32,0,0.61-0.02,0.47-0.47
		c0.53,0.54,0.21,0.86-0.33,0.74c-0.63-0.14-1.23,0.11-1.83-0.06C282.19,181.05,281.93,181.41,281.71,181.84z"/>
	<path class="st37" d="M281.2,188.94c0.21-0.09,0.25-0.28,0.25-0.48c0.08,0,0.15,0,0.23,0c0.06,0.63,0.92,0.82,0.83,1.53
		c-0.03,0.24,0.08,0.58-0.25,0.63c-0.39,0.06-0.35-0.3-0.34-0.53C281.93,189.53,281.53,189.26,281.2,188.94z"/>
	<path class="st32" d="M279.04,184.75l-0.1-0.02l-0.1,0c-0.01-0.08-0.01-0.16-0.02-0.24l0.01,0c0.66-0.03,0.75,0.3,0.72,0.9
		c-0.04,1.01-0.24,2.04,0.15,3.03c-0.41,0.08-0.37-0.21-0.37-0.46c0-0.84,0.02-1.68-0.01-2.52
		C279.31,185.2,279.53,184.81,279.04,184.75z"/>
	<path class="st38" d="M277.13,190.5c-0.24-0.08-0.54,0.01-0.73-0.23c0.42-0.05,0.87-0.06,1.06-0.56c0.16-0.42-0.26-0.51-0.43-0.75
		c-0.07-0.13-0.06-0.25,0.04-0.36c0.52,0.1,0.88,0.43,0.91,0.94C278.02,190.07,277.69,190.42,277.13,190.5z"/>
	<path class="st32" d="M283.01,184.05c0,0.07,0,0.15,0,0.22c-1.39,0.12-2.81-0.26-4.19,0.22c0,0-0.01,0-0.01,0
		c-0.18-0.1-0.21-0.26-0.22-0.44C280.07,183.95,281.54,183.95,283.01,184.05z"/>
	<path class="st8" d="M265.13,182.53c1.26,0.74,2.62,0.36,3.95,0.34c-0.06,0.1-0.12,0.21-0.18,0.31c-0.88,0-1.76,0-2.64-0.01
		C265.78,183.16,265.29,183.13,265.13,182.53z"/>
	<path class="st19" d="M278.08,185.63c0.03,0.54,0.07,1.08,0.09,1.63c0.01,0.32-0.13,0.48-0.47,0.36c-0.08-0.6,0.04-1.2-0.11-1.82
		C277.48,185.28,277.83,185.46,278.08,185.63z"/>
	<path class="st39" d="M268.87,189.76c0-1.38,0-2.77,0.01-4.15c0.08,0.07,0.15,0.14,0.23,0.21c0.2,1.17,0.13,2.35,0.04,3.53
		c-0.01,0.07-0.02,0.15-0.03,0.22C269.03,189.63,268.95,189.7,268.87,189.76z"/>
	<path class="st27" d="M265.8,177.43c0-0.07,0-0.15,0-0.22c0.23,0.04,0.42,0.14,0.42,0.41c0.01,1.03,0,2.07-0.06,3.1
		C265.79,179.65,266.34,178.49,265.8,177.43z"/>
	<path class="st36" d="M284.34,182.48c-0.83-0.07-1.69,0.21-2.5-0.16c0.52-0.2,1.29,0.28,1.59-0.57
		C283.6,182.16,284.23,181.99,284.34,182.48z"/>
	<path class="st40" d="M271.52,177.84c0,1.28,0,2.55,0,3.83C271.32,180.39,271.28,179.11,271.52,177.84z"/>
	<path class="st41" d="M265.86,184.96c0.64-0.36,1.29-0.45,1.94-0.04c-0.04,0.17-0.14,0.29-0.29,0.38
		c-0.32,0.13-0.64,0.12-0.96,0.04C266.29,185.26,266.04,185.18,265.86,184.96z"/>
	<path class="st42" d="M276.63,185.11c-0.44,0-0.88,0-1.31,0c0.56-0.51,1.14-0.53,1.75-0.18
		C276.97,185.11,276.77,185.04,276.63,185.11z"/>
	<path class="st27" d="M259.73,118.88c-0.47,0.07-0.83,0.53-1.31,0.03C258.83,118.44,259.22,118.43,259.73,118.88z"/>
	<path class="st43" d="M266.25,190.61c0-0.15,0.01-0.29,0.01-0.44c0.51-0.32,0.98-0.19,1.43,0.13c0.03,0.05,0.07,0.09,0.1,0.14
		C267.31,190.85,266.76,190.57,266.25,190.61z"/>
	<path d="M289.62,176.58c0,0.8,0,1.6,0,2.4c-0.07,0-0.14,0-0.21,0c0-0.8,0-1.6,0-2.4C289.48,176.58,289.55,176.58,289.62,176.58z"/>
	<path class="st4" d="M262.72,185.12c-0.51-0.01-1.03-0.16-1.53,0.05l-0.07-0.05c0.13-0.56,0.68-0.11,0.93-0.38
		c0.34-0.07,0.66-0.05,0.95,0.17C262.97,185.05,262.83,185.07,262.72,185.12z"/>
	<path class="st27" d="M255.03,117.53c-0.27,0.4-0.58,0.69-1.33,0.41C254.38,118.04,254.28,117.07,255.03,117.53z"/>
	<path class="st44" d="M277.07,188.6c-0.01,0.12-0.03,0.24-0.04,0.36c-0.52-0.15-1.05-0.3-1.57-0.46c0.1-0.21,0.34-0.1,0.48-0.21
		C276.31,188.39,276.69,188.49,277.07,188.6z"/>
	<path class="st8" d="M264.25,182.51c-0.1-0.01-0.2-0.02-0.3-0.03c0.22-0.42,0.19-0.85,0.07-1.28c0.14,0,0.38-0.26,0.39,0.06
		C264.42,181.67,264.31,182.09,264.25,182.51z"/>
	<path class="st45" d="M276.85,160.41c-0.3-0.71-0.23-1.45-0.21-2.19C277.04,158.92,276.84,159.68,276.85,160.41z"/>
	<path class="st46" d="M286.61,185.34c-0.1,0.01-0.2,0.03-0.3,0.04c-0.25,0.14-0.47,0-0.69-0.09c-0.18-0.14-0.47-0.21-0.38-0.54
		c0.21-0.01,0.43-0.03,0.64-0.04C286.1,184.94,286.64,184.81,286.61,185.34z"/>
	<path class="st7" d="M262.72,185.12c0.09-0.07,0.19-0.14,0.28-0.21c0.37-0.01,0.64,0.16,0.82,0.48c-0.06,0.07-0.12,0.14-0.18,0.21
		C263.33,185.43,263.02,185.27,262.72,185.12z"/>
	<path class="st14" d="M257.52,115.96c0.47-0.18,0.82-0.33,1.11,0.03c0.09,0.11-0.04,0.14-0.13,0.21
		C258.11,116.52,257.9,116.1,257.52,115.96z"/>
	<path class="st47" d="M264.18,125.66c0.03,0.24-0.04,0.44-0.24,0.44c-0.14,0-0.34-0.16-0.4-0.3c-0.1-0.26,0.19-0.4,0.34-0.46
		C264.12,125.26,264.06,125.59,264.18,125.66z"/>
	<path class="st48" d="M274.44,188.02c-0.01-0.74-0.28-1.5,0.16-2.21c0.03,0.73,0.05,1.45,0.08,2.18
		C274.61,188.09,274.53,188.1,274.44,188.02z"/>
	<path class="st47" d="M282.45,191.28c-0.45,0.12-0.82-0.08-1.31-0.28C281.72,190.77,282.06,191.15,282.45,191.28z"/>
	<path class="st47" d="M269,175.85c-0.08,0.28,0.63,0.38,0.21,0.74c-0.08,0.07-0.26,0.14-0.28,0.11
		C268.71,176.44,268.72,176.15,269,175.85z"/>
	<path class="st18" d="M293.35,119.63c0.23-0.07,0.51,0.12,0.69-0.12c0.03-0.03-0.14-0.22-0.22-0.33c0.32,0.02,0.82,0,0.58,0.48
		C294.16,120.13,293.71,119.75,293.35,119.63z"/>
	<path class="st20" d="M281.46,128.91c-0.15,0.08-0.3,0.16-0.45,0.24c-0.55-0.02-1.1-0.04-1.65-0.06
		C280.06,129.03,280.76,128.97,281.46,128.91z"/>
	<path class="st24" d="M267.57,185.14c0.08-0.07,0.15-0.14,0.23-0.22c0.34,0.1,0.73,0.13,0.83,0.58c-0.04,0.05-0.1,0.08-0.17,0.09
		C268,185.75,267.74,185.55,267.57,185.14z"/>
	<path class="st14" d="M283.23,169.3c0.48-0.04,0.96-0.02,1.41,0.17c-0.42,0.08-0.85,0.01-1.28,0.16
		C283.04,169.73,283.2,169.44,283.23,169.3z"/>
	<path class="st17" d="M265.58,185.16c-0.36,0.07-0.44,0.43-0.67,0.64c0.09-0.43-0.24-1.23,0.76-0.83
		C265.68,185.05,265.65,185.12,265.58,185.16z"/>
	<path class="st14" d="M260.3,190.87c0.42,0.14,0.67,0.23,0.95,0.32C260.87,191.59,260.64,191.42,260.3,190.87z"/>
	<path class="st49" d="M268.41,189.73c0.08,0.09,0.16,0.18,0.24,0.27c-0.18,0.36-0.49,0.47-0.86,0.44c0,0,0.01,0.03,0.01,0.03
		C267.54,189.83,267.96,189.77,268.41,189.73z"/>
	<path class="st47" d="M266.44,109.17c-0.06,0.29-0.25-0.06-0.36,0.03c-0.11,0.08-0.26,0.17-0.24-0.08c0.01-0.21,0.16-0.3,0.36-0.27
		C266.35,108.87,266.43,108.98,266.44,109.17z"/>
	<path class="st36" d="M263.05,114.87c0.08,0.15,0.17,0.25,0.2,0.37c0.04,0.17-0.07,0.3-0.23,0.28c-0.13-0.01-0.24-0.13-0.36-0.2
		C262.77,115.19,262.89,115.06,263.05,114.87z"/>
	<path class="st50" d="M262.05,184.74c-0.31,0.13-0.62,0.25-0.93,0.38c-0.13-0.06-0.25-0.12-0.38-0.18
		C261.11,184.45,261.61,184.78,262.05,184.74z"/>
	<path class="st23" d="M270.9,165.96c0.37,0.5,0.16,1.06,0.17,1.6C270.87,167.04,270.87,166.5,270.9,165.96z"/>
	<path class="st10" d="M276.63,185.11c0.14-0.06,0.29-0.12,0.43-0.18c0.2,0.06,0.53,0.16,0.31,0.38
		C277.16,185.55,276.85,185.3,276.63,185.11z"/>
	<path class="st20" d="M284.02,141.23c-0.48-0.07-1.03,0.25-1.43-0.25C283.06,141.06,283.54,141.15,284.02,141.23z"/>
	<path class="st1" d="M265.58,185.16c0.05-0.05,0.07-0.12,0.09-0.19c0.06,0.02,0.13,0.01,0.19-0.01c0.19,0.1,0.45-0.09,0.59,0.17
		c-0.13,0.25-0.34,0.34-0.61,0.27C265.76,185.32,265.67,185.24,265.58,185.16z"/>
	<path class="st32" d="M286.66,116.25c0.08,0.53,0.38,0.76,0.02,1.04C286.48,117.03,286.53,116.78,286.66,116.25z"/>
	<path class="st51" d="M274.44,188.02c0.08-0.01,0.16-0.02,0.24-0.03c0.23,0.07,0.45,0.14,0.68,0.2c-0.1,0.22-0.35,0.11-0.5,0.21
		c-0.27-0.06-0.58-0.03-0.7-0.37C274.25,188.03,274.35,188.03,274.44,188.02z"/>
	<path class="st10" d="M274.86,188.41c0.17-0.07,0.33-0.14,0.5-0.21c0.19,0.03,0.38,0.06,0.57,0.09c-0.16,0.07-0.32,0.14-0.48,0.21
		C275.26,188.47,275.06,188.44,274.86,188.41z"/>
	<path class="st11" d="M286.54,176.38c0.36-0.31,0.54-0.36,0.75-0.31c0.01,0,0.01,0.15-0.01,0.16
		C287.12,176.28,286.96,176.3,286.54,176.38z"/>
	<path class="st20" d="M287.2,141.05c-0.37,0.35-0.81,0.14-1.23,0.18C286.36,141.05,286.78,141.04,287.2,141.05z"/>
	<path class="st20" d="M285.66,141.23c-0.37,0.35-0.74,0.35-1.11,0.01C284.92,141.23,285.29,141.23,285.66,141.23z"/>
	<path class="st14" d="M269.3,107.62c-0.27-0.34-0.15-0.56-0.18-0.89C269.45,107.05,269.28,107.28,269.3,107.62z"/>
	<path class="st29" d="M269.75,105.15c0,0.44,0,0.87,0,1.31C269.51,106.02,269.51,105.58,269.75,105.15z"/>
	<path class="st52" d="M266.25,102c-0.03,0.16-0.02,0.43-0.1,0.47c-0.35,0.14-0.16-0.14-0.15-0.25c0.01-0.09,0.07-0.18,0.1-0.27
		C266.15,101.96,266.2,101.98,266.25,102z"/>
	<path class="st0" d="M271.74,165.54c-0.13-0.09-0.26-0.17-0.39-0.26c-0.06-4.4-0.56-8.78-0.82-13.17
		c-0.29-4.87-0.64-9.73-0.97-14.6c0.06-0.09,0.13-0.16,0.21-0.24c0.23-0.15,0.48-0.19,0.74-0.08c0.6,0.36,1.23,0.26,1.86,0.12
		c0.29-0.07,0.59-0.12,0.86-0.26c0.24-0.09,0.48-0.24,0.73-0.01c0.63,0.28,0.56,0.88,0.6,1.4c0.32,4.4,0.63,8.8,0.94,13.19
		c0.27,3.89,0.55,7.77,0.82,11.66c0.04,0.58,0.03,1.17,0.04,1.76c-0.11,0.15-0.27,0.23-0.45,0.28c-0.53,0.11-1.05,0.27-1.59,0.25
		C273.45,165.54,272.59,165.7,271.74,165.54z"/>
	<path class="st53" d="M267.97,130.09c0.25-0.1,0.43-0.07,0.44,0.25c0.01,0.4,0.01,0.81,0.02,1.21c0,10.87,0.01,21.75,0.01,32.62
		c-0.14,0.31-0.38,0.47-0.72,0.46c-0.1,0-0.19-0.01-0.29-0.03c-0.42-0.03-0.84-0.04-1.26-0.01c-0.1,0.02-0.19,0.03-0.29,0.03
		c-0.34,0.01-0.58-0.15-0.72-0.47c0-11.03,0-22.06,0.02-33.09c0-0.35-0.28-0.82,0.25-1.06c0.11-0.14,0.25-0.15,0.41-0.12
		c0.49,0.28,1.01,0.33,1.56,0.16C267.58,130.01,267.78,129.99,267.97,130.09z"/>
	<path class="st0" d="M261.1,164.88c-0.85,0.11-0.6-0.52-0.6-0.94c-0.01-6.41-0.01-12.82-0.01-19.24c0-2.38,0.03-4.76,0.04-7.14
		c0.26-0.21,0.53-0.07,0.79-0.02c0.77,0.16,1.55,0.14,2.32-0.04c0.31-0.05,0.59-0.02,0.82,0.23c0,8.7,0,17.4,0.01,26.11
		c0,0.37,0.03,0.73-0.27,1.01C263.18,165.37,262.14,165.28,261.1,164.88z"/>
	<path class="st26" d="M273.52,133.49c0.23,0.09,0.68-0.21,0.68,0.27c0,0.8,0.36,1.65-0.22,2.39c-0.16,0.23-0.41,0.28-0.66,0.34
		c-0.35,0-0.7-0.04-1.04,0.1c-0.11,0.03-0.21,0.05-0.32,0.06c-0.57,0.03-1.14,0.05-1.71-0.02c-0.36-0.07-0.68-0.19-0.9-0.51
		c-0.01-0.75-0.27-1.68,0.08-2.2c0.23-0.34,1.34-0.09,2.06-0.1C272.19,133.81,272.87,133.77,273.52,133.49z"/>
	<path class="st26" d="M265.39,128.66c-0.54-1.07-0.08-2.18-0.27-3.33c1.04,0.19,1.94,0.33,2.85,0.06c0.22-0.06,0.46-0.04,0.46,0.28
		c0,0.92,0,1.83-0.03,2.75c-0.01,0.28-0.33,0.22-0.52,0.28c-0.34,0.15-0.74,0.15-1.06,0.36c-0.26,0.08-0.52,0.09-0.78,0.06
		C265.73,129.08,265.48,128.97,265.39,128.66z"/>
	<path class="st26" d="M260.55,136.15c0-0.86,0-1.73,0-2.65c1.33,0.37,2.63,0.27,3.92,0.04c-0.14,0.87,0.33,1.8-0.28,2.61
		c-0.19,0.25-0.45,0.35-0.75,0.37c-0.69-0.08-1.38-0.06-2.08-0.06C261.07,136.44,260.76,136.42,260.55,136.15z"/>
	<path class="st17" d="M268.44,165.76c0,0.37,0.04,0.74-0.02,1.1c-0.09,0.52,0.36,1.2-0.46,1.52c-0.87,0.34-1.72,0.33-2.54-0.09
		c-0.39-0.2-0.42-2.39-0.05-2.61c0.09-0.06,0.28,0.05,0.42,0.08c0.68,0.07,1.33-0.13,2-0.2
		C268.04,165.52,268.26,165.57,268.44,165.76z"/>
	<path class="st17" d="M261.2,168.59c-1.21-0.43-0.53-1.46-0.7-2.22c0.31-0.25,0.67-0.26,1.05-0.19c0.63,0.19,1.26,0.19,1.9,0
		c0.38-0.07,0.74-0.06,1.03,0.23c0.03,2.13-0.16,2.31-2.29,2.23C261.85,168.63,261.52,168.61,261.2,168.59z"/>
	<path class="st54" d="M261.1,164.88c1.03-0.01,2.07-0.02,3.1-0.03c0.35,0.3,0.28,0.71,0.27,1.1c-0.36,0.42-0.9,0.28-1.35,0.42
		c-0.48,0.02-0.97,0.07-1.44-0.05c-0.41-0.06-0.85-0.03-1.18-0.35c0.06-0.39-0.33-1.11,0.62-0.83c0.45,0.09,0.9,0.03,1.36,0.05
		c0.3,0,0.61,0,0.8,0c0.27-0.02,0.03-0.23,0.11-0.1c-0.33,0.18-0.69,0.05-1.04,0.09c-0.42,0-0.83,0-1.25-0.01
		C261.1,165.08,261.1,164.98,261.1,164.88z"/>
	<path class="st36" d="M263.6,136.37c0.14-0.24,0.37-0.2,0.59-0.22c0.33,0.31,0.32,0.7,0.27,1.1c-0.36,0.41-0.87,0.36-1.33,0.46
		c-0.42,0.01-0.85,0.01-1.27,0c-0.5,0.01-0.96-0.13-1.35-0.45l0,0.01c-0.28-0.67-0.15-1.06,0.67-0.99
		C261.98,136.4,262.79,136.36,263.6,136.37z"/>
	<path class="st55" d="M265.39,128.66c0.2,0.07,0.39,0.14,0.59,0.22c0.31,0.17,0.62,0.22,0.92-0.02c0.25-0.49,0.6-0.37,0.97-0.15
		c0.9,0.4,0.61,0.88,0.1,1.38c-0.07,0.17-0.22,0.14-0.36,0.14c-0.62-0.15-1.3,0.17-1.9-0.24c-0.1,0.01-0.2,0.02-0.3,0.03
		C265.09,129.57,265.03,129.12,265.39,128.66z"/>
	<path class="st56" d="M268.44,164.65c-0.01,0.2-0.01,0.4-0.02,0.6c-0.24,0.33-0.61,0.38-0.96,0.47c-0.43,0-0.87,0.1-1.27-0.15
		c-0.56-0.06-1.16-0.09-1.05-0.92c0.18-0.19,0.4-0.11,0.61-0.1c0.31,0.12,0.63,0.07,0.95,0.09c0.37-0.02,0.76,0.04,1.12-0.09
		C268.04,164.54,268.26,164.45,268.44,164.65z"/>
	<path class="st57" d="M266.19,165.57c0.47,0,0.94-0.01,1.41-0.01c0.1,0.04,0.17,0.11,0.21,0.21c-0.67,0.29-1.35,0.31-2.02-0.02
		C265.93,165.69,266.06,165.63,266.19,165.57z"/>
	<path class="st58" d="M269.36,136.12c0.29,0.1,0.57,0.19,0.86,0.29c0.06,0.08,0.07,0.17,0.02,0.26c-0.26,0.22-0.29,0.57-0.48,0.82
		c-0.07,0-0.13,0-0.2,0.02C269.28,137.08,269.26,136.61,269.36,136.12z"/>
	<path class="st59" d="M263.18,137.53c0.43-0.09,0.86-0.19,1.28-0.28c0,0.16,0,0.32,0,0.48c-0.28,0.01-0.56,0.02-0.84,0.02
		C263.43,137.78,263.15,137.95,263.18,137.53z"/>
	<path class="st60" d="M263.17,166.22c0.43-0.09,0.87-0.18,1.3-0.26c0,0.15,0,0.31,0,0.46c-0.36,0-0.72,0-1.07,0
		C263.17,166.52,263.13,166.41,263.17,166.22z"/>
	<path class="st61" d="M267.81,165.76c-0.07-0.07-0.14-0.14-0.21-0.21c0.28-0.1,0.55-0.2,0.83-0.31c0.01,0.17,0.01,0.34,0.02,0.5
		C268.23,165.62,268.02,165.73,267.81,165.76z"/>
	<path class="st62" d="M268.44,164.65c-0.2,0-0.41,0.01-0.61,0.01c-0.23,0.1-0.28-0.01-0.24-0.21c0.29-0.1,0.57-0.19,0.86-0.29
		C268.44,164.33,268.44,164.49,268.44,164.65z"/>
	<path class="st4" d="M265.76,164.67c-0.21-0.01-0.41-0.02-0.62-0.03c0-0.16,0.01-0.32,0.01-0.48c0.28,0.1,0.56,0.2,0.85,0.3
		C266.04,164.66,265.99,164.76,265.76,164.67z"/>
	<path class="st43" d="M269.3,142.16c-0.13-0.01-0.26-0.01-0.39-0.02c0.03-0.18-0.14-0.49,0.17-0.49
		C269.32,141.65,269.32,141.94,269.3,142.16z"/>
	<path class="st53" d="M281.45,133.52c0.47,0.34,0.39,0.85,0.39,1.33c0,9.79-0.01,19.57-0.01,29.36c0,0.11,0.03,0.22,0.04,0.33
		c-0.1,0.49-0.48,0.57-0.89,0.61c-0.77,0.02-1.54,0.02-2.31,0c-0.41-0.03-0.79-0.1-0.92-0.57c0-9.95,0.01-19.9,0.01-29.85
		c0-0.4-0.07-0.81,0.12-1.19c0.15-0.19,0.34-0.17,0.54-0.1c0.32,0.25,0.68,0.26,1.06,0.19c0.19-0.01,0.38,0.02,0.58,0.05
		c0.39,0.05,0.78,0.03,1.12-0.19C281.27,133.45,281.36,133.46,281.45,133.52z"/>
	<path class="st17" d="M281.88,129.66c-0.19,0.91,0.17,1.87-0.19,2.77c-0.3,0.28-0.67,0.42-1.07,0.47c-0.49,0.05-0.99,0-1.48,0.09
		c-0.22,0.02-0.43-0.04-0.64-0.11c-0.28-0.13-0.63-0.17-0.75-0.53c0.08-0.91-0.39-2.09,0.19-2.64c0.57-0.54,1.74,0.11,2.64-0.14
		C281.03,129.44,281.48,129.24,281.88,129.66z"/>
	<path class="st26" d="M276.59,168.12c-1.6,0.53-3.21,0.78-4.86,0.27c-0.21-0.37,0.04-0.8-0.17-1.17c0.12-0.34-0.23-0.76,0.19-1.04
		c0.1-0.06,0.2-0.08,0.31-0.05c0.83,0.3,1.67,0.3,2.51,0.02c0.32-0.16,0.66-0.25,1.02-0.26c0.37,0.01,0.75-0.02,1,0.35
		C276.59,166.87,276.59,167.5,276.59,168.12z"/>
	<path class="st17" d="M281.87,166.03c-0.01,0.18,0.02,0.38-0.02,0.55c-0.17,0.59,0.43,1.42-0.41,1.76
		c-1.12,0.45-2.3,0.42-3.43-0.05c-0.38-0.16-0.23-0.58-0.25-0.89c-0.02-0.4-0.03-0.81-0.04-1.21c0.27-0.55,0.75-0.32,1.17-0.31
		c0.64,0.01,1.29,0.07,1.93-0.06c0.11-0.03,0.21-0.05,0.32-0.07C281.42,165.74,281.71,165.71,281.87,166.03z"/>
	<path class="st47" d="M287.43,167.05c0.26,1.2-0.27,1.62-1.44,1.64c-0.77,0.01-1.53,0.05-2.3-0.06c-1.28-0.17-1.41-0.39-0.92-1.71
		c0.34-0.16,0.72-0.15,1.08-0.24c0.15-0.02,0.31-0.01,0.45,0.03c0.36,0.23,0.74,0.39,1.17,0.16c0.31-0.15,0.65-0.14,0.98-0.14
		C286.79,166.79,287.15,166.79,287.43,167.05z"/>
	<path class="st32" d="M284.32,166.84c-0.14,0-0.28,0-0.41,0c-0.36,0.22-0.77,0.06-1.15,0.11c-0.07-0.11-0.14-0.22-0.21-0.33
		c0.01-0.3,0.02-0.59,0.02-0.89c0.24-0.25,0.57-0.31,0.88-0.4c0.97-0.09,1.93,0.05,2.9,0.04c0.38,0.07,0.78,0.07,1.09,0.35
		c0,0.3-0.01,0.6-0.01,0.9c-0.34,0.26-0.69,0.47-1.12,0.21c-0.21,0.06-0.42,0.12-0.63,0.19
		C285.2,167.11,284.74,167.14,284.32,166.84z"/>
	<path class="st63" d="M269.76,137.49c-0.09-0.43-0.61-1.07,0.46-0.92c0.64-0.21,1.34,0.11,1.97-0.18c0.04-0.02,0.08-0.02,0.12-0.01
		c0.32-0.03,0.63,0.08,0.96,0.06c0.15-0.31,0.44-0.26,0.71-0.28c0.22,0.02,0.41,0.03,0.43,0.35c0.02,0.35-0.29,0.37-0.45,0.54
		c-0.23,0.08-0.46,0.15-0.69,0.23c-0.55,0.13-1.1,0.19-1.66,0.21c-0.37-0.03-0.76,0.08-1.09-0.18
		C270.27,137.37,270.02,137.43,269.76,137.49z"/>
	<path class="st55" d="M278.56,132.65c0.13,0.07,0.27,0.13,0.4,0.2c0.54-0.01,1.08,0.07,1.61-0.07c0.38,0.01,0.72-0.27,1.11-0.13
		c0.32,0.4,0.17,0.67-0.24,0.87c-0.09,0.01-0.17,0.02-0.26,0.03c-0.28,0.59-0.92,0.09-1.29,0.42c-0.14-0.08-0.28-0.15-0.42-0.23
		c-0.39,0.16-0.77,0.24-1.05-0.19c-0.19,0-0.37-0.01-0.56-0.01c-0.18-0.25-0.14-0.53-0.12-0.81
		C277.98,132.27,278.31,132.83,278.56,132.65z"/>
	<path class="st64" d="M277.73,165.5c0-0.13,0-0.27,0-0.4c0.23-0.24,0.52-0.09,0.78-0.12c0.26,0.09,0.54,0.11,0.81,0.1
		c0.33,0,0.67,0,1,0c0.17,0,0.34,0,0.51,0c0.29,0.01,0.59,0.01,0.72,0.35c0.07,0.42-0.36,0.36-0.54,0.55l0.03-0.02
		c-0.67,0.24-1.36,0.05-2.04,0.11C278.54,165.95,278.03,165.97,277.73,165.5z"/>
	<path class="st9" d="M276.59,166.24c-0.35-0.03-0.69-0.05-1.04-0.08c-0.16-0.37,0.49-0.45,0.29-0.83c0-0.1,0.03-0.18,0.1-0.24
		c0.13-0.01,0.27-0.02,0.4-0.02C277.03,165.33,276.44,165.86,276.59,166.24z"/>
	<path class="st65" d="M276.86,163.26c0.13-0.14,0.25-0.28,0.38-0.42c0,0.46,0,0.92,0,1.47
		C276.71,164.02,276.82,163.63,276.86,163.26z"/>
	<path class="st66" d="M287.43,165.72c-0.35-0.18-0.82,0.29-1.11-0.2c0.26-0.5,0.63-0.52,1.07-0.23c0.05-0.04,0.09-0.04,0.12,0.01
		C287.49,165.44,287.46,165.58,287.43,165.72z"/>
	<path class="st58" d="M277.73,165.5c0.36,0.16,0.73,0.32,1.09,0.48c0.07,0.04,0.09,0.07,0.07,0.11c-0.02,0.04-0.05,0.06-0.07,0.06
		c-0.37,0.05-0.75-0.34-1.1,0.04C277.72,165.96,277.72,165.73,277.73,165.5z"/>
	<path class="st30" d="M286.3,166.84c0.37-0.07,0.75-0.14,1.12-0.21c0,0.14,0,0.28,0.01,0.43
		C287.07,166.88,286.59,167.37,286.3,166.84z"/>
	<path class="st67" d="M281.01,165.97c0.15-0.14,0.31-0.29,0.46-0.43c0.12-0.16,0.25-0.15,0.39-0.04c0.04-0.01,0.08-0.01,0.11,0.02
		c-0.04,0.17-0.08,0.34-0.12,0.51C281.58,166.01,281.3,165.99,281.01,165.97z"/>
	<path class="st20" d="M281.88,129.66c-0.41-0.27-0.87,0.02-1.3-0.1c0.09-0.18,0.26-0.22,0.44-0.23
		C281.33,129.37,281.73,129.19,281.88,129.66z"/>
	<path class="st59" d="M278.6,165.08c-0.29,0.01-0.58,0.01-0.87,0.02c0.01-0.17,0.01-0.35,0.02-0.52c0.19,0.33,0.53,0.27,0.84,0.31
		c0.06,0.04,0.08,0.08,0.06,0.12C278.63,165.05,278.61,165.08,278.6,165.08z"/>
	<path class="st49" d="M282.76,166.95c0.36-0.28,0.76-0.11,1.15-0.11c-0.34,0.53-0.75,0.19-1.15,0.09
		C282.76,166.93,282.76,166.95,282.76,166.95z"/>
	<path class="st16" d="M278.56,132.65c-0.24,0.37-0.56-0.14-0.81,0.08c0-0.13,0-0.26-0.01-0.39
		C278.02,132.44,278.29,132.55,278.56,132.65z"/>
	<path class="st0" d="M287.39,165.28c-0.36,0.08-0.71,0.16-1.07,0.23c-0.94,0.31-1.87-0.02-2.81-0.01
		c-0.36,0.14-0.66,0.01-0.92-0.24c-0.05-6.68-0.13-13.37,0.04-20.05c0.17-0.22,0.37-0.36,0.67-0.3c0.37,0.18,0.76,0.26,1.17,0.23
		c0.42,0,0.83,0,1.25-0.01c0.32,0.03,0.59-0.12,0.85-0.27c0.22-0.06,0.42-0.06,0.59,0.12c0.16,0.24,0.28,0.48,0.28,0.8
		C287.42,152.28,287.41,158.78,287.39,165.28z"/>
	<path class="st17" d="M286.54,141.69c1.05,0,1.2,0.39,0.68,1.8c-0.14,0.11-0.3,0.1-0.46,0.07c-1.16,0.24-2.33,0.2-3.5,0.16
		c-0.18-0.03-0.34-0.1-0.48-0.21c-0.06-0.05-0.13-0.07-0.2-0.07c-0.27-0.44-0.1-0.93-0.11-1.39c0-0.56,0.36-0.53,0.75-0.39
		c0.18,0.09,0.36,0.13,0.55,0.04c0.74,0.15,1.49,0.15,2.23,0C286.18,141.81,286.36,141.79,286.54,141.69z"/>
	<path class="st32" d="M283.16,143.49c1.18-0.14,2.39,0.13,3.56-0.2c0.02,0.07,0.03,0.14,0.05,0.21c-0.01,0.2-0.06,0.34-0.3,0.21
		c0.1,0.22,0.25,0.03,0.37,0.03c0.22-0.02,0.41,0.04,0.59,0.16c-0.05,0.38,0.21,0.83-0.26,1.11c-0.19,0-0.38,0-0.57,0
		c-0.78,0.44-1.63,0.14-2.44,0.23c-0.35,0.01-0.69-0.04-1-0.23c-0.14,0.15-0.29,0.25-0.51,0.23c0.04-0.53-0.37-1.1,0.16-1.57
		c0.5,0.14,1.02,0.15,1.54,0.14c0.33,0,0.66-0.01,0.8,0c-0.15,0.07-0.51-0.04-0.85-0.01C283.91,143.67,283.42,144.03,283.16,143.49z
		"/>
	<path class="st20" d="M283.23,141.67c-0.43-0.03-0.78,0-0.68,0.6c0.06,0.39,0.03,0.78,0.04,1.18c-0.65-0.57-0.23-1.23-0.09-1.82
		C282.55,141.35,282.98,141.42,283.23,141.67z"/>
	<path class="st20" d="M286,141.7c-0.74,0.23-1.48,0.18-2.23,0C284.52,141.7,285.26,141.7,286,141.7z"/>
	<path class="st40" d="M283.16,143.49c0.34,0.33,0.79,0.07,1.16,0.22c0.08,0.04,0.1,0.08,0.08,0.12c-0.02,0.04-0.05,0.06-0.07,0.06
		c-0.54,0.08-1.06,0.07-1.54-0.23c-0.02-0.04-0.02-0.09-0.01-0.14C282.91,143.5,283.04,143.5,283.16,143.49z"/>
	<path class="st68" d="M282.59,165.27c0.31,0.08,0.62,0.16,0.92,0.24c-0.22,0.46-0.64,0.11-0.95,0.23
		C282.58,165.58,282.59,165.42,282.59,165.27z"/>
	<path class="st18" d="M281.69,132.65c-0.36,0.11-0.71,0.27-1.1,0.21c-0.05-0.05-0.07-0.1-0.04-0.14c0.02-0.04,0.04-0.06,0.06-0.06
		c0.36-0.08,0.72-0.16,1.08-0.24C281.69,132.5,281.69,132.58,281.69,132.65z"/>
	<path class="st69" d="M281.87,165.5c-0.13,0.01-0.26,0.03-0.39,0.04c-0.17-0.29-0.46-0.23-0.72-0.27c0-0.22,0.14-0.29,0.33-0.3
		c0.27,0.05,0.58-0.14,0.8,0.15C281.88,165.24,281.88,165.37,281.87,165.5z"/>
	<path class="st23" d="M281.89,165.12c-0.27-0.22-0.57-0.01-0.86-0.06c-0.08-0.04-0.11-0.09-0.08-0.13
		c0.03-0.04,0.05-0.06,0.08-0.06c0.31-0.04,0.6-0.12,0.84-0.34C281.88,164.73,281.88,164.92,281.89,165.12z"/>
	<path class="st13" d="M261.39,136.42c-0.75-0.2-1.06,0.07-0.87,0.85c-0.2-0.38-0.66-0.77,0.04-1.12c0.28-0.12,0.55,0,0.82,0.05
		c0.06,0.05,0.08,0.09,0.06,0.14C261.42,136.4,261.41,136.42,261.39,136.42z"/>
	<path class="st70" d="M260.5,165.97c0.36,0.09,0.72,0.18,1.09,0.27c0.01,0.04,0.02,0.09,0.02,0.13c-0.37,0-0.74,0-1.11,0
		c-0.02-0.07-0.04-0.14-0.06-0.21C260.46,166.1,260.48,166.04,260.5,165.97z"/>
	<path class="st4" d="M260.51,137.26c0.43,0.09,0.85,0.18,1.28,0.27c-0.07,0.53-0.4,0.22-0.64,0.2c-0.2-0.06-0.41-0.11-0.61-0.17
		C260.53,137.46,260.52,137.36,260.51,137.26z"/>
	<path class="st0" d="M275.97,102.84c0.13,0.03,0.26,0.05,0.39,0.08c2.69,2.74,0.69,6.03-1.63,6.46c-1.42,0.26-3.24-0.42-4.04-1.65
		c-0.71-1.09-0.55-3.1,0.36-4.19c0.1-0.12,0-0.39,0.28-0.38c0.32,0.16,0.58-0.1,0.79-0.2C273.4,102.32,274.68,102.56,275.97,102.84z
		"/>
	<path class="st52" d="M275.97,102.84c-0.39,0.27-0.73,0.55-1.23,0.1c-0.49-0.45-1.08-0.37-1.61,0.02c-0.57,0.42-1.19,0.3-1.81,0.2
		c0.08-0.08,0.16-0.17,0.23-0.25C272.87,101.85,274.65,101.82,275.97,102.84z"/>
	<path class="st17" d="M260.28,178.74c0.33-0.57-0.7-1.85,1.05-1.75c1.85,0.11,2.2,0.32,2.19,1.93c-0.01,1.58-0.07,1.52-2.07,1.65
		C259.74,180.7,260.46,179.52,260.28,178.74z"/>
	<path class="st71" d="M261.51,182.49c-0.31-0.24-1.15,0.53-1.21-0.57c-0.04-0.66,0.08-1.06,0.88-0.94
		c0.47,0.07,0.95-0.03,1.42,0.04c0.44,0.06,0.91,0.24,0.87,0.8c-0.03,0.49-0.46,0.62-0.87,0.67
		C262.27,182.52,261.94,182.49,261.51,182.49z"/>
	<path class="st8" d="M259.65,182.94c-0.4-0.3-0.26-0.73-0.24-1.1c0.08-1.54-0.23-3.09,0.18-4.62
		C259.61,179.12,259.63,181.03,259.65,182.94z"/>
	<path class="st8" d="M262.93,182.93c-1.1,0.38-2.2,0.41-3.29-0.02C260.73,182.92,261.83,182.92,262.93,182.93z"/>
	<path class="st8" d="M263.82,182.56c-0.13,0.55-0.56,0.35-0.91,0.37C263.21,182.81,263.52,182.69,263.82,182.56z"/>
	<path class="st72" d="M292.9,180.52c-1.51,0-1.51,0-1.51-1.69c0-1.38,0.38-1.82,1.58-1.81c1.2,0,1.57,0.44,1.57,1.83
		C294.53,180.52,294.53,180.52,292.9,180.52z"/>
	<path class="st29" d="M255.87,182.95c-0.58,0-1.16,0-1.73,0c-1.5,0-1.5,0-1.36-1.54c0.35,0.04,0.44-0.34,0.71-0.42
		c0.34,0.43,0.11,1.26,0.94,1.34c0.59,0.19,1.24,0.02,1.81,0.33l0.07,0.06C256.16,182.79,256.02,182.87,255.87,182.95z"/>
	<path class="st8" d="M258.7,182.93c0.16-2.13,0.09-4.25,0.04-6.38c0.4,0.35,0.22,0.82,0.22,1.23c0.02,1.39,0.02,2.77,0,4.16
		C258.96,182.29,259.1,182.69,258.7,182.93z"/>
	<path class="st72" d="M253.43,178.72c0-0.04,0-0.07,0-0.11c0-1.61,0.74-2.09,2.26-1.46c0.87,0.36,1.12,1.18,0.84,2.68
		c-0.16,0.84-0.82,0.7-1.39,0.71C253.43,180.57,253.43,180.57,253.43,178.72z"/>
	<path class="st54" d="M254.34,182.55c-1.36,0.06-0.84-0.89-0.84-1.56c0.69,0.01,1.38-0.01,2.07,0.02c0.41,0.02,0.8,0.17,0.95,0.6
		c0.15,0.45-0.21,0.64-0.5,0.86C255.47,182.73,254.9,182.62,254.34,182.55z"/>
	<path class="st1" d="M254.34,182.55c0.56-0.03,1.12-0.05,1.68-0.08c0.07,0.06,0.15,0.13,0.22,0.19
		C255.6,182.68,254.95,182.89,254.34,182.55z"/>
	<path class="st26" d="M272.18,177.65c0.56-0.93,1.42-0.72,2.21-0.53c0.84,0.21,0.93,0.91,0.89,1.66c-0.03,0.58-0.01,1.17,0,1.75
		c0.01,0.74,0.07,1.48-0.84,1.8c-0.87,0.31-1.62,0.15-2.27-0.49C272.04,180.45,272.03,179.05,272.18,177.65z"/>
	<path class="st40" d="M272.18,177.65c-0.13,1.4-0.07,2.79-0.01,4.19C271.84,180.45,271.82,179.05,272.18,177.65z"/>
	<path class="st9" d="M262.51,188.73c0-0.08-0.01-0.15-0.01-0.23c0.31,0,0.56-0.34,0.96-0.14
		C263.25,188.84,262.87,188.76,262.51,188.73z"/>
	<path class="st73" d="M287.43,143.88c-0.41,0-0.83,0-1.25,0c0-0.44,0.5-0.12,0.59-0.39c0.15,0,0.3,0,0.45,0.01
		C287.29,143.63,287.36,143.75,287.43,143.88z"/>
	<path class="st74" d="M275.96,165.27c1.06,0.84-0.39,0.54-0.4,0.89c-0.33-0.02-0.63,0.07-0.91,0.24c-0.86-0.06-1.75,0.17-2.59-0.19
		c-0.11-0.01-0.21-0.02-0.32-0.03c-0.35-0.15-0.26-0.31-0.01-0.48c0.28-0.14,0.57-0.19,0.88-0.18c0.41,0,0.82,0,1.23,0
		c0.33-0.01,0.67,0.03,1-0.08C275.22,165.44,275.57,165.2,275.96,165.27z"/>
	<path class="st75" d="M272.66,165.69c-0.31,0.01-0.62,0.01-0.93,0.02c0.01-0.05,0.01-0.11,0.01-0.16c0.86-0.49,1.79-0.09,2.68-0.22
		c0.12,0.14,0.36,0.03,0.45,0.22c-0.28,0.21-0.6,0.2-0.93,0.16C273.52,165.58,273.09,165.59,272.66,165.69z"/>
	<path class="st23" d="M271.56,167.22c0.06,0.39,0.12,0.78,0.17,1.17C271.19,168.07,271.66,167.61,271.56,167.22z"/>
	<path class="st76" d="M285.23,184.75c0.14,0.13,0.29,0.26,0.43,0.39c-0.28,0.33-0.63,0.28-1,0.22c-0.24-0.07-0.44-0.19-0.56-0.42
		c0.02-0.06,0.05-0.12,0.08-0.18c0-0.13,0.05-0.14,0.14-0.06C284.64,184.58,284.92,184.99,285.23,184.75z"/>
	<path class="st2" d="M284.11,184.93c0.15,0.07,0.38-0.03,0.44,0.21c-0.12,0.29-0.3,0.43-0.61,0.25c-0.09-0.07-0.17-0.13-0.26-0.2
		C283.83,185.11,283.97,185.02,284.11,184.93z"/>
	<path class="st0" d="M284.33,184.7c-0.03,0.05-0.08,0.07-0.14,0.06c-0.15-0.05-0.36-0.02-0.41-0.24c-0.01-0.04,0.05-0.14,0.09-0.14
		C284.13,184.32,284.22,184.52,284.33,184.7z"/>
	<path class="st12" d="M286.54,188.5c0,0.07,0,0.14,0,0.21c-0.88,0.12-1.77,0.1-2.65,0.01c0.01-0.07,0.01-0.14,0.01-0.21
		C284.78,187.94,285.66,187.94,286.54,188.5z"/>
	<path class="st26" d="M286.54,188.5c-0.88,0-1.76,0-2.64,0c-0.46-1.04-0.35-2.07,0.05-3.1c0.2-0.08,0.4-0.17,0.61-0.25
		c0.37,0,0.75-0.01,1.12-0.01c0.21,0.08,0.43,0.16,0.64,0.25C287,186.37,286.86,187.43,286.54,188.5z"/>
	<path class="st17" d="M265.84,185.4c0.2-0.09,0.41-0.18,0.61-0.27c0.37,0,0.75,0.01,1.12,0.01c0.3,0.15,0.59,0.3,0.89,0.46
		c0.11,1.38,0.22,2.76-0.05,4.14c-0.26,0.2-0.73,0.22-0.61,0.73c-0.51-0.1-1.03-0.2-1.54-0.3c-0.21-0.23-0.64-0.24-0.67-0.64
		C265.5,188.14,265.15,186.74,265.84,185.4z"/>
	<path class="st77" d="M269.14,189.35c-0.01-1.18-0.02-2.35-0.04-3.53C269.49,186.99,269.43,188.17,269.14,189.35z"/>
	<path class="st0" d="M278.38,187.8c0-0.35,0-0.71,0-1.06C278.61,187.11,278.7,187.47,278.38,187.8
		C278.38,187.8,278.38,187.8,278.38,187.8z"/>
	<path class="st21" d="M270.52,137.31c0.34,0,0.68,0.01,1.02,0.01c0.29,0.19,0.69-0.09,0.96,0.22
		C271.83,137.57,271.11,138.07,270.52,137.31z"/>
	<path class="st78" d="M274.87,165.54c-0.15-0.07-0.3-0.14-0.45-0.22c0.51-0.08,1.02-0.16,1.53-0.24c0,0.06,0,0.12,0.01,0.18
		C275.62,165.47,275.26,165.55,274.87,165.54z"/>
	<path class="st21" d="M272.51,137.53c-0.32-0.08-0.69,0.06-0.96-0.22c0.57-0.04,1.15-0.16,1.72-0.04
		C273.13,137.7,272.76,137.46,272.51,137.53z"/>
	<path class="st79" d="M265.72,129.98c0.62,0.14,1.31-0.2,1.9,0.24C266.94,130.44,266.26,130.76,265.72,129.98z"/>
	<path class="st56" d="M266.24,164.41c0.37,0,0.74,0,1.1,0c0,0.52-0.41,0.25-0.64,0.33C266.5,164.7,266.18,164.83,266.24,164.41z"/>
	<path class="st80" d="M266.68,164.64c0.22-0.08,0.5,0.01,0.66-0.22c0.08,0.01,0.16,0.03,0.24,0.04c0.08,0.07,0.16,0.14,0.24,0.21
		c-0.36,0.18-0.74,0.23-1.14,0.16c-0.07-0.04-0.1-0.08-0.07-0.13C266.64,164.66,266.66,164.64,266.68,164.64z"/>
	<path class="st81" d="M266.68,164.64c0,0.06,0,0.13,0,0.19c-0.32,0.03-0.64,0.05-0.92-0.16c0.08-0.07,0.16-0.14,0.24-0.21
		c0.08-0.01,0.16-0.03,0.24-0.04C266.39,164.49,266.54,164.56,266.68,164.64z"/>
	<path class="st82" d="M261.15,137.73c0.21-0.08,0.48,0.02,0.64-0.2c0.46,0,0.92,0,1.39,0c0.15,0.08,0.3,0.15,0.45,0.23
		C262.8,138.03,261.97,138.04,261.15,137.73z"/>
	<path class="st6" d="M272.2,136.39c-0.62,0.52-1.31,0.18-1.97,0.18c0.01-0.06,0.01-0.11-0.01-0.17
		C270.88,136.4,271.54,136.39,272.2,136.39z"/>
	<path class="st83" d="M273.28,136.44c-0.34,0.29-0.65,0.19-0.96-0.06C272.66,136.06,272.97,136.13,273.28,136.44z"/>
	<path class="st73" d="M266.9,128.86c0.11,0.02,0.24,0,0.31,0.06c0.07,0.05,0.08,0.2-0.07,0.21c-0.41,0.03-0.85,0.19-1.16-0.25
		C266.29,128.87,266.59,128.86,266.9,128.86z"/>
	<path class="st84" d="M261.39,136.42c-0.01-0.07-0.01-0.15-0.02-0.22c0.74,0.07,1.5-0.11,2.23,0.17
		C262.87,136.55,262.13,136.65,261.39,136.42z"/>
	<path class="st85" d="M261.61,166.37c-0.04-0.04-0.05-0.08-0.02-0.13c0.53-0.01,1.06-0.02,1.58-0.02c0.08,0.07,0.15,0.13,0.23,0.2
		C262.8,166.64,262.2,166.75,261.61,166.37z"/>
	<path class="st20" d="M262.49,165.1c0.38-0.05,0.77-0.14,1.26,0.03c-0.47,0.24-0.87,0.15-1.26,0.12c-0.07-0.03-0.1-0.07-0.07-0.1
		C262.44,165.12,262.47,165.1,262.49,165.1z"/>
	<path class="st9" d="M262.49,165.1c0,0.05,0,0.1,0,0.15c-0.46,0.04-0.92,0.11-1.36-0.12c0,0-0.02,0.03-0.02,0.03
		C261.55,164.92,262.02,165.05,262.49,165.1z"/>
	<path class="st75" d="M281.03,164.87c-0.02,0.06-0.02,0.13,0,0.19c-0.09,0.07-0.18,0.14-0.28,0.21c-0.14-0.01-0.28-0.01-0.42-0.02
		c-0.35-0.12-0.7-0.12-1.05,0c-0.26,0.04-0.5,0.04-0.68-0.18c-0.01-0.06-0.01-0.13-0.01-0.19
		C279.4,164.88,280.22,164.88,281.03,164.87z"/>
	<path class="st86" d="M279.91,133.97c0.31-0.5,0.94-0.02,1.29-0.42C280.99,134.39,280.35,133.88,279.91,133.97z"/>
	<path class="st87" d="M278.44,133.55c0.31,0.28,0.7,0.12,1.05,0.19C279.05,134.16,278.68,134.22,278.44,133.55z"/>
	<path class="st88" d="M280.6,132.67c0,0.07-0.01,0.13-0.02,0.2c-0.54,0.33-1.08,0.28-1.62-0.01
		C279.47,132.45,280.06,132.71,280.6,132.67z"/>
	<path class="st89" d="M272.06,166.21c0.87,0.02,1.74-0.08,2.59,0.19C273.76,166.62,272.87,167,272.06,166.21z"/>
	<path class="st52" d="M274.92,167.05c0.28,0.1,0.56,0.21,0.91,0.34c-0.44,0.2-0.72,0.06-0.98-0.15
		C274.85,167.23,274.89,167.14,274.92,167.05z"/>
	<path class="st90" d="M278.82,166.14c0-0.06,0-0.11,0-0.17c0.74-0.01,1.48-0.01,2.22-0.02
		C280.34,166.43,279.57,166.13,278.82,166.14z"/>
	<path class="st91" d="M284.32,166.84c0.46,0.01,0.92-0.03,1.35,0.18C285.18,167.28,284.69,167.52,284.32,166.84z"/>
	<path class="st33" d="M279.28,165.26c0.35-0.24,0.7-0.25,1.05,0C279.98,165.26,279.63,165.26,279.28,165.26z"/>
	<path class="st92" d="M284.12,145.04c0.82-0.02,1.65-0.03,2.47-0.05c-0.05,0.49-0.38,0.47-0.74,0.41
		c-0.47-0.16-0.96-0.03-1.44-0.08C284.23,145.31,284.08,145.26,284.12,145.04z"/>
	<path class="st93" d="M284.12,145.04c0.08,0.06,0.15,0.12,0.23,0.18c0.06,0.04,0.08,0.08,0.06,0.13c-0.02,0.04-0.04,0.06-0.06,0.06
		c-0.47,0.04-0.94,0.1-1.2-0.42C283.47,145,283.79,145.02,284.12,145.04z"/>
	<path class="st94" d="M284.35,145.41c-0.01-0.06-0.01-0.13,0-0.19c0.5,0.09,1.04-0.16,1.5,0.18
		C285.35,145.4,284.85,145.41,284.35,145.41z"/>
	<path class="st66" d="M284.33,143.88c-0.01-0.06-0.01-0.12-0.01-0.18c0.43,0,0.85,0,1.5,0
		C285.19,144.04,284.76,143.95,284.33,143.88z"/>
	<path class="st95" d="M272.66,165.69c0.43-0.25,0.86-0.24,1.28,0C273.52,165.69,273.09,165.69,272.66,165.69z"/>
</g>
</svg>
