<?xml version="1.0" encoding="utf-8"?>
<!-- Generator: Adobe Illustrator 25.2.1, SVG Export Plug-In . SVG Version: 6.00 Build 0)  -->
<svg version="1.1" id="Layer_1" xmlns="http://www.w3.org/2000/svg" xmlns:xlink="http://www.w3.org/1999/xlink" x="0px" y="0px"
	 viewBox="0 0 48 48" style="enable-background:new 0 0 48 48;" xml:space="preserve">
<style type="text/css">
	.st0{fill:#FDFDFD;}
	.st1{fill:#F6CFC8;}
	.st2{fill:#1D1D1B;}
	.st3{fill:#A9A9A9;}
	.st4{fill:#2A2929;}
	.st5{fill:#1E1E1E;}
	.st6{fill:#929292;}
	.st7{fill:#423A39;}
	.st8{fill:#CDCDCD;}
	.st9{fill:#4A4A4A;}
	.st10{fill:#272727;}
	.st11{fill:#282626;}
	.st12{fill:#A3A3A3;}
	.st13{fill:#2B2B2B;}
	.st14{fill:#2B2A29;}
	.st15{fill:#BBBBBB;}
	.st16{fill:#0F0F0F;}
	.st17{fill:#393939;}
	.st18{fill:#4E4E4E;}
	.st19{fill:#9F9F9F;}
	.st20{fill:#AEAEAE;}
	.st21{fill:#070707;}
	.st22{fill:#FEFEFE;}
	.st23{fill:#F9F9F9;}
	.st24{fill:#F2F2F2;}
	.st25{fill:#727272;}
	.st26{fill:#787878;}
	.st27{fill:#9D9D9D;}
	.st28{fill:#8F8F8F;}
	.st29{fill:#C5C5C5;}
	.st30{fill:#C4C4C4;}
	.st31{fill:#BCBCBC;}
	.st32{fill:#B8B8B8;}
	.st33{fill:#E7E7E7;}
	.st34{fill:#898989;}
	.st35{fill:#8D8D8D;}
	.st36{fill:#F7F7F7;}
	.st37{fill:#626262;}
	.st38{fill:#838383;}
	.st39{fill:#A8A8A8;}
	.st40{fill:#DADADA;}
	.st41{fill:#BFBFBF;}
	.st42{fill:#C7C7C7;}
	.st43{fill:#B7B7B7;}
	.st44{fill:#ADADAD;}
	.st45{fill:#FBFBFB;}
	.st46{fill:#D7D7D7;}
	.st47{fill:#999999;}
	.st48{fill:#9A9A9A;}
	.st49{fill:#F4F4F4;}
	.st50{fill:#1A1A1A;}
	.st51{fill:#CFCFCF;}
	.st52{fill:#DFDFDF;}
	.st53{fill:#B0B0B0;}
	.st54{fill:#A0A0A0;}
	.st55{fill:#BABABA;}
	.st56{fill:#786562;}
	.st57{fill:#808080;}
	.st58{fill:#CCCCCC;}
	.st59{fill:#949494;}
	.st60{fill:#909090;}
	.st61{fill:#C3C3C3;}
	.st62{fill:#C0C0C0;}
	.st63{fill:#EFEFEF;}
	.st64{fill:#EEEEEE;}
	.st65{fill:#202020;}
	.st66{fill:#BDB3B1;}
	.st67{fill:#BDBDBD;}
	.st68{fill:#E3E3E3;}
	.st69{fill:#B5B5B5;}
	.st70{fill:#F8F8F8;}
	.st71{fill:#6B6B6B;}
	.st72{fill:#E4E4E4;}
	.st73{fill:#D0D0D0;}
	.st74{fill:#555555;}
	.st75{fill:#D6D6D6;}
	.st76{fill:#EAEAEA;}
	.st77{fill:#DFD7D5;}
	.st78{fill:#010101;}
	.st79{fill:#030202;}
	.st80{fill:#030302;}
	.st81{fill:#040303;}
	.st82{fill:#050404;}
	.st83{fill:#060505;}
	.st84{fill:#070606;}
	.st85{fill:#070605;}
	.st86{fill:#131010;}
	.st87{fill:#0F0C0C;}
	.st88{fill:#3D3331;}
	.st89{fill:#5F504D;}
	.st90{fill:#544744;}
	.st91{fill:#302826;}
	.st92{fill:#947D79;}
	.st93{fill:#FCFCFC;}
</style>
<g>
	<path class="st0" d="M24,31.23c-6.38,0-12.76,0-19.14,0c-0.07,0-0.09-0.02-0.09-0.09c0-4.76,0-9.53,0-14.29
		c0-0.07,0.01-0.09,0.09-0.09c12.76,0,25.51,0,38.27,0c0.08,0,0.09,0.02,0.09,0.09c0,4.76,0,9.53,0,14.29
		c0,0.07-0.01,0.08-0.08,0.08C36.76,31.23,30.38,31.23,24,31.23z"/>
	<path d="M10.55,17.7c0.12,0.26,0.15,0.53,0.17,0.81c0.02,0.4-0.02,0.79-0.08,1.18c0,0.01-0.01,0.02,0,0.03c0,0,0.01-0.01,0.01-0.01
		c0.1-0.3,0.16-0.61,0.23-0.92c0,0.44-0.11,0.87-0.18,1.31c0.32-0.58,0.44-1.21,0.46-1.87c0.17,0.55,0.15,1.11,0.16,1.69
		c0.05-0.09,0.06-0.17,0.07-0.25c0.03-0.25,0.02-0.5,0.02-0.76c0-0.05-0.03-0.1,0.01-0.14c0.08,0.31,0.11,0.62,0.15,0.94
		c0.03,0.27,0.05,0.53,0.08,0.82c0.1-0.12,0.12-0.25,0.14-0.38c0.03-0.27,0.02-0.55-0.01-0.82c0-0.04,0-0.08-0.01-0.12
		c0-0.03-0.03-0.06,0.02-0.07c0.13,0.31,0.22,0.64,0.33,0.98c0.08-0.23,0.02-0.44,0.01-0.64c0.18,0.45,0.18,0.91,0.18,1.39
		c0.15-0.15,0.31-0.25,0.49-0.35c0.02-0.01,0.03,0,0.02,0.02c-0.1,0.12-0.19,0.25-0.24,0.4c0.22-0.26,0.5-0.35,0.83-0.3
		c-0.2,0.09-0.32,0.25-0.43,0.43c0.08-0.01,0.14-0.07,0.24-0.07c-0.16,0.11-0.27,0.25-0.37,0.4c0.03,0.02,0.05-0.03,0.08,0
		c-0.14,0.16-0.17,0.37-0.23,0.57c-0.01,0.04,0,0.05,0.04,0.05c0.22,0,0.29,0.06,0.31,0.28c0.02,0.25-0.01,0.49-0.08,0.73
		c-0.02,0.05-0.02,0.09,0,0.14c0.07,0.22,0.03,0.41-0.14,0.58c0.07,0.01,0.12,0.02,0.14,0.09c0.05,0.34,0.11,0.67,0.12,1.02
		c0.01,0.31-0.12,0.54-0.43,0.65c-0.17,0.07-0.35,0.06-0.52,0.01c-0.3-0.09-0.59-0.21-0.89-0.3c-0.56-0.17-1.12-0.35-1.7-0.44
		c-0.19-0.03-0.38-0.02-0.57-0.02c-0.68-0.01-1.31,0.22-1.95,0.4c-0.36,0.1-0.7,0.24-1.06,0.36c-0.16,0.05-0.33,0.05-0.49,0.01
		c-0.02-0.01-0.04-0.03-0.06-0.04c-0.22-0.06-0.36-0.24-0.39-0.49c-0.03-0.24,0.02-0.47,0.04-0.7c0.01-0.14,0.04-0.28,0.06-0.42
		c0.01-0.08,0.04-0.12,0.12-0.12c0.01-0.03-0.01-0.03-0.02-0.05c-0.15-0.17-0.16-0.37-0.09-0.57c0.01-0.03,0-0.05-0.01-0.09
		c-0.07-0.27-0.13-0.55-0.07-0.83c0.03-0.15,0.12-0.21,0.27-0.19c0.08,0.01,0.11,0,0.12-0.1c0.01-0.18,0.05-0.36,0.18-0.51
		c-0.37-0.16-0.63-0.41-0.75-0.8c-0.1-0.3-0.1-0.6-0.03-0.91c0.05,0.24,0.13,0.46,0.23,0.67c0.03,0.02,0.02,0,0.02-0.02
		c-0.04-0.29-0.07-0.57-0.06-0.86C5.08,18.7,5.34,18,5.9,17.43c0.02-0.02,0.04-0.04,0.06-0.05c0.01,0,0.02-0.01,0.04-0.02
		c-0.3,0.44-0.41,0.92-0.49,1.42c0.05-0.1,0.1-0.2,0.15-0.3c-0.05,0.27-0.08,0.54-0.09,0.81c-0.01,0.03-0.01,0.06,0,0.08
		c0,0-0.01,0.01,0,0.01c0.01,0,0.01-0.01,0.01-0.02c0.04-0.08,0.07-0.17,0.11-0.25c0.03,0.51,0.21,0.97,0.42,1.43
		c0.01,0,0.01,0.02,0.02,0.01c0.01-0.01,0-0.02,0-0.03c-0.1-0.39-0.08-0.78-0.05-1.17c0.02-0.19,0.04-0.38,0.06-0.57
		c0-0.04,0.01-0.08,0.03-0.12c0.05,0.59,0.3,1.1,0.61,1.58c-0.07-0.34-0.15-0.68-0.19-1.03c-0.01-0.02,0-0.02,0.02-0.02
		c0.05,0.14,0.11,0.26,0.21,0.41c-0.03-0.16-0.07-0.29-0.09-0.43c-0.11-0.67-0.07-1.32,0.17-1.96c0.01,0,0.03,0,0.01,0.02
		c-0.12,0.82,0.23,1.48,0.68,2.11c0.12,0.17,0.25,0.33,0.39,0.47c0.01,0,0.02,0.01,0.02,0.01c0.01-0.01,0-0.02,0-0.03
		c-0.21-0.32-0.4-0.66-0.53-1.02c-0.2-0.57-0.28-1.16-0.13-1.76c0.04-0.16,0.04-0.16,0.18-0.07c0.22,0.15,0.37,0.36,0.5,0.58
		c0.3,0.49,0.51,1.03,0.7,1.57c0.01,0.02,0.01,0.04,0.02,0.07c0.04-0.09,0.04-0.2,0-0.37c-0.07-0.41-0.23-0.79-0.41-1.16
		c-0.06-0.13-0.13-0.26-0.19-0.39c0.45,0.43,0.66,0.98,0.8,1.57c0.02,0.02,0.02,0.04,0.02,0.07c0-0.02,0-0.03,0-0.04
		c0-0.02,0.01-0.04,0-0.06c-0.05-0.71-0.26-1.37-0.65-1.98c0.63,0.36,1.06,0.88,1.22,1.6c0.02,0.01,0.02-0.01,0.02-0.02
		c0-0.07,0.01-0.14-0.01-0.21c-0.03-0.36-0.14-0.7-0.26-1.04c-0.02-0.04-0.03-0.09-0.05-0.13C9.23,17.01,9.24,17,9.26,17
		c0.32,0.48,0.52,1.01,0.63,1.57c0.07,0.32,0.1,0.65,0.1,0.98c0.11-0.2,0.16-1.07-0.18-2.12c0.17,0.11,0.42,0.52,0.54,0.88
		c0.11,0.33,0.16,0.67,0.16,1.02c0.08-0.2,0.1-0.41,0.1-0.62c0.01-0.34-0.03-0.67-0.08-1C10.52,17.7,10.53,17.69,10.55,17.7z"/>
	<path class="st1" d="M5.48,25.49c0.2,0.04,0.4,0.03,0.59-0.04c0.72-0.26,1.44-0.5,2.19-0.66c0.28-0.06,0.56-0.07,0.85-0.07
		c0.73,0,1.4,0.24,2.09,0.45c0.27,0.08,0.54,0.18,0.81,0.28c0.2,0.07,0.39,0.1,0.59,0.05c0.02,0,0.04,0,0.05,0
		c-0.01,0.04-0.01,0.08-0.03,0.12c-0.01,0.05-0.02,0.09-0.02,0.14c0,0.01,0,0.02,0,0.03c-0.02,0.02-0.02,0.04-0.02,0.06
		c-0.05,0.24-0.09,0.48-0.13,0.73c-0.06,0.32-0.12,0.64-0.16,0.97c-0.01,0.09-0.02,0.17-0.02,0.26c-0.03,0.37-0.18,0.69-0.37,1
		c-0.19,0.31-0.43,0.56-0.74,0.74c-0.32,0.19-0.61,0.43-0.93,0.62c-0.28,0.17-0.58,0.31-0.91,0.36c-0.4,0.06-0.79-0.01-1.15-0.19
		c-0.28-0.14-0.53-0.31-0.79-0.49c-0.16-0.11-0.32-0.23-0.49-0.33c-0.36-0.21-0.61-0.53-0.8-0.89c-0.14-0.26-0.26-0.52-0.27-0.81
		c-0.01-0.23-0.04-0.46-0.08-0.68c-0.06-0.42-0.15-0.83-0.21-1.25c0-0.02-0.01-0.03-0.01-0.05c0-0.02,0-0.04-0.01-0.06
		c0-0.02-0.01-0.03-0.01-0.05c0-0.02,0-0.03,0-0.05c-0.01-0.01-0.01-0.02-0.02-0.03C5.49,25.58,5.45,25.54,5.48,25.49z"/>
	<path class="st2" d="M14.79,24.7c0-0.32,0-0.65,0-0.97c0-0.26,0.15-0.41,0.41-0.41c0.27,0,0.54,0,0.81,0
		c0.34,0,0.61,0.16,0.77,0.45c0.16,0.29,0.15,0.59-0.02,0.88c-0.02,0.04-0.02,0.06,0,0.09c0.17,0.29,0.18,0.59,0.02,0.87
		c-0.16,0.3-0.43,0.46-0.77,0.46c-0.28,0-0.56,0-0.84,0c-0.23,0-0.39-0.15-0.39-0.38C14.79,25.36,14.79,25.03,14.79,24.7z"/>
	<path class="st2" d="M24.21,28.83c0-0.32,0-0.65,0-0.97c0-0.25,0.15-0.41,0.4-0.41c0.27,0,0.54,0,0.81,0
		c0.38,0,0.72,0.23,0.84,0.58c0.13,0.36,0.02,0.75-0.29,0.99c-0.06,0.05-0.07,0.08-0.02,0.14c0.11,0.15,0.2,0.31,0.3,0.47
		c0.1,0.16,0.07,0.36-0.06,0.48c-0.14,0.12-0.36,0.13-0.5,0.01c-0.04-0.03-0.07-0.08-0.1-0.12c-0.16-0.24-0.32-0.48-0.48-0.72
		c-0.01-0.01-0.02-0.03-0.03-0.04c-0.02-0.03-0.04-0.05-0.08-0.04c-0.05,0.01-0.03,0.05-0.03,0.07c0,0.19,0,0.39,0,0.58
		c0,0.18-0.14,0.33-0.32,0.35c-0.19,0.03-0.37-0.08-0.42-0.25c-0.02-0.05-0.02-0.1-0.02-0.16C24.21,29.48,24.21,29.16,24.21,28.83z"
		/>
	<path class="st2" d="M39.81,28.61c0-0.25,0-0.51,0-0.76c0-0.23,0.16-0.39,0.38-0.39c0.22,0,0.38,0.16,0.38,0.39
		c0,0.66,0,1.31,0,1.97c0,0.19-0.1,0.33-0.26,0.38c-0.18,0.05-0.35-0.01-0.45-0.17c-0.19-0.29-0.37-0.58-0.55-0.87
		c-0.02-0.03-0.04-0.06-0.06-0.09c-0.03,0.02-0.02,0.04-0.02,0.06c0,0.23,0,0.46,0,0.7c0,0.23-0.16,0.39-0.38,0.39
		c-0.22,0-0.38-0.16-0.38-0.39c0-0.66,0-1.31,0-1.97c0-0.19,0.1-0.33,0.26-0.38c0.18-0.05,0.35,0.01,0.46,0.17
		c0.21,0.32,0.41,0.65,0.62,0.97C39.8,28.61,39.8,28.61,39.81,28.61z"/>
	<path class="st2" d="M31.29,28.64c0-0.28,0-0.54,0-0.79c0-0.23,0.16-0.39,0.38-0.39c0.22,0,0.38,0.16,0.38,0.39
		c0,0.66,0,1.31,0,1.97c0,0.19-0.1,0.33-0.26,0.38c-0.18,0.05-0.35-0.01-0.45-0.17c-0.19-0.29-0.37-0.58-0.55-0.87
		c-0.02-0.03-0.04-0.06-0.06-0.09c-0.03,0.02-0.02,0.04-0.02,0.06c0,0.23,0,0.46,0,0.7c0,0.23-0.16,0.39-0.38,0.39
		c-0.22,0-0.38-0.16-0.38-0.39c0-0.66,0-1.32,0-1.98c0-0.18,0.1-0.32,0.26-0.37c0.17-0.05,0.35,0.01,0.45,0.17
		c0.19,0.3,0.39,0.61,0.58,0.91C31.25,28.57,31.26,28.59,31.29,28.64z"/>
	<path class="st2" d="M21.28,24.93c0,0.26,0,0.51,0,0.77c0,0.17-0.1,0.3-0.25,0.36c-0.16,0.05-0.33,0-0.43-0.12
		c-0.05-0.07-0.08-0.15-0.08-0.23c0-0.67,0-1.34,0-2.01c0-0.18,0.11-0.32,0.26-0.36c0.17-0.05,0.35,0.01,0.45,0.17
		c0.21,0.32,0.41,0.65,0.62,0.98c0.03-0.02,0.01-0.04,0.01-0.06c0-0.24,0-0.48,0-0.72c0-0.21,0.16-0.38,0.38-0.38
		c0.21,0,0.38,0.16,0.38,0.37c0,0.67,0,1.35,0,2.02c0,0.17-0.11,0.31-0.27,0.36c-0.17,0.05-0.34-0.01-0.44-0.17
		c-0.19-0.29-0.37-0.58-0.55-0.87c-0.02-0.03-0.04-0.06-0.06-0.1C21.29,24.93,21.29,24.93,21.28,24.93z"/>
	<path class="st2" d="M35.09,28.84c0-0.33,0-0.65,0-0.98c0-0.26,0.15-0.41,0.41-0.41c0.44,0,0.87,0,1.31,0
		c0.18,0,0.32,0.11,0.37,0.27c0.05,0.16-0.01,0.32-0.15,0.41c-0.07,0.05-0.15,0.07-0.24,0.07c-0.29,0-0.57,0-0.86,0
		c-0.06,0-0.09,0.01-0.09,0.08c0.01,0.18,0,0.18,0.18,0.18c0.15,0,0.3,0,0.45,0c0.22,0,0.39,0.16,0.39,0.37
		c0,0.2-0.16,0.37-0.38,0.37c-0.18,0-0.37,0-0.55,0c-0.07,0-0.09,0.02-0.08,0.08c0,0.18,0,0.18,0.18,0.18c0.26,0,0.52,0,0.78,0
		c0.17,0,0.29,0.08,0.36,0.23c0.06,0.14,0.04,0.27-0.07,0.39c-0.07,0.08-0.17,0.12-0.28,0.12c-0.46,0-0.91,0-1.37,0
		c-0.21,0-0.37-0.16-0.37-0.38C35.09,29.5,35.09,29.17,35.09,28.84z"/>
	<path class="st2" d="M27.59,28.83c0-0.32,0-0.64,0-0.96c0-0.26,0.15-0.41,0.42-0.41c0.44,0,0.87,0,1.31,0
		c0.17,0,0.32,0.11,0.36,0.26c0.05,0.16-0.01,0.33-0.15,0.42c-0.07,0.05-0.15,0.06-0.24,0.06c-0.29,0-0.57,0-0.86,0
		c-0.06,0-0.09,0.01-0.09,0.08c0,0.19,0,0.19,0.19,0.19c0.15,0,0.29,0,0.44,0c0.22,0,0.39,0.16,0.39,0.37c0,0.2-0.16,0.37-0.38,0.38
		c-0.18,0-0.37,0-0.55,0c-0.06,0-0.08,0.02-0.08,0.08c0,0.18,0,0.18,0.18,0.18c0.26,0,0.52,0,0.78,0c0.24,0,0.4,0.17,0.39,0.4
		c-0.01,0.19-0.17,0.34-0.36,0.34c-0.46,0-0.93,0-1.39,0c-0.21,0-0.36-0.17-0.36-0.39C27.59,29.49,27.59,29.16,27.59,28.83z"/>
	<path class="st2" d="M21.86,28.83c0-0.32,0-0.65,0-0.97c0-0.26,0.15-0.41,0.41-0.41c0.44,0,0.87,0,1.31,0
		c0.18,0,0.32,0.11,0.37,0.27c0.05,0.16-0.01,0.32-0.15,0.41c-0.07,0.05-0.15,0.07-0.24,0.07c-0.29,0-0.57,0-0.86,0
		c-0.07,0-0.09,0.01-0.09,0.08c0.01,0.18,0,0.18,0.18,0.18c0.15,0,0.3,0,0.45,0c0.22,0,0.39,0.16,0.39,0.37
		c0,0.2-0.16,0.37-0.38,0.37c-0.18,0-0.37,0-0.55,0c-0.07,0-0.08,0.02-0.08,0.08c0,0.18,0,0.18,0.18,0.18c0.26,0,0.52,0,0.78,0
		c0.17,0,0.29,0.08,0.36,0.23c0.06,0.14,0.04,0.27-0.07,0.39c-0.07,0.08-0.17,0.12-0.28,0.12c-0.46,0-0.91,0-1.37,0
		c-0.21,0-0.37-0.16-0.37-0.38C21.86,29.5,21.86,29.17,21.86,28.83z"/>
	<path class="st2" d="M14.79,28.83c0-0.32,0-0.64,0-0.96c0-0.26,0.15-0.41,0.41-0.41c0.44,0,0.87,0,1.31,0
		c0.17,0,0.32,0.11,0.37,0.26c0.05,0.16-0.01,0.33-0.15,0.42c-0.07,0.05-0.15,0.06-0.24,0.06c-0.29,0-0.57,0-0.86,0
		c-0.06,0-0.09,0.01-0.09,0.08c0,0.19,0,0.19,0.19,0.19c0.15,0,0.29,0,0.44,0c0.22,0,0.39,0.16,0.39,0.36c0,0.2-0.16,0.37-0.38,0.38
		c-0.18,0-0.37,0-0.55,0c-0.06,0-0.08,0.02-0.08,0.08c0,0.18,0,0.18,0.19,0.18c0.26,0,0.52,0,0.78,0c0.18,0,0.33,0.11,0.37,0.27
		c0.05,0.17-0.02,0.33-0.17,0.42c-0.06,0.04-0.13,0.05-0.2,0.05c-0.45,0-0.89,0-1.34,0c-0.23,0-0.38-0.16-0.39-0.39
		C14.79,29.5,14.79,29.16,14.79,28.83z"/>
	<path class="st2" d="M22.88,24.7c0-0.32,0-0.65,0-0.97c0-0.26,0.15-0.41,0.41-0.41c0.23,0,0.46-0.01,0.68,0.05
		c0.63,0.17,1.07,0.78,1.01,1.44c-0.06,0.74-0.65,1.28-1.39,1.28c-0.11,0-0.22,0-0.33,0c-0.22,0-0.38-0.16-0.38-0.38
		C22.87,25.36,22.88,25.03,22.88,24.7z"/>
	<path class="st2" d="M32.3,28.92c0-0.91,0.72-1.55,1.54-1.46c0.36,0.04,0.65,0.2,0.89,0.45c0.13,0.14,0.13,0.37-0.01,0.51
		c-0.14,0.14-0.38,0.15-0.52,0.02c-0.11-0.1-0.23-0.2-0.38-0.23c-0.28-0.06-0.57,0.09-0.69,0.35c-0.13,0.27-0.05,0.59,0.19,0.78
		c0.23,0.18,0.54,0.18,0.77,0c0.03-0.03,0.07-0.06,0.1-0.09c0.16-0.15,0.41-0.15,0.55,0c0.15,0.16,0.13,0.37-0.03,0.54
		c-0.49,0.51-1.23,0.53-1.69,0.25C32.55,29.77,32.31,29.37,32.3,28.92z"/>
	<path class="st2" d="M18.2,28.15c0.12-0.18,0.23-0.35,0.35-0.52c0.09-0.13,0.21-0.19,0.37-0.17c0.15,0.02,0.26,0.1,0.31,0.24
		c0.04,0.13,0.04,0.26-0.04,0.38c-0.16,0.24-0.32,0.47-0.48,0.71c-0.03,0.04-0.03,0.07,0,0.12c0.16,0.24,0.32,0.48,0.48,0.73
		c0.11,0.16,0.08,0.37-0.06,0.49c-0.14,0.13-0.36,0.13-0.51,0c-0.05-0.04-0.08-0.09-0.11-0.14c-0.1-0.15-0.2-0.3-0.31-0.45
		c-0.12,0.17-0.23,0.34-0.35,0.51c-0.11,0.15-0.28,0.21-0.45,0.15c-0.23-0.07-0.33-0.36-0.2-0.56c0.16-0.24,0.32-0.49,0.48-0.73
		c0.04-0.05,0.03-0.09,0-0.14c-0.16-0.23-0.31-0.45-0.47-0.68c-0.13-0.2-0.09-0.45,0.09-0.58c0.18-0.12,0.42-0.06,0.56,0.14
		C17.98,27.82,18.09,27.98,18.2,28.15z"/>
	<path class="st2" d="M20.36,27.45c0.15,0.01,0.34-0.01,0.53,0.01c0.42,0.06,0.74,0.46,0.72,0.91c-0.02,0.42-0.37,0.79-0.78,0.82
		c-0.16,0.01-0.33,0.01-0.49,0.01c-0.06,0-0.08,0.01-0.07,0.07c0,0.18,0,0.36,0,0.54c0,0.23-0.16,0.39-0.38,0.39
		c-0.22,0-0.38-0.16-0.38-0.39c0-0.66,0-1.31,0-1.97c0-0.24,0.16-0.4,0.4-0.4C20.04,27.45,20.18,27.45,20.36,27.45z"/>
	<path class="st2" d="M40.82,28.83c0-0.33,0-0.67,0-1c0-0.17,0.1-0.3,0.25-0.36c0.16-0.06,0.32-0.01,0.43,0.11
		c0.07,0.08,0.09,0.17,0.09,0.27c0,0.5,0,1,0,1.51c0,0.08,0.01,0.11,0.1,0.1c0.28-0.01,0.56,0,0.85,0c0.24,0,0.4,0.16,0.4,0.37
		c0,0.2-0.16,0.37-0.36,0.37c-0.46,0-0.93,0-1.39,0c-0.21,0-0.36-0.17-0.36-0.39C40.82,29.5,40.82,29.16,40.82,28.83z"/>
	<path class="st2" d="M17.14,24.7c0-0.34,0-0.67,0-1.01c0-0.2,0.14-0.35,0.33-0.38c0.19-0.02,0.36,0.09,0.42,0.28
		c0.01,0.05,0.01,0.09,0.01,0.14c0,0.5,0,1.01,0,1.51c0,0.07,0.02,0.08,0.08,0.08c0.29,0,0.58,0,0.87,0c0.17,0,0.29,0.07,0.36,0.23
		c0.06,0.14,0.04,0.27-0.06,0.39c-0.07,0.08-0.16,0.13-0.27,0.13c-0.46,0-0.92,0-1.37,0c-0.21,0-0.37-0.17-0.37-0.39
		C17.14,25.36,17.14,25.03,17.14,24.7z"/>
	<path d="M5.53,25.81c0.12,0.62,0.25,1.24,0.31,1.88c0.07,0.75,0.42,1.34,1.04,1.77c0.32,0.23,0.65,0.45,0.98,0.66
		c0.27,0.18,0.57,0.31,0.89,0.36c0.46,0.07,0.88-0.02,1.28-0.24c0.25-0.13,0.48-0.29,0.71-0.46c0.24-0.18,0.52-0.31,0.74-0.52
		c0.39-0.37,0.65-0.82,0.75-1.35c0.04-0.23,0.04-0.47,0.08-0.7c0.08-0.47,0.16-0.93,0.26-1.4c0.04,0.01,0.02,0.03,0.02,0.05
		c-0.04,0.29-0.08,0.59-0.12,0.88c-0.04,0.35-0.09,0.71-0.1,1.06c-0.01,0.33-0.13,0.63-0.28,0.92c-0.2,0.39-0.48,0.71-0.86,0.94
		c-0.33,0.2-0.63,0.46-0.96,0.66c-0.39,0.23-0.8,0.39-1.27,0.38c-0.43-0.01-0.82-0.15-1.17-0.37c-0.46-0.29-0.93-0.59-1.33-0.95
		c-0.44-0.39-0.72-0.91-0.77-1.5c-0.05-0.66-0.13-1.31-0.22-1.96c0-0.02,0-0.04,0-0.06C5.51,25.85,5.49,25.82,5.53,25.81z"/>
	<path class="st2" d="M27.33,28.84c0,0.34,0,0.68,0,1.02c0,0.18-0.14,0.33-0.32,0.35c-0.19,0.03-0.36-0.07-0.42-0.24
		c-0.01-0.04-0.02-0.08-0.02-0.12c0-0.67,0-1.35,0-2.02c0-0.2,0.14-0.34,0.33-0.37c0.19-0.02,0.36,0.09,0.42,0.27
		c0.01,0.05,0.01,0.09,0.01,0.14C27.33,28.19,27.33,28.52,27.33,28.84C27.33,28.84,27.33,28.84,27.33,28.84z"/>
	<path class="st2" d="M20.26,24.7c0,0.34,0,0.68,0,1.02c0,0.18-0.14,0.33-0.32,0.36c-0.19,0.03-0.37-0.08-0.42-0.25
		c-0.02-0.05-0.02-0.09-0.02-0.14c0-0.66,0-1.32,0-1.98c0-0.21,0.13-0.36,0.33-0.39c0.19-0.03,0.36,0.09,0.42,0.27
		c0.01,0.05,0.01,0.09,0.01,0.14C20.26,24.06,20.26,24.38,20.26,24.7C20.26,24.7,20.26,24.7,20.26,24.7z"/>
	<path class="st2" d="M38.21,29.84c0,0.21-0.16,0.37-0.38,0.38c-0.22,0-0.38-0.16-0.38-0.37c0-0.2,0.17-0.37,0.38-0.37
		C38.03,29.47,38.2,29.63,38.21,29.84z"/>
	<path class="st3" d="M9.55,18.19c0.03,0.09,0.02,0.19,0,0.29c-0.03-0.02-0.03-0.04-0.02-0.06C9.58,18.35,9.53,18.27,9.55,18.19z"/>
	<path class="st4" d="M5.48,25.49c-0.02,0.05,0.03,0.09,0,0.14c-0.02-0.05-0.01-0.11-0.06-0.16C5.44,25.47,5.46,25.47,5.48,25.49z"
		/>
	<path class="st5" d="M11.42,18.77c-0.03,0.05,0,0.1-0.01,0.14c-0.02-0.07-0.01-0.14-0.02-0.22C11.41,18.72,11.41,18.74,11.42,18.77
		z"/>
	<path class="st6" d="M5.58,19.37c-0.01,0.02-0.01,0.04-0.02,0.06c-0.01-0.05-0.02-0.09,0-0.13C5.58,19.32,5.55,19.35,5.58,19.37z"
		/>
	<path class="st7" d="M12.6,25.75c-0.04-0.05,0-0.09,0.02-0.14C12.62,25.65,12.63,25.7,12.6,25.75z"/>
	<path class="st8" d="M8,19.81c0.03,0.02,0.05,0.05,0.06,0.1c-0.04-0.03-0.06-0.05-0.08-0.08C7.98,19.83,7.99,19.82,8,19.81z"/>
	<path class="st9" d="M8.96,18.8c0.03,0.03,0.01,0.07,0.02,0.13c-0.03-0.04-0.05-0.07-0.04-0.1C8.96,18.83,8.96,18.81,8.96,18.8z"/>
	<path class="st10" d="M11.78,19.12c-0.02,0.02,0,0.05-0.02,0.07c-0.02-0.04-0.02-0.08,0-0.12C11.76,19.09,11.77,19.11,11.78,19.12z
		"/>
	<path class="st11" d="M5.53,25.81c-0.02,0.01-0.01,0.04-0.02,0.06c-0.02-0.02-0.02-0.05-0.01-0.08c0.01-0.01,0-0.03,0.02-0.04
		C5.53,25.77,5.53,25.79,5.53,25.81z"/>
	<path class="st12" d="M6.57,19.14c-0.03-0.03-0.02-0.06-0.01-0.11c0.01,0.04,0.02,0.08,0.03,0.11C6.58,19.15,6.57,19.15,6.57,19.14
		z"/>
	<path class="st13" d="M12.82,20.53c-0.01-0.01-0.02-0.01-0.02-0.02c0.02-0.02,0.04-0.03,0.08-0.04
		C12.86,20.51,12.84,20.52,12.82,20.53z"/>
	<path class="st14" d="M12.58,25.87c-0.01-0.02,0-0.04-0.02-0.05c0-0.02,0-0.04,0.03-0.04C12.6,25.8,12.61,25.84,12.58,25.87z"/>
	<path class="st15" d="M6.12,20.53c0.02,0.02,0.02,0.04,0.03,0.07c-0.04,0-0.03-0.04-0.04-0.05C6.11,20.54,6.12,20.53,6.12,20.53z"
		/>
	<path class="st11" d="M5.49,25.66c0.01,0.01,0.02,0.02,0.01,0.04c-0.01,0.01,0,0.03-0.02,0.04C5.48,25.72,5.46,25.69,5.49,25.66z"
		/>
	<path class="st16" d="M9.26,17c0,0.01-0.01,0.01-0.01,0.02C9.23,17,9.22,16.98,9.2,16.95C9.24,16.96,9.25,16.98,9.26,17z"/>
	<path class="st17" d="M6.57,19.14c0,0,0.01,0,0.01,0c0.01,0.02,0.01,0.05,0.02,0.07c-0.01,0.01-0.01,0.01-0.02,0.02
		C6.56,19.2,6.57,19.17,6.57,19.14z"/>
	<path class="st18" d="M10.55,17.7c-0.01,0.01-0.01,0.01-0.02,0.02c-0.02-0.02-0.01-0.04-0.02-0.07
		C10.54,17.65,10.54,17.68,10.55,17.7z"/>
	<path class="st19" d="M10.65,19.71c-0.01,0.02-0.01,0.03-0.02,0.06c-0.01-0.04-0.02-0.06,0.01-0.08
		C10.64,19.7,10.64,19.7,10.65,19.71z"/>
	<path class="st20" d="M5.1,20.35c0.02,0.02,0.01,0.04,0.02,0.07c-0.03-0.01-0.03-0.03-0.03-0.05C5.09,20.36,5.1,20.36,5.1,20.35z"
		/>
	<path class="st21" d="M6.91,17.25c0-0.01-0.01-0.01-0.01-0.02c0-0.02,0.01-0.04,0.03-0.05C6.93,17.21,6.92,17.23,6.91,17.25z"/>
	<path d="M5.49,25.74c0.01-0.01,0.01-0.02,0.02-0.04c0,0.02,0,0.03,0.01,0.05c-0.01,0.01-0.01,0.03-0.02,0.04
		C5.5,25.77,5.5,25.76,5.49,25.74z"/>
	<path class="st1" d="M8.32,21.6c-0.17,0.06-0.35,0.1-0.52,0.18c-0.03,0.02-0.07,0.03-0.1,0.07c0.13-0.02,0.26-0.04,0.39-0.06
		c0.35-0.06,0.71-0.04,1.07-0.02c0.12,0.01,0.25,0,0.37,0c0.03-0.01,0.05-0.02,0.07,0.02c-0.21,0.13-0.41,0.27-0.58,0.44
		c0.02,0.02,0.04,0.01,0.05,0c0.5-0.27,1.04-0.38,1.6-0.44c0.43-0.04,0.86-0.1,1.26-0.3c0.05-0.03,0.09,0.01,0.12,0.04
		c0.11,0.09,0.17,0.21,0.22,0.34c0.03,0.07,0.08,0.14,0.06,0.2c-0.02,0.05-0.12,0.04-0.19,0.05c-0.74,0.12-1.48,0.21-2.22,0.2
		c-0.62-0.01-1.24,0-1.86,0c-0.66,0-1.32-0.08-1.98-0.18c-0.05-0.01-0.1-0.02-0.15-0.02c-0.03,0-0.03-0.01-0.03-0.04
		c0.04-0.21,0.26-0.43,0.45-0.46c0.17-0.03,0.34-0.06,0.51-0.09c0.02,0,0.05,0,0.04-0.03c0.03-0.03,0.07-0.02,0.1-0.01
		c0.41,0.06,0.82,0.09,1.23,0.11C8.26,21.58,8.29,21.58,8.32,21.6z"/>
	<path class="st22" d="M8.32,21.6c-0.47-0.01-0.95-0.05-1.42-0.12c-0.53-0.08-0.98-0.29-1.21-0.81c0.02-0.02,0.03-0.01,0.04,0.01
		c0.25,0.35,0.61,0.52,1.01,0.63c0.37,0.1,0.84,0.12,1.3,0.07c-0.21-0.15-0.38-0.31-0.54-0.5c-0.15-0.19-0.27-0.4-0.33-0.64
		c0.19,0.18,0.37,0.37,0.58,0.53c0.33,0.27,0.66,0.52,1.07,0.65c0.06,0.02,0.13,0.03,0.19,0.05c0.01,0.01,0.03,0.01,0.02,0.03
		C8.79,21.53,8.55,21.56,8.32,21.6z"/>
	<path class="st23" d="M8.24,24.4c-0.38,0.13-0.75,0.27-1.14,0.38c-0.02,0.01-0.02,0-0.02-0.02c0.2-0.09,0.4-0.17,0.6-0.24
		c0.01-0.02,0.04-0.03,0.06-0.03c0.03-0.02,0.07-0.01,0.1-0.03c0.13-0.01,0.24-0.06,0.37-0.08C8.24,24.37,8.25,24.38,8.24,24.4z"/>
	<path class="st24" d="M10.58,24.63c-0.3-0.09-0.6-0.17-0.9-0.26c-0.07-0.02-0.15-0.04-0.23-0.06c0.02-0.03,0.04-0.02,0.06-0.02
		c0.17,0.04,0.35,0.08,0.52,0.12c0.08,0.02,0.15,0.04,0.24,0.03c0.01,0,0.01,0.01,0.01,0.01c0,0.02,0.02,0.02,0.03,0.03
		c0.1,0.04,0.2,0.07,0.3,0.11C10.6,24.63,10.6,24.64,10.58,24.63z"/>
	<path class="st25" d="M5.6,24.89c0.08,0,0.16,0,0.24,0c0.01,0,0.01,0.01,0.01,0.01c0,0,0,0-0.01,0c-0.08,0.03-0.17,0.03-0.25,0
		C5.59,24.89,5.59,24.89,5.6,24.89z"/>
	<path class="st22" d="M7.48,22.51c0.14,0,0.27,0,0.41,0.01c0.01,0,0.01,0.01,0.01,0.01c0,0,0,0-0.01,0c-0.15,0-0.3,0-0.44,0
		C7.44,22.49,7.46,22.5,7.48,22.51z"/>
	<path class="st26" d="M12.35,24.91c-0.03,0-0.06,0-0.09-0.03c0.09,0,0.17,0,0.25,0c0.01,0,0.01,0.01,0.02,0.02
		c-0.02,0.01-0.04,0.01-0.06,0.01C12.43,24.91,12.39,24.91,12.35,24.91z"/>
	<path class="st19" d="M7.48,22.51c-0.01,0.01-0.02,0.01-0.04,0.02c-0.06,0-0.11,0.01-0.17-0.01c0-0.01,0.01-0.01,0.02-0.02
		C7.36,22.49,7.42,22.49,7.48,22.51z"/>
	<path class="st15" d="M5.82,22.31c-0.04,0.02-0.09,0.02-0.15,0.01c0.05-0.03,0.1-0.03,0.15-0.03C5.82,22.3,5.82,22.31,5.82,22.31
		C5.82,22.31,5.82,22.31,5.82,22.31z"/>
	<path class="st27" d="M7.16,22.51c-0.04,0.01-0.08,0.01-0.11-0.01c0-0.01,0.01-0.01,0.02-0.02c0.04,0,0.08-0.01,0.11,0.01
		C7.17,22.5,7.16,22.5,7.16,22.51z"/>
	<path class="st28" d="M7.85,24.46c-0.02,0.03-0.06,0.03-0.1,0.05c-0.01-0.01-0.04,0-0.03-0.03C7.77,24.46,7.81,24.45,7.85,24.46z"
		/>
	<path class="st29" d="M5.39,24.83c-0.06-0.01-0.08-0.06-0.11-0.1c0.05,0.01,0.08,0.06,0.12,0.09C5.39,24.82,5.39,24.83,5.39,24.83z
		"/>
	<path class="st30" d="M12.75,24.82c0.03-0.04,0.06-0.07,0.08-0.11C12.82,24.77,12.79,24.8,12.75,24.82z"/>
	<path class="st31" d="M8.92,24.24c0.06,0,0.12,0,0.18,0c0,0,0.01,0.01,0,0.01c0,0,0,0.01,0,0.01c-0.06,0-0.12,0-0.18,0
		C8.92,24.25,8.92,24.25,8.92,24.24C8.92,24.24,8.92,24.24,8.92,24.24z"/>
	<path class="st32" d="M6.32,24.8c-0.03,0.02-0.07,0.03-0.11,0.03c-0.01-0.01-0.01-0.01,0-0.02c0.03-0.02,0.06-0.02,0.09-0.03
		C6.31,24.78,6.32,24.79,6.32,24.8z"/>
	<path class="st20" d="M11.89,24.83c-0.03,0-0.07-0.01-0.1-0.03c0-0.01,0.01-0.01,0.02-0.02c0.03,0,0.07,0.01,0.1,0.03
		C11.91,24.82,11.9,24.82,11.89,24.83z"/>
	<path class="st33" d="M12.72,24.82c-0.02,0.04-0.05,0.06-0.1,0.05C12.66,24.85,12.69,24.83,12.72,24.82z"/>
	<path class="st34" d="M9.1,24.26c0-0.01,0-0.01,0-0.02c0.03,0,0.06-0.01,0.1,0.03C9.16,24.28,9.13,24.28,9.1,24.26z"/>
	<path class="st35" d="M8.72,24.27c-0.03,0.04-0.09,0.01-0.13,0.03C8.63,24.27,8.68,24.28,8.72,24.27L8.72,24.27z"/>
	<path class="st36" d="M9.32,24.27c0.03,0,0.07,0,0.11,0.02c-0.04,0.03-0.07,0-0.11,0C9.31,24.29,9.31,24.28,9.32,24.27
		C9.31,24.28,9.31,24.27,9.32,24.27z"/>
	<path class="st37" d="M8.92,24.24c0,0,0,0.01,0,0.01c-0.03,0.02-0.06,0.02-0.09,0.02c0,0-0.01-0.01,0-0.01c0,0,0,0,0.01,0
		C8.86,24.23,8.89,24.24,8.92,24.24z"/>
	<path class="st34" d="M6.03,22.33c-0.03,0-0.06,0.02-0.08-0.02c0.03-0.02,0.07-0.02,0.1,0.01C6.05,22.32,6.04,22.33,6.03,22.33z"/>
	<path class="st30" d="M11.64,24.76c-0.04-0.01-0.08-0.01-0.11-0.04l0,0c0.04-0.01,0.08,0.01,0.11,0.03
		C11.64,24.74,11.65,24.75,11.64,24.76C11.64,24.75,11.64,24.76,11.64,24.76z"/>
	<path class="st30" d="M6.48,24.74c0.03-0.01,0.06-0.02,0.1-0.04c-0.03,0.05-0.07,0.05-0.1,0.06C6.47,24.75,6.47,24.75,6.48,24.74
		C6.47,24.74,6.47,24.74,6.48,24.74z"/>
	<path class="st38" d="M10.26,24.47c0,0,0-0.01,0-0.01c0.02,0,0.03,0,0.05,0c0.02,0,0.04,0,0.03,0.02
		c-0.01,0.02-0.03,0.01-0.05,0.01C10.28,24.5,10.27,24.49,10.26,24.47z"/>
	<path class="st39" d="M10.52,24.49c-0.04,0.03-0.07,0.02-0.11,0C10.46,24.46,10.48,24.47,10.52,24.49z"/>
	<path class="st40" d="M7.54,24.49c-0.02,0.03-0.06,0.04-0.11,0.03C7.48,24.51,7.51,24.5,7.54,24.49z"/>
	<path class="st41" d="M6.62,22.44c0.06-0.02,0.1,0,0.15,0.01C6.72,22.47,6.68,22.44,6.62,22.44z"/>
	<path class="st42" d="M7.67,24.51c-0.02,0-0.04,0.01-0.07-0.01c0.03-0.02,0.05-0.03,0.08,0C7.68,24.5,7.68,24.51,7.67,24.51z"/>
	<path class="st43" d="M6.96,22.49c-0.03,0-0.05,0-0.07-0.02c0.03-0.01,0.06-0.01,0.09,0.01C6.98,22.48,6.97,22.49,6.96,22.49z"/>
	<path class="st40" d="M10.65,24.51c-0.04,0.02-0.07,0-0.11-0.01C10.59,24.47,10.62,24.52,10.65,24.51z"/>
	<path class="st44" d="M10.65,24.64c0.02,0.01,0.05,0.01,0.07,0.04c-0.04,0.01-0.07,0-0.09-0.02
		C10.64,24.64,10.65,24.64,10.65,24.64z"/>
	<path class="st45" d="M7.16,22.51c0.01-0.01,0.01-0.01,0.02-0.02c0.04,0,0.08,0,0.12,0c-0.01,0.01-0.01,0.01-0.02,0.02
		C7.24,22.51,7.2,22.51,7.16,22.51z"/>
	<path class="st46" d="M11.53,24.71L11.53,24.71c-0.03,0-0.07,0-0.1-0.03C11.47,24.68,11.5,24.69,11.53,24.71z"/>
	<path class="st47" d="M12.83,23.77c-0.02,0.02-0.04,0.04-0.07,0.06C12.77,23.79,12.79,23.77,12.83,23.77z"/>
	<path class="st48" d="M8.42,24.35c0.04-0.04,0.08-0.04,0.14-0.03C8.5,24.33,8.47,24.34,8.42,24.35z"/>
	<path class="st33" d="M11.89,24.83c0.01-0.01,0.01-0.01,0.02-0.02c0.03,0,0.06,0.01,0.08,0.03c0,0,0,0.01,0,0.01
		C11.96,24.85,11.92,24.83,11.89,24.83z"/>
	<path class="st33" d="M5.39,24.83c0,0,0-0.01,0-0.01c0.03,0.01,0.06,0.03,0.09,0.04C5.44,24.87,5.41,24.86,5.39,24.83z"/>
	<path class="st49" d="M11.81,24.78c-0.01,0.01-0.01,0.01-0.02,0.02c-0.03,0-0.06-0.01-0.09-0.03c0,0,0-0.01,0-0.01
		C11.75,24.75,11.78,24.78,11.81,24.78z"/>
	<path class="st49" d="M6.32,24.8c-0.01-0.01-0.01-0.01-0.02-0.02c0.04-0.01,0.07-0.01,0.11-0.02c0,0,0.01,0.01,0,0.01
		c0,0,0,0.01,0,0.01C6.38,24.78,6.35,24.79,6.32,24.8z"/>
	<path class="st50" d="M7.67,24.51c0-0.01,0.01-0.01,0.01-0.02c0.02-0.01,0.03-0.01,0.05-0.02c0,0.02,0.02,0.02,0.03,0.03
		c-0.02,0.01-0.05,0.01-0.07,0.02C7.68,24.52,7.68,24.51,7.67,24.51z"/>
	<path class="st51" d="M5.67,22.31c-0.05,0.04-0.08,0.04-0.14,0.03C5.59,22.33,5.62,22.32,5.67,22.31z"/>
	<path class="st41" d="M9.32,24.27c0,0.01,0,0.01,0,0.02c-0.03,0-0.05,0-0.07-0.02C9.27,24.25,9.29,24.26,9.32,24.27z"/>
	<path class="st33" d="M6.21,24.81c0,0.01,0,0.01,0,0.02c-0.03,0-0.05,0.03-0.09,0.01C6.14,24.81,6.18,24.81,6.21,24.81z"/>
	<path class="st40" d="M12.66,24.24c0.02,0.05-0.01,0.07-0.01,0.1C12.63,24.31,12.63,24.28,12.66,24.24z"/>
	<path class="st52" d="M5.45,24.24c0.03,0.04,0.03,0.07,0.02,0.1C5.46,24.32,5.45,24.3,5.45,24.24z"/>
	<path class="st26" d="M6.14,22.32c0.02,0,0.03-0.01,0.04,0.01c0,0,0,0.01-0.01,0.01c-0.02,0.01-0.04,0-0.06-0.01
		C6.12,22.33,6.13,22.32,6.14,22.32z"/>
	<path class="st53" d="M6.33,22.37c-0.04,0.01-0.07-0.01-0.1-0.03c0.03,0.01,0.06,0.01,0.1,0.02C6.33,22.36,6.33,22.36,6.33,22.37z"
		/>
	<path class="st19" d="M6.33,22.37c0,0,0-0.01,0-0.01c0.03,0.02,0.08,0,0.11,0.03l0,0C6.4,22.39,6.37,22.39,6.33,22.37z"/>
	<path class="st54" d="M6.44,22.39c0.04,0,0.07-0.01,0.1,0.03C6.51,22.4,6.47,22.42,6.44,22.39C6.44,22.39,6.44,22.39,6.44,22.39z"
		/>
	<path class="st55" d="M5.84,24.9c0-0.01,0-0.01,0-0.01c0.04-0.01,0.07-0.01,0.11-0.02c0.01,0,0.01,0.01,0.01,0.01c0,0,0,0-0.01,0
		C5.91,24.9,5.87,24.9,5.84,24.9z"/>
	<path class="st56" d="M9.6,21.78c-0.02-0.02-0.05,0-0.07-0.02c0.03-0.01,0.05-0.01,0.08-0.02c0.01,0,0.03,0,0.02,0.01
		C9.62,21.77,9.61,21.77,9.6,21.78z"/>
	<path class="st6" d="M5.39,23.88c-0.04-0.02-0.06-0.03-0.07-0.07C5.36,23.81,5.37,23.84,5.39,23.88z"/>
	<path class="st57" d="M12.35,24.91c0.04-0.02,0.08-0.02,0.12,0C12.43,24.92,12.39,24.92,12.35,24.91z"/>
	<path class="st58" d="M7.09,24.76c0.01,0.01,0.01,0.01,0.02,0.02c-0.03,0.02-0.06,0.03-0.09,0.03C7.03,24.77,7.06,24.77,7.09,24.76
		z"/>
	<path class="st59" d="M5.42,24.19C5.4,24.17,5.4,24.15,5.4,24.12c0.03,0,0.03,0.03,0.04,0.05C5.43,24.18,5.43,24.19,5.42,24.19z"/>
	<path class="st60" d="M12.68,24.17c0.01-0.02,0.01-0.04,0.03-0.05c0.01,0.03,0,0.05-0.01,0.07C12.68,24.19,12.68,24.18,12.68,24.17
		z"/>
	<path class="st61" d="M5.42,24.19c0.01-0.01,0.01-0.01,0.02-0.02c0,0.02,0.03,0.05,0.01,0.06C5.42,24.24,5.43,24.21,5.42,24.19z"/>
	<path class="st62" d="M12.68,24.17c0.01,0.01,0.01,0.01,0.02,0.02c0,0.02,0,0.04-0.03,0.05C12.64,24.21,12.67,24.19,12.68,24.17z"
		/>
	<path class="st29" d="M8.3,24.37c0.02-0.02,0.05-0.02,0.1-0.01c-0.04,0.01-0.07,0.02-0.1,0.03C8.29,24.38,8.29,24.37,8.3,24.37
		C8.29,24.37,8.3,24.37,8.3,24.37z"/>
	<path class="st63" d="M11.71,24.76c0,0,0,0.01,0,0.01c-0.02-0.01-0.05-0.01-0.07-0.02c0-0.01,0-0.01,0-0.02
		C11.66,24.74,11.69,24.74,11.71,24.76z"/>
	<path class="st64" d="M6.21,20.69c-0.05-0.02-0.05-0.04-0.06-0.06C6.18,20.64,6.17,20.66,6.21,20.69z"/>
	<path class="st65" d="M10.26,24.47c0.01,0.01,0.02,0.01,0.04,0.02c0,0,0,0.01,0,0.01c-0.03-0.01-0.05-0.01-0.08-0.02
		C10.23,24.47,10.25,24.47,10.26,24.47z"/>
	<path class="st66" d="M9.05,21.46c0.02,0,0.03,0,0.05,0c0.01,0,0.02,0.01,0.01,0.02c0,0.01-0.02,0-0.03,0
		C9.07,21.48,9.04,21.49,9.05,21.46z"/>
	<path class="st51" d="M12.53,24.9c-0.01-0.01-0.01-0.01-0.02-0.02c0.03,0,0.05-0.01,0.09-0.01C12.58,24.91,12.55,24.9,12.53,24.9z"
		/>
	<path class="st67" d="M7.89,22.53c0,0,0-0.01,0-0.01c0.03,0,0.06,0,0.12,0C7.95,22.53,7.92,22.53,7.89,22.53z"/>
	<path class="st68" d="M6.14,22.32c-0.01,0.01-0.01,0.01-0.02,0.02c-0.03,0-0.06,0-0.09,0c0.01-0.01,0.01-0.01,0.02-0.02
		C6.08,22.31,6.11,22.32,6.14,22.32z"/>
	<path class="st46" d="M6.6,24.71c0.02-0.03,0.04-0.02,0.07-0.03C6.65,24.71,6.63,24.71,6.6,24.71z"/>
	<path class="st69" d="M8.83,24.26c0,0,0,0.01,0,0.01c-0.04,0-0.07,0-0.11,0c0,0,0,0,0,0C8.76,24.25,8.8,24.26,8.83,24.26z"/>
	<path class="st70" d="M6.96,22.49c0.01-0.01,0.01-0.01,0.02-0.02c0.03,0,0.06,0,0.09,0c-0.01,0.01-0.01,0.01-0.02,0.02
		C7.02,22.49,6.99,22.49,6.96,22.49z"/>
	<path class="st63" d="M6.41,24.77c0-0.01,0-0.01,0-0.02c0.02-0.02,0.05-0.02,0.07-0.02c0,0.01,0,0.01,0,0.02
		C6.45,24.76,6.43,24.77,6.41,24.77z"/>
	<path class="st71" d="M12.17,24.87c0.02,0,0.04,0,0.05,0.01c0.01,0.01,0,0.02-0.01,0.02c-0.02,0-0.03,0-0.04-0.02
		C12.17,24.88,12.16,24.88,12.17,24.87C12.17,24.87,12.17,24.87,12.17,24.87z"/>
	<path class="st72" d="M11.99,24.84c0,0,0-0.01,0-0.01c0.03-0.01,0.06,0.01,0.09,0.02c0.01,0,0.01,0.01,0.01,0.01c0,0,0,0-0.01,0
		C12.05,24.87,12.02,24.86,11.99,24.84z"/>
	<path class="st51" d="M5.94,24.88c0,0,0-0.01,0-0.01c0.03-0.01,0.06-0.01,0.09-0.02c0.01,0,0.01,0.01,0.01,0.01c0,0,0,0-0.01,0
		C6,24.88,5.97,24.89,5.94,24.88z"/>
	<path class="st73" d="M5.6,24.89c-0.01,0.01-0.01,0.01-0.02,0.02c-0.02,0-0.05,0.01-0.07-0.03C5.55,24.88,5.57,24.88,5.6,24.89z"/>
	<path class="st52" d="M12.08,24.86c0,0,0-0.01,0-0.01c0.03,0.01,0.06,0.01,0.09,0.02c0,0.01,0,0.01,0,0.02
		C12.14,24.88,12.11,24.88,12.08,24.86z"/>
	<path class="st43" d="M6.86,22.46c-0.02,0.01-0.03,0.01-0.03,0.01c-0.01,0-0.03,0-0.03-0.02c0,0,0.01-0.01,0.02-0.01
		C6.83,22.45,6.84,22.45,6.86,22.46z"/>
	<path class="st45" d="M5.82,22.31c0,0,0-0.01,0-0.01c0.03,0,0.06-0.01,0.09,0.01C5.87,22.33,5.85,22.32,5.82,22.31z"/>
	<path class="st74" d="M5.48,18.83c0.01,0.04-0.01,0.05-0.02,0.07C5.45,18.87,5.47,18.86,5.48,18.83z"/>
	<path class="st72" d="M6.03,24.86c0,0,0-0.01,0-0.01c0.02-0.01,0.04-0.01,0.07-0.02C6.09,24.88,6.06,24.86,6.03,24.86z"/>
	<path class="st75" d="M10.65,24.64c-0.01,0.01-0.01,0.01-0.02,0.02c-0.02,0-0.04,0-0.05-0.02c0.01-0.01,0.01-0.01,0.02-0.02
		C10.62,24.62,10.64,24.63,10.65,24.64z"/>
	<path class="st76" d="M8.3,24.37c0,0.01,0,0.01,0,0.02c-0.02,0.01-0.04,0.01-0.05,0.02c-0.01-0.01-0.01-0.01-0.02-0.02
		C8.25,24.36,8.27,24.36,8.3,24.37z"/>
	<path class="st77" d="M9.05,21.46c0.01,0.01,0.02,0.02,0.03,0.03c-0.02,0-0.04,0-0.05,0c-0.01-0.01-0.01-0.02-0.02-0.03
		C9.02,21.46,9.04,21.46,9.05,21.46z"/>
	<path class="st78" d="M11.16,28.86c-0.04-0.05-0.03-0.11-0.03-0.17c-0.05-0.6,0.05-1.17,0.38-1.68c0.08-0.12,0.18-0.23,0.3-0.31
		c0.18-0.12,0.33-0.27,0.45-0.46c0.01-0.01,0.01-0.03,0.03-0.03c0.02,0.03-0.01,0.06-0.02,0.08c-0.07,0.16-0.17,0.3-0.31,0.41
		c-0.3,0.22-0.48,0.52-0.6,0.86C11.21,27.98,11.16,28.41,11.16,28.86z"/>
	<path class="st78" d="M5.81,26.17c0.12,0.2,0.29,0.36,0.48,0.5c0.26,0.18,0.4,0.45,0.51,0.75c0.16,0.43,0.2,0.87,0.14,1.32
		c0,0.01-0.01,0.02-0.01,0.03c0,0,0,0-0.01,0.01c0-0.26-0.02-0.51-0.07-0.76c-0.08-0.41-0.21-0.81-0.48-1.14
		c-0.06-0.07-0.13-0.12-0.2-0.18c-0.17-0.13-0.3-0.29-0.38-0.5C5.79,26.17,5.8,26.17,5.81,26.17z"/>
	<path class="st79" d="M7.89,28.33c0.2-0.01,0.4-0.02,0.6-0.04c0.18-0.01,0.35,0.05,0.52,0.06c0.19,0.01,0.37,0,0.55-0.06
		c0.24-0.08,0.48-0.05,0.73-0.05c0.03,0,0.06,0,0.09,0.02c-0.1,0.01-0.19,0.01-0.29,0.02c-0.2,0.01-0.39,0.03-0.58,0.09
		c-0.21,0.07-0.44,0.08-0.65,0.03c-0.24-0.06-0.47-0.05-0.71-0.04c-0.08,0-0.17,0-0.25-0.01C7.88,28.34,7.88,28.33,7.89,28.33
		C7.88,28.33,7.89,28.33,7.89,28.33z"/>
	<path class="st80" d="M8.16,28.1c0.21-0.09,0.42-0.15,0.62-0.26c0.06-0.03,0.13-0.01,0.18,0.03c0.12,0.09,0.23,0.09,0.35,0
		c0.07-0.05,0.14-0.04,0.22-0.01c0.19,0.09,0.38,0.16,0.57,0.24c0,0.01,0,0.03-0.02,0.01c-0.2-0.05-0.4-0.11-0.59-0.2
		c-0.06-0.03-0.1-0.02-0.15,0.01c-0.04,0.03-0.08,0.05-0.12,0.07c-0.1,0.05-0.18,0.01-0.26-0.05c-0.07-0.05-0.13-0.06-0.22-0.02
		c-0.18,0.09-0.37,0.14-0.56,0.19C8.16,28.12,8.15,28.11,8.16,28.1z"/>
	<path class="st81" d="M9.89,28.75c-0.34,0.14-0.69,0.16-1.04,0.12c-0.23-0.02-0.45-0.08-0.68-0.16c0.03-0.02,0.06-0.01,0.08-0.01
		c0.53,0.13,1.07,0.16,1.6,0.03c0.01,0,0.02,0,0.04,0C9.89,28.73,9.89,28.74,9.89,28.75C9.89,28.75,9.89,28.75,9.89,28.75z"/>
	<path class="st82" d="M8.12,26.37c-0.02,0.4,0.06,0.51,0.45,0.6c0.01,0,0.02,0,0.03,0.01c-0.28,0.05-0.51-0.09-0.55-0.33
		c-0.02-0.11,0.01-0.22,0.05-0.32C8.14,26.33,8.13,26.35,8.12,26.37z"/>
	<path class="st82" d="M9.55,26.98c0.45-0.16,0.54-0.29,0.46-0.67c0.09,0.07,0.11,0.3,0.05,0.44C9.98,26.93,9.78,27.02,9.55,26.98z"
		/>
	<path class="st83" d="M9.63,29.26c-0.33-0.1-0.66-0.04-0.99,0.02C8.97,29.14,9.3,29.08,9.63,29.26z"/>
	<path class="st84" d="M8.36,26.65c0.11-0.01,0.22-0.01,0.33,0.02c0.02,0.01,0.06,0.01,0.05,0.05c-0.01,0.04-0.04,0.02-0.07,0.02
		C8.57,26.75,8.46,26.7,8.36,26.65z"/>
	<path class="st85" d="M9.78,26.66c-0.1,0.06-0.2,0.09-0.31,0.09c-0.02,0-0.05,0-0.05-0.02c-0.01-0.03,0.02-0.04,0.04-0.04
		C9.56,26.65,9.67,26.64,9.78,26.66z"/>
	<path class="st86" d="M8.79,26.09c0.15-0.08,0.3-0.14,0.47-0.02C9.1,26.01,8.95,26.07,8.79,26.09z"/>
	<path class="st87" d="M5.81,26.17c-0.01,0.01-0.01,0.02-0.02,0.02c-0.02-0.03-0.04-0.06-0.03-0.09C5.8,26.11,5.8,26.14,5.81,26.17z
		"/>
	<path class="st87" d="M9.89,28.75c0-0.01,0-0.01,0-0.02c0.03-0.02,0.06-0.02,0.09-0.03c0.01,0,0.01,0.01,0.01,0.01
		c0,0-0.01,0-0.01,0C9.94,28.73,9.92,28.74,9.89,28.75z"/>
	<path class="st88" d="M7.89,28.33c0,0,0,0.01,0,0.01c-0.03-0.01-0.06-0.01-0.1-0.02C7.83,28.3,7.86,28.3,7.89,28.33z"/>
	<path class="st89" d="M8.12,26.37c-0.01-0.01-0.01-0.02-0.02-0.04c0-0.02,0.01-0.03,0.03-0.04C8.15,26.32,8.14,26.34,8.12,26.37z"
		/>
	<path class="st90" d="M8.12,28.13c-0.03,0.02-0.05,0.02-0.1,0.01c0.03-0.01,0.05-0.02,0.08-0.03C8.11,28.12,8.12,28.12,8.12,28.13z
		"/>
	<path class="st91" d="M8.12,28.13c-0.01-0.01-0.01-0.01-0.02-0.02c0.02-0.01,0.04-0.01,0.05-0.02c0.01,0.01,0.01,0.01,0.02,0.02
		C8.16,28.13,8.14,28.13,8.12,28.13z"/>
	<path class="st84" d="M10.08,28.11c0.01,0,0.01-0.01,0.02-0.01c0.02,0,0.04,0.01,0.05,0.03C10.12,28.14,10.1,28.13,10.08,28.11z"/>
	<path class="st92" d="M9.97,28.71c0,0,0-0.01,0-0.01c0.02-0.02,0.04-0.03,0.07-0.01C10.02,28.7,10,28.72,9.97,28.71z"/>
	<path class="st0" d="M15.81,24.33c-0.07,0-0.14,0.01-0.2,0c-0.11-0.03-0.03-0.13-0.05-0.19c-0.01-0.04-0.01-0.08,0.05-0.07
		c0.13,0,0.27,0,0.4,0c0.07,0,0.13,0.06,0.13,0.13c0,0.07-0.05,0.13-0.13,0.14c-0.01,0-0.01,0-0.02,0
		C15.93,24.33,15.87,24.33,15.81,24.33z"/>
	<path class="st93" d="M15.8,25.33c-0.04,0-0.08,0-0.12,0c-0.12,0-0.12,0-0.12-0.13c0-0.13,0-0.13,0.14-0.13c0.1,0,0.2,0,0.3,0
		c0.09,0,0.15,0.06,0.15,0.13c0,0.08-0.06,0.13-0.15,0.13C15.92,25.33,15.86,25.33,15.8,25.33z"/>
	<path class="st0" d="M25.23,28.47c-0.06,0-0.12,0-0.18,0c-0.07,0.01-0.08-0.02-0.08-0.08c0-0.19,0-0.19,0.18-0.19
		c0.09,0,0.18,0,0.27,0c0.08,0,0.14,0.06,0.14,0.13c0,0.07-0.06,0.13-0.14,0.13C25.36,28.47,25.29,28.47,25.23,28.47z"/>
	<path class="st22" d="M23.64,24.69c0-0.19,0-0.37,0-0.56c0-0.07,0.03-0.07,0.08-0.06c0.28,0.05,0.51,0.33,0.51,0.63
		c0,0.29-0.22,0.58-0.49,0.63c-0.06,0.01-0.1,0.01-0.09-0.07C23.64,25.07,23.64,24.88,23.64,24.69z"/>
	<path class="st0" d="M20.52,28.47c-0.07,0-0.13,0-0.2,0c-0.05,0-0.06-0.02-0.06-0.06c-0.01-0.2-0.01-0.2,0.2-0.2
		c0.08,0,0.17,0,0.25,0c0.08,0,0.14,0.06,0.14,0.13c0,0.07-0.06,0.13-0.14,0.13C20.65,28.47,20.58,28.47,20.52,28.47z"/>
</g>
</svg>
