<svg width="48" height="48" viewBox="0 0 48 48" fill="none" xmlns="http://www.w3.org/2000/svg">
<path d="M38.1781 0H9.82098C7.50689 0 5.28759 0.919268 3.65128 2.55558C2.01497 4.19188 1.0957 6.41119 1.0957 8.72528L1.0957 29.4478C1.0957 31.7619 2.01497 33.9812 3.65128 35.6175C5.28759 37.2538 7.50689 38.1731 9.82098 38.1731H25.0902L34.6935 47.7764C34.8003 47.8831 34.9363 47.9559 35.0844 47.9853C35.2325 48.0148 35.386 47.9997 35.5255 47.9419C35.665 47.8841 35.7843 47.7862 35.8682 47.6607C35.9521 47.5351 35.9968 47.3875 35.9968 47.2365V38.1731H38.1781C40.4922 38.1731 42.7115 37.2538 44.3478 35.6175C45.9841 33.9812 46.9034 31.7619 46.9034 29.4478V8.72528C46.9034 6.41119 45.9841 4.19188 44.3478 2.55558C42.7115 0.919268 40.4922 0 38.1781 0V0ZM36.5421 29.4478H11.457C11.0231 29.4478 10.607 29.2755 10.3002 28.9686C9.99334 28.6618 9.82098 28.2457 9.82098 27.8118C9.82098 27.3779 9.99334 26.9618 10.3002 26.655C10.607 26.3482 11.0231 26.1758 11.457 26.1758H36.5421C36.976 26.1758 37.3922 26.3482 37.699 26.655C38.0058 26.9618 38.1781 27.3779 38.1781 27.8118C38.1781 28.2457 38.0058 28.6618 37.699 28.9686C37.3922 29.2755 36.976 29.4478 36.5421 29.4478ZM36.5421 20.7225H11.457C11.0231 20.7225 10.607 20.5502 10.3002 20.2434C9.99334 19.9366 9.82098 19.5204 9.82098 19.0865C9.82098 18.6527 9.99334 18.2365 10.3002 17.9297C10.607 17.6229 11.0231 17.4506 11.457 17.4506H36.5421C36.976 17.4506 37.3922 17.6229 37.699 17.9297C38.0058 18.2365 38.1781 18.6527 38.1781 19.0865C38.1781 19.5204 38.0058 19.9366 37.699 20.2434C37.3922 20.5502 36.976 20.7225 36.5421 20.7225ZM36.5421 11.9973H11.457C11.0231 11.9973 10.607 11.8249 10.3002 11.5181C9.99334 11.2113 9.82098 10.7952 9.82098 10.3613C9.82098 9.92738 9.99334 9.51126 10.3002 9.20445C10.607 8.89764 11.0231 8.72528 11.457 8.72528H36.5421C36.976 8.72528 37.3922 8.89764 37.699 9.20445C38.0058 9.51126 38.1781 9.92738 38.1781 10.3613C38.1781 10.7952 38.0058 11.2113 37.699 11.5181C37.3922 11.8249 36.976 11.9973 36.5421 11.9973Z" fill="#011E41"/>
</svg>
