<svg width="48" height="48" viewBox="0 0 48 48" fill="none" xmlns="http://www.w3.org/2000/svg">
<path d="M38.1786 0H9.82147C7.50738 0 5.28807 0.919268 3.65177 2.55558C2.01546 4.19188 1.09619 6.41119 1.09619 8.72528L1.09619 29.4478C1.09619 31.7619 2.01546 33.9812 3.65177 35.6175C5.28807 37.2538 7.50738 38.1731 9.82147 38.1731H25.0907L34.694 47.7764C34.8007 47.8831 34.9368 47.9559 35.0849 47.9853C35.233 48.0148 35.3865 47.9997 35.526 47.9419C35.6655 47.8841 35.7848 47.7862 35.8687 47.6607C35.9525 47.5351 35.9973 47.3875 35.9973 47.2365V38.1731H38.1786C40.4927 38.1731 42.712 37.2538 44.3483 35.6175C45.9846 33.9812 46.9039 31.7619 46.9039 29.4478V8.72528C46.9039 6.41119 45.9846 4.19188 44.3483 2.55558C42.712 0.919268 40.4927 0 38.1786 0V0ZM36.5426 29.4478H11.4575C11.0236 29.4478 10.6074 29.2755 10.3006 28.9686C9.99383 28.6618 9.82147 28.2457 9.82147 27.8118C9.82147 27.3779 9.99383 26.9618 10.3006 26.655C10.6074 26.3482 11.0236 26.1758 11.4575 26.1758H36.5426C36.9765 26.1758 37.3926 26.3482 37.6995 26.655C38.0063 26.9618 38.1786 27.3779 38.1786 27.8118C38.1786 28.2457 38.0063 28.6618 37.6995 28.9686C37.3926 29.2755 36.9765 29.4478 36.5426 29.4478ZM36.5426 20.7225H11.4575C11.0236 20.7225 10.6074 20.5502 10.3006 20.2434C9.99383 19.9366 9.82147 19.5204 9.82147 19.0865C9.82147 18.6527 9.99383 18.2365 10.3006 17.9297C10.6074 17.6229 11.0236 17.4506 11.4575 17.4506H36.5426C36.9765 17.4506 37.3926 17.6229 37.6995 17.9297C38.0063 18.2365 38.1786 18.6527 38.1786 19.0865C38.1786 19.5204 38.0063 19.9366 37.6995 20.2434C37.3926 20.5502 36.9765 20.7225 36.5426 20.7225ZM36.5426 11.9973H11.4575C11.0236 11.9973 10.6074 11.8249 10.3006 11.5181C9.99383 11.2113 9.82147 10.7952 9.82147 10.3613C9.82147 9.92738 9.99383 9.51126 10.3006 9.20445C10.6074 8.89764 11.0236 8.72528 11.4575 8.72528H36.5426C36.9765 8.72528 37.3926 8.89764 37.6995 9.20445C38.0063 9.51126 38.1786 9.92738 38.1786 10.3613C38.1786 10.7952 38.0063 11.2113 37.6995 11.5181C37.3926 11.8249 36.9765 11.9973 36.5426 11.9973Z" fill="#011E41"/>
</svg>
