<svg width="48" height="48" viewBox="0 0 48 48" fill="none" xmlns="http://www.w3.org/2000/svg">
<path d="M3.981 35.9999H16.021C16.2807 35.9996 16.5297 35.8962 16.7133 35.7125C16.8969 35.5287 17 35.2796 17 35.0199V16.9998C16.9997 16.7897 16.9319 16.5852 16.8066 16.4165C16.6812 16.2478 16.5049 16.1239 16.3038 16.063C16.1026 16.0022 15.8872 16.0076 15.6894 16.0785C15.4915 16.1494 15.3217 16.2821 15.205 16.4569L3.165 34.4769C3.0667 34.6245 3.01033 34.7962 3.00192 34.9734C2.9935 35.1506 3.03335 35.3268 3.11722 35.4831C3.20109 35.6395 3.32583 35.7701 3.47813 35.8611C3.63043 35.9521 3.80458 36.0001 3.982 35.9999H3.981ZM20 35.9999H43.993C44.1265 36.0003 44.2587 35.9741 44.3819 35.9228C44.5051 35.8715 44.6168 35.7962 44.7106 35.7012C44.8044 35.6063 44.8782 35.4935 44.9279 35.3697C44.9776 35.2458 45.0021 35.1133 45 34.9799C44.58 16.5999 32.843 0.763849 20.033 0.00084932C19.8986 -0.00471382 19.7646 0.0170974 19.6389 0.0649577C19.5132 0.112818 19.3986 0.185728 19.302 0.279258C19.2054 0.372788 19.1288 0.484984 19.0769 0.609031C19.025 0.733077 18.9988 0.866383 19 1.00085V35.0009C19.0003 35.2659 19.1057 35.52 19.2932 35.7073C19.4808 35.8946 19.735 35.9999 20 35.9999V35.9999ZM46 38.9999H2C1.46957 38.9999 0.960859 39.2106 0.585786 39.5856C0.210714 39.9607 0 40.4694 0 40.9999C0 42.8564 0.737498 44.6368 2.05025 45.9496C3.36301 47.2624 5.14348 47.9999 7 47.9999H41C42.8565 47.9999 44.637 47.2624 45.9497 45.9496C47.2625 44.6368 48 42.8564 48 40.9999C48 40.4694 47.7893 39.9607 47.4142 39.5856C47.0391 39.2106 46.5304 38.9999 46 38.9999Z" fill="#011E41"/>
</svg>
