<?xml version="1.0" encoding="utf-8"?>
<!-- Generator: Adobe Illustrator 25.2.1, SVG Export Plug-In . SVG Version: 6.00 Build 0)  -->
<svg version="1.1" id="Layer_1" xmlns="http://www.w3.org/2000/svg" xmlns:xlink="http://www.w3.org/1999/xlink" x="0px" y="0px"
	 viewBox="0 0 560 288" style="enable-background:new 0 0 560 288;" xml:space="preserve">
<style type="text/css">
	.st0{fill:#FEFEFE;}
	.st1{fill:#4F4122;}
	.st2{fill:#F1CB98;}
	.st3{fill:#0197C8;}
	.st4{fill:#44BEDD;}
	.st5{fill:#ECEDEC;}
	.st6{fill:#996532;}
	.st7{fill:#FCAE35;}
	.st8{fill:#FDAE36;}
	.st9{fill:#C87F19;}
	.st10{fill:#FBAE39;}
	.st11{fill:#FCAE36;}
	.st12{fill:#FBB140;}
	.st13{fill:#FCB342;}
	.st14{fill:#A0792D;}
	.st15{fill:#BE7417;}
	.st16{fill:#E2A840;}
	.st17{fill:#C07716;}
	.st18{fill:#F6AE3A;}
	.st19{fill:#F9B042;}
	.st20{fill:#844927;}
	.st21{fill:#FBAF3C;}
	.st22{fill:#FDB13C;}
	.st23{fill:#854A27;}
	.st24{fill:#FEB647;}
	.st25{fill:#E6C7AC;}
	.st26{fill:#FDB23F;}
	.st27{fill:#161605;}
	.st28{fill:#BE761C;}
	.st29{fill:#BD7313;}
	.st30{fill:#E1C7B6;}
	.st31{fill:#4E4321;}
	.st32{fill:#9D6337;}
	.st33{fill:#F9B54E;}
	.st34{fill:#E39C3C;}
	.st35{fill:#0C1001;}
	.st36{fill:#FEB84B;}
	.st37{fill:#332D11;}
	.st38{fill:#E2A34C;}
	.st39{fill:#834826;}
	.st40{fill:#92572F;}
	.st41{fill:#0D1204;}
	.st42{fill:#373B30;}
	.st43{fill:#52441E;}
	.st44{fill:#A5652D;}
	.st45{fill:#4E401B;}
	.st46{fill:#FCB447;}
	.st47{fill:#F7B045;}
	.st48{fill:#F9B247;}
	.st49{fill:#F6B658;}
	.st50{fill:#0C1103;}
	.st51{fill:#1B2013;}
	.st52{fill:#3D4339;}
	.st53{fill:#463916;}
	.st54{fill:#F5AF47;}
	.st55{fill:#DE9B43;}
	.st56{fill:#3B3212;}
	.st57{fill:#0E1A0F;}
	.st58{fill:#322C10;}
	.st59{fill:#F7AF43;}
	.st60{fill:#0B0F01;}
	.st61{fill:#3B3416;}
	.st62{fill:#3A3113;}
	.st63{fill:#34392D;}
	.st64{fill:#0C1000;}
	.st65{fill:#0F1201;}
	.st66{fill:#4C5045;}
	.st67{fill:#404439;}
	.st68{fill:#B5722D;}
	.st69{fill:#FCB23F;}
	.st70{fill:#A06129;}
	.st71{fill:#3F4339;}
	.st72{fill:#AF7136;}
	.st73{fill:#352E13;}
	.st74{fill:#2E2A10;}
	.st75{fill:#322D14;}
	.st76{fill:#101302;}
	.st77{fill:#2D3A31;}
	.st78{fill:#0E1101;}
	.st79{fill:#925B39;}
	.st80{fill:#61655C;}
	.st81{fill:#676A62;}
	.st82{fill:#3A3E33;}
	.st83{fill:#31280A;}
	.st84{fill:#8A502E;}
	.st85{fill:#171B0E;}
	.st86{fill:#915730;}
	.st87{fill:#342F14;}
	.st88{fill:#2A342A;}
	.st89{fill:#3C3F34;}
	.st90{fill:#9A5F34;}
	.st91{fill:#1F1F0A;}
	.st92{fill:#342C13;}
	.st93{fill:#985D32;}
	.st94{fill:#9F673D;}
	.st95{fill:#F6AF44;}
	.st96{fill:#090E00;}
	.st97{fill:#383D31;}
	.st98{fill:#CDE4E8;}
	.st99{fill:#824725;}
	.st100{fill:#14190B;}
	.st101{fill:#92572E;}
	.st102{fill:#2C260B;}
	.st103{fill:#181A08;}
	.st104{fill:#141602;}
	.st105{fill:#884D29;}
	.st106{fill:#783F26;}
	.st107{fill:#EFF8FB;}
	.st108{fill:#FAFDFD;}
	.st109{fill:#086A7A;}
	.st110{fill:#22777D;}
	.st111{fill:#F9FCFD;}
	.st112{fill:#F4FAFB;}
	.st113{fill:#2C3328;}
	.st114{fill:#253932;}
	.st115{fill:#233C38;}
	.st116{fill:#17281F;}
	.st117{fill:#333A30;}
	.st118{fill:#101507;}
	.st119{fill:#E7F5F9;}
	.st120{fill:#F4FAFC;}
	.st121{fill:#F5FBFD;}
	.st122{fill:#F4FBFC;}
	.st123{fill:#23342C;}
	.st124{fill:#0B1307;}
	.st125{fill:#213129;}
	.st126{fill:#2B3930;}
	.st127{fill:#FDFDFD;}
	.st128{fill:#2A3329;}
	.st129{fill:#AFB0AE;}
	.st130{fill:#0F1609;}
	.st131{fill:#FDFEFD;}
	.st132{fill:#243B36;}
	.st133{fill:#0C1509;}
	.st134{fill:#D3D5D2;}
	.st135{fill:#BEBFBE;}
	.st136{fill:#E3E4E3;}
	.st137{fill:#A1A1A1;}
	.st138{fill:#EAEBEA;}
	.st139{fill:#C4C5C4;}
	.st140{fill:#B6B6B6;}
	.st141{fill:#9C9C9C;}
	.st142{fill:#C2C3C2;}
	.st143{fill:#B8B9B8;}
	.st144{fill:#AFAFAF;}
	.st145{fill:#C4C4C4;}
	.st146{fill:#969696;}
	.st147{fill:#8C8C8C;}
	.st148{fill:#999999;}
	.st149{fill:#24291C;}
	.st150{fill:#BBBBBB;}
	.st151{fill:#BCBDBC;}
	.st152{fill:#BFC0BF;}
	.st153{fill:#A9A9A9;}
	.st154{fill:#B46E0F;}
	.st155{fill:#D0D1CE;}
	.st156{fill:#C3C3C3;}
	.st157{fill:#C2C2C2;}
	.st158{fill:#9F9F9E;}
	.st159{fill:#929292;}
	.st160{fill:#B1B2B1;}
	.st161{fill:#9F9F9F;}
	.st162{fill:#C5C6C5;}
	.st163{fill:#ACACAC;}
	.st164{fill:#B9B9B9;}
	.st165{fill:#B1B3B0;}
	.st166{fill:#BBBCBB;}
	.st167{fill:#ADADAD;}
	.st168{fill:#CDCFCD;}
	.st169{fill:#B8B8B8;}
	.st170{fill:#9D9D9D;}
	.st171{fill:#AFAFAE;}
	.st172{fill:#814829;}
	.st173{fill:#F3A737;}
	.st174{fill:#8A4F29;}
	.st175{fill:#EDA43A;}
	.st176{fill:#F9AC36;}
	.st177{fill:#F6AC3C;}
	.st178{fill:#E5C7AC;}
	.st179{fill:#E8E9E8;}
	.st180{fill:#388207;}
	.st181{fill:#0A1801;}
	.st182{fill:#388107;}
	.st183{fill:#071200;}
</style>
<g>
	<path class="st0" d="M340.71,136.03c0,6.96-0.01,13.92,0.02,20.87c0,0.6-0.12,0.72-0.73,0.72c-12.08-0.02-24.16-0.02-36.24-0.02
		c-0.07-0.09-0.07-0.18,0.01-0.27c0.3-0.21,0.67-0.18,1-0.3c0.24-0.06,0.49-0.09,0.73-0.13c0.29-0.07,0.58-0.14,0.88-0.17
		c0.54-0.06,1.06-0.19,1.59-0.31c0.14-0.04,0.28-0.08,0.43-0.1c0.47-0.12,0.96-0.18,1.43-0.3c0.33-0.08,0.67-0.09,0.99-0.2
		c0.09-0.03,0.19-0.05,0.28-0.07c0.39-0.06,0.76-0.2,1.16-0.22c0.49-0.03,0.95-0.19,1.42-0.31c0.24-0.06,0.48-0.09,0.72-0.12
		c0.28-0.06,0.56-0.15,0.84-0.2c0.28-0.07,0.56-0.15,0.85-0.18c0.42-0.07,0.83-0.19,1.25-0.3c0.14-0.04,0.28-0.07,0.42-0.08
		c0.46-0.04,0.9-0.18,1.34-0.3c0.21-0.06,0.42-0.12,0.61-0.24c0.28-0.2,0.57-0.4,0.76-0.69c0.15-0.22,0.27-0.45,0.48-0.62
		c0.14-0.11,0.3-0.18,0.45-0.26c0.32-0.13,0.58-0.35,0.84-0.58c0.08-0.05,0.16-0.09,0.24-0.12c0.44-0.14,0.87-0.31,1.32-0.39
		c0.29-0.13,0.9,0.07,0.65-0.62c-0.2-0.18-0.53-0.16-0.68-0.43c-0.05-0.15-0.04-0.3,0.02-0.44c1.06-1.45,0.64-2.91-0.11-4.27
		c-1.28-2.32-1.41-1.89,0.24-4.48c0.44-0.69,0.67-1.46,0.78-2.27c0.13-1.01-0.3-1.76-1.17-2.11c-1.01-0.4-1.7-0.19-2.36,0.75
		c-0.55,0.78-0.82,1.68-1.08,2.59c-0.08,0.28-0.11,0.69-0.5,0.65c-0.46-0.05-0.41-0.47-0.36-0.79c0.07-0.53,0.1-1.07,0.1-1.61
		c0-0.61-0.14-1.15-0.75-1.42c-0.63-0.28-1.25-0.25-1.84,0.13c-0.61,0.39-0.89,0.99-1.02,1.67c-0.63,3.25-0.85,6.51-0.09,9.78
		c0.05,0.2,0.08,0.4,0.03,0.6c-0.06,0.16-0.17,0.28-0.31,0.37c-0.31,0.15-0.64,0.14-0.97,0.15c-0.37,0-0.74,0-1.1,0.12
		c-0.32,0.07-0.64,0.09-0.97,0.05c-0.16-0.03-0.31-0.08-0.43-0.19c-0.11-0.3,0.08-0.51,0.25-0.72c1.39-1.79,1.74-3.81,1.34-5.99
		c-0.19-1.02-0.43-2.04-0.81-3.01c-0.82-2.12-3.3-3.36-5.34-2.71c-0.81,0.26-1.48,0.75-1.9,1.44c-1.64,2.7-2.2,5.54-0.82,8.54
		c0.59,1.28,1.51,2.21,2.89,2.66c0.22,0.07,0.44,0.17,0.6,0.36c0.05,0.09,0.07,0.18,0.08,0.28c-0.21,0.62-0.88,0.4-1.28,0.67
		c-0.29,0.12-0.56,0.26-0.82,0.44c-0.86,0.56-1.55,1.3-2.19,2.09c-0.2,0.19-0.39,0.41-0.68,0.46c-0.37,0-0.54-0.31-0.79-0.51
		c-0.41-0.35-0.81-0.71-1.15-1.13c-0.14-0.22-0.32-0.41-0.58-0.5c-0.08-0.04-0.16-0.09-0.23-0.14c-0.23-0.22-0.49-0.38-0.79-0.5
		c-0.34-0.15-0.69-0.26-1.03-0.4c-0.22-0.11-0.48-0.16-0.58-0.42c0.15-0.47,0.59-0.52,0.97-0.62c1.58-0.42,2.52-1.42,2.98-2.98
		c0.78-2.61,0.32-5.09-0.81-7.43c-0.75-1.55-2.17-2.54-3.99-2.51c-1.73,0.03-2.89,1.12-3.58,2.59c-1.05,2.23-1.28,4.56-0.56,6.96
		c0.34,1.14,1.27,1.88,1.85,2.85c-0.02,0.27-0.22,0.35-0.44,0.42c-0.22,0.05-0.44,0.05-0.67,0.05c-0.67,0.05-1.29-0.25-1.96-0.2
		c-0.67,0.01-1.33-0.05-1.96-0.33c-0.1-0.06-0.16-0.15-0.17-0.26c0.05-0.36,0.31-0.58,0.51-0.85c1.28-1.66,1.12-3.37-0.5-4.68
		c-0.59-0.48-0.52-0.81-0.04-1.3c1.16-1.16,1.17-2.61,0.08-3.84c-1.35-1.53-5-1.99-6.7-0.86c-0.51,0.34-0.67,0.85-0.69,1.39
		c-0.1,3.12-0.07,6.24-0.01,9.36c0.01,0.4,0.16,0.79,0.36,1.14c0.05,0.1,0.07,0.2,0.08,0.31c0,0.27-0.1,0.5-0.27,0.7
		c-0.24,0.22-0.61,0.14-0.85,0.36c-0.11,0.44,0.2,0.5,0.5,0.55c0.36,0.06,0.73,0.1,1.05,0.28c0.23,0.12,0.46,0.25,0.7,0.37
		c0.23,0.12,0.43,0.29,0.65,0.42c0.11,0.06,0.22,0.14,0.32,0.22c0.07,0.05,0.13,0.11,0.2,0.17c0.24,0.25,0.49,0.49,0.79,0.67
		c0.52,0.36,0.99,0.8,1.6,1.01c0.61,0.15,1.22,0.3,1.85,0.3c0.15,0.01,0.3,0.04,0.45,0.07c0.38,0.14,0.8,0.1,1.19,0.2
		c0.58,0.16,1.15,0.32,1.75,0.35c0.1,0.01,0.19,0.03,0.29,0.06c0.6,0.16,1.22,0.27,1.83,0.37c0.09,0.02,0.19,0.04,0.28,0.07
		c0.31,0.11,0.65,0.11,0.97,0.19c0.41,0.11,0.82,0.23,1.24,0.29c0.38,0.04,0.74,0.17,1.11,0.23c0.09,0.02,0.18,0.04,0.27,0.07
		c0.26,0.09,0.54,0.14,0.81,0.21c0.27,0.08,0.54,0.13,0.81,0.2c0.41,0.11,0.83,0.23,1.25,0.3c0.2,0.03,0.39,0.07,0.56,0.2
		c0.08,0.09,0.08,0.18,0.01,0.27c-27.31,0-54.62,0-81.93,0.02c-0.76,0-0.94-0.17-0.93-0.93c0.03-8.54,0.03-17.08,0-25.61
		c0-0.6,0.12-0.72,0.73-0.72c40,0.02,80,0.02,120,0c0.61,0,0.76,0.12,0.73,0.72c-0.06,1.24-0.02,2.49-0.02,3.73
		c-0.09,0.04-0.17,0.04-0.26-0.01c-0.39-0.39-0.42-1-0.85-1.36c-0.26-0.58-0.72-1.02-1.08-1.53c-0.57-0.49-0.99-1.35-1.98-0.81
		c-0.41,0.33-0.75,0.72-1.03,1.16c-0.25,0.22-0.42,0.48-0.4,0.83c0.09,0.3,0.06,0.66,0.41,0.83c0.38,0.03,0.74-0.02,1.05-0.26
		c0.1-0.13,0.16-0.26,0.1-0.44c-0.21,0.12-0.08,0.39-0.27,0.48c-0.33,0.16-0.66,0.28-1.02,0.1c-0.15-0.23-0.18-0.48-0.18-0.74
		c0.02-0.26,0.1-0.5,0.28-0.71c0.27-0.43,0.63-0.76,1.12-0.95c0.89-0.33,1.38,0.22,1.82,0.85c0.34,0.4,0.56,0.86,0.85,1.29
		c0.22,0.37,0.39,0.76,0.37,1.21c-0.04,0.23-0.08,0.46-0.11,0.69c-0.07,0.48-0.32,0.87-0.63,1.23c-0.18,0.2-0.31,0.44-0.5,0.63
		c-0.06,0.06-0.13,0.12-0.2,0.18c-0.37,0.35-0.81,0.56-1.29,0.7c-0.09,0.03-0.18,0.05-0.27,0.07c-0.14,0.02-0.29,0.03-0.44,0.04
		c-0.2,0.01-0.41,0-0.61-0.02c-0.32-0.05-0.61-0.16-0.88-0.34c-1.16-1.23-2.51-1.9-4.26-1.48c-0.86,0.21-1.52,0.67-2.04,1.39
		c-1.39,1.9-1.84,4.09-2,6.35c-0.08,1.23-0.27,2.46,0,3.71c0.28,1.29,0.92,1.95,2.05,1.97c1.13,0.03,1.59-0.33,1.81-1.46
		c0.11-0.55,0.15-1.08,0.89-1.13c0.7-0.05,1.02,0.33,1.26,0.92c0.43,1.04,1.12,1.4,2.14,1.23c0.82-0.14,1.27-0.66,1.38-1.75
		c0.16-1.61,0.15-3.21-0.06-4.82c-0.07-0.56-0.21-1.12-0.13-1.7c0.06-0.16,0.19-0.23,0.35-0.28c0.1-0.03,0.19-0.04,0.29-0.05
		c0.95,0.07,1.35-0.73,1.94-1.22c0.09-0.1,0.18-0.19,0.27-0.28c0.22-0.22,0.3-0.52,0.47-0.77c0.4-0.4,0.58-0.94,0.84-1.42
		c0.07-0.14,0.16-0.28,0.24-0.42c0.05-0.1,0.11-0.19,0.15-0.29c0.03-0.1,0.07-0.21,0.11-0.31c0.03-0.07,0.08-0.12,0.15-0.16
		C340.61,135.94,340.67,135.96,340.71,136.03z"/>
	<path class="st1" d="M303.81,157.45c-0.01,0.06-0.03,0.12-0.06,0.17c-0.54,0-1.08,0-1.62,0c-0.05-0.05-0.07-0.1-0.06-0.16
		c0.28-0.36,0.68-0.29,1.06-0.3C303.4,157.16,303.65,157.21,303.81,157.45z"/>
	<path class="st2" d="M340.71,136.03c-0.05,0.01-0.11,0.02-0.17,0.02c-0.25-0.15-0.25-0.39-0.26-0.63c0-0.14,0.02-0.29,0.07-0.42
		c0.04-0.09,0.11-0.15,0.19-0.2c0.06-0.01,0.11,0,0.16,0.02C340.71,135.23,340.71,135.63,340.71,136.03z"/>
	<path class="st3" d="M269.45,145.26c0.11-1.85,0.22-4.31,1.42-6.54c0.72-1.34,1.55-2.53,3.27-2.7c2.54-0.24,4.04,0.78,4.69,3.26
		c0.73,2.78,1.16,5.58,0.75,8.47c-0.2,1.39-0.5,1.75-1.77,1.88c-1.3,0.13-1.98-0.29-2.29-1.57c-0.15-0.6-0.46-0.62-0.95-0.6
		c-0.54,0.02-0.63,0.29-0.65,0.77c-0.03,0.96-0.44,1.69-1.47,1.9c-1.07,0.21-2.08-0.27-2.56-1.19
		C269.54,148.26,269.41,147.34,269.45,145.26z"/>
	<path class="st3" d="M262.98,140.35c0.34-1.15,0.69-2.22,1.28-3.2c0.66-1.12,1.41-1.39,2.65-1c1.07,0.34,1.6,1.13,1.49,2.32
		c-0.13,1.42-0.8,2.63-1.65,3.73c-0.51,0.66-0.5,1.17-0.05,1.86c0.65,0.98,1.18,2.03,1.39,3.22c0.12,0.66,0.04,1.28-0.27,1.86
		c-0.55,1.01-1.72,1.19-2.53,0.37c-0.82-0.82-1.33-1.85-1.83-2.88c-0.14-0.29-0.13-0.68-0.61-0.82c0.04,0.73,0.11,1.44,0.09,2.14
		c-0.03,0.91-0.35,1.63-1.4,1.81c-1.31,0.23-2.15-0.12-2.63-1.14c-0.4-0.84-0.5-1.75-0.56-2.65c-0.18-2.63-0.01-5.24,0.56-7.81
		c0.33-1.5,1.3-2.19,2.66-2c0.95,0.13,1.45,0.61,1.42,1.61C262.95,138.63,262.98,139.49,262.98,140.35z"/>
	<path class="st4" d="M335.84,141.07c0.46,2.35,0.62,4.7,0.29,7.08c-0.15,1.06-0.72,1.52-1.74,1.59c-1.25,0.08-1.92-0.3-2.24-1.4
		c-0.15-0.53-0.28-0.91-0.97-0.82c-0.47,0.06-0.6,0.21-0.64,0.67c-0.1,1.28-0.57,1.86-1.47,1.98c-1.4,0.19-2.29-0.28-2.74-1.5
		c-0.58-1.57-0.3-3.19-0.19-4.77c0.16-2.15,0.64-4.23,1.92-6.06c1.66-2.38,5.05-2.39,6.72-0.01c-0.01,0.09-0.03,0.18-0.05,0.27
		c-0.17,0.82,0.19,1.56,0.34,2.34c0.05,0.25,0.22,0.38,0.45,0.44C335.64,140.9,335.76,140.96,335.84,141.07z"/>
	<path class="st3" d="M241.26,149.98c-3.04-0.04-5.2-2.21-5.47-5.6c-0.15-1.94,0.2-3.82,1.14-5.54c0.81-1.48,2.01-2.47,3.79-2.41
		c1.87,0.07,3.36,0.96,4.12,2.64c1.08,2.39,1.59,4.89,0.84,7.53C245.08,148.72,243.49,150,241.26,149.98z"/>
	<path class="st3" d="M257.28,143.79c-0.03,1.41-0.24,2.47-0.6,3.48c-1.09,2.99-5.36,3.73-7.78,1.34c-2-1.98-2.14-4.45-1.7-7.03
		c0.16-0.96,0.47-1.89,0.95-2.74c0.83-1.47,2.02-2.45,3.8-2.4c1.84,0.05,3.26,0.94,4.08,2.54
		C256.83,140.57,257.2,142.32,257.28,143.79z"/>
	<path class="st4" d="M315.55,148.95c-1.14-3.75-0.79-7.49,0.1-11.22c0.3-1.26,1.69-1.85,2.92-1.42c0.67,0.24,1.05,0.7,1.01,1.45
		c-0.03,0.47-0.05,0.94-0.03,1.41c0.02,0.41-0.31,0.83,0.12,1.35c0.23-1.12,0.53-2.12,1.02-3.04c0.72-1.35,1.46-1.69,2.79-1.27
		c1.2,0.38,1.64,1.25,1.43,2.71c-0.16,1.17-0.7,2.17-1.41,3.08c-0.64,0.81-0.73,1.53-0.08,2.4c0.56,0.75,0.94,1.64,1.15,2.56
		c0.24,1.04,0.27,2.08-0.72,2.83c-0.32,0.05-0.47-0.16-0.6-0.4c-0.24-0.49-0.24-1.02-0.3-1.54c-0.17-0.32-0.42-0.1-0.64-0.1
		c-0.34,0.07-0.67,0.16-0.98,0.32c-0.12,0.07-0.24,0.12-0.38,0.14c-0.2-0.01-0.35-0.11-0.49-0.24c-0.35-0.38-0.5-0.86-0.81-1.49
		c0.07,0.69,0.1,1.18,0.22,1.67c0.01,0.09-0.02,0.18-0.08,0.25c-0.27,0.2-0.62,0.14-0.9,0.31c-0.13,0.07-0.26,0.13-0.39,0.16
		c-0.64,0.01-1.26,0.09-1.88,0.27C316.23,149.19,315.86,149.25,315.55,148.95z"/>
	<path class="st3" d="M225.64,137.72c0.08-0.57,0.56-0.75,0.98-0.9c1.88-0.68,3.75-0.73,5.59,0.17c1.27,0.62,1.9,1.69,2.05,3.03
		c0.13,1.23-0.6,2-1.73,2.56c1.54,0.67,2.33,1.77,2.18,3.39c-0.15,1.67-1.11,2.72-2.63,3.39c-1.76,0.78-3.52,0.78-5.32,0.23
		c-0.79-0.24-1.18-0.7-1.23-1.6c-0.15-2.38-0.11-4.76-0.08-7.14c0.23-0.49,0.35-1,0.31-1.55
		C225.8,138.77,225.97,138.23,225.64,137.72z"/>
	<path class="st4" d="M282.6,149.32c-0.55-0.44-0.53-1.07-0.53-1.66c-0.02-2.79-0.03-5.58,0-8.36c0.02-1.95,0.38-2.41,2.31-2.75
		c1.55-0.28,3.1-0.22,4.54,0.56c1.28,0.7,1.89,1.82,1.96,3.21c0.06,1.08-0.69,1.76-1.65,2.35c0.58,0.37,1.13,0.63,1.48,1.13
		c0.91,1.28,0.81,3.14-0.27,4.4c-0.22,0.26-0.46,0.49-0.69,0.73c-0.07,0.07-0.16,0.1-0.25,0.1c-0.65,0.01-1.27-0.25-1.92-0.18
		c-0.09,0-0.18-0.01-0.27-0.04c-0.45-0.3-0.95-0.42-1.49-0.38c-0.09-0.01-0.17-0.04-0.25-0.08c-0.42-0.26-0.91-0.32-1.36-0.48
		c-0.7-0.32-1.07-0.14-1.01,0.67C283.06,148.86,283.03,149.24,282.6,149.32z"/>
	<path class="st4" d="M294.81,149.16c-2.87-2.44-2.8-5.52-1.93-8.77c0.13-0.48,0.34-0.95,0.58-1.39c0.82-1.52,2.02-2.57,3.84-2.52
		c1.87,0.05,3.37,0.99,4.13,2.65c1.09,2.38,1.59,4.89,0.83,7.53c-0.53,1.84-1.62,2.96-3.52,3.32c-0.26,0.05-0.5,0.18-0.76,0.27
		c-0.19,0.18-0.4,0.09-0.61,0.07c-0.09-0.02-0.17-0.04-0.25-0.06c-0.38-0.1-0.76-0.2-1.15-0.26c-0.23-0.04-0.44-0.09-0.63-0.24
		C295.14,149.58,294.93,149.41,294.81,149.16z"/>
	<path class="st4" d="M308.06,150.16c-1.22-0.6-2.49-1.06-3.31-2.31c-1.76-2.69-1.49-7.51,0.65-9.93c2.07-2.33,5.98-1.7,7.28,1.28
		c1,2.29,1.57,4.68,0.86,7.23c-0.32,1.15-0.87,2.08-1.7,2.89c-0.01,0.16-0.1,0.27-0.23,0.35c-0.18,0.08-0.37,0.1-0.57,0.12
		c-0.55,0.09-1.1,0.15-1.6,0.43C308.98,150.27,308.51,150.35,308.06,150.16z"/>
	<path class="st5" d="M321.03,148.1c0.07-0.03,0.09-0.09,0.07-0.16c0.51,0.05,0.95-0.22,1.43-0.31c0.54,0,0.47,0.4,0.5,0.74
		c-0.03,0.4,0.18,0.73,0.28,1.09c0.16,0.24,0.33,0.47,0.46,0.74c0.15,0.19,0.18,0.37-0.05,0.53c-2,0.64-4.08,0.88-6.13,1.28
		c-3.61,0.71-7.23,1.34-10.84,2.01c-0.65,0.12-1.2,0.37-1.73,0.78c-1.43,1.1-3.04,0.87-4.16-0.53c-0.24-0.49-0.35-1-0.42-1.54
		c-0.05-0.43,0.17-0.6,0.43-0.8c0.24-0.06,0.33,0.14,0.46,0.26c0.4,0.34,0.81,0.68,1.21,1.02c0,0.39,0.25,0.67,0.44,0.98
		c0.14,0.06,0.2-0.05,0.27-0.13c0.2-0.24,0.33-0.51,0.5-0.77c0.51-0.89,1.27-1.55,2.11-2.11c0.39,0.06,0.67-0.2,1-0.31
		c0.38-0.18,0.83-0.14,1.19-0.38c0.39-0.21,0.8-0.32,1.24-0.21c0.51,0.15,1.03-0.09,1.54-0.02c0.27,0.03,0.53-0.02,0.78-0.08
		c0.21-0.03,0.41-0.1,0.59-0.23c0.2-0.13,0.41-0.16,0.64-0.12c0.39,0.09,0.77,0.18,1.14-0.07c0.17-0.09,0.35-0.14,0.54-0.12
		c0.37,0.06,0.73,0.13,1.1,0.14c0.11,0,0.23-0.01,0.35,0.01c0,0-0.03-0.01-0.1-0.02c-0.28-0.03-0.56-0.02-0.6-0.39
		c0.11-0.11,0.25-0.18,0.41-0.2c0.47-0.01,0.93-0.12,1.38-0.21c0.49-0.1,0.98-0.14,1.47-0.21c0.05-0.06,0.1-0.13,0.15-0.19
		c0.38,0.02,0.74-0.09,1.11-0.13C320.16,148.07,320.64,148.23,321.03,148.1z"/>
	<path class="st6" d="M300.92,153.97c1.62,1.64,2.52,1.69,4.4,0.23c0.28-0.22,0.58-0.33,0.92-0.4c5.87-1.09,11.74-2.18,17.61-3.27
		c0.3-0.4,0.59-0.32,0.87,0.03c-0.05,0.65-0.6,0.54-1,0.65c-0.43,0.14-0.91,0.15-1.25,0.52l-0.09,0.05l-0.1-0.01
		c-0.31,0.18-0.56,0.48-0.97,0.48c-3.54,0.62-7.06,1.32-10.56,2.17c-1.13,0.38-2.31,0.46-3.47,0.67c-0.67,0.12-1.33,0.24-1.87,0.69
		c-1.57,0.72-3.12,0.86-4.63-0.17c-0.36-0.27-0.79-0.39-1.22-0.44c-4.58-0.61-9.07-1.74-13.62-2.51c-0.36-0.06-0.72-0.19-1.1-0.06
		c-0.13-0.09-0.26-0.17-0.38-0.26c-0.15-0.2-0.29-0.41-0.53-0.53c-0.28-0.15-0.56-0.31-0.86-0.43c-0.33-0.14-0.68-0.2-1.04-0.24
		c-0.43-0.04-0.66-0.26-0.49-0.73c0.32-0.32,0.72-0.01,1.06-0.14c4.06,0.74,8.11,1.52,12.16,2.26c1.7,0.31,3.39,0.62,5.09,0.95
		C300.25,153.56,300.66,153.59,300.92,153.97z"/>
	<path class="st5" d="M300.92,153.97c-5.7-1.07-11.4-2.14-17.1-3.21c-0.49-0.09-1.01-0.1-1.44-0.4c-0.05-0.09-0.04-0.16,0.06-0.22
		c-0.04-0.2,0.01-0.37,0.19-0.48c0.22-0.33,0.42-0.67,0.48-1.07c0.09-1.01,0.09-1.01,1.09-0.76c0.48,0.2,1.05,0.18,1.48,0.52
		l-0.01-0.01c0.6,0.03,1.19,0.08,1.72,0.4l0.01,0c0.75-0.06,1.47,0.31,2.23,0.21l0.06,0.04c0,0,0.05-0.06,0.05-0.06s-0.01,0-0.01,0
		c0.27,0.32,0.72,0.16,1.03,0.37c0.05,0.08,0.06,0.17,0.03,0.26c-0.08,0.09-0.18,0.15-0.29,0.17c0.12,0.05,0.22,0,0.32,0.01
		c0.28-0.06,0.56-0.04,0.84-0.08c0.61-0.28,1.11,0.24,1.68,0.23c0.53,0.02,1.05,0.15,1.58,0.07c0.1,0,0.19,0.02,0.28,0.05
		c0.38,0.17,0.77,0.31,1.18,0.38c0.21,0.06,0.42,0.12,0.63,0.17c0.28,0.08,0.56,0.15,0.86,0.07c0.22-0.03,0.42,0.02,0.62,0.13
		c0.11,0.06,0.21,0.14,0.3,0.22c0.13,0.1,0.28,0.15,0.45,0.17c0.13,0.01,0.26,0.03,0.39,0.06c0.31,0.11,0.65,0.14,0.9,0.37
		c0.04-0.02,0.08-0.02,0.12-0.02c0.19,0.11,0.25,0.28,0.24,0.49C300.29,152.68,300.92,153.33,300.92,153.97z"/>
	<path class="st7" d="M284.84,152.6c0.11-0.47,0.4-0.38,0.77-0.3c3.82,0.75,7.64,1.47,11.46,2.19c1.02,0.19,2.05,0.35,3.08,0.49
		c0.32,0.04,0.59,0.11,0.74,0.42c0.24,0.48,0.57,0.95,0.16,1.5c-0.09,0.06-0.19,0.09-0.3,0.1c-0.32,0.02-0.6-0.14-0.9-0.18
		c-0.42-0.09-0.84-0.26-1.28-0.2l0,0c-0.27-0.2-0.59-0.24-0.9-0.34c-0.42-0.06-0.83-0.21-1.25-0.28c-0.46-0.14-0.93-0.19-1.41-0.19
		l0.02,0.01c-0.67-0.34-1.39-0.44-2.14-0.41l-0.03-0.01c-0.54-0.26-1.12-0.31-1.69-0.43c-0.48-0.12-0.97-0.2-1.46-0.18
		c-0.12-0.01-0.25-0.01-0.37-0.02c-0.66-0.24-1.35-0.39-2.06-0.38c-0.68-0.1-1.07-0.62-1.54-1.03c-0.29-0.26-0.5-0.61-0.88-0.78
		L284.84,152.6z"/>
	<path class="st8" d="M305.38,155.59c0.4-0.85,1.26-0.62,1.93-0.78c1.1-0.26,2.22-0.42,3.34-0.62c3.21-0.59,6.39-1.32,9.61-1.85
		c0.28-0.05,0.68-0.35,0.76,0.24c-0.19,0.19-0.16,0.56-0.49,0.64c-0.32,0.22-0.58,0.52-0.93,0.71c-0.2,0.09-0.42,0.14-0.63,0.21
		c-0.43,0.1-0.88,0.15-1.25,0.43c-0.13,0.01-0.26,0.02-0.39,0.03c-0.56-0.03-1.08,0.18-1.62,0.25c-0.18,0.04-0.36,0.12-0.55,0.13
		c-0.24,0.03-0.46,0.14-0.69,0.18c-0.4-0.01-0.76,0.15-1.14,0.21c-0.46,0.08-0.91,0.24-1.39,0.25c-0.28,0.12-0.62,0.11-0.86,0.33
		c-0.08,0.02-0.16,0.03-0.25,0.05c-0.47,0.03-0.95,0.03-1.41,0.18c-0.49,0.07-0.96,0.21-1.44,0.29c-0.18,0.09-0.38,0.11-0.58,0.11
		c-0.49,0.14-1,0.19-1.5,0.29c-0.21,0.05-0.42,0.12-0.64,0.02C304.76,156.43,305.06,156.01,305.38,155.59z"/>
	<path class="st9" d="M321.03,152.59c-0.62-0.39-1.22,0-1.81,0.1c-2.56,0.45-5.11,0.98-7.67,1.47c-0.29,0.06-0.6,0.02-0.9,0.03
		c2.07-0.64,4.21-0.93,6.31-1.4c1.2-0.27,2.42-0.47,3.63-0.72c0.3-0.06,0.58-0.19,0.84,0.09c0.07,0.04,0.09,0.09,0.08,0.15
		c-0.02,0.05-0.03,0.08-0.05,0.08C321.39,152.6,321.19,152.56,321.03,152.59z"/>
	<path class="st10" d="M224.96,140.89c-1.12,0.57-1.8-0.28-2.59-0.79c-0.01-0.3,0.14-0.52,0.32-0.74c0.21-0.19,0.4-0.4,0.71-0.43
		c0.34,0.02,0.67,0.07,0.97,0.25c0.4,0.45,0.36,1.05,0.56,1.57C224.95,140.8,224.96,140.84,224.96,140.89z"/>
	<path class="st11" d="M338.5,139.73c-0.61,0.55-0.96,1.51-2.05,1.31c-0.41-0.51-0.29-1.07-0.18-1.63c0.18-0.38,0.54-0.51,0.9-0.63
		c0.45-0.07,0.74,0.22,1.04,0.48C338.36,139.38,338.48,139.52,338.5,139.73z"/>
	<path class="st12" d="M338.27,132.39c-0.47-0.4-0.77-1.16-1.62-0.8c-0.21-0.17-0.36-0.35-0.24-0.64c0.88-0.58,1.26-0.42,2.24,0.93
		C338.7,132.17,338.54,132.32,338.27,132.39z"/>
	<path class="st13" d="M222.74,132.15c-0.85-0.13-1.04,0.59-1.41,1.07c-0.04-0.02-0.08-0.04-0.11-0.06
		c-0.16-0.16-0.27-0.34-0.29-0.56c1.01-1.51,1.03-1.51,2.19-1.06C223.15,131.84,222.94,131.99,222.74,132.15z"/>
	<path class="st14" d="M334.6,137.87c0.06-0.01,0.12-0.03,0.18-0.05c0.29,0.08,0.57,0.17,0.86,0.25c0.36,0.37,0.5,0.8,0.33,1.31
		c-0.28,0.4-0.73,0.41-1.15,0.49C334.64,139.21,334.36,138.57,334.6,137.87z"/>
	<path class="st15" d="M224.34,139.28c-0.35,0.01-0.68-0.04-0.99-0.22c-0.02-0.59-0.31,0.09-0.42-0.09
		c-0.35-0.05-0.62-0.24-0.84-0.5c-0.07-0.29,0.09-0.46,0.31-0.6c0.05-0.01,0.1-0.02,0.14-0.03c0.63,0.37,1.33,0.22,2,0.25
		C224.7,138.53,224.69,138.93,224.34,139.28z"/>
	<path class="st16" d="M225.99,139.31c0.02,0.58,0.23,1.24-0.55,1.54c-0.16,0.01-0.32,0.02-0.48,0.04c0,0-0.03-0.05-0.03-0.05
		c-0.23-0.58-0.56-1.17,0.1-1.7C225.39,139,225.72,138.98,225.99,139.31z"/>
	<path class="st17" d="M225.99,139.31c-0.33-0.01-0.66-0.02-0.99-0.03c-0.41-0.41-0.33-0.83-0.02-1.26c0.22-0.1,0.44-0.2,0.65-0.31
		C226.53,138.08,225.93,138.77,225.99,139.31z"/>
	<path class="st18" d="M334.99,139.87c0.1-0.51,0.57-0.27,0.85-0.42c0.78,0.38,0.26,1.05,0.38,1.59c-0.12,0.01-0.25,0.02-0.37,0.04
		c-0.12-0.03-0.24-0.05-0.37-0.08c-0.37-0.02-0.42-0.32-0.54-0.58C334.93,140.23,334.87,140.04,334.99,139.87z"/>
	<path class="st19" d="M338.27,132.39c0.13-0.17,0.25-0.34,0.38-0.51c0.49,0.41,0.98,0.82,1.11,1.5c-0.14,0.3-0.34,0.44-0.67,0.24
		C338.82,133.2,338.54,132.8,338.27,132.39z"/>
	<path class="st20" d="M336.21,141.03c-0.27-0.5-0.01-1.12-0.38-1.59c-0.07-0.46-0.13-0.92-0.2-1.38c0.19,0,0.38,0.01,0.58,0.01
		c0.34,0.34,0.39,0.75,0.24,1.19c0,0.59-0.01,1.18-0.01,1.77C336.37,141.04,336.29,141.03,336.21,141.03z"/>
	<path class="st21" d="M219.52,135.83c-0.06-0.59,0.13-1.11,0.4-1.61c0.33-0.23,0.55-0.05,0.76,0.2c-0.05,0.39-0.1,0.78-0.15,1.17
		c-0.02,0.04-0.04,0.09-0.07,0.13C220.18,135.97,219.87,136.11,219.52,135.83z"/>
	<path class="st22" d="M339.09,133.61c0.22-0.08,0.45-0.16,0.67-0.24c0.55,0.32,0.58,0.92,0.78,1.43c0,0-0.09,0.02-0.09,0.02
		c-0.22,0.24-0.5,0.23-0.78,0.15c-0.09-0.04-0.15-0.1-0.2-0.19C339.35,134.39,339.22,134,339.09,133.61z"/>
	<path class="st23" d="M224.99,138.03c0.01,0.42,0.01,0.84,0.02,1.26c-0.3,0.51-0.06,1.04-0.08,1.56c-0.7-0.33-0.37-1.05-0.59-1.56
		c0.07-0.4-0.03-0.82,0.2-1.19C224.69,138.07,224.84,138.05,224.99,138.03z"/>
	<path class="st24" d="M224.54,134.21c-0.55,0.46-1.06,0.21-1.55-0.1c-0.26-0.17-0.32-0.43-0.21-0.7c0.08-0.2,0.26-0.32,0.48-0.27
		c0.31,0.06,0.25,0.29,0.26,0.54c0.02,0.64,0.41,0.22,0.66,0.18C224.37,133.91,224.51,134.01,224.54,134.21z"/>
	<path class="st25" d="M340.46,136.39c-0.05,0.09-0.11,0.18-0.16,0.27c-0.17,0.14-0.39,0.23-0.43,0.48c-0.22,0.44-0.4,0.91-0.7,1.31
		c-0.08,0.06-0.17,0.08-0.26,0.08c-0.14-0.05-0.23-0.16-0.29-0.29c-0.02-0.09-0.03-0.18-0.01-0.28c0.13-0.38,0.35-0.73,0.45-1.13
		c0.02-0.09,0.05-0.17,0.09-0.26c0.13-0.29,0.19-0.62,0.49-0.8c0.09-0.03,0.18-0.03,0.27,0
		C340.15,135.93,340.26,136.2,340.46,136.39z"/>
	<path class="st26" d="M220.68,134.42c-0.25-0.07-0.5-0.13-0.76-0.2c0.17-0.46,0.42-0.88,0.77-1.23c0.27-0.14,0.43,0.06,0.61,0.21
		c0,0,0.02,0.02,0.02,0.02C221.11,133.62,220.9,134.02,220.68,134.42z"/>
	<path class="st27" d="M281.65,150.37c-0.13,0.47,0.16,0.54,0.53,0.61c0.37,0.07,0.81,0.03,1.04,0.45c0.06,0.02,0.08,0.05,0.07,0.08
		c-0.01,0.04-0.03,0.05-0.04,0.05c-0.43-0.07-0.86-0.12-1.28-0.22c-0.51-0.13-1.02-0.3-0.54-0.98
		C281.51,150.27,281.58,150.27,281.65,150.37z"/>
	<path class="st28" d="M336.83,138.01c0.45-0.17,0.9-0.34,1.23-0.71c0.26,0.21,0.57,0.38,0.44,0.8c-0.24,0.26-0.51,0.45-0.88,0.48
		C337.27,138.52,336.94,138.42,336.83,138.01z"/>
	<path class="st29" d="M336.46,139.27c-0.25-0.36-0.21-0.78-0.24-1.19c0.14-0.01,0.28-0.02,0.42-0.03c0.24,0.24,0.73,0.29,0.62,0.79
		C337.07,139.12,336.78,139.23,336.46,139.27z"/>
	<path class="st30" d="M222.06,139.88c-0.2-0.12-0.43-0.21-0.53-0.44c0.12-0.22-0.04-0.37-0.15-0.53c-0.17-0.19-0.37-0.36-0.37-0.65
		c0.02-0.14,0.1-0.24,0.24-0.27c0.24,0.02,0.38,0.19,0.54,0.33c0.1,0.08,0.17,0.18,0.26,0.28c0.21,0.21,0.45,0.39,0.57,0.68
		c0.01,0.09-0.01,0.17-0.06,0.25C222.43,139.69,222.3,139.86,222.06,139.88z"/>
	<path class="st31" d="M292.89,155.4c0.8-0.31,1.53-0.27,2.14,0.41C294.29,155.8,293.58,155.65,292.89,155.4z"/>
	<path class="st32" d="M336.41,130.95c0.08,0.21,0.16,0.43,0.24,0.64c-0.4,0.19-0.72,0.47-1,0.81c-0.13-0.02-0.21-0.1-0.24-0.23
		C335.58,131.63,335.95,131.25,336.41,130.95z"/>
	<path class="st33" d="M339.08,138.47c0.21-0.48,0.42-0.96,0.63-1.44c0.14-0.11,0.28-0.09,0.4,0.03c-0.26,0.58-0.34,1.28-0.99,1.63
		c-0.06-0.04-0.09-0.08-0.08-0.14C339.05,138.49,339.06,138.47,339.08,138.47z"/>
	<path class="st34" d="M339.88,135.83l-0.06,0.01l-0.06,0c-0.24-0.01-0.32-0.18-0.41-0.36c0-0.24-0.03-0.48,0.13-0.68
		c0,0,0.05,0.07,0.05,0.07c0.27,0.24,0.69,0.1,0.96,0.34c0.02,0.29,0.03,0.58,0.05,0.86c0,0-0.05-0.01-0.05-0.01
		C340.22,136.17,340.06,135.97,339.88,135.83z"/>
	<path class="st35" d="M287.27,154.38c0.75-0.21,1.45-0.19,2.06,0.38C288.62,154.78,287.92,154.7,287.27,154.38z"/>
	<path class="st36" d="M336.41,133.55c-0.14-0.29-0.43-0.59-0.02-0.86c0.19-0.12,0.39,0.06,0.5,0.22c0.28,0.4,0.09,0.68-0.26,0.9
		C336.42,133.85,336.35,133.76,336.41,133.55z"/>
	<path class="st37" d="M291.16,154.82c0.58,0.15,1.31-0.12,1.7,0.57c-0.68,0.03-1.33-0.1-1.95-0.37
		C290.94,154.9,291.07,154.88,291.16,154.82z"/>
	<path class="st38" d="M224.2,132.39c0.49,0.29,0.96,0.58,0.58,1.26c-0.21-0.07-0.24-0.34-0.45-0.42c-0.2-0.21-0.39-0.42-0.59-0.63
		C223.77,132.25,223.96,132.26,224.2,132.39z"/>
	<path class="st39" d="M337.26,138.85c-0.21-0.26-0.41-0.53-0.62-0.79c0.06-0.02,0.13-0.03,0.19-0.05c0.29,0.15,0.57,0.3,0.86,0.45
		c0.33,0.14,0.55,0.36,0.53,0.74c-0.02,0.09-0.07,0.17-0.15,0.23C337.8,139.23,337.53,139.04,337.26,138.85z"/>
	<path class="st40" d="M221.49,137.03c0.35,0.27,0.71,0.54,1.06,0.81c0,0-0.06,0.03-0.06,0.03c-0.19,0.09-0.34,0.31-0.6,0.22
		c-0.25-0.15-0.44-0.42-0.79-0.36c-0.19-0.02-0.34-0.11-0.43-0.28c-0.01-0.09,0-0.18,0.06-0.26
		C220.94,137.01,221.21,137,221.49,137.03z"/>
	<path class="st41" d="M291.78,149.18c0.67,0.07,1.34,0.13,2.01,0.2c-0.01,0.4-0.34,0.35-0.59,0.42c-0.43,0.02-0.83-0.23-1.27-0.13
		c-0.11-0.02-0.19-0.08-0.24-0.19C291.67,149.36,291.7,149.26,291.78,149.18z"/>
	<path class="st42" d="M299.5,151.31c-0.13,0.01-0.26,0.02-0.39,0.03c-0.12-0.1-0.33-0.04-0.39-0.23c-0.08-0.07-0.16-0.14-0.24-0.22
		c-0.02-0.13,0.04-0.21,0.16-0.26c0.44-0.15,0.77,0.02,1.04,0.36C299.72,151.16,299.66,151.26,299.5,151.31z"/>
	<path class="st43" d="M305.96,156.78c0.45-0.28,0.98-0.25,1.47-0.33c0.18,0.13,0.45-0.04,0.61,0.17c-0.53,0.25-1.09,0.3-1.66,0.36
		C306.27,156.86,306.05,156.96,305.96,156.78z"/>
	<path class="st44" d="M339.35,135.47c0.14,0.12,0.27,0.24,0.41,0.36c-0.16,0.27-0.32,0.54-0.48,0.81c-0.2,0.16-0.39,0.17-0.59,0
		C338.9,136.25,339.12,135.86,339.35,135.47z"/>
	<path class="st45" d="M311.84,155.57c0.46-0.26,0.98-0.25,1.48-0.34c0.13,0.11,0.36,0,0.45,0.2c-0.47,0.23-0.98,0.3-1.5,0.34
		C312.15,155.65,311.93,155.75,311.84,155.57z"/>
	<path class="st46" d="M221.11,138.26c0.14,0.19,0.27,0.38,0.41,0.57c-0.02,0.14-0.1,0.24-0.24,0.26c-0.42-0.33-0.69-0.78-0.98-1.21
		c0.09-0.15,0.23-0.18,0.39-0.18C221.02,137.75,221.02,138.04,221.11,138.26z"/>
	<path class="st47" d="M224.2,132.39c-0.18,0.01-0.35,0.03-0.46,0.21c-0.26-0.14-0.52-0.27-0.78-0.41c-0.06-0.33,0.1-0.46,0.42-0.44
		C223.75,131.85,224.01,132.07,224.2,132.39z"/>
	<path class="st48" d="M335.41,132.17c0.08,0.08,0.16,0.15,0.24,0.23c-0.08,0.21-0.16,0.42-0.24,0.63c-0.12,0.2-0.26,0.39-0.53,0.19
		C334.83,132.76,334.85,132.33,335.41,132.17z"/>
	<path class="st49" d="M336.41,133.55c0.08,0.09,0.15,0.17,0.23,0.26c-0.37,0.36-0.75,0.63-1.25,0.2c-0.05-0.13-0.02-0.23,0.09-0.31
		C335.79,133.65,336.1,133.6,336.41,133.55z"/>
	<path class="st50" d="M291.78,149.18c0,0.07-0.01,0.13-0.01,0.2c-0.34,0.25-0.67,0.24-1.01,0c-0.32-0.18-0.9,0.19-1.02-0.45
		C290.42,149.01,291.1,149.09,291.78,149.18z"/>
	<path class="st51" d="M298.64,150.63c-0.05,0.09-0.11,0.17-0.16,0.26c-0.2-0.03-0.4-0.06-0.6-0.08c-0.37-0.09-0.62-0.24-0.32-0.66
		c0.14,0.04,0.29,0.07,0.43,0.11C298.21,150.37,298.55,150.29,298.64,150.63z"/>
	<path class="st52" d="M309.37,150.31c-0.47-0.06-0.87,0.34-1.36,0.19c-0.05-0.04-0.06-0.07-0.05-0.11
		c0.02-0.04,0.03-0.06,0.05-0.06c-0.02-0.07,0-0.13,0.05-0.18c0.46-0.14,0.92-0.18,1.38-0.01c0.02,0.04,0.04,0.09,0.07,0.13
		C309.46,150.29,309.42,150.3,309.37,150.31z"/>
	<path class="st35" d="M323.63,151.15c0.28-0.29,0.86-0.06,1.02-0.57c-0.09-0.1-0.08-0.19,0.03-0.26c0.4,0.8,0.3,0.92-0.83,1.01
		C323.78,151.27,323.65,151.27,323.63,151.15z"/>
	<path class="st53" d="M307.98,156.37c0.46-0.27,0.99-0.23,1.48-0.34c0.13,0.11,0.35,0.01,0.45,0.2c-0.47,0.25-0.98,0.27-1.49,0.34
		C308.29,156.46,308.07,156.56,307.98,156.37z"/>
	<path class="st54" d="M221.49,137.03c-0.26,0.09-0.52,0.17-0.77,0.26c-0.04-0.02-0.08-0.04-0.13-0.05
		c-0.11-0.09-0.18-0.21-0.21-0.35c-0.01-0.09,0.01-0.18,0.04-0.27c0.07-0.12,0.17-0.21,0.32-0.24
		C221.07,136.51,221.27,136.78,221.49,137.03z"/>
	<path class="st55" d="M220.74,136.38c-0.08,0.09-0.16,0.17-0.24,0.26c-0.07,0.07-0.15,0.09-0.25,0.06
		c-0.25-0.12-0.49-0.24-0.62-0.5c0.11-0.44,0.65-0.2,0.83-0.53c0.02-0.03,0.04-0.06,0.06-0.09
		C220.79,135.8,220.72,136.1,220.74,136.38z"/>
	<path class="st56" d="M315.7,154.77c0.54-0.17,1.06-0.5,1.64-0.15c-0.36,0.28-0.79,0.29-1.22,0.34
		C316.01,154.85,315.8,154.94,315.7,154.77z"/>
	<path class="st57" d="M317.14,149.1c-0.47,0.07-0.95,0.13-1.42,0.2c-0.12-0.09-0.3-0.01-0.4-0.16c0.07-0.06,0.15-0.13,0.22-0.19
		c0.38-0.02,0.77-0.03,1.15-0.05C316.89,148.87,317.13,148.73,317.14,149.1z"/>
	<path class="st58" d="M317.73,154.59c0.18-0.71,0.85-0.36,1.26-0.58c0.07,0.06,0.2,0.06,0.22,0.18
		C318.76,154.48,318.25,154.55,317.73,154.59z"/>
	<path class="st59" d="M339.08,138.47c0.01,0.07,0.03,0.15,0.04,0.22c0.06,0.36-0.14,0.6-0.39,0.81c-0.32-0.09-0.43-0.31-0.41-0.62
		c0.09-0.28,0.21-0.51,0.57-0.43C338.95,138.45,339.02,138.46,339.08,138.47z"/>
	<path class="st60" d="M323.63,151.15c0.07,0.06,0.15,0.12,0.22,0.18c-0.46,0.13-0.93,0.27-1.39,0.4
		C322.67,151.16,323.15,151.16,323.63,151.15z"/>
	<path class="st61" d="M296.43,155.84c0.44,0.11,0.88,0.21,1.31,0.32c-0.1,0.21-0.33,0.1-0.48,0.19c-0.44-0.04-0.88-0.12-1.27-0.33
		C296.09,155.84,296.3,155.94,296.43,155.84z"/>
	<path class="st62" d="M300.7,156.86c0.07-0.01,0.13-0.01,0.2,0.01c0.37,0.04,0.8-0.25,1.08,0.23c-0.02,0.29-0.31,0.17-0.44,0.29
		c-0.46-0.02-0.88-0.14-1.29-0.34C300.34,156.85,300.56,156.95,300.7,156.86z"/>
	<path class="st63" d="M302.92,154.42c-0.18-0.39-0.72-0.69-0.36-1.23c0.24,0.17,0.24,0.56,0.58,0.64c0.07,0.06,0.1,0.13,0.1,0.23
		C303.19,154.22,303.12,154.38,302.92,154.42z"/>
	<path class="st64" d="M303.81,157.45c-0.22-0.02-0.44-0.04-0.67-0.07c-0.05-0.1-0.03-0.18,0.05-0.26c0.42-0.2,0.84-0.34,1.31-0.24
		c0.15,0.07,0.25,0.18,0.28,0.33C304.53,157.57,304.13,157.33,303.81,157.45z"/>
	<path class="st65" d="M291.16,154.82c-0.08,0.07-0.17,0.14-0.25,0.21c-0.4-0.07-0.85,0.09-1.2-0.24
		C290.2,154.34,290.67,154.85,291.16,154.82z"/>
	<path class="st66" d="M308.01,150.33c0.01,0.06,0.01,0.11,0,0.17c-0.33,0.34-0.76,0.43-1.2,0.48c-0.06-0.05-0.08-0.1-0.06-0.15
		c0.01-0.05,0.03-0.08,0.05-0.08C307.08,150.25,307.67,150.66,308.01,150.33z"/>
	<path class="st67" d="M299.5,151.31c0.06-0.11,0.12-0.21,0.18-0.32c0.41,0.01,0.78,0.08,0.87,0.58
		C300.15,151.66,299.8,151.56,299.5,151.31z"/>
	<path class="st68" d="M224.33,133.23c0.32-0.04,0.42,0.15,0.45,0.42c-0.04,0.21,0,0.44-0.24,0.56c-0.12-0.12-0.24-0.24-0.35-0.35
		C224.4,133.69,224.29,133.44,224.33,133.23z"/>
	<path class="st69" d="M219.68,136.22c0.27,0.02,0.5,0.12,0.61,0.38c-0.09,0.32-0.29,0.41-0.59,0.29c-0.22-0.19-0.22-0.43-0.18-0.69
		C219.59,136.13,219.64,136.14,219.68,136.22z"/>
	<path class="st70" d="M338.68,136.64c0.2,0,0.39,0,0.59,0c0,0.07,0,0.14-0.01,0.21c-0.31,0.21-0.38,0.7-0.87,0.69
		c-0.14-0.07-0.25-0.15-0.17-0.33C338.38,137.01,338.53,136.83,338.68,136.64z"/>
	<path class="st35" d="M296.43,155.84c-0.15,0.06-0.29,0.12-0.44,0.18c-0.33-0.07-0.7,0.05-0.99-0.22
		C295.49,155.5,295.96,155.77,296.43,155.84z"/>
	<path class="st71" d="M313.25,149.31c0.34-0.2,0.7-0.18,1.07-0.14c0.12,0.14,0.45-0.02,0.43,0.31c-0.3,0.27-0.67,0.18-1.02,0.21
		C313.53,149.62,313.35,149.52,313.25,149.31z"/>
	<path class="st35" d="M309.9,156.23c-0.15-0.07-0.3-0.13-0.45-0.2c0.46-0.1,0.93-0.2,1.39-0.01
		C310.58,156.3,310.22,156.14,309.9,156.23z"/>
	<path class="st72" d="M335.48,133.7c-0.03,0.1-0.06,0.21-0.09,0.31c-0.32-0.17-0.41-0.48-0.52-0.79c0.18-0.06,0.35-0.13,0.53-0.19
		C335.43,133.25,335.46,133.48,335.48,133.7z"/>
	<path class="st73" d="M297.27,156.35c0.16-0.06,0.32-0.13,0.48-0.19c0.33,0.05,0.75-0.06,0.83,0.45
		C298.13,156.52,297.7,156.44,297.27,156.35z"/>
	<path class="st35" d="M311.84,155.57c0.14,0.07,0.28,0.13,0.42,0.2c-0.39,0.07-0.78,0.14-1.17,0.2
		C311.14,155.45,311.58,155.66,311.84,155.57z"/>
	<path class="st74" d="M319.6,153.81c0.3-0.21,0.46-0.65,0.94-0.58c-0.03,0.45-0.39,0.58-0.71,0.76
		C319.6,154.11,319.59,153.98,319.6,153.81z"/>
	<path class="st75" d="M298.57,156.61c0.45-0.5,0.88,0.03,1.31,0.04c-0.03,0.39-0.27,0.22-0.47,0.18
		C299.12,156.82,298.82,156.82,298.57,156.61z"/>
	<path class="st76" d="M313.77,155.43c-0.15-0.07-0.3-0.13-0.45-0.2c0.4-0.07,0.8-0.14,1.2-0.21c0.12,0.11,0.11,0.22,0,0.32
		C314.27,155.37,314.02,155.4,313.77,155.43z"/>
	<path class="st77" d="M283.22,148.73c-0.06,0.39-0.13,0.78-0.59,0.93c-0.01-0.11-0.02-0.22-0.03-0.33
		c0.14-0.28,0.27-0.55,0.41-0.83C283.14,148.51,283.15,148.64,283.22,148.73z"/>
	<path class="st78" d="M303.15,157.26c0,0.04,0,0.08,0,0.12c-0.36,0.02-0.72,0.05-1.08,0.07c-0.18-0.02-0.36-0.05-0.54-0.07
		c0.14-0.07,0.28-0.13,0.42-0.2C302.37,156.9,302.77,156.86,303.15,157.26z"/>
	<path class="st23" d="M219.68,136.22c-0.05-0.01-0.1-0.01-0.16-0.02c0-0.13,0-0.25,0-0.37c0.31-0.05,0.63-0.1,0.94-0.16
		C220.5,136.27,219.84,135.89,219.68,136.22z"/>
	<path class="st79" d="M222.06,139.88c0.02-0.28,0.21-0.39,0.46-0.43c0.1-0.08,0.18-0.07,0.26,0.03c-0.02,0.28-0.17,0.47-0.4,0.62
		C222.27,140.03,222.17,139.96,222.06,139.88z"/>
	<path class="st80" d="M293.18,149.57c0.19-0.09,0.46,0.04,0.61-0.19c0.2,0,0.4,0,0.6-0.01c0.09,0.04,0.11,0.1,0.08,0.19
		c-0.11,0.13-0.25,0.21-0.4,0.28c-0.19,0.09-0.4,0.09-0.59,0.14c-0.08,0.03-0.16,0.03-0.24,0
		C293.08,149.86,293.05,149.72,293.18,149.57z"/>
	<path class="st81" d="M311.59,149.53c0.08-0.07,0.17-0.13,0.25-0.2c0.15,0.01,0.31,0.03,0.46,0.04c0.25,0.18,0.59-0.04,0.83,0.18
		c0,0.11-0.04,0.19-0.12,0.26c-0.3,0.06-0.61,0.03-0.92,0.06C311.89,149.82,311.7,149.73,311.59,149.53z"/>
	<path class="st82" d="M306.8,150.75c0,0.08,0.01,0.16,0.01,0.24c-0.3,0.12-0.53,0.61-0.93,0.17
		C306.13,150.9,306.44,150.78,306.8,150.75z"/>
	<path class="st83" d="M321.45,152.38c-0.01-0.08-0.02-0.15-0.02-0.23c0.27-0.15,0.47-0.47,0.85-0.38
		C322.18,152.22,321.87,152.37,321.45,152.38z"/>
	<path class="st84" d="M338.43,138.93c0.1,0.19,0.2,0.38,0.3,0.56c-0.08,0.08-0.16,0.16-0.23,0.23c-0.14-0.1-0.29-0.2-0.43-0.3
		c0-0.06,0.01-0.13,0.01-0.19C338.25,139.19,338.08,138.76,338.43,138.93z"/>
	<path class="st85" d="M324.68,150.32c-0.01,0.09-0.02,0.18-0.03,0.26c-0.26-0.19-0.53-0.18-0.81-0.05
		c-0.05-0.13-0.1-0.26-0.14-0.39c0.06-0.1,0.14-0.11,0.22-0.03C324.16,150.24,324.53,149.88,324.68,150.32z"/>
	<path class="st86" d="M221.31,133.2c-0.25,0.06-0.41-0.13-0.61-0.21c0.01-0.17,0.06-0.31,0.22-0.39
		C221.17,132.72,221.38,132.87,221.31,133.2z"/>
	<path class="st87" d="M299.42,156.83c0.16-0.06,0.31-0.12,0.47-0.18c0.27,0.07,0.54,0.14,0.81,0.21c-0.15,0.06-0.3,0.12-0.46,0.18
		C299.96,157.01,299.66,157.04,299.42,156.83z"/>
	<path class="st88" d="M323.92,150.12c-0.07,0.01-0.15,0.02-0.22,0.03c-0.28-0.09-0.35-0.35-0.47-0.57
		c-0.09-0.23,0.02-0.27,0.21-0.23c0.14,0.15,0.27,0.29,0.41,0.44C323.88,149.9,323.9,150.01,323.92,150.12z"/>
	<path class="st89" d="M303.15,154c0-0.06-0.01-0.12,0-0.18c0.21-0.18,0.21-0.6,0.62-0.56c-0.1,0.33-0.11,0.7-0.39,0.97
		C303.25,154.21,303.22,154.08,303.15,154z"/>
	<path class="st41" d="M313.1,149.55c-0.26-0.1-0.58,0.1-0.8-0.18c0.32-0.02,0.63-0.04,0.95-0.06c0.15,0.07,0.29,0.13,0.44,0.2
		C313.51,149.72,313.31,149.71,313.1,149.55z"/>
	<path class="st90" d="M339.88,135.83c0.21,0.07,0.41,0.14,0.62,0.21c-0.01,0.12-0.02,0.23-0.03,0.35
		C340.03,136.44,339.88,136.21,339.88,135.83z"/>
	<path class="st91" d="M284.85,152.57c0.51,0.02,0.82,0.26,0.88,0.78C285.3,153.25,285.03,152.97,284.85,152.57z"/>
	<path class="st92" d="M283.25,151.56c-0.02-0.04-0.03-0.09-0.03-0.14c0.36-0.09,0.61,0.1,0.85,0.33c-0.01,0.13-0.13,0.14-0.21,0.2
		C283.62,151.87,283.36,151.83,283.25,151.56z"/>
	<path class="st93" d="M219.7,136.89c0.2-0.1,0.39-0.19,0.59-0.29c0.07,0.01,0.14,0.02,0.21,0.04c-0.01,0.06-0.01,0.11-0.02,0.17
		c-0.1,0.28-0.2,0.56-0.6,0.47C219.71,137.2,219.69,137.05,219.7,136.89z"/>
	<path class="st94" d="M220.7,137.82c-0.13,0.02-0.27,0.04-0.4,0.06c-0.17-0.08-0.2-0.23-0.22-0.4c0.14-0.24,0.35-0.34,0.63-0.27
		c0,0,0.01,0.07,0.01,0.07c0,0.04,0,0.08-0.01,0.12C220.83,137.55,220.84,137.69,220.7,137.82z"/>
	<path class="st95" d="M220.71,137.22c-0.21,0.09-0.42,0.18-0.63,0.27c-0.07-0.07-0.13-0.14-0.2-0.21c0.2-0.16,0.4-0.31,0.6-0.47
		C220.56,136.95,220.63,137.08,220.71,137.22z"/>
	<path class="st96" d="M314.76,149.38c-0.14-0.07-0.29-0.14-0.43-0.21c0.33-0.01,0.67-0.02,1-0.03c0.13,0.05,0.27,0.1,0.4,0.16
		c-0.13,0.03-0.26,0.06-0.39,0.09C315.15,149.54,314.95,149.52,314.76,149.38z"/>
	<path class="st90" d="M340.11,137.06c-0.13-0.01-0.27-0.02-0.4-0.03c0.01-0.41,0.24-0.49,0.59-0.37
		C340.24,136.79,340.17,136.92,340.11,137.06z"/>
	<path class="st97" d="M300.91,152.04c-0.08-0.16-0.16-0.33-0.24-0.49c0.42,0,0.78,0.07,0.68,0.62
		C301.2,152.13,301.06,152.08,300.91,152.04z"/>
	<path class="st98" d="M294.44,149.52c-0.02-0.05-0.04-0.1-0.06-0.15c0.14-0.07,0.28-0.14,0.42-0.2c0.27,0.08,0.5,0.22,0.67,0.45
		c-0.13,0.11-0.29,0.15-0.46,0.16C294.79,149.76,294.58,149.72,294.44,149.52z"/>
	<path class="st99" d="M338.23,137.2c0.08,0.08,0.16,0.16,0.25,0.25c0.26,0.14,0.4,0.32,0.19,0.6l0.01-0.01
		c-0.07,0.07-0.13,0.07-0.18-0.02c-0.16-0.23-0.44-0.39-0.43-0.72C338.1,137.24,338.16,137.2,338.23,137.2z"/>
	<path class="st100" d="M281.65,150.37c-0.08,0-0.15-0.01-0.23-0.01c0.26-0.45,0.66-0.21,1.01-0.21c-0.02,0.07-0.04,0.14-0.06,0.22
		C282.14,150.48,281.9,150.43,281.65,150.37z"/>
	<path class="st96" d="M305.96,156.78c0.14,0.06,0.28,0.13,0.42,0.19c-0.27,0.05-0.55,0.1-0.82,0.16c-0.08-0.01-0.16-0.04-0.23-0.09
		c-0.03-0.09-0.01-0.15,0.06-0.21C305.59,156.82,305.78,156.8,305.96,156.78z"/>
	<path class="st35" d="M314.52,155.34c0-0.11,0-0.22,0-0.32c0.21-0.05,0.42-0.1,0.62-0.14c0.14,0.02,0.21,0.09,0.18,0.24
		C315.05,155.19,314.78,155.27,314.52,155.34z"/>
	<path class="st35" d="M315.32,155.12c-0.06-0.08-0.12-0.16-0.18-0.24c0.19-0.04,0.38-0.07,0.56-0.11c0.14,0.06,0.28,0.12,0.42,0.18
		C315.86,155.01,315.59,155.06,315.32,155.12z"/>
	<path class="st101" d="M221.28,139.09c0.08-0.09,0.16-0.18,0.24-0.26c0.25,0.2,0.45,0.4,0.01,0.61
		C221.45,139.32,221.36,139.21,221.28,139.09z"/>
	<path class="st102" d="M319.6,153.81c0.08,0.06,0.15,0.12,0.23,0.18c-0.14,0.26-0.39,0.2-0.62,0.2c-0.07-0.06-0.15-0.12-0.22-0.18
		C319.19,153.94,319.4,153.88,319.6,153.81z"/>
	<path class="st103" d="M283.86,151.95c0.07-0.07,0.14-0.13,0.21-0.2c0.24,0.12,0.46,0.26,0.39,0.58
		C284.26,152.21,284.06,152.08,283.86,151.95z"/>
	<path class="st104" d="M307.98,156.37c0.14,0.06,0.29,0.13,0.43,0.19c-0.12,0.02-0.24,0.03-0.37,0.05
		c-0.2-0.08-0.45,0.03-0.61-0.17C307.62,156.42,307.8,156.4,307.98,156.37z"/>
	<path class="st105" d="M223.38,131.75c-0.14,0.15-0.28,0.29-0.42,0.44c-0.07-0.01-0.15-0.02-0.22-0.04
		c0.03-0.26,0.15-0.47,0.37-0.61C223.2,131.61,223.29,131.68,223.38,131.75z"/>
	<path class="st96" d="M305.4,157.01c0.05,0.04,0.11,0.08,0.16,0.12c-0.26,0.03-0.52,0.05-0.78,0.08c-0.07-0.05-0.15-0.11-0.22-0.16
		C304.83,156.74,305.11,156.84,305.4,157.01z"/>
	<path class="st106" d="M340.49,135.19c-0.34-0.06-0.78,0.17-0.96-0.34c0.31-0.01,0.62-0.02,0.93-0.03
		C340.47,134.94,340.48,135.06,340.49,135.19z"/>
	<path class="st107" d="M274.73,139.75c0.28,1.22,0.39,2.43,0.38,3.66c0,0.43-0.21,0.62-0.6,0.62c-0.35-0.01-0.41-0.27-0.4-0.56
		C274.16,142.2,274.34,140.97,274.73,139.75z"/>
	<path class="st108" d="M331.52,139.92c0.05,1.24,0.11,2.49,0.13,3.73c0.01,0.3-0.22,0.47-0.55,0.44c-0.25-0.02-0.36-0.17-0.36-0.4
		c-0.02-1.29,0.15-2.55,0.44-3.79C331.3,139.91,331.41,139.92,331.52,139.92z"/>
	<path class="st109" d="M334.99,139.87c0.02,0.19,0.04,0.37,0.07,0.56c0.09,0.2,0,0.25-0.18,0.22c-0.13-0.92-0.74-1.8-0.27-2.78
		C334.56,138.57,334.67,139.24,334.99,139.87z"/>
	<path class="st110" d="M334.87,140.65c0.06-0.07,0.12-0.15,0.18-0.22c0.14,0.19,0.28,0.38,0.42,0.57
		C335.12,141.15,334.95,140.97,334.87,140.65z"/>
	<path class="st111" d="M241.77,143.84c-0.05,0.37-0.09,0.84-0.17,1.29c-0.05,0.27-0.2,0.52-0.51,0.54
		c-0.3,0.02-0.49-0.18-0.64-0.41c-0.48-0.74-0.26-3.44,0.32-4.06c0.33-0.36,0.52-0.17,0.64,0.17
		C241.68,142.14,241.67,142.95,241.77,143.84z"/>
	<path class="st111" d="M252.98,143.98c-0.04,0.24-0.1,0.71-0.17,1.17c-0.05,0.28-0.18,0.53-0.5,0.55c-0.3,0.02-0.5-0.18-0.65-0.41
		c-0.5-0.76-0.29-3.42,0.32-4.06c0.32-0.35,0.51-0.2,0.63,0.17C252.86,142.15,252.95,142.95,252.98,143.98z"/>
	<path class="st112" d="M319.7,148.19c-0.26-0.71-0.3-1.45-0.08-2.29c0.33,0.67,0.66,1.35,1,2.02
		C320.4,148.3,320.08,148.32,319.7,148.19z"/>
	<path class="st113" d="M323.45,149.34c-0.07,0.08-0.14,0.15-0.21,0.23c-0.29-0.29-0.29-0.68-0.36-1.05
		c0.28-0.27-0.28-0.84,0.36-0.99C323.14,148.16,323.23,148.76,323.45,149.34z"/>
	<path class="st114" d="M317.14,149.1c-0.15-0.06-0.3-0.13-0.44-0.19c0.6-0.28,1.22-0.33,1.86-0.16
		C318.14,149.06,317.62,149,317.14,149.1z"/>
	<path class="st115" d="M322.5,147.77c-0.46,0.1-0.87,0.62-1.4,0.17c0.32-0.28,0.74-0.3,1.13-0.39
		C322.33,147.62,322.46,147.64,322.5,147.77z"/>
	<path class="st116" d="M322.5,147.77c-0.09-0.07-0.17-0.15-0.26-0.22c0.33,0.05,0.65-0.57,0.99-0.01
		c-0.36,0.25-0.02,0.74-0.36,0.99C322.68,148.31,323.13,147.78,322.5,147.77z"/>
	<path class="st117" d="M319.7,148.19c0.31-0.09,0.61-0.18,0.92-0.27c0.14,0.06,0.28,0.12,0.41,0.18c-0.32,0.41-0.82,0.32-1.24,0.42
		c-0.07-0.04-0.1-0.09-0.09-0.14c0.01-0.06,0.02-0.09,0.04-0.09C319.73,148.26,319.72,148.22,319.7,148.19z"/>
	<path class="st118" d="M319.75,148.29c0.01,0.08,0.03,0.15,0.04,0.23c-0.36-0.07-0.71,0.49-1.09,0.03
		C319.01,148.31,319.39,148.33,319.75,148.29z"/>
	<path class="st119" d="M229.09,141.86c0-0.66,0.02-1.19-0.01-1.71c-0.02-0.42,0.11-0.66,0.55-0.65c0.45,0.01,0.7,0.26,0.65,0.71
		C230.22,140.9,229.98,141.5,229.09,141.86z"/>
	<path class="st120" d="M230.06,145.2c-0.1,0.56-0.22,1.22-0.95,1.4c-0.37,0.09-0.28-0.35-0.23-0.5c0.21-0.6-0.27-1.52,0.68-1.76
		C230.04,144.23,230.04,144.75,230.06,145.2z"/>
	<path class="st121" d="M285.69,141.9c0-0.64,0.02-1.16-0.01-1.68c-0.02-0.4,0.11-0.66,0.55-0.63c0.37,0.02,0.7,0.22,0.65,0.62
		C286.8,140.89,286.62,141.56,285.69,141.9z"/>
	<path class="st122" d="M285.48,145.85c0.01-0.12,0.01-0.19,0.02-0.25c0.08-0.47-0.06-1.09,0.64-1.17c0.42-0.05,0.55,0.34,0.52,0.69
		c-0.05,0.64-0.21,1.38-0.9,1.5C285.23,146.71,285.61,146.07,285.48,145.85z"/>
	<path class="st123" d="M289.63,148.94c-0.79,0.44-1.49-0.06-2.23-0.21C288.19,148.38,288.9,148.74,289.63,148.94z"/>
	<path class="st124" d="M283.22,148.73c-0.07-0.08-0.14-0.16-0.21-0.23c-0.03-0.36-0.06-0.72-0.1-1.15c0.5,0.01,0.95,0.1,1.33,0.45
		l0.03,0.06c-0.32,0.21-0.6-0.06-0.93-0.07C283.3,148.1,283.26,148.42,283.22,148.73z"/>
	<path class="st125" d="M287.39,148.74c-0.59-0.07-1.18-0.12-1.72-0.4C286.36,148,286.93,148.14,287.39,148.74z"/>
	<path class="st126" d="M284.27,147.85c0,0-0.03-0.06-0.03-0.06c0.54,0.03,1.18-0.18,1.45,0.55
		C285.19,148.25,284.65,148.28,284.27,147.85z"/>
	<path class="st127" d="M294.85,143.26c0.03-1.43,1.16-2.58,2.49-2.52c1.35,0.06,2.53,1.41,2.47,2.83
		c-0.06,1.37-1.19,2.52-2.44,2.47C295.97,145.99,294.82,144.72,294.85,143.26z"/>
	<path class="st128" d="M296.03,149.78c0.43,0.1,0.85,0.21,1.28,0.31c0.08,0.2-0.01,0.35-0.16,0.47c-0.3,0.17-0.47-0.16-0.72-0.19
		c-0.29,0.03-0.54,0.03-0.53-0.37C295.93,149.92,295.97,149.84,296.03,149.78z"/>
	<path class="st129" d="M297.04,150.52c0.09-0.14,0.18-0.28,0.27-0.43c0.08,0.02,0.16,0.04,0.24,0.06c-0.07,0.3,0.11,0.49,0.32,0.66
		c-0.31,0.32-0.56,0.03-0.82-0.08c-0.07-0.04-0.1-0.09-0.08-0.13C297,150.54,297.02,150.52,297.04,150.52z"/>
	<path class="st130" d="M296.03,149.78c0,0.07,0,0.14,0,0.22c-0.25,0.2-0.52,0.17-0.8,0.08c-0.05,0.03-0.11,0.04-0.17,0.04
		c-0.14-0.06-0.17-0.17-0.17-0.3c0.02-0.08,0.06-0.15,0.13-0.21c0.15,0,0.3,0,0.45,0.01C295.66,149.67,295.85,149.72,296.03,149.78z
		"/>
	<path class="st131" d="M308.68,145.89c-1.31-0.02-2.45-1.25-2.4-2.6c0.04-1.47,1.23-2.73,2.56-2.72c1.3,0,2.43,1.22,2.4,2.6
		C311.21,144.61,309.99,145.91,308.68,145.89z"/>
	<path class="st132" d="M309.44,150.15c0.36-0.71,1.08-0.41,1.63-0.58c0.13,0.12,0.36,0.02,0.45,0.22c0,0.15-0.09,0.25-0.2,0.33
		c-0.16,0.11-0.35,0.12-0.54,0.14C310.35,150.04,309.86,150.53,309.44,150.15L309.44,150.15z"/>
	<path class="st133" d="M311.49,149.76c-0.14-0.06-0.28-0.13-0.42-0.19c0.17-0.01,0.34-0.03,0.52-0.04c0.16,0.06,0.39-0.03,0.47,0.2
		C311.89,149.91,311.7,149.92,311.49,149.76z"/>
	<path class="st134" d="M314.76,149.38c0.19,0,0.39,0,0.58,0.01c0.23,0.25,0.53,0.13,0.8,0.17c0.03,0.37-0.26,0.25-0.45,0.29
		c-0.38-0.04-0.77,0.09-1.13-0.09c-0.21-0.01-0.4,0.04-0.52,0.23c-0.29,0.12-0.54-0.06-0.81-0.09c-0.09-0.05-0.14-0.11-0.17-0.21
		c0-0.05,0.02-0.09,0.03-0.13c0.2-0.01,0.39-0.03,0.59-0.04C314.06,149.55,314.42,149.54,314.76,149.38z"/>
	<path class="st135" d="M316.2,151.23c-0.52,0.17-1.04,0.2-1.68,0.01c0.57-0.42,1.13-0.25,1.65-0.25
		C316.22,151.06,316.23,151.14,316.2,151.23z"/>
	<path class="st136" d="M309.44,150.14c0.46,0.11,0.95-0.34,1.4,0.04c0.07,0.03,0.1,0.06,0.08,0.1c-0.02,0.04-0.04,0.06-0.06,0.06
		c-0.5,0.06-1.01,0.45-1.49-0.04C309.38,150.25,309.4,150.2,309.44,150.14z"/>
	<path class="st137" d="M318.58,150.3c-0.55,0.08-1.09,0.16-1.64,0.25C317.44,150.16,317.98,150.09,318.58,150.3z"/>
	<path class="st138" d="M311.49,149.76c0.19-0.01,0.38-0.02,0.57-0.04c0.33-0.01,0.67-0.03,1-0.04c0,0,0.01,0.06,0.01,0.06
		c0.06,0.18,0.02,0.26-0.18,0.2c-0.24,0-0.49-0.03-0.63,0.22c-0.25,0.03-0.5-0.02-0.75,0.07c-0.19-0.02-0.35-0.07-0.29-0.32
		C311.32,149.87,311.41,149.82,311.49,149.76z"/>
	<path class="st139" d="M315.73,149.75c0.14-0.06,0.28-0.13,0.41-0.19c0.24,0.02,0.52-0.11,0.75,0.19
		c-0.35,0.34-0.78,0.17-1.17,0.18c-0.06-0.04-0.08-0.08-0.05-0.12C315.69,149.77,315.71,149.75,315.73,149.75z"/>
	<path class="st140" d="M313.93,150.68c0.54-0.26,0.94-0.41,1.43-0.27C314.97,150.74,314.56,150.8,313.93,150.68z"/>
	<path class="st140" d="M312.9,149.95c0.06-0.07,0.12-0.13,0.18-0.2c0.32,0.08,0.64,0.16,0.96,0.24
		C313.66,150.19,313.27,150.29,312.9,149.95z"/>
	<path class="st141" d="M311.25,151.74c-0.42,0.06-0.83,0.12-1.33,0.2c0.36-0.39,0.75-0.38,1.14-0.39
		C311.27,151.47,311.3,151.56,311.25,151.74z"/>
	<path class="st142" d="M312.35,151.49c0.28-0.37,0.51-0.41,0.84-0.11C312.96,151.66,312.7,151.56,312.35,151.49z"/>
	<path class="st143" d="M320.45,149.88c-0.3,0.07-0.59,0.14-1.02,0.24C319.78,149.65,320.11,149.75,320.45,149.88z"/>
	<path class="st142" d="M312.7,150.69c0.09,0.21-0.03,0.25-0.12,0.25c-0.12-0.01-0.3-0.02-0.36-0.1c-0.1-0.14,0.03-0.25,0.18-0.25
		C312.51,150.59,312.62,150.66,312.7,150.69z"/>
	<path class="st144" d="M319.87,149.27c0.33-0.25,0.61-0.39,1.14-0.26C320.55,149.15,320.29,149.37,319.87,149.27z"/>
	<path class="st145" d="M318.29,149.35c0.07,0.05,0.19,0.11,0.19,0.17c0.01,0.23-0.2,0.22-0.35,0.22c-0.07,0-0.22-0.08-0.22-0.12
		C317.93,149.41,318.12,149.41,318.29,149.35z"/>
	<path class="st146" d="M316.2,151.23c-0.01-0.08-0.02-0.16-0.03-0.24c0.4-0.01,0.8-0.02,1.19-0.03c0.05,0.04,0.06,0.08,0.04,0.12
		c-0.02,0.04-0.04,0.05-0.06,0.05C316.96,151.17,316.58,151.2,316.2,151.23z"/>
	<path class="st144" d="M319.61,150.76c0.18-0.32,0.46-0.48,0.92-0.31C320.17,150.57,319.89,150.66,319.61,150.76z"/>
	<path class="st147" d="M311.23,149.93c0.09,0.18,0.26,0.21,0.44,0.23c0.05,0.04,0.06,0.08,0.04,0.12
		c-0.02,0.03-0.04,0.05-0.06,0.05c-0.26,0.01-0.53,0.02-0.79,0.03c0-0.06,0-0.11-0.02-0.17C310.97,150.1,311.1,150.01,311.23,149.93
		z"/>
	<path class="st137" d="M309.03,151.36c-0.3,0.4-0.54,0.43-0.86,0.36C308.36,151.47,308.64,151.52,309.03,151.36z"/>
	<path class="st148" d="M315.73,149.75c0.01,0.06,0,0.12-0.01,0.18c-0.39-0.06-0.82,0.2-1.16-0.18
		C314.95,149.75,315.34,149.75,315.73,149.75z"/>
	<path class="st149" d="M303.15,154c0.08,0.08,0.15,0.15,0.23,0.23c-0.03,0.18-0.02,0.4-0.25,0.44c-0.15,0.02-0.19-0.11-0.2-0.24
		C303,154.28,303.07,154.14,303.15,154z"/>
	<path class="st150" d="M317.35,151.14c0.01-0.06,0.01-0.12,0.01-0.18c0.16-0.23,0.39-0.2,0.62-0.18c0.07,0.05,0.09,0.09,0.06,0.13
		c-0.02,0.04-0.05,0.07-0.07,0.07C317.8,151.19,317.58,151.17,317.35,151.14z"/>
	<path class="st151" d="M311.65,150.32c0.01-0.06,0.02-0.11,0.02-0.17c0.21-0.35,0.4-0.07,0.59,0.02
		C312.1,150.38,311.88,150.35,311.65,150.32z"/>
	<path class="st152" d="M311.25,151.74c-0.06-0.06-0.13-0.13-0.19-0.19c0.18-0.15,0.4-0.33,0.53-0.01
		C311.66,151.73,311.4,151.73,311.25,151.74z"/>
	<path class="st147" d="M310.4,151.06c0.22-0.13,0.43-0.14,0.72-0.02C310.85,151.18,310.64,151.21,310.4,151.06z"/>
	<path class="st153" d="M317.97,150.98c0-0.07,0-0.13,0-0.2c0.28,0,0.56,0,0.96,0C318.56,151.04,318.25,150.94,317.97,150.98z"/>
	<path class="st154" d="M305.4,157.01c-0.28,0.01-0.56,0.03-0.83,0.04c-0.47,0.07-0.95,0.14-1.42,0.2c-0.4-0.03-0.79-0.05-1.19-0.08
		c-0.29-0.3-0.75-0.07-1.06-0.31c0.36-0.49-0.14-0.98,0.01-1.47c1.45,1.01,2.96,0.71,4.48,0.2c0.16,0.42-0.5,0.84,0.02,1.25
		C305.39,156.9,305.39,156.95,305.4,157.01z"/>
	<path class="st155" d="M293.18,149.57c0.07,0.12,0.15,0.25,0.22,0.37c0.05,0.04,0.07,0.08,0.06,0.12
		c-0.01,0.05-0.02,0.07-0.03,0.07c-0.61,0.28-1.06-0.7-1.69-0.2c-0.32-0.16-0.67-0.04-1-0.08c-0.18-0.02-0.43,0.04-0.38-0.29
		c0.13-0.01,0.27-0.01,0.4-0.02c0.36-0.15,0.73-0.12,1.1-0.02C292.29,149.53,292.74,149.55,293.18,149.57z"/>
	<path class="st156" d="M292.05,151.14c-0.59,0.3-1.17,0.27-2.03,0.04C290.86,150.83,291.46,150.97,292.05,151.14z"/>
	<path class="st157" d="M291.14,150.38c0.51-0.03,1.03-0.09,1.77,0.16c-0.88,0.29-1.52,0.32-2.16,0.03
		C290.83,150.4,291.03,150.5,291.14,150.38z"/>
	<path class="st158" d="M295.22,150.08c0.24-0.3,0.54-0.05,0.8-0.08c-0.05,0.47,0.27,0.16,0.43,0.21c0.11,0.12,0.09,0.24-0.01,0.36
		C295.98,150.55,295.5,150.56,295.22,150.08z"/>
	<path class="st159" d="M293.43,150.13c-0.02-0.06-0.03-0.13-0.03-0.19c0,0-0.01,0.01-0.01,0.01c0.32-0.16,0.72-0.07,1.03-0.27
		c0.21-0.03,0.41-0.06,0.61,0.04c0.01,0.13,0.02,0.27,0.03,0.4C294.52,150.4,293.97,150.12,293.43,150.13z"/>
	<path class="st160" d="M297.26,152.15c-0.43-0.11-0.9-0.11-1.27-0.47c0.44,0.01,0.87-0.01,1.26,0.28c0.07,0.04,0.09,0.08,0.07,0.13
		C297.31,152.13,297.29,152.15,297.26,152.15z"/>
	<path class="st135" d="M290.35,149.56c0.14,0.07,0.28,0.14,0.43,0.2c0.05,0.04,0.07,0.07,0.05,0.11c-0.02,0.04-0.04,0.05-0.06,0.05
		c-0.37,0-0.74,0-1.25,0C289.79,149.43,290.1,149.58,290.35,149.56z"/>
	<path class="st161" d="M294.18,151.57c-0.41-0.08-0.82-0.17-1.5-0.31C293.43,151.12,293.88,151.14,294.18,151.57z"/>
	<path class="st162" d="M289.31,150.98c-0.38,0.27-0.62,0.17-0.93-0.1C288.77,150.69,289.02,150.72,289.31,150.98z"/>
	<path class="st152" d="M294.33,150.72c0,0.21-0.15,0.22-0.26,0.21c-0.12-0.01-0.29-0.05-0.33-0.13c-0.07-0.14,0.06-0.22,0.2-0.24
		C294.1,150.55,294.26,150.56,294.33,150.72z"/>
	<path class="st163" d="M287.96,150.93c-0.5-0.1-0.78-0.16-1.06-0.22C287.22,150.56,287.52,150.49,287.96,150.93z"/>
	<path class="st164" d="M286.5,149.33c-0.3-0.09-0.61-0.19-1.17-0.36c0.59-0.05,0.9-0.1,1.17,0.18c0.07,0.04,0.1,0.08,0.07,0.12
		C286.55,149.3,286.52,149.33,286.5,149.33z"/>
	<path class="st165" d="M296.45,150.56c0-0.12,0.01-0.24,0.01-0.36c0.31-0.11,0.37,0.25,0.59,0.31c0,0.07,0.01,0.14,0.01,0.21
		C296.83,150.77,296.6,150.78,296.45,150.56z"/>
	<path class="st151" d="M288.02,149.45c0.24-0.13,0.54-0.17,0.59,0.07c0.06,0.31-0.23,0.2-0.4,0.14
		C288.14,149.63,288.09,149.53,288.02,149.45z"/>
	<path class="st166" d="M295.61,151.55c-0.33,0.12-0.42,0.18-0.5,0.17c-0.15-0.01-0.25-0.1-0.17-0.25c0.03-0.05,0.17-0.07,0.26-0.07
		C295.29,151.41,295.38,151.47,295.61,151.55z"/>
	<path class="st167" d="M286.5,149.33c0-0.06-0.01-0.12-0.01-0.18c0.32,0,0.65-0.07,0.95,0.32
		C287.08,149.41,286.79,149.37,286.5,149.33z"/>
	<path class="st148" d="M291.14,150.38c-0.13,0.06-0.26,0.13-0.39,0.19c-0.22-0.02-0.44-0.03-0.66-0.05c0-0.05,0.01-0.09,0.01-0.14
		C290.45,150.38,290.79,150.38,291.14,150.38z"/>
	<path class="st150" d="M295.61,150.99c-0.12,0.06-0.2,0.14-0.27,0.14c-0.14,0-0.26-0.08-0.22-0.24c0.01-0.05,0.17-0.1,0.25-0.09
		C295.44,150.81,295.5,150.9,295.61,150.99z"/>
	<path class="st168" d="M291.85,149.52c-0.37,0.01-0.73,0.02-1.1,0.02c0-0.05,0-0.11,0-0.16c0.34,0,0.67,0,1.01,0
		C291.78,149.44,291.81,149.48,291.85,149.52z"/>
	<path class="st161" d="M297.26,152.15c0-0.06-0.01-0.13,0-0.19c0.26,0,0.52,0,0.7,0.26C297.71,152.4,297.5,152.11,297.26,152.15z"
		/>
	<path class="st169" d="M285.49,149.54c0.15,0.02,0.39-0.01,0.44,0.07c0.17,0.31-0.1,0.16-0.21,0.15c-0.09-0.01-0.17-0.06-0.26-0.08
		C285.47,149.63,285.48,149.59,285.49,149.54z"/>
	<path class="st170" d="M290.78,149.92c-0.01-0.05-0.01-0.11,0-0.16c0.32,0.03,0.68-0.13,0.96,0.16
		C291.42,149.92,291.1,149.92,290.78,149.92z"/>
	<path class="st164" d="M286.03,150.35c-0.22,0.13-0.38-0.01-0.55-0.06c0.02-0.04,0.03-0.12,0.06-0.12
		C285.73,150.14,285.91,150.14,286.03,150.35z"/>
	<path class="st171" d="M298.72,151.11c0.13,0.08,0.26,0.16,0.39,0.23C298.92,151.36,298.73,151.38,298.72,151.11z"/>
	<path class="st172" d="M222.78,139.48c-0.09-0.01-0.17-0.02-0.26-0.03c0.01-0.06,0.02-0.12,0.02-0.18c0.02-0.25,0.23-0.32,0.4-0.42
		c0.26-0.2,0.52-0.39,0.78-0.59c0.04,0.03,0.08,0.05,0.11,0.08c-0.16,0.24-0.32,0.48-0.48,0.72
		C223.15,139.19,223.06,139.48,222.78,139.48z"/>
	<path class="st173" d="M222.94,138.86c-0.13,0.14-0.27,0.28-0.4,0.42c-0.2-0.19-0.4-0.38-0.6-0.56c-0.01-0.15,0.08-0.22,0.22-0.24
		C222.51,138.43,222.67,138.74,222.94,138.86z"/>
	<path class="st174" d="M222.16,138.47c-0.07,0.08-0.15,0.16-0.22,0.24c-0.07-0.09-0.14-0.18-0.22-0.26
		c-0.07-0.23,0.03-0.35,0.25-0.4c0.17-0.06,0.34-0.12,0.51-0.17C222.38,138.08,222.27,138.28,222.16,138.47z"/>
	<path class="st175" d="M338.49,138.02c0.06,0.01,0.12,0.02,0.18,0.02c0.07,0.14,0.15,0.28,0.22,0.41
		c-0.23,0.09-0.37,0.26-0.46,0.48c-0.12,0.1-0.24,0.2-0.35,0.31c0.05-0.35-0.31-0.5-0.4-0.78
		C337.96,138.32,338.15,138.03,338.49,138.02z"/>
	<path class="st176" d="M338.66,138.05c-0.06-0.2-0.12-0.4-0.19-0.6c0.27-0.19,0.31-0.67,0.79-0.6
		C339.23,137.33,339.04,137.73,338.66,138.05z"/>
	<path class="st177" d="M221.98,138.05c-0.08,0.13-0.17,0.26-0.25,0.4c-0.14-0.13-0.28-0.26-0.42-0.39c-0.14-0.11-0.32-0.2-0.2-0.44
		C221.68,137.18,221.74,137.8,221.98,138.05z"/>
	<path class="st178" d="M221.1,137.62c0.07,0.15,0.14,0.29,0.2,0.44c-0.06,0.07-0.13,0.13-0.19,0.2c-0.14-0.15-0.28-0.29-0.42-0.44
		c0-0.14,0.01-0.27,0.01-0.41C220.84,137.48,220.97,137.55,221.1,137.62z"/>
	<path class="st179" d="M294.4,149.77c-0.29,0.33-0.68,0.11-1.01,0.18c0.12-0.34,0.44-0.1,0.64-0.22
		C294.16,149.64,294.29,149.62,294.4,149.77z"/>
	<path class="st96" d="M294.4,149.77c-0.13-0.02-0.25-0.03-0.38-0.05c0.07-0.21,0.28-0.13,0.42-0.21c0.19,0.03,0.39,0.06,0.58,0.08
		c0,0.04,0,0.08,0.01,0.11C294.82,149.74,294.61,149.75,294.4,149.77z"/>
	<path class="st180" d="M298.13,145.12c-0.66,0.35-1.19,0.14-1.47-0.49c-0.29-0.64-0.05-1.19,0.55-1.53
		c0.55-0.32,1.15-0.31,1.53,0.23c0.41,0.58,0.4,1.19-0.29,1.62c-0.21-0.09-0.11-0.62-0.47-0.4
		C297.74,144.7,298.13,144.91,298.13,145.12z"/>
	<path class="st181" d="M298.13,145.12c-0.27-0.15-0.71-0.17-0.62-0.64c0.08-0.4,0.4-0.21,0.64-0.21c0.64-0.01,0.22,0.44,0.3,0.68
		C298.35,145.01,298.24,145.07,298.13,145.12z"/>
	<path class="st182" d="M307.62,144.8c-0.67-0.45-0.7-1.06-0.28-1.63c0.42-0.57,1.04-0.56,1.61-0.19c0.58,0.38,0.77,0.97,0.44,1.56
		c-0.36,0.64-0.95,0.78-1.61,0.35c0.09-0.18,0.37-0.25,0.34-0.53C307.8,144.37,307.81,144.7,307.62,144.8z"/>
	<path class="st183" d="M307.62,144.8c0.08-0.27-0.35-0.78,0.4-0.72c0.26,0.02,0.48-0.01,0.51,0.28c0.07,0.59-0.4,0.49-0.75,0.53
		C307.73,144.86,307.67,144.83,307.62,144.8z"/>
</g>
</svg>
