<svg width="48" height="48" viewBox="0 0 48 48" fill="none" xmlns="http://www.w3.org/2000/svg">
<path d="M40.361 47.6908L24.781 33.0846C24.5692 32.886 24.2896 32.7754 23.9993 32.7754C23.7089 32.7754 23.4293 32.886 23.2175 33.0846L7.63753 47.6897C7.47495 47.8421 7.27135 47.9437 7.05179 47.9819C6.83222 48.0201 6.60627 47.9933 6.40175 47.9048C6.19722 47.8163 6.02305 47.6699 5.90065 47.4836C5.77826 47.2974 5.713 47.0794 5.71289 46.8565V0H42.2856V46.8565C42.2857 47.0795 42.2206 47.2976 42.0983 47.484C41.976 47.6705 41.8018 47.817 41.5973 47.9057C41.3927 47.9944 41.1667 48.0213 40.947 47.9831C40.7273 47.9449 40.5236 47.8433 40.361 47.6908V47.6908Z" fill="#011E41"/>
</svg>
