<svg width="48" height="48" viewBox="0 0 48 48" fill="none" xmlns="http://www.w3.org/2000/svg">
<path d="M39.9767 19.0452H47.9642V28.0312H39.9767V19.0452ZM10.0235 5.06708C8.32611 5.06708 7.02814 6.36505 7.02814 8.0624H13.0188C13.0188 6.36505 11.7208 5.06708 10.0235 5.06708ZM10.0235 20.0437C15.5149 20.0437 20.0079 15.5507 20.0079 10.0593C20.0079 4.56786 15.5149 0.074883 10.0235 0.074883C4.53204 0.074883 0.0390625 4.56786 0.0390625 10.0593C0.0390625 15.5507 4.53204 20.0437 10.0235 20.0437ZM5.03126 8.0624C5.03126 5.26677 7.22783 3.0702 10.0235 3.0702C12.8191 3.0702 15.0157 5.26677 15.0157 8.0624V14.053C15.0157 15.1513 14.1171 16.0499 13.0188 16.0499H7.02814C5.92986 16.0499 5.03126 15.1513 5.03126 14.053V8.0624ZM8.02658 22.8393C5.23095 22.4399 2.63501 21.0421 0.638127 19.0452H0.0390625V28.0312H8.02658V22.8393ZM20.0079 19.0452H27.9954V28.0312H20.0079V19.0452ZM42.972 15.0515C44.6693 15.0515 45.9673 13.7535 45.9673 12.0562C45.9673 11.2574 45.6678 10.4587 45.0687 9.95944L36.0827 0.973479C35.9829 0.873635 35.7832 0.673947 35.5835 0.574103C35.4837 0.574103 35.4837 0.474259 35.3838 0.474259C35.284 0.374415 35.1841 0.374415 35.0843 0.274571C34.9845 0.274571 34.8846 0.174727 34.7848 0.174727C34.6849 0.174727 34.5851 0.074883 34.4852 0.074883C34.0859 -0.024961 33.6865 -0.024961 33.2871 0.074883C33.1873 0.074883 33.0874 0.174727 32.9876 0.174727C32.8877 0.174727 32.7879 0.274571 32.6881 0.274571C32.5882 0.274571 32.4884 0.374415 32.3885 0.474259C32.2887 0.474259 32.2887 0.574103 32.1888 0.574103C31.9891 0.673947 31.8893 0.773791 31.6896 0.973479L22.7037 9.95944C21.5055 11.1576 21.5055 13.0546 22.7037 14.1529C23.9018 15.2512 25.7988 15.351 26.8971 14.1529L30.791 10.259V45.0047C30.791 46.702 32.089 48 33.7863 48C35.4837 48 36.7817 46.702 36.7817 45.0047V10.259L40.6756 14.1529C41.3745 14.7519 42.1732 15.0515 42.972 15.0515V15.0515ZM20.9065 33.922L17.0125 37.8159V20.9423C15.2154 22.1404 13.1186 22.8393 11.0219 22.9392V37.7161L7.12799 33.8222C5.92986 32.624 4.03282 32.624 2.93454 33.8222C1.83625 35.0203 1.73641 36.9173 2.93454 38.0156L11.9205 47.0016C12.0203 47.1014 12.22 47.3011 12.4197 47.4009C12.5196 47.4009 12.5196 47.5008 12.6194 47.5008C12.7193 47.6006 12.8191 47.6006 12.9189 47.7005C13.0188 47.7005 13.1186 47.8003 13.2185 47.8003C13.3183 47.8003 13.4182 47.9002 13.518 47.9002C13.9174 48 14.3168 48 14.7161 47.9002C14.816 47.9002 14.9158 47.9002 15.0157 47.8003C15.1155 47.8003 15.2154 47.7005 15.3152 47.7005C15.415 47.7005 15.5149 47.6006 15.6147 47.5008C15.7146 47.5008 15.7146 47.4009 15.8144 47.4009C16.0141 47.3011 16.1139 47.2012 16.3136 47.0016L25.2996 38.0156C26.4977 36.8175 26.4977 34.9204 25.2996 33.8222C24.1015 32.7239 22.1046 32.7239 20.9065 33.922V33.922ZM9.02502 10.0593H11.0219C11.621 10.0593 12.0203 10.4587 12.0203 11.0577V13.0546C12.0203 13.6537 11.621 14.053 11.0219 14.053H9.02502C8.42596 14.053 8.02658 13.6537 8.02658 13.0546V11.0577C8.02658 10.4587 8.42596 10.0593 9.02502 10.0593Z" fill="#011E41"/>
</svg>
