<svg width="48" height="48" viewBox="0 0 48 48" fill="none" xmlns="http://www.w3.org/2000/svg">
<g clip-path="url(#clip0_74_1248)">
<path d="M40 19H48V28H40V19ZM20 19H28V28H20V19ZM0 19H8V28H0V19Z" fill="#011E41"/>
<path d="M40.8793 14.121C41.1548 14.4123 41.486 14.6454 41.8532 14.8066C42.2204 14.9677 42.6161 15.0536 43.0171 15.0592C43.418 15.0648 43.816 14.9899 44.1875 14.839C44.5591 14.6882 44.8966 14.4644 45.1801 14.1808C45.4637 13.8973 45.6875 13.5598 45.8383 13.1882C45.9892 12.8167 46.0641 12.4187 46.0585 12.0178C46.0529 11.6168 45.967 11.2211 45.8059 10.8539C45.6447 10.4867 45.4116 10.1555 45.1203 9.88L36.1253 0.883C35.9839 0.741304 35.8288 0.614011 35.6623 0.503C35.5963 0.459 35.5233 0.429 35.4543 0.391C35.3549 0.330951 35.2521 0.276856 35.1463 0.229C35.0506 0.19395 34.9531 0.16391 34.8543 0.139C34.7653 0.112 34.6793 0.0769999 34.5873 0.0589999C34.1998 -0.0180302 33.8008 -0.0180302 33.4133 0.0589999C33.3203 0.0779999 33.2353 0.112 33.1453 0.139C33.0468 0.163931 32.9497 0.193971 32.8543 0.229C32.7478 0.277152 32.6443 0.331581 32.5443 0.392C32.4763 0.43 32.4043 0.46 32.3383 0.504C32.1718 0.614642 32.0167 0.741603 31.8753 0.883L22.8803 9.879C22.5938 10.1557 22.3652 10.4868 22.208 10.8528C22.0508 11.2188 21.968 11.6125 21.9646 12.0108C21.9611 12.4091 22.037 12.8042 22.1878 13.1729C22.3387 13.5416 22.5614 13.8765 22.8431 14.1582C23.1248 14.4399 23.4598 14.6626 23.8284 14.8135C24.1971 14.9643 24.5922 15.0402 24.9905 15.0368C25.3888 15.0333 25.7825 14.9505 26.1485 14.7933C26.5145 14.6361 26.8456 14.4075 27.1223 14.121L31.0003 10.242V45C31.0003 45.7956 31.3164 46.5587 31.879 47.1213C32.4416 47.6839 33.2047 48 34.0003 48C34.796 48 35.559 47.6839 36.1216 47.1213C36.6842 46.5587 37.0003 45.7956 37.0003 45V10.242L40.8793 14.121ZM20.8793 33.879L17.0003 37.758V3C17.0003 2.20435 16.6842 1.44129 16.1216 0.87868C15.559 0.31607 14.796 0 14.0003 0C13.2047 0 12.4416 0.31607 11.879 0.87868C11.3164 1.44129 11.0003 2.20435 11.0003 3V37.758L7.1213 33.878C6.55708 33.323 5.79642 33.0135 5.00501 33.0168C4.2136 33.0201 3.45556 33.336 2.89601 33.8957C2.33646 34.4554 2.02073 35.2135 2.0176 36.0049C2.01447 36.7963 2.32419 37.5569 2.8793 38.121L11.8753 47.117C12.0166 47.2587 12.1717 47.386 12.3383 47.497C12.4043 47.54 12.4763 47.57 12.5453 47.608C12.645 47.6684 12.7482 47.7228 12.8543 47.771C12.9497 47.806 13.0468 47.8361 13.1453 47.861C13.2353 47.888 13.3203 47.922 13.4133 47.941C13.8007 48.0198 14.1999 48.0198 14.5873 47.941C14.6803 47.923 14.7653 47.888 14.8543 47.861C14.9531 47.8361 15.0506 47.806 15.1463 47.771C15.2521 47.7231 15.3549 47.669 15.4543 47.609C15.5243 47.571 15.5963 47.541 15.6623 47.496C15.8288 47.3853 15.9839 47.2583 16.1253 47.117L25.1213 38.121C25.6678 37.5552 25.9702 36.7974 25.9633 36.0108C25.9565 35.2242 25.641 34.4718 25.0848 33.9155C24.5285 33.3593 23.7761 33.0438 22.9895 33.037C22.2029 33.0301 21.4451 33.3325 20.8793 33.879V33.879Z" fill="#011E41"/>
</g>
<defs>
<clipPath id="clip0_74_1248">
<rect width="48" height="48" fill="white"/>
</clipPath>
</defs>
</svg>
