<svg width="48" height="48" viewBox="0 0 48 48" fill="none" xmlns="http://www.w3.org/2000/svg">
<path d="M39.9747 19.0452H47.9622V28.0312H39.9747V19.0452ZM10.0215 5.06708C8.32416 5.06708 7.02619 6.36505 7.02619 8.0624H13.0168C13.0168 6.36505 11.7189 5.06708 10.0215 5.06708ZM10.0215 20.0437C15.5129 20.0437 20.0059 15.5507 20.0059 10.0593C20.0059 4.56786 15.5129 0.074883 10.0215 0.074883C4.53009 0.074883 0.0371094 4.56786 0.0371094 10.0593C0.0371094 15.5507 4.53009 20.0437 10.0215 20.0437ZM5.02931 8.0624C5.02931 5.26677 7.22588 3.0702 10.0215 3.0702C12.8171 3.0702 15.0137 5.26677 15.0137 8.0624V14.053C15.0137 15.1513 14.1151 16.0499 13.0168 16.0499H7.02619C5.92791 16.0499 5.02931 15.1513 5.02931 14.053V8.0624ZM8.02463 22.8393C5.229 22.4399 2.63305 21.0421 0.636173 19.0452H0.0371094V28.0312H8.02463V22.8393ZM20.0059 19.0452H27.9934V28.0312H20.0059V19.0452ZM42.97 15.0515C44.6674 15.0515 45.9653 13.7535 45.9653 12.0562C45.9653 11.2574 45.6658 10.4587 45.0668 9.95944L36.0808 0.973479C35.9809 0.873635 35.7813 0.673947 35.5816 0.574103C35.4817 0.574103 35.4817 0.474259 35.3819 0.474259C35.282 0.374415 35.1822 0.374415 35.0824 0.274571C34.9825 0.274571 34.8827 0.174727 34.7828 0.174727C34.683 0.174727 34.5831 0.074883 34.4833 0.074883C34.0839 -0.024961 33.6845 -0.024961 33.2852 0.074883C33.1853 0.074883 33.0855 0.174727 32.9856 0.174727C32.8858 0.174727 32.7859 0.274571 32.6861 0.274571C32.5863 0.274571 32.4864 0.374415 32.3866 0.474259C32.2867 0.474259 32.2867 0.574103 32.1869 0.574103C31.9872 0.673947 31.8873 0.773791 31.6877 0.973479L22.7017 9.95944C21.5036 11.1576 21.5036 13.0546 22.7017 14.1529C23.8998 15.2512 25.7969 15.351 26.8951 14.1529L30.7891 10.259V45.0047C30.7891 46.702 32.087 48 33.7844 48C35.4817 48 36.7797 46.702 36.7797 45.0047V10.259L40.6736 14.1529C41.3725 14.7519 42.1713 15.0515 42.97 15.0515V15.0515ZM20.9045 33.922L17.0106 37.8159V20.9423C15.2134 22.1404 13.1167 22.8393 11.0199 22.9392V37.7161L7.12603 33.8222C5.92791 32.624 4.03087 32.624 2.93259 33.8222C1.8343 35.0203 1.73446 36.9173 2.93259 38.0156L11.9185 47.0016C12.0184 47.1014 12.2181 47.3011 12.4178 47.4009C12.5176 47.4009 12.5176 47.5008 12.6175 47.5008C12.7173 47.6006 12.8171 47.6006 12.917 47.7005C13.0168 47.7005 13.1167 47.8003 13.2165 47.8003C13.3164 47.8003 13.4162 47.9002 13.516 47.9002C13.9154 48 14.3148 48 14.7142 47.9002C14.814 47.9002 14.9139 47.9002 15.0137 47.8003C15.1136 47.8003 15.2134 47.7005 15.3132 47.7005C15.4131 47.7005 15.5129 47.6006 15.6128 47.5008C15.7126 47.5008 15.7126 47.4009 15.8125 47.4009C16.0121 47.3011 16.112 47.2012 16.3117 47.0016L25.2976 38.0156C26.4958 36.8175 26.4958 34.9204 25.2976 33.8222C24.0995 32.7239 22.1026 32.7239 20.9045 33.922V33.922ZM9.02307 10.0593H11.0199C11.619 10.0593 12.0184 10.4587 12.0184 11.0577V13.0546C12.0184 13.6537 11.619 14.053 11.0199 14.053H9.02307C8.42401 14.053 8.02463 13.6537 8.02463 13.0546V11.0577C8.02463 10.4587 8.42401 10.0593 9.02307 10.0593Z" fill="#011E41"/>
</svg>
