<svg width="48" height="48" viewBox="0 0 48 48" fill="none" xmlns="http://www.w3.org/2000/svg">
<g clip-path="url(#clip0_1452_5595)">
<path d="M40 19H48V28H40V19ZM20 19H28V28H20V19ZM0 19H8V28H0V19Z" fill="#011E41"/>
<path d="M40.8773 14.121C41.1529 14.4123 41.484 14.6454 41.8512 14.8066C42.2184 14.9677 42.6142 15.0536 43.0151 15.0592C43.4161 15.0648 43.8141 14.9899 44.1856 14.839C44.5571 14.6882 44.8946 14.4644 45.1782 14.1808C45.4617 13.8973 45.6855 13.5598 45.8364 13.1882C45.9873 12.8167 46.0621 12.4187 46.0565 12.0178C46.051 11.6168 45.9651 11.2211 45.8039 10.8539C45.6428 10.4867 45.4097 10.1555 45.1183 9.88L36.1233 0.883C35.982 0.741304 35.8269 0.614011 35.6603 0.503C35.5943 0.459 35.5213 0.429 35.4523 0.391C35.353 0.330951 35.2501 0.276856 35.1443 0.229C35.0486 0.19395 34.9512 0.16391 34.8523 0.139C34.7633 0.112 34.6774 0.0769999 34.5854 0.0589999C34.1978 -0.0180302 33.7989 -0.0180302 33.4113 0.0589999C33.3183 0.0779999 33.2334 0.112 33.1434 0.139C33.0449 0.163931 32.9477 0.193971 32.8524 0.229C32.7459 0.277152 32.6424 0.331581 32.5423 0.392C32.4743 0.43 32.4024 0.46 32.3364 0.504C32.1698 0.614642 32.0147 0.741603 31.8734 0.883L22.8783 9.879C22.5918 10.1557 22.3633 10.4868 22.206 10.8528C22.0488 11.2188 21.9661 11.6125 21.9626 12.0108C21.9591 12.4091 22.035 12.8042 22.1859 13.1729C22.3367 13.5416 22.5595 13.8765 22.8412 14.1582C23.1228 14.4399 23.4578 14.6626 23.8265 14.8135C24.1952 14.9643 24.5902 15.0402 24.9886 15.0368C25.3869 15.0333 25.7806 14.9505 26.1466 14.7933C26.5126 14.6361 26.8436 14.4075 27.1203 14.121L30.9984 10.242V45C30.9984 45.7956 31.3144 46.5587 31.877 47.1213C32.4396 47.6839 33.2027 48 33.9984 48C34.794 48 35.5571 47.6839 36.1197 47.1213C36.6823 46.5587 36.9983 45.7956 36.9983 45V10.242L40.8773 14.121ZM20.8773 33.879L16.9983 37.758V3C16.9983 2.20435 16.6823 1.44129 16.1197 0.87868C15.5571 0.31607 14.794 0 13.9983 0C13.2027 0 12.4396 0.31607 11.877 0.87868C11.3144 1.44129 10.9983 2.20435 10.9983 3V37.758L7.11935 33.878C6.55513 33.323 5.79447 33.0135 5.00306 33.0168C4.21165 33.0201 3.45361 33.336 2.89405 33.8957C2.3345 34.4554 2.01878 35.2135 2.01565 36.0049C2.01252 36.7963 2.32224 37.5569 2.87735 38.121L11.8733 47.117C12.0147 47.2587 12.1698 47.386 12.3363 47.497C12.4023 47.54 12.4743 47.57 12.5433 47.608C12.643 47.6684 12.7462 47.7228 12.8523 47.771C12.9477 47.806 13.0449 47.8361 13.1433 47.861C13.2333 47.888 13.3183 47.922 13.4113 47.941C13.7987 48.0198 14.198 48.0198 14.5853 47.941C14.6783 47.923 14.7633 47.888 14.8523 47.861C14.9512 47.8361 15.0486 47.806 15.1443 47.771C15.2501 47.7231 15.353 47.669 15.4523 47.609C15.5223 47.571 15.5943 47.541 15.6603 47.496C15.8268 47.3853 15.9819 47.2583 16.1233 47.117L25.1194 38.121C25.6658 37.5552 25.9682 36.7974 25.9614 36.0108C25.9545 35.2242 25.639 34.4718 25.0828 33.9155C24.5266 33.3593 23.7741 33.0438 22.9876 33.037C22.201 33.0301 21.4432 33.3325 20.8773 33.879V33.879Z" fill="#011E41"/>
</g>
<defs>
<clipPath id="clip0_1452_5595">
<rect width="48" height="48" fill="white"/>
</clipPath>
</defs>
</svg>
