<svg width="48" height="48" viewBox="0 0 48 48" fill="none" xmlns="http://www.w3.org/2000/svg">
<path d="M47 12H32V33C32 35.1217 31.1571 37.1566 29.6569 38.6569C28.1566 40.1571 26.1217 41 24 41C21.8783 41 19.8434 40.1571 18.3431 38.6569C16.8429 37.1566 16 35.1217 16 33V12H1C0.735027 12.0008 0.481133 12.1064 0.293767 12.2938C0.106402 12.4811 0.000791363 12.735 0 13L0 47C0.000791363 47.265 0.106402 47.5189 0.293767 47.7062C0.481133 47.8936 0.735027 47.9992 1 48H47C47.265 47.9992 47.5189 47.8936 47.7062 47.7062C47.8936 47.5189 47.9992 47.265 48 47V13C47.9992 12.735 47.8936 12.4811 47.7062 12.2938C47.5189 12.1064 47.265 12.0008 47 12Z" fill="#011E41"/>
<path d="M23.9994 37C25.0508 37.0032 26.0763 36.674 26.9293 36.0594C27.7824 35.4448 28.4193 34.5763 28.7491 33.5779C29.0789 32.5796 29.0846 31.5026 28.7655 30.5008C28.4464 29.499 27.8188 28.6237 26.9724 28H26.9994V3C26.9994 2.20435 26.6833 1.44129 26.1207 0.87868C25.5581 0.31607 24.795 0 23.9994 0C23.2037 0 22.4407 0.31607 21.8781 0.87868C21.3154 1.44129 20.9994 2.20435 20.9994 3V28H21.0264C20.1799 28.6237 19.5523 29.499 19.2332 30.5008C18.9141 31.5026 18.9199 32.5796 19.2497 33.5779C19.5795 34.5763 20.2164 35.4448 21.0694 36.0594C21.9225 36.674 22.948 37.0032 23.9994 37V37Z" fill="#011E41"/>
</svg>
