<svg width="48" height="48" viewBox="0 0 48 48" fill="none" xmlns="http://www.w3.org/2000/svg">
<path d="M15 15H33C33.2652 15 33.5196 14.8946 33.7071 14.7071C33.8946 14.5196 34 14.2652 34 14C34 12.4087 33.3679 10.8826 32.2426 9.75736C31.1174 8.63214 29.5913 8 28 8V4C28.5304 4 29.0391 3.78929 29.4142 3.41421C29.7893 3.03914 30 2.53043 30 2C30 1.46957 29.7893 0.960859 29.4142 0.585786C29.0391 0.210714 28.5304 0 28 0L20 0C19.4696 0 18.9609 0.210714 18.5858 0.585786C18.2107 0.960859 18 1.46957 18 2C18 2.53043 18.2107 3.03914 18.5858 3.41421C18.9609 3.78929 19.4696 4 20 4V8C18.4087 8 16.8826 8.63214 15.7574 9.75736C14.6321 10.8826 14 12.4087 14 14C14 14.2652 14.1054 14.5196 14.2929 14.7071C14.4804 14.8946 14.7348 15 15 15Z" fill="#011E41"/>
<path d="M33 18H15C14.4477 18 14 18.4477 14 19V21C14 21.5523 14.4477 22 15 22H33C33.5523 22 34 21.5523 34 21V19C34 18.4477 33.5523 18 33 18Z" fill="#011E41"/>
<path d="M33 25H15C14.4477 25 14 25.4477 14 26V28C14 28.5523 14.4477 29 15 29H33C33.5523 29 34 28.5523 34 28V26C34 25.4477 33.5523 25 33 25Z" fill="#011E41"/>
<path d="M33 32H15C14.7348 32 14.4804 32.1054 14.2929 32.2929C14.1054 32.4804 14 32.7348 14 33V46C14 46.5304 14.2107 47.0391 14.5858 47.4142C14.9609 47.7893 15.4696 48 16 48H32C32.5304 48 33.0391 47.7893 33.4142 47.4142C33.7893 47.0391 34 46.5304 34 46V33C34 32.7348 33.8946 32.4804 33.7071 32.2929C33.5196 32.1054 33.2652 32 33 32V32Z" fill="#011E41"/>
</svg>
