<svg width="48" height="48" viewBox="0 0 48 48" fill="none" xmlns="http://www.w3.org/2000/svg">
<g clip-path="url(#clip0_74_966)">
<path d="M10 5C9.20459 5.00079 8.44199 5.31712 7.87956 5.87956C7.31712 6.44199 7.00079 7.20459 7 8H13C12.9992 7.20459 12.6829 6.44199 12.1204 5.87956C11.558 5.31712 10.7954 5.00079 10 5V5Z" fill="#011E41"/>
<path d="M10 20C11.9778 20 13.9112 19.4135 15.5557 18.3147C17.2002 17.2159 18.4819 15.6541 19.2388 13.8268C19.9957 11.9996 20.1937 9.98891 19.8079 8.0491C19.422 6.10929 18.4696 4.32746 17.0711 2.92894C15.6725 1.53041 13.8907 0.578004 11.9509 0.192152C10.0111 -0.193701 8.00043 0.00433284 6.17317 0.761209C4.3459 1.51809 2.78412 2.79981 1.6853 4.4443C0.58649 6.08879 0 8.02219 0 10C0.0010601 12.6518 1.05497 15.1948 2.9301 17.0699C4.80524 18.945 7.34816 19.9989 10 20V20ZM5 8C5 6.67392 5.52678 5.40215 6.46447 4.46447C7.40215 3.52679 8.67392 3 10 3C11.3261 3 12.5979 3.52679 13.5355 4.46447C14.4732 5.40215 15 6.67392 15 8V14C15 14.5304 14.7893 15.0391 14.4142 15.4142C14.0391 15.7893 13.5304 16 13 16H7C6.46957 16 5.96086 15.7893 5.58579 15.4142C5.21071 15.0391 5 14.5304 5 14V8ZM0 24V31C1.05065 30.9997 2.09105 31.2065 3.06178 31.6084C4.0325 32.0104 4.91452 32.5996 5.65744 33.3426C6.40036 34.0855 6.98963 34.9675 7.39157 35.9382C7.79352 36.9089 8.00026 37.9494 8 39V48H16V39C16 36.8783 16.8429 34.8434 18.3431 33.3432C19.8434 31.8429 21.8783 31 24 31C26.1217 31 28.1566 31.8429 29.6569 33.3432C31.1571 34.8434 32 36.8783 32 39V48H40V39C39.9997 37.9494 40.2065 36.9089 40.6084 35.9382C41.0104 34.9675 41.5996 34.0855 42.3426 33.3426C43.0855 32.5996 43.9675 32.0104 44.9382 31.6084C45.9089 31.2065 46.9494 30.9997 48 31V24H0Z" fill="#011E41"/>
<path d="M11 10H9C8.44772 10 8 10.4477 8 11V13C8 13.5523 8.44772 14 9 14H11C11.5523 14 12 13.5523 12 13V11C12 10.4477 11.5523 10 11 10Z" fill="#011E41"/>
</g>
<defs>
<clipPath id="clip0_74_966">
<rect width="48" height="48" fill="white"/>
</clipPath>
</defs>
</svg>
