<svg width="48" height="48" viewBox="0 0 48 48" fill="none" xmlns="http://www.w3.org/2000/svg">
<g clip-path="url(#clip0_74_624)">
<path d="M10 20C11.9778 20 13.9112 19.4135 15.5557 18.3147C17.2002 17.2159 18.4819 15.6541 19.2388 13.8268C19.9957 11.9996 20.1937 9.98891 19.8079 8.0491C19.422 6.10929 18.4696 4.32746 17.0711 2.92894C15.6725 1.53041 13.8907 0.578004 11.9509 0.192152C10.0111 -0.193701 8.00043 0.00433284 6.17317 0.761209C4.3459 1.51809 2.78412 2.79981 1.6853 4.4443C0.58649 6.08879 0 8.02219 0 10C0.0010601 12.6518 1.05497 15.1948 2.9301 17.0699C4.80524 18.945 7.34816 19.9989 10 20V20ZM4.29 9.29C4.47881 9.10265 4.73401 8.99752 5 8.99752C5.26599 8.99752 5.52119 9.10265 5.71 9.29L8.05 11.64L14.35 6.24C14.5516 6.06761 14.8134 5.98235 15.0778 6.00298C15.2087 6.0132 15.3363 6.0491 15.4534 6.10864C15.5705 6.16818 15.6746 6.2502 15.76 6.35C15.8454 6.44981 15.9102 6.56545 15.9509 6.69032C15.9916 6.81519 16.0072 6.94686 15.997 7.07779C15.9868 7.20872 15.9509 7.33635 15.8914 7.45341C15.8318 7.57046 15.7498 7.67465 15.65 7.76L8.65 13.76C8.46854 13.9144 8.23823 13.9994 8 14C7.7347 13.999 7.48016 13.895 7.29 13.71L4.29 10.71C4.10265 10.5212 3.99752 10.266 3.99752 10C3.99752 9.73402 4.10265 9.47881 4.29 9.29V9.29ZM0 24V31C1.05065 30.9997 2.09105 31.2065 3.06178 31.6084C4.0325 32.0104 4.91452 32.5996 5.65744 33.3426C6.40036 34.0855 6.98963 34.9675 7.39157 35.9382C7.79352 36.9089 8.00026 37.9494 8 39V48H16V39C16 36.8783 16.8429 34.8434 18.3431 33.3432C19.8434 31.8429 21.8783 31 24 31C26.1217 31 28.1566 31.8429 29.6569 33.3432C31.1571 34.8434 32 36.8783 32 39V48H40V39C39.9997 37.9494 40.2065 36.9089 40.6084 35.9382C41.0104 34.9675 41.5996 34.0855 42.3426 33.3426C43.0855 32.5996 43.9675 32.0104 44.9382 31.6084C45.9089 31.2065 46.9494 30.9997 48 31V24H0Z" fill="#011E41"/>
</g>
<defs>
<clipPath id="clip0_74_624">
<rect width="48" height="48" fill="white"/>
</clipPath>
</defs>
</svg>
