<svg width="48" height="48" viewBox="0 0 48 48" fill="none" xmlns="http://www.w3.org/2000/svg">
<path d="M46 37C44.3715 36.9675 42.7674 37.399 41.375 38.244C40.557 38.7385 39.6194 38.9999 38.6635 38.9999C37.7076 38.9999 36.77 38.7385 35.952 38.244C34.5592 37.3989 32.9548 36.9674 31.326 37C29.6982 36.9675 28.0947 37.3989 26.703 38.244C25.8988 38.7669 24.9537 39.0307 23.995 39C23.036 39.0307 22.0906 38.7668 21.286 38.244C19.8936 37.399 18.2895 36.9675 16.661 37C15.0329 36.9677 13.4291 37.3991 12.037 38.244C11.2331 38.7667 10.2884 39.0305 9.33 39C8.37194 39.0304 7.42755 38.7666 6.624 38.244C5.23182 37.3992 3.62812 36.9678 2 37C1.46957 37 0.960859 37.2107 0.585786 37.5858C0.210714 37.9609 0 38.4696 0 39C0 39.5304 0.210714 40.0391 0.585786 40.4142C0.960859 40.7893 1.46957 41 2 41C2.95839 40.9694 3.90314 41.2333 4.707 41.756C6.09858 42.6005 7.70155 43.0319 9.329 43C10.9571 43.0323 12.5609 42.6009 13.953 41.756C14.7572 41.2331 15.7023 40.9693 16.661 41C17.6204 40.9691 18.5662 41.233 19.371 41.756C20.7629 42.6006 22.3662 43.0321 23.994 43C25.6221 43.0318 27.2257 42.6004 28.618 41.756C29.4354 41.2613 30.3726 40.9998 31.328 40.9998C32.2834 40.9998 33.2206 41.2613 34.038 41.756C35.4432 42.5708 37.0387 42.9999 38.663 42.9999C40.2873 42.9999 41.8828 42.5708 43.288 41.756C44.0936 41.2329 45.04 40.9691 46 41C46.5304 41 47.0391 40.7893 47.4142 40.4142C47.7893 40.0391 48 39.5304 48 39C48 38.4696 47.7893 37.9609 47.4142 37.5858C47.0391 37.2107 46.5304 37 46 37ZM46 29C44.3715 28.9675 42.7674 29.399 41.375 30.244C40.557 30.7385 39.6194 30.9999 38.6635 30.9999C37.7076 30.9999 36.77 30.7385 35.952 30.244C34.5592 29.3989 32.9548 28.9674 31.326 29C29.6982 28.9675 28.0947 29.3989 26.703 30.244C25.8988 30.7669 24.9537 31.0307 23.995 31C23.036 31.0307 22.0906 30.7668 21.286 30.244C19.8936 29.399 18.2895 28.9675 16.661 29C15.0329 28.9677 13.4291 29.3991 12.037 30.244C11.2331 30.7667 10.2884 31.0305 9.33 31C8.37194 31.0304 7.42755 30.7666 6.624 30.244C5.23182 29.3992 3.62812 28.9678 2 29C1.46957 29 0.960859 29.2107 0.585786 29.5858C0.210714 29.9609 0 30.4696 0 31C0 31.5304 0.210714 32.0391 0.585786 32.4142C0.960859 32.7893 1.46957 33 2 33C2.95839 32.9694 3.90314 33.2333 4.707 33.756C6.09858 34.6005 7.70155 35.0319 9.329 35C10.9571 35.0323 12.5609 34.6009 13.953 33.756C14.7572 33.2331 15.7023 32.9693 16.661 33C17.6204 32.9691 18.5662 33.233 19.371 33.756C20.7629 34.6006 22.3662 35.0321 23.994 35C25.6221 35.0318 27.2257 34.6004 28.618 33.756C29.4354 33.2613 30.3726 32.9998 31.328 32.9998C32.2834 32.9998 33.2206 33.2613 34.038 33.756C35.4432 34.5708 37.0387 34.9999 38.663 34.9999C40.2873 34.9999 41.8828 34.5708 43.288 33.756C44.0936 33.2329 45.04 32.9691 46 33C46.5304 33 47.0391 32.7893 47.4142 32.4142C47.7893 32.0391 48 31.5304 48 31C48 30.4696 47.7893 29.9609 47.4142 29.5858C47.0391 29.2107 46.5304 29 46 29ZM0 0V7C1.05065 6.99974 2.09105 7.20648 3.06178 7.60843C4.0325 8.01037 4.91452 8.59964 5.65744 9.34256C6.40036 10.0855 6.98963 10.9675 7.39157 11.9382C7.79352 12.9089 8.00026 13.9494 8 15V24H16V15C16 12.8783 16.8429 10.8434 18.3431 9.34315C19.8434 7.84285 21.8783 7 24 7C26.1217 7 28.1566 7.84285 29.6569 9.34315C31.1571 10.8434 32 12.8783 32 15V24H40V15C39.9997 13.9494 40.2065 12.9089 40.6084 11.9382C41.0104 10.9675 41.5996 10.0855 42.3426 9.34256C43.0855 8.59964 43.9675 8.01037 44.9382 7.60843C45.9089 7.20648 46.9494 6.99974 48 7V0H0Z" fill="#011E41"/>
</svg>
