<svg width="48" height="48" viewBox="0 0 48 48" fill="none" xmlns="http://www.w3.org/2000/svg">
<g clip-path="url(#clip0_74_618)">
<path d="M10 20C11.9778 20 13.9112 19.4135 15.5557 18.3147C17.2002 17.2159 18.4819 15.6541 19.2388 13.8268C19.9957 11.9996 20.1937 9.98891 19.8079 8.0491C19.422 6.10929 18.4696 4.32746 17.0711 2.92894C15.6725 1.53041 13.8907 0.578004 11.9509 0.192152C10.0111 -0.193701 8.00043 0.00433284 6.17317 0.761209C4.3459 1.51809 2.78412 2.79981 1.6853 4.4443C0.58649 6.08879 0 8.02219 0 10C0.0010601 12.6518 1.05497 15.1948 2.9301 17.0699C4.80524 18.945 7.34816 19.9989 10 20V20ZM9 4C9 3.73479 9.10536 3.48043 9.29289 3.2929C9.48043 3.10536 9.73478 3 10 3C10.2652 3 10.5196 3.10536 10.7071 3.2929C10.8946 3.48043 11 3.73479 11 4V12C11 12.2652 10.8946 12.5196 10.7071 12.7071C10.5196 12.8946 10.2652 13 10 13C9.73478 13 9.48043 12.8946 9.29289 12.7071C9.10536 12.5196 9 12.2652 9 12V4ZM10 15C10.1978 15 10.3911 15.0587 10.5556 15.1685C10.72 15.2784 10.8482 15.4346 10.9239 15.6173C10.9996 15.8 11.0194 16.0011 10.9808 16.1951C10.9422 16.3891 10.847 16.5673 10.7071 16.7071C10.5673 16.847 10.3891 16.9422 10.1951 16.9808C10.0011 17.0194 9.80004 16.9996 9.61732 16.9239C9.43459 16.8482 9.27841 16.72 9.16853 16.5556C9.05865 16.3911 9 16.1978 9 16C9.00079 15.735 9.1064 15.4811 9.29377 15.2938C9.48113 15.1064 9.73503 15.0008 10 15V15ZM0 24V31C1.05065 30.9997 2.09105 31.2065 3.06178 31.6084C4.0325 32.0104 4.91452 32.5996 5.65744 33.3426C6.40036 34.0855 6.98963 34.9675 7.39157 35.9382C7.79352 36.9089 8.00026 37.9494 8 39V48H16V39C16 36.8783 16.8429 34.8434 18.3431 33.3432C19.8434 31.8429 21.8783 31 24 31C26.1217 31 28.1566 31.8429 29.6569 33.3432C31.1571 34.8434 32 36.8783 32 39V48H40V39C39.9997 37.9494 40.2065 36.9089 40.6084 35.9382C41.0104 34.9675 41.5996 34.0855 42.3426 33.3426C43.0855 32.5996 43.9675 32.0104 44.9382 31.6084C45.9089 31.2065 46.9494 30.9997 48 31V24H0Z" fill="#011E41"/>
</g>
<defs>
<clipPath id="clip0_74_618">
<rect width="48" height="48" fill="white"/>
</clipPath>
</defs>
</svg>
