<svg width="48" height="48" viewBox="0 0 48 48" fill="none" xmlns="http://www.w3.org/2000/svg">
<g clip-path="url(#clip0_74_621)">
<path d="M10 20C11.9778 20 13.9112 19.4135 15.5557 18.3147C17.2002 17.2159 18.4819 15.6541 19.2388 13.8268C19.9957 11.9996 20.1937 9.98891 19.8079 8.0491C19.422 6.10929 18.4696 4.32746 17.0711 2.92894C15.6725 1.53041 13.8907 0.578004 11.9509 0.192152C10.0111 -0.193701 8.00043 0.00433284 6.17317 0.761209C4.3459 1.51809 2.78412 2.79981 1.6853 4.4443C0.58649 6.08879 0 8.02219 0 10C0.0010601 12.6518 1.05497 15.1948 2.9301 17.0699C4.80524 18.945 7.34816 19.9989 10 20V20ZM5.29 6.71C5.1017 6.5217 4.99591 6.26631 4.99591 6C4.99591 5.7337 5.1017 5.47831 5.29 5.29C5.4783 5.1017 5.7337 4.99591 6 4.99591C6.2663 4.99591 6.5217 5.1017 6.71 5.29L10 8.58L13.29 5.29C13.3832 5.19677 13.4939 5.12281 13.6158 5.07234C13.7376 5.02188 13.8681 4.99591 14 4.99591C14.1319 4.99591 14.2624 5.02188 14.3842 5.07234C14.5061 5.12281 14.6168 5.19677 14.71 5.29C14.8032 5.38324 14.8772 5.49393 14.9277 5.61576C14.9781 5.73758 15.0041 5.86815 15.0041 6C15.0041 6.13186 14.9781 6.26243 14.9277 6.38425C14.8772 6.50608 14.8032 6.61677 14.71 6.71L11.42 10L14.71 13.29C14.8974 13.4788 15.0025 13.734 15.0025 14C15.0025 14.266 14.8974 14.5212 14.71 14.71C14.5204 14.8959 14.2655 15.0001 14 15.0001C13.7345 15.0001 13.4796 14.8959 13.29 14.71L10 11.42L6.71 14.71C6.52044 14.8959 6.26551 15.0001 6 15.0001C5.73449 15.0001 5.47956 14.8959 5.29 14.71C5.10265 14.5212 4.99752 14.266 4.99752 14C4.99752 13.734 5.10265 13.4788 5.29 13.29L8.58 10L5.29 6.71ZM0 24V31C1.05065 30.9997 2.09105 31.2065 3.06178 31.6084C4.0325 32.0104 4.91452 32.5996 5.65744 33.3426C6.40036 34.0855 6.98963 34.9675 7.39157 35.9382C7.79352 36.9089 8.00026 37.9494 8 39V48H16V39C16 36.8783 16.8429 34.8434 18.3431 33.3432C19.8434 31.8429 21.8783 31 24 31C26.1217 31 28.1566 31.8429 29.6569 33.3432C31.1571 34.8434 32 36.8783 32 39V48H40V39C39.9997 37.9494 40.2065 36.9089 40.6084 35.9382C41.0104 34.9675 41.5996 34.0855 42.3426 33.3426C43.0855 32.5996 43.9675 32.0104 44.9382 31.6084C45.9089 31.2065 46.9494 30.9997 48 31V24H0Z" fill="#011E41"/>
</g>
<defs>
<clipPath id="clip0_74_621">
<rect width="48" height="48" fill="white"/>
</clipPath>
</defs>
</svg>
