<svg width="48" height="48" viewBox="0 0 48 48" fill="none" xmlns="http://www.w3.org/2000/svg">
<path d="M7.10088 27.4367L11.8967 46.6218C12.0292 47.0372 12.295 47.3972 12.653 47.6459C13.011 47.8947 13.4411 48.0184 13.8766 47.9978H33.7177C34.1482 48.0175 34.5735 47.8967 34.9294 47.6535C35.2852 47.4104 35.5524 47.0581 35.6906 46.6498L40.9993 26.9988H7.00088L7.10088 27.4367ZM40.9993 20.999H7.00088C6.47048 20.999 5.96179 21.2097 5.58674 21.5848C5.21168 21.9598 5.00098 22.4685 5.00098 22.9989C5.00098 23.5293 5.21168 24.038 5.58674 24.4131C5.96179 24.7881 6.47048 24.9988 7.00088 24.9988H40.9993C41.5297 24.9988 42.0384 24.7881 42.4135 24.4131C42.7885 24.038 42.9992 23.5293 42.9992 22.9989C42.9992 22.4685 42.7885 21.9598 42.4135 21.5848C42.0384 21.2097 41.5297 20.999 40.9993 20.999ZM9.00079 18.9991C9.5312 18.9991 10.0399 18.7884 10.4149 18.4134C10.79 18.0383 11.0007 17.5296 11.0007 16.9992C11.0007 13.5516 12.3703 10.2451 14.8081 7.80725C17.246 5.36939 20.5524 3.99982 24.0001 3.99982C27.4478 3.99982 30.7542 5.36939 33.1921 7.80725C35.6299 10.2451 36.9995 13.5516 36.9995 16.9992C36.9995 17.5296 37.2102 18.0383 37.5853 18.4134C37.9603 18.7884 38.469 18.9991 38.9994 18.9991C39.5298 18.9991 40.0385 18.7884 40.4136 18.4134C40.7886 18.0383 40.9993 17.5296 40.9993 16.9992C40.9993 12.4907 39.2083 8.16693 36.0204 4.97895C32.8324 1.79098 28.5086 0 24.0001 0C19.4916 0 15.1678 1.79098 11.9798 4.97895C8.79187 8.16693 7.00088 12.4907 7.00088 16.9992C7.00088 17.5296 7.21159 18.0383 7.58664 18.4134C7.9617 18.7884 8.47038 18.9991 9.00079 18.9991Z" fill="#011E41"/>
</svg>
