<svg width="48" height="48" viewBox="0 0 48 48" fill="none" xmlns="http://www.w3.org/2000/svg">
<path d="M46.5 45H1.5C1.10218 45 0.720644 45.158 0.43934 45.4393C0.158035 45.7206 0 46.1022 0 46.5C0 46.8978 0.158035 47.2794 0.43934 47.5607C0.720644 47.842 1.10218 48 1.5 48H46.5C46.8978 48 47.2794 47.842 47.5607 47.5607C47.842 47.2794 48 46.8978 48 46.5C48 46.1022 47.842 45.7206 47.5607 45.4393C47.2794 45.158 46.8978 45 46.5 45ZM5.5 43H42.5C42.8978 43 43.2794 42.842 43.5607 42.5607C43.842 42.2794 44 41.8978 44 41.5C44 41.1022 43.842 40.7206 43.5607 40.4393C43.2794 40.158 42.8978 40 42.5 40H5.5C5.10218 40 4.72064 40.158 4.43934 40.4393C4.15804 40.7206 4 41.1022 4 41.5C4 41.8978 4.15804 42.2794 4.43934 42.5607C4.72064 42.842 5.10218 43 5.5 43V43ZM5 32H43C43.1857 32 43.3678 31.9483 43.5257 31.8507C43.6837 31.753 43.8114 31.6133 43.8944 31.4472C43.9775 31.2811 44.0126 31.0952 43.996 30.9102C43.9793 30.7252 43.9114 30.5486 43.8 30.4L39.3 24.4C39.2069 24.2758 39.0861 24.175 38.9472 24.1056C38.8084 24.0361 38.6552 24 38.5 24H9.5C9.34475 24 9.19164 24.0361 9.05279 24.1056C8.91393 24.175 8.79315 24.2758 8.7 24.4L4.2 30.4C4.08857 30.5486 4.02072 30.7252 4.00404 30.9102C3.98736 31.0952 4.02252 31.2811 4.10557 31.4472C4.18863 31.6133 4.31629 31.753 4.47427 31.8507C4.63224 31.9483 4.81429 32 5 32ZM9 22H39C39.1857 22 39.3678 21.9483 39.5257 21.8507C39.6837 21.753 39.8114 21.6133 39.8944 21.4472C39.9775 21.2811 40.0126 21.0952 39.996 20.9102C39.9793 20.7252 39.9114 20.5486 39.8 20.4L35.3 14.4C35.2069 14.2758 35.0861 14.175 34.9472 14.1056C34.8084 14.0361 34.6552 14 34.5 14H13.5C13.3448 14 13.1916 14.0361 13.0528 14.1056C12.9139 14.175 12.7931 14.2758 12.7 14.4L8.2 20.4C8.08857 20.5486 8.02072 20.7252 8.00404 20.9102C7.98736 21.0952 8.02252 21.2811 8.10557 21.4472C8.18863 21.6133 8.31629 21.753 8.47427 21.8507C8.63224 21.9483 8.81429 22 9 22ZM12.002 12H36C36.176 12.0001 36.3488 11.9537 36.5011 11.8656C36.6534 11.7774 36.7798 11.6507 36.8674 11.4981C36.955 11.3456 37.0009 11.1726 37.0003 10.9966C36.9997 10.8207 36.9527 10.648 36.864 10.496L31.289 0.496C31.201 0.345169 31.075 0.220016 30.9236 0.132996C30.7722 0.0459758 30.6006 0.000122906 30.426 0L17.574 0C17.3994 0.000122906 17.2278 0.0459758 17.0764 0.132996C16.925 0.220016 16.799 0.345169 16.711 0.496L11.138 10.496C11.0493 10.648 11.0023 10.8207 11.0017 10.9966C11.0011 11.1726 11.047 11.3456 11.1346 11.4981C11.2222 11.6507 11.3486 11.7774 11.5009 11.8656C11.6532 11.9537 11.826 12.0001 12.002 12V12Z" fill="#011E41"/>
<path d="M39 34H35C34.4477 34 34 34.4477 34 35V37C34 37.5523 34.4477 38 35 38H39C39.5523 38 40 37.5523 40 37V35C40 34.4477 39.5523 34 39 34Z" fill="#011E41"/>
<path d="M13 34H9C8.44772 34 8 34.4477 8 35V37C8 37.5523 8.44772 38 9 38H13C13.5523 38 14 37.5523 14 37V35C14 34.4477 13.5523 34 13 34Z" fill="#011E41"/>
<path d="M26 34H22C21.4477 34 21 34.4477 21 35V37C21 37.5523 21.4477 38 22 38H26C26.5523 38 27 37.5523 27 37V35C27 34.4477 26.5523 34 26 34Z" fill="#011E41"/>
</svg>
