<svg width="48" height="48" viewBox="0 0 48 48" fill="none" xmlns="http://www.w3.org/2000/svg">
<g clip-path="url(#clip0_74_631)">
<path d="M20 10C20 8.02219 19.4135 6.08879 18.3147 4.4443C17.2159 2.79981 15.6541 1.51809 13.8268 0.761209C11.9996 0.00433284 9.98891 -0.193701 8.0491 0.192152C6.10929 0.578004 4.32746 1.53041 2.92894 2.92894C1.53041 4.32746 0.578004 6.10929 0.192152 8.0491C-0.193701 9.98891 0.00433284 11.9996 0.761209 13.8268C1.51809 15.6541 2.79981 17.2159 4.4443 18.3147C6.08879 19.4135 8.02219 20 10 20C12.6518 19.9989 15.1948 18.945 17.0699 17.0699C18.945 15.1948 19.9989 12.6518 20 10V10ZM14.71 13.29C14.8974 13.4788 15.0025 13.734 15.0025 14C15.0025 14.266 14.8974 14.5212 14.71 14.71C14.5204 14.8959 14.2655 15.0001 14 15.0001C13.7345 15.0001 13.4796 14.8959 13.29 14.71L10 11.42L6.71 14.71C6.52044 14.8959 6.26552 15.0001 6 15.0001C5.73449 15.0001 5.47957 14.8959 5.29 14.71C5.10265 14.5212 4.99752 14.266 4.99752 14C4.99752 13.734 5.10265 13.4788 5.29 13.29L8.58 10L5.29 6.71C5.1017 6.5217 4.99591 6.26631 4.99591 6C4.99591 5.7337 5.1017 5.47831 5.29 5.29C5.47831 5.1017 5.7337 4.99591 6 4.99591C6.26631 4.99591 6.5217 5.1017 6.71 5.29L10 8.58L13.29 5.29C13.3832 5.19677 13.4939 5.12281 13.6158 5.07234C13.7376 5.02188 13.8681 4.99591 14 4.99591C14.1319 4.99591 14.2624 5.02188 14.3843 5.07234C14.5061 5.12281 14.6168 5.19677 14.71 5.29C14.8032 5.38324 14.8772 5.49393 14.9277 5.61576C14.9781 5.73758 15.0041 5.86815 15.0041 6C15.0041 6.13186 14.9781 6.26243 14.9277 6.38425C14.8772 6.50608 14.8032 6.61677 14.71 6.71L11.42 10L14.71 13.29Z" fill="#011E41"/>
<path d="M46 6.00003H22.37C22.7887 7.29201 23.0013 8.64189 23 10C23.0008 10.6695 22.9507 11.3381 22.85 12H25C25.265 12.0008 25.5189 12.1064 25.7062 12.2938C25.8936 12.4812 25.9992 12.7351 26 13V21C25.9992 21.265 25.8936 21.5189 25.7062 21.7063C25.5189 21.8936 25.265 21.9992 25 22H21C20.735 21.9992 20.4811 21.8936 20.2938 21.7063C20.1064 21.5189 20.0008 21.265 20 21V18.3C18.8964 19.6337 17.5362 20.7321 16 21.53V30H48V8.00003C47.9984 7.47008 47.7872 6.96229 47.4125 6.58756C47.0377 6.21283 46.5299 6.00161 46 6.00003ZM35 21C34.9992 21.265 34.8936 21.5189 34.7062 21.7063C34.5189 21.8936 34.265 21.9992 34 22H30C29.735 21.9992 29.4811 21.8936 29.2938 21.7063C29.1064 21.5189 29.0008 21.265 29 21V13C29.0008 12.7351 29.1064 12.4812 29.2938 12.2938C29.4811 12.1064 29.735 12.0008 30 12H34C34.265 12.0008 34.5189 12.1064 34.7062 12.2938C34.8936 12.4812 34.9992 12.7351 35 13V21ZM44 21C43.9992 21.265 43.8936 21.5189 43.7062 21.7063C43.5189 21.8936 43.265 21.9992 43 22H39C38.735 21.9992 38.4811 21.8936 38.2938 21.7063C38.1064 21.5189 38.0008 21.265 38 21V13C38.0008 12.7351 38.1064 12.4812 38.2938 12.2938C38.4811 12.1064 38.735 12.0008 39 12H43C43.265 12.0008 43.5189 12.1064 43.7062 12.2938C43.8936 12.4812 43.9992 12.7351 44 13V21ZM22 4.00003H42C42.2626 4.00148 42.5228 3.94998 42.7651 3.84861C43.0073 3.74724 43.2267 3.59808 43.41 3.41003C43.598 3.22671 43.7472 3.00737 43.8486 2.76511C43.95 2.52285 44.0015 2.26264 44 2.00003C43.9984 1.47008 43.7872 0.962293 43.4125 0.587563C43.0377 0.212832 42.5299 0.0016104 42 2.7674e-05H22C21.7374 -0.00136953 21.4772 0.0501536 21.235 0.151522C20.9927 0.25289 20.7734 0.402026 20.59 0.590028C20.2777 0.891447 20.0768 1.28976 20.02 1.72003C20.5859 2.40544 21.0817 3.1458 21.5 3.93003C21.6622 3.97846 21.8308 4.00206 22 4.00003ZM16 48H28V38C28.0016 37.4701 28.2128 36.9623 28.5875 36.5876C28.9623 36.2128 29.4701 36.0016 30 36H34C34.5299 36.0016 35.0377 36.2128 35.4125 36.5876C35.7872 36.9623 35.9984 37.4701 36 38V48H48V32H16V48Z" fill="#011E41"/>
</g>
<defs>
<clipPath id="clip0_74_631">
<rect width="48" height="48" fill="white"/>
</clipPath>
</defs>
</svg>
