<svg width="48" height="48" viewBox="0 0 48 48" fill="none" xmlns="http://www.w3.org/2000/svg">
<path d="M47 0H6C5.73503 0.000791363 5.48113 0.106402 5.29377 0.293767C5.1064 0.481133 5.00079 0.735027 5 1V7H21.02C21.6083 6.08023 22.4186 5.32333 23.3763 4.79904C24.334 4.27475 25.4082 3.99994 26.5 3.99994C27.5918 3.99994 28.666 4.27475 29.6237 4.79904C30.5814 5.32333 31.3917 6.08023 31.98 7H42C42.7949 7.00237 43.5566 7.31921 44.1187 7.8813C44.6808 8.4434 44.9976 9.20508 45 10V21H47C47.265 20.9992 47.5189 20.8936 47.7062 20.7062C47.8936 20.5189 47.9992 20.265 48 20V1C47.9992 0.735027 47.8936 0.481133 47.7062 0.293767C47.5189 0.106402 47.265 0.000791363 47 0V0Z" fill="#011E41"/>
<path d="M42 9H1C0.735027 9.00079 0.481133 9.1064 0.293767 9.29377C0.106402 9.48113 0.000791363 9.73503 0 10L0 29C0.000791363 29.265 0.106402 29.5189 0.293767 29.7062C0.481133 29.8936 0.735027 29.9992 1 30H42C42.265 29.9992 42.5189 29.8936 42.7062 29.7062C42.8936 29.5189 42.9992 29.265 43 29V10C42.9992 9.73503 42.8936 9.48113 42.7062 9.29377C42.5189 9.1064 42.265 9.00079 42 9V9ZM6 23C5.2927 23.0013 4.60778 22.7522 4.06655 22.2968C3.52532 21.8415 3.1627 21.2093 3.04293 20.5122C2.92315 19.8151 3.05395 19.0981 3.41215 18.4882C3.77036 17.8783 4.33285 17.4149 5 17.18C5.3194 17.0589 5.65842 16.9979 6 17C6.39411 16.9995 6.78446 17.0767 7.14867 17.2273C7.51289 17.3779 7.84381 17.5988 8.12249 17.8775C8.40118 18.1562 8.62213 18.4871 8.77271 18.8513C8.92329 19.2155 9.00053 19.6059 9 20C9.00206 20.3416 8.94103 20.6806 8.82 21C8.61777 21.5862 8.23704 22.0943 7.73126 22.453C7.22549 22.8117 6.62006 23.003 6 23V23ZM21.5 26C20.0372 26.0008 18.6171 25.5073 17.4699 24.5998C16.3228 23.6922 15.5158 22.4237 15.18 21C15.0588 20.5093 14.9983 20.0055 15 19.5C14.999 17.9447 15.5569 16.4408 16.572 15.2624C17.587 14.084 18.9917 13.3094 20.53 13.08C20.8501 13.0232 21.1749 12.9964 21.5 13C22.354 12.9986 23.1999 13.1657 23.9892 13.4918C24.7784 13.818 25.4956 14.2967 26.0994 14.9006C26.7033 15.5044 27.182 16.2216 27.5082 17.0108C27.8343 17.8001 28.0014 18.646 28 19.5C28.0017 20.0055 27.9412 20.5093 27.82 21C27.4842 22.4237 26.6772 23.6922 25.5301 24.5998C24.3829 25.5073 22.9628 26.0008 21.5 26V26ZM37 22.5C36.3408 22.4991 35.7002 22.2807 35.1777 21.8788C34.6551 21.4769 34.2797 20.9138 34.1096 20.2769C33.9396 19.64 33.9843 18.9648 34.237 18.3558C34.4896 17.7469 34.936 17.2383 35.5071 16.9089C36.0781 16.5795 36.7418 16.4476 37.3954 16.5337C38.049 16.6197 38.656 16.919 39.1222 17.385C39.5885 17.8511 39.888 18.4579 39.9744 19.1115C40.0608 19.765 39.9292 20.4288 39.6 21C39.3368 21.4566 38.9579 21.8357 38.5014 22.0991C38.0449 22.3625 37.527 22.5007 37 22.5V22.5Z" fill="#011E41"/>
</svg>
