<svg width="48" height="48" viewBox="0 0 48 48" fill="none" xmlns="http://www.w3.org/2000/svg">
<g clip-path="url(#clip0_74_1277)">
<path d="M43 6.00001H38V8.50001C38 9.42827 37.6313 10.3185 36.9749 10.9749C36.3185 11.6313 35.4283 12 34.5 12C33.5718 12 32.6815 11.6313 32.0251 10.9749C31.3688 10.3185 31 9.42827 31 8.50001V6.00001H18V8.50001C18 9.42827 17.6313 10.3185 16.9749 10.9749C16.3185 11.6313 15.4283 12 14.5 12C13.5718 12 12.6815 11.6313 12.0251 10.9749C11.3688 10.3185 11 9.42827 11 8.50001V6.00001H5.00001C4.73711 5.99909 4.47662 6.05019 4.23355 6.15037C3.99048 6.25055 3.76964 6.39783 3.58374 6.58374C3.39783 6.76964 3.25055 6.99048 3.15037 7.23355C3.05019 7.47662 2.99909 7.73711 3.00001 8.00001V46C2.99909 46.2629 3.05019 46.5234 3.15037 46.7665C3.25055 47.0095 3.39783 47.2304 3.58374 47.4163C3.76964 47.6022 3.99048 47.7495 4.23355 47.8497C4.47662 47.9498 4.73711 48.0009 5.00001 48H43C43.2629 48.0009 43.5234 47.9498 43.7665 47.8497C44.0095 47.7495 44.2304 47.6022 44.4163 47.4163C44.6022 47.2304 44.7495 47.0095 44.8497 46.7665C44.9498 46.5234 45.0009 46.2629 45 46V8.00001C45.0009 7.73711 44.9498 7.47662 44.8497 7.23355C44.7495 6.99048 44.6022 6.76964 44.4163 6.58374C44.2304 6.39783 44.0095 6.25055 43.7665 6.15037C43.5234 6.05019 43.2629 5.99909 43 6.00001V6.00001ZM41 44H7.00001V18H41V44Z" fill="#011E41"/>
<path d="M14.5 10C14.6971 10.0003 14.8922 9.96164 15.0743 9.88636C15.2564 9.81107 15.4219 9.70059 15.5612 9.56125C15.7006 9.42191 15.8111 9.25644 15.8864 9.07434C15.9616 8.89223 16.0003 8.69706 16 8.5V1.5C16 1.10218 15.842 0.720644 15.5607 0.43934C15.2794 0.158035 14.8978 0 14.5 0C14.1022 0 13.7206 0.158035 13.4393 0.43934C13.158 0.720644 13 1.10218 13 1.5V8.5C12.9997 8.69706 13.0384 8.89223 13.1136 9.07434C13.1889 9.25644 13.2994 9.42191 13.4388 9.56125C13.5781 9.70059 13.7436 9.81107 13.9257 9.88636C14.1078 9.96164 14.3029 10.0003 14.5 10V10ZM34.5 10C34.6971 10.0003 34.8922 9.96164 35.0743 9.88636C35.2564 9.81107 35.4219 9.70059 35.5613 9.56125C35.7006 9.42191 35.8111 9.25644 35.8864 9.07434C35.9616 8.89223 36.0003 8.69706 36 8.5V1.5C36 1.10218 35.842 0.720644 35.5607 0.43934C35.2794 0.158035 34.8978 0 34.5 0C34.1022 0 33.7206 0.158035 33.4393 0.43934C33.158 0.720644 33 1.10218 33 1.5V8.5C32.9997 8.69706 33.0384 8.89223 33.1136 9.07434C33.1889 9.25644 33.2994 9.42191 33.4388 9.56125C33.5781 9.70059 33.7436 9.81107 33.9257 9.88636C34.1078 9.96164 34.3029 10.0003 34.5 10V10ZM21.74 30.52L16.47 35.47C16.3227 35.6046 16.2048 35.7683 16.1239 35.9508C16.043 36.1332 16.0008 36.3304 16 36.53C16.0018 36.7294 16.0444 36.9264 16.1253 37.1087C16.2061 37.291 16.3234 37.4548 16.47 37.59C16.7797 37.87 17.1824 38.0251 17.6 38.0251C18.0176 38.0251 18.4203 37.87 18.73 37.59L24 32.64L29.27 37.59C29.5823 37.8729 29.9886 38.0297 30.41 38.03C30.8258 38.0313 31.2263 37.874 31.53 37.59C31.6787 37.4564 31.7977 37.2929 31.8791 37.1103C31.9605 36.9277 32.0026 36.73 32.0026 36.53C32.0026 36.33 31.9605 36.1323 31.8791 35.9497C31.7977 35.7671 31.6787 35.6036 31.53 35.47L26.26 30.52L31.53 25.57C31.6766 25.4348 31.7939 25.271 31.8747 25.0887C31.9556 24.9064 31.9982 24.7094 32 24.51C31.9992 24.3104 31.957 24.1132 31.8761 23.9308C31.7952 23.7483 31.6773 23.5846 31.53 23.45C31.2225 23.1655 30.8189 23.0075 30.4 23.0075C29.9811 23.0075 29.5775 23.1655 29.27 23.45L24 28.4L18.73 23.44C18.4241 23.1533 18.0193 22.9957 17.6 23C17.1804 22.9939 16.775 23.1518 16.47 23.44C16.3213 23.5736 16.2023 23.7371 16.1209 23.9197C16.0395 24.1023 15.9974 24.3 15.9974 24.5C15.9974 24.7 16.0395 24.8977 16.1209 25.0803C16.2023 25.2629 16.3213 25.4264 16.47 25.56L21.74 30.52Z" fill="#011E41"/>
</g>
<defs>
<clipPath id="clip0_74_1277">
<rect width="48" height="48" fill="white"/>
</clipPath>
</defs>
</svg>
