<svg width="48" height="48" viewBox="0 0 48 48" fill="none" xmlns="http://www.w3.org/2000/svg">
<g clip-path="url(#clip0_74_1114)">
<path d="M4.48878 19.6041L24.0018 8.45406L43.5118 19.6041C44.2027 19.9988 45.0221 20.103 45.7898 19.8936C46.5574 19.6842 47.2105 19.1784 47.6053 18.4876C48.0001 17.7967 48.1042 16.9773 47.8948 16.2096C47.6854 15.4419 47.1797 14.7888 46.4888 14.3941L25.4898 2.39406C25.0366 2.13518 24.5237 1.99902 24.0018 1.99902C23.4799 1.99902 22.967 2.13518 22.5138 2.39406L1.51178 14.3941C0.820894 14.7888 0.315126 15.4419 0.105742 16.2096C-0.103643 16.9773 0.000508696 17.7967 0.395283 18.4876C0.790058 19.1784 1.44312 19.6842 2.2108 19.8936C2.97848 20.103 3.79789 19.9988 4.48878 19.6041V19.6041ZM38.0018 29.0251C36.2853 28.9761 34.5855 29.3738 33.0689 30.1791C31.5522 30.9844 30.2707 32.1697 29.3498 33.6191C28.7247 32.7921 27.9164 32.1213 26.9883 31.6595C26.0602 31.1977 25.0377 30.9574 24.001 30.9575C22.9644 30.9576 21.9419 31.1981 21.0139 31.6601C20.0859 32.1221 19.2777 32.793 18.6528 33.6201C17.7319 32.1704 16.4503 30.9847 14.9334 30.1792C13.4166 29.3738 11.7165 28.976 9.99978 29.0251C4.29978 29.0251 0.00178341 33.0891 0.00178341 38.4781C0.00178342 38.8759 0.159819 39.2574 0.441123 39.5387C0.722428 39.82 1.10396 39.9781 1.50178 39.9781C1.89961 39.9781 2.28114 39.82 2.56244 39.5387C2.84375 39.2574 3.00178 38.8759 3.00178 38.4781C2.99496 37.4014 3.26785 36.3413 3.79373 35.4018C4.3196 34.4622 5.08045 33.6753 6.00178 33.1181V41.9981C6.00178 43.0589 6.42321 44.0763 7.17336 44.8265C7.9235 45.5766 8.94092 45.9981 10.0018 45.9981C11.0626 45.9981 12.0801 45.5766 12.8302 44.8265C13.5804 44.0763 14.0018 43.0589 14.0018 41.9981V33.1201C14.9223 33.6775 15.6823 34.4642 16.2077 35.4034C16.733 36.3426 17.0056 37.402 16.9988 38.4781C16.9988 38.8759 17.1568 39.2574 17.4381 39.5387C17.7194 39.82 18.101 39.9781 18.4988 39.9781C18.8966 39.9781 19.2781 39.82 19.5594 39.5387C19.8407 39.2574 19.9988 38.8759 19.9988 38.4781L19.9968 38.4521L19.9988 38.4391C19.9954 37.3753 20.3489 36.3412 21.0028 35.5021V38.9991C21.0028 39.3929 21.0804 39.7829 21.2311 40.1467C21.3818 40.5106 21.6027 40.8412 21.8812 41.1197C22.1597 41.3982 22.4903 41.6191 22.8541 41.7698C23.218 41.9205 23.6079 41.9981 24.0018 41.9981C24.3956 41.9981 24.7856 41.9205 25.1495 41.7698C25.5133 41.6191 25.8439 41.3982 26.1224 41.1197C26.4009 40.8412 26.6218 40.5106 26.7725 40.1467C26.9232 39.7829 27.0008 39.3929 27.0008 38.9991V35.4991C27.6553 36.3386 28.0092 37.3735 28.0058 38.4381L28.0038 38.4771C28.0038 38.8749 28.1618 39.2564 28.4431 39.5377C28.7244 39.819 29.106 39.9771 29.5038 39.9771C29.9016 39.9771 30.2831 39.819 30.5644 39.5377C30.8457 39.2564 31.0038 38.8749 31.0038 38.4771C30.9984 37.2836 31.3345 36.1135 31.9724 35.1048C32.6102 34.0961 33.5233 33.2908 34.6038 32.7841L32.9998 39.9991C32.8661 40.7327 32.8952 41.4868 33.0851 42.2079C33.275 42.9291 33.621 43.5997 34.0987 44.1723C34.5764 44.745 35.1741 45.2056 35.8495 45.5218C36.5249 45.8379 37.2616 46.0018 38.0073 46.0018C38.753 46.0018 39.4896 45.8379 40.165 45.5218C40.8405 45.2056 41.4382 44.745 41.9159 44.1723C42.3936 43.5997 42.7396 42.9291 42.9295 42.2079C43.1194 41.4868 43.1485 40.7327 43.0148 39.9991L41.3998 32.7851C42.4802 33.2919 43.3932 34.0972 44.0311 35.1059C44.6689 36.1146 45.005 37.2846 44.9998 38.4781C44.9998 38.8759 45.1578 39.2574 45.4391 39.5387C45.7204 39.82 46.102 39.9781 46.4998 39.9781C46.8976 39.9781 47.2791 39.82 47.5604 39.5387C47.8417 39.2574 47.9998 38.8759 47.9998 38.4781C47.9998 33.0891 43.7018 29.0251 38.0018 29.0251Z" fill="#011E41"/>
<path d="M38.002 26.999C39.6588 26.999 41.002 25.6559 41.002 23.999C41.002 22.3422 39.6588 20.999 38.002 20.999C36.3451 20.999 35.002 22.3422 35.002 23.999C35.002 25.6559 36.3451 26.999 38.002 26.999Z" fill="#011E41"/>
<path d="M10.001 26.999C11.6578 26.999 13.001 25.6559 13.001 23.999C13.001 22.3422 11.6578 20.999 10.001 20.999C8.34412 20.999 7.00098 22.3422 7.00098 23.999C7.00098 25.6559 8.34412 26.999 10.001 26.999Z" fill="#011E41"/>
<path d="M21.4961 26.4943C21.4963 26.9897 21.6434 27.4739 21.9187 27.8857C22.1941 28.2975 22.5854 28.6184 23.0432 28.8079C23.5009 28.9973 24.0046 29.0468 24.4904 28.95C24.9763 28.8533 25.4225 28.6146 25.7727 28.2642C26.123 27.9139 26.3615 27.4675 26.458 26.9816C26.5546 26.4957 26.5049 25.9921 26.3153 25.5344C26.1257 25.0768 25.8046 24.6856 25.3927 24.4104C24.9808 24.1352 24.4965 23.9883 24.0011 23.9883C23.672 23.9883 23.3462 24.0531 23.0422 24.1791C22.7383 24.305 22.4621 24.4896 22.2294 24.7223C21.9968 24.955 21.8123 25.2313 21.6865 25.5354C21.5607 25.8394 21.496 26.1652 21.4961 26.4943V26.4943Z" fill="#011E41"/>
</g>
<defs>
<clipPath id="clip0_74_1114">
<rect width="48" height="48" fill="white"/>
</clipPath>
</defs>
</svg>
