<svg width="48" height="48" viewBox="0 0 48 48" fill="none" xmlns="http://www.w3.org/2000/svg">
<path fill-rule="evenodd" clip-rule="evenodd" d="M26.9243 4C27.892 4 28.7905 4.21665 29.5919 4.67461C30.2766 5.06587 31.0539 5.60468 31.6285 6.40924L31.6162 6.41809L31.6275 6.43321L33.959 9.45547L34.7801 10.5502C37.311 13.8929 37.3106 18.5471 34.7786 21.8893L31.8514 25.6681L31.7598 25.5501L26.9664 19.4906L25.7557 17.9268L28.7749 14.027C28.1762 13.7018 27.4965 13.5093 26.8339 13.5093H21.5863C20.8671 13.5093 20.1669 13.6875 19.5745 14.0266L24.9975 21.0313L29.7896 27.0891L37.2197 36.6521C37.8629 37.4799 37.7577 38.6639 36.9787 39.3654L32.9127 43.0268C32.0522 43.8018 30.7154 43.6861 30.0007 42.7749L23.4246 34.3903L13.6474 21.9878L13.6415 21.98C11.1096 18.6379 11.1091 13.9837 13.64 10.641L13.6415 10.639L14.4528 9.55709L16.7892 6.52844C16.8247 6.48089 16.861 6.43373 16.898 6.38697C18.0079 4.84975 19.8522 4 21.6767 4H26.9243ZM18.718 12.2146C19.6049 11.7394 20.6042 11.5093 21.5863 11.5093H26.8339C27.9656 11.5093 29.0764 11.8619 30.0104 12.4317C31.0691 11.0296 31.0765 9.05028 30.0326 7.64018L29.9325 7.51046L29.9472 7.49895C29.6188 7.07086 29.1507 6.726 28.5996 6.4111C28.1344 6.14525 27.5853 6 26.9243 6H21.6767C20.4338 6 19.211 6.58966 18.5095 7.57171L18.4988 7.5867L18.3837 7.73584C17.8663 8.43472 17.61 9.25167 17.61 10.0667C17.61 10.8772 17.8623 11.7461 18.3451 12.4332C18.4669 12.3553 18.5913 12.2824 18.718 12.2146Z" fill="#011E41"/>
<path d="M16.5686 29.7278L21.4566 35.9315L21.4614 35.9376L22.6218 37.4171L18.3663 42.8429C17.6927 43.7018 16.4549 43.8619 15.5849 43.2028L11.2065 39.8858C10.3166 39.2117 10.1509 37.9397 10.8383 37.0601L16.5686 29.7278Z" fill="#011E41"/>
</svg>
