<svg width="48" height="48" viewBox="0 0 48 48" fill="none" xmlns="http://www.w3.org/2000/svg">
<path d="M44 19.5V14.5C43.9968 11.5836 42.8369 8.78755 40.7747 6.72533C38.7125 4.66312 35.9164 3.50318 33 3.5H16.03C13.1097 3.49946 10.3084 4.65726 8.24062 6.71941C6.17284 8.78157 5.00741 11.5797 5 14.5V19.5H4C3.47468 19.4999 2.95447 19.6032 2.46911 19.8042C1.98375 20.0052 1.54274 20.2998 1.17128 20.6713C0.79982 21.0427 0.505187 21.4837 0.304214 21.9691C0.103242 22.4545 -0.000131255 22.9747 1.25074e-07 23.5V33.5C-0.000131255 34.0253 0.103242 34.5455 0.304214 35.0309C0.505187 35.5163 0.79982 35.9573 1.17128 36.3287C1.54274 36.7002 1.98375 36.9948 2.46911 37.1958C2.95447 37.3968 3.47468 37.5001 4 37.5V40.5C4 41.5609 4.42143 42.5783 5.17157 43.3284C5.92172 44.0786 6.93913 44.5 8 44.5C9.06087 44.5 10.0783 44.0786 10.8284 43.3284C11.5786 42.5783 12 41.5609 12 40.5V37.5H36V40.5C36 41.5609 36.4214 42.5783 37.1716 43.3284C37.9217 44.0786 38.9391 44.5 40 44.5C41.0609 44.5 42.0783 44.0786 42.8284 43.3284C43.5786 42.5783 44 41.5609 44 40.5V37.5C44.5253 37.5001 45.0455 37.3968 45.5309 37.1958C46.0162 36.9948 46.4573 36.7002 46.8287 36.3287C47.2002 35.9573 47.4948 35.5163 47.6958 35.0309C47.8968 34.5455 48.0001 34.0253 48 33.5V23.5C48.0001 22.9747 47.8968 22.4545 47.6958 21.9691C47.4948 21.4837 47.2002 21.0427 46.8287 20.6713C46.4573 20.2998 46.0162 20.0052 45.5309 19.8042C45.0455 19.6032 44.5253 19.4999 44 19.5V19.5ZM11 14.5C11.0056 13.1704 11.5382 11.8973 12.4812 10.96C13.4242 10.0227 14.7004 9.49761 16.03 9.5H33C34.3256 9.50159 35.5964 10.0289 36.5338 10.9662C37.4711 11.9036 37.9984 13.1744 38 14.5V19.5H11V14.5ZM9 31.5C8.40666 31.5 7.82664 31.3241 7.33329 30.9944C6.83994 30.6648 6.45542 30.1962 6.22836 29.6481C6.0013 29.0999 5.94189 28.4967 6.05764 27.9147C6.1734 27.3328 6.45912 26.7982 6.87868 26.3787C7.29824 25.9591 7.83279 25.6734 8.41473 25.5576C8.99667 25.4419 9.59987 25.5013 10.1481 25.7284C10.6962 25.9554 11.1648 26.3399 11.4944 26.8333C11.8241 27.3266 12 27.9067 12 28.5C12.0005 28.8941 11.9233 29.2845 11.7727 29.6487C11.6221 30.0129 11.4012 30.3438 11.1225 30.6225C10.8438 30.9012 10.5129 31.1221 10.1487 31.2727C9.78446 31.4233 9.39411 31.5005 9 31.5V31.5ZM39 25.5C39.5933 25.5 40.1734 25.6759 40.6667 26.0056C41.1601 26.3352 41.5446 26.8038 41.7716 27.3519C41.9987 27.9001 42.0581 28.5033 41.9424 29.0853C41.8266 29.6672 41.5409 30.2018 41.1213 30.6213C40.7018 31.0409 40.1672 31.3266 39.5853 31.4424C39.0033 31.5581 38.4001 31.4987 37.852 31.2716C37.3038 31.0446 36.8352 30.6601 36.5056 30.1667C36.1759 29.6734 36 29.0933 36 28.5C35.9995 28.1059 36.0767 27.7155 36.2273 27.3513C36.3779 26.9871 36.5988 26.6562 36.8775 26.3775C37.1562 26.0988 37.4871 25.8779 37.8513 25.7273C38.2155 25.5767 38.6059 25.4995 39 25.5Z" fill="#011E41"/>
</svg>
