<svg width="48" height="48" viewBox="0 0 48 48" fill="none" xmlns="http://www.w3.org/2000/svg">
<path d="M24.0084 14.004C24.5386 14.004 25.0472 13.7934 25.4221 13.4184C25.7971 13.0435 26.0077 12.5349 26.0077 12.0047V2.00811C26.0077 1.47785 25.7971 0.96932 25.4221 0.594375C25.0472 0.219431 24.5386 0.00878906 24.0084 0.00878906C23.4781 0.00878906 22.9696 0.219431 22.5946 0.594375C22.2197 0.96932 22.0091 1.47785 22.0091 2.00811V12.0047C22.0091 12.5349 22.2197 13.0435 22.5946 13.4184C22.9696 13.7934 23.4781 14.004 24.0084 14.004ZM47.5053 5.68985C47.1561 5.29086 46.6628 5.04692 46.1337 5.01167C45.6047 4.97643 45.0833 5.15277 44.6843 5.50191L36.687 12.4995C36.2947 12.8505 36.0567 13.3421 36.0246 13.8676C35.9925 14.393 36.1689 14.91 36.5156 15.3061C36.8623 15.7023 37.3512 15.9457 37.8763 15.9836C38.4014 16.0215 38.9202 15.8508 39.3201 15.5085L47.3174 8.51088C47.7164 8.16169 47.9603 7.66832 47.9956 7.13928C48.0308 6.61025 47.8545 6.08887 47.5053 5.68985V5.68985ZM10.0132 16.0033C10.4199 16.0033 10.8169 15.8792 11.1513 15.6476C11.4857 15.416 11.7415 15.088 11.8845 14.7072C12.0276 14.3265 12.0511 13.9112 11.952 13.5167C11.8529 13.1222 11.6358 12.7674 11.3297 12.4995L3.33245 5.50191C3.1354 5.3256 2.90534 5.19013 2.65558 5.10334C2.40582 5.01655 2.14133 4.98016 1.87741 4.99629C1.6135 5.01241 1.3554 5.08072 1.11806 5.19726C0.880726 5.31381 0.668863 5.47627 0.494739 5.67525C0.320616 5.87423 0.18769 6.10577 0.103658 6.35647C0.0196255 6.60717 -0.0138447 6.87205 0.00518481 7.13577C0.0242144 7.3995 0.0953657 7.65683 0.21452 7.89286C0.333674 8.1289 0.498464 8.33896 0.699351 8.51088L8.69661 15.5085C9.06055 15.8276 9.52813 16.0035 10.0122 16.0033H10.0132ZM40.0029 29.9985H38.0036V25.5001C38.0036 23.2465 37.1084 21.0852 35.5148 19.4917C33.9213 17.8982 31.7601 17.003 29.5065 17.003H18.5103C16.2567 17.003 14.0954 17.8982 12.5019 19.4917C10.9084 21.0852 10.0132 23.2465 10.0132 25.5001V29.9985H8.01385C7.48408 30.0001 6.97647 30.2113 6.60187 30.5859C6.22726 30.9605 6.01611 31.4681 6.01453 31.9978V40.9948C6.01611 41.5245 6.22726 42.0321 6.60187 42.4068C6.97647 42.7814 7.48408 42.9925 8.01385 42.9941H10.0132V44.8624C9.99981 45.5712 10.2305 46.2631 10.6666 46.822C11.1027 47.3809 11.7176 47.7729 12.4083 47.9324C12.8442 48.0205 13.2942 48.0108 13.7259 47.9041C14.1577 47.7974 14.5603 47.5962 14.9049 47.3151C15.2495 47.034 15.5274 46.6799 15.7187 46.2785C15.91 45.877 16.0099 45.4381 16.0111 44.9934V42.9941H32.0056V44.8624C31.9923 45.5712 32.223 46.2631 32.6591 46.822C33.0951 47.3809 33.7101 47.7729 34.4008 47.9324C34.8367 48.0205 35.2867 48.0108 35.7184 47.9041C36.1501 47.7974 36.5528 47.5962 36.8974 47.3151C37.242 47.034 37.5199 46.6799 37.7112 46.2785C37.9025 45.877 38.0024 45.4381 38.0036 44.9934V42.9941H40.0029C40.5327 42.9925 41.0403 42.7814 41.4149 42.4068C41.7895 42.0321 42.0006 41.5245 42.0022 40.9948V31.9978C42.0006 31.4681 41.7895 30.9605 41.4149 30.5859C41.0403 30.2113 40.5327 30.0001 40.0029 29.9985V29.9985ZM15.0115 25.5001C15.0125 24.5725 15.3815 23.6831 16.0374 23.0272C16.6933 22.3713 17.5826 22.0023 18.5103 22.0013H29.5065C30.4341 22.0023 31.3234 22.3713 31.9794 23.0272C32.6353 23.6831 33.0042 24.5725 33.0053 25.5001V29.9985H15.0115V25.5001ZM13.512 38.9955C13.0177 38.9955 12.5345 38.8489 12.1235 38.5743C11.7125 38.2997 11.3922 37.9093 11.2031 37.4527C11.0139 36.996 10.9644 36.4935 11.0608 36.0088C11.1573 35.524 11.3953 35.0787 11.7448 34.7291C12.0943 34.3796 12.5396 34.1416 13.0244 34.0452C13.5092 33.9488 14.0117 33.9982 14.4683 34.1874C14.925 34.3766 15.3153 34.6969 15.5899 35.1079C15.8645 35.5188 16.0111 36.002 16.0111 36.4963C16.0108 37.159 15.7475 37.7946 15.2788 38.2632C14.8102 38.7318 14.1747 38.9952 13.512 38.9955ZM34.5048 33.9972C34.9991 33.9972 35.4823 34.1437 35.8932 34.4183C36.3042 34.693 36.6245 35.0833 36.8137 35.5399C37.0028 35.9966 37.0523 36.4991 36.9559 36.9839C36.8595 37.4687 36.6215 37.914 36.2719 38.2635C35.9224 38.613 35.4771 38.851 34.9923 38.9474C34.5076 39.0439 34.0051 38.9944 33.5484 38.8052C33.0917 38.6161 32.7014 38.2957 32.4268 37.8848C32.1522 37.4738 32.0056 36.9906 32.0056 36.4963C32.0059 35.8336 32.2693 35.1981 32.7379 34.7294C33.2065 34.2608 33.8421 33.9974 34.5048 33.9972Z" fill="#011E41"/>
</svg>
