<svg width="48" height="48" viewBox="0 0 48 48" fill="none" xmlns="http://www.w3.org/2000/svg">
<path d="M19 38V39C19 39.6 18.6 40 18 40H16C15.4 40 15 39.6 15 39V38C15 37.4 15.4 37 16 37H18C18.6 37 19 37.4 19 38ZM18 29H16C15.4 29 15 29.4 15 30V31C15 31.6 15.4 32 16 32H18C18.6 32 19 31.6 19 31V30C19 29.4 18.6 29 18 29ZM24 18C25.1 18 26 17.1 26 16C26 14.9 25.1 14 24 14C22.9 14 22 14.9 22 16C22 17.1 22.9 18 24 18ZM31.5 37H23.5C22.7 37 22 37.7 22 38.5C22 39.3 22.7 40 23.5 40H31.5C32.3 40 33 39.3 33 38.5C33 37.7 32.3 37 31.5 37ZM28 23.4C28 21.5 26.5 20 24.6 20H23.4C21.5 20 20 21.5 20 23.4V25H28V23.4ZM40 8.1V45.8C40 46.9 39.1 47.9 38 48H10C8.9 48 8 47 8 45.8V8.1C8 7 8.9 6 10 6H15C15 4.9 15.9 4 17 4H20C20 1.8 21.8 0 24 0C26.2 0 28 1.8 28 4H31C32.1 4 33 4.9 33 6H38C39.1 6 40 7 40 8.1ZM23 5C23 5.6 23.4 6 24 6C24.6 6 25 5.6 25 5C25 4.4 24.6 4 24 4C23.4 4 23 4.4 23 5ZM36 10H33C33 11.1 32.1 12 31 12H17C15.9 12 15 11.1 15 10H12V44H36V10ZM31.5 29H23.5C22.7 29 22 29.7 22 30.5C22 31.3 22.7 32 23.5 32H31.5C32.3 32 33 31.3 33 30.5C33 29.7 32.3 29 31.5 29Z" fill="#011E41"/>
</svg>
