<svg width="48" height="48" viewBox="0 0 48 48" fill="none" xmlns="http://www.w3.org/2000/svg">
<path d="M46.0295 13.9813H1.97053C1.84297 13.9806 1.71654 14.0052 1.59856 14.0538C1.48057 14.1023 1.37338 14.1737 1.28318 14.2639C1.19297 14.3541 1.12155 14.4613 1.07304 14.5793C1.02453 14.6973 0.999893 14.8237 1.00056 14.9512V33.0108C0.999893 33.1384 1.02453 33.2648 1.07304 33.3828C1.12155 33.5008 1.19297 33.608 1.28318 33.6982C1.37338 33.7884 1.48057 33.8598 1.59856 33.9083C1.71654 33.9568 1.84297 33.9815 1.97053 33.9808H46.0295C46.1571 33.9815 46.2835 33.9568 46.4015 33.9083C46.5195 33.8598 46.6267 33.7884 46.7169 33.6982C46.8071 33.608 46.8785 33.5008 46.927 33.3828C46.9755 33.2648 47.0002 33.1384 46.9995 33.0108V14.9512C47.0002 14.8237 46.9755 14.6973 46.927 14.5793C46.8785 14.4613 46.8071 14.3541 46.7169 14.2639C46.6267 14.1737 46.5195 14.1023 46.4015 14.0538C46.2835 14.0052 46.1571 13.9806 46.0295 13.9813V13.9813ZM8.0004 26.981C7.40707 26.981 6.82706 26.805 6.33372 26.4754C5.84039 26.1458 5.45588 25.6772 5.22882 25.1291C5.00176 24.5809 4.94236 23.9777 5.05811 23.3958C5.17386 22.8139 5.45958 22.2793 5.87913 21.8598C6.29867 21.4402 6.83321 21.1545 7.41514 21.0388C7.99707 20.923 8.60026 20.9824 9.14842 21.2095C9.69659 21.4365 10.1651 21.821 10.4948 22.3144C10.8244 22.8077 11.0003 23.3877 11.0003 23.981C11.0009 24.3751 10.9236 24.7655 10.773 25.1297C10.6225 25.4939 10.4015 25.8248 10.1228 26.1035C9.84417 26.3822 9.51325 26.6031 9.14905 26.7537C8.78484 26.9043 8.3945 26.9815 8.0004 26.981V26.981ZM24 30.9809C22.6156 30.9809 21.2623 30.5704 20.1111 29.8012C18.96 29.032 18.0628 27.9388 17.533 26.6598C17.0032 25.3807 16.8646 23.9733 17.1347 22.6154C17.4048 21.2576 18.0715 20.0104 19.0504 19.0314C20.0293 18.0525 21.2766 17.3858 22.6344 17.1157C23.9923 16.8456 25.3997 16.9842 26.6788 17.514C27.9578 18.0438 29.051 18.941 29.8202 20.0921C30.5893 21.2433 30.9999 22.5966 30.9999 23.981C31.0005 24.9005 30.8199 25.811 30.4684 26.6605C30.1168 27.5101 29.6013 28.282 28.9511 28.9321C28.301 29.5823 27.5291 30.0979 26.6795 30.4494C25.83 30.8009 24.9195 30.9815 24 30.9809ZM39.9997 26.981C39.4063 26.981 38.8263 26.805 38.333 26.4754C37.8397 26.1458 37.4552 25.6772 37.2281 25.1291C37.001 24.5809 36.9416 23.9777 37.0574 23.3958C37.1731 22.8139 37.4589 22.2793 37.8784 21.8598C38.298 21.4402 38.8325 21.1545 39.4144 21.0388C39.9964 20.923 40.5995 20.9824 41.1477 21.2095C41.6959 21.4365 42.1644 21.821 42.494 22.3144C42.8237 22.8077 42.9996 23.3877 42.9996 23.981C43.0001 24.3751 42.9229 24.7655 42.7723 25.1297C42.6218 25.4939 42.4008 25.8248 42.1221 26.1035C41.8434 26.3822 41.5125 26.6031 41.1483 26.7537C40.7841 26.9043 40.3938 26.9815 39.9997 26.981ZM44.4996 41.0257H5.12146L6.51643 39.6307C6.66205 39.4929 6.77857 39.3273 6.8591 39.1437C6.93963 38.9601 6.98253 38.7622 6.98527 38.5617C6.98801 38.3612 6.95053 38.1623 6.87505 37.9765C6.79958 37.7908 6.68763 37.6221 6.54583 37.4803C6.40403 37.3386 6.23525 37.2267 6.04948 37.1513C5.8637 37.0759 5.6647 37.0386 5.46423 37.0414C5.26376 37.0442 5.0659 37.0872 4.88233 37.1678C4.69876 37.2485 4.53321 37.365 4.39548 37.5107L0.439568 41.4637C0.300014 41.604 0.189567 41.7705 0.114575 41.9536L0.106575 41.9776C-0.0355251 42.3285 -0.0355251 42.7208 0.106575 43.0716L0.114575 43.0946C0.18959 43.2777 0.300034 43.4443 0.439568 43.5846L4.39548 47.5405C4.6785 47.8136 5.05747 47.9646 5.45076 47.961C5.84404 47.9574 6.22018 47.7995 6.49816 47.5213C6.77613 47.243 6.93371 46.8667 6.93694 46.4734C6.94017 46.0802 6.7888 45.7013 6.51543 45.4186L5.12146 44.0246H44.4996C44.8974 44.0246 45.2789 43.8666 45.5602 43.5853C45.8415 43.304 45.9995 42.9224 45.9995 42.5246C45.9995 42.1268 45.8415 41.7453 45.5602 41.464C45.2789 41.1827 44.8974 41.0247 44.4996 41.0247V41.0257ZM47.8935 4.88947L47.8855 4.86647C47.8105 4.68333 47.7001 4.51681 47.5605 4.37648L43.6046 0.420574C43.3216 0.147473 42.9426 -0.00353876 42.5493 6.29784e-05C42.156 0.00366471 41.7799 0.161592 41.5019 0.43983C41.2239 0.718068 41.0664 1.09435 41.0631 1.48764C41.0599 1.88093 41.2113 2.25976 41.4846 2.54253L42.8786 3.93649H3.5005C3.10268 3.93649 2.72116 4.09453 2.43986 4.37582C2.15856 4.65712 2.00053 5.03864 2.00053 5.43646C2.00053 5.83428 2.15856 6.2158 2.43986 6.4971C2.72116 6.7784 3.10268 6.93643 3.5005 6.93643H42.8786L41.4836 8.3314C41.2153 8.61522 41.0683 8.99253 41.0738 9.38308C41.0793 9.77364 41.237 10.1466 41.5132 10.4228C41.7895 10.6989 42.1625 10.8564 42.5531 10.8617C42.9437 10.867 43.3209 10.7198 43.6046 10.4513L47.5605 6.49744C47.7001 6.35713 47.8105 6.19061 47.8855 6.00745L47.8935 5.98345C48.0355 5.63261 48.0355 5.24031 47.8935 4.88947V4.88947Z" fill="#011E41"/>
</svg>
