<svg width="48" height="48" viewBox="0 0 48 48" fill="none" xmlns="http://www.w3.org/2000/svg">
<g clip-path="url(#clip0_74_1464)">
<path d="M37.9923 44.0032H33.5436L26.3642 17.2119C27.0437 16.7134 27.5483 16.013 27.806 15.2106C28.0636 14.4083 28.0611 13.545 27.7989 12.7442C27.5366 11.9433 27.028 11.2458 26.3457 10.7512C25.6633 10.2567 24.8422 9.99037 23.9995 9.99037C23.1567 9.99037 22.3356 10.2567 21.6532 10.7512C20.9709 11.2458 20.4623 11.9433 20.2 12.7442C19.9378 13.545 19.9353 14.4083 20.1929 15.2106C20.4506 16.013 20.9552 16.7134 21.6347 17.2119L14.4543 44.0022H10.0066C9.47645 44.0022 8.968 44.2128 8.59312 44.5877C8.21824 44.9626 8.00763 45.471 8.00763 46.0012C8.00763 46.5313 8.21824 47.0398 8.59312 47.4147C8.968 47.7895 9.47645 48.0001 10.0066 48.0001H37.9923C38.5225 48.0001 39.0309 47.7895 39.4058 47.4147C39.7807 47.0398 39.9913 46.5313 39.9913 46.0012C39.9913 45.471 39.7807 44.9626 39.4058 44.5877C39.0309 44.2128 38.5225 44.0022 37.9923 44.0022V44.0032ZM21.3108 30.0103H26.6881L28.2953 36.0073H19.7036L21.3108 30.0103ZM22.1134 27.0119L23.9995 19.9725L25.8855 27.0119H22.1134ZM18.9001 39.0057H29.0988L30.4382 44.0032H17.5607L18.9001 39.0057ZM3.01019 13.5718C3.03613 9.4647 4.67432 5.53218 7.57185 2.62136C7.71252 2.47787 7.82343 2.30799 7.8982 2.12148C7.97297 1.93497 8.01012 1.73552 8.00752 1.53459C8.00492 1.33367 7.96261 1.13525 7.88304 0.950736C7.80347 0.766224 7.6882 0.599267 7.54387 0.459468C7.25177 0.176293 6.85944 0.0202745 6.45265 0.0255187C6.04585 0.0307628 5.65768 0.196843 5.37298 0.487454C1.93499 3.97429 0.00886913 8.67505 0.0117219 13.5718C0.0504538 18.4238 1.96859 23.0719 5.36298 26.5391C5.64344 26.8334 6.02929 27.0041 6.43567 27.0139C6.84204 27.0236 7.23564 26.8716 7.52988 26.5911C7.82412 26.3106 7.99489 25.9248 8.00464 25.5184C8.01439 25.112 7.8623 24.7184 7.58185 24.4242C4.71494 21.532 3.07692 17.6436 3.01019 13.5718V13.5718ZM12.2225 19.4917C12.3548 19.6451 12.5167 19.7703 12.6985 19.8597C12.8802 19.9491 13.0782 20.0009 13.2804 20.0121C13.4827 20.0233 13.6852 19.9936 13.8757 19.9248C14.0662 19.856 14.2409 19.7495 14.3894 19.6117C14.693 19.3281 14.8749 18.9378 14.8967 18.5228C14.9185 18.1079 14.7786 17.7007 14.5063 17.3868C13.5633 16.3387 13.0302 14.9854 13.0051 13.5758C13.029 12.1237 13.5935 10.7328 14.5883 9.67475C14.8671 9.36698 15.0158 8.96304 15.0029 8.54791C14.9901 8.13277 14.8167 7.73881 14.5193 7.44889C14.3743 7.3073 14.2021 7.19648 14.0132 7.12308C13.8243 7.04967 13.6225 7.01521 13.4199 7.02174C13.2174 7.02827 13.0182 7.07568 12.8344 7.1611C12.6506 7.24653 12.486 7.36822 12.3504 7.51886C10.8641 9.15158 10.0299 11.2737 10.0063 13.4814C9.98268 15.6892 10.7714 17.8286 12.2225 19.4927V19.4917Z" fill="#011E41"/>
<path d="M8.45674 22.55C8.58148 22.6899 8.73334 22.803 8.9031 22.8824C9.07286 22.9618 9.25699 23.0058 9.4443 23.0119C9.63162 23.018 9.81821 22.9859 9.99276 22.9177C10.1673 22.8495 10.3262 22.7465 10.4597 22.615C10.7341 22.3434 10.8935 21.9768 10.905 21.5909C10.9166 21.205 10.7793 20.8295 10.5217 20.542C8.83846 18.6153 7.94119 16.1262 8.00797 13.5686C7.94058 10.9682 8.87155 8.44064 10.6096 6.50522C10.8711 6.22096 11.0131 5.84699 11.0062 5.46085C10.9993 5.07472 10.8441 4.70605 10.5727 4.43128C10.4409 4.29804 10.2835 4.19298 10.1099 4.12247C9.93627 4.05196 9.75015 4.01748 9.56281 4.02113C9.37548 4.02477 9.19084 4.06647 9.02011 4.14368C8.84939 4.22089 8.69614 4.332 8.56969 4.47026C6.30046 6.92722 5.03092 10.1433 5.01003 13.4878C4.98913 16.8322 6.21839 20.0639 8.45674 22.549V22.55ZM42.6473 0.487302C42.5084 0.338155 42.3412 0.218257 42.1554 0.134652C41.9695 0.0510468 41.7689 0.00542078 41.5652 0.000454336C41.3615 -0.00451211 41.1588 0.0312811 40.9692 0.105731C40.7795 0.180181 40.6066 0.291787 40.4607 0.433992C40.3147 0.576196 40.1987 0.746131 40.1194 0.933815C40.04 1.1215 39.999 1.32314 39.9987 1.5269C39.9984 1.73067 40.0388 1.93244 40.1176 2.12036C40.1963 2.30828 40.3119 2.47857 40.4574 2.62121C43.3421 5.53809 44.969 9.46924 44.9891 13.5716C44.9164 17.6426 43.2785 21.5291 40.4154 24.4241C40.2765 24.5692 40.1676 24.7402 40.0948 24.9274C40.0221 25.1146 39.9869 25.3143 39.9913 25.5151C39.9957 25.7159 40.0396 25.9138 40.1205 26.0977C40.2014 26.2815 40.3178 26.4476 40.4629 26.5864C40.608 26.7253 40.779 26.8342 40.9662 26.907C41.1534 26.9798 41.3531 27.015 41.5539 27.0106C41.7547 27.0061 41.9527 26.9622 42.1365 26.8813C42.3203 26.8004 42.4864 26.6841 42.6253 26.539C46.0175 23.0694 47.9386 18.4237 47.9875 13.5716C47.9915 8.67904 46.0737 3.98063 42.6473 0.488302V0.487302ZM34.9942 13.5756C34.945 14.9982 34.3773 16.3537 33.398 17.3867C33.1234 17.6981 32.9829 18.1055 33.0071 18.52C33.0312 18.9346 33.2181 19.3228 33.5271 19.6003C33.836 19.8777 34.242 20.022 34.6568 20.0016C35.0715 19.9813 35.4615 19.798 35.7418 19.4916C37.1977 17.8657 37.9996 15.7581 37.9926 13.5756C38.0414 11.3392 37.2267 9.17002 35.7178 7.51871C35.4319 7.21426 35.0368 7.03585 34.6194 7.02273C34.2019 7.00961 33.7964 7.16285 33.4919 7.44874C33.1875 7.73463 33.0091 8.12975 32.996 8.54718C32.9828 8.96461 33.1361 9.37016 33.422 9.6746C34.4239 10.7271 34.9862 12.1225 34.9942 13.5756Z" fill="#011E41"/>
<path d="M39.9911 13.5687C40.0549 16.1414 39.1233 18.6395 37.3904 20.5422C37.2532 20.6815 37.1453 20.8469 37.0729 21.0286C37.0005 21.2103 36.9652 21.4046 36.969 21.6001C36.9728 21.7956 37.0157 21.9884 37.095 22.1671C37.1744 22.3458 37.2887 22.5069 37.4312 22.6408C37.5737 22.7747 37.7416 22.8788 37.9249 22.9469C38.1082 23.015 38.3033 23.0458 38.4987 23.0375C38.694 23.0291 38.8858 22.9818 39.0626 22.8983C39.2394 22.8148 39.3978 22.6967 39.5283 22.5512C41.7911 20.1115 43.0301 16.8959 42.9896 13.5687C43.0693 10.1977 41.8216 6.93033 39.5154 4.4704C39.3817 4.33173 39.2221 4.22073 39.0456 4.14375C38.8691 4.06677 38.6791 4.02531 38.4866 4.02174C38.2941 4.01816 38.1027 4.05255 37.9235 4.12293C37.7442 4.19331 37.5806 4.2983 37.4419 4.43192C37.3032 4.56554 37.1923 4.72516 37.1153 4.90167C37.0383 5.07819 36.9968 5.26813 36.9933 5.46067C36.9897 5.65321 37.0241 5.84456 37.0944 6.02381C37.1648 6.20306 37.2698 6.36669 37.4034 6.50536C39.1634 8.42703 40.0934 10.9659 39.9911 13.5697V13.5687Z" fill="#011E41"/>
</g>
<defs>
<clipPath id="clip0_74_1464">
<rect width="48" height="48" fill="white"/>
</clipPath>
</defs>
</svg>
