<svg width="48" height="48" viewBox="0 0 48 48" fill="none" xmlns="http://www.w3.org/2000/svg">
<path d="M2.012 24H9.988C10.2522 24 10.5139 24.052 10.758 24.1532C11.0021 24.2543 11.2239 24.4025 11.4107 24.5893C11.5975 24.7761 11.7457 24.9979 11.8468 25.242C11.948 25.4861 12 25.7478 12 26.012V43.988C12 44.2522 11.948 44.5139 11.8468 44.758C11.7457 45.0021 11.5975 45.2239 11.4107 45.4107C11.2239 45.5975 11.0021 45.7457 10.758 45.8468C10.5139 45.948 10.2522 46 9.988 46H2.012C1.47838 46 0.966624 45.788 0.589301 45.4107C0.211978 45.0334 0 44.5216 0 43.988L0 26.012C0 25.7478 0.0520419 25.4861 0.153154 25.242C0.254267 24.9979 0.40247 24.7761 0.589301 24.5893C0.776133 24.4025 0.997934 24.2543 1.24204 24.1532C1.48615 24.052 1.74778 24 2.012 24V24ZM20.115 13H27.988C28.2522 13 28.5139 13.052 28.758 13.1532C29.0021 13.2543 29.2239 13.4025 29.4107 13.5893C29.5975 13.7761 29.7457 13.9979 29.8468 14.242C29.948 14.4861 30 14.7478 30 15.012V43.988C30 44.5216 29.788 45.0334 29.4107 45.4107C29.0334 45.788 28.5216 46 27.988 46H20.115C19.5816 45.9997 19.0701 45.7876 18.6929 45.4103C18.3158 45.0331 18.104 44.5214 18.104 43.988V15.012C18.104 14.4786 18.3158 13.9669 18.6929 13.5897C19.0701 13.2124 19.5816 13.0003 20.115 13V13ZM38.012 2H45.988C46.2522 2 46.5139 2.05204 46.758 2.15315C47.0021 2.25427 47.2239 2.40247 47.4107 2.5893C47.5975 2.77613 47.7457 2.99793 47.8468 3.24204C47.948 3.48615 48 3.74778 48 4.012V43.988C48 44.2522 47.948 44.5139 47.8468 44.758C47.7457 45.0021 47.5975 45.2239 47.4107 45.4107C47.2239 45.5975 47.0021 45.7457 46.758 45.8468C46.5139 45.948 46.2522 46 45.988 46H38.012C37.4784 46 36.9666 45.788 36.5893 45.4107C36.212 45.0334 36 44.5216 36 43.988V4.012C36 3.47838 36.212 2.96662 36.5893 2.5893C36.9666 2.21198 37.4784 2 38.012 2V2Z" fill="#011E41"/>
</svg>
