<svg width="48" height="48" viewBox="0 0 48 48" fill="none" xmlns="http://www.w3.org/2000/svg">
<path d="M41 3.99512H27C25.1435 3.99512 23.363 4.73261 22.0503 6.04537C20.7375 7.35812 20 9.1386 20 10.9951V13.9951C22.3861 13.9978 24.6738 14.9468 26.361 16.6341C28.0483 18.3213 28.9974 20.609 29 22.9951V27.9951H35L39.805 32.8001C39.9029 32.898 40.0276 32.9647 40.1634 32.9917C40.2992 33.0187 40.44 33.0049 40.5679 32.9519C40.6958 32.8989 40.8051 32.8092 40.882 32.694C40.959 32.5789 41 32.4436 41 32.3051V27.9951C42.8565 27.9951 44.637 27.2576 45.9497 25.9449C47.2625 24.6321 48 22.8516 48 20.9951V10.9951C48 9.1386 47.2625 7.35812 45.9497 6.04537C44.637 4.73261 42.8565 3.99512 41 3.99512Z" fill="#011E41"/>
<path d="M20 38.9951H12L7.195 43.8001C7.0971 43.898 6.97237 43.9647 6.83658 43.9917C6.70078 44.0187 6.56003 44.0049 6.43211 43.9519C6.3042 43.8989 6.19487 43.8092 6.11796 43.694C6.04104 43.5789 5.99999 43.4436 6 43.3051V38.9951C4.4087 38.9951 2.88258 38.363 1.75736 37.2378C0.632141 36.1125 0 34.5864 0 32.9951L0 22.9951C0 21.4038 0.632141 19.8777 1.75736 18.7525C2.88258 17.6273 4.4087 16.9951 6 16.9951H20C21.5913 16.9951 23.1174 17.6273 24.2426 18.7525C25.3679 19.8777 26 21.4038 26 22.9951V32.9951C26 34.5864 25.3679 36.1125 24.2426 37.2378C23.1174 38.363 21.5913 38.9951 20 38.9951Z" fill="#011E41"/>
</svg>
