<svg width="48" height="48" viewBox="0 0 48 48" fill="none" xmlns="http://www.w3.org/2000/svg">
<g clip-path="url(#clip0_74_1544)">
<path d="M47 19H22.364C21.6842 21.0827 20.4896 22.96 18.891 24.458L29 31.198L43.168 21.752C43.499 21.5365 43.9017 21.4603 44.2885 21.5399C44.6754 21.6195 45.0153 21.8485 45.2344 22.1771C45.4534 22.5057 45.5341 22.9075 45.4587 23.2952C45.3834 23.683 45.1582 24.0253 44.832 24.248L29 34.803L16.32 26.35C14.3896 27.4327 12.2133 28.0008 10 28V42C10 42.2652 10.1054 42.5196 10.2929 42.7071C10.4804 42.8946 10.7348 43 11 43H47C47.2652 43 47.5196 42.8946 47.7071 42.7071C47.8946 42.5196 48 42.2652 48 42V20C48 19.7348 47.8946 19.4804 47.7071 19.2929C47.5196 19.1054 47.2652 19 47 19ZM20.06 35.06L16.06 39.06C15.7757 39.325 15.3996 39.4692 15.011 39.4623C14.6224 39.4555 14.2516 39.2981 13.9768 39.0232C13.7019 38.7484 13.5445 38.3776 13.5377 37.989C13.5308 37.6004 13.675 37.2244 13.94 36.94L17.94 32.94C18.2244 32.675 18.6004 32.5308 18.989 32.5376C19.3777 32.5445 19.7484 32.7019 20.0232 32.9768C20.2981 33.2516 20.4555 33.6224 20.4624 34.011C20.4692 34.3996 20.325 34.7756 20.06 35.06V35.06ZM44.06 39.06C43.7788 39.3409 43.3975 39.4987 43 39.4987C42.6025 39.4987 42.2213 39.3409 41.94 39.06L37.94 35.06C37.675 34.7756 37.5308 34.3996 37.5377 34.011C37.5445 33.6224 37.7019 33.2516 37.9768 32.9768C38.2516 32.7019 38.6224 32.5445 39.011 32.5376C39.3996 32.5308 39.7757 32.675 40.06 32.94L44.06 36.94C44.3409 37.2213 44.4987 37.6025 44.4987 38C44.4987 38.3975 44.3409 38.7788 44.06 39.06V39.06ZM10 5C8.02219 5 6.08879 5.58649 4.4443 6.6853C2.79981 7.78412 1.51809 9.3459 0.761209 11.1732C0.00433284 13.0004 -0.193701 15.0111 0.192152 16.9509C0.578004 18.8907 1.53041 20.6725 2.92894 22.0711C4.32746 23.4696 6.10929 24.422 8.0491 24.8079C9.98891 25.1937 11.9996 24.9957 13.8268 24.2388C15.6541 23.4819 17.2159 22.2002 18.3147 20.5557C19.4135 18.9112 20 16.9778 20 15C19.9989 12.3482 18.945 9.80524 17.0699 7.9301C15.1948 6.05497 12.6518 5.00106 10 5V5ZM15.65 12.76L8.65 18.76C8.46855 18.9144 8.23824 18.9994 8 19C7.73471 18.999 7.48017 18.895 7.29 18.71L4.29 15.71C4.19677 15.6168 4.12281 15.5061 4.07234 15.3842C4.02188 15.2624 3.99591 15.1319 3.99591 15C3.99591 14.7337 4.1017 14.4783 4.29 14.29C4.47831 14.1017 4.7337 13.9959 5 13.9959C5.26631 13.9959 5.5217 14.1017 5.71 14.29L8.05 16.64L14.35 11.24C14.5516 11.0676 14.8134 10.9824 15.0778 11.003C15.2087 11.0132 15.3364 11.0491 15.4534 11.1086C15.5705 11.1682 15.6746 11.2502 15.76 11.35C15.8454 11.4498 15.9102 11.5654 15.9509 11.6903C15.9916 11.8152 16.0072 11.9469 15.997 12.0778C15.9868 12.2087 15.9509 12.3363 15.8914 12.4534C15.8318 12.5705 15.7498 12.6746 15.65 12.76V12.76Z" fill="#011E41"/>
</g>
<defs>
<clipPath id="clip0_74_1544">
<rect width="48" height="48" fill="white"/>
</clipPath>
</defs>
</svg>
