<svg width="48" height="48" viewBox="0 0 48 48" fill="none" xmlns="http://www.w3.org/2000/svg">
<path d="M39.3891 17.6118L38.6592 18.3418L34.7294 22.2715L22.0004 35.0006H38.9991V24.5713C39.9454 25.4606 40.6998 26.5341 41.2156 27.7259C41.7315 28.9176 41.9981 30.2022 41.9989 31.5008V42.0001C41.9989 42.7957 42.315 43.5587 42.8775 44.1212C43.4401 44.6838 44.2031 44.9999 44.9987 44.9999C45.7943 44.9999 46.5573 44.6838 47.1199 44.1212C47.6824 43.5587 47.9985 42.7957 47.9985 42.0001V31.5008C47.9973 28.6141 47.191 25.7849 45.6701 23.3313C44.1491 20.8777 41.974 18.897 39.3891 17.6118ZM21.0004 30.3409L29.3398 22.0015L29.3698 21.9715L31.9696 19.3717L35.1094 16.2319C34.2479 16.0793 33.3746 16.0023 32.4996 16.002H3.00174C2.20614 16.002 1.44314 16.318 0.880569 16.8806C0.318001 17.4431 0.00195313 18.2061 0.00195312 19.0017C0.00195313 19.7973 0.318001 20.5603 0.880569 21.1229C1.44314 21.6855 2.20614 22.0015 3.00174 22.0015H21.0004V30.3409Z" fill="#011E41"/>
<path d="M21 39.0007H38.9987V48H21V39.0007ZM29.4994 13.9825C30.4786 13.982 31.4451 13.7604 32.3267 13.3342C33.2082 12.908 33.9822 12.2881 34.5907 11.521C35.1993 10.7538 35.6267 9.85911 35.8411 8.90365C36.0555 7.9482 36.0513 6.95666 35.8289 6.00304H23.1598C22.9372 6.95748 22.9333 7.9499 23.1482 8.9061C23.3632 9.86229 23.7915 10.7575 24.4011 11.5249C25.0108 12.2922 25.786 12.9119 26.6689 13.3374C27.5517 13.763 28.5193 13.9835 29.4994 13.9825V13.9825ZM24.4438 4.00318H34.555C34.9303 4.01042 35.2931 3.86844 35.5639 3.60841C35.8346 3.34838 35.991 2.99156 35.9989 2.61628V1.39137C35.9944 1.19194 35.948 0.995703 35.8627 0.815361C35.7774 0.63502 35.6553 0.474603 35.504 0.344506C35.3528 0.214409 35.176 0.117536 34.9849 0.060164C34.7939 0.0027922 34.5929 -0.0137979 34.395 0.0114689L24.2848 1.09139C23.9381 1.12196 23.615 1.27975 23.3778 1.53435C23.1405 1.78895 23.0059 2.12234 22.9999 2.47029V2.61628C23.0077 2.99156 23.1642 3.34838 23.4349 3.60841C23.7056 3.86844 24.0685 4.01042 24.4438 4.00318V4.00318Z" fill="#011E41"/>
</svg>
