<svg width="48" height="48" viewBox="0 0 48 48" fill="none" xmlns="http://www.w3.org/2000/svg">
<path d="M26.4449 30.9356C25.6466 30.9356 24.948 30.237 24.948 29.4387V21.9543H22.9522V29.4387C22.9522 30.237 22.2536 30.9356 21.4553 30.9356C20.657 30.9356 19.9584 30.237 19.9584 29.4387V14.2703C18.8607 15.0686 18.1622 16.2661 17.9626 17.6632C17.8628 18.4615 17.0644 19.0603 16.2661 18.9605C15.4678 18.8607 14.869 18.0624 14.9688 17.264C15.6674 12.973 19.5593 9.77963 23.9501 9.97921C28.341 9.77963 32.1331 12.8732 32.9314 17.264C33.0312 18.0624 32.4324 18.8607 31.6341 18.9605H31.4345C30.736 18.9605 30.0374 18.3617 29.9376 17.6632C29.738 16.2661 29.0395 15.0686 27.9418 14.2703V29.4387C27.9418 30.237 27.2432 30.9356 26.4449 30.9356ZM23.9501 7.98337C26.1455 7.98337 27.9418 6.18711 27.9418 3.99168C27.9418 1.79626 26.1455 0 23.9501 0C21.7547 0 19.9584 1.79626 19.9584 3.99168C19.9584 6.18711 21.7547 7.98337 23.9501 7.98337ZM11.5759 25.5468C10.7775 24.7484 9.48025 24.7484 8.68191 25.5468C7.88358 26.3451 7.88358 27.7422 8.68191 28.5405L12.474 32.1331C12.973 32.632 12.973 33.4304 12.474 33.8295C11.9751 34.3285 11.2765 34.3285 10.7775 33.8295L5.98753 28.9397V12.973C5.98753 11.2765 4.69023 9.97921 2.99376 9.97921C1.2973 9.97921 0 11.2765 0 12.973V30.3368C0 31.1351 0.299376 31.9335 0.898129 32.4324L11.9751 43.9085V47.9002H20.9563V37.921C21.0561 36.1247 20.3576 34.3285 19.1601 33.0312L11.5759 25.5468ZM44.9064 9.97921C43.21 9.97921 41.9127 11.2765 41.9127 12.973V28.9397L37.2225 33.9293C36.7235 34.4283 36.0249 34.4283 35.526 33.9293C35.027 33.4304 35.027 32.632 35.526 32.2328L39.3181 28.6403C40.1164 27.842 40.1164 26.4449 39.3181 25.6466C38.5198 24.8482 37.2225 24.8482 36.4241 25.6466L28.8399 33.131C27.5426 34.4283 26.9439 36.1247 27.0437 38.0208V48H36.0249V44.0083L47.1019 32.5322C47.7006 31.9335 48 31.2349 48 30.4366V12.973C47.9002 11.2765 46.6029 9.97921 44.9064 9.97921V9.97921Z" fill="#011E41"/>
</svg>
