<svg width="48" height="48" viewBox="0 0 48 48" fill="none" xmlns="http://www.w3.org/2000/svg">
<g clip-path="url(#clip0_74_1046)">
<path d="M9.99642 15.5156C4.29818 15.5156 0 19.5698 0 24.999C0 25.3969 0.158042 25.7784 0.439358 26.0597C0.720674 26.341 1.10222 26.4991 1.50006 26.4991C1.8979 26.4991 2.27945 26.341 2.56077 26.0597C2.84208 25.7784 3.00013 25.3969 3.00013 24.999C2.99175 23.9195 3.26383 22.8564 3.78973 21.9136C4.31563 20.9708 5.07733 20.1808 6.00025 19.6208V40.9997C6.00025 41.3975 6.15829 41.7791 6.43961 42.0604C6.72092 42.3417 7.10247 42.4997 7.50031 42.4997C7.89815 42.4997 8.2797 42.3417 8.56102 42.0604C8.84233 41.7791 9.00038 41.3975 9.00038 40.9997V30.4992H11.0005V40.9997C11.0005 41.3975 11.1585 41.7791 11.4398 42.0604C11.7211 42.3417 12.1027 42.4997 12.5005 42.4997C12.8984 42.4997 13.2799 42.3417 13.5612 42.0604C13.8425 41.7791 14.0006 41.3975 14.0006 40.9997V19.6248C14.9214 20.1854 15.6812 20.9753 16.2056 21.9172C16.73 22.8591 17.0012 23.921 16.9927 24.999C16.9927 25.3969 17.1508 25.7784 17.4321 26.0597C17.7134 26.341 18.0949 26.4991 18.4928 26.4991C18.8906 26.4991 19.2722 26.341 19.5535 26.0597C19.8348 25.7784 19.9928 25.3969 19.9928 24.999C19.9928 19.5698 15.6947 15.5156 9.99642 15.5156Z" fill="#011E41"/>
<path d="M9.99902 13.499C12.2082 13.499 13.999 11.7082 13.999 9.49902C13.999 7.28988 12.2082 5.49902 9.99902 5.49902C7.78988 5.49902 5.99902 7.28988 5.99902 9.49902C5.99902 11.7082 7.78988 13.499 9.99902 13.499Z" fill="#011E41"/>
<path d="M38.0052 15.5156C32.307 15.5156 28.0088 19.5698 28.0088 24.999C28.0088 25.3969 28.1668 25.7784 28.4481 26.0597C28.7295 26.341 29.111 26.4991 29.5089 26.4991C29.9067 26.4991 30.2882 26.341 30.5696 26.0597C30.8509 25.7784 31.0089 25.3969 31.0089 24.999C31.0016 23.8338 31.3197 22.6896 31.9275 21.6954C32.5353 20.7012 33.4086 19.8965 34.4491 19.3718L32.142 31.3753C32.1244 31.516 32.1369 31.6588 32.1787 31.7942C32.2205 31.9297 32.2907 32.0547 32.3845 32.161C32.4783 32.2673 32.5936 32.3525 32.7229 32.4108C32.8521 32.4691 32.9922 32.4993 33.134 32.4993H34.002V40.9997C34.002 41.3975 34.1601 41.7791 34.4414 42.0604C34.7227 42.3417 35.1043 42.4997 35.5021 42.4997C35.8999 42.4997 36.2815 42.3417 36.5628 42.0604C36.8441 41.7791 37.0022 41.3975 37.0022 40.9997V32.4993H39.0022V40.9997C39.0022 41.3975 39.1603 41.7791 39.4416 42.0604C39.7229 42.3417 40.1045 42.4997 40.5023 42.4997C40.9002 42.4997 41.2817 42.3417 41.563 42.0604C41.8443 41.7791 42.0024 41.3975 42.0024 40.9997V32.4993H42.8694C43.0113 32.4994 43.1515 32.4694 43.2809 32.4111C43.4102 32.3528 43.5257 32.2677 43.6196 32.1614C43.7135 32.0551 43.7837 31.93 43.8256 31.7945C43.8675 31.6589 43.88 31.516 43.8624 31.3753L41.5524 19.3668C42.595 19.8908 43.4704 20.6959 44.0796 21.6912C44.6889 22.6864 45.0079 23.8321 45.0005 24.999C45.0005 25.3969 45.1585 25.7784 45.4399 26.0597C45.7212 26.341 46.1027 26.4991 46.5006 26.4991C46.8984 26.4991 47.2799 26.341 47.5613 26.0597C47.8426 25.7784 48.0006 25.3969 48.0006 24.999C48.0006 19.5698 43.7024 15.5156 38.0042 15.5156H38.0052Z" fill="#011E41"/>
<path d="M37.999 13.499C40.2082 13.499 41.999 11.7082 41.999 9.49902C41.999 7.28988 40.2082 5.49902 37.999 5.49902C35.7899 5.49902 33.999 7.28988 33.999 9.49902C33.999 11.7082 35.7899 13.499 37.999 13.499Z" fill="#011E41"/>
</g>
<defs>
<clipPath id="clip0_74_1046">
<rect width="48" height="48" fill="white"/>
</clipPath>
</defs>
</svg>
