<svg width="48" height="48" viewBox="0 0 48 48" fill="none" xmlns="http://www.w3.org/2000/svg">
<path d="M39.0151 25.4973V25.5233C38.8474 25.5133 38.6806 25.4973 38.5109 25.4973C38.4001 25.4973 38.2913 25.5103 38.1815 25.5143C38.1266 25.5093 38.0737 25.4973 38.0168 25.4973H25.5377C24.611 25.4973 23.7223 25.8654 23.067 26.5207C22.4117 27.176 22.0436 28.0647 22.0436 28.9914C22.0436 29.9181 22.4117 30.8069 23.067 31.4622C23.7223 32.1174 24.611 32.4856 25.5377 32.4856H31.0285C31.558 32.4856 32.0659 32.6959 32.4403 33.0704C32.8148 33.4448 33.0251 33.9527 33.0251 34.4822C33.0251 35.0118 32.8148 35.5196 32.4403 35.8941C32.0659 36.2685 31.558 36.4789 31.0285 36.4789H22.0436C21.4558 36.4744 20.8887 36.2615 20.4433 35.8779L6.87606 22.676C6.48092 22.2813 6.00755 21.9736 5.48639 21.7728C4.96523 21.5719 4.40781 21.4823 3.84996 21.5098C3.29211 21.5372 2.74617 21.6811 2.24725 21.9322C1.74833 22.1832 1.30747 22.5359 0.953002 22.9675C0.329347 23.7692 0.0239259 24.773 0.0954239 25.7861C0.166922 26.7993 0.610295 27.7502 1.34035 28.4563L16.5418 43.2934C17.2922 44.0432 18.3093 44.4647 19.3701 44.4655H38.0088C38.0886 44.4655 38.1635 44.4465 38.2424 44.4415C38.3322 44.4445 38.4201 44.4555 38.5109 44.4555C38.6806 44.4555 38.8474 44.4385 39.0151 44.4295V44.4655C41.398 44.4655 43.6834 43.5188 45.3684 41.8338C47.0534 40.1488 48 37.8635 48 35.4805V34.4822C48 32.0993 47.0534 29.8139 45.3684 28.1289C43.6834 26.4439 41.398 25.4973 39.0151 25.4973V25.4973ZM6.56658 16.5124C6.58954 16.5124 6.6115 16.5094 6.63446 16.5094C6.64544 16.5094 6.65643 16.5124 6.66841 16.5124H15.5605C15.8874 16.5124 16.2112 16.448 16.5133 16.3229C16.8154 16.1977 17.0898 16.0143 17.321 15.7831C17.5522 15.5519 17.7356 15.2775 17.8608 14.9754C17.9859 14.6733 18.0503 14.3495 18.0503 14.0226C18.0503 13.6956 17.9859 13.3718 17.8608 13.0698C17.7356 12.7677 17.5522 12.4932 17.321 12.262C17.0898 12.0308 16.8154 11.8474 16.5133 11.7223C16.2112 11.5971 15.8874 11.5327 15.5605 11.5327H12.869L12.871 11.5208H11.5612C11.164 11.5208 10.7831 11.363 10.5023 11.0822C10.2215 10.8013 10.0637 10.4204 10.0637 10.0233C10.0637 9.62613 10.2215 9.24523 10.5023 8.9644C10.7831 8.68357 11.164 8.5258 11.5612 8.5258H17.9355C18.3443 8.52862 18.7387 8.67651 19.0486 8.9431L28.2981 18.6927C28.573 18.9673 28.9023 19.1813 29.2648 19.321C29.6274 19.4607 30.0152 19.5229 30.4032 19.5037C30.7913 19.4845 31.1711 19.3844 31.5181 19.2096C31.8651 19.0349 32.1717 18.7894 32.4182 18.4891C32.8517 17.9314 33.064 17.2333 33.0142 16.5287C32.9645 15.8241 32.6562 15.1627 32.1486 14.6715L21.5744 4.34881C21.052 3.82709 20.3439 3.53409 19.6057 3.53418H6.64045C6.61649 3.53418 6.59353 3.54117 6.57057 3.54117H6.56658C5.7081 3.53052 4.85606 3.6904 4.05985 4.01156C3.26364 4.33271 2.53911 4.80874 1.92828 5.41204C1.31744 6.01535 0.83246 6.73391 0.501453 7.52608C0.170446 8.31824 0 9.16824 0 10.0268C0 10.8853 0.170446 11.7353 0.501453 12.5275C0.83246 13.3196 1.31744 14.0382 1.92828 14.6415C2.53911 15.2448 3.26364 15.7208 4.05985 16.042C4.85606 16.3632 5.7081 16.523 6.56658 16.5124V16.5124Z" fill="#011E41"/>
</svg>
