<svg width="48" height="48" viewBox="0 0 48 48" fill="none" xmlns="http://www.w3.org/2000/svg">
<path d="M48 23V20C48 19.4696 47.7893 18.9609 47.4142 18.5858C47.0391 18.2107 46.5304 18 46 18C45.4696 18 44.9609 18.2107 44.5858 18.5858C44.2107 18.9609 44 19.4696 44 20V23C43.9995 23.5303 43.7886 24.0387 43.4136 24.4136C43.0387 24.7886 42.5303 24.9995 42 25V11C42 10.4696 41.7893 9.96086 41.4142 9.58579C41.0391 9.21071 40.5304 9 40 9V0.5C40 0.367392 39.9473 0.240215 39.8536 0.146447C39.7598 0.0526784 39.6326 0 39.5 0L37 0C36.7348 0 36.4804 0.105357 36.2929 0.292893C36.1054 0.48043 36 0.734784 36 1C36 1.26522 36.1054 1.51957 36.2929 1.70711C36.4804 1.89464 36.7348 2 37 2V9.277C36.6967 9.45115 36.4447 9.70206 36.2691 10.0045C36.0936 10.307 36.0008 10.6503 36 11V17H35C34.4696 17 33.9609 17.2107 33.5858 17.5858C33.2107 17.9609 33 18.4696 33 19V34C33 34.5304 33.2107 35.0391 33.5858 35.4142C33.9609 35.7893 34.4696 36 35 36H36V46C36 46.5304 36.2107 47.0391 36.5858 47.4142C36.9609 47.7893 37.4696 48 38 48H42.438C42.7419 48 43.0418 47.9307 43.3149 47.7974C43.588 47.6641 43.8272 47.4703 44.0142 47.2307C44.2012 46.9912 44.3312 46.7122 44.3942 46.4149C44.4572 46.1176 44.4517 45.8098 44.378 45.515L42.06 36.239C42.0452 36.16 42.0352 36.0802 42.03 36H46C46.5304 36 47.0391 35.7893 47.4142 35.4142C47.7893 35.0391 48 34.5304 48 34C48 33.4696 47.7893 32.9609 47.4142 32.5858C47.0391 32.2107 46.5304 32 46 32H42V29C43.5907 28.9981 45.1158 28.3654 46.2406 27.2406C47.3654 26.1158 47.9981 24.5907 48 23V23ZM13 13C5.589 13 0 18.16 0 25C0 25.5304 0.210714 26.0391 0.585786 26.4142C0.960859 26.7893 1.46957 27 2 27C2.53043 27 3.03914 26.7893 3.41421 26.4142C3.78929 26.0391 4 25.5304 4 25C4.00169 23.6232 4.37398 22.2723 5.0778 21.089C5.78161 19.9057 6.791 18.9337 8 18.275V46.022C8 46.5466 8.2084 47.0497 8.57934 47.4207C8.95029 47.7916 9.4534 48 9.978 48H10.022C10.5466 48 11.0497 47.7916 11.4207 47.4207C11.7916 47.0497 12 46.5466 12 46.022V32H14V46.022C14 46.5466 14.2084 47.0497 14.5793 47.4207C14.9503 47.7916 15.4534 48 15.978 48H16.022C16.5466 48 17.0497 47.7916 17.4207 47.4207C17.7916 47.0497 18 46.5466 18 46.022V18.275C19.2091 18.9336 20.2185 19.9056 20.9223 21.0889C21.6262 22.2722 21.9984 23.6232 22 25C22 25.5304 22.2107 26.0391 22.5858 26.4142C22.9609 26.7893 23.4696 27 24 27C24.5304 27 25.0391 26.7893 25.4142 26.4142C25.7893 26.0391 26 25.5304 26 25C26 18.159 20.411 13 13 13Z" fill="#011E41"/>
<path d="M13 11C15.7614 11 18 8.76142 18 6C18 3.23858 15.7614 1 13 1C10.2386 1 8 3.23858 8 6C8 8.76142 10.2386 11 13 11Z" fill="#011E41"/>
</svg>
