<svg width="48" height="48" viewBox="0 0 48 48" fill="none" xmlns="http://www.w3.org/2000/svg">
<path d="M31 19.414C30.9999 19.1488 30.8946 18.8945 30.707 18.707L26 14V9H29C29.5304 9 30.0391 8.78929 30.4142 8.41421C30.7893 8.03914 31 7.53043 31 7C31 6.46957 30.7893 5.96086 30.4142 5.58579C30.0391 5.21071 29.5304 5 29 5H26V2C26 1.46957 25.7893 0.960859 25.4142 0.585786C25.0391 0.210714 24.5304 0 24 0C23.4696 0 22.9609 0.210714 22.5858 0.585786C22.2107 0.960859 22 1.46957 22 2V5H19C18.4696 5 17.9609 5.21071 17.5858 5.58579C17.2107 5.96086 17 6.46957 17 7C17 7.53043 17.2107 8.03914 17.5858 8.41421C17.9609 8.78929 18.4696 9 19 9H22V14L17.293 18.707C17.1054 18.8945 17.0001 19.1488 17 19.414V38H31V19.414ZM42 29.65C42 29.4565 41.9439 29.2672 41.8385 29.1049C41.7331 28.9427 41.5828 28.8146 41.406 28.736L33 25V38H42V29.65ZM15 25L6.594 28.736C6.41718 28.8146 6.26695 28.9427 6.16151 29.1049C6.05608 29.2672 5.99998 29.4565 6 29.65V38H15V25ZM46.5 45H1.5C1.10218 45 0.720644 45.158 0.43934 45.4393C0.158035 45.7206 0 46.1022 0 46.5C0 46.8978 0.158035 47.2794 0.43934 47.5607C0.720644 47.842 1.10218 48 1.5 48H46.5C46.8978 48 47.2794 47.842 47.5607 47.5607C47.842 47.2794 48 46.8978 48 46.5C48 46.1022 47.842 45.7206 47.5607 45.4393C47.2794 45.158 46.8978 45 46.5 45ZM5.5 43H42.5C42.8978 43 43.2794 42.842 43.5607 42.5607C43.842 42.2794 44 41.8978 44 41.5C44 41.1022 43.842 40.7206 43.5607 40.4393C43.2794 40.158 42.8978 40 42.5 40H5.5C5.10218 40 4.72064 40.158 4.43934 40.4393C4.15804 40.7206 4 41.1022 4 41.5C4 41.8978 4.15804 42.2794 4.43934 42.5607C4.72064 42.842 5.10218 43 5.5 43V43Z" fill="#011E41"/>
</svg>
