<svg width="48" height="48" viewBox="0 0 48 48" fill="none" xmlns="http://www.w3.org/2000/svg">
<g clip-path="url(#clip0_74_552)">
<path d="M7.06253 6.51917C7.06253 7.10752 7.17842 7.69011 7.40357 8.23368C7.62872 8.77725 7.95874 9.27115 8.37477 9.68718C8.79079 10.1032 9.28469 10.4332 9.82826 10.6584C10.3718 10.8835 10.9544 10.9994 11.5428 10.9994C12.1311 10.9994 12.7137 10.8835 13.2573 10.6584C13.8009 10.4332 14.2948 10.1032 14.7108 9.68718C15.1268 9.27115 15.4568 8.77725 15.682 8.23368C15.9071 7.69011 16.023 7.10752 16.023 6.51917C16.0271 6.0002 15.9356 5.48491 15.753 4.99909H7.33255C7.14999 5.48491 7.05846 6.0002 7.06253 6.51917V6.51917ZM18.0431 15.0996L16.8931 16.2497L15.573 17.5698L7.16254 25.9802H17.0231V18.6498C17.825 19.4029 18.464 20.3124 18.9009 21.322C19.3378 22.3316 19.5631 23.4201 19.5631 24.5201C19.5631 25.6202 19.3378 26.7087 18.9009 27.7183C18.464 28.7279 17.825 29.6373 17.0231 30.3905V28.9804H6.02248V30.4305C5.20868 29.676 4.55946 28.7616 4.11548 27.7446C3.6715 26.7276 3.44233 25.6298 3.44233 24.5201C3.44233 23.4104 3.6715 22.3127 4.11548 21.2957C4.55946 20.2786 5.20868 19.3643 6.02248 18.6098V22.8801L12.3928 16.5097L13.8629 15.0396L15.233 13.6696C14.0339 13.251 12.7728 13.038 11.5028 13.0395C8.95028 13.0383 6.47023 13.888 4.45487 15.4544C2.43952 17.0208 1.00392 19.2144 0.375134 21.6882C-0.25365 24.1621 -0.0397224 26.7749 0.983081 29.1135C2.00588 31.4521 3.77918 33.383 6.02248 34.6007L6.04448 34.6117C6.06811 34.7212 6.12832 34.8194 6.21521 34.8901C6.3021 34.9608 6.41048 34.9998 6.5225 35.0007H16.523C16.6389 34.9997 16.7507 34.958 16.8388 34.8829C16.9269 34.8077 16.9858 34.7039 17.0051 34.5897L17.0231 34.5807C18.7382 33.6424 20.1848 32.281 21.2254 30.6259C22.2659 28.9708 22.8658 27.0771 22.9681 25.1247C23.0703 23.1724 22.6714 21.2264 21.8094 19.4717C20.9474 17.717 19.6509 16.2119 18.0431 15.0996V15.0996ZM30.9838 34.5407C31.0008 34.5507 31.0198 34.5577 31.0368 34.5667C31.0514 34.6859 31.1089 34.7956 31.1985 34.8755C31.2881 34.9554 31.4038 34.9999 31.5239 35.0007H41.5244C41.6491 35.0001 41.769 34.9525 41.8601 34.8674C41.9513 34.7823 42.0071 34.666 42.0164 34.5417C44.2514 33.3171 46.0152 31.3834 47.0298 29.0456C48.0444 26.7078 48.2521 24.0988 47.6202 21.63C46.9882 19.1611 45.5526 16.9727 43.5395 15.4099C41.5265 13.8471 39.0506 12.9987 36.5021 12.9985C33.9536 12.9982 31.4775 13.8462 29.4642 15.4086C27.4509 16.9711 26.0148 19.1592 25.3824 21.6279C24.75 24.0967 24.9572 26.7057 25.9714 29.0437C26.9856 31.3817 28.7491 33.3157 30.9838 34.5407V34.5407ZM42.0244 30.3495V18.6098C42.8264 19.3627 43.4655 20.2719 43.9025 21.2814C44.3394 22.2909 44.5648 23.3792 44.5648 24.4791C44.5648 25.5791 44.3394 26.6674 43.9025 27.6769C43.4655 28.6864 42.8264 29.5956 42.0244 30.3485V30.3495ZM30.9838 18.6098L31.0238 18.5758V30.3845L30.9838 30.3505C30.1819 29.5973 29.5429 28.6879 29.106 27.6783C28.6691 26.6687 28.4438 25.5802 28.4438 24.4801C28.4438 23.38 28.6691 22.2916 29.106 21.282C29.5429 20.2724 30.1819 19.3629 30.9838 18.6098V18.6098ZM8.02258 2.99898H15.023C15.2933 2.99294 15.5502 2.88015 15.7376 2.68527C15.9249 2.49038 16.0276 2.22924 16.023 1.95892V1.04387C16.0261 0.900411 15.9989 0.757912 15.9432 0.625651C15.8876 0.493389 15.8047 0.374329 15.7 0.276219C15.5953 0.178108 15.4711 0.103147 15.3355 0.0562143C15.1999 0.00928117 15.0559 -0.00857219 14.913 0.00381616L7.91258 0.81486C7.66276 0.849526 7.43429 0.974468 7.27031 1.16609C7.10632 1.35771 7.01818 1.60275 7.02253 1.85492V1.95892C7.01797 2.22924 7.1206 2.49038 7.30799 2.68527C7.49538 2.88015 7.75229 2.99294 8.02258 2.99898V2.99898Z" fill="#011E41"/>
<path d="M36.5234 10.999C39.0087 10.999 41.0234 8.9843 41.0234 6.49902C41.0234 4.01374 39.0087 1.99902 36.5234 1.99902C34.0382 1.99902 32.0234 4.01374 32.0234 6.49902C32.0234 8.9843 34.0382 10.999 36.5234 10.999Z" fill="#011E41"/>
<path d="M17.5994 37.4436C17.3157 37.1604 16.9312 37.0016 16.5304 37.002C16.1296 37.0023 15.7454 37.1619 15.4622 37.4456C15.1791 37.7292 15.0203 38.1138 15.0206 38.5145C15.021 38.9153 15.1806 39.2995 15.4642 39.5827L16.8803 41.0008H1.56649C1.16864 41.0008 0.78709 41.1588 0.50577 41.4401C0.22445 41.7214 0.0664063 42.103 0.0664062 42.5008C0.0664063 42.8987 0.22445 43.2802 0.50577 43.5616C0.78709 43.8429 1.16864 44.0009 1.56649 44.0009H16.8803L15.4642 45.419C15.3238 45.5592 15.2123 45.7257 15.1362 45.9089C15.0601 46.0922 15.0208 46.2887 15.0206 46.4871C15.0204 46.6856 15.0593 46.8821 15.1351 47.0655C15.2109 47.249 15.322 47.4157 15.4622 47.5561C15.6024 47.6966 15.7689 47.808 15.9522 47.8842C16.1355 47.9603 16.3319 47.9995 16.5304 47.9997C16.7288 47.9999 16.9254 47.961 17.1088 47.8852C17.2922 47.8095 17.4589 47.6983 17.5994 47.5581L21.5796 43.5699C21.8626 43.2861 22.0215 42.9016 22.0215 42.5008C22.0215 42.1 21.8626 41.7156 21.5796 41.4318L17.5994 37.4436ZM46.4789 41.0008H31.1651L32.5812 39.5827C32.8648 39.2995 33.0244 38.9153 33.0248 38.5145C33.0251 38.1138 32.8663 37.7292 32.5832 37.4456C32.3 37.1619 31.9158 37.0023 31.515 37.002C31.1142 37.0016 30.7297 37.1604 30.446 37.4436L26.4658 41.4318C26.1828 41.7156 26.0239 42.1 26.0239 42.5008C26.0239 42.9016 26.1828 43.2861 26.4658 43.5699L30.446 47.5581C30.5865 47.6983 30.7532 47.8095 30.9366 47.8852C31.12 47.961 31.3166 47.9999 31.515 47.9997C31.7135 47.9995 31.9099 47.9603 32.0932 47.8842C32.2765 47.808 32.443 47.6966 32.5832 47.5561C32.7234 47.4157 32.8345 47.249 32.9103 47.0655C32.9861 46.8821 33.025 46.6856 33.0248 46.4871C33.0246 46.2887 32.9853 46.0922 32.9092 45.9089C32.8331 45.7257 32.7216 45.5592 32.5812 45.419L31.1651 44.0009H46.4789C46.8768 44.0009 47.2583 43.8429 47.5396 43.5616C47.821 43.2802 47.979 42.8987 47.979 42.5008C47.979 42.103 47.821 41.7214 47.5396 41.4401C47.2583 41.1588 46.8768 41.0008 46.4789 41.0008Z" fill="#011E41"/>
</g>
<defs>
<clipPath id="clip0_74_552">
<rect width="48" height="48" fill="white"/>
</clipPath>
</defs>
</svg>
