<svg width="48" height="48" viewBox="0 0 48 48" fill="none" xmlns="http://www.w3.org/2000/svg">
<g clip-path="url(#clip0_74_782)">
<path d="M24 8C25.3259 7.99947 26.5974 7.47252 27.5349 6.53495C28.4725 5.59738 28.9995 4.32592 29 3H19C19.0005 4.32592 19.5275 5.59738 20.4651 6.53495C21.4026 7.47252 22.6741 7.99947 24 8V8Z" fill="#011E41"/>
<path d="M47.7 13.31L38.01 4L37.26 3.28C37.0691 3.10363 36.8199 3.00393 36.56 3H31C30.9979 4.85587 30.2597 6.63511 28.9474 7.94741C27.6351 9.2597 25.8559 9.99788 24 10C22.1442 9.99788 20.3649 9.2597 19.0526 7.94741C17.7403 6.63511 17.0021 4.85587 17 3L11.44 3C11.1802 3.00393 10.9309 3.10363 10.74 3.28L9.99002 4L0.300018 13.31C0.205017 13.4033 0.129556 13.5145 0.0780438 13.6373C0.0265313 13.7601 0 13.8919 0 14.025C0 14.1581 0.0265313 14.2899 0.0780438 14.4127C0.129556 14.5355 0.205017 14.6467 0.300018 14.74L6.41002 20.71C6.59719 20.8928 6.84842 20.9951 7.11002 20.9951C7.37162 20.9951 7.62284 20.8928 7.81002 20.71L12 17V44C12.0008 44.265 12.1064 44.5189 12.2938 44.7062C12.4812 44.8936 12.735 44.9992 13 45H35C35.265 44.9992 35.5189 44.8936 35.7063 44.7062C35.8936 44.5189 35.9992 44.265 36 44V17L40.19 20.71C40.3772 20.8928 40.6284 20.9951 40.89 20.9951C41.1516 20.9951 41.4028 20.8928 41.59 20.71L47.7 14.74C47.795 14.6467 47.8705 14.5355 47.922 14.4127C47.9735 14.2899 48 14.1581 48 14.025C48 13.8919 47.9735 13.7601 47.922 13.6373C47.8705 13.5145 47.795 13.4033 47.7 13.31V13.31Z" fill="#011E41"/>
</g>
<defs>
<clipPath id="clip0_74_782">
<rect width="48" height="48" fill="white"/>
</clipPath>
</defs>
</svg>
