<svg width="48" height="42" viewBox="0 0 48 42" fill="none" xmlns="http://www.w3.org/2000/svg">
<g clip-path="url(#clip0_1465_5614)">
<path d="M24 5C25.3259 4.99947 26.5974 4.47252 27.5349 3.53495C28.4725 2.59738 28.9995 1.32592 29 0L19 0C19.0005 1.32592 19.5275 2.59738 20.4651 3.53495C21.4026 4.47252 22.6741 4.99947 24 5V5Z" fill="#011E41"/>
<path d="M47.7 10.31L38.01 1L37.26 0.28C37.0691 0.103634 36.8199 0.00392951 36.56 0L31 0C30.9979 1.85587 30.2597 3.63511 28.9474 4.94741C27.6351 6.2597 25.8559 6.99788 24 7C22.1442 6.99788 20.3649 6.2597 19.0526 4.94741C17.7403 3.63511 17.0021 1.85587 17 0L11.44 0C11.1802 0.00392951 10.9309 0.103634 10.74 0.28L9.99002 1L0.300018 10.31C0.205017 10.4033 0.129556 10.5145 0.0780438 10.6373C0.0265313 10.7601 0 10.8919 0 11.025C0 11.1581 0.0265313 11.2899 0.0780438 11.4127C0.129556 11.5355 0.205017 11.6467 0.300018 11.74L6.41002 17.71C6.59719 17.8928 6.84842 17.9951 7.11002 17.9951C7.37162 17.9951 7.62284 17.8928 7.81002 17.71L12 14V41C12.0008 41.265 12.1064 41.5189 12.2938 41.7062C12.4812 41.8936 12.735 41.9992 13 42H35C35.265 41.9992 35.5189 41.8936 35.7063 41.7062C35.8936 41.5189 35.9992 41.265 36 41V14L40.19 17.71C40.3772 17.8928 40.6284 17.9951 40.89 17.9951C41.1516 17.9951 41.4028 17.8928 41.59 17.71L47.7 11.74C47.795 11.6467 47.8705 11.5355 47.922 11.4127C47.9735 11.2899 48 11.1581 48 11.025C48 10.8919 47.9735 10.7601 47.922 10.6373C47.8705 10.5145 47.795 10.4033 47.7 10.31V10.31Z" fill="#011E41"/>
</g>
<defs>
<clipPath id="clip0_1465_5614">
<rect width="48" height="42" fill="white"/>
</clipPath>
</defs>
</svg>
