<svg width="48" height="48" viewBox="0 0 48 48" fill="none" xmlns="http://www.w3.org/2000/svg">
<path d="M22.9984 6.50019C22.9984 4.77623 22.3136 3.12288 21.0946 1.90386C19.8755 0.68484 18.2222 0 16.4982 0C14.7743 0 13.1209 0.68484 11.9019 1.90386C10.6829 3.12288 9.99804 4.77623 9.99804 6.50019V31.5779C8.85021 32.6559 7.98837 34.0023 7.49008 35.496C6.99178 36.9897 6.87267 38.5839 7.14345 40.1351C7.41422 41.6862 8.0664 43.1458 9.0413 44.3823C10.0162 45.6189 11.2832 46.5937 12.7284 47.219C14.1735 47.8443 15.7515 48.1005 17.3203 47.9645C18.889 47.8286 20.3994 47.3048 21.7154 46.4402C23.0315 45.5756 24.1119 44.3974 24.8596 43.0116C25.6072 41.6257 25.9986 40.0758 25.9985 38.5011C26.0008 37.203 25.7356 35.9183 25.2194 34.7271C24.7032 33.536 23.9472 32.464 22.9984 31.5779V6.50019ZM16.4982 45.0013C15.1515 45.0023 13.8378 44.5848 12.7388 43.8064C11.6398 43.028 10.8098 41.9273 10.3638 40.6566C9.91781 39.3859 9.87775 38.0079 10.2492 36.7134C10.6206 35.4189 11.3852 34.2719 12.4371 33.431L12.9981 32.981V6.50019C12.9981 5.57191 13.3669 4.68164 14.0233 4.02524C14.6797 3.36885 15.5699 3.00009 16.4982 3.00009C17.4265 3.00009 18.3168 3.36885 18.9732 4.02524C19.6296 4.68164 19.9983 5.57191 19.9983 6.50019V32.981L20.5594 33.431C21.6113 34.2719 22.3759 35.4189 22.7473 36.7134C23.1187 38.0079 23.0787 39.3859 22.6326 40.6566C22.1866 41.9273 21.3567 43.028 20.2577 43.8064C19.1587 44.5848 17.845 45.0023 16.4982 45.0013V45.0013Z" fill="#011E41"/>
<path d="M17.9981 34.797V25.5C17.9981 25.1022 17.84 24.7206 17.5587 24.4393C17.2774 24.158 16.8959 24 16.4981 24C16.1002 24 15.7187 24.158 15.4374 24.4393C15.1561 24.7206 14.9981 25.1022 14.9981 25.5V34.797C14.1375 35.1451 13.4249 35.7817 12.9822 36.5976C12.5395 37.4135 12.3944 38.358 12.5717 39.2692C12.749 40.1803 13.2377 41.0015 13.9541 41.5919C14.6704 42.1822 15.5698 42.5051 16.4981 42.5051C17.4263 42.5051 18.3257 42.1822 19.042 41.5919C19.7584 41.0015 20.2471 40.1803 20.4244 39.2692C20.6017 38.358 20.4566 37.4135 20.0139 36.5976C19.5713 35.7817 18.8586 35.1451 17.9981 34.797V34.797ZM39.4981 10H27.4981C27.1002 10 26.7187 10.158 26.4374 10.4393C26.1561 10.7206 25.9981 11.1022 25.9981 11.5C25.9981 11.8978 26.1561 12.2794 26.4374 12.5607C26.7187 12.842 27.1002 13 27.4981 13H39.4981C39.8959 13 40.2774 12.842 40.5587 12.5607C40.84 12.2794 40.9981 11.8978 40.9981 11.5C40.9981 11.1022 40.84 10.7206 40.5587 10.4393C40.2774 10.158 39.8959 10 39.4981 10Z" fill="#011E41"/>
</svg>
