<svg width="48" height="48" viewBox="0 0 48 48" fill="none" xmlns="http://www.w3.org/2000/svg">
<path d="M0.0195313 42.5969V46.365C0.02499 46.7933 0.200287 47.2018 0.506882 47.5008C0.813478 47.7999 1.22627 47.9649 1.65452 47.9597C2.08277 47.9649 2.49556 47.7999 2.80216 47.5008C3.10875 47.2018 3.28405 46.7933 3.28951 46.365V44.6897H17.4594V46.365C17.4594 46.7986 17.6317 47.2145 17.9383 47.5211C18.2449 47.8277 18.6608 48 19.0944 48C19.528 48 19.9439 47.8277 20.2505 47.5211C20.5571 47.2145 20.7294 46.7986 20.7294 46.365V7.62995H0.0195313V42.5969ZM15.2794 25.0698C15.2794 24.7807 15.3943 24.5035 15.5987 24.2991C15.8031 24.0947 16.0803 23.9798 16.3694 23.9798C16.6585 23.9798 16.9357 24.0947 17.1402 24.2991C17.3446 24.5035 17.4594 24.7807 17.4594 25.0698V28.3398C17.4594 28.6289 17.3446 28.9061 17.1402 29.1105C16.9357 29.315 16.6585 29.4298 16.3694 29.4298C16.0803 29.4298 15.8031 29.315 15.5987 29.1105C15.3943 28.9061 15.2794 28.6289 15.2794 28.3398V25.0698ZM15.2794 0H5.46949C4.02407 0 2.63785 0.574191 1.61579 1.59626C0.593722 2.61832 0.0195313 4.00454 0.0195312 5.44996H20.7294C20.7294 4.00454 20.1552 2.61832 19.1331 1.59626C18.1111 0.574191 16.7248 0 15.2794 0V0ZM27.2693 42.5969V46.365C27.2693 46.7986 27.4416 47.2145 27.7482 47.5211C28.0548 47.8277 28.4707 48 28.9043 48C29.338 48 29.7538 47.8277 30.0604 47.5211C30.3671 47.2145 30.5393 46.7986 30.5393 46.365V44.6897H44.7092V46.365C44.7092 46.7986 44.8815 47.2145 45.1881 47.5211C45.4947 47.8277 45.9106 48 46.3442 48C46.7778 48 47.1937 47.8277 47.5003 47.5211C47.8069 47.2145 47.9792 46.7986 47.9792 46.365V7.62995H27.2693V42.5969ZM42.5292 25.0698C42.5292 24.7807 42.6441 24.5035 42.8485 24.2991C43.0529 24.0947 43.3301 23.9798 43.6192 23.9798C43.9083 23.9798 44.1856 24.0947 44.39 24.2991C44.5944 24.5035 44.7092 24.7807 44.7092 25.0698V28.3398C44.7092 28.6289 44.5944 28.9061 44.39 29.1105C44.1856 29.315 43.9083 29.4298 43.6192 29.4298C43.3301 29.4298 43.0529 29.315 42.8485 29.1105C42.6441 28.9061 42.5292 28.6289 42.5292 28.3398V25.0698ZM42.5292 0H32.7193C31.2739 0 29.8877 0.574191 28.8656 1.59626C27.8435 2.61832 27.2693 4.00454 27.2693 5.44996H47.9792C47.9792 4.00454 47.405 2.61832 46.3829 1.59626C45.3609 0.574191 43.9747 0 42.5292 0V0Z" fill="#011E41"/>
</svg>
