<svg width="48" height="48" viewBox="0 0 48 48" fill="none" xmlns="http://www.w3.org/2000/svg">
<path d="M26.51 14.6396C26.2378 15.0573 25.8657 15.4004 25.4274 15.6379C24.9892 15.8754 24.4985 15.9998 24 15.9998C23.5015 15.9998 23.0109 15.8754 22.5726 15.6379C22.1343 15.4004 21.7622 15.0573 21.49 14.6396C20.7278 15.0794 20.0946 15.7119 19.654 16.4736C19.2135 17.2354 18.981 18.0997 18.98 18.9796C18.9781 19.0465 18.9814 19.1133 18.99 19.1796C19.5773 19.3814 20.0868 19.7617 20.4473 20.2673C20.8077 20.773 21.0009 21.3787 21 21.9996C20.9998 22.3018 20.9526 22.602 20.86 22.8896C21.749 23.6077 22.8572 23.9994 24 23.9994C25.1428 23.9994 26.251 23.6077 27.14 22.8896C27.0475 22.602 27.0002 22.3018 27 21.9996C26.9991 21.3787 27.1924 20.773 27.5528 20.2673C27.9132 19.7617 28.4227 19.3814 29.01 19.1796C29.0186 19.1133 29.022 19.0465 29.02 18.9796C29.019 18.0997 28.7866 17.2354 28.346 16.4736C27.9055 15.7119 27.2723 15.0794 26.51 14.6396V14.6396Z" fill="#011E41"/>
<path d="M38 6H10C9.47005 6.00158 8.96227 6.2128 8.58753 6.58753C8.2128 6.96227 8.00158 7.47005 8 8V30H40V8C39.9984 7.47005 39.7872 6.96227 39.4125 6.58753C39.0377 6.2128 38.5299 6.00158 38 6V6ZM30 25C29.4019 24.9998 28.8173 24.8223 28.32 24.49C27.0923 25.4676 25.5694 25.9999 24 25.9999C22.4306 25.9999 20.9077 25.4676 19.68 24.49C19.2281 24.7934 18.7022 24.9684 18.1586 24.9962C17.615 25.024 17.0741 24.9037 16.5935 24.648C16.113 24.3923 15.7109 24.0109 15.4303 23.5446C15.1496 23.0782 15.0009 22.5443 15 22C14.9998 21.382 15.1911 20.7791 15.5474 20.2741C15.9037 19.7692 16.4077 19.387 16.99 19.18C16.9817 19.1137 16.9783 19.0468 16.98 18.98C16.98 17.6457 17.3612 16.3392 18.0787 15.2142C18.7962 14.0892 19.8201 13.1926 21.03 12.63C21.1185 11.9046 21.4694 11.2366 22.0165 10.7521C22.5637 10.2676 23.2692 10.0002 24 10.0002C24.7308 10.0002 25.4363 10.2676 25.9835 10.7521C26.5306 11.2366 26.8815 11.9046 26.97 12.63C28.1799 13.1926 29.2038 14.0892 29.9213 15.2142C30.6388 16.3392 31.02 17.6457 31.02 18.98C31.0217 19.0468 31.0183 19.1137 31.01 19.18C31.6756 19.4173 32.236 19.8821 32.5921 20.4924C32.9483 21.1027 33.0774 21.8192 32.9566 22.5154C32.8357 23.2117 32.4728 23.8428 31.9318 24.2974C31.3908 24.752 30.7066 25.0009 30 25ZM14 4H34C34.5304 4 35.0391 3.78929 35.4142 3.41421C35.7893 3.03914 36 2.53043 36 2C36 1.46957 35.7893 0.960859 35.4142 0.585786C35.0391 0.210714 34.5304 0 34 0L14 0C13.4696 0 12.9609 0.210714 12.5858 0.585786C12.2107 0.960859 12 1.46957 12 2C12 2.53043 12.2107 3.03914 12.5858 3.41421C12.9609 3.78929 13.4696 4 14 4V4ZM8 48H20V38C20.0016 37.4701 20.2128 36.9623 20.5875 36.5875C20.9623 36.2128 21.4701 36.0016 22 36H26C26.5299 36.0016 27.0377 36.2128 27.4125 36.5875C27.7872 36.9623 27.9984 37.4701 28 38V48H40V32H8V48Z" fill="#011E41"/>
</svg>
