<svg width="48" height="48" viewBox="0 0 48 48" fill="none" xmlns="http://www.w3.org/2000/svg">
<g clip-path="url(#clip0_74_557)">
<path d="M5.86473 33.4784C4.98292 31.7812 4.34305 29.9689 3.96373 28.0944C3.85897 27.574 3.55179 27.1166 3.10976 26.8227C2.66774 26.5288 2.12708 26.4226 1.60673 26.5274C1.08637 26.6321 0.628946 26.9393 0.335076 27.3813C0.0412068 27.8233 -0.0650335 28.364 0.039727 28.8844C0.56225 31.4711 1.5022 33.9555 2.82273 36.2404C3.51547 35.0182 4.58159 34.0502 5.86473 33.4784V33.4784ZM19.9067 44.0374C18.0228 43.6572 16.2027 43.01 14.5017 42.1154C13.9294 43.4042 12.9575 44.4747 11.7297 45.1684C14.022 46.4902 16.5127 47.4331 19.1057 47.9604C19.2372 47.988 19.3713 48.0014 19.5057 48.0004C20.0014 47.9996 20.4791 47.815 20.8465 47.4823C21.2138 47.1497 21.4448 46.6925 21.4945 46.1994C21.5443 45.7063 21.4094 45.2122 21.1159 44.8129C20.8224 44.4135 20.3912 44.1371 19.9057 44.0374H19.9067ZM28.0937 3.96436C29.9651 4.34369 31.7741 4.98359 33.4677 5.86536C34.0445 4.579 35.0199 3.51242 36.2497 2.82336C33.9594 1.50702 31.4723 0.567367 28.8837 0.0403596C28.6261 -0.0115125 28.3607 -0.0121281 28.1028 0.038548C27.8449 0.0892241 27.5996 0.1902 27.3807 0.335709C26.9387 0.629578 26.6315 1.087 26.5267 1.60736C26.422 2.12771 26.5282 2.66837 26.8221 3.1104C27.1159 3.55242 27.5734 3.8596 28.0937 3.96436V3.96436ZM42.1147 14.5124C43.0078 16.2105 43.6549 18.027 44.0367 19.9074C44.1288 20.3595 44.3743 20.7658 44.7317 21.0576C45.0891 21.3494 45.5364 21.5086 45.9977 21.5084C46.1321 21.5094 46.2662 21.496 46.3977 21.4684C46.6548 21.4167 46.8992 21.3148 47.1169 21.1686C47.3346 21.0223 47.5213 20.8346 47.6663 20.6162C47.8114 20.3977 47.912 20.1528 47.9623 19.8955C48.0127 19.6381 48.0118 19.3734 47.9597 19.1164C47.4342 16.5197 46.4913 14.0254 45.1677 11.7304C44.4719 12.9588 43.4024 13.9334 42.1147 14.5124V14.5124ZM1.60173 21.4684C1.73316 21.4965 1.86732 21.5099 2.00173 21.5084C2.46287 21.5074 2.90963 21.3477 3.26692 21.0561C3.62421 20.7646 3.87026 20.3589 3.96373 19.9074C4.34533 18.0454 4.97811 16.2439 5.84473 14.5524C4.55791 13.9939 3.48205 13.0406 2.77273 11.8304C1.47868 14.0976 0.556003 16.5574 0.039727 19.1164C-0.0123448 19.3734 -0.0132358 19.6381 0.037105 19.8955C0.0874457 20.1528 0.18803 20.3977 0.333106 20.6162C0.478181 20.8346 0.6649 21.0223 0.882582 21.1686C1.10026 21.3148 1.34464 21.4167 1.60173 21.4684V21.4684ZM14.4217 5.92536C16.1465 5.01193 17.9938 4.3515 19.9067 3.96436C20.1644 3.91183 20.4092 3.80907 20.6271 3.66194C20.845 3.51481 21.0319 3.32619 21.1769 3.10686C21.322 2.88753 21.4224 2.64178 21.4725 2.38363C21.5225 2.12549 21.5213 1.86001 21.4687 1.60236C21.4162 1.34471 21.3134 1.09992 21.1663 0.881983C21.0192 0.664044 20.8306 0.477219 20.6112 0.332173C20.3919 0.187128 20.1461 0.0867041 19.888 0.0366346C19.6299 -0.0134349 19.3644 -0.0121691 19.1067 0.0403596C16.4947 0.568344 13.9861 1.51846 11.6797 2.85336C12.9001 3.55613 13.8616 4.63333 14.4217 5.92536V5.92536ZM33.4677 42.1354C31.7741 43.0175 29.9652 43.6577 28.0937 44.0374C27.6052 44.1326 27.1697 44.4067 26.8724 44.8059C26.5752 45.2051 26.4375 45.7009 26.4862 46.1962C26.5349 46.6916 26.7667 47.151 27.1361 47.4846C27.5055 47.8182 27.986 48.0021 28.4837 48.0004C28.6181 48.0019 28.7523 47.9885 28.8837 47.9604C31.4723 47.4337 33.9593 46.4944 36.2497 45.1784C35.0198 44.489 34.0443 43.422 33.4677 42.1354V42.1354ZM46.3987 26.5324C45.8784 26.427 45.3376 26.5323 44.8948 26.8251C44.452 27.1179 44.1435 27.5744 44.0367 28.0944C43.6548 29.9743 43.0077 31.7905 42.1147 33.4884C43.4024 34.0674 44.4719 35.0419 45.1677 36.2704C46.4913 33.9753 47.4342 31.481 47.9597 28.8844C48.0118 28.6274 48.0127 28.3627 47.9625 28.1054C47.9122 27.8481 47.8117 27.6033 47.6667 27.3848C47.5217 27.1664 47.3351 26.9787 47.1176 26.8324C46.9 26.6861 46.6557 26.5842 46.3987 26.5324V26.5324ZM6.87573 12.8014C7.37166 12.9873 7.89709 13.0821 8.42673 13.0814C9.52255 13.0782 10.5805 12.68 11.4063 11.9597C12.2322 11.2394 12.7706 10.2455 12.9226 9.16025C13.0747 8.07503 12.8303 6.97136 12.2342 6.05183C11.6382 5.1323 10.7305 4.45859 9.67773 4.15436C9.27082 4.04066 8.85022 3.98345 8.42773 3.98436C7.35852 3.98331 6.32319 4.35932 5.50385 5.04625C4.68451 5.73319 4.13365 6.68705 3.94816 7.74004C3.76266 8.79303 3.95443 9.87771 4.48972 10.8033C5.025 11.7288 5.86952 12.436 6.87473 12.8004L6.87573 12.8014ZM34.8997 8.52736C34.9005 9.73474 35.3804 10.8925 36.2341 11.7463C37.0877 12.6001 38.2453 13.0803 39.4527 13.0814C40.0143 13.082 40.571 12.9768 41.0937 12.7714C41.7645 12.5131 42.3641 12.0987 42.8428 11.5626C43.3215 11.0264 43.6657 10.384 43.8467 9.68836C43.9475 9.30998 43.998 8.91994 43.9967 8.52836C43.9973 7.93148 43.8801 7.34036 43.6519 6.78882C43.4237 6.23728 43.089 5.73615 42.667 5.31409C42.2449 4.89204 41.7438 4.55735 41.1923 4.32918C40.6407 4.10101 40.0496 3.98383 39.4527 3.98436C39.0575 3.98237 38.6637 4.03281 38.2817 4.13436C37.5898 4.32039 36.9512 4.66635 36.4174 5.14435C35.8837 5.62236 35.4697 6.21905 35.2087 6.88636C35.0033 7.40906 34.8982 7.96575 34.8987 8.52736H34.8997ZM13.0607 39.4734C13.0597 38.2659 12.5795 37.1082 11.7257 36.2544C10.8719 35.4006 9.7142 34.9204 8.50673 34.9194C7.95582 34.9156 7.4093 35.0174 6.89673 35.2194C6.2258 35.4723 5.62454 35.881 5.14244 36.4118C4.66035 36.9426 4.31119 37.5803 4.12373 38.2724C4.01882 38.6641 3.96504 39.0678 3.96373 39.4734C3.9632 40.0701 4.08034 40.6612 4.30845 41.2127C4.53656 41.7641 4.87116 42.2652 5.29311 42.6873C5.71506 43.1093 6.21607 43.444 6.7675 43.6723C7.31892 43.9005 7.90994 44.0178 8.50673 44.0174C8.90895 44.0154 9.30925 43.9616 9.69773 43.8574C10.6623 43.5981 11.5146 43.0281 12.1225 42.2355C12.7305 41.443 13.0602 40.4722 13.0607 39.4734V39.4734ZM41.0937 35.2304C40.571 35.0249 40.0143 34.9198 39.4527 34.9204C38.2454 34.9214 37.0879 35.4014 36.2341 36.255C35.3803 37.1086 34.9 38.2661 34.8987 39.4734C34.8982 40.035 35.0033 40.5917 35.2087 41.1144C35.4695 41.7819 35.8835 42.3787 36.4173 42.8569C36.951 43.3351 37.5897 43.6812 38.2817 43.8674C38.6634 43.9689 39.0568 44.0193 39.4517 44.0174C40.0487 44.018 40.6399 43.9009 41.1916 43.6728C41.7432 43.4447 42.2445 43.11 42.6666 42.688C43.0888 42.2659 43.4236 41.7647 43.6518 41.2131C43.88 40.6615 43.9973 40.0703 43.9967 39.4734C43.998 39.0818 43.9475 38.6917 43.8467 38.3134C43.6658 37.6176 43.3218 36.9749 42.843 36.4386C42.3642 35.9023 41.7646 35.4878 41.0937 35.2294V35.2304ZM23.9797 32.0074C21.9481 32.0041 19.9936 31.2289 18.512 29.8389C17.0304 28.4488 16.1324 26.5476 15.9997 24.5204L16.8497 25.4904C17.1158 25.7761 17.4826 25.947 17.8725 25.9668C18.2624 25.9867 18.6447 25.854 18.9384 25.5968C19.2321 25.3396 19.4142 24.9782 19.446 24.5891C19.4778 24.2 19.3568 23.8138 19.1087 23.5124L15.6017 19.5064C15.4608 19.3457 15.2871 19.217 15.0924 19.1288C14.8977 19.0406 14.6865 18.995 14.4727 18.995C14.259 18.995 14.0477 19.0406 13.853 19.1288C13.6583 19.217 13.4847 19.3457 13.3437 19.5064L9.83573 23.5064C9.69808 23.6533 9.59138 23.8265 9.52199 24.0155C9.45259 24.2045 9.42192 24.4056 9.43178 24.6067C9.44164 24.8078 9.49184 25.0049 9.5794 25.1862C9.66696 25.3676 9.79008 25.5294 9.94145 25.6622C10.0928 25.795 10.2693 25.896 10.4605 25.9592C10.6517 26.0224 10.8537 26.0465 11.0544 26.0301C11.255 26.0137 11.4504 25.9571 11.6288 25.8637C11.8072 25.7703 11.9649 25.642 12.0927 25.4864L12.9937 24.4594C13.113 27.2945 14.3221 29.9742 16.3688 31.9398C18.4156 33.9053 21.142 35.0049 23.9797 35.0094C24.3778 35.0094 24.7596 34.8512 25.0411 34.5697C25.3226 34.2882 25.4807 33.9064 25.4807 33.5084C25.4807 33.1103 25.3226 32.7285 25.0411 32.447C24.7596 32.1655 24.3778 32.0074 23.9797 32.0074V32.0074ZM23.9797 15.9944C26.0115 15.9977 27.9661 16.7729 29.4478 18.1632C30.9294 19.5535 31.8273 21.4549 31.9597 23.4824L31.1097 22.5114C30.8474 22.2118 30.4769 22.0287 30.0796 22.0024C29.6823 21.976 29.2908 22.1086 28.9912 22.3709C28.6917 22.6332 28.5086 23.0037 28.4822 23.401C28.4559 23.7983 28.5884 24.1898 28.8507 24.4894L32.3577 28.4944C32.4986 28.6553 32.6723 28.7843 32.8671 28.8727C33.0619 28.9611 33.2733 29.0068 33.4872 29.0068C33.7011 29.0068 33.9126 28.9611 34.1074 28.8727C34.3022 28.7843 34.4758 28.6553 34.6167 28.4944L38.1237 24.4934C38.386 24.1939 38.5186 23.8026 38.4924 23.4054C38.4661 23.0082 38.2832 22.6377 37.9837 22.3754C37.6843 22.1131 37.2929 21.9805 36.8957 22.0067C36.4985 22.033 36.128 22.2159 35.8657 22.5154L34.9657 23.5414C34.8464 20.7062 33.6374 18.0265 31.5906 16.061C29.5439 14.0954 26.8174 12.9958 23.9797 12.9914C23.5815 12.9914 23.1996 13.1496 22.918 13.4311C22.6364 13.7127 22.4782 14.0946 22.4782 14.4929C22.4782 14.8911 22.6364 15.273 22.918 15.5546C23.1996 15.8362 23.5815 15.9944 23.9797 15.9944V15.9944Z" fill="#011E41"/>
</g>
<defs>
<clipPath id="clip0_74_557">
<rect width="48" height="48" fill="white"/>
</clipPath>
</defs>
</svg>
