<svg width="48" height="48" viewBox="0 0 48 48" fill="none" xmlns="http://www.w3.org/2000/svg">
<path d="M4.02123 29.9688H43.9796C44.509 29.9672 45.0163 29.7562 45.3906 29.3819C45.7649 29.0075 45.9759 28.5003 45.9775 27.9709V1.99792C45.9759 1.46852 45.7649 0.961264 45.3906 0.586923C45.0163 0.212583 44.509 0.00158108 43.9796 0L4.02123 0C3.49183 0.00158108 2.98457 0.212583 2.61023 0.586923C2.23589 0.961264 2.02489 1.46852 2.02331 1.99792V27.9709C2.02489 28.5003 2.23589 29.0075 2.61023 29.3819C2.98457 29.7562 3.49183 29.9672 4.02123 29.9688ZM6.01915 3.99584H41.9817V25.9729H6.01915V3.99584ZM45.7278 32.9657H2.27305C1.67718 32.9665 1.10594 33.2035 0.68459 33.6249C0.263244 34.0462 0.0261835 34.6174 0.0253906 35.2133V45.7623C0.0282948 46.3566 0.266351 46.9256 0.687526 47.3449C1.1087 47.7642 1.67874 47.9997 2.27305 48H45.7278C46.3221 47.9997 46.8921 47.7642 47.3133 47.3449C47.7345 46.9256 47.9725 46.3566 47.9754 45.7623V35.2133C47.9747 34.6174 47.7376 34.0462 47.3162 33.6249C46.8949 33.2035 46.3237 32.9665 45.7278 32.9657V32.9657ZM19.5051 40.9573H5.51967C5.12226 40.9573 4.74112 40.7995 4.46011 40.5185C4.1791 40.2374 4.02123 39.8563 4.02123 39.4589C4.02123 39.0615 4.1791 38.6804 4.46011 38.3993C4.74112 38.1183 5.12226 37.9605 5.51967 37.9605H19.5051C19.9025 37.9605 20.2836 38.1183 20.5647 38.3993C20.8457 38.6804 21.0035 39.0615 21.0035 39.4589C21.0035 39.8563 20.8457 40.2374 20.5647 40.5185C20.2836 40.7995 19.9025 40.9573 19.5051 40.9573ZM41.4822 41.9563C40.9883 41.9563 40.5054 41.8098 40.0947 41.5354C39.684 41.261 39.3639 40.8709 39.1749 40.4146C38.9859 39.9583 38.9364 39.4561 39.0328 38.9717C39.1292 38.4872 39.367 38.0422 39.7163 37.693C40.0655 37.3437 40.5105 37.1058 40.995 37.0095C41.4794 36.9131 41.9816 36.9626 42.4379 37.1516C42.8943 37.3406 43.2843 37.6607 43.5587 38.0714C43.8331 38.4821 43.9796 38.965 43.9796 39.4589C43.9793 40.1212 43.7161 40.7562 43.2478 41.2245C42.7795 41.6928 42.1445 41.956 41.4822 41.9563Z" fill="#011E41"/>
</svg>
