<svg width="48" height="48" viewBox="0 0 48 48" fill="none" xmlns="http://www.w3.org/2000/svg">
<g clip-path="url(#clip0_74_693)">
<path d="M24.001 29.001C26.7624 29.001 29.001 26.7624 29.001 24.001C29.001 21.2396 26.7624 19.001 24.001 19.001C21.2396 19.001 19.001 21.2396 19.001 24.001C19.001 26.7624 21.2396 29.001 24.001 29.001Z" fill="#011E41"/>
<path d="M24.0006 16.0006C24.7962 16.0006 25.5593 15.6845 26.1219 15.1219C26.6845 14.5593 27.0006 13.7962 27.0006 13.0006V3.00056C27.0006 2.20491 26.6845 1.44185 26.1219 0.879239C25.5593 0.31663 24.7962 0.000559127 24.0006 0.000559127C23.2049 0.000559127 22.4418 0.31663 21.8792 0.879239C21.3166 1.44185 21.0006 2.20491 21.0006 3.00056V13.0006C21.0006 13.7962 21.3166 14.5593 21.8792 15.1219C22.4418 15.6845 23.2049 16.0006 24.0006 16.0006ZM18.1106 18.1106C18.393 17.8283 18.617 17.4931 18.7698 17.1242C18.9227 16.7553 19.0014 16.3599 19.0014 15.9606C19.0014 15.5612 18.9227 15.1658 18.7698 14.7969C18.617 14.428 18.393 14.0929 18.1106 13.8106L5.19056 0.890559C4.62034 0.320344 3.84697 -6.0082e-09 3.04056 0C2.23415 6.0082e-09 1.46077 0.320344 0.890559 0.890559C0.320344 1.46077 6.0082e-09 2.23415 0 3.04056C-6.0082e-09 3.84697 0.320344 4.62034 0.890559 5.19056L13.8106 18.1106C14.0929 18.393 14.428 18.617 14.7969 18.7698C15.1658 18.9227 15.5612 19.0014 15.9606 19.0014C16.3599 19.0014 16.7553 18.9227 17.1242 18.7698C17.4931 18.617 17.8283 18.393 18.1106 18.1106V18.1106Z" fill="#011E41"/>
<path d="M13.014 21.001H6.98798C5.3383 21.001 4.00098 22.3383 4.00098 23.988V24.014C4.00098 25.6637 5.3383 27.001 6.98798 27.001H13.014C14.6637 27.001 16.001 25.6637 16.001 24.014V23.988C16.001 22.3383 14.6637 21.001 13.014 21.001Z" fill="#011E41"/>
<path d="M14.084 29.8445L4.84402 39.0845C4.30404 39.6248 4.00079 40.3574 4.00098 41.1212C4.00116 41.8851 4.30478 42.6175 4.84502 43.1575C5.38527 43.6975 6.11789 44.0007 6.88173 44.0006C7.64557 44.0004 8.37804 43.6968 8.91802 43.1565L18.158 33.9165C18.698 33.3763 19.0013 32.6436 19.0011 31.8798C19.0009 31.116 18.6973 30.3835 18.157 29.8435C17.8895 29.5761 17.572 29.3641 17.2225 29.2194C16.8731 29.0748 16.4985 29.0004 16.1203 29.0005C15.3565 29.0006 14.624 29.3043 14.084 29.8445V29.8445ZM23.989 32.0005C23.1934 32.0005 22.4303 32.3166 21.8677 32.8792C21.3051 33.4418 20.989 34.2049 20.989 35.0005V45.0005C20.989 45.7962 21.3051 46.5592 21.8677 47.1218C22.4303 47.6844 23.1934 48.0005 23.989 48.0005C24.7847 48.0005 25.5477 47.6844 26.1103 47.1218C26.673 46.5592 26.989 45.7962 26.989 45.0005V35.0005C26.989 34.2049 26.673 33.4418 26.1103 32.8792C25.5477 32.3166 24.7847 32.0005 23.989 32.0005ZM33.959 29.8855C33.4189 29.3454 32.6864 29.042 31.9225 29.042C31.1587 29.042 30.4261 29.3454 29.886 29.8855C29.3459 30.4256 29.0425 31.1582 29.0425 31.922C29.0425 32.6858 29.3459 33.4184 29.886 33.9585L35.043 39.1155C35.5831 39.6556 36.3157 39.9591 37.0795 39.9591C37.8434 39.9591 38.5759 39.6556 39.116 39.1155C39.6561 38.5754 39.9596 37.8428 39.9596 37.079C39.9596 36.3152 39.6561 35.5826 39.116 35.0425L33.959 29.8855ZM44.809 21.0005H35.193C34.3732 20.9749 33.5767 21.2755 32.9783 21.8364C32.3799 22.3974 32.0284 23.1728 32.001 23.9925C32.0282 24.8124 32.3795 25.5881 32.978 26.1492C33.5764 26.7104 34.3731 27.0111 35.193 26.9855H44.809C45.629 27.0111 46.4256 26.7104 47.0241 26.1492C47.6225 25.5881 47.9739 24.8124 48.001 23.9925C47.9736 23.1728 47.6221 22.3974 47.0237 21.8364C46.4253 21.2755 45.6288 20.9749 44.809 21.0005V21.0005ZM33.83 18.1565L37.157 14.9165C37.684 14.3737 37.9763 13.6454 37.9707 12.8889C37.9651 12.1324 37.662 11.4084 37.127 10.8736C36.592 10.3387 35.868 10.0358 35.1115 10.0303C34.3549 10.0249 33.6267 10.3174 33.084 10.8445L29.844 14.0845C29.3042 14.6246 29.001 15.3569 29.001 16.1205C29.001 16.8841 29.3042 17.6164 29.844 18.1565C30.1027 18.4235 30.4125 18.6359 30.7548 18.7808C31.0972 18.9258 31.4652 19.0006 31.837 19.0006C32.2088 19.0006 32.5768 18.9258 32.9192 18.7808C33.2616 18.6359 33.5713 18.4235 33.83 18.1565V18.1565Z" fill="#011E41"/>
</g>
<defs>
<clipPath id="clip0_74_693">
<rect width="48" height="48" fill="white"/>
</clipPath>
</defs>
</svg>
