<svg width="48" height="48" viewBox="0 0 48 48" fill="none" xmlns="http://www.w3.org/2000/svg">
<path d="M45.25 7.28399e-07H2.75C2.38879 -0.000262256 2.03107 0.0706891 1.69731 0.208796C1.36355 0.346904 1.06028 0.549457 0.804871 0.804871C0.549457 1.06028 0.346904 1.36355 0.208796 1.69731C0.0706891 2.03107 -0.000262256 2.38879 7.28399e-07 2.75V45.25C-0.000262256 45.6112 0.0706891 45.9689 0.208796 46.3027C0.346904 46.6365 0.549457 46.9397 0.804871 47.1951C1.06028 47.4505 1.36355 47.6531 1.69731 47.7912C2.03107 47.9293 2.38879 48.0003 2.75 48H45.25C45.6112 48.0003 45.9689 47.9293 46.3027 47.7912C46.6365 47.6531 46.9397 47.4505 47.1951 47.1951C47.4505 46.9397 47.6531 46.6365 47.7912 46.3027C47.9293 45.9689 48.0003 45.6112 48 45.25V2.75C48.0003 2.38879 47.9293 2.03107 47.7912 1.69731C47.6531 1.36355 47.4505 1.06028 47.1951 0.804871C46.9397 0.549457 46.6365 0.346904 46.3027 0.208796C45.9689 0.0706891 45.6112 -0.000262256 45.25 7.28399e-07V7.28399e-07ZM44 44H4V4H44V44Z" fill="#011E41"/>
<path d="M13.3538 40.6695C13.9633 41.0082 14.6823 41.0909 15.3528 40.8994C16.0232 40.7079 16.5901 40.258 16.9288 39.6485L21.7018 31.1465L29.7558 40.1185C29.7738 40.1385 29.7958 40.1525 29.8148 40.1715C29.8758 40.2375 29.9448 40.2945 30.0118 40.3535C30.0758 40.4085 30.1378 40.4655 30.2058 40.5135C30.2738 40.5615 30.3478 40.6005 30.4208 40.6435C30.4958 40.6855 30.5688 40.7305 30.6468 40.7655C30.7228 40.7995 30.8018 40.8235 30.8808 40.8505C30.9621 40.8804 31.0449 40.9061 31.1288 40.9275C31.2078 40.9455 31.2888 40.9535 31.3698 40.9645C31.4606 40.9785 31.5521 40.9878 31.6438 40.9925C31.6698 40.9925 31.6948 41.0005 31.7218 41.0005H38.2948C39.0004 41.0033 39.679 40.7294 40.185 40.2375C40.6909 39.7456 40.9838 39.0749 41.0008 38.3695V24.0465C40.9836 21.9101 40.1221 19.8672 38.6042 18.3638C37.0863 16.8603 35.0353 16.0183 32.8988 16.0215H31.7218C31.0148 16.0183 30.3346 16.2916 29.8262 16.7829C29.3179 17.2743 29.0217 17.9448 29.0008 18.6515V31.4535L23.1698 24.8805C22.8907 24.5667 22.5404 24.3242 22.1484 24.1735C21.7563 24.0227 21.3339 23.9681 20.9164 24.0141C20.4989 24.0601 20.0985 24.2055 19.7487 24.438C19.3989 24.6705 19.1099 24.9834 18.9058 25.3505L12.3328 37.0935C11.9943 37.7029 11.9116 38.4218 12.1029 39.0921C12.2941 39.7625 12.7437 40.3295 13.3528 40.6685L13.3538 40.6695Z" fill="#011E41"/>
<path d="M24.5 16.001C26.9853 16.001 29 13.9863 29 11.501C29 9.0157 26.9853 7.00098 24.5 7.00098C22.0147 7.00098 20 9.0157 20 11.501C20 13.9863 22.0147 16.001 24.5 16.001Z" fill="#011E41"/>
</svg>
