<?xml version="1.0" encoding="utf-8"?>
<!-- Generator: Adobe Illustrator 19.2.1, SVG Export Plug-In . SVG Version: 6.00 Build 0)  -->
<svg version="1.1" id="layer" xmlns="http://www.w3.org/2000/svg" xmlns:xlink="http://www.w3.org/1999/xlink" x="0px" y="0px"
	 viewBox="0 0 652 652" style="enable-background:new 0 0 652 652;" xml:space="preserve">
<style type="text/css">
	.st0{fill:#006773;}
	.st1{fill:#DADC00;}
</style>
<g>
	<path class="st0" d="M555.4,337.7c2.5,3,23.4,27.3,27.3,30.7c4,3.6,9.1,5.4,14.9,5.4c10.5,0,21.7-6.4,26.1-14.8
		c2-3.8,3.5-9.7-0.9-16.1c-1.5-2.1-4.7-6.1-8.1-10.3c-5.4-6.7-10.9-13.6-12.1-16c-2.4-4.7-0.6-7,1.8-10.1c0.3-0.4,0.6-0.8,0.9-1.2
		c0.9-1.2,2.5-3.3,4.5-5.9c5-6.5,11.8-15.4,13.9-18.1c3.5-4.5,4.1-9.7,1.7-14.6c-3.8-7.7-14-13.4-24.3-13.4c-6.1,0-12,1.9-16.9,5.6
		c-3.3,2.5-24.9,24.4-31.5,31.4c0.4,0.5,0.9,1,1.4,1.5c4,4.4,8.2,8.9,13.6,8.9h0.2c6-0.1,17.2-12,26.1-21.5c1.8-1.9,3.4-3.7,5-5.2
		c2.5-2.5,5.1-3.1,6.9-3.1c3.4,0,6.5,1.9,7.8,4.9c1.4,3.1,0.6,6.8-2.2,10c-5.3,6.2-6.2,7.3-10,12l-2.3,2.9c-0.3,0.4-0.8,0.9-1.4,1.6
		c-2.2,2.4-6.3,7-6.6,9.6c-0.2,1.8,0.5,5.1,5.3,10.3c0.1,0.2,0.2,0.3,0.3,0.3c2.1,2.6,8.6,10.7,11.7,14.6c1,1.2,1.7,2.1,1.9,2.3
		c2.5,3.1,3.1,6.6,1.6,9.7c-1.3,2.7-4,4.4-7,4.4c-2.3,0-4.5-1-6.3-2.9c-2-2-4.4-5-6.9-8.1c-6.3-7.6-14.1-17.1-18.8-17.1H573
		C565.7,325.8,557,335.8,555.4,337.7"/>
	<path class="st1" d="M523.2,280.3c-10.5,0-21.7,6.4-26.1,14.8c-2,3.8-3.5,9.7,0.9,16.1c1.5,2.1,4.7,6.1,8.1,10.4
		c5.4,6.7,10.9,13.6,12.1,16c2.4,4.7,0.6,7-1.8,10.1c-0.3,0.4-0.6,0.8-0.9,1.2c-0.9,1.1-2.4,3.1-4.3,5.6c-4.8,6.3-12,15.7-14.2,18.5
		c-3.5,4.5-4.1,9.7-1.7,14.6c3.8,7.8,14,13.4,24.3,13.4c6.2,0,12-1.9,16.9-5.6c3.3-2.5,24.9-24.4,31.5-31.4c-0.5-0.5-0.9-1-1.4-1.5
		c-4-4.4-8.2-9-13.6-9l-0.2,0c-6,0.1-17.2,11.9-26.1,21.5c-1.8,1.9-3.4,3.6-5,5.2c-2.5,2.6-5.1,3.1-6.9,3.1c-3.4,0-6.5-1.9-7.8-4.9
		c-1.4-3.1-0.6-6.8,2.2-10c5.3-6.1,6.2-7.3,9.9-12l2.3-3c0.3-0.4,0.8-0.9,1.4-1.6c2.2-2.4,6.3-7,6.6-9.6c0.2-1.8-0.5-5.1-5.3-10.3
		c-0.1-0.2-0.2-0.3-0.3-0.3c-2-2.6-8.2-10.3-11.6-14.4c-1.1-1.4-1.8-2.3-2-2.5c-2.5-3.1-3.1-6.6-1.6-9.7c1.3-2.7,4-4.4,6.9-4.4
		c2.3,0,4.5,1,6.3,2.9c2,2,4.4,5,6.9,8.1c6.3,7.6,14.1,17.1,18.8,17.1h0.1c7.2-0.2,16-10.2,17.6-12.1c-2.5-3-23.4-27.3-27.3-30.7
		C534,282.2,528.9,280.3,523.2,280.3"/>
	<path class="st0" d="M50.6,325.5c3.6,0,6.3,0.7,8.7,2.2c0.9,0.6,1.9,0.9,2.8,0.9c2.5,0,4.7-2.1,4.7-4.5c0-5.7-11.1-7.6-16.2-7.6
		c-14.8,0-23.7,8.8-23.7,23.6c0,14.9,8.8,23.8,23.7,23.8c5.6,0,16.2-2.3,16.2-7.7c0-2.5-2-4.5-4.4-4.5c-1.2,0-2.1,0.3-3.1,0.9
		c-2.5,1.6-5.2,2.3-8.7,2.3c-9.7,0-14.2-4.7-14.2-14.7C36.4,330.1,40.9,325.5,50.6,325.5"/>
	<path class="st0" d="M96,316.4c-13.7,0-22.8,9.5-22.8,23.5c0,13.8,9.6,23.9,22.8,23.9c13.2,0,23.2-10.3,23.2-23.9
		C119.3,326.1,109.7,316.4,96,316.4 M96,354.8c-8.1,0-13.3-5.8-13.3-14.8c0-8.7,5.4-14.5,13.3-14.5c7.9,0,13.7,6.1,13.7,14.5
		C109.7,348.7,104.1,354.8,96,354.8"/>
	<path class="st0" d="M147,317.3h-19.2v41.9c0,3.1,1.6,4.6,4.8,4.6c3,0,4.6-1.6,4.6-4.6v-32.7h10.5c5.4,0,8,2.4,8,7.4v25.3
		c0,3,1.6,4.6,4.6,4.6c3.2,0,4.8-1.6,4.8-4.6v-25.3C165.1,323.8,158,317.3,147,317.3"/>
	<path class="st0" d="M193.9,317.3h-19.2v41.9c0,3.1,1.6,4.6,4.8,4.6c3,0,4.6-1.6,4.6-4.6v-32.7h10.5c5.4,0,8,2.4,8,7.4v25.3
		c0,3,1.6,4.6,4.6,4.6c3.2,0,4.8-1.6,4.8-4.6v-25.3C212,323.8,204.9,317.3,193.9,317.3"/>
	<path class="st0" d="M242.3,316.4c-14.2,0-22.4,8.7-22.4,23.8c0,6.8,2.2,13.4,6.2,17.3c4.1,4.1,10.2,6.2,17.6,6.2h13.7
		c3.1,0,4.7-1.6,4.7-4.6c0-2.9-1.6-4.4-4.7-4.4h-13.7c-7.6,0-12.6-4.1-14.1-10.2H264v-4.2C264,324.9,256.3,316.4,242.3,316.4
		 M229.7,336.5c1.1-7.6,5.4-11.5,12.7-11.5c7,0,11.3,4,12.3,11.5H229.7z"/>
	<path class="st0" d="M293.4,339l11.8-15.3c0.6-0.9,0.9-1.8,0.9-2.7c0-2.4-2.3-4.5-5-4.5c-1.6,0-2.8,0.7-3.8,2.1l-9.3,13.2
		l-9.2-13.2c-0.9-1.4-2.2-2.1-3.8-2.1c-2.7,0-5,2.1-5,4.5c0,0.9,0.3,1.8,0.9,2.7l11.8,15.3l-13.6,17.7c-0.6,0.9-0.9,1.8-0.9,2.6
		c0,2.4,2.3,4.6,4.9,4.6c1.5,0,2.8-0.7,3.8-2l11.1-15.7l11.2,15.7c1,1.3,2.2,2,3.8,2c2.6,0,4.9-2.2,4.9-4.6c0-0.8-0.3-1.7-0.9-2.7
		L293.4,339z"/>
	<path class="st0" d="M337,339l11.8-15.3c0.6-0.9,0.9-1.8,0.9-2.7c0-2.4-2.3-4.5-5-4.5c-1.6,0-2.8,0.7-3.8,2.1l-9.3,13.2l-9.2-13.2
		c-0.9-1.4-2.2-2.1-3.8-2.1c-2.7,0-5,2.1-5,4.5c0,0.9,0.3,1.8,0.9,2.7l11.8,15.3l-13.6,17.7c-0.6,0.9-0.9,1.8-0.9,2.6
		c0,2.4,2.3,4.6,4.9,4.6c1.5,0,2.8-0.7,3.8-2l11.1-15.7l11.2,15.7c1,1.3,2.2,2,3.8,2c2.6,0,4.9-2.2,4.9-4.6c0-0.8-0.3-1.7-0.9-2.7
		L337,339z"/>
	<path class="st0" d="M363.7,316.4c-3.1,0-4.7,1.6-4.7,4.5v38.3c0,3,1.6,4.6,4.7,4.6c3.2,0,4.8-1.6,4.8-4.6v-38.3
		C368.5,318,366.9,316.4,363.7,316.4"/>
	<path class="st0" d="M400.6,316.4c-13.7,0-22.8,9.5-22.8,23.5c0,13.8,9.6,23.9,22.8,23.9c13.2,0,23.2-10.3,23.2-23.9
		C423.8,326.1,414.2,316.4,400.6,316.4 M400.6,354.8c-8.1,0-13.3-5.8-13.3-14.8c0-8.7,5.4-14.5,13.3-14.5c7.9,0,13.7,6.1,13.7,14.5
		C414.3,348.7,408.6,354.8,400.6,354.8"/>
	<path class="st0" d="M451.5,317.3h-19.2v41.9c0,3.1,1.6,4.6,4.8,4.6c3,0,4.6-1.6,4.6-4.6v-32.7h10.5c5.4,0,8,2.4,8,7.4v25.3
		c0,3,1.6,4.6,4.6,4.6c3.2,0,4.8-1.6,4.8-4.6v-25.3C469.7,323.8,462.6,317.3,451.5,317.3"/>
</g>
</svg>
