<svg width="48" height="48" viewBox="0 0 48 48" fill="none" xmlns="http://www.w3.org/2000/svg">
<path d="M24.0007 29.9936C27.311 29.9936 29.9946 27.31 29.9946 23.9997C29.9946 20.6894 27.311 18.0059 24.0007 18.0059C20.6904 18.0059 18.0068 20.6894 18.0068 23.9997C18.0068 27.31 20.6904 29.9936 24.0007 29.9936Z" fill="#011E41"/>
<path d="M31.9918 18.0061H40.9826C41.5125 18.0061 42.0207 17.7956 42.3954 17.421C42.7701 17.0463 42.9806 16.5381 42.9806 16.0082C42.9806 15.4783 42.7701 14.9701 42.3954 14.5954C42.0207 14.2207 41.5125 14.0102 40.9826 14.0102H36.8149L47.3901 3.43506C47.5809 3.25075 47.7331 3.03029 47.8378 2.78653C47.9425 2.54277 47.9976 2.2806 47.9999 2.01532C48.0022 1.75003 47.9517 1.48694 47.8512 1.2414C47.7508 0.995856 47.6024 0.772781 47.4148 0.585187C47.2272 0.397594 47.0041 0.24924 46.7586 0.148781C46.5131 0.0483218 46.25 -0.00222984 45.9847 7.54363e-05C45.7194 0.00238071 45.4572 0.0574967 45.2135 0.162208C44.9697 0.266918 44.7492 0.419127 44.5649 0.609952L33.9898 11.1851V7.01739C33.9898 6.4875 33.7793 5.97931 33.4046 5.60462C33.0299 5.22993 32.5217 5.01944 31.9918 5.01944C31.4619 5.01944 30.9537 5.22993 30.5791 5.60462C30.2044 5.97931 29.9939 6.4875 29.9939 7.01739V16.0082C29.9939 16.5381 30.2044 17.0463 30.5791 17.421C30.9537 17.7956 31.4619 18.0061 31.9918 18.0061ZM11.1851 14.0102H7.01739C6.4875 14.0102 5.97931 14.2207 5.60462 14.5954C5.22993 14.9701 5.01944 15.4783 5.01944 16.0082C5.01944 16.5381 5.22993 17.0463 5.60462 17.421C5.97931 17.7956 6.4875 18.0061 7.01739 18.0061H16.0082C16.5381 18.0061 17.0463 17.7956 17.421 17.421C17.7956 17.0463 18.0061 16.5381 18.0061 16.0082V7.01739C18.0061 6.4875 17.7956 5.97931 17.421 5.60462C17.0463 5.22993 16.5381 5.01944 16.0082 5.01944C15.4783 5.01944 14.9701 5.22993 14.5954 5.60462C14.2207 5.97931 14.0102 6.4875 14.0102 7.01739V11.1851L3.43506 0.609952C3.05824 0.246008 2.55355 0.0446258 2.0297 0.049178C1.50584 0.0537302 1.00473 0.263853 0.63429 0.63429C0.263853 1.00473 0.0537302 1.50584 0.049178 2.0297C0.0446258 2.55355 0.246008 3.05824 0.609952 3.43506L11.1851 14.0102ZM36.8149 33.9898H40.9826C41.5125 33.9898 42.0207 33.7793 42.3954 33.4046C42.7701 33.0299 42.9806 32.5217 42.9806 31.9918C42.9806 31.4619 42.7701 30.9537 42.3954 30.5791C42.0207 30.2044 41.5125 29.9939 40.9826 29.9939H31.9918C31.4619 29.9939 30.9537 30.2044 30.5791 30.5791C30.2044 30.9537 29.9939 31.4619 29.9939 31.9918V40.9826C29.9939 41.5125 30.2044 42.0207 30.5791 42.3954C30.9537 42.7701 31.4619 42.9806 31.9918 42.9806C32.5217 42.9806 33.0299 42.7701 33.4046 42.3954C33.7793 42.0207 33.9898 41.5125 33.9898 40.9826V36.8149L44.5649 47.3901C44.9418 47.754 45.4464 47.9554 45.9703 47.9508C46.4942 47.9463 46.9953 47.7362 47.3657 47.3657C47.7362 46.9953 47.9463 46.4942 47.9508 45.9703C47.9554 45.4464 47.754 44.9418 47.3901 44.5649L36.8149 33.9898ZM16.0082 29.9939H7.01739C6.4875 29.9939 5.97931 30.2044 5.60462 30.5791C5.22993 30.9537 5.01944 31.4619 5.01944 31.9918C5.01944 32.5217 5.22993 33.0299 5.60462 33.4046C5.97931 33.7793 6.4875 33.9898 7.01739 33.9898H11.1851L0.609952 44.5649C0.419127 44.7492 0.266918 44.9697 0.162208 45.2135C0.0574967 45.4572 0.00238071 45.7194 7.54363e-05 45.9847C-0.00222984 46.25 0.0483218 46.5131 0.148781 46.7586C0.24924 47.0041 0.397594 47.2272 0.585187 47.4148C0.772781 47.6024 0.995856 47.7508 1.2414 47.8512C1.48694 47.9517 1.75003 48.0022 2.01532 47.9999C2.2806 47.9976 2.54277 47.9425 2.78653 47.8378C3.03029 47.7331 3.25075 47.5809 3.43506 47.3901L14.0102 36.8149V40.9826C14.0102 41.5125 14.2207 42.0207 14.5954 42.3954C14.9701 42.7701 15.4783 42.9806 16.0082 42.9806C16.5381 42.9806 17.0463 42.7701 17.421 42.3954C17.7956 42.0207 18.0061 41.5125 18.0061 40.9826V31.9918C18.0061 31.4619 17.7956 30.9537 17.421 30.5791C17.0463 30.2044 16.5381 29.9939 16.0082 29.9939V29.9939Z" fill="#011E41"/>
</svg>
