<svg width="48" height="48" viewBox="0 0 48 48" fill="none" xmlns="http://www.w3.org/2000/svg">
<path d="M40.5973 25.4695C40.8576 25.0234 40.9947 24.5162 40.9947 23.9997C40.9947 23.4833 40.8576 22.9761 40.5973 22.53C38.9042 19.6305 36.4809 17.2251 33.569 15.5535C30.657 13.8818 27.3579 13.0022 24.0003 13.0022C20.6426 13.0022 17.3435 13.8818 14.4315 15.5535C11.5196 17.2251 9.09635 19.6305 7.40319 22.53C7.14293 22.9761 7.00578 23.4833 7.00578 23.9997C7.00578 24.5162 7.14293 25.0234 7.40319 25.4695C9.09615 28.3692 11.5193 30.7749 14.4313 32.4467C17.3433 34.1186 20.6425 34.9983 24.0003 34.9983C27.358 34.9983 30.6572 34.1186 33.5692 32.4467C36.4812 30.7749 38.9044 28.3692 40.5973 25.4695V25.4695ZM24.0003 29.9987C22.8138 29.9987 21.6539 29.6469 20.6674 28.9877C19.6809 28.3285 18.912 27.3916 18.458 26.2954C18.0039 25.1993 17.8851 23.9931 18.1166 22.8294C18.3481 21.6657 18.9194 20.5968 19.7584 19.7579C20.5973 18.9189 21.6662 18.3475 22.8299 18.1161C23.9936 17.8846 25.1998 18.0034 26.296 18.4574C27.3921 18.9115 28.329 19.6804 28.9882 20.6669C29.6474 21.6534 29.9992 22.8133 29.9992 23.9997C29.9979 25.5904 29.3654 27.1154 28.2407 28.2402C27.116 29.3649 25.5909 29.9974 24.0003 29.9987V29.9987ZM36.498 13.0017H46.4963C46.894 13.0017 47.2755 12.8437 47.5568 12.5624C47.838 12.2812 47.996 11.8997 47.996 11.502C47.996 11.1042 47.838 10.7227 47.5568 10.4415C47.2755 10.1602 46.894 10.0022 46.4963 10.0022H40.1174L47.5301 2.58953C47.6758 2.45181 47.7923 2.2863 47.8729 2.10276C47.9535 1.91922 47.9965 1.72138 47.9994 1.52094C48.0022 1.3205 47.9648 1.12153 47.8894 0.935786C47.8141 0.75004 47.7022 0.581291 47.5605 0.439512C47.4188 0.297734 47.2501 0.185803 47.0644 0.110337C46.8787 0.0348706 46.6797 -0.00259994 46.4793 0.000140124C46.2788 0.00288019 46.081 0.0457752 45.8974 0.12629C45.7138 0.206804 45.5483 0.323304 45.4105 0.468904L37.9978 7.88159V1.50372C37.9978 1.10597 37.8398 0.724503 37.5585 0.443248C37.2773 0.161993 36.8958 0.00398599 36.498 0.00398599C36.1003 0.00398599 35.7188 0.161993 35.4376 0.443248C35.1563 0.724503 34.9983 1.10597 34.9983 1.50372V11.502C34.9983 11.8997 35.1563 12.2812 35.4376 12.5624C35.7188 12.8437 36.1003 13.0017 36.498 13.0017ZM0.00449981 11.502C0.00449981 11.8997 0.162507 12.2812 0.443762 12.5624C0.725017 12.8437 1.10648 13.0017 1.50423 13.0017H11.5025C11.9002 13.0017 12.2817 12.8437 12.5629 12.5624C12.8442 12.2812 13.0022 11.8997 13.0022 11.502V1.50372C13.0022 1.10597 12.8442 0.724503 12.5629 0.443248C12.2817 0.161993 11.9002 0.00398599 11.5025 0.00398599C11.1047 0.00398599 10.7232 0.161993 10.442 0.443248C10.1607 0.724503 10.0027 1.10597 10.0027 1.50372V7.88159L2.59104 0.468904C2.30739 0.200474 1.93021 0.0532789 1.53971 0.0586171C1.14922 0.0639553 0.776202 0.221406 0.499989 0.497489C0.223775 0.773573 0.0661489 1.14651 0.0606266 1.537C0.0551042 1.9275 0.202121 2.30475 0.470417 2.58853L7.88211 10.0022H1.50423C1.10648 10.0022 0.725017 10.1602 0.443762 10.4415C0.162507 10.7227 0.00449981 11.1042 0.00449981 11.502V11.502ZM47.996 36.4975C47.996 36.0998 47.838 35.7183 47.5568 35.4371C47.2755 35.1558 46.894 34.9978 46.4963 34.9978H36.498C36.1003 34.9978 35.7188 35.1558 35.4376 35.4371C35.1563 35.7183 34.9983 36.0998 34.9983 36.4975V46.4958C34.9983 46.8935 35.1563 47.275 35.4376 47.5562C35.7188 47.8375 36.1003 47.9955 36.498 47.9955C36.8958 47.9955 37.2773 47.8375 37.5585 47.5562C37.8398 47.275 37.9978 46.8935 37.9978 46.4958V40.1179L45.4095 47.5306C45.5472 47.6762 45.7127 47.7928 45.8962 47.8734C46.0798 47.954 46.2776 47.997 46.4781 47.9999C46.6785 48.0027 46.8775 47.9653 47.0632 47.8899C47.249 47.8146 47.4177 47.7027 47.5595 47.561C47.7013 47.4193 47.8132 47.2506 47.8887 47.0649C47.9641 46.8792 48.0016 46.6802 47.9989 46.4798C47.9961 46.2793 47.9532 46.0815 47.8727 45.8979C47.7922 45.7143 47.6757 45.5487 47.5301 45.411L40.1184 37.9973H46.4963C46.894 37.9973 47.2755 37.8393 47.5568 37.558C47.838 37.2768 47.996 36.8953 47.996 36.4975ZM11.5025 34.9978H1.50423C1.10648 34.9978 0.725017 35.1558 0.443762 35.4371C0.162507 35.7183 0.00449981 36.0998 0.00449981 36.4975C0.00449981 36.8953 0.162507 37.2768 0.443762 37.558C0.725017 37.8393 1.10648 37.9973 1.50423 37.9973H7.88311L0.469418 45.41C0.323753 45.5477 0.207175 45.7132 0.126574 45.8967C0.0459729 46.0803 0.00298455 46.2781 0.000149959 46.4785C-0.00268463 46.679 0.0346921 46.878 0.110071 47.0637C0.185449 47.2494 0.2973 47.4182 0.439012 47.56C0.580724 47.7018 0.749421 47.8137 0.935131 47.8892C1.12084 47.9646 1.3198 48.0021 1.52023 47.9993C1.72067 47.9966 1.91853 47.9537 2.10211 47.8732C2.28569 47.7927 2.45126 47.6762 2.58904 47.5306L10.0027 40.1179V46.4958C10.0027 46.8935 10.1607 47.275 10.442 47.5562C10.7232 47.8375 11.1047 47.9955 11.5025 47.9955C11.9002 47.9955 12.2817 47.8375 12.5629 47.5562C12.8442 47.275 13.0022 46.8935 13.0022 46.4958V36.4975C13.0022 36.0998 12.8442 35.7183 12.5629 35.4371C12.2817 35.1558 11.9002 34.9978 11.5025 34.9978Z" fill="#011E41"/>
</svg>
