<svg width="48" height="48" viewBox="0 0 48 48" fill="none" xmlns="http://www.w3.org/2000/svg">
<path d="M34.78 41C34.5732 41.0003 34.375 41.0825 34.2287 41.2287C34.0825 41.375 34.0003 41.5732 34 41.78V48L41 41H34.78ZM32 10V1C31.9992 0.735027 31.8936 0.481133 31.7062 0.293767C31.5189 0.106402 31.265 0.000791363 31 0L8 0C7.73503 0.000791363 7.48113 0.106402 7.29377 0.293767C7.1064 0.481133 7.00079 0.735027 7 1V34C7.00079 34.265 7.1064 34.5189 7.29377 34.7062C7.48113 34.8936 7.73503 34.9992 8 35H13V14C12.9999 13.4747 13.1032 12.9545 13.3042 12.4691C13.5052 11.9837 13.7998 11.5427 14.1713 11.1713C14.5427 10.7998 14.9837 10.5052 15.4691 10.3042C15.9545 10.1032 16.4747 9.99987 17 10H32Z" fill="#011E41"/>
<path d="M40 13H17C16.735 13.0008 16.4811 13.1064 16.2938 13.2938C16.1064 13.4811 16.0008 13.735 16 14V47C16.0008 47.265 16.1064 47.5189 16.2938 47.7062C16.4811 47.8936 16.735 47.9992 17 48H32V41.78C32.0018 41.0433 32.2953 40.3372 32.8163 39.8163C33.3372 39.2953 34.0433 39.0018 34.78 39H41V14C40.9992 13.735 40.8936 13.4811 40.7062 13.2938C40.5189 13.1064 40.265 13.0008 40 13V13ZM36 35H21C20.7348 35 20.4804 34.8946 20.2929 34.7071C20.1054 34.5196 20 34.2652 20 34C20 33.7348 20.1054 33.4804 20.2929 33.2929C20.4804 33.1054 20.7348 33 21 33H36C36.2652 33 36.5196 33.1054 36.7071 33.2929C36.8946 33.4804 37 33.7348 37 34C37 34.2652 36.8946 34.5196 36.7071 34.7071C36.5196 34.8946 36.2652 35 36 35ZM36 29H21C20.7348 29 20.4804 28.8946 20.2929 28.7071C20.1054 28.5196 20 28.2652 20 28C20 27.7348 20.1054 27.4804 20.2929 27.2929C20.4804 27.1054 20.7348 27 21 27H36C36.2652 27 36.5196 27.1054 36.7071 27.2929C36.8946 27.4804 37 27.7348 37 28C37 28.2652 36.8946 28.5196 36.7071 28.7071C36.5196 28.8946 36.2652 29 36 29ZM36 23H21C20.7348 23 20.4804 22.8946 20.2929 22.7071C20.1054 22.5196 20 22.2652 20 22C20 21.7348 20.1054 21.4804 20.2929 21.2929C20.4804 21.1054 20.7348 21 21 21H36C36.2652 21 36.5196 21.1054 36.7071 21.2929C36.8946 21.4804 37 21.7348 37 22C37 22.2652 36.8946 22.5196 36.7071 22.7071C36.5196 22.8946 36.2652 23 36 23Z" fill="#011E41"/>
</svg>
