<svg width="48" height="48" viewBox="0 0 48 48" fill="none" xmlns="http://www.w3.org/2000/svg">
<path d="M45 1.852C34.166 -1.196 23.334 5.35 12.5 2V22C23.334 25.349 34.166 18.932 45 21.98C45.0564 22.0033 45.1177 22.012 45.1783 22.0053C45.239 21.9986 45.2969 21.9766 45.3468 21.9415C45.3967 21.9064 45.4369 21.8592 45.4637 21.8044C45.4905 21.7496 45.503 21.6889 45.5 21.628V2.5C45.4927 2.35388 45.4409 2.21348 45.3515 2.09765C45.2622 1.98182 45.1395 1.8961 45 1.852V1.852ZM12.5 45H10.5V2C10.5 1.46957 10.2893 0.960859 9.91421 0.585786C9.53914 0.210714 9.03043 0 8.5 0C7.96957 0 7.46086 0.210714 7.08579 0.585786C6.71071 0.960859 6.5 1.46957 6.5 2V45H4.5C3.96957 45 3.46086 45.2107 3.08579 45.5858C2.71071 45.9609 2.5 46.4696 2.5 47L2.5 48H14.5V47C14.5 46.4696 14.2893 45.9609 13.9142 45.5858C13.5391 45.2107 13.0304 45 12.5 45Z" fill="#011E41"/>
</svg>
