<svg width="48" height="48" viewBox="0 0 48 48" fill="none" xmlns="http://www.w3.org/2000/svg">
<path d="M46.5 19C46.1022 19 45.7206 19.158 45.4393 19.4393C45.158 19.7206 45 20.1022 45 20.5V22H40.872C40.5069 18.8898 39.2848 15.9421 37.342 13.486L40.263 10.565L41.439 11.561C41.7204 11.8424 42.102 12.0005 42.5 12.0005C42.898 12.0005 43.2796 11.8424 43.561 11.561C43.8424 11.2796 44.0005 10.898 44.0005 10.5C44.0005 10.102 43.8424 9.72039 43.561 9.439L38.561 4.439C38.2796 4.15761 37.898 3.99952 37.5 3.99952C37.102 3.99952 36.7204 4.15761 36.439 4.439C36.1576 4.72039 35.9995 5.10205 35.9995 5.5C35.9995 5.89795 36.1576 6.27961 36.439 6.561L37.435 7.736L34.514 10.658C32.0578 8.71532 29.1102 7.49321 26 7.128V3H27.5C27.8978 3 28.2794 2.84196 28.5607 2.56066C28.842 2.27936 29 1.89782 29 1.5C29 1.10218 28.842 0.720644 28.5607 0.43934C28.2794 0.158035 27.8978 0 27.5 0L20.5 0C20.1022 0 19.7206 0.158035 19.4393 0.43934C19.158 0.720644 19 1.10218 19 1.5C19 1.89782 19.158 2.27936 19.4393 2.56066C19.7206 2.84196 20.1022 3 20.5 3H22V7.128C18.8898 7.49321 15.9422 8.71532 13.486 10.658L10.565 7.736L11.561 6.561C11.8424 6.27961 12.0005 5.89795 12.0005 5.5C12.0005 5.10205 11.8424 4.72039 11.561 4.439C11.2796 4.15761 10.898 3.99952 10.5 3.99952C10.102 3.99952 9.72039 4.15761 9.439 4.439L4.555 9.439C4.28163 9.72177 4.13025 10.1006 4.13348 10.4939C4.13672 10.8872 4.29429 11.2635 4.57227 11.5417C4.85026 11.82 5.2264 11.9779 5.6197 11.9815C6.01299 11.9851 6.39197 11.8341 6.675 11.561L7.737 10.565L10.657 13.486C8.71459 15.9422 7.49282 18.8899 7.128 22H3V20.5C3 20.1022 2.84196 19.7206 2.56066 19.4393C2.27936 19.158 1.89782 19 1.5 19C1.10218 19 0.720644 19.158 0.43934 19.4393C0.158035 19.7206 0 20.1022 0 20.5L0 27.5C0 27.8978 0.158035 28.2794 0.43934 28.5607C0.720644 28.842 1.10218 29 1.5 29C1.89782 29 2.27936 28.842 2.56066 28.5607C2.84196 28.2794 3 27.8978 3 27.5V26H7.128C7.49311 29.1102 8.71523 32.0579 10.658 34.514L7.737 37.435L6.561 36.439C6.42167 36.2997 6.25626 36.1891 6.07421 36.1137C5.89216 36.0383 5.69705 35.9995 5.5 35.9995C5.30295 35.9995 5.10784 36.0383 4.92579 36.1137C4.74374 36.1891 4.57833 36.2997 4.439 36.439C4.29967 36.5783 4.18914 36.7437 4.11374 36.9258C4.03833 37.1078 3.99952 37.303 3.99952 37.5C3.99952 37.697 4.03833 37.8922 4.11374 38.0742C4.18914 38.2563 4.29967 38.4217 4.439 38.561L9.439 43.561C9.57833 43.7003 9.74374 43.8109 9.92579 43.8863C10.1078 43.9617 10.303 44.0005 10.5 44.0005C10.697 44.0005 10.8922 43.9617 11.0742 43.8863C11.2563 43.8109 11.4217 43.7003 11.561 43.561C11.7003 43.4217 11.8109 43.2563 11.8863 43.0742C11.9617 42.8922 12.0005 42.697 12.0005 42.5C12.0005 42.303 11.9617 42.1078 11.8863 41.9258C11.8109 41.7437 11.7003 41.5783 11.561 41.439L10.565 40.264L13.486 37.342C15.9422 39.2847 18.8898 40.5068 22 40.872V45H20.5C20.1022 45 19.7206 45.158 19.4393 45.4393C19.158 45.7206 19 46.1022 19 46.5C19 46.8978 19.158 47.2794 19.4393 47.5607C19.7206 47.842 20.1022 48 20.5 48H27.5C27.8978 48 28.2794 47.842 28.5607 47.5607C28.842 47.2794 29 46.8978 29 46.5C29 46.1022 28.842 45.7206 28.5607 45.4393C28.2794 45.158 27.8978 45 27.5 45H26V40.872C29.1102 40.5068 32.0578 39.2847 34.514 37.342L37.435 40.264L36.439 41.439C36.2997 41.5783 36.1891 41.7437 36.1137 41.9258C36.0383 42.1078 35.9995 42.303 35.9995 42.5C35.9995 42.697 36.0383 42.8922 36.1137 43.0742C36.1891 43.2563 36.2997 43.4217 36.439 43.561C36.5783 43.7003 36.7437 43.8109 36.9258 43.8863C37.1078 43.9617 37.303 44.0005 37.5 44.0005C37.697 44.0005 37.8922 43.9617 38.0742 43.8863C38.2563 43.8109 38.4217 43.7003 38.561 43.561L43.561 38.561C43.7003 38.4217 43.8109 38.2563 43.8863 38.0742C43.9617 37.8922 44.0005 37.697 44.0005 37.5C44.0005 37.303 43.9617 37.1078 43.8863 36.9258C43.8109 36.7437 43.7003 36.5783 43.561 36.439C43.4217 36.2997 43.2563 36.1891 43.0742 36.1137C42.8922 36.0383 42.697 35.9995 42.5 35.9995C42.303 35.9995 42.1078 36.0383 41.9258 36.1137C41.7437 36.1891 41.5783 36.2997 41.439 36.439L40.263 37.435L37.343 34.514C39.2854 32.0578 40.5072 29.1101 40.872 26H45V27.5C45 27.8978 45.158 28.2794 45.4393 28.5607C45.7206 28.842 46.1022 29 46.5 29C46.8978 29 47.2794 28.842 47.5607 28.5607C47.842 28.2794 48 27.8978 48 27.5V20.5C48 20.1022 47.842 19.7206 47.5607 19.4393C47.2794 19.158 46.8978 19 46.5 19ZM18.5 20C17.8078 20 17.1311 19.7947 16.5555 19.4101C15.9799 19.0256 15.5313 18.4789 15.2664 17.8394C15.0015 17.1999 14.9322 16.4961 15.0673 15.8172C15.2023 15.1382 15.5356 14.5146 16.0251 14.0251C16.5146 13.5356 17.1383 13.2023 17.8172 13.0673C18.4961 12.9322 19.1999 13.0015 19.8394 13.2664C20.4789 13.5313 21.0256 13.9799 21.4101 14.5555C21.7947 15.1311 22 15.8078 22 16.5C22 17.4283 21.6313 18.3185 20.9749 18.9749C20.3185 19.6313 19.4283 20 18.5 20V20ZM30 33C29.6044 33 29.2178 32.8827 28.8889 32.6629C28.56 32.4432 28.3036 32.1308 28.1522 31.7654C28.0009 31.3999 27.9613 30.9978 28.0384 30.6098C28.1156 30.2219 28.3061 29.8655 28.5858 29.5858C28.8655 29.3061 29.2219 29.1156 29.6098 29.0384C29.9978 28.9613 30.3999 29.0009 30.7654 29.1522C31.1308 29.3036 31.4432 29.56 31.6629 29.8889C31.8827 30.2178 32 30.6044 32 31C32 31.5304 31.7893 32.0391 31.4142 32.4142C31.0391 32.7893 30.5304 33 30 33Z" fill="#011E41"/>
</svg>
