<svg width="48" height="48" viewBox="0 0 48 48" fill="none" xmlns="http://www.w3.org/2000/svg">
<path d="M40.3636 7.57135V6.5459L48 14.1823H41.2145C40.989 14.182 40.7727 14.0922 40.6132 13.9327C40.4537 13.7732 40.3639 13.5569 40.3636 13.3314V7.57135ZM48 16.3641V39.2732C48 39.8518 47.7701 40.4068 47.361 40.816C46.9518 41.2251 46.3968 41.455 45.8182 41.455H2.18182C1.60316 41.455 1.04821 41.2251 0.63904 40.816C0.22987 40.4068 0 39.8518 0 39.2732V8.72772C0 8.14906 0.22987 7.59411 0.63904 7.18494C1.04821 6.77577 1.60316 6.5459 2.18182 6.5459H38.1818V13.3314C38.1827 14.1354 38.5025 14.9063 39.071 15.4749C39.6396 16.0434 40.4105 16.3632 41.2145 16.3641H48ZM12 29.455V22.9095C12.0003 22.6203 12.1153 22.343 12.3198 22.1385C12.5244 21.9339 12.8017 21.8189 13.0909 21.8186H16.3636C16.653 21.8186 16.9304 21.7037 17.135 21.4991C17.3396 21.2945 17.4545 21.017 17.4545 20.7277C17.4545 20.4384 17.3396 20.1609 17.135 19.9563C16.9304 19.7517 16.653 19.6368 16.3636 19.6368H13.0909C12.2232 19.6377 11.3913 19.9828 10.7777 20.5963C10.1641 21.2099 9.81905 22.0418 9.81818 22.9095V29.455C9.81905 30.3227 10.1641 31.1546 10.7777 31.7682C11.3913 32.3818 12.2232 32.7269 13.0909 32.7277H16.3636C16.653 32.7277 16.9304 32.6128 17.135 32.4082C17.3396 32.2036 17.4545 31.9261 17.4545 31.6368C17.4545 31.3475 17.3396 31.07 17.135 30.8654C16.9304 30.6608 16.653 30.5459 16.3636 30.5459H13.0909C12.8017 30.5456 12.5244 30.4306 12.3198 30.2261C12.1153 30.0215 12.0003 29.7442 12 29.455V29.455ZM27.2727 28.3641C27.2719 27.4964 26.9268 26.6644 26.3132 26.0509C25.6996 25.4373 24.8677 25.0922 24 25.0914H22.9091C22.6199 25.0911 22.3425 24.976 22.138 24.7715C21.9335 24.567 21.8185 24.2897 21.8182 24.0004V22.9095C21.8185 22.6203 21.9335 22.343 22.138 22.1385C22.3425 21.9339 22.6199 21.8189 22.9091 21.8186H25.0909C25.3802 21.8186 25.6577 21.7037 25.8623 21.4991C26.0669 21.2945 26.1818 21.017 26.1818 20.7277C26.1818 20.4384 26.0669 20.1609 25.8623 19.9563C25.6577 19.7517 25.3802 19.6368 25.0909 19.6368H22.9091C22.0414 19.6377 21.2094 19.9828 20.5959 20.5963C19.9823 21.2099 19.6372 22.0418 19.6364 22.9095V24.0004C19.6372 24.8682 19.9823 25.7001 20.5959 26.3137C21.2094 26.9272 22.0414 27.2723 22.9091 27.2732H24C24.2892 27.2735 24.5665 27.3885 24.7711 27.593C24.9756 27.7975 25.0906 28.0748 25.0909 28.3641V29.455C25.0906 29.7442 24.9756 30.0215 24.7711 30.2261C24.5665 30.4306 24.2892 30.5456 24 30.5459H20.7273C20.4379 30.5459 20.1605 30.6608 19.9559 30.8654C19.7513 31.07 19.6364 31.3475 19.6364 31.6368C19.6364 31.9261 19.7513 32.2036 19.9559 32.4082C20.1605 32.6128 20.4379 32.7277 20.7273 32.7277H24C24.8677 32.7269 25.6996 32.3818 26.3132 31.7682C26.9268 31.1546 27.2719 30.3227 27.2727 29.455V28.3641ZM36.3131 19.6826C36.0361 19.601 35.738 19.632 35.4837 19.7689C35.2294 19.9057 35.0394 20.1374 34.9549 20.4135L32.7273 27.8404L30.4996 20.4146C30.4166 20.1375 30.2269 19.9046 29.9721 19.7673C29.7174 19.6301 29.4186 19.5996 29.1415 19.6826C28.8643 19.7657 28.6314 19.9554 28.4942 20.2101C28.3569 20.4648 28.3264 20.7636 28.4095 21.0408L31.6822 31.9499C31.7495 32.1748 31.8875 32.3719 32.0758 32.5121C32.2641 32.6523 32.4926 32.728 32.7273 32.728C32.962 32.728 33.1905 32.6523 33.3787 32.5121C33.567 32.3719 33.7051 32.1748 33.7724 31.9499L37.0451 21.0408C37.1282 20.7638 37.0979 20.4651 36.9608 20.2104C36.8238 19.9557 36.5912 19.7659 36.3142 19.6826H36.3131Z" fill="#011E41"/>
</svg>
