<svg width="48" height="48" viewBox="0 0 48 48" fill="none" xmlns="http://www.w3.org/2000/svg">
<path d="M47.6096 24.2809L47.5696 24.2109C47.1761 23.5335 46.531 23.039 45.7746 22.8349C45.0183 22.6308 44.2119 22.7338 43.5311 23.1213L38.8928 25.8003C39.2833 22.6624 38.6598 19.4818 37.1135 16.7236C37.0875 16.6617 37.0574 16.6016 37.0235 16.5437L36.9935 16.5037L28.3267 1.48919C28.1324 1.15313 27.8738 0.858621 27.5657 0.622489C27.2576 0.386357 26.906 0.213223 26.531 0.112972C26.156 0.0127212 25.7649 -0.012683 25.3801 0.03821C24.9952 0.089103 24.6242 0.215296 24.2882 0.409585L24.2082 0.449571C23.5331 0.8453 23.0412 1.49116 22.8391 2.24714C22.637 3.00312 22.741 3.80829 23.1286 4.48809L25.7976 9.1164C22.5931 8.72347 19.3478 9.38306 16.551 10.9957L16.441 11.0557L1.4765 19.7025C1.14043 19.8968 0.845926 20.1554 0.609794 20.4635C0.373662 20.7716 0.200528 21.1232 0.100277 21.4982C2.5859e-05 21.8732 -0.0253783 22.2643 0.0255147 22.6491C0.0764077 23.034 0.202601 23.405 0.39689 23.7411L0.436875 23.811C0.631158 24.1471 0.889732 24.4416 1.19783 24.6777C1.50593 24.9139 1.85753 25.087 2.23254 25.1872C2.60755 25.2875 2.99864 25.3129 3.38347 25.262C3.7683 25.2111 4.13934 25.0849 4.4754 24.8906L9.1237 22.2116C8.73707 25.393 9.38553 28.6143 10.973 31.3983C10.9787 31.4232 10.9889 31.4469 11.003 31.4682L11.023 31.4982L19.6898 46.5127C20.0828 47.1908 20.7287 47.6853 21.4858 47.8877C22.243 48.0901 23.0495 47.9839 23.7284 47.5923L23.8083 47.5523C24.4852 47.1583 24.9787 46.5124 25.181 45.7557C25.3832 44.999 25.2779 44.1931 24.8879 43.5138L22.2189 38.8855C25.2926 39.2692 28.4091 38.6746 31.1257 37.1861C31.2462 37.1341 31.3631 37.074 31.4755 37.0062L31.5055 36.9862L46.53 28.3194C47.2051 27.9236 47.697 27.2778 47.8991 26.5218C48.1012 25.7658 47.9972 24.9607 47.6096 24.2809V24.2809ZM16.2211 28.4993C16.2111 28.4893 16.2111 28.4793 16.2011 28.4693C15.0259 26.4165 14.7068 23.9832 15.313 21.6967C15.9192 19.4102 17.402 17.4547 19.4399 16.2538C19.4599 16.2438 19.4899 16.2238 19.5099 16.2138C19.5299 16.2038 19.5399 16.1938 19.5599 16.1838C21.6135 15.0144 24.0446 14.6996 26.3283 15.3075C28.612 15.9153 30.5649 17.397 31.7654 19.4326C31.7754 19.4526 31.7954 19.4826 31.8054 19.5026C31.8154 19.5226 31.8254 19.5326 31.8354 19.5526C33.0083 21.62 33.3165 24.0672 32.693 26.3609C32.0695 28.6546 30.5647 30.609 28.5066 31.7981C28.4966 31.8081 28.4866 31.8081 28.4766 31.8181C26.4102 32.9982 23.9604 33.3115 21.6635 32.6895C19.3666 32.0675 17.4097 30.5608 16.2211 28.4993Z" fill="#011E41"/>
</svg>
