<svg width="48" height="48" viewBox="0 0 48 48" fill="none" xmlns="http://www.w3.org/2000/svg">
<path d="M13.4891 23.9961H16.4897V25.9965C16.4913 26.5265 16.7025 27.0344 17.0773 27.4092C17.4521 27.784 17.96 27.9953 18.4901 27.9969H28.4921C29.0221 27.9953 29.53 27.784 29.9048 27.4092C30.2796 27.0344 30.4909 26.5265 30.4925 25.9965V23.9961H33.4931C34.2554 23.9964 34.9892 23.7064 35.5452 23.1849C36.1012 22.6634 36.4377 21.9497 36.4861 21.1889C36.5345 20.4281 36.2913 19.6775 35.8059 19.0897C35.3205 18.5019 34.6294 18.1212 33.8732 18.0249C34.9314 16.2006 35.4902 14.1298 35.4935 12.0208C35.4967 9.91189 34.9442 7.83932 33.8916 6.01185C32.839 4.18437 31.3235 2.6665 29.4976 1.61109C27.6717 0.555683 25.6 0 23.4911 0C21.3821 0 19.3104 0.555683 17.4846 1.61109C15.6587 2.6665 14.1432 4.18437 13.0906 6.01185C12.038 7.83932 11.4854 9.91189 11.4887 12.0208C11.4919 14.1298 12.0508 16.2006 13.109 18.0249C12.4501 18.1054 11.8372 18.4048 11.3686 18.875C10.9486 19.2943 10.6623 19.8288 10.5462 20.4108C10.4301 20.9929 10.4893 21.5963 10.7164 22.1446C10.9434 22.693 11.3281 23.1616 11.8217 23.4912C12.3153 23.8208 12.8956 23.9965 13.4891 23.9961V23.9961ZM22.4909 18.9951V20.9955C22.4909 21.2607 22.3855 21.5151 22.1979 21.7027C22.0104 21.8903 21.7559 21.9957 21.4907 21.9957C21.2254 21.9957 20.971 21.8903 20.7834 21.7027C20.5959 21.5151 20.4905 21.2607 20.4905 20.9955V18.9951C20.4905 18.7298 20.5959 18.4754 20.7834 18.2878C20.971 18.1002 21.2254 17.9949 21.4907 17.9949C21.7559 17.9949 22.0104 18.1002 22.1979 18.2878C22.3855 18.4754 22.4909 18.7298 22.4909 18.9951ZM24.4913 18.9951C24.4913 18.7298 24.5967 18.4754 24.7842 18.2878C24.9718 18.1002 25.2262 17.9949 25.4915 17.9949C25.7567 17.9949 26.0112 18.1002 26.1987 18.2878C26.3863 18.4754 26.4917 18.7298 26.4917 18.9951V20.9955C26.4917 21.2607 26.3863 21.5151 26.1987 21.7027C26.0112 21.8903 25.7567 21.9957 25.4915 21.9957C25.2262 21.9957 24.9718 21.8903 24.7842 21.7027C24.5967 21.5151 24.4913 21.2607 24.4913 20.9955V18.9951ZM28.9922 9.99326C29.4867 9.99326 29.9702 10.1399 30.3814 10.4147C30.7926 10.6894 31.1131 11.08 31.3023 11.5369C31.4916 11.9938 31.5411 12.4965 31.4446 12.9816C31.3482 13.4666 31.11 13.9122 30.7603 14.2619C30.4106 14.6116 29.9651 14.8497 29.48 14.9462C28.995 15.0427 28.4922 14.9932 28.0353 14.8039C27.5784 14.6147 27.1878 14.2942 26.9131 13.883C26.6383 13.4718 26.4917 12.9883 26.4917 12.4938C26.4919 11.8307 26.7555 11.1948 27.2244 10.7259C27.6932 10.2571 28.3291 9.99353 28.9922 9.99326V9.99326ZM17.99 9.99326C18.4845 9.99326 18.968 10.1399 19.3792 10.4147C19.7904 10.6894 20.1109 11.08 20.3001 11.5369C20.4894 11.9938 20.5389 12.4965 20.4424 12.9816C20.3459 13.4666 20.1078 13.9122 19.7581 14.2619C19.4084 14.6116 18.9629 14.8497 18.4778 14.9462C17.9928 15.0427 17.49 14.9932 17.0331 14.8039C16.5762 14.6147 16.1856 14.2942 15.9109 13.883C15.6361 13.4718 15.4895 12.9883 15.4895 12.4938C15.4897 11.8307 15.7533 11.1948 16.2221 10.7259C16.691 10.2571 17.3269 9.99353 17.99 9.99326V9.99326Z" fill="#011E41"/>
<path d="M43.6174 30.0715L42.5012 29.7915L43.1073 28.8333C43.2829 28.5558 43.4021 28.2465 43.4582 27.9229C43.5143 27.5993 43.506 27.2679 43.434 26.9475C43.362 26.6272 43.2276 26.3241 43.0384 26.0557C42.8493 25.7872 42.6091 25.5587 42.3316 25.3831C41.7712 25.0284 41.0929 24.9109 40.4459 25.0563C39.7988 25.2018 39.2361 25.5984 38.8814 26.1587L36.827 29.4064L23.4903 34.9975L10.3967 29.5134L9.33351 26.6318C9.22444 26.318 9.05392 26.029 8.8319 25.7818C8.60989 25.5346 8.34084 25.3342 8.04047 25.1921C7.7401 25.0501 7.41443 24.9694 7.0825 24.9546C6.75057 24.9399 6.41903 24.9914 6.10725 25.1063C5.79547 25.2211 5.50971 25.397 5.26666 25.6235C5.0236 25.85 4.82814 26.1228 4.69168 26.4257C4.55522 26.7286 4.48051 27.0557 4.47191 27.3879C4.4633 27.72 4.52098 28.0506 4.64157 28.3602L5.17368 29.8065L4.21148 30.1195C3.58094 30.3252 3.05794 30.773 2.75754 31.3643C2.45714 31.9557 2.40394 32.6421 2.60966 33.2727C2.81538 33.9032 3.26315 34.4262 3.85448 34.7266C4.44581 35.027 5.13225 35.0802 5.76279 34.8745L8.2813 34.0533L16.4889 37.498L12.2121 39.3164L10.1057 38.2632C9.51545 37.9882 8.84127 37.9543 8.22647 38.1687C7.61166 38.3831 7.10472 38.8288 6.81343 39.4111C6.52214 39.9934 6.46947 40.6664 6.66664 41.287C6.8638 41.9075 7.29524 42.4267 7.86921 42.7341L9.05045 43.3262L8.59236 44.7185C8.38518 45.3485 8.43677 46.035 8.73576 46.627C9.03475 47.2189 9.55666 47.6679 10.1867 47.8751C10.8167 48.0823 11.5032 48.0307 12.0952 47.7317C12.6872 47.4327 13.1361 46.9108 13.3433 46.2808L14.1135 43.9423L23.4773 39.9985L32.8442 43.9433L33.6194 46.2848C33.8376 46.9016 34.2889 47.4083 34.8764 47.6962C35.4639 47.9841 36.1409 48.0302 36.762 47.8247C37.3832 47.6193 37.8991 47.1785 38.199 46.597C38.4989 46.0156 38.559 45.3397 38.3663 44.7145L37.9092 43.3312L39.1045 42.7381C39.4037 42.5952 39.6715 42.3942 39.8923 42.1468C40.1131 41.8995 40.2825 41.6107 40.3906 41.2972C40.4987 40.9838 40.5435 40.652 40.5222 40.3211C40.5009 39.9902 40.414 39.6668 40.2665 39.3698C40.1191 39.0728 39.9141 38.8081 39.6634 38.5911C39.4127 38.3741 39.1213 38.2091 38.8063 38.1058C38.4912 38.0024 38.1588 37.9628 37.8283 37.9891C37.4977 38.0154 37.1757 38.1072 36.881 38.2592L34.7476 39.3184L30.4917 37.498L38.7724 34.0143L42.4011 34.9225C42.6006 34.9731 42.8055 34.9986 43.0113 34.9985C43.6219 34.9988 44.2115 34.7757 44.6689 34.3712C45.1263 33.9667 45.4199 33.4089 45.4944 32.8028C45.5688 32.1968 45.4189 31.5844 45.0729 31.0813C44.727 30.5782 44.2089 30.219 43.6164 30.0715H43.6174Z" fill="#011E41"/>
</svg>
