<svg width="48" height="48" viewBox="0 0 48 48" fill="none" xmlns="http://www.w3.org/2000/svg">
<path d="M39 0H9C8.20435 0 7.44129 0.31607 6.87868 0.87868C6.31607 1.44129 6 2.20435 6 3V45C6 45.7956 6.31607 46.5587 6.87868 47.1213C7.44129 47.6839 8.20435 48 9 48H39C39.7956 48 40.5587 47.6839 41.1213 47.1213C41.6839 46.5587 42 45.7956 42 45V3C42 2.20435 41.6839 1.44129 41.1213 0.87868C40.5587 0.31607 39.7956 0 39 0V0ZM38 44H10V4H38V44Z" fill="#011E41"/>
<path d="M28.56 13.56L29 13.121V20.5C29 20.8978 29.158 21.2794 29.4393 21.5607C29.7206 21.842 30.1022 22 30.5 22C30.8978 22 31.2794 21.842 31.5607 21.5607C31.842 21.2794 32 20.8978 32 20.5V9.5C31.9997 9.20352 31.9116 8.91377 31.7468 8.66734C31.5819 8.4209 31.3478 8.22885 31.0738 8.11543C30.7999 8.002 30.4985 7.9723 30.2077 8.03007C29.9169 8.08784 29.6498 8.23049 29.44 8.44L26.44 11.44C26.175 11.7243 26.0308 12.1004 26.0376 12.489C26.0445 12.8776 26.2019 13.2484 26.4768 13.5232C26.7516 13.7981 27.1224 13.9555 27.511 13.9623C27.8996 13.9692 28.2756 13.825 28.56 13.56V13.56ZM20.074 26.114C19.8 26 19.4982 25.97 19.2071 26.0279C18.916 26.0857 18.6486 26.2288 18.439 26.439L15.439 29.439C15.2997 29.5783 15.1891 29.7437 15.1137 29.9258C15.0383 30.1078 14.9995 30.303 14.9995 30.5C14.9995 30.697 15.0383 30.8922 15.1137 31.0742C15.1891 31.2563 15.2997 31.4217 15.439 31.561C15.7204 31.8424 16.102 32.0005 16.5 32.0005C16.697 32.0005 16.8922 31.9617 17.0742 31.8863C17.2563 31.8109 17.4217 31.7003 17.561 31.561L18 31.121V38.5C18 38.8978 18.158 39.2794 18.4393 39.5607C18.7206 39.842 19.1022 40 19.5 40C19.8978 40 20.2794 39.842 20.5607 39.5607C20.842 39.2794 21 38.8978 21 38.5V27.5C21 27.2033 20.9121 26.9132 20.7472 26.6665C20.5824 26.4198 20.3481 26.2275 20.074 26.114V26.114ZM28 40H31C31.7956 40 32.5587 39.6839 33.1213 39.1213C33.6839 38.5587 34 37.7956 34 37V29C34 28.2044 33.6839 27.4413 33.1213 26.8787C32.5587 26.3161 31.7956 26 31 26H28C27.2044 26 26.4413 26.3161 25.8787 26.8787C25.3161 27.4413 25 28.2044 25 29V37C25 37.7956 25.3161 38.5587 25.8787 39.1213C26.4413 39.6839 27.2044 40 28 40ZM28 29H31V37H28V29ZM17 22H20C20.7956 22 21.5587 21.6839 22.1213 21.1213C22.6839 20.5587 23 19.7956 23 19V11C23 10.2044 22.6839 9.44129 22.1213 8.87868C21.5587 8.31607 20.7956 8 20 8H17C16.2044 8 15.4413 8.31607 14.8787 8.87868C14.3161 9.44129 14 10.2044 14 11V19C14 19.7956 14.3161 20.5587 14.8787 21.1213C15.4413 21.6839 16.2044 22 17 22ZM17 11H20V19H17V11Z" fill="#011E41"/>
</svg>
