<?xml version="1.0" encoding="utf-8"?>
<!-- Generator: Adobe Illustrator 25.2.1, SVG Export Plug-In . SVG Version: 6.00 Build 0)  -->
<svg version="1.1" id="Layer_1" xmlns="http://www.w3.org/2000/svg" xmlns:xlink="http://www.w3.org/1999/xlink" x="0px" y="0px"
	 viewBox="0 0 288 560" style="enable-background:new 0 0 288 560;" xml:space="preserve">
<style type="text/css">
	.st0{fill:#FEBD0B;}
	.st1{fill:#FEFEFE;}
	.st2{fill:#FEBA01;}
	.st3{fill:#FDF5DE;}
	.st4{fill:#FDEDC0;}
	.st5{fill:#FBF7D8;}
	.st6{fill:#FEEEC8;}
	.st7{fill:#FEB900;}
	.st8{fill:#FEB902;}
	.st9{fill:#FDFEFC;}
	.st10{fill:#FEBA07;}
	.st11{fill:#FBFEF7;}
	.st12{fill:#FDBA04;}
	.st13{fill:#FDBA03;}
	.st14{fill:#FCBA06;}
	.st15{fill:#FDBB05;}
	.st16{fill:#FCBB09;}
	.st17{fill:#FCBD11;}
	.st18{fill:#FCBE12;}
	.st19{fill:#FCBE10;}
	.st20{fill:#FCC019;}
	.st21{fill:#FCBD10;}
	.st22{fill:#FEFEFA;}
	.st23{fill:#FBFEFB;}
	.st24{fill:#FCC42A;}
	.st25{fill:#FCBD0E;}
	.st26{fill:#FCFDFB;}
	.st27{fill:#FCC11E;}
	.st28{fill:#FDFCF9;}
	.st29{fill:#FCF3D9;}
	.st30{fill:#FCF8E1;}
	.st31{fill:#FBC017;}
	.st32{fill:#FCEEC3;}
	.st33{fill:#FDFBF9;}
	.st34{fill:#F8E8B0;}
	.st35{fill:#FCBF17;}
	.st36{fill:#FCFCF6;}
	.st37{fill:#FDF8E6;}
	.st38{fill:#FCFCF9;}
	.st39{fill:#FCD364;}
	.st40{fill:#FCFCF8;}
	.st41{fill:#FDDA7B;}
	.st42{fill:#FECA40;}
	.st43{fill:#FCD054;}
	.st44{fill:#FCDD82;}
	.st45{fill:#FCFBF6;}
	.st46{fill:#F8BB09;}
	.st47{fill:#FBC52B;}
	.st48{fill:#FBFDF9;}
	.st49{fill:#FBFEF9;}
	.st50{fill:#FDFBF7;}
	.st51{fill:#FCFAF2;}
	.st52{fill:#FCCD3C;}
	.st53{fill:#FAC732;}
	.st54{fill:#FBC219;}
	.st55{fill:#FBD87E;}
	.st56{fill:#FEF8F6;}
	.st57{fill:#FED469;}
	.st58{fill:#FDF7E6;}
	.st59{fill:#FEBB00;}
	.st60{fill:#FACA3E;}
	.st61{fill:#FDFDFD;}
	.st62{fill:#FCBB04;}
	.st63{fill:#FCBB08;}
	.st64{fill:#FCC222;}
	.st65{fill:#FAECBF;}
	.st66{fill:#FCF4DF;}
	.st67{fill:#FDEDC4;}
	.st68{fill:#FDBE11;}
	.st69{fill:#FBF9F0;}
	.st70{fill:#FDECC1;}
	.st71{fill:#FCF1CF;}
	.st72{fill:#FDEEC5;}
	.st73{fill:#FCF5DD;}
	.st74{fill:#FBBC00;}
	.st75{fill:#FCF8EC;}
	.st76{fill:#FCFAF3;}
	.st77{fill:#FDE8AC;}
	.st78{fill:#FAF2D6;}
	.st79{fill:#FCBE13;}
	.st80{fill:#FCEEC4;}
	.st81{fill:#FDFBF5;}
	.st82{fill:#FCF7E7;}
	.st83{fill:#FBEAB6;}
	.st84{fill:#FDF6E5;}
	.st85{fill:#FBBD0C;}
	.st86{fill:#FDBD0D;}
	.st87{fill:#FCF6E1;}
	.st88{fill:#FCE7B0;}
	.st89{fill:#FCFAF0;}
	.st90{fill:#FCBC0C;}
	.st91{fill:#F9FEFE;}
	.st92{fill:#FBF7E7;}
	.st93{fill:#FBBD0F;}
	.st94{fill:#FDEAB9;}
	.st95{fill:#FBEBB7;}
	.st96{fill:#FCE7A8;}
	.st97{fill:#FEB807;}
	.st98{fill:#FCFCFC;}
	.st99{fill:#FDECC2;}
	.st100{fill:#FCDE88;}
	.st101{fill:#FCEFC9;}
	.st102{fill:#FDF3D7;}
	.st103{fill:#FDF2D4;}
	.st104{fill:#FCF5DA;}
	.st105{fill:#FEF7DF;}
	.st106{fill:#FBECCE;}
	.st107{fill:#FDEBB7;}
	.st108{fill:#FCECBB;}
	.st109{fill:#F7B907;}
	.st110{fill:#FED76B;}
	.st111{fill:#FEE8BB;}
	.st112{fill:#FCC52B;}
	.st113{fill:#FDF5DF;}
	.st114{fill:#FCFBF3;}
	.st115{fill:#FCE091;}
	.st116{fill:#FBFBFE;}
	.st117{fill:#FDF2D3;}
	.st118{fill:#FEE5AC;}
	.st119{fill:#FABD00;}
	.st120{fill:#FAF3DA;}
	.st121{fill:#FBF4DE;}
	.st122{fill:#FCBC0B;}
	.st123{fill:#FCF9F5;}
	.st124{fill:#FBE294;}
	.st125{fill:#FBDF89;}
	.st126{fill:#FDF0CC;}
	.st127{fill:#FBCC40;}
	.st128{fill:#FBE79F;}
	.st129{fill:#F7BC02;}
	.st130{fill:#F9F2E1;}
	.st131{fill:#FDFDFA;}
	.st132{fill:#F7BE00;}
	.st133{fill:#FCF9EE;}
	.st134{fill:#FEEECC;}
	.st135{fill:#FCE8AC;}
	.st136{fill:#FBF6E9;}
	.st137{fill:#F9F7E2;}
	.st138{fill:#FDDD84;}
	.st139{fill:#FCE6A1;}
	.st140{fill:#FED870;}
	.st141{fill:#FCF8EB;}
	.st142{fill:#FCF5DE;}
	.st143{fill:#FEF2DE;}
	.st144{fill:#FBF1D0;}
	.st145{fill:#FCC732;}
	.st146{fill:#F9F7DE;}
	.st147{fill:#FDC83A;}
	.st148{fill:#FDD870;}
	.st149{fill:#FCD564;}
	.st150{fill:#FDF0CF;}
	.st151{fill:#FCF0CD;}
	.st152{fill:#FCD371;}
	.st153{fill:#FDD561;}
	.st154{fill:#FBFEFE;}
	.st155{fill:#FED481;}
	.st156{fill:#FDE191;}
	.st157{fill:#FCF9EA;}
	.st158{fill:#FBF1CA;}
	.st159{fill:#FBF0CC;}
	.st160{fill:#FDEBC1;}
	.st161{fill:#FEBA05;}
	.st162{fill:#FEE9B7;}
	.st163{fill:#FCC52D;}
	.st164{fill:#FBF7E2;}
	.st165{fill:#FCCF4C;}
	.st166{fill:#F8FDF6;}
	.st167{fill:#FECE4F;}
	.st168{fill:#FCBF1D;}
	.st169{fill:#FDEDC1;}
	.st170{fill:#FEE195;}
	.st171{fill:#F8FEEF;}
	.st172{fill:#FBE9AE;}
	.st173{fill:#FEB901;}
	.st174{fill:#F8FBEC;}
	.st175{fill:#FAF8E8;}
	.st176{fill:#F6FDFD;}
	.st177{fill:#FDF8EB;}
	.st178{fill:#FCBE14;}
	.st179{fill:#FCFBE5;}
	.st180{fill:#FEF4DC;}
	.st181{fill:#FCC93B;}
	.st182{fill:#FEE49E;}
	.st183{fill:#FDFAEF;}
	.st184{fill:#FCF6E0;}
	.st185{fill:#FEEED1;}
	.st186{fill:#FDDB7A;}
	.st187{fill:#FCDB7F;}
	.st188{fill:#FDF9F5;}
	.st189{fill:#FDE091;}
	.st190{fill:#FDCB41;}
	.st191{fill:#FEEAB7;}
	.st192{fill:#FCF5E1;}
	.st193{fill:#FEF7E3;}
	.st194{fill:#F7D25F;}
	.st195{fill:#FAF8DB;}
	.st196{fill:#FBBC07;}
	.st197{fill:#F6DC70;}
	.st198{fill:#FCE39C;}
	.st199{fill:#FEB700;}
	.st200{fill:#F9EBAF;}
	.st201{fill:#FAEFC1;}
	.st202{fill:#FCF8EA;}
	.st203{fill:#FCFDF6;}
	.st204{fill:#FDBB07;}
	.st205{fill:#FDF6E6;}
	.st206{fill:#FDF5E2;}
	.st207{fill:#FCC017;}
	.st208{fill:#FEB410;}
	.st209{fill:#FCBE16;}
	.st210{fill:#FBC428;}
	.st211{fill:#FDB801;}
	.st212{fill:#FDF6D1;}
	.st213{fill:#FBC732;}
	.st214{fill:#FDC220;}
	.st215{fill:#FCD151;}
	.st216{fill:#FCEBB5;}
	.st217{fill:#F8F1C0;}
	.st218{fill:#FCF6E3;}
	.st219{fill:#FBF0E0;}
	.st220{fill:#FCC11B;}
	.st221{fill:#FCE08C;}
	.st222{fill:#FCBD0C;}
	.st223{fill:#FCEDC6;}
	.st224{fill:#FDF4E1;}
	.st225{fill:#F9C839;}
	.st226{fill:#FDE296;}
	.st227{fill:#FAEAB4;}
	.st228{fill:#FDE1A2;}
	.st229{fill:#FADD81;}
	.st230{fill:#FCDA81;}
	.st231{fill:#FCF0CA;}
	.st232{fill:#FCE291;}
	.st233{fill:#FDE7A9;}
	.st234{fill:#FEB907;}
	.st235{fill:#FDB908;}
	.st236{fill:#FEFAFE;}
	.st237{fill:#FECE59;}
	.st238{fill:#FDF7ED;}
	.st239{fill:#FEB911;}
	.st240{fill:#FCECC3;}
	.st241{fill:#FDF7EB;}
	.st242{fill:#FDECBF;}
	.st243{fill:#FEF9FE;}
	.st244{fill:#FDECBE;}
	.st245{fill:#F9C120;}
	.st246{fill:#FCE6A5;}
	.st247{fill:#FCCE4B;}
	.st248{fill:#FDCF5B;}
	.st249{fill:#FEDC87;}
	.st250{fill:#FBF9F9;}
	.st251{fill:#FEBB10;}
	.st252{fill:#FABF17;}
	.st253{fill:#FECF4E;}
	.st254{fill:#FCC62F;}
	.st255{fill:#FCB900;}
	.st256{fill:#FDE08D;}
	.st257{fill:#FAF3CF;}
	.st258{fill:#FCCA45;}
	.st259{fill:#FAE9B7;}
	.st260{fill:#FCD852;}
	.st261{fill:#FAEDB6;}
	.st262{fill:#FEDB7E;}
	.st263{fill:#FCECB9;}
	.st264{fill:#F9CC3D;}
	.st265{fill:#FDE399;}
	.st266{fill:#FEBB0D;}
</style>
<g>
	<path class="st0" d="M31.99,213.53c72.58,0,145.15,0.01,217.73-0.05c2.06,0,2.54,0.46,2.53,2.51c-0.09,22.32-0.05,44.64-0.05,66.96
		c-0.53,0.33-1.01,0.32-1.41-0.22c-0.61-1.58-0.4-3.24-0.4-4.87c-0.01-18.86-0.01-37.71-0.01-56.57c0-1.18,0.04-2.37-0.1-3.55
		c-0.17-1.35-0.96-2.13-2.32-2.3c-1.19-0.15-2.38-0.11-3.57-0.11c-68.16,0-136.33,0-204.49,0c-6.06,0-6.08,0.03-6.08,6.14
		c0,18.95,0.01,37.89-0.02,56.84c0,1.59,0.41,3.3-0.7,4.75c-0.61,0.2-1.14,0.09-1.31-0.56c-0.16-0.61-0.06-1.27-0.06-1.9
		c0-21.56,0-43.11,0.01-64.67C31.72,215.13,31.52,214.29,31.99,213.53z"/>
	<path class="st1" d="M251.1,282.86c0.36,0.03,0.73,0.06,1.09,0.09c-0.5,1.13-1.49,0.51-2.2,0.51c-32.39,0.04-64.78,0.03-97.16,0.03
		c-39.73,0-79.46-0.02-119.19,0.05c-1.89,0-2.26-0.37-2.26-2.24c0.08-21.86,0.05-43.73,0.09-65.59c0-0.71-0.62-1.69,0.52-2.19
		c0,22.21-0.01,44.42,0.05,66.63c0,0.89-0.95,2.45,1.05,2.7c0.66-0.94,1.65-1.05,2.68-1.1c1.19-0.06,2.38-0.06,3.58-0.06
		c68.5,0,137-0.01,205.5,0.04C246.95,281.73,249.29,280.99,251.1,282.86z"/>
	<path class="st2" d="M251.1,282.86c-0.73,0.03-1.46,0.08-2.19,0.08c-71.21,0-142.42,0-213.63,0c-0.73,0-1.46-0.05-2.19-0.08
		c-0.58-1-0.54-2.09-0.54-3.19c0-20.77,0.03-41.53-0.04-62.3c-0.01-2.42,0.6-3.34,3.23-3.34c70.91,0.06,141.82,0.06,212.74,0
		c2.62,0,3.23,0.92,3.23,3.34c-0.07,20.77-0.04,41.53-0.04,62.3C251.64,280.76,251.68,281.86,251.1,282.86z"/>
	<path class="st3" d="M37.45,220.01c0.9-0.68,1.95-0.37,2.92-0.37c67.79,0.02,135.58,0.06,203.36,0.11c0.99,0,2.02-0.24,2.96,0.31
		c0.34,0.46,0.3,0.91-0.05,1.35c-0.93,0.81-1.95,0.24-2.94,0.19c-1.55-0.17-3.11-0.14-4.67-0.14c-39.21,0-78.42,0-117.63,0
		c-0.18,0-0.37,0-0.55,0c-5.9,0.01-6.13,0.24-6.14,6.21c-0.01,8.37,0,16.74,0,25.1c0,1.55,0.02,3.09-0.24,4.63
		c-0.03,0.34-0.05,0.68-0.07,1.03c-0.04,0.66,0.15,1.41-0.64,1.81c-0.55,0.15-1.02,0.03-1.44-0.35c-0.72-0.79-0.84-1.73-0.81-2.77
		c0.25-10.25,0.07-20.5,0.1-30.76c0-1.25,0.14-2.57-0.93-3.56c-2.18-1.12-4.53-1.34-6.93-1.33c-20.58,0.01-41.16,0.01-61.75,0
		c-1.27,0-2.56,0.14-3.82-0.22C37.71,220.98,37.32,220.66,37.45,220.01z"/>
	<path class="st4" d="M247.15,275.29c0.18,1.02-0.23,1.57-1.3,1.6c-0.64,0.02-1.28,0.02-1.93,0.02c-67.89,0-135.78,0-203.67-0.04
		c-1.09,0-2.67,0.85-3.23-1.04c0.38-0.41,0.86-0.66,1.42-0.73c15.13-0.2,30.26,0.01,45.39-0.09c18.21-0.12,36.43-0.76,54.64-0.36
		c33.65,0.73,67.29,0.14,100.94,0.37c1.93,0.01,3.85,0.06,5.77-0.17c0.35-0.06,0.7-0.08,1.06-0.06
		C246.59,274.87,246.9,275.04,247.15,275.29z"/>
	<path class="st5" d="M38.02,275.85c-0.33-0.01-0.66-0.01-0.99-0.02c-0.03-18.12-0.06-36.23-0.08-54.35c0-0.54-0.04-1.11,0.5-1.47
		c0.22,0.22,0.44,0.43,0.65,0.65c0.22,0.28,0.39,0.58,0.51,0.91c0.72,1.34,0.67,2.81,0.68,4.25c0.03,15.06,0.02,30.13,0.01,45.19
		c0,1.36,0,2.73-0.62,4C38.48,275.32,38.26,275.6,38.02,275.85z"/>
	<path class="st6" d="M247.15,275.29c-0.18-0.01-0.35-0.01-0.53-0.02c-0.96-0.96-0.71-2.19-0.76-3.35c-0.15-3.99,0.37-8-0.48-11.96
		c0.91-6.25,0.34-12.54,0.46-18.81c0.11-6.19-0.09-12.38,0.09-18.57c0.07-0.55,0.35-0.99,0.72-1.38c0.01-0.38,0.03-0.77,0.04-1.15
		c0.55,0.35,0.52,0.91,0.52,1.46C247.2,239.44,247.18,257.37,247.15,275.29z"/>
	<path class="st1" d="M246.6,222.28c0.02,11.81,0.05,23.61,0.07,35.42c0,0.81,0.06,1.65-0.57,2.32c-0.69,1.03-1.77,0.79-2.75,0.79
		c-42.01,0-84.02,0.01-126.03-0.01c-1.14,0-2.43,0.33-3.29-0.86c-0.14-0.34-0.27-0.68-0.41-1.02c0.14-0.22,0.47-0.43,0-0.65
		c-0.03-11.75-0.03-23.5-0.11-35.25c-0.01-1.77,0.66-2.54,2.42-2.38c0.27,0.02,0.55,0,0.83,0c42.57,0.01,85.14,0.01,127.71,0.02
		c-0.24,1.27-1.28,0.76-1.97,0.78c-3.03,0.06-6.05,0.03-9.08,0.03c-37.78,0-75.57,0-113.35-0.01c-0.84,0-1.73,0.19-2.41-0.09
		c0.29,0.4,0.93,0.09,1.43,0.09c40.81,0.02,81.62,0.01,122.43,0.04c1.01,0,2.21-0.53,3.06,0.54c-0.35,0.47-0.36,1.01-0.36,1.56
		c0,11-0.01,22.01,0,30.83c0.06-9.18-0.12-20.54,0.08-31.9c0.2-0.37,0.48-0.44,0.84-0.21c0.4,9.63,0.06,19.26,0.17,28.89
		c0.01,1.24,0.05,2.48-0.02,3.43c0.08-10.5-0.04-21.27,0.06-32.03C245.63,221.95,246.08,221.98,246.6,222.28z"/>
	<path class="st7" d="M38.02,275.3c-0.07-0.81-0.21-1.62-0.21-2.43c-0.02-16.8-0.03-33.6-0.02-50.4c0-0.43,0.17-0.86,0.26-1.29
		c1.08-0.22,2.17-0.28,3.27-0.28c23.04,0.01,46.08,0,69.13,0.02c0.81,0,1.65-0.21,2.41,0.27c0.52,2.79,0.23,5.61,0.23,8.41
		c0,10.06-0.07,20.12-0.12,30.18c0.92,1.02,2.14,0.76,3.29,0.76c42.04-0.01,84.08,0.03,126.11-0.05c2.25,0,2.94,0.89,2.94,2.86
		c0,2.91,0.04,5.82-0.02,8.73c-0.02,1.12,0.3,2.72-1.35,2.83c-1.69,0.11-1.9-1.36-1.93-2.7c0.01-1.43-0.42-2.77-1.02-4.04
		c-0.37-0.46-0.87-0.39-1.37-0.32c-0.24,0.03-0.47,0.02-0.7,0.01c-0.7-0.13-1.39-0.37-2.11-0.35c-0.23-0.05-0.46-0.1-0.7-0.16
		c-0.47-0.07-0.87-0.31-1.29-0.49c-0.17,0.04-0.41-0.4-0.51,0.08c0.15,0.13,0.25,0.27,0.33,0.45c0.19,0.94,0.45,1.85,0.52,2.8
		c-0.09,0.6-0.39,1.05-0.92,1.35c-0.28,0.11-0.56,0.2-0.86,0.26c-0.75,0.31-1.49,0.18-2.23-0.06c-0.29-0.05-0.57-0.14-0.84-0.26
		c-1.48-0.92-0.61-2.57-1.21-3.76c-1.79-0.74-3.52-1.09-5.23,0.28c-0.64,0.52-1.47,0.68-2.29,0.24c-0.47-0.31-0.86-0.77-1.51-0.66
		c-0.67,0.07-0.78,0.76-1.22,1.08c-2.79,1.25-2.88,1.21-4.2-1.67c-1.58-0.27-1.32,1.16-1.8,1.9c-0.11,0.15-0.24,0.27-0.41,0.36
		c-1.13,0.59-1.94,2.25-3.53,1.35c-1.55-0.88-0.14-2.3-0.4-3.55c-2.98-0.6-5.94,0.04-8.9,0.26c-0.91,0.01-1.86-0.18-2.64,0.5
		c-1.13,1.06-0.74,2.22-0.23,3.39c0.1,0.42,0.02,0.8-0.29,1.12c-1.61,1.06-2.89,0.04-4.21-0.67c-1.39-0.93-1.09-2.51-1.51-3.8
		c-0.19-0.18-0.41-0.19-0.65-0.08c-0.24,0.16-0.48,0.3-0.71,0.44c-0.14,0.12-0.29,0.23-0.42,0.35c-0.08,0.18-0.14,0.35-0.16,0.54
		c-0.03,1.08,1.3,1.66,1.01,2.82c-0.37,1.08-1.19,1.43-2.25,1.38c-1.21-0.23-2.28-0.78-3.25-1.52c-0.24-0.12-0.46-0.26-0.68-0.42
		c-0.52-0.47-0.85-1.03-0.8-1.76c0.02-0.25,0.09-0.49,0.19-0.71c0.21-0.36,0.47-0.72,0.24-1.17c-0.49-0.51-1.06-0.26-1.61-0.19
		c-0.24,0.03-0.48,0.04-0.72,0.04c-0.47,0.08-0.91,0.27-1.38,0.33c-1.4,0.57-2.76,1.86-4.25,0.19c-0.48-0.35-1.02-0.41-1.59-0.31
		c-0.47,0.04-0.93,0.02-1.38-0.08c-0.57-0.11-0.99-0.6-1.61-0.57c-1.26,0.25-2.4,1.11-3.78,0.76c-0.49-0.03-0.93-0.24-1.37-0.43
		c-0.43-0.11-0.85-0.2-1.18,0.19c-0.02,0.35-0.01,0.68-0.04,1.02c-0.15,0.75-0.9,1.13-1.08,1.84c-0.08,0.29-0.05,0.58-0.01,0.89
		c0.03,0.23,0,0.45-0.08,0.66c-1.49,1.27-2.88,2.77-5.16,2.36c-1.04-0.18-1.41,1.08-2.36,1.12c-0.54,0.03-1.07,0.02-1.61,0.02
		c-3.95,0.01-3.95,0-5.29-3.68c-0.06-0.26-0.08-0.52-0.05-0.79c0.22-1.17,1.91-2.14,0.48-3.53c-0.67-0.53-1.37-0.21-2.05-0.06
		c-0.42,0.08-0.79,0.22-0.85,0.73c-0.12,1.71,0.08,3.41-0.12,5.1c-0.5,1.14-1.69,2.38-2.55,1.76c-1.43-1.01-3.82-1.52-3.63-4.06
		c0.34-1.09,1.89-2.16,0.02-3.25c-0.57-0.34-1.15-0.4-1.73-0.02c-0.9,0.48-1.12,1.42-1.53,2.23c-0.33,0.55-0.43,1.13-0.49,1.77
		c-0.1,1.06-0.68,1.92-1.77,2.08c-1.36,0.2-1.88-0.74-2.1-1.9c-0.72-1.21,0.02-2.85-1.2-3.9c-0.19-0.11-0.36-0.24-0.53-0.37
		c-0.43-0.32-0.94-0.35-1.45-0.34c-0.28,0-0.56-0.04-0.83-0.06c-0.27,0.06-0.41,0.28-0.57,0.49c-0.11,0.19-0.25,0.35-0.41,0.5
		c-0.82,1.21-1.7,2.25-3.29,1.06c-0.48-0.62-0.67-1.5-1.54-1.79c-0.32-0.12-0.65-0.16-0.97-0.22c-0.54-0.21-0.98-0.01-1.39,0.34
		c-1.28,1.05-2.54,1.07-3.78-0.05c-0.44-0.15-0.87,0-1.3,0.09c-0.81,0-1.11,0.77-1.68,1.12c-0.94,0.48-1.88,1.01-3,0.59
		c-0.99-0.3-1.2-1.49-2.14-1.85c-0.31-0.09-0.62-0.13-0.94-0.07c-0.31,0.11-0.61,0.25-0.92,0.36c-0.46,0.1-0.89,0.32-1.38,0.28
		c-0.25-0.02-0.48-0.09-0.71-0.19c-0.66-0.58-1.64-0.57-2.27-1.2c-1.26-2.16-2.8-3.45-5.39-1.83c-0.53,0.33-1.21,0.27-1.85,0.19
		c-0.5-0.1-0.94-0.38-1.42-0.53c-1.02-0.4-2.04-0.77-2.98,0.18c-0.79,2.13-0.01,4.36-0.48,6.51c0.28,3.63,0.06,3.7-3.49,4.04
		c-5.96,0.57-11.91-0.56-17.82-0.15c-3.64,0.26-7.36,0.96-10.84,0.04c-4.46-1.18-8.61-0.5-12.94,0.28
		C42.63,275.87,40.28,275.78,38.02,275.3z"/>
	<path class="st8" d="M239.19,267.07l0.03,0.05c0.79-0.36,1.59-0.65,2.36,0.04c1.12,1.02-0.37,3,1.42,3.77
		c0.04,0.08,0.07,0.17,0.13,0.24c0.83,0.93-0.91,3.01,0.61,2.97c1.46-0.04,0.64-2.11,0.7-3.26c0.13-2.54,0.04-5.1,0.02-7.65
		c-0.01-1.49-0.49-2.21-2.29-2.21c-41.28,0.07-82.56,0.06-123.85,0.08c-0.82,0-1.69-0.09-2.46,0.12c-1.45,0.37-2.26-0.3-2.9-1.43
		c0.36,0.05,0.71,0.11,1.07,0.16c0.73,0.03,1.46,0.08,2.2,0.08c43.29,0,86.59,0,129.88,0c0.91,3.17,0.21,6.41,0.4,9.61
		c0.11,1.88,0.09,3.77,0.13,5.65c-0.13,0.03-0.26,0.06-0.4,0.07c-0.67,0.2-0.82-0.22-0.9-0.73c-0.03-3.52-0.01-7.05-0.02-9.8
		c-0.16,2.92,0.24,6.65-0.17,10.35c-0.7,0.67-1.57,0.39-2.36,0.39c-28.27,0.02-56.53,0.01-84.8,0.01c-0.72,0-1.47,0.18-2.14-0.27
		c-0.03-1.8,0.2-3.27,2.53-1.84c0.9,0.55,1.35-0.06,1.75-0.63c0.71-1.04,2.05-0.56,2.87-1.27c0.31-0.85,1.18-0.98,1.81-1.41
		c1.73-0.31,0.78-2.38,2-3.02c1.63,0.04,2.9-1.53,4.64-0.99c0.23,0.86-0.12,1.75,0.23,3.23c-0.3-1.43-0.02-2,0.81-2.26
		c0.35-0.17,0.7-0.35,1.06-0.52c0.46,0.36,1.23,0.26,1.46,0.96c0.14,0.4,0.11,0.82,0.14,1.18c-0.02-0.62-0.02-1.18,0.47-1.6
		c0.84,0.32,1.6,1.96,2.57,0.05c0.17-0.34,0.99-0.38,1.44,0.11c0.75,0.51,1.27,1.21,1.68,2c0.1,0.37,0.11,0.75,0.05,1.13
		c-0.24,0.78-0.65,1.55-0.08,2.34c0.15,0.14,0.3,0.27,0.49,0.36c0.42,0.14,0.81,0.08,1.2-0.09c0.21-0.12,0.42-0.2,0.64-0.26
		c0.55-0.22,0.99-0.7,1.64-0.66c0.6,0.16,1.17,0.38,1.76,0.58c1.54-0.08,3.47,0.93,4.15-1.5c0.29-0.29,0.61-0.49,1.04-0.27
		c1.63-0.29,2.77,1.4,4.41,1.08c0,0,0.22-0.11,0.22-0.11c0.08-0.18,0.09-0.36,0.04-0.55c-0.28-0.38-0.7-0.64-0.78-1.13
		c-0.06-0.38,0-0.73,0.19-1.07c0.5-0.76,1.55-0.59,2.11-1.25c0.4-0.42,0.57-1.03,1.07-1.37c3.67-0.73,7.34-0.71,10.97-0.11
		c0.26,1.14-1.03,0.75-1.07,1.45c-0.04,0.69-0.83,1.51-0.18,2c0.81,0.61,1.24-0.28,1.63-0.89c0.46-0.72,1.06-0.54,1.67-0.24
		c0.95-0.5,0.68-2.26,2.24-2.13c0.17-0.68,0.22-1.42,1.16-1.95c-0.06,1.36,1.36,2.48-0.42,3.97c1.37-0.19,2.26-0.31,3.14-0.44
		c0.25-0.08,0.35,0.67,0.58,0.18c0.28-0.61,0.58-1.09,1.27-1.23c0.58-0.12,1.04,0.12,1.45,0.49c2.05-1.69,4.53-1.51,6.95-1.57
		c0.49-0.01,1.14-0.35,1.35,0.47c-0.39,0.3-0.58,0.71-0.67,1.18c-0.11,0.41-0.07,0.83-0.11,1.26c-0.05,0.23-0.15,0.43-0.3,0.62
		c-0.7,0.49-1.55,0.66-2.28,1.07c-0.25,0-0.49-0.07-0.69-0.22c-0.2-0.29-0.33-0.6-0.37-0.95c0.02,0.33,0.12,0.64,0.27,0.94
		c0.14,0.21,0.31,0.38,0.5,0.54c1.58,0.26,3.17,0.85,4.74-0.05c0.72,0,1.44-0.01,2.15-0.01c1.32,0.99,2.4,0.08,3.52-0.45
		C238.53,269.86,237.62,267.66,239.19,267.07z"/>
	<path class="st9" d="M246.6,222.28c-0.34,0-0.68,0-1.01,0c-0.18,0-0.37,0-0.55,0c-0.18,0-0.37,0-0.55,0v0
		c-1.15-0.85-2.48-0.53-3.73-0.53c-40.35-0.02-80.71-0.01-121.06-0.01c-0.99,0-1.99,0-2.98,0c-0.01-0.18-0.02-0.36-0.02-0.55
		c0.99,0,1.99,0,2.98,0c40.35,0,80.71,0,121.06-0.01c1.26,0,2.58,0.31,3.74-0.52c0.73,0.18,1.46,0.37,2.2,0.55
		C246.64,221.57,246.62,221.92,246.6,222.28z"/>
	<path class="st10" d="M112.85,221.19c-23.2,0-46.41,0.01-69.61,0.01c-1.73,0-3.46-0.01-5.19-0.01c-0.04-0.18-0.02-0.35,0.06-0.52
		c23.78,0.02,47.56,0.03,71.34,0.07C110.58,220.74,111.82,220.29,112.85,221.19z"/>
	<path class="st11" d="M113.62,258.27c0.38-0.06,0.96-0.55,1.05,0.13c0.07,0.51-0.64,0.43-1.06,0.52
		C113.62,258.71,113.62,258.49,113.62,258.27z"/>
	<path class="st8" d="M155.85,275.29c28.58,0,57.16,0.01,85.73-0.01c1.17,0,2.4,0.26,3.45-0.54c0.18-0.37,0.37-0.37,0.55,0
		c0.21,0.2,0.43,0.4,0.64,0.59c-0.94,0.89-2.1,0.45-3.14,0.45c-67.44,0.02-134.88,0.02-202.32,0.02c-0.92,0-1.83,0.03-2.75,0.04
		c0-0.18,0-0.37,0-0.55c5.93,0.79,11.45-2.76,17.42-1.66c0.67,0.12,1.38,0.02,2.55,0.02c-0.81,0.47-1.15,0.67-1.76,1.03
		c4.06,0.24,7.68,0.75,11.59-0.02c2.3-0.46,5.16-1.18,7.58-0.53c1.79,0.48,3.51,1.01,5.36,1.09c1.45,0.06,2.82,0.16,4.19-0.77
		c1.18-0.8,2.87,0.41,4.21-0.57c0.26-1.02-1.5-1.8-0.38-2.94c0.67,0.16,1.24-0.35,1.9-0.28c1.04-0.03,2.08,0,3.11-0.04
		c1.95-0.07,3.91-1.74,5.86,0.03c0.57,0.51,1.43,0.51,1.97,1.08c1.85,2.33,4.09,2.4,6.08,0.2c0.1-0.48,0.35-0.89,0.51-1.35
		c0.11-0.46,0.24-0.92,0.37-1.39c0.08-0.24,0.22-0.44,0.4-0.61c0.36-0.18,0.7-0.19,1.02,0.08c1.18-0.16,2.36-0.32,3.55-0.48
		c1.19,1.19,0.33-1.01,1.04-0.62c0.78-0.38,1.47-0.89,2.08-1.52c0.99,0.65,1.62,2.5,3.26,0.97c0.11,0.06,0.22,0.11,0.33,0.17
		c0.58,1.16-0.91,2.69,0.61,3.64c-0.05-0.03,0.01-0.02-0.03-0.05c-0.59-0.53-0.75-1.09-0.33-1.76c0.8-0.73,1.86-0.59,2.8-0.85
		c0.47,0.03,0.84,0.26,1.18,0.55c1.97,1.17,1.7-1.35,2.78-1.66c1.04-0.19,1.22,0.54,1.31,1.28c0.1,0.8,0.01,1.63,0.62,2.28
		c0.92,0.78,1.97,0.45,2.99,0.34c0.37,0.07,0.7,0.24,1.04,0.38c0.17,0.73-0.08,1.88,1.13,1.75c0.82-0.08,1.02-0.92,0.85-1.73
		c-0.2-0.93,0.56-1.48,0.9-2.2c1.16-0.27,1.35,1.11,2.24,1.3c0.42,0.13,0.84,0.09,1.26,0.06c0.22,0.01,0.43,0.07,0.63,0.17
		c0.07,0.09,0.13,0.18,0.2,0.26c0.42,1.47,2.71,1.96,2.75,2.2c0.33,2.46,1.41,0.54,2.1,0.48c0.43-0.04,0.57-0.34,0.64-0.71
		c0.19-2.43,1.42-2.63,3.26-1.5c0.28,0.22,0.78,0.42,0.82,0.68C150.51,275.84,153.27,275.38,155.85,275.29z"/>
	<path class="st12" d="M124.48,245.8c2.25-5.26,4.5-10.52,6.77-15.77c0.2-0.46,0.33-1.14,1.04-1.11c0.97,0.04,1.01,0.95,1.28,1.57
		c2.67,6.18,5.32,12.36,7.94,18.56c0.72,1.7,1.36,3.39,3.53,4.01c-3.01,0-6.01,0-9.06,0c0.02-0.91,0.63-0.8,1.14-0.83
		c1.81-0.08,1.78-0.95,1.25-2.38c-1.7-4.6-1.65-4.61-6.42-4.62c-1.01,0-2.03,0.11-3.02-0.03c-1.83-0.25-2.99,0.39-3.48,2.17
		C124.29,247.36,123.93,246.85,124.48,245.8z"/>
	<path class="st13" d="M166.24,249.05c-0.12,1.99,0.5,3.45,2.72,4.04c-2.68,0-5.36,0-8.04,0c2.64-0.6,2.53-2.59,2.52-4.57
		c-0.04-5.1-0.11-10.19-0.03-15.29c0.03-2.03-0.41-3.39-2.94-3.44c1.66-1.21,3.61-1.48,5.28-1.47c1.27,0,0.35,1.76,0.48,2.72
		c-0.43,4.23-0.26,8.48-0.1,12.71C166.2,245.52,165.26,247.32,166.24,249.05z"/>
	<path class="st14" d="M166.24,249.05c-1.43-1.05-0.63-2.47-0.62-3.75c0.04-4.06,0.09-8.12,0.13-12.18
		c0.01-0.73,0.03-1.45,0.47-2.08c0,4.12,0,8.24,0,12.8c2.01-1.03,3.32-2.17,4.49-3.5c0.19-1.35,1-2.04,2.35-2.14
		c1.57-0.86,3.13-2.02,4.78-0.14c-0.71,0.83-1.89,0.59-2.7,1.17c-1.04,0.18-1.32,1.34-2.22,1.7c-0.3,1.51-3.16,1.52-2.21,3.75
		c0.33,0.76,0.89,1.3,1.63,1.65c2.34,0.13,2.81,2.23,3.9,3.67c0.68,0.98,1.75,1.5,2.88,2.16c-2.19,1.66-3.82,1.38-5.53-0.47
		c-2.13-2.31-4.31-4.59-7.18-6.69C166.36,246.6,166.3,247.83,166.24,249.05z"/>
	<path class="st15" d="M149.72,247.43c0.03-1.72,0.11-3.45,0.08-5.17c-0.04-2.77-0.07-2.77-3.08-3.36c1.75-1.35,3.77-1.65,5.38-1.61
		c1.62,0.03,0.25,1.88,0.49,2.89c0.47,0.3,0.81,0.65,0.53,1.26c-0.57,2.13-0.48,4.31-0.44,6.47c0.04,2.3-0.47,5.02,3.77,4.51
		c-0.15,0.35-0.29,0.71-0.44,1.06c-2.81,0-5.61,0-8.42,0c-0.91-0.05-0.97-0.48-0.53-1.14l-0.01,0.01c0.59-0.68,1.57,0.08,2.17-0.57
		l0.01-0.01C150.01,250.4,149,248.82,149.72,247.43z"/>
	<path class="st16" d="M211.36,246.35c-0.14,2.81-0.32,5.62-0.41,8.43c-0.04,1.13-0.42,1.71-1.62,1.59
		c-1.56-0.15-1.01-0.96-0.75-1.9c0.24-0.85,0.1-1.8,0.13-2.7c-0.66-0.37-1.01-0.95-1.14-1.68c-0.17-0.86,0.07-1.74-0.17-2.59
		c-0.18-0.58-0.64-0.97-0.97-1.45c-0.2-0.55-0.36-1.12-0.77-1.57c-0.64-1.06-1.53-1.93-2.32-2.88c-0.13-1.16,0.43-1.92,1.4-2.45
		c1.33-0.12,2.56-0.9,3.95-0.61c0.6,0.18,1.02,0.55,1.24,1.12c0.06,0.25,0.11,0.52,0.12,0.78c0.01,0.99,0.1,1.97,0.81,2.76
		c0.25,0.43,0.27,0.93,0.43,1.38C211.58,245.17,211.58,245.76,211.36,246.35z"/>
	<path class="st17" d="M231.76,247.58c-0.06,0.15-0.03,0.28,0.1,0.38c1.65,0.79,0.35,2.41,1,3.49c0,0.36-0.01,0.72-0.01,1.08
		c0.02,1.03,0.39,2.42-1.31,2.27c-1.69-0.15-0.8-1.41-0.69-2.28c0.29-2.32-1.33-3.82-2.4-5.57c-1.29-0.21-1.57-1.37-2.16-2.24
		c-0.68-0.22-1.36-0.43-2.04-0.65c-1.11-0.4-2.12-0.92-2.67-2.04c-0.07-0.27-0.07-0.54-0.01-0.81c0.28-0.68,0.79-1.13,1.44-1.45
		c0.55-0.21,1.09-0.21,1.64,0.03c0.65,0.28,0.87,0.97,1.36,1.4c0.88,0.85,1.89,1.52,2.92,2.16c0.34,0.1,0.69,0.13,1.03,0.21
		c0.57,0.21,1.1,0.47,1.56,0.88C232.08,245.44,231.06,246.58,231.76,247.58z"/>
	<path class="st9" d="M197.69,224.46c0.94,0.28-0.79-3.15,1.5-1.05c0.49,0.45,0.71-0.26,1.03-0.48c1.52-1.02,2.78-0.9,3.3,1.01
		c0.32,1.16,2.02,1.77,1.31,3.3c-0.19,0.18-0.42,0.28-0.68,0.31c-0.39-0.01-0.73-0.16-1.01-0.42c-0.29-0.37-0.6-0.69-1.13-0.63
		c-0.63,0.1-1.26,0.24-1.9,0.24c-0.27,0.12-0.49,0.29-0.64,0.55c-0.38,0.67-0.8,1.3-1.13,2c-0.52,0.93-1.55,1.11-2.36,1.61
		c-0.34,0.17-0.71,0.17-1.07,0.12c-1.57-0.58-0.96-1.62-0.23-2.22C196.13,227.62,196.6,225.85,197.69,224.46L197.69,224.46z"/>
	<path class="st18" d="M195.61,230.43c-0.06-1.53,1.73-0.63,2.1-1.58c0.72-0.4,1.45-0.79,2.09-1.33c0.11-0.05,0.22-0.1,0.33-0.16
		c0.12-0.03,0.24-0.05,0.36-0.07c0.12,0,0.25,0.01,0.37,0.02c0.24,0.05,0.47,0.15,0.68,0.28c0.27,0.24,0.56,0.46,0.85,0.68
		c0.18,0.17,0.32,0.37,0.43,0.59c0.38,1.16,1.38,2.06,1.4,3.37c-0.06,0.55-0.34,0.97-0.79,1.29c-0.23,0.13-0.47,0.22-0.73,0.27
		c-1.61-0.41-1.56,1.82-2.91,1.81c-0.18-0.44-0.36-0.87-0.54-1.31c-0.07-0.97-0.74-1.37-1.56-1.61c-0.41-0.18-0.82-0.35-1.22-0.53
		C195.67,231.83,195.41,231.25,195.61,230.43z"/>
	<path class="st19" d="M124.48,245.8c0.07,0.68,0.37,1.22,0.96,1.58c-0.18,1.49-2.03,2.63-0.93,4.39c0.62,0.5,1.39,0.14,2.05,0.32
		c0.7,0.2,1.45,0.49,0.38,1.26c-2.6,0-5.19,0-7.98,0c0.36-1.61,1.79-0.84,2.18-1.68c0.19-1.07,0.15-2.28,1.55-2.66
		C122.69,247.63,123.72,246.79,124.48,245.8z"/>
	<path class="st20" d="M207.29,245.81c0.29,0.3,0.58,0.61,0.87,0.91c0.11,1.01,0.12,2.03,0.56,2.98c-0.01,0.69-0.01,1.38-0.02,2.07
		c-1.68,0.5-0.86,2.58-2.14,3.34c-0.95,0.41-1.78,0.38-2.36-0.62c2.7-2.31,1.04-5.05,0.76-7.65c0.12-0.29,0.2-0.61,0.52-0.77
		c0.41-0.19,0.78-0.46,1.22-0.58C206.93,245.55,207.13,245.65,207.29,245.81z"/>
	<path class="st21" d="M222.91,248.55c0.68,2.9-1.88,3.99-3.27,5.73c-1.33,1.19-2.09,0.59-2.59-0.81c2.63-0.41,3.71-2.17,2.95-4.75
		c-0.34-1.14-1.35-2.24-0.3-3.5c1.26-0.71,1.91-0.03,2.38,1.04C222.17,247.09,222.23,247.94,222.91,248.55z"/>
	<path class="st22" d="M245.03,222.28c0.18,0,0.37,0,0.55,0c0,11.35,0,22.71,0,34.06c-0.18,0-0.37,0-0.55,0
		C245.03,244.98,245.03,233.63,245.03,222.28z"/>
	<path class="st23" d="M244.48,222.28c0,11.33,0,22.67,0,34c-0.18,0-0.37,0.01-0.55,0.01c0-1.2,0-2.41,0-3.61
		c0-9.08-0.01-18.17,0.01-27.25C243.94,224.36,243.73,223.23,244.48,222.28C244.48,222.28,244.48,222.28,244.48,222.28z"/>
	<path class="st24" d="M221.92,241.45c0.01,0.21,0.03,0.43,0.04,0.64c0.68,2.64-1.41,2.25-2.85,2.57c-2.19,0.38-4.37,0.76-6.56,1.14
		c-1.04,0.61-1.26-0.13-1.48-0.88c-0.02-0.47,0.15-0.86,0.44-1.21c0.41-0.41,0.88-0.73,1.47-0.85c1.18-0.14,2.39-0.01,3.55-0.37
		c0.47-0.18,0.96-0.19,1.45-0.23c0.94,0.1,1.36-0.92,2.19-1.04C220.77,241.15,221.41,240.87,221.92,241.45z"/>
	<path class="st25" d="M153.12,241.45c-0.18-0.42-0.35-0.84-0.53-1.26c0.89-0.01,1.15-0.81,1.59-1.33c1.12-1.32,2.54-2.55,4.19-1.71
		c1.77,0.9,0.29,2.65,0.65,4.74C156.71,239.43,154.86,239.36,153.12,241.45z"/>
	<path class="st26" d="M173.07,238.2c-0.63,0.88-1.35,1.65-2.35,2.14c-2.27-4.1-2.27-4.1,2.33-4.55c0.26-0.03,0.53-0.07,0.8-0.11
		C174.33,236.79,172.18,237.02,173.07,238.2z"/>
	<path class="st17" d="M199.8,235.6c0.8-0.96-0.11-4.02,2.87-2.32c0.64,1.63,0.56,3.34,0.5,5.04c-0.32,0.72-0.85,1.06-1.65,0.97
		C199.93,238.52,199.86,237.07,199.8,235.6z"/>
	<path class="st27" d="M201.51,239.29c0.4-0.43,0.79-0.87,1.19-1.3c0.18-0.62,0.38-1.24,1.07-1.52c0.39-0.15,0.78-0.17,1.18-0.08
		c0.4,0.11,0.73,0.33,0.99,0.65c0.23,0.33,0.39,0.68,0.4,1.09c-0.02,0.95-0.93,1.09-1.47,1.57c-0.38,0.72-0.76,1.43-1.14,2.15
		c0.25,0.24,0.25,0.48,0,0.72C201.79,242.28,201.61,240.82,201.51,239.29z"/>
	<path class="st28" d="M176.25,250.01c-1.52-0.99-2.69-2.35-3.9-3.67c0.79-0.37,1.17-1.27,2.26-1.33c1.33-0.07,2.38,0.01,1.71,1.62
		C175.82,247.82,176.62,248.9,176.25,250.01z"/>
	<path class="st29" d="M219.11,244.66c0.78-1.04,2.68-0.86,2.85-2.57c1.43-0.1,2.08,0.69,2.29,1.98c-0.45,0.63-0.9,1.26-1.35,1.89
		c-0.45,0.35-0.58,1.25-1.47,0.83c-0.14-0.99-0.79-1.42-1.72-1.57C219.51,245.03,219.31,244.85,219.11,244.66z"/>
	<path class="st30" d="M210.29,233.25c2.52-1.07,4.82,0.63,7.27,0.56c0.35,1.23-0.39,1.73-1.39,2.06c-0.85,0.12-1.71-0.39-2.55,0.08
		c-0.23,0.11-0.47,0.18-0.72,0.23c-0.51,0.07-1.01-0.03-1.52-0.04c-0.26-0.02-0.51-0.09-0.75-0.19c-0.6-0.32-1.06-0.75-1.13-1.47
		C209.51,233.91,209.94,233.6,210.29,233.25z"/>
	<path class="st31" d="M203.19,233.14c0.17-0.38,0.34-0.75,0.51-1.13c-0.47-0.89-0.46-1.74,0.2-2.53c0.5-0.61,0.57-1.95,1.92-1.15
		c0.37,0.9,1.42,1.52,1.11,2.69c-0.11,0.26-0.14,0.54-0.18,0.81c-0.04,0.18-0.1,0.36-0.17,0.53c-0.03,0.09-0.07,0.17-0.1,0.26
		c-0.04,0.2-0.1,0.38-0.17,0.58c-0.08,0.21-0.2,0.39-0.35,0.56c-0.37,0.35-0.81,0.51-1.32,0.47
		C204.03,234.05,203.41,233.86,203.19,233.14z"/>
	<path class="st32" d="M227.96,234.28c0.38,0.4,0.76,0.8,1.14,1.21c1.15,0.72,2.22,1.48,1.54,3.1c-1.08,0.36-1.18,1.72-2.22,2.13
		c-0.42,0.09-0.81,0.03-1.17-0.2c-0.99-0.88-0.38-1.98-0.43-2.99c0.11-1.02-1.16-1.75-0.63-2.86
		C226.69,234.09,227.29,234,227.96,234.28z"/>
	<path class="st33" d="M227.96,234.28c-0.58,0.21-1.16,0.42-1.74,0.63c-2,1.02-3.93,0.53-5.85-0.26c-0.69-1.47,0.63-1.44,1.37-1.66
		c1.15-0.34,2.31,0.2,3.48,0.18C227.17,231.01,226.99,234.06,227.96,234.28z"/>
	<path class="st34" d="M215.75,235.27c0.81-0.23,1.34-0.81,1.8-1.46c0.35-0.01,0.7-0.02,1.05-0.03c0.21,0.15,0.34,0.36,0.43,0.6
		c0.04,0.25,0.02,0.5-0.05,0.75c-0.4,0.66-0.83,1.3-1.29,1.92c-0.94,1.11-2.09,1.34-3.41,0.77c-1.12-0.44-1.67-1.15-1.18-2.38
		c0.02-0.09,0.07-0.17,0.13-0.25C214.07,235.07,214.93,234.76,215.75,235.27z"/>
	<path class="st35" d="M205.37,237.5c-0.19-0.18-0.37-0.37-0.56-0.55c-0.44-0.83,0.1-1.4,0.55-1.98c0.33-0.34,0.67-0.69,1.12-0.89
		c0.54-0.18,1.06-0.48,1.68-0.4c0.18,0.05,0.35,0.07,0.54,0.05c0.45,0.09,0.74,0.34,0.83,0.8c0.43,1.84-0.99,2.4-2.18,3.12
		C206.67,237.79,206,237.95,205.37,237.5z"/>
	<path class="st36" d="M122.69,249.03c-0.38,0.96-0.61,2.01-1.55,2.66c-0.48-0.93-0.68-2.01-1.58-2.81
		C120.71,248.11,121.71,248.21,122.69,249.03z"/>
	<path class="st37" d="M218.61,234.29c-0.01-0.17-0.01-0.34-0.01-0.51c2.07-1.64,4.33-1.26,6.62-0.6c-1.59,0.62-3.57-0.6-4.95,1.02
		C219.75,234.8,219.19,234.73,218.61,234.29z"/>
	<path class="st28" d="M170.72,244.68c-0.9-0.65-1.56-1.32-0.19-2.17c0.81-0.51,1.37-1.41,2.41-1.58c0.62,0.54,0.72,1.01-0.17,1.37
		C171.67,242.75,171.18,243.7,170.72,244.68z"/>
	<path class="st38" d="M231.76,247.58c-0.88-0.83-0.54-1.9-0.59-2.89c-0.17-0.32-0.26-0.65-0.12-1.01c0.89-0.03,1.94-0.17,2.39,0.74
		c0.49,1-0.85,0.89-1.15,1.43C232,246.36,231.93,247,231.76,247.58z"/>
	<path class="st39" d="M203.74,242.57c0-0.24,0-0.48,0-0.72c1.22,0.35,2.16,1.08,2.83,2.15c-0.22,0.79-0.83,0.98-1.54,1.04
		c-0.27-0.05-0.51-0.16-0.71-0.34C204.12,243.98,203.93,243.28,203.74,242.57z"/>
	<path class="st40" d="M217.05,253.47c0.68,0.86,1.45,1.43,2.59,0.81c-0.86,2.16-2.56,0.37-3.79,0.79l0,0
		C215.87,254.26,216.09,253.59,217.05,253.47z"/>
	<path class="st9" d="M197.69,224.47c-2.13,1.56-1.55-1.08-2.75-1.52C196.94,222.14,197.13,223.59,197.69,224.47
		C197.69,224.46,197.69,224.47,197.69,224.47z"/>
	<path class="st41" d="M231.64,242.44c-0.29,0.22-0.58,0.44-0.87,0.66c-0.52-0.03-0.89-0.28-1.15-0.72
		c-0.36-1.26-0.56-2.48,0.87-3.27c1.96-0.08,0.62,1.66,1.28,2.3l0.22-0.06C232.17,241.8,232.15,242.19,231.64,242.44z"/>
	<path class="st42" d="M205.83,228.32c-1.04,0.14-0.53,1.23-1.05,1.69c-1.45,0.48-1.76-0.47-1.97-1.54c0.04-0.96,0.74-1.1,1.49-1.19
		c0.17-0.09,0.35-0.1,0.53-0.04C205.17,227.6,205.5,227.96,205.83,228.32z"/>
	<path class="st43" d="M221.42,246.79c0.49-0.28,0.98-0.56,1.47-0.83c0.01,0.87,0.01,1.73,0.02,2.6
		C221.83,248.45,221.28,247.91,221.42,246.79z"/>
	<path class="st44" d="M208.16,233.67c-0.15,0.51-0.52,0.8-1,0.97c-0.58-0.15-0.88-0.52-0.93-1.11c-0.01-0.3-0.01-0.6-0.03-0.9
		c0-0.2,0.04-0.39,0.12-0.57c0.12-0.15,0.26-0.29,0.42-0.4c0.09-0.03,0.19-0.06,0.28-0.09
		C208.39,231.74,208.24,232.73,208.16,233.67z"/>
	<path class="st45" d="M126.94,253.37c0.23-2.1-1.96-0.55-2.43-1.59c0.7-0.03,1.4-0.05,2.1-0.1c0.57-0.04,1.34-0.45,1.48,0.48
		C128.21,252.87,127.57,253.18,126.94,253.37z"/>
	<path class="st46" d="M230.19,238.21c0.55-1.27-0.67-1.84-1.09-2.72c1.49-0.1,1.97,0.84,2.18,2.07c0.44,0.58,0.28,1.01-0.34,1.33
		C230.44,238.94,230.16,238.75,230.19,238.21z"/>
	<path class="st47" d="M225.71,246.34c0.2-0.19,0.4-0.37,0.6-0.56c1.26-0.02,1.58,0.59,1.16,1.7c-0.4,0.75-1.04,0.62-1.69,0.44
		C225.36,247.41,225.43,246.88,225.71,246.34z"/>
	<path class="st38" d="M232.86,251.45c-0.33-1.16-0.67-2.32-1-3.49C234.75,248.41,233.01,250.16,232.86,251.45z"/>
	<path class="st48" d="M180.44,250.01c0.2,0.68,1.2,1.16,0.48,2c-0.09,0.11-0.59,0.05-0.72-0.09
		C179.54,251.23,180.13,250.64,180.44,250.01z"/>
	<path class="st49" d="M135.32,248.76c-1.49,0.19-1.59-0.7-1.65-1.91C134.77,247.17,134.57,248.42,135.32,248.76z"/>
	<path class="st50" d="M149.72,247.43c0.03,1.47,0.34,2.97-0.49,4.35C149.51,250.34,148.42,248.75,149.72,247.43z"/>
	<path class="st51" d="M195.61,230.43c0.67,0.38,0.45,1.2,0.86,1.72c-1.25,0.63-1.51-0.11-1.56-1.12
		C195.15,230.83,195.38,230.63,195.61,230.43z"/>
	<path class="st52" d="M204.21,254.49c0.79,0.21,1.57,0.41,2.36,0.62c-0.77,0.88-1.92,0.7-2.67,0.42
		C202.67,255.07,203.29,254.62,204.21,254.49z"/>
	<path class="st53" d="M230.26,242.49c0.17,0.2,0.34,0.4,0.51,0.61c0.09,0.19,0.18,0.39,0.28,0.58c0.04,0.34,0.08,0.67,0.12,1.01
		c-0.48-0.18-0.96-0.35-1.45-0.53c-0.26-0.13-0.44-0.33-0.53-0.61c-0.08-0.43,0.01-0.82,0.32-1.15
		C229.78,242.25,230.03,242.28,230.26,242.49z"/>
	<path class="st54" d="M230.73,238.69c0.18-0.38,0.36-0.75,0.55-1.13c0.12,0.04,0.23,0.07,0.36,0.08c1.06,0.78,0.45,1.75,0.29,2.66
		c-0.06,0.37-0.11,0.73-0.17,1.1c-0.33-0.68-0.65-1.37-0.98-2.05c-0.15-0.14-0.2-0.28-0.17-0.43
		C230.65,238.77,230.69,238.69,230.73,238.69z"/>
	<path class="st11" d="M135.77,255.3c-0.99-0.19-1.2-0.78-1.5-1.61C135.2,253.86,135.63,254.25,135.77,255.3z"/>
	<path class="st55" d="M227.47,247.48c0.02-0.84-0.33-1.43-1.16-1.7c-0.01-0.35-0.01-0.71-0.02-1.06c1.05,0.43,1.69,1.25,2.16,2.24
		C228.12,247.13,227.8,247.3,227.47,247.48z"/>
	<path class="st9" d="M206.02,223.05c-0.18,0.04-0.45,0.19-0.65,0.12c-0.19-0.07-0.31-0.36-0.46-0.55c0.24-0.08,0.48-0.23,0.72-0.22
		C205.9,222.41,206.15,222.58,206.02,223.05z"/>
	<path class="st38" d="M231.64,242.44c0.11-0.37,0.23-0.73,0.34-1.1c0.4-0.13,1-0.78,1.11-0.39
		C233.35,241.95,232.54,242.33,231.64,242.44z"/>
	<path class="st50" d="M149.23,251.79c-0.55,0.86-1.45,0.36-2.17,0.57C146.98,249.15,148.74,252.86,149.23,251.79z"/>
	<path class="st28" d="M175.15,239.23c0.71-0.82,1.71-0.99,2.7-1.17C177.3,239.24,176.22,239.23,175.15,239.23z"/>
	<path class="st38" d="M231.93,240.3c-0.1-0.89-0.2-1.78-0.29-2.66C233.36,238.35,232.65,239.33,231.93,240.3z"/>
	<path class="st56" d="M211.43,244.69c-0.08,0.82,0.47,1.02,1.12,1.1c-0.4,0.19-0.8,0.37-1.19,0.56c-0.36-0.55-0.72-1.11-1.08-1.66
		C210.66,244.35,211.04,244.39,211.43,244.69z"/>
	<path class="st57" d="M209.23,234.3c-0.18-0.19-0.35-0.39-0.53-0.58c0.41-0.57,1.01-0.5,1.59-0.47c0.01,0.45,0.01,0.9-0.44,1.18
		C209.59,234.62,209.39,234.57,209.23,234.3z"/>
	<path class="st51" d="M197.69,232.68c1.24-0.15,2.32-0.15,1.56,1.61C198.74,233.76,198.22,233.22,197.69,232.68z"/>
	<path class="st40" d="M215.86,255.07c-0.26,0.89-0.8,1.32-1.82,1.07C214.45,255.37,215.31,255.48,215.86,255.07
		C215.86,255.07,215.86,255.07,215.86,255.07z"/>
	<path class="st58" d="M225.71,246.34c0.02,0.53,0.05,1.05,0.07,1.58c-0.08,0.13-0.17,0.27-0.25,0.4
		C224.92,247.6,225.25,246.96,225.71,246.34z"/>
	<path class="st59" d="M204.31,244.69c0.15,0.04,0.3,0.06,0.46,0.04c0.59,0.04,0.88,0.4,0.97,0.94c-0.03,0.25-0.14,0.47-0.33,0.64
		c-0.15,0.18-0.29,0.35-0.44,0.53C204.75,246.13,204.53,245.41,204.31,244.69z"/>
	<path class="st50" d="M145.99,249.87c-0.24-0.04-0.4-0.07-0.56-0.1c0.14-0.19,0.25-0.41,0.43-0.54c0.1-0.07,0.32,0.04,0.48,0.07
		C146.23,249.5,146.1,249.69,145.99,249.87z"/>
	<path class="st50" d="M147.06,252.35c-0.08,0.5,0.02,0.91,0.53,1.14c-0.34,0.27-0.79,0.62-1.09,0.13
		C146.18,253.09,146.67,252.69,147.06,252.35z"/>
	<path class="st60" d="M206.42,231.38c0.17-0.12,0.35-0.24,0.52-0.37c0.03,0.19,0.05,0.37,0.08,0.56c0,0,0.04-0.04,0.04-0.04
		c-0.14,0.11-0.29,0.2-0.45,0.26C206.39,231.73,206.33,231.59,206.42,231.38z"/>
	<path class="st61" d="M71.61,271.41c-4.55,0.86-9.14,0.55-13.72,0.42c-3.12-0.08-6.22-0.38-9.34,0.01
		c-0.59,0.07-1.37,0.35-1.71-0.42c-0.4-0.9,0.28-1.37,0.97-1.65c1.75-0.72,1.68-2.28,1.69-3.69c0.07-11.66,0.06-23.32,0.15-34.98
		c0.02-2.42-0.98-3.51-3.43-3.5c-0.89,0-2.32,0.19-2.18-1.35c0.13-1.45,1.43-0.8,2.21-0.78c6.33,0.16,12.66,0.04,18.99-0.19
		c1.64-0.06,3.3-0.3,4.92,0.2c-0.13,0.47-0.47,0.74-1.22,1.11c1.38,0.12,2.54-0.04,3.49,0.65c0.88,0.64,1.65,1.3,0.35,2.28
		c-1.8,0.8-3.59-0.11-5.4,0c-2.36,0.14-4.74-0.01-7.12,0.08c-1.77,0.07-2.69,0.98-2.74,2.72c-0.18,7.05-1.22,14.07-0.21,21.14
		c0.48,3.33-1.12,6.58-0.83,9.95c-0.08,0.78,0.14,1.54,0.25,2.23c-0.03-0.53-0.32-1.11-0.25-1.73c-0.01-2.06-0.01-4.11,0.59-6.1
		c0.55-0.68,1.41-0.55,2.12-0.81c0.68-0.47,1.83-0.28,2.02-1.43c0.12-0.42,0.25-0.83,0.23-1.28c0.07-0.71-0.11-1.4-0.19-2.1
		c0.25-1.21,1.06-2.03,1.98-2.77c0.25-0.08,0.5-0.1,0.76-0.06c0.96,0.32,1.56,1.18,2.45,1.62c0.46,0.21,0.86,0.5,1.3,0.74
		c0.21,0.15,0.38,0.34,0.52,0.56c0.47,0.88,0.1,1.99,0.78,2.82c0.06,0.59,0.22,1.18,0.27,1.77c0.06,0.66,0.44,1.04,1.07,1.19
		c0.71,0.09,1.31,0.5,2.01,0.62c0.57,0.13,1.15,0.14,1.72,0c1.05,0.05,1.23-1.2,2.11-1.41c0.58-0.15,1.13-0.08,1.65,0.23
		c0.9,0.74,1.18,1.7,1,2.81c-0.09,0.41-0.29,0.78-0.58,1.08c-0.51,0.51-1.2,0.88-1.37,1.67c-0.09,0.37-0.14,0.74-0.27,1.1
		c-0.44,0.78-0.52,1.85-1.65,2.08c-0.85,0.06-0.94-0.73-1.33-1.19c-0.07-0.14-0.12-0.29-0.13-0.45c0.01,0.14,0.05,0.27,0.11,0.42
		c0.45,0.75,0.87,1.5,0.99,2.37c0.06,0.64,0.37,1.24,0.29,1.9c-0.24,1.31-1.48,1.23-2.35,1.66
		C72.29,271.14,71.92,271.22,71.61,271.41z"/>
	<path class="st61" d="M73.22,229.01c-1.33-1.81-3.3-1.06-5.04-1.28c-0.86-0.11-2.31,0.53-2.27-1.09c0.04-1.56,1.45-0.95,2.33-1.07
		c0.63-0.09,1.27-0.06,1.91-0.09c2.96-0.14,5.75,0.91,8.65,1.26c1.03,0.66,1.62,2.31,3.32,1.47c7.7,3.76,11.98,13.47,10.14,22.66
		c-0.87,4.35-2.73,8.21-5.25,11.81c-0.39,0.68-0.66,1.47-1.54,1.74c-1.95,1.56-3.72,3.37-6.08,4.37c-1.32,0.77-2.12,0.29-2.56-1.05
		c-0.61-1.51-1.1-3,0.85-3.98c1.55-0.46,2.25-1.83,3.01-3.01c4.48-6.88,5-18.62-0.02-25.52c-1.43-1.96-3.29-3.05-5.32-4.06
		C74.4,230.68,73.27,230.38,73.22,229.01z"/>
	<path class="st28" d="M103.56,250.64c1.52,0.76,2.81-0.26,4.14-0.64c0.69-0.2,1.24-0.51,1.56,0.24c0.27,0.64-0.61,0.73-0.91,0.97
		c-2.37,1.95-7.34,1.75-9.72-0.27c-2.53-2.15-3.2-7.14-1.4-10.32c1.55-2.72,5.86-4.35,8.85-3.33c2.6,0.89,3.57,2.92,3.85,5.43
		c0.16,1.4-0.82,1.71-1.88,1.76c-2.37,0.1-4.75,0.18-7.12,0.14c-1.66-0.03-2.14,0.44-1.45,2.07c0.63,1.49,0.93,3.15,2.91,3.5
		C102.74,250.44,103.27,250.25,103.56,250.64z"/>
	<path class="st62" d="M99.12,271.47c-1.67-1.58-3.39,0.09-5.09-0.08c-0.13-0.23-0.18-0.47-0.15-0.73c0.23-0.72,0.87-1.21,1.13-1.91
		c0.77-1.35,0.08-2.53-0.45-3.72c-0.01-0.26,0.07-0.48,0.24-0.67c1.7,0.21,2.54-1.58,4.37-1.65c1.66-0.06,2.43-0.33,2.48,1.65
		c0.02,0.7,0.89,1.32,0.82,2.19c-0.01,0.11-0.01,0.22-0.02,0.33c-0.07,0.21-0.19,0.39-0.33,0.57c-0.14,0.18-0.31,0.32-0.49,0.46
		c-1.04,0.9-0.01,2.64-1.39,3.4C99.87,271.45,99.49,271.47,99.12,271.47z"/>
	<path class="st8" d="M101.48,267.1c0.14,0,0.28,0,0.42,0c0.79,0.23,1.67,0,2.42,0.47c0.11,0.02,0.23,0.05,0.34,0.07
		c0.16,0,0.31,0,0.47,0c1.12,1.29,1.69,2.97,2.94,4.17c-0.7,1.8-2.82,2.56-3.42,1.16c-0.72-1.66-1.77-0.27-2.46-0.8
		c-0.35-0.45-0.86-0.74-1.19-1.21C100.86,269.64,100.31,268.26,101.48,267.1z"/>
	<path class="st63" d="M132.18,271.59c-1.27,1.5-2.57,0.32-3.86,0.03c0.41-1.58-0.98-3.6,1.18-4.76c0.73-0.07,1.44-0.78,2.18-0.05
		l-0.08,0.07C132.61,268.35,132.02,270.01,132.18,271.59z"/>
	<path class="st63" d="M192.2,270.92c-0.19,0.19-0.39,0.38-0.58,0.57c-1.32,1.45-1.88,0.24-2.52-0.71c-0.71-1-1.17-2.02-0.21-3.14
		c0.19-0.19,0.38-0.37,0.57-0.56c0.98-0.7,1.95-0.65,2.91,0.04C192.27,268.39,191.58,269.63,192.2,270.92z"/>
	<path class="st64" d="M237.45,271.45c-1.42,0.42-2.91,1.47-4.01-0.53c0.25,0.03,0.5,0.05,0.75,0.08c1.06-0.16,0.92-0.9,0.78-1.61
		c-0.22-1.14-0.07-2.12,1.07-2.73c0.27-0.02,0.54-0.05,0.81-0.07C239.2,268,239.37,269.42,237.45,271.45z"/>
	<path class="st65" d="M77.63,267.04c0.02,1.15,0.61,1.73,1.77,1.74c0.02,1.45-0.81,2.08-2.16,2.19c-1.88,0.16-3.75,0.3-5.63,0.45
		c0.19-0.17,0.37-0.35,0.56-0.52c0.61-0.83,1.96-0.13,2.46-1.18c0.19-0.29,0.32-0.61,0.55-0.88c0.59-0.39,0.72-1.11,1.1-1.65
		C76.69,266.78,77.14,266.7,77.63,267.04z"/>
	<path class="st36" d="M90.34,271.46c-0.59,0.03-1.24,0.27-1.56-0.51c1.02-2.35-0.04-4.83,0.47-7.22c1.45-0.41,1.73,0.55,1.93,1.61
		c0.37,1.8,0.69,3.6-0.21,5.35C90.78,270.97,90.57,271.22,90.34,271.46z"/>
	<path class="st66" d="M214.73,266.61c-1.21,1.11-1.24,2.46-0.84,3.91c0.1,0.35,1.07,0.36,0.45,0.9c-0.45,0.39-1.04,0.16-1.43-0.32
		c-0.58-0.71-0.14-1.6-0.41-2.37c-0.24-1.35-0.38-2.69,0.61-3.93C214.35,264.75,213.22,266.93,214.73,266.61z"/>
	<path class="st67" d="M172.48,267.1c-0.43,1.03-0.45,2.1-0.36,3.2c0.03,0.41,0.9,0.97-0.14,1.24c-0.34,0.09-0.77,0.12-1.07-0.02
		c-0.82-0.38-0.14-1.03,0.01-1.33c0.67-1.32-1.31-2.94,0.53-4.06C171.79,266.45,172.13,266.77,172.48,267.1z"/>
	<path class="st68" d="M90.39,265.47c-0.17-0.71,0.22-1.79-1.14-1.73c1.46-0.49,2.93-1.16,4.41-0.04c-0.37,0.83,1.08,0.81,0.77,1.62
		C93.16,267.45,91.79,266.84,90.39,265.47z"/>
	<path class="st69" d="M149.18,271.45c-1.18,0.34-3.15-0.27-2.61,2.14c-0.81,0.27-0.83,0.27-0.89-0.4c-0.17-2.02,0.32-4.08-0.3-6.08
		c-0.46-0.4-0.08-0.51,0.22-0.65c0.74-0.34,1.03,0.27,1.42,0.66c0.1,0.08,0.19,0.17,0.29,0.25c0.4,1.17,0.62,2.44,1.78,3.19
		c0.04,0.12,0.09,0.24,0.13,0.35C149.23,271.1,149.22,271.27,149.18,271.45z"/>
	<path class="st61" d="M82.12,228.2c-0.73,1.78-2.04,1.44-3.35,0.84c-1.64-0.75,1.25-1.52,0.02-2.31
		C80.03,226.94,81.18,227.33,82.12,228.2z"/>
	<path class="st70" d="M115.1,267.62c-0.46,0.92-0.51,1.91-0.23,2.85c0.19,0.63,0.68,1.15-0.48,1.12c-0.68-0.02-1.23,0.01-0.93-1.03
		c0.21-0.73,0.06-1.57,0.08-2.36c0.41-0.57-0.75-1.08-0.12-1.6c0.54-0.44,1.13-0.21,1.63,0.22
		C115.32,267.06,115.34,267.33,115.1,267.62z"/>
	<path class="st71" d="M236.04,266.66c-0.11,1.25-0.3,2.5-0.31,3.74c0,1.67-0.64,1.39-1.54,0.6c0.4-0.32,0.36-0.75,0.28-1.18
		c-0.6-0.84,0.19-1.91-0.44-2.75l0.02,0.01c-0.2-1.14,0.87-0.66,1.29-1.01C235.58,266.27,235.81,266.46,236.04,266.66z"/>
	<path class="st71" d="M220.24,267.6c-0.49,0.82-0.41,1.71-0.35,2.6c0.04,0.55,0.51,1.29-0.59,1.34c-1.15,0.06-0.67-0.64-0.63-1.23
		c0.06-0.7-0.03-1.42-0.05-2.13c0.19-0.67-1.01-2.24,1.1-1.64C220.01,266.84,220.6,266.99,220.24,267.6z"/>
	<path class="st72" d="M129.57,267.16c-0.64,1.14-0.71,2.38-0.28,3.55c0.49,1.31-0.59,0.67-0.97,0.9c-1.02-0.11-0.58-0.64-0.51-1.27
		c0.12-1.1,0.61-2.36-0.56-3.28c0,0,0.01,0.01,0.01,0.01c-0.21-1.15,0.88-0.66,1.3-1.01c0.1,0.15,0.21,0.31,0.31,0.46
		C129.09,266.76,129.47,266.82,129.57,267.16z"/>
	<path class="st73" d="M107.97,271.97c-2.53-0.42-3.26-2-2.84-4.33c0.39-0.18,0.78-0.35,1.17-0.53c0.38,0.15,0.61,0.43,0.74,0.81
		c0.08,0.35,0.14,0.71,0.23,1.06c0.09,1.1,1.39,1.12,1.78,1.95c-0.2,0.3-0.41,0.61-0.61,0.91c-0.04,0.17-0.08,0.35-0.12,0.52
		C108.21,272.23,108.09,272.1,107.97,271.97z"/>
	<path class="st74" d="M189.52,270.93c0.53,0.79,1.3,0.72,2.1,0.56c-0.3,2.28-0.28,2.2-2.23,1.68c-0.85-0.22-1.8-0.05-2.7-0.06
		c-0.13-0.49-0.03-0.76,0.55-0.55c0.94,0.01,1.75-0.22,2.18-1.16c-0.15-0.15-0.18-0.27-0.1-0.36
		C189.38,270.97,189.45,270.93,189.52,270.93z"/>
	<path class="st75" d="M166.8,267.12c0.02,0.98-0.06,1.97,0.07,2.93c0.27,1.99-0.61,1.57-1.68,0.86c-0.09-0.08-0.18-0.16-0.26-0.24
		c-0.38-0.78-0.07-1.65-0.3-2.45c-0.04-0.5-0.04-0.99,0.22-1.44c0.26-0.28,0.53-0.54,0.94-0.24
		C166.13,266.73,166.47,266.92,166.8,267.12z"/>
	<path class="st76" d="M228.97,269.29c0-0.19,0-0.37,0-0.56c-0.2-0.36-0.23-0.72-0.02-1.08c-0.22-1.08,0.18-1.47,1.26-1.1
		c0.08,1.49-0.4,3.01,0.3,4.46c-0.33,1.06-0.53,1.08-2.03,0.22C228.01,270.41,228.46,269.84,228.97,269.29z"/>
	<path class="st77" d="M145.38,267.11c1.07,1.27,0.33,2.8,0.61,4.18c0.16,0.77-0.67,1.81,0.58,2.3c0.16,0.37,1.1,0.78,0.12,1.11
		c-0.71,0.24-1.74,0.35-1.42-1.04C145.31,271.47,145.34,269.29,145.38,267.11z"/>
	<path class="st78" d="M196.58,269.27c0.02,0.35,0.03,0.7,0.05,1.05c0.3,0.6-0.01,0.84-0.55,0.96c-1.3-1.53-1.09-3.22,0.51-4.12
		c0.1,0.07,0.21,0.13,0.31,0.2c0.25,0.3,0.34,0.65,0.3,1.03C197.11,268.76,196.86,269.02,196.58,269.27z"/>
	<path class="st8" d="M85.47,264.4c0.51-0.58,1.03-1.16,1.54-1.74c-0.33,2.57-0.13,5.22-1.08,7.71l0,0
		C85.74,268.39,86.39,266.34,85.47,264.4z"/>
	<path class="st79" d="M180.53,266.61c0.2-0.01,0.4-0.03,0.6-0.04c2.07-0.36,2.54,0.65,2.1,2.42c-0.37,0.77-0.94,1.2-1.84,1.06
		c-0.29-0.13-0.46-0.35-0.52-0.66C180.16,268.53,179.89,267.62,180.53,266.61z"/>
	<path class="st80" d="M138.23,271.54c-1.38-0.19-1.65-1.37-2.14-2.35c0.44-0.75,0.11-2.09,1.58-2.04c0.13,0.06,0.25,0.13,0.38,0.19
		c0.96,1.05,0.98,2.29,0.74,3.58C138.67,271.18,138.48,271.39,138.23,271.54z"/>
	<path class="st81" d="M237.45,271.45c1.32-1.81,1-3.41-0.6-4.86c0.86-0.22,1.61,0.1,2.34,0.48c-0.02,0.99-0.24,2.02-0.02,2.96
		C239.58,271.84,238.54,271.6,237.45,271.45z"/>
	<path class="st82" d="M132.18,271.59c-1.06-1.46-0.27-3.16-0.58-4.71c1.06,0.1,1.17,0.82,1.19,1.68c0.03,0.94-0.28,1.95,0.43,2.79
		C132.87,271.43,132.53,271.51,132.18,271.59z"/>
	<path class="st83" d="M140.47,267.05c2.1,1.26,2.09,2.4-0.05,3.93c0,0-0.02-0.03-0.02-0.03c-1.01-1.16-1.18-2.39-0.28-3.7
		C140.24,267.18,140.36,267.12,140.47,267.05z"/>
	<path class="st84" d="M182.88,269.26c0.12-1.35,0.04-2.57-1.75-2.7c1.29-1.16,2.57,0.45,3.85,0c0.01,1.21-0.83,1.94-1.56,2.74
		l-0.02,0.02C183.2,269.49,183.03,269.48,182.88,269.26z"/>
	<path class="st85" d="M228.53,270.97c0.66,0.16,1.3,1.14,1.97,0.03c0.26-0.02,0.53-0.05,0.79-0.07c-1.62,2.49-3.59,1.33-5.52,0.53
		c0.7-0.62,1.51-0.75,2.4-0.59C228.29,270.9,228.41,270.94,228.53,270.97z"/>
	<path class="st86" d="M165.23,267.03c0.34,0.39,0.82,0.77,0.02,1.17c-0.16,0.35-0.41,0.59-0.8,0.66c-0.11-0.04-0.23-0.08-0.34-0.13
		c-0.27-0.74-3.1-0.32-0.99-2.14C163.74,267.13,164.66,266.28,165.23,267.03z"/>
	<path class="st87" d="M149.78,266.62c2.15,1.73,1.33,3.08-0.55,4.3c0,0,0.03,0.04,0.03,0.04c-1.28-1.1-0.4-2.44-0.41-3.69
		C149.03,266.88,149.38,266.72,149.78,266.62z"/>
	<path class="st88" d="M199.46,266.53c0.33,0.78,1.19,1.54,0.04,2.35c-0.39,0.16-0.72,0-1.04-0.18c-0.56-0.62-1.11-1.25-1.91-1.59
		c0,0,0.03,0.04,0.03,0.04C197.22,265.43,198.36,266.08,199.46,266.53z"/>
	<path class="st8" d="M235.35,266.07c-0.32,0.47-1.15,0.3-1.29,1.01c-0.4,0.18-0.81,0.36-1.21,0.53c-0.53,0.22-0.92-0.04-1.06-0.49
		c-0.22-0.73,0.31-0.89,0.9-0.92C233.57,266.15,234.46,266.12,235.35,266.07z"/>
	<path class="st89" d="M175.6,267.12c-0.19,1.43,0.87,3-0.48,4.31c-0.7-1.19,0.1-2.57-0.49-3.78c-0.37-0.36-0.73-0.72-1.1-1.08
		C174.31,266.43,175,266.61,175.6,267.12z"/>
	<path class="st90" d="M121.72,266.55c0.4,0.02,0.8,0.03,1.21,0.05c0.65,0.49,1.12,1.03,0.36,1.8c-0.84,0.43-1.71,0.44-2.58,0.09
		c-0.39-0.32-0.43-0.73-0.34-1.19C120.62,266.7,121.01,266.35,121.72,266.55z"/>
	<path class="st91" d="M189.52,270.93c-0.07,0.15-0.1,0.31-0.11,0.48c-1.26-0.46-1.71-1.43-1.72-2.68
		c-0.19-0.61,0.21-0.86,0.67-1.07c0.17-0.01,0.35-0.01,0.52-0.01C189.09,268.74,189.31,269.84,189.52,270.93z"/>
	<path class="st45" d="M243,270.92c-0.59,0.72-1.21,0.88-1.38-0.22c-0.15-0.94-0.03-1.92-0.02-2.89c-0.15-0.56,0.08-0.78,0.64-0.7
		C242.95,268.3,242.01,269.8,243,270.92z"/>
	<path class="st92" d="M165.19,270.9c-0.52,0.93-1.38,0.7-2.2,0.64c0,0-0.07-0.04-0.07-0.04c-0.27-0.33-0.76-0.55-0.59-1.12
		c0.22-0.94,0.67-1.64,1.77-1.65c0,0-0.04,0.03-0.04,0.03c0.77,0.52,0.46,1.62,1.16,2.18L165.19,270.9z"/>
	<path class="st87" d="M155.79,266.62c-0.67,1.23,0.78,1.96,0.73,3.04c0.21,0.57-0.09,0.71-0.58,0.69c-0.56-1.1-1.11-2.2-1.67-3.29
		C154.42,265.69,155.15,266.32,155.79,266.62z"/>
	<path class="st63" d="M182.88,269.26c0.17,0.04,0.34,0.06,0.51,0.06c0.17,0.49,0.34,0.98,0.51,1.48c-0.09,0.14-0.19,0.28-0.28,0.42
		c-1.33,0.44-2.78,1.08-2.44-1.38C181.75,269.64,182.31,269.45,182.88,269.26z"/>
	<path class="st93" d="M106.35,268.14c-0.02-0.34-0.03-0.69-0.05-1.03c0.13-0.19,0.26-0.38,0.39-0.57c0.84-0.21,1.59-0.09,2.19,0.59
		c0.59,0.82,0.16,1.27-0.57,1.63C107.5,269.04,106.88,268.74,106.35,268.14z"/>
	<path class="st94" d="M192.36,267.13c-0.97-0.01-1.94-0.02-2.91-0.04C190.45,265.4,191.41,265.55,192.36,267.13z"/>
	<path class="st95" d="M157.65,269.3c0.18-0.94,0.37-1.88,0.61-3.1c1.03,1.31,0.65,2.21-0.28,3.07
		C157.87,269.28,157.76,269.29,157.65,269.3z"/>
	<path class="st96" d="M220.24,267.6c-0.17-0.35-0.35-0.7-0.52-1.05c0.82,0.18,2.54-1.43,2.2,1.09
		C221.35,267.63,220.79,267.61,220.24,267.6z"/>
	<path class="st97" d="M89.45,232.92c1.48,0.26,1.83,1.02,1.78,2.14C90.72,234.44,90.21,233.83,89.45,232.92z"/>
	<path class="st98" d="M149.78,266.62c-0.2,0.18-0.41,0.35-0.61,0.53c-0.76,1.26-1.45,0.68-2.14-0.07c0,0,0,0.05,0,0.05
		C147.79,266.14,148.67,265.78,149.78,266.62z"/>
	<path class="st99" d="M157.65,269.3c0.11,0,0.22-0.01,0.33-0.03c-0.12,0.88-0.24,1.87-1.18,2.17c-0.54,0.17-0.76-0.57-0.88-1.09
		c0.19-0.23,0.39-0.46,0.58-0.69C156.97,269.77,157.41,269.85,157.65,269.3z"/>
	<path class="st100" d="M137.67,267.14c0.88-1.54,1.81-1.98,2.8-0.09c0,0-0.17,0.11-0.17,0.11c-0.9,0.86-1.78,0.78-2.65-0.05
		L137.67,267.14z"/>
	<path class="st101" d="M108.54,268.23c0.43-0.38-0.04-0.7-0.07-1.05c-0.22-0.3-0.2-0.57,0.09-0.82c1.12,0.37,1.45,1.23,1.44,2.31
		c-0.27,0.07-0.54,0.13-0.82,0.2C108.64,268.97,108.44,268.75,108.54,268.23z"/>
	<path class="st102" d="M185.11,272.57c-0.34,0.43-0.42,1.14-1.19,1.13c-0.87-0.41-1.09-1.11-0.9-2c0.18-0.4,0.55-0.55,0.92-0.69
		l-0.04-0.22c0.16,0.09,0.34,0.13,0.52,0.15C185.07,271.31,185.55,271.75,185.11,272.57z"/>
	<path class="st103" d="M196.07,271.27c0.18-0.32,0.37-0.64,0.55-0.96c0.55,0.69,1.71,0.26,2.16,1.15
		c-0.57,0.84-1.25,1.19-2.19,0.53c0,0,0.01,0.01,0.01,0.01C196.43,271.76,196.25,271.52,196.07,271.27z"/>
	<path class="st104" d="M180.53,266.61c0.13,0.9,0.27,1.81,0.4,2.71c-0.16,0.24-0.31,0.25-0.46-0.01c-1.18-0.31-0.95-1.19-0.85-2.03
		C179.92,267.06,180.23,266.83,180.53,266.61z"/>
	<path class="st63" d="M183.42,269.3c0.52-0.91,1.04-1.83,1.56-2.74C185.64,268.14,184.46,268.68,183.42,269.3z"/>
	<path class="st87" d="M123.31,268.12c-0.13-0.51-0.26-1.02-0.38-1.52c1.41,0.07,1.56,1.05,1.54,2.13c-0.37,0.03-0.73,0.06-1.1,0.1
		c-0.15-0.15-0.2-0.3-0.17-0.46C123.23,268.2,123.27,268.12,123.31,268.12z"/>
	<path class="st105" d="M94.2,264.93c-0.72-0.49-1.58-0.61-2.58-0.7c0.7-0.86,1.44-0.33,2.03-0.53c0.38,0.22,0.76,0.45,1.14,0.67
		c-0.05,0.18-0.07,0.35-0.08,0.54c-0.08,0.07-0.17,0.13-0.25,0.2C94.38,265.04,94.29,264.98,94.2,264.93z"/>
	<path class="st63" d="M185.11,272.57c-0.23-0.54-0.45-1.08-0.68-1.62c0.94,0.54,1.87,1.08,2.81,1.62
		c-0.18,0.18-0.37,0.36-0.55,0.55C186.16,272.93,185.63,272.75,185.11,272.57z"/>
	<path class="st72" d="M242.24,267.12c-0.21,0.23-0.43,0.46-0.64,0.7c-0.63-0.78-1.53-0.64-2.37-0.7
		C240.23,265.89,241.23,265.57,242.24,267.12z"/>
	<path class="st106" d="M165.23,267.03c-0.71-0.11-1.56,0.42-2.11-0.43c0.88-0.22,1.75-1.04,2.67-0.06
		C165.6,266.7,165.42,266.87,165.23,267.03z"/>
	<path class="st107" d="M129.57,267.16c-0.23-0.21-0.46-0.42-0.68-0.63c0.91,0.36,2.02-1.39,2.8,0.27
		C130.97,266.93,130.27,267.05,129.57,267.16z"/>
	<path class="st8" d="M121.72,266.55c-0.37,0.18-0.73,0.37-1.1,0.55c-0.19,0.26-0.38,0.27-0.56-0.01c0,0-0.14-0.06-0.15-0.06
		c-0.09-0.3-0.57-0.67-0.14-0.88C120.45,265.82,121.15,266.04,121.72,266.55z"/>
	<path class="st108" d="M115.1,267.62c-0.02-0.27-0.04-0.53-0.06-0.8c0.53-0.25,1.07-0.51,1.6-0.76
		C117.41,267.82,115.92,267.39,115.1,267.62z"/>
	<path class="st109" d="M158.71,270.91c0.47-0.04,0.67,0.18,0.59,0.44c-0.09,0.3-0.28,0.65-0.54,0.81
		c-0.27,0.16-0.51-0.13-0.44-0.42C158.4,271.43,158.6,271.15,158.71,270.91z"/>
	<path class="st8" d="M234.04,267.07c0.97,0.79,0.41,1.81,0.44,2.75C233.3,269.07,234.16,267.99,234.04,267.07z"/>
	<path class="st10" d="M103.56,250.64c-0.47,0.06-0.88-0.04-1.17-0.45c0.42-0.22,0.69-0.95,1.24-0.66
		C104.1,249.77,103.69,250.26,103.56,250.64z"/>
	<path class="st8" d="M162.34,270.39c0.2,0.37,0.39,0.74,0.59,1.12c-0.57-0.12-1.55-0.12-1.63-0.38
		C161.09,270.44,162.04,270.74,162.34,270.39z"/>
	<path class="st8" d="M102.45,266.55c1.02-0.21,2.05-0.43,2.2,1.09c0,0-0.01,0-0.01,0C103.78,267.56,102.67,267.94,102.45,266.55
		L102.45,266.55z"/>
	<path class="st110" d="M155.79,266.62c-0.56-0.03-1.15-0.19-1.52,0.44c-0.38-0.18-0.53-0.58-0.23-0.77
		C154.66,265.88,155.32,265.91,155.79,266.62z"/>
	<path class="st8" d="M128.57,266.07c-0.43,0.34-0.87,0.67-1.3,1.01c-0.18-0.15-0.55-0.38-0.53-0.44
		C127.13,265.82,127.9,266.12,128.57,266.07z"/>
	<path class="st63" d="M188.36,267.66c-0.22,0.36-0.45,0.71-0.67,1.07c-0.35-0.26-0.85-0.53-0.53-1.04
		C187.47,267.21,187.95,267.52,188.36,267.66z"/>
	<path class="st8" d="M85.94,270.38c-0.05,0.56,0.15,1.2-0.44,1.72C84.94,271.22,85.54,270.83,85.94,270.38
		C85.94,270.38,85.94,270.38,85.94,270.38z"/>
	<path class="st111" d="M108.55,266.36c-0.03,0.27-0.06,0.55-0.09,0.82c-0.59-0.21-1.19-0.42-1.78-0.63
		C107.26,265.99,107.87,265.83,108.55,266.36z"/>
	<path class="st112" d="M183.27,271.55c0.74,0.56,0.57,1.39,0.65,2.15c0,0,0.04-0.04,0.04-0.04c-1.1,0.77-2.26,1.14-3.56,0.53
		l-0.18,0.03l-0.17-0.04c-0.63-1.36,0.14-2.19,1.14-2.94C181.89,271.29,182.65,270.92,183.27,271.55z"/>
	<path class="st113" d="M202.73,266.89c1.64-0.47,3.29-0.92,4.89,0.12c0.26,0.33,0.21,0.61-0.15,0.83
		c-2.29-1.15-2.56-0.95-2.71,1.78c-0.04,0.65,0.63,1.93-0.78,1.78c-1.1-0.12-0.09-1.12-0.28-1.71c-0.26-0.8,0.36-1.8-0.51-2.5
		C202.81,267.45,202.65,267.35,202.73,266.89z"/>
	<path class="st7" d="M245.58,274.75l-0.27,0c0,0-0.27,0-0.27,0c0-4.06,0-8.13,0-12.19c0.18,0,0.37,0,0.55,0
		C245.58,266.62,245.58,270.69,245.58,274.75z"/>
	<path class="st7" d="M202.73,266.89c0.15,0.1,0.31,0.2,0.46,0.3c-0.02,1.32-0.86,2.09-2,2.23c-0.85,0.1-0.76-0.88-0.72-1.48
		C200.57,266.26,202.37,268.1,202.73,266.89z"/>
	<path class="st114" d="M225.74,270.93c-0.08-0.16-0.24-0.32-0.24-0.47c-0.02-1.3-0.26-3.81,0.04-3.72
		c1.83,0.58,0.37,2.35,0.82,3.56C226.5,270.85,226.33,271.1,225.74,270.93z"/>
	<path class="st7" d="M228.97,269.29c0.26,0.67-0.38,1.1-0.44,1.69c0,0,0.03-0.07,0.03-0.07c-0.69,0.31-1.4,0.71-1.72-0.43
		C226.8,268.75,227.85,268.96,228.97,269.29z"/>
	<path class="st38" d="M207.48,267.84c0.05-0.28,0.1-0.55,0.15-0.83c1.38,1.08,0.28,2.71,0.88,3.98c0.03,0.07-0.3,0.45-0.47,0.45
		c-0.38,0.01-0.65-0.24-0.64-0.67C207.43,269.8,207.45,268.82,207.48,267.84z"/>
	<path class="st115" d="M198.75,268.11c0.25,0.25,0.5,0.51,0.76,0.76c-0.98,0.13-1.95,0.26-2.93,0.39c0.01-0.36,0.01-0.72,0.02-1.08
		C197.29,267.6,198.01,267.54,198.75,268.11z"/>
	<path class="st116" d="M183.27,271.55c-0.68-0.01-1.35-0.02-2.03-0.02c-1,0.04-1-0.45-0.61-1.15c-0.05-0.36-0.11-0.71-0.16-1.07
		c0.15,0.06,0.31,0.06,0.46,0.01c0.08,0.17,0.17,0.34,0.25,0.51c0.18,2.09,1.95,0.54,2.76,1.18
		C183.72,271.19,183.49,271.37,183.27,271.55z"/>
	<path class="st117" d="M180.63,270.38c0.2,0.38,0.41,0.76,0.61,1.15c-0.97,0.63-0.91,1.72-1.2,2.66
		C178.37,272.63,180.27,271.62,180.63,270.38z"/>
	<path class="st118" d="M180.4,274.19c1.23,0.11,2.41-0.15,3.56-0.53C182.96,275.11,181.74,275.08,180.4,274.19z"/>
	<path class="st119" d="M219,273.22c-0.18,0.12-0.44,0.35-0.75,0.45c-0.08,0.03-0.43-0.33-0.42-0.5c0.02-0.41,0.38-0.54,0.75-0.54
		C218.85,272.64,219.12,272.69,219,273.22z"/>
	<path class="st120" d="M174.63,267.65c0.83,1.17,0.4,2.51,0.49,3.78C174.07,270.29,174.89,268.9,174.63,267.65z"/>
	<path class="st7" d="M196.6,272c0.83,0.24,1.52-0.13,2.19-0.53C198.31,272.67,197.73,273.45,196.6,272z"/>
	<path class="st121" d="M226.84,270.48c0.44,0.65,1.15,0.27,1.72,0.43c-0.74,1.11-1.79,0.7-2.79,0.55
		c-0.07-0.17-0.08-0.35-0.03-0.53c0.21-0.21,0.41-0.42,0.62-0.63C226.51,270.38,226.67,270.43,226.84,270.48z"/>
	<path class="st7" d="M228.95,267.65c0.01,0.36,0.01,0.72,0.02,1.08c-0.39-0.32-1.15-0.7-1.1-0.94
		C227.97,267.22,228.57,267.7,228.95,267.65z"/>
	<path class="st7" d="M107.97,271.97c0.14-0.12,0.3-0.16,0.48-0.13c0.41,1.58,0.51,2.3-1.83,2.51c-1.95,0.18-3.86-0.84-5.82,0.28
		c0.23-1.04,0.4-1.8,0.56-2.56c0.32-0.33,0.66-0.38,1.03-0.08c1.83-0.7-0.31-1.37,0.06-2.2c1.2,0.16,1.57,1.33,2.22,2.07
		C105.8,273.14,106.81,273.4,107.97,271.97z"/>
	<path class="st122" d="M137.65,267.11c0.89-0.36,1.77-0.06,2.66,0.05c0.29,1.26,0.39,2.52,0.09,3.79c-0.17,0-0.34,0-0.52-0.02
		c-0.55,0.45-1.1,0.44-1.65,0C137.4,269.75,137.59,268.42,137.65,267.11z"/>
	<path class="st7" d="M109.06,270.93c-1.18-0.08-2.61,0.25-2.72-1.62c0.89-0.77,1.8-0.58,2.72-0.07
		C111.23,269.8,109.4,270.37,109.06,270.93z"/>
	<path class="st123" d="M120.06,267.09c0.19,0,0.38,0.01,0.56,0.01c0.02,0.34,0.04,0.68,0.06,1.03c0.27,0.41,0.27,0.81-0.01,1.21
		c-0.18,1.22,0.83,1.32,1.58,1.66c0.06,0.46,0.02,0.8-0.58,0.5C118.91,270.83,119.23,269.05,120.06,267.09z"/>
	<ellipse class="st7" cx="51.25" cy="274.48" rx="2.59" ry="0.19"/>
	<path class="st124" d="M120.67,269.34c0-0.4,0.01-0.81,0.01-1.21c0.88,0,1.75,0,2.63-0.01c0.02,0.24,0.04,0.47,0.06,0.71
		C122.57,269.49,121.55,269.07,120.67,269.34z"/>
	<path class="st125" d="M109.05,269.25c-0.91,0.02-1.81,0.04-2.72,0.07c0.01-0.39,0.01-0.78,0.02-1.17
		c0.73,0.03,1.46,0.06,2.19,0.09c0.21,0.21,0.43,0.42,0.64,0.64C109.13,268.99,109.09,269.12,109.05,269.25z"/>
	<path class="st126" d="M90.34,271.46c0.01-0.2,0.02-0.39,0.03-0.59c0.86-0.91,1.82-1.52,3.15-0.98c0.41,0.23,0.66,0.58,0.71,1.05
		c-0.09,0.14-0.15,0.3-0.2,0.46C92.8,271.57,91.58,271.83,90.34,271.46z"/>
	<path class="st127" d="M102.38,271.99c-0.34,0.03-0.68,0.05-1.03,0.08c-0.76-0.14-1.61,0.06-2.24-0.6c0.26-0.15,0.51-0.3,0.77-0.45
		c0.62-0.09,1.23-0.08,1.85-0.01C102.25,271.14,102.35,271.55,102.38,271.99z"/>
	<path class="st62" d="M93.84,273.45c-0.12,0.1-0.29,0.34-0.51,0.4c-0.3,0.08-0.54-0.15-0.45-0.44c0.07-0.21,0.31-0.45,0.52-0.51
		C93.69,272.81,93.89,273.01,93.84,273.45z"/>
	<path class="st128" d="M138.23,270.93c0.55,0,1.1,0,1.65,0c-0.16,1.24-0.77,1.28-1.65,0.61
		C138.23,271.33,138.23,271.13,138.23,270.93z"/>
	<path class="st129" d="M110.26,273.32c-0.2-0.1-0.45-0.17-0.45-0.24c0-0.23,0.09-0.46,0.15-0.69c0.13,0.06,0.36,0.11,0.37,0.19
		C110.35,272.82,110.29,273.06,110.26,273.32z"/>
	<path class="st130" d="M121.67,271.5c0.19-0.17,0.39-0.33,0.58-0.5c0.44,0.04,1.35-0.32,1.21,0.24
		C123.3,271.88,122.36,271.95,121.67,271.5z"/>
	<path class="st131" d="M131.44,233.46c1.38,3.26,2.56,6.08,3.78,8.88c0.52,1.2-0.07,1.41-1.1,1.4c-1.83-0.02-3.65-0.02-5.48,0.01
		c-1.03,0.01-1.57-0.15-1.01-1.37C128.89,239.58,130.04,236.75,131.44,233.46z"/>
	<path class="st132" d="M141.45,250.93c-0.29,0.13-0.51,0.27-0.74,0.34c-0.28,0.08-0.56-0.01-0.46-0.34
		c0.06-0.2,0.34-0.35,0.55-0.46C140.85,250.44,141.03,250.63,141.45,250.93z"/>
	<path class="st133" d="M210.89,235.37c0.21,0.01,0.41,0.02,0.62,0.03c1.23,0.81,1.24,2.12,1.43,3.37
		c-0.28,0.89-0.07,1.91-0.66,2.73c-0.2,0.18-0.43,0.3-0.69,0.36c-0.25,0.03-0.51,0-0.75-0.08c-0.69-0.3-0.91-1.1-1.55-1.46
		c-0.11-0.42-0.08-0.92-0.56-1.16c-0.49-0.21-0.88-0.49-0.82-1.1c0.12-0.52,0.52-0.85,0.82-1.25
		C209.36,236.2,209.89,235.43,210.89,235.37z"/>
	<path class="st134" d="M210.9,241.41c0.21,0.01,0.41,0.02,0.62,0.03c0.69,0.92,0.56,1.7-0.42,2.33c-0.31,0.11-0.6,0.07-0.87-0.12
		c-1.74-0.5-0.6-1.86-0.84-2.81C210.19,240.25,210.52,240.88,210.9,241.41z"/>
	<path class="st135" d="M208.19,238.22c0.18,0.31,0.35,0.62,0.53,0.93c-1.28,0.21-2.51,0.73-3.85,0.55c0.31-0.5,0.63-1,0.94-1.51
		c0.21-0.23,0.46-0.4,0.76-0.5C207.2,237.59,207.8,237.59,208.19,238.22z"/>
	<path class="st136" d="M205.51,245.73c-0.25-0.33-0.49-0.66-0.74-0.99c0.42-0.68,1.19-0.52,1.8-0.74c0.8,0.39,0.54,1.19,0.72,1.82
		c-0.23,0.02-0.47,0.04-0.7,0.06C206.19,246.11,205.82,246.1,205.51,245.73z"/>
	<path class="st137" d="M210.9,241.41c-0.51-0.19-1.01-0.38-1.52-0.57c-0.04-0.11-0.1-0.23-0.13-0.35
		c-0.01-0.06,0.02-0.13,0.03-0.19c0.41-0.23,0.68-0.96,1.26-0.56C211.08,240.13,210.85,240.84,210.9,241.41z"/>
	<path class="st138" d="M208.72,249.7c-0.63-0.91-1.31-1.81-0.56-2.98C208.82,247.63,208.8,248.66,208.72,249.7z"/>
	<path class="st139" d="M210.23,243.66c0.2-0.02,0.41-0.04,0.61-0.05c0.17-0.16,0.38-0.23,0.62-0.22c0.34,0.15,0.54,0.39,0.57,0.77
		c-0.2,0.18-0.39,0.36-0.59,0.54c-0.38,0-0.76,0-1.15,0C209.51,244.39,210.04,244.01,210.23,243.66z"/>
	<path class="st140" d="M225.29,241.89c-0.56-0.33-0.71-0.84-0.62-1.44c-0.41-0.51-0.62-1.06-0.37-1.71c0.63-0.85,1.36-1.2,2.3-0.43
		c0.34,0.51,0.24,1.08,0.26,1.64c0.02,0.56-0.19,1.04-0.51,1.48C226.06,241.72,225.67,241.79,225.29,241.89z"/>
	<path class="st141" d="M225.29,241.89c0.13-0.19,0.27-0.38,0.4-0.57c1.28-0.38,2.41-0.26,3.21,0.95c0.09,0.29,0.14,0.59,0.13,0.89
		c-0.02,0.47-0.15,0.89-0.57,1.17C227.4,243.51,226.35,242.7,225.29,241.89z"/>
	<path class="st142" d="M224.61,238.71c0.02,0.58,0.04,1.16,0.05,1.74c-0.55-0.05-1.1-0.1-1.65-0.15c-0.12-0.04-0.24-0.08-0.37-0.13
		c-0.32-0.26-0.48-0.6-0.44-1.01c0.16-0.52,0.53-0.88,0.97-1.18c0.24-0.1,0.49-0.13,0.75-0.1
		C224.3,238.03,224.56,238.29,224.61,238.71z"/>
	<path class="st143" d="M221.92,241.45c-0.56,0.11-1.12,0.21-1.68,0.32c-0.67-0.18-0.83-0.58-0.53-1.19
		c0.28-0.31,0.64-0.49,1.06-0.53c0.8-0.16,1.59-0.34,2.29,0.29c0,0-0.04-0.04-0.04-0.04C222.88,240.9,222.42,241.19,221.92,241.45z"
		/>
	<path class="st144" d="M228.46,244.33c0.03-0.43,0.06-0.87,0.09-1.3c0.59-0.26,0.77,0.17,0.96,0.58c0.07,0.19,0.14,0.37,0.21,0.56
		c-0.23,0.43,0.21,1.23-0.4,1.31C228.81,245.54,228.62,244.82,228.46,244.33z"/>
	<path class="st145" d="M200.42,227.71c-0.45,1.44-1.27,2-2.7,1.14c0.37-0.73,0.74-1.47,1.11-2.2c0.23-0.15,0.47-0.21,0.74-0.16
		C200.09,226.73,200.41,227.11,200.42,227.71z"/>
	<path class="st146" d="M200.42,227.71c-0.39-0.34-0.77-0.69-1.16-1.03c-0.19-0.66,0.15-0.98,0.74-1.14c0.65,0.44,1.29,0.11,1.94,0
		c0.76,0.38,0.78,1.03,0.64,1.74c-0.16,0.39-0.45,0.66-0.87,0.76c-0.27,0-0.51-0.1-0.72-0.27l0.01-0.01
		c-0.17-0.19-0.38-0.21-0.6-0.09C200.39,227.65,200.42,227.71,200.42,227.71z"/>
	<path class="st147" d="M202.1,227.19c-0.3-0.53-0.38-1.08-0.17-1.66c1.7-1.36,1.45,0.28,1.73,1.11
		C203.32,227.33,202.92,227.83,202.1,227.19z"/>
	<path class="st148" d="M202.1,227.19c0.52-0.18,1.04-0.37,1.56-0.55c0.21,0.21,0.43,0.43,0.64,0.64c-0.36,0.32-0.72,0.64-1.08,0.96
		c-0.23,0.35-0.56,0.45-0.96,0.4c-0.24-0.05-0.48-0.12-0.72-0.2c-0.07-0.1-0.14-0.2-0.21-0.3c0.07-0.1,0.13-0.21,0.2-0.31
		C201.72,227.62,201.91,227.41,202.1,227.19z"/>
	<path class="st149" d="M200,225.54c-0.25,0.38-0.49,0.76-0.74,1.14c-0.15,0-0.29-0.01-0.44-0.03c-0.5-0.48-0.72-1.08-0.12-1.54
		C199.18,224.73,199.67,225.06,200,225.54z"/>
	<path class="st150" d="M203.19,233.14c0.56,0.22,1.34-0.17,1.72,0.59c0.43,0.56,0.08,1.07-0.09,1.59c-0.23,0.63-0.54,1.22-1,1.71
		c-0.37,0.32-0.75,0.65-1.12,0.97c-0.66-1.57-0.67-3.14-0.03-4.72C202.84,233.22,203.01,233.17,203.19,233.14z"/>
	<path class="st151" d="M202.18,228.34c0.35-0.03,0.69-0.06,1.04-0.09c0.72,0.41,0.4,1.73,1.56,1.77c-0.62,0.53-1.32,1.01-1.08,1.99
		c-0.93-0.85-1.46-1.91-1.64-3.15C201.7,228.6,201.73,228.43,202.18,228.34z"/>
	<path class="st152" d="M200.39,227.65c0.26-0.33,0.46-0.29,0.6,0.09C200.79,227.71,200.59,227.68,200.39,227.65z"/>
	<path class="st153" d="M201.53,227.83c0,0.17-0.01,0.33-0.02,0.5c-0.14,0.19-0.29,0.2-0.46,0.03c-0.02-0.2-0.05-0.4-0.07-0.6
		C201.17,227.78,201.35,227.8,201.53,227.83z"/>
	<path class="st154" d="M201.06,228.36c0.15-0.04,0.3-0.05,0.46-0.03c0,0-0.03,0.01-0.03,0.01c0.22,0.09,0.29,0.19,0.22,0.28
		c-0.07,0.09-0.14,0.14-0.21,0.14C201.17,228.8,201.04,228.66,201.06,228.36z"/>
	<path class="st155" d="M201.48,228.76c0.03-0.14,0.03-0.28,0-0.42c0.23,0,0.46,0,0.69,0c-0.04,0.17-0.08,0.35-0.11,0.53
		C201.87,228.83,201.68,228.8,201.48,228.76z"/>
	<path class="st156" d="M205.51,245.73c0.36,0.05,0.72,0.1,1.08,0.15c-0.09,0.44-0.18,0.87-0.28,1.31c-0.3-0.29-0.61-0.58-0.91-0.87
		C205.44,246.12,205.47,245.92,205.51,245.73z"/>
	<path class="st157" d="M218.08,243.09c-0.36,0.48-0.71-0.02-1.07-0.01c-0.67,0.41-1.41,0.2-2.12,0.2
		c-0.87-0.36-1.65-0.77-1.28-1.94c1.73-1.21,3.33-1.31,4.74,0.5C218.47,242.31,218.38,242.72,218.08,243.09z"/>
	<path class="st158" d="M213.75,241.33c0.36,0.56,0.71,1.12,1.07,1.68c-0.42,0.63-1.3,0.02-1.73,0.64
		c-0.36,0.17-0.71,0.34-1.07,0.51c-0.18-0.15-0.35-0.3-0.53-0.45c0.31-0.79,0.52-1.63,0.91-2.39c0.31-0.27,0.66-0.32,1.05-0.21
		C213.55,241.18,213.65,241.25,213.75,241.33z"/>
	<path class="st159" d="M218.08,243.09c-0.02-0.46-0.04-0.92-0.06-1.38c0.26-0.95,0.76-1.34,1.7-0.74c0.17,0.26,0.34,0.53,0.52,0.79
		C219.68,242.47,219.18,243.27,218.08,243.09z"/>
	<path class="st160" d="M213.09,243.64c0.46-0.53,1.1-0.57,1.73-0.64c0.73,0.03,1.46,0.05,2.2,0.08
		C215.79,243.84,214.37,243.3,213.09,243.64z"/>
	<path class="st161" d="M203.82,237.03c0.18-0.79-0.78-1.48-0.2-2.31c0.84-0.01,1.89-0.85,2.37,0.58c-0.39,0.55-0.79,1.1-1.18,1.64
		C204.48,236.97,204.15,237,203.82,237.03z"/>
	<path class="st162" d="M206.51,238.13c-0.23,0.02-0.46,0.04-0.69,0.06c-0.15-0.23-0.29-0.46-0.44-0.69
		c0.54-0.16,1.08-0.31,1.62-0.47c0.37-0.3,0.76-0.28,1.17-0.11C208.45,238.45,206.86,237.46,206.51,238.13z"/>
	<path class="st163" d="M212,239.22c-0.28-1.26-0.81-2.49-0.49-3.83c0.56-0.96,1.07-0.37,1.59,0.04c0.26,0.87,0.73,1.55,1.63,1.86
		c0.93,1.52,1.53,2.95-0.99,3.52C212.73,240.75,212.23,240.13,212,239.22z"/>
	<path class="st164" d="M208.26,237.14c-0.42-0.04-0.85-0.08-1.27-0.11c0.6-1.02,2.28-1.17,2.24-2.72c0.2,0.04,0.41,0.08,0.61,0.12
		c0.35,0.31,0.7,0.63,1.05,0.94c-0.58,0.79-1.17,1.58-1.75,2.38C208.72,237.72,208.43,237.52,208.26,237.14z"/>
	<path class="st1" d="M215.75,235.27c-0.85,0.04-1.7,0.29-2.53-0.08C214.08,234.68,214.95,233.92,215.75,235.27z"/>
	<path class="st165" d="M205.99,235.3c-0.7-0.57-1.58-0.39-2.37-0.58c0.43-0.33,0.86-0.66,1.29-0.99c0.35-0.17,0.71-0.35,1.06-0.52
		c0.29-0.34,0.54-0.32,0.76,0.07c0.14,0.46,0.29,0.91,0.43,1.37C206.77,234.86,206.38,235.08,205.99,235.3z"/>
	<path class="st166" d="M206.73,233.27c-0.25-0.02-0.5-0.04-0.76-0.07c0.01-0.17-0.02-0.35-0.07-0.51c-0.17-0.21-0.13-0.38,0.11-0.5
		l-0.05-0.05c0.16-0.24,0.34-0.25,0.55-0.05C206.58,232.49,206.66,232.88,206.73,233.27z"/>
	<path class="st44" d="M206.02,232.2c0,0.17-0.04,0.34-0.11,0.5C205.54,232.44,205.51,232.26,206.02,232.2z"/>
	<path class="st167" d="M206.51,232.1c-0.18,0.02-0.36,0.03-0.55,0.05c0.15-0.25,0.3-0.51,0.45-0.77c0,0,0.1,0.22,0.1,0.22
		c0.13,0.13,0.16,0.26,0.1,0.37c-0.06,0.11-0.11,0.16-0.16,0.16L206.51,232.1z"/>
	<path class="st20" d="M224.12,238.11l-0.28,0l-0.25,0.11c-2.14,2.1-2.5-0.67-3.65-1.3c-0.22-0.12-0.41-0.27-0.59-0.43
		c-0.41-0.47-0.62-1.03-0.77-1.62c0.01-0.19,0.02-0.38,0.03-0.57c0.55-0.03,1.11-0.06,1.66-0.1c1.96,0.44,4.08-0.43,5.95,0.71
		c1.02,0.35,1.61,1.02,1.62,2.12c-0.29,0.36-0.51,0.8-1.01,0.94c-0.35,0.04-0.69-0.08-1.04-0.07c-0.45-0.01-0.91-0.04-1.35,0.12
		C224.34,238.05,224.23,238.08,224.12,238.11z"/>
	<path class="st90" d="M230.73,238.69c0.02,0.22,0.03,0.44,0.05,0.66c-0.81,0.94-0.57,2.06-0.52,3.14
		c-0.18-0.01-0.35-0.01-0.53-0.02c-0.64-0.06-1.22-0.21-1.58-0.8c-0.21-0.53-0.02-0.96,0.33-1.36c-0.09-1.23-0.07-2.37,1.71-2.1
		C230.37,238.37,230.55,238.53,230.73,238.69z"/>
	<path class="st168" d="M226.87,237.56c0.32-0.17,0.64-0.35,0.97-0.52c-0.09,1.09-0.17,2.19-0.26,3.28c-0.1,0.62-0.5,0.85-1.06,0.67
		c-0.37-0.12-0.39-0.46-0.16-0.78c0.02-0.5,0.03-0.99,0.05-1.49C226.61,238.35,226.42,237.83,226.87,237.56z"/>
	<path class="st169" d="M226.37,240.21c0.36,0.48,0.76,0.61,1.21,0.11c0.3,0,0.6,0,0.89,0c0.04,0.49,0.08,0.99,0.12,1.48
		c0.16,0.23,0.16,0.45-0.05,0.65c-0.95-0.38-1.91-0.75-2.86-1.13C225.92,240.95,226.14,240.58,226.37,240.21z"/>
	<path class="st19" d="M219.9,235.98c0.15,0.01,0.3,0,0.45,0c0.68,0.51,0.81,1.27,0.96,2.02c0.08,0.99,0.55,2.04-0.49,2.84
		c-0.36,0.05-0.73,0.1-1.09,0.15c-0.57,0.25-1.14,0.49-1.7,0.74c-1.42-0.13-2.85-0.26-4.27-0.39c0,0,0.03-0.01,0.03-0.01
		c-0.43-0.2-0.49-0.54-0.37-0.95c2.18-0.28,0.77-2.09,1.32-3.06c1.21,0.31,1.96-0.12,2.24-1.34
		C217.95,235.48,218.93,235.23,219.9,235.98z"/>
	<path class="st170" d="M219.9,235.98c-0.98-0.01-1.96-0.01-2.94-0.02c0.54-0.37,1.07-0.73,1.61-1.1
		C219.31,234.89,219.67,235.36,219.9,235.98z"/>
	<path class="st171" d="M206.47,232.14c0.02-0.18,0.04-0.36,0.06-0.54c0.17-0.09,0.35-0.11,0.54-0.06
		C206.86,231.74,206.66,231.94,206.47,232.14z"/>
	<path class="st172" d="M228.55,242.45c0.01-0.22,0.03-0.44,0.05-0.65c0.6-0.14,1.03,0.01,1.13,0.68c-0.07,0.38-0.14,0.75-0.21,1.13
		c-0.32-0.19-0.64-0.38-0.96-0.58C228.55,242.83,228.55,242.64,228.55,242.45z"/>
	<path class="st173" d="M73.22,229.01c9.84,3.82,14.03,11.96,11.89,23.44c-0.91,4.86-2.36,9.51-6.87,12.46
		c-0.45-0.65-0.81-1.34-0.78-2.16c-0.06-0.82,0.43-1.48,0.68-2.21c-0.15-0.91-0.31-1.82-0.46-2.73c-0.45-0.59-0.75-1.24-0.79-1.99
		c-0.01-0.25,0-0.49,0.02-0.73c0.05-0.37,0.15-0.72,0.22-1.09c0.09-0.36,0.27-0.69,0.4-1.03c1.41-1.23,0.48-2.7,0.41-4.08
		c-0.05-0.24-0.11-0.49-0.17-0.73c-0.17-0.48-0.33-0.96-0.39-1.47c-0.12-0.51-0.25-1.02-0.1-1.55c0.1-0.64,0.13-1.29,0.13-1.94
		c0.04-1.51,0.11-3.03-0.48-4.48c-0.07-0.49-0.06-0.98-0.12-1.47c-0.49-0.52,0.7-1.6-0.64-1.82c-0.71,0.12-1.27,0.61-1.97,0.73
		c-0.79,0.07-1.57,0.06-2.35,0.11c-0.26,0-0.53,0-0.79-0.01c-0.91,0.01-1.77-0.2-2.59-0.57c-0.28-0.05-0.57-0.12-0.84-0.11
		c-0.14,0.22-0.07,0.44,0,0.67c0.19,0.42,0.3,0.85,0.32,1.3c0.07,1.25-0.58,2.4-0.53,3.64c-0.31,0.97-0.52,1.95-0.47,2.97
		c-0.14,0.75-0.54,1.42-0.66,2.18c-0.67,0.87-1.16,1.9-2.13,2.51c-0.18,0.15-0.37,0.3-0.56,0.44c-0.3,0.2-0.5,0.49-0.74,0.74
		c-0.61,0.69-1.39,1.25-1.66,2.19c-0.19,0.71-0.27,1.43-0.51,2.13c-0.85,1.22-0.9,3.07-2.79,3.47c-1.2,2.04-1.04,4.31-1.16,6.54
		c-0.18,0.28-0.35,0.28-0.53,0c-0.39-11.36-0.43-22.71-0.07-34.07c0.06-1.99,1.41-1.87,2.6-1.95
		C63.58,228.02,68.44,227.83,73.22,229.01z"/>
	<path class="st174" d="M63.32,249.02c0.01-1.42,1.4-1.87,2.03-2.86c0.24-0.14,0.5-0.18,0.78-0.14c0.69,0.28,1.07,0.82,1.28,1.49
		c0.04,0.26,0.08,0.52,0.11,0.77c0.07,0.75,0.55,1.46,0.31,2.25c-0.12,0.37-0.34,0.67-0.66,0.89c-0.33,0.18-0.72,0.17-1.04,0.35
		c-2,0.61-1.71-1.19-2.25-2.11C63.66,249.48,63.36,249.36,63.32,249.02z"/>
	<path class="st175" d="M68.32,255.12c-1.31-0.68-0.74-1.74-0.56-2.72c0.08-0.25,0.23-0.45,0.43-0.61c0.69-0.32,1.47-0.33,2.16-0.65
		c0.72-0.1,1.46,0.14,2.16-0.17c0.37-0.16,0.74-0.19,1.13-0.09c0.25,0.1,0.45,0.26,0.62,0.46c0.43,0.77,0.36,1.49-0.24,2.15
		c-0.5,0.42-1.1,0.58-1.72,0.7c-0.73,0.04-1.45,0.1-2.09,0.53c-0.4,0.26-0.75,0.6-1.26,0.66C68.72,255.37,68.5,255.28,68.32,255.12z
		"/>
	<path class="st163" d="M78.16,262.63c0.02,0.76,0.05,1.51,0.07,2.27c-1.43-0.15-1.48,0.01-0.6,2.14c-0.38,0.2-0.76,0.4-1.14,0.61
		c-0.35,0.22-0.69,0.16-1.03-0.01c-0.2-0.14-0.36-0.33-0.48-0.54c-0.13-0.36-0.08-0.71,0-1.07c0.34-0.77,0.68-1.55,1.02-2.32
		C76.71,263.33,77.08,262.26,78.16,262.63z"/>
	<path class="st176" d="M68.32,255.12c0.18-0.02,0.37-0.03,0.55-0.05c1.17-0.52,2.08,0.11,3.02,0.65c0.31,0.29,0.47,0.66,0.55,1.07
		c0.11,0.39,0.23,0.78,0.15,1.19c-0.08,0.26-0.23,0.47-0.44,0.64c-0.81,0.39-1.48-0.33-2.24-0.3c-0.66-0.12-1.11-0.55-1.56-0.99
		C68.34,256.58,68.33,255.85,68.32,255.12z"/>
	<path class="st177" d="M72.16,258.41c0-0.18,0-0.35,0.01-0.53c0.02-0.4,0.07-0.79,0.35-1.11c0.7-0.51,1.32-0.26,1.9,0.22
		c0.33,0.31,0.53,0.69,0.59,1.14c0.07,0.64-0.39,1.09-0.63,1.61c-0.73,0.99-1.46,1.21-2.2,0.01
		C71.8,259.31,71.82,258.86,72.16,258.41z"/>
	<path class="st178" d="M56.21,264.37c0.18,0,0.35,0,0.53,0c0.54,1.32,1.07,2.64,1.62,3.99C56,268.39,56,268.39,56.21,264.37z"/>
	<path class="st179" d="M74.46,257.83c-0.21-0.19-0.42-0.37-0.63-0.56c-0.01-0.4,0.11-0.76,0.4-1.05c0.88-0.28,1.36-1.17,2.25-1.44
		c0.64-0.06,0.94,0.33,1.13,0.86c0.73,0.7,0.87,1.42,0.06,2.16c-0.53,0-1.06,0.01-1.58,0.01C75.55,257.98,75.01,258.26,74.46,257.83
		z"/>
	<path class="st180" d="M57.9,257.83c0.68-1.32,1.35-2.65,2.03-3.97c1.18-0.1,1.25,0.69,1.25,1.53c-0.19,1.12-1.49,1.58-1.66,2.72
		C58.8,259.03,58.37,258.3,57.9,257.83z"/>
	<path class="st181" d="M73.4,264.85c0.09-0.78-0.74-0.95-0.99-1.45c-0.26-0.52-0.96-0.96-0.6-1.65c0.12-0.23,0.64-0.45,0.89-0.38
		c0.79,0.23,1.02,0.95,1.09,1.68c0.06,0.62,0.03,1.24,0.04,1.87C73.64,265.16,73.5,265.13,73.4,264.85z"/>
	<path class="st182" d="M59.52,258.1c-0.11-1.01-0.07-1.96,0.95-2.55c0.3-0.21,0.61-0.31,0.97-0.18c0.09,0.08,0.17,0.15,0.26,0.23
		c0.42,0.8,1.38,1.84-0.52,1.88C60.47,257.5,60.04,257.82,59.52,258.1z"/>
	<path class="st183" d="M62.58,259.88c1.07-0.56,1.82-0.51,2.45,0.15c0.12,0.12,0.08,0.63-0.02,0.67
		C64.08,261.13,63.36,260.74,62.58,259.88z"/>
	<path class="st184" d="M60.67,251.79c0.43-1.05,0.98-1.97,2.25-2.16c0.1-0.08,0.21-0.16,0.31-0.24c0.08,0.1,0.17,0.21,0.25,0.31
		c-0.55,0.84-1.1,1.68-1.65,2.52c-0.1,0.09-0.2,0.17-0.3,0.26C61.09,252.43,60.8,252.21,60.67,251.79z"/>
	<path class="st185" d="M78.16,262.63c-0.42,0.95-1.14,1.32-2.17,1.06c0.02-0.33,0.03-0.66,0.05-0.99c0.5-0.56,0.84-1.29,1.62-1.57
		c0.16-0.2,0.31-0.4,0.47-0.6C78.14,261.23,78.15,261.93,78.16,262.63z"/>
	<path class="st186" d="M68.22,252.26c-0.16,0.02-0.32,0.06-0.47,0.14c-0.15-0.04-0.31-0.08-0.46-0.12
		c-0.37-0.25-0.52-0.62-0.62-1.03c0.18-0.2,0.36-0.41,0.54-0.61c0.64-0.63,1.28-1.28,2.28-0.63
		C70.31,251.44,68.99,251.7,68.22,252.26z"/>
	<path class="st187" d="M73.4,264.85c0.15-0.02,0.29,0,0.42,0.07c0.38,0.37,0.77,0.74,1.15,1.11c0.48,0.22,0.57,0.62,0.53,1.09
		c-0.33,0.78-0.83,1.08-1.62,0.56C73.72,266.73,73.56,265.79,73.4,264.85z"/>
	<path class="st188" d="M74.97,269.77c-0.47,1.51-1.78,0.98-2.8,1.13c0.24-1.21,1.61-0.92,2.22-1.64
		C74.83,269.15,75.06,269.27,74.97,269.77z"/>
	<path class="st189" d="M74.46,257.83c0.54-0.31,1.08-0.66,1.63-0.01c0,1.14-0.57,1.78-1.72,1.92
		C74.4,259.1,74.43,258.47,74.46,257.83z"/>
	<path class="st190" d="M74.97,269.77c-0.2-0.17-0.39-0.34-0.59-0.51c-0.26-0.5-0.72-0.93-0.5-1.58c0.54-0.19,1.08-0.38,1.62-0.56
		c0,0,0.12,0.09,0.12,0.09c0.42,0.79,0.42,1.56-0.11,2.31C75.33,269.59,75.15,269.68,74.97,269.77z"/>
	<path class="st191" d="M68.34,257.32c0.61-0.05,1.21-0.05,1.63,0.5c0.32,0.33,0.33,0.68,0.04,1.04
		C68.89,258.95,68.33,258.45,68.34,257.32z"/>
	<path class="st73" d="M62.9,267.56c0.39,0.63,1.14,1.07,1.06,2c-1.02,0.07-1.47-0.5-1.75-1.3C62.11,267.7,62.28,267.42,62.9,267.56
		z"/>
	<path class="st192" d="M61.83,252.21c1.3,0.52,0.48,1.47,0.45,2.25c-0.22,0.22-0.49,0.31-0.81,0.26c-1.04-0.91-1.02-1.71,0.25-2.39
		L61.83,252.21z"/>
	<path class="st193" d="M59.7,265.03c-0.16-0.57-0.33-1.14-0.61-2.14C60.28,263.59,60.36,264.24,59.7,265.03z"/>
	<path class="st194" d="M70.02,258.86c-0.01-0.35-0.03-0.69-0.04-1.04c0.73,0.2,1.45,0.4,2.18,0.59c0.01,0.45,0.01,0.89,0.02,1.34
		C71.46,259.45,70.74,259.16,70.02,258.86z"/>
	<path class="st195" d="M62.9,267.56c-0.23,0.23-0.46,0.46-0.69,0.69c-0.29-0.68-1.83,0.51-1.44-0.71
		C61.18,266.27,62.17,267.26,62.9,267.56z"/>
	<path class="st196" d="M77.66,261.13c-0.32,0.75-0.25,1.89-1.62,1.57C75.79,261.37,76.24,260.76,77.66,261.13z"/>
	<path class="st197" d="M68.03,264.57c0.49-0.08,0.71,0.09,0.63,0.4c-0.08,0.33-0.22,0.74-0.48,0.9c-0.42,0.26-0.35-0.23-0.34-0.41
		C67.86,265.15,67.97,264.83,68.03,264.57z"/>
	<path class="st198" d="M61.72,254.65c0.19-0.06,0.38-0.13,0.57-0.19c0.35,0.08,0.84,0.16,0.76,0.57c-0.14,0.73-0.87,0.44-1.35,0.57
		c0,0-0.01-0.02-0.01-0.02C61.4,255.26,61.41,254.95,61.72,254.65z"/>
	<path class="st199" d="M68.13,269.52c-0.47-0.16-0.92-0.27-0.79-0.66c0.08-0.23,0.53-0.42,0.84-0.48c0.38-0.07,0.73,0.2,0.61,0.59
		C68.71,269.22,68.32,269.38,68.13,269.52z"/>
	<path class="st200" d="M65.9,262.42c-0.2,0.12-0.39,0.23-0.58,0.34c-0.08-0.14-0.25-0.34-0.21-0.41c0.11-0.17,0.32-0.28,0.49-0.42
		C65.68,262.08,65.76,262.21,65.9,262.42z"/>
	<path class="st201" d="M66.68,251.25c0.21,0.34,0.41,0.69,0.62,1.03c-0.39-0.16-0.78-0.33-1.18-0.49
		C66.31,251.61,66.49,251.43,66.68,251.25z"/>
	<path class="st202" d="M63.32,249.02c0.18,0.22,0.37,0.44,0.55,0.65c0,0-0.19,0-0.19,0s-0.19,0.02-0.19,0.02
		c-0.07-0.07-0.13-0.14-0.2-0.21c-0.15-0.18-0.13-0.33,0.06-0.46L63.32,249.02z"/>
	<path class="st203" d="M82.55,233.19c0.16-1.14,0.76-1.34,1.49-2.08C83.95,232.35,83.43,232.67,82.55,233.19z"/>
	<path class="st61" d="M73.82,227.11c-0.11,0.2-0.2,0.46-0.25,0.45c-0.25-0.03-0.57-0.07-0.72-0.24c-0.23-0.26-0.06-0.53,0.27-0.52
		C73.35,226.81,73.58,227,73.82,227.11z"/>
	<path class="st204" d="M102.99,243.7c-1.12-0.86-3.39,1.03-3.61-1.53c-0.19-2.26,1.68-4.05,3.84-4.07
		c2.13-0.02,3.76,1.54,3.68,3.82C106.79,245.04,104.24,242.82,102.99,243.7z"/>
	<path class="st205" d="M101.73,271.02c-0.61,0.63-1.23,0.59-1.85,0.01c0.69-1.15,0.29-2.38,0.3-3.58c0.02-1.62,0.58-1.25,1.29-0.34
		C101.46,268.41,101.04,269.75,101.73,271.02z"/>
	<path class="st51" d="M94.72,264.9c2.56,0.92,1.89,2.63,1.09,4.37c-0.48,0.15-0.8-0.09-1.07-0.45c-0.32-0.92-0.42-1.88-0.49-2.84
		c0.11-0.4,0.2-0.8,0.54-1.09L94.72,264.9z"/>
	<path class="st7" d="M102.45,266.55c0.73,0.36,1.47,0.73,2.2,1.09c-0.1,0.5-0.21,1.01-0.38,1.83c-0.85-0.85-1.61-1.61-2.37-2.37
		C102.09,266.92,102.27,266.74,102.45,266.55z"/>
	<path class="st206" d="M95.23,268.61c0.19,0.22,0.38,0.44,0.57,0.66c-0.22,0.84-0.76,1.38-1.57,1.67
		c-0.19-0.13-0.38-0.25-0.57-0.38c-0.16-0.84-0.05-1.57,0.81-2.01C94.73,268.47,94.98,268.5,95.23,268.61z"/>
	<path class="st207" d="M75.51,269.51c0.04-0.77,0.08-1.54,0.11-2.31c0.29,0.15,0.58,0.29,0.86,0.44
		C77.39,268.9,77.33,269.66,75.51,269.51z"/>
	<path class="st208" d="M94.78,268.85c-0.37,0.57-0.75,1.14-1.12,1.71c-1.1,0.1-2.19,0.21-3.29,0.31c0.01-1.8,0.01-3.6,0.02-5.4
		c1.24-0.35,2.76,1.16,3.81-0.54c0.19-0.01,0.39-0.02,0.58-0.03c-0.01,0.36-0.02,0.73-0.02,1.09
		C94.79,266.94,95.18,267.89,94.78,268.85z"/>
	<path class="st209" d="M147.02,267.07c0.71,0.02,1.43,0.05,2.14,0.07c1.03,1.25,0.61,2.53,0.09,3.81
		C146.26,270.79,146.02,270.37,147.02,267.07z"/>
	<path class="st210" d="M165.23,270.95c-1.99,0.11-1.86-0.89-1.16-2.18c0.39-0.19,0.79-0.38,1.18-0.56
		C165.73,269.12,166.01,270.04,165.23,270.95z"/>
	<path class="st211" d="M198.75,268.11c-0.72,0.02-1.43,0.05-2.15,0.07c-0.01-0.36-0.03-0.72-0.04-1.08
		C197.67,266.63,198.56,266.61,198.75,268.11z"/>
	<path class="st212" d="M213.4,240.37c0.12,0.32,0.25,0.64,0.37,0.95c-0.39,0.02-0.79,0.05-1.18,0.08c-0.25,0.2-0.46,0.16-0.61-0.12
		c0.01-0.68-0.79-1.38,0.02-2.05C212.47,239.6,212.94,239.99,213.4,240.37z"/>
	<path class="st213" d="M211.99,241.28c0.2,0.04,0.41,0.08,0.61,0.12c0.08,0.98-0.42,1.69-1.11,2.31c-0.22-0.03-0.44-0.07-0.65-0.1
		c0.23-0.72,0.46-1.44,0.68-2.16C211.68,241.41,211.84,241.36,211.99,241.28z"/>
	<path class="st214" d="M208.26,237.14c0.29,0.2,0.59,0.4,0.88,0.61c-0.32,0.16-0.63,0.32-0.95,0.47c-0.56-0.03-1.12-0.06-1.68-0.09
		C206.76,237.21,207.77,237.64,208.26,237.14z"/>
	<path class="st215" d="M226.87,237.56c-0.15,0.39-0.3,0.78-0.46,1.16c-0.6-0.53-1.2-0.16-1.81-0.02c-0.17-0.2-0.33-0.4-0.5-0.6
		c0,0-0.03,0.03-0.03,0.03c0.49-0.39,0.89-1.01,1.67-0.56C226.13,237.57,226.5,237.57,226.87,237.56z"/>
	<path class="st216" d="M220.81,238.14c-0.09-0.73-0.74-1.35-0.46-2.16c0.77,0.02,1.52-0.2,1.36,1.17
		c-0.14,1.21,0.74,1.59,1.88,1.08c-0.06,0.61-0.36,0.99-1.02,0.99C221.25,240.04,221.12,238.95,220.81,238.14z"/>
	<path class="st17" d="M220.81,238.14c0.6,0.35,0.88,1.19,1.77,1.07c-0.13,0.5,0.19,0.8,0.48,1.13c-0.88-0.44-1.4,0.73-2.24,0.49
		C220.87,239.93,220.36,239.04,220.81,238.14z"/>
	<path class="st217" d="M225.75,237.58c-0.56,0.19-1.11,0.37-1.67,0.56c0.1-0.81,0.3-1.63,1.33-1.58
		C226.06,236.59,225.7,237.21,225.75,237.58z"/>
	<path class="st90" d="M78.23,246.86c0.2,0.31,0.39,0.62,0.59,0.93c-1.83,1.26-5.59,1.01-7.43-0.64c-0.77-0.69-1.54-1.22-2.53-1.47
		c-0.79-0.45-1.48-1-1.99-1.76c-0.15-0.41-0.17-0.83-0.1-1.25c0.2-0.71,0.84-0.97,1.38-1.34c0.7-0.28,1.06-0.91,1.53-1.44
		c0.39-0.33,0.84-0.51,1.35-0.46c0.77,0.03,1.26,1.02,2.16,0.62c0.42-0.2,0.75-0.56,1.23-0.65c0.25-0.04,0.5-0.02,0.74,0.05
		c0.99,0.44,1.27,1.51,1.97,2.21c0.2,0.33,0.25,0.69,0.28,1.06c0.11,0.7,0.36,1.39,0.19,2.12
		C77.13,245.71,77.55,246.33,78.23,246.86z"/>
	<path class="st218" d="M68.93,244.65c1.39,0.2,2.57-0.1,3.62,1.83c1.01,1.87,4,1.47,6.27,1.31c-0.01,0.24-0.02,0.49-0.03,0.73
		c-0.15,0.38-0.29,0.76-0.63,1.03c-0.48,0.3-1.02,0.3-1.56,0.26c-1.14-0.44-2.27-0.17-3.39,0.05c-1.05-0.01-2.08,0.11-3.11,0.28
		c-0.38-0.06-0.73-0.25-1.12-0.29c-1.03-0.31-1.63-1.13-2.3-1.88c-0.46-0.37-0.56-0.87-0.57-1.42
		C65.97,244.35,67.28,244.25,68.93,244.65z"/>
	<path class="st219" d="M74.3,235.19c0.56-0.29,1.13-0.58,1.69-0.87c0.9,0.93,0.62,1.79-0.16,2.61c-0.63,0.71-1.16,1.55-2.16,1.82
		c-1.08,0.35-2.02-0.28-3.03-0.45c-0.68-0.33-1.51-0.41-1.95-1.13c-0.08-0.25-0.08-0.5-0.01-0.75c0.56-0.87,1.69-0.45,2.39-1.02
		c0.18-0.01,0.36-0.02,0.55-0.02C72.55,235.83,73.47,236.09,74.3,235.19z"/>
	<path class="st220" d="M75.1,236.47c0.37-0.69,1.22-1.18,0.9-2.15c0.67-0.22,1.26-1.32,2.05-0.38c0.95,1.14-0.43,2.1-0.42,3.19
		c-0.35,0.59-0.77,1.04-1.55,0.86C75.34,237.75,75.17,237.14,75.1,236.47z"/>
	<path class="st221" d="M78.23,249.07c0.19-0.18,0.37-0.37,0.56-0.55c0.14,1.68,1.38,3.49-0.61,4.91c-0.93,0.44-1.53,0.07-1.96-0.76
		c-0.18-0.69,0.08-1.24,0.55-1.72c0.2-0.28,0.42-0.56,0.6-0.85C77.58,249.69,77.9,249.38,78.23,249.07z"/>
	<path class="st222" d="M68.94,236.5c-0.09,0.17-0.08,0.34,0.02,0.51c0.14,0.45-0.09,0.72-0.45,0.93c-0.25,0.08-0.5,0.09-0.76,0.04
		c-0.24-0.11-0.42-0.28-0.56-0.5c-0.17-0.24-0.34-0.48-0.51-0.72c-0.34-1.14-0.95-2.34,0.7-3.02c0.32,0.4,0.64,0.8,0.96,1.2
		C68.78,235.37,69.32,235.77,68.94,236.5z"/>
	<path class="st223" d="M76.58,243.05c0.02-0.35,0.04-0.71,0.06-1.06c-0.14-0.75-0.77-1.36-0.64-2.19c0.08-0.4,0.31-0.72,0.59-1.01
		c0.34-0.24,0.7-0.37,1.09-0.12c0.83,1.38,1.04,2.82,0.42,4.33C77.61,243.54,77.1,243.45,76.58,243.05z"/>
	<path class="st224" d="M78.23,246.86c-0.85-0.11-1.99,0.69-2.5-0.29c-0.58-1.11,0.69-1.42,1.37-1.92c0.65-0.35,0.82,0.25,1.13,0.57
		C78.23,245.78,78.23,246.32,78.23,246.86z"/>
	<path class="st225" d="M67.19,237.48c0.19,0.03,0.38,0.05,0.56,0.08c0.24,0.26,0.61,0.33,0.9,0.51c0.19,0.15,0.34,0.34,0.45,0.56
		c0.24,0.48,0.26,0.97,0.05,1.47c-0.42,0.72-0.97,1.25-1.9,1.16c-0.25-0.09-0.46-0.23-0.63-0.44
		C66.06,239.58,67,238.59,67.19,237.48z"/>
	<path class="st226" d="M76.58,252.36c0.53,0.36,1.07,0.71,1.6,1.07c0.01,0.37,0.02,0.73,0.03,1.1c-0.19,0.19-0.37,0.38-0.43,0.65
		c-0.05,0.16-0.11,0.31-0.17,0.47c-0.35-0.19-0.7-0.39-1.06-0.58c-0.65-0.1-1.03-0.5-1.2-1.11c-0.09-0.6-0.02-1.16,0.44-1.61
		C76.06,252.16,76.32,252.16,76.58,252.36z"/>
	<path class="st227" d="M68.93,244.65c-1.18,0.28-2.33,0.6-2.81,1.9c-0.25-0.13-0.51-0.26-0.76-0.39c0.27-0.67,0.54-1.34,0.81-2.01
		c0.27-0.42,0.48-0.95,1.16-0.64C67.85,243.9,68.39,244.27,68.93,244.65z"/>
	<path class="st228" d="M61.72,254.65c-0.01,0.31-0.02,0.62-0.04,0.93c-0.41-0.01-0.81-0.02-1.22-0.03c0.1-0.66-0.15-1.2-0.54-1.7
		c-0.05-0.8,0.08-1.52,0.74-2.07c0.35,0.18,0.71,0.36,1.06,0.55C61.32,253.1,61.02,253.88,61.72,254.65z"/>
	<path class="st229" d="M67.32,243.52c-0.39,0.21-0.77,0.42-1.16,0.64c-0.11-1.15-0.15-2.29,0.47-3.34
		c0.19,0.02,0.38,0.04,0.56,0.06c0.51,0.51,0.5,1.08,0.17,1.68C67.35,242.88,67.33,243.2,67.32,243.52z"/>
	<path class="st230" d="M67.39,233.74c-0.8,0.87-0.65,1.97-0.7,3.01C65.24,234.32,65.31,234.01,67.39,233.74z"/>
	<path class="st231" d="M68.94,236.5c-0.19-0.52-0.39-1.04-0.58-1.56c0.91,0.15,1.81,0.31,2.72,0.46
		C70.51,236.04,69.77,236.36,68.94,236.5z"/>
	<path class="st232" d="M78.23,245.23c-0.38-0.19-0.75-0.38-1.13-0.57c0.54-0.76-0.84-0.92-0.52-1.61c0.51-0.01,1.01-0.03,1.52-0.04
		C78.15,243.75,78.19,244.49,78.23,245.23z"/>
	<path class="st233" d="M77.69,238.67c-0.18,0.18-0.37,0.36-0.55,0.54c-1.34,0.06-1.44-0.69-1.14-1.71
		c0.54-0.12,1.09-0.24,1.63-0.37C77.65,237.65,77.67,238.16,77.69,238.67z"/>
	<path class="st234" d="M64.32,232.26c0.14,0.12,0.41,0.24,0.5,0.45c0.13,0.28-0.03,0.51-0.38,0.4c-0.25-0.08-0.57-0.2-0.66-0.39
		C63.63,232.41,63.93,232.29,64.32,232.26z"/>
	<path class="st231" d="M74.3,235.19c-0.8,1.34-1.72,1.15-2.68,0.19C72.51,235.31,73.41,235.25,74.3,235.19z"/>
	<path class="st97" d="M81.37,254.62c-0.01-0.19-0.08-0.45-0.02-0.66c0.07-0.23,0.25-0.5,0.55-0.27c0.1,0.08,0.11,0.33,0.08,0.49
		C81.94,254.45,81.85,254.72,81.37,254.62z"/>
	<path class="st235" d="M64.14,242.48c-0.17,0.16-0.34,0.32-0.52,0.48c-0.07-0.16-0.18-0.32-0.19-0.48
		c-0.01-0.27,0.07-0.56,0.43-0.51C63.96,241.99,64.02,242.25,64.14,242.48z"/>
	<path class="st236" d="M63.35,249.02c-0.02,0.16-0.04,0.31-0.06,0.46c-0.12,0.05-0.24,0.09-0.36,0.14
		C62.82,249.26,63.03,249.11,63.35,249.02z"/>
	<path class="st237" d="M77.78,255.18c0.14-0.22,0.29-0.44,0.43-0.65C78.07,254.74,77.92,254.96,77.78,255.18z"/>
	<path class="st238" d="M68.91,249.62c0.31,0,0.61-0.01,0.92-0.01c0.24,0.15,0.29,0.36,0.2,0.61c-0.23,0.15-0.45,0.15-0.66-0.02
		c-0.72,0.14-1.43,0.29-2.15,0.43c-0.16-0.75-0.32-1.5-0.48-2.25C67.66,248.44,68.37,248.88,68.91,249.62z"/>
	<path class="st239" d="M68.91,249.62c-0.72-0.41-1.45-0.82-2.17-1.24c0.02-0.14,0.01-0.28-0.05-0.41
		C67.67,248.19,68.98,247.99,68.91,249.62z"/>
	<path class="st240" d="M69.36,250.2c0.2-0.02,0.4-0.03,0.6-0.05c0.5-0.45,0.93-0.31,1.33,0.14c0.11,0.24,0.15,0.49,0.11,0.75
		c-0.14,0.41-0.47,0.59-0.86,0.69c-0.65,0.7-1.49,0.61-2.32,0.52C68.45,251.49,69.43,251.13,69.36,250.2z"/>
	<path class="st241" d="M71.58,256.17c-0.9-0.37-1.81-0.74-2.71-1.11c0.21-0.41,0.42-0.82,0.64-1.22c0.75,0.05,1.49,0.15,2.24,0.19
		c0.39,0.14,0.65,0.4,0.8,0.77c0.05,0.26,0.04,0.51-0.03,0.77C72.32,255.95,72.01,256.16,71.58,256.17z"/>
	<path class="st242" d="M73.2,249.11c1.12-0.45,2.23-0.96,3.4-0.14c-0.06,0.51-0.43,0.77-0.82,1.01c-0.26,0.21-0.48,0.46-0.71,0.7
		c-0.36,0.27-0.76,0.48-1.22,0.51c-0.18,0.02-0.36,0.05-0.54,0.08c-0.59-0.09-0.88-0.46-0.97-1.02
		C72.32,249.65,72.76,249.38,73.2,249.11z"/>
	<path class="st243" d="M72.18,255.07c-0.2-0.19-0.4-0.37-0.61-0.56c-0.21-0.62,0.18-0.87,0.67-1.07c0.33-0.17,0.67-0.35,1.02-0.04
		c0.59,0.52,1.06-0.43,1.63-0.14c0.2,0.15,0.34,0.35,0.41,0.59c0.05,0.74-0.34,1.19-1,1.44c-0.49,0.15-0.96,0.38-1.5,0.22
		C72.56,255.4,72.36,255.25,72.18,255.07z"/>
	<path class="st244" d="M74.95,253.41c-0.57,0.2-1.13,0.8-1.69-0.01c0.64-0.62,0.56-1.43,0.59-2.21c0.2-0.34,0.39-0.69,0.59-1.03
		c0.75,0.24,1.14,0.81,1.4,1.5c0.01,0.23-0.03,0.45-0.13,0.67C75.5,252.71,75.35,253.15,74.95,253.41z"/>
	<path class="st245" d="M72.24,253.44c-0.22,0.36-0.45,0.71-0.67,1.07c-0.79,0.1-1.44-0.25-2.06-0.67
		C70.38,253.45,71.28,253.22,72.24,253.44z"/>
	<path class="st246" d="M72.65,250.04c0.22,0.41,0.44,0.83,0.66,1.24c-0.23,0.17-0.45,0.34-0.68,0.51
		c-0.65,0.19-1.16-0.04-1.56-0.55c0.02-0.2,0.03-0.41,0.05-0.61C71.44,249.94,71.89,249.6,72.65,250.04z"/>
	<path class="st247" d="M71.07,251.23c0.52,0.18,1.04,0.37,1.56,0.55c-0.72,1.06-1.4,0.2-2.09-0.05
		C70.72,251.57,70.89,251.4,71.07,251.23z"/>
	<path class="st248" d="M71.58,256.17c0.18-0.16,0.37-0.31,0.55-0.47c0.57,0.41,0.4,0.94,0.23,1.48c-0.2,0.24-0.43,0.25-0.66,0.05
		C71.66,256.88,71.62,256.53,71.58,256.17z"/>
	<path class="st249" d="M71.7,257.23c0.17,0.01,0.33,0.02,0.5,0.03c0.21-0.26,0.37-0.25,0.48,0.08c-0.18,0.18-0.35,0.37-0.53,0.55
		C72.01,257.66,71.86,257.45,71.7,257.23z"/>
	<path class="st250" d="M72.69,257.33c-0.16-0.03-0.32-0.06-0.48-0.08c-0.02-0.52-0.05-1.04-0.07-1.55
		c0.01-0.21,0.03-0.42,0.04-0.63c0.21,0.01,0.41,0.02,0.62,0.02c0.8,0.21,2.19-0.21,1.65,1.48c-0.21,0.23-0.41,0.46-0.62,0.7
		C73.44,257.11,73.05,256.94,72.69,257.33z"/>
	<path class="st251" d="M74.45,256.57c0.21-1.33-1.5-0.55-1.65-1.48c0.34-0.19,0.67-0.37,1.01-0.56c0.88,0.61,1.24,0.02,1.56-0.66
		c0.23-0.12,0.43-0.08,0.61,0.1c0.19,0.36,0.38,0.72,0.58,1.08C75.95,255.7,75.74,256.88,74.45,256.57z"/>
	<path class="st68" d="M94.78,268.85c-0.19-0.95-0.65-1.9-0.03-2.86c0.75,0.77,0.44,1.73,0.47,2.63
		C95.08,268.68,94.93,268.76,94.78,268.85z"/>
	<path class="st252" d="M68.79,239.79c-0.15-0.39-0.31-0.79-0.46-1.18c0.85-0.87,1.84-0.93,2.92-0.53c0.65,0.06,1.26,0.38,1.92,0.32
		c0.43,0.01,0.73,0.21,0.88,0.62c-0.04,0.63-0.3,1.24-0.22,1.89c-1.93,1.76-2.31,0.09-2.83-1.26c-0.48-0.08-0.88,0.15-1.28,0.34
		c-0.22,0.07-0.44,0.08-0.67,0.02C68.97,239.94,68.88,239.86,68.79,239.79z"/>
	<path class="st253" d="M73.85,239.28c-0.2-0.22-0.4-0.43-0.61-0.65c0.03-0.1,0.06-0.2,0.1-0.3c0.59-0.62,1.17-1.24,1.76-1.86
		c0.3,0.34,0.6,0.69,0.9,1.03c0.35,0.59,0.35,1.41,1.14,1.71c-0.26,0.19-0.51,0.37-0.77,0.56c-0.4,0.53-0.89,0.33-1.37,0.16
		c-0.19-0.05-0.38-0.09-0.56-0.14C74.1,239.78,73.92,239.59,73.85,239.28z"/>
	<path class="st254" d="M67.36,242.55c-0.06-0.56-0.11-1.12-0.17-1.68c0.53-0.36,1.07-0.72,1.6-1.09c0,0,0.07-0.02,0.07-0.02
		c0.2,0.23,0.36,0.48,0.46,0.77c0.03,0.61,0.08,1.23-0.71,1.45C68.2,242.18,67.78,242.37,67.36,242.55z"/>
	<path class="st255" d="M75,239.93c0.46-0.05,0.91-0.11,1.37-0.16c-0.32,0.79,1.51,1.31,0.28,2.22
		C75.78,241.55,75.41,240.73,75,239.93z"/>
	<path class="st256" d="M68.62,241.99c0.1-0.48,0.19-0.97,0.29-1.45c0.12-0.4,0.43-0.5,0.81-0.48c0.09,0.08,0.17,0.16,0.26,0.24
		C70.18,241.39,70.25,242.36,68.62,241.99z"/>
	<path class="st257" d="M73.85,239.28c0.19,0.17,0.39,0.34,0.58,0.51c-0.2,0.37-0.4,0.75-0.6,1.12
		C73.05,240.36,73.5,239.82,73.85,239.28z"/>
	<path class="st258" d="M71.75,243.55c0.35-0.15,0.57-0.3,0.81-0.33c0.12-0.02,0.28,0.15,0.42,0.23c-0.14,0.18-0.26,0.39-0.44,0.52
		C72.48,244.01,72.26,243.84,71.75,243.55z"/>
	<path class="st259" d="M69.43,239.77c0.45-0.95,1.01-0.58,1.57-0.11c-0.35,0.22-0.69,0.43-1.04,0.65c0,0,0.04,0.02,0.04,0.02
		C69.82,240.13,69.46,240.11,69.43,239.77z"/>
	<path class="st260" d="M72.65,250.04c-0.51,0.2-1.02,0.39-1.54,0.59c-0.38-0.16-0.77-0.31-1.15-0.47
		c-0.05-0.18-0.09-0.36-0.14-0.54c1-1.02,2.28-0.13,3.37-0.5C73.02,249.42,72.83,249.73,72.65,250.04z"/>
	<path class="st16" d="M75.03,249.1c0.52-0.04,1.04-0.08,1.56-0.13c0.54,0.03,1.09,0.07,1.63,0.1c0,0.51,0,1.02,0,1.53
		c-0.78,0.39-1.6,0.39-2.43,0.19C75.14,250.41,74.69,249.93,75.03,249.1z"/>
	<path class="st261" d="M71.01,238.55c-0.91-0.56-1.78,0.21-2.68,0.06c-0.07-0.17-0.12-0.34-0.15-0.52
		c-0.1-0.24-0.01-0.38,0.23-0.44c0.18-0.21,0.36-0.43,0.54-0.64c0.68,0.18,1.36,0.35,2.04,0.53
		C71.4,237.87,71.4,238.21,71.01,238.55z"/>
	<path class="st262" d="M71.01,238.55c0-0.34-0.01-0.68-0.01-1.01c0.97-0.3,1.46,0.82,2.34,0.79c-0.03,0.1-0.06,0.21-0.1,0.31
		C72.5,238.61,71.76,238.58,71.01,238.55z"/>
	<path class="st173" d="M75.44,252.33c0.07-0.18,0.07-0.35,0.01-0.53c-0.21-0.61,0.04-1.01,0.58-1.28c0.74-0.18,1.3,0.03,1.63,0.75
		c-0.36,0.37-0.72,0.73-1.08,1.1c-0.16,0.01-0.32,0.02-0.47,0.01C75.87,252.56,75.65,252.54,75.44,252.33z"/>
	<path class="st263" d="M77.66,251.26c-0.52-0.17-0.98-0.64-1.6-0.36c-0.13-0.14-0.17-0.28-0.13-0.42c0.04-0.14,0.08-0.21,0.12-0.21
		c0.78-0.25,1.49-0.02,2.17,0.33C78.04,250.83,77.85,251.04,77.66,251.26z"/>
	<path class="st264" d="M68.42,237.66c-0.04,0.17-0.11,0.31-0.23,0.44c-0.14-0.18-0.29-0.35-0.43-0.53
		C67.98,237.59,68.2,237.62,68.42,237.66z"/>
	<path class="st196" d="M75.44,252.33c0.22,0.01,0.44,0.03,0.66,0.04c-0.04,0.53-0.09,1.07-0.13,1.6c-0.15,0-0.29,0-0.44,0
		c-0.38,0-0.4-0.37-0.59-0.56c0,0,0,0,0,0C74.64,252.84,74.32,252.26,75.44,252.33z"/>
	<path class="st265" d="M76.05,250.28c0,0.21,0.01,0.42,0.01,0.63c-0.2,0.3-0.41,0.59-0.61,0.89c-0.67-0.35-0.98-0.91-1.02-1.64
		c0.04-0.44,0.14-0.85,0.6-1.06C75.16,249.67,75.53,250.04,76.05,250.28z"/>
	<path class="st108" d="M74.95,253.41c0.2,0.19,0.39,0.38,0.59,0.56c-0.17,1.41-0.84,1.31-1.73,0.56
		C74.4,254.37,74.84,254.06,74.95,253.41z"/>
	<path class="st266" d="M69.43,239.77c0.19,0.18,0.38,0.37,0.57,0.55c-0.37,0.07-0.73,0.15-1.1,0.22c-0.01-0.26-0.02-0.51-0.04-0.77
		C69.06,239.77,69.24,239.77,69.43,239.77z"/>
</g>
</svg>
