<svg width="48" height="48" viewBox="0 0 48 48" fill="none" xmlns="http://www.w3.org/2000/svg">
<path d="M32 10C24.589 10 19 15.159 19 22C19 22.5304 19.2107 23.0391 19.5858 23.4142C19.9609 23.7893 20.4696 24 21 24C21.5304 24 22.0391 23.7893 22.4142 23.4142C22.7893 23.0391 23 22.5304 23 22C22.9736 20.615 23.334 19.25 24.0406 18.0585C24.7472 16.867 25.772 15.8962 27 15.255V46C27 46.5304 27.2107 47.0391 27.5858 47.4142C27.9609 47.7893 28.4696 48 29 48C29.5304 48 30.0391 47.7893 30.4142 47.4142C30.7893 47.0391 31 46.5304 31 46V31H33V46C33 46.5304 33.2107 47.0391 33.5858 47.4142C33.9609 47.7893 34.4696 48 35 48C35.5304 48 36.0391 47.7893 36.4142 47.4142C36.7893 47.0391 37 46.5304 37 46V15.255C38.228 15.8962 39.2528 16.867 39.9594 18.0585C40.666 19.25 41.0264 20.615 41 22C41 22.5304 41.2107 23.0391 41.5858 23.4142C41.9609 23.7893 42.4696 24 43 24C43.5304 24 44.0391 23.7893 44.4142 23.4142C44.7893 23.0391 45 22.5304 45 22C45 15.159 39.411 10 32 10Z" fill="#011E41"/>
<path d="M32 8C34.2091 8 36 6.20914 36 4C36 1.79086 34.2091 0 32 0C29.7909 0 28 1.79086 28 4C28 6.20914 29.7909 8 32 8Z" fill="#011E41"/>
<path d="M11 2.50148e-07C9.41775 2.50148e-07 7.87103 0.469192 6.55544 1.34824C5.23985 2.22729 4.21447 3.47672 3.60897 4.93853C3.00347 6.40034 2.84504 8.00887 3.15372 9.56072C3.4624 11.1126 4.22433 12.538 5.34315 13.6569C6.46197 14.7757 7.88743 15.5376 9.43928 15.8463C10.9911 16.155 12.5997 15.9965 14.0615 15.391C15.5233 14.7855 16.7727 13.7602 17.6518 12.4446C18.5308 11.129 19 9.58225 19 8C19.0003 6.94935 18.7935 5.90895 18.3916 4.93822C17.9896 3.9675 17.4004 3.08548 16.6574 2.34256C15.9145 1.59964 15.0325 1.01037 14.0618 0.608429C13.0911 0.206484 12.0507 -0.000262511 11 2.50148e-07V2.50148e-07ZM14.72 10.3C14.9074 10.4888 15.0125 10.744 15.0125 11.01C15.0125 11.276 14.9074 11.5312 14.72 11.72C14.5304 11.9059 14.2755 12.0101 14.01 12.0101C13.7445 12.0101 13.4896 11.9059 13.3 11.72L11 9.41L8.7 11.72C8.51044 11.9059 8.25552 12.0101 7.99 12.0101C7.72449 12.0101 7.46957 11.9059 7.28 11.72C7.09265 11.5312 6.98752 11.276 6.98752 11.01C6.98752 10.744 7.09265 10.4888 7.28 10.3L9.59 8L7.28 5.7C7.18677 5.60676 7.1128 5.49607 7.06234 5.37425C7.01188 5.25243 6.98591 5.12186 6.98591 4.99C6.98591 4.85814 7.01188 4.72757 7.06234 4.60575C7.1128 4.48393 7.18677 4.37324 7.28 4.28C7.37324 4.18676 7.48393 4.1128 7.60575 4.06234C7.72758 4.01188 7.85814 3.98591 7.99 3.98591C8.12186 3.98591 8.25243 4.01188 8.37425 4.06234C8.49608 4.1128 8.60677 4.18676 8.7 4.28L11 6.59L13.3 4.28C13.4883 4.0917 13.7437 3.98591 14.01 3.98591C14.2763 3.98591 14.5317 4.0917 14.72 4.28C14.9083 4.4683 15.0141 4.7237 15.0141 4.99C15.0141 5.2563 14.9083 5.5117 14.72 5.7L12.41 8L14.72 10.3Z" fill="#011E41"/>
</svg>
