<svg width="48" height="48" viewBox="0 0 48 48" fill="none" xmlns="http://www.w3.org/2000/svg">
<path d="M25.1582 7.59685C25.8634 7.95256 26.6583 8.09115 27.4424 7.9951C28.2264 7.89905 28.9643 7.57267 29.5629 7.05722C30.1614 6.54178 30.5937 5.86043 30.805 5.09933C31.0163 4.33822 30.9971 3.53155 30.75 2.78132C30.5028 2.03109 30.0388 1.37099 29.4165 0.884499C28.7942 0.398006 28.0416 0.106967 27.2539 0.0481857C26.4662 -0.0105958 25.6788 0.16552 24.9912 0.554263C24.3035 0.943005 23.7467 1.52692 23.3909 2.23216C23.1547 2.70044 23.013 3.21068 22.974 3.73372C22.9349 4.25676 22.9993 4.78237 23.1634 5.28053C23.3275 5.77869 23.5881 6.23965 23.9304 6.63709C24.2727 7.03452 24.6899 7.36065 25.1582 7.59685V7.59685Z" fill="#011E41"/>
<path d="M42.4305 24.9998C44.912 24.9998 46.9236 22.9882 46.9236 20.5067C46.9236 18.0253 44.912 16.0137 42.4305 16.0137C39.9491 16.0137 37.9375 18.0253 37.9375 20.5067C37.9375 22.9882 39.9491 24.9998 42.4305 24.9998Z" fill="#011E41"/>
<path d="M39.9344 35.9831C41.0373 35.9831 41.9313 35.089 41.9313 33.9862C41.9313 32.8833 41.0373 31.9893 39.9344 31.9893C38.8315 31.9893 37.9375 32.8833 37.9375 33.9862C37.9375 35.089 38.8315 35.9831 39.9344 35.9831Z" fill="#011E41"/>
<path d="M44.4274 39.9768C45.2545 39.9768 45.925 39.3063 45.925 38.4791C45.925 37.652 45.2545 36.9814 44.4274 36.9814C43.6002 36.9814 42.9297 37.652 42.9297 38.4791C42.9297 39.3063 43.6002 39.9768 44.4274 39.9768Z" fill="#011E41"/>
<path d="M44.9273 41.9734H38.8867C38.7689 41.1432 38.3558 40.3833 37.7231 39.8331C37.0904 39.2829 36.2805 38.9793 35.442 38.978H31.1407C30.616 38.0671 29.8606 37.3104 28.9506 36.7842C28.0405 36.2581 27.0079 35.9809 25.9567 35.9807H24.2354C24.9663 33.8421 25.0781 31.5404 24.5576 29.341C24.0372 27.1417 22.9058 25.1342 21.2939 23.5499L22.1386 21.8755L26.8693 24.3447C26.8296 24.7361 26.9082 25.1305 27.0949 25.4768C27.2816 25.8231 27.5679 26.1054 27.9168 26.2873C28.2656 26.4692 28.661 26.5423 29.0519 26.4972C29.4427 26.452 29.811 26.2907 30.1093 26.0341L37.351 29.8132C37.5647 29.9245 37.8021 29.9827 38.043 29.983H45.748C46.1452 29.983 46.5262 29.8252 46.8071 29.5443C47.0879 29.2634 47.2457 28.8825 47.2457 28.4853C47.2457 28.0881 47.0879 27.7071 46.8071 27.4263C46.5262 27.1454 46.1452 26.9876 45.748 26.9876H38.4104L31.3543 23.3053C32.7552 17.7349 30.0863 12.0657 24.5878 9.25407C24.5479 9.23211 24.5139 9.20115 24.472 9.18019L23.0412 8.4583C22.5679 8.21946 22.0523 8.07618 21.5236 8.03664C20.995 7.99709 20.4637 8.06206 19.9602 8.22784C19.4566 8.39361 18.9907 8.65695 18.5889 9.0028C18.1871 9.34866 17.8574 9.77026 17.6186 10.2435L12.9379 19.5192C12.9072 19.5616 12.8789 19.6056 12.853 19.651L4.5159 36.1704C3.10109 36.5292 1.86605 37.3924 1.04294 38.5977C0.219833 39.8031 -0.134655 41.2676 0.0461133 42.716C0.226882 44.1643 0.930457 45.4968 2.02458 46.4628C3.1187 47.4289 4.52802 47.9621 5.98762 47.9621H44.9273C45.327 47.9724 45.7248 47.9026 46.0971 47.7568C46.4694 47.6109 46.8088 47.392 47.0952 47.113C47.3815 46.8339 47.6091 46.5003 47.7645 46.1319C47.9199 45.7634 48 45.3676 48 44.9678C48 44.5679 47.9199 44.1721 47.7645 43.8036C47.6091 43.4352 47.3815 43.1016 47.0952 42.8225C46.8088 42.5435 46.4694 42.3246 46.0971 42.1787C45.7248 42.0329 45.327 41.9631 44.9273 41.9734V41.9734ZM9.09181 35.9807L15.0825 24.1091C15.1586 24.1587 15.238 24.2031 15.3202 24.2419C19.9869 26.2817 22.0737 31.1002 20.1726 35.4485C20.1014 35.6185 20.0544 35.7976 20.0329 35.9807H9.09181ZM27.6591 21.3763L23.4895 19.2007L25.6132 14.9942C26.3878 15.8518 26.9708 16.8644 27.3236 17.9649C27.6763 19.0653 27.7907 20.2282 27.6591 21.3763V21.3763Z" fill="#011E41"/>
</svg>
