<svg width="48" height="48" viewBox="0 0 48 48" fill="none" xmlns="http://www.w3.org/2000/svg">
<g clip-path="url(#clip0_74_1552)">
<path d="M48 44V48H14V44C14 39.7565 15.6857 35.6869 18.6863 32.6863C21.6869 29.6857 25.7565 28 30 28H32C36.2435 28 40.3131 29.6857 43.3137 32.6863C46.3143 35.6869 48 39.7565 48 44ZM40 17C40 15.8181 39.7672 14.6478 39.3149 13.5559C38.8626 12.4639 38.1997 11.4718 37.364 10.636C36.5282 9.80032 35.5361 9.13738 34.4441 8.68509C33.3522 8.2328 32.1819 8 31 8C28.6131 8 26.3239 8.94822 24.636 10.636C22.9482 12.3239 22 14.6131 22 17C22 19.387 22.9482 21.6761 24.636 23.364C26.3239 25.0518 28.6131 26 31 26C32.1819 26 33.3522 25.7672 34.4441 25.3149C35.5361 24.8626 36.5282 24.1997 37.364 23.364C38.1997 22.5282 38.8626 21.5361 39.3149 20.4442C39.7672 19.3522 40 18.1819 40 17ZM0 10C0 8.02219 0.58649 6.08879 1.6853 4.4443C2.78412 2.79981 4.3459 1.51809 6.17317 0.761209C8.00043 0.00433284 10.0111 -0.193701 11.9509 0.192152C13.8907 0.578004 15.6725 1.53041 17.0711 2.92894C18.4696 4.32746 19.422 6.10929 19.8079 8.0491C20.1937 9.98891 19.9957 11.9996 19.2388 13.8268C18.4819 15.6541 17.2002 17.2159 15.5557 18.3147C13.9112 19.4135 11.9778 20 10 20C7.34816 19.9989 4.80524 18.945 2.9301 17.0699C1.05497 15.1948 0.0010601 12.6518 0 10V10ZM8.58 10L5.29 13.29C5.10265 13.4788 4.99752 13.734 4.99752 14C4.99752 14.266 5.10265 14.5212 5.29 14.71C5.47956 14.8959 5.73449 15.0001 6 15.0001C6.26551 15.0001 6.52044 14.8959 6.71 14.71L10 11.42L13.29 14.71C13.4796 14.8959 13.7345 15.0001 14 15.0001C14.2655 15.0001 14.5204 14.8959 14.71 14.71C14.8974 14.5212 15.0025 14.266 15.0025 14C15.0025 13.734 14.8974 13.4788 14.71 13.29L11.42 10L14.71 6.71C14.8032 6.61677 14.8772 6.50608 14.9277 6.38425C14.9781 6.26243 15.0041 6.13186 15.0041 6C15.0041 5.86815 14.9781 5.73758 14.9277 5.61576C14.8772 5.49393 14.8032 5.38324 14.71 5.29C14.6168 5.19677 14.5061 5.12281 14.3842 5.07234C14.2624 5.02188 14.1319 4.99591 14 4.99591C13.8681 4.99591 13.7376 5.02188 13.6158 5.07234C13.4939 5.12281 13.3832 5.19677 13.29 5.29L10 8.58L6.71 5.29C6.5217 5.1017 6.2663 4.99591 6 4.99591C5.7337 4.99591 5.4783 5.1017 5.29 5.29C5.1017 5.47831 4.99591 5.7337 4.99591 6C4.99591 6.26631 5.1017 6.5217 5.29 6.71L8.58 10Z" fill="#011E41"/>
</g>
<defs>
<clipPath id="clip0_74_1552">
<rect width="48" height="48" fill="white"/>
</clipPath>
</defs>
</svg>
