<svg width="69" height="78" viewBox="0 0 69 78" fill="none" xmlns="http://www.w3.org/2000/svg">
<path d="M68.6178 12.9861C66.3024 -3.63072 44.2733 -1.6328 34.9953 4.32846C34.9953 4.32846 6.7374 -10.7452 0.541207 15.9424C-1.01952 24.6302 0.82471 33.5834 5.69383 40.9569C5.18399 52.4514 8.06964 63.8424 13.9935 73.7195C13.9935 73.7195 21.7713 84.2939 28.6687 71.6241C28.6687 71.6241 28.3588 46.5121 34.979 46.301C41.5991 46.0898 41.0121 71.6241 41.0121 71.6241C41.0121 71.6241 45.219 83.7578 55.5079 74.5479C55.5079 74.5479 65.911 54.6662 62.0303 39.4463C62.0955 39.4463 70.9169 29.4405 68.6178 12.9861Z" fill="#011E41"/>
<path d="M29.7264 19.9873V10.5012H39.2489V19.9873H48.7878V29.4896H39.2489V38.9756H29.7264V29.4896H20.1875V19.9873H29.7264Z" fill="white"/>
</svg>
