<svg width="48" height="48" viewBox="0 0 48 48" fill="none" xmlns="http://www.w3.org/2000/svg">
<g clip-path="url(#clip0_74_563)">
<path d="M18.8625 23.8944C17.4645 22.6429 15.6361 21.9814 13.761 22.0486C11.8858 22.1158 10.1095 22.9066 8.80466 24.255L0.668846 32.3909C0.246216 32.8136 0.00878906 33.3868 0.00878906 33.9845C0.00878906 34.5823 0.246216 35.1555 0.668846 35.5782L7.44176 42.3512C7.86444 42.7739 8.4377 43.0113 9.03544 43.0113C9.63318 43.0113 10.2064 42.7739 10.6291 42.3512L18.9959 33.9846C19.6609 33.3195 20.186 32.5279 20.5402 31.6566C20.8944 30.7853 21.0705 29.8518 21.058 28.9114C21.0456 27.9709 20.8449 27.0424 20.4679 26.1808C20.0908 25.3191 19.5449 24.5417 18.8625 23.8944V23.8944Z" fill="#011E41"/>
<path d="M47.7895 2.74993V2.74987C47.4577 1.74197 46.7391 0.907161 45.7918 0.429085C44.8445 -0.0489909 43.7461 -0.131169 42.7382 0.200628C41.7303 0.532426 40.8954 1.25102 40.4174 2.19833C39.9393 3.14564 39.8571 4.24406 40.1889 5.25196V5.25202C40.5207 6.25992 41.2393 7.09473 42.1866 7.57281C43.1339 8.05089 44.2323 8.13307 45.2402 7.80127C46.2481 7.46947 47.083 6.75088 47.561 5.80357C48.0391 4.85626 48.1213 3.75783 47.7895 2.74993V2.74993Z" fill="#011E41"/>
<path d="M44.4662 18.056C45.0363 16.8776 45.115 15.521 44.6852 14.2845C44.2553 13.0481 43.3521 12.0329 42.1739 11.4622L39.531 10.1284C39.3882 10.0579 39.2378 10.0039 39.0827 9.96747C32.2311 6.98463 23.6497 10.2767 20.2115 16.995C20.0871 17.2368 20.0116 17.5009 19.9894 17.7719C19.9672 18.043 19.9986 18.3158 20.0819 18.5747C20.1653 18.8336 20.2988 19.0735 20.475 19.2807C20.6511 19.4879 20.8664 19.6583 21.1085 19.7822C21.3507 19.9062 21.6148 19.9811 21.8859 20.0028C22.157 20.0245 22.4298 19.9925 22.6885 19.9086C22.9472 19.8248 23.1869 19.6907 23.3937 19.5141C23.6006 19.3376 23.7706 19.1219 23.894 18.8796C24.9515 16.9162 26.5717 15.3138 28.5465 14.2778C30.5213 13.2418 32.7606 12.8196 34.977 13.0654L18.2113 44.9644C18.0867 45.2087 18.0115 45.475 17.9899 45.7484C17.9683 46.0217 18.0007 46.2965 18.0854 46.5573C18.17 46.8181 18.3051 47.0596 18.4831 47.2682C18.6611 47.4767 18.8784 47.6482 19.1227 47.7727C19.3669 47.8973 19.6333 47.9725 19.9066 47.9941C20.1799 48.0157 20.4548 47.9833 20.7155 47.8986C20.9763 47.814 21.2179 47.6788 21.4264 47.5009C21.6349 47.3229 21.8064 47.1056 21.9309 46.8613L31.246 29.1382L34.9966 31.0143C37.3779 32.3288 39.1521 34.5209 39.9415 37.1239C40.731 39.7268 40.4733 42.5351 39.2234 44.9509C38.9683 45.4422 38.9188 46.0147 39.0858 46.5425C39.2528 47.0703 39.6226 47.5102 40.1139 47.7653C40.6052 48.0204 41.1777 48.0699 41.7055 47.9029C42.2333 47.7359 42.6731 47.3661 42.9282 46.8748C44.5426 43.8854 45.0383 40.4183 44.3261 37.0963C43.614 33.7743 41.7407 30.815 39.0427 28.7501L40.8077 25.3469L44.4662 18.056Z" fill="#011E41"/>
</g>
<defs>
<clipPath id="clip0_74_563">
<rect width="48" height="48" fill="white"/>
</clipPath>
</defs>
</svg>
