<svg width="48" height="48" viewBox="0 0 48 48" fill="none" xmlns="http://www.w3.org/2000/svg">
<path d="M24 0C19.2533 0 14.6131 1.40758 10.6663 4.04473C6.71954 6.68188 3.6434 10.4302 1.8269 14.8156C0.0103989 19.201 -0.464881 24.0266 0.461164 28.6822C1.38721 33.3377 3.67299 37.6141 7.02945 40.9706C10.3859 44.327 14.6623 46.6128 19.3178 47.5388C23.9734 48.4649 28.799 47.9896 33.1844 46.1731C37.5698 44.3566 41.3181 41.2805 43.9553 37.3337C46.5924 33.3869 48 28.7467 48 24C48 17.6348 45.4714 11.5303 40.9706 7.02944C36.4697 2.52856 30.3652 0 24 0V0ZM35.04 30.4145C35.6529 31.0282 35.9971 31.86 35.9971 32.7273C35.9971 33.5945 35.6529 34.4264 35.04 35.04C34.7366 35.3442 34.3761 35.5856 33.9793 35.7503C33.5824 35.915 33.157 35.9998 32.7273 35.9998C32.2976 35.9998 31.8721 35.915 31.4753 35.7503C31.0784 35.5856 30.718 35.3442 30.4145 35.04L24 28.3636L17.5855 35.04C17.2821 35.3442 16.9216 35.5856 16.5247 35.7503C16.1279 35.915 15.7024 35.9998 15.2727 35.9998C14.8431 35.9998 14.4176 35.915 14.0207 35.7503C13.6239 35.5856 13.2634 35.3442 12.96 35.04C12.3471 34.4264 12.0029 33.5945 12.0029 32.7273C12.0029 31.86 12.3471 31.0282 12.96 30.4145L19.6364 24L12.96 17.5855C12.3466 16.9721 12.002 16.1402 12.002 15.2727C12.002 14.8432 12.0866 14.4179 12.251 14.0211C12.4154 13.6243 12.6563 13.2637 12.96 12.96C13.2637 12.6563 13.6243 12.4154 14.0211 12.251C14.4179 12.0866 14.8432 12.002 15.2727 12.002C16.1402 12.002 16.9721 12.3466 17.5855 12.96L24 19.6364L30.4145 12.96C31.0279 12.3466 31.8598 12.002 32.7273 12.002C33.1568 12.002 33.5821 12.0866 33.9789 12.251C34.3757 12.4154 34.7363 12.6563 35.04 12.96C35.3437 13.2637 35.5846 13.6243 35.749 14.0211C35.9134 14.4179 35.998 14.8432 35.998 15.2727C35.998 15.7022 35.9134 16.1275 35.749 16.5244C35.5846 16.9212 35.3437 17.2817 35.04 17.5855L28.3636 24L35.04 30.4145Z" fill="#011E41"/>
</svg>
