<svg width="48" height="48" viewBox="0 0 48 48" fill="none" xmlns="http://www.w3.org/2000/svg">
<path d="M23 12H17C15.9494 11.9997 14.9089 12.2065 13.9382 12.6084C12.9675 13.0104 12.0855 13.5996 11.3426 14.3426C10.5996 15.0855 10.0104 15.9675 9.60843 16.9382C9.20648 17.9089 8.99974 18.9494 9 20V46C9.00158 46.5299 9.2128 47.0377 9.58754 47.4125C9.96227 47.7872 10.4701 47.9984 11 48H37C37.5299 47.9984 38.0377 47.7872 38.4125 47.4125C38.7872 47.0377 38.9984 46.5299 39 46V28C39.0005 25.8987 38.587 23.8179 37.7831 21.8764C36.9793 19.935 35.8007 18.171 34.3149 16.6851C32.829 15.1993 31.065 14.0207 29.1236 13.2169C27.1821 12.413 25.1013 11.9995 23 12V12ZM35 34.5C35 35.163 34.7366 35.7989 34.2678 36.2678C33.7989 36.7366 33.163 37 32.5 37C31.837 37 31.2011 36.7366 30.7322 36.2678C30.2634 35.7989 30 35.163 30 34.5V25.5C30 24.837 30.2634 24.2011 30.7322 23.7322C31.2011 23.2634 31.837 23 32.5 23C33.163 23 33.7989 23.2634 34.2678 23.7322C34.7366 24.2011 35 24.837 35 25.5V34.5ZM13.5 10H25.5C25.8978 10 26.2794 9.84196 26.5607 9.56066C26.842 9.27936 27 8.89782 27 8.5C27 8.10218 26.842 7.72064 26.5607 7.43934C26.2794 7.15804 25.8978 7 25.5 7H25V2C25 1.46957 24.7893 0.960859 24.4142 0.585786C24.0391 0.210714 23.5304 0 23 0L16 0C15.4696 0 14.9609 0.210714 14.5858 0.585786C14.2107 0.960859 14 1.46957 14 2V7H13.5C13.1022 7 12.7206 7.15804 12.4393 7.43934C12.158 7.72064 12 8.10218 12 8.5C12 8.89782 12.158 9.27936 12.4393 9.56066C12.7206 9.84196 13.1022 10 13.5 10V10Z" fill="#011E41"/>
</svg>
