<?xml version="1.0" encoding="utf-8"?>
<!-- Generator: Adobe Illustrator 21.0.0, SVG Export Plug-In . SVG Version: 6.00 Build 0)  -->
<svg version="1.1" id="Layer_3" xmlns="http://www.w3.org/2000/svg" xmlns:xlink="http://www.w3.org/1999/xlink" x="0px" y="0px"
	 viewBox="0 0 323.7 227.4" style="enable-background:new 0 0 323.7 227.4;" xml:space="preserve">
<style type="text/css">
	.Arched_x0020_Green{fill:url(#SVGID_1_);stroke:#FFFFFF;stroke-width:0.25;stroke-miterlimit:1;}
	.st0{fill:#F58345;}
	.st1{fill:#ED1C24;}
</style>
<linearGradient id="SVGID_1_" gradientUnits="userSpaceOnUse" x1="-264.4074" y1="406.4665" x2="-263.7003" y2="405.7594">
	<stop  offset="0" style="stop-color:#1EAB4B"/>
	<stop  offset="0.9831" style="stop-color:#19361A"/>
</linearGradient>
<g>
	<path class="st0" d="M276.2,46.6c-3.5,4.7-11.2,12.5-22.2,10.1c-9.8-2.1-16.9-0.9-21.1,0.4c-3.1,1-3.9,0.4-1.8-1.5
		c3.4-3.1,10.4-6.9,23.7-4.9c19,2.9,31.1-17.6,27.4-32.9c-0.5-1.9-2-3.4-3.2-0.5c-2.3,5.6-9.6,14.3-32.6,17.1
		c-27.8,3.3-43.9,24-43.9,24c-3.4,4.4-10.8,16.7-9.9,17.8c1,1.1,14.3,6.4,9.6,23.8c-0.5,1.7,11.9,5.9,17.6,6.4c0,0,27,2.7,40.3-25.4
		c0.6-1.2-0.3-3.2-1.8-2.2c-3.6,2.3-10.7,5.8-18.7,4.6c-6.4-1-13.8-4.2-24.8,0.1c-1.5,0.6-3.9,0.6-2.1-1.2
		c3.6-3.9,11.2-8.4,24.5-4.9c18.5,4.8,40.8-8.5,41.4-29.8C278.6,46.3,277.6,44.7,276.2,46.6"/>
	<path class="st1" d="M180.1,39.8c3.6,0.5,7.1,3.3,10.6,8.3c3.5,5,5,9.5,4.4,13.4c-0.6,4.3-3.2,6.2-7.8,5.5c-1-0.1-1.6,0.1-1.6,0.7
		c-0.2,1.5,0.2,2.4,1.6,4.3c0.2,0.2,1.3,1.2,1.2,1.7c-0.2,0.7-6-1.7-7.7-4.2c-6.3-9.2-8.9-17.2-7.9-24.2
		C173.5,41.1,175.9,39.2,180.1,39.8"/>
	<path class="st1" d="M185.7,82.4c12.3-3,17.7,14.9,7.6,32.4c-3.5,6-15.1,20.7-14.8,16.4c0.3-4.1,9.5-32.7-3.2-49.6
		c-21.2-28.4-61.4-7.7-80.2,4.1C62.4,106,54.7,79.3,34.5,75.1C12.4,70.4,125.6,45.9,164,61C179.9,67.2,185.7,82.4,185.7,82.4"/>
</g>
<g>
	<g>
		<path class="st1" d="M43,138.3c4,0,4.4,3,3.2,10.1c-1.2,7.1-2.8,10.1-6.8,10.1h-0.9l3.6-20.2H43z M51.4,148.4
			c1.6-9.3-0.6-14.7-8.4-14.7h-5.1l-5.2,29.5h6.5C47.1,163.2,49.8,157.7,51.4,148.4 M63.3,157.1l-0.8,0.8c-1.1,1-1.8,1.4-2.3,1.4
			c-0.7,0-0.9-0.5-0.7-2l2.7-15.5h-4.9l-2.7,15.5c-0.7,3.9-0.2,6.3,3.1,6.3c1.5,0,3.1-0.6,4.8-2l0.8-0.6c0.3,1.2,0.9,1.9,1.4,2.3
			h4.7l0.7-3.8h-2.2l3.1-17.5H66L63.3,157.1z M81.8,162.5l0.6-3.6c-0.5,0.2-1.5,0.3-2,0.3c-1.5,0-1.8-0.3-1.5-1.8l2.1-11.9h3.7
			l0.7-3.8h-3.7l0.9-4.9h-4.9l-0.9,4.9h-2.9l-0.7,3.8h2.9l-2.1,11.9c-0.8,4.8-0.4,5.8,3.2,5.8C79.4,163.4,81.1,162.9,81.8,162.5
			 M99.7,142.7c-1.4-0.6-3.4-1.1-5.2-1.1c-3.6,0-6.3,1.2-8,10.9c-1.7,9.5,0.9,10.9,4.7,10.9c2.1,0,3.6-0.4,5.1-0.9l0.9-4.9
			c-1.5,0.9-3,1.5-4.2,1.5c-1.6,0-2.7-0.4-1.6-6.5c1.1-6.1,2.3-6.5,3.9-6.5c1.2,0,2.3,0.3,3.7,1.3L99.7,142.7z M108.4,163.2h7.1
			l0.7-3.8H114l2.1-11.7c0.7-3.9,0.2-6.3-3.1-6.3c-1.5,0-3.5,0.8-4.8,2.1l-0.1,0.1l1.8-9.8H105l-5.2,29.5h4.9l2.7-15.3l0.8-0.8
			c1.1-1,1.8-1.4,2.3-1.4c0.7,0,0.9,0.5,0.7,2L108.4,163.2z M139.2,133.5c-4.9,0-7.9,2.5-10.1,14.9c-2.2,12.5,0.3,14.9,5.2,14.9
			c2.3,0,4.3-0.5,6.1-1.2l1-5.8c-1.5,0.9-3.4,2-5.4,2c-2.4,0-3.3-1-1.7-9.9c1.6-8.9,2.8-9.9,5.2-9.9c2,0,3.6,0.9,4.8,1.7l1-5.4
			C143.8,134.2,141.5,133.5,139.2,133.5 M159.9,152.5c1.4-8.3-0.4-11.1-5.4-11.1c-5,0-7.3,2.8-8.7,11.1c-1.5,8.3,0.3,11.1,5.4,11.1
			C156.2,163.6,158.5,160.8,159.9,152.5 M154.2,145.1c1.7,0,2,0.9,0.9,7.5c-1.2,6.5-1.8,7.4-3.5,7.4c-1.7,0-2-0.9-0.8-7.4
			C151.8,146,152.4,145.1,154.2,145.1 M172.2,157.1l-0.8,0.8c-1.1,1-1.8,1.4-2.4,1.4c-0.7,0-0.9-0.5-0.7-2l2.7-15.5h-4.9l-2.7,15.5
			c-0.7,3.9-0.2,6.3,3.1,6.3c1.5,0,3.1-0.6,4.8-2l0.8-0.6c0.3,1.2,0.9,1.9,1.4,2.3h4.7l0.7-3.8h-2.2l3.1-17.5h-4.9L172.2,157.1z
			 M190.1,163.2h7.1l0.7-3.8h-2.2l2.1-11.7c0.7-3.9,0.2-6.3-3.1-6.3c-1.5,0-3.1,0.7-4.8,2.1l-1,0.8c-0.3-1.2-0.9-2-1.5-2.4h-2.9
			c0.1,1.4-0.2,3.8-0.6,6l-2.7,15.4h4.8l2.6-15l1.1-1.1c1.1-1,1.7-1.4,2.3-1.4c0.7,0,0.9,0.5,0.7,2L190.1,163.2z M214.7,142.7
			c-1.4-0.6-3.4-1.1-5.2-1.1c-3.6,0-6.3,1.2-8,10.9c-1.6,9.5,0.9,10.9,4.7,10.9c2.1,0,3.6-0.4,5.1-0.9l0.9-4.9
			c-1.5,0.9-3,1.5-4.2,1.5c-1.6,0-2.6-0.4-1.6-6.5c1.1-6.1,2.3-6.5,3.9-6.5c1.1,0,2.3,0.3,3.6,1.3L214.7,142.7z M221,159.4l3.1-17.5
			H217l-0.7,3.8h2.2l-3.1,17.6h7.1l0.7-3.8H221z M223.1,133.3c-1.6,0-3.1,1.3-3.4,2.9c-0.3,1.6,0.8,2.9,2.4,2.9
			c1.6,0,3.1-1.3,3.4-2.9C225.7,134.6,224.7,133.3,223.1,133.3 M232.1,159.4l4.5-25.6h-7.1l-0.7,3.8h2.2l-4.5,25.7h7.1l0.7-3.8
			H232.1z M249.8,145.6l-3.4,19.8c-0.3,1.6-1.1,2.2-2.2,2.2c-0.9,0-1.5-0.1-2.3-0.4l-0.7,3.9c0.9,0.2,2.3,0.4,3.1,0.4
			c3.8,0,6-0.9,6.9-6l3.5-19.9h4.9l0.7-3.8h-4.9l0.4-2.2c0.3-1.6,1.1-2.2,2.2-2.2c0.9,0,2.2,0.1,3,0.4l0.7-3.9
			c-0.9-0.2-2.7-0.4-3.4-0.4c-4.4,0-6.5,1-7.4,6l-0.4,2.4h-2.8l-0.7,3.8H249.8z M274.2,152.5c1.5-8.3-0.4-11.1-5.4-11.1
			c-5,0-7.3,2.8-8.7,11.1c-1.4,8.3,0.3,11.1,5.4,11.1C270.5,163.6,272.8,160.8,274.2,152.5 M268.5,145.1c1.7,0,2,0.9,0.8,7.5
			c-1.1,6.5-1.7,7.4-3.5,7.4s-2-0.9-0.9-7.4C266.2,146,266.8,145.1,268.5,145.1 M284.8,145.3c0-1.8-0.8-2.9-1.5-3.4h-3
			c0.1,1.4-0.2,3.8-0.6,6l-2.7,15.4h4.8l2.4-13.5l1.6-1.2c1.8-1.3,2.8-1.5,4.1-1l1.1-6.1c-1.1,0-2.4,0.6-3.9,1.9L284.8,145.3z"/>
		<path class="st1" d="M117.1,184.5h-1.5l1.5-8.6h1.3c2.2,0,2.7,1.6,2.2,4.3C120.3,182.9,119.3,184.5,117.1,184.5 M122.9,197
			l-1.6-9.4c2.2-1.3,3.7-3.3,4.4-7.2c0.9-4.8-1-9.1-6.1-9.1H113l-5.2,29.5h5l2.1-11.7h2.1l1.6,11.7h6l0.7-3.8H122.9z M138.6,186.7
			l0,0.2h-4c0.6-3.2,1.3-4.2,3-4.2C139,182.7,139.3,183.6,138.6,186.7 M141.1,195.5c-2.7,1.5-5.4,2.1-6.7,1.2
			c-1.2-0.8-1.1-2.4-0.5-6.2h8.5l0.9-4.7c0.9-4.9-1-6.8-5.2-6.8c-5.2,0-7.5,2.8-8.9,11.1c-1.6,9.3,1,11.1,5.2,11.1
			c2.5,0,4.5-0.8,6-1.3L141.1,195.5z M149.5,183.2L146,203c-0.3,1.6-1.1,2.2-2.2,2.2c-0.9,0-1.5-0.1-2.3-0.4l-0.7,3.9
			c0.8,0.2,2.3,0.4,3.1,0.4c3.8,0,6-0.9,6.9-6l3.5-19.9h4.9l0.7-3.8H155l0.4-2.2c0.3-1.6,1.1-2.2,2.2-2.2c0.9,0,2.3,0.1,3.1,0.4
			l0.7-3.9c-0.9-0.2-2.7-0.4-3.5-0.4c-4.3,0-6.4,1-7.3,6l-0.4,2.4h-2.9l-0.7,3.8H149.5z M167.9,194.8l-0.8,0.8
			c-1.1,1-1.8,1.4-2.4,1.4c-0.7,0-0.9-0.5-0.7-2l2.7-15.5H162l-2.7,15.5c-0.7,3.9-0.2,6.3,3.1,6.3c1.5,0,3.1-0.6,4.8-2.1l0.8-0.6
			c0.3,1.2,0.9,1.9,1.4,2.3h4.7l0.7-3.8h-2.2l3.1-17.5h-4.8L167.9,194.8z M188.3,184.9l-1.8,10.2l-0.8,0.7c-1,0.9-1.6,1.3-2.1,1.3
			c-0.9,0-1.6-0.2-0.4-7c1.2-6.9,2-7.1,2.9-7.1c0.6,0,1.1,0.2,1.7,1.2L188.3,184.9z M190.1,202.5l3-17.1c0.4-2.1,1-4.6,1.5-6h-2.9
			c-0.6,0.3-1.4,1.1-2.1,2.1c-1.2-1.4-2.8-2.5-4.4-2.5c-3.2,0-5.4,2.6-6.9,11.1c-1.5,8.5,0.2,11.1,3.4,11.1c1.2,0,2.7-0.7,4.1-1.8
			l-0.6,3.4c-0.3,1.7-1.5,2.6-3,2.6c-1.9,0-3.4-0.6-5-1.8l-0.8,4.4c1.3,0.5,3.2,1.4,5.8,1.4C186.5,209.3,189.1,207.8,190.1,202.5
			 M206.4,186.7l0,0.2h-4c0.6-3.2,1.3-4.2,3-4.2C206.8,182.7,207,183.6,206.4,186.7 M208.8,195.5c-2.7,1.5-5.4,2.1-6.7,1.2
			c-1.2-0.8-1.1-2.4-0.5-6.2h8.5l0.9-4.7c0.9-4.9-1-6.8-5.2-6.8c-5.1,0-7.5,2.8-9,11.1c-1.6,9.3,1,11.1,5.1,11.1
			c2.5,0,4.5-0.8,6-1.3L208.8,195.5z M223.9,186.7l0,0.2h-4c0.6-3.2,1.3-4.2,3-4.2C224.3,182.7,224.6,183.6,223.9,186.7
			 M226.4,195.5c-2.7,1.5-5.4,2.1-6.6,1.2c-1.2-0.8-1.1-2.4-0.5-6.2h8.5l0.9-4.7c0.9-4.9-1-6.8-5.2-6.8c-5.1,0-7.5,2.8-9,11.1
			c-1.6,9.3,1,11.1,5.2,11.1c2.5,0,4.5-0.8,6-1.3L226.4,195.5z M244.6,180.3c-1.3-0.6-3.6-1.2-5.1-1.2c-3.8,0-6.6,1.3-7.5,6.1
			c-1,5.5,1.6,7,4.9,7c1.6,0,2.4,0.5,2.1,2.4c-0.4,2.1-1.6,2.8-3,2.8c-1.7,0-3.3-0.5-5.1-1.3l-0.7,4.2c1.3,0.6,2.8,1.1,5.1,1.1
			c3.7,0,7-1.5,7.9-6.6c1-5.7-2.2-7.2-5.4-7.2c-1.3,0-1.8-0.5-1.5-2.2c0.3-1.8,1.3-2.3,2.5-2.3c1.7,0,3.3,0.5,5,1.5L244.6,180.3z"/>
	</g>
</g>
</svg>
