<svg width="48" height="48" viewBox="0 0 48 48" fill="none" xmlns="http://www.w3.org/2000/svg">
<path d="M37 8V7.5C37 7.10218 36.842 6.72064 36.5607 6.43934C36.2794 6.15804 35.8978 6 35.5 6C35.1022 6 34.7206 6.15804 34.4393 6.43934C34.158 6.72064 34 7.10218 34 7.5V48H37V16H48V8H37ZM30 6H2C1.46957 6 0.960859 6.21071 0.585786 6.58579C0.210714 6.96086 0 7.46957 0 8L0 30H32V8C32 7.46957 31.7893 6.96086 31.4142 6.58579C31.0391 6.21071 30.5304 6 30 6V6ZM6 4H26C26.5304 4 27.0391 3.78929 27.4142 3.41421C27.7893 3.03914 28 2.53043 28 2C28 1.46957 27.7893 0.960859 27.4142 0.585786C27.0391 0.210714 26.5304 0 26 0L6 0C5.46957 0 4.96086 0.210714 4.58579 0.585786C4.21071 0.960859 4 1.46957 4 2C4 2.53043 4.21071 3.03914 4.58579 3.41421C4.96086 3.78929 5.46957 4 6 4V4ZM0 48H12V38C12.0016 37.4701 12.2128 36.9623 12.5875 36.5875C12.9623 36.2128 13.4701 36.0016 14 36H18C18.5299 36.0016 19.0377 36.2128 19.4125 36.5875C19.7872 36.9623 19.9984 37.4701 20 38V48H32V32H0V48Z" fill="#011E41"/>
</svg>
