<svg width="48" height="48" viewBox="0 0 48 48" fill="none" xmlns="http://www.w3.org/2000/svg">
<path d="M39.998 7.46496C40.6832 7.86028 41.4702 8.04356 42.2596 7.99162C43.0489 7.93967 43.8052 7.65485 44.4326 7.17315C45.0601 6.69145 45.5307 6.03451 45.7849 5.2854C46.039 4.53628 46.0654 3.72862 45.8605 2.96454C45.6557 2.20046 45.2289 1.51426 44.6341 0.99272C44.0393 0.471177 43.3033 0.137702 42.519 0.0344599C41.7347 -0.0687823 40.9374 0.0628441 40.2279 0.412697C39.5184 0.762549 38.9286 1.31492 38.533 1.99996C38.2704 2.45492 38.1 2.95715 38.0315 3.47797C37.963 3.99879 37.9978 4.528 38.1338 5.03538C38.2699 5.54277 38.5045 6.01839 38.8244 6.43508C39.1442 6.85178 39.543 7.20139 39.998 7.46396V7.46496ZM31.218 34.233C30.858 34.0726 30.4699 33.9847 30.0759 33.9745C29.6819 33.9643 29.2897 34.032 28.9219 34.1735C28.554 34.3151 28.2177 34.5278 27.9322 34.7995C27.6467 35.0712 27.4176 35.3966 27.258 35.757C26.395 37.619 25.0182 39.1958 23.2895 40.3019C21.5609 41.4081 19.5523 41.9975 17.5 42.001C14.7162 41.9978 12.0473 40.8905 10.0789 38.9221C8.11044 36.9536 7.00318 34.2848 7 31.501C7 25.81 12.037 21.001 18 21.001C18.7956 21.001 19.5587 20.6849 20.1213 20.1223C20.6839 19.5597 21 18.7966 21 18.001C21 17.2053 20.6839 16.4423 20.1213 15.8796C19.5587 15.317 18.7956 15.001 18 15.001C8.785 15.001 1 22.558 1 31.501C1.02244 35.2914 2.3417 38.96 4.7384 41.8967C7.13511 44.8334 10.4648 46.8612 14.1739 47.6429C17.883 48.4246 21.7479 47.9132 25.1259 46.1936C28.504 44.474 31.1916 41.65 32.742 38.191C33.0645 37.464 33.0851 36.6387 32.7994 35.8965C32.5136 35.1543 31.9448 34.5559 31.218 34.233V34.233Z" fill="#011E41"/>
<path d="M46.2033 23.9661C45.9004 23.6391 45.5287 23.3835 45.1151 23.2176C44.7014 23.0518 44.2561 22.9799 43.8113 23.0071L34.9913 23.5581L40.5293 15.5111C40.5872 15.4152 40.6373 15.3149 40.6793 15.2111C40.8934 14.8317 41.0034 14.4026 40.9981 13.967C40.9928 13.5315 40.8725 13.1051 40.6493 12.7311C40.4723 12.4401 40.2415 12.1856 39.9692 11.9811L36.4692 9.55105L28.4693 3.98105C27.9885 3.62862 27.3973 3.46007 26.8029 3.50593C26.2086 3.55179 25.6503 3.80904 25.2293 4.23105L20.7293 8.73105C20.2598 9.20049 19.9961 9.83718 19.9961 10.5011C19.9961 11.1649 20.2598 11.8016 20.7293 12.2711C21.1987 12.7405 21.8354 13.0042 22.4993 13.0042C23.1631 13.0042 23.7998 12.7405 24.2693 12.2711L27.2593 9.28105L31.5093 12.2111L24.5093 24.0611C24.1718 24.6702 23.9991 25.3568 24.0084 26.0531C24.0176 26.7494 24.2084 27.4312 24.5619 28.0312C24.9154 28.6311 25.4194 29.1284 26.024 29.4739C26.6286 29.8194 27.3129 30.0011 28.0093 30.0011L28.0633 29.9911C28.1053 29.9901 28.1443 29.9981 28.1863 29.9951L40.5073 29.2251L39.0293 39.5771C38.9167 40.3647 39.1216 41.1649 39.599 41.8015C40.0763 42.4381 40.7871 42.859 41.5748 42.9716C42.3624 43.0841 43.1626 42.8792 43.7992 42.4018C44.4358 41.9245 44.8567 41.2137 44.9692 40.4261L46.9692 26.4261C47.0325 25.9849 46.9965 25.5351 46.864 25.1096C46.7315 24.684 46.5058 24.2934 46.2033 23.9661V23.9661Z" fill="#011E41"/>
</svg>
