<svg width="48" height="48" viewBox="0 0 48 48" fill="none" xmlns="http://www.w3.org/2000/svg">
<path d="M38 6H10C9.47005 6.00158 8.96227 6.2128 8.58753 6.58753C8.2128 6.96227 8.00158 7.47005 8 8V30H40V8C39.9984 7.47005 39.7872 6.96227 39.4125 6.58753C39.0377 6.2128 38.5299 6.00158 38 6V6ZM33.89 18.04V18.06C33.8132 18.2434 33.7011 18.4099 33.56 18.55L27.55 24.57C27.2692 24.8441 26.8924 24.9976 26.5 24.9976C26.1076 24.9976 25.7308 24.8441 25.45 24.57C25.1715 24.2915 25.0151 23.9138 25.0151 23.52C25.0151 23.1262 25.1715 22.7485 25.45 22.47L28.94 18.98H15.48C15.0875 18.98 14.711 18.8241 14.4335 18.5465C14.1559 18.269 14 17.8925 14 17.5C14 17.1075 14.1559 16.731 14.4335 16.4535C14.711 16.1759 15.0875 16.02 15.48 16.02H28.94L25.45 12.53C25.1762 12.2506 25.0236 11.8743 25.0256 11.4831C25.0276 11.0919 25.1839 10.7172 25.4606 10.4406C25.7372 10.1639 26.1119 10.0076 26.5031 10.0056C26.8944 10.0036 27.2706 10.1562 27.55 10.43L33.56 16.45C33.7011 16.59 33.8133 16.7566 33.89 16.94V16.96C33.9626 17.1308 34 17.3144 34 17.5C34 17.6856 33.9626 17.8692 33.89 18.04V18.04ZM14 4H34C34.5304 4 35.0391 3.78929 35.4142 3.41421C35.7893 3.03914 36 2.53043 36 2C36 1.46957 35.7893 0.960859 35.4142 0.585786C35.0391 0.210714 34.5304 0 34 0L14 0C13.4696 0 12.9609 0.210714 12.5858 0.585786C12.2107 0.960859 12 1.46957 12 2C12 2.53043 12.2107 3.03914 12.5858 3.41421C12.9609 3.78929 13.4696 4 14 4V4ZM8 48H20V38C20.0016 37.4701 20.2128 36.9623 20.5875 36.5875C20.9623 36.2128 21.4701 36.0016 22 36H26C26.5299 36.0016 27.0377 36.2128 27.4125 36.5875C27.7872 36.9623 27.9984 37.4701 28 38V48H40V32H8V48Z" fill="#011E41"/>
</svg>
