<svg width="48" height="48" viewBox="0 0 48 48" fill="none" xmlns="http://www.w3.org/2000/svg">
<path d="M32.0006 25.0017C30.3189 25.0019 28.6935 25.6073 27.4215 26.7073C26.1496 27.8073 25.316 29.3284 25.0732 30.9925C24.8305 32.6565 25.1948 34.3523 26.0995 35.7699C27.0042 37.1874 28.3889 38.232 30.0004 38.7126V39.5026C30.0004 40.6962 29.5263 41.8408 28.6823 42.6848C27.8383 43.5288 26.6937 44.0029 25.5001 44.0029C24.3066 44.0029 23.1619 43.5288 22.3179 42.6848C21.474 41.8408 20.9998 40.6962 20.9998 39.5026V22.8015C23.2572 22.3375 25.2856 21.1093 26.743 19.324C28.2004 17.5387 28.9976 15.3055 29.0004 13.0009V0H23C22.4695 0 21.9607 0.210728 21.5856 0.585825C21.2105 0.960923 20.9998 1.46966 20.9998 2.00013C20.9998 2.5306 21.2105 3.03934 21.5856 3.41444C21.9607 3.78954 22.4695 4.00027 23 4.00027H25.0001V13.0009C25.0001 14.5923 24.3679 16.1185 23.2426 17.2438C22.1173 18.3691 20.5911 19.0013 18.9997 19.0013C17.4083 19.0013 15.8821 18.3691 14.7568 17.2438C13.6315 16.1185 12.9993 14.5923 12.9993 13.0009V4.00027H14.9994C15.5299 4.00027 16.0386 3.78954 16.4137 3.41444C16.7888 3.03934 16.9996 2.5306 16.9996 2.00013C16.9996 1.46966 16.7888 0.960923 16.4137 0.585825C16.0386 0.210728 15.5299 0 14.9994 0L8.99902 0V13.0009C9.00175 15.3055 9.799 17.5387 11.2564 19.324C12.7138 21.1093 14.7421 22.3375 16.9996 22.8015V40.0027H17.0296C17.1539 42.165 18.1006 44.1979 19.6754 45.6848C21.2503 47.1717 23.3342 48 25.5001 48C27.666 48 29.7499 47.1717 31.3248 45.6848C32.8997 44.1979 33.8463 42.165 33.9707 40.0027H34.0007V38.7126C35.6122 38.232 36.9969 37.1874 37.9016 35.7699C38.8063 34.3523 39.1706 32.6565 38.9279 30.9925C38.6851 29.3284 37.8515 27.8073 36.5796 26.7073C35.3076 25.6073 33.6822 25.0019 32.0006 25.0017V25.0017ZM32.0006 35.0023C31.4072 35.0023 30.8271 34.8264 30.3337 34.4967C29.8404 34.167 29.4558 33.6985 29.2287 33.1503C29.0017 32.602 28.9422 31.9988 29.058 31.4168C29.1738 30.8348 29.4595 30.3003 29.8791 29.8807C30.2987 29.4611 30.8333 29.1753 31.4152 29.0596C31.9972 28.9438 32.6005 29.0032 33.1487 29.2303C33.6969 29.4574 34.1655 29.8419 34.4951 30.3353C34.8248 30.8287 35.0008 31.4087 35.0008 32.0021C34.9984 32.7971 34.6815 33.5588 34.1194 34.121C33.5573 34.6831 32.7955 35 32.0006 35.0023V35.0023Z" fill="#011E41"/>
</svg>
