<svg width="48" height="48" viewBox="0 0 48 48" fill="none" xmlns="http://www.w3.org/2000/svg">
<path d="M31.9996 25.0017C30.3179 25.0019 28.6925 25.6073 27.4206 26.7073C26.1486 27.8073 25.315 29.3284 25.0723 30.9925C24.8295 32.6565 25.1938 34.3523 26.0985 35.7699C27.0032 37.1874 28.3879 38.232 29.9994 38.7126V39.5026C29.9994 40.6962 29.5253 41.8408 28.6813 42.6848C27.8374 43.5288 26.6927 44.0029 25.4991 44.0029C24.3056 44.0029 23.1609 43.5288 22.317 42.6848C21.473 41.8408 20.9988 40.6962 20.9988 39.5026V22.8015C23.2563 22.3375 25.2846 21.1093 26.742 19.324C28.1994 17.5387 28.9967 15.3055 28.9994 13.0009V0H22.999C22.4685 0 21.9598 0.210728 21.5847 0.585825C21.2096 0.960923 20.9988 1.46966 20.9988 2.00013C20.9988 2.5306 21.2096 3.03934 21.5847 3.41444C21.9598 3.78954 22.4685 4.00027 22.999 4.00027H24.9991V13.0009C24.9991 14.5923 24.3669 16.1185 23.2416 17.2438C22.1163 18.3691 20.5901 19.0013 18.9987 19.0013C17.4073 19.0013 15.8811 18.3691 14.7558 17.2438C13.6305 16.1185 12.9983 14.5923 12.9983 13.0009V4.00027H14.9984C15.5289 4.00027 16.0377 3.78954 16.4128 3.41444C16.7879 3.03934 16.9986 2.5306 16.9986 2.00013C16.9986 1.46966 16.7879 0.960923 16.4128 0.585825C16.0377 0.210728 15.5289 0 14.9984 0L8.99805 0V13.0009C9.00077 15.3055 9.79802 17.5387 11.2554 19.324C12.7128 21.1093 14.7412 22.3375 16.9986 22.8015V40.0027H17.0286C17.153 42.165 18.0996 44.1979 19.6745 45.6848C21.2493 47.1717 23.3332 48 25.4991 48C27.665 48 29.7489 47.1717 31.3238 45.6848C32.8987 44.1979 33.8453 42.165 33.9697 40.0027H33.9997V38.7126C35.6112 38.232 36.9959 37.1874 37.9006 35.7699C38.8053 34.3523 39.1696 32.6565 38.9269 30.9925C38.6841 29.3284 37.8506 27.8073 36.5786 26.7073C35.3066 25.6073 33.6812 25.0019 31.9996 25.0017V25.0017ZM31.9996 35.0023C31.4062 35.0023 30.8261 34.8264 30.3328 34.4967C29.8394 34.167 29.4548 33.6985 29.2278 33.1503C29.0007 32.602 28.9413 31.9988 29.057 31.4168C29.1728 30.8348 29.4585 30.3003 29.8781 29.8807C30.2977 29.4611 30.8323 29.1753 31.4143 29.0596C31.9962 28.9438 32.5995 29.0032 33.1477 29.2303C33.6959 29.4574 34.1645 29.8419 34.4941 30.3353C34.8238 30.8287 34.9998 31.4087 34.9998 32.0021C34.9974 32.7971 34.6805 33.5588 34.1184 34.121C33.5563 34.6831 32.7945 35 31.9996 35.0023V35.0023Z" fill="#011E41"/>
</svg>
