<svg width="48" height="48" viewBox="0 0 48 48" fill="none" xmlns="http://www.w3.org/2000/svg">
<path d="M39.2732 0H8.72772C8.14959 0.00172661 7.59564 0.232151 7.18685 0.640947C6.77805 1.04974 6.54763 1.6037 6.5459 2.18182V45.8182C6.54763 46.3963 6.77805 46.9503 7.18685 47.3591C7.59564 47.7678 8.14959 47.9983 8.72772 48H29.455V40.3636C29.4548 39.7906 29.5676 39.2231 29.7869 38.6936C30.0061 38.1641 30.3275 37.683 30.7327 37.2778C31.138 36.8725 31.6191 36.5511 32.1486 36.3319C32.6781 36.1126 33.2455 35.9999 33.8186 36H41.455V2.18182C41.4533 1.6037 41.2228 1.04974 40.814 0.640947C40.4052 0.232151 39.8513 0.00172661 39.2732 0V0ZM34.3641 30.5455H13.6368C13.2028 30.5455 12.7866 30.3731 12.4797 30.0662C12.1728 29.7593 12.0004 29.3431 12.0004 28.9091C12.0004 28.4751 12.1728 28.0589 12.4797 27.752C12.7866 27.4451 13.2028 27.2727 13.6368 27.2727H34.3641C34.7981 27.2727 35.2143 27.4451 35.5212 27.752C35.828 28.0589 36.0004 28.4751 36.0004 28.9091C36.0004 29.3431 35.828 29.7593 35.5212 30.0662C35.2143 30.3731 34.7981 30.5455 34.3641 30.5455V30.5455ZM34.3641 21.8182H13.6368C13.2028 21.8182 12.7866 21.6458 12.4797 21.3389C12.1728 21.032 12.0004 20.6158 12.0004 20.1818C12.0004 19.7478 12.1728 19.3316 12.4797 19.0247C12.7866 18.7179 13.2028 18.5455 13.6368 18.5455H34.3641C34.7981 18.5455 35.2143 18.7179 35.5212 19.0247C35.828 19.3316 36.0004 19.7478 36.0004 20.1818C36.0004 20.6158 35.828 21.032 35.5212 21.3389C35.2143 21.6458 34.7981 21.8182 34.3641 21.8182ZM34.3641 13.0909H13.6368C13.2028 13.0909 12.7866 12.9185 12.4797 12.6116C12.1728 12.3048 12.0004 11.8885 12.0004 11.4545C12.0004 11.0206 12.1728 10.6043 12.4797 10.2975C12.7866 9.99058 13.2028 9.81818 13.6368 9.81818H34.3641C34.7981 9.81818 35.2143 9.99058 35.5212 10.2975C35.828 10.6043 36.0004 11.0206 36.0004 11.4545C36.0004 11.8885 35.828 12.3048 35.5212 12.6116C35.2143 12.9185 34.7981 13.0909 34.3641 13.0909Z" fill="#011E41"/>
<path d="M31.6367 40.3635V47.9998L41.4549 38.1816H33.8185C33.2404 38.1834 32.6865 38.4138 32.2777 38.8226C31.8689 39.2314 31.6384 39.7853 31.6367 40.3635V40.3635Z" fill="#011E41"/>
</svg>
