<svg width="48" height="48" viewBox="0 0 48 48" fill="none" xmlns="http://www.w3.org/2000/svg">
<path d="M40.3636 7.57135V6.5459L48 14.1823H41.2145C40.989 14.182 40.7727 14.0922 40.6132 13.9327C40.4537 13.7732 40.3639 13.5569 40.3636 13.3314V7.57135ZM19.6364 21.8186H18.5455C18.2561 21.8186 17.9787 21.9336 17.7741 22.1381C17.5695 22.3427 17.4545 22.6202 17.4545 22.9095V29.455C17.4545 29.7443 17.5695 30.0218 17.7741 30.2264C17.9787 30.431 18.2561 30.5459 18.5455 30.5459H19.6364C19.9257 30.5459 20.2032 30.431 20.4078 30.2264C20.6123 30.0218 20.7273 29.7443 20.7273 29.455V22.9095C20.7273 22.6202 20.6123 22.3427 20.4078 22.1381C20.2032 21.9336 19.9257 21.8186 19.6364 21.8186ZM9.81818 21.8186H7.63636V30.5459H9.81818C10.1075 30.5459 10.385 30.431 10.5896 30.2264C10.7942 30.0218 10.9091 29.7443 10.9091 29.455V22.9095C10.9091 22.6202 10.7942 22.3427 10.5896 22.1381C10.385 21.9336 10.1075 21.8186 9.81818 21.8186ZM48 16.3641V39.2732C48 39.8518 47.7701 40.4068 47.361 40.816C46.9518 41.2251 46.3968 41.455 45.8182 41.455H2.18182C1.60316 41.455 1.04821 41.2251 0.63904 40.816C0.22987 40.4068 0 39.8518 0 39.2732V8.72772C0 8.14906 0.22987 7.59411 0.63904 7.18494C1.04821 6.77577 1.60316 6.5459 2.18182 6.5459H38.1818V13.3314C38.1827 14.1354 38.5025 14.9063 39.071 15.4749C39.6396 16.0434 40.4105 16.3632 41.2145 16.3641H48ZM13.0909 22.9095C13.09 22.0418 12.745 21.2099 12.1314 20.5963C11.5178 19.9828 10.6859 19.6377 9.81818 19.6368H6.54545C6.25613 19.6368 5.97865 19.7517 5.77407 19.9563C5.56948 20.1609 5.45455 20.4384 5.45455 20.7277V31.6368C5.45455 31.9261 5.56948 32.2036 5.77407 32.4082C5.97865 32.6128 6.25613 32.7277 6.54545 32.7277H9.81818C10.6859 32.7269 11.5178 32.3818 12.1314 31.7682C12.745 31.1546 13.09 30.3227 13.0909 29.455V22.9095ZM22.9091 22.9095C22.9082 22.0418 22.5631 21.2099 21.9496 20.5963C21.336 19.9828 20.5041 19.6377 19.6364 19.6368H18.5455C17.6777 19.6377 16.8458 19.9828 16.2322 20.5963C15.6187 21.2099 15.2736 22.0418 15.2727 22.9095V29.455C15.2736 30.3227 15.6187 31.1546 16.2322 31.7682C16.8458 32.3818 17.6777 32.7269 18.5455 32.7277H19.6364C20.5041 32.7269 21.336 32.3818 21.9496 31.7682C22.5631 31.1546 22.9082 30.3227 22.9091 29.455V22.9095ZM27.2727 29.455V22.9095C27.2727 22.6202 27.3877 22.3427 27.5922 22.1381C27.7968 21.9336 28.0743 21.8186 28.3636 21.8186H31.6364C31.9257 21.8186 32.2032 21.7037 32.4078 21.4991C32.6123 21.2945 32.7273 21.017 32.7273 20.7277C32.7273 20.4384 32.6123 20.1609 32.4078 19.9563C32.2032 19.7517 31.9257 19.6368 31.6364 19.6368H28.3636C27.4959 19.6377 26.664 19.9828 26.0504 20.5963C25.4369 21.2099 25.0918 22.0418 25.0909 22.9095V29.455C25.0918 30.3227 25.4369 31.1546 26.0504 31.7682C26.664 32.3818 27.4959 32.7269 28.3636 32.7277H31.6364C31.9257 32.7277 32.2032 32.6128 32.4078 32.4082C32.6123 32.2036 32.7273 31.9261 32.7273 31.6368C32.7273 31.3475 32.6123 31.07 32.4078 30.8654C32.2032 30.6608 31.9257 30.5459 31.6364 30.5459H28.3636C28.0743 30.5459 27.7968 30.431 27.5922 30.2264C27.3877 30.0218 27.2727 29.7443 27.2727 29.455ZM39.9469 26.1823L42.4309 21.2154C42.4949 21.0871 42.5331 20.9476 42.5432 20.8046C42.5533 20.6616 42.5351 20.5181 42.4898 20.3821C42.4444 20.2462 42.3727 20.1205 42.2787 20.0123C42.1847 19.9041 42.0704 19.8154 41.9422 19.7514C41.814 19.6873 41.6744 19.6492 41.5314 19.6391C41.3885 19.629 41.2449 19.6471 41.109 19.6925C40.973 19.7379 40.8473 19.8096 40.7391 19.9036C40.6309 19.9975 40.5422 20.1119 40.4782 20.2401L38.7273 23.7419L36.9764 20.2401C36.847 19.9811 36.6201 19.7842 36.3456 19.6925C36.071 19.6009 35.7713 19.622 35.5124 19.7514C35.2534 19.8807 35.0565 20.1076 34.9648 20.3821C34.8731 20.6567 34.8943 20.9564 35.0236 21.2154L37.5076 26.1823L35.0236 31.1492C34.8943 31.4081 34.8731 31.7078 34.9648 31.9824C35.0565 32.2569 35.2534 32.4838 35.5124 32.6132C35.7713 32.7425 36.071 32.7637 36.3456 32.672C36.6201 32.5804 36.847 32.3834 36.9764 32.1244L38.7273 28.6226L40.4782 32.1244C40.6075 32.3834 40.8344 32.5804 41.109 32.672C41.3835 32.7637 41.6832 32.7425 41.9422 32.6132C42.2011 32.4838 42.3981 32.2569 42.4898 31.9824C42.5814 31.7078 42.5602 31.4081 42.4309 31.1492L39.9469 26.1823Z" fill="#011E41"/>
</svg>
