<?xml version="1.0" encoding="utf-8"?>
<!-- Generator: Adobe Illustrator 25.2.1, SVG Export Plug-In . SVG Version: 6.00 Build 0)  -->
<svg version="1.1" id="Layer_1" xmlns="http://www.w3.org/2000/svg" xmlns:xlink="http://www.w3.org/1999/xlink" x="0px" y="0px"
	 viewBox="0 0 288 560" style="enable-background:new 0 0 288 560;" xml:space="preserve">
<style type="text/css">
	.st0{fill:#FEFEFE;}
	.st1{fill:#000037;}
	.st2{fill:#0D0D42;}
	.st3{fill:#0C0C41;}
	.st4{fill:#101044;}
	.st5{fill:#08083E;}
	.st6{fill:#0A0A40;}
	.st7{fill:#06063C;}
	.st8{fill:#18184A;}
	.st9{fill:#171749;}
	.st10{fill:#151548;}
	.st11{fill:#0F0F43;}
	.st12{fill:#4A4A72;}
	.st13{fill:#84849F;}
	.st14{fill:#FCFCFD;}
	.st15{fill:#F3F3F5;}
	.st16{fill:#FDFDFD;}
	.st17{fill:#F0F0F3;}
	.st18{fill:#70708F;}
	.st19{fill:#2C2C5A;}
	.st20{fill:#CFCFD9;}
	.st21{fill:#E7E7EC;}
	.st22{fill:#F5F5F7;}
	.st23{fill:#CACAD5;}
	.st24{fill:#F9F9FA;}
	.st25{fill:#111144;}
</style>
<g>
	<g>
		<path class="st0" d="M62.4,283.43c0-20.07,0.04-40.14-0.07-60.21c-0.01-1.97,0.66-1.99,2.19-1.99
			c48.55,0.04,97.1,0.04,145.65-0.02c1.76,0,2.11,0.34,2.1,2.08c-0.08,19.23-0.15,38.47,0.05,57.7c0.03,2.93-1.42,2.44-3.08,2.44
			C160.33,283.43,111.4,283.43,62.4,283.43z"/>
		<path class="st1" d="M100.85,278.24c-4.66-1.39-10.44-0.38-16.24,0c-5,0.33-7.93-1.82-9.47-6.56c-1.13-3.48-2.77-6.6-5.38-9.14
			c-3.95-3.85-4.14-8.49-2.01-12.91c1.54-3.21,2.36-6.39,2.7-9.81c0.43-4.37,2.79-7.01,7.12-7.77c3.5-0.61,6.49-2.02,9.3-4.25
			c3.88-3.08,8.82-3.03,12.68,0.17c2.5,2.07,5.17,3.14,8.31,3.65c5.15,0.85,7.21,3.23,7.54,8.45c0.17,2.77,0.95,5.26,2.36,7.66
			c3.26,5.56,3.05,9.34-1.01,14.2c-2.67,3.2-4.29,6.86-5.79,10.64C109.34,276.63,106.34,278.54,100.85,278.24z"/>
		<path class="st2" d="M166.16,261.58c0-5.47,0.17-5.67,4.23-5.08c2.38,0.35,3.78,1.33,2.61,3.92c-0.34,0.75-0.11,1.19,0.15,1.91
			c1.05,2.94,0.02,4.38-3.09,4.72C166.16,267.48,166.16,267.48,166.16,261.58z"/>
		<path class="st2" d="M136.81,249.76c0.12,0.82-0.11,1.95-1.97,2.22c-2.34,0.34-4.58,0.32-5.97-1.84c-1.36-2.1-1.38-4.46-0.1-6.65
			c1.31-2.23,3.52-2.48,5.85-2.25c0.72,0.07,1.63,0.08,1.63,1.08c0,1.43-1,1.03-1.84,0.86c-1.84-0.37-3.22,0.3-3.86,2.02
			c-0.54,1.43-0.46,2.94,0.62,4.17c0.84,0.95,2.11,1.25,2.95,0.41c0.97-0.97,0.27-1.71-0.99-1.92c-0.62-0.1-0.75-0.62-0.58-1.11
			c0.33-0.93,1.2-0.7,1.89-0.7c0.82,0,1.87-0.26,2.19,0.83C136.83,247.58,136.73,248.35,136.81,249.76z"/>
		<path class="st2" d="M138.39,261.74c-0.01-3.54,1.85-5.66,4.89-5.57c2.83,0.08,4.66,2.23,4.67,5.5c0.01,3.48-1.89,5.58-4.96,5.5
			C140.03,267.09,138.4,265.17,138.39,261.74z"/>
		<path class="st3" d="M199.87,261.53c1.43-0.5,3.22-0.97,3.96,0.2c0.66,1.06,0.43,2.91,0.08,4.28c-0.38,1.51-2.03,1.11-3.19,1.14
			c-3.61,0.09-5.68-2.23-5.37-5.88c0.28-3.41,3.03-5.6,6.42-5.01c0.78,0.13,2.05,0.09,2.01,1.15c-0.04,1.18-1.19,0.94-2.05,0.84
			c-2.48-0.3-3.8,0.87-3.9,3.27c-0.06,1.47,0.03,3.03,1.87,3.59c0.72,0.22,1.53,0.41,1.98-0.38
			C202.73,262.88,199.78,263.17,199.87,261.53z"/>
		<path class="st4" d="M194.06,266.87c-3.26,1.06-2.72-2.95-4.71-3.53c-1.63,0.72,0.52,3.98-1.91,3.53
			c-2.18-0.4-0.69-2.92-1.03-4.46c-0.18-0.82-0.15-1.73,0-2.56c0.2-1.18-0.89-3,1.15-3.35c1.67-0.28,3.55-0.39,4.94,0.89
			c1.23,1.14,1.4,2.71,0.33,4C190.8,263.85,194.28,264.88,194.06,266.87z"/>
		<path class="st2" d="M128.42,261.28c1.07-1.3-2.19-4.84,2.39-4.87c3.74-0.02,5.78,1.7,5.86,5.09c0.08,3.53-2.07,5.58-5.85,5.57
			C128.42,267.05,128.42,267.05,128.42,261.28z"/>
		<path class="st5" d="M155.68,245.23c-0.49,1.66-0.96,3.33-1.48,4.99c-0.26,0.83-0.71,1.66-1.72,1.56
			c-0.77-0.08-1.16-0.78-1.37-1.52c-0.41-1.5-0.83-3-1.25-4.5c-1.6,1.75,0.13,4.05-0.99,5.88c-0.25-0.01-0.5-0.02-0.75-0.04
			c-0.76-2.77-0.28-5.59-0.32-8.38c-0.02-1.86,1.2-1.83,2.55-1.24c0.4,2.28,1.91,4.2,2.48,6.66c0.65-1.85,1.51-3.65,1.89-5.55
			c0.34-1.71,1.33-1.87,2.66-1.77c1.6,0.13,1.06,1.41,1.09,2.26c0.07,2.21,0.02,4.43,0.02,6.64c0,0.96-0.13,1.76-1.43,1.44
			c-0.95-2.16,0.2-4.52-0.66-6.68c-0.03-0.08-0.2-0.12-0.31-0.14C155.88,244.79,155.74,244.93,155.68,245.23z"/>
		<path class="st6" d="M185.46,241.41c1.67-0.31,1.4,0.9,1.41,1.83c0.02,2.1,0.06,4.19-0.02,6.29c-0.03,0.86,0.54,2.09-1.02,2.33
			c-1.26,0.19-2.13-0.24-2.68-1.43c-0.73-1.56-1.57-3.07-2.36-4.6c-1.81-0.1-0.84,1.26-0.96,1.95c-0.23,1.28,0.23,2.63-0.32,3.9
			c-0.59,0.14-1.44,0.37-1.48-0.44c-0.14-2.92-0.11-5.86-0.14-8.78c-0.01-0.7,0.29-1.13,1.07-1.14c0.87,0,1.7-0.05,2.17,0.94
			c0.9,1.87,1.88,3.7,2.83,5.54c1.26,0.45,0.97-0.54,1.06-1.14C185.26,244.9,184.55,243.09,185.46,241.41z"/>
		<path class="st7" d="M183.78,260.86c0,1.11,0.19,2.25-0.04,3.31c-0.46,2.09-1.94,3.02-4.08,3c-1.98-0.02-3.5-0.91-3.78-2.84
			c-0.31-2.17-0.15-4.42-0.17-6.63c-0.01-0.67,0.24-1.15,1.03-1.21c1.04-0.08,1.23,0.54,1.23,1.36c0,1.23-0.04,2.46,0.02,3.69
			c0.07,1.49-0.57,3.73,1.87,3.63c2.34-0.1,1.63-2.31,1.72-3.81c0.06-0.98-0.03-1.97,0.03-2.95c0.04-0.78-0.31-1.86,1.05-1.91
			c1.32-0.05,1.21,0.92,1.22,1.78c0.01,0.86,0,1.72,0,2.58C183.85,260.86,183.81,260.86,183.78,260.86z"/>
		<path class="st8" d="M161.07,246.57c0-0.86-0.06-1.73,0.02-2.58c0.08-0.9-0.48-2.26,0.78-2.54c1.66-0.37,3.43-0.41,5.11,0.1
			c0.19,0.06,0.35,0.61,0.31,0.9c-0.12,0.78-0.81,0.74-1.41,0.86c-0.85,0.16-2.26-0.53-2.29,1.03c-0.04,1.49,1.31,1.1,2.22,1.19
			c0.5,0.05,1.01,0.13,1.09,0.72c0.11,0.81-0.44,1.04-1.12,1.05c-1.13,0.02-2.35-0.09-2.27,1.6c0.08,1.61,1.35,1.03,2.22,1.16
			c0.68,0.1,1.68-0.12,1.57,0.98c-0.1,0.96-1.05,0.79-1.75,0.88C161.22,252.42,161.07,252.24,161.07,246.57z"/>
		<path class="st8" d="M197.58,246.54c0-5.67,0.07-5.75,4.51-5.27c0.68,0.07,1.62-0.19,1.72,0.87c0.1,1.03-0.74,1.05-1.49,1.17
			c-0.86,0.14-2.27-0.48-2.24,1.09c0.03,1.48,1.39,1.02,2.29,1.13c0.51,0.06,0.99,0.18,1.05,0.76c0.08,0.82-0.49,1.01-1.16,1.02
			c-1.14,0.01-2.35-0.08-2.25,1.6c0.09,1.61,1.36,1.01,2.23,1.14c0.69,0.11,1.68-0.1,1.55,1c-0.11,0.94-1.06,0.78-1.77,0.86
			C197.71,252.41,197.58,252.25,197.58,246.54z"/>
		<path class="st9" d="M150.1,261.37c0-5.09,0.72-5.83,4.83-4.98c0.62,0.13,1.27,0.16,1.32,0.96c0.05,0.87-0.65,0.82-1.25,0.96
			c-0.91,0.22-2.54-0.75-2.48,1.19c0.05,1.63,1.48,0.78,2.31,1c0.48,0.13,1.02,0.16,1.07,0.79c0.05,0.72-0.34,1.1-1.07,1.2
			c-0.98,0.15-2.46-0.44-2.35,1.43c0.09,1.62,1.4,0.97,2.25,1.09c0.75,0.11,1.59,0.1,1.51,1.14c-0.08,1.06-1,0.83-1.69,0.92
			C150.1,267.6,150.1,267.6,150.1,261.37z"/>
		<path class="st5" d="M139.17,246.39c0-5.44,0.25-5.71,4.58-5.09c0.57,0.08,1.32-0.11,1.42,0.74c0.12,0.98-0.54,1.15-1.36,1.25
			c-0.84,0.11-2.19-0.6-2.32,0.98c-0.13,1.58,1.16,1.21,2.07,1.28c0.59,0.05,1.37-0.06,1.45,0.73c0.11,1.11-0.83,0.97-1.53,1
			c-0.98,0.04-2-0.15-2.05,1.37c-0.06,1.9,1.31,1.32,2.29,1.42c0.59,0.06,1.37-0.1,1.46,0.7c0.12,1.03-0.73,1.01-1.48,1.12
			C139.41,252.51,139.17,252.23,139.17,246.39z"/>
		<path class="st3" d="M169.53,246.51c0-0.98-0.05-1.97,0.02-2.95c0.06-0.89-0.39-2.19,1.16-2.22c1.59-0.03,3.55-0.37,4.67,0.4
			c1.01,0.7-0.24,1.48-1.39,1.56c-0.86,0.05-2.21-0.48-2.09,1.21c0.09,1.31,1.16,0.98,1.97,1.04c0.6,0.05,1.39,0,1.43,0.78
			c0.06,1.09-0.91,0.98-1.6,0.96c-1.16-0.04-1.91,0.21-1.85,1.59c0.06,1.65,1.28,1.09,2.15,1.21c0.67,0.09,1.66-0.22,1.6,0.92
			c-0.05,1.07-1.02,0.81-1.7,0.89C169.53,252.37,169.53,252.37,169.53,246.51z"/>
		<path class="st4" d="M160.35,267.18c-0.97-0.15-2.52,0.13-2.47-1.42c0.06-1.86,1.46-0.48,2.25-0.56c0.62-0.07,1.32,0.02,1.62-0.6
			c0.42-0.85-0.24-1.35-0.85-1.78c-0.7-0.5-1.54-0.86-2.11-1.46c-1.29-1.37-1.35-2.95,0.04-4.24c1.29-1.2,2.91-1.25,4.48-0.39
			c0.26,0.14,0.53,0.55,0.52,0.82c-0.04,0.8-0.61,0.87-1.3,0.8c-0.8-0.08-1.9-0.54-2.21,0.6c-0.35,1.27,0.95,1.58,1.73,2.06
			c1.62,0.98,2.75,2.13,1.98,4.18C163.4,266.86,162,267.19,160.35,267.18z"/>
		<path class="st10" d="M192.29,241.3c0.87,0,1.74-0.04,2.6,0.01c1.05,0.05,1.32,1.27,0.83,1.43c-3.91,1.29-1.68,4.45-2.22,6.73
			c-0.21,0.88,0.35,2.24-1.11,2.32c-1.87,0.11-1.05-1.49-1.31-2.43c-0.6-2.23,1.82-5.55-2.43-6.55c-0.49-0.12-0.43-1.39,0.65-1.49
			C190.29,241.23,191.29,241.3,192.29,241.3z"/>
		<path class="st11" d="M150.36,241.98c-1.78-0.14-2.29,0.79-2.24,2.42c0.08,2.4,0.01,4.8,0.01,7.2c-1.48-2.96-0.64-6.12-0.54-9.15
			C147.64,240.62,149.22,241.05,150.36,241.98z"/>
		<path class="st11" d="M155.68,245.23c0.15-0.43,0.21-1.17,0.45-1.23c0.89-0.23,0.9,0.56,0.91,1.11c0.04,2.18,0.02,4.37,0.03,6.55
			C155.16,249.83,157.35,247.12,155.68,245.23z"/>
		<path class="st12" d="M185.46,241.41c-0.03,2.07,0.01,4.15-0.13,6.21c-0.13,1.99-0.73,1.54-1.36,0.16
			C185.78,245.96,183.29,243.15,185.46,241.41z"/>
		<path class="st13" d="M179.51,251.66c-0.01-2.05-0.37-4.17,0.07-6.13c0.42-1.88,0.89-0.33,1.21,0.28
			C179.23,247.52,181.31,250.01,179.51,251.66z"/>
		<path class="st11" d="M148.87,251.64c0.43-1.95-1-4.2,0.99-5.88C149.01,247.63,150.47,249.89,148.87,251.64z"/>
		<path class="st14" d="M98.26,242.96c2.06,0.05,4.13,0.4,6.1-0.71c0.41-0.23,0.58,0.57,0.59,1.05c0.45,1.07,3.45-0.13,2.21,2.44
			c0,5.54-0.25,11.1,0.1,16.62c0.28,4.46-2.73,3.67-5.3,4.05c-3.23,0.48-2.93-1.59-2.85-3.61c0.17-4.17-0.36-8.35,0.77-12.5
			c0.66-2.42,0.27-2.59-2.08-1.69c-0.31,0.12-0.92,0.17-1.01,0.02c-0.96-1.64-1.76-3.13-3.15-0.21c-0.26,0.55-1.3,0.03-1.41-0.95
			c-0.12-1.06-1.18-1.26-1.48-0.59c-0.83,1.84-1.09,2.44-3.01,0.62c-0.88-0.83-1.62,1.47-1.27,2.58c1.41,4.48,0.49,9.06,0.82,13.57
			c0.15,1.97-0.31,3.14-2.57,2.73c-2.08-0.38-5.2,0.76-5.34-2.78c-0.17-4.3,0.15-8.62,0.18-12.93c0.01-1.47-0.04-2.96-0.32-4.4
			c-0.61-3.11,0.35-3.57,3.59-3.41c1.5,0.07,3.31,1.01,4.88-0.09c1.29,0.03,1.29,0.03,0.87-1.59c-0.82-2.62,1.61-2.05,2.72-2.6
			c1.87-0.93,6.2,0.28,6.78,1.72c-0.34,0.85-0.3,1.74-0.23,2.63c0.04,0.49,0.29,0.67,0.14,0.2
			C97.97,243.1,98.16,243.02,98.26,242.96z"/>
		<path class="st15" d="M90.06,261.42c0.03-0.24-0.03-1.39,0.34-2.39c0.85-2.26,3.68-2.87,5.02-0.99c1.7,2.37,1.35,5.34,0.51,7.73
			c-0.53,1.51-3.11,0.52-4.75,0.56c-1.53,0.03-1.03-1.34-1.11-2.22C90.02,263.51,90.06,262.89,90.06,261.42z"/>
		<path class="st16" d="M90.42,251.47c1.18,0.94,1.18,2,0.38,3.11c-0.09,0.12-0.83,0.03-0.92-0.13
			C89.35,253.4,89.24,252.36,90.42,251.47z"/>
		<path class="st16" d="M96.03,251.35c1.08,1.16,0.95,2.17,0.45,3.16c-0.07,0.14-0.81,0.17-0.88,0.05
			C95.03,253.57,94.94,252.56,96.03,251.35z"/>
		<path class="st17" d="M107.15,245.74c0.16-1.61-1.9-1.25-2.21-2.44C106.98,242.95,109.18,242.46,107.15,245.74z"/>
		<path class="st18" d="M88.56,241.18c0.58,0.36,0.75,0.94,0.7,1.54c-0.05,0.62,0.44,1.67-0.57,1.72c-0.82,0.04-0.81-1.01-1-1.67
			C88.56,242.55,88.41,241.78,88.56,241.18z"/>
		<path class="st19" d="M98.26,242.96c-0.07,0.46,0.02,1.08-0.25,1.35c-0.26,0.26-0.6-0.19-0.6-0.56c0.01-1.19-0.17-2.42,0.65-3.46
			C98.13,241.19,98.19,242.08,98.26,242.96z"/>
		<path class="st20" d="M171.1,259.75c-0.39,0.83-1.09,0.9-1.83,0.78c-0.99-0.16-1.06-0.96-0.8-1.63c0.32-0.82,1.13-0.76,1.84-0.51
			C170.94,258.61,171.26,259.07,171.1,259.75z"/>
		<path class="st21" d="M171.3,263.83c-0.08,0.88-0.63,1.2-1.46,1.23c-1.11,0.04-1.51-0.53-1.39-1.56c0.11-0.95,0.8-1.11,1.56-1.05
			C170.81,262.52,171.37,262.9,171.3,263.83z"/>
		<path class="st22" d="M145.6,261.78c-0.28,1.63-0.33,3.55-2.53,3.41c-2.32-0.14-2.4-2.07-2.34-3.82c0.06-1.67,0.48-3.32,2.65-3.13
			C145.59,258.43,145.29,260.38,145.6,261.78z"/>
		<path class="st23" d="M189.56,258.27c0.86-0.03,1.44,0.49,1.56,1.21c0.16,0.91-0.31,1.63-1.34,1.74c-0.96,0.1-1.21-0.53-1.2-1.35
			C188.59,259.14,188.56,258.4,189.56,258.27z"/>
		<path class="st24" d="M134.28,261.75c-0.16,1.51-0.32,3.3-2.29,3.16c-2.5-0.18-1.04-2.32-1.17-3.52
			c-0.11-1.01-1.04-3.07,1.31-2.97C134.06,258.5,134.16,260.23,134.28,261.75z"/>
		<path class="st19" d="M81.26,250.8c0.34-1.4-0.56-3.48,1.55-3.65c2.2-0.18,1.82,1.87,1.77,3.22c-0.04,1.25,0.84,3.22-1.63,3.26
			C80.69,253.68,81.62,251.82,81.26,250.8z"/>
		<path class="st25" d="M105.14,250.37c-0.54,1.18,0.79,3.05-1.53,3.2c-2.32,0.15-1.67-1.64-1.65-2.81
			c0.03-1.32-0.71-3.38,1.41-3.55C105.85,247.03,104.53,249.34,105.14,250.37z"/>
		<path class="st4" d="M92.91,241.39c1.08,0.03,1.52,0.6,1.48,1.4c-0.04,0.84,0.62,2.06-0.97,2.27c-0.91,0.12-1.37-0.27-1.32-1.21
			C92.15,242.92,91.94,241.9,92.91,241.39z"/>
	</g>
</g>
</svg>
