<?xml version="1.0" encoding="UTF-8" standalone="no"?>
<svg
   xmlns:dc="http://purl.org/dc/elements/1.1/"
   xmlns:cc="http://creativecommons.org/ns#"
   xmlns:rdf="http://www.w3.org/1999/02/22-rdf-syntax-ns#"
   xmlns:svg="http://www.w3.org/2000/svg"
   xmlns="http://www.w3.org/2000/svg"
   viewBox="0 0 535.17334 535.17334"
   height="535.17334"
   width="535.17334"
   xml:space="preserve"
   id="svg2"
   version="1.1"><metadata
     id="metadata8"><rdf:RDF><cc:Work
         rdf:about=""><dc:format>image/svg+xml</dc:format><dc:type
           rdf:resource="http://purl.org/dc/dcmitype/StillImage" /></cc:Work></rdf:RDF></metadata><defs
     id="defs6" /><g
     transform="matrix(1.3333333,0,0,-1.3333333,0,535.17333)"
     id="g10"><g
       transform="scale(0.1)"
       id="g12"><path
         id="path14"
         style="fill:#1c63b7;fill-opacity:1;fill-rule:nonzero;stroke:none"
         d="M 2.80859,1901.85 C 60.8672,794.969 1005.14,-55.1602 2111.9,2.78906 3218.63,60.7617 4068.97,1005.11 4010.96,2111.91 3952.82,3218.68 3008.7,4068.96 1901.8,4010.97 795.066,3952.89 -55.2734,3008.61 2.80859,1901.85" /><path
         id="path16"
         style="fill:#ffffff;fill-opacity:1;fill-rule:nonzero;stroke:none"
         d="m 2686.78,2055.87 c -23.71,-1.43 -43.97,16.91 -45.33,40.77 -1.32,23.72 17.04,44.11 40.88,45.22 23.85,1.35 43.98,-16.95 45.33,-40.79 1.18,-23.8 -17.04,-44.05 -40.88,-45.2 m 694.23,288.91 c -4.95,15.83 -21.77,24.62 -37.59,19.68 -130.96,-40.21 -211.9,-112.85 -267.54,-218.57 -31.3,-58.87 -56.13,-127.57 -81.18,-208.29 -15.31,30.3 -50.23,69.67 -129.15,104.67 12.45,196.12 -229.58,402.5 -501.52,220.38 -27.99,-22.07 -72.85,-23.1 -76.86,-21.02 0,0 18.51,20.57 16.58,55.66 0,0 -8.75,166.2 -9.93,188.86 -1.78,34 -41.62,231.5 -225.99,221.7 -184.53,-9.59 -396.85,-22.33 -396.85,-22.33 33.1,-42.11 57.16,-88.14 59.98,-139.94 2.66,-51.83 17.5,-333.06 17.5,-333.06 l -271.07,-14.22 c 0,0 -100.71,-13.4 -185.22,50.37 l 18.01,-343.03 c 9.03,-171.6 144.47,-248.85 252.81,-243.05 178.04,9.24 211.08,10.88 211.08,10.88 l 15.1,-287.93 c 0,0 1.77,-77.78 -25.48,-176.56 l 375.37,21.33 c 221.73,50.45 255.33,252.97 164.41,479.13 0,0 112.12,5.87 155.07,8.09 42.8,2.21 180.39,-1.34 324.21,171.14 22.41,26.81 144.38,10.88 197.95,2.68 -15.38,-51.75 -31.3,-107.98 -49.25,-169.41 -49.73,-170.89 -150.44,-343.62 -302.01,-472.93 -151.72,-129.29 -353.77,-216.05 -610.79,-216.16 -262.63,0 -500.11,106.34 -672.22,278.43 -172.07,172.11 -278.42,409.57 -278.44,672.19 0.02,262.58 106.37,500.06 278.44,672.17 172.14,172.09 409.59,278.44 672.22,278.44 328.17,0.01 617.35,-166.22 788.29,-419.13 9.28,-13.71 27.92,-17.35 41.64,-8.06 13.72,9.27 17.34,27.92 8.07,41.64 -181.53,268.76 -489.24,445.55 -838,445.56 -558.18,-0.01 -1010.64,-452.49 -1010.66,-1010.62 0.02,-558.18 452.48,-1010.599 1010.66,-1010.618 h 0.61 c 270.47,-0.02 487.72,92.578 649.14,230.518 161.64,138.05 267.87,320.64 320.68,501.78 52.96,182.23 88.75,317.33 139.73,412.52 51.45,94.98 113.61,151.65 232.52,189.54 15.8,4.95 24.61,21.76 19.68,37.57 m -128.09,-151.65 c 0,0 -0.37,-117.93 71.96,-194.89 72.36,-76.97 190.07,-83.91 190.07,-83.91 0,0 0.36,117.89 -71.98,194.86 -72.36,76.99 -190.05,83.94 -190.05,83.94 m 375.53,52.56 c -93.63,48.95 -207.07,16.84 -207.07,16.84 0,0 38.37,-111.46 131.97,-160.43 93.65,-48.96 207.07,-16.84 207.07,-16.84 0,0 -38.38,111.48 -131.97,160.43 m -131.07,340.78 c 39.3,98.04 -4.02,207.71 -4.02,207.71 0,0 -107.07,-49.36 -146.37,-147.43 -39.31,-98.03 4.02,-207.69 4.02,-207.69 0,0 107.06,49.35 146.37,147.41 m 167.45,-205.83 c 96.93,41.98 143.36,150.36 143.36,150.36 0,0 -110.77,40.32 -207.76,-1.66 -96.93,-41.98 -143.34,-150.36 -143.34,-150.36 0,0 110.81,-40.3 207.74,1.66 m -406.24,167.42 c 10.49,105.12 -61.62,198.41 -61.62,198.41 0,0 -89.12,-77.2 -99.61,-182.31 -10.5,-105.12 61.64,-198.39 61.64,-198.39 0,0 89.11,77.19 99.59,182.29" /><path
         id="path18"
         style="fill:#ffffff;fill-opacity:1;fill-rule:nonzero;stroke:none"
         d="m 2765.62,3048.4 c 13.77,-38.98 39.02,-77.79 75.1,-110.56 72.56,-65.88 149.51,-66.93 205.23,-5.55 95.62,105.28 -67.74,212.78 -23.69,261.3 15.06,16.57 37.46,20.43 76.02,-14.59 23.63,-21.45 44.82,-49.78 62.98,-81.41 l 62.17,50.98 c -15.01,31.77 -42.11,67.73 -72.37,95.22 -78.77,71.51 -151.55,59.7 -199.37,7.05 -94.49,-104.07 67.38,-213.23 22.95,-262.15 -19.57,-21.55 -45.78,-20.44 -79.78,10.45 -30.69,27.84 -51.35,61.74 -65.53,101.09 z m -81.54,408.65 53.36,-27.25 c 36.91,-18.85 44.76,-37.94 25.41,-75.84 -20.63,-40.41 -41.45,-44.24 -78.87,-25.14 l -51.86,26.48 z m -155.35,-304.23 71.3,139.66 52.88,-27 -5.98,-173.02 98.24,-50.16 -7.56,200.66 c 46.76,-8.16 88.05,17.29 114.79,69.65 40.76,79.8 12.97,139.91 -79.79,187.27 l -137.17,70.03 -191.01,-374.03 z m -109.69,138.2 -189.51,37.61 18.65,93.94 152.17,-30.21 14.61,73.59 -152.16,30.21 16.26,81.85 180.72,-35.88 14.6,82.16 -271.89,54.01 -81.81,-411.97 280.14,-55.63 z m -530.19,304.86 14.89,-334.55 95.12,4.23 -14.89,334.55 113,5.03 -6.03,84.94 -316.09,-14.06 1.56,-85.14 z m -335.94,-227.58 151.98,-137.64 108.43,34.16 -192.35,170.71 59.73,227.85 -103.09,-32.48 -46.7,-189.1 -43.26,-13.62 -49.98,158.63 -90.26,-28.43 126.21,-400.59 90.26,28.44 -53.18,168.77 z m -451.37,-41.76 c 53.13,36.37 85.7,27.44 145.8,-60.37 59.76,-87.35 56.79,-122.62 4.57,-158.37 -52.69,-36.05 -86.82,-26.85 -146.91,60.97 -60.08,87.79 -56.16,121.7 -3.46,157.77 m 197.66,-288.83 c 108.6,74.31 115.5,158.43 29.47,284.14 -84.44,123.38 -166.3,148.79 -274.9,74.47 -108.141,-74 -115.008,-160.15 -30.57,-283.53 84.45,-123.4 169.25,-148.15 276,-75.08 m -584.001,-95.4 38.281,48.25 c 41.407,52.21 74.813,56.48 152.903,-5.47 84.246,-66.8 84.469,-99.86 44.457,-150.32 l -38.629,-48.71 z M 1017.7,2783.89 c 77.25,97.4 69.62,184.23 -49.294,278.52 -113.636,90.13 -197.652,86 -280.484,-18.41 l -97.781,-123.31 329.078,-260.98 z m 2550.5,-1326.8 -20.37,-58.75 -237.56,82.38 20.18,58.2 c 21.84,62.97 51.96,78.02 146.13,45.35 101.58,-35.23 112.71,-66.34 91.62,-127.18 m -58.62,220.65 c -137.03,47.54 -214.98,15.89 -258.65,-110.05 l -51.56,-148.66 396.82,-137.63 51.92,149.75 c 40.73,117.46 4.85,196.87 -138.53,246.59 m -139.7,-608.96 -278.85,185.46 -52.72,-79.26 349.71,-232.601 147.31,221.501 -69.63,48.99 z m -265.67,-305.948 -65.05,70.25 113.82,105.398 -50.98,55.059 -113.82,-105.398 -56.7,61.23 135.19,125.189 -57.92,60.08 -203.4,-188.351 285.37,-308.168 209.55,194.051 -54.3,61.93 z m -379.75,-87.543 -51.35,-27.488 -53.92,100.711 52.83,28.277 c 36.54,19.563 56.7,15.102 76.79,-22.418 21.41,-39.98 12.67,-59.262 -24.35,-79.082 m 109.39,129.063 c -42.29,79 -107.5,90.449 -199.32,41.289 l -135.78,-72.68 198.23,-370.27 83.43,44.68 -74,138.211 52.34,28.039 138.68,-103.621 97.26,52.07 -169.13,108.282 c 33.39,33.73 36.05,82.168 8.29,134 m -473.26,-417.571 -22.74,93.008 150.68,36.852 -17.82,72.898 -150.69,-36.848 -19.82,81.059 178.97,43.762 -21.45,80.648 -269.27,-65.851 99.76,-407.977 277.43,67.84 -17.38,80.5 z m -371.81,27.539 -11.41,-43.922 -1.67,0.153 -4.25,44.84 -32.86,286.531 -102.03,9.519 -85.62,-278.269 -11.91,-43.32 -1.67,0.148 -3.09,45.281 -25.95,288.141 -97.58,9.109 59.63,-427.402 112.63,-10.52 80.74,274.25 12.01,44.442 1.68,-0.16 3.64,-45.332 29.06,-285.059 112.63,-10.531 137.74,408.98 -93.11,8.692 z m -983.08,163.2 245.87,-145.321 43.82,69.75 -166.32,98.281 48.72,82.43 133.53,-78.91 38.18,64.59 -133.53,78.922 42.45,71.84 158.61,-93.731 41.01,72.68 -238.65,141.051 z m -34.278,302.378 c -76.891,-75.16 -109.711,-71.207 -154.723,-25.16 l -43.445,44.453 179.809,175.749 43.046,-44.05 c 46.581,-47.652 46.591,-81.3 -24.687,-150.992 M 1057.36,1089.2 947.359,1201.73 647.02,908.16 757.797,794.82 c 86.906,-88.91 173.996,-92.269 282.513,13.809 103.72,101.391 110.22,185.262 17.05,280.571 m -255.251,372.26 -195.449,-73.67 -41.527,-16.86 -0.922,0.86 26.227,36.83 150.058,216.33 -28.433,75.47 -393.024,-148.13 29.633,-78.61 206.461,77.81 42.246,16.52 0.934,-0.84 -26.235,-36.81 -156.859,-233.27 23.312,-61.83 393.008,148.12 z m -224.859,425.08 -140.41,-51.22 -8.192,106.64 146.723,-30.84 45,-8.34 0.125,-1.68 z m 109.828,76.4 -429.867,112.45 7.629,-99.39 83.32,-17.2 11.668,-151.85 -79.715,-29.73 8.055,-104.96 407.531,178.46 z m 4.184,184.9 -264.258,132.83 -40.953,18.91 0.312,1.65 45.078,3.66 293.918,28.57 18.813,102.45 -438.883,-64.58 -19.019,-103.53 387.289,-216.33 17.703,96.37" /></g></g></svg>