<svg width="87" height="48" viewBox="0 0 87 48" fill="none" xmlns="http://www.w3.org/2000/svg">
<path d="M34.8415 28.49L26.9915 13H8.99148L1.14148 28.49C0.0456005 31.0306 -0.270469 33.8396 0.233417 36.5603C0.737303 39.2809 2.03841 41.7904 3.97148 43.77C5.26854 45.1164 6.82537 46.1855 8.5477 46.9125C10.27 47.6396 12.122 48.0096 13.9915 48H21.9915C23.861 48.0096 25.7129 47.6396 27.4353 46.9125C29.1576 46.1855 30.7144 45.1164 32.0115 43.77C33.9446 41.7904 35.2457 39.2809 35.7495 36.5603C36.2534 33.8396 35.9374 31.0306 34.8415 28.49V28.49ZM18.9915 38V39.5C18.9915 39.8978 18.8334 40.2794 18.5521 40.5607C18.2708 40.842 17.8893 41 17.4915 41C17.0937 41 16.7121 40.842 16.4308 40.5607C16.1495 40.2794 15.9915 39.8978 15.9915 39.5V38H15.4915C15.0937 38 14.7121 37.842 14.4308 37.5607C14.1495 37.2794 13.9915 36.8978 13.9915 36.5C13.9915 36.1022 14.1495 35.7206 14.4308 35.4393C14.7121 35.158 15.0937 35 15.4915 35H18.4415C18.8393 35 19.2208 34.842 19.5021 34.5607C19.7834 34.2794 19.9415 33.8978 19.9415 33.5C19.9415 33.1022 19.7834 32.7206 19.5021 32.4393C19.2208 32.158 18.8393 32 18.4415 32H17.5515C16.4856 32.0158 15.4489 31.6521 14.6265 30.9739C13.8041 30.2957 13.2496 29.3472 13.0621 28.2978C12.8746 27.2485 13.0663 26.1667 13.6029 25.2456C14.1395 24.3246 14.9861 23.6243 15.9915 23.27V21.5C15.9915 21.1022 16.1495 20.7206 16.4308 20.4393C16.7121 20.158 17.0937 20 17.4915 20C17.8893 20 18.2708 20.158 18.5521 20.4393C18.8334 20.7206 18.9915 21.1022 18.9915 21.5V23H20.4915C20.8893 23 21.2708 23.158 21.5521 23.4393C21.8334 23.7206 21.9915 24.1022 21.9915 24.5C21.9915 24.8978 21.8334 25.2794 21.5521 25.5607C21.2708 25.842 20.8893 26 20.4915 26H17.5515C17.3499 25.9926 17.1489 26.026 16.9605 26.0981C16.7721 26.1701 16.6001 26.2794 16.4549 26.4194C16.3097 26.5595 16.1942 26.7273 16.1153 26.913C16.0364 27.0986 15.9957 27.2983 15.9957 27.5C15.9957 27.7017 16.0364 27.9014 16.1153 28.087C16.1942 28.2727 16.3097 28.4405 16.4549 28.5806C16.6001 28.7206 16.7721 28.8299 16.9605 28.9019C17.1489 28.974 17.3499 29.0074 17.5515 29H18.4415C19.5966 28.992 20.7109 29.427 21.5551 30.2157C22.3992 31.0043 22.9089 32.0864 22.9794 33.2395C23.0499 34.3925 22.6757 35.5287 21.9339 36.4142C21.192 37.2998 20.139 37.8673 18.9915 38V38ZM8.98848 11H16.9885L15.3395 3.566C15.2408 3.12187 14.9936 2.72468 14.6387 2.43998C14.2838 2.15528 13.8424 2.00008 13.3875 2H7.98748C7.83783 2.00018 7.69012 2.03394 7.55525 2.0988C7.42038 2.16366 7.30179 2.25796 7.20822 2.37476C7.11465 2.49155 7.04849 2.62786 7.01461 2.77363C6.98073 2.9194 6.98001 3.07091 7.01248 3.217L8.98848 11ZM22.9915 11H26.9885L28.9725 1.18C28.998 1.03542 28.9916 0.88699 28.9537 0.745157C28.9157 0.603325 28.8471 0.471532 28.7528 0.359051C28.6584 0.24657 28.5405 0.156133 28.4074 0.0941005C28.2744 0.0320684 28.1293 -5.15982e-05 27.9825 6.22175e-08H24.9925C24.4638 0.00671524 23.9585 0.219461 23.5843 0.592976C23.21 0.966492 22.9963 1.4713 22.9885 2C22.9838 1.47273 22.773 0.968229 22.4011 0.594446C22.0292 0.220664 21.5257 0.00729572 20.9985 6.22175e-08H17.9985C17.8517 -5.15982e-05 17.7066 0.0320684 17.5735 0.0941005C17.4404 0.156133 17.3226 0.24657 17.2282 0.359051C17.1338 0.471532 17.0653 0.603325 17.0273 0.745157C16.9893 0.88699 16.9829 1.03542 17.0085 1.18L18.9885 11H22.9915Z" fill="#011E41"/>
<path d="M59.4286 5.71429C60.944 5.71368 62.3971 5.11145 63.4686 4.03994C64.5401 2.96844 65.1423 1.51534 65.1429 0L53.7144 0C53.715 1.51534 54.3172 2.96844 55.3887 4.03994C56.4602 5.11145 57.9133 5.71368 59.4286 5.71429V5.71429Z" fill="#011E41"/>
<path d="M86.5143 11.7829L75.44 1.14286L74.5829 0.32C74.3647 0.118439 74.0799 0.00449087 73.7829 0L67.4286 0C67.4262 2.12099 66.5825 4.15441 65.0828 5.65418C63.583 7.15395 61.5496 7.99758 59.4286 8C57.3076 7.99758 55.2742 7.15395 53.7744 5.65418C52.2746 4.15441 51.431 2.12099 51.4286 0L45.0743 0C44.7773 0.00449087 44.4925 0.118439 44.2743 0.32L43.4172 1.14286L32.3429 11.7829C32.2343 11.8895 32.1481 12.0166 32.0892 12.1569C32.0303 12.2972 32 12.4478 32 12.6C32 12.7522 32.0303 12.9028 32.0892 13.0431C32.1481 13.1834 32.2343 13.3105 32.3429 13.4171L39.3257 20.24C39.5396 20.4489 39.8268 20.5658 40.1257 20.5658C40.4247 20.5658 40.7118 20.4489 40.9257 20.24L45.7143 16V46.8571C45.7152 47.16 45.8359 47.4501 46.05 47.6643C46.2642 47.8784 46.5543 47.9991 46.8572 48H72C72.3028 47.9991 72.593 47.8784 72.8071 47.6643C73.0213 47.4501 73.142 47.16 73.1429 46.8571V16L77.9314 20.24C78.1454 20.4489 78.4325 20.5658 78.7314 20.5658C79.0304 20.5658 79.3175 20.4489 79.5314 20.24L86.5143 13.4171C86.6229 13.3105 86.7091 13.1834 86.768 13.0431C86.8269 12.9028 86.8572 12.7522 86.8572 12.6C86.8572 12.4478 86.8269 12.2972 86.768 12.1569C86.7091 12.0166 86.6229 11.8895 86.5143 11.7829V11.7829Z" fill="#011E41"/>
</svg>
