<svg width="48" height="48" viewBox="0 0 48 48" fill="none" xmlns="http://www.w3.org/2000/svg">
<path d="M34.5001 13.2143C35.2459 13.2139 35.9611 12.8752 36.4885 12.2725C37.0159 11.6697 37.3123 10.8524 37.3126 10H31.6876C31.6879 10.8524 31.9843 11.6697 32.5117 12.2725C33.0391 12.8752 33.7543 13.2139 34.5001 13.2143Z" fill="#011E41"/>
<path d="M47.8312 16.6279L42.3806 10.6429L41.9587 10.18C41.8514 10.0666 41.7112 10.0025 41.565 10H38.4375C38.4363 11.1931 38.0211 12.3369 37.2829 13.1805C36.5447 14.0241 35.5439 14.4986 34.5 14.5C33.4561 14.4986 32.4552 14.0241 31.7171 13.1805C30.9789 12.3369 30.5637 11.1931 30.5625 10L27.435 10C27.2888 10.0025 27.1486 10.0666 27.0413 10.18L26.6194 10.6429L21.1688 16.6279C21.1153 16.6878 21.0729 16.7593 21.0439 16.8383C21.0149 16.9172 21 17.0019 21 17.0875C21 17.1731 21.0149 17.2578 21.0439 17.3367C21.0729 17.4157 21.1153 17.4872 21.1688 17.5471L24.6056 21.385C24.7109 21.5025 24.8522 21.5683 24.9994 21.5683C25.1465 21.5683 25.2878 21.5025 25.3931 21.385L27.75 19V36.3571C27.7505 36.5275 27.8099 36.6907 27.9152 36.8111C28.0206 36.9316 28.1635 36.9995 28.3125 37H40.6875C40.8365 36.9995 40.9794 36.9316 41.0848 36.8111C41.1901 36.6907 41.2495 36.5275 41.25 36.3571V19L43.6069 21.385C43.7122 21.5025 43.8535 21.5683 44.0006 21.5683C44.1478 21.5683 44.2891 21.5025 44.3944 21.385L47.8312 17.5471C47.8847 17.4872 47.9271 17.4157 47.9561 17.3367C47.9851 17.2578 48 17.1731 48 17.0875C48 17.0019 47.9851 16.9172 47.9561 16.8383C47.9271 16.7593 47.8847 16.6878 47.8312 16.6279Z" fill="#011E41"/>
<path d="M20.3338 26.0256L15.7525 17.3125H5.24751L0.66618 26.0256C0.0266129 27.4547 -0.157848 29.0348 0.136224 30.5651C0.430297 32.0955 1.18963 33.5071 2.31779 34.6206C3.07477 35.3779 3.98335 35.9793 4.98852 36.3883C5.99368 36.7973 7.07451 37.0054 8.16556 37H12.8344C13.9255 37.0054 15.0063 36.7973 16.0115 36.3883C17.0166 35.9793 17.9252 35.3779 18.6822 34.6206C19.8104 33.5071 20.5697 32.0955 20.8638 30.5651C21.1579 29.0348 20.9734 27.4547 20.3338 26.0256ZM11.0836 31.375V32.2187C11.0836 32.4425 10.9914 32.6571 10.8272 32.8154C10.663 32.9736 10.4404 33.0625 10.2082 33.0625C9.97602 33.0625 9.75336 32.9736 9.58918 32.8154C9.42501 32.6571 9.33278 32.4425 9.33278 32.2187V31.375H9.04098C8.8088 31.375 8.58614 31.2861 8.42196 31.1279C8.25779 30.9696 8.16556 30.755 8.16556 30.5312C8.16556 30.3075 8.25779 30.0929 8.42196 29.9346C8.58614 29.7764 8.8088 29.6875 9.04098 29.6875H10.7626C10.9948 29.6875 11.2175 29.5986 11.3816 29.4404C11.5458 29.2821 11.638 29.0675 11.638 28.8437C11.638 28.62 11.5458 28.4054 11.3816 28.2471C11.2175 28.0889 10.9948 28 10.7626 28H10.2432C9.62117 28.0089 9.01612 27.8043 8.53616 27.4228C8.0562 27.0413 7.7326 26.5078 7.62317 25.9175C7.51373 25.3273 7.6256 24.7187 7.93878 24.2007C8.25196 23.6826 8.74605 23.2887 9.33278 23.0894V22.0937C9.33278 21.87 9.42501 21.6554 9.58918 21.4971C9.75336 21.3389 9.97602 21.25 10.2082 21.25C10.4404 21.25 10.663 21.3389 10.8272 21.4971C10.9914 21.6554 11.0836 21.87 11.0836 22.0937V22.9375H11.959C12.1912 22.9375 12.4139 23.0264 12.578 23.1846C12.7422 23.3429 12.8344 23.5575 12.8344 23.7812C12.8344 24.005 12.7422 24.2196 12.578 24.3779C12.4139 24.5361 12.1912 24.625 11.959 24.625H10.2432C10.1256 24.6209 10.0083 24.6396 9.89829 24.6801C9.78833 24.7207 9.68798 24.7822 9.60323 24.8609C9.51847 24.9397 9.45106 25.0341 9.40502 25.1385C9.35897 25.243 9.33524 25.3553 9.33524 25.4687C9.33524 25.5822 9.35897 25.6945 9.40502 25.799C9.45106 25.9034 9.51847 25.9978 9.60323 26.0766C9.68798 26.1553 9.78833 26.2168 9.89829 26.2573C10.0083 26.2979 10.1256 26.3166 10.2432 26.3125H10.7626C11.4368 26.308 12.0871 26.5527 12.5797 26.9963C13.0724 27.4399 13.3699 28.0486 13.411 28.6972C13.4521 29.3458 13.2337 29.9849 12.8008 30.483C12.3679 30.9811 11.7533 31.3003 11.0836 31.375ZM5.24576 16.1875H9.91464L8.95227 12.0059C8.89465 11.7561 8.75038 11.5326 8.54327 11.3725C8.33616 11.2123 8.07858 11.125 7.81306 11.125H4.66157C4.57423 11.1251 4.48803 11.1441 4.40932 11.1806C4.33061 11.2171 4.2614 11.2701 4.20679 11.3358C4.15218 11.4015 4.11357 11.4782 4.09379 11.5602C4.07402 11.6422 4.0736 11.7274 4.09255 11.8096L5.24576 16.1875ZM13.418 16.1875H15.7507L16.9086 10.6637C16.9235 10.5824 16.9198 10.4989 16.8976 10.4192C16.8755 10.3394 16.8355 10.2652 16.7804 10.202C16.7253 10.1387 16.6565 10.0878 16.5789 10.0529C16.5012 10.018 16.4165 9.99997 16.3308 10H14.5858C14.2773 10.0038 13.9824 10.1234 13.764 10.3335C13.5456 10.5437 13.4208 10.8276 13.4163 11.125C13.4136 10.8284 13.2905 10.5446 13.0735 10.3344C12.8564 10.1241 12.5626 10.0041 12.2549 10H10.5041C10.4184 9.99997 10.3337 10.018 10.2561 10.0529C10.1784 10.0878 10.1096 10.1387 10.0545 10.202C9.99947 10.2652 9.95945 10.3394 9.93729 10.4192C9.91514 10.4989 9.91139 10.5824 9.92631 10.6637L11.0819 16.1875H13.418Z" fill="#011E41"/>
</svg>
