<?xml version="1.0" encoding="utf-8"?>
<!-- Generator: Adobe Illustrator 25.2.1, SVG Export Plug-In . SVG Version: 6.00 Build 0)  -->
<svg version="1.1" id="Layer_1" xmlns="http://www.w3.org/2000/svg" xmlns:xlink="http://www.w3.org/1999/xlink" x="0px" y="0px"
	 viewBox="0 0 48 48" style="enable-background:new 0 0 48 48;" xml:space="preserve">
<style type="text/css">
	.st0{fill:#FDFDFD;}
	.st1{fill:#00AFE0;}
	.st2{fill:#FEFEFE;}
	.st3{fill:#78D4EE;}
	.st4{fill:#3FC3E6;}
	.st5{fill:#575656;}
</style>
<g>
	<g>
		<path class="st0" d="M41.41,25.52c0,0.78,0,1.57,0,2.35c0,0.06-0.01,0.08-0.08,0.08c-5.73,0-11.46,0-17.19,0
			c-5.82,0-11.65,0-17.47,0c-0.07,0-0.08-0.02-0.08-0.08c0-1.26,0-2.53,0-3.79c0.05,0.01,0.04,0.05,0.04,0.08
			c0.05,0.38,0.13,0.76,0.28,1.11c0.24,0.57,0.61,1.04,1.11,1.41c0.41,0.3,0.84,0.57,1.28,0.83c0.17,0.1,0.34,0.21,0.51,0.32
			c0.02,0.01,0.04,0.04,0.07,0.03c0.03-0.01,0.02-0.05,0.02-0.07c0.02-0.56,0.04-1.12,0.01-1.69c-0.03-0.68-0.14-1.35-0.45-1.98
			c-0.14-0.27-0.32-0.51-0.53-0.74c-0.35-0.39-0.79-0.59-1.3-0.66c-0.25-0.03-0.49-0.01-0.7,0.17c-0.14,0.12-0.21,0.29-0.25,0.47
			c-0.02,0.09-0.03,0.18-0.05,0.27c0,0.02,0,0.06-0.04,0.06c0-1.19,0-2.37,0-3.56c0-0.06,0.01-0.07,0.07-0.07c1.14,0,2.27,0,3.41,0
			c-0.01,0.05-0.06,0.04-0.09,0.04c-0.26,0.04-0.51,0.11-0.75,0.22c-0.28,0.14-0.53,0.32-0.73,0.57c-0.34,0.43-0.36,0.98-0.03,1.41
			c0.4,0.53,0.95,0.82,1.61,0.88c0.62,0.06,1.18-0.1,1.68-0.46c0.26-0.19,0.46-0.43,0.55-0.74c0.1-0.32,0.06-0.63-0.12-0.9
			c-0.36-0.55-0.88-0.85-1.52-0.97c-0.05-0.01-0.12,0.01-0.15-0.05c10.27,0,20.53,0,30.8,0c0.06,0,0.08,0.01,0.08,0.08
			c0,1.04,0,2.07,0,3.11c-0.04,0.03-0.05,0.1-0.12,0.06c0.04-0.11,0.04-0.12-0.06-0.2c-0.41-0.35-0.88-0.53-1.41-0.53
			c-0.34,0-0.66,0.05-0.96,0.22c-0.46,0.26-0.63,0.88-0.35,1.31c0.12,0.19,0.3,0.31,0.5,0.41c0.3,0.15,0.62,0.24,0.93,0.34
			c0.18,0.06,0.37,0.11,0.54,0.2c0.03,0.02,0.07,0.03,0.1,0.06c0.19,0.13,0.21,0.34,0.05,0.51c-0.15,0.16-0.34,0.19-0.54,0.21
			c-0.45,0.04-0.83-0.11-1.18-0.39c-0.05-0.04-0.09-0.04-0.14,0c-0.1,0.09-0.21,0.19-0.31,0.27c-0.06,0.05-0.04,0.08,0,0.13
			c0.23,0.23,0.51,0.39,0.82,0.49c0.46,0.15,0.92,0.15,1.37-0.01c0.38-0.13,0.63-0.38,0.7-0.79c0.02-0.09,0-0.17,0.01-0.26
			c0-0.03-0.02-0.08,0.04-0.09c0.02,0.08,0,0.16,0.01,0.24C41.4,25.45,41.39,25.49,41.41,25.52z"/>
		<path class="st1" d="M6.59,23.69c0.02-0.11,0.04-0.22,0.07-0.33c0.02-0.07,0.04-0.15,0.07-0.22c0.12-0.3,0.36-0.45,0.67-0.45
			c0.58-0.01,1.08,0.2,1.5,0.61c0.59,0.59,0.87,1.32,0.98,2.12c0.09,0.64,0.08,1.28,0.06,1.93c-0.01,0.16-0.01,0.32-0.01,0.48
			c0,0.02,0.01,0.05-0.02,0.07c-0.06-0.03-0.11-0.07-0.17-0.11c-0.44-0.28-0.89-0.54-1.32-0.83c-0.28-0.19-0.55-0.38-0.8-0.62
			c-0.45-0.43-0.72-0.97-0.88-1.56c-0.06-0.22-0.1-0.45-0.12-0.67c0-0.02,0-0.03-0.02-0.04c0-0.02,0-0.03,0-0.05
			c0.01-0.1,0.01-0.19,0-0.29C6.59,23.72,6.59,23.7,6.59,23.69z"/>
		<path class="st1" d="M10.53,20.06c0.08,0.04,0.17,0.03,0.25,0.05c0.56,0.12,1.03,0.4,1.37,0.87c0.33,0.44,0.32,0.96-0.01,1.4
			c-0.31,0.42-0.74,0.66-1.23,0.77c-0.89,0.21-1.68,0-2.32-0.67c-0.22-0.23-0.36-0.5-0.37-0.82c-0.01-0.34,0.13-0.63,0.35-0.87
			c0.39-0.42,0.88-0.63,1.44-0.71c0.02,0,0.05,0.01,0.06-0.02c0.03,0,0.07,0,0.1,0c0.09,0.01,0.18,0.01,0.27,0
			C10.48,20.06,10.5,20.06,10.53,20.06z"/>
		<path class="st2" d="M41.41,25.52c-0.04-0.08-0.01-0.16-0.02-0.25c0-0.03,0.01-0.07-0.02-0.09c-0.03,0-0.03-0.02-0.04-0.04
			c-0.09-0.32-0.32-0.5-0.6-0.64c-0.25-0.13-0.51-0.21-0.78-0.3c-0.2-0.06-0.41-0.12-0.6-0.2c-0.06-0.03-0.12-0.06-0.18-0.1
			c-0.22-0.15-0.22-0.41-0.01-0.57c0.15-0.11,0.32-0.15,0.49-0.16c0.45-0.03,0.83,0.12,1.17,0.39c0.05,0.04,0.08,0.04,0.13,0
			c0.08-0.07,0.16-0.14,0.23-0.21c0.03-0.02,0.05-0.06,0.09-0.04c0.06,0.01,0.07-0.07,0.12-0.07C41.41,24,41.41,24.76,41.41,25.52z"
			/>
		<path class="st3" d="M6.59,23.74c0.03,0.1,0.03,0.19,0,0.29C6.59,23.93,6.59,23.83,6.59,23.74z"/>
		<path class="st4" d="M10.45,20.06c-0.09,0.03-0.18,0.03-0.27,0C10.27,20.06,10.36,20.06,10.45,20.06z"/>
		<path class="st1" d="M10.7,27.92c-0.01-0.25-0.01-0.48-0.02-0.71c-0.01-0.38-0.02-0.76,0-1.14c0.04-0.64,0.13-1.26,0.4-1.84
			c0.22-0.47,0.52-0.88,0.95-1.18c0.33-0.23,0.7-0.35,1.11-0.36c0.43,0,0.7,0.21,0.81,0.63c0.11,0.42,0.08,0.83-0.01,1.24
			c-0.11,0.57-0.35,1.09-0.7,1.54c-0.23,0.3-0.54,0.52-0.84,0.74c-0.44,0.31-0.91,0.58-1.36,0.86
			C10.93,27.77,10.82,27.84,10.7,27.92z"/>
		<path class="st5" d="M17.33,23.85c0-0.82,0-1.63,0-2.45c0-0.08,0.02-0.09,0.09-0.09c0.42,0,0.83-0.01,1.25,0
			c0.69,0.02,1.32,0.22,1.83,0.7c0.39,0.37,0.62,0.82,0.71,1.35c0.11,0.67,0.02,1.31-0.35,1.9c-0.38,0.6-0.95,0.93-1.64,1.07
			c-0.23,0.05-0.45,0.06-0.68,0.06c-0.36,0-0.72,0-1.09,0c-0.14,0-0.12,0.01-0.12-0.12C17.33,25.47,17.33,24.66,17.33,23.85z"/>
		<path class="st5" d="M36.84,23.02c0-0.12,0-0.23,0-0.33c0-0.06,0.01-0.08,0.08-0.08c0.19,0,0.38,0.01,0.57,0
			c0.08,0,0.09,0.03,0.09,0.09c0,0.85,0,1.7,0,2.55c0,0.35,0,0.71,0,1.06c0,0.06-0.02,0.08-0.08,0.08c-0.19,0-0.38,0-0.57,0
			c-0.06,0-0.08-0.02-0.08-0.08c0-0.1,0-0.2,0-0.33c-0.47,0.37-0.99,0.53-1.57,0.44c-0.58-0.09-1.04-0.38-1.36-0.88
			c-0.49-0.78-0.39-1.74,0.25-2.4c0.35-0.37,0.79-0.57,1.3-0.59C35.98,22.52,36.43,22.68,36.84,23.02z"/>
		<path class="st5" d="M25.64,24.5c0.01,1.05-0.87,1.94-1.9,1.96c-1.09,0.02-1.97-0.83-2.01-1.89c-0.04-1.13,0.87-2.01,1.93-2.02
			C24.76,22.54,25.64,23.41,25.64,24.5z"/>
		<path class="st5" d="M41.29,23.31c-0.11,0.1-0.22,0.19-0.33,0.29c-0.05,0.04-0.07,0.04-0.12,0c-0.34-0.28-0.72-0.44-1.17-0.41
			c-0.15,0.01-0.3,0.04-0.43,0.12c-0.07,0.04-0.13,0.1-0.17,0.17c-0.07,0.15-0.05,0.27,0.09,0.37c0.15,0.11,0.32,0.16,0.49,0.22
			c0.31,0.1,0.63,0.19,0.93,0.32c0.1,0.04,0.19,0.09,0.28,0.14c0.26,0.15,0.45,0.35,0.52,0.65c0.01,0.18,0.01,0.36-0.05,0.54
			c-0.11,0.31-0.34,0.51-0.64,0.61c-0.85,0.27-1.61,0.12-2.27-0.5c-0.05-0.04-0.05-0.07,0-0.11c0.13-0.11,0.25-0.22,0.38-0.33
			c0.03-0.03,0.05-0.03,0.09,0c0.24,0.21,0.51,0.35,0.83,0.41c0.23,0.04,0.46,0.03,0.69-0.05c0.09-0.03,0.17-0.08,0.23-0.16
			c0.13-0.16,0.1-0.34-0.07-0.45c-0.16-0.11-0.34-0.16-0.51-0.22c-0.35-0.11-0.71-0.21-1.05-0.38c-0.12-0.06-0.23-0.13-0.33-0.22
			c-0.5-0.41-0.35-1.15,0.06-1.46c0.21-0.16,0.45-0.25,0.71-0.28c0.65-0.09,1.25,0.06,1.76,0.48c0.03,0.02,0.05,0.04,0.08,0.07
			C41.38,23.21,41.38,23.21,41.29,23.31z"/>
		<path class="st5" d="M31.43,22.55c0.55,0.02,1.1,0.32,1.49,0.9c0.03,0.05,0.03,0.07-0.03,0.1c-0.17,0.08-0.35,0.16-0.52,0.25
			c-0.05,0.03-0.08,0.01-0.11-0.03c-0.22-0.29-0.51-0.48-0.88-0.52c-0.64-0.07-1.22,0.38-1.32,1.01c-0.07,0.47,0.04,0.89,0.4,1.22
			c0.44,0.4,1.1,0.4,1.56,0.01c0.09-0.08,0.17-0.16,0.24-0.26c0.02-0.03,0.04-0.04,0.08-0.02c0.18,0.09,0.37,0.18,0.55,0.26
			c0.05,0.02,0.04,0.04,0.02,0.08c-0.34,0.51-0.8,0.82-1.42,0.89c-1.02,0.12-1.94-0.55-2.15-1.55
			C29.12,23.68,30.05,22.55,31.43,22.55z"/>
		<path class="st5" d="M27.16,23.07c0.17-0.17,0.33-0.3,0.53-0.39c0.38-0.17,0.77-0.17,1.15-0.01c0.06,0.02,0.07,0.05,0.05,0.11
			c-0.06,0.18-0.11,0.37-0.17,0.56c-0.01,0.03-0.01,0.07-0.04,0.1c-0.1-0.06-0.19-0.12-0.3-0.17c-0.45-0.17-0.97,0.09-1.15,0.56
			c-0.05,0.13-0.07,0.27-0.07,0.41c0,0.69,0,1.37,0,2.06c0,0.08-0.02,0.1-0.1,0.1c-0.18-0.01-0.36-0.01-0.53,0
			c-0.07,0-0.1-0.01-0.1-0.09c0-1.2,0-2.41,0-3.61c0-0.07,0.02-0.09,0.09-0.09c0.19,0,0.38,0,0.57,0c0.05,0,0.07,0.01,0.07,0.07
			C27.16,22.8,27.16,22.92,27.16,23.07z"/>
		<path class="st2" d="M18.06,23.86c0-0.59,0-1.19,0-1.78c0-0.06,0.01-0.09,0.08-0.09c0.31,0.01,0.62-0.01,0.93,0.05
			c0.76,0.16,1.31,0.78,1.39,1.55c0.05,0.45-0.02,0.89-0.26,1.28c-0.29,0.47-0.73,0.72-1.27,0.81c-0.27,0.04-0.54,0.02-0.81,0.02
			c-0.07,0-0.05-0.04-0.05-0.08c0-0.34,0-0.67,0-1.01C18.06,24.36,18.06,24.11,18.06,23.86z"/>
		<path class="st2" d="M34.35,24.5c0.02-0.5,0.21-0.9,0.67-1.13c0.43-0.21,0.86-0.18,1.27,0.09c0.29,0.19,0.45,0.48,0.5,0.82
			c0.07,0.5-0.06,0.94-0.47,1.25c-0.39,0.3-0.83,0.33-1.27,0.12c-0.46-0.22-0.68-0.61-0.7-1.12C34.35,24.52,34.35,24.51,34.35,24.5z
			"/>
		<path class="st2" d="M22.48,24.5c0-0.9,0.82-1.5,1.66-1.19c0.45,0.16,0.71,0.51,0.78,0.98c0.07,0.48-0.05,0.9-0.44,1.22
			c-0.37,0.3-0.79,0.35-1.23,0.19c-0.43-0.16-0.67-0.49-0.75-0.94c-0.01-0.04-0.01-0.07-0.02-0.11
			C22.48,24.59,22.48,24.54,22.48,24.5z"/>
	</g>
</g>
</svg>
