<svg width="48" height="48" viewBox="0 0 48 48" fill="none" xmlns="http://www.w3.org/2000/svg">
<g clip-path="url(#clip0_74_1556)">
<path d="M48.0006 14.0002C48.0012 14.5257 47.898 15.0461 47.6969 15.5316C47.4957 16.0171 47.2007 16.4581 46.8286 16.8292L26.8286 36.8292C26.4572 37.2006 26.0162 37.4953 25.5309 37.6963C25.0456 37.8973 24.5254 38.0008 24.0001 38.0008C23.4748 38.0008 22.9546 37.8973 22.4693 37.6963C21.984 37.4953 21.543 37.2006 21.1716 36.8292L1.1716 16.8292C0.421438 16.079 -7.90427e-09 15.0616 0 14.0007C7.90427e-09 12.9398 0.421438 11.9223 1.1716 11.1722C1.92177 10.422 2.93921 10.0006 4.0001 10.0006C5.061 10.0006 6.07844 10.422 6.8286 11.1722L24.0006 28.3432L41.1706 11.1722C41.7299 10.6122 42.4427 10.2308 43.2189 10.0762C43.995 9.92149 44.7996 10.0005 45.5308 10.3033C46.262 10.6061 46.887 11.1189 47.3266 11.777C47.7663 12.4351 48.0008 13.2088 48.0006 14.0002Z" fill="#011E41"/>
</g>
<defs>
<clipPath id="clip0_74_1556">
<rect width="48" height="48" fill="white"/>
</clipPath>
</defs>
</svg>
