<svg width="48" height="48" viewBox="0 0 48 48" fill="none" xmlns="http://www.w3.org/2000/svg">
<path d="M7.88048 33.1193L21.8778 47.1167C22.1563 47.3952 22.4869 47.6162 22.8507 47.7669C23.2146 47.9177 23.6046 47.9953 23.9984 47.9953C24.3923 47.9953 24.7823 47.9177 25.1461 47.7669C25.51 47.6162 25.8406 47.3952 26.119 47.1167L40.1164 33.1193C40.4028 32.8427 40.6313 32.5117 40.7885 32.1457C40.9457 31.7798 41.0285 31.3862 41.0319 30.988C41.0354 30.5897 40.9595 30.1947 40.8087 29.8261C40.6579 29.4575 40.4352 29.1226 40.1535 28.841C39.8719 28.5594 39.537 28.3366 39.1684 28.1858C38.7998 28.035 38.4048 27.9591 38.0066 27.9626C37.6083 27.966 37.2147 28.0488 36.8488 28.206C36.4828 28.3632 36.1519 28.5917 35.8752 28.8782L26.9978 37.7555V12.0024C26.9978 11.2069 26.6818 10.4439 26.1193 9.88144C25.5568 9.31894 24.7939 9.00293 23.9984 9.00293C23.2029 9.00293 22.44 9.31894 21.8775 9.88144C21.315 10.4439 20.999 11.2069 20.999 12.0024V37.7555L12.1217 28.8772C11.844 28.5949 11.5131 28.3705 11.1482 28.2168C10.7833 28.0631 10.3916 27.9831 9.99566 27.9816C9.59972 27.98 9.20739 28.0569 8.84129 28.2077C8.47519 28.3585 8.14258 28.5803 7.86264 28.8603C7.58269 29.1403 7.36096 29.473 7.21023 29.8391C7.05949 30.2053 6.98274 30.5976 6.9844 30.9935C6.98606 31.3895 7.0661 31.7812 7.21989 32.146C7.37369 32.5109 7.5982 32.8417 7.88048 33.1193V33.1193Z" fill="#011E41"/>
<path d="M45.7949 0.00488281H2.20414C1.5802 0.0492839 0.999047 0.338288 0.587116 0.809012C0.175185 1.27974 -0.0341853 1.89409 0.00455965 2.51841V11.4887C-0.0341767 12.1132 0.17533 12.7277 0.587472 13.1984C0.999615 13.6692 1.58103 13.9581 2.20514 14.0022H18.0011V12.0026C18.0011 10.4116 18.6332 8.88577 19.7582 7.76077C20.8832 6.63576 22.409 6.00374 24 6.00374C25.591 6.00374 27.1168 6.63576 28.2418 7.76077C29.3668 8.88577 29.9989 10.4116 29.9989 12.0026V14.0022H45.7949C46.419 13.9581 47.0004 13.6692 47.4125 13.1984C47.8247 12.7277 48.0342 12.1132 47.9954 11.4887V2.51841C48.0342 1.89393 47.8247 1.27943 47.4125 0.808681C47.0004 0.337928 46.419 0.0490328 45.7949 0.00488281V0.00488281ZM35.9977 9.00317C35.6022 9.00317 35.2156 8.8859 34.8868 8.66618C34.558 8.44646 34.3017 8.13416 34.1503 7.76878C33.999 7.40339 33.9594 7.00134 34.0365 6.61345C34.1137 6.22556 34.3041 5.86926 34.5838 5.58961C34.8634 5.30996 35.2197 5.11951 35.6076 5.04236C35.9955 4.9652 36.3976 5.0048 36.7629 5.15615C37.1283 5.30749 37.4406 5.56379 37.6604 5.89262C37.8801 6.22146 37.9973 6.60807 37.9973 7.00355C37.9973 7.53389 37.7867 8.0425 37.4117 8.4175C37.0367 8.7925 36.5281 9.00317 35.9977 9.00317ZM42.9964 9.00317C42.6009 9.00317 42.2143 8.8859 41.8855 8.66618C41.5566 8.44646 41.3003 8.13416 41.149 7.76878C40.9976 7.40339 40.958 7.00134 41.0352 6.61345C41.1124 6.22556 41.3028 5.86926 41.5824 5.58961C41.8621 5.30996 42.2184 5.11951 42.6063 5.04236C42.9942 4.9652 43.3962 5.0048 43.7616 5.15615C44.127 5.30749 44.4393 5.56379 44.659 5.89262C44.8787 6.22146 44.996 6.60807 44.996 7.00355C44.996 7.53389 44.7853 8.0425 44.4103 8.4175C44.0353 8.7925 43.5267 9.00317 42.9964 9.00317Z" fill="#011E41"/>
</svg>
