<svg width="48" height="48" viewBox="0 0 48 48" fill="none" xmlns="http://www.w3.org/2000/svg">
<path d="M45.5 43H35V19.954C35.022 18.8963 35.4582 17.8895 36.2149 17.15C36.9715 16.4106 37.9881 15.9977 39.046 16C40.0943 16.0011 41.0994 16.418 41.8407 17.1593C42.582 17.9006 42.9989 18.9057 43 19.954C43 19.97 43.004 19.984 43.005 20H43V20.688C42.4028 20.9701 41.8979 21.4158 41.5438 21.9734C41.1898 22.531 41.0012 23.1775 41 23.838C41 25.588 43.867 29.273 44.412 29.957C44.4225 29.9705 44.4359 29.9814 44.4512 29.9889C44.4666 29.9965 44.4834 30.0004 44.5005 30.0004C44.5176 30.0004 44.5344 29.9965 44.5498 29.9889C44.5651 29.9814 44.5785 29.9705 44.589 29.957C45.133 29.273 48 25.588 48 23.839C47.9988 23.1785 47.8102 22.532 47.4562 21.9744C47.1021 21.4168 46.5972 20.9711 46 20.689V20H45.995C45.995 19.984 46 19.97 46 19.954C45.9979 18.1103 45.2645 16.3428 43.9609 15.0391C42.6572 13.7354 40.8897 13.0021 39.046 13C37.1926 12.9983 35.4134 13.7275 34.0943 15.0294C32.7752 16.3312 32.0226 18.1008 32 19.954V25H29.5C29.3329 24.9997 29.1659 25.0097 29 25.03C27.7242 25.1546 26.5311 25.7182 25.6247 26.6247C24.7182 27.5311 24.1546 28.7242 24.03 30C24.0097 30.1659 23.9997 30.3329 24 30.5V31.688C23.4028 31.9701 22.8979 32.4158 22.5438 32.9734C22.1898 33.531 22.0012 34.1775 22 34.838C22 36.588 24.867 40.273 25.412 40.957C25.4225 40.9705 25.4359 40.9814 25.4512 40.9889C25.4666 40.9965 25.4834 41.0004 25.5005 41.0004C25.5176 41.0004 25.5344 40.9965 25.5498 40.9889C25.5651 40.9814 25.5785 40.9705 25.589 40.957C26.133 40.273 29 36.588 29 34.839C28.9988 34.1785 28.8102 33.532 28.4562 32.9744C28.1021 32.4168 27.5972 31.9711 27 31.689V30.5C27 29.837 27.2634 29.2011 27.7322 28.7322C28.2011 28.2634 28.837 28 29.5 28H32V43H2.5C1.83696 43 1.20107 43.2634 0.732233 43.7322C0.263392 44.2011 0 44.837 0 45.5C0 46.163 0.263392 46.7989 0.732233 47.2678C1.20107 47.7366 1.83696 48 2.5 48H45.5C46.163 48 46.7989 47.7366 47.2678 47.2678C47.7366 46.7989 48 46.163 48 45.5C48 44.837 47.7366 44.2011 47.2678 43.7322C46.7989 43.2634 46.163 43 45.5 43V43ZM12.5 6C12.8978 6 13.2794 5.84196 13.5607 5.56066C13.842 5.27936 14 4.89782 14 4.5V1.5C14 1.10218 13.842 0.720644 13.5607 0.43934C13.2794 0.158035 12.8978 0 12.5 0C12.1022 0 11.7206 0.158035 11.4393 0.43934C11.158 0.720644 11 1.10218 11 1.5V4.5C11 4.89782 11.158 5.27936 11.4393 5.56066C11.7206 5.84196 12.1022 6 12.5 6V6ZM11 20.5V23.5C11 23.8978 11.158 24.2794 11.4393 24.5607C11.7206 24.842 12.1022 25 12.5 25C12.8978 25 13.2794 24.842 13.5607 24.5607C13.842 24.2794 14 23.8978 14 23.5V20.5C14 20.1022 13.842 19.7206 13.5607 19.4393C13.2794 19.158 12.8978 19 12.5 19C12.1022 19 11.7206 19.158 11.4393 19.4393C11.158 19.7206 11 20.1022 11 20.5V20.5ZM19.218 7.904L21.338 5.782C21.4854 5.64468 21.6036 5.47908 21.6856 5.29508C21.7675 5.11108 21.8116 4.91245 21.8152 4.71105C21.8187 4.50964 21.7817 4.30958 21.7062 4.1228C21.6308 3.93603 21.5185 3.76636 21.3761 3.62392C21.2336 3.48149 21.064 3.3692 20.8772 3.29375C20.6904 3.21831 20.4904 3.18126 20.289 3.18482C20.0875 3.18837 19.8889 3.23245 19.7049 3.31444C19.5209 3.39642 19.3553 3.51463 19.218 3.662L17.096 5.782C16.8146 6.06339 16.6565 6.44505 16.6565 6.843C16.6565 7.24095 16.8146 7.62261 17.096 7.904C17.3774 8.18539 17.759 8.34348 18.157 8.34348C18.555 8.34348 18.9366 8.18539 19.218 7.904V7.904ZM5.782 17.096L3.662 19.218C3.39704 19.5024 3.25279 19.8784 3.25965 20.267C3.26651 20.6556 3.42393 21.0264 3.69876 21.3012C3.97358 21.5761 4.34435 21.7335 4.73295 21.7404C5.12156 21.7472 5.49765 21.603 5.782 21.338L7.904 19.218C8.18539 18.9366 8.34348 18.555 8.34348 18.157C8.34348 17.759 8.18539 17.3774 7.904 17.096C7.62261 16.8146 7.24095 16.6565 6.843 16.6565C6.44505 16.6565 6.06339 16.8146 5.782 17.096ZM19 12.5C19 12.8978 19.158 13.2794 19.4393 13.5607C19.7206 13.842 20.1022 14 20.5 14H23.5C23.8978 14 24.2794 13.842 24.5607 13.5607C24.842 13.2794 25 12.8978 25 12.5C25 12.1022 24.842 11.7206 24.5607 11.4393C24.2794 11.158 23.8978 11 23.5 11H20.5C20.1022 11 19.7206 11.158 19.4393 11.4393C19.158 11.7206 19 12.1022 19 12.5V12.5ZM1.5 14H4.5C4.89782 14 5.27936 13.842 5.56066 13.5607C5.84196 13.2794 6 12.8978 6 12.5C6 12.1022 5.84196 11.7206 5.56066 11.4393C5.27936 11.158 4.89782 11 4.5 11H1.5C1.10218 11 0.720644 11.158 0.43934 11.4393C0.158035 11.7206 4.47035e-08 12.1022 4.47035e-08 12.5C4.47035e-08 12.8978 0.158035 13.2794 0.43934 13.5607C0.720644 13.842 1.10218 14 1.5 14V14ZM17.096 17.096C16.9566 17.2353 16.846 17.4007 16.7706 17.5828C16.6952 17.7648 16.6563 17.9599 16.6563 18.157C16.6563 18.3541 16.6952 18.5492 16.7706 18.7312C16.846 18.9133 16.9566 19.0787 17.096 19.218L19.218 21.338C19.5024 21.603 19.8784 21.7472 20.267 21.7404C20.6556 21.7335 21.0264 21.5761 21.3012 21.3012C21.5761 21.0264 21.7335 20.6556 21.7404 20.267C21.7472 19.8784 21.603 19.5024 21.338 19.218L19.218 17.096C19.0787 16.9566 18.9133 16.846 18.7312 16.7706C18.5492 16.6952 18.3541 16.6563 18.157 16.6563C17.9599 16.6563 17.7648 16.6952 17.5828 16.7706C17.4007 16.846 17.2353 16.9566 17.096 17.096ZM5.782 7.904C6.06339 8.18539 6.44505 8.34348 6.843 8.34348C7.24095 8.34348 7.62261 8.18539 7.904 7.904C8.18539 7.62261 8.34348 7.24095 8.34348 6.843C8.34348 6.44505 8.18539 6.06339 7.904 5.782L5.782 3.662C5.49765 3.39704 5.12156 3.25279 4.73295 3.25965C4.34435 3.26651 3.97358 3.42393 3.69876 3.69876C3.42393 3.97358 3.26651 4.34435 3.25965 4.73295C3.25279 5.12156 3.39704 5.49765 3.662 5.782L5.782 7.904Z" fill="#011E41"/>
<path d="M12.5 17C14.9853 17 17 14.9853 17 12.5C17 10.0147 14.9853 8 12.5 8C10.0147 8 8 10.0147 8 12.5C8 14.9853 10.0147 17 12.5 17Z" fill="#011E41"/>
</svg>
