<svg width="48" height="48" viewBox="0 0 48 48" fill="none" xmlns="http://www.w3.org/2000/svg">
<path d="M13.2154 30.9851C14.2736 30.3983 15.4519 30.0611 16.6603 29.9991C18.2894 29.9693 19.8939 30.3991 21.29 31.2391C22.0928 31.7671 23.0397 32.0326 23.9999 31.9991C24.9569 32.0313 25.9002 31.7657 26.6998 31.2391C27.2954 30.8984 27.9214 30.6139 28.5697 30.3891C29.6113 30.1199 30.6838 29.9888 31.7596 29.9991H31.9996C31.1707 26.0758 29.1731 22.4955 26.2698 19.7296L26.2538 19.7166C25.2302 18.7187 24.4153 17.5271 23.8567 16.2112C23.2981 14.8953 23.0068 13.4815 22.9999 12.0519C22.993 10.6224 23.2706 9.20576 23.8166 7.88456C24.3625 6.56335 25.1659 5.36397 26.1798 4.35626C26.6298 3.91905 26.9065 3.33387 26.9589 2.70866C27.0113 2.08345 26.8358 1.4604 26.4648 0.954411C26.2464 0.676675 25.9715 0.448405 25.6584 0.284652C25.3453 0.1209 25.001 0.0253856 24.6483 0.00440912C24.2956 -0.0165674 23.9424 0.03747 23.6121 0.162958C23.2818 0.288446 22.9818 0.482533 22.732 0.73242C21.2425 2.20648 20.0602 3.96133 19.2534 5.8954C18.4467 7.82948 18.0316 9.90435 18.0322 11.9999C18.0617 15.2354 19.0991 18.3812 21.0001 20.9995L20.9101 21.0995L13.0364 30.7471C13.0144 30.7736 13.0019 30.8068 13.0011 30.8412C13.0002 30.8757 13.011 30.9094 13.0317 30.9369C13.0525 30.9645 13.0819 30.9842 13.1152 30.9929C13.1485 31.0017 13.1838 30.9989 13.2154 30.9851V30.9851ZM45.999 41.9986C44.3728 41.9669 42.7709 42.3968 41.3792 43.2386C40.5608 43.7356 39.6218 43.9984 38.6643 43.9984C37.7068 43.9984 36.7678 43.7356 35.9494 43.2386C34.5577 42.3968 32.9558 41.9669 31.3296 41.9986C30.2294 41.977 29.1357 42.1707 28.1098 42.5686C27.6218 42.7521 27.1502 42.9762 26.6998 43.2386C26.4398 43.3786 26.2098 43.5086 25.9698 43.6186H25.9598C25.3453 43.8969 24.674 44.0271 23.9999 43.9985C23.0397 44.0321 22.0928 43.7665 21.29 43.2386C19.8939 42.3985 18.2894 41.9688 16.6603 41.9986C15.0341 41.9669 13.4322 42.3968 12.0405 43.2386C11.2365 43.7638 10.2904 44.0291 9.33057 43.9985C8.37073 44.029 7.42471 43.7637 6.62069 43.2386C5.22894 42.3968 3.62708 41.9669 2.00089 41.9986C1.47048 41.9986 0.961794 42.2093 0.586738 42.5844C0.211681 42.9594 0.000976563 43.4681 0.000976562 43.9985C0.000976563 44.5289 0.211681 45.0376 0.586738 45.4127C0.961794 45.7877 1.47048 45.9984 2.00089 45.9984C2.96073 45.968 3.90675 46.2333 4.71077 46.7584C6.10252 47.6002 7.70438 48.0301 9.33057 47.9984C10.9568 48.0301 12.5586 47.6002 13.9504 46.7584C14.7544 46.2333 15.7004 45.968 16.6603 45.9984C17.6203 45.9664 18.5668 46.2318 19.3701 46.7584C20.7657 47.5999 22.3706 48.0297 23.9999 47.9984C25.6259 48.0285 27.2274 47.5987 28.6197 46.7584C29.4362 46.2614 30.3737 45.9985 31.3296 45.9985C32.2855 45.9985 33.223 46.2614 34.0395 46.7584C35.4454 47.5707 37.0405 47.9984 38.6643 47.9984C40.288 47.9984 41.8831 47.5707 43.2891 46.7584C44.0925 46.2318 45.0389 45.9664 45.999 45.9984C46.5294 45.9984 47.0381 45.7877 47.4131 45.4127C47.7882 45.0376 47.9989 44.5289 47.9989 43.9985C47.9989 43.4681 47.7882 42.9594 47.4131 42.5844C47.0381 42.2093 46.5294 41.9986 45.999 41.9986ZM2.00089 37.9988C2.95924 37.9682 3.90395 38.232 4.70777 38.7548C6.09918 39.5994 7.70216 40.0309 9.32957 39.9987C10.9576 40.0308 12.5612 39.5994 13.9534 38.7548C14.7575 38.2319 15.7026 37.9681 16.6612 37.9988C17.6206 37.9679 18.5663 38.2317 19.3711 38.7548C20.763 39.5991 22.3663 40.0305 23.9939 39.9987C25.6221 40.0308 27.2258 39.599 28.6177 38.7538C29.435 38.2595 30.372 37.9982 31.3271 37.9982C32.2822 37.9982 33.2192 38.2595 34.0365 38.7538C35.4417 39.5687 37.0373 39.9979 38.6618 39.9979C40.2862 39.9979 41.8819 39.5687 43.2871 38.7538C44.0927 38.2311 45.0391 37.9676 45.999 37.9988C46.5294 37.9988 47.0381 37.7881 47.4131 37.413C47.7882 37.038 47.9989 36.5293 47.9989 35.9989C47.9989 35.4685 47.7882 34.9598 47.4131 34.5847C47.0381 34.2097 46.5294 33.999 45.999 33.999C44.3706 33.9668 42.7667 34.3982 41.3742 35.2429C40.5562 35.7374 39.6186 35.9988 38.6628 35.9988C37.707 35.9988 36.7694 35.7374 35.9514 35.2429C34.5586 34.398 32.9543 33.9666 31.3256 33.999C29.6979 33.9667 28.0945 34.3981 26.7028 35.2429C25.8987 35.7658 24.9536 36.0296 23.9949 35.9989C23.0359 36.0296 22.0906 35.7657 21.286 35.2429C19.8936 34.3982 18.2896 33.9668 16.6612 33.999C15.0332 33.9669 13.4296 34.3983 12.0375 35.2429C11.2336 35.7656 10.2889 36.0294 9.33057 35.9989C8.37255 36.0293 7.4282 35.7655 6.62469 35.2429C5.23277 34.3977 3.62899 33.9663 2.00089 33.999C1.47048 33.999 0.961794 34.2097 0.586738 34.5847C0.211681 34.9598 0.000976563 35.4685 0.000976562 35.9989C0.000976563 36.5293 0.211681 37.038 0.586738 37.413C0.961794 37.7881 1.47048 37.9988 2.00089 37.9988V37.9988Z" fill="#011E41"/>
<path d="M35 23.999C37.7614 23.999 40 21.7604 40 18.999C40 16.2376 37.7614 13.999 35 13.999C32.2386 13.999 30 16.2376 30 18.999C30 21.7604 32.2386 23.999 35 23.999Z" fill="#011E41"/>
</svg>
