<svg width="48" height="48" viewBox="0 0 48 48" fill="none" xmlns="http://www.w3.org/2000/svg">
<path d="M46 9H2C1.47005 9.00158 0.962265 9.2128 0.587535 9.58753C0.212805 9.96227 0.00158273 10.4701 0 11L0 37C0.00158273 37.5299 0.212805 38.0377 0.587535 38.4125C0.962265 38.7872 1.47005 38.9984 2 39H46C46.5299 38.9984 47.0377 38.7872 47.4125 38.4125C47.7872 38.0377 47.9984 37.5299 48 37V11C47.9984 10.4701 47.7872 9.96227 47.4125 9.58753C47.0377 9.2128 46.5299 9.00158 46 9V9ZM13.3 29.52L6.3 35.52C6.10039 35.6907 5.86911 35.8204 5.61936 35.9018C5.36962 35.9831 5.1063 36.0145 4.84444 35.994C4.58258 35.9736 4.3273 35.9018 4.09319 35.7827C3.85908 35.6636 3.65072 35.4996 3.48 35.3C3.13522 34.8969 2.9647 34.3733 3.00596 33.8444C3.04722 33.3156 3.29687 32.8248 3.7 32.48L10.7 26.48C10.8996 26.3093 11.1309 26.1796 11.3806 26.0982C11.6304 26.0169 11.8937 25.9855 12.1556 26.006C12.4174 26.0264 12.6727 26.0982 12.9068 26.2173C13.1409 26.3364 13.3493 26.5004 13.52 26.7C13.6907 26.8996 13.8204 27.1309 13.9018 27.3806C13.9831 27.6304 14.0145 27.8937 13.994 28.1556C13.9736 28.4174 13.9018 28.6727 13.7827 28.9068C13.6636 29.1409 13.4996 29.3493 13.3 29.52V29.52ZM44.52 35.3C44.3493 35.4996 44.1409 35.6637 43.9068 35.7828C43.6727 35.9018 43.4174 35.9737 43.1556 35.9941C42.8937 36.0145 42.6304 35.9832 42.3806 35.9018C42.1309 35.8205 41.8996 35.6907 41.7 35.52L34.7 29.52C34.2969 29.1752 34.0472 28.6844 34.006 28.1556C33.9647 27.6267 34.1352 27.1031 34.48 26.7C34.8248 26.2969 35.3156 26.0472 35.8444 26.006C36.3733 25.9647 36.8969 26.1352 37.3 26.48L44.3 32.48C44.4998 32.6506 44.6641 32.8589 44.7833 33.093C44.9026 33.3271 44.9745 33.5824 44.9949 33.8444C45.0153 34.1063 44.9839 34.3697 44.9024 34.6195C44.8209 34.8693 44.691 35.1005 44.52 35.3V35.3ZM44.19 15.61L25.19 29.61C24.845 29.8634 24.4281 30.0001 24 30.0001C23.5719 30.0001 23.155 29.8634 22.81 29.61L3.81 15.61C3.59857 15.4537 3.41999 15.2573 3.28446 15.0321C3.14893 14.8068 3.0591 14.557 3.0201 14.297C2.9811 14.037 2.99369 13.7718 3.05716 13.5167C3.12063 13.2616 3.23373 13.0214 3.39 12.81C3.54627 12.5986 3.74266 12.42 3.96795 12.2845C4.19323 12.1489 4.44301 12.0591 4.70302 12.0201C4.96302 11.9811 5.22816 11.9937 5.4833 12.0572C5.73843 12.1206 5.97857 12.2337 6.19 12.39L24 25.52L41.81 12.39C42.237 12.0744 42.7719 11.9413 43.297 12.0201C43.8221 12.0989 44.2944 12.383 44.61 12.81C44.9256 13.237 45.0587 13.7719 44.9799 14.297C44.9011 14.8221 44.617 15.2944 44.19 15.61V15.61Z" fill="#011E41"/>
</svg>
