<svg width="48" height="48" viewBox="0 0 48 48" fill="none" xmlns="http://www.w3.org/2000/svg">
<path d="M22.7337 18.4996L20.2634 20.97L25.5341 26.2407L28.5446 23.2303L23.2738 17.9595L22.7337 18.4996V18.4996ZM0.585655 40.6457C0.21066 41.0208 0 41.5295 0 42.0599C0 42.5903 0.21066 43.099 0.585655 43.4741L3.029 45.9174C3.4041 46.2924 3.91279 46.5031 4.44319 46.5031C4.9736 46.5031 5.48228 46.2924 5.85739 45.9174L24.0259 27.7509L18.7532 22.4792L0.585655 40.6457ZM47.3772 17.9595L43.5967 14.199C43.3967 14.0021 43.1272 13.8917 42.8466 13.8917C42.5659 13.8917 42.2965 14.0021 42.0964 14.199L40.5862 15.7092L38.3259 13.4489L39.7261 12.0487C39.9218 11.8495 40.0306 11.5808 40.0288 11.3015C40.0269 11.0223 39.9145 10.7551 39.7161 10.5585L35.6255 6.46793L35.1955 6.03787L34.1153 4.95772C31.9125 2.74912 28.9235 1.5046 25.8042 1.49724C23.0979 1.48263 20.472 2.4169 18.3831 4.13761C18.267 4.23175 18.1722 4.34944 18.1049 4.48293C18.0376 4.61641 17.9994 4.76264 17.9928 4.91198C17.9862 5.06131 18.0113 5.21035 18.0665 5.34926C18.1217 5.48817 18.2058 5.61379 18.3131 5.71783L25.0741 12.4788C25.3886 12.7513 25.6236 13.1038 25.7542 13.4989C25.8562 13.9539 25.8515 14.4263 25.7405 14.8792C25.6294 15.3321 25.415 15.7531 25.1141 16.1093L24.774 16.4493L26.8243 18.4996L30.0548 21.7201L32.3051 19.4697L34.5654 21.7201L33.0552 23.2403C32.9554 23.338 32.8761 23.4548 32.822 23.5836C32.7679 23.7124 32.74 23.8507 32.74 23.9904C32.74 24.1301 32.7679 24.2684 32.822 24.3972C32.8761 24.526 32.9554 24.6427 33.0552 24.7405L36.8257 28.501C37.2271 28.8999 37.77 29.1239 38.3359 29.1239C38.9018 29.1239 39.4448 28.8999 39.8461 28.501L47.3772 20.97C47.776 20.5705 48 20.0292 48 19.4647C48 18.9003 47.776 18.359 47.3772 17.9595Z" fill="#011E41"/>
</svg>
