<svg width="48" height="48" viewBox="0 0 48 48" fill="none" xmlns="http://www.w3.org/2000/svg">
<path d="M43.57 18.0399L24.69 0.26988C24.5022 0.0963601 24.2558 0 24 0C23.7443 0 23.4979 0.0963601 23.31 0.26988L4.43003 18.0399C4.29342 18.1638 4.1845 18.3151 4.1104 18.484C4.0363 18.6528 3.99869 18.8355 4.00003 19.0199V46.9999C4.00083 47.2649 4.10644 47.5187 4.2938 47.7061C4.48117 47.8935 4.73506 47.9991 5.00003 47.9999H18.18L27.09 39.0799L18.66 31.4899C18.4488 31.2998 18.2806 31.0667 18.1667 30.8063C18.0529 30.5458 17.9961 30.2641 18 29.9799C18.0038 29.6945 18.0682 29.4133 18.1889 29.1547C18.3096 28.8961 18.4838 28.6661 18.7 28.4799L24.06 23.8899L20.59 20.4099C20.4024 20.2261 20.2534 20.0067 20.1517 19.7646C20.0499 19.5225 19.9975 19.2625 19.9975 18.9999C19.9975 18.7373 20.0499 18.4773 20.1517 18.2352C20.2534 17.9931 20.4024 17.7737 20.59 17.5899L24.59 13.5899C24.964 13.2159 25.4712 13.0058 26 13.0058C26.5289 13.0058 27.0361 13.2159 27.41 13.5899C27.784 13.9638 27.9941 14.471 27.9941 14.9999C27.9941 15.5287 27.784 16.0359 27.41 16.4099L24.83 18.9999L28.41 22.5899C28.6071 22.7832 28.7614 23.0157 28.863 23.2723C28.9647 23.529 29.0113 23.8041 29 24.0799C28.9881 24.355 28.9198 24.6248 28.7994 24.8725C28.679 25.1202 28.509 25.3405 28.3 25.5199L23.03 30.0399L31.34 37.5099C31.5419 37.6915 31.7046 37.9125 31.8181 38.1592C31.9316 38.406 31.9935 38.6733 32.0001 38.9448C32.0066 39.2163 31.9577 39.4863 31.8562 39.7382C31.7548 39.9901 31.6029 40.2187 31.41 40.4099L23.82 47.9999H43C43.265 47.9991 43.5189 47.8935 43.7063 47.7061C43.8936 47.5187 43.9992 47.2649 44 46.9999V19.0199C44.0014 18.8355 43.9638 18.6528 43.8897 18.484C43.8156 18.3151 43.7067 18.1638 43.57 18.0399V18.0399Z" fill="#011E41"/>
</svg>
