<svg width="48" height="48" viewBox="0 0 48 48" fill="none" xmlns="http://www.w3.org/2000/svg">
<path d="M24 10.9963C21.203 10.9813 18.45 11.6918 16.0096 13.0585C13.5693 14.4252 11.5251 16.4015 10.0766 18.7942L0.134221 35.5023C0.045194 35.6563 -0.00113152 35.8313 2.09912e-05 36.0092C0.0011735 36.1872 0.0497623 36.3615 0.140777 36.5144C0.231792 36.6673 0.361938 36.7931 0.517796 36.879C0.673654 36.9648 0.849581 37.0075 1.02744 37.0026H46.9726C47.1504 37.0075 47.3263 36.9648 47.4822 36.879C47.6381 36.7931 47.7682 36.6673 47.8592 36.5144C47.9502 36.3615 47.9988 36.1872 48 36.0092C48.0011 35.8313 47.9548 35.6563 47.8658 35.5023L37.9234 18.7942C36.4749 16.4015 34.4307 14.4252 31.9904 13.0585C29.55 11.6918 26.797 10.9813 24 10.9963V10.9963Z" fill="#011E41"/>
</svg>
