<svg width="48" height="48" viewBox="0 0 48 48" fill="none" xmlns="http://www.w3.org/2000/svg">
<path d="M46.3419 9.65679L44.9989 10.9998L36.9989 2.99979L38.3419 1.65679C39.4028 0.595964 40.8416 0 42.3419 0C43.8422 0 45.281 0.595964 46.3419 1.65679C47.4027 2.71768 47.9987 4.15651 47.9987 5.65679C47.9987 7.15707 47.4027 8.59591 46.3419 9.65679V9.65679ZM33.9989 5.99979L2.22087 37.7778C2.08747 37.9113 1.99456 38.0798 1.95287 38.2638L0.0358734 46.7338C-0.0109939 46.904 -0.011955 47.0836 0.0330878 47.2543C0.0781305 47.4251 0.167571 47.5808 0.292318 47.7058C0.417065 47.8307 0.572671 47.9204 0.743318 47.9657C0.913965 48.0111 1.09357 48.0104 1.26387 47.9638L9.73387 46.0458C9.91827 46.0043 10.0871 45.9114 10.2209 45.7778L41.9989 13.9998L33.9989 5.99979Z" fill="#011E41"/>
</svg>
