<svg width="48" height="48" viewBox="0 0 48 48" fill="none" xmlns="http://www.w3.org/2000/svg">
<path d="M42.2852 0.000244234H37.7138V9.14301L34.2853 8.00016L30.8567 9.14301V0.000244234H4.57129V47.9998H42.2852C42.5803 48.0059 42.8659 47.8953 43.08 47.692C43.294 47.4887 43.4191 47.2091 43.428 46.9141V1.08595C43.4191 0.790893 43.294 0.51131 43.08 0.307998C42.8659 0.104685 42.5803 -0.00591646 42.2852 0.000244234V0.000244234ZM11.4284 43.9998C11.4291 44.075 11.4149 44.1497 11.3864 44.2194C11.358 44.289 11.3159 44.3523 11.2627 44.4056C11.2095 44.4588 11.1462 44.5008 11.0765 44.5293C11.0068 44.5577 10.9322 44.572 10.8569 44.5712H8.57125C8.496 44.572 8.42135 44.5577 8.35167 44.5293C8.282 44.5008 8.2187 44.4588 8.16549 44.4056C8.11227 44.3523 8.07021 44.289 8.04177 44.2194C8.01332 44.1497 7.99906 44.075 7.99983 43.9998V4.0002C7.99906 3.92495 8.01332 3.8503 8.04177 3.78063C8.07021 3.71096 8.11227 3.64766 8.16549 3.59444C8.2187 3.54123 8.282 3.49917 8.35167 3.47072C8.42135 3.44228 8.496 3.42802 8.57125 3.42878H10.8569C10.9322 3.42802 11.0068 3.44228 11.0765 3.47072C11.1462 3.49917 11.2095 3.54123 11.2627 3.59444C11.3159 3.64766 11.358 3.71096 11.3864 3.78063C11.4149 3.8503 11.4291 3.92495 11.4284 4.0002V43.9998ZM33.7138 26.2857H18.8569C18.4022 26.2857 17.9662 26.1051 17.6447 25.7836C17.3232 25.4621 17.1426 25.0261 17.1426 24.5714C17.1426 24.1168 17.3232 23.6807 17.6447 23.3593C17.9662 23.0378 18.4022 22.8572 18.8569 22.8572H33.7138C34.1685 22.8572 34.6045 23.0378 34.926 23.3593C35.2475 23.6807 35.4281 24.1168 35.4281 24.5714C35.4281 25.0261 35.2475 25.4621 34.926 25.7836C34.6045 26.1051 34.1685 26.2857 33.7138 26.2857ZM33.7138 19.4286H18.8569C18.4022 19.4286 17.9662 19.248 17.6447 18.9265C17.3232 18.605 17.1426 18.169 17.1426 17.7143C17.1426 17.2597 17.3232 16.8237 17.6447 16.5022C17.9662 16.1807 18.4022 16.0001 18.8569 16.0001H33.7138C34.1685 16.0001 34.6045 16.1807 34.926 16.5022C35.2475 16.8237 35.4281 17.2597 35.4281 17.7143C35.4281 18.169 35.2475 18.605 34.926 18.9265C34.6045 19.248 34.1685 19.4286 33.7138 19.4286V19.4286Z" fill="#011E41"/>
</svg>
