<svg width="48" height="48" viewBox="0 0 48 48" fill="none" xmlns="http://www.w3.org/2000/svg">
<g clip-path="url(#clip0_74_1068)">
<path d="M34.2114 21.4467C34.2114 14.4602 28.5035 9.19141 20.9348 9.19141C13.3661 9.19141 7.6582 14.4602 7.6582 21.4467C7.6582 21.9884 7.8734 22.508 8.25645 22.891C8.63951 23.2741 9.15904 23.4893 9.70076 23.4893C10.2425 23.4893 10.762 23.2741 11.1451 22.891C11.5281 22.508 11.7433 21.9884 11.7433 21.4467C11.7164 20.0322 12.0844 18.6383 12.806 17.4214C13.5277 16.2045 14.5743 15.213 15.8284 14.5582V45.9574C15.8284 46.4991 16.0436 47.0186 16.4267 47.4017C16.8097 47.7847 17.3293 47.9999 17.871 47.9999C18.4127 47.9999 18.9322 47.7847 19.3153 47.4017C19.6983 47.0186 19.9135 46.4991 19.9135 45.9574V31.6595H21.9561V45.9574C21.9561 46.4991 22.1713 47.0186 22.5543 47.4017C22.9374 47.7847 23.4569 47.9999 23.9986 47.9999C24.5403 47.9999 25.0599 47.7847 25.4429 47.4017C25.826 47.0186 26.0412 46.4991 26.0412 45.9574V14.5582C27.2953 15.213 28.3419 16.2045 29.0636 17.4214C29.7852 18.6383 30.1532 20.0322 30.1263 21.4467C30.1263 21.9884 30.3415 22.508 30.7245 22.891C31.1076 23.2741 31.6271 23.4893 32.1688 23.4893C32.7106 23.4893 33.2301 23.2741 33.6131 22.891C33.9962 22.508 34.2114 21.9884 34.2114 21.4467Z" fill="#011E41"/>
<path d="M27.0626 8.17021C29.3188 8.17021 31.1478 6.34125 31.1478 4.08511C31.1478 1.82896 29.3188 0 27.0626 0C24.8065 0 22.9775 1.82896 22.9775 4.08511C22.9775 6.34125 24.8065 8.17021 27.0626 8.17021Z" fill="#011E41"/>
<path d="M36.2346 28.0853C35.6952 28.0781 35.1597 28.1787 34.6597 28.3812C34.1597 28.5837 33.7051 28.884 33.3227 29.2645C32.9403 29.645 32.6377 30.098 32.4327 30.5971C32.2278 31.0961 32.1245 31.631 32.129 32.1704C32.129 32.5767 32.2904 32.9664 32.5777 33.2537C32.865 33.541 33.2547 33.7024 33.661 33.7024C34.0673 33.7024 34.4569 33.541 34.7442 33.2537C35.0315 32.9664 35.1929 32.5767 35.1929 32.1704C35.1929 31.8939 35.3027 31.6287 35.4983 31.4331C35.6938 31.2376 35.9591 31.1277 36.2356 31.1277C36.5121 31.1277 36.7774 31.2376 36.9729 31.4331C37.1685 31.6287 37.2783 31.8939 37.2783 32.1704V46.4683C37.2783 46.8746 37.4397 47.2643 37.727 47.5515C38.0143 47.8388 38.404 48.0002 38.8102 48.0002C39.2165 48.0002 39.6062 47.8388 39.8935 47.5515C40.1808 47.2643 40.3422 46.8746 40.3422 46.4683V32.1704C40.3466 31.6309 40.2432 31.0958 40.038 30.5967C39.8329 30.0976 39.5301 29.6446 39.1475 29.264C38.7649 28.8835 38.3101 28.5833 37.8099 28.3809C37.3097 28.1784 36.7741 28.078 36.2346 28.0853V28.0853Z" fill="#011E41"/>
</g>
<defs>
<clipPath id="clip0_74_1068">
<rect width="48" height="48" fill="white"/>
</clipPath>
</defs>
</svg>
