<svg width="48" height="48" viewBox="0 0 48 48" fill="none" xmlns="http://www.w3.org/2000/svg">
<path d="M36.8088 43.731H26.1332V13.3115C26.1332 13.2923 26.1289 13.2752 26.1278 13.256C26.9429 12.787 27.5803 12.062 27.9411 11.1936C28.3019 10.3252 28.3659 9.36201 28.1232 8.45351C27.8805 7.545 27.3446 6.74206 26.5987 6.16933C25.8529 5.5966 24.9388 5.28613 23.9985 5.28613C23.0581 5.28613 22.144 5.5966 21.3982 6.16933C20.6524 6.74206 20.1165 7.545 19.8738 8.45351C19.631 9.36201 19.695 10.3252 20.0558 11.1936C20.4166 12.062 21.054 12.787 21.8691 13.256C21.8691 13.2752 21.8648 13.2923 21.8648 13.3105V43.731H11.1913C10.6252 43.731 10.0822 43.9559 9.68188 44.3562C9.28155 44.7566 9.05664 45.2995 9.05664 45.8657C9.05664 46.4319 9.28155 46.9748 9.68188 47.3752C10.0822 47.7755 10.6252 48.0004 11.1913 48.0004H36.8077C37.3739 48.0004 37.9169 47.7755 38.3172 47.3752C38.7175 46.9748 38.9424 46.4319 38.9424 45.8657C38.9424 45.2995 38.7175 44.7566 38.3172 44.3562C37.9169 43.9559 37.3739 43.731 36.8077 43.731H36.8088Z" fill="#011E41"/>
<path d="M31.1624 16.7128C31.7569 17.3628 33.1188 17.065 33.8777 15.8802C35.0806 13.9976 35.7198 11.8101 35.7198 9.57594C35.7198 7.3418 35.0806 5.15429 33.8777 3.27163C33.1188 2.08581 31.7569 1.78802 31.1624 2.4391C30.8933 2.81215 30.7499 3.26115 30.753 3.72111C30.7561 4.18107 30.9054 4.62812 31.1795 4.99754C32.0529 6.36463 32.5171 7.95309 32.5171 9.5754C32.5171 11.1977 32.0529 12.7862 31.1795 14.1533C30.9052 14.5228 30.7557 14.97 30.7526 15.4302C30.7495 15.8904 30.8931 16.3396 31.1624 16.7128V16.7128ZM40.4419 1.01739C39.6734 -0.0478233 38.3819 -0.290112 37.78 0.354568C37.504 0.722486 37.3601 1.17268 37.3716 1.63244C37.383 2.09221 37.549 2.5347 37.8429 2.88846C39.2445 4.83644 39.9986 7.17559 39.9986 9.5754C39.9986 11.9752 39.2445 14.3144 37.8429 16.2624C37.5486 16.6161 37.3822 17.0587 37.3706 17.5187C37.359 17.9787 37.5028 18.4292 37.7789 18.7973C38.383 19.4409 39.6745 19.1986 40.4419 18.1345C42.2357 15.6412 43.2008 12.6474 43.2008 9.57594C43.2008 6.50447 42.2357 3.51064 40.4419 1.01739V1.01739ZM16.7308 16.7128C16.9999 16.3395 17.1433 15.8902 17.14 15.4301C17.1368 14.9699 16.9871 14.5227 16.7126 14.1533C15.8393 12.7861 15.3752 11.1977 15.3752 9.5754C15.3752 7.95312 15.8393 6.36468 16.7126 4.99754C16.9868 4.62823 17.1364 4.18124 17.1396 3.72128C17.1429 3.26133 16.9997 2.81226 16.7308 2.4391C16.1362 1.78802 14.7743 2.08581 14.0154 3.27163C12.8125 5.15429 12.1733 7.3418 12.1733 9.57594C12.1733 11.8101 12.8125 13.9976 14.0154 15.8802C14.7732 17.065 16.1352 17.3639 16.7308 16.7128ZM10.2199 18.7962C10.4959 18.4283 10.6397 17.978 10.6281 17.5182C10.6165 17.0584 10.4501 16.6159 10.1559 16.2624C8.7543 14.3144 8.00023 11.9752 8.00023 9.5754C8.00023 7.17559 8.7543 4.83644 10.1559 2.88846C10.4501 2.53494 10.6165 2.09258 10.6283 1.63282C10.6402 1.17305 10.4967 0.722723 10.221 0.354568C9.61794 -0.289044 8.32538 -0.0478232 7.55902 1.01632C5.765 3.50967 4.7998 6.50371 4.7998 9.5754C4.7998 12.6471 5.765 15.6411 7.55902 18.1345C8.32538 19.1986 9.61794 19.4409 10.221 18.7962H10.2199Z" fill="#011E41"/>
</svg>
