<svg width="48" height="48" viewBox="0 0 48 48" fill="none" xmlns="http://www.w3.org/2000/svg">
<path d="M25 22.5C25 19.5453 24.418 16.6194 23.2873 13.8896C22.1566 11.1598 20.4992 8.67942 18.4099 6.5901C16.3206 4.50078 13.8402 2.84344 11.1104 1.71271C8.38055 0.58198 5.45474 0 2.5 0L0 0V10.5C0 16.4674 2.37053 22.1903 6.5901 26.4099C10.8097 30.6295 16.5326 33 22.5 33H25V22.5ZM43.729 0C39.5574 0 35.5567 1.65716 32.6069 4.60692C29.6572 7.55668 28 11.5574 28 15.729V25H32.271C36.4426 25 40.4433 23.3428 43.3931 20.3931C46.3428 17.4433 48 13.4426 48 9.271V0H43.729ZM30 28C29.4696 28 28.9609 28.2107 28.5858 28.5858C28.2107 28.9609 28 29.4696 28 30V41C27.9992 41.7954 27.6829 42.558 27.1204 43.1204C26.558 43.6829 25.7954 43.9992 25 44C24.4696 44 23.9609 44.2107 23.5858 44.5858C23.2107 44.9609 23 45.4696 23 46C23 46.5304 23.2107 47.0391 23.5858 47.4142C23.9609 47.7893 24.4696 48 25 48C26.8559 47.9979 28.6351 47.2597 29.9474 45.9474C31.2597 44.6351 31.9979 42.8559 32 41V30C32 29.4696 31.7893 28.9609 31.4142 28.5858C31.0391 28.2107 30.5304 28 30 28Z" fill="#011E41"/>
</svg>
