<svg width="48" height="48" viewBox="0 0 48 48" fill="none" xmlns="http://www.w3.org/2000/svg">
<path d="M48 32.4931V32.0001H47.95H48V32.0101V32.0001C47.9983 28.6468 46.7 25.424 44.3765 23.0061C42.0531 20.5882 38.8846 19.1624 35.534 19.0271C35.502 18.9651 35.476 18.9001 35.443 18.8381C36.7369 16.5019 37.2501 13.8133 36.9077 11.1648C36.5654 8.51628 35.3854 6.04654 33.54 4.11613L33.541 4.11513L33.151 3.71613L33.149 3.71813C32.9235 3.48957 32.6547 3.30833 32.3583 3.18501C32.0619 3.0617 31.7438 2.99881 31.4228 3.00002C31.1017 3.00123 30.7841 3.06652 30.4887 3.19206C30.1932 3.31761 29.9257 3.50088 29.702 3.73113C29.245 4.20204 28.9882 4.83178 28.9858 5.48801C28.9834 6.14424 29.2354 6.77586 29.689 7.25013L29.687 7.25213L30.049 7.62113C30.734 8.33021 31.2619 9.17576 31.598 10.1026C31.9342 11.0295 32.0712 12.0168 32 13.0001C31.9734 13.5405 31.8964 14.0771 31.77 14.6031C29.5321 12.9144 26.8049 12.0007 24.0013 12.0003C21.1977 12 18.4704 12.913 16.232 14.6011C16.1049 14.0759 16.0272 13.5399 16 13.0001C15.9284 12.0177 16.0651 11.0313 16.4011 10.1054C16.7372 9.17945 17.265 8.33494 17.95 7.62713L17.908 7.58513L17.95 7.62813L18.297 7.26113L18.296 7.26013C18.7532 6.78633 19.0081 6.15331 19.007 5.49492C19.0059 4.83652 18.7488 4.20437 18.29 3.73213C18.0656 3.50109 17.7972 3.31731 17.5006 3.19162C17.2041 3.06594 16.8854 3.00091 16.5633 3.00035C16.2412 2.99979 15.9222 3.06372 15.6252 3.18837C15.3282 3.31302 15.0592 3.49587 14.834 3.72613L14.832 3.72713L14.826 3.73213L14.821 3.73813L14.481 4.08613L14.515 4.12113L14.48 4.08613L14.487 4.07913L14.48 4.08613C12.6254 6.01537 11.4382 8.48836 11.0926 11.142C10.7471 13.7957 11.2614 16.4903 12.56 18.8301C12.525 18.8941 12.498 18.9621 12.465 19.0271C9.11458 19.1627 5.94635 20.5885 3.62312 23.0064C1.29989 25.4243 0.0016486 28.647 0 32.0001L0 32.0101V32.0001H0.05H0V32.5101H0.001C0.001 33.1729 0.264287 33.8085 0.73294 34.2772C1.20159 34.7458 1.83722 35.0091 2.5 35.0091C3.16278 35.0091 3.79841 34.7458 4.26706 34.2772C4.73571 33.8085 4.999 33.1729 4.999 32.5101H5.001L5.01 32.0001H4.95H5.01C5.01301 30.2244 5.60697 28.5001 6.69823 27.0993C7.78949 25.6984 9.31597 24.7006 11.037 24.2631C11.023 24.5081 11 24.7511 11 25.0001C11.0038 27.5976 11.7849 30.1345 13.2427 32.2843C14.7005 34.4341 16.7683 36.0984 19.18 37.0631C18.4324 37.9806 17.49 38.7202 16.421 39.2282C15.3521 39.7362 14.1835 39.9999 13 40.0001H12.479V40.0021C11.8165 40.0021 11.1811 40.2653 10.7126 40.7338C10.2442 41.2022 9.981 41.8376 9.981 42.5001C9.981 43.1626 10.2442 43.798 10.7126 44.2665C11.1811 44.735 11.8165 44.9981 12.479 44.9981V45.0001H13.042V44.9981C15.2344 44.991 17.3893 44.4286 19.3055 43.3633C21.2217 42.298 22.8368 40.7646 24 38.9061C25.1632 40.7646 26.7783 42.298 28.6945 43.3633C30.6107 44.4286 32.7656 44.991 34.958 44.9981V45.0001H35.521V44.9981C36.1835 44.9981 36.8189 44.735 37.2874 44.2665C37.7558 43.798 38.019 43.1626 38.019 42.5001C38.019 41.8376 37.7558 41.2022 37.2874 40.7338C36.8189 40.2653 36.1835 40.0021 35.521 40.0021V40.0001H35C33.8165 39.9999 32.6479 39.7362 31.579 39.2282C30.51 38.7202 29.5676 37.9806 28.82 37.0631C31.2317 36.0984 33.2995 34.4341 34.7573 32.2843C36.2151 30.1345 36.9962 27.5976 37 25.0001C37 24.7511 36.977 24.5081 36.963 24.2631C38.684 24.7006 40.2105 25.6984 41.3018 27.0993C42.393 28.5001 42.987 30.2244 42.99 32.0001H43.05H42.989L42.999 32.5101H43C43 33.1729 43.2633 33.8085 43.7319 34.2772C44.2006 34.7458 44.8362 35.0091 45.499 35.0091C46.1618 35.0091 46.7974 34.7458 47.2661 34.2772C47.7347 33.8085 47.998 33.1729 47.998 32.5101V32.5071L48 32.5001V32.4931ZM24 16.0001C26.1768 16.0006 28.2789 16.794 29.913 18.2321C29.792 18.3721 29.673 18.5151 29.54 18.6501C28.8224 19.3933 27.9625 19.9844 27.0116 20.3881C26.0606 20.7918 25.0381 20.9998 24.005 20.9998C22.9719 20.9998 21.9494 20.7918 20.9984 20.3881C20.0475 19.9844 19.1876 19.3933 18.47 18.6501C18.336 18.5141 18.215 18.3701 18.092 18.2271C19.7256 16.792 21.8256 16.0004 24 16.0001V16.0001ZM15 25.0001C15 24.7581 15.018 24.5201 15.036 24.2821C16.9833 24.7852 18.6672 26.0085 19.7474 27.705C20.8277 29.4016 21.2239 31.4448 20.856 33.4221C19.1389 32.7809 17.6583 31.6311 16.6119 30.1262C15.5656 28.6213 15.0032 26.833 15 25.0001V25.0001ZM27.143 33.4221C26.7751 31.4448 27.1713 29.4016 28.2516 27.705C29.3318 26.0085 31.0157 24.7852 32.963 24.2821C32.983 24.5201 33 24.7581 33 25.0001C32.9967 26.8332 32.4342 28.6215 31.3876 30.1264C30.3411 31.6313 28.8603 32.7811 27.143 33.4221Z" fill="#011E41"/>
</svg>
