<svg width="48" height="48" viewBox="0 0 48 48" fill="none" xmlns="http://www.w3.org/2000/svg">
<path fill-rule="evenodd" clip-rule="evenodd" d="M24.0575 0L24.6526 1.73546H26.4658L25.0209 2.85164L25.546 4.5914L24.0575 3.55332L22.569 4.5914L23.0941 2.85225L21.6486 1.73546H23.4623L24.0575 0V0ZM4.51896 11.4391L5.11411 13.1746H6.92723L5.48178 14.2908L6.00746 16.0305L4.51896 14.9925L3.03047 16.0305L3.55553 14.2908L2.11008 13.1746H3.9232L4.51896 11.4391ZM5.07231 32.1779L5.66746 33.9134H7.48057L6.03574 35.029L6.56079 36.7681L5.07231 35.7306L3.58382 36.7681L4.10887 35.029L2.66342 33.9134H4.47715L5.07231 32.1779V32.1779ZM12.4988 2.98324L13.0939 4.7187H14.9077L13.4622 5.83488L13.9873 7.57464L12.4988 6.53656L11.0103 7.57464L11.5353 5.83488L10.0899 4.7187H11.903L12.4988 2.98324V2.98324ZM12.4988 40.1954L13.0939 41.9296H14.9077L13.4622 43.0464L13.9873 44.7861L12.4988 43.7481L11.0103 44.7861L11.5353 43.0464L10.0899 41.9296H11.903L12.4988 40.1954V40.1954ZM43.4884 11.4391L42.8933 13.1746H41.0795L42.5256 14.2908L41.9993 16.0305L43.4884 14.9925L44.9775 16.0305L44.4518 14.2908L45.8973 13.1746H44.0842L43.4884 11.4391ZM43.4884 32.1392L42.8933 33.8746H41.0795L42.5256 34.9908L41.9993 36.73L43.4884 35.6919L44.9775 36.7312L44.4518 34.9908L45.8973 33.8746H44.0842L43.4884 32.1392ZM35.5092 2.98324L34.9134 4.7187H33.1003L34.5446 5.83488L34.0201 7.57464L35.5092 6.53656L36.9971 7.57464L36.472 5.83488L37.9181 4.7187H36.105L35.5092 2.98324V2.98324ZM35.5092 39.8553L34.9134 41.5907H33.1003L34.5446 42.7069L34.0201 44.4473L35.5092 43.408L36.9971 44.4473L36.472 42.7069L37.9181 41.5907H36.105L35.5092 39.8553V39.8553ZM24.0575 43.4092L24.6526 45.1441H26.4658L25.0209 46.2609L25.546 48L24.0575 46.9625L22.569 48L23.0941 46.2609L21.6486 45.1441H23.4623L24.0575 43.4092ZM45.5923 21.4897L46.1869 23.2251H48L46.5558 24.3407L47.0802 26.0811L45.5923 25.043L44.1032 26.0811L44.6283 24.3413L43.1835 23.2251H44.9966L45.5923 21.4897V21.4897ZM2.40889 21.4897L3.00404 23.2251H4.81777L3.37231 24.3407L3.89738 26.0811L2.40889 25.043L0.920394 26.0811L1.44545 24.3413L0 23.2251H1.81373L2.40889 21.4897V21.4897Z" fill="#011E41"/>
</svg>
