<svg width="2500" height="2341" viewBox="0 0 2500 2341" fill="none" xmlns="http://www.w3.org/2000/svg">
<g clip-path="url(#clip0_206_7)">
<path fill-rule="evenodd" clip-rule="evenodd" d="M0 0H2500V2500H0V0Z" fill="white"/>
<path fill-rule="evenodd" clip-rule="evenodd" d="M2389.71 1935.74V564.263H110.295V1935.74H2389.71Z" fill="white"/>
<path fill-rule="evenodd" clip-rule="evenodd" d="M1255.45 733.661L1268 770.261H1306.25L1275.77 793.801L1286.85 830.493L1255.45 808.6L1224.05 830.493L1235.12 793.814L1204.63 770.261H1242.89L1255.45 733.661V733.661ZM1255.45 1649.16L1268 1685.75H1306.25L1275.77 1709.3L1286.85 1745.98L1255.45 1724.1L1224.05 1745.98L1235.12 1709.3L1204.63 1685.75H1242.89L1255.45 1649.16ZM1709.73 1186.88L1722.27 1223.48H1760.52L1730.05 1247L1741.11 1283.71L1709.73 1261.82L1678.31 1283.71L1689.39 1247.02L1658.91 1223.48H1697.16L1709.73 1186.88V1186.88ZM798.769 1186.88L811.324 1223.48H849.584L819.093 1247L830.169 1283.71L798.769 1261.82L767.369 1283.71L778.445 1247.02L747.953 1223.48H786.214L798.769 1186.88V1186.88Z" fill="#F2CA30"/>
<path fill-rule="evenodd" clip-rule="evenodd" d="M1255.45 733.661L1268 770.261H1306.25L1275.77 793.801L1286.85 830.493L1255.45 808.6L1224.05 830.493L1235.12 793.814L1204.63 770.261H1242.89L1255.45 733.661V733.661ZM843.281 974.911L855.836 1011.51H894.084L863.592 1035.05L874.681 1071.74L843.281 1049.85L811.881 1071.74L822.958 1035.05L792.466 1011.51H830.713L843.281 974.911ZM854.954 1412.29L867.509 1448.89H905.756L875.278 1472.42L886.354 1509.1L854.954 1487.22L823.554 1509.1L834.63 1472.42L804.138 1448.89H842.399L854.954 1412.29V1412.29ZM1011.62 796.577L1024.17 833.178H1062.43L1031.94 856.718L1043.02 893.409L1011.62 871.516L980.216 893.409L991.292 856.718L960.8 833.178H999.048L1011.62 796.577V796.577ZM1011.62 1581.38L1024.17 1617.95H1062.43L1031.94 1641.51L1043.02 1678.2L1011.62 1656.3L980.216 1678.2L991.292 1641.51L960.8 1617.95H999.048L1011.62 1581.38V1581.38ZM1665.34 974.911L1652.79 1011.51H1614.53L1645.03 1035.05L1633.93 1071.74L1665.34 1049.85L1696.76 1071.74L1685.67 1035.05L1716.16 1011.51H1677.91L1665.34 974.911ZM1665.34 1411.47L1652.79 1448.07H1614.53L1645.03 1471.61L1633.93 1508.29L1665.34 1486.4L1696.76 1508.32L1685.67 1471.61L1716.16 1448.07H1677.91L1665.34 1411.47ZM1497.02 796.577L1484.45 833.178H1446.21L1476.67 856.718L1465.61 893.409L1497.02 871.516L1528.41 893.409L1517.33 856.718L1547.84 833.178H1509.59L1497.02 796.577V796.577ZM1497.02 1574.21L1484.45 1610.81H1446.21L1476.67 1634.35L1465.61 1671.05L1497.02 1649.13L1528.41 1671.05L1517.33 1634.35L1547.84 1610.81H1509.59L1497.02 1574.21V1574.21ZM1255.45 1649.16L1268 1685.75H1306.25L1275.77 1709.3L1286.85 1745.98L1255.45 1724.1L1224.05 1745.98L1235.12 1709.3L1204.63 1685.75H1242.89L1255.45 1649.16ZM1709.73 1186.88L1722.27 1223.48H1760.52L1730.05 1247L1741.11 1283.71L1709.73 1261.82L1678.31 1283.71L1689.39 1247.02L1658.91 1223.48H1697.16L1709.73 1186.88V1186.88ZM798.769 1186.88L811.324 1223.48H849.584L819.093 1247L830.169 1283.71L798.769 1261.82L767.369 1283.71L778.445 1247.02L747.953 1223.48H786.214L798.769 1186.88V1186.88Z" fill="#F2CA30"/>
</g>
<defs>
<clipPath id="clip0_206_7">
<rect width="2500" height="2500" fill="white"/>
</clipPath>
</defs>
</svg>
