<svg width="48" height="48" viewBox="0 0 48 48" fill="none" xmlns="http://www.w3.org/2000/svg">
<path d="M29.9007 24.001L46.7765 7.12636C47.5592 6.3436 47.999 5.28194 47.999 4.17495C47.999 3.06796 47.5592 2.00631 46.7765 1.22355C45.9937 0.440793 44.932 0.00104345 43.825 0.00104345C42.7181 0.00104345 41.6564 0.440793 40.8736 1.22355L23.9979 18.0982L7.12531 1.22251C6.34255 0.43975 5.2809 0 4.17391 0C3.06692 0 2.00527 0.43975 1.22251 1.22251C0.43975 2.00527 0 3.06692 0 4.17391C0 5.2809 0.43975 6.34255 1.22251 7.12531L18.0941 24.001L1.22251 40.8736C0.43975 41.6564 5.05305e-08 42.7181 6.21945e-08 43.825C7.38586e-08 44.932 0.43975 45.9937 1.22251 46.7764C2.00527 47.5592 3.06692 47.999 4.17391 47.999C5.2809 47.999 6.34255 47.5592 7.12531 46.7764L23.9979 29.9038L40.8726 46.7775C41.6554 47.5603 42.717 48 43.824 48C44.931 48 45.9926 47.5603 46.7754 46.7775C47.5582 45.9947 47.9979 44.9331 47.9979 43.8261C47.9979 42.7191 47.5582 41.6575 46.7754 40.8747L29.9007 24.001Z" fill="#011E41"/>
</svg>
