<svg width="48" height="48" viewBox="0 0 48 48" fill="none" xmlns="http://www.w3.org/2000/svg">
<path d="M4.00004 0.000645735C4.52563 -0.000236916 5.04621 0.102759 5.53186 0.303713C6.01751 0.504667 6.45867 0.799618 6.82996 1.17161L25.8295 21.1711C26.201 21.5425 26.4958 21.9835 26.6969 22.4689C26.8981 22.9543 27.0016 23.4746 27.0016 24C27.0016 24.5254 26.8981 25.0457 26.6969 25.5311C26.4958 26.0165 26.201 26.4575 25.8295 26.8289L6.82996 46.8284C6.45853 47.1998 6.01757 47.4945 5.53227 47.6955C5.04697 47.8965 4.52683 48 4.00154 48C2.94068 48 1.92326 47.5785 1.17312 46.8284C0.422971 46.0782 0.00154457 45.0608 0.00154457 44C0.00154457 42.9391 0.422971 41.9217 1.17312 41.1715L16.9997 24L1.17212 6.82946C0.61255 6.27012 0.231434 5.5574 0.0769701 4.78144C-0.0774933 4.00548 0.00163551 3.20114 0.304348 2.47015C0.607061 1.73917 1.11976 1.11438 1.7776 0.674801C2.43543 0.235226 3.20885 0.000616883 4.00004 0.000645735V0.000645735ZM22.1716 1.17161C21.8 1.54306 21.5052 1.98408 21.3041 2.46947C21.1029 2.95487 20.9994 3.47513 20.9994 4.00054C20.9994 4.52595 21.1029 5.04621 21.3041 5.5316C21.5052 6.017 21.8 6.45802 22.1716 6.82946L37.9991 24L22.1716 41.1715C21.4214 41.9217 21 42.9391 21 44C21 45.0608 21.4214 46.0782 22.1716 46.8284C22.9217 47.5785 23.9391 48 25 48C26.0608 48 27.0783 47.5785 27.8284 46.8284L46.8279 26.8289C47.1995 26.4575 47.4943 26.0165 47.6954 25.5311C47.8965 25.0457 48 24.5254 48 24C48 23.4746 47.8965 22.9543 47.6954 22.4689C47.4943 21.9835 47.1995 21.5425 46.8279 21.1711L27.8284 1.17161C27.457 0.800168 27.016 0.50552 26.5307 0.304493C26.0454 0.103467 25.5253 0 25 0C24.4747 0 23.9545 0.103467 23.4692 0.304493C22.9839 0.50552 22.543 0.800168 22.1716 1.17161V1.17161Z" fill="#011E41"/>
</svg>
