<svg width="48" height="48" viewBox="0 0 48 48" fill="none" xmlns="http://www.w3.org/2000/svg">
<path d="M0.000645735 43.999C2.66238e-05 43.4737 0.10315 42.9535 0.304097 42.4682C0.505044 41.9829 0.799857 41.5421 1.17161 41.171L21.1711 22.1715C21.5425 21.8 21.9835 21.5052 22.4689 21.3041C22.9543 21.1029 23.4746 20.9994 24 20.9994C24.5254 20.9994 25.0457 21.1029 25.5311 21.3041C26.0165 21.5052 26.4575 21.8 26.8289 22.1715L46.8284 41.171C47.5785 41.9212 48 42.9386 48 43.9995C48 45.0603 47.5785 46.0777 46.8284 46.8279C46.0782 47.578 45.0608 47.9995 44 47.9995C42.9391 47.9995 41.9217 47.578 41.1715 46.8279L24 30.9993L6.82946 46.8279C6.27006 47.3875 5.55725 47.7686 4.78119 47.9231C4.00514 48.0775 3.20072 47.9983 2.46969 47.6955C1.73866 47.3926 1.11388 46.8798 0.674384 46.2218C0.234886 45.5638 0.00041903 44.7902 0.000645735 43.999V43.999ZM1.17161 25.8294C1.54306 26.201 1.98408 26.4958 2.46947 26.6969C2.95487 26.8981 3.47513 27.0016 4.00054 27.0016C4.52595 27.0016 5.04621 26.8981 5.5316 26.6969C6.017 26.4958 6.45802 26.201 6.82946 25.8294L24 9.99988L41.1715 25.8284C41.9217 26.5786 42.9391 27 44 27C45.0608 27 46.0782 26.5786 46.8284 25.8284C47.5785 25.0783 48 24.0609 48 23C48 21.9392 47.5785 20.9217 46.8284 20.1716L26.8289 1.17211C26.4575 0.800518 26.0165 0.505743 25.5311 0.304629C25.0457 0.103514 24.5254 0 24 0C23.4746 0 22.9543 0.103514 22.4689 0.304629C21.9835 0.505743 21.5425 0.800518 21.1711 1.17211L1.17161 20.1716C0.800168 20.543 0.50552 20.984 0.304493 21.4693C0.103467 21.9546 0 22.4747 0 23C0 23.5253 0.103467 24.0455 0.304493 24.5308C0.50552 25.0161 0.800168 25.457 1.17161 25.8284V25.8294Z" fill="#011E41"/>
</svg>
