<svg width="48" height="48" viewBox="0 0 48 48" fill="none" xmlns="http://www.w3.org/2000/svg">
<path d="M47.9993 4.00004C48.0001 4.52546 47.897 5.04585 47.696 5.53132C47.4951 6.0168 47.2002 6.45779 46.8283 6.82896L26.8289 25.8285C26.4574 26.2 26.0164 26.4948 25.531 26.6959C25.0456 26.8971 24.5254 27.0006 24 27.0006C23.4745 27.0006 22.9543 26.8971 22.4689 26.6959C21.9835 26.4948 21.5425 26.2 21.171 25.8285L1.17157 6.82896C0.421427 6.07882 -7.90406e-09 5.0614 0 4.00054C7.90406e-09 2.93968 0.421427 1.92226 1.17157 1.17212C1.92172 0.421972 2.93913 0.000544647 4 0.000544639C5.06086 0.000544631 6.07827 0.421972 6.82842 1.17212L24 16.9997L41.1705 1.17212C41.7298 0.61255 42.4426 0.231434 43.2185 0.0769701C43.9945 -0.0774933 44.7988 0.00163551 45.5298 0.304348C46.2608 0.607061 46.8856 1.11976 47.3252 1.7776C47.7647 2.43543 47.9993 3.20885 47.9993 4.00004V4.00004ZM46.8283 22.1716C46.4569 21.8 46.0159 21.5052 45.5305 21.3041C45.0451 21.1029 44.5248 20.9994 43.9994 20.9994C43.474 20.9994 42.9537 21.1029 42.4683 21.3041C41.983 21.5052 41.5419 21.8 41.1705 22.1716L24 37.9991L6.82842 22.1716C6.07827 21.4214 5.06086 21 4 21C2.93913 21 1.92172 21.4214 1.17157 22.1716C0.421427 22.9217 7.90406e-09 23.9391 0 25C-7.90406e-09 26.0608 0.421427 27.0783 1.17157 27.8284L21.171 46.8279C21.5425 47.1995 21.9835 47.4943 22.4689 47.6954C22.9543 47.8965 23.4745 48 24 48C24.5254 48 25.0456 47.8965 25.531 47.6954C26.0164 47.4943 26.4574 47.1995 26.8289 46.8279L46.8283 27.8284C47.1998 27.457 47.4944 27.016 47.6955 26.5307C47.8965 26.0454 48 25.5253 48 25C48 24.4747 47.8965 23.9545 47.6955 23.4692C47.4944 22.9839 47.1998 22.543 46.8283 22.1716Z" fill="#011E41"/>
</svg>
