<svg width="48" height="48" viewBox="0 0 48 48" fill="none" xmlns="http://www.w3.org/2000/svg">
<path d="M43.999 47.9993C43.4737 47.9999 42.9535 47.8968 42.4682 47.6959C41.9829 47.4949 41.5421 47.2001 41.171 46.8283L22.1715 26.8289C21.8 26.4574 21.5052 26.0164 21.3041 25.531C21.1029 25.0456 20.9994 24.5254 20.9994 24C20.9994 23.4745 21.1029 22.9543 21.3041 22.4689C21.5052 21.9835 21.8 21.5425 22.1715 21.171L41.171 1.17157C41.9212 0.421427 42.9386 4.8425e-08 43.9995 5.9603e-08C45.0603 7.07811e-08 46.0777 0.421427 46.8279 1.17157C47.578 1.92172 47.9995 2.93913 47.9995 4C47.9995 5.06086 47.578 6.07827 46.8279 6.82842L30.9993 24L46.8279 41.1705C47.3875 41.7299 47.7686 42.4427 47.9231 43.2188C48.0775 43.9948 47.9983 44.7992 47.6955 45.5303C47.3926 46.2613 46.8798 46.8861 46.2218 47.3256C45.5638 47.7651 44.7902 47.9995 43.999 47.9993V47.9993ZM25.8294 46.8283C26.201 46.4569 26.4958 46.0159 26.6969 45.5305C26.8981 45.0451 27.0016 44.5248 27.0016 43.9994C27.0016 43.474 26.8981 42.9537 26.6969 42.4683C26.4958 41.983 26.201 41.5419 25.8294 41.1705L9.99988 24L25.8284 6.82842C26.5786 6.07827 27 5.06086 27 4C27 2.93913 26.5786 1.92172 25.8284 1.17157C25.0783 0.421427 24.0609 0 23 0C21.9392 0 20.9217 0.421427 20.1716 1.17157L1.17211 21.171C0.800518 21.5425 0.505743 21.9835 0.304629 22.4689C0.103514 22.9543 0 23.4745 0 24C0 24.5254 0.103514 25.0456 0.304629 25.531C0.505743 26.0164 0.800518 26.4574 1.17211 26.8289L20.1716 46.8283C20.543 47.1998 20.984 47.4944 21.4693 47.6955C21.9546 47.8965 22.4747 48 23 48C23.5253 48 24.0455 47.8965 24.5308 47.6955C25.0161 47.4944 25.457 47.1998 25.8284 46.8283H25.8294Z" fill="#011E41"/>
</svg>
