<svg width="48" height="48" viewBox="0 0 48 48" fill="none" xmlns="http://www.w3.org/2000/svg">
<path d="M12.0948 0.0451563C10.1175 0.0451563 8.1847 0.631478 6.54068 1.72998C4.89666 2.82848 3.61531 4.38981 2.85865 6.21655C2.10199 8.04329 1.90401 10.0534 2.28975 11.9926C2.67549 13.9319 3.62763 15.7132 5.02575 17.1113C6.42388 18.5095 8.2052 19.4616 10.1444 19.8473C12.0837 20.2331 14.0938 20.0351 15.9205 19.2784C17.7473 18.5218 19.3086 17.2404 20.4071 15.5964C21.5056 13.9524 22.0919 12.0195 22.0919 10.0423C22.0919 7.39088 21.0387 4.84807 19.1638 2.97325C17.289 1.09842 14.7462 0.0451563 12.0948 0.0451563V0.0451563ZM12.0948 17.0403C11.8971 17.0403 11.7038 16.9817 11.5394 16.8718C11.375 16.762 11.2468 16.6058 11.1712 16.4231C11.0955 16.2405 11.0757 16.0395 11.1143 15.8455C11.1529 15.6516 11.2481 15.4735 11.3879 15.3337C11.5277 15.1939 11.7058 15.0986 11.8998 15.0601C12.0937 15.0215 12.2947 15.0413 12.4774 15.117C12.66 15.1926 12.8162 15.3208 12.926 15.4852C13.0359 15.6496 13.0945 15.8428 13.0945 16.0406C13.0945 16.3057 12.9892 16.56 12.8017 16.7475C12.6142 16.935 12.3599 17.0403 12.0948 17.0403ZM13.0945 12.0417C13.0945 12.3069 12.9892 12.5611 12.8017 12.7486C12.6142 12.9361 12.3599 13.0414 12.0948 13.0414C11.8297 13.0414 11.5754 12.9361 11.3879 12.7486C11.2004 12.5611 11.0951 12.3069 11.0951 12.0417V4.04401C11.0951 3.77887 11.2004 3.52459 11.3879 3.33711C11.5754 3.14962 11.8297 3.0443 12.0948 3.0443C12.3599 3.0443 12.6142 3.14962 12.8017 3.33711C12.9892 3.52459 13.0945 3.77887 13.0945 4.04401V12.0417ZM31.7312 20.3773L32.7289 20.6452L33.5306 17.6521C33.8848 16.3295 33.6992 14.9203 33.0145 13.7345C32.3299 12.5487 31.2023 11.6834 29.8797 11.3289L28.882 11.061L28.0802 14.0541C27.726 15.3768 27.9116 16.786 28.5963 17.9718C29.281 19.1575 30.4086 20.0228 31.7312 20.3773ZM29.3258 29.3548L30.3236 29.6227L31.1253 26.6295C31.4795 25.3069 31.2939 23.8977 30.6092 22.7119C29.9246 21.5261 28.797 20.6608 27.4744 20.3063L26.4767 20.0384L25.6749 23.0316C25.3207 24.3542 25.5063 25.7634 26.191 26.9492C26.8757 28.135 28.0033 29.0003 29.3258 29.3548V29.3548ZM27.9173 38.6001L28.72 35.608C28.8955 34.9529 28.9403 34.2697 28.8518 33.5974C28.7632 32.925 28.5431 32.2767 28.204 31.6894C27.8648 31.1022 27.4134 30.5875 26.8753 30.1747C26.3372 29.7619 25.7231 29.4592 25.0681 29.2838L24.0714 29.0158L23.2686 32.009C22.9144 33.3318 23.1002 34.7411 23.7851 35.9269C24.4699 37.1127 25.5978 37.9779 26.9205 38.3322L27.9173 38.6001ZM36.5228 18.4539L35.721 21.447L36.7187 21.7139C37.3737 21.8895 38.0568 21.9343 38.7291 21.8458C39.4014 21.7573 40.0497 21.5373 40.637 21.1983C41.2242 20.8592 41.739 20.4079 42.1518 19.8699C42.5646 19.332 42.8674 18.718 43.0429 18.063L43.8447 15.0708L42.847 14.8029C42.192 14.6274 41.5089 14.5826 40.8366 14.6711C40.1643 14.7595 39.516 14.9796 38.9287 15.3186C38.3415 15.6576 37.8267 16.109 37.4139 16.647C37.0011 17.1849 36.6983 17.7989 36.5228 18.4539V18.4539ZM34.1175 27.4313L33.3157 30.4244L34.3134 30.6914C34.9684 30.8669 35.6515 30.9117 36.3238 30.8232C36.9961 30.7347 37.6444 30.5147 38.2317 30.1757C38.8189 29.8367 39.3336 29.3853 39.7465 28.8473C40.1593 28.3094 40.4621 27.6954 40.6376 27.0404L41.4384 24.0483L40.4417 23.7803C39.7867 23.6048 39.1035 23.56 38.4313 23.6485C37.759 23.737 37.1107 23.957 36.5234 24.296C35.9362 24.635 35.4214 25.0864 35.0086 25.6244C34.5958 26.1623 34.293 26.7763 34.1175 27.4313V27.4313ZM31.7122 36.4087L30.9104 39.4019L31.9081 39.6688C33.2308 40.023 34.6399 39.8374 35.8257 39.1527C37.0115 38.468 37.8768 37.3404 38.2313 36.0178L39.0331 33.0257L38.0364 32.7578C37.3814 32.5822 36.6982 32.5374 36.0259 32.6259C35.3536 32.7144 34.7054 32.9344 34.1181 33.2735C33.5309 33.6125 33.0161 34.0638 32.6033 34.6018C32.1905 35.1398 31.8877 35.7537 31.7122 36.4087V36.4087ZM25.9128 46.082C25.8165 46.4756 25.8781 46.8913 26.0846 47.24C26.2911 47.5887 26.626 47.8426 27.0175 47.9474C27.4089 48.0521 27.8259 47.9993 28.1789 47.8003C28.5319 47.6013 28.7929 47.2719 28.906 46.8827L30.3755 41.3963L27.3834 40.5945L25.9128 46.082ZM30.9124 9.46745C31.3093 9.57371 31.7322 9.51798 32.088 9.31251C32.4438 9.10703 32.7035 8.76865 32.8099 8.37177L33.8795 4.38191C33.9361 4.18415 33.9528 3.9771 33.9285 3.77283C33.9042 3.56857 33.8395 3.37118 33.7382 3.19218C33.6368 3.01318 33.5009 2.85615 33.3382 2.73025C33.1755 2.60435 32.9894 2.5121 32.7907 2.45888C32.592 2.40565 32.3847 2.39252 32.1809 2.42025C31.9771 2.44798 31.7808 2.51601 31.6035 2.62038C31.4263 2.72475 31.2716 2.86337 31.1485 3.02815C31.0253 3.19293 30.9363 3.38057 30.8864 3.58014L29.8167 7.57C29.7104 7.96691 29.7662 8.38978 29.9717 8.7456C30.1771 9.10143 30.5155 9.36108 30.9124 9.46745V9.46745ZM44.7534 5.69254C44.3568 5.58654 43.9343 5.64229 43.5787 5.84754C43.2232 6.05278 42.9636 6.39075 42.857 6.78722L41.7873 10.7771C41.6888 11.1714 41.7491 11.5886 41.9554 11.9388C42.1616 12.289 42.4971 12.5442 42.8897 12.6494C43.2823 12.7545 43.7005 12.7013 44.0541 12.501C44.4078 12.3008 44.6686 11.9696 44.7804 11.5788L45.8491 7.58999C45.9554 7.19308 45.8996 6.77021 45.6942 6.41439C45.4887 6.05856 45.1503 5.79891 44.7534 5.69254V5.69254ZM36.0959 14.0631C36.4927 14.1694 36.9154 14.1138 37.2712 13.9086C37.627 13.7033 37.8868 13.3651 37.9934 12.9684L40.9325 1.9956C40.9922 1.79695 41.0114 1.58834 40.989 1.38213C40.9666 1.17592 40.903 0.976304 40.802 0.795123C40.7011 0.613942 40.5647 0.454881 40.4011 0.32737C40.2375 0.199858 40.05 0.106491 39.8496 0.0528034C39.6493 -0.000884011 39.4402 -0.0137989 39.2347 0.0148243C39.0293 0.0434475 38.8317 0.113026 38.6536 0.219436C38.4756 0.325845 38.3207 0.466919 38.1982 0.634295C38.0757 0.801671 37.988 0.991941 37.9404 1.19383L35.0012 12.1657C34.8949 12.5625 34.9505 12.9852 35.1558 13.341C35.3611 13.6968 35.6992 13.9565 36.0959 14.0631V14.0631Z" fill="#011E41"/>
</svg>
