<svg width="48" height="48" viewBox="0 0 48 48" fill="none" xmlns="http://www.w3.org/2000/svg">
<path d="M44.5149 7.35786L44.1419 6.98486C41.9102 4.75352 38.8837 3.5 35.7279 3.5C32.5721 3.5 29.5455 4.75352 27.3139 6.98486L23.9999 10.4999L20.6859 6.98486C18.4542 4.75352 15.4277 3.5 12.2719 3.5C9.11606 3.5 6.0895 4.75352 3.85786 6.98486L3.48486 7.35786C1.25352 9.5895 0 12.6161 0 15.7719C0 18.9277 1.25352 21.9542 3.48486 24.1859L23.1149 44.1329C23.3496 44.3675 23.668 44.4993 23.9999 44.4993C24.3318 44.4993 24.6501 44.3675 24.8849 44.1329L44.5149 24.1859C46.7462 21.9542 47.9997 18.9277 47.9997 15.7719C47.9997 12.6161 46.7462 9.5895 44.5149 7.35786V7.35786Z" fill="#011E41"/>
</svg>
