<svg width="48" height="48" viewBox="0 0 48 48" fill="none" xmlns="http://www.w3.org/2000/svg">
<path d="M46 18H2C1.47005 18.0016 0.962265 18.2128 0.587535 18.5875C0.212805 18.9623 0.00158273 19.4701 0 20L0 33.96C0.00158273 34.4899 0.212805 34.9977 0.587535 35.3725C0.962265 35.7472 1.47005 35.9584 2 35.96H8V29.99H40V35.96H46C46.5299 35.9584 47.0377 35.7472 47.4125 35.3725C47.7872 34.9977 47.9984 34.4899 48 33.96V20C47.9984 19.4701 47.7872 18.9623 47.4125 18.5875C47.0377 18.2128 46.5299 18.0016 46 18V18ZM32 25C31.6044 25 31.2178 24.8827 30.8889 24.6629C30.56 24.4432 30.3036 24.1308 30.1522 23.7654C30.0009 23.3999 29.9613 22.9978 30.0384 22.6098C30.1156 22.2219 30.3061 21.8655 30.5858 21.5858C30.8655 21.3061 31.2219 21.1156 31.6098 21.0384C31.9978 20.9613 32.3999 21.0009 32.7654 21.1522C33.1308 21.3036 33.4432 21.56 33.6629 21.8889C33.8827 22.2178 34 22.6044 34 23C33.9984 23.5299 33.7872 24.0377 33.4125 24.4125C33.0377 24.7872 32.5299 24.9984 32 25ZM38 25C37.6044 25 37.2178 24.8827 36.8889 24.6629C36.56 24.4432 36.3036 24.1308 36.1522 23.7654C36.0009 23.3999 35.9613 22.9978 36.0384 22.6098C36.1156 22.2219 36.3061 21.8655 36.5858 21.5858C36.8655 21.3061 37.2219 21.1156 37.6098 21.0384C37.9978 20.9613 38.3999 21.0009 38.7654 21.1522C39.1308 21.3036 39.4432 21.56 39.6629 21.8889C39.8827 22.2178 40 22.6044 40 23C39.9984 23.5299 39.7872 24.0377 39.4125 24.4125C39.0377 24.7872 38.5299 24.9984 38 25V25Z" fill="#011E41"/>
<path d="M11 35.96V44C11.0016 44.5299 11.2128 45.0377 11.5875 45.4125C11.9623 45.7872 12.4701 45.9984 13 46H35C35.5299 45.9984 36.0377 45.7872 36.4125 45.4125C36.7872 45.0377 36.9984 44.5299 37 44V32.99H11V35.96ZM37 9H33C32.2051 8.99763 31.4434 8.68079 30.8813 8.1187C30.3192 7.5566 30.0024 6.79492 30 6V2H13C12.4701 2.00158 11.9623 2.2128 11.5875 2.58753C11.2128 2.96227 11.0016 3.47005 11 4V16H37V9Z" fill="#011E41"/>
<path d="M33 7H37L32 2V6C32.0008 6.26497 32.1064 6.51887 32.2938 6.70623C32.4811 6.8936 32.735 6.99921 33 7V7Z" fill="#011E41"/>
</svg>
