<svg width="48" height="48" viewBox="0 0 48 48" fill="none" xmlns="http://www.w3.org/2000/svg">
<path d="M6.62074 31.2389C7.32975 31.7035 8.15339 31.963 9.00066 31.9889C9.10066 31.9989 9.21065 31.9989 9.33065 31.9989C10.2905 32.0293 11.2365 31.764 12.0406 31.2389C12.4497 31.0044 12.8739 30.7973 13.3105 30.6189C14.3727 30.1844 15.513 29.9734 16.6604 29.9989C18.2895 29.969 19.8941 30.3987 21.2902 31.2389C22.093 31.7668 23.0399 32.0324 24.0001 31.9989C24.9571 32.031 25.9004 31.7655 26.7 31.2389C28.0955 30.3973 29.7005 29.9674 31.3299 29.9989C32.4801 29.9773 33.6229 30.1882 34.6898 30.6189C35.1222 30.7992 35.543 31.0062 35.9497 31.2389C36.7538 31.764 37.6998 32.0293 38.6596 31.9989C39.111 32.0102 39.5619 31.9598 39.9996 31.8489C40.4842 31.7066 40.9481 31.5015 41.3795 31.2389C41.6095 31.1089 41.8495 30.9789 42.1195 30.8489C43.3637 28.2097 44.0059 25.327 43.9994 22.4092V13.9995C43.9986 13.7345 43.893 13.4807 43.7057 13.2933C43.5183 13.1059 43.2644 13.0003 42.9995 12.9995H5.0008C4.73584 13.0003 4.48195 13.1059 4.29459 13.2933C4.10723 13.4807 4.00163 13.7345 4.00084 13.9995V22.4092C3.99439 25.327 4.63652 28.2097 5.88077 30.8489C6.15076 30.9789 6.39075 31.1089 6.62074 31.2389V31.2389ZM10.0006 16.9994H37.9996V21.5892C38.031 23.4412 37.691 25.2807 36.9997 26.999H11.0006C10.3092 25.2807 9.96921 23.4412 10.0006 21.5892V16.9994ZM20.0003 3.99986H28C28.5304 3.99986 29.0391 3.78915 29.4142 3.41409C29.7892 3.03903 29.9999 2.53034 29.9999 1.99993C29.9999 1.46952 29.7892 0.960825 29.4142 0.585766C29.0391 0.210706 28.5304 0 28 0L20.0003 0C19.4699 0 18.9612 0.210706 18.5861 0.585766C18.211 0.960825 18.0003 1.46952 18.0003 1.99993C18.0003 2.53034 18.211 3.03903 18.5861 3.41409C18.9612 3.78915 19.4699 3.99986 20.0003 3.99986V3.99986ZM11.5006 10.9996H36.4997C37.1627 10.9996 37.7986 10.7362 38.2674 10.2674C38.7362 9.79858 38.9996 9.16272 38.9996 8.4997C38.9996 7.83668 38.7362 7.20082 38.2674 6.732C37.7986 6.26317 37.1627 5.99979 36.4997 5.99979H11.5006C10.8376 5.99979 10.2017 6.26317 9.73287 6.732C9.26404 7.20082 9.00066 7.83668 9.00066 8.4997C9.00066 9.16272 9.26404 9.79858 9.73287 10.2674C10.2017 10.7362 10.8376 10.9996 11.5006 10.9996ZM45.9994 41.9985C44.371 41.9661 42.7669 42.3975 41.3745 43.2425C40.5566 43.737 39.6189 43.9984 38.6631 43.9984C37.7073 43.9984 36.7697 43.737 35.9517 43.2425C34.559 42.3974 32.9546 41.9659 31.3259 41.9985C29.6981 41.966 28.0947 42.3975 26.703 43.2425C25.8989 43.7653 24.9538 44.0292 23.9951 43.9984C23.0361 44.0291 22.0908 43.7653 21.2862 43.2425C19.8938 42.3975 18.2898 41.9661 16.6614 41.9985C15.0333 41.9662 13.4296 42.3976 12.0376 43.2425C11.2337 43.7651 10.289 44.029 9.33065 43.9984C8.37262 44.0289 7.42826 43.7651 6.62474 43.2425C5.23262 42.3977 3.62896 41.9663 2.00091 41.9985C1.47049 41.9985 0.961802 42.2092 0.586742 42.5843C0.211683 42.9593 0.000976563 43.468 0.000976562 43.9984C0.000976563 44.5289 0.211683 45.0376 0.586742 45.4126C0.961802 45.7877 1.47049 45.9984 2.00091 45.9984C2.95926 45.9678 3.90398 46.2316 4.70781 46.7544C6.09934 47.5988 7.70226 48.0302 9.32965 47.9983C10.9577 48.0306 12.5614 47.5992 13.9535 46.7544C14.7576 46.2315 15.7027 45.9676 16.6614 45.9984C17.6207 45.9675 18.5665 46.2313 19.3713 46.7544C20.7631 47.599 22.3664 48.0304 23.9941 47.9983C25.6221 48.0301 27.2257 47.5987 28.618 46.7544C29.4353 46.2597 30.3725 45.9982 31.3279 45.9982C32.2833 45.9982 33.2204 46.2597 34.0378 46.7544C35.4429 47.5691 37.0383 47.9982 38.6626 47.9982C40.2869 47.9982 41.8823 47.5691 43.2874 46.7544C44.093 46.2313 45.0394 45.9675 45.9994 45.9984C46.5298 45.9984 47.0385 45.7877 47.4135 45.4126C47.7886 45.0376 47.9993 44.5289 47.9993 43.9984C47.9993 43.468 47.7886 42.9593 47.4135 42.5843C47.0385 42.2092 46.5298 41.9985 45.9994 41.9985ZM2.00091 37.9987C2.95926 37.9681 3.90398 38.2319 4.70781 38.7546C6.09934 39.5991 7.70226 40.0305 9.32965 39.9986C10.9577 40.0309 12.5614 39.5995 13.9535 38.7546C14.7576 38.2318 15.7027 37.9679 16.6614 37.9987C17.6207 37.9678 18.5665 38.2316 19.3713 38.7546C20.7631 39.5992 22.3664 40.0307 23.9941 39.9986C25.6221 40.0304 27.2257 39.599 28.618 38.7546C29.4353 38.26 30.3725 37.9985 31.3279 37.9985C32.2833 37.9985 33.2204 38.26 34.0378 38.7546C35.4429 39.5694 37.0383 39.9985 38.6626 39.9985C40.2869 39.9985 41.8823 39.5694 43.2874 38.7546C44.093 38.2316 45.0394 37.9678 45.9994 37.9987C46.5298 37.9987 47.0385 37.788 47.4135 37.4129C47.7886 37.0378 47.9993 36.5291 47.9993 35.9987C47.9993 35.4683 47.7886 34.9596 47.4135 34.5846C47.0385 34.2095 46.5298 33.9988 45.9994 33.9988C44.371 33.9663 42.7669 34.3978 41.3745 35.2428C40.5566 35.7373 39.6189 35.9987 38.6631 35.9987C37.7073 35.9987 36.7697 35.7373 35.9517 35.2428C34.559 34.3976 32.9546 33.9662 31.3259 33.9988C29.6981 33.9663 28.0947 34.3977 26.703 35.2428C25.8989 35.7656 24.9538 36.0295 23.9951 35.9987C23.0361 36.0294 22.0908 35.7656 21.2862 35.2428C19.8938 34.3978 18.2898 33.9663 16.6614 33.9988C15.0333 33.9665 13.4296 34.3979 12.0376 35.2428C11.2337 35.7654 10.289 36.0293 9.33065 35.9987C8.37262 36.0292 7.42826 35.7653 6.62474 35.2428C5.23262 34.398 3.62896 33.9666 2.00091 33.9988C1.47049 33.9988 0.961802 34.2095 0.586742 34.5846C0.211683 34.9596 0.000976563 35.4683 0.000976562 35.9987C0.000976563 36.5291 0.211683 37.0378 0.586742 37.4129C0.961802 37.788 1.47049 37.9987 2.00091 37.9987V37.9987Z" fill="#011E41"/>
</svg>
