<svg width="48" height="48" viewBox="0 0 48 48" fill="none" xmlns="http://www.w3.org/2000/svg">
<path d="M11.5 21.5C12.5878 21.5 13.6512 21.1774 14.5556 20.5731C15.4601 19.9687 16.1651 19.1098 16.5813 18.1048C16.9976 17.0998 17.1065 15.9939 16.8943 14.927C16.6821 13.8601 16.1583 12.8801 15.3891 12.1109C14.6199 11.3417 13.6399 10.8179 12.573 10.6057C11.5061 10.3935 10.4002 10.5024 9.39524 10.9187C8.39025 11.3349 7.53126 12.0399 6.92692 12.9444C6.32257 13.8488 6 14.9122 6 16C5.99961 16.7224 6.1416 17.4378 6.41786 18.1052C6.69412 18.7727 7.09923 19.3792 7.61003 19.89C8.12083 20.4008 8.72731 20.8059 9.39477 21.0821C10.0622 21.3584 10.7776 21.5004 11.5 21.5V21.5ZM11.5 14.5C11.7967 14.5 12.0867 14.588 12.3334 14.7528C12.58 14.9176 12.7723 15.1519 12.8858 15.426C12.9994 15.7001 13.0291 16.0017 12.9712 16.2926C12.9133 16.5836 12.7704 16.8509 12.5607 17.0607C12.3509 17.2704 12.0836 17.4133 11.7926 17.4712C11.5017 17.5291 11.2001 17.4994 10.926 17.3858C10.6519 17.2723 10.4176 17.08 10.2528 16.8334C10.088 16.5867 10 16.2967 10 16C9.99974 15.8029 10.0384 15.6078 10.1136 15.4257C10.1889 15.2436 10.2994 15.0781 10.4388 14.9388C10.5781 14.7994 10.7436 14.6889 10.9257 14.6136C11.1078 14.5384 11.3029 14.4997 11.5 14.5V14.5ZM28.5 20.5C30.1811 20.5 31.8245 20.0015 33.2223 19.0675C34.6202 18.1335 35.7096 16.806 36.353 15.2528C36.9963 13.6996 37.1646 11.9906 36.8367 10.3417C36.5087 8.6929 35.6992 7.17834 34.5104 5.9896C33.3217 4.80085 31.8071 3.9913 30.1583 3.66333C28.5094 3.33535 26.8004 3.50368 25.2472 4.14703C23.694 4.79037 22.3665 5.87984 21.4325 7.27766C20.4985 8.67547 20 10.3189 20 12C20.0016 14.2539 20.8976 16.4149 22.4913 18.0087C24.0851 19.6024 26.2461 20.4984 28.5 20.5V20.5ZM28.5 9.5C28.9945 9.5 29.4778 9.64663 29.8889 9.92133C30.3 10.196 30.6205 10.5865 30.8097 11.0433C30.9989 11.5001 31.0484 12.0028 30.952 12.4877C30.8555 12.9727 30.6174 13.4181 30.2678 13.7678C29.9181 14.1174 29.4727 14.3555 28.9877 14.452C28.5028 14.5484 28.0001 14.4989 27.5433 14.3097C27.0865 14.1205 26.696 13.8001 26.4213 13.3889C26.1466 12.9778 26 12.4945 26 12C26 11.337 26.2634 10.7011 26.7322 10.2322C27.2011 9.7634 27.837 9.5 28.5 9.5ZM46.804 27.52L38 29.5V26.5C37.9984 25.9701 37.7872 25.4623 37.4125 25.0875C37.0377 24.7128 36.5299 24.5016 36 24.5H6C5.47005 24.5016 4.96227 24.7128 4.58753 25.0875C4.2128 25.4623 4.00158 25.9701 4 26.5V27.5H2C1.46957 27.5 0.960859 27.7107 0.585786 28.0858C0.210714 28.4609 0 28.9696 0 29.5L0 30.1C0 30.6304 0.210714 31.1391 0.585786 31.5142C0.960859 31.8893 1.46957 32.1 2 32.1H4V42.5C4.00158 43.03 4.2128 43.5377 4.58753 43.9125C4.96227 44.2872 5.47005 44.4984 6 44.5H36C36.5299 44.4984 37.0377 44.2872 37.4125 43.9125C37.7872 43.5377 37.9984 43.03 38 42.5V38.5L46.804 40.48C46.949 40.509 47.0987 40.5054 47.2422 40.4696C47.3856 40.4338 47.5194 40.3666 47.6338 40.2729C47.7482 40.1792 47.8404 40.0612 47.9037 39.9276C47.967 39.7939 47.9999 39.6479 48 39.5V28.5C47.9999 28.3521 47.967 28.2061 47.9037 28.0724C47.8404 27.9388 47.7482 27.8208 47.6338 27.7271C47.5194 27.6334 47.3856 27.5662 47.2422 27.5304C47.0987 27.4946 46.949 27.491 46.804 27.52ZM18 37.5C17.9984 38.03 17.7872 38.5377 17.4125 38.9125C17.0377 39.2872 16.5299 39.4984 16 39.5H10C9.47005 39.4984 8.96227 39.2872 8.58753 38.9125C8.2128 38.5377 8.00158 38.03 8 37.5V35.5C8.00158 34.9701 8.2128 34.4623 8.58753 34.0875C8.96227 33.7128 9.47005 33.5016 10 33.5H16C16.5299 33.5016 17.0377 33.7128 17.4125 34.0875C17.7872 34.4623 17.9984 34.9701 18 35.5V37.5Z" fill="#011E41"/>
</svg>
