<svg width="48" height="48" viewBox="0 0 48 48" fill="none" xmlns="http://www.w3.org/2000/svg">
<path d="M43.7946 0H4.20264C3.76758 0.000251024 3.34237 0.129486 2.98075 0.371367C2.61914 0.613249 2.33736 0.956915 2.17103 1.35892C2.00471 1.76093 1.96131 2.20322 2.04632 2.62989C2.13133 3.05656 2.34094 3.44844 2.64864 3.756L19.9986 22.19V48H27.9986V22.19L45.3496 3.756C45.6574 3.44838 45.867 3.05641 45.952 2.62964C46.037 2.20288 45.9935 1.76051 45.8271 1.35846C45.6606 0.956413 45.3787 0.612756 45.0169 0.370951C44.6551 0.129146 44.2298 5.33511e-05 43.7946 0V0Z" fill="#011E41"/>
</svg>
