<svg width="48" height="48" viewBox="0 0 48 48" fill="none" xmlns="http://www.w3.org/2000/svg">
<path d="M24.4301 0.21028C24.3791 0.144801 24.3139 0.0918227 24.2393 0.0553822C24.1647 0.0189417 24.0828 0 23.9998 0C23.9168 0 23.8349 0.0189417 23.7604 0.0553822C23.6858 0.0918227 23.6206 0.144801 23.5696 0.21028C20.9279 3.53235 6.98926 22.4741 6.98926 30.9894C6.98926 35.5009 8.78144 39.8276 11.9715 43.0177C15.1616 46.2078 19.4884 48 23.9998 48C28.5113 48 32.838 46.2078 36.0281 43.0177C39.2182 39.8276 41.0104 35.5009 41.0104 30.9894C41.0104 22.4741 27.0717 3.53235 24.4301 0.21028ZM23.9998 43.0269C22.9506 43.0289 21.9112 42.8242 20.9411 42.4245C19.9709 42.0247 19.089 41.4379 18.3457 40.6973C17.6023 39.9568 17.0122 39.0771 16.6088 38.1084C16.2054 37.1398 15.9968 36.1012 15.9949 35.0519C15.9949 31.0695 22.5489 22.6642 23.7997 21.1133C23.8235 21.0829 23.8539 21.0584 23.8885 21.0415C23.9232 21.0246 23.9613 21.0158 23.9998 21.0158C24.0384 21.0158 24.0765 21.0246 24.1111 21.0415C24.1458 21.0584 24.1762 21.0829 24.2 21.1133C25.4407 22.6642 32.0048 31.0695 32.0048 35.0519C32.0028 36.1012 31.7942 37.1398 31.3909 38.1084C30.9875 39.0771 30.3973 39.9568 29.654 40.6973C28.9107 41.4379 28.0288 42.0247 27.0586 42.4245C26.0885 42.8242 25.0491 43.0289 23.9998 43.0269V43.0269Z" fill="#011E41"/>
</svg>
