<svg width="48" height="48" viewBox="0 0 48 48" fill="none" xmlns="http://www.w3.org/2000/svg">
<path d="M47.5129 22.9985C42 18.8969 35.4108 16.492 28.5521 16.0782L23.9919 13.4481C23.4565 13.1353 22.8439 12.9792 22.2241 12.9975C21.6043 13.0159 21.002 13.2081 20.4861 13.552C19.9701 13.896 19.5611 14.378 19.3058 14.9431C19.0504 15.5082 18.9589 16.1336 19.0417 16.7482C15.4588 17.4982 12.0143 18.8005 8.83131 20.6084L3.15108 19.0883C2.83392 19.0029 2.50306 18.9809 2.17738 19.0234C1.8517 19.0659 1.53758 19.1721 1.25296 19.336C0.678136 19.667 0.258352 20.2128 0.0859545 20.8534C-0.0864431 21.4939 0.00266721 22.1767 0.333682 22.7515C0.664697 23.3263 1.2105 23.7461 1.85103 23.9185L2.17104 23.9985L1.85103 24.0785C1.2105 24.2509 0.664697 24.6707 0.333682 25.2455C0.00266721 25.8203 -0.0864431 26.5031 0.0859545 27.1436C0.258352 27.7841 0.678136 28.3299 1.25296 28.661C1.82778 28.992 2.51055 29.0811 3.15108 28.9087L8.83131 27.3886C12.0411 29.212 15.5167 30.5212 19.1317 31.2688C18.945 31.8877 18.9705 32.5513 19.2043 33.1541C19.4381 33.7568 19.8667 34.2641 20.422 34.5952C20.9773 34.9263 21.6274 35.0622 22.2688 34.9814C22.9102 34.9005 23.5062 34.6075 23.9619 34.1489L26.122 31.9988H26.332C33.9616 32.0053 41.3898 29.5503 47.5129 24.9985C47.6646 24.8797 47.7873 24.7279 47.8717 24.5547C47.9561 24.3814 48 24.1912 48 23.9985C48 23.8058 47.9561 23.6156 47.8717 23.4423C47.7873 23.269 47.6646 23.1173 47.5129 22.9985V22.9985ZM37.0024 23.9985C36.6069 23.9985 36.2202 23.8812 35.8913 23.6614C35.5623 23.4416 35.306 23.1293 35.1546 22.7638C35.0032 22.3983 34.9636 21.9962 35.0408 21.6082C35.118 21.2202 35.3085 20.8639 35.5882 20.5841C35.8679 20.3044 36.2243 20.1139 36.6122 20.0368C37.0002 19.9596 37.4024 19.9992 37.7678 20.1506C38.1333 20.302 38.4457 20.5583 38.6654 20.8872C38.8852 21.2161 39.0025 21.6028 39.0025 21.9984C39.0009 22.5284 38.7897 23.0362 38.415 23.4109C38.0402 23.7857 37.5324 23.9969 37.0024 23.9985V23.9985Z" fill="#011E41"/>
</svg>
