<svg width="48" height="48" viewBox="0 0 48 48" fill="none" xmlns="http://www.w3.org/2000/svg">
<path d="M1.50914 9.01466H12.8834L9.44482 12.4532C9.30168 12.5916 9.18754 12.7571 9.10904 12.9401C9.03055 13.123 8.98928 13.3198 8.98765 13.5189C8.98601 13.718 9.02404 13.9154 9.09952 14.0996C9.17499 14.2839 9.2864 14.4512 9.42725 14.5919C9.5681 14.7326 9.73556 14.8439 9.91986 14.9192C10.1042 14.9945 10.3016 15.0323 10.5007 15.0305C10.6998 15.0287 10.8965 14.9872 11.0794 14.9086C11.2623 14.8299 11.4277 14.7156 11.5659 14.5723L17.5634 8.57485C17.8442 8.29372 18.0019 7.91263 18.0019 7.51529C18.0019 7.11796 17.8442 6.73687 17.5634 6.45573L11.5659 0.458243C11.4277 0.314973 11.2623 0.200671 11.0794 0.122006C10.8965 0.0433399 10.6998 0.0018861 10.5007 6.28774e-05C10.3016 -0.00176034 10.1042 0.0360836 9.91986 0.111386C9.73556 0.186689 9.5681 0.297943 9.42725 0.438656C9.2864 0.57937 9.17499 0.746724 9.09952 0.930955C9.02404 1.11519 8.98601 1.3126 8.98765 1.51169C8.98928 1.71078 9.03055 1.90754 9.10904 2.09051C9.18754 2.27347 9.30168 2.43898 9.44482 2.57736L12.8844 6.01592H1.50914C1.11148 6.01592 0.730109 6.17389 0.448922 6.45507C0.167735 6.73626 0.00976563 7.11763 0.00976563 7.51529C0.00976563 7.91295 0.167735 8.29432 0.448922 8.57551C0.730109 8.8567 1.11148 9.01466 1.50914 9.01466V9.01466ZM47.8098 12.0134L33.1559 0.0784014C33.1116 0.0396669 33.0548 0.0183172 32.996 0.0183172C32.9371 0.0183172 32.8803 0.0396669 32.836 0.0784014L18.1822 12.0134C18.1278 12.061 18.0837 12.1193 18.0528 12.1846C18.0218 12.25 18.0046 12.321 18.0022 12.3933V30.0958C19.1645 30.2542 20.283 30.6452 21.2909 31.2454C22.0933 31.7731 23.0399 32.0386 23.9997 32.005C24.9563 32.0372 25.8993 31.7718 26.6986 31.2454C28.0936 30.4042 29.698 29.9745 31.3267 30.0059C32.9522 29.9742 34.5535 30.4039 35.9447 31.2454C36.7628 31.7422 37.7015 32.005 38.6586 32.005C39.6157 32.005 40.5544 31.7422 41.3725 31.2454C42.7637 30.4039 44.365 29.9742 45.9905 30.0059C46.6621 30.0011 47.3323 30.0681 47.9897 30.2058V12.3933C47.9873 12.321 47.9701 12.25 47.9392 12.1846C47.9082 12.1193 47.8642 12.061 47.8098 12.0134V12.0134ZM45.9905 42.0009C44.365 41.9692 42.7637 42.3989 41.3725 43.2404C40.5544 43.7372 39.6157 43.9999 38.6586 43.9999C37.7015 43.9999 36.7628 43.7372 35.9447 43.2404C34.5535 42.3989 32.9522 41.9692 31.3267 42.0009C29.698 41.9695 28.0936 42.3992 26.6986 43.2404C25.8993 43.7668 24.9563 44.0322 23.9997 44C23.0399 44.0336 22.0933 43.7681 21.2909 43.2404C19.8952 42.4006 18.2913 41.9711 16.6628 42.0009C15.0372 41.9692 13.436 42.3989 12.0447 43.2404C11.241 43.7653 10.2953 44.0305 9.33587 44C8.37638 44.0305 7.43072 43.7653 6.627 43.2404C5.23577 42.3989 3.63451 41.9692 2.00893 42.0009C1.47872 42.0009 0.970223 42.2115 0.595307 42.5864C0.220391 42.9613 0.00976563 43.4698 0.00976562 44C0.00976563 44.5302 0.220391 45.0387 0.595307 45.4137C0.970223 45.7886 1.47872 45.9992 2.00893 45.9992C2.96842 45.9687 3.9141 46.2339 4.7178 46.7589C6.10905 47.6002 7.71029 48.03 9.33587 47.9984C10.9614 48.0301 12.5627 47.6003 13.9539 46.7589C14.7577 46.2339 15.7033 45.9687 16.6628 45.9992C17.6225 45.9672 18.5686 46.2325 19.3717 46.7589C20.7667 47.6 22.371 48.0297 23.9997 47.9984C25.6251 48.0285 27.2259 47.5988 28.6178 46.7589C29.434 46.262 30.3711 45.9993 31.3267 45.9993C32.2822 45.9993 33.2193 46.262 34.0355 46.7589C35.441 47.5709 37.0355 47.9984 38.6586 47.9984C40.2817 47.9984 41.8762 47.5709 43.2817 46.7589C44.0847 46.2325 45.0309 45.9672 45.9905 45.9992C46.5207 45.9992 47.0292 45.7886 47.4042 45.4137C47.7791 45.0387 47.9897 44.5302 47.9897 44C47.9897 43.4698 47.7791 42.9613 47.4042 42.5864C47.0292 42.2115 46.5207 42.0009 45.9905 42.0009ZM45.9905 34.0042C44.3628 33.972 42.7594 34.4033 41.3675 35.2477C40.5498 35.742 39.6126 36.0033 38.6571 36.0033C37.7016 36.0033 36.7644 35.742 35.9467 35.2477C34.5545 34.4031 32.9508 33.9718 31.3227 34.0042C29.6955 33.9719 28.0928 34.4032 26.7016 35.2477C25.8978 35.7704 24.9531 36.0341 23.9947 36.0034C23.0361 36.034 22.0911 35.7703 21.2869 35.2477C19.8949 34.4033 18.2915 33.972 16.6638 34.0042C15.0364 33.9721 13.4334 34.4034 12.0417 35.2477C11.2382 35.7702 10.2938 36.0339 9.33587 36.0034C8.37831 36.0341 7.43433 35.7707 6.631 35.2487C5.2397 34.4035 3.63652 33.9718 2.00893 34.0042C1.47872 34.0042 0.970223 34.2148 0.595307 34.5898C0.220391 34.9647 0.00976563 35.4732 0.00976562 36.0034C0.00976563 36.5336 0.220391 37.0421 0.595307 37.417C0.970223 37.7919 1.47872 38.0025 2.00893 38.0025C2.96692 37.972 3.91127 38.2357 4.7148 38.7582C6.10568 39.6026 7.70807 40.0339 9.33487 40.0017C10.9623 40.0338 12.5653 39.6025 13.9569 38.7582C14.7608 38.2356 15.7055 37.9718 16.6638 38.0025C17.6228 37.9717 18.5682 38.2354 19.3727 38.7582C20.7641 39.6023 22.3667 40.0335 23.9937 40.0017C25.6213 40.0338 27.2244 39.6022 28.6158 38.7572C29.4329 38.263 30.3697 38.0017 31.3247 38.0017C32.2796 38.0017 33.2164 38.263 34.0335 38.7572C35.4381 39.5717 37.033 40.0006 38.6566 40.0006C40.2802 40.0006 41.8751 39.5717 43.2797 38.7572C44.085 38.2347 45.031 37.9713 45.9905 38.0025C46.5207 38.0025 47.0292 37.7919 47.4042 37.417C47.7791 37.0421 47.9897 36.5336 47.9897 36.0034C47.9897 35.4732 47.7791 34.9647 47.4042 34.5898C47.0292 34.2148 46.5207 34.0042 45.9905 34.0042Z" fill="#011E41"/>
</svg>
