<svg width="48" height="48" viewBox="0 0 48 48" fill="none" xmlns="http://www.w3.org/2000/svg">
<path d="M36 7H12C10.9401 7.00317 9.92453 7.42561 9.17507 8.17507C8.42561 8.92453 8.00317 9.94011 8 11V44C8.00317 45.0599 8.42561 46.0755 9.17507 46.8249C9.92453 47.5744 10.9401 47.9968 12 48H36C37.0599 47.9968 38.0755 47.5744 38.8249 46.8249C39.5744 46.0755 39.9968 45.0599 40 44V11C39.9968 9.94011 39.5744 8.92453 38.8249 8.17507C38.0755 7.42561 37.0599 7.00317 36 7V7ZM22 12C22.0016 11.4701 22.2128 10.9623 22.5875 10.5875C22.9623 10.2128 23.4701 10.0016 24 10C24.5292 10.0039 25.0357 10.2159 25.4099 10.5901C25.7841 10.9643 25.9961 11.4708 26 12V15C26 15.5304 25.7893 16.0391 25.4142 16.4142C25.0391 16.7893 24.5304 17 24 17C23.4696 17 22.9609 16.7893 22.5858 16.4142C22.2107 16.0391 22 15.5304 22 15V12ZM17 16H17.2C18.473 16.0003 19.6937 16.5061 20.5938 17.4062C21.4939 18.3063 21.9997 19.527 22 20.8V23H21.8C20.527 22.9997 19.3063 22.4939 18.4062 21.5938C17.5061 20.6937 17.0003 19.473 17 18.2V16ZM17 24H17.2C18.473 24.0003 19.6937 24.5061 20.5938 25.4062C21.4939 26.3063 21.9997 27.527 22 28.8V31H21.8C20.527 30.9997 19.3063 30.4939 18.4062 29.5938C17.5061 28.6937 17.0003 27.473 17 26.2V24ZM17 34.2V32H17.2C18.473 32.0003 19.6937 32.5061 20.5938 33.4062C21.4939 34.3063 21.9997 35.527 22 36.8V39H21.8C20.527 38.9997 19.3063 38.4939 18.4062 37.5938C17.5061 36.6937 17.0003 35.473 17 34.2V34.2ZM26 43C26 43.5304 25.7893 44.0391 25.4142 44.4142C25.0391 44.7893 24.5304 45 24 45C23.4696 45 22.9609 44.7893 22.5858 44.4142C22.2107 44.0391 22 43.5304 22 43V41.5C21.9993 41.4342 22.0118 41.3688 22.0367 41.3079C22.0616 41.2469 22.0984 41.1915 22.145 41.145C22.1915 41.0984 22.2469 41.0616 22.3079 41.0367C22.3688 41.0118 22.4342 40.9993 22.5 41H25.5C25.5658 40.9993 25.6312 41.0118 25.6921 41.0367C25.7531 41.0616 25.8085 41.0984 25.855 41.145C25.9016 41.1915 25.9384 41.2469 25.9633 41.3079C25.9882 41.3688 26.0007 41.4342 26 41.5V43ZM31 34.2C30.9997 35.473 30.4939 36.6937 29.5938 37.5938C28.6937 38.4939 27.473 38.9997 26.2 39H26V36.8C26.0003 35.527 26.5061 34.3063 27.4062 33.4062C28.3063 32.5061 29.527 32.0003 30.8 32H31V34.2ZM31 26.2C30.9997 27.473 30.4939 28.6937 29.5938 29.5938C28.6937 30.4939 27.473 30.9997 26.2 31H26V28.8C26.0003 27.527 26.5061 26.3063 27.4062 25.4062C28.3063 24.5061 29.527 24.0003 30.8 24H31V26.2ZM31 18.2C30.9997 19.473 30.4939 20.6937 29.5938 21.5938C28.6937 22.4939 27.473 22.9997 26.2 23H26V20.8C26.0003 19.527 26.5061 18.3063 27.4062 17.4062C28.3063 16.5061 29.527 16.0003 30.8 16H31V18.2ZM12.5 5H35.5C36.163 5 36.7989 4.73661 37.2678 4.26777C37.7366 3.79893 38 3.16304 38 2.5C38 1.83696 37.7366 1.20107 37.2678 0.732233C36.7989 0.263392 36.163 0 35.5 0L12.5 0C11.837 0 11.2011 0.263392 10.7322 0.732233C10.2634 1.20107 10 1.83696 10 2.5C10 3.16304 10.2634 3.79893 10.7322 4.26777C11.2011 4.73661 11.837 5 12.5 5V5Z" fill="#011E41"/>
</svg>
