<svg width="48" height="48" viewBox="0 0 48 48" fill="none" xmlns="http://www.w3.org/2000/svg">
<path fill-rule="evenodd" clip-rule="evenodd" d="M9 14H31C31.265 14.0008 31.5189 14.1064 31.7062 14.2938C31.8936 14.4811 31.9992 14.735 32 15V47C31.9992 47.265 31.8936 47.5189 31.7062 47.7062C31.5189 47.8936 31.265 47.9992 31 48H9C8.73503 47.9992 8.48113 47.8936 8.29377 47.7062C8.1064 47.5189 8.00079 47.265 8 47V15C8.00079 14.735 8.1064 14.4811 8.29377 14.2938C8.48113 14.1064 8.73503 14.0008 9 14ZM12 39H28C28.2652 39 28.5196 38.8946 28.7071 38.7071C28.8946 38.5196 29 38.2652 29 38C29 37.7348 28.8946 37.4804 28.7071 37.2929C28.5196 37.1054 28.2652 37 28 37H12C11.7348 37 11.4804 37.1054 11.2929 37.2929C11.1054 37.4804 11 37.7348 11 38C11 38.2652 11.1054 38.5196 11.2929 38.7071C11.4804 38.8946 11.7348 39 12 39ZM11.2929 33.7071C11.4804 33.8946 11.7348 34 12 34H28C28.2652 34 28.5196 33.8946 28.7071 33.7071C28.8946 33.5196 29 33.2652 29 33C29 32.7348 28.8946 32.4804 28.7071 32.2929C28.5196 32.1054 28.2652 32 28 32H12C11.7348 32 11.4804 32.1054 11.2929 32.2929C11.1054 32.4804 11 32.7348 11 33C11 33.2652 11.1054 33.5196 11.2929 33.7071ZM11.9998 18.9998C11.4475 18.9998 10.9998 19.4476 10.9998 19.9998V27.9998C10.9998 28.5521 11.4475 28.9998 11.9998 28.9998H27.9998C28.552 28.9998 28.9998 28.5521 28.9998 27.9998V19.9998C28.9998 19.4476 28.552 18.9998 27.9998 18.9998H11.9998Z" fill="#011E41"/>
<path fill-rule="evenodd" clip-rule="evenodd" d="M33 34H43C43.265 33.9992 43.5189 33.8936 43.7062 33.7062C43.8936 33.5189 43.9992 33.265 44 33V1C43.9992 0.735027 43.8936 0.481133 43.7062 0.293766C43.5189 0.1064 43.265 0.000789642 43 0H21C20.735 0.000789642 20.4811 0.1064 20.2938 0.293766C20.1064 0.481133 20.0008 0.735027 20 1V13H32C32.5523 13 33 13.4477 33 14H40C40.2652 14 40.5196 14.1054 40.7071 14.2929C40.8946 14.4804 41 14.7348 41 15C41 15.2652 40.8946 15.5196 40.7071 15.7071C40.5196 15.8946 40.2652 16 40 16H33V19.0002H40.0002C40.5525 19.0002 41.0002 19.4479 41.0002 20.0002V28.0002C41.0002 28.5524 40.5525 29.0002 40.0002 29.0002H33V34ZM24 9H40C40.2652 9 40.5196 9.10536 40.7071 9.29289C40.8946 9.48043 41 9.73478 41 10C41 10.2652 40.8946 10.5196 40.7071 10.7071C40.5196 10.8946 40.2652 11 40 11H24C23.7348 11 23.4804 10.8946 23.2929 10.7071C23.1054 10.5196 23 10.2652 23 10C23 9.73478 23.1054 9.48043 23.2929 9.29289C23.4804 9.10536 23.7348 9 24 9Z" fill="#011E41"/>
</svg>
