<svg width="102" height="42" viewBox="0 0 102 42" fill="none" xmlns="http://www.w3.org/2000/svg">
<g clip-path="url(#clip0_1467_5615)">
<path d="M0 23.9999C0 27.4477 1.36964 30.7543 3.80761 33.1923C6.24558 35.6303 9.55219 36.9999 13 36.9999H35C38.4472 36.9978 41.7525 35.6275 44.19 33.19C46.6276 30.7524 47.9979 27.4471 48 23.9999H0ZM15.04 20.9999H47C46.9992 20.0792 46.817 19.1677 46.4636 18.3174C46.1103 17.4672 45.5929 16.695 44.9409 16.0448C44.2889 15.3947 43.5152 14.8795 42.664 14.5286C41.8128 14.1777 40.9007 13.9981 39.98 13.9999H39.975C39.8957 12.9376 39.5559 11.9113 38.9856 11.0116C38.4154 10.1119 37.6322 9.3665 36.7055 8.84137C35.7787 8.31625 34.7368 8.02754 33.6719 8.00077C32.6071 7.97401 31.552 8.21 30.6 8.6879C30.1222 7.31808 29.2301 6.13082 28.0473 5.29071C26.8646 4.4506 25.4498 3.99927 23.999 3.99927C22.5482 3.99927 21.1334 4.4506 19.9507 5.29071C18.7679 6.13082 17.8758 7.31808 17.398 8.6879C16.4461 8.21044 15.3912 7.97479 14.3266 8.00178C13.262 8.02876 12.2204 8.31755 11.2939 8.84263C10.3674 9.36771 9.58454 10.1129 9.0144 11.0124C8.44427 11.9119 8.10446 12.9379 8.025 13.9999H8.02C7.09929 13.9981 6.18724 14.1777 5.33601 14.5286C4.48477 14.8795 3.71105 15.3947 3.05908 16.0448C2.40711 16.695 1.88967 17.4672 1.53636 18.3174C1.18305 19.1677 1.00079 20.0792 1 20.9999H15.04Z" fill="#011E41"/>
</g>
<g clip-path="url(#clip1_1467_5615)">
<path d="M78 5C79.3259 4.99947 80.5974 4.47252 81.5349 3.53495C82.4725 2.59738 82.9995 1.32592 83 0L73 0C73.0005 1.32592 73.5275 2.59738 74.4651 3.53495C75.4026 4.47252 76.6741 4.99947 78 5V5Z" fill="#011E41"/>
<path d="M101.7 10.31L92.01 1L91.26 0.28C91.0691 0.103634 90.8199 0.00392951 90.56 0L85 0C84.9979 1.85587 84.2597 3.63511 82.9474 4.94741C81.6351 6.2597 79.8559 6.99788 78 7C76.1442 6.99788 74.3649 6.2597 73.0526 4.94741C71.7403 3.63511 71.0021 1.85587 71 0L65.44 0C65.1802 0.00392951 64.9309 0.103634 64.74 0.28L63.99 1L54.3 10.31C54.205 10.4033 54.1296 10.5145 54.078 10.6373C54.0265 10.7601 54 10.8919 54 11.025C54 11.1581 54.0265 11.2899 54.078 11.4127C54.1296 11.5355 54.205 11.6467 54.3 11.74L60.41 17.71C60.5972 17.8928 60.8484 17.9951 61.11 17.9951C61.3716 17.9951 61.6228 17.8928 61.81 17.71L66 14V41C66.0008 41.265 66.1064 41.5189 66.2938 41.7062C66.4812 41.8936 66.735 41.9992 67 42H89C89.265 41.9992 89.5189 41.8936 89.7063 41.7062C89.8936 41.5189 89.9992 41.265 90 41V14L94.19 17.71C94.3772 17.8928 94.6284 17.9951 94.89 17.9951C95.1516 17.9951 95.4028 17.8928 95.59 17.71L101.7 11.74C101.795 11.6467 101.87 11.5355 101.922 11.4127C101.974 11.2899 102 11.1581 102 11.025C102 10.8919 101.974 10.7601 101.922 10.6373C101.87 10.5145 101.795 10.4033 101.7 10.31V10.31Z" fill="#011E41"/>
</g>
<defs>
<clipPath id="clip0_1467_5615">
<rect width="48" height="33" fill="white" transform="translate(0 4)"/>
</clipPath>
<clipPath id="clip1_1467_5615">
<rect width="48" height="42" fill="white" transform="translate(54)"/>
</clipPath>
</defs>
</svg>
