<svg width="48" height="33" viewBox="0 0 48 33" fill="none" xmlns="http://www.w3.org/2000/svg">
<g clip-path="url(#clip0_1465_5611)">
<path d="M0 19.9999C0 23.4477 1.36964 26.7543 3.80761 29.1923C6.24558 31.6303 9.55219 32.9999 13 32.9999H35C38.4472 32.9978 41.7525 31.6275 44.19 29.19C46.6276 26.7524 47.9979 23.4471 48 19.9999H0ZM15.04 16.9999H47C46.9992 16.0792 46.817 15.1677 46.4636 14.3174C46.1103 13.4672 45.5929 12.695 44.9409 12.0448C44.2889 11.3947 43.5152 10.8795 42.664 10.5286C41.8128 10.1777 40.9007 9.99806 39.98 9.9999H39.975C39.8957 8.93765 39.5559 7.9113 38.9856 7.01158C38.4154 6.11187 37.6322 5.3665 36.7055 4.84137C35.7787 4.31625 34.7368 4.02754 33.6719 4.00077C32.6071 3.97401 31.552 4.21 30.6 4.6879C30.1222 3.31808 29.2301 2.13082 28.0473 1.29071C26.8646 0.450604 25.4498 -0.000732422 23.999 -0.000732422C22.5482 -0.000732422 21.1334 0.450604 19.9507 1.29071C18.7679 2.13082 17.8758 3.31808 17.398 4.6879C16.4461 4.21044 15.3912 3.97479 14.3266 4.00178C13.262 4.02876 12.2204 4.31755 11.2939 4.84263C10.3674 5.36771 9.58454 6.11291 9.0144 7.01239C8.44427 7.91187 8.10446 8.93793 8.025 9.9999H8.02C7.09929 9.99806 6.18724 10.1777 5.33601 10.5286C4.48477 10.8795 3.71105 11.3947 3.05908 12.0448C2.40711 12.695 1.88967 13.4672 1.53636 14.3174C1.18305 15.1677 1.00079 16.0792 1 16.9999H15.04Z" fill="#011E41"/>
</g>
<defs>
<clipPath id="clip0_1465_5611">
<rect width="48" height="33" fill="white"/>
</clipPath>
</defs>
</svg>
