<svg width="48" height="48" viewBox="0 0 48 48" fill="none" xmlns="http://www.w3.org/2000/svg">
<path d="M0 27.5006C0 30.9484 1.36964 34.2551 3.80761 36.693C6.24558 39.131 9.55219 40.5006 13 40.5006H35C38.4472 40.4985 41.7525 39.1282 44.19 36.6907C46.6276 34.2532 47.9979 30.9478 48 27.5006H0ZM15.04 24.5006H47C46.9992 23.5799 46.817 22.6684 46.4636 21.8182C46.1103 20.9679 45.5929 20.1957 44.9409 19.5456C44.2889 18.8955 43.5152 18.3802 42.664 18.0293C41.8128 17.6785 40.9007 17.4988 39.98 17.5006H39.975C39.8957 16.4384 39.5559 15.412 38.9856 14.5123C38.4154 13.6126 37.6322 12.8672 36.7055 12.3421C35.7787 11.817 34.7368 11.5283 33.6719 11.5015C32.6071 11.4747 31.552 11.7107 30.6 12.1886C30.1222 10.8188 29.2301 9.63155 28.0473 8.79144C26.8646 7.95134 25.4498 7.5 23.999 7.5C22.5482 7.5 21.1334 7.95134 19.9507 8.79144C18.7679 9.63155 17.8758 10.8188 17.398 12.1886C16.4461 11.7112 15.3912 11.4755 14.3266 11.5025C13.262 11.5295 12.2204 11.8183 11.2939 12.3434C10.3674 12.8684 9.58454 13.6136 9.0144 14.5131C8.44427 15.4126 8.10446 16.4387 8.025 17.5006H8.02C7.09929 17.4988 6.18724 17.6785 5.33601 18.0293C4.48477 18.3802 3.71105 18.8955 3.05908 19.5456C2.40711 20.1957 1.88967 20.9679 1.53636 21.8182C1.18305 22.6684 1.00079 23.5799 1 24.5006H15.04Z" fill="#011E41"/>
</svg>
