<svg width="48" height="48" viewBox="0 0 48 48" fill="none" xmlns="http://www.w3.org/2000/svg">
<path d="M38 6H10C9.47005 6.00158 8.96227 6.2128 8.58753 6.58753C8.2128 6.96227 8.00158 7.47005 8 8V30H40V8C39.9984 7.47005 39.7872 6.96227 39.4125 6.58753C39.0377 6.2128 38.5299 6.00158 38 6V6ZM19 11C19 10.7348 19.1054 10.4804 19.2929 10.2929C19.4804 10.1054 19.7348 10 20 10C20.2652 10 20.5196 10.1054 20.7071 10.2929C20.8946 10.4804 21 10.7348 21 11V14C21 14.2652 20.8946 14.5196 20.7071 14.7071C20.5196 14.8946 20.2652 15 20 15C19.7348 15 19.4804 14.8946 19.2929 14.7071C19.1054 14.5196 19 14.2652 19 14V11ZM23 28H22.87C22.3617 28.0004 21.8583 27.9006 21.3885 27.7062C20.9188 27.5119 20.4921 27.2268 20.1326 26.8674C19.7732 26.5079 19.4881 26.0812 19.2938 25.6115C19.0994 25.1417 18.9996 24.6383 19 24.13V23H19.13C19.6383 22.9996 20.1417 23.0994 20.6115 23.2938C21.0812 23.4881 21.5079 23.7732 21.8674 24.1326C22.2268 24.4921 22.5119 24.9188 22.7062 25.3885C22.9006 25.8583 23.0004 26.3617 23 26.87V28ZM23 22H22.87C22.3617 22.0004 21.8583 21.9006 21.3885 21.7062C20.9188 21.5119 20.4921 21.2268 20.1326 20.8674C19.7732 20.5079 19.4881 20.0812 19.2938 19.6115C19.0994 19.1417 18.9996 18.6383 19 18.13V17H19.13C19.6383 16.9996 20.1417 17.0994 20.6115 17.2938C21.0812 17.4881 21.5079 17.7732 21.8674 18.1326C22.2268 18.4921 22.5119 18.9188 22.7062 19.3885C22.9006 19.8583 23.0004 20.3617 23 20.87V22ZM24.02 17H23.98C23.7202 16.9995 23.4713 16.8961 23.2876 16.7124C23.1039 16.5287 23.0005 16.2798 23 16.02V8.98C23.0005 8.72025 23.1039 8.47129 23.2876 8.28762C23.4713 8.10395 23.7202 8.00053 23.98 8H24.02C24.2798 8.00053 24.5287 8.10395 24.7124 8.28762C24.8961 8.47129 24.9995 8.72025 25 8.98V16.02C24.9995 16.2798 24.8961 16.5287 24.7124 16.7124C24.5287 16.8961 24.2798 16.9995 24.02 17ZM29 24.13C29.0004 24.6383 28.9006 25.1417 28.7062 25.6115C28.5119 26.0812 28.2268 26.5079 27.8674 26.8674C27.5079 27.2268 27.0812 27.5119 26.6115 27.7062C26.1417 27.9006 25.6383 28.0004 25.13 28H25V26.87C24.9996 26.3617 25.0994 25.8583 25.2938 25.3885C25.4881 24.9188 25.7732 24.4921 26.1326 24.1326C26.4921 23.7732 26.9188 23.4881 27.3885 23.2938C27.8583 23.0994 28.3617 22.9996 28.87 23H29V24.13ZM29 18.13C29.0004 18.6383 28.9006 19.1417 28.7062 19.6115C28.5119 20.0812 28.2268 20.5079 27.8674 20.8674C27.5079 21.2268 27.0812 21.5119 26.6115 21.7062C26.1417 21.9006 25.6383 22.0004 25.13 22H25V20.87C24.9996 20.3617 25.0994 19.8583 25.2938 19.3885C25.4881 18.9188 25.7732 18.4921 26.1326 18.1326C26.4921 17.7732 26.9188 17.4881 27.3885 17.2938C27.8583 17.0994 28.3617 16.9996 28.87 17H29V18.13ZM29 14C29 14.2652 28.8946 14.5196 28.7071 14.7071C28.5196 14.8946 28.2652 15 28 15C27.7348 15 27.4804 14.8946 27.2929 14.7071C27.1054 14.5196 27 14.2652 27 14V11C27 10.7348 27.1054 10.4804 27.2929 10.2929C27.4804 10.1054 27.7348 10 28 10C28.2652 10 28.5196 10.1054 28.7071 10.2929C28.8946 10.4804 29 10.7348 29 11V14ZM14 4H34C34.5304 4 35.0391 3.78929 35.4142 3.41421C35.7893 3.03914 36 2.53043 36 2C36 1.46957 35.7893 0.960859 35.4142 0.585786C35.0391 0.210714 34.5304 0 34 0L14 0C13.4696 0 12.9609 0.210714 12.5858 0.585786C12.2107 0.960859 12 1.46957 12 2C12 2.53043 12.2107 3.03914 12.5858 3.41421C12.9609 3.78929 13.4696 4 14 4V4ZM8 48H20V38C20.0016 37.4701 20.2128 36.9623 20.5875 36.5875C20.9623 36.2128 21.4701 36.0016 22 36H26C26.5299 36.0016 27.0377 36.2128 27.4125 36.5875C27.7872 36.9623 27.9984 37.4701 28 38V48H40V32H8V48Z" fill="#011E41"/>
</svg>
