<svg width="48" height="48" viewBox="0 0 48 48" fill="none" xmlns="http://www.w3.org/2000/svg">
<path d="M47 28.4276H1C0.734784 28.4276 0.48043 28.533 0.292893 28.7205C0.105357 28.908 0 29.1624 0 29.4276C0 32.8754 1.36964 36.182 3.80761 38.62C6.24558 41.058 9.55219 42.4276 13 42.4276H35C38.4478 42.4276 41.7544 41.058 44.1924 38.62C46.6304 36.182 48 32.8754 48 29.4276C48 29.1624 47.8946 28.908 47.7071 28.7205C47.5196 28.533 47.2652 28.4276 47 28.4276ZM20.888 17.6516L18.401 16.9846C17.1201 16.6413 15.7554 16.8209 14.6069 17.4838C13.4584 18.1467 12.6203 19.2387 12.277 20.5196L12.101 21.1776L14.588 21.8446C15.2223 22.0146 15.8838 22.058 16.5349 21.9722C17.1859 21.8865 17.8137 21.6734 18.3824 21.345C18.9511 21.0167 19.4495 20.5795 19.8492 20.0585C20.2489 19.5375 20.5421 18.9429 20.712 18.3086L20.888 17.6516ZM20.333 23.3836L22.82 24.0496C24.1009 24.3929 25.4656 24.2134 26.6141 23.5504C27.7626 22.8875 28.6007 21.7955 28.944 20.5146L29.12 19.8566L26.633 19.1896C25.9987 19.0196 25.3372 18.9763 24.6861 19.062C24.0351 19.1477 23.4073 19.3608 22.8386 19.6892C22.2699 20.0175 21.7715 20.4547 21.3718 20.9757C20.9721 21.4967 20.6789 22.0913 20.509 22.7256L20.333 23.3836ZM28.564 25.5896L31.052 26.2556C32.3329 26.5989 33.6976 26.4194 34.8461 25.7564C35.9946 25.0935 36.8327 24.0015 37.176 22.7206L37.352 22.0616L34.864 21.3956C33.5831 21.0526 32.2185 21.2325 31.0702 21.8956C29.922 22.5587 29.0841 23.6508 28.741 24.9316L28.564 25.5896ZM19.136 14.2406L21.624 14.9066L21.8 14.2486C22.1433 12.9677 21.9638 11.603 21.3008 10.4545C20.6379 9.30602 19.5459 8.46794 18.265 8.12461L15.777 7.45861L15.601 8.11661C15.2577 9.39747 15.4372 10.7623 16.1002 11.9107C16.7631 13.0592 17.8551 13.8973 19.136 14.2406V14.2406ZM27.368 16.4456L29.855 17.1126L30.032 16.4546C30.202 15.8203 30.2453 15.1588 30.1596 14.5077C30.0739 13.8567 29.8608 13.2289 29.5324 12.6602C29.2041 12.0915 28.7669 11.5931 28.2459 11.1934C27.7249 10.7937 27.1303 10.5005 26.496 10.3306L24.009 9.66361L23.832 10.3226C23.489 11.6035 23.6689 12.9681 24.332 14.1164C24.9951 15.2646 26.0872 16.1025 27.368 16.4456V16.4456ZM35.6 18.6516L38.087 19.3186L38.263 18.6596C38.606 17.3789 38.4263 16.0144 37.7634 14.8661C37.1005 13.7179 36.0086 12.8799 34.728 12.5366L32.241 11.8696L32.064 12.5276C31.894 13.1619 31.8507 13.8234 31.9364 14.4745C32.0221 15.1255 32.2352 15.7533 32.5636 16.322C32.8919 16.8907 33.3291 17.3891 33.8501 17.7888C34.3711 18.1885 34.9657 18.4817 35.6 18.6516V18.6516ZM45.951 22.8956C45.9994 22.7154 46.0118 22.5275 45.9875 22.3425C45.9633 22.1575 45.9028 21.9792 45.8095 21.8176C45.7163 21.656 45.5921 21.5143 45.4441 21.4008C45.2961 21.2872 45.1272 21.2039 44.947 21.1556L39.917 19.8086L39.181 22.5526L44.211 23.9006C44.3912 23.949 44.5792 23.9614 44.7643 23.937C44.9493 23.9127 45.1277 23.8521 45.2893 23.7588C45.4509 23.6654 45.5925 23.5412 45.7061 23.3931C45.8196 23.2449 45.9028 23.0759 45.951 22.8956ZM5.976 16.5956C5.61212 16.4981 5.22443 16.5492 4.89821 16.7376C4.57199 16.926 4.33397 17.2362 4.2365 17.6001C4.13903 17.964 4.19011 18.3517 4.37849 18.6779C4.56687 19.0041 4.87712 19.2421 5.241 19.3396L8.9 20.3196C9.08096 20.3706 9.27025 20.3851 9.45688 20.3624C9.64351 20.3396 9.82376 20.2801 9.98718 20.1871C10.1506 20.0941 10.2939 19.9697 10.4089 19.8209C10.5238 19.6721 10.608 19.502 10.6567 19.3204C10.7054 19.1387 10.7175 18.9493 10.6923 18.763C10.6672 18.5766 10.6053 18.3972 10.5103 18.235C10.4152 18.0727 10.2889 17.931 10.1387 17.818C9.98841 17.705 9.81721 17.6229 9.635 17.5766L5.976 16.5956ZM8.182 8.36461L11.841 9.34461C12.2049 9.44208 12.5926 9.391 12.9188 9.20262C13.245 9.01424 13.483 8.70399 13.5805 8.34011C13.678 7.97623 13.6269 7.58854 13.4385 7.26232C13.2501 6.9361 12.9399 6.69808 12.576 6.60061L8.917 5.62161C8.73683 5.57335 8.54891 5.56105 8.36398 5.58541C8.17906 5.60977 8.00074 5.67032 7.83921 5.7636C7.67768 5.85687 7.53611 5.98105 7.42257 6.12904C7.30904 6.27703 7.22576 6.44593 7.1775 6.62611C7.12924 6.80628 7.11694 6.9942 7.1413 7.17912C7.16566 7.36405 7.22621 7.54237 7.31949 7.7039C7.41276 7.86542 7.53694 8.007 7.68493 8.12054C7.83292 8.23407 8.00183 8.31735 8.182 8.36561V8.36461ZM3.053 12.8716L13.114 15.5676C13.2942 15.6159 13.4821 15.6282 13.667 15.6038C13.8519 15.5794 14.0303 15.5189 14.1918 15.4256C14.3533 15.3323 14.4949 15.2082 14.6084 15.0602C14.722 14.9122 14.8052 14.7433 14.8535 14.5631C14.9018 14.3829 14.9141 14.195 14.8897 14.0101C14.8653 13.8252 14.8048 13.6468 14.7115 13.4853C14.6182 13.3238 14.4941 13.1822 14.3461 13.0687C14.1981 12.9551 14.0292 12.8719 13.849 12.8236L3.79 10.1276C3.60983 10.0792 3.42187 10.0667 3.23687 10.0908C3.05187 10.115 2.87344 10.1754 2.71177 10.2685C2.38527 10.4566 2.14686 10.7667 2.049 11.1306C1.95114 11.4945 2.00183 11.8823 2.18993 12.2088C2.37803 12.5353 2.68812 12.7737 3.052 12.8716H3.053Z" fill="#011E41"/>
</svg>
