<svg width="48" height="48" viewBox="0 0 48 48" fill="none" xmlns="http://www.w3.org/2000/svg">
<g clip-path="url(#clip0_74_1332)">
<path d="M45.25 7.28399e-07H2.75C2.38879 -0.000262256 2.03107 0.0706891 1.69731 0.208796C1.36355 0.346904 1.06028 0.549457 0.804871 0.804871C0.549457 1.06028 0.346904 1.36355 0.208796 1.69731C0.0706891 2.03107 -0.000262256 2.38879 7.28399e-07 2.75V31.25C-0.000262256 31.6112 0.0706891 31.9689 0.208796 32.3027C0.346904 32.6365 0.549457 32.9397 0.804871 33.1951C1.06028 33.4505 1.36355 33.6531 1.69731 33.7912C2.03107 33.9293 2.38879 34.0003 2.75 34H17.26C17.4008 33.3213 17.5879 32.6531 17.82 32C17.94 31.66 18.07 31.33 18.21 31C18.35 30.66 18.51 30.33 18.68 30H14.69C14.166 28.8046 13.9275 27.5037 13.9934 26.2001C14.0594 24.8966 14.428 23.6264 15.07 22.49L20.18 27.6L21.61 29.03C21.375 29.3407 21.158 29.6645 20.96 30C20.76 30.32 20.57 30.66 20.4 31C20.2316 31.3248 20.0814 31.6586 19.95 32C19.6795 32.6479 19.4621 33.3168 19.3 34C18.7272 36.3053 18.7199 38.7149 19.2788 41.0237C19.8377 43.3324 20.9462 45.4719 22.51 47.26C22.6912 47.4743 22.914 47.6495 23.165 47.775C23.416 47.9005 23.6899 47.9736 23.97 47.99C24.0195 47.9983 24.0698 48.0017 24.12 48C24.6344 48.0026 25.132 47.8177 25.52 47.48C25.7329 47.2962 25.9074 47.0723 26.0337 46.821C26.16 46.5698 26.2355 46.2961 26.2559 46.0156C26.2764 45.7351 26.2413 45.4534 26.1528 45.1865C26.0643 44.9195 25.924 44.6727 25.74 44.46C24.527 43.0402 23.7055 41.3286 23.3565 39.4942C23.0075 37.6597 23.1431 35.766 23.75 34C24.2668 32.4862 25.1337 31.1157 26.28 30L27.03 29.25L27.69 28.59L28.15 28.13L28.78 27.5L31.27 30H29.15C29.15 30 28.617 30.444 28.126 30.935C28.0148 31.0482 27.9064 31.1643 27.801 31.283C27.014 32.0733 26.3677 32.9921 25.89 34H45.25C45.6112 34.0003 45.9689 33.9293 46.3027 33.7912C46.6365 33.6531 46.9397 33.4505 47.1951 33.1951C47.4505 32.9397 47.6531 32.6365 47.7912 32.3027C47.9293 31.9689 48.0003 31.6112 48 31.25V2.75C48.0003 2.38879 47.9293 2.03107 47.7912 1.69731C47.6531 1.36355 47.4505 1.06028 47.1951 0.804871C46.9397 0.549457 46.6365 0.346904 46.3027 0.208796C45.9689 0.0706891 45.6112 -0.000262256 45.25 7.28399e-07V7.28399e-07ZM15.69 15.26L15.46 15.46C10.87 19.81 9.08 25.23 10.44 30H4V4H18.77C18.7811 4.02452 18.7945 4.04796 18.81 4.07C21.14 7.76 20.09 11.52 15.69 15.26V15.26ZM44 30H36.72L30.12 23.4L21.55 14.83C24.07 11.34 24.67 7.59 23.24 4H44V30Z" fill="#011E41"/>
<path d="M10 16C12.2091 16 14 14.2091 14 12C14 9.79086 12.2091 8 10 8C7.79086 8 6 9.79086 6 12C6 14.2091 7.79086 16 10 16Z" fill="#011E41"/>
</g>
<defs>
<clipPath id="clip0_74_1332">
<rect width="48" height="48" fill="white"/>
</clipPath>
</defs>
</svg>
