<svg width="48" height="48" viewBox="0 0 48 48" fill="none" xmlns="http://www.w3.org/2000/svg">
<g clip-path="url(#clip0_74_1336)">
<path d="M4.00195 8C6.21109 8 8.00195 6.20914 8.00195 4C8.00195 1.79086 6.21109 0 4.00195 0C1.79281 0 0.00195312 1.79086 0.00195312 4C0.00195312 6.20914 1.79281 8 4.00195 8Z" fill="#011E41"/>
<path d="M38.7501 28.4596L42.67 20.7098C43.2464 19.5596 43.3437 18.2279 42.9408 17.0061C42.5379 15.7843 41.6675 14.7717 40.52 14.19L39.2601 13.56L37.9601 12.9C37.8394 12.8386 37.7118 12.7916 37.5801 12.76C34.7362 11.4795 31.5512 11.1656 28.512 11.8662C25.4729 12.5669 22.7468 14.2435 20.7505 16.6399L18.6206 14.18C17.1255 12.5499 15.3084 11.2478 13.2842 10.3562C11.26 9.4646 9.07276 9.00282 6.86088 9.00009C5.76907 9.00059 4.69328 9.2628 3.72368 9.76475C2.75408 10.2667 1.91893 10.9937 1.28822 11.885C0.657516 12.7762 0.249627 13.8056 0.0987447 14.8869C-0.0521376 15.9683 0.0583831 17.07 0.421044 18.0999C0.441043 18.1499 0.461043 18.1899 0.481042 18.2399L3.36097 24.8397C3.57097 25.5997 4.08095 27.2496 4.88093 29.7496C6.31213 34.2447 7.27391 38.876 7.75086 43.5692L8.01086 46.1992C8.05978 46.6927 8.29064 47.1504 8.65848 47.4832C9.02632 47.8159 9.50481 47.9998 10.0008 47.9991C10.0676 48.0005 10.1345 47.9972 10.2008 47.9891C10.4622 47.963 10.7158 47.8856 10.9473 47.7614C11.1787 47.6371 11.3834 47.4685 11.5497 47.2651C11.7159 47.0617 11.8404 46.8276 11.9161 46.5761C11.9918 46.3245 12.0172 46.0605 11.9908 45.7992L11.7308 43.1792C11.2782 38.7152 10.4112 34.3029 9.14083 29.9996H13.1207C14.517 33.8404 15.1554 37.9155 15.0007 41.9993C15.0013 42.4418 15.1489 42.8715 15.4205 43.2209C15.692 43.5702 16.072 43.8194 16.5006 43.9292L18.9306 39.1693C18.748 34.1942 17.5143 29.314 15.3107 24.8497C14.9107 23.9297 14.4907 22.9797 14.0707 21.9398L10.6908 13.63C12.5792 14.2665 14.2777 15.3668 15.6307 16.8299L19.4806 21.3098C19.8235 21.7053 20.3086 21.9496 20.8305 21.9898C20.9205 21.9898 20.9905 21.9998 21.0705 21.9998C21.4532 22.0009 21.8288 21.8959 22.1553 21.6965C22.4819 21.497 22.7468 21.2108 22.9205 20.8698C23.6885 19.38 24.8307 18.1155 26.2349 17.2003C27.6392 16.2852 29.2572 15.7509 30.9303 15.6499C31.3061 15.6184 31.6836 15.6117 32.0603 15.6299C32.4185 15.6435 32.7757 15.6769 33.1302 15.7299L18.2306 44.9492C18.1047 45.1932 18.0284 45.4598 18.006 45.7334C17.9836 46.0071 18.0156 46.2825 18.1002 46.5437C18.1848 46.805 18.3203 47.0469 18.4989 47.2555C18.6774 47.4641 18.8955 47.6352 19.1406 47.7591C19.4336 47.9125 19.7598 47.9915 20.0906 47.9891C20.4754 47.9885 20.8527 47.8817 21.1808 47.6806C21.5089 47.4795 21.7753 47.1918 21.9505 46.8492L30.9903 29.1196L31.8803 29.5696L32.7802 30.0196L36.0462 31.6775C36.0612 31.6875 36.0772 31.6945 36.0922 31.7045C36.1173 31.7154 36.1403 31.7307 36.1602 31.7495L36.2132 31.7745C38.3219 33.1469 39.8453 35.2541 40.4874 37.6867C41.1296 40.1193 40.8447 42.7038 39.6881 44.9382C39.5594 45.1816 39.4802 45.4481 39.455 45.7222C39.4298 45.9964 39.4591 46.2728 39.5411 46.5356C39.6232 46.7984 39.7565 47.0423 39.9333 47.2534C40.1101 47.4645 40.3269 47.6385 40.5712 47.7654C40.8155 47.8923 41.0825 47.9696 41.3568 47.9929C41.6312 48.0161 41.9074 47.9849 42.1696 47.9009C42.4318 47.817 42.6748 47.682 42.8846 47.5037C43.0944 47.3254 43.2668 47.1074 43.392 46.8622C44.9988 43.7568 45.4138 40.1709 44.5586 36.7807C43.7035 33.3905 41.6375 30.4304 38.7501 28.4586V28.4596ZM47.7979 7.75012C47.5505 6.99866 47.0858 6.33744 46.4626 5.85007C45.8394 5.36271 45.0857 5.0711 44.2968 5.01211C43.5078 4.95313 42.7191 5.12942 42.0304 5.5187C41.3417 5.90797 40.7838 6.49275 40.4275 7.19907C40.0711 7.90539 39.9322 8.70153 40.0283 9.4868C40.1244 10.2721 40.4512 11.0112 40.9674 11.6107C41.4836 12.2103 42.166 12.6432 42.9283 12.8549C43.6906 13.0666 44.4985 13.0475 45.2499 12.8C46.2574 12.4681 47.0918 11.7497 47.5696 10.8027C48.0475 9.85568 48.1296 8.75765 47.7979 7.75012V7.75012Z" fill="#011E41"/>
</g>
<defs>
<clipPath id="clip0_74_1336">
<rect width="48" height="48" fill="white"/>
</clipPath>
</defs>
</svg>
