<svg width="48" height="48" viewBox="0 0 48 48" fill="none" xmlns="http://www.w3.org/2000/svg">
<g clip-path="url(#clip0_74_460)">
<path d="M40.8503 28.49L33.0003 13H15.0003L7.15027 28.49C6.05439 31.0306 5.73832 33.8396 6.24221 36.5603C6.74609 39.2809 8.0472 41.7904 9.98027 43.77C11.2773 45.1164 12.8342 46.1855 14.5565 46.9125C16.2788 47.6396 18.1308 48.0096 20.0003 48H28.0003C29.8698 48.0096 31.7217 47.6396 33.4441 46.9125C35.1664 46.1855 36.7232 45.1164 38.0203 43.77C39.9533 41.7904 41.2545 39.2809 41.7583 36.5603C42.2622 33.8396 41.9462 31.0306 40.8503 28.49V28.49ZM25.0003 38V39.5C25.0003 39.8978 24.8422 40.2794 24.5609 40.5607C24.2796 40.842 23.8981 41 23.5003 41C23.1024 41 22.7209 40.842 22.4396 40.5607C22.1583 40.2794 22.0003 39.8978 22.0003 39.5V38H21.5003C21.1024 38 20.7209 37.842 20.4396 37.5607C20.1583 37.2794 20.0003 36.8978 20.0003 36.5C20.0003 36.1022 20.1583 35.7206 20.4396 35.4393C20.7209 35.158 21.1024 35 21.5003 35H24.4503C24.8481 35 25.2296 34.842 25.5109 34.5607C25.7922 34.2794 25.9503 33.8978 25.9503 33.5C25.9503 33.1022 25.7922 32.7206 25.5109 32.4393C25.2296 32.158 24.8481 32 24.4503 32H23.5603C22.4944 32.0158 21.4577 31.6521 20.6353 30.9739C19.8129 30.2957 19.2584 29.3472 19.0709 28.2978C18.8834 27.2485 19.0751 26.1667 19.6117 25.2456C20.1483 24.3246 20.9949 23.6243 22.0003 23.27V21.5C22.0003 21.1022 22.1583 20.7206 22.4396 20.4393C22.7209 20.158 23.1024 20 23.5003 20C23.8981 20 24.2796 20.158 24.5609 20.4393C24.8422 20.7206 25.0003 21.1022 25.0003 21.5V23H26.5003C26.8981 23 27.2796 23.158 27.5609 23.4393C27.8422 23.7206 28.0003 24.1022 28.0003 24.5C28.0003 24.8978 27.8422 25.2794 27.5609 25.5607C27.2796 25.842 26.8981 26 26.5003 26H23.5603C23.3587 25.9926 23.1577 26.026 22.9693 26.0981C22.7808 26.1701 22.6089 26.2794 22.4637 26.4194C22.3184 26.5595 22.2029 26.7273 22.124 26.913C22.0452 27.0986 22.0045 27.2983 22.0045 27.5C22.0045 27.7017 22.0452 27.9014 22.124 28.087C22.2029 28.2727 22.3184 28.4405 22.4637 28.5806C22.6089 28.7206 22.7808 28.8299 22.9693 28.9019C23.1577 28.974 23.3587 29.0074 23.5603 29H24.4503C25.6054 28.992 26.7197 29.427 27.5639 30.2157C28.408 31.0043 28.9177 32.0864 28.9882 33.2395C29.0586 34.3925 28.6845 35.5287 27.9427 36.4142C27.2008 37.2998 26.1478 37.8673 25.0003 38V38ZM14.9973 11H22.9973L21.3483 3.566C21.2495 3.12187 21.0023 2.72468 20.6475 2.43998C20.2926 2.15528 19.8512 2.00008 19.3963 2H13.9963C13.8466 2.00018 13.6989 2.03394 13.564 2.0988C13.4292 2.16366 13.3106 2.25796 13.217 2.37476C13.1234 2.49155 13.0573 2.62786 13.0234 2.77363C12.9895 2.9194 12.9888 3.07091 13.0213 3.217L14.9973 11ZM29.0003 11H32.9973L34.9813 1.18C35.0068 1.03542 35.0004 0.88699 34.9625 0.745157C34.9245 0.603325 34.8559 0.471532 34.7615 0.359051C34.6672 0.24657 34.5493 0.156133 34.4162 0.0941005C34.2831 0.0320684 34.1381 -5.15982e-05 33.9913 6.22175e-08H31.0013C30.4726 0.00671524 29.9673 0.219461 29.5931 0.592976C29.2188 0.966492 29.005 1.4713 28.9973 2C28.9926 1.47273 28.7818 0.968229 28.4099 0.594446C28.0379 0.220664 27.5345 0.00729572 27.0073 6.22175e-08H24.0073C23.8604 -5.15982e-05 23.7154 0.0320684 23.5823 0.0941005C23.4492 0.156133 23.3314 0.24657 23.237 0.359051C23.1426 0.471532 23.0741 0.603325 23.0361 0.745157C22.9981 0.88699 22.9917 1.03542 23.0173 1.18L24.9973 11H29.0003Z" fill="#011E41"/>
</g>
<defs>
<clipPath id="clip0_74_460">
<rect width="48" height="48" fill="white"/>
</clipPath>
</defs>
</svg>
