<svg width="48" height="48" viewBox="0 0 48 48" fill="none" xmlns="http://www.w3.org/2000/svg">
<path d="M3 0C2.20435 0 1.44129 0.31607 0.87868 0.87868C0.31607 1.44129 0 2.20435 0 3L0 45C0 45.7956 0.31607 46.5587 0.87868 47.1213C1.44129 47.6839 2.20435 48 3 48C3.79565 48 4.55871 47.6839 5.12132 47.1213C5.68393 46.5587 6 45.7956 6 45V3C6 2.20435 5.68393 1.44129 5.12132 0.87868C4.55871 0.31607 3.79565 0 3 0V0ZM45 0C44.2044 0 43.4413 0.31607 42.8787 0.87868C42.3161 1.44129 42 2.20435 42 3V45C42 45.7956 42.3161 46.5587 42.8787 47.1213C43.4413 47.6839 44.2044 48 45 48C45.7956 48 46.5587 47.6839 47.1213 47.1213C47.6839 46.5587 48 45.7956 48 45V3C48 2.20435 47.6839 1.44129 47.1213 0.87868C46.5587 0.31607 45.7956 0 45 0V0ZM32.121 14.879C31.5552 14.3325 30.7974 14.0301 30.0108 14.037C29.2242 14.0438 28.4718 14.3593 27.9155 14.9155C27.3593 15.4718 27.0438 16.2242 27.037 17.0108C27.0301 17.7974 27.3325 18.5552 27.879 19.121L29.758 21H18.242L20.122 19.121C20.677 18.5568 20.9865 17.7961 20.9832 17.0047C20.9799 16.2133 20.664 15.4553 20.1043 14.8957C19.5446 14.3362 18.7865 14.0204 17.9951 14.0173C17.2037 14.0142 16.4431 14.3239 15.879 14.879L8.879 21.879C8.6004 22.1575 8.3794 22.4882 8.22862 22.8521C8.07783 23.216 8.00023 23.6061 8.00023 24C8.00023 24.3939 8.07783 24.784 8.22862 25.1479C8.3794 25.5118 8.6004 25.8425 8.879 26.121L15.879 33.121C16.4448 33.6675 17.2026 33.9699 17.9892 33.963C18.7758 33.9562 19.5282 33.6407 20.0845 33.0845C20.6407 32.5282 20.9562 31.7758 20.963 30.9892C20.9699 30.2026 20.6675 29.4448 20.121 28.879L18.242 27H29.758L27.878 28.879C27.5957 29.1568 27.3713 29.4877 27.2175 29.8526C27.0638 30.2176 26.9838 30.6094 26.9823 31.0054C26.9807 31.4014 27.0575 31.7938 27.2084 32.16C27.3592 32.5262 27.5811 32.8589 27.8612 33.1388C28.1412 33.4188 28.4739 33.6406 28.8401 33.7914C29.2064 33.9421 29.5988 34.0189 29.9948 34.0173C30.3908 34.0156 30.7826 33.9355 31.1475 33.7817C31.5124 33.6279 31.8433 33.4033 32.121 33.121L39.121 26.121C39.3996 25.8425 39.6206 25.5118 39.7714 25.1479C39.9222 24.784 39.9998 24.3939 39.9998 24C39.9998 23.6061 39.9222 23.216 39.7714 22.8521C39.6206 22.4882 39.3996 22.1575 39.121 21.879L32.121 14.879Z" fill="#011E41"/>
</svg>
