<svg width="48" height="48" viewBox="0 0 48 48" fill="none" xmlns="http://www.w3.org/2000/svg">
<path d="M25.5049 45H3.50488C3.10706 45 2.72553 45.158 2.44422 45.4393C2.16292 45.7206 2.00488 46.1022 2.00488 46.5C2.00488 46.8978 2.16292 47.2794 2.44422 47.5607C2.72553 47.842 3.10706 48 3.50488 48H25.5049C25.9027 48 26.2842 47.842 26.5655 47.5607C26.8468 47.2794 27.0049 46.8978 27.0049 46.5C27.0049 46.1022 26.8468 45.7206 26.5655 45.4393C26.2842 45.158 25.9027 45 25.5049 45ZM45.4119 4.593C45.0387 4.21989 44.5326 4.01028 44.0049 4.01028C43.4772 4.01028 42.9711 4.21989 42.5979 4.593L36.5979 10.593C36.2247 10.9661 36.015 11.4722 36.0149 12V37.5C36.0149 37.9005 35.8558 38.2846 35.5726 38.5677C35.2894 38.8509 34.9054 39.01 34.5049 39.01C34.1044 39.01 33.7203 38.8509 33.4372 38.5677C33.154 38.2846 32.9949 37.9005 32.9949 37.5V27C32.9928 25.1468 32.2556 23.3701 30.9452 22.0597C29.6348 20.7492 27.8581 20.0121 26.0049 20.01V2C26.0033 1.47005 25.7921 0.962265 25.4173 0.587535C25.0426 0.212805 24.5348 0.00158273 24.0049 0L5.00488 0C4.47494 0.00158273 3.96715 0.212805 3.59242 0.587535C3.21769 0.962265 3.00647 1.47005 3.00488 2V41C3.00647 41.5299 3.21769 42.0377 3.59242 42.4125C3.96715 42.7872 4.47494 42.9984 5.00488 43H24.0049C24.5348 42.9984 25.0426 42.7872 25.4173 42.4125C25.7921 42.0377 26.0033 41.5299 26.0049 41V23.99C26.8029 23.9911 27.5678 24.3085 28.1321 24.8728C28.6964 25.437 29.0138 26.202 29.0149 27V37.5C29.0149 38.956 29.5933 40.3524 30.6229 41.382C31.6524 42.4116 33.0488 42.99 34.5049 42.99C35.9609 42.99 37.3573 42.4116 38.3869 41.382C39.4165 40.3524 39.9949 38.956 39.9949 37.5V15.99H43.0049C43.5327 15.99 44.0388 15.7803 44.412 15.4071C44.7852 15.0339 44.9949 14.5278 44.9949 14C44.9949 13.4722 44.7852 12.9661 44.412 12.5929C44.0388 12.2197 43.5327 12.01 43.0049 12.01H40.8099L45.4119 7.407C45.785 7.03381 45.9946 6.52771 45.9946 6C45.9946 5.47229 45.785 4.96619 45.4119 4.593V4.593ZM23.0049 17C23.0041 17.265 22.8985 17.5189 22.7111 17.7062C22.5237 17.8936 22.2699 17.9992 22.0049 18H7.00488C6.73991 17.9992 6.48602 17.8936 6.29865 17.7062C6.11129 17.5189 6.00567 17.265 6.00488 17V5C6.00567 4.73503 6.11129 4.48113 6.29865 4.29377C6.48602 4.1064 6.73991 4.00079 7.00488 4H22.0049C22.2699 4.00079 22.5237 4.1064 22.7111 4.29377C22.8985 4.48113 23.0041 4.73503 23.0049 5V17Z" fill="#011E41"/>
</svg>
