<?xml version="1.0" encoding="utf-8"?>
<!-- Generator: Adobe Illustrator 25.2.1, SVG Export Plug-In . SVG Version: 6.00 Build 0)  -->
<svg version="1.1" id="Layer_1" xmlns="http://www.w3.org/2000/svg" xmlns:xlink="http://www.w3.org/1999/xlink" x="0px" y="0px"
	 viewBox="0 0 48 48" style="enable-background:new 0 0 48 48;" xml:space="preserve">
<style type="text/css">
	.st0{fill:#FEFEFE;}
	.st1{fill:#924C8D;}
	.st2{fill:#E68715;}
	.st3{fill:#E1811E;}
	.st4{fill:#DD7D25;}
	.st5{fill:#DF8022;}
	.st6{fill:#AD78AA;}
	.st7{fill:#E79C4E;}
	.st8{fill:#934C8E;}
	.st9{fill:#934D8E;}
	.st10{fill:#D67434;}
	.st11{fill:#D8782F;}
	.st12{fill:#D37139;}
	.st13{fill:#DB7B29;}
	.st14{fill:#D16F3C;}
	.st15{fill:#DA792C;}
	.st16{fill:#F2970B;}
	.st17{fill:#F4A731;}
	.st18{fill:#F3A328;}
	.st19{fill:#F4A833;}
	.st20{fill:#F19506;}
	.st21{fill:#F29911;}
	.st22{fill:#F19201;}
	.st23{fill:#F29F1E;}
	.st24{fill:#F29B15;}
	.st25{fill:#F29E1A;}
	.st26{fill:#F29D19;}
	.st27{fill:#F2980E;}
	.st28{fill:#F29B16;}
	.st29{fill:#F4A835;}
	.st30{fill:#FDF8EF;}
	.st31{fill:#F29D1A;}
	.st32{fill:#F19507;}
	.st33{fill:#F2980D;}
	.st34{fill:#F29C18;}
	.st35{fill:#F29C17;}
	.st36{fill:#F4AB3B;}
	.st37{fill:#FCF0DD;}
	.st38{fill:#FAE0B8;}
	.st39{fill:#FBE8CA;}
	.st40{fill:#FBE9CB;}
	.st41{fill:#FBEAD0;}
	.st42{fill:#F3A52E;}
	.st43{fill:#FCEFDC;}
	.st44{fill:#FBE7C8;}
	.st45{fill:#F39E1D;}
	.st46{fill:#F5B859;}
	.st47{fill:#F4AA38;}
	.st48{fill:#F29E1D;}
	.st49{fill:#F5B551;}
	.st50{fill:#FCEED9;}
	.st51{fill:#FCEED8;}
	.st52{fill:#F3A62E;}
	.st53{fill:#FDF2E2;}
	.st54{fill:#C56252;}
	.st55{fill:#CE6D40;}
	.st56{fill:#BF5C5B;}
	.st57{fill:#C9674A;}
	.st58{fill:#CC6946;}
	.st59{fill:#BA5863;}
	.st60{fill:#EC8E0A;}
	.st61{fill:#EA8B0D;}
	.st62{fill:#E88911;}
	.st63{fill:#E48617;}
	.st64{fill:#E3821B;}
	.st65{fill:#F09205;}
	.st66{fill:#EE9109;}
	.st67{fill:#FEFDFE;}
	.st68{fill:#FDFCFD;}
	.st69{fill:#FDFDFD;}
	.st70{fill:#FDF3E4;}
	.st71{fill:#FDF5E8;}
	.st72{fill:#FDF8F0;}
	.st73{fill:#FCF0DC;}
	.st74{fill:#FCE9CE;}
	.st75{fill:#FDF8F1;}
</style>
<g>
	<g>
		<path class="st0" d="M12.77,15.06c10.69,0,21.37,0,32.06-0.01c0.43,0,0.51,0.08,0.51,0.51c-0.02,5.65-0.02,11.3,0,16.95
			c0,0.37-0.08,0.44-0.45,0.44c-13.93-0.01-27.86-0.01-41.79,0c-0.37,0-0.45-0.07-0.45-0.44c0.02-1.72,0.01-3.43,0.01-5.15
			c0.19-0.06,0.23,0.1,0.31,0.21c0.03,0.07,0.05,0.15,0.07,0.23c0.02,0.1,0.04,0.2,0.08,0.29c0.05,0.11,0.1,0.23,0.14,0.35
			c0.03,0.09,0.07,0.19,0.11,0.28c0.07,0.14,0.17,0.26,0.25,0.39c0.07,0.12,0.14,0.24,0.22,0.36c0.71,0.9,1.48,1.72,2.51,2.29
			c1.93,1.07,3.94,1.13,5.95,0.35c3.28-1.27,5.41-3.61,6.2-7.06c0.35-1.52,0-2.78-1.46-3.6c-0.49-0.27-0.94-0.61-1.37-0.98
			c-0.93-0.81-1.34-1.8-1.08-3.05c0.24-1.12-0.11-1.64-1.2-2C13.18,15.35,12.84,15.44,12.77,15.06z"/>
		<path class="st1" d="M12.77,15.06c0.39,0.13,0.78,0.23,1.15,0.4c0.8,0.36,1.08,0.9,0.87,1.75c-0.34,1.41,0.09,2.52,1.27,3.35
			c0.39,0.28,0.77,0.57,1.18,0.81c1.33,0.79,1.73,1.95,1.5,3.43c-0.63,4.17-4.77,7.9-9.03,7.96c-2.58,0.04-4.56-1.18-5.99-3.3
			c0.06-0.08,0.14-0.08,0.23-0.07c0.32,0.12,0.63,0.23,0.96,0.33c0.14,0.05,0.27,0.09,0.41,0.13c0.25,0.09,0.51,0.16,0.77,0.24
			c0.48,0.14,0.98,0.25,1.47,0.36C8,30.59,8.45,30.64,8.9,30.71c0.97,0.13,1.93,0.18,2.83-0.3c0.29-0.15,0.55-0.33,0.66-0.65
			c0.07-0.14,0.11-0.28,0.14-0.43c0.18-0.87,0.01-1.68-0.32-2.48c-0.37-0.9-0.78-1.78-0.87-2.77c-0.08-0.81,0.14-1.42,0.93-1.76
			c0.23-0.1,0.43-0.24,0.63-0.4c0.29-0.24,0.5-0.52,0.35-0.91c-0.15-0.4-0.45-0.64-0.89-0.66c-0.21-0.01-0.41,0.05-0.62,0.07
			c-0.68,0.07-1.17-0.18-1.36-0.82c-0.3-1.03-0.52-2.09-0.32-3.18c0.15-0.86,0.48-1.18,1.26-1.29c0.44-0.04,0.89,0.07,1.33-0.06
			C12.69,15.06,12.73,15.06,12.77,15.06z"/>
		<path class="st0" d="M11.25,15.17c-0.79,0.19-1.01,0.81-1.08,1.49c-0.09,0.95,0.06,1.9,0.32,2.82c0.2,0.71,0.6,0.92,1.32,0.74
			c0.23-0.05,0.45-0.1,0.68-0.06c0.51,0.07,0.81,0.41,0.98,0.86c0.15,0.41-0.09,0.73-0.39,0.97c-0.26,0.21-0.54,0.41-0.84,0.52
			c-0.64,0.24-0.81,0.71-0.78,1.32c0.05,0.93,0.38,1.77,0.75,2.6c0.33,0.72,0.56,1.47,0.57,2.27c0,0.24,0.05,0.5-0.15,0.71
			c-0.49,0.32-0.73,0.27-1.38-0.28c-0.11-0.11-0.21-0.22-0.29-0.34c-0.1-0.16-0.17-0.34-0.26-0.5c-0.05-0.09-0.09-0.18-0.13-0.28
			c-0.04-0.11-0.07-0.23-0.12-0.35c-0.02-0.05-0.04-0.09-0.05-0.14c-0.04-0.15-0.1-0.29-0.13-0.44c-0.03-0.13-0.06-0.26-0.1-0.38
			c-0.05-0.19-0.06-0.38-0.12-0.57c-0.02-0.05-0.03-0.11-0.04-0.17c-0.03-0.22-0.01-0.45-0.08-0.67c-0.02-0.05-0.03-0.11-0.04-0.17
			c-0.01-0.08-0.02-0.17-0.02-0.25c0-0.16-0.01-0.32-0.07-0.48c-0.04-0.13-0.08-0.25-0.12-0.38c-0.06-0.2-0.12-0.4-0.26-0.57
			c-0.12-0.15-0.26-0.28-0.43-0.39c-0.37-0.23-0.76-0.3-1.19-0.21c-0.29,0.07-0.57,0.03-0.83-0.15c-0.19-0.16-0.26-0.38-0.32-0.61
			c-0.09-0.38-0.04-0.74,0.11-1.1c0.19-0.42,0.56-0.54,0.98-0.5c0.81,0.07,1.02-0.45,0.93-1.1c-0.07-0.55-0.06-1.11-0.19-1.65
			c-0.26-1.02-0.83-1.39-1.84-1.05c-1.54,0.52-2.12,1.69-1.69,3.33c0.09,0.34,0.27,0.65,0.34,0.99c0.05,0.36,0.05,0.72-0.11,1.06
			c-0.21,0.45-0.58,0.76-0.92,1.11c-0.29,0.26-0.56,0.54-0.76,0.87c-0.16,0.22-0.27,0.47-0.37,0.72C3.08,24.9,3.04,25.03,3,25.16
			c-0.08,0.13-0.07,0.36-0.33,0.33c0-3.34,0.01-6.68-0.01-10.02c0-0.34,0.06-0.42,0.41-0.42c2.74,0.02,5.47,0.01,8.21,0.01
			c0.04,0.03,0.05,0.06,0.03,0.08C11.29,15.16,11.27,15.17,11.25,15.17z"/>
		<path class="st2" d="M2.67,25.49c0.19-0.06,0.1-0.3,0.24-0.39c2.11-0.3,4.2-0.79,6.31-1.12c0.2-0.03,0.4-0.12,0.6,0.01
			c0.11,0.1,0.11,0.23,0.1,0.36c0.01,0.35-0.29,0.31-0.48,0.36c-1.2,0.31-2.44,0.44-3.66,0.71c-0.73,0.16-1.47,0.24-2.19,0.42
			c-0.25,0.06-0.49,0.1-0.74,0.02c-0.07-0.03-0.13-0.07-0.18-0.12C2.67,25.66,2.67,25.57,2.67,25.49z"/>
		<path class="st3" d="M10.03,25.12c0.03,0.03,0.03,0.06,0.01,0.09c0.17,0.43-0.11,0.57-0.44,0.63c-1.77,0.31-3.54,0.64-5.31,0.94
			c-0.25,0.04-0.48,0.12-0.72,0.18c-0.31,0.07-0.62,0.13-0.89-0.1c0-0.04,0-0.08,0-0.12c0.13-0.12,0-0.35,0.18-0.45
			c1.77-0.4,3.58-0.63,5.36-0.95C8.81,25.22,9.4,24.92,10.03,25.12z"/>
		<path class="st4" d="M10.15,25.99c0.03,0.02,0.03,0.05,0.01,0.08c0.05,0.11,0.06,0.21,0,0.31c-0.96,0.34-1.98,0.42-2.96,0.62
			c-1.17,0.24-2.36,0.44-3.54,0.67c-0.27,0.05-0.53,0.12-0.77-0.06c-0.1-0.07-0.06-0.25-0.22-0.26c0-0.04,0-0.08,0-0.12
			c0.49-0.36,1.11-0.32,1.66-0.43c1.78-0.33,3.56-0.67,5.35-0.98C9.89,25.78,10.05,25.79,10.15,25.99z"/>
		<path class="st5" d="M10.15,25.99c-0.54-0.17-1.07,0.07-1.55,0.17c-1.08,0.24-2.18,0.38-3.26,0.64c-0.87,0.21-1.78,0.29-2.67,0.43
			c0-0.12,0-0.25,0-0.37c0.72,0.1,1.38-0.2,2.06-0.31c1.6-0.28,3.2-0.59,4.81-0.84c0.27-0.04,0.54-0.12,0.5-0.49
			C10.17,25.46,10.16,25.72,10.15,25.99z"/>
		<path class="st6" d="M11.25,15.17c0.01-0.04,0.02-0.07,0.02-0.11c0.46,0,0.91,0,1.37,0C12.2,15.31,11.72,15.14,11.25,15.17z"/>
		<path class="st7" d="M2.8,26.36c-0.01,0.13,0.02,0.29-0.13,0.37c0-0.33,0-0.66,0-0.99c0.04,0,0.08,0,0.13,0
			c0.12,0.13,0.15,0.28,0.11,0.46C2.88,26.25,2.84,26.31,2.8,26.36z"/>
		<path class="st8" d="M32.84,22.03c0,0.56,0,1.12,0,1.68c0,0.21,0,0.41,0.21,0.54c0.15,0.09,0.54,0,0.35,0.4
			c-0.15,0.32-0.37,0.84-0.68,0.67c-0.85-0.48-1.61,0.27-2.4,0.05c-0.1-0.03-0.21,0-0.31,0c-2.02-0.03-2.98-1.72-1.98-3.52
			c0.26-0.46,0.65-0.73,1.18-0.83c0.56-0.1,1.12-0.06,1.68-0.09c0.24-0.02,0.61,0.2,0.71-0.25c0.12-0.58-0.09-1.11-0.54-1.24
			c-0.27-0.08-0.57-0.08-0.86-0.1c-0.44-0.02-0.87-0.01-1.31-0.04c-0.41-0.03-0.55-0.28-0.54-0.68c0-0.47,0.33-0.33,0.57-0.34
			c0.64-0.01,1.29-0.02,1.93,0.01c1.23,0.06,1.91,0.72,1.99,1.95C32.87,20.83,32.83,21.43,32.84,22.03
			C32.84,22.03,32.84,22.03,32.84,22.03z"/>
		<path class="st8" d="M40.23,21.68c0.04-0.57-0.07-1.25,0.08-1.93c0.2-0.91,0.67-1.37,1.61-1.45c0.52-0.05,1.04-0.04,1.56-0.02
			c1.04,0.04,1.7,0.7,1.73,1.74c0.02,0.62-0.01,1.24,0.01,1.86c0.01,0.34-0.12,0.42-0.44,0.41c-0.95-0.01-1.91,0.01-2.86-0.01
			c-0.36-0.01-0.49,0.11-0.46,0.46c0.02,0.2,0,0.41,0.01,0.62c0.02,0.58,0.33,0.87,0.9,0.89c0.52,0.02,1.04,0.01,1.56,0.01
			c0.21,0,0.41,0.02,0.6,0.12c0.31,0.18,0.3,0.48,0.27,0.77c-0.04,0.33-0.31,0.21-0.49,0.21c-0.66,0.01-1.33,0.03-1.99-0.02
			c-1.41-0.09-2.05-0.78-2.07-2.19C40.22,22.7,40.23,22.24,40.23,21.68z"/>
		<path class="st8" d="M24.7,18.28c0.43,0.06,1.25-0.29,1.65,0.12c0.37,0.38,0.08,1.18,0.11,1.8c0.01,0.21,0.01,0.41,0,0.62
			c-0.07,1.61-0.81,2.32-2.42,2.32c-0.58,0-1.16,0.05-1.73-0.13c-0.63-0.2-1.02-0.61-1.18-1.24c-0.15-0.57-0.14-1.15-0.08-1.72
			c0.13-1.11,0.75-1.68,1.9-1.76C23.46,18.26,23.98,18.28,24.7,18.28z"/>
		<path class="st8" d="M23.25,27.74c-0.48,0-0.95,0.01-1.43-0.01c-0.2-0.01-0.5,0.14-0.53-0.24c-0.03-0.32,0-0.63,0.37-0.76
			c0.2-0.07,0.4-0.08,0.61-0.07c0.72,0.02,1.45,0.04,2.18,0c0.8-0.04,1-0.29,0.96-1.04c-0.03-0.6-0.24-0.77-1.01-0.78
			c-0.66-0.01-1.33-0.02-1.99,0c-0.53,0.02-0.49-0.24-0.32-0.58c0.15-0.29,0.42-0.48,0.74-0.5c0.81-0.04,1.62-0.11,2.41,0.08
			c0.99,0.24,1.39,0.8,1.39,1.9c0,1.08-0.42,1.64-1.41,1.9c-0.1,0.03-0.2,0.06-0.3,0.06c-0.56,0.01-1.12,0-1.68,0
			C23.25,27.72,23.25,27.73,23.25,27.74z"/>
		<path class="st8" d="M36.95,25.31c-0.1,0.03-0.13,0.04-0.17,0.04c-1.01,0.05-1.01,0.05-1.29-0.92c-0.54-1.89-1.08-3.77-1.65-5.65
			c-0.13-0.44-0.03-0.49,0.39-0.53c0.65-0.06,0.88,0.18,1.03,0.8C35.77,21.13,36.37,23.2,36.95,25.31z"/>
		<path class="st9" d="M37.56,24.87c-0.51-0.75-0.58-1.56-0.4-2.37c0.26-1.17,0.61-2.32,0.91-3.47c0.08-0.3,0.22-0.54,0.5-0.67
			c0.28-0.13,0.62-0.18,0.84-0.04c0.23,0.14,0.01,0.44-0.06,0.66c-0.51,1.79-1.02,3.57-1.54,5.36C37.77,24.5,37.77,24.7,37.56,24.87
			z"/>
		<path class="st10" d="M10.4,27.1c0.1,0.15,0.14,0.31,0.14,0.49c-0.7,0.41-1.5,0.42-2.26,0.54c-1.14,0.18-2.27,0.39-3.4,0.64
			c-0.39,0.09-0.78,0.1-1.17,0.15c-0.19,0.02-0.32-0.04-0.41-0.2c-0.08-0.06-0.13-0.14-0.12-0.25c0.11-0.27,0.36-0.34,0.6-0.38
			c2.04-0.34,4.07-0.68,6.09-1.09C10.07,26.96,10.25,26.97,10.4,27.1z"/>
		<path class="st11" d="M10.4,27.1c-1.21,0.21-2.41,0.43-3.62,0.64c-0.95,0.16-1.9,0.31-2.84,0.48c-0.26,0.05-0.51,0.16-0.76,0.24
			c-0.1-0.1-0.15-0.22-0.14-0.37c0.51-0.49,1.19-0.4,1.8-0.51c1.54-0.26,3.07-0.58,4.6-0.86c0.29-0.05,0.57-0.06,0.86-0.03
			C10.4,26.82,10.41,26.96,10.4,27.1z"/>
		<path class="st12" d="M3.3,28.72c0.47,0.12,0.94,0.03,1.38-0.08c1.85-0.45,3.75-0.63,5.61-1.04c0.08-0.02,0.16-0.01,0.25-0.01
			c0,0,0,0,0,0c0.15,0.36-0.04,0.49-0.36,0.54c-2.01,0.33-4.01,0.75-6.02,1.07c-0.23,0.04-0.45,0.04-0.65-0.1
			C3.39,29,3.31,28.88,3.3,28.72z"/>
		<path class="st13" d="M2.89,27.61c1.11-0.2,2.21-0.4,3.32-0.59c1.31-0.22,2.6-0.59,3.93-0.67c0.14,0.26-0.04,0.32-0.24,0.37
			c-0.84,0.21-1.7,0.31-2.55,0.48c-1.19,0.25-2.39,0.45-3.59,0.64c-0.28,0.04-0.56,0.19-0.83,0C2.93,27.77,2.91,27.69,2.89,27.61z"
			/>
		<path class="st14" d="M3.51,29.1c1.6-0.16,3.15-0.53,4.73-0.8c0.65-0.11,1.29-0.24,1.94-0.32c0.27-0.03,0.36-0.15,0.35-0.39
			c0.1,0.1,0.13,0.22,0.13,0.35c0.05,0.28-0.15,0.37-0.36,0.41c-2.08,0.37-4.15,0.8-6.24,1.16c-0.06,0.01-0.12-0.02-0.18-0.04
			c-0.06,0-0.11,0-0.17,0C3.65,29.35,3.58,29.23,3.51,29.1z"/>
		<path class="st15" d="M2.94,27.85c0.69,0.06,1.35-0.18,2.02-0.28c1.52-0.22,3.04-0.55,4.54-0.87c0.21-0.05,0.58,0.05,0.65-0.34
			c0.01-0.1,0.01-0.19,0.02-0.29c0.13,0.19,0.12,0.41,0.13,0.63c-0.48,0.25-1.02,0.26-1.53,0.37c-1.7,0.34-3.42,0.61-5.13,0.9
			c-0.2,0.03-0.4,0.08-0.6,0.13C3.01,28.02,2.97,27.93,2.94,27.85z"/>
		<path class="st16" d="M44.44,29.44c0.22,0.51,0.17,1.02,0.1,1.5c-0.04,0.31-0.42,0.1-0.64,0.14c-0.31,0.06-0.4-0.15-0.44-0.38
			c-0.05-0.23,0.02-0.58,0.21-0.58C44.18,30.14,44.34,29.86,44.44,29.44z"/>
		<path class="st17" d="M42.47,30.8c-0.08,0.35-0.18,0.42-0.49,0.33c-0.38-0.11-0.47-0.39-0.39-0.72c0.08-0.32,0.34-0.5,0.65-0.38
			c0.32,0.11,0.52,0.35,0.22,0.69c-0.05,0.05-0.12,0.02-0.18,0.05C42.35,30.78,42.41,30.76,42.47,30.8z"/>
		<path class="st18" d="M21.25,31.1c-0.28-0.22-0.36-0.5-0.21-0.8c0.22-0.45,0.62-0.23,0.96-0.21c0.1,0.39,0.08,0.79,0.01,1.18
			c-0.03,0.03-0.06,0.05-0.1,0.08c-0.05,0.04-0.1,0.05-0.16,0.04C21.6,31.28,21.41,31.22,21.25,31.1z"/>
		<path class="st19" d="M43.28,29.41c0.09,0.01,0.19,0.08,0.14,0.15c-0.27,0.41-0.12,0.89-0.24,1.33c-0.04,0.14-0.13,0.28-0.23,0.17
			c-0.21-0.25-0.13-0.62-0.19-0.93c-0.03-0.17,0.06-0.58,0.39-0.7C43.19,29.42,43.23,29.42,43.28,29.41z"/>
		<path class="st20" d="M27.49,29.46c0.04,0,0.12-0.01,0.12-0.01c0.05,0.47,0.47,0.62,0.77,0.86c0.07,0.25,0.1,0.49-0.02,0.74
			c-0.04,0.01-0.08,0.01-0.11,0.02c-0.18-0.21,0.07-0.52-0.15-0.72c-0.27-0.05-0.35,0.08-0.35,0.33c0,0.16,0.12,0.45-0.25,0.4
			C27.12,30.54,27.47,30,27.49,29.46z"/>
		<path class="st21" d="M38.22,30.1c0.25,0.08,0.64-0.27,0.77,0.18c0.18,0.63-0.02,1.19-0.46,1.35c-0.28,0.1-0.51,0.07-0.56-0.3
			c0.17-0.13,0.43-0.01,0.58-0.2c0.05-0.11-0.01-0.21-0.01-0.32c0.02-0.18-0.05-0.32-0.21-0.42C38.24,30.32,38.17,30.23,38.22,30.1z
			"/>
		<path class="st22" d="M40.82,30.29c-0.11,0.25,0.15,0.73-0.17,0.74c-0.32,0.01-0.14-0.47-0.15-0.72c0-0.28-0.16-0.8,0.13-0.8
			C40.95,29.51,40.72,30.02,40.82,30.29z"/>
		<path class="st23" d="M32.86,31.06c0.03-0.09,0.03-0.23,0.09-0.28c0.37-0.29,0.21-0.48-0.09-0.67c0.13-0.15,0.3-0.07,0.46-0.08
			c0.34-0.03,0.6,0.03,0.4,0.46c-0.09,0.18,0.06,0.3,0.07,0.46C33.51,31.27,33.19,31.16,32.86,31.06z"/>
		<path class="st24" d="M35.35,30.83c0.05,0.27-0.13,0.28-0.32,0.29c-0.31,0.02-0.48-0.13-0.57-0.41c-0.07-0.09-0.07-0.18,0-0.27
			c0.09-0.35,0.34-0.44,0.65-0.4c0.3,0.04,0.41,0.24,0.36,0.53c-0.1,0.1-0.27,0.06-0.37,0.18C35.2,30.75,35.29,30.76,35.35,30.83z"
			/>
		<path class="st25" d="M40.11,30.95c-0.25,0.23-0.51,0.21-0.75-0.01c-0.19-0.18-0.2-0.4-0.09-0.62c0.14-0.26,0.37-0.3,0.64-0.24
			c0.26,0.06,0.33,0.26,0.31,0.5c-0.1,0.11-0.24,0.11-0.36,0.14C39.98,30.78,40.15,30.76,40.11,30.95z"/>
		<path class="st26" d="M24.45,30.07c0.04,0.25-0.11,0.46-0.19,0.67c-0.05,0.15-0.07,0.34-0.29,0.35c-0.21,0.01-0.29-0.19-0.32-0.32
			c-0.04-0.23-0.34-0.56-0.1-0.65c0.36-0.15,0.1,0.43,0.53,0.45C24.21,30.53,24.03,30.05,24.45,30.07z"/>
		<path class="st27" d="M28.84,29.7c0.23,0.25,0.44,0.42,0.17,0.76c-0.15,0.19,0.11,0.39,0.22,0.59
			C28.68,31.04,28.48,30.35,28.84,29.7z"/>
		<path class="st26" d="M30.61,31.08c-0.25-0.25-0.36-0.54-0.14-0.86c0.21-0.3,0.49-0.2,0.76-0.12c0.04,0.13-0.03,0.21-0.13,0.29
			c-0.39,0.21-0.05,0.3,0.07,0.43c0.07,0.11,0.15,0.22,0,0.33C30.98,31.24,30.78,31.24,30.61,31.08z"/>
		<path class="st28" d="M32.61,30.95c-0.26,0.33-0.59,0.26-0.78,0.01c-0.22-0.28-0.26-0.65,0.16-0.87c0.04,0.03,0.08,0.06,0.12,0.1
			c0.07,0.07,0.16,0.1,0.26,0.06c0.04-0.02,0.09-0.04,0.13-0.05c0.19,0.06,0.21,0.22,0.21,0.39c-0.1,0.09-0.24,0.11-0.36,0.14
			C32.43,30.8,32.55,30.85,32.61,30.95z"/>
		<path class="st29" d="M35.97,30.09c0.21-0.05,0.43-0.19,0.62,0.05c0.2,0.25,0.13,0.54,0.11,0.82c0,0.09-0.08,0.14-0.17,0.12
			c-0.12-0.02-0.13-0.13-0.15-0.23c-0.05-0.2,0.15-0.53-0.28-0.54C35.99,30.28,35.92,30.22,35.97,30.09z"/>
		<path class="st30" d="M33.7,30.85c-0.12-0.04-0.44,0.1-0.23-0.25c0.09-0.15,0.35-0.27,0.22-0.46c-0.12-0.19-0.38-0.07-0.58-0.08
			c-0.08,0-0.16,0.03-0.24,0.05c0.37-0.33,0.92,0.01,1.29-0.32c0.07,0.1,0.13,0.2,0.2,0.3c-0.04,0.04-0.07,0.07-0.11,0.1
			c-0.06,0.04-0.13,0.08-0.18,0.14C33.93,30.5,34.08,30.85,33.7,30.85z"/>
		<path class="st31" d="M27.24,31.07c-0.32,0.08-0.62,0.1-0.8-0.24c-0.11-0.2-0.09-0.39,0.04-0.58c0.2-0.28,0.47-0.29,0.76-0.17
			c0.05,0.04,0.07,0.08,0.06,0.14c-0.5,0.4-0.5,0.4-0.05,0.69C27.29,30.98,27.28,31.03,27.24,31.07z"/>
		<path class="st32" d="M31.22,31.1c-0.04-0.09-0.07-0.18-0.11-0.27c-0.09-0.17-0.11-0.35,0-0.52c0.04-0.07,0.08-0.14,0.12-0.21
			c0.39,0.28,0.32,1.11-0.12,1.45c-0.07-0.06-0.09-0.13-0.09-0.22C31.03,31.21,31.12,31.15,31.22,31.1z"/>
		<path class="st22" d="M24.77,29.48c0.25,0.48,0.11,0.98,0.15,1.46c0,0.04-0.06,0.1-0.11,0.12c-0.1,0.03-0.16-0.03-0.16-0.12
			C24.66,30.45,24.58,29.96,24.77,29.48z"/>
		<path class="st33" d="M22.5,30.98c-0.35-0.36-0.35-0.47,0-0.63c0.17-0.04,0.03-0.1,0.01-0.15c0.29-0.26,0.54-0.2,0.76,0.1
			c0.07,0.61-0.46,0.2-0.64,0.37c-0.04,0.04-0.08,0.09-0.12,0.13C22.56,30.87,22.55,30.92,22.5,30.98z"/>
		<path class="st34" d="M38.22,30.1c0.04,0.07,0.08,0.14,0.12,0.21c0.01,0.22,0.16,0.37,0.25,0.54c0.05,0.12,0.36,0.12,0.14,0.35
			c-0.18-0.02-0.38,0.06-0.53-0.11C37.84,30.76,37.75,30.43,38.22,30.1z"/>
		<path class="st35" d="M25.87,31.05c-0.22,0.07-0.46,0.16-0.6-0.1c-0.12-0.24-0.09-0.52-0.04-0.78c0.01-0.03,0.1-0.08,0.14-0.08
			c0.14,0.02,0.1,0.15,0.12,0.24c0.05,0.2-0.17,0.62,0.36,0.47C25.94,30.88,25.94,30.96,25.87,31.05z"/>
		<path class="st36" d="M21.73,31.32c0.06,0.01,0.13,0.02,0.19,0.03c-0.12,0.41-0.43,0.37-0.72,0.25c-0.37-0.16-0.13-0.28,0.05-0.38
			C21.46,31.06,21.59,31.21,21.73,31.32z"/>
		<path class="st37" d="M33.7,30.85c0.31-0.18,0.01-0.57,0.28-0.76c0.23,0.33,0.23,0.66,0,0.99c-0.38,0.15-0.75,0.26-1.12-0.02
			C33.15,31.01,33.53,31.35,33.7,30.85z"/>
		<path class="st22" d="M35.97,30.09c0.04,0.08,0.08,0.15,0.12,0.23c-0.17,0.22,0.01,0.53-0.18,0.76
			C35.63,30.67,35.66,30.3,35.97,30.09z"/>
		<path class="st21" d="M25.87,31.05c-0.01-0.09-0.01-0.17-0.02-0.26c0.07-0.23-0.06-0.51,0.15-0.75
			C26.25,30.66,26.21,30.91,25.87,31.05z"/>
		<path class="st33" d="M33.98,31.08c0-0.33,0-0.66,0-0.99c0.08,0,0.17,0,0.25,0c0.12,0.33,0.12,0.66,0,0.99
			C34.15,31.08,34.06,31.08,33.98,31.08z"/>
		<path class="st38" d="M27.24,31.07c0.01-0.04,0.01-0.08,0-0.11c-0.06-0.25,0.03-0.49,0.03-0.74c-0.01-0.04-0.02-0.09-0.03-0.13
			c0.25-0.14,0.01-0.48,0.25-0.63c0,0.54,0,1.08,0,1.61C27.41,31.08,27.32,31.07,27.24,31.07z"/>
		<path class="st39" d="M31.22,31.1c-0.04,0.08-0.07,0.15-0.11,0.23c-0.23,0.29-0.44,0.29-0.63-0.04c0.04-0.07,0.09-0.14,0.13-0.21
			C30.81,31.09,31.02,31.09,31.22,31.1z"/>
		<path class="st21" d="M22.5,30.98c0-0.06,0.01-0.11,0.01-0.17c0.23,0.1,0.47,0.02,0.87,0.03C23.02,31.19,22.78,31.23,22.5,30.98z"
			/>
		<path class="st40" d="M38.21,31.1c0.17,0.05,0.39-0.12,0.53,0.11c-0.21,0.29-0.49,0.23-0.77,0.13
			C38.05,31.25,38.13,31.17,38.21,31.1z"/>
		<path class="st22" d="M30.48,31.29c0.2,0.21,0.41,0.22,0.63,0.04c0,0.07,0,0.15,0,0.22C30.66,31.73,30.44,31.64,30.48,31.29z"/>
		<path class="st41" d="M34.23,31.08c0-0.33,0-0.66,0-0.99c0.04,0,0.08,0,0.12,0c0.01,0.13-0.03,0.27,0.11,0.36
			c0,0.09,0,0.18,0,0.27C34.38,30.84,34.31,30.96,34.23,31.08z"/>
		<path class="st42" d="M22.02,31.27c0-0.39-0.01-0.79-0.01-1.18C22.2,30.48,22.13,30.87,22.02,31.27z"/>
		<path class="st43" d="M40.11,30.95c-0.13-0.3-0.54,0.17-0.64-0.23c0.24-0.13,0.49-0.1,0.74-0.02
			C40.18,30.79,40.15,30.87,40.11,30.95z"/>
		<path class="st44" d="M32.61,30.95c-0.18-0.16-0.51,0.09-0.62-0.24c0.21-0.12,0.41-0.1,0.62-0.01
			C32.61,30.79,32.61,30.87,32.61,30.95z"/>
		<path class="st43" d="M22.51,30.2c0.16,0.03,0.36-0.05,0.5,0.18c-0.19,0.08-0.35,0.16-0.5-0.04C22.5,30.3,22.5,30.25,22.51,30.2z"
			/>
		<path class="st45" d="M41.21,30.1c0.22,0.32,0.21,0.65,0,0.97C41.11,30.75,41.12,30.43,41.21,30.1z"/>
		<path class="st22" d="M41.21,30.1c0,0.32,0,0.65,0,0.97C40.98,30.75,40.98,30.43,41.21,30.1z"/>
		<path class="st19" d="M22.63,30.68c0.16-0.22,0.61,0.06,0.64-0.37C23.33,30.72,23.33,30.72,22.63,30.68z"/>
		<path class="st46" d="M34.83,30.84c-0.13-0.14-0.06-0.22,0.09-0.24c0.18-0.02,0.37-0.01,0.55-0.01c-0.04,0.05-0.08,0.1-0.12,0.16
			C35.18,30.77,35.01,30.82,34.83,30.84z"/>
		<path class="st22" d="M32.49,30.19c-0.01,0.06-0.02,0.11-0.02,0.17c-0.17-0.01-0.34-0.02-0.48-0.13c0-0.05,0-0.09-0.01-0.14
			C32.18,30,32.36,29.93,32.49,30.19z"/>
		<path class="st47" d="M28.36,31.05c0.01-0.25,0.01-0.49,0.02-0.74C28.48,30.56,28.52,30.81,28.36,31.05z"/>
		<path class="st47" d="M28.09,30.34c0.28,0.19,0.11,0.48,0.15,0.72C28.01,30.87,28.19,30.58,28.09,30.34z"/>
		<path class="st48" d="M32.61,30.71c-0.21-0.04-0.42-0.05-0.62,0.01c0.2-0.25,0.48-0.09,0.72-0.14
			C32.67,30.62,32.64,30.66,32.61,30.71z"/>
		<path class="st49" d="M40.21,30.7c-0.25,0.01-0.49,0.01-0.74,0.02c0.21-0.26,0.5-0.09,0.75-0.14
			C40.24,30.63,40.24,30.67,40.21,30.7z"/>
		<path class="st50" d="M34.83,30.84c0.14-0.24,0.34-0.11,0.53-0.1c0,0.03,0,0.06-0.01,0.09C35.18,30.76,35.01,31.02,34.83,30.84z"
			/>
		<path class="st51" d="M42.47,30.8c-0.17,0-0.34,0.18-0.54-0.03c0.18-0.13,0.36-0.08,0.54-0.05C42.47,30.75,42.47,30.78,42.47,30.8
			z"/>
		<path class="st22" d="M29.56,31.08c-0.09,0.01-0.16-0.02-0.17-0.11c-0.01-0.11,0.07-0.14,0.15-0.15c0.05,0,0.13,0.05,0.14,0.09
			C29.71,30.99,29.66,31.06,29.56,31.08z"/>
		<path class="st52" d="M45.14,30.93c0.01,0.1-0.05,0.15-0.13,0.17c-0.09,0.02-0.16-0.02-0.17-0.12c-0.01-0.09,0.03-0.16,0.13-0.17
			C45.05,30.8,45.11,30.83,45.14,30.93z"/>
		<path class="st53" d="M21.73,31.32c-0.16-0.03-0.31-0.07-0.47-0.1c-0.01-0.04-0.01-0.08-0.01-0.11
			C21.4,31.19,21.73,30.91,21.73,31.32z"/>
		<path class="st54" d="M11.27,28.98c0.39,0.35,0.82,0.6,1.38,0.42c-0.04,0.14-0.08,0.29-0.13,0.43c-1.54,0.29-3.09,0.56-4.64,0.78
			c-0.12,0.02-0.24,0.04-0.36-0.04c-0.52-0.03-1.02-0.16-1.5-0.37c0.04-0.23,0.2-0.36,0.42-0.4C8.06,29.54,9.65,29.19,11.27,28.98z"
			/>
		<path class="st55" d="M3.9,29.47c1.12-0.42,2.32-0.5,3.48-0.75c1-0.22,2.02-0.35,3.04-0.53c0.13-0.02,0.2-0.13,0.26-0.25
			c0.04,0.09,0.08,0.18,0.12,0.26c0.14,0.5-0.27,0.56-0.56,0.61C9.21,29,8.19,29.18,7.18,29.38c-0.76,0.15-1.53,0.25-2.28,0.47
			C4.54,29.8,4.19,29.7,3.9,29.47z"/>
		<path class="st56" d="M7.53,30.58c1.47-0.27,2.94-0.54,4.4-0.83c0.22-0.04,0.4-0.02,0.59,0.08c-0.1,0.31-0.32,0.51-0.62,0.63
			c-0.72,0.12-1.43,0.3-2.16,0.38c-0.28,0.03-0.56,0.09-0.84-0.01C8.43,30.84,7.97,30.78,7.53,30.58z"/>
		<path class="st57" d="M11.27,28.98c-1.07,0.44-2.24,0.46-3.35,0.73c-0.63,0.15-1.33,0.06-1.89,0.5c-0.27-0.02-0.53-0.08-0.76-0.24
			c0.1-0.2,0.27-0.32,0.48-0.36c1.68-0.31,3.37-0.62,5.05-0.94c0.08-0.02,0.16,0.01,0.25,0.01C11.12,28.79,11.19,28.89,11.27,28.98z
			"/>
		<path class="st58" d="M11.04,28.69c-0.76,0.31-1.58,0.34-2.37,0.52c-1.13,0.26-2.31,0.31-3.4,0.75c-0.14-0.01-0.27,0-0.37-0.12
			c0.1-0.11,0.12-0.25,0.34-0.28c1.56-0.26,3.11-0.56,4.67-0.85c0.34-0.06,0.78,0,0.87-0.51C10.87,28.37,10.96,28.53,11.04,28.69z"
			/>
		<path class="st59" d="M8.9,30.83c0.79-0.01,1.53-0.29,2.29-0.42c0.26-0.05,0.48-0.09,0.71,0.05C10.97,31.1,9.95,31.05,8.9,30.83z"
			/>
		<path class="st22" d="M5.17,21.02c-0.3-0.66-0.57-1.32-0.54-2.08c0.05-1.43,1.38-2.65,2.82-2.56c0.49,0.03,0.82,0.28,1,0.72
			c0.37,0.9,0.42,1.85,0.39,2.8c-0.01,0.56-0.35,0.8-0.91,0.75c-0.4-0.04-0.8-0.04-1.04,0.37c-0.27,0.32-1.06,0.57-1.42,0.48
			C5.18,21.44,5.28,21.18,5.17,21.02z"/>
		<path class="st60" d="M7.08,22.62c0.25,0.1,0.5,0.15,0.78,0.07c0.48-0.14,0.93-0.05,1.3,0.31c-0.26,0.52-0.82,0.43-1.23,0.47
			c-0.8,0.08-1.56,0.35-2.35,0.47C5,24.04,4.41,24.12,3.81,24.17c-0.14,0.01-0.4,0.14-0.4-0.19c0.16-0.36,0.43-0.63,0.75-0.85
			C5.1,22.74,6.05,22.48,7.08,22.62z"/>
		<path class="st61" d="M3.41,23.98c0.74,0.08,1.45-0.08,2.16-0.23c0.63-0.13,1.27-0.3,1.89-0.39c0.58-0.09,1.14-0.22,1.7-0.36
			c0.19,0.08,0.3,0.22,0.36,0.4c0.15,0.27-0.08,0.32-0.24,0.39C9,23.91,8.7,24,8.39,24.04c-1.55,0.18-3.06,0.53-4.6,0.8
			c-0.26,0.05-0.53,0.13-0.76-0.09C3.07,24.45,3.21,24.2,3.41,23.98z"/>
		<path class="st62" d="M3.03,24.74c0.55,0.07,1.06-0.16,1.58-0.26c1.53-0.3,3.09-0.45,4.61-0.84c0.15-0.04,0.29-0.05,0.3-0.24
			c0.17,0.16,0.26,0.36,0.29,0.59c-1.31,0.35-2.66,0.51-3.98,0.76c-0.73,0.14-1.45,0.29-2.17,0.43c-0.26,0.05-0.52,0.15-0.75-0.09
			C2.9,24.96,2.92,24.84,3.03,24.74z"/>
		<path class="st63" d="M2.8,26.23c0-0.17,0-0.33,0-0.5c0.67,0.09,1.31-0.17,1.93-0.3c1.66-0.34,3.34-0.57,4.99-0.96
			c0.07-0.02,0.13-0.09,0.2-0.13c0.12,0.16,0.11,0.34,0.1,0.52c-0.5,0.4-1.14,0.32-1.71,0.44c-1.67,0.34-3.36,0.57-5.04,0.91
			C3.13,26.26,2.96,26.36,2.8,26.23z"/>
		<path class="st64" d="M2.8,26.23c1.3-0.34,2.63-0.54,3.95-0.77c1.09-0.19,2.17-0.41,3.26-0.6c0.01,0.08,0.01,0.16,0.02,0.25
			c-1.4,0.27-2.8,0.57-4.21,0.79c-1.01,0.15-1.99,0.47-3.02,0.46C2.8,26.32,2.8,26.28,2.8,26.23z"/>
		<path class="st65" d="M5.17,21.02c0.29,0.42,1.07,0.42,1.72,0c-0.1,0.36-0.08,0.74-0.09,1.11c-0.42,0.29-0.92,0.29-1.4,0.36
			c-0.2,0.03-0.49,0-0.36-0.36C5.15,21.77,5.19,21.4,5.17,21.02z"/>
		<path class="st66" d="M5.04,22.14c0.07,0.35,0.3,0.24,0.51,0.18c0.41-0.11,0.82-0.23,1.25-0.19c0.09,0.16,0.19,0.32,0.28,0.48
			c-0.75,0.14-1.5,0.27-2.24,0.44c-0.23,0.05-0.45,0.07-0.68,0.07C4.45,22.8,4.75,22.47,5.04,22.14z"/>
		<path class="st67" d="M30.3,24.26c-0.21,0-0.41,0-0.62,0c-0.43,0.01-0.66-0.21-0.69-0.63c-0.02-0.27-0.03-0.54,0-0.8
			c0.05-0.5,0.34-0.77,0.85-0.8c0.1-0.01,0.21,0,0.31,0c1.49,0,1.48,0,1.45,1.5c-0.01,0.52-0.22,0.77-0.75,0.73
			C30.68,24.25,30.49,24.26,30.3,24.26z"/>
		<path class="st68" d="M42.74,21.24c-0.08,0-0.17,0.02-0.25,0c-0.4-0.11-1.1,0.37-1.05-0.61c0.05-1.07,0.2-1.29,1.18-1.3
			c1.22-0.02,1.46,0.25,1.44,1.44c-0.01,0.4-0.15,0.51-0.51,0.48C43.29,21.22,43.01,21.24,42.74,21.24z"/>
		<path class="st69" d="M24.05,19.33c1.16-0.01,1.16-0.01,1.16,1.12c0,0.25,0.03,0.5-0.01,0.74c-0.08,0.5-0.33,0.84-0.89,0.86
			c-0.15,0-0.29,0-0.44,0c-1.55,0-1.65-0.1-1.63-1.66c0.01-0.74,0.25-1,0.99-1.06C23.51,19.32,23.78,19.33,24.05,19.33z"/>
		<path class="st70" d="M43.98,30.25c0.16,0.07,0.33,0.14,0.31,0.34c-0.02,0.2-0.16,0.37-0.36,0.35c-0.19-0.02-0.21-0.22-0.21-0.39
			C43.73,30.37,43.81,30.27,43.98,30.25z"/>
		<path class="st39" d="M42.27,30.36c-0.01,0.12-0.11,0.09-0.17,0.09c-0.06,0-0.11-0.03-0.17-0.05c0.05-0.05,0.09-0.13,0.15-0.15
			C42.17,30.22,42.23,30.28,42.27,30.36z"/>
		<path class="st71" d="M21.51,30.82c-0.17-0.02-0.25-0.12-0.23-0.29c0.02-0.16,0.13-0.27,0.29-0.24c0.17,0.03,0.19,0.18,0.18,0.34
			C21.75,30.78,21.65,30.83,21.51,30.82z"/>
		<path class="st72" d="M38.6,30.86c-0.42-0.03-0.5-0.21-0.25-0.54C38.77,30.34,38.86,30.52,38.6,30.86z"/>
		<path class="st39" d="M35.18,30.37c-0.01,0.11-0.11,0.09-0.18,0.09c-0.07,0-0.18,0.02-0.17-0.09c0.01-0.05,0.1-0.11,0.17-0.13
			C35.08,30.22,35.15,30.28,35.18,30.37z"/>
		<path class="st50" d="M39.96,30.39c-0.16,0.09-0.29,0.09-0.42,0.03c-0.01,0,0.01-0.1,0.04-0.13
			C39.72,30.17,39.83,30.21,39.96,30.39z"/>
		<path class="st73" d="M31.11,30.31c0.12,0.17,0.11,0.35,0,0.52c-0.26,0.06-0.49,0.02-0.45-0.3
			C30.68,30.27,30.88,30.21,31.11,30.31z"/>
		<path class="st74" d="M31.99,30.23c0.18-0.04,0.34,0.01,0.48,0.13C32.26,30.48,32.05,30.61,31.99,30.23z"/>
		<path class="st75" d="M27.27,30.22c0.16,0.25,0.17,0.5-0.03,0.74c-0.23-0.02-0.51,0.06-0.56-0.32
			C26.62,30.13,27.11,30.42,27.27,30.22z"/>
	</g>
</g>
</svg>
