<?xml version="1.0" encoding="utf-8"?>
<!-- Generator: Adobe Illustrator 25.2.1, SVG Export Plug-In . SVG Version: 6.00 Build 0)  -->
<svg version="1.1" id="Layer_1" xmlns="http://www.w3.org/2000/svg" xmlns:xlink="http://www.w3.org/1999/xlink" x="0px" y="0px"
	 viewBox="0 0 48 48" style="enable-background:new 0 0 48 48;" xml:space="preserve">
<style type="text/css">
	.st0{fill:#FEFEFE;}
	.st1{fill:#D2AD15;}
	.st2{fill:#1D6B34;}
	.st3{fill:#EFD544;}
	.st4{fill:#E3C029;}
	.st5{fill:#155429;}
	.st6{fill:#B98F16;}
	.st7{fill:#F6E477;}
	.st8{fill:#16552A;}
	.st9{fill:#B98F17;}
	.st10{fill:#E3C02A;}
	.st11{fill:#BA9018;}
	.st12{fill:#D2AE17;}
	.st13{fill:#E3C02B;}
	.st14{fill:#EAD993;}
	.st15{fill:#E3C12D;}
	.st16{fill:#D3AE19;}
	.st17{fill:#337246;}
	.st18{fill:#DEC03B;}
	.st19{fill:#BDCFC3;}
	.st20{fill:#E1C13D;}
	.st21{fill:#A6BEAE;}
	.st22{fill:#EAD25A;}
	.st23{fill:#F4E9BA;}
	.st24{fill:#C7A438;}
	.st25{fill:#C6A340;}
	.st26{fill:#C5A33F;}
	.st27{fill:#97B3A0;}
	.st28{fill:#F6E9A5;}
	.st29{fill:#FFFFFF;}
	.st30{fill:#636363;}
	.st31{fill:#4B4B4B;}
	.st32{fill:#010100;}
	.st33{fill:#4C4C4A;}
	.st34{fill:#030300;}
	.st35{fill:#4D4C4A;}
	.st36{fill:#656461;}
	.st37{fill:#4E4D4A;}
	.st38{fill:#987D0F;}
	.st39{fill:#D6CA9A;}
	.st40{fill:#312C14;}
	.st41{fill:#594A09;}
	.st42{fill:#FDFEFE;}
	.st43{fill:#FDFEFD;}
	.st44{fill:#FCFDFC;}
	.st45{fill:#FDFDFD;}
	.st46{fill:#FBFCFB;}
	.st47{fill:#2F6F42;}
	.st48{fill:#307244;}
	.st49{fill:#2E7142;}
	.st50{fill:#307344;}
	.st51{fill:#316F44;}
	.st52{fill:#316F43;}
	.st53{fill:#327045;}
	.st54{fill:#E4C53D;}
	.st55{fill:#EBD25A;}
	.st56{fill:#DFC039;}
	.st57{fill:#E9D159;}
	.st58{fill:#EDD451;}
	.st59{fill:#EAD25D;}
	.st60{fill:#EAD260;}
	.st61{fill:#FEFDF7;}
	.st62{fill:#FEFCF6;}
	.st63{fill:#FFFEFD;}
	.st64{fill:#FEFEFC;}
	.st65{fill:#FEFDF9;}
	.st66{fill:#F1DA5D;}
	.st67{fill:#F1DA5B;}
	.st68{fill:#F1DB61;}
	.st69{fill:#FFFEFC;}
	.st70{fill:#FEFEFA;}
	.st71{fill:#171717;}
	.st72{fill:#246F3A;}
	.st73{fill:#236F3A;}
	.st74{fill:#1E6C35;}
</style>
<g>
	<ellipse class="st0" cx="24" cy="24" rx="33.39" ry="32.06"/>
	<path class="st1" d="M19.25,13.49c0.43-0.1,0.87-0.13,1.31-0.17c0.54-0.05,1.09-0.07,1.63-0.11c0.05,0,0.1,0,0.15,0.01
		c0.29,0.06,0.58,0,0.88,0.01c1.35,0.08,2.68,0.22,4,0.49c0.17,0.04,0.34,0.08,0.51,0.13c0.15,0.05,0.23,0.14,0.23,0.31
		c0,0.09,0,0.18,0,0.27c0,2.5-0.01,5.01,0.01,7.51c0.01,0.91-0.43,1.56-1.08,2.1c-0.73,0.61-1.55,1.09-2.47,1.39
		c-0.02,0.01-0.04,0.02-0.05,0.04c-0.26,0.11-0.51,0.13-0.79,0.05c-0.94-0.25-1.85-0.58-2.69-1.08c-0.42-0.25-0.8-0.55-1.12-0.92
		c-0.39-0.46-0.59-0.99-0.58-1.6c0.01-0.43,0-0.85,0-1.28c-0.04-0.04-0.05-0.09-0.03-0.14c0.1-0.27,0.05-0.55,0.05-0.83
		c0-1.98,0-3.96,0-5.93C19.23,13.65,19.21,13.57,19.25,13.49z"/>
	<path class="st2" d="M39.22,30.19c-0.32,0.07-0.65,0.09-0.98,0.12c-1.45,0.13-2.91,0.15-4.36,0.16c-1.88,0-3.75,0-5.63,0
		c-0.27,0-0.24,0.01-0.24-0.23c0-0.93,0-1.85,0-2.78c0-0.04,0-0.09,0-0.13c0-0.07,0.04-0.09,0.1-0.09c0.06,0,0.12,0,0.18,0
		c2.24,0,4.49,0,6.73-0.01c1.08-0.01,2.16-0.06,3.24-0.17c0.04,0,0.09,0,0.13,0c0.04,0.15,0.15,0.27,0.23,0.4
		c0.34,0.62,0.49,1.29,0.58,1.98c0.03,0.19,0.05,0.38,0.06,0.57C39.25,30.07,39.27,30.14,39.22,30.19z"/>
	<path class="st2" d="M8.74,26.97c0.47,0.05,0.93,0.1,1.4,0.14c1.08,0.08,2.16,0.12,3.24,0.12c2.02,0,4.05,0,6.07,0
		c0.04,0,0.09,0,0.13,0c0.16,0,0.17,0,0.17,0.17c0,0.96,0,1.93,0,2.89c0,0.17,0,0.17-0.17,0.17c-2.57-0.01-5.14,0.03-7.7-0.03
		c-0.62-0.01-1.23-0.06-1.85-0.09c-0.05,0-0.1,0-0.15-0.03c0.03-0.05,0.09-0.04,0.14-0.09c-0.48-0.59-0.84-1.25-1.06-1.98
		C8.83,27.84,8.75,27.41,8.74,26.97z"/>
	<path class="st2" d="M14.97,26.12c0.24-0.1,0.5-0.1,0.75-0.13c0.87-0.11,1.75-0.19,2.63-0.25c0.86-0.05,1.72-0.07,2.58-0.07
		c0.45,0,0.9,0,1.35,0c0.12,0,0.23,0.02,0.35,0.05c0.35,0.12,0.7,0.22,1.05,0.32c0.17,0.05,0.33,0.04,0.5,0
		c0.35-0.1,0.7-0.21,1.05-0.32c0.11-0.04,0.21-0.05,0.32-0.05c1.24-0.01,2.49-0.01,3.73,0.05c0.9,0.05,1.79,0.13,2.68,0.23
		c0.05,0.01,0.1,0.02,0.15,0.03c0,0.1-0.08,0.09-0.14,0.1c-0.33,0.05-0.66,0.12-0.99,0.11c-0.01,0,0,0.03-0.01,0.05
		c-0.05,0.06-0.12,0.05-0.18,0.05c-0.2-0.07-0.39,0.02-0.58,0.03c-0.13,0.01-0.27,0.02-0.41,0.05c-0.06,0.01-0.11,0.02-0.17,0.01
		c-0.03-0.01-0.05-0.03-0.08-0.01c0.03,0,0.05,0,0.06,0.03c-0.03,0.08-0.1,0.07-0.16,0.07c-0.07-0.01-0.14-0.03-0.2-0.06
		c-0.01,0-0.02-0.01-0.03,0c0.02,0,0.04,0.02,0.04,0.04c-0.04,0.07-0.1,0.07-0.17,0.06c-0.03-0.01-0.07-0.02-0.1-0.02
		c-0.05-0.01-0.13-0.08-0.12,0.06c-0.36,0.11-0.73,0.08-0.94,0.11c1.47-0.05,3.11-0.01,4.75-0.02c0.08,0,0.16,0,0.23,0.07
		c-0.06,0.08-0.15,0.03-0.23,0.03c-1.64,0-3.28,0-4.92,0c-0.27,0-0.24-0.03-0.24,0.23c0,0.57,0,1.15,0,1.72
		c0,0.22,0.02,0.22-0.21,0.22c-1.16-0.01-2.32-0.03-3.49-0.03c-1.08,0-2.16,0.02-3.24,0.03c-0.04,0-0.09,0-0.13,0
		c-0.16,0-0.16,0-0.16-0.15c0-0.38,0-0.77,0-1.15c0-0.29,0-0.57,0-0.86c0.16,0.02,0.11,0.15,0.11,0.24c0.01,0.51,0,1.01,0,1.52
		c0,0.28,0.01,0.29,0.3,0.29c0.17,0,0.34,0,0.51,0c0.21,0,0.23-0.02,0.15-0.21c-0.2-0.48-0.4-0.95-0.61-1.42
		c-0.09-0.22-0.17-0.44-0.27-0.65c-0.05-0.11-0.15-0.07-0.23-0.06c-0.16,0.03-0.32,0.03-0.47-0.03c-0.09-0.04-0.18-0.03-0.28-0.01
		c-0.16,0.02-0.32,0.03-0.48-0.03c-0.09-0.04-0.18-0.03-0.28-0.01c-0.16,0.01-0.32,0.05-0.48-0.03c-0.09-0.04-0.18-0.03-0.27-0.01
		c-0.17,0.02-0.34,0.04-0.51-0.03c-0.08-0.04-0.16-0.03-0.24-0.01c-0.17,0.02-0.34,0.03-0.51-0.04c-0.09-0.04-0.18-0.03-0.28-0.01
		c-0.16,0.03-0.33,0.03-0.48-0.04c-0.09-0.04-0.19-0.02-0.29-0.01C15.42,26.22,15.19,26.23,14.97,26.12z"/>
	<path class="st3" d="M12.15,16.84c-0.04,0.24-0.18,0.41-0.34,0.58c-0.52,0.51-1.03,1.03-1.55,1.54c-0.17,0.17-0.26,0.37-0.2,0.62
		c0.08,0.33,0.38,0.5,0.71,0.4c0.2-0.06,0.37-0.18,0.52-0.33c0.2-0.19,0.37-0.4,0.59-0.56c0.08-0.04,0.16-0.06,0.25-0.08
		c0.69-0.11,1.37-0.21,2.06-0.33c0.11-0.02,0.22-0.04,0.31,0.06c0.03,0.09-0.03,0.15-0.09,0.21c-0.53,0.52-0.74,1.16-0.65,1.9
		c0,0.31,0.02,0.62-0.02,0.94c-0.12,0.74-0.05,1.49-0.08,2.23c0,0.07,0.06,0.17-0.07,0.19c-0.17-0.19-0.34-0.39-0.51-0.58
		c-0.05-0.06-0.08-0.15-0.19-0.13c-0.24-0.25-0.49-0.49-0.66-0.79c-0.04-0.29-0.02-0.59-0.02-0.88c0-0.22-0.05-0.41-0.17-0.6
		c-0.17-0.28-0.38-0.55-0.49-0.87c-0.07,0-0.11,0.06-0.17,0.1c-0.42,0.28-0.86,0.33-1.31,0.11c-0.45-0.22-0.69-0.61-0.72-1.1
		c-0.02-0.29,0.06-0.57,0.25-0.8c0.51-0.36,1-0.76,1.5-1.14c0.27-0.21,0.55-0.41,0.82-0.63C12,16.87,12.06,16.8,12.15,16.84z"/>
	<path class="st4" d="M34.85,23.52c-0.21,0.24-0.42,0.49-0.62,0.73c-0.03-0.01-0.04-0.01-0.04-0.02c0,0-0.01-0.01-0.01-0.02
		c0-0.66,0-1.31,0-1.97c-0.09-0.14-0.04-0.31-0.08-0.47c-0.03-0.3-0.03-0.61,0-0.91c0.14-0.75-0.13-1.37-0.63-1.91
		c-0.07-0.08-0.21-0.13-0.14-0.28c0.3-0.02,0.58,0.07,0.87,0.11c0.57,0.08,1.14,0.18,1.72,0.27c0.21,0.2,0.42,0.41,0.63,0.61
		c0.14,0.14,0.29,0.25,0.48,0.31c0.26,0.09,0.47,0.04,0.63-0.16c0.16-0.19,0.18-0.46,0.05-0.68c-0.05-0.08-0.11-0.14-0.17-0.2
		c-0.5-0.5-1.01-1.01-1.51-1.51c-0.13-0.13-0.24-0.26-0.29-0.43c0.08-0.09,0.08-0.1,0.21-0.01c0.29,0.21,0.56,0.43,0.84,0.64
		c0.4,0.3,0.79,0.61,1.19,0.91c0.12,0.09,0.22,0.2,0.32,0.3c0.31,0.44,0.18,1.08-0.12,1.43c-0.43,0.5-1.14,0.6-1.69,0.24
		c-0.05-0.03-0.08-0.08-0.17-0.1c0,0.52,0,1.04,0,1.56c-0.09-0.01-0.09-0.09-0.09-0.15c-0.01-0.38-0.01-0.76,0-1.14
		c0-0.03,0.01-0.06,0-0.06c-0.22,0.45-0.63,0.83-0.56,1.44c0.03,0.23,0.06,0.48-0.05,0.71c-0.05,0.01-0.07-0.02-0.07-0.06
		c0-0.36,0-0.72,0-1.07c0,0.34,0,0.69,0,1.03c0.01,0.09-0.02,0.16-0.07,0.23C35.24,23.09,35.1,23.36,34.85,23.52z"/>
	<path class="st5" d="M25.39,35.49c0.27,0,0.54,0,0.82,0c0.11,0,0.16-0.03,0.15-0.15c-0.01-0.3-0.01-0.6,0-0.91
		c0-0.11-0.02-0.16-0.14-0.17c-0.11-0.01-0.26,0.02-0.33-0.08c-0.07-0.1-0.02-0.24-0.03-0.37c-0.01-0.11,0.03-0.15,0.15-0.15
		c0.52,0.01,1.05,0,1.57,0c0.11,0,0.16,0.03,0.15,0.15c-0.02,0.42,0.1,0.37-0.37,0.44c-0.04,0.01-0.09,0.02-0.13,0.02
		c-0.06,0.01-0.09,0.04-0.09,0.1c0,0.04,0,0.09,0,0.13c0,0.95,0,1.9,0,2.85c0,0.04,0,0.09,0,0.13c0,0.07,0.03,0.1,0.1,0.11
		c0.12,0.01,0.25,0.03,0.37,0.05c0.08,0.01,0.11,0.05,0.11,0.13c0,0.1-0.01,0.19,0,0.29c0.01,0.1-0.04,0.13-0.13,0.13
		c-0.26,0-0.53,0-0.79,0c-0.26,0-0.53,0-0.79,0c-0.09,0-0.16-0.01-0.15-0.13c0.01-0.13-0.05-0.29,0.03-0.39
		c0.07-0.09,0.23-0.08,0.35-0.08c0.1,0,0.12-0.06,0.12-0.14c0-0.37,0-0.74,0-1.1c0-0.1-0.03-0.13-0.13-0.13c-0.29,0-0.59,0-0.88,0
		c-0.27,0-0.54,0-0.82,0c-0.09,0-0.13,0.03-0.13,0.12c0,0.38,0,0.75,0,1.13c0,0.08,0.03,0.12,0.11,0.12c0.12,0,0.28,0,0.35,0.08
		c0.08,0.09,0.02,0.25,0.03,0.38c0.01,0.09-0.03,0.13-0.12,0.13c-0.54,0-1.09,0-1.63,0c-0.07,0-0.11-0.03-0.11-0.1
		c0-0.01,0-0.03,0-0.04c0.01-0.46-0.09-0.37,0.39-0.44c0.22-0.03,0.19-0.03,0.19-0.23c0-0.96,0-1.93,0-2.89c0-0.21,0-0.21-0.21-0.24
		c-0.47-0.06-0.35-0.02-0.37-0.44c-0.01-0.11,0.03-0.15,0.15-0.15c0.4,0.01,0.81,0,1.21,0c0.13,0,0.26,0,0.4,0
		c0.07,0,0.11,0.02,0.11,0.1c0,0.01,0,0.03,0,0.04c-0.01,0.12,0.05,0.27-0.02,0.37c-0.07,0.09-0.22,0.06-0.33,0.08
		c-0.11,0.01-0.14,0.06-0.14,0.17c0.01,0.3,0.01,0.6,0,0.91c0,0.11,0.03,0.16,0.15,0.15C24.83,35.49,25.11,35.49,25.39,35.49z"/>
	<path class="st5" d="M9.83,35.93c0-0.49,0-0.99,0-1.48c0-0.12-0.03-0.18-0.15-0.18c-0.02,0-0.04-0.01-0.07-0.01
		c-0.47-0.07-0.36,0-0.37-0.48c0-0.07,0.03-0.11,0.1-0.11c0.02,0,0.04,0,0.07,0c0.6-0.01,1.19-0.02,1.79-0.03
		c0.27,0,0.53,0.02,0.79,0.07c0.91,0.18,1.44,0.74,1.56,1.65c0.05,0.37,0.05,0.73-0.03,1.1c-0.19,0.9-0.74,1.44-1.62,1.67
		c-0.24,0.06-0.49,0.1-0.74,0.09c-0.59-0.01-1.18-0.02-1.77-0.02c-0.12,0-0.16-0.04-0.15-0.15c0.01-0.46-0.07-0.35,0.38-0.44
		c0.01,0,0.01,0,0.02,0c0.22-0.01,0.19-0.03,0.19-0.22C9.83,36.9,9.83,36.42,9.83,35.93z"/>
	<path class="st6" d="M24.39,25.47c-0.05-0.05,0-0.06,0.03-0.07c0.4-0.14,0.77-0.33,1.14-0.53c0.6-0.32,1.16-0.69,1.63-1.18
		c0.27-0.27,0.47-0.58,0.61-0.93c0.07-0.18,0.11-0.36,0.11-0.56c0-2.67,0-5.34,0-8.01c0-0.2,0-0.2-0.19-0.26
		c-0.39-0.12-0.78-0.19-1.18-0.26c-0.37-0.06-0.73-0.13-1.1-0.17c-0.33-0.03-0.67-0.08-1-0.11c-0.25-0.02-0.51-0.01-0.76-0.07
		c-0.04-0.01-0.07-0.01-0.11-0.01c-0.37,0.01-0.73-0.08-1.1-0.05c-0.04,0-0.09,0-0.12-0.04c0.95-0.06,1.89-0.05,2.84-0.02
		c0.5,0.02,1,0.03,1.49,0.07c0.59,0.04,1.17,0.1,1.75,0.18c0.07,0.01,0.15,0,0.2,0.08c0.03,0.08,0.01,0.16,0.01,0.24
		c0,2.04,0,4.07,0,6.11c0,0.18-0.01,0.35,0.04,0.52c0.01,0.09,0,0.18-0.06,0.25c0,0.41-0.01,0.83,0,1.24
		c0.02,0.7-0.24,1.28-0.71,1.77c-0.29,0.31-0.62,0.56-0.98,0.78c-0.77,0.47-1.6,0.78-2.46,1.02C24.45,25.46,24.42,25.46,24.39,25.47
		z"/>
	<path class="st3" d="M30.24,16.89c-0.03-0.1-0.09-0.17-0.19-0.22c-0.09-0.05-0.18-0.1-0.23-0.21c0.29-0.1,0.51-0.25,0.52-0.59
		c0.16-0.67,0.27-1.35,0.42-2.02c0.02-0.07,0.04-0.14,0.1-0.19c0.12-0.3,0.2-0.63,0.34-0.93c0.14-0.28,0.29-0.56,0.51-0.79
		c0.08-0.09,0.11-0.18,0.11-0.3c-0.01-0.16,0-0.32,0-0.48c0.1-0.03,0.17,0.03,0.24,0.06c0.1,0.04,0.2,0.09,0.3,0.13
		c0.15,0.06,0.15,0.06,0.22-0.08c0.06-0.11,0.15-0.19,0.27-0.25c0.14,0.3,0.42,0.37,0.69,0.46c0.05,0.02,0.1,0.01,0.14,0.05
		c-0.11,0.1-0.17,0.23-0.23,0.37c-0.28,0.68-0.51,1.37-0.62,2.1c-0.04,0.27,0.01,0.54-0.04,0.81c-0.02,0.06-0.05,0.11-0.1,0.14
		c-0.46,0.3-0.8,0.73-1.16,1.13c-0.34,0.38-0.74,0.63-1.24,0.75C30.29,16.86,30.27,16.88,30.24,16.89z"/>
	<path class="st5" d="M37.68,37.79c-0.25,0.35-0.59,0.5-1.01,0.48c-0.5-0.02-0.88-0.3-1.03-0.79c-0.17-0.53-0.17-1.06,0.02-1.58
		c0.23-0.65,0.71-0.99,1.38-1.07c0.45-0.05,0.91-0.01,1.36,0.05c0.12,0.01,0.15,0.07,0.15,0.19c0,1.09,0,2.18,0,3.27
		c0,0.13-0.01,0.25-0.04,0.37c-0.11,0.55-0.43,0.9-0.97,1.06c-0.45,0.14-0.9,0.12-1.36,0.07c-0.12-0.01-0.25-0.04-0.37-0.06
		c-0.07-0.01-0.1-0.05-0.09-0.12c0.04-0.21,0.02-0.42,0.09-0.64c0.18,0.04,0.34,0.08,0.51,0.11c0.24,0.04,0.48,0.05,0.73,0.02
		c0.41-0.05,0.63-0.28,0.66-0.69c0.03-0.21,0.01-0.42,0.01-0.62C37.74,37.8,37.72,37.78,37.68,37.79z"/>
	<path class="st4" d="M14.3,11.49c0.11-0.05,0.23-0.1,0.34-0.15c0.13-0.07,0.25-0.16,0.3-0.31c0.14,0.05,0.24,0.14,0.29,0.28
		c0.04,0.11,0.09,0.1,0.18,0.06c0.18-0.08,0.35-0.18,0.56-0.23c0.04,0.18,0.01,0.36,0.02,0.53c0,0.09,0.01,0.17,0.08,0.24
		c0.4,0.44,0.64,0.96,0.8,1.52c0.02,0.08,0.01,0.19,0.12,0.22c0.09,0.19,0.14,0.4,0.17,0.61c0.07,0.49,0.19,0.97,0.3,1.46
		c0.01,0.05,0.02,0.1,0.02,0.15c0.01,0.25,0.15,0.41,0.36,0.53c0.05,0.03,0.11,0.02,0.16,0.07c-0.09,0.14-0.24,0.2-0.38,0.29
		c-0.28,0.09-0.52-0.03-0.75-0.16c-0.35-0.2-0.61-0.5-0.87-0.8c-0.27-0.3-0.54-0.6-0.88-0.83c-0.03-0.02-0.05-0.05-0.06-0.09
		c-0.01-0.02-0.02-0.05-0.02-0.07c0.03-1.03-0.27-1.98-0.66-2.91C14.34,11.78,14.23,11.65,14.3,11.49z"/>
	<path class="st7" d="M15.15,14.94c0.34,0.18,0.59,0.48,0.84,0.76c0.22,0.25,0.45,0.5,0.71,0.72c0.27,0.22,0.58,0.33,0.93,0.34
		c0,0.01,0,0.03-0.01,0.04c-0.29,0.21-0.63,0.35-0.94,0.53c-0.26,0.16-0.52,0.31-0.78,0.47c-0.22,0.09-0.37,0.29-0.62,0.33
		c-0.51,0.03-1.01,0-1.5-0.14c-0.19-0.05-0.4-0.09-0.54-0.27c-0.09-0.11-0.21-0.17-0.28-0.3c-0.03-0.06-0.06-0.11-0.07-0.18
		c-0.01-0.09-0.02-0.18,0.11-0.18c0.1,0,0.12-0.1,0.18-0.14c0.43-0.16,0.77-0.46,1.08-0.78c0.34-0.35,0.65-0.74,0.75-1.25
		c0.02-0.03,0.03-0.05,0.07-0.04c0,0.01,0,0.03,0.01,0.04C15.11,14.91,15.13,14.93,15.15,14.94z"/>
	<path class="st7" d="M30.25,16.79c0.2-0.09,0.42-0.09,0.62-0.21c0.14-0.09,0.28-0.18,0.41-0.29c0.28-0.26,0.53-0.56,0.79-0.85
		c0.21-0.23,0.45-0.41,0.7-0.59c0.01,0.01,0.02,0.01,0.02,0.02c0.01,0.02,0.02,0.04,0.02,0.06c0.14,0.57,0.49,1.01,0.92,1.39
		c0.27,0.24,0.54,0.49,0.91,0.6c0.05,0.07,0.11,0.14,0.21,0.14c0.11,0,0.11,0.06,0.09,0.15c-0.03,0.17-0.13,0.29-0.25,0.4
		c-0.04,0.03-0.09,0.05-0.11,0.1c-0.03,0.1-0.12,0.12-0.2,0.16c-0.45,0.19-0.92,0.26-1.41,0.26c-0.4,0.06-0.73-0.09-1.04-0.33
		c-0.25-0.18-0.52-0.32-0.78-0.48C30.85,17.14,30.51,17.04,30.25,16.79z"/>
	<path class="st5" d="M33.79,37.79c-0.25,0.34-0.59,0.49-1.01,0.49c-0.42,0-0.73-0.21-0.86-0.57c-0.15-0.39-0.06-0.81,0.23-1.08
		c0.15-0.14,0.33-0.24,0.53-0.3c0.3-0.1,0.62-0.14,0.93-0.15c0.18-0.01,0.18-0.01,0.18-0.19c-0.01-0.36-0.18-0.52-0.54-0.54
		c-0.26-0.01-0.51,0.04-0.76,0.11c-0.1,0.03-0.2,0.06-0.31,0.1c-0.07-0.17-0.08-0.35-0.12-0.53c-0.02-0.07,0.01-0.1,0.08-0.13
		c0.22-0.07,0.44-0.13,0.66-0.16c0.3-0.05,0.6-0.05,0.9-0.01c0.59,0.09,0.9,0.43,0.92,1.03c0.01,0.49,0,0.97,0.01,1.46
		c0,0.27,0,0.27,0.27,0.29c0.31,0.03,0.31,0.03,0.31,0.35c0,0.21,0,0.21-0.2,0.22c-0.37,0.03-0.75,0.05-1.12,0.04
		c-0.08-0.14,0.02-0.3-0.06-0.44c0,0-0.01,0-0.02,0C33.8,37.78,33.79,37.79,33.79,37.79z"/>
	<path class="st5" d="M30.15,37.74c-0.06,0.02-0.07,0.07-0.1,0.11c-0.32,0.37-0.72,0.49-1.19,0.41c-0.36-0.07-0.59-0.29-0.68-0.65
		c-0.09-0.38-0.01-0.73,0.29-1c0.18-0.16,0.4-0.25,0.63-0.31c0.26-0.07,0.53-0.1,0.81-0.11c0.17-0.01,0.17-0.01,0.17-0.17
		c0-0.37-0.17-0.54-0.54-0.56c-0.3-0.01-0.58,0.06-0.87,0.14c-0.06,0.02-0.12,0.04-0.2,0.07c-0.06-0.18-0.08-0.36-0.12-0.54
		c-0.02-0.07,0.02-0.1,0.09-0.12c0.41-0.13,0.83-0.21,1.26-0.19c0.15,0.01,0.29,0.02,0.44,0.05c0.5,0.13,0.75,0.42,0.78,0.94
		c0.01,0.36,0.01,0.72,0.01,1.08c0,0.18,0.01,0.37,0,0.55c-0.01,0.12,0.05,0.16,0.15,0.17c0.11,0.01,0.22,0.02,0.33,0.03
		c0.08,0.01,0.11,0.04,0.11,0.13c-0.01,0.49,0.06,0.39-0.38,0.43c-0.28,0.02-0.56,0.03-0.84,0.03c-0.1,0-0.15-0.03-0.14-0.14
		C30.16,37.97,30.15,37.86,30.15,37.74z"/>
	<path class="st5" d="M18.76,35.35c0.34-0.49,0.82-0.61,1.38-0.51c0.36,0.07,0.6,0.35,0.66,0.74c0.02,0.12,0.02,0.23,0.02,0.35
		c0,0.69,0,1.38,0,2.07c0,0.21,0,0.21-0.22,0.21c-0.14,0-0.28,0-0.42,0c-0.19,0-0.19,0-0.19-0.2c0-0.6,0-1.21,0-1.81
		c0-0.12,0-0.24-0.03-0.35c-0.05-0.26-0.21-0.38-0.47-0.34c-0.21,0.03-0.37,0.14-0.49,0.31c-0.17,0.24-0.23,0.5-0.23,0.79
		c0,0.46,0,0.91,0,1.37c0,0.26,0.02,0.23-0.24,0.23c-0.15,0-0.29,0-0.44,0c-0.15,0-0.15,0-0.16-0.16c0-0.43,0-0.85,0-1.28
		c0-0.37,0-0.74,0-1.1c0-0.14,0.01-0.17-0.17-0.18c-0.1-0.01-0.19-0.03-0.28-0.03c-0.09,0-0.12-0.03-0.13-0.13
		c-0.02-0.4-0.02-0.41,0.38-0.44c0.29-0.02,0.59-0.01,0.88-0.02c0.08,0,0.12,0.02,0.12,0.11c-0.01,0.08-0.01,0.16-0.01,0.24
		C18.71,35.27,18.65,35.34,18.76,35.35z"/>
	<path class="st5" d="M16.8,37.46c0.06,0.18,0.05,0.36,0.09,0.52c0.02,0.07-0.02,0.1-0.09,0.12c-0.54,0.16-1.09,0.24-1.65,0.11
		c-0.52-0.12-0.86-0.44-1-0.95c-0.12-0.46-0.13-0.92,0.02-1.37c0.36-1.11,1.42-1.24,2.11-0.96c0.45,0.18,0.65,0.55,0.71,1.01
		c0.03,0.21,0.02,0.41,0,0.62c-0.01,0.15-0.01,0.16-0.17,0.16c-0.54,0-1.09,0-1.63,0c-0.05,0-0.1,0.01-0.15,0
		c-0.12-0.01-0.13,0.05-0.12,0.15c0.02,0.44,0.3,0.72,0.74,0.76c0.33,0.02,0.65-0.02,0.96-0.1C16.68,37.49,16.73,37.48,16.8,37.46z"
		/>
	<path class="st7" d="M11.56,20.38c0.21,0.27,0.36,0.58,0.55,0.86c0.13,0.19,0.17,0.39,0.16,0.62c-0.01,0.3,0,0.6,0,0.9
		c0.02,0.1-0.06,0.16-0.11,0.23c-0.5,0.68-0.73,1.43-0.58,2.28c0.05,0.29,0.15,0.56,0.32,0.81c0.13,0.19,0.18,0.4,0.06,0.62
		c-0.26,0-0.53,0-0.79-0.01c-0.18,0-0.21-0.03-0.16-0.19c0.04-0.13,0.02-0.22-0.05-0.33c-0.12-0.19-0.26-0.37-0.32-0.58
		c-0.05-0.2-0.01-0.43,0-0.65c0-0.46,0.01-0.93-0.05-1.39c-0.04-0.28-0.08-0.55-0.22-0.8c-0.02-0.03-0.04-0.06-0.03-0.11
		c0.09-0.02,0.18-0.04,0.27-0.05c0.17-0.02,0.33-0.07,0.48-0.15c0.29-0.15,0.46-0.38,0.46-0.72C11.56,21.28,11.56,20.83,11.56,20.38
		z"/>
	<path class="st1" d="M35.59,22.76c0-0.35,0-0.69,0-1.04c0-0.14,0.03-0.27,0.11-0.39c0.15-0.22,0.28-0.46,0.42-0.69
		c0.03-0.05,0.06-0.1,0.13-0.14c0,0.42,0,0.83,0,1.24c0,0.08-0.03,0.16,0.04,0.23c0.09,0.28,0.31,0.43,0.57,0.54
		c0.21,0.08,0.42,0.1,0.65,0.14c-0.27,0.45-0.3,0.94-0.32,1.43c-0.03,0.46-0.03,0.92,0.02,1.39c0.01,0.08-0.01,0.14-0.05,0.21
		c-0.09,0.16-0.18,0.32-0.28,0.48c-0.07,0.12-0.11,0.23-0.06,0.37c0.05,0.15,0.03,0.17-0.13,0.17c-0.26,0.01-0.53,0.01-0.79,0.01
		c-0.1-0.12-0.05-0.26-0.05-0.4c0.03-0.16,0.15-0.27,0.22-0.4c0.1-0.21,0.16-0.42,0.21-0.65c0.01-0.03,0.01-0.06,0.01-0.1
		c0-0.02,0-0.04,0-0.06c0-0.06,0-0.13,0.02-0.19c0.03-0.08,0.02-0.17,0-0.25c-0.02-0.1-0.01-0.2-0.02-0.3
		c-0.03-0.14-0.05-0.28-0.1-0.41c-0.06-0.23-0.15-0.44-0.28-0.64c-0.01-0.02-0.02-0.03-0.03-0.05c-0.04-0.08-0.08-0.16-0.14-0.22
		c-0.01-0.01-0.02-0.03-0.03-0.05c-0.03-0.05-0.07-0.09-0.1-0.14c0-0.01-0.01-0.02-0.01-0.03C35.57,22.79,35.58,22.78,35.59,22.76z"
		/>
	<path class="st3" d="M15.1,14.86c-0.01,0.01-0.03,0.03-0.04,0.04c-0.02,0.01-0.04,0.03-0.06,0.03c-0.29-0.07-0.58-0.08-0.88-0.12
		c-0.09-0.07-0.18-0.03-0.27-0.02c-0.28,0.04-0.56,0.1-0.83,0.19c-0.03,0.01-0.06,0.02-0.1,0c0.01-0.12,0.06-0.23,0.11-0.34
		c0.06-0.13,0.04-0.23-0.06-0.33c-0.05-0.05-0.11-0.1-0.13-0.18c0.2-0.01,0.38,0.05,0.57,0.05c0.01,0,0.03,0.01,0.04,0.01
		c0.24,0.04,0.24,0.04,0.33-0.19c-0.03-0.06-0.08-0.11-0.03-0.19c0.04-0.01,0.06-0.03,0.06-0.07c-0.02-0.17-0.11-0.3-0.28-0.36
		c-0.22-0.08-0.45-0.08-0.67,0c-0.1,0.04-0.15,0.03-0.17-0.08c-0.03-0.13-0.12-0.26-0.02-0.4c0.03-0.04-0.03-0.05-0.06-0.07
		c-0.13-0.09-0.14-0.18-0.02-0.27c0.12-0.09,0.23-0.18,0.35-0.26c0.13-0.08,0.19-0.19,0.22-0.33c0.05-0.24,0.06-0.24,0.31-0.28
		c0.28-0.05,0.56-0.11,0.84-0.17c0.09,0.33,0.25,0.62,0.36,0.94c0.17,0.5,0.32,1,0.4,1.52C15.11,14.26,15.09,14.56,15.1,14.86z"/>
	<path class="st4" d="M32.77,14.85c0-0.07,0-0.15,0-0.22c-0.03-0.58,0.1-1.13,0.26-1.68c0.13-0.43,0.3-0.84,0.46-1.26
		c0.04-0.1,0.09-0.17,0.21-0.15c0.26,0.04,0.51,0.12,0.78,0.14c0.1,0.01,0.16,0.06,0.18,0.16c0.01,0.05,0.02,0.1,0.03,0.15
		c0.02,0.11,0.07,0.2,0.18,0.26c0.12,0.08,0.24,0.17,0.35,0.26c0.18,0.14,0.16,0.24-0.05,0.34c0.04,0.09,0.08,0.17,0.04,0.29
		c-0.09,0.25-0.08,0.25-0.33,0.19c-0.2-0.05-0.39-0.03-0.58,0.04c-0.15,0.06-0.25,0.17-0.25,0.35c0,0.03,0.02,0.05,0.04,0.07
		c0.04,0.06,0.01,0.11,0,0.17c0.03,0.23,0.04,0.24,0.25,0.22c0.11-0.01,0.22-0.03,0.33-0.04c0.11-0.01,0.22-0.03,0.34-0.04
		c-0.03,0.11-0.11,0.17-0.17,0.24c-0.07,0.07-0.09,0.14-0.05,0.24c0.06,0.12,0.09,0.26,0.15,0.41c-0.33-0.06-0.62-0.17-0.92-0.19
		c-0.08-0.04-0.16,0-0.24-0.01c-0.26-0.05-0.51,0-0.76,0.05C32.93,14.86,32.85,14.89,32.77,14.85
		C32.77,14.85,32.77,14.85,32.77,14.85z"/>
	<path class="st1" d="M24.79,11c0.65-0.01,1.3,0.06,1.96,0.11c0.28,0.02,0.56,0.05,0.83,0.08c0.15,0.01,0.15,0.02,0.13,0.16
		c-0.05,0.38-0.09,0.76-0.14,1.14c-0.02,0.16-0.02,0.17-0.17,0.15c-0.63-0.07-1.27-0.09-1.91-0.13c-0.38-0.04-0.76-0.01-1.14-0.02
		c-0.34-0.01-0.69,0-1.03,0c-0.14,0-0.17-0.06-0.12-0.18c0.08-0.16,0.15-0.32,0.29-0.43c0.09-0.05,0.17-0.02,0.26,0
		c0.1,0.02,0.2,0.02,0.31,0c0.09-0.02,0.2-0.04,0.2-0.16c0-0.11-0.11-0.14-0.19-0.18c-0.09-0.04-0.21,0-0.27-0.11
		c0.06-0.34,0.17-0.44,0.48-0.43C24.43,10.99,24.61,10.97,24.79,11z"/>
	<path class="st3" d="M15.9,17.77c0.14-0.16,0.36-0.22,0.53-0.35c0.07-0.05,0.15-0.09,0.23-0.13c0.32,0.33,0.61,0.69,0.93,1.03
		c0.21,0.22,0.38,0.48,0.62,0.68c0.03,0.03,0.06,0.07,0.08,0.1c0.06,0.14,0.14,0.22,0.3,0.14c0.08-0.04,0.14,0.01,0.13,0.11
		c0,0.14,0,0.28,0,0.42c0,0.1,0.01,0.17,0.12,0.2c0.17,0.06,0.27,0.19,0.33,0.36c0.02,0.02,0.02,0.05,0.02,0.08
		c0-0.03,0-0.05,0.01-0.08c0-0.1,0.01-0.19,0.01-0.29c0-2.1,0-4.2,0-6.31c0-0.08-0.04-0.18,0.04-0.24c0,2.18,0,4.36,0,6.53
		c0,0.21,0.01,0.41-0.04,0.61c-0.15,0-0.34-0.06-0.45,0.02c-0.11,0.09-0.04,0.29-0.04,0.44c-0.01,0.23-0.19,0.33-0.39,0.22
		c-0.69-0.91-1.32-1.87-1.98-2.8c-0.12-0.17-0.25-0.34-0.36-0.52C15.94,17.92,15.87,17.86,15.9,17.77z"/>
	<path class="st3" d="M31.93,17.77c0.17,0.06,0.31,0.16,0.45,0.26c0.06,0.05,0.11,0.07,0.2,0.06c0.12-0.02,0.25,0,0.37,0
		c-0.07,0.15-0.18,0.09-0.27,0.06c0.21,0.17,0.48,0.29,0.62,0.56c0.18,0.21,0.38,0.4,0.53,0.64c0.27,0.42,0.38,0.89,0.35,1.38
		c0,0.04-0.01,0.07-0.04,0.1c-0.04,0.02-0.08,0.01-0.1-0.01c-0.29-0.21-0.61-0.4-0.87-0.66c-0.01-0.05-0.06-0.08-0.1-0.11
		c-0.41-0.3-0.82-0.6-1.22-0.9c-0.14-0.1-0.14-0.1-0.24,0.02c-0.4,0.49-0.8,0.98-1.2,1.47c-0.08,0.09-0.16,0.17-0.26,0.23
		c-0.24,0.16-0.46,0.37-0.73,0.49c-0.05-0.09,0.02-0.15,0.06-0.21c0.75-1.07,1.5-2.15,2.26-3.22
		C31.78,17.85,31.81,17.75,31.93,17.77z"/>
	<path class="st3" d="M38.28,18.83c-0.2-0.1-0.35-0.25-0.53-0.38c-0.64-0.48-1.27-0.97-1.9-1.45c-0.05-0.04-0.09-0.09-0.14-0.01
		c-0.22-0.46-0.13-0.89,0.16-1.28c0.25-0.33,0.59-0.51,1.03-0.5c0.48,0.01,0.96-0.02,1.43-0.12c0.22-0.05,0.42-0.12,0.57-0.3
		c0.14,0.2,0.14,0.22-0.16,0.72c0.18,0.02,0.36,0.01,0.52,0.05c0.11,0.03,0.21,0.05,0.31,0.1c0.13,0.06,0.21,0.16,0.26,0.29
		c0.15,0.38-0.06,0.92-0.43,1.09c-0.05,0.02-0.1,0.04-0.15,0.05c-0.08,0.02-0.1-0.04-0.1-0.1c0.09-0.62-0.2-0.97-0.82-1
		c-0.28-0.01-0.56,0.01-0.83-0.01c-0.15-0.01-0.27,0.03-0.35,0.17c-0.01-0.01-0.02-0.02-0.02-0.04c-0.05-0.23-0.06-0.24-0.3-0.22
		c-0.26,0.03-0.44,0.17-0.52,0.41c-0.09,0.24-0.02,0.45,0.16,0.63c0.5,0.5,1,1,1.49,1.5C38.1,18.55,38.22,18.67,38.28,18.83z"/>
	<path class="st4" d="M12.15,16.84c-0.29,0.16-0.53,0.39-0.79,0.58c-0.53,0.4-1.05,0.81-1.58,1.22c-0.05,0.04-0.09,0.11-0.17,0.05
		c0.04-0.1,0.12-0.16,0.19-0.24c0.51-0.51,1.02-1.01,1.52-1.52c0.23-0.23,0.26-0.54,0.09-0.78c-0.07-0.1-0.16-0.17-0.26-0.23
		c-0.07-0.05-0.14-0.03-0.21-0.02c-0.47,0.06-0.94,0.02-1.4,0.05c-0.32,0.04-0.61,0.15-0.84,0.39c-0.05,0.03-0.08,0.07-0.08,0.13
		c0,0.04-0.02,0.07-0.04,0.1c-0.04,0.12,0,0.23,0.01,0.34c0,0.05,0.08,0.14-0.04,0.16C8.24,17,7.98,16.69,7.94,16.34
		c-0.01-0.07-0.01-0.15,0-0.22c0.02-0.24,0.14-0.41,0.37-0.5c0.17-0.07,0.36-0.08,0.54-0.1c0.07-0.01,0.15,0.01,0.23-0.03
		c-0.12-0.22-0.35-0.42-0.18-0.72c0.3,0.32,0.69,0.34,1.08,0.39c0.35,0.05,0.7,0.05,1.06,0.04C11.79,15.2,12.45,16.13,12.15,16.84z"
		/>
	<path class="st4" d="M23.54,11.89c-0.17,0.15-0.24,0.35-0.35,0.54c0.08,0.06,0.15,0.03,0.23,0.04c0.61,0,1.22,0,1.83,0
		c0.08,0,0.16-0.03,0.23,0.04c-0.43,0-0.87-0.01-1.3,0c-0.62,0-1.25,0-1.87,0.02c-0.59,0.02-1.19,0.06-1.78,0.12
		c-0.27,0.03-0.27,0.02-0.3-0.25c-0.04-0.32-0.09-0.64-0.13-0.96c-0.02-0.21-0.02-0.21,0.18-0.23c0.5-0.05,1.01-0.1,1.51-0.13
		c0.89-0.06,1.79-0.1,2.69-0.09c0.1,0,0.21-0.02,0.3,0.03c-0.2,0-0.41,0.01-0.61,0.01c-0.11,0-0.18,0.03-0.22,0.13
		c-0.04,0.11-0.15,0.18-0.15,0.31c-0.01,0.02-0.03,0.04-0.05,0.04C23.55,11.55,23.48,11.68,23.54,11.89z"/>
	<path class="st4" d="M31.93,17.77c-0.13,0.1-0.2,0.25-0.29,0.38c-0.48,0.68-0.95,1.37-1.43,2.05c-0.24,0.34-0.48,0.68-0.72,1.02
		c-0.03,0.04-0.04,0.09-0.07,0.14c0,0,0,0,0,0c-0.03,0.02-0.07,0.02-0.1,0c-0.19-0.07-0.2-0.07-0.2-0.26c0-0.11-0.01-0.22,0-0.33
		c0.01-0.11-0.04-0.14-0.14-0.14c-0.12,0.01-0.23-0.01-0.35,0.01c0-0.08,0-0.15,0-0.23c0.04-0.05,0.02-0.13,0.09-0.17
		c0.07-0.12,0.17-0.22,0.3-0.27c0.09-0.03,0.11-0.1,0.11-0.19c0-0.15,0-0.29,0-0.44c0-0.1,0.04-0.13,0.13-0.11
		c0.08,0.02,0.16,0.08,0.24-0.01c0.06-0.06,0.12-0.13,0.17-0.21c0.23-0.31,0.51-0.59,0.76-0.88c0.25-0.29,0.51-0.57,0.76-0.85
		c0.21,0.13,0.42,0.26,0.64,0.38C31.86,17.7,31.91,17.72,31.93,17.77z"/>
	<path class="st3" d="M36.22,23.91c0.1,0.12,0.06,0.27,0.12,0.4c-0.02,0.12-0.04,0.23,0.01,0.35c0.06,0.07,0.06,0.15,0,0.22
		c-0.04,0.07-0.04,0.15,0,0.22c0,0.02,0,0.03,0,0.05c-0.02,0.03-0.02,0.06,0,0.09c-0.03,0.13-0.06,0.26-0.1,0.38
		c-0.07,0.24-0.2,0.44-0.34,0.64c-0.06,0.14,0.01,0.3-0.04,0.45c-0.04,0.03-0.1,0.03-0.15,0.03c-0.56,0-1.12,0.01-1.68,0.01
		c-0.18,0-0.2-0.03-0.15-0.19c0.04-0.14,0.1-0.28,0.19-0.39c0.16-0.2,0.37-0.3,0.62-0.24c0.13,0.03,0.21-0.01,0.29-0.09
		c0.44-0.43,0.56-0.95,0.39-1.54c-0.08-0.27-0.25-0.5-0.43-0.71c-0.03-0.03-0.06-0.06-0.11-0.05c0.18-0.22,0.34-0.45,0.57-0.63
		c0.05-0.05,0.08-0.15,0.18-0.09l0,0c0.04,0.07,0.09,0.12,0.13,0.18l0,0c0.06,0.09,0.11,0.18,0.18,0.27l0,0
		C36.03,23.46,36.12,23.68,36.22,23.91z"/>
	<path class="st4" d="M11.96,26.7c0-0.07,0-0.13,0-0.2c0.01-0.15-0.04-0.28-0.12-0.41c-0.33-0.51-0.42-1.08-0.33-1.68
		c0.07-0.52,0.27-0.98,0.57-1.41c0.06-0.08,0.14-0.15,0.19-0.24c0.2,0.22,0.39,0.44,0.58,0.66c0.02,0.02,0.02,0.07,0.04,0.1
		c-0.15,0.19-0.3,0.38-0.4,0.6c-0.26,0.58-0.12,1.29,0.34,1.7c0.09,0.08,0.17,0.11,0.29,0.09c0.27-0.06,0.49,0.05,0.65,0.28
		c0.04,0.05,0.07,0.11,0.1,0.17c0.16,0.35,0.15,0.37-0.23,0.37C13.08,26.73,12.52,26.74,11.96,26.7z"/>
	<path class="st7" d="M13.59,24.23c0.07-0.06,0.05-0.15,0.05-0.23c0-0.66,0-1.32,0.01-1.99c0-0.08-0.03-0.16,0.05-0.23
		c0.06-0.05,0.12-0.04,0.19-0.02c0.67,0.16,1.34,0.31,2.01,0.46c0.03,0.01,0.05,0.02,0.08,0.04c0.02,0.01,0.04,0.03,0.05,0.05
		c0.02,0.03,0.04,0.06,0.05,0.09c0.41,0.87,0.89,1.71,1.31,2.58c0.04,0.09,0.13,0.17,0.07,0.29c-0.38,0.05-0.77,0.09-1.15,0.11
		c-0.03-0.08,0-0.14,0.03-0.19c0.07-0.13,0.05-0.23-0.04-0.34c-0.54-0.76-1.08-1.52-1.61-2.29c-0.08-0.12-0.18-0.2-0.33-0.22
		c-0.17-0.02-0.33-0.07-0.5-0.1c-0.14-0.03-0.17-0.01-0.17,0.15c0,0.55,0,1.1,0,1.66c0,0.06,0,0.12-0.01,0.18
		C13.66,24.27,13.62,24.27,13.59,24.23z"/>
	<path class="st4" d="M15.98,22.32c-0.32-0.08-0.65-0.15-0.97-0.23c-0.44-0.1-0.88-0.2-1.32-0.3c0-0.32,0-0.65,0-0.97
		c0.29-0.29,0.58-0.56,0.97-0.7c0.19,0.21,0.42,0.37,0.63,0.54c0.64,0.53,1.28,1.06,1.91,1.59c0.06,0.05,0.17,0.08,0.14,0.18
		c-0.02,0.08-0.11,0.12-0.2,0.12c-0.16,0.01-0.09,0.14-0.11,0.22c-0.18-0.21-0.43-0.24-0.68-0.29
		C16.23,22.44,16.08,22.43,15.98,22.32z"/>
	<path class="st3" d="M34.14,21.79c0.09,0.15,0.03,0.31,0.04,0.46c-0.23-0.03-0.44,0.08-0.67,0.09c-0.17,0.01-0.27,0.1-0.36,0.24
		c-0.51,0.74-1.03,1.48-1.55,2.22c-0.11,0.15-0.17,0.28-0.06,0.45c0.02,0.03,0.02,0.07,0.03,0.1c-0.08,0.04-0.15,0.02-0.22,0.01
		c-0.41-0.03-0.82-0.08-1.23-0.1c-0.03,0-0.05-0.02-0.08-0.03c0.01-0.01,0.02-0.03,0.03-0.03c0.3,0,0.4-0.21,0.5-0.44
		c0.37-0.78,0.8-1.53,1.17-2.3c0.03-0.07,0.06-0.13,0.12-0.18c0.36-0.16,0.75-0.2,1.12-0.3c0.3-0.08,0.61-0.15,0.92-0.21
		C33.97,21.76,34.05,21.73,34.14,21.79z"/>
	<path class="st1" d="M34.14,21.79c-0.77,0.17-1.53,0.34-2.29,0.53c-0.34,0.15-0.69,0.26-1.08,0.23c-0.04,0-0.09,0-0.13-0.01
		c-0.19-0.07-0.2-0.14-0.05-0.26c0.86-0.71,1.72-1.42,2.58-2.12c0.23,0.11,0.41,0.28,0.61,0.42c0.12,0.08,0.23,0.19,0.36,0.25
		C34.14,21.14,34.14,21.47,34.14,21.79z"/>
	<path class="st4" d="M30.87,13.66c-0.09,0.47-0.19,0.94-0.28,1.41c-0.05,0.23-0.09,0.46-0.16,0.68c-0.02,0.05-0.03,0.1-0.08,0.12
		c-0.38-0.36-0.76-0.71-1.15-1.07c-0.07-0.07-0.09-0.14-0.09-0.24c0-0.44,0-0.88,0-1.32c0-0.19,0-0.19-0.19-0.22
		c-0.25-0.03-0.49-0.06-0.75-0.08c0.02-0.14,0.11-0.23,0.16-0.34c0.03-0.05,0.09-0.05,0.14-0.05c0.32,0,0.65,0,0.97,0
		c0.08,0,0.15,0.03,0.17,0.1c0.11,0.3,0.36,0.45,0.61,0.6C30.45,13.38,30.66,13.52,30.87,13.66z"/>
	<path class="st1" d="M17.48,15.87c-0.06-0.05-0.07-0.12-0.09-0.19c-0.12-0.49-0.23-0.99-0.3-1.49c-0.01-0.1-0.05-0.18-0.07-0.27
		C17,13.82,16.96,13.74,17,13.65c0.24-0.18,0.5-0.34,0.76-0.49c0.18-0.11,0.33-0.24,0.41-0.44c0.05-0.13,0.14-0.18,0.29-0.18
		c0.27,0.01,0.54,0.01,0.82,0c0.16-0.01,0.25,0.05,0.3,0.19c0.02,0.06,0.08,0.11,0.08,0.2c-0.18,0.02-0.36,0.05-0.54,0.06
		c-0.4,0.03-0.4,0.03-0.4,0.42c0,0.38,0,0.77,0,1.15c0,0.08,0,0.16-0.07,0.22C18.25,15.14,17.87,15.51,17.48,15.87z"/>
	<path class="st5" d="M16.69,26.21c0.17,0.05,0.35,0.03,0.53,0.04c0.07-0.03,0.15-0.03,0.22,0c0.17,0.07,0.36,0.01,0.53,0.04
		c0.09-0.03,0.17-0.03,0.26,0c0.13,0.04,0.25,0.07,0.39,0.02c0.03-0.01,0.07,0.02,0.1,0.03c0.09-0.03,0.17-0.03,0.26,0
		c0.16,0.06,0.33,0.01,0.49,0.04c0.09-0.03,0.17-0.03,0.26,0c0.16,0.04,0.32,0.04,0.49,0.04c0.09-0.03,0.18-0.03,0.26,0
		c0.14,0.34,0.28,0.68,0.42,1.01c0.19,0.46,0.39,0.91,0.58,1.36c-0.03,0.07-0.08,0.05-0.12,0.05c-0.29,0-0.59,0-0.88,0
		c-0.17,0-0.17,0-0.17-0.17c0-0.57,0-1.15,0-1.72c0-0.08,0.03-0.16-0.05-0.22c-0.64-0.01-1.28-0.02-1.91-0.02c-1.06,0-2.11,0-3.17,0
		c-0.27,0-0.24,0.01-0.24-0.24c0-0.12-0.03-0.25,0.03-0.36c0.12,0.01,0.25-0.01,0.37,0.04c0.11,0.04,0.23-0.07,0.34,0
		c0.09-0.03,0.17-0.03,0.26,0c0.16,0.04,0.33,0.04,0.49,0.04C16.51,26.18,16.6,26.18,16.69,26.21z"/>
	<path class="st5" d="M8.74,26.97c0.09,0.2,0.09,0.43,0.12,0.64c0.07,0.42,0.2,0.82,0.36,1.22c0.19,0.47,0.47,0.89,0.77,1.3
		c0.04,0.05,0.09,0.1,0.14,0.16c-0.08,0.05-0.17,0.01-0.25,0.04c-0.5,0-0.99-0.08-1.49-0.15c-0.08-0.01-0.13-0.04-0.13-0.14
		c0-1.04,0-2.07,0.01-3.11c0-0.01,0.01-0.02,0.03-0.05C8.44,26.91,8.59,26.94,8.74,26.97z"/>
	<path class="st4" d="M30.77,22.55c0.32-0.07,0.65-0.15,0.97-0.22c0.03-0.01,0.07-0.01,0.11-0.01c-0.01,0.08-0.05,0.14-0.08,0.2
		c-0.43,0.85-0.86,1.7-1.29,2.55c-0.06,0.12-0.14,0.18-0.27,0.16c-0.06-0.01-0.12,0-0.18,0c-0.42-0.02-0.84-0.04-1.25-0.06
		c-0.09,0-0.12-0.04-0.08-0.12c0.06-0.14,0.13-0.28,0.23-0.4c0.12-0.15,0.28-0.23,0.47-0.19c0.27,0.06,0.46-0.05,0.65-0.23
		c0.44-0.44,0.68-0.97,0.77-1.57C30.8,22.63,30.8,22.59,30.77,22.55z"/>
	<path class="st1" d="M15.98,22.32c0.29,0.07,0.57,0.14,0.86,0.2c0.11,0.02,0.17,0.07,0.16,0.18c0,0.02,0.02,0.04,0.03,0.05
		c0.06,0.25,0.12,0.5,0.23,0.73c0.17,0.36,0.4,0.67,0.72,0.91c0.09,0.07,0.19,0.11,0.31,0.09c0.06-0.01,0.12-0.01,0.18-0.02
		c0.17-0.02,0.3,0.04,0.41,0.16c0.12,0.13,0.19,0.28,0.26,0.43c0.04,0.09-0.01,0.12-0.09,0.12c-0.23,0.01-0.46,0.03-0.68,0.04
		c-0.31,0.02-0.62,0.03-0.92,0.05c-0.21-0.45-0.44-0.9-0.67-1.34c-0.26-0.5-0.53-1-0.75-1.52c-0.01-0.02-0.02-0.04-0.04-0.05
		C15.98,22.35,15.98,22.34,15.98,22.32z"/>
	<path class="st6" d="M14.66,20.11c-0.32,0.23-0.65,0.47-0.97,0.7c0-0.25-0.03-0.5,0.02-0.75c0.09-0.42,0.31-0.76,0.58-1.07
		c0.06-0.07,0.13-0.14,0.19-0.21c0.22-0.31,0.48-0.56,0.85-0.68c0.05,0,0.09,0,0.12,0.04c0.22,0.25,0.42,0.51,0.62,0.77
		c0.03,0.04,0.05,0.09,0.01,0.14c-0.35,0.3-0.74,0.55-1.1,0.83C14.87,19.96,14.77,20.04,14.66,20.11z"/>
	<path class="st4" d="M15.32,18.12c-0.21,0.1-0.38,0.25-0.55,0.4c-0.1,0.09-0.18,0.2-0.29,0.27c-0.07-0.07-0.17-0.05-0.25-0.04
		c-0.59,0.1-1.17,0.21-1.76,0.29c-0.2,0.03-0.39,0.1-0.59,0.06c0.29-0.33,0.61-0.62,0.91-0.92c0.15-0.15,0.3-0.3,0.45-0.45
		c0.58,0.29,1.2,0.37,1.83,0.36c0.08,0,0.16,0,0.24,0.01c0.01,0.01,0.02,0.02,0.01,0.02C15.33,18.12,15.33,18.12,15.32,18.12z"/>
	<path class="st1" d="M14.12,14.8c0.25-0.08,0.49-0.02,0.73,0.04c0.07,0.02,0.14,0.04,0.21,0.06c0,0.24-0.11,0.44-0.23,0.63
		c-0.36,0.58-0.84,1.03-1.43,1.36c-0.06,0.03-0.12,0.12-0.21,0.03c0.03-0.13,0.03-0.26,0.02-0.39c-0.01-0.14-0.01-0.28-0.01-0.42
		c0-0.13,0.05-0.24,0.18-0.27c0.12-0.02,0.12-0.09,0.14-0.18C13.58,15.28,13.76,14.98,14.12,14.8z"/>
	<path class="st1" d="M34.63,16.92c-0.04,0.06-0.08,0.03-0.13,0.01c-0.18-0.08-0.34-0.2-0.5-0.32c-0.47-0.36-0.87-0.78-1.13-1.32
		c-0.06-0.13-0.12-0.25-0.11-0.4c0.28-0.15,0.59-0.13,0.89-0.13c0.07,0,0.12,0.04,0.16,0.09c0.29,0.21,0.46,0.49,0.49,0.85
		c0.01,0.07,0.02,0.12,0.1,0.14c0.16,0.04,0.21,0.16,0.21,0.32c0,0.14-0.01,0.28-0.01,0.42C34.61,16.69,34.61,16.81,34.63,16.92z"/>
	<path class="st5" d="M39.22,30.19c-0.07-0.5-0.11-1-0.22-1.49c-0.13-0.54-0.3-1.06-0.64-1.51c-0.05-0.07-0.02-0.1,0.02-0.14
		c0.38-0.05,0.77-0.11,1.16-0.16c0.05,0.06,0.03,0.12,0.03,0.19c0,0.95,0,1.9,0,2.85c0,0.24,0,0.24-0.24,0.26
		C39.29,30.19,39.25,30.19,39.22,30.19z"/>
	<path class="st1" d="M33.3,18.7c-0.22-0.18-0.45-0.37-0.68-0.56c0.11-0.05,0.23,0.02,0.33-0.06c0.57-0.01,1.12-0.1,1.63-0.36
		c0.44,0.44,0.9,0.87,1.32,1.33c-0.07,0.07-0.17,0.05-0.25,0.03c-0.73-0.13-1.46-0.24-2.18-0.35C33.41,18.73,33.35,18.71,33.3,18.7z
		"/>
	<path class="st8" d="M29.06,26.47c0.06-0.01,0.13,0.02,0.18-0.04c0.06-0.03,0.12-0.03,0.17,0c0.06,0,0.13,0.02,0.18-0.04
		c0.04-0.04,0.1-0.01,0.15-0.02c0.02,0,0.04-0.01,0.06-0.02c0.02,0,0.04-0.01,0.06-0.01c0.03-0.01,0.07-0.02,0.1-0.02
		c0.2-0.01,0.39-0.05,0.59-0.07c0.08-0.01,0.16-0.04,0.23,0c0.06-0.01,0.13,0.02,0.18-0.04c0.45-0.08,0.91-0.13,1.37-0.18
		c0.16-0.01,0.32,0.04,0.48,0.05c0.08,0,0.1,0.04,0.1,0.11c-0.01,0.17,0.02,0.34-0.02,0.5c-1.78,0-3.56,0-5.33,0
		c0-0.01,0-0.02,0-0.03c0.27-0.03,0.54-0.06,0.81-0.1c0.17-0.03,0.35-0.01,0.51-0.08C28.94,26.44,29,26.44,29.06,26.47z"/>
	<path class="st1" d="M15.32,18.12c0-0.01,0-0.02,0-0.03c0.14-0.05,0.24-0.15,0.36-0.22c0.07-0.04,0.13-0.09,0.21-0.1
		c0.66,0.95,1.32,1.9,1.98,2.85c0.13,0.19,0.26,0.37,0.39,0.56c0.03,0.04,0.06,0.08,0.06,0.14c-0.42-0.28-0.83-0.56-1.14-0.98
		c-0.3-0.41-0.63-0.79-0.95-1.18c-0.04-0.05-0.07-0.12-0.15-0.11c-0.06-0.2-0.23-0.32-0.34-0.48c-0.1-0.15-0.23-0.28-0.34-0.42
		C15.38,18.14,15.35,18.13,15.32,18.12z"/>
	<path class="st1" d="M37.18,16.14c0-0.03,0.01-0.06,0.01-0.09c-0.01-0.1,0.04-0.15,0.14-0.14c0.15,0,0.29,0,0.44,0
		c0.18,0,0.37,0,0.55,0c0.27,0,0.5,0.09,0.71,0.24c0.21,0.16,0.35,0.54,0.15,0.82c-0.07-0.27-0.26-0.37-0.51-0.4
		c-0.24-0.03-0.48,0-0.72,0c-0.07,0-0.15,0.01-0.22,0.01C37.39,16.59,37.25,16.48,37.18,16.14z"/>
	<path class="st1" d="M8.56,16.53c0.03-0.02,0.04-0.05,0.04-0.09c-0.02-0.06,0.02-0.09,0.05-0.13c0.13-0.09,0.23-0.22,0.38-0.28
		c0.15-0.06,0.3-0.11,0.46-0.12c0.4-0.03,0.79-0.04,1.19,0c0,0.01,0,0.03,0,0.04c-0.04,0.07,0.01,0.16-0.04,0.23
		c-0.08,0.3-0.21,0.4-0.51,0.4c-0.31,0-0.63-0.05-0.94-0.02c-0.26,0.03-0.46,0.14-0.54,0.41C8.5,16.85,8.54,16.69,8.56,16.53z"/>
	<path class="st9" d="M31.18,17.29c-0.01,0.08-0.04,0.14-0.1,0.19c-0.2,0.18-0.35,0.39-0.53,0.59c-0.3,0.32-0.58,0.66-0.88,0.98
		c-0.04,0.01-0.07,0-0.05-0.05c0.22-0.38,0.44-0.76,0.68-1.12c0.09-0.14,0.1-0.26,0.06-0.41c-0.05-0.19-0.09-0.38-0.13-0.58
		c0-0.03,0.01-0.07,0.01-0.1C30.57,16.94,30.87,17.12,31.18,17.29z"/>
	<path class="st10" d="M18.2,18.99c-0.04,0.06-0.07,0.01-0.1-0.02c-0.19-0.18-0.35-0.39-0.53-0.59c-0.21-0.23-0.41-0.47-0.62-0.71
		c-0.11-0.12-0.24-0.24-0.29-0.4c0.25-0.14,0.51-0.28,0.77-0.41c0.06-0.03,0.12-0.08,0.2-0.08c-0.05,0.22-0.08,0.45-0.15,0.67
		c-0.05,0.16-0.01,0.29,0.07,0.43C17.77,18.26,18,18.62,18.2,18.99z"/>
	<path class="st11" d="M34.09,13.97c-0.07-0.06-0.02-0.12,0-0.17c0.23-0.25,0.52-0.26,0.83-0.2c0.08,0.01,0.16,0.04,0.23,0.07
		c0.36,0.15,0.71,0.13,1.06-0.03c0.03-0.01,0.05-0.02,0.08-0.03c0.05-0.01,0.07,0.01,0.06,0.06c-0.21,0.33-0.5,0.45-0.88,0.4
		c-0.17-0.02-0.33-0.06-0.49-0.12C34.68,13.83,34.38,13.84,34.09,13.97z"/>
	<path class="st11" d="M13.74,13.79c0.03,0.06,0.04,0.12,0.03,0.19c-0.31-0.14-0.63-0.15-0.96-0.02c-0.15,0.06-0.31,0.09-0.47,0.12
		c-0.38,0.05-0.67-0.08-0.88-0.4c-0.01-0.05,0.01-0.07,0.06-0.06c0.14,0.05,0.28,0.12,0.44,0.14c0.23,0.03,0.45,0.02,0.67-0.07
		c0.17-0.07,0.34-0.12,0.53-0.11C13.39,13.57,13.58,13.63,13.74,13.79z"/>
	<path class="st12" d="M27.97,10.13c-0.21,0-0.37-0.17-0.37-0.38c0-0.22,0.18-0.39,0.4-0.38c0.21,0.01,0.37,0.18,0.36,0.39
		C28.35,9.97,28.18,10.13,27.97,10.13z"/>
	<path class="st12" d="M26.1,10.08c0.21,0,0.38,0.17,0.38,0.38c0.01,0.21-0.18,0.39-0.4,0.38c-0.21,0-0.38-0.18-0.37-0.38
		C25.72,10.26,25.9,10.08,26.1,10.08z"/>
	<path class="st13" d="M21.74,10.84c-0.21,0-0.38-0.15-0.38-0.37c-0.01-0.21,0.16-0.38,0.36-0.39c0.21-0.01,0.4,0.17,0.4,0.38
		C22.11,10.67,21.95,10.84,21.74,10.84z"/>
	<path class="st12" d="M25.22,10.78c-0.22-0.01-0.38-0.19-0.37-0.41c0.01-0.21,0.18-0.36,0.4-0.35c0.21,0.01,0.37,0.18,0.36,0.39
		C25.6,10.62,25.42,10.79,25.22,10.78z"/>
	<path class="st12" d="M26.97,10.14c0.2-0.01,0.38,0.17,0.39,0.37c0.01,0.2-0.16,0.38-0.36,0.4c-0.2,0.01-0.4-0.17-0.4-0.38
		C26.59,10.33,26.77,10.15,26.97,10.14z"/>
	<path class="st13" d="M20.36,10.58c0,0.22-0.15,0.38-0.36,0.39c-0.21,0.01-0.38-0.15-0.39-0.36c-0.01-0.21,0.16-0.4,0.38-0.4
		C20.2,10.21,20.36,10.37,20.36,10.58z"/>
	<path class="st10" d="M21.24,10.53c0,0.21-0.17,0.38-0.37,0.38c-0.2,0.01-0.38-0.17-0.38-0.37c0-0.22,0.17-0.4,0.38-0.39
		C21.08,10.15,21.24,10.32,21.24,10.53z"/>
	<path class="st13" d="M19.86,10.12c-0.2,0-0.38-0.17-0.38-0.38c0-0.22,0.17-0.39,0.39-0.38c0.22,0,0.37,0.16,0.37,0.38
		C20.23,9.96,20.07,10.12,19.86,10.12z"/>
	<path class="st13" d="M24.29,9.48c0,0.21-0.16,0.38-0.37,0.38c-0.22,0-0.39-0.17-0.39-0.39c0.01-0.21,0.18-0.37,0.38-0.37
		C24.14,9.11,24.29,9.27,24.29,9.48z"/>
	<path class="st13" d="M23.86,10.35c0,0.22-0.16,0.37-0.38,0.37c-0.21,0-0.38-0.17-0.38-0.38c0-0.21,0.19-0.39,0.4-0.38
		C23.71,9.96,23.86,10.13,23.86,10.35z"/>
	<path class="st13" d="M22.61,10.78c-0.2-0.01-0.38-0.18-0.38-0.38c0-0.21,0.18-0.39,0.4-0.38c0.2,0.01,0.37,0.19,0.37,0.39
		C22.99,10.61,22.81,10.79,22.61,10.78z"/>
	<path class="st12" d="M28.23,10.59c0,0.22-0.16,0.38-0.37,0.38c-0.22,0-0.39-0.17-0.39-0.39c0.01-0.2,0.18-0.37,0.39-0.37
		C28.07,10.21,28.23,10.38,28.23,10.59z"/>
	<path class="st14" d="M28.7,20.24c-0.01,0.07-0.03,0.13-0.09,0.17c0-0.09-0.01-0.18-0.01-0.26c0-2.14,0-4.27,0-6.41
		c0-0.07,0.01-0.15,0.01-0.22c0.06,0.08,0.03,0.17,0.03,0.26c0,2.07,0,4.14,0,6.22C28.66,20.08,28.62,20.18,28.7,20.24z"/>
	<path class="st15" d="M24.29,10.7c-0.19-0.02-0.28-0.14-0.31-0.31c-0.02-0.16,0.06-0.31,0.2-0.38c0.17-0.09,0.32-0.06,0.45,0.08
		C24.55,10.31,24.43,10.51,24.29,10.7z"/>
	<path class="st16" d="M24.29,10.7c0.07-0.23,0.19-0.43,0.34-0.61c0.13,0.13,0.14,0.27,0.06,0.42
		C24.61,10.67,24.47,10.73,24.29,10.7z"/>
	<path class="st17" d="M32.33,26.03c-0.12,0.1-0.27,0.05-0.4,0.08c-0.26,0.06-0.53,0.07-0.8,0.1c-0.06,0.01-0.12,0-0.18,0
		c-0.03,0-0.06-0.01-0.08-0.01c0-0.01,0-0.02,0-0.02c0.14-0.02,0.29-0.04,0.43-0.06c0.26-0.03,0.52-0.07,0.77-0.1
		c0.01,0,0.02-0.02,0.03-0.03C32.18,25.99,32.26,25.98,32.33,26.03z"/>
	<path class="st18" d="M10.68,15.91c-0.4,0-0.79,0-1.19,0c0.04-0.05,0.09-0.04,0.14-0.04c0.46,0,0.92,0,1.38,0
		c0.06,0,0.12-0.01,0.16,0.05C11.01,15.9,10.84,15.89,10.68,15.91z"/>
	<path class="st19" d="M37.68,37.79c0.01-0.03,0.02-0.07,0.09-0.09c-0.04,0.26,0.01,0.51-0.05,0.75c-0.03-0.17-0.01-0.33-0.01-0.5
		C37.71,37.9,37.73,37.84,37.68,37.79z"/>
	<path class="st20" d="M8.56,16.53c0,0.15-0.02,0.31,0.09,0.44c0,0.06,0.02,0.15-0.1,0.09c0.06-0.06,0-0.12-0.01-0.18
		c-0.03-0.12-0.03-0.24-0.01-0.36c0,0,0.01-0.01,0.02-0.01C8.55,16.53,8.56,16.53,8.56,16.53z"/>
	<path class="st21" d="M33.79,37.79c0-0.05,0.03-0.07,0.07-0.12c0.04,0.2-0.03,0.38,0.02,0.55c-0.1-0.04-0.05-0.12-0.06-0.18
		C33.81,37.96,33.86,37.86,33.79,37.79z"/>
	<path class="st22" d="M35.86,26.7c0.01-0.15-0.05-0.3,0.04-0.45c0,0.15,0,0.29,0,0.44c0,0-0.02,0.01-0.02,0.01L35.86,26.7z"/>
	<path class="st23" d="M33.82,14.86c-0.04-0.02-0.08-0.03-0.13-0.05c-0.01-0.08,0.04-0.06,0.08-0.05c0.08,0.02,0.16-0.01,0.23,0.05
		C33.95,14.83,33.87,14.78,33.82,14.86z"/>
	<path class="st24" d="M29.63,19c0.02,0.02,0.03,0.03,0.05,0.05c-0.05,0.08-0.1,0.14-0.19,0.17C29.52,19.14,29.56,19.06,29.63,19z"
		/>
	<path class="st25" d="M36.35,13.67c-0.02-0.02-0.04-0.04-0.06-0.06c0.04-0.03,0.08-0.1,0.13-0.05
		C36.45,13.58,36.39,13.64,36.35,13.67z"/>
	<path class="st26" d="M11.54,13.61c-0.02,0.02-0.04,0.04-0.06,0.06c-0.02-0.01-0.03-0.03-0.04-0.04c-0.01-0.02-0.04-0.06-0.03-0.07
		c0.03-0.04,0.06,0,0.09,0.01C11.51,13.57,11.52,13.59,11.54,13.61z"/>
	<path class="st27" d="M18.76,35.35c-0.01,0.03-0.02,0.07-0.06,0.07c-0.04,0-0.02-0.04-0.02-0.07c0-0.05,0-0.1,0.04-0.14
		C18.74,35.26,18.71,35.32,18.76,35.35z"/>
	<path class="st18" d="M10.64,16.18c0-0.08-0.03-0.16,0.04-0.23C10.69,16.04,10.7,16.12,10.64,16.18z"/>
	<path class="st28" d="M19.2,20.33c0,0.02,0.02,0.05-0.02,0.05c0,0-0.01-0.03-0.01-0.05C19.18,20.33,19.19,20.33,19.2,20.33z"/>
	<path class="st3" d="M29.31,21.35c0.03,0,0.07,0,0.1,0C29.38,21.4,29.35,21.39,29.31,21.35z"/>
	<path class="st29" d="M22.37,14.75c0.03-0.11,0.09-0.2,0.17-0.28c0.18-0.19,0.39-0.26,0.64-0.18c0.25,0.08,0.36,0.29,0.4,0.54
		c0.02,0.14-0.02,0.28-0.07,0.41c-0.18,0.51-0.35,1.01-0.53,1.52c-0.02,0.05-0.03,0.1-0.05,0.15c-0.03,0.07,0,0.11,0.08,0.11
		c0.23,0,0.47,0,0.7,0c0.38,0,0.76,0.01,1.14,0.1c0.09,0.02,0.17,0.03,0.24,0.09c0.01,0.13,0.07,0.21,0.17,0.29
		c0.24,0.19,0.41,0.44,0.57,0.69c0.04,0.07,0.11,0.16-0.03,0.21c-0.19,0-0.38-0.05-0.56-0.08c-0.06-0.02-0.12-0.04-0.18-0.03
		c-0.02,0-0.04,0.01-0.06,0.01c-0.09,0.08-0.21,0.08-0.32,0.12c-0.41,0.14-0.67-0.12-0.96-0.31c-0.04-0.02-0.07-0.05-0.11-0.07
		c-0.1-0.07-0.21-0.13-0.32-0.2c-0.13-0.1-0.21-0.05-0.28,0.08c-0.19,0.36-0.12,0.74,0.2,0.98c0.35,0.26,0.71,0.52,1.07,0.77
		c0.02,0.01,0.03,0.02,0.05,0.03c0.02,0.02,0.05,0.04,0.07,0.05c0.29,0.2,0.57,0.42,0.86,0.62c0.08,0.06,0.2,0.1,0.2,0.23
		c-0.02,0.02-0.04,0.02-0.06,0.01c-0.13-0.04-0.27-0.06-0.4-0.11c-0.16-0.07-0.26-0.03-0.34,0.1c-0.1,0-0.17-0.05-0.19-0.15
		c-0.11-0.08-0.23-0.17-0.34-0.25c-0.1-0.02-0.17-0.09-0.22-0.18c-0.29-0.24-0.58-0.48-0.86-0.72c-0.19-0.16-0.38-0.32-0.54-0.52
		c-0.47-0.58-0.59-1.21-0.29-1.91c0.2-0.47,0.4-0.93,0.59-1.4c0.02-0.06,0.08-0.11,0.04-0.18C22.67,15.15,22.45,15.01,22.37,14.75z"
		/>
	<path d="M25,18.22c0.01-0.01,0.03-0.01,0.04,0c0.06,0.04,0.13,0,0.18,0.04c0.2,0.03,0.41,0.07,0.61,0.1
		c0.11,0.01,0.17,0.07,0.22,0.16c0.45,0.76,0.71,1.59,0.85,2.46c0.01,0.04,0,0.09-0.02,0.13c-0.02,0.03-0.04,0.06-0.09,0.04
		c-0.06-0.04-0.12-0.08-0.18-0.12c-0.18-0.13-0.19-0.13-0.34,0.03c-0.05,0.05-0.08,0.05-0.13,0.01c-0.18-0.14-0.38-0.25-0.54-0.41
		c-0.06-0.07-0.09-0.15-0.09-0.24c-0.01-0.69-0.21-1.32-0.48-1.94C25,18.39,24.93,18.31,25,18.22z"/>
	<path class="st30" d="M26.85,21.08c-0.07-0.58-0.23-1.15-0.44-1.69c-0.11-0.29-0.25-0.58-0.41-0.85c-0.04-0.08-0.09-0.15-0.17-0.19
		c0.07-0.05,0-0.09-0.02-0.13c-0.19-0.29-0.39-0.57-0.67-0.78c-0.11-0.08-0.12-0.15-0.04-0.25c0.34,0.12,0.63,0.31,0.9,0.54
		c0.76,0.64,1.2,1.45,1.37,2.42c0.07,0.42,0.08,0.85,0.01,1.27c0,0.03-0.02,0.06-0.06,0.08c-0.15-0.1-0.3-0.21-0.46-0.32
		C26.85,21.15,26.88,21.11,26.85,21.08z"/>
	<path class="st31" d="M25,18.22c0.11,0.32,0.28,0.63,0.37,0.96c0.11,0.39,0.19,0.78,0.2,1.19c0,0.09,0.02,0.19,0.03,0.28
		c-0.01,0-0.03,0-0.04-0.01c-0.02-0.02-0.05-0.02-0.07-0.05c-0.31-0.23-0.62-0.46-0.93-0.69c-0.06-0.05-0.13-0.1-0.19-0.15
		c-0.01-0.02-0.03-0.04-0.05-0.04l0,0c-0.39-0.45-0.59-0.98-0.76-1.54c-0.02-0.07-0.08-0.17,0.07-0.2c0.21,0.13,0.42,0.26,0.63,0.39
		c0.07,0.05,0.14,0.09,0.2-0.01c0.04-0.06,0.09-0.06,0.15-0.04C24.77,18.37,24.9,18.35,25,18.22z"/>
	<path class="st32" d="M22.37,14.75c0.16,0.19,0.36,0.34,0.5,0.54c-0.51,0-1.03,0.01-1.54,0c-0.12,0-0.19,0.02-0.23,0.14
		c-0.03,0.11-0.12,0.18-0.2,0.26c-0.22,0.23-0.21,0.31,0.01,0.53c0.02,0.02,0.05,0.04,0.04,0.09c-0.14,0.04-0.23-0.06-0.3-0.15
		c-0.09-0.12-0.11-0.25-0.04-0.39c0.04-0.09,0.11-0.15,0.18-0.22c0.06-0.06,0.13-0.12,0.15-0.24c-0.26,0-0.5-0.01-0.75-0.01
		c-0.02-0.01-0.02-0.01-0.02-0.02c0.01-0.01,0.01-0.01,0.02-0.01c0.19-0.05,0.38-0.1,0.57-0.15c0.03-0.09-0.06-0.04-0.09-0.07
		c-0.08-0.02-0.16-0.03-0.23-0.06c-0.13-0.05-0.19-0.15-0.17-0.27c0.01-0.13,0.09-0.23,0.21-0.29c0.03-0.02,0.07-0.01,0.1,0.02
		c0.03,0.03,0.03,0.07,0.01,0.1c-0.01,0.03-0.04,0.05-0.05,0.07c-0.11,0.14-0.1,0.17,0.07,0.21c0.18,0.04,0.36,0.05,0.5,0.19
		c0.04,0.04,0.1,0,0.15-0.01c0.3-0.07,0.6-0.14,0.9-0.21C22.21,14.77,22.29,14.74,22.37,14.75z"/>
	<path class="st33" d="M24.68,22.71c0,0.35,0.01,0.71,0.01,1.06c0,0.2,0,0.2,0.2,0.22c0.05,0,0.1,0,0.15,0.03
		c0.04,0.03,0.09,0.07,0.07,0.13c-0.02,0.05-0.07,0.04-0.11,0.04c-0.2-0.03-0.36,0.05-0.51,0.16c-0.12,0.08-0.25,0.15-0.38,0.22
		c-0.05,0.03-0.1,0.09-0.15,0.01c-0.04-0.06-0.03-0.13,0.02-0.18c0.05-0.04,0.11-0.08,0.16-0.11c0.03-0.02,0.07-0.03,0.07-0.07
		c-0.03-0.03-0.07-0.02-0.1,0c-0.13,0.08-0.27,0.06-0.41,0.06c-0.05,0-0.11,0.01-0.12-0.06c-0.01-0.07,0.03-0.15,0.1-0.15
		c0.2,0.01,0.38-0.11,0.58-0.09c0.2,0.01,0.21,0,0.21-0.2c0-0.33,0-0.66,0.01-0.99C24.53,22.71,24.59,22.67,24.68,22.71z"/>
	<path class="st34" d="M24.68,22.71c-0.07,0.01-0.13,0.06-0.2,0.05c0-0.43,0-0.86-0.01-1.29c0-0.06-0.01-0.12,0-0.17
		c0.03-0.14-0.17-0.24-0.05-0.39c0.09-0.11,0.03-0.26,0.05-0.38c0-0.03,0.02-0.05,0.03-0.08c0.06,0.05,0.13,0.1,0.19,0.15
		c-0.01,0.12-0.01,0.23,0.06,0.34c0.04,0.05,0.04,0.11,0,0.16c-0.07,0.1-0.06,0.21-0.07,0.32C24.69,21.85,24.68,22.28,24.68,22.71z"
		/>
	<path class="st35" d="M23.94,20.02c0.09,0.04,0.16,0.1,0.22,0.18c0,0.19-0.04,0.39,0.05,0.58c0.03,0.07,0,0.18-0.1,0.21
		c-0.08,0.03-0.17,0.07-0.23-0.04c-0.06-0.12-0.19-0.15-0.3-0.21c-0.34-0.16-0.69-0.31-1.02-0.5c0.03-0.14,0.15-0.08,0.23-0.1
		c0.11,0.01,0.21,0.08,0.3,0.12c0.26,0.12,0.53,0.25,0.81,0.38C23.95,20.43,23.92,20.22,23.94,20.02z"/>
	<path class="st36" d="M22.8,20.15c-0.06,0.06-0.17,0.02-0.23,0.1c-0.29-0.1-0.55-0.27-0.84-0.37c-0.06,0.03,0,0.07-0.01,0.11
		c-0.01,0.06-0.03,0.12-0.09,0.14c-0.07,0.02-0.09-0.06-0.12-0.1c-0.05-0.07-0.08-0.15-0.13-0.23c-0.08-0.13-0.08-0.13-0.22-0.03
		c-0.09-0.09-0.07-0.2-0.05-0.32c0.15-0.18,0.17-0.18,0.31-0.01c0.05,0.06,0.12,0.1,0.2,0.13c0.33,0.16,0.66,0.31,0.99,0.47
		C22.67,20.07,22.74,20.09,22.8,20.15z"/>
	<path class="st37" d="M21.11,19.45c0.08,0.1,0.02,0.21,0.05,0.32c-0.09,0.17-0.22,0.31-0.33,0.47c-0.12-0.1-0.13-0.19-0.05-0.3
		c0.05-0.06,0.1-0.12,0.13-0.21c-0.23-0.04-0.22,0.21-0.36,0.26c-0.12-0.1-0.13-0.14-0.05-0.26c0.1-0.14,0.2-0.27,0.4-0.25
		C20.96,19.49,21.04,19.46,21.11,19.45z"/>
	<path class="st38" d="M20.66,15.04c0.04-0.01,0.08-0.01,0.12,0.02c0.02,0.01,0.04,0.02,0.02,0.05c-0.01,0.01-0.04,0.01-0.06,0.01
		C20.72,15.09,20.69,15.06,20.66,15.04z"/>
	<path class="st39" d="M25.49,20.59c0.03,0,0.06,0.01,0.07,0.05c-0.05,0-0.09,0.01-0.13-0.03C25.45,20.6,25.47,20.6,25.49,20.59z"/>
	<path class="st40" d="M26.85,21.08c0.04,0.03,0.04,0.07,0,0.1c-0.03-0.01-0.05-0.02-0.06-0.05C26.82,21.12,26.84,21.1,26.85,21.08z
		"/>
	<path class="st41" d="M20.18,15.26c0,0.01,0,0.02,0,0.03c-0.03,0.01-0.07,0.01-0.07-0.01C20.12,15.25,20.16,15.25,20.18,15.26z"/>
	<path class="st0" d="M35.14,28.73c0.09,0,0.18,0,0.26,0c0.1,0.01,0.13-0.04,0.13-0.13c0-0.09,0-0.18,0-0.26c0-0.07,0-0.14-0.1-0.13
		c-0.08,0-0.07-0.05-0.07-0.11c0-0.07,0.05-0.08,0.1-0.08c0.13,0,0.26,0,0.4,0c0.04,0,0.09,0,0.09,0.06c0,0.05,0.02,0.12-0.06,0.12
		c-0.11,0.01-0.1,0.08-0.1,0.15c0,0.32-0.01,0.65-0.01,0.97c0,0.08-0.01,0.15,0.11,0.15c0.08,0,0.06,0.06,0.06,0.11
		c0,0.06-0.04,0.07-0.09,0.07c-0.14,0-0.28,0-0.42,0c-0.05,0-0.09-0.01-0.09-0.07c0-0.05-0.01-0.11,0.06-0.11
		c0.1,0,0.1-0.06,0.1-0.13c0.03-0.4,0.03-0.4-0.36-0.4c-0.1,0-0.21,0-0.31,0c-0.08,0-0.1,0.03-0.1,0.11c0,0.09,0,0.18,0,0.26
		c0,0.08-0.01,0.16,0.12,0.16c0.08,0,0.05,0.07,0.06,0.12c0,0.05-0.03,0.06-0.07,0.06c-0.15,0-0.29,0-0.44,0
		c-0.05,0-0.09-0.01-0.09-0.07c0-0.05,0-0.11,0.07-0.11c0.08,0,0.1-0.04,0.1-0.11c0-0.35,0-0.69,0.01-1.04
		c0-0.08-0.01-0.12-0.11-0.13c-0.07,0-0.07-0.06-0.06-0.12c0-0.06,0.05-0.07,0.09-0.07c0.14,0,0.28,0,0.42,0
		c0.05,0,0.09,0.01,0.09,0.07c0,0.05,0.02,0.11-0.06,0.12c-0.09,0-0.1,0.05-0.11,0.13C34.73,28.73,34.73,28.73,35.14,28.73z"/>
	<path class="st0" d="M30.59,28.89c0.12,0.12,0.2,0.27,0.28,0.42c0.05,0.07,0.08,0.16,0.19,0.17c0.07,0.01,0.07,0.07,0.07,0.12
		c0,0.08-0.06,0.07-0.11,0.07c-0.15,0.01-0.27-0.03-0.35-0.18c-0.06-0.12-0.14-0.24-0.21-0.36c-0.02-0.04-0.05-0.08-0.08-0.11
		c-0.06-0.06-0.13-0.06-0.21-0.04c-0.08,0.02-0.05,0.09-0.05,0.15c-0.01,0.07,0,0.13,0,0.2c0,0.09-0.01,0.16,0.12,0.16
		c0.08,0,0.06,0.06,0.06,0.11c0,0.06-0.03,0.08-0.08,0.08c-0.15,0-0.29,0-0.44,0c-0.05,0-0.09-0.01-0.09-0.07
		c0-0.06-0.02-0.13,0.07-0.13c0.1,0,0.1-0.06,0.1-0.13c0-0.34,0-0.68,0-1.01c0-0.07-0.01-0.13-0.1-0.13c-0.07,0-0.07-0.06-0.07-0.11
		c0-0.08,0.05-0.08,0.11-0.08c0.23,0,0.46-0.01,0.68,0c0.24,0.01,0.39,0.14,0.43,0.34c0.05,0.22-0.05,0.4-0.28,0.51
		C30.61,28.87,30.6,28.88,30.59,28.89z"/>
	<path class="st42" d="M31.89,29.66c-0.15,0-0.31,0-0.46,0c-0.05,0-0.1,0-0.11-0.08c0-0.06,0.01-0.11,0.08-0.11
		c0.08,0,0.09-0.05,0.09-0.11c0-0.35,0-0.69,0-1.04c0-0.08-0.02-0.12-0.11-0.12c-0.08,0-0.07-0.06-0.07-0.11
		c0-0.07,0.05-0.08,0.1-0.08c0.32,0,0.63,0,0.95,0c0.08,0,0.1,0.04,0.1,0.11c0,0.07,0,0.15,0,0.22c0,0.06-0.01,0.1-0.08,0.1
		c-0.07,0-0.14,0-0.14-0.1c0.01-0.16-0.09-0.15-0.2-0.15c-0.34,0.01-0.29-0.04-0.29,0.29c0,0.04,0,0.09,0,0.13
		c0,0.07,0.03,0.09,0.1,0.09c0.08,0,0.16,0,0.24,0c0.07,0,0.13-0.01,0.14,0.09c0,0.1-0.05,0.11-0.13,0.11c-0.08,0-0.16,0-0.24,0
		c-0.07,0-0.11,0.03-0.11,0.1c0,0.04,0,0.09,0,0.13c0.01,0.1-0.05,0.24,0.03,0.29c0.12,0.07,0.27,0.03,0.41,0.02
		c0.09-0.01,0.06-0.1,0.08-0.16c0.02-0.09,0.09-0.13,0.17-0.09c0.01,0,0.02,0,0.02,0.01c0.06,0.12,0.01,0.24,0.01,0.36
		c0,0.09-0.06,0.08-0.12,0.08C32.2,29.66,32.04,29.66,31.89,29.66z"/>
	<path class="st43" d="M34.06,29.39c0,0.04,0,0.07,0,0.11c0.01,0.08-0.03,0.12-0.1,0.14c-0.24,0.05-0.48,0.08-0.72,0.01
		c-0.41-0.12-0.64-0.54-0.54-1c0.08-0.35,0.32-0.57,0.68-0.64c0.2-0.04,0.39-0.01,0.59,0.03c0.08,0.02,0.13,0.06,0.12,0.15
		c0,0.06,0,0.12,0,0.18c0.01,0.09-0.02,0.14-0.12,0.14c-0.1,0-0.14-0.04-0.12-0.13c0.02-0.13-0.06-0.16-0.16-0.18
		c-0.3-0.03-0.53,0.07-0.64,0.29c-0.13,0.27-0.08,0.66,0.11,0.85c0.17,0.17,0.38,0.16,0.6,0.13c0.11-0.01,0.07-0.11,0.08-0.18
		c0-0.07,0-0.13,0.1-0.13c0.09,0,0.14,0.01,0.13,0.12C34.06,29.32,34.06,29.36,34.06,29.39C34.06,29.39,34.06,29.39,34.06,29.39z"/>
	<path class="st44" d="M36.9,28.02c0.21,0,0.41,0,0.62,0c0.08,0,0.13,0.02,0.12,0.11c0,0.07,0,0.13,0,0.2
		c0,0.07-0.01,0.13-0.11,0.13c-0.08,0-0.13-0.02-0.13-0.11c0-0.05,0.02-0.13-0.07-0.14c-0.09-0.01-0.19-0.03-0.28,0.02
		c-0.03,0.02-0.02,0.07-0.02,0.1c0,0.34,0,0.68-0.01,1.02c0,0.07,0.01,0.13,0.1,0.13c0.09,0,0.09,0.06,0.08,0.12
		c-0.01,0.08-0.07,0.06-0.12,0.06c-0.13,0-0.26,0-0.4,0c-0.04,0-0.1,0.01-0.1-0.05c-0.01-0.05-0.03-0.13,0.06-0.13
		c0.09-0.01,0.08-0.06,0.08-0.12c0-0.34,0-0.68,0.01-1.02c0-0.09-0.03-0.14-0.13-0.13c-0.04,0-0.07,0-0.11,0
		c-0.1-0.01-0.15,0.02-0.14,0.13c0.01,0.1-0.05,0.12-0.14,0.12c-0.1,0-0.1-0.07-0.1-0.13c0.02-0.37-0.03-0.29,0.29-0.3
		C36.59,28.02,36.75,28.02,36.9,28.02z"/>
	<path class="st0" d="M12.95,28.89c0.13,0.12,0.19,0.25,0.27,0.37c0.06,0.09,0.1,0.2,0.23,0.22c0.07,0.01,0.05,0.08,0.05,0.13
		c0,0.05-0.04,0.06-0.08,0.06c-0.15,0.01-0.29-0.01-0.37-0.17c-0.07-0.14-0.16-0.27-0.24-0.4c-0.03-0.05-0.06-0.1-0.12-0.12
		c-0.13-0.04-0.19,0-0.19,0.14c0,0.07,0,0.15,0,0.22c0,0.08,0,0.15,0.11,0.14c0.07,0,0.07,0.06,0.07,0.11c0,0.07-0.04,0.09-0.1,0.09
		c-0.14,0-0.28,0-0.42,0c-0.06,0-0.1-0.01-0.1-0.09c0-0.05-0.01-0.11,0.06-0.12c0.09,0,0.1-0.06,0.1-0.13c0-0.34,0-0.68,0-1.01
		c0-0.07,0-0.13-0.1-0.13c-0.07,0-0.07-0.05-0.07-0.11c0-0.07,0.05-0.08,0.1-0.08c0.22,0,0.44,0,0.66,0
		c0.26,0.01,0.43,0.14,0.47,0.35C13.32,28.6,13.22,28.77,12.95,28.89z"/>
	<path class="st0" d="M15.64,28.02c0.11,0,0.22,0,0.33,0c0.45,0.02,0.74,0.28,0.77,0.7c0.03,0.49-0.22,0.86-0.66,0.93
		c-0.28,0.04-0.57,0.01-0.86,0.01c-0.05,0-0.08-0.02-0.08-0.08c0-0.04-0.01-0.1,0.05-0.1c0.11,0,0.11-0.07,0.11-0.15
		c0-0.32,0.01-0.65,0.01-0.97c0-0.07,0.01-0.15-0.1-0.15c-0.08,0-0.07-0.06-0.07-0.11c0-0.08,0.05-0.07,0.11-0.07
		C15.37,28.02,15.51,28.02,15.64,28.02C15.64,28.02,15.64,28.02,15.64,28.02z"/>
	<path class="st43" d="M17.5,29.66c-0.15,0-0.31,0-0.46,0c-0.05,0-0.11,0.01-0.12-0.06c-0.01-0.06,0-0.12,0.08-0.12
		c0.09,0,0.09-0.06,0.09-0.12c0-0.35,0-0.69,0-1.04c0-0.07-0.01-0.12-0.09-0.11c-0.08,0-0.09-0.05-0.09-0.12
		c0-0.08,0.06-0.07,0.11-0.07c0.31,0,0.62,0,0.93,0c0.09,0,0.12,0.03,0.12,0.12c0,0.07,0,0.13,0,0.2c0,0.06,0,0.12-0.09,0.12
		c-0.07,0-0.14,0-0.13-0.1c0.01-0.14-0.07-0.15-0.18-0.15c-0.37,0.01-0.3-0.05-0.31,0.32c0,0.19,0,0.19,0.19,0.2
		c0.07,0,0.13,0,0.2,0c0.07,0,0.09,0.04,0.09,0.1c0,0.06-0.02,0.1-0.09,0.1c-0.09,0-0.18,0.01-0.26,0c-0.1-0.01-0.13,0.04-0.13,0.13
		c0,0.03,0,0.06,0,0.09c0.01,0.39-0.07,0.32,0.34,0.34c0.12,0,0.18-0.04,0.18-0.16c0-0.1,0.05-0.12,0.14-0.12
		c0.11,0.01,0.08,0.08,0.08,0.14c0,0.32,0,0.32-0.33,0.32C17.68,29.66,17.59,29.66,17.5,29.66z"/>
	<path class="st42" d="M14.84,29.66c-0.36,0-0.7,0-1.04,0c-0.05,0-0.11,0-0.11-0.07c0-0.07,0.01-0.12,0.09-0.11
		c0.07,0,0.08-0.05,0.08-0.1c0-0.35,0-0.71,0-1.06c0-0.07-0.03-0.11-0.1-0.11c-0.07,0-0.08-0.04-0.08-0.1
		c0-0.07,0.03-0.09,0.09-0.09c0.32,0,0.63,0,0.95,0c0.01,0,0.03,0,0.04,0c0.13,0.06,0.05,0.18,0.07,0.27
		c0.01,0.06,0.04,0.14-0.07,0.16c-0.09,0.01-0.16-0.01-0.15-0.12c0.01-0.1-0.04-0.12-0.13-0.12c-0.42,0.01-0.34-0.05-0.35,0.33
		c-0.01,0.19,0,0.19,0.19,0.19c0.06,0,0.12,0,0.18,0c0.08,0,0.1,0.03,0.1,0.11c0,0.07-0.03,0.09-0.1,0.09c-0.09,0-0.18,0-0.26,0
		c-0.09,0-0.12,0.03-0.11,0.12c0,0.03,0,0.06,0,0.09c0.01,0.41-0.07,0.34,0.35,0.35c0.11,0,0.17-0.03,0.16-0.14
		c0-0.09,0.03-0.14,0.13-0.13c0.07,0.01,0.11,0.03,0.1,0.11C14.86,29.42,14.85,29.53,14.84,29.66z"/>
	<path class="st42" d="M11.07,29.42c0.14-0.4,0.27-0.75,0.39-1.11c0.02-0.06,0.01-0.1-0.06-0.1c-0.08,0-0.1-0.04-0.09-0.11
		c0.01-0.09,0.07-0.08,0.13-0.08c0.13,0,0.26,0,0.4,0c0.05,0,0.08,0.02,0.08,0.08c0,0.04,0.01,0.1-0.05,0.11
		c-0.13,0.01-0.14,0.11-0.17,0.2c-0.15,0.38-0.3,0.75-0.44,1.13c-0.04,0.09-0.08,0.14-0.19,0.14c-0.11,0-0.17-0.03-0.21-0.14
		c-0.14-0.39-0.3-0.77-0.45-1.15c-0.03-0.07-0.04-0.16-0.15-0.17c-0.08-0.01-0.06-0.07-0.06-0.12c0-0.06,0.05-0.07,0.09-0.07
		c0.14,0,0.28,0,0.42,0c0.04,0,0.09,0,0.09,0.06c0,0.05,0.02,0.12-0.05,0.12c-0.13,0.01-0.09,0.09-0.06,0.15
		C10.81,28.7,10.93,29.04,11.07,29.42z"/>
	<path class="st45" d="M24.96,27.61c0-0.24,0-0.48,0-0.72c0-0.06-0.02-0.1-0.09-0.1c-0.06,0-0.06-0.05-0.06-0.09
		c0-0.06,0.05-0.06,0.09-0.06c0.1,0,0.21,0,0.31,0c0.04,0,0.08,0.01,0.08,0.05c0.01,0.04,0.01,0.1-0.05,0.1
		c-0.1,0.01-0.08,0.09-0.08,0.15c0,0.29,0,0.59-0.01,0.88c0,0.08,0.06,0.19-0.06,0.23c-0.13,0.04-0.18-0.06-0.24-0.14
		c-0.19-0.25-0.38-0.5-0.58-0.75c-0.03-0.04-0.05-0.09-0.12-0.11c0,0.25,0,0.5,0,0.75c0,0.06,0.01,0.1,0.08,0.1
		c0.07,0,0.08,0.05,0.08,0.11c-0.01,0.06-0.06,0.06-0.1,0.06c-0.1,0-0.21,0-0.31,0c-0.05,0-0.09-0.01-0.09-0.07
		c0-0.04-0.01-0.1,0.05-0.1c0.09-0.01,0.1-0.06,0.1-0.13c0-0.28,0-0.56,0-0.84c0-0.08-0.01-0.13-0.11-0.13
		c-0.06,0-0.07-0.03-0.07-0.09c0-0.06,0.03-0.07,0.09-0.08c0.18-0.02,0.32,0,0.43,0.18c0.19,0.28,0.4,0.54,0.61,0.81
		C24.94,27.62,24.95,27.61,24.96,27.61z"/>
	<path class="st46" d="M23.07,28.05c-0.13,0-0.26,0-0.4,0c-0.04,0-0.09,0-0.1-0.06c-0.01-0.06,0-0.1,0.07-0.11
		c0.07-0.01,0.07-0.06,0.07-0.11c0-0.29,0.01-0.57,0.01-0.86c0-0.06-0.01-0.12-0.09-0.12c-0.07,0-0.08-0.05-0.07-0.11
		c0.01-0.06,0.06-0.06,0.1-0.06c0.26,0,0.51,0,0.77,0c0.08,0,0.12,0.03,0.12,0.11c0,0.06,0,0.12,0,0.18c0,0.05-0.02,0.08-0.08,0.08
		c-0.05,0-0.1,0.01-0.12-0.07c-0.01-0.05,0.02-0.13-0.07-0.14c-0.1-0.01-0.2,0-0.31,0.01c-0.01,0-0.03,0.03-0.03,0.05
		c-0.01,0.02,0,0.04,0,0.07c-0.02,0.29-0.02,0.29,0.27,0.31c0.03,0,0.06,0,0.09,0.01c0.04,0.01,0.04,0.05,0.04,0.09
		c0,0.04-0.01,0.07-0.05,0.08c-0.02,0-0.04,0-0.07,0.01c-0.09,0.01-0.22-0.05-0.27,0.04c-0.06,0.11-0.02,0.24-0.02,0.37
		c0,0.01,0,0.02,0.01,0.02c0.08,0.09,0.19,0.03,0.29,0.04c0.05,0.01,0.12,0.02,0.13-0.07c0-0.04,0.01-0.07,0.02-0.11
		c0.02-0.06,0.06-0.05,0.11-0.05c0.04,0,0.07,0.02,0.07,0.06c0,0.09,0,0.18-0.01,0.26c-0.01,0.07-0.07,0.07-0.12,0.07
		C23.32,28.05,23.2,28.05,23.07,28.05z"/>
	<path class="st47" d="M30.78,26.25c-0.29,0.03-0.58,0.1-0.88,0.09c-0.02,0.01-0.03,0.03-0.04,0.04c-0.01,0-0.03,0-0.04,0
		c-0.01-0.01-0.02-0.02-0.04-0.02c0,0-0.01-0.02-0.01-0.02c0.1-0.09,0.23-0.02,0.34-0.06c0.16-0.05,0.33-0.03,0.5-0.07
		C30.66,26.2,30.73,26.19,30.78,26.25z"/>
	<path class="st48" d="M29.41,26.43c-0.06,0-0.12,0-0.17,0c-0.03,0-0.06,0-0.08-0.01C29.24,26.4,29.33,26.35,29.41,26.43z"/>
	<path class="st49" d="M29.06,26.47c-0.06,0-0.12,0-0.18,0c-0.03,0-0.06,0-0.08-0.01C28.89,26.44,28.97,26.39,29.06,26.47z"/>
	<path class="st50" d="M29.76,26.38c-0.06,0-0.12,0-0.18,0c-0.03,0-0.06-0.01-0.08-0.01c0-0.01,0-0.02,0-0.04c0.09,0,0.18,0,0.26,0
		c0,0,0,0,0,0c0.01,0.01,0.01,0.02,0.01,0.03C29.77,26.38,29.77,26.38,29.76,26.38z"/>
	<path class="st51" d="M16.69,26.21c-0.09,0-0.17,0-0.26,0C16.51,26.14,16.6,26.14,16.69,26.21z"/>
	<path class="st52" d="M20.49,26.43c-0.09,0-0.18,0-0.26,0C20.31,26.36,20.4,26.36,20.49,26.43z"/>
	<path class="st51" d="M19.74,26.39c-0.09,0-0.17,0-0.26,0C19.56,26.32,19.65,26.32,19.74,26.39z"/>
	<path class="st51" d="M18.99,26.34c-0.09,0-0.17,0-0.26,0C18.81,26.28,18.9,26.28,18.99,26.34z"/>
	<path class="st51" d="M18.23,26.3c-0.09,0-0.17,0-0.26,0C18.06,26.23,18.15,26.23,18.23,26.3z"/>
	<path class="st53" d="M15.94,26.16c-0.09,0-0.17,0-0.26,0C15.76,26.1,15.85,26.1,15.94,26.16z"/>
	<path class="st53" d="M17.44,26.25c-0.07,0-0.15,0-0.22,0C17.29,26.19,17.37,26.19,17.44,26.25z"/>
	<path class="st54" d="M35.51,22.72c0-0.38,0-0.76,0-1.14c0.01,0,0.03,0,0.04,0c0,0.38,0,0.76,0,1.14
		C35.54,22.74,35.52,22.74,35.51,22.72z"/>
	<path class="st55" d="M35.51,22.72c0.01,0,0.03,0,0.04,0c0.02,0.01,0.03,0.03,0.05,0.04c0,0.01,0,0.03,0,0.04
		c-0.08,0-0.12,0.07-0.18,0.09C35.41,22.82,35.48,22.78,35.51,22.72z"/>
	<path class="st29" d="M10.68,35.93c0-0.46,0-0.91,0-1.37c0-0.17,0-0.17,0.16-0.18c0.22-0.01,0.44-0.02,0.66,0
		c0.58,0.05,0.95,0.37,1.09,0.93c0.1,0.41,0.11,0.81-0.01,1.22c-0.15,0.53-0.5,0.83-1.03,0.94c-0.22,0.04-0.45,0.06-0.68,0.03
		c-0.2-0.02-0.19,0.01-0.19-0.2C10.68,36.84,10.68,36.38,10.68,35.93z"/>
	<path class="st29" d="M37.72,36.2c-0.01,0.22,0.02,0.47-0.05,0.71c-0.05,0.16-0.11,0.32-0.22,0.45c-0.16,0.18-0.36,0.25-0.59,0.21
		c-0.22-0.05-0.33-0.21-0.38-0.41c-0.1-0.38-0.1-0.77,0.03-1.15c0.12-0.34,0.37-0.51,0.73-0.52c0.49-0.01,0.49-0.01,0.49,0.46
		C37.72,36.02,37.72,36.09,37.72,36.2z"/>
	<path class="st3" d="M15.15,14.94c-0.02,0-0.04-0.02-0.04-0.04C15.12,14.91,15.13,14.92,15.15,14.94z"/>
	<path class="st56" d="M33.78,14.75c-0.03,0.01-0.07,0.01-0.08,0.05c-0.31,0.01-0.63-0.03-0.93,0.09c0-0.02,0-0.03,0-0.05
		c0.3-0.11,0.62-0.15,0.93-0.13C33.73,14.72,33.75,14.74,33.78,14.75z"/>
	<path class="st0" d="M33.49,36.73c0.3-0.01,0.32,0.01,0.26,0.26c-0.08,0.36-0.3,0.6-0.61,0.64c-0.23,0.03-0.41-0.07-0.47-0.26
		c-0.07-0.22,0.02-0.4,0.23-0.51C33.11,36.76,33.33,36.74,33.49,36.73z"/>
	<path class="st0" d="M29.86,36.72c0.04,0,0.08,0,0.13,0c0.05,0,0.08,0.02,0.09,0.07c0.06,0.38-0.29,0.81-0.68,0.83
		c-0.21,0.01-0.37-0.1-0.43-0.27c-0.06-0.2,0.02-0.38,0.2-0.48C29.39,36.76,29.63,36.74,29.86,36.72z"/>
	<path class="st0" d="M14.93,36.15c0.01-0.17,0.05-0.29,0.12-0.4c0.15-0.26,0.44-0.38,0.74-0.3c0.24,0.07,0.4,0.31,0.4,0.6
		c0,0.08-0.03,0.1-0.1,0.1C15.71,36.15,15.33,36.15,14.93,36.15z"/>
	<path class="st57" d="M36.22,23.91c-0.13-0.21-0.23-0.43-0.31-0.66C36.08,23.44,36.17,23.66,36.22,23.91z"/>
	<path class="st58" d="M36.35,24.66c-0.01,0.02-0.04,0.07-0.04,0.03c0-0.13-0.05-0.26,0.03-0.38
		C36.34,24.43,36.34,24.54,36.35,24.66z"/>
	<path class="st59" d="M35.91,23.25c-0.1-0.06-0.16-0.15-0.18-0.27C35.83,23.04,35.88,23.13,35.91,23.25z"/>
	<path class="st60" d="M35.73,22.98c-0.07-0.04-0.13-0.09-0.13-0.18C35.67,22.84,35.72,22.9,35.73,22.98z"/>
	<path class="st58" d="M36.34,25.1c-0.06-0.07-0.07-0.15,0-0.22C36.35,24.96,36.35,25.03,36.34,25.1z"/>
	<path class="st58" d="M36.34,25.24c-0.04-0.03-0.04-0.06,0-0.09C36.34,25.18,36.34,25.21,36.34,25.24z"/>
	<path class="st61" d="M13.59,12c0.18-0.02,0.33-0.05,0.48-0.06c0.1-0.01,0.13,0.05,0.08,0.14C14.02,12.27,13.75,12.24,13.59,12z"/>
	<path class="st62" d="M33.66,11.95c0.17-0.05,0.33,0.02,0.5,0.04c0.08,0.01,0.07,0.07,0.03,0.11c-0.09,0.11-0.21,0.13-0.34,0.1
		C33.74,12.18,33.69,12.12,33.66,11.95z"/>
	<path class="st63" d="M23.54,11.89c-0.15-0.19-0.13-0.31,0.09-0.4c0.05-0.02,0.11-0.03,0.17-0.05c0.12,0.01,0.25,0,0.36,0.06
		c0.09,0.04,0.17,0.09,0.17,0.21c0,0.11-0.08,0.17-0.17,0.2C23.95,11.99,23.75,11.96,23.54,11.89z"/>
	<path class="st64" d="M26.81,11.66c0.19,0,0.33,0.03,0.44,0.12c0.13,0.1,0.11,0.25-0.03,0.32c-0.21,0.1-0.41,0.06-0.6-0.06
		c-0.06-0.04-0.12-0.1-0.11-0.18c0.01-0.09,0.08-0.14,0.16-0.17C26.73,11.67,26.79,11.67,26.81,11.66z"/>
	<path class="st65" d="M25.87,11.74c-0.14,0.11-0.29,0.15-0.42,0.22c-0.04,0.02-0.08,0.01-0.12-0.02c-0.12-0.07-0.24-0.13-0.38-0.21
		c0.14-0.11,0.28-0.15,0.42-0.22c0.05-0.03,0.08-0.01,0.12,0.01C25.61,11.6,25.73,11.67,25.87,11.74z"/>
	<path class="st66" d="M32.21,18.42c-0.01,0.08-0.06,0.13-0.14,0.18C32.08,18.49,32.16,18.46,32.21,18.42z"/>
	<path class="st67" d="M32.4,18.19c0,0.08-0.05,0.1-0.1,0.16C32.29,18.25,32.33,18.22,32.4,18.19z"/>
	<path class="st68" d="M32.01,18.65c-0.01,0.1-0.06,0.12-0.12,0.17C31.9,18.73,31.95,18.71,32.01,18.65z"/>
	<path class="st20" d="M8.65,16.31c-0.02,0.04-0.03,0.09-0.05,0.13C8.53,16.37,8.61,16.34,8.65,16.31z"/>
	<path class="st69" d="M20.93,11.65c0.09,0.01,0.18,0.01,0.27,0.07c0.11,0.07,0.12,0.18,0.03,0.28c-0.13,0.15-0.5,0.2-0.67,0.09
		c-0.13-0.08-0.14-0.21-0.02-0.31C20.64,11.68,20.78,11.66,20.93,11.65z"/>
	<path class="st70" d="M21.9,11.75c0.07-0.04,0.11-0.06,0.14-0.08c0.38-0.21,0.38-0.21,0.8,0.06c-0.12,0.11-0.27,0.16-0.41,0.24
		c-0.03,0.02-0.06,0.01-0.08,0C22.2,11.9,22.07,11.83,21.9,11.75z"/>
	<path class="st4" d="M15.99,22.36c0.01,0.02,0.02,0.03,0.04,0.05C16.01,22.4,16,22.38,15.99,22.36z"/>
	<path class="st2" d="M29.76,26.38c0-0.01,0-0.03,0-0.04c0.01,0.01,0.03,0.03,0.04,0.04C29.79,26.38,29.78,26.38,29.76,26.38z"/>
	<path class="st2" d="M29.85,26.38c0.01-0.01,0.03-0.03,0.04-0.04C29.88,26.36,29.87,26.37,29.85,26.38z"/>
	<path class="st30" d="M23.63,17.99c-0.08,0.05-0.03,0.11-0.02,0.17c0.14,0.5,0.34,0.98,0.64,1.41c0.03,0.05,0.08,0.09,0.06,0.16
		c-0.15-0.06-0.26-0.17-0.38-0.26c-0.26-0.18-0.5-0.38-0.77-0.55c-0.45-0.29-0.35-0.88-0.11-1.19c0.04-0.06,0.09-0.07,0.15-0.03
		C23.35,17.8,23.51,17.87,23.63,17.99z"/>
	<path class="st71" d="M23.18,14.73c-0.09,0.06-0.17,0.08-0.26,0.11c-0.05,0.02-0.1-0.01-0.13-0.06c-0.02-0.03-0.02-0.07,0-0.1
		c0.03-0.05,0.08-0.07,0.13-0.06C23,14.64,23.09,14.67,23.18,14.73z"/>
	<path class="st31" d="M25.22,18.25c-0.07,0.02-0.13,0.01-0.18-0.04C25.1,18.2,25.17,18.21,25.22,18.25z"/>
	<path class="st30" d="M24.32,19.72c0.03,0,0.04,0.01,0.05,0.04C24.35,19.76,24.33,19.75,24.32,19.72z"/>
	<path class="st72" d="M30.12,28.45C30.12,28.48,30.12,28.46,30.12,28.45c0-0.23,0-0.23,0.12-0.24c0.24-0.02,0.38,0.07,0.4,0.24
		c0.02,0.15-0.07,0.26-0.23,0.3C30.16,28.8,30.12,28.77,30.12,28.45z"/>
	<path class="st73" d="M12.49,28.45c0-0.26,0.06-0.3,0.31-0.24c0.14,0.03,0.21,0.11,0.21,0.24c0.01,0.13-0.07,0.24-0.2,0.28
		c-0.03,0.01-0.07,0.02-0.11,0.02c-0.2,0.02-0.21,0.01-0.21-0.19C12.49,28.53,12.49,28.49,12.49,28.45z"/>
	<path class="st74" d="M15.57,28.83c0-0.17,0-0.34,0-0.51c0-0.08,0.03-0.13,0.11-0.12c0.04,0,0.07,0,0.11,0
		c0.49,0.01,0.73,0.29,0.64,0.77c-0.05,0.3-0.24,0.48-0.56,0.49c-0.39,0.01-0.31,0.03-0.32-0.29
		C15.55,29.07,15.56,28.95,15.57,28.83C15.56,28.83,15.56,28.83,15.57,28.83z"/>
</g>
</svg>
