<?xml version="1.0" encoding="utf-8"?>
<!-- Generator: Adobe Illustrator 25.2.1, SVG Export Plug-In . SVG Version: 6.00 Build 0)  -->
<svg version="1.1" id="Layer_1" xmlns="http://www.w3.org/2000/svg" xmlns:xlink="http://www.w3.org/1999/xlink" x="0px" y="0px"
	 viewBox="0 0 48 48" style="enable-background:new 0 0 48 48;" xml:space="preserve">
<style type="text/css">
	.st0{fill:#FEFEFE;}
	.st1{fill:#81B13E;}
	.st2{fill:#4F8B42;}
	.st3{fill:#060607;}
	.st4{fill:#3E6D9C;}
	.st5{fill:#050506;}
	.st6{fill:#050507;}
	.st7{fill:#9CCDEA;}
	.st8{fill:#81B23F;}
	.st9{fill:#070709;}
	.st10{fill:#66ADE2;}
	.st11{fill:#508B43;}
	.st12{fill:#3F6E9C;}
	.st13{fill:#0A0A0B;}
	.st14{fill:#070708;}
	.st15{fill:#68ADE3;}
	.st16{fill:#0B0B0C;}
	.st17{fill:#9CCEEA;}
	.st18{fill:#101012;}
	.st19{fill:#0E0E10;}
	.st20{fill:#101011;}
	.st21{fill:#100F11;}
	.st22{fill:#0F0F10;}
	.st23{fill:#0E0E0F;}
	.st24{fill:#141416;}
	.st25{fill:#151517;}
	.st26{fill:#0D0D0E;}
	.st27{fill:#FCFCFC;}
	.st28{fill:#F2F2F2;}
	.st29{fill:#F1F0F1;}
	.st30{fill:#F8F8F8;}
	.st31{fill:#F5F5F5;}
	.st32{fill:#FAF9FA;}
	.st33{fill:#FBFAFB;}
	.st34{fill:#FBFBFB;}
</style>
<g>
	<path class="st0" d="M0,14.96c0-4.04,0-8.09,0-12.13c0-0.09,0.02-0.11,0.11-0.11c6.05,0,12.09,0,18.14,0
		c0.09,0,0.11,0.02,0.11,0.11c0,4.01,0,8.01,0,12.02c0,0.09-0.02,0.11-0.11,0.11C12.17,14.96,6.09,14.96,0,14.96z"/>
	<path class="st1" d="M6.12,11.12c-0.01,0.09-0.07,0.1-0.15,0.08c-0.5-0.14-1.01-0.27-1.51-0.41c-0.53-0.14-1.05-0.29-1.58-0.43
		C2.76,10.34,2.75,10.3,2.8,10.2c0.09-0.19,0.09-0.19,0.29-0.14c0.92,0.2,1.84,0.4,2.77,0.61c0.19,0.04,0.22,0.07,0.23,0.27
		C6.1,10.99,6.11,11.05,6.12,11.12z"/>
	<path class="st2" d="M5.51,10.23c0,0.2,0,0.2-0.19,0.16c-0.74-0.15-1.48-0.29-2.21-0.44C3.06,9.94,2.97,9.96,2.97,9.86
		c0.01-0.11,0.11-0.22,0.19-0.21C3.45,9.7,3.73,9.74,4.01,9.79C4.45,9.86,4.88,9.92,5.31,10C5.51,10.03,5.51,10.03,5.51,10.23z"/>
	<path class="st3" d="M2.44,8.97C3.13,9.01,3.82,9.06,4.52,9.1c0.06,0,0.12,0,0.11,0.09c-0.02,0.08,0,0.18-0.14,0.17
		c-0.25-0.03-0.5-0.05-0.75-0.07C3.27,9.24,2.81,9.19,2.35,9.15c-0.04,0-0.1,0.02-0.1-0.03c0-0.03,0.04-0.07,0.06-0.1
		C2.34,8.97,2.38,8.96,2.44,8.97z"/>
	<path class="st4" d="M4.9,9.8C4.53,9.75,4.15,9.7,3.78,9.64C3.62,9.62,3.45,9.6,3.29,9.57C3.24,9.56,3.15,9.6,3.16,9.5
		c0.01-0.11,0.09-0.18,0.18-0.17C3.56,9.35,3.79,9.37,4.02,9.4c0.3,0.03,0.59,0.06,0.89,0.1c0.05,0.01,0.12,0,0.13,0.07
		C5.04,9.64,5.04,9.72,5,9.78C4.98,9.82,4.93,9.8,4.9,9.8z"/>
	<path class="st5" d="M8.82,8.97c0,0.08,0,0.16,0,0.24c0,0.06,0,0.1-0.08,0.1c-0.08,0-0.1-0.04-0.1-0.11c0-0.13,0-0.27,0-0.4
		c0-0.08-0.04-0.12-0.12-0.12C8.46,8.7,8.36,8.68,8.36,8.8c0,0.14,0,0.28,0,0.41c0,0.06-0.01,0.1-0.09,0.1
		c-0.07,0-0.09-0.04-0.09-0.1c0-0.14,0-0.28,0-0.41c0-0.09-0.04-0.12-0.12-0.11C7.99,8.7,7.88,8.67,7.88,8.8c0,0.14,0,0.28,0,0.41
		c0,0.07-0.02,0.1-0.09,0.1c-0.07,0-0.08-0.04-0.08-0.09c0-0.2,0.01-0.39,0-0.59c0-0.1,0.06-0.12,0.12-0.09c0.07,0.04,0.12,0,0.18,0
		c0.1-0.01,0.2-0.03,0.29,0.04c0.03,0.02,0.04,0.01,0.06,0c0.03-0.02,0.07-0.03,0.1-0.03c0.27-0.05,0.35,0.01,0.35,0.29
		C8.82,8.87,8.82,8.92,8.82,8.97z"/>
	<path class="st3" d="M13.45,8.84c-0.05,0.14-0.09,0.26-0.14,0.39c-0.02,0.06-0.06,0.09-0.13,0.09c-0.06,0-0.08-0.04-0.09-0.09
		c-0.05-0.19-0.11-0.38-0.17-0.57c-0.01-0.04-0.05-0.1,0.03-0.11c0.05-0.01,0.12-0.03,0.15,0.06c0.04,0.13,0.08,0.26,0.12,0.41
		c0.05-0.13,0.09-0.25,0.13-0.37c0.02-0.05,0.04-0.08,0.1-0.08c0.06,0,0.08,0.03,0.1,0.08c0.04,0.12,0.09,0.24,0.14,0.37
		c0.04-0.15,0.08-0.28,0.11-0.41c0.02-0.09,0.08-0.08,0.14-0.07c0.08,0.01,0.05,0.07,0.03,0.11c-0.06,0.19-0.11,0.37-0.17,0.56
		c-0.02,0.06-0.04,0.1-0.11,0.1c-0.08,0-0.09-0.04-0.11-0.1C13.55,9.09,13.5,8.98,13.45,8.84z"/>
	<path class="st3" d="M9.02,9.11c0-0.16,0-0.32,0-0.47c0-0.07,0.03-0.12,0.1-0.09c0.09,0.03,0.18,0,0.26-0.01
		C9.59,8.51,9.69,8.6,9.72,8.81c0.01,0.07,0.01,0.14,0,0.21C9.7,9.23,9.6,9.32,9.38,9.32c-0.18,0-0.18,0-0.18,0.18
		c0,0.03,0,0.07,0,0.1c0,0.07-0.04,0.08-0.09,0.08c-0.06,0-0.09-0.01-0.09-0.08C9.02,9.44,9.02,9.27,9.02,9.11z"/>
	<path class="st6" d="M5.85,8.77c0-0.15,0-0.3,0-0.45c0-0.07,0.02-0.1,0.09-0.1c0.07,0,0.1,0.02,0.1,0.09c0,0.09,0,0.17,0,0.26
		c0,0.03-0.02,0.08,0.03,0.09c0.05,0.01,0.09,0,0.11-0.05c0.06-0.1,0.13-0.2,0.19-0.29c0.02-0.03,0.04-0.06,0.07-0.08
		c0.05-0.02,0.1-0.03,0.14,0.01c0.04,0.04-0.01,0.07-0.03,0.11C6.48,8.47,6.41,8.58,6.33,8.69C6.28,8.75,6.29,8.8,6.34,8.86
		c0.08,0.1,0.16,0.2,0.24,0.31C6.6,9.2,6.67,9.25,6.61,9.3C6.55,9.34,6.47,9.33,6.42,9.26C6.38,9.2,6.33,9.14,6.29,9.07
		C6.25,9.01,6.21,8.95,6.16,8.88C6.14,8.84,6.1,8.83,6.06,8.84C6.02,8.85,6.03,8.89,6.03,8.92c0,0.09,0,0.18,0,0.27
		c0,0.08-0.01,0.13-0.11,0.12c-0.09,0-0.08-0.06-0.08-0.12C5.85,9.06,5.85,8.91,5.85,8.77z"/>
	<path class="st5" d="M16.92,8.73c0,0.17,0,0.33,0,0.5c0,0.06-0.03,0.1-0.08,0.08c-0.09-0.04-0.17,0-0.25,0.01
		c-0.23,0.02-0.34-0.08-0.35-0.31c0-0.03,0-0.06,0-0.09c0-0.31,0.13-0.43,0.44-0.39c0.06,0.01,0.08,0,0.08-0.06
		c-0.01-0.06,0-0.13,0-0.2c0-0.07,0.02-0.1,0.1-0.1c0.08,0,0.08,0.04,0.08,0.1C16.92,8.42,16.92,8.58,16.92,8.73z"/>
	<path class="st7" d="M4.54,8.56c0.27,0,0.55,0,0.82,0c0.08,0,0.11,0.03,0.11,0.11c0,0.07-0.02,0.12-0.1,0.11
		c-0.4-0.04-0.81,0-1.21-0.04C4,8.72,3.84,8.74,3.68,8.73c-0.04,0-0.12,0.03-0.12-0.04c0-0.07,0.05-0.13,0.13-0.13
		c0.08,0,0.16,0,0.24,0C4.14,8.56,4.34,8.56,4.54,8.56z"/>
	<path class="st3" d="M15.52,8.98c0,0.08-0.01,0.15,0,0.23c0.01,0.1-0.05,0.13-0.13,0.1c-0.06-0.03-0.09-0.01-0.14,0
		c-0.22,0.07-0.39-0.04-0.38-0.25c0.01-0.11,0.06-0.18,0.17-0.2c0.07-0.01,0.14-0.01,0.21-0.02c0.03,0,0.08,0.04,0.09-0.03
		c0.01-0.05-0.01-0.1-0.07-0.11c-0.07-0.02-0.14-0.01-0.22,0c-0.05,0.01-0.11,0.02-0.12-0.06c-0.01-0.08,0.04-0.1,0.1-0.11
		c0.1-0.01,0.2-0.03,0.3-0.01c0.13,0.02,0.17,0.07,0.17,0.2C15.52,8.81,15.52,8.9,15.52,8.98z"/>
	<path class="st8" d="M1.79,9.78c0.15,0.03,0.32,0.07,0.48,0.1C2.41,9.91,2.55,9.95,2.7,9.98c0.07,0.01,0.09,0.05,0.05,0.11
		c-0.02,0.04-0.04,0.08-0.06,0.12c-0.03,0.08-0.09,0.09-0.17,0.07c-0.29-0.08-0.57-0.16-0.86-0.23c-0.09-0.02-0.11-0.06-0.04-0.13
		C1.67,9.87,1.69,9.78,1.79,9.78z"/>
	<path class="st9" d="M10.71,8.91c0-0.09,0-0.18,0-0.27c-0.01-0.09,0.04-0.14,0.11-0.1c0.08,0.04,0.14,0,0.21-0.01
		c0.05-0.01,0.11-0.01,0.16-0.01c0.14,0.01,0.18,0.05,0.19,0.19c0,0.17,0,0.33,0,0.5c0,0.06-0.01,0.1-0.09,0.1
		c-0.07,0-0.1-0.03-0.1-0.1c0-0.14,0-0.28,0-0.41c0-0.09-0.05-0.13-0.13-0.11C11,8.7,10.89,8.67,10.89,8.81c0.01,0.13,0,0.26,0,0.39
		c0,0.06-0.01,0.11-0.09,0.11c-0.08,0-0.1-0.04-0.1-0.11C10.71,9.11,10.71,9.01,10.71,8.91z"/>
	<path class="st3" d="M14.72,8.97c0,0.08-0.01,0.16,0,0.24c0.01,0.11-0.06,0.13-0.13,0.09c-0.05-0.03-0.08-0.01-0.13,0
		c-0.21,0.04-0.37,0-0.39-0.2c-0.01-0.14,0.05-0.22,0.19-0.25c0.06-0.01,0.13-0.01,0.19-0.02c0.03,0,0.07,0.03,0.08-0.03
		c0-0.04,0.01-0.09-0.05-0.11c-0.08-0.03-0.15-0.01-0.23,0c-0.05,0.01-0.11,0.03-0.12-0.06c-0.01-0.08,0.04-0.1,0.1-0.1
		c0.1-0.01,0.2-0.02,0.3-0.01c0.12,0.02,0.17,0.08,0.17,0.2C14.72,8.81,14.72,8.89,14.72,8.97z"/>
	<path class="st3" d="M11.95,8.98c-0.04,0-0.08,0-0.12,0c-0.04,0.01-0.1-0.03-0.11,0.03c-0.01,0.06,0.02,0.12,0.09,0.14
		c0.09,0.03,0.18,0.01,0.26-0.01c0.05-0.01,0.1-0.02,0.11,0.05c0.02,0.07-0.02,0.09-0.08,0.11c-0.12,0.03-0.24,0.03-0.36,0.01
		c-0.03-0.01-0.06-0.02-0.09-0.04c-0.14-0.09-0.17-0.45-0.06-0.62c0.08-0.13,0.34-0.17,0.49-0.09c0.09,0.05,0.17,0.29,0.12,0.38
		c-0.01,0.03-0.04,0.04-0.07,0.04C12.07,8.98,12.01,8.98,11.95,8.98z"/>
	<path class="st3" d="M10.28,8.98c-0.04,0-0.08-0.01-0.12,0c-0.04,0.01-0.1-0.03-0.11,0.03c-0.01,0.06,0.02,0.11,0.08,0.14
		c0.09,0.04,0.18,0.02,0.26,0c0.06-0.01,0.11-0.03,0.13,0.06c0.01,0.08-0.04,0.08-0.09,0.1c-0.12,0.03-0.23,0.03-0.35,0.01
		c-0.02,0-0.05-0.01-0.07-0.03C9.86,9.2,9.81,8.86,9.92,8.66c0.08-0.14,0.35-0.19,0.5-0.1c0.09,0.06,0.15,0.28,0.12,0.37
		c-0.02,0.04-0.04,0.04-0.08,0.04C10.4,8.98,10.34,8.98,10.28,8.98z"/>
	<path class="st10" d="M4.87,9.04c-0.45-0.02-0.9-0.05-1.35-0.07c-0.03,0-0.08,0-0.07-0.04c0.01-0.06,0.04-0.13,0.11-0.14
		c0.08-0.01,0.15,0,0.23,0C4.17,8.8,4.55,8.81,4.93,8.83c0.07,0,0.16-0.03,0.16,0.1c0,0.13-0.07,0.14-0.17,0.12
		C4.9,9.04,4.89,9.05,4.87,9.04C4.87,9.04,4.87,9.04,4.87,9.04z"/>
	<path class="st11" d="M2.77,9.88c-0.3-0.06-0.6-0.12-0.9-0.18c-0.02,0-0.05-0.01-0.05-0.04c0-0.06,0.15-0.19,0.22-0.18
		c0.28,0.04,0.57,0.09,0.85,0.13C2.96,9.62,2.98,9.65,2.95,9.7C2.9,9.77,2.9,9.89,2.77,9.88z"/>
	<path class="st12" d="M2.99,9.53c-0.31-0.04-0.6-0.08-0.9-0.13c-0.03,0-0.06-0.03-0.03-0.06c0.05-0.07,0.09-0.16,0.22-0.14
		C2.52,9.25,2.76,9.27,3,9.3C3.05,9.3,3.12,9.27,3.13,9.35C3.13,9.42,3.03,9.53,2.99,9.53z"/>
	<path class="st13" d="M6.74,8.92c0-0.1,0-0.2,0-0.29c0-0.05,0.01-0.1,0.07-0.08c0.1,0.03,0.18,0,0.27-0.01
		C7.14,8.52,7.19,8.52,7.19,8.6c0,0.07-0.04,0.08-0.1,0.09C6.92,8.7,6.92,8.7,6.92,8.86c0,0.11,0,0.23,0,0.34
		c0,0.07-0.02,0.11-0.1,0.11c-0.07,0-0.09-0.05-0.09-0.11C6.74,9.11,6.74,9.01,6.74,8.92z"/>
	<path class="st14" d="M12.36,8.91c0-0.1,0-0.2,0-0.29c0-0.05,0.01-0.1,0.07-0.08c0.1,0.03,0.18,0,0.28-0.01
		c0.05,0,0.1-0.01,0.1,0.07c0,0.07-0.02,0.09-0.09,0.09c-0.18,0.01-0.18,0.01-0.18,0.19c0,0.11,0,0.23,0,0.34
		c0,0.06-0.02,0.09-0.08,0.1c-0.07,0-0.09-0.03-0.09-0.1C12.36,9.12,12.36,9.02,12.36,8.91z"/>
	<path class="st3" d="M15.72,8.92c0-0.1,0-0.2,0-0.31c0-0.06,0.02-0.1,0.08-0.08c0.09,0.04,0.17-0.01,0.26-0.01
		c0.05,0,0.11-0.02,0.11,0.07c0,0.07-0.03,0.09-0.1,0.09c-0.17,0.01-0.18,0.01-0.18,0.18c0,0.12,0,0.24,0,0.35
		c0,0.06-0.02,0.09-0.09,0.09c-0.06,0-0.09-0.03-0.09-0.09C15.72,9.12,15.72,9.02,15.72,8.92z"/>
	<path class="st15" d="M2.82,8.76c0.15,0.01,0.31,0.01,0.46,0.02c0.04,0,0.13-0.04,0.12,0.05C3.39,8.89,3.35,8.96,3.26,8.95
		C3.1,8.94,2.94,8.94,2.77,8.93C2.68,8.92,2.59,8.91,2.49,8.91c-0.09,0-0.07-0.04-0.03-0.09c0.04-0.06,0.1-0.07,0.16-0.07
		C2.69,8.75,2.75,8.75,2.82,8.76C2.82,8.75,2.82,8.75,2.82,8.76z"/>
	<path class="st16" d="M7.32,8.91c0-0.1,0-0.2,0-0.29c0-0.06,0.02-0.09,0.09-0.09c0.06,0,0.1,0.01,0.1,0.09c0,0.2,0,0.4,0,0.6
		c0,0.07-0.04,0.1-0.11,0.1c-0.07,0-0.08-0.04-0.08-0.1C7.33,9.12,7.32,9.02,7.32,8.91z"/>
	<path class="st17" d="M3.29,8.73c-0.2-0.02-0.4-0.02-0.61-0.02c-0.03,0-0.09,0.02-0.09-0.03c0-0.03,0.03-0.06,0.05-0.09
		c0.01-0.01,0.03-0.03,0.05-0.03c0.26,0,0.53,0,0.79,0c0.02,0,0.04,0.01,0.04,0.04C3.5,8.65,3.49,8.71,3.42,8.72
		C3.38,8.73,3.33,8.73,3.29,8.73z"/>
	<path class="st18" d="M8.36,8.24c-0.18,0-0.18-0.02-0.19-0.17c0-0.07,0.02-0.14,0.01-0.21C8.17,7.73,8.24,7.68,8.35,7.69
		c0.01,0,0.03,0,0.04,0.01c0.04,0.03,0.15,0.01,0.13,0.03C8.47,7.78,8.51,7.86,8.46,7.91C8.42,7.94,8.38,7.94,8.33,7.95
		c-0.03,0-0.1-0.04-0.1,0.02C8.24,8.02,8.31,8,8.35,8c0.16,0.01,0.21,0.05,0.18,0.15C8.49,8.24,8.41,8.24,8.36,8.24z"/>
	<path class="st19" d="M9,7.88c0-0.17,0.06-0.22,0.23-0.18c0.06,0.01,0.12,0.01,0.18,0c0.12-0.02,0.16,0.02,0.16,0.13
		c0,0.06,0,0.12,0,0.18c0,0.03,0,0.05-0.03,0.06C9.5,8.07,9.5,8.03,9.5,8c0-0.05,0-0.11,0-0.16c0-0.06-0.01-0.1-0.08-0.09
		c-0.07,0-0.11,0.02-0.1,0.1c0,0.05,0,0.1,0,0.15c0,0.03,0,0.07-0.03,0.07C9.24,8.07,9.26,8.03,9.26,8c0-0.06,0-0.11,0-0.17
		c0-0.06-0.02-0.08-0.08-0.08c-0.05,0-0.1,0.01-0.11,0.07c0,0.06,0,0.12,0,0.18c0,0.02,0,0.05-0.03,0.06C9,8.06,9,8.03,9,8.01
		C9,7.96,9,7.92,9,7.88z"/>
	<path class="st20" d="M11.38,8.07c-0.08,0.01-0.15-0.01-0.18-0.08c-0.03-0.09-0.04-0.18,0.03-0.25c0.05-0.06,0.12-0.06,0.19-0.04
		c0.09,0.02,0.11,0.08,0.11,0.15c0,0.09-0.08,0.04-0.12,0.05c-0.01,0-0.03,0-0.05,0c-0.03,0.01-0.09-0.03-0.09,0.04
		c0,0.06,0.05,0.07,0.09,0.08c0.01,0,0.02,0,0.02,0c0.04,0.01,0.12-0.05,0.12,0.01C11.5,8.1,11.41,8.06,11.38,8.07z"/>
	<path class="st21" d="M9.85,8.07c-0.07,0-0.14-0.01-0.16-0.08C9.65,7.91,9.65,7.82,9.7,7.75c0.04-0.06,0.12-0.07,0.19-0.06
		c0.07,0.01,0.11,0.05,0.12,0.12c0.01,0.06,0,0.1-0.07,0.09c-0.04,0-0.07,0-0.11,0c-0.03,0-0.08-0.03-0.08,0.03
		c0,0.05,0.04,0.07,0.08,0.07c0.03,0,0.06,0,0.1-0.01c0.03,0,0.06-0.03,0.07,0.02C10,8.06,9.96,8.06,9.93,8.07
		C9.9,8.07,9.87,8.07,9.85,8.07z"/>
	<path class="st22" d="M8.76,8.07c-0.16,0-0.2-0.06-0.2-0.22c0.01-0.11,0.08-0.17,0.2-0.16C8.85,7.69,8.9,7.74,8.91,7.82
		c0.01,0.05,0,0.08-0.06,0.08c-0.04,0-0.09,0-0.13,0c-0.03,0-0.07-0.02-0.07,0.03c0,0.04,0.03,0.06,0.07,0.07
		c0.04,0.01,0.08,0.01,0.12,0C8.85,8,8.88,7.98,8.89,8.02C8.9,8.06,8.86,8.06,8.83,8.07C8.81,8.07,8.78,8.07,8.76,8.07z"/>
	<path class="st23" d="M10.28,8.07c-0.08,0-0.15-0.01-0.18-0.08c-0.04-0.09-0.04-0.18,0.02-0.25c0.05-0.06,0.12-0.06,0.19-0.05
		c0.08,0.02,0.11,0.08,0.1,0.15c0,0.09-0.08,0.04-0.12,0.05c-0.01,0.01-0.03,0-0.05,0c-0.03,0.01-0.09-0.03-0.09,0.03
		c0,0.05,0.04,0.07,0.09,0.08c0.01,0,0.02,0,0.04,0c0.04,0.01,0.12-0.05,0.12,0.02C10.4,8.09,10.31,8.06,10.28,8.07z"/>
	<path class="st24" d="M10.51,7.88c0-0.17,0.07-0.23,0.24-0.19c0.05,0.01,0.08,0.03,0.09,0.08c0,0.08,0,0.15,0,0.23
		c0,0.03-0.01,0.05-0.03,0.06c-0.04,0-0.04-0.03-0.04-0.06c0-0.05,0-0.11,0-0.16c0-0.06-0.01-0.1-0.08-0.09
		c-0.06,0-0.13,0.01-0.12,0.1c0,0.05,0,0.11,0,0.16c0,0.02,0.01,0.06-0.03,0.06c-0.04,0-0.04-0.03-0.04-0.06
		C10.51,7.96,10.51,7.92,10.51,7.88z"/>
	<path class="st25" d="M11.13,7.74c-0.02,0.04-0.09,0.01-0.09,0.09c0,0.14,0,0.15,0.1,0.22c-0.12,0.05-0.15,0.03-0.17-0.08
		c-0.01-0.07,0.05-0.16-0.05-0.22c0,0,0.03-0.1,0.07-0.12c0.06-0.03,0.04,0.04,0.05,0.06C11.06,7.73,11.12,7.68,11.13,7.74z"/>
	<path class="st26" d="M7.31,8.31c0-0.07,0.04-0.11,0.11-0.11c0.07,0,0.1,0.04,0.1,0.11c0,0.07-0.03,0.1-0.1,0.1
		C7.34,8.41,7.32,8.37,7.31,8.31z"/>
	<path class="st27" d="M9.2,8.94c0-0.02,0-0.05,0-0.07C9.18,8.75,9.22,8.69,9.35,8.69c0.13,0,0.17,0.03,0.19,0.17
		c0.03,0.21-0.03,0.31-0.19,0.32C9.24,9.18,9.18,9.15,9.2,9.04C9.21,9.01,9.2,8.97,9.2,8.94z"/>
	<path class="st27" d="M16.75,8.91c0,0.03,0,0.06,0,0.08c0.02,0.1-0.02,0.16-0.13,0.17c-0.12,0.01-0.19-0.04-0.2-0.16
		c-0.03-0.21,0.03-0.32,0.2-0.33c0.09,0,0.16,0.02,0.14,0.13C16.74,8.85,16.75,8.88,16.75,8.91z"/>
	<path class="st27" d="M15.23,8.97c0.06,0.01,0.12-0.03,0.12,0.08c0,0.12-0.08,0.12-0.17,0.13c-0.07,0-0.14-0.01-0.13-0.1
		C15.07,8.95,15.17,8.98,15.23,8.97z"/>
	<path class="st27" d="M14.44,8.97c0.04,0.01,0.11-0.03,0.11,0.07c0,0.11-0.06,0.13-0.16,0.13c-0.08,0-0.15-0.01-0.14-0.1
		C14.26,8.96,14.37,8.98,14.44,8.97z"/>
	<path class="st28" d="M11.87,8.85c-0.05-0.03-0.13,0.04-0.15-0.05c-0.02-0.08,0.06-0.14,0.16-0.14c0.09,0,0.16,0.04,0.15,0.13
		C12.02,8.9,11.92,8.82,11.87,8.85z"/>
	<path class="st29" d="M10.2,8.86c-0.05-0.04-0.15,0.05-0.15-0.06c0-0.1,0.08-0.13,0.17-0.13c0.08,0,0.15,0.02,0.14,0.12
		C10.35,8.91,10.25,8.81,10.2,8.86z"/>
	<path class="st30" d="M8.35,8.07c0.04,0.01,0.12-0.02,0.11,0.06C8.45,8.2,8.38,8.17,8.33,8.17c-0.04,0-0.1,0.02-0.1-0.05
		C8.23,8.04,8.3,8.08,8.35,8.07z"/>
	<path class="st31" d="M8.33,7.75c0.05,0,0.09,0,0.09,0.07c0,0.06-0.04,0.07-0.09,0.08c-0.04,0-0.08-0.01-0.08-0.06
		C8.24,7.77,8.28,7.75,8.33,7.75z"/>
	<path class="st32" d="M11.36,7.85c-0.03-0.02-0.09,0.03-0.1-0.03c0-0.05,0.04-0.07,0.09-0.07c0.05,0,0.11,0.01,0.1,0.07
		C11.45,7.88,11.39,7.84,11.36,7.85z"/>
	<path class="st33" d="M9.85,7.86c-0.04-0.02-0.1,0.03-0.1-0.04c0-0.06,0.05-0.07,0.1-0.07c0.05,0,0.1,0.02,0.09,0.07
		C9.93,7.88,9.87,7.83,9.85,7.86z"/>
	<path class="st34" d="M8.74,7.86c-0.04-0.02-0.1,0.03-0.1-0.04c0-0.06,0.05-0.07,0.1-0.07c0.05,0,0.1,0.02,0.09,0.07
		C8.83,7.88,8.77,7.83,8.74,7.86z"/>
	<path class="st29" d="M10.25,7.85c-0.03-0.02-0.09,0.03-0.1-0.03c-0.01-0.06,0.05-0.08,0.1-0.08c0.05,0,0.1,0.01,0.09,0.07
		C10.34,7.88,10.28,7.84,10.25,7.85z"/>
</g>
</svg>
