<?xml version="1.0" encoding="UTF-8" standalone="no"?><!DOCTYPE svg PUBLIC "-//W3C//DTD SVG 1.1//EN" "http://www.w3.org/Graphics/SVG/1.1/DTD/svg11.dtd"><svg width="134px" height="70px" viewBox="0 0 94 49" version="1.1" xmlns="http://www.w3.org/2000/svg" xmlns:xlink="http://www.w3.org/1999/xlink" xml:space="preserve" xmlns:serif="http://www.serif.com/" style="fill-rule:evenodd;clip-rule:evenodd;stroke-linejoin:round;stroke-miterlimit:1.41421;"><path id="Gemeente" d="M19.612,28.738l-0.056,0c-0.427,-0.653 -1.01,-1.61 -1.097,-1.772c-0.098,0.285 -0.498,1.74 -0.597,2.003l-1.101,-0.41c0.095,-0.225 1.219,-3.163 1.543,-3.88l0.057,0c0.337,0.555 1.161,1.928 1.336,2.223c0.219,-0.337 1.002,-1.648 1.302,-2.135l0.05,0c0.386,0.83 1.507,3.386 1.659,3.698l-1.131,0.504c-0.174,-0.445 -0.705,-1.879 -0.765,-2.026c-0.067,0.095 -0.785,1.205 -1.2,1.795Zm25.447,0.098l-1.202,-0.04c0.032,-0.425 0.18,-3.476 0.235,-4.263l0.059,-0.035c0.835,0.618 2.732,2.064 2.934,2.222c0,-0.333 -0.012,-1.93 -0.012,-2.182l1.205,0.033c-0.035,0.46 -0.089,1.345 -0.143,2.221c-0.048,0.859 -0.091,1.704 -0.11,2.091l-0.05,0.032c-0.71,-0.464 -2.838,-2.165 -2.928,-2.24c0,0.242 0.005,1.965 0.012,2.161Zm-41.331,-1.394l0,0.428c0,0.228 0.01,0.759 0.01,0.886c-0.149,0.04 -0.703,0.136 -1.304,0.136c-1.718,-0.027 -2.434,-0.835 -2.434,-1.773c0,-0.725 0.624,-2.122 3.043,-2.659l0.266,1.169c-0.788,0.107 -1.921,0.612 -1.921,1.427c0,0.588 0.622,0.807 1.072,0.807l0.006,-0.467c0,-0.182 -0.015,-0.34 -0.015,-0.502l1.282,0c-0.005,0.225 -0.005,0.364 -0.005,0.548Zm8.161,0.387l0.022,1.028c-0.213,0 -2.34,-0.061 -2.646,-0.061c0.019,-0.318 0.019,-1.594 0.019,-1.732l0,-0.791c0,-0.095 -0.014,-1.53 -0.019,-1.703c0.329,0 2.315,-0.093 2.532,-0.11l0.022,0.978c-0.223,0 -1.146,0.029 -1.254,0.029l0,0.794c0.123,0 0.798,-0.029 1.058,-0.051l0.014,0.947c-0.152,0 -0.937,-0.024 -1.072,-0.024l0,0.707c0.154,0 1.047,0 1.324,-0.011Zm52.91,0l0.022,1.028c-0.216,0 -2.34,-0.061 -2.647,-0.061c0.018,-0.318 0.018,-1.594 0.018,-1.732l0,-0.791c0,-0.095 -0.011,-1.53 -0.018,-1.703c0.329,0 2.313,-0.093 2.527,-0.11l0.029,0.978c-0.222,0 -1.148,0.029 -1.255,0.029l0,0.794c0.118,0 0.798,-0.029 1.052,-0.051l0.024,0.947c-0.163,0 -0.948,-0.024 -1.076,-0.024l0,0.707c0.156,0 1.044,0 1.324,-0.011Zm-26.434,0l0.024,1.028c-0.216,0 -2.34,-0.061 -2.65,-0.061c0.022,-0.318 0.022,-1.594 0.022,-1.732l0,-0.791c0,-0.095 -0.013,-1.53 -0.022,-1.703c0.329,0 2.316,-0.093 2.533,-0.11l0.019,0.978c-0.215,0 -1.142,0.029 -1.25,0.029l0,0.794c0.121,0 0.8,-0.029 1.054,-0.051l0.018,0.947c-0.154,0 -0.941,-0.024 -1.072,-0.024l0,0.707c0.151,0 1.044,0 1.324,-0.011Zm-8.301,0l0.029,1.028c-0.22,0 -2.347,-0.061 -2.653,-0.061c0.024,-0.318 0.024,-1.594 0.024,-1.732l0,-0.791c0,-0.095 -0.018,-1.53 -0.024,-1.703c0.333,0 2.316,-0.093 2.532,-0.11l0.023,0.978c-0.222,0 -1.146,0.029 -1.251,0.029l0,0.794c0.116,0 0.801,-0.029 1.051,-0.051l0.022,0.947c-0.157,0 -0.946,-0.024 -1.073,-0.024l0,0.707c0.152,0 1.043,0 1.32,-0.011Zm25.72,0.967l-1.358,0c0.013,-0.156 0.015,-1.002 0.015,-1.651l0,-1.557c-0.285,0 -1.116,0.033 -1.302,0.034l0,-1.044c0.266,0.027 1.663,0.049 1.726,0.049l0.514,0c0.113,0 1.395,-0.022 1.69,-0.049l0,1.044c-0.117,-0.001 -1.207,-0.034 -1.301,-0.034l0,1.653c0,0.612 0.005,1.433 0.016,1.555Z" style="fill:#333;"/><path id="De-Bilt" serif:id="De Bilt" d="M69.328,32.951l4.96,0c-0.022,0.493 -0.107,4.895 -0.107,7.601l0,3.928c0.514,0 3.026,0 4.725,-0.086l0.021,3.995c-0.516,0 -7.881,-0.213 -9.579,-0.213c0.065,-1.138 0.065,-5.736 0.065,-6.251l0,-2.834c0,-0.344 -0.044,-5.733 -0.085,-6.14Zm-32.77,11.746l0.089,3.691c-0.774,0 -8.443,-0.212 -9.537,-0.212c0.065,-1.139 0.065,-5.737 0.065,-6.23l0,-2.855c0,-0.344 -0.043,-5.52 -0.065,-6.14c1.18,0 8.336,-0.324 9.103,-0.387l0.086,3.521c-0.79,0 -4.121,0.106 -4.505,0.106l0,2.857c0.428,0 2.874,-0.107 3.8,-0.194l0.063,3.415c-0.559,0 -3.391,-0.087 -3.863,-0.087l0,2.555c0.553,0 3.756,0 4.764,-0.04Zm7.516,3.605l2.021,0c7.001,-0.019 10.219,-2.51 10.219,-4.938c0,-2.038 -1.887,-3.049 -3.348,-3.327l0,-0.129c2.255,-1.032 2.682,-2.361 2.682,-3.159c0,-1.2 -0.599,-3.005 -5.024,-3.542c-1.864,-0.237 -3.481,-0.256 -6.55,-0.256c0.067,0.449 0.11,4.272 0.11,4.896l0,2.381c0,0.41 0,6.916 -0.11,8.074Zm-34.636,-0.02c6.851,0 14.796,-2.77 14.796,-9.512c0,-1.74 -1.052,-4.683 -6.612,-5.433c-1.977,-0.279 -4.255,-0.386 -8.165,-0.386c0.088,0.6 0.11,5.325 0.11,5.796l0,2.665c0,0.557 -0.043,5.883 -0.129,6.87Zm79.322,-0.106l-4.893,0c0.044,-0.561 0.062,-3.609 0.062,-5.95l0,-5.603c-1.032,0 -4.038,0.104 -4.704,0.127l0,-3.756c0.966,0.083 5.992,0.17 6.228,0.17l1.848,0c0.408,0 5.024,-0.087 6.079,-0.17l0,3.756c-0.411,-0.023 -4.34,-0.127 -4.68,-0.127l0,5.947c0,2.211 0.02,5.176 0.06,5.606Zm-23.937,-0.001l-4.923,0c0.043,-0.943 0.07,-5.972 0.07,-6.53l0,-2.294c0,-0.368 -0.07,-5.887 -0.07,-6.4l4.923,0c-0.025,0.386 -0.087,3.865 -0.087,6.44l0,2.299c0,2.147 0.062,5.992 0.087,6.485Zm-13.297,-4.682c0,1.221 -1.762,2.167 -2.92,2.167l0,-4.184c1.589,0 2.92,0.686 2.92,2.017Zm-32.339,-3.995c0,3.008 -2.877,4.532 -4.96,4.876l0,-8.009c2.404,0 4.96,0.621 4.96,3.133Zm31.801,-2.513c0,1.568 -1.481,2.428 -2.382,2.428l0,-4.037c1.115,0 2.382,0.3 2.382,1.609Z" style="fill:#333;"/><path id="Moon" d="M79.449,4.31c1.516,-1.544 3.629,-2.505 5.966,-2.505c4.614,0 8.356,3.744 8.356,8.357c0,4.615 -3.742,8.356 -8.356,8.356c-0.497,0 -0.982,-0.043 -1.455,-0.126l-4.511,-14.082Z" style="fill:#fff;"/><path id="Tree" d="M83.966,18.388c0.891,2.861 1.576,5.155 1.648,5.656c0.201,1.458 -6.692,1.619 -6.692,1.619c0,0 -0.071,0.685 0.118,1.825c0.025,0.127 -0.15,0.381 -1.363,0.381c-1.215,0 -1.388,-0.254 -1.366,-0.381c0.185,-1.14 0.12,-1.825 0.12,-1.825c0,0 -6.891,-0.161 -6.691,-1.619c0.207,-1.461 5.552,-18.15 6.125,-19.744c0.566,-1.595 1.462,-4.3 1.809,-4.3c0.349,0 1.231,2.729 1.77,4.315l0,0c-1.475,1.507 -2.384,3.572 -2.384,5.847c0,4.113 2.974,7.531 6.891,8.224l0.015,0.002Z" style="fill:#333;"/></svg>