<svg width="48" height="48" viewBox="0 0 48 48" fill="none" xmlns="http://www.w3.org/2000/svg">
<path d="M18.002 6.999C18.3998 6.999 18.7814 6.84096 19.0627 6.55966C19.344 6.27836 19.502 5.89682 19.502 5.499V1.5C19.502 1.10218 19.344 0.720644 19.0627 0.43934C18.7814 0.158035 18.3998 0 18.002 0C17.6042 0 17.2226 0.158035 16.9413 0.43934C16.66 0.720644 16.502 1.10218 16.502 1.5V5.499C16.502 5.89682 16.66 6.27836 16.9413 6.55966C17.2226 6.84096 17.6042 6.999 18.002 6.999V6.999ZM10.999 10.995H7C6.60218 10.995 6.22064 11.153 5.93934 11.4343C5.65804 11.7156 5.5 12.0972 5.5 12.495C5.5 12.8928 5.65804 13.2744 5.93934 13.5557C6.22064 13.837 6.60218 13.995 7 13.995H10.999C11.3968 13.995 11.7784 13.837 12.0597 13.5557C12.341 13.2744 12.499 12.8928 12.499 12.495C12.499 12.0972 12.341 11.7156 12.0597 11.4343C11.7784 11.153 11.3968 10.995 10.999 10.995V10.995ZM11.06 3.438C10.7786 3.15661 10.397 2.99852 9.999 2.99852C9.60105 2.99852 9.21939 3.15661 8.938 3.438C8.65661 3.71939 8.49852 4.10105 8.49852 4.499C8.49852 4.89695 8.65661 5.27861 8.938 5.56L11.941 8.562C12.0793 8.70533 12.2448 8.81968 12.4277 8.89838C12.6107 8.97708 12.8075 9.01855 13.0067 9.02037C13.2058 9.0222 13.4034 8.98434 13.5878 8.909C13.7721 8.83367 13.9397 8.72237 14.0806 8.58159C14.2215 8.44082 14.3329 8.2734 14.4084 8.08909C14.484 7.90478 14.522 7.70728 14.5204 7.50811C14.5187 7.30894 14.4774 7.11209 14.3989 6.92905C14.3204 6.74601 14.2062 6.58044 14.063 6.442L11.06 3.438ZM16.5 22C16.5 22.5304 16.7107 23.0391 17.0858 23.4142C17.4609 23.7893 17.9696 24 18.5 24C19.0304 24 19.5391 23.7893 19.9142 23.4142C20.2893 23.0391 20.5 22.5304 20.5 22C20.5006 20.4578 20.9827 18.9543 21.8791 17.6994C22.7755 16.4444 24.0414 15.5007 25.5 15L21.5 33.98C21.4848 34.1151 21.4996 34.2518 21.5436 34.3804C21.5875 34.5091 21.6594 34.6264 21.754 34.7239C21.8487 34.8214 21.9638 34.8968 22.091 34.9445C22.2183 34.9922 22.3545 35.0112 22.49 35H24.49V46C24.49 46.5304 24.7007 47.0391 25.0758 47.4142C25.4509 47.7893 25.9596 48 26.49 48C27.0204 48 27.5291 47.7893 27.9042 47.4142C28.2793 47.0391 28.49 46.5304 28.49 46V10C21.48 10.43 16.5 15.36 16.5 22ZM25.49 4C25.4865 4.90242 25.7775 5.78134 26.319 6.50327C26.8604 7.22521 27.6227 7.75072 28.49 8V0C27.6227 0.249275 26.8604 0.774788 26.319 1.49673C25.7775 2.21866 25.4865 3.09758 25.49 4V4ZM30.51 10V46C30.51 46.5304 30.7207 47.0391 31.0958 47.4142C31.4709 47.7893 31.9796 48 32.51 48C33.0404 48 33.5491 47.7893 33.9242 47.4142C34.2993 47.0391 34.51 46.5304 34.51 46V15C35.7451 15.6979 36.7681 16.7172 37.4706 17.9496C38.1731 19.1821 38.5288 20.5817 38.5 22C38.5 22.5304 38.7107 23.0391 39.0858 23.4142C39.4609 23.7893 39.9696 24 40.5 24C41.0304 24 41.5391 23.7893 41.9142 23.4142C42.2893 23.0391 42.5 22.5304 42.5 22C42.5 15.36 37.51 10.43 30.51 10V10ZM33.51 4C33.5135 3.09758 33.2225 2.21866 32.681 1.49673C32.1396 0.774788 31.3773 0.249275 30.51 0V8C31.3773 7.75072 32.1396 7.22521 32.681 6.50327C33.2225 5.78134 33.5135 4.90242 33.51 4Z" fill="#011E41"/>
</svg>
