<svg width="48" height="48" viewBox="0 0 48 48" fill="none" xmlns="http://www.w3.org/2000/svg">
<path d="M44.5151 7.85786L44.1421 7.48486C41.9105 5.25352 38.8839 4 35.7281 4C32.5723 4 29.5457 5.25352 27.3141 7.48486L24.0001 10.9999L20.6861 7.48486C18.4545 5.25352 15.4279 4 12.2721 4C9.11631 4 6.08974 5.25352 3.8581 7.48486L3.4851 7.85786C1.25377 10.0895 0.000244141 13.1161 0.000244141 16.2719C0.000244141 19.4277 1.25377 22.4542 3.4851 24.6859L23.1151 44.6329C23.3499 44.8675 23.6682 44.9993 24.0001 44.9993C24.332 44.9993 24.6503 44.8675 24.8851 44.6329L44.5151 24.6859C46.7464 22.4542 48 19.4277 48 16.2719C48 13.1161 46.7464 10.0895 44.5151 7.85786V7.85786Z" fill="#011E41"/>
<path d="M32.3284 13.8229C32.3223 13.7922 32.3109 13.7638 32.3021 13.7342C32.2934 13.6996 32.2828 13.6656 32.2704 13.6321C32.2547 13.5978 32.2371 13.5643 32.2177 13.532C32.2037 13.5066 32.1927 13.4803 32.1765 13.456C32.1014 13.3437 32.0049 13.2472 31.8926 13.1721C31.8683 13.1559 31.842 13.1449 31.8166 13.1309C31.7843 13.1115 31.7509 13.0939 31.7165 13.0782C31.6831 13.0659 31.649 13.0553 31.6144 13.0465C31.5848 13.0377 31.5564 13.0263 31.5257 13.0203C31.4598 13.0069 31.3926 13.0001 31.3253 13H27.7439C27.4726 13 27.2123 13.1078 27.0204 13.2997C26.8285 13.4916 26.7207 13.7519 26.7207 14.0233C26.7207 14.2946 26.8285 14.5549 27.0204 14.7468C27.2123 14.9387 27.4726 15.0465 27.7439 15.0465H28.8551L26.6911 17.2106C25.7739 16.5558 24.6939 16.1665 23.5698 16.0856C22.4458 16.0046 21.3212 16.2351 20.3196 16.7518C19.318 17.2684 18.4783 18.0511 17.8926 19.0139C17.3069 19.9767 16.998 21.0823 16.9998 22.2093C16.9998 23.6695 17.5117 25.0835 18.4465 26.2052C19.3813 27.327 20.6798 28.0855 22.116 28.3488V30.3953H20.5812C20.3098 30.3953 20.0495 30.5032 19.8576 30.6951C19.6657 30.887 19.5579 31.1472 19.5579 31.4186C19.5579 31.69 19.6657 31.9503 19.8576 32.1422C20.0495 32.3341 20.3098 32.4419 20.5812 32.4419H22.116V33.9767C22.116 34.2481 22.2238 34.5084 22.4157 34.7003C22.6076 34.8922 22.8679 35 23.1393 35C23.4107 35 23.671 34.8922 23.8628 34.7003C24.0547 34.5084 24.1626 34.2481 24.1626 33.9767V32.4419H25.6974C25.9688 32.4419 26.2291 32.3341 26.421 32.1422C26.6129 31.9503 26.7207 31.69 26.7207 31.4186C26.7207 31.1472 26.6129 30.887 26.421 30.6951C26.2291 30.5032 25.9688 30.3953 25.6974 30.3953H24.1626V28.3488C25.5988 28.0855 26.8973 27.327 27.8321 26.2052C28.7669 25.0835 29.2788 23.6695 29.2788 22.2093C29.2788 20.9353 28.8799 19.6933 28.138 18.6575L30.3021 16.4935V17.6047C30.3021 17.876 30.4099 18.1363 30.6018 18.3282C30.7937 18.5201 31.054 18.6279 31.3253 18.6279C31.5967 18.6279 31.857 18.5201 32.0489 18.3282C32.2408 18.1363 32.3486 17.876 32.3486 17.6047V14.0233C32.3485 13.956 32.3417 13.8889 32.3284 13.8229ZM23.1393 26.3023C22.3298 26.3023 21.5384 26.0623 20.8653 25.6125C20.1922 25.1628 19.6676 24.5235 19.3578 23.7756C19.048 23.0277 18.967 22.2048 19.1249 21.4108C19.2829 20.6168 19.6727 19.8875 20.2451 19.3151C20.8175 18.7427 21.5468 18.3529 22.3408 18.1949C23.1348 18.037 23.9577 18.1181 24.7056 18.4278C25.4535 18.7376 26.0928 19.2622 26.5425 19.9353C26.9923 20.6084 27.2323 21.3998 27.2323 22.2093C27.2311 23.2945 26.7995 24.3348 26.0321 25.1021C25.2648 25.8695 24.2245 26.3011 23.1393 26.3023Z" fill="white"/>
</svg>
