<svg width="48" height="48" viewBox="0 0 48 48" fill="none" xmlns="http://www.w3.org/2000/svg">
<path d="M11 22C11 22.5304 11.2107 23.0391 11.5858 23.4142C11.9609 23.7893 12.4696 24 13 24C13.5304 24 14.0391 23.7893 14.4142 23.4142C14.7893 23.0391 15 22.5304 15 22C15.0006 20.4578 15.4827 18.9543 16.3791 17.6994C17.2755 16.4444 18.5414 15.5007 20 15L16 33.98C15.9848 34.1151 15.9996 34.2518 16.0436 34.3804C16.0875 34.5091 16.1594 34.6264 16.254 34.7239C16.3487 34.8214 16.4638 34.8968 16.591 34.9445C16.7183 34.9922 16.8545 35.0112 16.99 35H18.99V46C18.99 46.5304 19.2007 47.0391 19.5758 47.4142C19.9509 47.7893 20.4596 48 20.99 48C21.5204 48 22.0291 47.7893 22.4042 47.4142C22.7793 47.0391 22.99 46.5304 22.99 46V10C15.98 10.43 11 15.36 11 22ZM19.99 4C19.9865 4.90242 20.2775 5.78134 20.819 6.50327C21.3604 7.22521 22.1227 7.75072 22.99 8V0C22.1227 0.249275 21.3604 0.774788 20.819 1.49673C20.2775 2.21866 19.9865 3.09758 19.99 4V4ZM25.01 10V46C25.01 46.2626 25.0617 46.5227 25.1622 46.7654C25.2628 47.008 25.4101 47.2285 25.5958 47.4142C25.7815 47.5999 26.002 47.7472 26.2446 47.8478C26.4873 47.9483 26.7474 48 27.01 48C27.2726 48 27.5327 47.9483 27.7754 47.8478C28.018 47.7472 28.2385 47.5999 28.4242 47.4142C28.6099 47.2285 28.7573 47.008 28.8578 46.7654C28.9583 46.5227 29.01 46.2626 29.01 46V15C30.2451 15.6979 31.2681 16.7172 31.9706 17.9496C32.6731 19.1821 33.0288 20.5817 33 22C33 22.5304 33.2107 23.0391 33.5858 23.4142C33.9609 23.7893 34.4696 24 35 24C35.5304 24 36.0391 23.7893 36.4142 23.4142C36.7893 23.0391 37 22.5304 37 22C37 15.36 32.01 10.43 25.01 10ZM28.01 4C28.0135 3.09758 27.7225 2.21866 27.181 1.49673C26.6396 0.774788 25.8773 0.249275 25.01 0V8C25.8773 7.75072 26.6396 7.22521 27.181 6.50327C27.7225 5.78134 28.0135 4.90242 28.01 4Z" fill="#011E41"/>
</svg>
