<svg width="48" height="48" viewBox="0 0 48 48" fill="none" xmlns="http://www.w3.org/2000/svg">
<g clip-path="url(#clip0_74_1580)">
<path d="M14.0001 48.0006C13.2089 48.0006 12.4355 47.766 11.7776 47.3264C11.1198 46.8868 10.6071 46.262 10.3044 45.531C10.0016 44.8 9.9225 43.9957 10.077 43.2197C10.2314 42.4437 10.6126 41.731 11.1721 41.1716L28.3431 24.0006L11.1721 6.8286C10.422 6.07844 10.0005 5.061 10.0005 4.0001C10.0005 2.93921 10.422 1.92177 11.1721 1.1716C11.9223 0.421438 12.9398 7.90427e-09 14.0006 0C15.0615 -7.90427e-09 16.079 0.421438 16.8291 1.1716L36.8291 21.1716C37.2006 21.543 37.4953 21.984 37.6963 22.4693C37.8973 22.9546 38.0008 23.4748 38.0008 24.0001C38.0008 24.5254 37.8973 25.0456 37.6963 25.5309C37.4953 26.0162 37.2006 26.4572 36.8291 26.8286L16.8291 46.8286C16.458 47.2007 16.0171 47.4957 15.5316 47.6969C15.0461 47.898 14.5257 48.0012 14.0001 48.0006V48.0006Z" fill="#011E41"/>
</g>
<defs>
<clipPath id="clip0_74_1580">
<rect width="48" height="48" fill="white"/>
</clipPath>
</defs>
</svg>
