<?xml version="1.0" encoding="utf-8"?>
<!-- Generator: Adobe Illustrator 25.2.1, SVG Export Plug-In . SVG Version: 6.00 Build 0)  -->
<svg version="1.1" id="Layer_1" xmlns="http://www.w3.org/2000/svg" xmlns:xlink="http://www.w3.org/1999/xlink" x="0px" y="0px"
	 viewBox="0 0 288 560" style="enable-background:new 0 0 288 560;" xml:space="preserve">
<style type="text/css">
	.st0{fill:#FEFEFE;}
	.st1{fill:#ED7202;}
</style>
<g>
	<path class="st0" d="M203.2,279.99c0,19.42,0,38.84,0.02,58.26c0,0.75-0.09,0.97-0.92,0.97c-38.88-0.03-77.76-0.03-116.63,0
		c-0.74,0-0.87-0.19-0.87-0.89c0.02-38.88,0.02-77.76-0.01-116.63c0-0.87,0.27-0.9,0.99-0.9c38.84,0.02,77.68,0.02,116.52-0.01
		c0.81,0,0.94,0.18,0.94,0.95C203.19,241.15,203.2,260.57,203.2,279.99z"/>
	<path class="st1" d="M149.61,329.65c0.56-2.09,1.17-4.1,2.99-5.54c2.93-2.31,5.75-4.75,8.62-7.14c3.15-2.63,4.18-6.18,3.79-10.05
		c-1-9.92-1.14-19.88-1.7-29.82c-0.63-11.29-1.11-22.58-1.66-33.87c-0.05-0.93-0.81-1.74-1.63-1.74c-0.8-0.01-1.41,0.77-1.43,1.91
		c-0.07,5.61-0.13,11.23-0.18,16.84c-0.12,11.69-0.25,23.38-0.37,35.07c-0.01,0.65-0.07,1.3-0.28,1.93
		c-0.61,1.75-2.12,2.06-3.37,0.68c-0.71-0.79-0.91-1.77-0.95-2.78c-0.49-10.26-0.97-20.51-1.46-30.77
		c-0.32-6.68-0.64-13.37-0.96-20.05c-0.03-0.63-0.17-1.22-0.48-1.76c-0.31-0.54-0.63-1.07-1.39-1.02c-0.81,0.04-1.39,0.41-1.74,1.13
		c-0.32,0.64-0.28,1.34-0.28,2.04c0,16.5,0,33,0.01,49.5c0,1.05-0.05,2.08-0.58,3.02c-0.58,1.02-1.41,1.85-2.61,1.84
		c-1.2-0.01-2.02-0.84-2.59-1.87c-0.54-0.98-0.55-2.06-0.55-3.14c0-11.42,0-22.85,0-34.27c0-5.08,0-10.15,0-15.23
		c0-0.66-0.01-1.31-0.31-1.92c-0.34-0.68-0.89-1.02-1.65-1.08c-0.76-0.07-1.1,0.43-1.43,0.96c-0.33,0.54-0.45,1.13-0.48,1.76
		c-0.6,12.52-1.21,25.04-1.82,37.56c-0.22,4.49-0.43,8.99-0.65,13.48c-0.05,0.98-0.28,1.91-0.97,2.65
		c-1.23,1.33-2.71,1.02-3.31-0.67c-0.26-0.73-0.34-1.49-0.35-2.27c-0.11-12.96-0.23-25.92-0.35-38.88
		c-0.04-4.15-0.1-8.31-0.15-12.46c0-0.38,0.03-0.77-0.14-1.13c-0.3-0.62-0.67-1.2-1.46-1.03c-0.74,0.16-1.39,0.53-1.45,1.41
		c-0.12,1.96-0.23,3.92-0.32,5.87c-0.65,13.56-1.3,27.12-1.96,40.67c-0.22,4.65-0.41,9.3-0.7,13.94c-0.11,1.76-0.54,3.49-0.45,5.27
		c0.19,3.66,1.58,6.64,4.59,8.89c3.08,2.3,6.05,4.75,9.05,7.15c1.38,1.1,2.58,3.56,2.95,5.97c-0.4,0.01-0.57-0.33-0.81-0.54
		c-13.29-11.62-26.66-23.15-39.83-34.9c-9.7-8.65-13.78-19.74-12.64-32.6c1.07-12.08,6.63-21.75,16.81-28.47
		c12.19-8.06,27.91-7.32,39.48,1.69c1.04,0.81,1.61,0.91,2.73,0.04c15.9-12.29,38.17-8.62,49.68,8.12
		c11.23,16.35,8.52,38.51-6.36,51.59c-12.65,11.12-25.34,22.2-38.02,33.3C150.21,329.17,149.91,329.41,149.61,329.65z"/>
	<path class="st1" d="M138.38,322.61c-1.06-0.08-1.65-0.46-2.26-0.74c-3.35-1.52-6.48-3.37-8.83-6.28
		c-2.89-3.58-3.53-7.56-1.99-11.9c0.12-0.32,0.27-0.63,0.42-0.94c0.02-0.05,0.13-0.05,0.2-0.08
		C127.07,311.05,132.54,316.75,138.38,322.61z"/>
</g>
</svg>
