<svg width="48" height="48" viewBox="0 0 48 48" fill="none" xmlns="http://www.w3.org/2000/svg">
<path d="M46.5 45H1.5C1.10218 45 0.720644 45.158 0.43934 45.4393C0.158035 45.7206 0 46.1022 0 46.5C0 46.8978 0.158035 47.2794 0.43934 47.5607C0.720644 47.842 1.10218 48 1.5 48H46.5C46.8978 48 47.2794 47.842 47.5607 47.5607C47.842 47.2794 48 46.8978 48 46.5C48 46.1022 47.842 45.7206 47.5607 45.4393C47.2794 45.158 46.8978 45 46.5 45ZM5.5 43H42.5C42.8978 43 43.2794 42.842 43.5607 42.5607C43.842 42.2794 44 41.8978 44 41.5C44 41.1022 43.842 40.7206 43.5607 40.4393C43.2794 40.158 42.8978 40 42.5 40H5.5C5.10218 40 4.72064 40.158 4.43934 40.4393C4.15804 40.7206 4 41.1022 4 41.5C4 41.8978 4.15804 42.2794 4.43934 42.5607C4.72064 42.842 5.10218 43 5.5 43V43ZM10 17H14V38H10V17ZM18 17H22V38H18V17ZM26 17H30V38H26V17ZM34 17H38V38H34V17ZM8 15H40C40.5304 15 41.0391 14.7893 41.4142 14.4142C41.7893 14.0391 42 13.5304 42 13C42 12.4696 41.7893 11.9609 41.4142 11.5858C41.0391 11.2107 40.5304 11 40 11H25V8H34V2H25V1.5C25 1.10218 24.842 0.720644 24.5607 0.43934C24.2794 0.158035 23.8978 0 23.5 0C23.1022 0 22.7206 0.158035 22.4393 0.43934C22.158 0.720644 22 1.10218 22 1.5V11H8C7.46957 11 6.96086 11.2107 6.58579 11.5858C6.21071 11.9609 6 12.4696 6 13C6 13.5304 6.21071 14.0391 6.58579 14.4142C6.96086 14.7893 7.46957 15 8 15V15Z" fill="#011E41"/>
</svg>
