<svg width="48" height="48" viewBox="0 0 48 48" fill="none" xmlns="http://www.w3.org/2000/svg">
<path d="M39 23H37C35.7385 23 34.4913 23.2665 33.34 23.782C35.0938 25.0801 36.5192 26.7709 37.5021 28.7189C38.4849 30.6669 38.9979 32.8181 39 35H48V32C48 29.6131 47.0518 27.3239 45.364 25.636C43.6761 23.9482 41.3869 23 39 23V23ZM14.66 23.782C13.5087 23.2665 12.2615 23 11 23H9C6.61305 23 4.32387 23.9482 2.63604 25.636C0.948212 27.3239 0 29.6131 0 32L0 35H9C9.00205 32.8181 9.51506 30.6669 10.4979 28.7189C11.4808 26.7709 12.9062 25.0801 14.66 23.782V23.782ZM25 24H23C20.0826 24 17.2847 25.1589 15.2218 27.2218C13.1589 29.2847 12 32.0826 12 35V40H36V35C36 32.0826 34.8411 29.2847 32.7782 27.2218C30.7153 25.1589 27.9174 24 25 24V24Z" fill="#011E41"/>
<path d="M24 22C27.866 22 31 18.866 31 15C31 11.134 27.866 8 24 8C20.134 8 17 11.134 17 15C17 18.866 20.134 22 24 22Z" fill="#011E41"/>
<path d="M10 21C12.7614 21 15 18.7614 15 16C15 13.2386 12.7614 11 10 11C7.23858 11 5 13.2386 5 16C5 18.7614 7.23858 21 10 21Z" fill="#011E41"/>
<path d="M38 21C40.7614 21 43 18.7614 43 16C43 13.2386 40.7614 11 38 11C35.2386 11 33 13.2386 33 16C33 18.7614 35.2386 21 38 21Z" fill="#011E41"/>
</svg>
