<?xml version="1.0" encoding="utf-8"?>
<!-- Generator: Adobe Illustrator 25.2.1, SVG Export Plug-In . SVG Version: 6.00 Build 0)  -->
<svg version="1.1" id="Layer_1" xmlns="http://www.w3.org/2000/svg" xmlns:xlink="http://www.w3.org/1999/xlink" x="0px" y="0px"
	 viewBox="0 0 288 560" style="enable-background:new 0 0 288 560;" xml:space="preserve">
<style type="text/css">
	.st0{fill:#FDFDFD;}
	.st1{fill:#0093AA;}
	.st2{fill:#FEFEFE;}
	.st3{fill:#33AFE0;}
	.st4{fill:#03508D;}
</style>
<g>
	<path class="st0" d="M229.7,294.42c0,26.61-0.03,53.22,0.06,79.83c0.01,2.23-0.45,2.68-2.67,2.67c-53.22-0.08-106.44-0.08-159.65,0
		c-2.22,0-2.68-0.45-2.67-2.67c0.08-53.22,0.08-106.44,0-159.65c0-2.23,0.45-2.68,2.67-2.67c53.22,0.08,106.44,0.08,159.65,0
		c2.23,0,2.68,0.45,2.67,2.67C229.67,241.2,229.7,267.81,229.7,294.42z"/>
	<path d="M75.12,294.51c0.12-39.76,32.25-71.65,72-71.49c39.97,0.16,71.61,32.21,71.47,72.37c-0.14,39.57-32.35,71.23-72.36,71.1
		C106.84,366.38,75,334.15,75.12,294.51z"/>
	<path class="st1" d="M80.34,294.58c0.06-36.89,29.72-66.39,66.71-66.34c36.87,0.05,66.43,29.77,66.35,66.71
		c-0.07,36.87-29.79,66.41-66.73,66.35C109.81,361.25,80.29,331.55,80.34,294.58z"/>
	<path class="st2" d="M86.28,294.61c0.05-33.6,27.14-60.51,60.84-60.43c33.56,0.08,60.49,27.27,60.34,60.93
		c-0.14,33.41-27.2,60.28-60.66,60.25C113.19,355.33,86.23,328.27,86.28,294.61z"/>
	<path class="st3" d="M155.12,271.76c4.62-2.15,9.22-4.38,14.56-3.53c16.44,2.6,23.43,20.4,12.18,33.02
		c-11.7,13.12-24.59,25.18-37.4,37.48c-0.49-7.77-2-15.13-2.58-22.58c-0.32-4.14,3.07-6.19,6.05-8.3c2.01-1.42,5.58-1.55,6.08-3.75
		c0.49-2.17-2.49-3.98-3.77-6.07c-3.22-5.25-3.67-10.7-1.65-16.42c0.66-1.86,1.47-3.67,2.21-5.5
		C151.77,274.19,153.56,273.09,155.12,271.76z"/>
	<path class="st4" d="M155.12,271.76c-0.65,2.24-2.4,3.37-4.33,4.34c-7.04-2.73-13.55-0.77-17.18,5.16
		c-4.28,6.99-2.75,12.02,6.52,20.7c-6.98,2.55-9.5,8.22-10.53,15.53c-6.5-6.84-13.8-12.11-18.75-19.67
		c-7.63-11.64-4.89-26.65,6.3-34.75c11.16-8.08,26.85-5.84,35.35,5.06C153.42,269.32,154.25,270.56,155.12,271.76z"/>
</g>
</svg>
