<svg width="48" height="48" viewBox="0 0 48 48" fill="none" xmlns="http://www.w3.org/2000/svg">
<path d="M18.0624 8.08298H0V0.0996094H18.0624C24.6487 0.0996094 29.9376 5.38859 29.9376 11.9749V14.0705H30.9356C31.5343 14.0705 31.9335 14.4697 31.9335 15.0684V18.0622C31.9335 18.6609 31.5343 19.0601 30.9356 19.0601H20.9563C20.3576 19.0601 19.9584 18.6609 19.9584 18.0622V15.0684C19.9584 14.4697 20.3576 14.0705 20.9563 14.0705H21.9543V11.9749C21.9543 9.77944 20.2578 8.08298 18.0624 8.08298ZM32.9314 29.5383C32.9314 30.9354 34.0291 32.0331 35.4262 32.0331C36.8233 32.0331 37.921 30.9354 37.921 29.5383C37.921 28.1412 36.8233 27.0435 35.4262 27.0435C34.0291 27.0435 32.9314 28.1412 32.9314 29.5383ZM30.9356 22.5528C30.9356 23.3512 31.6341 24.0497 32.4324 24.0497C33.2308 24.0497 33.9293 23.3512 33.9293 22.5528C33.9293 21.7545 33.2308 21.056 32.4324 21.056C31.6341 21.056 30.9356 21.7545 30.9356 22.5528ZM41.4137 35.0268H32.4324C31.0353 35.0268 29.9376 36.1246 29.9376 37.5216C29.9376 38.9187 31.0353 40.0165 32.4324 40.0165H36.4241C37.2225 40.0165 37.921 40.715 37.921 41.5133C37.921 42.3117 37.2225 43.0102 36.4241 43.0102H30.0374C29.6383 43.0102 29.2391 42.8106 28.9397 42.611L19.659 32.8314C18.5613 31.7337 16.7651 31.7337 15.7672 32.8314L15.5676 33.031C14.6694 34.2285 14.7692 35.8252 15.8669 36.8231L26.4449 47.1017C26.9439 47.6006 27.6424 47.9 28.4407 47.9H41.5135C45.106 47.9 48 45.0061 48 41.4135C48 37.821 45.0062 35.0268 41.4137 35.0268V35.0268ZM16.9647 30.0372C18.0624 30.0372 18.9605 29.1391 18.9605 28.0414C18.9605 26.9437 18.0624 26.0456 16.9647 26.0456C15.8669 26.0456 14.9688 26.9437 14.9688 28.0414C14.9688 29.1391 15.8669 30.0372 16.9647 30.0372ZM25.8462 22.0539C25.7464 22.1537 25.7464 22.1537 25.8462 22.0539C24.948 23.2514 22.1538 27.2431 22.1538 29.1391C22.1538 31.2347 23.8503 33.031 26.0457 33.031C28.1414 33.031 29.9376 31.3345 29.9376 29.1391C29.9376 27.2431 27.0437 23.2514 26.2453 22.1537C26.0457 22.0539 25.9459 22.0539 25.8462 22.0539Z" fill="#011E41"/>
</svg>
