<svg width="48" height="48" viewBox="0 0 48 48" fill="none" xmlns="http://www.w3.org/2000/svg">
<g clip-path="url(#clip0_74_1343)">
<path d="M41.8851 28.9873H40.9895C40.4593 28.9873 39.9509 29.1979 39.576 29.5728C39.2011 29.9477 38.9905 30.4562 38.9905 30.9863V40.7194L34.4878 35.654C34.2756 35.4153 34.0093 35.231 33.7113 35.1165C33.4132 35.0019 33.0921 34.9604 32.7747 34.9954C32.4573 35.0304 32.1529 35.141 31.887 35.3178C31.6211 35.4947 31.4015 35.7326 31.2464 36.0118L26.2489 45.0072C26.1173 45.2369 26.0327 45.4905 25.9998 45.7531C25.967 46.0158 25.9866 46.2824 26.0576 46.5374C26.1287 46.7924 26.2496 47.0307 26.4135 47.2386C26.5774 47.4465 26.7809 47.6198 27.0123 47.7484C27.2437 47.877 27.4983 47.9583 27.7613 47.9877C28.0244 48.0171 28.2907 47.994 28.5448 47.9196C28.7988 47.8453 29.0356 47.7212 29.2413 47.5547C29.447 47.3881 29.6176 47.1823 29.7432 46.9493L33.3714 40.4176L39.4953 47.3061C39.5093 47.3221 39.5252 47.3321 39.5392 47.3471C39.5868 47.3959 39.6369 47.4423 39.6892 47.486C39.7391 47.527 39.7851 47.571 39.8371 47.6059C39.8891 47.6439 39.945 47.6739 40 47.7059C40.057 47.7379 40.113 47.7719 40.1729 47.7988C40.2299 47.8248 40.2909 47.8428 40.3508 47.8628C40.4124 47.8857 40.4751 47.9054 40.5387 47.9218C40.5987 47.9358 40.6607 47.9418 40.7216 47.9498C40.7909 47.9603 40.8606 47.9673 40.9305 47.9708C40.9505 47.9718 40.9695 47.9768 40.9905 47.9768H45.988C46.5182 47.9768 47.0266 47.7661 47.4015 47.3913C47.7764 47.0164 47.987 46.5079 47.987 45.9778V35.0883C47.9871 34.2869 47.8294 33.4934 47.5228 32.753C47.2162 32.0126 46.7667 31.3399 46.2001 30.7732C45.6334 30.2066 44.9607 29.7571 44.2203 29.4505C43.4799 29.1439 42.6864 28.9862 41.8851 28.9863V28.9873Z" fill="#011E41"/>
<path d="M35.4943 28.9867C37.4264 28.9867 38.9926 27.4205 38.9926 25.4885C38.9926 23.5564 37.4264 21.9902 35.4943 21.9902C33.5623 21.9902 31.9961 23.5564 31.9961 25.4885C31.9961 27.4205 33.5623 28.9867 35.4943 28.9867Z" fill="#011E41"/>
<path d="M13.0052 9.99709C5.47696 9.99709 0.0117188 15.0396 0.0117188 21.991C0.0117188 22.5212 0.222326 23.0297 0.59721 23.4045C0.972094 23.7794 1.48055 23.99 2.01071 23.99C2.54088 23.99 3.04933 23.7794 3.42421 23.4045C3.7991 23.0297 4.0097 22.5212 4.0097 21.991C3.98221 20.599 4.34133 19.2265 5.04713 18.0263C5.75293 16.8261 6.77776 15.8451 8.00769 15.1925V29.0915C8.00769 29.1204 8.01468 29.1464 8.01668 29.1754C8.01468 29.2034 8.00769 29.2304 8.00769 29.2594V45.9779C8.00769 46.5081 8.21829 47.0166 8.59318 47.3914C8.96806 47.7663 9.47651 47.9769 10.0067 47.9769C10.5368 47.9769 11.0453 47.7663 11.4202 47.3914C11.7951 47.0166 12.0057 46.5081 12.0057 45.9779V30.9865H14.0047V45.9789C14.0047 46.5091 14.2153 47.0176 14.5902 47.3925C14.965 47.7673 15.4735 47.9779 16.0037 47.9779C16.5338 47.9779 17.0423 47.7673 17.4172 47.3925C17.792 47.0176 18.0026 46.5091 18.0026 45.9789V29.2594C18.0026 29.2304 17.9957 29.2034 17.9937 29.1754C17.9957 29.1464 18.0026 29.1204 18.0026 29.0915V15.1925C19.2324 15.845 20.2571 16.8259 20.9629 18.0259C21.6687 19.2259 22.0279 20.5981 22.0006 21.99C22.0006 22.5202 22.2112 23.0287 22.5861 23.4035C22.961 23.7784 23.4695 23.989 23.9996 23.989C24.5298 23.989 25.0382 23.7784 25.4131 23.4035C25.788 23.0287 25.9986 22.5202 25.9986 21.99C25.9986 15.0406 20.5334 9.99609 13.0052 9.99609V9.99709Z" fill="#011E41"/>
<path d="M19.0019 8.99597C21.2099 8.99597 22.9999 7.20601 22.9999 4.99798C22.9999 2.78996 21.2099 1 19.0019 1C16.7939 1 15.0039 2.78996 15.0039 4.99798C15.0039 7.20601 16.7939 8.99597 19.0019 8.99597Z" fill="#011E41"/>
<path d="M32.9966 8.49756C32.9966 8.89519 33.1545 9.27653 33.4357 9.55769C33.7169 9.83885 34.0982 9.99681 34.4958 9.99681H38.4938C38.8914 9.99681 39.2728 9.83885 39.5539 9.55769C39.8351 9.27653 39.993 8.89519 39.993 8.49756C39.993 8.09994 39.8351 7.7186 39.5539 7.43744C39.2728 7.15628 38.8914 6.99832 38.4938 6.99832H34.4958C34.0982 6.99832 33.7169 7.15628 33.4357 7.43744C33.1545 7.7186 32.9966 8.09994 32.9966 8.49756ZM29.8282 6.8394C30.1837 7.01714 30.5952 7.04644 30.9723 6.92086C31.3494 6.79529 31.6612 6.52512 31.8392 6.16974L33.8381 2.17175C33.9263 1.99561 33.979 1.80382 33.9931 1.60732C34.0072 1.41083 33.9824 1.21349 33.9202 1.02657C33.858 0.839647 33.7596 0.666803 33.6307 0.517905C33.5017 0.369007 33.3446 0.246973 33.1685 0.158769C32.9923 0.0705653 32.8005 0.0179195 32.6041 0.00383765C32.4076 -0.0102442 32.2102 0.0145136 32.0233 0.0766975C31.8364 0.138881 31.6635 0.237274 31.5146 0.366256C31.3657 0.495239 31.2437 0.652286 31.1555 0.828432L29.1565 4.82642C29.0684 5.00255 29.0158 5.19432 29.0018 5.39078C28.9878 5.58723 29.0127 5.78452 29.075 5.97136C29.1373 6.1582 29.2358 6.33095 29.3648 6.47972C29.4939 6.62849 29.651 6.75037 29.8272 6.8384L29.8282 6.8394ZM31.1555 16.1637C31.2436 16.3398 31.3655 16.4969 31.5143 16.626C31.663 16.755 31.8358 16.8534 32.0226 16.9157C32.2094 16.978 32.4067 17.0029 32.6031 16.9889C32.7996 16.9749 32.9913 16.9224 33.1675 16.8344C33.3436 16.7463 33.5007 16.6244 33.6297 16.4756C33.7588 16.3268 33.8572 16.1541 33.9195 15.9673C33.9818 15.7804 34.0067 15.5832 33.9927 15.3867C33.9787 15.1903 33.9262 14.9985 33.8381 14.8224L31.8392 10.8244C31.6613 10.4687 31.3494 10.1981 30.9721 10.0724C30.5947 9.94659 30.1829 9.97586 29.8272 10.1537C29.4714 10.3316 29.2009 10.6435 29.0751 11.0208C28.9494 11.3981 28.9786 11.81 29.1565 12.1657L31.1555 16.1637Z" fill="#011E41"/>
</g>
<defs>
<clipPath id="clip0_74_1343">
<rect width="48" height="48" fill="white"/>
</clipPath>
</defs>
</svg>
