<svg width="48" height="48" viewBox="0 0 48 48" fill="none" xmlns="http://www.w3.org/2000/svg">
<path d="M42.545 41.4545V48H5.4541V41.4545C5.4541 34.9091 9.27228 29.0182 15.2723 26.5091V33.8182H14.1814C11.7814 33.8182 9.81774 35.7818 9.81774 38.1818V44.7273C9.81774 45.3818 10.2541 45.8182 10.9086 45.8182H13.0905C13.745 45.8182 14.1814 45.3818 14.1814 44.7273C14.1814 44.0727 13.745 43.6364 13.0905 43.6364H11.9996V38.1818C11.9996 36.9818 12.9814 36 14.1814 36H18.545C19.745 36 20.7268 36.9818 20.7268 38.1818V43.6364H19.6359C18.9814 43.6364 18.545 44.0727 18.545 44.7273C18.545 45.3818 18.9814 45.8182 19.6359 45.8182H21.8177C22.4723 45.8182 22.9086 45.3818 22.9086 44.7273V38.1818C22.9086 35.7818 20.945 33.8182 18.545 33.8182H17.4541V25.7455C18.8723 25.3091 20.2905 25.0909 21.8177 25.0909H26.1814C27.7086 25.0909 29.1268 25.3091 30.545 25.7455V34.0364C29.5632 34.3636 28.9086 35.1273 28.5814 36C27.9268 37.7455 28.9086 39.6 30.545 40.1455C32.1814 40.6909 34.145 39.8182 34.6905 38.1818C35.2359 36.5455 34.3632 34.5818 32.7268 34.0364V26.5091C38.7268 29.0182 42.545 34.9091 42.545 41.4545ZM23.9996 21.8182C29.9996 21.8182 34.9086 16.9091 34.9086 10.9091C34.9086 4.90909 29.9996 0 23.9996 0C17.9996 0 13.0905 4.90909 13.0905 10.9091C13.0905 16.9091 17.9996 21.8182 23.9996 21.8182Z" fill="#011E41"/>
</svg>
