<svg width="48" height="48" viewBox="0 0 48 48" fill="none" xmlns="http://www.w3.org/2000/svg">
<path d="M28 3C28 2.20435 27.6839 1.44129 27.1213 0.87868C26.5587 0.31607 25.7956 0 25 0C24.2044 0 23.4413 0.31607 22.8787 0.87868C22.3161 1.44129 22 2.20435 22 3V6H28V3ZM22 26H28V24H33C35.1217 24 37.1566 23.1571 38.6569 21.6569C40.1571 20.1566 41 18.1217 41 16C41 13.8783 40.1571 11.8434 38.6569 10.3431C37.1566 8.84285 35.1217 8 33 8H18.64C17.9108 7.35689 16.9723 7.0014 16 7H11C9.93913 7 8.92172 7.42143 8.17157 8.17157C7.42143 8.92172 7 9.93913 7 11C7 12.0609 7.42143 13.0783 8.17157 13.8284C8.92172 14.5786 9.93913 15 11 15H16C16.9723 14.9986 17.9108 14.6431 18.64 14H33C33.5304 14 34.0391 14.2107 34.4142 14.5858C34.7893 14.9609 35 15.4696 35 16C35 16.5304 34.7893 17.0391 34.4142 17.4142C34.0391 17.7893 33.5304 18 33 18H28V16H22V18H19C16.8783 18 14.8434 18.8429 13.3431 20.3431C11.8429 21.8434 11 23.8783 11 26C11 28.1217 11.8429 30.1566 13.3431 31.6569C14.8434 33.1571 16.8783 34 19 34H29C29.5304 34 30.0391 34.2107 30.4142 34.5858C30.7893 34.9609 31 35.4696 31 36C31 36.5304 30.7893 37.0391 30.4142 37.4142C30.0391 37.7893 29.5304 38 29 38H28V36H22V38H20C19.2044 38 18.4413 38.3161 17.8787 38.8787C17.3161 39.4413 17 40.2044 17 41C17 41.7956 17.3161 42.5587 17.8787 43.1213C18.4413 43.6839 19.2044 44 20 44H22V45C21.9979 45.3416 22.0589 45.6806 22.18 46C22.2278 46.1449 22.288 46.2854 22.36 46.42C22.3902 46.4921 22.4307 46.5594 22.48 46.62C22.5098 46.6722 22.5432 46.7224 22.58 46.77C22.9198 47.2419 23.3936 47.6008 23.94 47.8C23.9925 47.8303 24.0501 47.8506 24.11 47.86C24.1771 47.8892 24.2477 47.9093 24.32 47.92C24.3755 47.9357 24.4325 47.9457 24.49 47.95C24.8267 48.0166 25.1733 48.0166 25.51 47.95C25.5675 47.9457 25.6245 47.9357 25.68 47.92C26.3806 47.7612 26.9993 47.3523 27.42 46.77C27.4568 46.7224 27.4902 46.6722 27.52 46.62C27.5693 46.5594 27.6098 46.4921 27.64 46.42C27.712 46.2854 27.7722 46.1449 27.82 46C27.9411 45.6806 28.0021 45.3416 28 45V44H29C31.1217 44 33.1566 43.1571 34.6569 41.6569C36.1571 40.1566 37 38.1217 37 36C37 33.8783 36.1571 31.8434 34.6569 30.3431C33.1566 28.8429 31.1217 28 29 28H19C18.4696 28 17.9609 27.7893 17.5858 27.4142C17.2107 27.0391 17 26.5304 17 26C17 25.4696 17.2107 24.9609 17.5858 24.5858C17.9609 24.2107 18.4696 24 19 24H22V26ZM11 11C10.8022 11 10.6089 10.9414 10.4444 10.8315C10.28 10.7216 10.1518 10.5654 10.0761 10.3827C10.0004 10.2 9.98063 9.99889 10.0192 9.80491C10.0578 9.61093 10.153 9.43275 10.2929 9.29289C10.4327 9.15304 10.6109 9.0578 10.8049 9.01921C10.9989 8.98063 11.2 9.00043 11.3827 9.07612C11.5654 9.15181 11.7216 9.27998 11.8315 9.44443C11.9414 9.60888 12 9.80222 12 10C11.9992 10.265 11.8936 10.5189 11.7062 10.7062C11.5189 10.8936 11.265 10.9992 11 11V11Z" fill="#011E41"/>
</svg>
