<svg width="48" height="48" viewBox="0 0 48 48" fill="none" xmlns="http://www.w3.org/2000/svg">
<path d="M24.7243 0.275205C24.5247 0.097917 24.267 0 24 0C23.733 0 23.4752 0.097917 23.2756 0.275205L4.72111 17.1289C4.60849 17.2311 4.51848 17.3557 4.45686 17.4948C4.39524 17.6338 4.36337 17.7842 4.36328 17.9362V48H43.6367V17.9373C43.6366 17.7852 43.6047 17.6349 43.5431 17.4959C43.4815 17.3568 43.3915 17.2322 43.2788 17.13L24.7243 0.275205ZM31.6365 31.6361H27.2728V35.9998C27.2728 36.8678 26.9279 37.7002 26.3142 38.314C25.7004 38.9278 24.868 39.2726 24 39.2726C23.132 39.2726 22.2995 38.9278 21.6858 38.314C21.072 37.7002 20.7272 36.8678 20.7272 35.9998V31.6361H16.3635C15.4955 31.6361 14.663 31.2913 14.0493 30.6775C13.4355 30.0638 13.0907 29.2313 13.0907 28.3633C13.0907 27.4953 13.4355 26.6629 14.0493 26.0491C14.663 25.4353 15.4955 25.0905 16.3635 25.0905H20.7272V20.7268C20.7272 19.8588 21.072 19.0264 21.6858 18.4126C22.2995 17.7988 23.132 17.454 24 17.454C24.868 17.454 25.7004 17.7988 26.3142 18.4126C26.9279 19.0264 27.2728 19.8588 27.2728 20.7268V25.0905H31.6365C32.5045 25.0905 33.3369 25.4353 33.9507 26.0491C34.5644 26.6629 34.9092 27.4953 34.9092 28.3633C34.9092 29.2313 34.5644 30.0638 33.9507 30.6775C33.3369 31.2913 32.5045 31.6361 31.6365 31.6361V31.6361Z" fill="#011E41"/>
</svg>
