<svg width="48" height="48" viewBox="0 0 48 48" fill="none" xmlns="http://www.w3.org/2000/svg">
<g clip-path="url(#clip0_74_587)">
<path d="M47.903 24.046C47.8392 23.9118 47.7463 23.7936 47.631 23.7L32 11L16.37 23.7C16.2546 23.7937 16.1615 23.912 16.0975 24.0463C16.0335 24.1805 16.0002 24.3273 16 24.476V48H48V24.476C48.0001 24.3272 47.967 24.1803 47.903 24.046V24.046ZM41 35C41 35.2652 40.8946 35.5196 40.7071 35.7071C40.5196 35.8946 40.2652 36 40 36H35V41C35 41.2652 34.8946 41.5196 34.7071 41.7071C34.5196 41.8946 34.2652 42 34 42H30C29.7348 42 29.4804 41.8946 29.2929 41.7071C29.1054 41.5196 29 41.2652 29 41V36H24C23.7348 36 23.4804 35.8946 23.2929 35.7071C23.1054 35.5196 23 35.2652 23 35V31C23 30.7348 23.1054 30.4804 23.2929 30.2929C23.4804 30.1054 23.7348 30 24 30H29V25C29 24.7348 29.1054 24.4804 29.2929 24.2929C29.4804 24.1054 29.7348 24 30 24H34C34.2652 24 34.5196 24.1054 34.7071 24.2929C34.8946 24.4804 35 24.7348 35 25V30H40C40.2652 30 40.5196 30.1054 40.7071 30.2929C40.8946 30.4804 41 30.7348 41 31V35ZM20 10C20 8.02219 19.4135 6.08879 18.3147 4.4443C17.2159 2.79981 15.6541 1.51809 13.8268 0.761209C11.9996 0.00433284 9.98891 -0.193701 8.0491 0.192152C6.10929 0.578004 4.32746 1.53041 2.92894 2.92894C1.53041 4.32746 0.578004 6.10929 0.192152 8.0491C-0.193701 9.98891 0.00433284 11.9996 0.761209 13.8268C1.51809 15.6541 2.79981 17.2159 4.4443 18.3147C6.08879 19.4135 8.02219 20 10 20C12.6522 20 15.1957 18.9464 17.0711 17.0711C18.9464 15.1957 20 12.6522 20 10ZM15.65 7.76L8.65 13.76C8.45867 13.9236 8.21267 14.009 7.96113 13.9992C7.70958 13.9894 7.471 13.885 7.293 13.707L4.293 10.707C4.11085 10.5184 4.01005 10.2658 4.01233 10.0036C4.01461 9.74141 4.11978 9.49059 4.30519 9.30519C4.49059 9.11978 4.74141 9.01461 5.0036 9.01233C5.2658 9.01005 5.5184 9.11085 5.707 9.293L8.05301 11.638L14.35 6.241C14.5527 6.08025 14.8098 6.00431 15.0673 6.02912C15.3248 6.05392 15.5627 6.17756 15.7309 6.37405C15.8992 6.57053 15.9848 6.82459 15.9697 7.08284C15.9546 7.34109 15.84 7.58345 15.65 7.759V7.76Z" fill="#011E41"/>
</g>
<defs>
<clipPath id="clip0_74_587">
<rect width="48" height="48" fill="white"/>
</clipPath>
</defs>
</svg>
