<svg width="48" height="48" viewBox="0 0 48 48" fill="none" xmlns="http://www.w3.org/2000/svg">
<path d="M16.63 8.22C16.4502 8.07905 16.2284 8.00246 16 8.00246C15.7716 8.00246 15.5498 8.07905 15.37 8.22L0.37 20.7C0.254358 20.7945 0.161166 20.9134 0.0971736 21.0483C0.033181 21.1832 -1.1403e-05 21.3307 2.93856e-09 21.48V48H32V21.48C32 21.3307 31.9668 21.1832 31.9028 21.0483C31.8388 20.9134 31.7456 20.7945 31.63 20.7L16.63 8.22ZM23 33H19V37C19 37.7956 18.6839 38.5587 18.1213 39.1213C17.5587 39.6839 16.7956 40 16 40C15.2044 40 14.4413 39.6839 13.8787 39.1213C13.3161 38.5587 13 37.7956 13 37V33H9C8.20435 33 7.44129 32.6839 6.87868 32.1213C6.31607 31.5587 6 30.7956 6 30C6 29.2044 6.31607 28.4413 6.87868 27.8787C7.44129 27.3161 8.20435 27 9 27H13V23C13 22.2044 13.3161 21.4413 13.8787 20.8787C14.4413 20.3161 15.2044 20 16 20C16.7956 20 17.5587 20.3161 18.1213 20.8787C18.6839 21.4413 19 22.2044 19 23V27H23C23.7956 27 24.5587 27.3161 25.1213 27.8787C25.6839 28.4413 26 29.2044 26 30C26 30.7956 25.6839 31.5587 25.1213 32.1213C24.5587 32.6839 23.7956 33 23 33ZM37 2V1.5C37 1.10218 36.842 0.720644 36.5607 0.43934C36.2794 0.158035 35.8978 0 35.5 0C35.1022 0 34.7206 0.158035 34.4393 0.43934C34.158 0.720644 34 1.10218 34 1.5V48H37V10H48V2H37Z" fill="#011E41"/>
</svg>
