<svg width="48" height="48" viewBox="0 0 48 48" fill="none" xmlns="http://www.w3.org/2000/svg">
<g clip-path="url(#clip0_114_3153)">
<path d="M25.4987 28.9989H38.9994C41.3865 28.9989 43.6758 29.9472 45.3637 31.6351C47.0517 33.323 47.9999 35.6123 47.9999 37.9994V38.9994C47.9999 41.3865 47.0517 43.6758 45.3637 45.3637C43.6758 47.0516 41.3865 47.9999 38.9994 47.9999H19.3184C18.2572 48.0003 17.2393 47.5795 16.4882 46.8298L1.25742 31.9591C0.526586 31.2532 0.0824763 30.3021 0.0104802 29.2886C-0.0615159 28.2752 0.243685 27.2708 0.867401 26.4688C1.22246 26.0355 1.66421 25.6813 2.16429 25.429C2.66436 25.1766 3.2117 25.0317 3.77113 25.0034C4.33056 24.9751 4.88971 25.0642 5.41267 25.2649C5.93563 25.4656 6.41082 25.7735 6.80772 26.1687L20.3985 39.3994C20.8444 39.7818 21.4111 39.9943 21.9985 39.9995H30.999C31.529 39.9979 32.0368 39.7867 32.4116 39.4119C32.7863 39.0372 32.9975 38.5293 32.9991 37.9994C32.9952 37.4701 32.7832 36.9637 32.409 36.5894C32.0347 36.2152 31.5283 36.0032 30.999 35.9993H25.4987C24.5707 35.9982 23.6811 35.6291 23.0249 34.9729C22.3687 34.3167 21.9996 33.4271 21.9985 32.4991C22.003 31.5722 22.3732 30.6845 23.0287 30.029C23.6841 29.3736 24.5718 29.0034 25.4987 28.9989Z" fill="#011E41"/>
<path fill-rule="evenodd" clip-rule="evenodd" d="M36.7493 2.44649L36.5084 2.20995C35.0672 0.794932 33.1125 0 31.0744 0C29.0362 0 27.0816 0.794932 25.6403 2.20995L23.5 4.43901L21.3597 2.20995C19.9184 0.794932 17.9638 0 15.9256 0C13.8875 0 11.9328 0.794932 10.4915 2.20995L10.2507 2.44649C8.80957 3.8617 8 5.78102 8 7.78229C8 9.78357 8.80957 11.7029 10.2507 13.1181L22.9284 25.7676C23.0801 25.9164 23.2856 26 23.5 26C23.7144 26 23.9199 25.9164 24.0716 25.7676L36.7493 13.1181C38.1904 11.7029 39 9.78357 39 7.78229C39 5.78102 38.1904 3.8617 36.7493 2.44649ZM21.3571 8.14286C21.3571 6.95939 22.3165 6 23.5 6C24.6835 6 25.6429 6.95939 25.6429 8.14286V11.7143H28.8571C30.0406 11.7143 31 12.6737 31 13.8571C31 15.0406 30.0406 16 28.8571 16H25.6429V18.8571C25.6429 20.0406 24.6835 21 23.5 21C22.3165 21 21.3571 20.0406 21.3571 18.8571V16H18.1429C16.9594 16 16 15.0406 16 13.8571C16 12.6737 16.9594 11.7143 18.1429 11.7143H21.3571V8.14286Z" fill="#011E41"/>
</g>
<defs>
<clipPath id="clip0_114_3153">
<rect width="48" height="48" fill="white"/>
</clipPath>
</defs>
</svg>
