<svg width="48" height="48" viewBox="0 0 48 48" fill="none" xmlns="http://www.w3.org/2000/svg">
<g clip-path="url(#clip0_74_584)">
<path d="M47.903 24.046C47.8392 23.9118 47.7463 23.7936 47.631 23.7L32 11L16.37 23.7C16.2546 23.7937 16.1615 23.912 16.0975 24.0463C16.0335 24.1805 16.0002 24.3273 16 24.476V48H48V24.476C48.0001 24.3272 47.967 24.1803 47.903 24.046V24.046ZM41 35C41 35.2652 40.8946 35.5196 40.7071 35.7071C40.5196 35.8946 40.2652 36 40 36H35V41C35 41.2652 34.8946 41.5196 34.7071 41.7071C34.5196 41.8946 34.2652 42 34 42H30C29.7348 42 29.4804 41.8946 29.2929 41.7071C29.1054 41.5196 29 41.2652 29 41V36H24C23.7348 36 23.4804 35.8946 23.2929 35.7071C23.1054 35.5196 23 35.2652 23 35V31C23 30.7348 23.1054 30.4804 23.2929 30.2929C23.4804 30.1054 23.7348 30 24 30H29V25C29 24.7348 29.1054 24.4804 29.2929 24.2929C29.4804 24.1054 29.7348 24 30 24H34C34.2652 24 34.5196 24.1054 34.7071 24.2929C34.8946 24.4804 35 24.7348 35 25V30H40C40.2652 30 40.5196 30.1054 40.7071 30.2929C40.8946 30.4804 41 30.7348 41 31V35ZM20 10C20 8.02219 19.4135 6.08879 18.3147 4.4443C17.2159 2.79981 15.6541 1.51809 13.8268 0.761209C11.9996 0.00433284 9.98891 -0.193701 8.0491 0.192152C6.10929 0.578004 4.32746 1.53041 2.92894 2.92894C1.53041 4.32746 0.578004 6.10929 0.192152 8.0491C-0.193701 9.98891 0.00433284 11.9996 0.761209 13.8268C1.51809 15.6541 2.79981 17.2159 4.4443 18.3147C6.08879 19.4135 8.02219 20 10 20C12.6522 20 15.1957 18.9464 17.0711 17.0711C18.9464 15.1957 20 12.6522 20 10ZM14.707 13.293C14.8025 13.3853 14.8787 13.4956 14.9311 13.6176C14.9835 13.7396 15.0111 13.8708 15.0123 14.0036C15.0134 14.1364 14.9881 14.2681 14.9378 14.391C14.8875 14.5139 14.8133 14.6255 14.7194 14.7194C14.6255 14.8133 14.5139 14.8875 14.391 14.9378C14.2681 14.9881 14.1364 15.0134 14.0036 15.0123C13.8708 15.0111 13.7396 14.9835 13.6176 14.9311C13.4956 14.8787 13.3853 14.8025 13.293 14.707L10 11.414L6.707 14.707C6.5184 14.8892 6.2658 14.99 6.0036 14.9877C5.74141 14.9854 5.49059 14.8802 5.30519 14.6948C5.11978 14.5094 5.01461 14.2586 5.01233 13.9964C5.01005 13.7342 5.11085 13.4816 5.293 13.293L8.58601 10L5.293 6.707C5.11085 6.5184 5.01005 6.2658 5.01233 6.0036C5.01461 5.74141 5.11978 5.49059 5.30519 5.30519C5.49059 5.11978 5.74141 5.01461 6.0036 5.01233C6.2658 5.01005 6.5184 5.11085 6.707 5.293L10 8.58601L13.293 5.293C13.4816 5.11085 13.7342 5.01005 13.9964 5.01233C14.2586 5.01461 14.5094 5.11978 14.6948 5.30519C14.8802 5.49059 14.9854 5.74141 14.9877 6.0036C14.99 6.2658 14.8892 6.5184 14.707 6.707L11.414 10L14.707 13.293Z" fill="#011E41"/>
</g>
<defs>
<clipPath id="clip0_74_584">
<rect width="48" height="48" fill="white"/>
</clipPath>
</defs>
</svg>
