<svg width="48" height="48" viewBox="0 0 48 48" fill="none" xmlns="http://www.w3.org/2000/svg">
<path d="M22.9984 6.50019C22.9984 4.77623 22.3136 3.12288 21.0946 1.90386C19.8755 0.68484 18.2222 0 16.4982 0C14.7743 0 13.1209 0.68484 11.9019 1.90386C10.6829 3.12288 9.99804 4.77623 9.99804 6.50019V31.5779C8.85021 32.6559 7.98837 34.0023 7.49008 35.496C6.99178 36.9897 6.87267 38.5839 7.14345 40.1351C7.41422 41.6862 8.0664 43.1458 9.0413 44.3823C10.0162 45.6189 11.2832 46.5937 12.7284 47.219C14.1735 47.8443 15.7515 48.1005 17.3203 47.9645C18.889 47.8286 20.3994 47.3048 21.7154 46.4402C23.0315 45.5756 24.1119 44.3974 24.8596 43.0116C25.6072 41.6257 25.9986 40.0758 25.9985 38.5011C26.0008 37.203 25.7356 35.9183 25.2194 34.7271C24.7032 33.536 23.9472 32.464 22.9984 31.5779V6.50019ZM16.4982 45.0013C15.1515 45.0023 13.8378 44.5848 12.7388 43.8064C11.6398 43.028 10.8098 41.9273 10.3638 40.6566C9.91781 39.3859 9.87775 38.0079 10.2492 36.7134C10.6206 35.4189 11.3852 34.2719 12.4371 33.431L12.9981 32.981V6.50019C12.9981 5.57191 13.3669 4.68164 14.0233 4.02524C14.6797 3.36885 15.5699 3.00009 16.4982 3.00009C17.4265 3.00009 18.3168 3.36885 18.9732 4.02524C19.6296 4.68164 19.9983 5.57191 19.9983 6.50019V32.981L20.5594 33.431C21.6113 34.2719 22.3759 35.4189 22.7473 36.7134C23.1187 38.0079 23.0787 39.3859 22.6326 40.6566C22.1866 41.9273 21.3567 43.028 20.2577 43.8064C19.1587 44.5848 17.845 45.0023 16.4982 45.0013V45.0013Z" fill="#011E41"/>
<path d="M17.9982 34.7979V8.50013C17.9982 8.1023 17.8402 7.72075 17.5589 7.43944C17.2776 7.15813 16.896 7.00009 16.4982 7.00009C16.1003 7.00009 15.7188 7.15813 15.4375 7.43944C15.1562 7.72075 14.9981 8.1023 14.9981 8.50013V34.7979C14.1376 35.146 13.4249 35.7826 12.9822 36.5985C12.5395 37.4145 12.3944 38.359 12.5717 39.2702C12.749 40.1814 13.2377 41.0026 13.9541 41.593C14.6705 42.1834 15.5699 42.5062 16.4982 42.5062C17.4265 42.5062 18.3259 42.1834 19.0422 41.593C19.7586 41.0026 20.2473 40.1814 20.4246 39.2702C20.602 38.359 20.4568 37.4145 20.0142 36.5985C19.5715 35.7826 18.8588 35.146 17.9982 34.7979V34.7979ZM39.4989 10.0002H34.9987V5.50004C34.9987 5.10221 34.8407 4.72067 34.5594 4.43935C34.2781 4.15804 33.8965 4 33.4987 4C33.1008 4 32.7193 4.15804 32.438 4.43935C32.1567 4.72067 31.9986 5.10221 31.9986 5.50004V10.0002H27.4985C27.1007 10.0002 26.7191 10.1582 26.4378 10.4395C26.1565 10.7208 25.9985 11.1024 25.9985 11.5002C25.9985 11.8981 26.1565 12.2796 26.4378 12.5609C26.7191 12.8422 27.1007 13.0003 27.4985 13.0003H31.9986V17.5004C31.9986 17.8982 32.1567 18.2798 32.438 18.5611C32.7193 18.8424 33.1008 19.0004 33.4987 19.0004C33.8965 19.0004 34.2781 18.8424 34.5594 18.5611C34.8407 18.2798 34.9987 17.8982 34.9987 17.5004V13.0003H39.4989C39.8967 13.0003 40.2782 12.8422 40.5595 12.5609C40.8409 12.2796 40.9989 11.8981 40.9989 11.5002C40.9989 11.1024 40.8409 10.7208 40.5595 10.4395C40.2782 10.1582 39.8967 10.0002 39.4989 10.0002Z" fill="#011E41"/>
</svg>
