<svg width="48" height="48" viewBox="0 0 48 48" fill="none" xmlns="http://www.w3.org/2000/svg">
<path d="M11.249 35.0135C11.0168 35.0135 10.7869 35.0592 10.5725 35.1481C10.358 35.237 10.1631 35.3673 9.999 35.5315L4.534 40.9955C4.21132 41.3288 4.03259 41.7756 4.03636 42.2395C4.04012 42.7035 4.22608 43.1473 4.55413 43.4754C4.88218 43.8034 5.32603 43.9894 5.78994 43.9931C6.25386 43.9969 6.70067 43.8182 7.034 43.4955L12.499 38.0315C12.7462 37.7842 12.9145 37.4692 12.9827 37.1263C13.0509 36.7834 13.0159 36.428 12.8821 36.1049C12.7483 35.7819 12.5218 35.5058 12.2311 35.3116C11.9404 35.1173 11.5986 35.0136 11.249 35.0135V35.0135ZM24.256 35.0135C24.0238 35.0135 23.7939 35.0592 23.5795 35.1481C23.365 35.237 23.1701 35.3673 23.006 35.5315L17.541 40.9955C17.2183 41.3288 17.0396 41.7756 17.0434 42.2395C17.0471 42.7035 17.2331 43.1473 17.5611 43.4754C17.8892 43.8034 18.333 43.9894 18.7969 43.9931C19.2609 43.9969 19.7077 43.8182 20.041 43.4955L25.506 38.0315C25.7532 37.7842 25.9215 37.4692 25.9897 37.1263C26.0579 36.7834 26.0229 36.428 25.8891 36.1049C25.7553 35.7819 25.5288 35.5058 25.2381 35.3116C24.9474 35.1173 24.6056 35.0136 24.256 35.0135V35.0135ZM37.256 35.0135C37.0238 35.0135 36.7939 35.0592 36.5795 35.1481C36.365 35.237 36.1701 35.3673 36.006 35.5315L30.541 40.9955C30.2183 41.3288 30.0396 41.7756 30.0434 42.2395C30.0471 42.7035 30.2331 43.1473 30.5611 43.4754C30.8892 43.8034 31.333 43.9894 31.7969 43.9931C32.2609 43.9969 32.7077 43.8182 33.041 43.4955L38.506 38.0315C38.7532 37.7842 38.9215 37.4692 38.9897 37.1263C39.0579 36.7834 39.0229 36.428 38.8891 36.1049C38.7553 35.7819 38.5288 35.5058 38.2381 35.3116C37.9474 35.1173 37.6056 35.0136 37.256 35.0135V35.0135ZM39 13.0235C37.9199 13.0198 36.8484 13.2164 35.84 13.6035L35.83 13.6085C35.358 10.7756 33.8422 8.22223 31.5813 6.45132C29.3204 4.68041 26.4783 3.8204 23.6148 4.04071C20.7514 4.26103 18.0742 5.54569 16.1108 7.64162C14.1474 9.73755 13.0401 12.4928 13.007 15.3645C12.019 15.0079 10.9544 14.9179 9.92056 15.1037C8.8867 15.2895 7.92007 15.7445 7.11805 16.4229C6.31602 17.1012 5.70692 17.9789 5.35211 18.9676C4.9973 19.9563 4.90931 21.021 5.097 22.0545L5.09 22.0535C4.89466 22.0249 4.69741 22.0115 4.5 22.0135C3.30653 22.0135 2.16193 22.4876 1.31802 23.3315C0.474106 24.1754 0 25.32 0 26.5135C0 27.707 0.474106 28.8516 1.31802 29.6955C2.16193 30.5394 3.30653 31.0135 4.5 31.0135H39C41.082 31.0138 43.0997 30.2925 44.7096 28.9725C46.3196 27.6524 47.4223 25.8151 47.83 23.7735C47.9425 23.1936 47.9994 22.6042 48 22.0135C47.9997 20.8321 47.7667 19.6624 47.3142 18.5712C46.8617 17.4799 46.1986 16.4885 45.3628 15.6536C44.527 14.8188 43.5348 14.1568 42.4431 13.7055C41.3513 13.2542 40.1814 13.0224 39 13.0235V13.0235Z" fill="#011E41"/>
</svg>
