<svg width="48" height="48" viewBox="0 0 48 48" fill="none" xmlns="http://www.w3.org/2000/svg">
<g clip-path="url(#clip0_74_1703)">
<path d="M24 0C19.2533 0 14.6131 1.40758 10.6663 4.04473C6.71954 6.68188 3.64341 10.4302 1.8269 14.8156C0.0103989 19.201 -0.464881 24.0266 0.461164 28.6822C1.38721 33.3377 3.67299 37.6141 7.02945 40.9706C10.3859 44.327 14.6623 46.6128 19.3178 47.5388C23.9734 48.4649 28.799 47.9896 33.1844 46.1731C37.5698 44.3566 41.3181 41.2805 43.9553 37.3337C46.5924 33.3869 48 28.7468 48 24C47.9984 17.6353 45.4693 11.5317 40.9688 7.03119C36.4683 2.53067 30.3647 0.00159058 24 0V0ZM24 43C20.2422 43 16.5687 41.8857 13.4442 39.7979C10.3196 37.7102 7.88437 34.7428 6.4463 31.271C5.00823 27.7992 4.63197 23.9789 5.36509 20.2933C6.09821 16.6076 7.90778 13.2222 10.565 10.565C13.2222 7.90777 16.6077 6.0982 20.2933 5.36508C23.9789 4.63196 27.7992 5.00822 31.271 6.44629C34.7428 7.88435 37.7102 10.3196 39.7979 13.4442C41.8857 16.5687 43 20.2422 43 24C42.999 29.0388 40.9968 33.8709 37.4339 37.4339C33.8709 40.9968 29.0388 42.9989 24 43V43Z" fill="#011E41"/>
<path d="M31.5 12C30.837 12.0003 30.2013 12.2638 29.7325 12.7325C29.2637 13.2013 29.0003 13.8371 29 14.5V21H19V14.5C19 13.837 18.7366 13.2011 18.2678 12.7322C17.7989 12.2634 17.163 12 16.5 12C15.837 12 15.2011 12.2634 14.7322 12.7322C14.2634 13.2011 14 13.837 14 14.5V33.5C14 34.1631 14.2634 34.7989 14.7322 35.2678C15.2011 35.7366 15.837 36 16.5 36C17.163 36 17.7989 35.7366 18.2678 35.2678C18.7366 34.7989 19 34.1631 19 33.5V26H29V33.5C29 34.1631 29.2634 34.7989 29.7322 35.2678C30.2011 35.7366 30.837 36 31.5 36C32.163 36 32.7989 35.7366 33.2678 35.2678C33.7366 34.7989 34 34.1631 34 33.5V14.5C34.0011 14.1714 33.9371 13.8458 33.8119 13.5421C33.6866 13.2383 33.5025 12.9622 33.2701 12.7299C33.0378 12.4975 32.7617 12.3134 32.458 12.1882C32.1542 12.0629 31.8286 11.999 31.5 12V12Z" fill="#011E41"/>
</g>
<defs>
<clipPath id="clip0_74_1703">
<rect width="48" height="48" fill="white"/>
</clipPath>
</defs>
</svg>
