<svg width="48" height="48" viewBox="0 0 48 48" fill="none" xmlns="http://www.w3.org/2000/svg">
<path d="M46.5003 9.50329C46.8981 9.50329 47.2795 9.34528 47.5608 9.06404C47.842 8.78279 48 8.40134 48 8.0036C48 7.60585 47.842 7.2244 47.5608 6.94316C47.2795 6.66191 46.8981 6.50391 46.5003 6.50391H8.50816C8.11042 6.50391 7.72897 6.66191 7.44772 6.94316C7.16648 7.2244 7.00847 7.60585 7.00847 8.0036C7.00847 8.40134 7.16648 8.78279 7.44772 9.06404C7.72897 9.34528 8.11042 9.50329 8.50816 9.50329H26.0045V16.5018H8.74811C8.40427 15.5263 7.73501 14.6989 6.85286 14.1588C5.97072 13.6187 4.92951 13.3989 3.90431 13.5362C2.87912 13.6736 1.93249 14.1597 1.2236 14.9129C0.514706 15.6662 0.0868026 16.6405 0.0118428 17.6722C-0.0631169 18.7038 0.219439 19.7298 0.811996 20.5776C1.40455 21.4254 2.27097 22.0433 3.26554 22.3274C4.26011 22.6114 5.32217 22.5444 6.27312 22.1375C7.22408 21.7306 8.00592 21.0087 8.48717 20.0931L17.0064 23.5004V25.5H17.0134C17.0134 25.544 17.0064 25.587 17.0064 25.632C17.0138 27.9131 17.8986 30.1039 19.4774 31.7504C21.0561 33.3969 23.2079 34.3729 25.4867 34.4761C25.5067 34.4791 25.5246 34.4861 25.5446 34.4881C25.6746 34.4981 25.7946 34.4981 25.9246 34.4981H27.0043V38.4973H18.4291C18.2423 38.4973 18.0573 38.5341 17.8847 38.6056C17.7121 38.6771 17.5552 38.7819 17.4231 38.914C17.291 39.0461 17.1862 39.2029 17.1147 39.3756C17.0432 39.5482 17.0064 39.7332 17.0064 39.92V40.074C17.0064 40.4513 17.1563 40.8132 17.4231 41.08C17.6899 41.3468 18.0518 41.4967 18.4291 41.4967H40.7715C40.9244 41.4969 41.0764 41.4723 41.2214 41.4237L46.0284 39.821C46.3864 39.7017 46.6823 39.4451 46.851 39.1076C47.0198 38.7701 47.0475 38.3794 46.9282 38.0214C46.8089 37.6634 46.5523 37.3675 46.2148 37.1988C45.8773 37.03 45.4866 37.0023 45.1286 37.1216L41.2214 38.4243C41.0764 38.4729 40.9244 38.4975 40.7715 38.4973H39.0019V34.4381C41.2856 34.1822 43.3847 33.062 44.8687 31.3074C46.3527 29.5528 47.1089 27.2968 46.9823 25.0023C46.8557 22.7078 45.8558 20.5487 44.1878 18.968C42.5197 17.3874 40.3101 16.505 38.0121 16.5018H29.0039V9.50329H46.5003ZM4.50899 19.5012C4.21238 19.5012 3.92243 19.4133 3.67581 19.2485C3.42919 19.0837 3.23697 18.8495 3.12346 18.5754C3.00995 18.3014 2.98025 17.9999 3.03812 17.709C3.09598 17.418 3.23881 17.1508 3.44855 16.9411C3.65829 16.7314 3.9255 16.5885 4.21642 16.5307C4.50733 16.4728 4.80887 16.5025 5.0829 16.616C5.35693 16.7295 5.59115 16.9217 5.75594 17.1683C5.92073 17.415 6.00868 17.7049 6.00868 18.0015C6.00894 18.1985 5.97033 18.3937 5.89506 18.5757C5.81979 18.7578 5.70933 18.9232 5.57002 19.0626C5.43071 19.2019 5.26528 19.3123 5.08321 19.3876C4.90114 19.4629 4.70601 19.5015 4.50899 19.5012ZM30.0037 38.4973V34.4981H36.0025V38.4973H30.0037ZM44.0008 25.5H37.0023V19.5012C37.3265 19.5009 37.6504 19.521 37.9721 19.5612C41.3814 19.9611 44.0008 22.4706 44.0008 25.5Z" fill="#011E41"/>
</svg>
