<?xml version="1.0" encoding="utf-8"?>
<!-- Generator: Adobe Illustrator 25.2.1, SVG Export Plug-In . SVG Version: 6.00 Build 0)  -->
<svg version="1.1" id="Layer_1" xmlns="http://www.w3.org/2000/svg" xmlns:xlink="http://www.w3.org/1999/xlink" x="0px" y="0px"
	 viewBox="0 0 48 48" style="enable-background:new 0 0 48 48;" xml:space="preserve">
<style type="text/css">
	.st0{fill:#FEFEFE;}
	.st1{fill:#E6323D;}
	.st2{fill:#E8434D;}
	.st3{fill:#F0858B;}
	.st4{fill:#1F201E;}
	.st5{fill:#20211F;}
	.st6{fill:#212220;}
	.st7{fill:#EC3C46;}
	.st8{fill:#F8F8F8;}
	.st9{fill:#FAFAFA;}
	.st10{fill:#ED3D48;}
	.st11{fill:#FAFAF9;}
	.st12{fill:#F14751;}
	.st13{fill:#F73844;}
	.st14{fill:#EB3C46;}
	.st15{fill:#F3535D;}
	.st16{fill:#FCFCFC;}
	.st17{fill:#EFEFEF;}
	.st18{fill:#F2F2F2;}
	.st19{fill:#F1F1F1;}
</style>
<g>
	<path class="st0" d="M5.66,23.05c0-2.03,0-4.06-0.01-6.09c0-0.22,0.04-0.26,0.26-0.26c12.05,0.01,24.1,0.01,36.16,0
		c0.22,0,0.26,0.04,0.26,0.26c-0.01,4.68-0.01,9.36,0,14.04c0,0.25-0.05,0.3-0.3,0.3c-9.37-0.01-18.74-0.01-28.11-0.01
		c0.07-0.25,0.3-0.2,0.47-0.24c1.4-0.31,2.63-0.93,3.63-1.98c0.27-0.29,0.27-0.28-0.06-0.49c-0.25-0.16-0.49-0.17-0.76-0.07
		c-0.44,0.17-0.85,0.38-1.2,0.68c-0.47,0.39-0.99,0.43-1.55,0.32c-0.19-0.04-0.38-0.11-0.57-0.09c-0.73,0.06-1.39-0.17-2.05-0.44
		c-0.35-0.14-0.7-0.29-1.06-0.39c-0.19-0.05-0.4-0.14-0.38-0.38c0.02-0.26,0.26-0.33,0.48-0.36c0.21-0.03,0.41,0.01,0.61,0.09
		c0.25,0.1,0.5,0.19,0.76,0.27c0.1,0.04,0.21,0.07,0.32,0.08c0.06,0.01,0.11,0.02,0.16,0.03c0.23,0.04,0.47,0.05,0.7,0.06
		c0.05,0,0.09,0.01,0.14,0c-0.32,0.03-0.62-0.08-0.93-0.12c-0.11-0.01-0.21-0.04-0.31-0.09c-0.11-0.07-0.23-0.1-0.34-0.17
		c-0.03-0.02-0.05-0.05-0.06-0.09c-0.01-0.09,0.04-0.14,0.12-0.17c0.49-0.1,0.97,0.07,1.46,0.05c1.05-0.06,1.94-0.48,2.66-1.2
		c0.61-0.61,1.25-0.74,2-0.31c0.35,0.2,0.66,0.46,0.99,0.68c0.28,0.19,0.31,0.19,0.44-0.14c0.99-2.6,0.71-5.04-1.01-7.26
		c-0.94-1.22-2.19-2.01-3.68-2.44c-0.29-0.08-0.41-0.01-0.51,0.27c-0.21,0.59-0.24,1.18-0.14,1.79c0.03,0.21,0.18,0.34,0.34,0.45
		c0.38,0.27,0.79,0.49,1.24,0.62c0.53,0.16,0.84,0.51,1.04,0.99c0.14,0.34,0.31,0.66,0.5,0.97c0.33,0.51,0.46,1.1,0.56,1.68
		c0.07,0.37,0.15,0.74,0.27,1.1c0.05,0.16,0.06,0.32-0.11,0.42c-0.17,0.09-0.33,0.06-0.47-0.06c-0.24-0.21-0.34-0.5-0.41-0.8
		c-0.07-0.68-0.43-1.25-0.73-1.83c-0.01-0.02-0.02-0.04-0.03-0.06c0.01,0.04,0.03,0.07,0.04,0.1c0.2,0.41,0.44,0.81,0.5,1.27
		c0.02,0.15,0.11,0.41-0.24,0.3c-0.24-0.19-0.32-0.48-0.45-0.74c-0.61-1.18-1.61-1.82-2.88-2.06c-0.77-0.14-1.24-0.67-1.26-1.51
		c-0.02-0.93,0.09-1.86,0.1-2.8c0-0.26-0.02-0.35-0.31-0.31c-1.38,0.19-2.59,0.74-3.65,1.63c-1.28,1.09-2.08,2.45-2.41,4.09
		C5.86,22.8,5.9,23.01,5.66,23.05z"/>
	<path class="st1" d="M17.29,24.51c0.07,0.28,0.16,0.57,0.38,0.77c0.11,0.1,0.25,0.18,0.4,0.09c0.15-0.09,0.1-0.24,0.05-0.36
		c-0.24-0.59-0.26-1.23-0.43-1.84c-0.12-0.44-0.29-0.85-0.58-1.21c-0.14-0.17-0.17-0.37-0.25-0.56c-0.22-0.51-0.49-0.94-1.09-1.08
		c-0.26-0.06-0.49-0.2-0.73-0.33c-0.93-0.49-1.15-0.99-0.88-2.01c0.07-0.27,0.16-0.54,0.21-0.81c0.04-0.25,0.15-0.28,0.38-0.22
		c2.7,0.76,4.49,2.47,5.27,5.16c0.48,1.66,0.31,3.29-0.37,4.88c-0.11,0.25-0.2,0.3-0.43,0.11c-0.32-0.26-0.66-0.5-1.01-0.73
		c-0.74-0.49-1.35-0.35-1.98,0.27c-0.95,0.93-2.1,1.38-3.46,1.18c-0.24-0.04-0.48-0.05-0.73-0.05c-0.15-0.01-0.12,0.06-0.07,0.15
		c0.02,0.01,0.05,0.01,0.07,0.02c0.07,0.11,0.19,0.1,0.3,0.13c0.08,0.08,0.2,0.05,0.29,0.08c0.09,0.05,0.28,0.07,0.07,0.22
		c-0.05-0.01-0.1-0.01-0.15-0.02c-0.1-0.01-0.18-0.11-0.29-0.07c-0.26-0.05-0.5-0.15-0.74-0.25c-0.29-0.11-0.58-0.18-0.88-0.03
		c-0.09,0.04-0.17,0.11-0.18,0.21c-0.01,0.11,0.08,0.19,0.17,0.21c1.11,0.26,2.09,1.03,3.32,0.87c0.04,0,0.08-0.01,0.11,0
		c0.9,0.35,1.66,0.1,2.35-0.51c0.03-0.02,0.06-0.04,0.09-0.06c0.93-0.54,1.02-0.54,1.99,0.02c-0.83,0.96-1.84,1.65-3.02,2.08
		c-0.38,0.14-0.76,0.24-1.16,0.32c-0.12,0.02-0.27-0.02-0.36,0.12c-0.1,0-0.2,0-0.29,0c-0.05-0.05-0.1-0.05-0.15,0
		c-0.1,0-0.2,0-0.29,0c-0.2-0.06-0.39-0.06-0.59,0c-0.2,0-0.39,0-0.59,0c-1.07-0.1-2.06-0.44-2.97-1.02c-0.51-0.33-1-0.69-1.42-1.14
		c-0.28-0.3-0.26-0.43,0.09-0.66c0.69-0.45,1.4-0.88,2.1-1.33c0.19-0.12,0.35-0.26,0.51-0.4c0.42-0.39,0.53-0.87,0.28-1.35
		c-0.45-0.88-0.43-1.8-0.37-2.73c0.02-0.32,0.19-0.6,0.33-0.88c0.13-0.27,0.31-0.52,0.37-0.82c0,0-0.02-0.02-0.03-0.02
		c-0.01,0-0.02,0-0.04,0.01c-0.12,0.06-0.22,0.16-0.37,0.1c-0.03-0.02-0.05-0.04-0.05-0.08c0.04-0.11,0.15-0.17,0.18-0.28
		c0.04-0.07,0.09-0.13,0.16-0.18c0.12-0.08,0.23-0.19,0.28-0.33c0.08-0.19,0.23-0.35,0.24-0.57c0.01-0.09,0-0.18-0.09-0.22
		c-0.08-0.03-0.14,0.03-0.19,0.08c-0.47,0.59-1.09,1.05-1.51,1.68c-0.38,0.58-0.62,1.23-0.97,1.83c-0.16,0.27-0.12,0.59-0.04,0.89
		c0.14,0.57,0.19,1.15,0.16,1.73c-0.01,0.21-0.12,0.35-0.26,0.49c-0.5,0.5-1.15,0.7-1.8,0.93c-0.26,0.09-0.4,0.03-0.51-0.23
		c-0.26-0.6-0.39-1.22-0.45-1.86c0-0.63,0-1.26,0-1.9c0.13-0.1,0.1-0.27,0.13-0.4c0.61-3.12,3.13-5.46,6.3-5.86
		c0.27-0.03,0.3,0.06,0.29,0.29c-0.05,0.91-0.09,1.82-0.12,2.73c-0.03,1.02,0.38,1.43,1.39,1.65c1.01,0.22,1.88,0.74,2.47,1.62
		c0.26,0.38,0.46,0.8,0.68,1.2c0.05,0.09,0.1,0.12,0.2,0.06C17.17,24.25,17.25,24.35,17.29,24.51z"/>
	<path class="st0" d="M5.66,24.95c0.13,0.47,0.26,0.95,0.39,1.42c0.02,0.06,0.04,0.11,0.06,0.17c0.19,0.51,0.18,0.48,0.69,0.33
		c0.62-0.18,1.15-0.5,1.64-0.9c0.12-0.1,0.15-0.21,0.16-0.34c0.06-0.57,0-1.15-0.17-1.69c-0.15-0.49-0.07-0.92,0.2-1.31
		c0.23-0.33,0.4-0.69,0.55-1.05c0.25-0.58,0.71-1.01,1.14-1.45c0.23-0.23,0.46-0.47,0.65-0.74c0.07-0.1,0.17-0.24,0.32-0.17
		c0.16,0.07,0.16,0.23,0.15,0.38c-0.02,0.25-0.19,0.44-0.31,0.65c-0.09,0.12-0.2,0.22-0.32,0.32c-0.04,0.05-0.08,0.09-0.12,0.14
		c-0.03,0.1-0.12,0.16-0.19,0.24c-0.01,0.02-0.02,0.05-0.04,0.07c-0.08,0.34-0.3,0.62-0.44,0.94c0,0.01-0.02,0.02-0.01,0.03
		c0.21-0.43,0.47-0.81,0.86-1.1c0.05-0.07,0.09-0.17,0.19-0.13c0.12,0.05,0.03,0.16,0,0.22c-0.15,0.32-0.32,0.63-0.46,0.95
		c-0.5,1.12-0.44,2.24,0.06,3.34c0.31,0.68,0.16,1.33-0.53,1.8c-0.4,0.28-0.82,0.52-1.23,0.78c-0.39,0.25-0.78,0.51-1.18,0.73
		c-0.25,0.14-0.3,0.24-0.07,0.47c1.1,1.1,2.39,1.83,3.92,2.12c0.15,0.03,0.32,0,0.44,0.13c-2.04,0-4.07,0-6.11,0.01
		c-0.22,0-0.26-0.04-0.26-0.26C5.67,29.01,5.66,26.98,5.66,24.95z"/>
	<path class="st2" d="M12.62,31.29c0.2-0.11,0.39-0.11,0.59,0C13.01,31.29,12.81,31.29,12.62,31.29z"/>
	<path class="st3" d="M13.5,31.29c0.05-0.08,0.1-0.09,0.15,0C13.59,31.29,13.55,31.29,13.5,31.29z"/>
	<path class="st4" d="M24.31,23.82c0,0.36-0.01,0.73,0,1.09c0.01,0.2-0.07,0.24-0.25,0.25c-0.2,0-0.28-0.04-0.28-0.26
		c0-0.29,0.13-0.67-0.05-0.84c-0.2-0.18-0.58-0.03-0.88-0.06c-0.22-0.02-0.31,0.05-0.29,0.28c0.02,0.19-0.01,0.39,0.01,0.58
		c0.02,0.21-0.03,0.3-0.27,0.3c-0.26,0-0.27-0.11-0.26-0.31c0.01-0.72,0.01-1.43,0-2.15c0-0.19,0.05-0.26,0.24-0.25
		c0.16,0.01,0.31-0.02,0.3,0.23c-0.01,0.27-0.13,0.64,0.05,0.8c0.19,0.17,0.56,0.03,0.85,0.06c0.27,0.03,0.35-0.08,0.32-0.33
		c-0.02-0.16,0.01-0.32-0.01-0.47c-0.02-0.2,0.02-0.3,0.27-0.3c0.26,0,0.27,0.12,0.26,0.31C24.31,23.11,24.31,23.46,24.31,23.82z"/>
	<path class="st4" d="M28.8,24.89c0,0.28-0.01,0.53,0,0.77c0.01,0.2-0.01,0.3-0.27,0.31c-0.27,0-0.26-0.13-0.25-0.32
		c0.01-0.73,0-1.46,0.01-2.19c0-0.11-0.09-0.28,0.15-0.3c0.18-0.01,0.34-0.01,0.3,0.26c0.55-0.39,1.01-0.38,1.35,0.02
		c0.34,0.39,0.34,1.09-0.02,1.48C29.75,25.27,29.32,25.27,28.8,24.89z"/>
	<path class="st4" d="M26.38,24.57c0.07,0.08,0.36,0.01,0.16,0.26c-0.26,0.34-0.87,0.46-1.3,0.25c-0.45-0.22-0.67-0.73-0.52-1.23
		c0.14-0.47,0.6-0.77,1.14-0.71c0.49,0.05,0.86,0.42,0.9,0.9c0.02,0.21-0.02,0.31-0.27,0.29c-0.35-0.02-0.71-0.01-1.06,0
		c-0.13,0-0.28-0.01-0.14,0.19c0.26,0.17,0.51,0.27,0.81,0.07C26.18,24.53,26.28,24.53,26.38,24.57z"/>
	<path class="st4" d="M40.62,24.68c-0.3,0.47-0.82,0.63-1.33,0.42c-0.47-0.2-0.71-0.69-0.59-1.2c0.12-0.5,0.58-0.82,1.13-0.77
		c0.51,0.04,0.88,0.42,0.93,0.91c0.02,0.2-0.03,0.29-0.25,0.28c-0.36-0.02-0.73,0-1.1-0.01c-0.21,0-0.19,0.1-0.13,0.23
		c0.13,0.26,0.51,0.37,0.76,0.17C40.25,24.53,40.42,24.57,40.62,24.68z"/>
	<path class="st4" d="M34,24.32c-0.17,0-0.34,0-0.51,0c-0.08,0-0.2-0.05-0.22,0.06c-0.01,0.07,0.04,0.17,0.09,0.23
		c0.21,0.24,0.45,0.25,0.72,0.1c0.05-0.03,0.08-0.09,0.14-0.12c0.15-0.07,0.32-0.02,0.4,0.08c0.08,0.09-0.07,0.18-0.15,0.25
		c-0.33,0.31-0.93,0.34-1.32,0.08c-0.39-0.25-0.55-0.76-0.39-1.22c0.15-0.42,0.57-0.69,1.06-0.66c0.48,0.03,0.85,0.35,0.95,0.81
		c0.05,0.25,0.04,0.44-0.3,0.38C34.32,24.3,34.16,24.32,34,24.32z"/>
	<path class="st5" d="M35.54,23.45c0.18-0.11,0.3-0.2,0.43-0.25c0.56-0.22,0.94,0.02,0.97,0.61c0.02,0.38,0,0.75,0.01,1.13
		c0.01,0.19-0.09,0.21-0.25,0.21c-0.16,0-0.29,0.01-0.28-0.22c0.02-0.29,0.01-0.58,0-0.87c0-0.22-0.01-0.48-0.32-0.47
		c-0.28,0.01-0.48,0.19-0.5,0.49c-0.02,0.27-0.01,0.53,0,0.8c0.01,0.19-0.02,0.28-0.25,0.28c-0.25,0-0.28-0.09-0.27-0.3
		c0.01-0.47,0-0.95,0-1.42c0-0.14-0.04-0.29,0.2-0.28C35.49,23.16,35.6,23.2,35.54,23.45z"/>
	<path class="st4" d="M32.51,24.69c-0.31,0.44-0.73,0.6-1.22,0.45c-0.43-0.13-0.72-0.53-0.73-0.98c0-0.45,0.26-0.83,0.68-0.97
		c0.49-0.17,0.93-0.02,1.25,0.42c-0.23,0.11-0.42,0.24-0.67,0.02c-0.19-0.16-0.42-0.07-0.58,0.11c-0.19,0.2-0.19,0.59-0.01,0.81
		c0.16,0.2,0.39,0.28,0.58,0.14C32.07,24.5,32.27,24.55,32.51,24.69z"/>
	<path class="st4" d="M38.31,24.7c0.16-0.08,0.19,0.01,0.22,0.14c0.03,0.12,0.06,0.21-0.11,0.28c-0.56,0.22-0.92,0-0.92-0.59
		c0-0.23,0-0.46,0-0.69c0-0.12,0.05-0.24-0.17-0.29c-0.18-0.04-0.11-0.33-0.05-0.34c0.29-0.05,0.22-0.24,0.21-0.41
		c-0.01-0.19,0.02-0.28,0.25-0.28c0.23,0,0.3,0.07,0.28,0.29C38,23,37.96,23.22,38.29,23.17c0.17-0.03,0.15,0.11,0.15,0.22
		c0.01,0.12-0.03,0.2-0.16,0.18c-0.29-0.05-0.28,0.13-0.27,0.32c0.01,0.18,0.01,0.36,0,0.55C38.01,24.65,38.09,24.75,38.31,24.7z"/>
	<path class="st5" d="M27.09,23.63c0-0.34,0.01-0.68,0-1.02c-0.01-0.22,0.09-0.23,0.26-0.23c0.17,0,0.27,0.02,0.26,0.23
		c-0.01,0.59,0,1.19,0,1.79c0,0.18,0.01,0.36,0.27,0.33c0.18-0.03,0.16,0.09,0.19,0.2c0.03,0.12-0.03,0.17-0.14,0.21
		c-0.49,0.18-0.82-0.04-0.83-0.56C27.09,24.26,27.09,23.94,27.09,23.63z"/>
	<path class="st6" d="M41.5,23.53c0.19-0.15,0.29-0.25,0.4-0.32c0.09-0.06,0.21-0.12,0.31-0.06c0.11,0.07,0.04,0.2,0.05,0.31
		c0.02,0.17-0.11,0.16-0.21,0.18c-0.32,0.06-0.5,0.23-0.46,0.58c0.02,0.2-0.01,0.41,0.01,0.62c0.01,0.21-0.01,0.33-0.28,0.33
		c-0.29,0-0.24-0.17-0.24-0.33c0-0.45,0-0.9,0-1.35c0-0.14-0.08-0.32,0.2-0.32C41.5,23.16,41.6,23.22,41.5,23.53z"/>
	<path class="st7" d="M17.29,24.51c-0.08-0.09-0.16-0.18-0.31-0.1c-0.11,0.06-0.19,0.01-0.2-0.12c0.2,0.12,0.15-0.03,0.14-0.13
		c-0.07-0.45-0.27-0.86-0.46-1.27c-0.02-0.05-0.04-0.11-0.06-0.17c-0.03-0.07,0-0.11,0.07-0.1C16.86,23.2,17.24,23.79,17.29,24.51z"
		/>
	<path class="st8" d="M26.38,24.57c-0.12-0.03-0.19,0.04-0.28,0.11c-0.31,0.23-0.57,0.17-0.81-0.17c0.36-0.15,0.72-0.05,1.09,0l0,0
		C26.38,24.53,26.38,24.55,26.38,24.57z"/>
	<ellipse class="st9" cx="21.88" cy="23.77" rx="0.02" ry="1.74"/>
	<path class="st9" d="M26.95,22.48c0,0.74,0,1.49,0,2.23c-0.02,0-0.04,0-0.06,0c0-0.74,0-1.48,0-2.22
		C26.91,22.49,26.93,22.48,26.95,22.48z"/>
	<path class="st10" d="M12.69,28.38c0.08-0.1-0.01-0.16-0.07-0.22c0.4,0.07,0.79,0.14,1.19,0.21c-0.09,0.09-0.22,0-0.31,0.08
		C13.23,28.46,12.95,28.48,12.69,28.38z"/>
	<path class="st11" d="M40.92,23.28c0,0.6,0,1.21,0,1.81C40.9,24.48,40.81,23.88,40.92,23.28z"/>
	<path class="st9" d="M23.62,22.52c0.03,0.04,0.04,0.05,0.04,0.06c0,0.97,0.18,0.85-0.85,0.82c0.01-0.02,0.01-0.04,0.02-0.04
		c0.24-0.06,0.57,0.11,0.72-0.09C23.67,23.1,23.6,22.8,23.62,22.52z"/>
	<path class="st9" d="M37.12,23.71c0,0.45,0,0.9,0,1.36c-0.01,0-0.02,0-0.03,0c0-0.45,0-0.9,0-1.36
		C37.1,23.71,37.11,23.71,37.12,23.71z"/>
	<path class="st9" d="M36.28,25.09c0-0.36,0-0.72,0-1.07c0.01,0,0.02,0,0.03,0c0,0.36,0,0.72,0,1.07
		C36.3,25.09,36.29,25.09,36.28,25.09z"/>
	<path class="st10" d="M12.33,28.08c-0.13,0.04-0.25,0.04-0.3-0.13C12.13,28,12.23,28.04,12.33,28.08z"/>
	<path class="st8" d="M26.38,24.51c0.08-0.09,0.18-0.09,0.3-0.04C26.58,24.55,26.47,24.49,26.38,24.51
		C26.38,24.51,26.38,24.51,26.38,24.51z"/>
	<path class="st8" d="M34.49,24.47c0.08-0.05,0.15-0.05,0.25,0C34.65,24.52,34.57,24.53,34.49,24.47z"/>
	<path class="st12" d="M16.48,22.62c-0.02,0.03-0.05,0.07-0.07,0.1c-0.05-0.07-0.16-0.17-0.07-0.23
		C16.43,22.42,16.47,22.53,16.48,22.62z"/>
	<path class="st10" d="M11.96,27.93c-0.14,0.03-0.07-0.08-0.07-0.11c0.02-0.09,0.07-0.1,0.14-0.03
		C11.97,27.82,11.95,27.87,11.96,27.93z"/>
	<path class="st10" d="M12.25,28.3c0.13-0.12,0.2,0,0.29,0.07C12.44,28.38,12.34,28.35,12.25,28.3z"/>
	<path class="st13" d="M13.5,28.45c0.08-0.11,0.21-0.06,0.31-0.08C13.75,28.56,13.6,28.43,13.5,28.45z"/>
	<path class="st14" d="M10.9,20.87c-0.32,0.38-0.59,0.8-0.85,1.22c-0.13-0.01-0.1-0.08-0.07-0.16c0.13-0.34,0.27-0.66,0.51-0.94
		C10.65,21.05,10.75,20.9,10.9,20.87z"/>
	<path class="st14" d="M10.83,20.56c0.08-0.13,0.18-0.24,0.32-0.32C11.1,20.41,10.99,20.52,10.83,20.56z"/>
	<path class="st14" d="M10.52,20.94c0.04-0.09,0.1-0.18,0.19-0.24C10.72,20.84,10.66,20.92,10.52,20.94z"/>
	<path class="st15" d="M9.98,21.94c0.02,0.05,0.05,0.1,0.07,0.16c-0.01,0.11-0.09,0.21-0.17,0.12C9.79,22.13,9.91,22.03,9.98,21.94z
		"/>
	<path class="st16" d="M29.28,23.56c0.29,0,0.53,0.25,0.54,0.57c0.01,0.33-0.21,0.6-0.49,0.61c-0.31,0.01-0.53-0.23-0.53-0.59
		C28.8,23.78,28.98,23.57,29.28,23.56z"/>
	<path class="st17" d="M25.71,23.99c-0.05,0-0.1,0.01-0.15,0c-0.11-0.02-0.29,0.07-0.32-0.06c-0.04-0.16,0.09-0.29,0.24-0.37
		c0.13-0.08,0.27-0.09,0.42-0.03c0.17,0.07,0.33,0.19,0.31,0.36c-0.02,0.21-0.23,0.06-0.35,0.1C25.81,24,25.76,23.99,25.71,23.99z"
		/>
	<path class="st18" d="M39.71,23.99c-0.06,0-0.12,0.01-0.18,0c-0.11-0.02-0.28,0.09-0.31-0.08c-0.02-0.13,0.08-0.25,0.2-0.32
		c0.16-0.11,0.34-0.13,0.51-0.04c0.15,0.08,0.29,0.2,0.26,0.36c-0.04,0.17-0.22,0.05-0.34,0.08C39.81,24,39.76,23.99,39.71,23.99z"
		/>
	<path class="st19" d="M33.75,23.99c-0.04,0-0.07,0.01-0.11,0c-0.12-0.04-0.34,0.1-0.37-0.09c-0.03-0.19,0.15-0.31,0.33-0.38
		c0.12-0.04,0.23-0.03,0.35,0.02c0.17,0.07,0.32,0.21,0.29,0.37c-0.03,0.16-0.23,0.05-0.34,0.07C33.84,24,33.79,23.99,33.75,23.99z"
		/>
</g>
</svg>
