<svg width="48" height="48" viewBox="0 0 48 48" fill="none" xmlns="http://www.w3.org/2000/svg">
<path d="M24 48C26.2091 48 28 46.2091 28 44C28 41.7909 26.2091 40 24 40C21.7909 40 20 41.7909 20 44C20 46.2091 21.7909 48 24 48Z" fill="#011E41"/>
<path d="M38 14C38 10.287 36.525 6.72601 33.8995 4.1005C31.274 1.475 27.713 0 24 0C20.287 0 16.726 1.475 14.1005 4.1005C11.475 6.72601 10 10.287 10 14C10 15.0609 10.4214 16.0783 11.1716 16.8284C11.9217 17.5786 12.9391 18 14 18C15.0609 18 16.0783 17.5786 16.8284 16.8284C17.5786 16.0783 18 15.0609 18 14C18 12.8133 18.3519 11.6533 19.0112 10.6666C19.6705 9.67988 20.6075 8.91085 21.7039 8.45672C22.8003 8.0026 24.0067 7.88378 25.1705 8.11529C26.3344 8.3468 27.4035 8.91824 28.2426 9.75736C29.0818 10.5965 29.6532 11.6656 29.8847 12.8295C30.1162 13.9933 29.9974 15.1997 29.5433 16.2961C29.0892 17.3925 28.3201 18.3295 27.3334 18.9888C26.3467 19.6481 25.1867 20 24 20C22.9391 20 21.9217 20.4214 21.1716 21.1716C20.4214 21.9217 20 22.9391 20 24V33C20 34.0609 20.4214 35.0783 21.1716 35.8284C21.9217 36.5786 22.9391 37 24 37C25.0609 37 26.0783 36.5786 26.8284 35.8284C27.5786 35.0783 28 34.0609 28 33V27.41C30.8865 26.5461 33.4179 24.7752 35.2191 22.3598C37.0203 19.9444 37.9954 17.013 38 14Z" fill="#011E41"/>
</svg>
