<?xml version="1.0" encoding="utf-8"?>
<!-- Generator: Adobe Illustrator 25.2.1, SVG Export Plug-In . SVG Version: 6.00 Build 0)  -->
<svg version="1.1" id="Layer_1" xmlns="http://www.w3.org/2000/svg" xmlns:xlink="http://www.w3.org/1999/xlink" x="0px" y="0px"
	 viewBox="0 0 288 560" style="enable-background:new 0 0 288 560;" xml:space="preserve">
<style type="text/css">
	.st0{fill:#FEFEFE;}
	.st1{fill:#003887;}
	.st2{fill:#97BE0D;}
	.st3{fill:#505A9D;}
	.st4{fill:#4C579C;}
	.st5{fill:#009DE0;}
	.st6{fill:#E10079;}
</style>
<g>
	<path class="st0" d="M80.24,281.09c0-10.79,0-21.58-0.01-32.37c0-0.37,0.08-0.46,0.46-0.46c23.51,0.01,47.02,0.01,70.53,0.01
		c0.1,0.23-0.03,0.42-0.11,0.61c-1.6,4.05-3.2,8.11-4.8,12.16c-1.95,4.93-3.9,9.86-5.85,14.8c-1.98,5.02-3.97,10.05-5.95,15.07
		c-2.35,5.95-4.7,11.9-7.05,17.85c-0.3,0.75-0.6,1.5-0.9,2.3c5.58-6.13,11.14-12.21,16.73-18.35c-0.31-0.1-0.57-0.06-0.82-0.06
		c-0.91-0.01-1.82,0-2.74,0c-0.66-0.01-0.73-0.13-0.49-0.75c1.26-3.17,2.51-6.35,3.77-9.52c2.94-7.44,5.87-14.89,8.82-22.33
		c1.41-3.56,2.79-7.13,4.23-10.68c0.15-0.38,0.19-0.82,0.53-1.11c16.9,0,33.81,0,50.71-0.01c0.36,0,0.47,0.05,0.47,0.45
		c-0.01,20.85-0.01,41.7,0,62.55c0,0.41-0.09,0.48-0.49,0.48c-42.18-0.01-84.37-0.01-126.55,0c-0.43,0-0.5-0.11-0.5-0.51
		c0.01-8.45,0.01-16.9,0.01-25.36c0.28,0.05,0.22,0.29,0.24,0.47c0.23,1.76,0.57,3.5,1.17,5.18c2.37,6.58,6.93,10.8,13.7,12.63
		c1.58,0.43,3.19,0.6,4.81,0.7c3.35,0.22,6.58-0.26,9.7-1.49c2.08-0.82,3.92-2.03,5.49-3.61c2.43-2.45,3.96-5.41,4.69-8.78
		c0.16-0.71,0.29-1.43,0.37-2.15c0.06-0.55,0.02-0.61-0.54-0.61c-1.86-0.02-3.72,0-5.57-0.01c-0.66,0-1.33,0-1.99,0
		c-0.77,0-0.82,0.03-0.94,0.77c-0.25,1.49-0.75,2.89-1.53,4.18c-1.57,2.59-3.86,4.02-6.88,4.32c-1.69,0.17-3.35,0.08-4.98-0.38
		c-2.92-0.82-5.04-2.65-6.46-5.3c-1.08-2.02-1.57-4.2-1.77-6.47c-0.26-2.97,0.05-5.86,1.06-8.66c1.14-3.17,3.15-5.61,6.4-6.71
		c4.16-1.41,8.1-0.96,11.48,2.08c1.16,1.05,1.97,2.38,2.32,3.93c0.1,0.43,0.3,0.56,0.72,0.55c2.6-0.01,5.21,0,7.81-0.01
		c0.56,0,0.59-0.03,0.51-0.56c-0.55-3.64-2.12-6.75-4.81-9.26c-2.23-2.08-4.89-3.39-7.83-4.16c-1.59-0.42-3.21-0.61-4.86-0.7
		c-3.45-0.17-6.78,0.34-9.96,1.67c-3.74,1.57-6.69,4.07-8.83,7.52c-1.73,2.79-2.74,5.84-3.17,9.08c-0.03,0.25-0.08,0.49-0.11,0.74
		C80.44,280.94,80.43,281.1,80.24,281.09z"/>
	<path class="st1" d="M80.24,281.09c0.25-0.53,0.19-1.12,0.29-1.67c1.12-6.57,4.2-11.83,10.15-15.16c2.9-1.62,6.04-2.39,9.35-2.57
		c3.66-0.2,7.22,0.27,10.57,1.81c5.25,2.4,8.49,6.4,9.53,12.12c0.18,0.99,0.18,0.99-0.83,0.99c-2.62,0-5.24,0-7.86,0
		c-0.23,0-0.42,0.02-0.49-0.31c-0.68-3.06-2.67-4.99-5.46-6.18c-3.59-1.53-9.48-1.09-12.74,3.19c-1.42,1.86-2.21,3.98-2.61,6.26
		c-0.63,3.57-0.51,7.1,0.75,10.53c1.09,2.95,2.97,5.25,5.94,6.45c2.75,1.11,5.6,1.22,8.42,0.26c3.06-1.04,4.68-3.43,5.63-6.37
		c0.2-0.63,0.35-1.28,0.42-1.94c0.03-0.31,0.16-0.4,0.48-0.4c2.82,0.01,5.64,0.01,8.46,0.01c0.23,0,0.4-0.02,0.36,0.33
		c-0.47,4.2-1.92,7.96-4.85,11.08c-2.39,2.53-5.33,4.13-8.71,4.88c-5.15,1.14-10.21,0.86-15.08-1.3c-5.16-2.3-8.55-6.23-10.43-11.51
		c-0.63-1.76-0.99-3.57-1.19-5.42c-0.01-0.1,0.05-0.24-0.11-0.29c0-0.2,0-0.4,0-0.6c0.08-0.2,0.08-0.4,0-0.6c0-0.76,0-1.52,0-2.29
		c0.08-0.23,0.08-0.46,0-0.7C80.24,281.49,80.24,281.29,80.24,281.09z"/>
	<path class="st2" d="M156.59,248.27c-0.88,2.25-1.75,4.5-2.64,6.74c-4.87,12.34-9.74,24.68-14.61,37.02
		c-0.05,0.13-0.09,0.27-0.15,0.45c1.47,0,2.89,0,4.48,0c-5.82,6.38-11.54,12.66-17.28,18.95c-0.12-0.22,0.02-0.35,0.07-0.49
		c4.11-10.42,8.22-20.84,12.34-31.25c4.1-10.39,8.21-20.77,12.31-31.15c0.04-0.09,0.07-0.18,0.11-0.28
		C153.01,248.27,154.8,248.27,156.59,248.27z"/>
	<path class="st3" d="M80.24,281.69c0.17,0.23,0.15,0.46,0,0.7C80.24,282.15,80.24,281.92,80.24,281.69z"/>
	<path class="st4" d="M80.24,284.67c0.15,0.2,0.16,0.4,0,0.6C80.24,285.07,80.24,284.87,80.24,284.67z"/>
	<path class="st1" d="M183.88,285.26c-0.02,0.2-0.03,0.25-0.03,0.31c0.02,5.5-0.09,11,0.23,16.49c0.04,0.71,0.12,1.42,0.2,2.13
		c0.03,0.26-0.04,0.31-0.29,0.29c-2.72-0.21-5.44-0.09-8.16-0.09c-0.45,0-0.89,0.05-1.34,0.09c-0.24,0.02-0.35,0.02-0.33-0.3
		c0.32-5.07,0.49-10.15,0.48-15.24c0-3.5,0.05-6.99,0.02-10.49c-0.03-4.07-0.09-8.15-0.29-12.22c-0.06-1.26-0.12-2.51-0.22-3.77
		c-0.03-0.36,0.08-0.37,0.38-0.33c3.12,0.39,6.25,0.39,9.37,0c0.23-0.03,0.4-0.09,0.36,0.28c-0.48,4.01-0.41,8.03-0.43,12.06
		c-0.01,2.37,0,4.74,0,7.24c0.39-0.45,0.7-0.81,1.01-1.18c4.68-5.59,9.29-11.24,13.7-17.05c0.17-0.22,0.37-0.44,0.49-0.68
		c0.29-0.57,0.68-0.74,1.34-0.61c2.01,0.39,4.03,0.24,6.04-0.06c0.08-0.01,0.16-0.01,0.31-0.02c-0.87,0.92-1.7,1.79-2.52,2.68
		c-4.43,4.79-8.78,9.66-13.02,14.63c-0.32,0.37-0.3,0.6-0.04,1c4.77,7.27,9.59,14.5,14.62,21.59c0.57,0.81,1.19,1.59,1.82,2.43
		c-0.41,0.09-0.79,0.02-1.15,0.01c-3.25-0.12-6.5-0.15-9.74,0.04c-0.33,0.02-0.5-0.09-0.67-0.35c-3.68-5.46-7.08-11.11-10.67-16.64
		C184.89,286.79,184.42,286.08,183.88,285.26z"/>
	<path class="st5" d="M172.46,304.5c-2.91-0.22-5.79-0.12-8.67-0.11c-0.51,0-1.03,0.02-1.53,0.1c-0.39,0.06-0.5-0.11-0.6-0.44
		c-0.68-2.1-1.36-4.2-2.08-6.29c-0.61-1.78-1.25-3.54-1.87-5.32c-0.1-0.28-0.22-0.39-0.55-0.42c-0.66-0.05-1.32-0.07-1.99-0.08
		c-2.54-0.03-5.07-0.08-7.61-0.05c-0.92,0.01-1.85-0.04-2.87,0.19c0.33-0.76,0.61-1.41,0.9-2.06c0.05-0.11,0.12-0.2,0.14-0.31
		c0.24-1.19,0.98-1.43,2.13-1.39c2.72,0.1,5.44,0.03,8.24,0.03c-0.33-0.91-0.64-1.78-0.96-2.65c-1.42-3.92-2.85-7.84-4.42-11.7
		c-0.07-0.18-0.09-0.33-0.02-0.52c1.51-3.8,3-7.6,4.5-11.4c0.02-0.06,0.07-0.11,0.14-0.23C160.81,276.18,166.02,290.55,172.46,304.5
		z"/>
	<path class="st6" d="M116.01,311.62c0.64-1.62,1.24-3.16,1.85-4.69c4.21-10.66,8.42-21.31,12.63-31.97
		c0.93-2.35,1.85-4.71,2.79-7.06c0.16-0.4,0.14-0.54-0.34-0.52c-1.28,0.03-2.55,0.01-3.97,0.01c5.81-6.37,11.54-12.66,17.27-18.94
		c0.03,0.02,0.06,0.04,0.09,0.06c-0.45,1.15-0.91,2.29-1.36,3.44c-6.08,15.41-12.17,30.81-18.25,46.22
		c-1.72,4.35-3.44,8.7-5.16,13.05c-0.07,0.19-0.08,0.41-0.4,0.41C119.48,311.62,117.79,311.62,116.01,311.62z"/>
</g>
</svg>
