<?xml version="1.0" encoding="utf-8"?><svg xmlns="http://www.w3.org/2000/svg" width="500" height="500" viewBox="0 0 500 500">
  <g fill="none" fill-rule="evenodd" transform="translate(44 52)">
    <path fill="#FFF" d="M31.4098647,155.101205 L121.837969,45.7776758 L337.110845,88.9672183 C337.110845,88.9672183 368.828165,192.217218 369.503002,194.241728 C370.177839,196.266238 364.104309,271.1758 364.104309,271.1758 L291.221956,313.687807 L79.9981,313.687807 L44.9065967,285.344669 L26.6860085,184.119179 L31.4098647,155.101205 Z"/>
    <path fill="#522583" d="M89.0554869,201.174729 C81.3839444,201.174729 74.468219,204.745965 74.468219,213.880553 C74.468219,221.157991 79.6239706,225.660501 88.4265392,225.660501 C99.3642908,225.660501 103.132578,219.298141 103.132578,213.216514 C103.132578,205.941775 96.9753693,201.174729 89.0554869,201.174729"/>
    <path fill="#522583" d="M355.88372,258.479154 L331.119916,258.479154 C331.119916,253.444873 331.616595,249.479533 332.626151,245.103893 L332.375112,245.103893 C328.350386,254.767553 321.056752,260.069069 309.994831,260.069069 C295.534432,260.069069 283.220014,249.08003 283.220014,228.432729 C283.220014,209.507612 291.887615,187.672599 319.925726,187.672599 C322.943595,187.672599 327.21936,188.20437 330.742007,189.262514 L330.742007,170.207827 L320.678844,170.207827 L320.678844,156.711095 L348.344445,156.711095 L348.344445,244.974324 L355.88372,244.974324 L355.88372,258.479154 Z M261.519968,155.266945 L261.519968,118.032161 L252.952242,118.032161 L252.952242,105.0672 L261.519968,105.0672 L261.519968,91.3464222 L278.420576,90.331468 L278.420576,105.0672 L289.973778,105.0672 L289.973778,118.032161 L278.420576,118.032161 L278.420576,147.643991 C278.420576,157.048514 280.712321,159.33486 287.714425,159.33486 C290.006171,159.33486 292.786497,158.565546 295.923138,157.299553 L295.315785,169.881207 C289.042504,172.167553 284.699256,173.055638 280.596249,173.055638 C268.16036,173.055638 261.519968,166.957814 261.519968,155.266945 L261.519968,155.266945 Z M249.634746,245.770631 C258.056707,245.770631 263.463497,244.310285 270.884001,241.011684 L270.006713,255.696128 C261.830393,258.875958 254.666327,260.06637 245.739589,260.06637 C220.341439,260.06637 209.657425,243.37901 209.657425,224.202854 C209.657425,202.629677 222.098713,187.677997 242.71902,187.677997 C265.350341,187.677997 274.530818,205.67454 274.530818,228.035925 L228.763399,228.035925 C229.268177,239.022265 237.312229,245.770631 249.634746,245.770631 L249.634746,245.770631 Z M164.818582,260.063671 C143.820367,260.063671 130.242654,248.154154 130.242654,224.602357 C130.242654,204.745965 143.315589,187.675298 164.818582,187.675298 C186.945125,187.675298 199.391811,200.51069 199.391811,224.602357 C199.391811,245.236161 185.814099,260.063671 164.818582,260.063671 L164.818582,260.063671 Z M125.265059,201.971037 L113.9467,201.971037 C115.960412,204.613697 118.225164,209.378043 118.225164,215.335501 C118.225164,231.60986 105.144131,239.154533 90.5622621,239.154533 L84.2781837,239.154533 C82.1403013,239.154533 80.002419,240.744448 80.002419,242.849939 C80.002419,245.236161 81.3844843,246.164736 84.6533928,246.564239 L106.402027,249.08003 C117.720386,250.40271 124.009863,255.431592 124.009863,267.346507 C124.009863,277.404272 116.338321,293.279128 89.3097654,293.279128 C62.6510203,293.279128 56.1159026,283.224063 56.1159026,274.756213 C56.1159026,268.801455 58.8800333,262.044991 70.5709026,259.137795 L70.5709026,258.873259 C64.9157719,257.54788 61.6495627,254.899821 61.6495627,248.548259 C61.6495627,241.673024 67.9336412,238.228658 74.3418895,237.032847 L74.3418895,236.77101 C61.900602,232.541135 57.8758765,223.938318 57.8758765,213.880553 C57.8758765,197.86803 69.4398765,187.675298 87.4148242,187.675298 C92.821615,187.675298 96.7221706,188.468906 101.251674,189.265213 L125.265059,189.265213 L125.265059,201.971037 Z M107.341399,73.811468 L133.530458,73.811468 L133.530458,105.0672 C133.530458,109.647991 133.530458,113.961546 132.566792,118.793376 L132.807033,118.793376 C135.949073,110.025899 143.677301,103.544769 154.660942,103.544769 C169.626118,103.544769 176.506752,113.583638 176.506752,129.466592 L176.506752,158.568246 L183.746399,158.568246 L183.746399,171.535906 L152.730909,171.535906 L152.730909,158.568246 L159.606144,158.568246 L159.606144,131.253559 C159.606144,122.100076 155.022654,118.793376 148.622504,118.793376 C138.362288,118.793376 133.900269,126.421729 133.900269,136.457899 L133.900269,158.568246 L141.137216,158.568246 L141.137216,171.535906 L110.116327,171.535906 L110.116327,158.568246 L116.996961,158.568246 L116.996961,86.7683307 L107.341399,86.7683307 L107.341399,73.811468 Z M219.312988,103.547468 C241.045425,103.547468 249.850693,120.831383 249.850693,142.304684 L205.916131,142.304684 C206.399314,152.85103 214.124844,159.33486 225.95338,159.33486 C234.040622,159.33486 239.236863,157.933899 246.352341,154.759468 L245.507445,168.863553 C237.668543,171.919213 230.779811,173.058337 222.212086,173.058337 C197.82619,173.058337 187.568674,157.045814 187.568674,138.620076 C187.568674,117.902592 199.52138,103.547468 219.312988,103.547468 L219.312988,103.547468 Z M193.458648,0.181396078 C81.8433732,3.37742222 1.15990915,41.4517033 0.0153862745,159.027135 C-1.31809085,295.198363 90.7863078,393.405984 215.053419,394.750259 C309.827471,395.781409 350.5957,358.579017 396.838203,223.401148 C461.32289,34.9030889 305.068524,-3.01732941 193.458648,0.181396078 L193.458648,0.181396078 Z"/>
    <path fill="#522583" d="M72.7093248 270.648618C72.7093248 277.135147 79.7492203 279.777807 90.438632 279.777807 98.2316451 279.777807 107.409423 276.608775 107.409423 270.249114 107.409423 266.019239 104.647992 265.357899 98.7337235 264.693859L80.0029588 262.577572C76.7340503 263.765284 72.7093248 266.683278 72.7093248 270.648618M242.093312 200.375993C234.049259 200.375993 229.392887 205.936646 228.642469 215.335771L255.419985 215.335771C255.419985 205.804378 250.264233 200.375993 242.093312 200.375993M164.817773 202.765454C154.004191 202.765454 149.353217 212.429114 149.353217 224.997271 149.353217 237.43316 154.004191 244.972435 164.817773 244.972435 175.631354 244.972435 180.282328 237.43316 180.282328 224.997271 180.282328 210.17516 175.631354 202.765454 164.817773 202.765454M301.57233 224.068966C301.57233 234.91494 306.474343 244.176397 315.023173 244.176397 324.33052 244.176397 330.23669 235.441312 330.23669 224.862574L330.23669 205.276116C327.845069 203.953437 322.943056 202.763025 319.0425 202.763025 306.344775 202.763025 301.57233 213.347162 301.57233 224.068966M218.715082 115.743115C210.984154 115.743115 206.519435 121.085122 205.79601 130.103638L231.507285 130.103638C231.507285 120.958252 226.556684 115.743115 218.715082 115.743115"/>
  </g>
</svg>
