<svg width="48" height="48" viewBox="0 0 48 48" fill="none" xmlns="http://www.w3.org/2000/svg">
<path d="M37.0003 44H26.0003V7H36.3003L31.5793 18.953C31.5071 19.1359 31.4716 19.3312 31.4748 19.5278C31.4781 19.7243 31.52 19.9184 31.5982 20.0987C31.6765 20.2791 31.7895 20.4423 31.9308 20.579C32.0721 20.7157 32.2389 20.8233 32.4218 20.8955C32.6047 20.9677 32.8 21.0032 32.9965 21C33.1931 20.9967 33.3872 20.9548 33.5675 20.8766C33.7479 20.7983 33.9111 20.6853 34.0478 20.544C34.1845 20.4027 34.2921 20.2359 34.3643 20.053L38.5003 9.58L42.6363 20.053C42.7085 20.2359 42.8161 20.4027 42.9528 20.544C43.0895 20.6853 43.2527 20.7983 43.4331 20.8766C43.6134 20.9548 43.8075 20.9967 44.004 21C44.2006 21.0032 44.3959 20.9677 44.5788 20.8955C44.7617 20.8233 44.9285 20.7157 45.0698 20.579C45.2111 20.4423 45.3241 20.2791 45.4023 20.0987C45.4806 19.9184 45.5225 19.7243 45.5258 19.5278C45.529 19.3312 45.4935 19.1359 45.4213 18.953L39.8903 4.95C39.7816 4.66981 39.5907 4.42908 39.3426 4.25951C39.0945 4.08993 38.8008 3.99946 38.5003 4H26.0003V2C26.0003 1.46957 25.7896 0.960859 25.4145 0.585786C25.0394 0.210714 24.5307 0 24.0003 0C23.4699 0 22.9612 0.210714 22.5861 0.585786C22.211 0.960859 22.0003 1.46957 22.0003 2V4H9.50029C9.19977 3.99946 8.90612 4.08993 8.65801 4.25951C8.4099 4.42908 8.21895 4.66981 8.11029 4.95L2.57929 18.953C2.50707 19.1359 2.47156 19.3312 2.47481 19.5278C2.47806 19.7243 2.52 19.9184 2.59824 20.0987C2.67647 20.2791 2.78947 20.4423 2.93077 20.579C3.07208 20.7157 3.23893 20.8233 3.42179 20.8955C3.60466 20.9677 3.79996 21.0032 3.99655 21C4.19313 20.9967 4.38715 20.9548 4.56753 20.8766C4.74791 20.7983 4.91111 20.6853 5.04782 20.544C5.18453 20.4027 5.29207 20.2359 5.36429 20.053L9.50029 9.58L13.6363 20.053C13.7085 20.2359 13.8161 20.4027 13.9528 20.544C14.0895 20.6853 14.2527 20.7983 14.4331 20.8766C14.6134 20.9548 14.8075 20.9967 15.004 21C15.2006 21.0032 15.3959 20.9677 15.5788 20.8955C15.7617 20.8233 15.9285 20.7157 16.0698 20.579C16.2111 20.4423 16.3241 20.2791 16.4023 20.0987C16.4806 19.9184 16.5225 19.7243 16.5258 19.5278C16.529 19.3312 16.4935 19.1359 16.4213 18.953L11.6993 7H21.9993V44H10.9993C10.4689 44 9.96015 44.2107 9.58508 44.5858C9.21001 44.9609 8.99929 45.4696 8.99929 46C8.99929 46.5304 9.21001 47.0391 9.58508 47.4142C9.96015 47.7893 10.4689 48 10.9993 48H36.9993C37.5297 48 38.0384 47.7893 38.4135 47.4142C38.7886 47.0391 38.9993 46.5304 38.9993 46C38.9993 45.4696 38.7886 44.9609 38.4135 44.5858C38.0384 44.2107 37.5297 44 36.9993 44H37.0003Z" fill="#00B4E4"/>
<path d="M18.9315 24.312C18.9397 24.2746 18.9394 24.2358 18.9306 24.1984C18.9219 24.1611 18.9049 24.1262 18.881 24.0963C18.857 24.0664 18.8266 24.0422 18.7921 24.0255C18.7576 24.0089 18.7198 24.0002 18.6815 24H0.318455C0.280123 24.0002 0.242312 24.0089 0.20779 24.0255C0.173269 24.0422 0.142911 24.0664 0.118942 24.0963C0.094973 24.1262 0.0779988 24.1611 0.069263 24.1984C0.0605272 24.2358 0.060251 24.2746 0.0684547 24.312C0.574265 26.4329 1.78019 28.3215 3.49148 29.6726C5.20278 31.0238 7.31954 31.7587 9.49995 31.7587C11.6804 31.7587 13.7971 31.0238 15.5084 29.6726C17.2197 28.3215 18.4256 26.4329 18.9315 24.312ZM47.6825 24H29.3175C29.2791 24.0002 29.2413 24.0089 29.2068 24.0255C29.1723 24.0422 29.1419 24.0664 29.1179 24.0963C29.094 24.1262 29.077 24.1611 29.0683 24.1984C29.0595 24.2358 29.0592 24.2746 29.0675 24.312C29.5733 26.4329 30.7792 28.3215 32.4905 29.6726C34.2018 31.0238 36.3185 31.7587 38.499 31.7587C40.6794 31.7587 42.7961 31.0238 44.5074 29.6726C46.2187 28.3215 47.4246 26.4329 47.9305 24.312C47.9387 24.2746 47.9384 24.2358 47.9296 24.1984C47.9209 24.1611 47.9039 24.1262 47.88 24.0963C47.856 24.0664 47.8256 24.0422 47.7911 24.0255C47.7566 24.0089 47.7188 24.0002 47.6805 24H47.6825Z" fill="#00B4E4"/>
</svg>
