<svg width="48" height="48" viewBox="0 0 48 48" fill="none" xmlns="http://www.w3.org/2000/svg">
<path d="M36.25 8.25H11.75C11.2863 8.25138 10.842 8.4362 10.5141 8.76409C10.1862 9.09198 10.0014 9.5363 10 10V29.25H38V10C37.9986 9.5363 37.8138 9.09198 37.4859 8.76409C37.158 8.4362 36.7137 8.25138 36.25 8.25ZM29.25 21.375H26.625V24C26.625 24.6962 26.3484 25.3639 25.8562 25.8562C25.3639 26.3484 24.6962 26.625 24 26.625C23.3038 26.625 22.6361 26.3484 22.1438 25.8562C21.6516 25.3639 21.375 24.6962 21.375 24V21.375H18.75C18.0538 21.375 17.3861 21.0984 16.8938 20.6062C16.4016 20.1139 16.125 19.4462 16.125 18.75C16.125 18.0538 16.4016 17.3861 16.8938 16.8938C17.3861 16.4016 18.0538 16.125 18.75 16.125H21.375V13.5C21.375 12.8038 21.6516 12.1361 22.1438 11.6438C22.6361 11.1516 23.3038 10.875 24 10.875C24.6962 10.875 25.3639 11.1516 25.8562 11.6438C26.3484 12.1361 26.625 12.8038 26.625 13.5V16.125H29.25C29.9462 16.125 30.6139 16.4016 31.1062 16.8938C31.5984 17.3861 31.875 18.0538 31.875 18.75C31.875 19.4462 31.5984 20.1139 31.1062 20.6062C30.6139 21.0984 29.9462 21.375 29.25 21.375ZM15.25 6.5H32.75C33.2141 6.5 33.6592 6.31563 33.9874 5.98744C34.3156 5.65925 34.5 5.21413 34.5 4.75C34.5 4.28587 34.3156 3.84075 33.9874 3.51256C33.6592 3.18437 33.2141 3 32.75 3H15.25C14.7859 3 14.3408 3.18437 14.0126 3.51256C13.6844 3.84075 13.5 4.28587 13.5 4.75C13.5 5.21413 13.6844 5.65925 14.0126 5.98744C14.3408 6.31563 14.7859 6.5 15.25 6.5ZM10 45H20.5V36.25C20.5014 35.7863 20.6862 35.342 21.0141 35.0141C21.342 34.6862 21.7863 34.5014 22.25 34.5H25.75C26.2137 34.5014 26.658 34.6862 26.9859 35.0141C27.3138 35.342 27.4986 35.7863 27.5 36.25V45H38V31H10V45Z" fill="#00B4E4"/>
</svg>
