<svg width="48" height="48" viewBox="0 0 48 48" fill="none" xmlns="http://www.w3.org/2000/svg">
<path d="M46.9091 7.63636H45.8182V3.38182C45.8136 2.48632 45.4558 1.6288 44.8226 0.995579C44.1894 0.362357 43.3319 0.00458652 42.4364 0L5.56364 0C4.66814 0.00458652 3.81062 0.362357 3.1774 0.995579C2.54418 1.6288 2.1864 2.48632 2.18182 3.38182V7.63636H1.09091C0.801848 7.63723 0.524872 7.75244 0.320474 7.95684C0.116075 8.16124 0.000863306 8.43821 0 8.72727L0 21.8182C0.000863306 22.1072 0.116075 22.3842 0.320474 22.5886C0.524872 22.793 0.801848 22.9082 1.09091 22.9091H2.18182V40.2545C2.18446 41.1309 2.52709 41.972 3.13755 42.6008C3.74801 43.2296 4.57865 43.5969 5.45455 43.6255V45.2727C5.45455 45.996 5.74188 46.6897 6.25335 47.2012C6.76481 47.7127 7.4585 48 8.18182 48C8.90514 48 9.59883 47.7127 10.1103 47.2012C10.6218 46.6897 10.9091 45.996 10.9091 45.2727V43.6364H38.1818V45.2727C38.1818 45.996 38.4692 46.6897 38.9806 47.2012C39.4921 47.7127 40.1858 48 40.9091 48C41.6324 48 42.3261 47.7127 42.8376 47.2012C43.349 46.6897 43.6364 45.996 43.6364 45.2727V43.4182C44.275 43.17 44.8245 42.7357 45.2135 42.1717C45.6025 41.6076 45.8131 40.9397 45.8182 40.2545V22.9091H46.9091C47.1982 22.9082 47.4751 22.793 47.6795 22.5886C47.8839 22.3842 47.9991 22.1072 48 21.8182V8.72727C47.9991 8.43821 47.8839 8.16124 47.6795 7.95684C47.4751 7.75244 47.1982 7.63723 46.9091 7.63636ZM5.45455 4.36364C5.45541 4.07457 5.57062 3.7976 5.77502 3.5932C5.97942 3.3888 6.25639 3.27359 6.54545 3.27273H41.4545C41.7436 3.27359 42.0206 3.3888 42.225 3.5932C42.4294 3.7976 42.5446 4.07457 42.5455 4.36364V5.45455C42.5446 5.74361 42.4294 6.02058 42.225 6.22498C42.0206 6.42938 41.7436 6.54459 41.4545 6.54545H6.54545C6.25639 6.54459 5.97942 6.42938 5.77502 6.22498C5.57062 6.02058 5.45541 5.74361 5.45455 5.45455V4.36364ZM9.81818 38.7273C9.34599 39.0811 8.77188 39.2725 8.18182 39.2727C7.59429 39.2776 7.02205 39.0855 6.55636 38.7273C6.09882 38.3848 5.76068 37.9071 5.58987 37.3617C5.41906 36.8163 5.42425 36.231 5.6047 35.6888C5.78515 35.1465 6.13171 34.6748 6.59524 34.3405C7.05878 34.0063 7.61578 33.8264 8.18727 33.8264C8.75877 33.8264 9.31576 34.0063 9.7793 34.3405C10.2428 34.6748 10.5894 35.1465 10.7698 35.6888C10.9503 36.231 10.9555 36.8163 10.7847 37.3617C10.6139 37.9071 10.2757 38.3848 9.81818 38.7273ZM21.8182 25.0909C21.8173 25.38 21.7021 25.6569 21.4977 25.8613C21.2933 26.0657 21.0163 26.181 20.7273 26.1818H6.54545C6.25639 26.181 5.97942 26.0657 5.77502 25.8613C5.57062 25.6569 5.45541 25.38 5.45455 25.0909V12C5.45541 11.7109 5.57062 11.434 5.77502 11.2296C5.97942 11.0252 6.25639 10.91 6.54545 10.9091H20.7273C21.0163 10.91 21.2933 11.0252 21.4977 11.2296C21.7021 11.434 21.8173 11.7109 21.8182 12V25.0909ZM26.1818 25.0909V12C26.1827 11.7109 26.2979 11.434 26.5023 11.2296C26.7067 11.0252 26.9837 10.91 27.2727 10.9091H41.4545C41.7436 10.91 42.0206 11.0252 42.225 11.2296C42.4294 11.434 42.5446 11.7109 42.5455 12V25.0909C42.5446 25.38 42.4294 25.6569 42.225 25.8613C42.0206 26.0657 41.7436 26.181 41.4545 26.1818H27.2727C26.9837 26.181 26.7067 26.0657 26.5023 25.8613C26.2979 25.6569 26.1827 25.38 26.1818 25.0909ZM42.5455 38.7273C42.0733 39.0811 41.4992 39.2725 40.9091 39.2727C40.3216 39.2776 39.7493 39.0855 39.2836 38.7273C38.8261 38.3848 38.488 37.9071 38.3171 37.3617C38.1463 36.8163 38.1515 36.231 38.332 35.6888C38.5124 35.1465 38.859 34.6748 39.3225 34.3405C39.7861 34.0063 40.3431 33.8264 40.9145 33.8264C41.486 33.8264 42.043 34.0063 42.5066 34.3405C42.9701 34.6748 43.3167 35.1465 43.4971 35.6888C43.6776 36.231 43.6828 36.8163 43.5119 37.3617C43.3411 37.9071 43.003 38.3848 42.5455 38.7273Z" fill="#00B4E4"/>
</svg>
