<svg width="48" height="48" viewBox="0 0 48 48" fill="none" xmlns="http://www.w3.org/2000/svg">
<path d="M24 17.9936C18.014 17.9936 13.5 22.0776 13.5 27.4936C13.5 27.8914 13.658 28.2729 13.9393 28.5542C14.2206 28.8355 14.6022 28.9936 15 28.9936C15.3978 28.9936 15.7794 28.8355 16.0607 28.5542C16.342 28.2729 16.5 27.8914 16.5 27.4936C16.5093 26.3345 16.8418 25.2009 17.4601 24.2205C18.0785 23.24 18.958 22.4515 20 21.9436V46.4996C20 46.8974 20.158 47.2789 20.4393 47.5602C20.7206 47.8415 21.1022 47.9996 21.5 47.9996C21.8978 47.9996 22.2794 47.8415 22.5607 47.5602C22.842 47.2789 23 46.8974 23 46.4996V33.9996H25V46.4996C25 46.8974 25.158 47.2789 25.4393 47.5602C25.7206 47.8415 26.1022 47.9996 26.5 47.9996C26.8978 47.9996 27.2794 47.8415 27.5607 47.5602C27.842 47.2789 28 46.8974 28 46.4996V21.9436C29.042 22.4515 29.9215 23.24 30.5399 24.2205C31.1582 25.2009 31.4907 26.3345 31.5 27.4936C31.5 27.8914 31.658 28.2729 31.9393 28.5542C32.2206 28.8355 32.6022 28.9936 33 28.9936C33.3978 28.9936 33.7794 28.8355 34.0607 28.5542C34.342 28.2729 34.5 27.8914 34.5 27.4936C34.5 22.0776 29.986 17.9936 24 17.9936Z" fill="#00B4E4"/>
<path d="M24.0527 15.9996C25.7096 15.9996 27.0527 14.6564 27.0527 12.9996C27.0527 11.3427 25.7096 9.99958 24.0527 9.99958C22.3959 9.99958 21.0527 11.3427 21.0527 12.9996C21.0527 14.6564 22.3959 15.9996 24.0527 15.9996Z" fill="#00B4E4"/>
<path d="M46.757 12.8396L25.257 0.339577C24.8753 0.117449 24.4416 0.000427246 24 0.000427246C23.5584 0.000427246 23.1247 0.117449 22.743 0.339577L1.243 12.8396C0.864997 13.0595 0.551281 13.3746 0.333168 13.7537C0.115055 14.1327 0.000176154 14.5623 0 14.9996L0 45.4996C0 46.1626 0.263392 46.7985 0.732233 47.2673C1.20107 47.7362 1.83696 47.9996 2.5 47.9996C3.16304 47.9996 3.79893 47.7362 4.26777 47.2673C4.73661 46.7985 5 46.1626 5 45.4996V16.4396L24 5.39158L43 16.4386V45.4996C43 46.1626 43.2634 46.7985 43.7322 47.2673C44.2011 47.7362 44.837 47.9996 45.5 47.9996C46.163 47.9996 46.7989 47.7362 47.2678 47.2673C47.7366 46.7985 48 46.1626 48 45.4996V14.9996C47.9998 14.5623 47.8849 14.1327 47.6668 13.7537C47.4487 13.3746 47.135 13.0595 46.757 12.8396Z" fill="#00B4E4"/>
</svg>
