<svg width="48" height="48" viewBox="0 0 48 48" fill="none" xmlns="http://www.w3.org/2000/svg">
<g clip-path="url(#clip0_1361_5620)">
<path d="M45 5C44.2058 5.00472 43.4455 5.32231 42.8839 5.8839C42.3223 6.44549 42.0047 7.20581 42 8V24L37.194 28.844C37.1196 28.9848 37.0118 29.1053 36.8799 29.1947C36.7481 29.2841 36.5964 29.3398 36.438 29.3569C36.2796 29.374 36.1195 29.3519 35.9716 29.2927C35.8238 29.2334 35.6927 29.1387 35.59 29.017C35.3619 28.7835 35.2341 28.47 35.2341 28.1435C35.2341 27.817 35.3619 27.5035 35.59 27.27L39.646 23.143C40.0374 22.7418 40.2565 22.2035 40.2565 21.643C40.2565 21.0825 40.0374 20.5442 39.646 20.143C39.4541 19.9465 39.2249 19.7903 38.9717 19.6836C38.7186 19.577 38.4467 19.5221 38.172 19.5221C37.8973 19.5221 37.6254 19.577 37.3723 19.6836C37.1191 19.7903 36.8899 19.9465 36.698 20.143L28.83 28.15C28.2064 28.7874 27.723 29.5481 27.4108 30.3833C27.0986 31.2186 26.9644 32.1099 27.017 33H27V48H36V38.345C36.6181 38.0377 37.1807 37.6298 37.665 37.138L47.135 27.522C47.6903 26.9554 48.0009 26.1934 48 25.4V8C47.9953 7.20581 47.6777 6.44549 47.1161 5.8839C46.5545 5.32231 45.7942 5.00472 45 5ZM19.17 28.149L11.302 20.143C11.1101 19.9465 10.8809 19.7903 10.6277 19.6836C10.3746 19.577 10.1027 19.5221 9.828 19.5221C9.55332 19.5221 9.28141 19.577 9.02828 19.6836C8.77514 19.7903 8.54589 19.9465 8.354 20.143C7.96259 20.5442 7.7435 21.0825 7.7435 21.643C7.7435 22.2035 7.96259 22.7418 8.354 23.143L12.41 27.27C12.6381 27.5035 12.7659 27.817 12.7659 28.1435C12.7659 28.47 12.6381 28.7835 12.41 29.017C12.2982 29.1314 12.1647 29.2224 12.0173 29.2845C11.8698 29.3466 11.7115 29.3786 11.5515 29.3786C11.3915 29.3786 11.2332 29.3466 11.0857 29.2845C10.9383 29.2224 10.8048 29.1314 10.693 29.017L6 24V8C5.99528 7.20581 5.67769 6.44549 5.1161 5.8839C4.55451 5.32231 3.79419 5.00472 3 5C2.20581 5.00472 1.44549 5.32231 0.883899 5.8839C0.322311 6.44549 0.00472371 7.20581 9.32654e-07 8V25.4C-0.000621535 26.1935 0.310361 26.9555 0.866001 27.522L10.336 37.138C10.82 37.6297 11.3823 38.0376 12 38.345V48H21V33H20.983C21.0357 32.1097 20.9017 31.2182 20.5894 30.3828C20.2772 29.5474 19.7937 28.7865 19.17 28.149Z" fill="#00B4E4"/>
<path d="M24 18C28.9706 18 33 13.9706 33 9C33 4.02944 28.9706 0 24 0C19.0294 0 15 4.02944 15 9C15 13.9706 19.0294 18 24 18Z" fill="#00B4E4"/>
</g>
<defs>
<clipPath id="clip0_1361_5620">
<rect width="48" height="48" fill="white"/>
</clipPath>
</defs>
</svg>
