<svg width="48" height="48" viewBox="0 0 48 48" fill="none" xmlns="http://www.w3.org/2000/svg">
<path d="M35.6042 19.8C35.2042 19.3 34.6042 19 34.0042 19H16.2042C15.5042 19 14.8042 19.4 14.4042 20.1L6.2042 36.6C5.8042 37.4 6.0042 38.4 6.6042 39C6.6042 39 18.8042 48 24.0042 48C24.9042 48 25.7042 47.6 26.2042 46.9C26.6042 46.4 26.9042 45.7 27.0042 45C27.0042 44 27.0042 42 24.0042 41C19.8042 39.4 16.9042 38.6 15.8042 38C15.2042 37.7 14.8042 37.2 15.1042 36.6C16.3042 34.2 16.9042 31.7 17.0042 29C17.0042 27 18.0042 26 19.0042 26C20.0042 26 21.0042 27 21.0042 29C21.0042 32.4 26.0042 36.4 27.6042 37.6C27.9042 37.8 28.0042 38.2 28.0042 38.5C28.0042 40 27.8042 43 30.5042 43C34.0042 43 42.0042 38 42.0042 33C42.0042 28.9 37.3042 22.1 35.6042 19.8ZM30.0042 34C27.8042 34 26.0042 32.2 26.0042 30C26.0042 27.8 27.8042 26 30.0042 26C32.2042 26 34.0042 27.8 34.0042 30C34.0042 32.2 32.2042 34 30.0042 34ZM18.0042 7C18.0042 3.1 21.1042 0 25.0042 0C28.9042 0 32.0042 3.1 32.0042 7C32.0042 10.9 28.9042 14 25.0042 14C21.1042 14 18.0042 10.9 18.0042 7Z" fill="#00B4E4"/>
</svg>
