<svg width="56" height="56" viewBox="0 0 56 56" fill="none" xmlns="http://www.w3.org/2000/svg">
<g filter="url(#filter0_d_1365_8468)">
<path d="M28 17.9936C22.014 17.9936 17.5 22.0776 17.5 27.4936C17.5 27.8914 17.658 28.2729 17.9393 28.5543C18.2206 28.8356 18.6022 28.9936 19 28.9936C19.3978 28.9936 19.7794 28.8356 20.0607 28.5543C20.342 28.2729 20.5 27.8914 20.5 27.4936C20.5093 26.3345 20.8418 25.201 21.4601 24.2205C22.0785 23.24 22.958 22.4515 24 21.9436V46.4996C24 46.8974 24.158 47.2789 24.4393 47.5603C24.7206 47.8416 25.1022 47.9996 25.5 47.9996C25.8978 47.9996 26.2794 47.8416 26.5607 47.5603C26.842 47.2789 27 46.8974 27 46.4996V33.9996H29V46.4996C29 46.8974 29.158 47.2789 29.4393 47.5603C29.7206 47.8416 30.1022 47.9996 30.5 47.9996C30.8978 47.9996 31.2794 47.8416 31.5607 47.5603C31.842 47.2789 32 46.8974 32 46.4996V21.9436C33.042 22.4515 33.9215 23.24 34.5399 24.2205C35.1582 25.201 35.4907 26.3345 35.5 27.4936C35.5 27.8914 35.658 28.2729 35.9393 28.5543C36.2206 28.8356 36.6022 28.9936 37 28.9936C37.3978 28.9936 37.7794 28.8356 38.0607 28.5543C38.342 28.2729 38.5 27.8914 38.5 27.4936C38.5 22.0776 33.986 17.9936 28 17.9936Z" fill="#00B4E4"/>
<path d="M28.0527 15.9996C29.7096 15.9996 31.0527 14.6564 31.0527 12.9996C31.0527 11.3427 29.7096 9.99957 28.0527 9.99957C26.3959 9.99957 25.0527 11.3427 25.0527 12.9996C25.0527 14.6564 26.3959 15.9996 28.0527 15.9996Z" fill="#00B4E4"/>
<path d="M50.757 12.8396L29.257 0.339577C28.8753 0.117449 28.4416 0.000427246 28 0.000427246C27.5584 0.000427246 27.1247 0.117449 26.743 0.339577L5.243 12.8396C4.865 13.0595 4.55128 13.3746 4.33317 13.7537C4.11505 14.1327 4.00018 14.5623 4 14.9996L4 45.4996C4 46.1626 4.26339 46.7985 4.73223 47.2673C5.20107 47.7362 5.83696 47.9996 6.5 47.9996C7.16304 47.9996 7.79893 47.7362 8.26777 47.2673C8.73661 46.7985 9 46.1626 9 45.4996V16.4396L28 5.39158L47 16.4386V45.4996C47 46.1626 47.2634 46.7985 47.7322 47.2673C48.2011 47.7362 48.837 47.9996 49.5 47.9996C50.163 47.9996 50.7989 47.7362 51.2678 47.2673C51.7366 46.7985 52 46.1626 52 45.4996V14.9996C51.9998 14.5623 51.8849 14.1327 51.6668 13.7537C51.4487 13.3746 51.135 13.0595 50.757 12.8396Z" fill="#00B4E4"/>
</g>
<defs>
<filter id="filter0_d_1365_8468" x="0" y="0.000427246" width="56" height="55.9991" filterUnits="userSpaceOnUse" color-interpolation-filters="sRGB">
<feFlood flood-opacity="0" result="BackgroundImageFix"/>
<feColorMatrix in="SourceAlpha" type="matrix" values="0 0 0 0 0 0 0 0 0 0 0 0 0 0 0 0 0 0 127 0" result="hardAlpha"/>
<feOffset dy="4"/>
<feGaussianBlur stdDeviation="2"/>
<feComposite in2="hardAlpha" operator="out"/>
<feColorMatrix type="matrix" values="0 0 0 0 0 0 0 0 0 0 0 0 0 0 0 0 0 0 0.25 0"/>
<feBlend mode="normal" in2="BackgroundImageFix" result="effect1_dropShadow_1365_8468"/>
<feBlend mode="normal" in="SourceGraphic" in2="effect1_dropShadow_1365_8468" result="shape"/>
</filter>
</defs>
</svg>
