<svg width="48" height="48" viewBox="0 0 48 48" fill="none" xmlns="http://www.w3.org/2000/svg">
<path d="M31.2491 15.0422C31.9687 14.3392 32.5416 13.5004 32.9347 12.5744C33.3277 11.6485 33.5331 10.6537 33.539 9.64775C33.5449 8.64181 33.351 7.64471 32.9688 6.71422C32.5865 5.78372 32.0234 4.93832 31.3121 4.22701C30.6008 3.51569 29.7554 2.95259 28.8249 2.57034C27.8944 2.18808 26.8973 1.99427 25.8914 2.00013C24.8854 2.00599 23.8907 2.2114 22.9647 2.60446C22.0387 2.99753 21.1999 3.57043 20.4969 4.28999L12.8935 11.8935L5.28999 19.4969C4.57043 20.1999 3.99753 21.0387 3.60446 21.9647C3.2114 22.8907 3.00599 23.8854 3.00013 24.8914C2.99427 25.8973 3.18808 26.8944 3.57034 27.8249C3.95259 28.7554 4.51569 29.6008 5.22701 30.3121C5.93832 31.0234 6.78372 31.5865 7.71422 31.9688C8.64471 32.351 9.64181 32.5449 10.6477 32.539C11.6537 32.5331 12.6485 32.3277 13.5744 31.9347C14.5004 31.5416 15.3392 30.9687 16.0422 30.2491L23.6457 22.6457L31.2491 15.0422ZM14.7899 13.7899L22.3933 6.18638C23.3165 5.2641 24.5681 4.74604 25.873 4.74604C27.178 4.74604 28.4296 5.2641 29.3527 6.18638C30.2722 7.11107 30.7883 8.36208 30.7883 9.66609C30.7883 10.9701 30.2722 12.2211 29.3527 13.1458L21.7493 20.7493L14.7899 13.7899ZM34.371 21.7422C32.2238 21.7399 30.1179 22.3327 28.2873 23.455C26.4567 24.5772 24.9729 26.1849 24.0008 28.0995C23.0287 30.014 22.6063 32.1606 22.7804 34.3007C22.9546 36.4409 23.7186 38.4909 24.9875 40.2231L41.2231 23.9875C39.2378 22.5259 36.8363 21.739 34.371 21.7422V21.7422ZM43.7546 26.519L27.519 42.7546C29.7565 44.3938 32.5068 45.1781 35.2724 44.9659C38.0379 44.7537 40.6363 43.559 42.5976 41.5976C44.559 39.6363 45.7537 37.0379 45.9659 34.2724C46.1781 31.5068 45.3938 28.7565 43.7546 26.519V26.519Z" fill="#00B4E4"/>
</svg>
