<svg width="48" height="48" viewBox="0 0 48 48" fill="none" xmlns="http://www.w3.org/2000/svg">
<g clip-path="url(#clip0_1365_8433)">
<path d="M46.6303 33.919L36.1303 29.419C35.6818 29.2278 35.1832 29.1876 34.7098 29.3042C34.2364 29.4209 33.8137 29.6882 33.5053 30.0659L28.8553 35.7471C21.5576 32.3063 15.6846 26.4333 12.2437 19.1356L17.925 14.4856C18.3034 14.1778 18.5713 13.755 18.688 13.2814C18.8047 12.8077 18.764 12.309 18.5719 11.8606L14.0719 1.36056C13.861 0.877194 13.4882 0.482541 13.0175 0.244654C12.5469 0.00676596 12.008 -0.0594456 11.4937 0.0574361L1.74375 2.30744C1.24797 2.42192 0.805636 2.70107 0.488939 3.09933C0.172242 3.49758 -0.000114207 3.99142 5.67769e-08 4.50025C5.67769e-08 28.5471 19.4906 48.0002 43.5 48.0002C44.009 48.0006 44.503 47.8283 44.9015 47.5116C45.2999 47.1949 45.5792 46.7524 45.6937 46.2565L47.9437 36.5065C48.0599 35.9898 47.9923 35.4487 47.7525 34.9764C47.5128 34.5042 47.116 34.1302 46.6303 33.919V33.919Z" fill="#00B4E4"/>
</g>
<defs>
<clipPath id="clip0_1365_8433">
<rect width="48" height="48" fill="white"/>
</clipPath>
</defs>
</svg>
