<svg width="56" height="54" viewBox="0 0 56 54" fill="none" xmlns="http://www.w3.org/2000/svg">
<path d="M26.7329 49.3702H12.7729L8.45922 53.8105C8.37134 53.901 8.25936 53.9626 8.13745 53.9876C8.01554 54.0125 7.88918 53.9997 7.77435 53.9508C7.65952 53.9018 7.56137 53.8189 7.49232 53.7125C7.42327 53.6061 7.38642 53.481 7.38643 53.3531V49.3702C5.95786 49.3702 4.5878 48.786 3.57765 47.7462C2.5675 46.7064 2 45.2961 2 43.8256L2 36.5046C2 35.0341 2.5675 33.6238 3.57765 32.584C4.5878 31.5442 5.95786 30.96 7.38643 30.96H26.7329C28.1615 30.96 29.5315 31.5442 30.5417 32.584C31.5518 33.6238 32.1193 35.0341 32.1193 36.5046V43.8256C32.1193 45.2961 31.5518 46.7064 30.5417 47.7462C29.5315 48.786 28.1615 49.3702 26.7329 49.3702Z" fill="#00B4E4"/>
<path d="M46.695 41.9874C48.0372 41.5269 49.2688 40.7596 50.2864 39.7312L50.2866 39.731C52.0282 37.9708 53.0009 35.59 53.0009 33.1144V17.7495C53.0009 15.2739 52.0282 12.8931 50.2866 11.1328L50.2864 11.1327C48.5438 9.37166 46.1737 8.37602 43.695 8.37602H36.4551H31.0832C28.6045 8.37602 26.2344 9.37166 24.4918 11.1327L24.4916 11.1328C22.75 12.8931 21.7773 15.2739 21.7773 17.7495V33.1144C21.7773 35.59 22.75 37.9708 24.4916 39.731L24.4918 39.7312C26.2344 41.4922 28.6045 42.4879 31.0832 42.4879H37.0711L40.4826 45.9359C40.4831 45.9364 40.4835 45.9369 40.484 45.9373C40.6818 46.1377 40.8995 46.3115 41.1314 46.4577L41.1344 46.4596C41.5052 46.6926 41.9164 46.8575 42.3488 46.9447L42.3519 46.9453C43.0601 47.0872 43.7959 47.0147 44.4647 46.7346C45.13 46.4559 45.696 45.9858 46.0922 45.3858C46.4857 44.7899 46.695 44.0917 46.695 43.3786V41.9874Z" fill="#00B4E4" stroke="white" stroke-width="6"/>
<mask id="path-3-outside-1_1365_8489" maskUnits="userSpaceOnUse" x="0.707031" y="0" width="37" height="40" fill="black">
<rect fill="white" x="0.707031" width="37" height="40"/>
<path fill-rule="evenodd" clip-rule="evenodd" d="M18.9275 30.9297C25.6766 30.9297 31.1479 25.349 31.1479 18.4648C31.1479 11.5807 25.6766 6 18.9275 6C12.1783 6 6.70703 11.5807 6.70703 18.4648C6.70703 22.905 8.98313 26.803 12.4102 29.011V32.8398C12.4102 32.9781 12.4501 33.1135 12.5247 33.2287C12.5695 33.2975 12.6254 33.3571 12.6896 33.4054C12.733 33.4379 12.7799 33.465 12.8298 33.4864C12.9541 33.5395 13.091 33.5533 13.2229 33.5263C13.3547 33.4993 13.4759 33.4326 13.5709 33.3346L16.2081 30.6199C17.0826 30.8226 17.9928 30.9297 18.9275 30.9297Z"/>
</mask>
<path fill-rule="evenodd" clip-rule="evenodd" d="M18.9275 30.9297C25.6766 30.9297 31.1479 25.349 31.1479 18.4648C31.1479 11.5807 25.6766 6 18.9275 6C12.1783 6 6.70703 11.5807 6.70703 18.4648C6.70703 22.905 8.98313 26.803 12.4102 29.011V32.8398C12.4102 32.9781 12.4501 33.1135 12.5247 33.2287C12.5695 33.2975 12.6254 33.3571 12.6896 33.4054C12.733 33.4379 12.7799 33.465 12.8298 33.4864C12.9541 33.5395 13.091 33.5533 13.2229 33.5263C13.3547 33.4993 13.4759 33.4326 13.5709 33.3346L16.2081 30.6199C17.0826 30.8226 17.9928 30.9297 18.9275 30.9297Z" fill="#00B4E4"/>
<path d="M12.4102 29.011H18.4102V25.7392L15.6598 23.9672L12.4102 29.011ZM12.5247 33.2287L7.48778 36.4889L7.49173 36.495L7.49569 36.5011L12.5247 33.2287ZM12.6896 33.4054L9.08478 38.2018L9.0938 38.2085L12.6896 33.4054ZM12.8298 33.4864L15.1887 27.9695L15.1847 27.9678L12.8298 33.4864ZM13.5709 33.3346L9.2673 29.1539L9.26471 29.1565L13.5709 33.3346ZM16.2081 30.6199L17.5629 24.7749L14.264 24.0103L11.9044 26.4392L16.2081 30.6199ZM25.1479 18.4648C25.1479 22.1478 22.2515 24.9297 18.9275 24.9297V36.9297C29.1018 36.9297 37.1479 28.5501 37.1479 18.4648H25.1479ZM18.9275 12C22.2515 12 25.1479 14.7818 25.1479 18.4648H37.1479C37.1479 8.37956 29.1018 0 18.9275 0V12ZM12.707 18.4648C12.707 14.7818 15.6035 12 18.9275 12V0C8.75314 0 0.707031 8.37956 0.707031 18.4648H12.707ZM15.6598 23.9672C13.905 22.8366 12.707 20.8159 12.707 18.4648H0.707031C0.707031 24.9941 4.06125 30.7693 9.16047 34.0548L15.6598 23.9672ZM6.41016 29.011V32.8398H18.4102V29.011H6.41016ZM6.41016 32.8398C6.41016 34.1304 6.7821 35.3987 7.48778 36.4889L17.5617 29.9685C18.1182 30.8282 18.4102 31.8258 18.4102 32.8398H6.41016ZM7.49569 36.5011C7.92151 37.1555 8.45893 37.7314 9.08479 38.2018L16.2944 28.609C16.7918 28.9828 17.2174 29.4394 17.5538 29.9563L7.49569 36.5011ZM9.0938 38.2085C9.51477 38.5237 9.9775 38.7926 10.475 39.0049L15.1847 27.9678C15.5823 28.1375 15.9512 28.352 16.2854 28.6023L9.0938 38.2085ZM10.4709 39.0032C11.718 39.5364 13.0974 39.6763 14.4257 39.4045L12.0201 27.6481C13.0846 27.4303 14.1903 27.5426 15.1887 27.9695L10.4709 39.0032ZM14.4257 39.4045C15.7585 39.1318 16.9557 38.4624 17.8772 37.5127L9.26471 29.1565C9.99602 28.4028 10.951 27.8669 12.0201 27.6481L14.4257 39.4045ZM17.8746 37.5154L20.5117 34.8007L11.9044 26.4392L9.2673 29.1539L17.8746 37.5154ZM18.9275 24.9297C18.4524 24.9297 17.9967 24.8754 17.5629 24.7749L14.8533 36.465C16.1686 36.7699 17.5332 36.9297 18.9275 36.9297V24.9297Z" fill="white" mask="url(#path-3-outside-1_1365_8489)"/>
<path d="M24.9241 15.1528C24.3493 14.2784 23.1394 12.9669 22.1412 12.0171L21.2791 12.5297C21.6572 12.9066 22.0958 13.3588 22.4891 13.8261L18.3148 14.0674C19.1466 13.2985 20.0087 12.3488 20.7498 11.3689L19.6003 10.992C18.8139 12.1829 17.6493 13.3739 17.3014 13.6754C16.9687 14.007 16.6662 14.203 16.4091 14.2483C16.5452 14.5498 16.6965 15.0925 16.7721 15.3337C17.1804 15.1678 17.8308 15.1075 23.2604 14.7457C23.5629 15.1075 23.82 15.4543 24.0015 15.7407L24.9241 15.1528ZM15.7739 13.5246C15.2899 12.9066 14.2615 11.9568 13.4448 11.2935L12.7188 11.9719C13.5204 12.6804 14.5337 13.6754 15.0026 14.3086L15.7739 13.5246ZM14.7152 22.208V15.7558H11.5996V16.8412H13.6868V22.2381C13.6868 22.9617 13.2028 23.4592 12.9305 23.6703C13.1272 23.8361 13.4145 24.2281 13.5204 24.4542V24.4391C13.7472 24.1527 14.1254 23.8813 16.5604 22.1175C16.4394 21.8914 16.2579 21.4693 16.1823 21.1678L14.7152 22.208ZM25.2417 20.5949V19.615H21.0523C21.0825 19.3135 21.0976 19.0422 21.0976 18.7558V17.6553H24.7123V16.6754H18.4963C18.708 16.2834 18.8895 15.8462 19.0559 15.4392L17.9972 15.1528C17.4981 16.4643 16.6813 17.806 15.789 18.6804C16.0461 18.8161 16.515 19.1326 16.7116 19.2985C17.1502 18.8462 17.5586 18.2884 17.9518 17.6553H20.0087V18.7407C20.0087 19.0271 19.9936 19.3135 19.9633 19.615H15.7588V20.5949H19.7213C19.2676 21.801 18.1182 23.0371 15.2899 23.9115C15.4714 24.1225 15.7588 24.5748 15.8495 24.816C18.587 23.9416 19.9028 22.7658 20.5532 21.4994C21.4152 23.1426 22.8218 24.2582 24.8182 24.7858C24.9694 24.4843 25.2719 24.0472 25.529 23.821C23.4268 23.3839 21.9597 22.2381 21.2035 20.5949H25.2417Z" fill="white"/>
<path d="M22.5178 40.5185C22.5178 40.7883 22.3532 41.6186 22.024 43.0093H12.4765C11.4377 43.0093 10.5817 42.7533 9.90861 42.2413C9.27943 41.7639 8.96484 41.1827 8.96484 40.4977C8.96484 40.1656 9.15506 39.6052 9.53549 38.8164C9.94519 37.9723 10.289 37.5503 10.5671 37.5503C10.5817 37.5641 10.589 37.5779 10.589 37.5918C10.589 37.6471 10.4793 37.9066 10.2598 38.3702C10.0403 38.8337 9.93056 39.1693 9.93056 39.3769C9.93056 40.0065 10.1281 40.515 10.5232 40.9025C10.9182 41.2899 11.4486 41.4837 12.1144 41.4837H21.596C21.596 40.8125 21.2082 39.875 20.4327 38.6711C20.5937 38.3736 20.8863 37.8512 21.3106 37.104C21.5082 37.3462 21.7386 37.7786 22.002 38.4013C22.3459 39.2108 22.5178 39.9165 22.5178 40.5185ZM16.8991 45.8737L16.1199 47.088L14.3641 46.0709L15.1432 44.8774L16.8991 45.8737Z" fill="white"/>
<path d="M42.4993 33.8108L40.6592 29.0154H34.7346L32.9148 33.8108H31.1758L37.0195 18.672H38.4653L44.2787 33.8108H42.4993ZM40.1234 27.4376L38.4046 22.7661C38.1822 22.1748 37.953 21.4495 37.7171 20.5901C37.5689 21.2501 37.3565 21.9754 37.0802 22.7661L35.3412 27.4376H40.1234Z" fill="white"/>
</svg>
