<svg width="48" height="48" viewBox="0 0 48 48" fill="none" xmlns="http://www.w3.org/2000/svg">
<path d="M43.784 10.4931C42.4753 2.18464 30.024 3.1836 24.7799 6.16423C24.7799 6.16423 8.80809 -1.37262 5.3059 11.9712C4.42375 16.3151 5.46614 20.7917 8.21825 24.4785C7.93008 30.2257 9.5611 35.9212 12.9093 40.8598C12.9093 40.8598 17.3055 46.1469 21.204 39.8121C21.204 39.8121 21.0289 27.2561 24.7707 27.1505C28.5125 27.0449 28.1808 39.8121 28.1808 39.8121C28.1808 39.8121 30.5586 45.8789 36.3741 41.274C36.3741 41.274 42.2541 31.3331 40.0606 23.7232C40.0974 23.7232 45.0835 18.7202 43.784 10.4931Z" fill="#00B4E4"/>
<path d="M22.3358 14.6646V11H26.6642V14.6646H31V18.3354H26.6642V22H22.3358V18.3354H18V14.6646H22.3358Z" fill="white"/>
</svg>
