<svg width="48" height="48" viewBox="0 0 48 48" fill="none" xmlns="http://www.w3.org/2000/svg">
<path d="M41.007 4.00006H27.0245C25.1703 4.00006 23.392 4.74283 22.0809 6.06496C20.7698 7.38709 20.0332 9.18029 20.0332 11.0501V14.0715C22.4164 14.0742 24.7012 15.03 26.3863 16.7293C28.0715 18.4286 29.0193 20.7326 29.022 23.1358V28.1715H35.0145L39.8135 33.0108C39.9113 33.1094 40.0359 33.1766 40.1715 33.2038C40.3071 33.231 40.4477 33.217 40.5755 33.1637C40.7032 33.1103 40.8124 33.0199 40.8892 32.904C40.966 32.788 41.007 32.6517 41.007 32.5123V28.1715C42.8612 28.1715 44.6395 27.4287 45.9506 26.1066C47.2617 24.7845 47.9983 22.9913 47.9983 21.1215V11.0501C47.9983 9.18029 47.2617 7.38709 45.9506 6.06496C44.6395 4.74283 42.8612 4.00006 41.007 4.00006Z" fill="#00B4E4"/>
<path d="M19.9063 39.0371H11.9438L7.16128 43.8635C7.06384 43.9618 6.9397 44.0288 6.80454 44.056C6.66938 44.0831 6.52929 44.0692 6.40197 44.0159C6.27466 43.9627 6.16584 43.8726 6.08928 43.757C6.01273 43.6413 5.97187 43.5054 5.97188 43.3663V39.0371C4.38804 39.0371 2.86907 38.4022 1.74912 37.2719C0.629179 36.1417 0 34.6088 0 33.0104L0 22.9659C0 21.3675 0.629179 19.8346 1.74912 18.7043C2.86907 17.5741 4.38804 16.9391 5.97188 16.9391H19.9063C21.4901 16.9391 23.0091 17.5741 24.129 18.7043C25.249 19.8346 25.8782 21.3675 25.8782 22.9659V33.0104C25.8782 34.6088 25.249 36.1417 24.129 37.2719C23.0091 38.4022 21.4901 39.0371 19.9063 39.0371Z" fill="#00B4E4"/>
<path d="M10.9365 25.7819V21.5304H15.188V25.7819H19.4468V30.0406H15.188V34.2922H10.9365V30.0406H6.67773V25.7819H10.9365Z" fill="white"/>
<path d="M31.9313 10.4693L39.653 11.7215L40.4878 16.1041L34.227 22.3649C26.4109 15.1479 25.7785 12.4999 31.9313 10.4693Z" fill="white"/>
<path d="M36.0554 9.16288L34.7858 7.33941C34.6944 7.31682 34.4198 8.59529 33.5267 8.12804L32.6453 10.014C32.4784 10.0467 31.338 8.59539 27.3696 10.395C26.713 10.0141 26.7128 11.4167 26.7129 12.2659L28.3 19.282C30.656 20.7963 30.0684 22.1152 34.7858 22.7825C38.4855 19.5658 39.4655 18.8101 40.8864 16.5402L41.7389 14.2702C40.318 13.8627 40.0549 13.056 40.6022 10.014C39.0697 11.5914 38.1797 10.7026 38.0446 9.16288H36.0554ZM39.0463 16.9021L38.5339 17.4206L34.4198 21.8314C34.3853 21.8671 34.3443 21.8955 34.299 21.9148C34.2538 21.9342 34.2053 21.9441 34.1563 21.9441C34.1073 21.9441 34.0588 21.9342 34.0135 21.9148C33.9683 21.8955 33.9273 21.8671 33.8928 21.8314L29.7787 17.4206L29.2663 16.9021C28.9643 16.6021 28.7234 16.2436 28.5575 15.8473C28.3916 15.4509 28.3041 15.0247 28.3 14.5934C28.2959 14.1621 28.3754 13.7342 28.5337 13.3346C28.692 12.9351 28.9261 12.5718 29.2224 12.2659C29.7973 11.7179 30.5534 11.4145 31.338 11.4167C32.1563 11.4168 32.942 11.7458 33.5267 12.3335L34.1563 12.9271L34.7858 12.3335C35.3706 11.7458 36.1563 11.4168 36.9746 11.4167C37.7591 11.4145 38.5153 11.7179 39.0902 12.2659C39.3865 12.5718 39.6206 12.9351 39.7789 13.3346C39.9372 13.7342 40.0167 14.1621 40.0126 14.5934C40.0085 15.0247 39.921 15.4509 39.7551 15.8473C39.5892 16.2436 39.3483 16.6021 39.0463 16.9021Z" fill="#00B4E4"/>
</svg>
