<svg width="48" height="48" viewBox="0 0 48 48" fill="none" xmlns="http://www.w3.org/2000/svg">
<path d="M47 10H27C26.4477 10 26 10.4477 26 11V16C26 16.5523 26.4477 17 27 17H47C47.5523 17 48 16.5523 48 16V11C48 10.4477 47.5523 10 47 10Z" fill="#00B4E4"/>
<path d="M28 47C28.0008 47.265 28.1064 47.5189 28.2938 47.7062C28.4811 47.8936 28.735 47.9992 29 48H45C45.265 47.9992 45.5189 47.8936 45.7062 47.7062C45.8936 47.5189 45.9992 47.265 46 47V19H28V47ZM31 25C31.0008 24.735 31.1064 24.4811 31.2938 24.2938C31.4811 24.1064 31.735 24.0008 32 24H42C42.265 24.0008 42.5189 24.1064 42.7062 24.2938C42.8936 24.4811 42.9992 24.735 43 25V32C42.9992 32.265 42.8936 32.5189 42.7062 32.7062C42.5189 32.8936 42.265 32.9992 42 33H32C31.735 32.9992 31.4811 32.8936 31.2938 32.7062C31.1064 32.5189 31.0008 32.265 31 32V25ZM32 36H42C42.2652 36 42.5196 36.1054 42.7071 36.2929C42.8946 36.4804 43 36.7348 43 37C43 37.2652 42.8946 37.5196 42.7071 37.7071C42.5196 37.8946 42.2652 38 42 38H32C31.7348 38 31.4804 37.8946 31.2929 37.7071C31.1054 37.5196 31 37.2652 31 37C31 36.7348 31.1054 36.4804 31.2929 36.2929C31.4804 36.1054 31.7348 36 32 36ZM19.5 8H14V3H16.5C16.8978 3 17.2794 2.84196 17.5607 2.56066C17.842 2.27936 18 1.89782 18 1.5C18 1.10218 17.842 0.720644 17.5607 0.43934C17.2794 0.158035 16.8978 0 16.5 0L4.5 0C4.10218 0 3.72064 0.158035 3.43934 0.43934C3.15804 0.720644 3 1.10218 3 1.5C3 1.89782 3.15804 2.27936 3.43934 2.56066C3.72064 2.84196 4.10218 3 4.5 3H7V8H1.5C1.10218 8 0.720644 8.15804 0.43934 8.43934C0.158035 8.72064 0 9.10218 0 9.5C0 9.89782 0.158035 10.2794 0.43934 10.5607C0.720644 10.842 1.10218 11 1.5 11H5V34C5.00158 34.5299 5.2128 35.0377 5.58753 35.4125C5.96227 35.7872 6.47005 35.9984 7 36V38C7 38.2652 7.10536 38.5196 7.29289 38.7071C7.48043 38.8946 7.73478 39 8 39H9V46.5C9 46.8978 9.15804 47.2794 9.43934 47.5607C9.72064 47.842 10.1022 48 10.5 48C10.8978 48 11.2794 47.842 11.5607 47.5607C11.842 47.2794 12 46.8978 12 46.5V39H13C13.2652 39 13.5196 38.8946 13.7071 38.7071C13.8946 38.5196 14 38.2652 14 38V36C14.5299 35.9984 15.0377 35.7872 15.4125 35.4125C15.7872 35.0377 15.9984 34.5299 16 34V11H19.5C19.8978 11 20.2794 10.842 20.5607 10.5607C20.842 10.2794 21 9.89782 21 9.5C21 9.10218 20.842 8.72064 20.5607 8.43934C20.2794 8.15804 19.8978 8 19.5 8ZM13 26H8V13H13V26Z" fill="#00B4E4"/>
</svg>
