<svg width="56" height="56" viewBox="0 0 56 56" fill="none" xmlns="http://www.w3.org/2000/svg">
<g filter="url(#filter0_d_1365_8498)">
<path d="M32.6464 42.9455V48H4V42.9455C4 37.891 6.9489 33.342 11.5829 31.4044V37.0486H10.7403C8.88674 37.0486 7.37017 38.5649 7.37017 40.4183V45.4728C7.37017 45.9782 7.70719 46.3152 8.21271 46.3152H9.8978C10.4033 46.3152 10.7403 45.9782 10.7403 45.4728C10.7403 44.9673 10.4033 44.6303 9.8978 44.6303H9.05525V40.4183C9.05525 39.4916 9.81354 38.7334 10.7403 38.7334H14.1105C15.0373 38.7334 15.7956 39.4916 15.7956 40.4183V44.6303H14.953C14.4475 44.6303 14.1105 44.9673 14.1105 45.4728C14.1105 45.9782 14.4475 46.3152 14.953 46.3152H16.6381C17.1437 46.3152 17.4807 45.9782 17.4807 45.4728V40.4183C17.4807 38.5649 15.9641 37.0486 14.1105 37.0486H13.268V30.8147C14.3633 30.4778 15.4586 30.3093 16.6381 30.3093H20.0083C21.1879 30.3093 22.2832 30.4778 23.3785 30.8147V37.2171C22.6202 37.4698 22.1147 38.0595 21.8619 38.7334C21.3564 40.0813 22.1147 41.5134 23.3785 41.9346C24.6423 42.3558 26.1589 41.6819 26.5801 40.4183C27.0014 39.1546 26.3274 37.6383 25.0636 37.2171V31.4044C29.6975 33.342 32.6464 37.891 32.6464 42.9455ZM18.3232 27.782C22.9572 27.782 26.7486 23.9912 26.7486 19.3579C26.7486 14.7246 22.9572 10.9337 18.3232 10.9337C13.6892 10.9337 9.8978 14.7246 9.8978 19.3579C9.8978 23.9912 13.6892 27.782 18.3232 27.782Z" fill="#00B4E4"/>
<g clip-path="url(#clip0_1365_8498)">
<path d="M51.2484 3.48707H47.1159V0.774905C47.1153 0.569576 47.0359 0.372832 46.8951 0.227642C46.7544 0.0824517 46.5636 0.000613231 46.3645 0L39.6021 0C39.403 0.000613231 39.2123 0.0824517 39.0715 0.227642C38.9307 0.372832 38.8513 0.569576 38.8507 0.774905V3.48707H34.7182C34.5191 3.48768 34.3283 3.56952 34.1875 3.71471C34.0467 3.8599 33.9674 4.05665 33.9668 4.26198V15.1106C33.9674 15.316 34.0467 15.5127 34.1875 15.6579C34.3283 15.8031 34.5191 15.8849 34.7182 15.8855H51.2484C51.4475 15.8849 51.6383 15.8031 51.7791 15.6579C51.9199 15.5127 51.9992 15.316 51.9998 15.1106V4.26198C51.9992 4.05665 51.9199 3.8599 51.7791 3.71471C51.6383 3.56952 51.4475 3.48768 51.2484 3.48707ZM40.7292 1.93726H45.2374V3.48707H40.7292V1.93726ZM41.582 10.5658C41.4055 10.7473 41.1663 10.849 40.917 10.8487H39.9778V11.8173C39.9778 12.0742 39.8788 12.3206 39.7027 12.5022C39.5266 12.6839 39.2877 12.7859 39.0386 12.7859C38.7895 12.7859 38.5506 12.6839 38.3745 12.5022C38.1983 12.3206 38.0994 12.0742 38.0994 11.8173V10.8487H37.1601C36.911 10.8487 36.6722 10.7466 36.496 10.565C36.3199 10.3833 36.2209 10.1369 36.2209 9.88004C36.2209 9.62314 36.3199 9.37676 36.496 9.19511C36.6722 9.01346 36.911 8.9114 37.1601 8.9114H38.0994V7.94277C38.0994 7.68588 38.1983 7.4395 38.3745 7.25785C38.5506 7.07619 38.7895 6.97414 39.0386 6.97414C39.2877 6.97414 39.5266 7.07619 39.7027 7.25785C39.8788 7.4395 39.9778 7.68588 39.9778 7.94277V8.9114H40.917C41.1028 8.91162 41.2843 8.96857 41.4387 9.07507C41.5932 9.18158 41.7135 9.33286 41.7847 9.50984C41.8558 9.68682 41.8745 9.88156 41.8384 10.0695C41.8024 10.2574 41.7131 10.4301 41.582 10.5658Z" fill="#00B4E4"/>
</g>
</g>
<defs>
<filter id="filter0_d_1365_8498" x="0" y="0" width="56" height="56" filterUnits="userSpaceOnUse" color-interpolation-filters="sRGB">
<feFlood flood-opacity="0" result="BackgroundImageFix"/>
<feColorMatrix in="SourceAlpha" type="matrix" values="0 0 0 0 0 0 0 0 0 0 0 0 0 0 0 0 0 0 127 0" result="hardAlpha"/>
<feOffset dy="4"/>
<feGaussianBlur stdDeviation="2"/>
<feComposite in2="hardAlpha" operator="out"/>
<feColorMatrix type="matrix" values="0 0 0 0 0 0 0 0 0 0 0 0 0 0 0 0 0 0 0.25 0"/>
<feBlend mode="normal" in2="BackgroundImageFix" result="effect1_dropShadow_1365_8498"/>
<feBlend mode="normal" in="SourceGraphic" in2="effect1_dropShadow_1365_8498" result="shape"/>
</filter>
<clipPath id="clip0_1365_8498">
<rect width="18.033" height="15.8855" fill="white" transform="translate(33.9668)"/>
</clipPath>
</defs>
</svg>
