<svg width="48" height="48" viewBox="0 0 48 48" fill="none" xmlns="http://www.w3.org/2000/svg">
<path d="M15.9998 24.0119C15.9971 22.8864 16.2324 21.773 16.6903 20.7449C17.1483 19.7167 17.8185 18.7971 18.657 18.0463C19.4956 17.2955 20.4834 16.7306 21.5557 16.3886C22.628 16.0466 23.7605 15.9352 24.8788 16.0619L31.1648 9.77688C28.8126 9.25496 26.4093 8.99836 23.9998 9.01188C14.1678 9.01188 6.08284 12.7869 0.616844 21.8149C0.213746 22.4765 0.000353174 23.2363 4.38009e-07 24.0111C-0.000352298 24.7859 0.212349 25.5458 0.614844 26.2079C2.32687 29.1032 4.55978 31.6569 7.20084 33.7399L16.0508 24.8909C16.0179 24.599 16.0008 24.3056 15.9998 24.0119ZM47.3838 21.8159C45.6718 18.9205 43.4389 16.3669 40.7978 14.2839L31.9498 23.1319C32.0848 24.3239 31.9492 25.5311 31.5533 26.6636C31.1574 27.796 30.5112 28.8246 29.6629 29.6729C28.8146 30.5212 27.786 31.1674 26.6535 31.5633C25.5211 31.9593 24.3139 32.0948 23.1218 31.9599L16.8358 38.2459C19.1877 38.7681 21.5907 39.025 23.9998 39.0119C33.8308 39.0119 41.9168 35.2369 47.3838 26.2079C47.7864 25.5461 47.9994 24.7865 47.9994 24.0119C47.9994 23.2373 47.7864 22.4776 47.3838 21.8159ZM4.99984 45.0119C4.60434 45.0118 4.21775 44.8945 3.88893 44.6747C3.56011 44.4549 3.30383 44.1426 3.15249 43.7772C3.00115 43.4118 2.96154 43.0097 3.03868 42.6218C3.11581 42.2339 3.30622 41.8776 3.58584 41.5979L41.5858 3.59788C41.7703 3.40686 41.991 3.2545 42.235 3.14968C42.479 3.04486 42.7415 2.98969 43.007 2.98738C43.2726 2.98507 43.536 3.03568 43.7817 3.13624C44.0275 3.2368 44.2508 3.38531 44.4386 3.57309C44.6264 3.76088 44.7749 3.98418 44.8755 4.22997C44.9761 4.47577 45.0267 4.73912 45.0243 5.00468C45.022 5.27024 44.9669 5.53268 44.862 5.77669C44.7572 6.0207 44.6049 6.24139 44.4138 6.42588L6.41384 44.4259C6.2284 44.6119 6.00801 44.7595 5.76534 44.86C5.52268 44.9606 5.26252 45.0122 4.99984 45.0119V45.0119Z" fill="#011E41"/>
</svg>
