<svg width="48" height="48" viewBox="0 0 48 48" fill="none" xmlns="http://www.w3.org/2000/svg">
<path d="M46.5 45H1.5C1.10218 45 0.720644 45.158 0.43934 45.4393C0.158035 45.7206 0 46.1022 0 46.5C0 46.8978 0.158035 47.2794 0.43934 47.5607C0.720644 47.842 1.10218 48 1.5 48H46.5C46.8978 48 47.2794 47.842 47.5607 47.5607C47.842 47.2794 48 46.8978 48 46.5C48 46.1022 47.842 45.7206 47.5607 45.4393C47.2794 45.158 46.8978 45 46.5 45ZM5.5 43H42.5C42.8978 43 43.2794 42.842 43.5607 42.5607C43.842 42.2794 44 41.8978 44 41.5C44 41.1022 43.842 40.7206 43.5607 40.4393C43.2794 40.158 42.8978 40 42.5 40H5.5C5.10218 40 4.72064 40.158 4.43934 40.4393C4.15804 40.7206 4 41.1022 4 41.5C4 41.8978 4.15804 42.2794 4.43934 42.5607C4.72064 42.842 5.10218 43 5.5 43V43ZM28 6H26V2C26 1.46957 25.7893 0.960859 25.4142 0.585786C25.0391 0.210714 24.5304 0 24 0C23.4696 0 22.9609 0.210714 22.5858 0.585786C22.2107 0.960859 22 1.46957 22 2V6H20C17.08 9.2 14.84 13.14 13.75 20H34.25C33.16 13.14 30.92 9.2 28 6ZM21 28C21 26.34 24 25 24 25C24 25 27 26.34 27 28V38H35V31C35.021 27.9934 34.8641 24.9881 34.53 22H13.47C13.1359 24.9881 12.979 27.9934 13 31V38H21V28ZM42 14.5C42 13.837 41.7366 13.2011 41.2678 12.7322C40.7989 12.2634 40.163 12 39.5 12C38.837 12 38.2011 12.2634 37.7322 12.7322C37.2634 13.2011 37 13.837 37 14.5V20H42V14.5ZM37 22H42V38H37V22ZM11 14.5C11 13.837 10.7366 13.2011 10.2678 12.7322C9.79893 12.2634 9.16304 12 8.5 12C7.83696 12 7.20107 12.2634 6.73223 12.7322C6.26339 13.2011 6 13.837 6 14.5V20H11V14.5ZM6 22H11V38H6V22Z" fill="#011E41"/>
</svg>
