<svg width="48" height="48" viewBox="0 0 48 48" fill="none" xmlns="http://www.w3.org/2000/svg">
<path d="M36 0C34.9391 0 33.9217 0.421427 33.1716 1.17157C32.4214 1.92172 32 2.93913 32 4V20H16V4C16 2.93913 15.5786 1.92172 14.8284 1.17157C14.0783 0.421427 13.0609 0 12 0C10.9391 0 9.92172 0.421427 9.17157 1.17157C8.42143 1.92172 8 2.93913 8 4V44C8 45.0609 8.42143 46.0783 9.17157 46.8284C9.92172 47.5786 10.9391 48 12 48C13.0609 48 14.0783 47.5786 14.8284 46.8284C15.5786 46.0783 16 45.0609 16 44V28H32V44C32 45.0609 32.4214 46.0783 33.1716 46.8284C33.9217 47.5786 34.9391 48 36 48C37.0609 48 38.0783 47.5786 38.8284 46.8284C39.5786 46.0783 40 45.0609 40 44V4C40 2.93913 39.5786 1.92172 38.8284 1.17157C38.0783 0.421427 37.0609 0 36 0V0Z" fill="#011E41"/>
</svg>
