<svg width="48" height="48" viewBox="0 0 48 48" fill="none" xmlns="http://www.w3.org/2000/svg">
<path d="M48 30V36C48 36.7956 47.6839 37.5587 47.1213 38.1213C46.5587 38.6839 45.7956 39 45 39C44.2044 39 43.4413 38.6839 42.8787 38.1213C42.3161 37.5587 42 36.7956 42 36V34H6V36C6 36.7956 5.68393 37.5587 5.12132 38.1213C4.55871 38.6839 3.79565 39 3 39C2.20435 39 1.44129 38.6839 0.87868 38.1213C0.31607 37.5587 0 36.7956 0 36L0 12C0 11.2044 0.31607 10.4413 0.87868 9.87868C1.44129 9.31607 2.20435 9 3 9C3.79565 9 4.55871 9.31607 5.12132 9.87868C5.68393 10.4413 6 11.2044 6 12V28H46C46.5304 28 47.0391 28.2107 47.4142 28.5858C47.7893 28.9609 48 29.4696 48 30ZM13 17C12.2089 17 11.4355 17.2346 10.7777 17.6741C10.1199 18.1136 9.60723 18.7384 9.30448 19.4693C9.00173 20.2002 8.92252 21.0044 9.07686 21.7804C9.2312 22.5563 9.61216 23.269 10.1716 23.8284C10.731 24.3878 11.4437 24.7688 12.2196 24.9231C12.9956 25.0775 13.7998 24.9983 14.5307 24.6955C15.2616 24.3928 15.8864 23.8801 16.3259 23.2223C16.7654 22.5645 17 21.7911 17 21C17 19.9391 16.5786 18.9217 15.8284 18.1716C15.0783 17.4214 14.0609 17 13 17V17ZM43 17H23C21.9391 17 20.9217 17.4214 20.1716 18.1716C19.4214 18.9217 19 19.9391 19 21C19 22.0609 19.4214 23.0783 20.1716 23.8284C20.9217 24.5786 21.9391 25 23 25H43C44.0609 25 45.0783 24.5786 45.8284 23.8284C46.5786 23.0783 47 22.0609 47 21C47 19.9391 46.5786 18.9217 45.8284 18.1716C45.0783 17.4214 44.0609 17 43 17V17Z" fill="#011E41"/>
</svg>
