<svg width="48" height="48" viewBox="0 0 48 48" fill="none" xmlns="http://www.w3.org/2000/svg">
<path d="M38 6H10C9.47005 6.00158 8.96227 6.2128 8.58753 6.58753C8.2128 6.96227 8.00158 7.47005 8 8V30H40V8C39.9984 7.47005 39.7872 6.96227 39.4125 6.58753C39.0377 6.2128 38.5299 6.00158 38 6V6ZM19 13C19.3956 13 19.7822 13.1173 20.1111 13.3371C20.44 13.5568 20.6964 13.8692 20.8478 14.2346C20.9991 14.6001 21.0387 15.0022 20.9616 15.3902C20.8844 15.7781 20.6939 16.1345 20.4142 16.4142C20.1345 16.6939 19.7781 16.8844 19.3902 16.9616C19.0022 17.0387 18.6001 16.9991 18.2346 16.8478C17.8692 16.6964 17.5568 16.44 17.3371 16.1111C17.1173 15.7822 17 15.3956 17 15C17.0016 14.4701 17.2128 13.9623 17.5875 13.5875C17.9623 13.2128 18.4701 13.0016 19 13ZM37 24.5C37 24.8978 36.842 25.2794 36.5607 25.5607C36.2794 25.842 35.8978 26 35.5 26C35.1022 26 34.7206 25.842 34.4393 25.5607C34.158 25.2794 34 24.8978 34 24.5V23H14V24.5C14 24.8978 13.842 25.2794 13.5607 25.5607C13.2794 25.842 12.8978 26 12.5 26C12.1022 26 11.7206 25.842 11.4393 25.5607C11.158 25.2794 11 24.8978 11 24.5V11.5C11 11.1022 11.158 10.7206 11.4393 10.4393C11.7206 10.158 12.1022 10 12.5 10C12.8978 10 13.2794 10.158 13.5607 10.4393C13.842 10.7206 14 11.1022 14 11.5V20H37V24.5ZM37 15.14C37.0004 15.3844 36.9526 15.6264 36.8592 15.8523C36.7659 16.0781 36.6289 16.2833 36.4561 16.4561C36.2833 16.6289 36.0781 16.7659 35.8523 16.8592C35.6264 16.9526 35.3844 17.0004 35.14 17H25.86C25.6156 17.0004 25.3736 16.9526 25.1477 16.8592C24.9219 16.7659 24.7167 16.6289 24.5439 16.4561C24.3711 16.2833 24.2341 16.0781 24.1408 15.8523C24.0474 15.6264 23.9996 15.3844 24 15.14V14.86C23.9996 14.6156 24.0474 14.3736 24.1408 14.1477C24.2341 13.9219 24.3711 13.7167 24.5439 13.5439C24.7167 13.3711 24.9219 13.2341 25.1477 13.1408C25.3736 13.0474 25.6156 12.9996 25.86 13H35.14C35.3844 12.9996 35.6264 13.0474 35.8523 13.1408C36.0781 13.2341 36.2833 13.3711 36.4561 13.5439C36.6289 13.7167 36.7659 13.9219 36.8592 14.1477C36.9526 14.3736 37.0004 14.6156 37 14.86V15.14ZM14 4H34C34.5304 4 35.0391 3.78929 35.4142 3.41421C35.7893 3.03914 36 2.53043 36 2C36 1.46957 35.7893 0.960859 35.4142 0.585786C35.0391 0.210714 34.5304 0 34 0L14 0C13.4696 0 12.9609 0.210714 12.5858 0.585786C12.2107 0.960859 12 1.46957 12 2C12 2.53043 12.2107 3.03914 12.5858 3.41421C12.9609 3.78929 13.4696 4 14 4V4ZM8 48H20V38C20.0016 37.4701 20.2128 36.9623 20.5875 36.5875C20.9623 36.2128 21.4701 36.0016 22 36H26C26.5299 36.0016 27.0377 36.2128 27.4125 36.5875C27.7872 36.9623 27.9984 37.4701 28 38V48H40V32H8V48Z" fill="#011E41"/>
</svg>
