<svg width="48" height="48" viewBox="0 0 48 48" fill="none" xmlns="http://www.w3.org/2000/svg">
<g clip-path="url(#clip0_74_593)">
<path d="M10 0C8.02219 0 6.08879 0.58649 4.4443 1.6853C2.79981 2.78412 1.51809 4.3459 0.761209 6.17317C0.00433284 8.00043 -0.193701 10.0111 0.192152 11.9509C0.578004 13.8907 1.53041 15.6725 2.92894 17.0711C4.32746 18.4696 6.10929 19.422 8.0491 19.8079C9.98891 20.1937 11.9996 19.9957 13.8268 19.2388C15.6541 18.4819 17.2159 17.2002 18.3147 15.5557C19.4135 13.9112 20 11.9778 20 10C19.9989 7.34816 18.945 4.80524 17.0699 2.9301C15.1948 1.05497 12.6518 0.0010601 10 0V0ZM14.71 13.29C14.8974 13.4788 15.0025 13.734 15.0025 14C15.0025 14.266 14.8974 14.5212 14.71 14.71C14.5204 14.8959 14.2655 15.0001 14 15.0001C13.7345 15.0001 13.4796 14.8959 13.29 14.71L10 11.42L6.71 14.71C6.52044 14.8959 6.26552 15.0001 6 15.0001C5.73449 15.0001 5.47957 14.8959 5.29 14.71C5.10265 14.5212 4.99752 14.266 4.99752 14C4.99752 13.734 5.10265 13.4788 5.29 13.29L8.58 10L5.29 6.71C5.1017 6.5217 4.99591 6.2663 4.99591 6C4.99591 5.7337 5.1017 5.4783 5.29 5.29C5.47831 5.1017 5.7337 4.99591 6 4.99591C6.26631 4.99591 6.5217 5.1017 6.71 5.29L10 8.58L13.29 5.29C13.3832 5.19676 13.4939 5.1228 13.6158 5.07234C13.7376 5.02188 13.8681 4.99591 14 4.99591C14.1319 4.99591 14.2624 5.02188 14.3843 5.07234C14.5061 5.1228 14.6168 5.19676 14.71 5.29C14.8032 5.38324 14.8772 5.49393 14.9277 5.61575C14.9781 5.73757 15.0041 5.86814 15.0041 6C15.0041 6.13186 14.9781 6.26243 14.9277 6.38425C14.8772 6.50607 14.8032 6.61676 14.71 6.71L11.42 10L14.71 13.29ZM47.82 22.85L33.64 10.232C33.4603 10.0823 33.2339 10.0004 33 10.0004C32.7661 10.0004 32.5397 10.0823 32.36 10.232L18.18 22.85C18.1256 22.8976 18.0815 22.9559 18.0505 23.0213C18.0196 23.0867 18.0024 23.1577 18 23.23V48H29V38C29 37.4696 29.2107 36.9609 29.5858 36.5858C29.9609 36.2107 30.4696 36 31 36H35C35.5304 36 36.0391 36.2107 36.4142 36.5858C36.7893 36.9609 37 37.4696 37 38V48H48V23.23C47.9976 23.1577 47.9804 23.0867 47.9495 23.0213C47.9185 22.9559 47.8744 22.8976 47.82 22.85V22.85Z" fill="#011E41"/>
</g>
<defs>
<clipPath id="clip0_74_593">
<rect width="48" height="48" fill="white"/>
</clipPath>
</defs>
</svg>
