<svg width="48" height="48" viewBox="0 0 48 48" fill="none" xmlns="http://www.w3.org/2000/svg">
<path d="M24.7243 0.275205C24.5247 0.097917 24.267 0 24 0C23.733 0 23.4752 0.097917 23.2756 0.275205L4.72111 17.1289C4.60849 17.2311 4.51848 17.3557 4.45686 17.4948C4.39524 17.6338 4.36337 17.7842 4.36328 17.9362V48H19.6363V37.0907C19.638 36.5126 19.8684 35.9586 20.2772 35.5498C20.686 35.141 21.24 34.9106 21.8181 34.9089H26.1818C26.76 34.9106 27.3139 35.141 27.7227 35.5498C28.1315 35.9586 28.362 36.5126 28.3637 37.0907V48H43.6367V17.9373C43.6366 17.7852 43.6047 17.6349 43.5431 17.4959C43.4815 17.3568 43.3915 17.2322 43.2788 17.13L24.7243 0.275205Z" fill="#011E41"/>
</svg>
