<svg width="48" height="48" viewBox="0 0 48 48" fill="none" xmlns="http://www.w3.org/2000/svg">
<g clip-path="url(#clip0_74_1350)">
<path d="M47.8106 20.97L32.6412 8.23057C32.4618 8.08036 32.2353 7.99805 32.0013 7.99805C31.7673 7.99805 31.5407 8.08036 31.3613 8.23057L24.9816 13.5803C26.1516 15.9086 26.8387 18.4494 27.0015 21.05C27.0271 24.4322 25.9747 27.7346 23.9969 30.4783C22.0191 33.2221 19.2188 35.2645 16.002 36.3094V46.9989C16.0027 47.2639 16.1084 47.5177 16.2957 47.7051C16.4831 47.8925 16.7369 47.9981 17.0019 47.9989H28.0014V35.9994C28.0022 35.7344 28.1078 35.4805 28.2952 35.2932C28.4825 35.1058 28.7364 35.0002 29.0014 34.9994H35.0011C35.2661 35.0002 35.52 35.1058 35.7073 35.2932C35.8947 35.4805 36.0003 35.7344 36.0011 35.9994V47.9989H48.0006V21.38C47.9988 21.3023 47.981 21.2257 47.9483 21.1552C47.9157 21.0846 47.8688 21.0216 47.8106 20.97V20.97Z" fill="#011E41"/>
<path d="M23.0011 21.0496C22.8957 19.3954 22.4855 17.7749 21.7911 16.2698C19.1912 9.98006 13.1815 1.96041 11.7916 0.150485C11.7586 0.104253 11.7151 0.0665613 11.6647 0.0405538C11.6143 0.0145462 11.5583 0.000976563 11.5016 0.000976562C11.4448 0.000976562 11.3889 0.0145462 11.3384 0.0405538C11.288 0.0665613 11.2445 0.104253 11.2116 0.150485C9.42166 2.48038 0.00207018 15.0698 0.00207018 21.0496C-0.0563107 24.1587 1.12214 27.1639 3.27845 29.4046C5.43475 31.6452 8.39246 32.9381 11.5016 32.9991C13.0514 33.0001 14.5842 32.6765 16.0014 32.0491C18.1059 31.0876 19.8868 29.5372 21.129 27.5852C22.3712 25.6332 23.0214 23.3632 23.0011 21.0496V21.0496ZM11.5016 29.9992C10.0204 29.9766 8.60894 29.3665 7.57755 28.3033C6.54617 27.24 5.97936 25.8106 6.00181 24.3294C6.00181 21.4996 10.5116 15.1798 11.3616 14.0699C11.3783 14.0488 11.3996 14.0319 11.4239 14.0202C11.4481 14.0085 11.4747 14.0024 11.5016 14.0024C11.5285 14.0024 11.555 14.0085 11.5793 14.0202C11.6035 14.0319 11.6248 14.0488 11.6416 14.0699C13.3164 16.3029 14.792 18.6786 16.0514 21.1696V21.1796C16.5752 22.1555 16.8983 23.2266 17.0013 24.3294C17.0043 25.4889 16.6556 26.622 16.0014 27.5793C15.5075 28.3209 14.8386 28.9296 14.0539 29.3516C13.2691 29.7736 12.3926 29.996 11.5016 29.9992V29.9992Z" fill="#011E41"/>
</g>
<defs>
<clipPath id="clip0_74_1350">
<rect width="48" height="48" fill="white"/>
</clipPath>
</defs>
</svg>
