<svg width="48" height="48" viewBox="0 0 48 48" fill="none" xmlns="http://www.w3.org/2000/svg">
<g clip-path="url(#clip0_74_596)">
<path d="M10 0C8.02219 0 6.08879 0.58649 4.4443 1.6853C2.79981 2.78412 1.51809 4.3459 0.761209 6.17317C0.00433284 8.00043 -0.193701 10.0111 0.192152 11.9509C0.578004 13.8907 1.53041 15.6725 2.92894 17.0711C4.32746 18.4696 6.10929 19.422 8.0491 19.8079C9.98891 20.1937 11.9996 19.9957 13.8268 19.2388C15.6541 18.4819 17.2159 17.2002 18.3147 15.5557C19.4135 13.9112 20 11.9778 20 10C19.9989 7.34816 18.945 4.80524 17.0699 2.9301C15.1948 1.05497 12.6518 0.0010601 10 0V0ZM15.65 7.76L8.65 13.76C8.46855 13.9144 8.23824 13.9994 8 14C7.73471 13.999 7.48017 13.895 7.29 13.71L4.29 10.71C4.19677 10.6168 4.12281 10.5061 4.07234 10.3842C4.02188 10.2624 3.99591 10.1319 3.99591 10C3.99591 9.7337 4.1017 9.4783 4.29 9.29C4.47831 9.1017 4.7337 8.99591 5 8.99591C5.26631 8.99591 5.5217 9.1017 5.71 9.29L8.05 11.64L14.35 6.24C14.5516 6.06761 14.8134 5.98235 15.0778 6.00298C15.2087 6.01319 15.3364 6.0491 15.4534 6.10864C15.5705 6.16818 15.6746 6.2502 15.76 6.35C15.8454 6.4498 15.9102 6.56544 15.9509 6.69032C15.9916 6.81519 16.0072 6.94685 15.997 7.07778C15.9868 7.20871 15.9509 7.33635 15.8914 7.4534C15.8318 7.57046 15.7498 7.67464 15.65 7.76V7.76ZM47.82 22.85L33.64 10.232C33.4603 10.0823 33.2339 10.0004 33 10.0004C32.7661 10.0004 32.5397 10.0823 32.36 10.232L18.18 22.85C18.1256 22.8976 18.0815 22.9559 18.0505 23.0213C18.0196 23.0867 18.0024 23.1577 18 23.23V48H29V38C29 37.4696 29.2107 36.9609 29.5858 36.5858C29.9609 36.2107 30.4696 36 31 36H35C35.5304 36 36.0391 36.2107 36.4142 36.5858C36.7893 36.9609 37 37.4696 37 38V48H48V23.23C47.9976 23.1577 47.9804 23.0867 47.9495 23.0213C47.9185 22.9559 47.8744 22.8976 47.82 22.85V22.85Z" fill="#011E41"/>
</g>
<defs>
<clipPath id="clip0_74_596">
<rect width="48" height="48" fill="white"/>
</clipPath>
</defs>
</svg>
