<svg width="48" height="48" viewBox="0 0 48 48" fill="none" xmlns="http://www.w3.org/2000/svg">
<g clip-path="url(#clip0_74_590)">
<path d="M10 0C8.02219 0 6.08879 0.58649 4.4443 1.6853C2.79981 2.78412 1.51809 4.3459 0.761209 6.17317C0.00433284 8.00043 -0.193701 10.0111 0.192152 11.9509C0.578004 13.8907 1.53041 15.6725 2.92894 17.0711C4.32746 18.4696 6.10929 19.422 8.0491 19.8079C9.98891 20.1937 11.9996 19.9957 13.8268 19.2388C15.6541 18.4819 17.2159 17.2002 18.3147 15.5557C19.4135 13.9112 20 11.9778 20 10C19.9989 7.34816 18.945 4.80524 17.0699 2.9301C15.1948 1.05497 12.6518 0.0010601 10 0V0ZM10 17C9.80222 17 9.60888 16.9414 9.44443 16.8315C9.27999 16.7216 9.15181 16.5654 9.07613 16.3827C9.00044 16.2 8.98063 15.9989 9.01922 15.8049C9.0578 15.6109 9.15305 15.4327 9.2929 15.2929C9.43275 15.153 9.61093 15.0578 9.80491 15.0192C9.9989 14.9806 10.2 15.0004 10.3827 15.0761C10.5654 15.1518 10.7216 15.28 10.8315 15.4444C10.9414 15.6089 11 15.8022 11 16C10.9992 16.265 10.8936 16.5189 10.7062 16.7062C10.5189 16.8936 10.265 16.9992 10 17ZM11 12C11 12.2652 10.8946 12.5196 10.7071 12.7071C10.5196 12.8946 10.2652 13 10 13C9.73479 13 9.48043 12.8946 9.2929 12.7071C9.10536 12.5196 9 12.2652 9 12V4C9 3.73478 9.10536 3.48043 9.2929 3.29289C9.48043 3.10536 9.73479 3 10 3C10.2652 3 10.5196 3.10536 10.7071 3.29289C10.8946 3.48043 11 3.73478 11 4V12ZM47.82 22.85L33.64 10.232C33.4603 10.0823 33.2339 10.0004 33 10.0004C32.7661 10.0004 32.5397 10.0823 32.36 10.232L18.18 22.85C18.1256 22.8976 18.0815 22.9559 18.0505 23.0213C18.0196 23.0867 18.0024 23.1577 18 23.23V48H29V38C29 37.4696 29.2107 36.9609 29.5858 36.5858C29.9609 36.2107 30.4696 36 31 36H35C35.5304 36 36.0391 36.2107 36.4142 36.5858C36.7893 36.9609 37 37.4696 37 38V48H48V23.23C47.9976 23.1577 47.9804 23.0867 47.9495 23.0213C47.9185 22.9559 47.8744 22.8976 47.82 22.85V22.85Z" fill="#011E41"/>
</g>
<defs>
<clipPath id="clip0_74_590">
<rect width="48" height="48" fill="white"/>
</clipPath>
</defs>
</svg>
