<svg width="48" height="48" viewBox="0 0 48 48" fill="none" xmlns="http://www.w3.org/2000/svg">
<path d="M10 5C9.20508 5.00237 8.4434 5.31921 7.8813 5.8813C7.31921 6.4434 7.00237 7.20508 7 8H13C12.9976 7.20508 12.6808 6.4434 12.1187 5.8813C11.5566 5.31921 10.7949 5.00237 10 5V5ZM47.82 22.85L33.64 10.23C33.4606 10.0798 33.234 9.99747 33 9.99747C32.766 9.99747 32.5394 10.0798 32.36 10.23L18.18 22.85C18.1255 22.8976 18.0814 22.9559 18.0505 23.0213C18.0195 23.0866 18.0023 23.1577 18 23.23V48H29V38C29.0016 37.4701 29.2128 36.9623 29.5875 36.5875C29.9623 36.2128 30.4701 36.0016 31 36H35C35.5299 36.0016 36.0377 36.2128 36.4125 36.5875C36.7872 36.9623 36.9984 37.4701 37 38V48H48V23.23C47.9977 23.1577 47.9805 23.0866 47.9495 23.0213C47.9186 22.9559 47.8745 22.8976 47.82 22.85Z" fill="#011E41"/>
<path d="M10 0C8.02219 0 6.08879 0.58649 4.4443 1.6853C2.79981 2.78412 1.51809 4.3459 0.761209 6.17317C0.00433284 8.00043 -0.193701 10.0111 0.192152 11.9509C0.578004 13.8907 1.53041 15.6725 2.92894 17.0711C4.32746 18.4696 6.10929 19.422 8.0491 19.8079C9.98891 20.1937 11.9996 19.9957 13.8268 19.2388C15.6541 18.4819 17.2159 17.2002 18.3147 15.5557C19.4135 13.9112 20 11.9778 20 10C19.9989 7.34816 18.945 4.80524 17.0699 2.9301C15.1948 1.05497 12.6518 0.0010601 10 0V0ZM15 14C14.9984 14.5299 14.7872 15.0377 14.4125 15.4125C14.0377 15.7872 13.53 15.9984 13 16H7C6.47006 15.9984 5.96227 15.7872 5.58754 15.4125C5.21281 15.0377 5.00159 14.5299 5 14V8C5 6.67392 5.52679 5.40215 6.46447 4.46447C7.40215 3.52678 8.67392 3 10 3C11.3261 3 12.5979 3.52678 13.5355 4.46447C14.4732 5.40215 15 6.67392 15 8V14Z" fill="#011E41"/>
<path d="M11 10H9C8.44772 10 8 10.4477 8 11V13C8 13.5523 8.44772 14 9 14H11C11.5523 14 12 13.5523 12 13V11C12 10.4477 11.5523 10 11 10Z" fill="#011E41"/>
</svg>
