<?xml version="1.0" encoding="utf-8"?>
<!-- Generator: Adobe Illustrator 25.2.1, SVG Export Plug-In . SVG Version: 6.00 Build 0)  -->
<svg version="1.1" id="Layer_1" xmlns="http://www.w3.org/2000/svg" xmlns:xlink="http://www.w3.org/1999/xlink" x="0px" y="0px"
	 viewBox="0 0 288 560" style="enable-background:new 0 0 288 560;" xml:space="preserve">
<style type="text/css">
	.st0{fill:#FEFEFE;}
	.st1{fill:#FED400;}
	.st2{fill:#005BBA;}
</style>
<g>
	<path class="st0" d="M194.94,316.61c0,19.42-0.01,38.84,0.02,58.26c0,0.89-0.14,1.16-1.11,1.16c-38.88-0.03-77.77-0.03-116.65,0
		c-0.92,0-1.06-0.22-1.06-1.09c0.03-38.88,0.02-77.76,0-116.64c0-0.83,0.1-1.1,1.05-1.1c38.93,0.03,77.85,0.03,116.78,0
		c0.87,0,1,0.2,1,1.02C194.94,277.69,194.94,297.15,194.94,316.61z"/>
	<path class="st1" d="M129.85,320.24c4.1,1.86,8.37,2.87,12.9,2.42c1.2-0.12,2.4-0.35,3.84-0.57c-1.29-0.91-2.63-1.05-3.76-1.67
		c0.47-0.44,1.06-0.39,1.63-0.39c12.6-0.01,25.21-0.01,37.81,0c0.53,0,1.08-0.03,1.53,0.35c-2.34,4.88-5.66,9.05-9.34,12.95
		c-5.97,6.31-12.24,12.31-18.52,18.31c-1.07,1.02-2.2,1.97-3.29,2.97c-4.37,4.02-9.62,5.34-15.39,4.97
		c-5.49-0.35-10.64-2.02-15.59-4.33c-6.56-3.06-12.98-6.37-18.97-10.46c-2.24-1.53-4.4-3.19-6.16-5.29
		c-0.47-0.57-0.91-1.17-1.28-1.81c-1.05-1.83-1.02-3.63,0.39-5.25c0.69-0.79,0.73-1.4,0.02-2.21c-0.92-1.05-1.59-2.3-2.22-3.55
		c-1.27-2.52-1.01-4.25,0.97-6.37c0.67-0.23,1.36-0.28,2.06-0.28c10.35,0.01,20.7,0.01,31.05-0.01
		C128.32,320.03,129.07,320.28,129.85,320.24z"/>
	<path class="st2" d="M183.79,320.39c-3.87-0.01-7.73-0.04-11.6-0.04c-9.21-0.01-18.43,0-27.64,0c-0.57,0-1.15,0.05-1.72,0.08
		c-3.95-0.98-7.9-1.93-11.83-2.95c-1.85-0.48-3.57-1.26-4.95-2.64c-1.38-1.38-2.15-2.98-1.78-5c0.5-2.78,1.93-4.06,4.78-4.2
		c2.81-0.13,5.57,0.51,8.36,0.55c6.45,0.09,12.38,2.42,18.5,3.98c2.47,0.63,4.97,1.19,7.55,0.65c0.32-0.07,0.72-0.08,0.93-0.28
		c2.42-2.25,5.62-2.34,8.58-3.08c1.67-0.42,3.38-0.67,5.08-0.96c1.88-0.32,2.9-1.72,4.04-3.03c3.56-4.12,2.6-8.62,1.04-13.11
		c-0.67-1.93-0.78-1.8-2.87-1.68c-2.42,0.15-4.85,0.17-7.28,0.15c-1.52-0.01-2.92-0.66-3.68-1.95c-1.56-2.64-4.07-3.49-6.8-3.91
		c-2.36-0.36-4.81-0.67-7.13-0.14c-6.42,1.47-11.73,4.63-14.76,10.8c-0.69,1.4-1.27,2.85-1.96,4.25c-0.64,1.3-1.63,2.36-2.55,3.46
		c-1.48,1.76-3.32,2.11-5.45,1.7c-4.75-0.91-9.18-2.81-13.68-4.47c-4.04-1.49-7.94-3.44-12.23-4.16c-7.98-1.34-14.72,0.86-19.86,7.3
		c-0.56,0.7-0.99,1.51-1.42,2.3c-0.43,0.79-0.74,1.64-0.95,2.57c-1.31-3.83,0.07-12.19,2.93-17.69c2.92-5.62,7.16-9.9,12.96-12.54
		c13.02-5.92,30.38-0.14,36.73,18c0.73-1.46,1.39-2.75,2.02-4.06c2.34-4.88,5.47-9.13,10.11-12.02c14.76-9.18,29.53-2.9,37.05,9.35
		c2.63,4.28,3.7,8.99,3.79,13.99C188.23,308.25,186.89,314.52,183.79,320.39z"/>
	<path class="st2" d="M129.85,320.24c-0.16,0.04-0.32,0.1-0.47,0.1c-11.65,0-23.3-0.01-34.95-0.02c0.65-0.61,0.64-1.17,0.22-2
		c-1.49-2.95-0.77-6.25,1.65-8.5c1.41-1.31,3.08-1.43,4.84-1.15c2.25,0.36,2.25,0.37,3.38-1.52c1.19-2.01,2.84-3.27,5.28-3.26
		c1.39,0,2.56,0.52,3.49,1.56c0.68,0.77,1.39,1.52,1.99,2.35C119.1,313.16,124.05,317.2,129.85,320.24z"/>
</g>
</svg>
