<svg width="48" height="48" viewBox="0 0 48 48" fill="none" xmlns="http://www.w3.org/2000/svg">
<g clip-path="url(#clip0_74_638)">
<path d="M43.42 32H43V29C42.9995 27.6741 42.4725 26.4026 41.535 25.4651C40.5974 24.5275 39.3259 24.0005 38 24H33V21.01C32.9992 20.2119 32.6818 19.4468 32.1175 18.8825C31.5532 18.3182 30.7881 18.0008 29.99 18H3.01C2.21194 18.0008 1.4468 18.3182 0.882486 18.8825C0.318173 19.4468 0.00079422 20.2119 0 21.01L0 44H5C4.99774 43.0001 5.2465 42.0156 5.72346 41.1368C6.20043 40.258 6.89036 39.513 7.73 38.97C8.63554 38.3814 9.68317 38.0481 10.7624 38.0053C11.8415 37.9625 12.9123 38.2119 13.8615 38.727C14.8108 39.242 15.6035 40.0038 16.1559 40.9319C16.7083 41.86 16.9999 42.92 17 44H29C29 42.4087 29.6321 40.8826 30.7574 39.7574C31.8826 38.6321 33.4087 38 35 38C36.5913 38 38.1174 38.6321 39.2426 39.7574C40.3679 40.8826 41 42.4087 41 44H46.47C46.6711 44.0008 46.8705 43.9618 47.0564 43.8852C47.2424 43.8085 47.4114 43.6959 47.5536 43.5536C47.6959 43.4114 47.8085 43.2424 47.8852 43.0564C47.9618 42.8705 48.0008 42.6711 48 42.47V36.58C48 35.3653 47.5175 34.2004 46.6586 33.3414C45.7996 32.4825 44.6347 32 43.42 32V32ZM40 32H33V27H37.11C37.4897 26.9993 37.8658 27.0736 38.2167 27.2186C38.5677 27.3636 38.8865 27.5765 39.155 27.845C39.4235 28.1135 39.6364 28.4323 39.7814 28.7833C39.9264 29.1342 40.0007 29.5103 40 29.89V32Z" fill="#011E41"/>
<path d="M11 39.9996C10.2089 39.9996 9.43552 40.2342 8.77772 40.6737C8.11992 41.1132 7.60723 41.738 7.30448 42.4689C7.00173 43.1998 6.92252 44.004 7.07686 44.78C7.2312 45.5559 7.61216 46.2686 8.17157 46.828C8.73098 47.3874 9.44371 47.7684 10.2196 47.9227C10.9956 48.0771 11.7998 47.9979 12.5307 47.6951C13.2616 47.3924 13.8864 46.8797 14.3259 46.2219C14.7654 45.5641 15 44.7907 15 43.9996C15.0015 43.4739 14.899 42.9531 14.6985 42.4672C14.498 41.9812 14.2034 41.5397 13.8317 41.1679C13.4599 40.7962 13.0184 40.5016 12.5324 40.3011C12.0465 40.1006 11.5257 39.9981 11 39.9996V39.9996ZM35 39.9996C34.2089 39.9996 33.4355 40.2342 32.7777 40.6737C32.1199 41.1132 31.6072 41.738 31.3045 42.4689C31.0017 43.1998 30.9225 44.004 31.0769 44.78C31.2312 45.5559 31.6122 46.2686 32.1716 46.828C32.731 47.3874 33.4437 47.7684 34.2196 47.9227C34.9956 48.0771 35.7998 47.9979 36.5307 47.6951C37.2616 47.3924 37.8864 46.8797 38.3259 46.2219C38.7654 45.5641 39 44.7907 39 43.9996C39.0013 43.4739 38.8988 42.9532 38.6982 42.4673C38.4977 41.9814 38.2031 41.5399 37.8314 41.1682C37.4597 40.7965 37.0182 40.5019 36.5323 40.3014C36.0464 40.1008 35.5257 39.9983 35 39.9996V39.9996ZM1.5 9.9996H42.752L38.402 14.3496C38.2579 14.4937 38.1435 14.6648 38.0655 14.8531C37.9875 15.0414 37.9474 15.2433 37.9474 15.4471C37.9474 15.6509 37.9875 15.8528 38.0655 16.0411C38.1435 16.2294 38.2579 16.4005 38.402 16.5446C38.5461 16.6887 38.7172 16.8031 38.9055 16.8811C39.0938 16.9591 39.2957 16.9992 39.4995 16.9992C39.7033 16.9992 39.9052 16.9591 40.0935 16.8811C40.2818 16.8031 40.4529 16.6887 40.597 16.5446L47.545 9.5976C47.6891 9.45348 47.8035 9.28238 47.8815 9.09407C47.9595 8.90576 47.9996 8.70393 47.9996 8.5001C47.9996 8.29627 47.9595 8.09444 47.8815 7.90613C47.8035 7.71782 47.6891 7.54672 47.545 7.4026L40.597 0.454599C40.4529 0.310474 40.2818 0.196147 40.0935 0.118147C39.9052 0.0401462 39.7033 0 39.4995 0C39.2957 0 39.0938 0.0401462 38.9055 0.118147C38.7172 0.196147 38.5461 0.310474 38.402 0.454599C38.2579 0.598725 38.1435 0.769827 38.0655 0.958137C37.9875 1.14645 37.9474 1.34827 37.9474 1.5521C37.9474 1.75592 37.9875 1.95775 38.0655 2.14606C38.1435 2.33437 38.2579 2.50547 38.402 2.6496L42.752 6.9996H1.5C1.10218 6.9996 0.720644 7.15763 0.43934 7.43894C0.158035 7.72024 0 8.10177 0 8.4996C0 8.89742 0.158035 9.27896 0.43934 9.56026C0.720644 9.84156 1.10218 9.9996 1.5 9.9996V9.9996Z" fill="#011E41"/>
</g>
<defs>
<clipPath id="clip0_74_638">
<rect width="48" height="48" fill="white"/>
</clipPath>
</defs>
</svg>
