<svg width="48" height="48" viewBox="0 0 48 48" fill="none" xmlns="http://www.w3.org/2000/svg">
<g clip-path="url(#clip0_74_466)">
<path d="M38.1012 32.12L37.9112 31.88C35.9236 35.391 32.6846 38.023 28.8412 39.25C28.261 39.4363 27.6699 39.5866 27.0712 39.7H27.0612C26.2898 39.8547 25.5073 39.9483 24.7212 39.98L25.2512 39.56C25.5742 39.3009 25.8087 38.948 25.9226 38.5498C26.0364 38.1517 26.0239 37.7281 25.8867 37.3374C25.7495 36.9468 25.4945 36.6083 25.1567 36.3687C24.819 36.1292 24.4152 36.0003 24.0012 36C23.5462 35.9979 23.1045 36.1533 22.7512 36.44L19.2112 39.27L17.7512 40.44C17.5177 40.6276 17.3291 40.8651 17.1994 41.135C17.0696 41.405 17.0019 41.7005 17.0012 42C17.0016 42.2756 17.0595 42.5481 17.1712 42.8C17.3049 43.0937 17.5032 43.3535 17.7512 43.56L22.7512 47.56C23.1045 47.8467 23.5462 48.0022 24.0012 48C24.4152 47.9997 24.819 47.8709 25.1567 47.6313C25.4945 47.3918 25.7495 47.0533 25.8867 46.6626C26.0239 46.2719 26.0364 45.8483 25.9226 45.4502C25.8087 45.0521 25.5742 44.6991 25.2512 44.44L24.6812 43.98C25.3675 43.9689 26.0524 43.9121 26.7312 43.81C27.2712 43.74 27.8112 43.64 28.3412 43.52C31.0533 42.9137 33.6096 41.7497 35.8476 40.1022C38.0857 38.4546 39.9565 36.3595 41.3412 33.95C40.0617 33.7923 38.8968 33.1343 38.1012 32.12V32.12ZM9.90018 15.88L10.0902 16.12C12.0777 12.6089 15.3167 9.977 19.1602 8.75002C19.7404 8.56373 20.3315 8.41344 20.9302 8.30002H20.9402C21.7116 8.14532 22.494 8.0517 23.2802 8.02002L22.7502 8.44002C22.4272 8.69913 22.1926 9.0521 22.0788 9.4502C21.965 9.84831 21.9775 10.2719 22.1147 10.6626C22.2519 11.0533 22.5069 11.3918 22.8446 11.6313C23.1824 11.8709 23.5861 11.9997 24.0002 12C24.4552 12.0022 24.8969 11.8467 25.2502 11.56L28.7902 8.73002L30.2502 7.56002C30.4837 7.37244 30.6722 7.13497 30.802 6.86503C30.9318 6.5951 30.9995 6.29953 31.0002 6.00002C30.9998 5.72444 30.9419 5.45197 30.8302 5.20002C30.6965 4.90628 30.4982 4.6465 30.2502 4.44002L25.2502 0.440022C24.8969 0.153337 24.4552 -0.00214059 24.0002 2.22647e-05C23.5861 0.000344874 23.1824 0.129173 22.8446 0.368728C22.5069 0.608283 22.2519 0.946755 22.1147 1.33743C21.9775 1.72811 21.965 2.15173 22.0788 2.54984C22.1926 2.94795 22.4272 3.30091 22.7502 3.56002L23.3202 4.02002C22.6338 4.03109 21.949 4.08788 21.2702 4.19002C20.7302 4.26002 20.1902 4.36002 19.6602 4.48002C16.9417 5.08679 14.3797 6.25396 12.1378 7.90695C9.89591 9.55994 8.0235 11.6624 6.64018 14.08C7.92226 14.2249 9.0946 14.8722 9.90018 15.88V15.88ZM8.75019 28.84C8.33115 27.5037 8.0858 26.119 8.02018 24.72L8.44018 25.25C8.62694 25.4844 8.86425 25.6737 9.13437 25.8035C9.40449 25.9334 9.70046 26.0006 10.0002 26C10.4552 26.0022 10.8969 25.8467 11.2502 25.56C11.6635 25.2282 11.9282 24.746 11.9863 24.2191C12.0445 23.6923 11.8912 23.164 11.5602 22.75L8.73018 19.21L7.56018 17.75C7.36907 17.5234 7.12995 17.3421 6.86014 17.2193C6.59033 17.0965 6.29659 17.0353 6.00019 17.04C5.72214 17.038 5.44656 17.0924 5.19019 17.2C4.89754 17.3167 4.63942 17.506 4.44019 17.75L0.440185 22.75C0.109173 23.164 -0.0440922 23.6923 0.0140265 24.2191C0.0721452 24.746 0.336899 25.2282 0.750185 25.56C1.1035 25.8467 1.5452 26.0022 2.00018 26C2.29991 26.0006 2.59588 25.9334 2.866 25.8035C3.13612 25.6737 3.37342 25.4844 3.56018 25.25L4.02018 24.68C4.03135 25.3664 4.08814 26.0512 4.19019 26.73C4.26019 27.27 4.36019 27.81 4.48019 28.34C5.08655 31.0521 6.25049 33.6084 7.89803 35.8465C9.54557 38.0845 11.6407 39.9553 14.0502 41.34C14.2079 40.0606 14.8659 38.8956 15.8802 38.1L16.1202 37.91C12.609 35.9226 9.97708 32.6835 8.75019 28.84V28.84ZM47.2502 22.44C46.8969 22.1533 46.4552 21.9979 46.0002 22C45.7005 21.9995 45.4045 22.0667 45.1344 22.1965C44.8642 22.3264 44.6269 22.5156 44.4402 22.75L43.9802 23.32C43.969 22.6337 43.9122 21.9488 43.8102 21.27C43.7402 20.73 43.6402 20.19 43.5202 19.66C42.9138 16.9479 41.7499 14.3916 40.1023 12.1536C38.4548 9.91555 36.3597 8.04473 33.9502 6.66002C33.7925 7.93947 33.1345 9.1044 32.1202 9.90002L31.8802 10.09C35.3913 12.0774 38.0233 15.3165 39.2502 19.16C39.6692 20.4964 39.9146 21.8811 39.9802 23.28L39.5602 22.75C39.3734 22.5156 39.1361 22.3264 38.866 22.1965C38.5959 22.0667 38.2999 21.9995 38.0002 22C37.5452 21.9979 37.1035 22.1533 36.7502 22.44C36.3369 22.7719 36.0721 23.2541 36.014 23.7809C35.9559 24.3077 36.1092 24.8361 36.4402 25.25L39.2702 28.79L40.4402 30.25C40.6278 30.4835 40.8652 30.6721 41.1352 30.8018C41.4051 30.9316 41.7007 30.9993 42.0002 31C42.2758 30.9996 42.5483 30.9417 42.8002 30.83C43.094 30.6964 43.3538 30.4981 43.5602 30.25L47.5602 25.25C47.8912 24.8361 48.0445 24.3077 47.9863 23.7809C47.9282 23.2541 47.6635 22.7719 47.2502 22.44V22.44Z" fill="#011E41"/>
</g>
<defs>
<clipPath id="clip0_74_466">
<rect width="48" height="48" fill="white"/>
</clipPath>
</defs>
</svg>
