<svg width="48" height="48" viewBox="0 0 48 48" fill="none" xmlns="http://www.w3.org/2000/svg">
<path d="M38 6H10C9.47005 6.00158 8.96227 6.2128 8.58753 6.58753C8.2128 6.96227 8.00158 7.47005 8 8V30H40V8C39.9984 7.47005 39.7872 6.96227 39.4125 6.58753C39.0377 6.2128 38.5299 6.00158 38 6V6ZM18 21C17.9992 21.265 17.8936 21.5189 17.7062 21.7062C17.5189 21.8936 17.265 21.9992 17 22H13C12.735 21.9992 12.4811 21.8936 12.2938 21.7062C12.1064 21.5189 12.0008 21.265 12 21V13C12.0008 12.735 12.1064 12.4811 12.2938 12.2938C12.4811 12.1064 12.735 12.0008 13 12H17C17.265 12.0008 17.5189 12.1064 17.7062 12.2938C17.8936 12.4811 17.9992 12.735 18 13V21ZM27 21C26.9992 21.265 26.8936 21.5189 26.7062 21.7062C26.5189 21.8936 26.265 21.9992 26 22H22C21.735 21.9992 21.4811 21.8936 21.2938 21.7062C21.1064 21.5189 21.0008 21.265 21 21V13C21.0008 12.735 21.1064 12.4811 21.2938 12.2938C21.4811 12.1064 21.735 12.0008 22 12H26C26.265 12.0008 26.5189 12.1064 26.7062 12.2938C26.8936 12.4811 26.9992 12.735 27 13V21ZM36 21C35.9992 21.265 35.8936 21.5189 35.7062 21.7062C35.5189 21.8936 35.265 21.9992 35 22H31C30.735 21.9992 30.4811 21.8936 30.2938 21.7062C30.1064 21.5189 30.0008 21.265 30 21V13C30.0008 12.735 30.1064 12.4811 30.2938 12.2938C30.4811 12.1064 30.735 12.0008 31 12H35C35.265 12.0008 35.5189 12.1064 35.7062 12.2938C35.8936 12.4811 35.9992 12.735 36 13V21ZM14 4H34C34.5304 4 35.0391 3.78929 35.4142 3.41421C35.7893 3.03914 36 2.53043 36 2C36 1.46957 35.7893 0.960859 35.4142 0.585786C35.0391 0.210714 34.5304 0 34 0L14 0C13.4696 0 12.9609 0.210714 12.5858 0.585786C12.2107 0.960859 12 1.46957 12 2C12 2.53043 12.2107 3.03914 12.5858 3.41421C12.9609 3.78929 13.4696 4 14 4V4ZM8 48H20V38C20.0016 37.4701 20.2128 36.9623 20.5875 36.5875C20.9623 36.2128 21.4701 36.0016 22 36H26C26.5299 36.0016 27.0377 36.2128 27.4125 36.5875C27.7872 36.9623 27.9984 37.4701 28 38V48H40V32H8V48Z" fill="#011E41"/>
</svg>
