<svg width="49" height="48" viewBox="0 0 49 48" fill="none" xmlns="http://www.w3.org/2000/svg">
<g clip-path="url(#clip0_1465_5608)">
<path d="M18.0011 21.9979C19.0497 21.9999 20.0885 21.7953 21.058 21.3958C22.0275 20.9964 22.9089 20.4099 23.6518 19.6698C24.3947 18.9297 24.9845 18.0505 25.3876 17.0825C25.7907 16.1145 25.9992 15.0765 26.0011 14.0279C26.0011 10.0479 19.4511 1.64791 18.2011 0.0979124C18.1774 0.067563 18.147 0.0430189 18.1124 0.0261396C18.0777 0.00926021 18.0397 0.000488281 18.0011 0.000488281C17.9626 0.000488281 17.9246 0.00926021 17.8899 0.0261396C17.8553 0.0430189 17.8249 0.067563 17.8011 0.0979124C16.5511 1.64791 10.0011 10.0479 10.0011 14.0279C10.0031 15.0765 10.2116 16.1145 10.6147 17.0825C11.0178 18.0505 11.6076 18.9297 12.3505 19.6698C13.0934 20.4099 13.9747 20.9964 14.9443 21.3958C15.9138 21.7953 16.9525 21.9999 18.0011 21.9979V21.9979ZM39.0011 28.9979H25.5011C24.5743 29.0024 23.6866 29.3726 23.0312 30.028C22.3758 30.6834 22.0056 31.571 22.0011 32.4979C22.0022 33.4258 22.3713 34.3155 23.0274 34.9716C23.6836 35.6278 24.5732 35.9969 25.5011 35.9979H31.0011C31.5304 36.0018 32.0368 36.2138 32.411 36.588C32.7852 36.9623 32.9972 37.4687 33.0011 37.9979C32.9996 38.5279 32.7883 39.0356 32.4136 39.4104C32.0389 39.7851 31.5311 39.9963 31.0011 39.9979H22.0011C21.4138 39.9927 20.8471 39.7802 20.4011 39.3979L6.81114 26.1679C6.41426 25.7727 5.93909 25.4648 5.41616 25.2641C4.89324 25.0635 4.33411 24.9744 3.77471 25.0026C3.21531 25.0309 2.66801 25.1758 2.16796 25.4282C1.66791 25.6805 1.22618 26.0347 0.871139 26.4679C0.247456 27.2699 -0.0577285 28.2742 0.0142638 29.2876C0.086256 30.3011 0.530342 31.2521 1.26114 31.9579L16.4911 46.8279C17.2422 47.5775 18.26 47.9983 19.3211 47.9979H39.0011C41.3881 47.9979 43.6773 47.0497 45.3651 45.3619C47.0529 43.674 48.0011 41.3849 48.0011 38.9979V37.9979C48.0011 35.611 47.0529 33.3218 45.3651 31.634C43.6773 29.9461 41.3881 28.9979 39.0011 28.9979V28.9979Z" fill="#011E41"/>
</g>
<defs>
<clipPath id="clip0_1465_5608">
<rect width="48.002" height="47.998" fill="white"/>
</clipPath>
</defs>
</svg>
