<svg width="48" height="48" viewBox="0 0 48 48" fill="none" xmlns="http://www.w3.org/2000/svg">
<g clip-path="url(#clip0_109_2969)">
<path d="M10.2667 21.8H5.86667C5.09619 21.7998 4.33323 21.9514 3.62136 22.2462C2.9095 22.5409 2.26269 22.9731 1.71788 23.5179C1.17307 24.0627 0.740941 24.7095 0.446181 25.4214C0.151422 26.1332 -0.000192508 26.8962 1.83442e-07 27.6667V46.7333C0.00116085 47.122 0.156057 47.4943 0.430859 47.7691C0.705661 48.0439 1.07804 48.1988 1.46667 48.2H20.5333C20.922 48.1988 21.2943 48.0439 21.5691 47.7691C21.8439 47.4943 21.9988 47.122 22 46.7333V33.5333C22.0004 31.9924 21.6972 30.4665 21.1076 29.0427C20.5181 27.619 19.6539 26.3254 18.5642 25.2358C17.4746 24.1461 16.181 23.2819 14.7573 22.6924C13.3335 22.1028 11.8076 21.7996 10.2667 21.8ZM19.0667 38.3C19.0667 38.7862 18.8735 39.2525 18.5297 39.5964C18.1859 39.9402 17.7196 40.1333 17.2333 40.1333C16.7471 40.1333 16.2808 39.9402 15.937 39.5964C15.5932 39.2525 15.4 38.7862 15.4 38.3V31.7C15.4 31.2138 15.5932 30.7475 15.937 30.4036C16.2808 30.0598 16.7471 29.8667 17.2333 29.8667C17.7196 29.8667 18.1859 30.0598 18.5297 30.4036C18.8735 30.7475 19.0667 31.2138 19.0667 31.7V38.3ZM3.3 20.3333H12.1C12.3917 20.3333 12.6715 20.2174 12.8778 20.0112C13.0841 19.8049 13.2 19.5251 13.2 19.2333C13.2 18.9416 13.0841 18.6618 12.8778 18.4555C12.6715 18.2492 12.3917 18.1333 12.1 18.1333H11.7333V14.4667C11.7333 14.0777 11.5788 13.7046 11.3038 13.4296C11.0287 13.1545 10.6557 13 10.2667 13H5.13333C4.74435 13 4.3713 13.1545 4.09624 13.4296C3.82119 13.7046 3.66667 14.0777 3.66667 14.4667V18.1333H3.3C3.00826 18.1333 2.72847 18.2492 2.52218 18.4555C2.31589 18.6618 2.2 18.9416 2.2 19.2333C2.2 19.5251 2.31589 19.8049 2.52218 20.0112C2.72847 20.2174 3.00826 20.3333 3.3 20.3333Z" fill="#011E41"/>
<path d="M44 35.5H42.96C42.8412 34.667 42.4259 33.9048 41.7903 33.3534C41.1547 32.802 40.3415 32.4984 39.5 32.4984C38.6585 32.4984 37.8453 32.802 37.2097 33.3534C36.5741 33.9048 36.1588 34.667 36.04 35.5H28C26.9401 35.503 25.9244 35.9254 25.1749 36.6749C24.4254 37.4244 24.003 38.4401 24 39.5V44C24.0032 45.0599 24.4256 46.0755 25.1751 46.8249C25.9245 47.5744 26.9401 47.9968 28 48H44C45.0599 47.9968 46.0755 47.5744 46.8249 46.8249C47.5744 46.0755 47.9968 45.0599 48 44V39.5C47.997 38.4401 47.5746 37.4244 46.8251 36.6749C46.0756 35.9254 45.0599 35.503 44 35.5ZM37.565 35.5C37.6754 35.0707 37.9255 34.6904 38.2758 34.4188C38.6261 34.1472 39.0567 33.9998 39.5 33.9998C39.9433 33.9998 40.3739 34.1472 40.7242 34.4188C41.0745 34.6904 41.3246 35.0707 41.435 35.5C41.4796 35.6629 41.5015 35.8311 41.5 36C41.5 36.5304 41.2893 37.0391 40.9142 37.4142C40.5391 37.7893 40.0304 38 39.5 38C38.9696 38 38.4609 37.7893 38.0858 37.4142C37.7107 37.0391 37.5 36.5304 37.5 36C37.4985 35.8311 37.5204 35.6629 37.565 35.5ZM34.25 42C33.9039 42 33.5655 41.8974 33.2778 41.7051C32.99 41.5128 32.7657 41.2395 32.6332 40.9197C32.5008 40.5999 32.4661 40.2481 32.5336 39.9086C32.6011 39.5691 32.7678 39.2573 33.0126 39.0126C33.2573 38.7678 33.5691 38.6012 33.9086 38.5336C34.2481 38.4661 34.5999 38.5008 34.9197 38.6332C35.2395 38.7657 35.5128 38.99 35.7051 39.2778C35.8974 39.5655 36 39.9039 36 40.25C35.9995 40.714 35.8149 41.1588 35.4869 41.4869C35.1588 41.8149 34.714 41.9995 34.25 42ZM33.25 32.5C34.0906 32.5 34.9123 32.2507 35.6112 31.7837C36.3101 31.3168 36.8548 30.653 37.1765 29.8764C37.4982 29.0998 37.5823 28.2453 37.4183 27.4209C37.2544 26.5964 36.8496 25.8392 36.2552 25.2448C35.6608 24.6504 34.9036 24.2457 34.0791 24.0817C33.2547 23.9177 32.4002 24.0018 31.6236 24.3235C30.847 24.6452 30.1833 25.1899 29.7163 25.8888C29.2493 26.5877 29 27.4094 29 28.25C29.0008 29.3769 29.4488 30.4575 30.2457 31.2543C31.0425 32.0512 32.1231 32.4992 33.25 32.5ZM33.25 25.5C33.7939 25.5 34.3256 25.6613 34.7778 25.9635C35.2301 26.2656 35.5825 26.6951 35.7907 27.1976C35.9988 27.7001 36.0533 28.2531 35.9472 28.7865C35.8411 29.3199 35.5791 29.81 35.1945 30.1945C34.8099 30.5791 34.3199 30.8411 33.7865 30.9472C33.253 31.0533 32.7001 30.9988 32.1976 30.7907C31.6951 30.5825 31.2656 30.2301 30.9635 29.7778C30.6613 29.3256 30.5 28.7939 30.5 28.25C30.4998 27.8888 30.5708 27.5311 30.7089 27.1974C30.8471 26.8637 31.0496 26.5604 31.305 26.305C31.5604 26.0496 31.8637 25.8471 32.1974 25.7089C32.5311 25.5708 32.8888 25.4998 33.25 25.5Z" fill="#011E41"/>
</g>
<defs>
<clipPath id="clip0_109_2969">
<rect width="48" height="48" fill="white"/>
</clipPath>
</defs>
</svg>
