<svg width="48" height="48" viewBox="0 0 48 48" fill="none" xmlns="http://www.w3.org/2000/svg">
<path d="M24.0012 0C15.1368 0 7.95703 7.62099 7.95703 17.0068C7.95703 25.0891 19.8197 42.7477 23.1489 47.5409C23.2419 47.682 23.3684 47.7978 23.5172 47.8779C23.6659 47.9581 23.8323 48 24.0012 48C24.1702 48 24.3365 47.9581 24.4853 47.8779C24.634 47.7978 24.7606 47.682 24.8536 47.5409C28.1827 42.7477 40.0454 25.0891 40.0454 17.0068C40.0454 7.62099 32.8656 0 24.0012 0Z" fill="#011E41"/>
<circle cx="24" cy="16" r="12" fill="url(#paint0_linear)"/>
<path d="M22.1969 10.5688C22.1407 10.5247 22.0714 10.5008 22 10.5008C21.9286 10.5008 21.8593 10.5247 21.8031 10.5688L17.1156 14.4688C17.0795 14.4983 17.0504 14.5354 17.0304 14.5776C17.0104 14.6198 17 14.6658 17 14.7125V23H27V14.7125C27 14.6658 26.9896 14.6198 26.9696 14.5776C26.9496 14.5354 26.9205 14.4983 26.8844 14.4688L22.1969 10.5688ZM24.1875 18.3125H22.9375V19.5625C22.9375 19.8111 22.8387 20.0496 22.6629 20.2254C22.4871 20.4012 22.2486 20.5 22 20.5C21.7514 20.5 21.5129 20.4012 21.3371 20.2254C21.1613 20.0496 21.0625 19.8111 21.0625 19.5625V18.3125H19.8125C19.5639 18.3125 19.3254 18.2137 19.1496 18.0379C18.9738 17.8621 18.875 17.6236 18.875 17.375C18.875 17.1264 18.9738 16.8879 19.1496 16.7121C19.3254 16.5363 19.5639 16.4375 19.8125 16.4375H21.0625V15.1875C21.0625 14.9389 21.1613 14.7004 21.3371 14.5246C21.5129 14.3488 21.7514 14.25 22 14.25C22.2486 14.25 22.4871 14.3488 22.6629 14.5246C22.8387 14.7004 22.9375 14.9389 22.9375 15.1875V16.4375H24.1875C24.4361 16.4375 24.6746 16.5363 24.8504 16.7121C25.0262 16.8879 25.125 17.1264 25.125 17.375C25.125 17.6236 25.0262 17.8621 24.8504 18.0379C24.6746 18.2137 24.4361 18.3125 24.1875 18.3125ZM28.5625 8.625V8.46875C28.5625 8.34443 28.5131 8.2252 28.4252 8.13729C28.3373 8.04939 28.2181 8 28.0938 8C27.9694 8 27.8502 8.04939 27.7623 8.13729C27.6744 8.2252 27.625 8.34443 27.625 8.46875V23H28.5625V11.125H32V8.625H28.5625Z" fill="#011E41"/>
<defs>
<linearGradient id="paint0_linear" x1="24" y1="4" x2="24" y2="28" gradientUnits="userSpaceOnUse">
<stop offset="0.9995" stop-color="white"/>
<stop offset="0.9996" stop-color="white" stop-opacity="0.814583"/>
<stop offset="0.9997" stop-color="white" stop-opacity="0.992595"/>
<stop offset="0.9998" stop-color="white" stop-opacity="0.996734"/>
<stop offset="0.9999" stop-color="white"/>
<stop offset="1" stop-color="white" stop-opacity="0"/>
<stop offset="1" stop-color="white" stop-opacity="0"/>
<stop offset="1" stop-color="white" stop-opacity="0"/>
</linearGradient>
</defs>
</svg>
