<svg width="48" height="48" viewBox="0 0 48 48" fill="none" xmlns="http://www.w3.org/2000/svg">
<path d="M24.0442 0C15.1798 0 8 7.62099 8 17.0068C8 25.0891 19.8627 42.7477 23.1918 47.5409C23.2848 47.682 23.4114 47.7978 23.5601 47.8779C23.7089 47.9581 23.8752 48 24.0442 48C24.2132 48 24.3795 47.9581 24.5282 47.8779C24.677 47.7978 24.8036 47.682 24.8965 47.5409C28.2257 42.7477 40.0884 25.0891 40.0884 17.0068C40.0884 7.62099 32.9086 0 24.0442 0Z" fill="#011E41"/>
<circle cx="24" cy="16" r="12" fill="url(#paint0_linear)"/>
<path d="M27.7222 8C27.3539 8 27.0006 8.1317 26.7401 8.36612C26.4797 8.60054 26.3333 8.91848 26.3333 9.25V14.25H20.7778V9.25C20.7778 8.91848 20.6314 8.60054 20.371 8.36612C20.1105 8.1317 19.7572 8 19.3889 8C19.0205 8 18.6673 8.1317 18.4068 8.36612C18.1463 8.60054 18 8.91848 18 9.25V21.75C18 22.0815 18.1463 22.3995 18.4068 22.6339C18.6673 22.8683 19.0205 23 19.3889 23C19.7572 23 20.1105 22.8683 20.371 22.6339C20.6314 22.3995 20.7778 22.0815 20.7778 21.75V16.75H26.3333V21.75C26.3333 22.0815 26.4797 22.3995 26.7401 22.6339C27.0006 22.8683 27.3539 23 27.7222 23C28.0906 23 28.4438 22.8683 28.7043 22.6339C28.9648 22.3995 29.1111 22.0815 29.1111 21.75V9.25C29.1111 8.91848 28.9648 8.60054 28.7043 8.36612C28.4438 8.1317 28.0906 8 27.7222 8V8Z" fill="#011E41"/>
<defs>
<linearGradient id="paint0_linear" x1="24" y1="4" x2="24" y2="28" gradientUnits="userSpaceOnUse">
<stop offset="0.9995" stop-color="white"/>
<stop offset="0.9996" stop-color="white" stop-opacity="0.814583"/>
<stop offset="0.9997" stop-color="white" stop-opacity="0.992595"/>
<stop offset="0.9998" stop-color="white" stop-opacity="0.996734"/>
<stop offset="0.9999" stop-color="white"/>
<stop offset="1" stop-color="white" stop-opacity="0"/>
<stop offset="1" stop-color="white" stop-opacity="0"/>
<stop offset="1" stop-color="white" stop-opacity="0"/>
</linearGradient>
</defs>
</svg>
