<svg width="48" height="48" viewBox="0 0 48 48" fill="none" xmlns="http://www.w3.org/2000/svg">
<path d="M24.0012 0C15.1368 0 7.95703 7.62099 7.95703 17.0068C7.95703 25.0891 19.8197 42.7477 23.1489 47.5409C23.2419 47.682 23.3684 47.7978 23.5172 47.8779C23.6659 47.9581 23.8323 48 24.0012 48C24.1702 48 24.3365 47.9581 24.4853 47.8779C24.634 47.7978 24.7606 47.682 24.8536 47.5409C28.1827 42.7477 40.0454 25.0891 40.0454 17.0068C40.0454 7.62099 32.8656 0 24.0012 0Z" fill="#011E41"/>
<circle cx="24" cy="16" r="12" fill="url(#paint0_linear)"/>
<path d="M24.2629 6.08756C24.2417 6.0603 24.2145 6.03824 24.1835 6.02306C24.1524 6.00789 24.1183 6 24.0838 6C24.0492 6 24.0151 6.00789 23.984 6.02306C23.953 6.03824 23.9258 6.0603 23.9046 6.08756C22.8046 7.50422 17.0004 15.1334 17.0004 18.7542C16.9793 20.6542 17.7136 22.4849 19.0419 23.8436C20.3702 25.2024 22.1837 25.978 24.0838 26C25.9838 25.978 27.7973 25.2024 29.1256 23.8436C30.4539 22.4849 31.1882 20.6542 31.1671 18.7542C31.1671 15.1334 25.3629 7.50422 24.2629 6.08756ZM25.9587 23.0833C25.793 23.0833 25.634 23.0175 25.5168 22.9003C25.3996 22.7831 25.3338 22.6241 25.3338 22.4583C25.3338 22.2926 25.3996 22.1336 25.5168 22.0164C25.634 21.8992 25.793 21.8333 25.9587 21.8333C26.9921 21.8333 27.8337 20.8042 27.8337 19.5417C27.8337 19.3759 27.8996 19.217 28.0168 19.0997C28.134 18.9825 28.293 18.9167 28.4587 18.9167C28.6245 18.9167 28.7835 18.9825 28.9007 19.0997C29.0179 19.217 29.0837 19.3759 29.0837 19.5417C29.0837 21.4958 27.6837 23.0833 25.9587 23.0833Z" fill="#011E41"/>
<defs>
<linearGradient id="paint0_linear" x1="24" y1="4" x2="24" y2="28" gradientUnits="userSpaceOnUse">
<stop offset="0.9995" stop-color="white"/>
<stop offset="0.9996" stop-color="white" stop-opacity="0.814583"/>
<stop offset="0.9997" stop-color="white" stop-opacity="0.992595"/>
<stop offset="0.9998" stop-color="white" stop-opacity="0.996734"/>
<stop offset="0.9999" stop-color="white"/>
<stop offset="1" stop-color="white" stop-opacity="0"/>
<stop offset="1" stop-color="white" stop-opacity="0"/>
<stop offset="1" stop-color="white" stop-opacity="0"/>
</linearGradient>
</defs>
</svg>
