<svg width="48" height="48" viewBox="0 0 48 48" fill="none" xmlns="http://www.w3.org/2000/svg">
<path d="M24.0012 0C15.1368 0 7.95703 7.62099 7.95703 17.0068C7.95703 25.0891 19.8197 42.7477 23.1489 47.5409C23.2419 47.682 23.3684 47.7978 23.5172 47.8779C23.6659 47.9581 23.8323 48 24.0012 48C24.1702 48 24.3365 47.9581 24.4853 47.8779C24.634 47.7978 24.7606 47.682 24.8536 47.5409C28.1827 42.7477 40.0454 25.0891 40.0454 17.0068C40.0454 7.62099 32.8656 0 24.0012 0Z" fill="#011E41"/>
<circle cx="24" cy="16" r="12" fill="url(#paint0_linear)"/>
<path fill-rule="evenodd" clip-rule="evenodd" d="M22 18V24H26V18H32V14H26V8H22V14H16V18H22Z" fill="#F5333F"/>
<defs>
<linearGradient id="paint0_linear" x1="24" y1="4" x2="24" y2="28" gradientUnits="userSpaceOnUse">
<stop offset="0.9995" stop-color="white"/>
<stop offset="0.9996" stop-color="white" stop-opacity="0.814583"/>
<stop offset="0.9997" stop-color="white" stop-opacity="0.992595"/>
<stop offset="0.9998" stop-color="white" stop-opacity="0.996734"/>
<stop offset="0.9999" stop-color="white"/>
<stop offset="1" stop-color="white" stop-opacity="0"/>
<stop offset="1" stop-color="white" stop-opacity="0"/>
<stop offset="1" stop-color="white" stop-opacity="0"/>
</linearGradient>
</defs>
</svg>
