<svg width="48" height="48" viewBox="0 0 48 48" fill="none" xmlns="http://www.w3.org/2000/svg">
<path d="M24.0442 0C15.1798 0 8 7.62099 8 17.0068C8 25.0891 19.8627 42.7477 23.1918 47.5409C23.2848 47.682 23.4114 47.7978 23.5601 47.8779C23.7089 47.9581 23.8752 48 24.0442 48C24.2132 48 24.3795 47.9581 24.5282 47.8779C24.677 47.7978 24.8036 47.682 24.8965 47.5409C28.2257 42.7477 40.0884 25.0891 40.0884 17.0068C40.0884 7.62099 32.9086 0 24.0442 0Z" fill="#011E41"/>
<circle cx="24" cy="16" r="12" fill="url(#paint0_linear)"/>
<path d="M24.3628 7.086C24.3004 7.0306 24.2199 7 24.1365 7C24.053 7 23.9725 7.0306 23.9101 7.086L18.1118 12.3528C18.0766 12.3847 18.0485 12.4237 18.0292 12.4671C18.01 12.5106 18 12.5575 18 12.6051V22H30.2729V12.6054C30.2729 12.5579 30.2629 12.5109 30.2437 12.4675C30.2244 12.424 30.1963 12.3851 30.1611 12.3531L24.3628 7.086ZM26.5229 16.8863H25.1592V18.2499C25.1592 18.5212 25.0515 18.7813 24.8597 18.9731C24.6679 19.1649 24.4077 19.2727 24.1365 19.2727C23.8652 19.2727 23.6051 19.1649 23.4133 18.9731C23.2215 18.7813 23.1137 18.5212 23.1137 18.2499V16.8863H21.7501C21.4788 16.8863 21.2187 16.7785 21.0269 16.5867C20.8351 16.3949 20.7273 16.1348 20.7273 15.8635C20.7273 15.5923 20.8351 15.3321 21.0269 15.1403C21.2187 14.9485 21.4788 14.8408 21.7501 14.8408H23.1137V13.4771C23.1137 13.2059 23.2215 12.9457 23.4133 12.7539C23.6051 12.5621 23.8652 12.4544 24.1365 12.4544C24.4077 12.4544 24.6679 12.5621 24.8597 12.7539C25.0515 12.9457 25.1592 13.2059 25.1592 13.4771V14.8408H26.5229C26.7941 14.8408 27.0543 14.9485 27.2461 15.1403C27.4379 15.3321 27.5456 15.5923 27.5456 15.8635C27.5456 16.1348 27.4379 16.3949 27.2461 16.5867C27.0543 16.7785 26.7941 16.8863 26.5229 16.8863V16.8863Z" fill="#011E41"/>
<defs>
<linearGradient id="paint0_linear" x1="24" y1="4" x2="24" y2="28" gradientUnits="userSpaceOnUse">
<stop offset="0.9995" stop-color="white"/>
<stop offset="0.9996" stop-color="white" stop-opacity="0.814583"/>
<stop offset="0.9997" stop-color="white" stop-opacity="0.992595"/>
<stop offset="0.9998" stop-color="white" stop-opacity="0.996734"/>
<stop offset="0.9999" stop-color="white"/>
<stop offset="1" stop-color="white" stop-opacity="0"/>
<stop offset="1" stop-color="white" stop-opacity="0"/>
<stop offset="1" stop-color="white" stop-opacity="0"/>
</linearGradient>
</defs>
</svg>
