<svg width="48" height="48" viewBox="0 0 48 48" fill="none" xmlns="http://www.w3.org/2000/svg">
<path d="M45.6696 12.6685C45.6441 12.4692 45.5787 12.277 45.4773 12.1035C45.3759 11.93 45.2407 11.7787 45.0796 11.6585L30.4996 0.338536C30.2122 0.119566 29.8609 0.000976563 29.4996 0.000976562C29.1383 0.000976563 28.787 0.119566 28.4996 0.338536L13.9196 11.6585C13.7585 11.7787 13.6232 11.93 13.5218 12.1035C13.4205 12.277 13.3551 12.4692 13.3296 12.6685L12.5596 18.3685L15.6596 15.9685C16.4728 15.3398 17.4716 14.9987 18.4996 14.9987C19.5275 14.9987 20.5264 15.3398 21.3396 15.9685L26.9996 20.3685L28.9996 21.9185L31.6896 24.0085L32.9696 24.9985L35.8896 27.2685C36.7795 27.9323 37.3865 28.9071 37.5896 29.9985H47.9996L45.6696 12.6685Z" fill="#011E41"/>
<path d="M34.08 29.6581L29 25.7181L28.08 24.9981L27 24.1581L19.5 18.3381C19.2143 18.1158 18.862 17.996 18.5 17.9981C18.1377 17.9944 17.785 18.1144 17.5 18.3381L11.99 22.6181L2.92 29.6581C2.7589 29.7783 2.62364 29.9296 2.52227 30.1031C2.42091 30.2766 2.35552 30.4688 2.33 30.6681L0 47.9981H18V38.2881C18.0003 38.2493 18.0083 38.2109 18.0235 38.1751C18.0388 38.1394 18.0611 38.1071 18.089 38.0801C18.117 38.0531 18.15 38.0319 18.1863 38.0178C18.2225 38.0038 18.2612 37.9971 18.3 37.9981C18.3527 37.9983 18.4043 38.0122 18.45 38.0385C18.4956 38.0649 18.5335 38.1026 18.56 38.1481L24 47.9981H37L34.67 30.6681C34.6445 30.4688 34.5791 30.2766 34.4777 30.1031C34.3764 29.9296 34.2411 29.7783 34.08 29.6581Z" fill="#011E41"/>
</svg>
