<svg width="50" height="92" viewBox="0 0 50 92" fill="none" xmlns="http://www.w3.org/2000/svg">
<path d="M0 0H50V92H0V0Z" fill="#011E41"/>
<path d="M25.904 69.363H25.034V66.95H25.904V69.363ZM29.827 58.724H28.957V56.31H29.827V58.724ZM13.712 54.562C13.646 54.562 13.196 54.563 13.196 54.656C13.196 54.749 13.406 54.701 13.712 54.753C14.408 54.873 14.682 55.223 15.172 55.223C15.615 55.223 16.068 54.921 15.892 54.279C15.862 54.172 15.8 54.197 15.786 54.27C15.718 54.557 15.366 54.721 14.995 54.721C14.535 54.721 14.436 54.561 13.712 54.561V54.562ZM8.91997 56.973C8.99597 57.08 9.81697 58.145 8.55697 58.552C8.50097 58.571 8.48197 58.625 8.56597 58.661C9.49597 59.049 9.94797 58.334 9.94797 58.334C10.416 59.406 9.69797 60.001 9.69797 60.001C9.79897 60.194 10.244 60.517 10.92 60.668C11.176 60.531 11.536 60.268 11.686 59.865C11.686 59.865 11.868 60.333 11.702 60.78C13.604 60.953 14.277 59.433 15.742 59.706C15.785 59.714 15.804 59.687 15.804 59.642C15.804 58.705 15.23 56.991 13.416 56.643C11.607 56.294 12.094 55.551 12.094 55.551C12.857 55.517 13.297 55.849 13.297 55.849C13.437 55.62 13.24 55.374 13.24 55.374C13.313 55.286 13.354 54.976 13.354 54.976C12.494 54.974 12.269 54.79 12.269 54.79C12.137 54.28 12.491 53.56 13.767 54.331C14.085 54.047 14.061 53.615 14.061 53.615C14.158 53.57 14.217 53.418 14.217 53.354C14.217 53.141 13.197 52.57 12.935 52.502C12.872 52.192 12.476 51.747 11.277 51.908C10.71 51.978 10.301 51.829 10.492 51.499C10.524 51.443 10.422 51.433 10.37 51.487C10.238 51.618 10.057 51.989 10.554 52.237C11.104 52.517 11.137 53.068 11.141 53.147C11.151 53.265 11.01 53.275 10.979 53.158C10.725 52.228 9.45297 52.027 8.69897 52.522C8.74397 53.02 9.27997 53.349 9.57397 53.349C9.74297 53.349 9.97697 53.181 9.97697 52.949C9.97697 52.836 10.035 52.851 10.068 52.939C10.193 53.269 9.70297 53.954 8.97397 53.538C8.23297 54.279 8.52897 55.193 8.60297 55.53C8.73597 56.135 8.43997 56.721 7.89497 56.448C7.86697 56.435 7.83897 56.424 7.83897 56.489C7.83897 56.87 8.33497 57.299 8.91897 56.973H8.91997ZM13.003 53.235C12.657 53.621 12.093 53.533 11.958 52.895C12.668 52.859 12.974 52.93 13.003 53.235ZM35.072 54.721C34.7 54.721 34.349 54.557 34.281 54.271C34.266 54.197 34.203 54.171 34.175 54.279C33.999 54.921 34.452 55.222 34.895 55.222C35.385 55.222 35.659 54.872 36.355 54.752C36.661 54.702 36.87 54.749 36.87 54.656C36.87 54.563 36.42 54.562 36.354 54.562C35.63 54.562 35.531 54.722 35.072 54.722V54.721ZM42.227 56.489C42.227 56.424 42.2 56.435 42.172 56.449C41.627 56.721 41.332 56.135 41.464 55.53C41.538 55.193 41.834 54.28 41.093 53.538C40.363 53.954 39.873 53.27 39.998 52.938C40.032 52.851 40.089 52.836 40.089 52.948C40.089 53.181 40.323 53.349 40.492 53.349C40.786 53.349 41.322 53.02 41.367 52.522C40.614 52.027 39.342 52.227 39.088 53.158C39.057 53.275 38.916 53.265 38.925 53.148C38.93 53.068 38.963 52.516 39.513 52.238C40.009 51.988 39.828 51.618 39.697 51.488C39.643 51.433 39.542 51.443 39.574 51.499C39.766 51.829 39.357 51.978 38.79 51.908C37.59 51.747 37.195 52.193 37.132 52.502C36.869 52.57 35.85 53.142 35.85 53.354C35.85 53.418 35.91 53.57 36.006 53.614C36.006 53.614 35.982 54.047 36.3 54.331C37.575 53.561 37.929 54.281 37.798 54.791C37.798 54.791 37.572 54.974 36.713 54.976C36.713 54.976 36.753 55.286 36.827 55.374C36.827 55.374 36.63 55.62 36.77 55.849C36.77 55.849 37.21 55.517 37.973 55.551C37.973 55.551 38.46 56.294 36.65 56.643C34.837 56.991 34.263 58.705 34.263 59.643C34.263 59.687 34.282 59.714 34.324 59.706C35.79 59.433 36.462 60.953 38.364 60.78C38.199 60.333 38.381 59.865 38.381 59.865C38.531 60.269 38.891 60.531 39.147 60.668C39.822 60.517 40.267 60.194 40.368 60.001C40.368 60.001 39.651 59.406 40.119 58.334C40.119 58.334 40.57 59.049 41.501 58.661C41.585 58.625 41.565 58.571 41.511 58.552C40.249 58.145 41.071 57.08 41.147 56.973C41.732 57.3 42.227 56.87 42.227 56.489V56.489ZM38.109 52.896C37.973 53.533 37.409 53.621 37.064 53.236C37.093 52.93 37.398 52.859 38.109 52.896ZM24.7 42.212C24.7 42.372 24.77 42.513 24.824 42.592C24.936 42.751 24.919 42.838 24.866 42.892C24.814 42.945 24.726 42.962 24.566 42.85C24.4546 42.7715 24.3222 42.7283 24.186 42.726C23.912 42.726 23.776 42.906 23.776 43.06C23.776 43.214 23.912 43.394 24.186 43.394C24.347 43.394 24.487 43.325 24.566 43.269C24.726 43.159 24.814 43.175 24.866 43.229C24.919 43.28 24.841 43.832 24.78 44.266C24.326 44.361 24.107 44.725 24.107 44.936C24.107 45.483 24.691 45.799 25.034 45.982C25.377 45.799 25.962 45.483 25.962 44.937C25.962 44.725 25.742 44.361 25.289 44.266C25.227 43.832 25.149 43.28 25.202 43.228C25.255 43.175 25.342 43.158 25.502 43.269C25.6132 43.3478 25.7456 43.3914 25.882 43.394C26.156 43.394 26.292 43.214 26.292 43.06C26.292 42.906 26.156 42.726 25.882 42.726C25.7457 42.7283 25.6134 42.7715 25.502 42.85C25.342 42.962 25.255 42.945 25.202 42.891C25.15 42.838 25.132 42.751 25.244 42.591C25.3222 42.4798 25.3657 42.3479 25.369 42.212C25.369 41.938 25.189 41.802 25.034 41.802C24.88 41.802 24.7 41.938 24.7 42.212V42.212ZM25.034 46.272C24.8573 46.2717 24.6878 46.3417 24.5627 46.4664C24.4377 46.5911 24.3672 46.7604 24.367 46.937C24.3667 47.1136 24.4366 47.2831 24.5613 47.4082C24.686 47.5333 24.8553 47.6037 25.032 47.604C25.204 47.5976 25.3669 47.5248 25.4865 47.4009C25.606 47.277 25.6729 47.1116 25.6732 46.9395C25.6734 46.7673 25.607 46.6017 25.4878 46.4775C25.3687 46.3532 25.206 46.2799 25.034 46.273V46.272ZM25.034 52.684C27.703 52.684 29.208 53.193 29.208 53.193C29.223 51.845 29.214 51.093 29.987 51.206C29.564 50.073 31.385 49.629 31.385 48.152C31.385 47.18 30.697 47.07 30.495 47.07C29.89 47.07 29.985 47.462 29.471 47.462C29.407 47.462 29.341 47.447 29.341 47.493C29.341 47.663 29.486 47.953 29.721 47.953C30.037 47.953 30.044 47.638 30.278 47.638C30.38 47.638 30.525 47.72 30.525 48.044C30.525 48.671 30.115 49.367 29.629 49.906C29.517 49.752 29.365 49.656 29.184 49.656C28.897 49.656 28.644 49.956 28.644 50.326C28.6417 50.4472 28.6662 50.5674 28.716 50.678C28.554 50.768 28.41 50.82 28.302 50.82C28.083 50.82 27.753 50.731 27.753 50.25C27.753 49.182 29.187 48.24 29.187 46.884C29.187 46.237 28.755 45.592 27.851 45.592C26.882 45.592 27.063 46.477 26.224 46.477C26.186 46.477 26.155 46.489 26.155 46.523C26.155 46.579 26.301 47.069 26.735 47.069C27.199 47.069 27.329 46.266 27.74 46.266C27.894 46.266 28.123 46.356 28.123 46.9C28.123 47.323 27.913 48.006 27.613 48.662C27.5584 48.6042 27.4929 48.5578 27.4203 48.5253C27.3477 48.4929 27.2694 48.4751 27.19 48.473C26.83 48.473 26.573 48.821 26.573 49.236C26.5713 49.3629 26.5953 49.4889 26.6436 49.6063C26.6919 49.7236 26.7634 49.83 26.854 49.919C26.643 50.189 26.427 50.41 26.134 50.41C25.554 50.41 25.298 50.081 25.298 49.723C25.298 49.335 26.005 49.195 26.005 48.59C26.005 48.179 25.738 47.947 25.481 47.947C25.204 47.947 25.062 48.13 25.034 48.13C25.006 48.13 24.864 47.947 24.587 47.947C24.33 47.947 24.063 48.179 24.063 48.59C24.063 49.195 24.77 49.335 24.77 49.723C24.77 50.081 24.514 50.41 23.936 50.41C23.642 50.41 23.426 50.19 23.214 49.92C23.3048 49.831 23.3765 49.7244 23.425 49.6069C23.4735 49.4893 23.4976 49.3632 23.496 49.236C23.496 48.821 23.238 48.473 22.878 48.473C22.7987 48.4752 22.7206 48.4931 22.6482 48.5255C22.5758 48.558 22.5104 48.6043 22.456 48.662C22.156 48.006 21.946 47.323 21.946 46.9C21.946 46.356 22.176 46.266 22.329 46.266C22.739 46.266 22.869 47.069 23.335 47.069C23.768 47.069 23.914 46.579 23.914 46.523C23.914 46.489 23.882 46.477 23.844 46.477C23.006 46.477 23.186 45.592 22.218 45.592C21.314 45.592 20.882 46.237 20.882 46.884C20.882 48.24 22.316 49.182 22.316 50.251C22.316 50.731 21.986 50.82 21.766 50.82C21.658 50.82 21.515 50.768 21.352 50.678C21.4017 50.5674 21.4263 50.4472 21.424 50.326C21.424 49.956 21.172 49.656 20.884 49.656C20.703 49.656 20.552 49.752 20.44 49.906C19.954 49.367 19.544 48.671 19.544 48.044C19.544 47.72 19.689 47.638 19.79 47.638C20.025 47.638 20.032 47.953 20.347 47.953C20.583 47.953 20.727 47.663 20.727 47.493C20.727 47.447 20.662 47.463 20.598 47.463C20.083 47.463 20.178 47.07 19.575 47.07C19.371 47.07 18.684 47.18 18.684 48.152C18.684 49.629 20.504 50.073 20.082 51.206C20.855 51.093 20.845 51.846 20.86 53.193C20.86 53.193 22.366 52.683 25.034 52.683V52.684ZM20.142 54.674C19.415 54.834 18.894 54.984 18.661 55.055C18.673 54.735 18.795 54.437 19.081 54.371C19.117 54.361 19.126 54.313 19.092 54.29C18.445 53.86 18.098 54.684 18.088 54.71C17.858 54.693 17.509 54.765 17.509 55.075C17.509 56.002 15.389 56.517 14.897 56.593C15.763 56.927 16.124 58.019 16.124 58.019C16.753 57.389 17.488 56.835 17.65 56.835C17.817 56.835 17.88 57.045 17.894 57.17C17.898 57.21 17.936 57.224 17.962 57.188C18.292 56.698 18.133 56.586 18.107 56.442C18.086 56.327 18.119 55.898 18.599 55.948V62.136L18.352 62.186C18.239 62.206 17.334 61.436 16.298 60.719C15.262 60.003 14.706 60.432 13.524 61.071C11.978 61.908 10.414 61.149 10.414 61.149C9.08097 62.102 8.62797 64.855 8.62797 64.855C8.27159 65.0026 7.89065 65.082 7.50497 65.089C6.48697 65.089 6.29997 64.473 6.29997 64.105C6.29997 62.534 8.26697 61.86 8.26697 60.312C8.26697 59.937 8.09397 58.409 6.20397 58.409L4.51297 58.406C3.80497 58.406 3.62797 57.896 3.52997 57.702C3.49197 57.626 3.41997 57.67 3.44697 57.73C3.50197 57.86 3.36597 58.057 3.36597 58.45C3.36597 59.079 3.73597 59.457 4.42297 59.457C4.73597 59.457 5.02997 59.367 5.12597 59.311C5.18997 59.274 5.22297 59.335 5.19397 59.369C4.89397 59.719 4.86997 60.375 4.99397 60.534C5.02197 60.572 5.05897 60.562 5.06597 60.531C5.23197 59.867 5.85397 59.239 6.69197 59.239C7.71697 59.239 7.71197 60.111 7.71197 60.321C7.71197 61.581 5.49897 62.506 5.49897 64.239C5.49897 65.996 7.35497 66.373 8.43097 66.094C8.36797 67.854 6.35397 68.453 6.29297 67.194C6.28897 67.134 6.24497 67.12 6.21297 67.199C5.95797 67.821 6.05797 68.369 6.84297 68.542C6.89497 68.555 6.86997 68.584 6.82097 68.617C6.04497 69.111 6.46597 71.05 6.50397 71.621C6.56197 72.443 5.74397 72.345 5.67797 72.321C5.64397 72.308 5.61097 72.325 5.66297 72.39C6.24297 73.1 6.95897 72.45 6.95897 72.45C7.49997 72.62 7.16497 73.082 6.80397 73.324C6.74697 73.362 6.75197 73.399 6.81397 73.404C6.89397 73.409 7.73197 73.479 7.88097 72.812C8.25097 73.255 8.79697 73.093 8.91097 73.035C9.07297 72.952 9.85697 72.667 9.93597 73.549C9.93997 73.613 9.97797 73.572 10.003 73.539C10.596 72.793 9.96097 72.333 9.60797 72.279C9.67186 72.2154 9.74931 72.167 9.83453 72.1376C9.91975 72.1081 10.0105 72.0983 10.1001 72.1089C10.1896 72.1195 10.2756 72.1502 10.3516 72.1987C10.4276 72.2472 10.4917 72.3122 10.539 72.389C10.568 72.427 10.595 72.435 10.6 72.361C10.65 71.415 9.87997 71.329 9.38197 71.74C9.35897 71.643 9.19197 71.111 9.94497 71.13C9.96297 71.13 9.99897 71.103 9.96097 71.066C9.37697 70.449 8.89697 71.01 8.78597 71.144C8.52597 71.451 7.87797 71.329 7.81897 71.321C8.02197 68.034 10.917 69.198 11.315 67.601C11.334 67.516 11.372 67.548 11.38 67.579C11.49 67.969 12.472 68.023 12.652 67.255C12.662 67.207 12.656 67.17 12.622 67.206C11.784 68.043 9.89597 65.426 12.472 63.299C14.672 61.486 16.642 62.497 17.392 63.094C17.432 63.357 17.275 63.441 17.175 63.474C17.139 63.484 17.128 63.517 17.185 63.54C17.395 63.62 17.69 63.594 17.828 63.398C18.301 63.728 17.896 64.143 17.705 64.258C17.657 64.289 17.678 64.321 17.718 64.328C18.152 64.407 18.508 63.964 18.526 63.709L18.599 63.751V65.618C18.599 68.278 21.667 68.647 25.034 70.902C28.401 68.647 31.469 68.278 31.469 65.618V63.751L31.543 63.709C31.56 63.964 31.917 64.407 32.351 64.329C32.391 64.321 32.411 64.289 32.364 64.259C32.173 64.143 31.768 63.728 32.241 63.398C32.379 63.594 32.674 63.619 32.884 63.54C32.94 63.517 32.93 63.484 32.894 63.473C32.794 63.441 32.637 63.357 32.677 63.094C33.427 62.497 35.397 61.486 37.597 63.299C40.173 65.426 38.285 68.043 37.447 67.206C37.412 67.17 37.407 67.207 37.417 67.256C37.597 68.023 38.58 67.969 38.689 67.579C38.697 67.549 38.735 67.516 38.754 67.601C39.152 69.198 42.047 68.034 42.25 71.321C42.19 71.329 41.543 71.451 41.283 71.144C41.172 71.01 40.692 70.449 40.108 71.066C40.07 71.103 40.105 71.13 40.124 71.13C40.876 71.111 40.71 71.643 40.686 71.74C40.189 71.329 39.419 71.415 39.469 72.36C39.473 72.435 39.501 72.427 39.529 72.39C39.5762 72.313 39.6402 72.2477 39.7162 72.199C39.7923 72.1503 39.8784 72.1194 39.9681 72.1087C40.0578 72.098 40.1487 72.1078 40.2341 72.1373C40.3194 72.1668 40.397 72.2152 40.461 72.279C40.108 72.333 39.473 72.793 40.066 73.539C40.091 73.572 40.128 73.613 40.133 73.549C40.211 72.667 40.995 72.952 41.157 73.035C41.272 73.093 41.817 73.255 42.188 72.812C42.337 73.479 43.175 73.409 43.256 73.403C43.316 73.399 43.321 73.363 43.266 73.323C42.904 73.083 42.569 72.621 43.11 72.451C43.11 72.451 43.826 73.101 44.406 72.39C44.457 72.325 44.424 72.308 44.391 72.32C44.324 72.345 43.506 72.443 43.565 71.62C43.603 71.05 44.024 69.11 43.248 68.617C43.198 68.584 43.173 68.555 43.227 68.542C44.011 68.368 44.111 67.822 43.857 67.199C43.824 67.119 43.78 67.134 43.776 67.194C43.715 68.453 41.701 67.854 41.638 66.094C42.713 66.373 44.57 65.996 44.57 64.239C44.57 62.506 42.356 61.582 42.356 60.321C42.356 60.111 42.351 59.239 43.376 59.239C44.214 59.239 44.836 59.867 45.003 60.531C45.009 60.561 45.047 60.572 45.076 60.534C45.199 60.374 45.176 59.719 44.876 59.369C44.845 59.335 44.879 59.274 44.943 59.311C45.038 59.368 45.333 59.457 45.646 59.457C46.333 59.457 46.703 59.079 46.703 58.45C46.703 58.057 46.567 57.86 46.622 57.73C46.649 57.67 46.576 57.626 46.539 57.702C46.44 57.897 46.263 58.406 45.556 58.406L43.864 58.409C41.974 58.409 41.801 59.937 41.801 60.312C41.801 61.86 43.768 62.534 43.768 64.105C43.768 64.473 43.581 65.089 42.563 65.089C42.146 65.089 41.706 64.969 41.441 64.855C41.441 64.855 40.988 62.102 39.654 61.149C39.654 61.149 38.09 61.908 36.545 61.071C35.363 60.431 34.806 60.003 33.77 60.719C32.734 61.436 31.83 62.205 31.717 62.185L31.469 62.136V55.948C31.949 55.898 31.983 56.328 31.962 56.442C31.936 56.586 31.778 56.698 32.107 57.188C32.132 57.224 32.17 57.211 32.174 57.17C32.188 57.045 32.251 56.835 32.418 56.835C32.58 56.835 33.316 57.39 33.945 58.019C33.945 58.019 34.306 56.927 35.172 56.593C34.68 56.517 32.559 56.003 32.559 55.075C32.559 54.765 32.209 54.693 31.981 54.71C31.97 54.684 31.623 53.86 30.976 54.29C30.9686 54.2945 30.9628 54.3011 30.9592 54.3089C30.9556 54.3167 30.9543 54.3254 30.9556 54.334C30.9569 54.3425 30.9606 54.3504 30.9664 54.3568C30.9721 54.3632 30.9796 54.3678 30.988 54.37C31.274 54.437 31.396 54.734 31.408 55.055C30.79 54.865 28.158 54.127 25.034 54.127C23.6849 54.1331 22.3389 54.2586 21.012 54.502V56.647H20.142V54.675M14.38 76.648C14.149 76.555 13.996 76.407 13.996 76.103V74.77C13.616 74.636 12.572 74.238 10.491 74.238C8.76097 74.238 8.21897 74.628 8.19397 74.766L7.73397 77.302C7.73397 77.302 8.43397 76.662 10.943 76.826C13.965 77.018 17.095 78.801 17.095 76.9V75.782C14.727 75.782 14.38 76.535 14.38 76.647V76.648ZM32.972 75.783V76.901C32.972 78.802 36.102 77.019 39.124 76.827C41.632 76.663 42.333 77.303 42.333 77.303L41.873 74.767C41.848 74.629 41.306 74.239 39.576 74.239C37.496 74.239 36.451 74.637 36.071 74.771V76.103C36.071 76.407 35.918 76.555 35.687 76.648C35.687 76.536 35.34 75.783 32.972 75.783V75.783ZM25.033 74.632C29.899 74.632 34.84 74.886 35.486 75.62C35.537 75.678 35.559 75.619 35.559 75.575V72.996C35.559 72.244 30.462 71.806 25.033 71.806C19.604 71.806 14.507 72.244 14.507 72.996L14.508 75.575C14.508 75.619 14.53 75.678 14.581 75.62C15.227 74.886 20.168 74.632 25.033 74.632V74.632ZM20.693 62.473L20.202 62.346L20.161 62.406L19.59 62.156L20.1 62.152C20.148 62.152 20.151 62.122 20.126 62.098L19.69 61.671L20.253 61.881C20.291 61.893 20.305 61.866 20.287 61.841C20.128 61.605 19.911 61.29 19.911 61.29L20.464 61.66C20.494 61.681 20.518 61.661 20.505 61.63L20.244 60.983L20.748 61.46C20.771 61.48 20.798 61.469 20.791 61.437L20.651 60.79L21.021 61.331C21.043 61.363 21.071 61.354 21.071 61.316L21.084 60.725L21.319 61.265C21.335 61.303 21.362 61.305 21.382 61.258L21.572 60.8L21.595 61.416L21.512 61.432L21.409 62.173C22.144 62.001 23.059 60.745 23.761 60.745C24.596 60.745 24.901 61.724 26.445 61.227C26.835 61.804 26.971 62.306 27.121 63C27.717 63.56 28.555 63.374 28.555 62.78C28.555 61.98 27.682 61.827 27.682 60.993C27.682 60.62 27.944 60.084 28.656 60.084C29.033 60.084 29.586 60.246 29.903 60.246C30.28 60.246 30.361 59.973 30.403 59.86C30.438 59.775 30.54 59.803 30.53 59.87C30.518 59.947 30.574 60.056 30.574 60.235C30.574 60.763 29.806 60.832 29.711 60.767C29.671 60.739 29.642 60.782 29.671 60.804C29.786 60.897 29.761 61.212 29.623 61.412C29.607 61.434 29.585 61.43 29.581 61.409C29.498 61.031 29.055 60.564 28.664 60.564C28.52 60.564 28.234 60.648 28.234 60.979C28.234 61.454 29.185 61.887 29.185 62.871C29.185 63.894 28.172 64.139 27.153 63.884C27.188 64.853 28.633 65.429 28.668 64.736C28.67 64.688 28.696 64.718 28.711 64.737C28.925 65.033 28.827 65.259 28.554 65.373C28.806 65.487 28.851 65.995 28.925 66.299C29.036 66.754 29.519 66.502 29.543 66.489C29.569 66.473 29.578 66.487 29.567 66.516C29.384 66.99 28.899 66.811 28.899 66.811C28.644 66.99 28.952 67.151 29.183 67.219C29.217 67.229 29.215 67.254 29.188 67.264C29.018 67.327 28.654 67.441 28.478 67.136C28.346 67.451 28.078 67.442 27.973 67.442C27.787 67.442 27.663 67.633 27.706 67.888C27.71 67.91 27.694 67.917 27.678 67.904C27.234 67.609 27.488 67.264 27.668 67.177C27.637 67.158 27.331 67.031 27.201 67.389C27.191 67.417 27.174 67.419 27.164 67.392C26.97 66.876 27.394 66.726 27.698 66.856C27.678 66.783 27.518 66.531 27.116 66.612C27.098 66.617 27.086 66.609 27.098 66.584C27.163 66.426 27.362 66.193 27.726 66.429C27.912 66.544 28.233 66.376 28.262 66.361C27.615 65.073 26.357 66.151 26.076 65.142C26.071 65.121 26.046 65.102 26.028 65.158C25.961 65.373 25.413 65.388 25.312 64.964C25.304 64.931 25.317 64.927 25.338 64.948C25.418 65.029 25.591 65.102 25.818 64.775C25.968 64.558 25.988 64.269 25.988 64.073C25.988 63.289 25.206 61.974 23.985 61.974C23.215 61.974 22.385 62.275 21.77 62.724L22.343 62.855C22.3314 62.9848 22.2913 63.1105 22.2257 63.2231C22.16 63.3357 22.0703 63.4325 21.963 63.5065C21.8557 63.5805 21.7334 63.6299 21.6048 63.6513C21.4762 63.6726 21.3444 63.6653 21.219 63.63L21.309 62.967C21.219 62.994 20.994 63.074 20.874 63.245C20.866 63.258 20.848 63.255 20.844 63.24C20.739 62.864 21.049 62.675 21.146 62.626C21.156 62.619 21.156 62.611 21.136 62.611C21.0402 62.6097 20.9458 62.6333 20.862 62.6796C20.7781 62.7259 20.7078 62.7933 20.658 62.875C20.651 62.885 20.638 62.883 20.635 62.874C20.613 62.804 20.564 62.611 20.694 62.474L20.693 62.473ZM22.396 66.951C22.176 67.219 21.984 66.963 21.696 66.963C21.425 66.963 21.38 67.19 21.373 67.28C21.372 67.296 21.363 67.303 21.351 67.286C21.044 66.866 21.387 66.638 21.587 66.608C21.558 66.578 21.257 66.376 21.064 66.654C21.049 66.674 21.031 66.664 21.031 66.641C21.021 66.121 21.434 66.084 21.706 66.312C21.756 66.116 21.628 65.983 21.408 65.972C21.381 65.972 21.377 65.955 21.388 65.943C21.48 65.843 21.569 65.799 21.659 65.799C21.949 65.799 21.986 66.165 22.175 66.165C22.459 66.165 22.86 65.783 22.899 65.742C22.891 65.72 22.619 64.985 22.673 64.545C22.676 64.526 22.666 64.524 22.653 64.532C22.516 64.609 22.168 64.606 22.168 64.178C22.168 64.143 22.178 64.141 22.198 64.168C22.35 64.379 22.598 64.142 22.721 64.003C22.855 63.853 23.568 62.814 24.521 62.814C24.731 62.815 25.001 62.929 25.219 63.081C24.89 63.481 25.217 63.865 25.461 63.815C25.489 63.81 25.494 63.837 25.467 63.846C24.207 64.32 23.645 64.509 23.645 65.564C23.645 66.114 23.833 66.419 24.156 66.348C24.181 66.341 24.187 66.352 24.17 66.37C24.1271 66.4263 24.0721 66.4722 24.0091 66.5044C23.9461 66.5365 23.8767 66.5542 23.806 66.556C23.544 66.556 23.497 66.413 23.356 66.413C23.212 66.413 22.743 66.689 22.743 66.92C22.743 67.007 22.798 67.125 22.964 67.234C22.974 67.241 22.969 67.25 22.96 67.251C22.854 67.271 22.482 67.303 22.396 66.951V66.951ZM25.713 56.698C25.319 56.674 25.067 56.761 25.079 56.888C25.27 57.088 25.525 57.066 25.713 56.698ZM24.259 57.671C24.537 57.601 24.844 57.634 24.876 57.645C24.92 57.659 24.919 57.725 24.869 57.732C24.289 57.807 24.262 58.073 23.892 58.073C23.648 58.073 23.384 57.828 23.483 57.466C23.496 57.419 23.533 57.418 23.543 57.462C23.58 57.618 23.806 57.788 24.259 57.672V57.671ZM16.73 70.53C17.115 71.022 17.484 70.56 17.987 70.56C18.233 70.56 18.533 70.643 18.59 71.136C18.592 71.161 18.614 71.169 18.638 71.136C19.187 70.386 18.561 69.962 18.201 69.908C18.279 69.838 18.816 69.508 19.156 69.995C19.175 70.022 19.212 70.014 19.212 69.977C19.212 69.027 18.5 68.961 17.985 69.372C17.888 69.002 18.167 68.758 18.526 68.758C18.569 68.758 18.584 68.728 18.562 68.703C17.926 68.021 17.45 68.878 17.342 69.015C17.087 69.353 16.179 68.718 15.816 68.34C15.816 68.34 16.619 67.499 16.619 66.73C16.619 66.684 16.614 66.62 16.614 66.593C16.614 66.569 16.624 66.56 16.646 66.573C16.7367 66.623 16.8384 66.6495 16.942 66.65C17.126 66.65 17.472 66.592 17.472 65.939C17.472 65.889 17.45 65.892 17.429 65.922C17.334 66.06 17.229 66.09 17.147 66.09C16.499 66.09 15.146 63.928 13.55 63.928C13.133 63.928 12.344 64.229 11.945 64.66C12.138 64.774 12.175 65.008 12.155 65.179C12.125 65.453 11.908 65.589 11.685 65.651C11.645 65.661 11.642 65.689 11.685 65.707C12.491 66.015 13.958 66.57 14.291 66.857C14.685 67.197 14.608 67.841 14.379 68.728C14.159 69.581 13.687 69.465 13.513 69.437C13.488 69.433 13.479 69.449 13.495 69.469C13.704 69.731 13.956 69.819 14.173 69.819C14.592 69.819 14.748 69.559 14.965 69.559C15.33 69.559 16.093 70.082 16.093 70.479C16.093 70.702 15.919 70.905 15.694 71.051C15.679 71.061 15.682 71.079 15.704 71.083C15.878 71.113 16.593 71.173 16.731 70.53H16.73ZM34.364 71.083C34.386 71.079 34.389 71.062 34.375 71.051C34.15 70.905 33.975 70.702 33.975 70.479C33.975 70.082 34.738 69.559 35.103 69.559C35.32 69.559 35.477 69.819 35.895 69.819C36.112 69.819 36.365 69.731 36.574 69.469C36.589 69.449 36.58 69.433 36.556 69.437C36.382 69.465 35.91 69.581 35.69 68.728C35.461 67.841 35.384 67.196 35.778 66.857C36.111 66.57 37.578 66.015 38.384 65.707C38.427 65.689 38.424 65.66 38.384 65.651C38.161 65.589 37.944 65.453 37.914 65.179C37.894 65.008 37.93 64.774 38.124 64.66C37.725 64.229 36.935 63.928 36.519 63.928C34.923 63.928 33.569 66.09 32.921 66.09C32.841 66.09 32.735 66.06 32.64 65.922C32.619 65.892 32.596 65.89 32.596 65.939C32.596 66.592 32.942 66.649 33.126 66.649C33.2298 66.6488 33.3318 66.6227 33.423 66.573C33.443 66.56 33.454 66.569 33.454 66.593C33.454 66.619 33.449 66.684 33.449 66.729C33.449 67.499 34.253 68.339 34.253 68.339C33.889 68.718 32.981 69.353 32.727 69.015C32.619 68.878 32.142 68.021 31.507 68.703C31.485 68.728 31.5 68.758 31.543 68.758C31.901 68.758 32.18 69.002 32.084 69.372C31.569 68.961 30.857 69.027 30.857 69.977C30.857 70.014 30.894 70.022 30.913 69.995C31.253 69.507 31.79 69.837 31.867 69.908C31.507 69.962 30.882 70.385 31.431 71.136C31.455 71.169 31.476 71.161 31.479 71.136C31.536 70.643 31.836 70.559 32.081 70.559C32.585 70.559 32.953 71.022 33.338 70.529C33.476 71.173 34.191 71.112 34.364 71.083V71.083ZM21.45 58.608C21.399 58.678 21.23 58.605 21.167 58.576C21.152 58.569 21.15 58.576 21.155 58.586C21.195 58.676 21.357 58.947 21.598 58.947C21.706 58.947 21.865 58.884 21.91 58.811C21.91 58.811 22.85 59.116 23.315 59.244C23.135 59.484 23.022 59.774 22.999 60.088C22.624 59.858 21.125 59.053 21.125 59.053L20.66 59.689C20.583 59.794 20.211 59.523 20.288 59.417L20.643 58.931C20.526 58.807 20.243 58.885 20.166 58.907C20.155 58.91 20.145 58.905 20.155 58.887C20.2 58.791 20.376 58.497 20.818 58.629C20.82 58.359 20.418 58.446 20.313 58.475C20.3 58.478 20.296 58.472 20.308 58.46C20.416 58.344 20.743 58.08 21.108 58.296L21.268 58.077L20.946 57.739L21.147 57.462L21.373 57.765L23.103 55.395C23.146 55.337 23.489 55.237 23.619 55.209C23.632 55.342 23.647 55.697 23.606 55.756L21.903 58.147L22.263 58.266L22.063 58.544L21.64 58.346L21.45 58.608V58.608ZM27.52 58.22C27.52 58.438 27.654 58.756 27.945 58.665C27.959 58.658 27.973 58.662 27.969 58.677C27.925 58.919 27.492 59.141 27.295 58.854C27.12 59.224 27.16 59.571 27.539 59.775C27.559 59.787 27.563 59.813 27.539 59.831C27.4801 59.8742 27.4124 59.9039 27.3407 59.9178C27.2689 59.9317 27.195 59.9296 27.1243 59.9115C27.0535 59.8934 26.9876 59.8599 26.9314 59.8133C26.8751 59.7667 26.8299 59.7082 26.799 59.642C26.489 59.876 26.533 60.375 26.722 60.544C26.722 60.547 25.862 61.055 25.082 60.692C24.565 60.444 24.144 60.127 23.477 60.178C23.569 59.243 24.037 58.996 24.897 58.862C25.584 58.751 25.671 58.435 25.573 58.197C25.34 58.134 24.913 58.349 24.913 58.349C24.835 58.22 24.947 58.086 24.947 58.086C24.904 58.035 24.883 57.862 24.883 57.862C25.363 57.862 25.448 57.756 25.448 57.756C25.534 57.256 25.025 57.203 24.637 57.472C24.457 57.313 24.485 57.101 24.485 57.101C24.432 57.074 24.398 56.991 24.398 56.955C24.398 56.837 24.968 56.515 25.114 56.479C25.151 56.313 25.358 56.083 25.963 56.138C26.035 55.978 25.918 55.392 25.843 55.234C25.82 55.187 25.854 55.16 25.907 55.194C26.119 55.327 26.329 55.821 26.472 55.83C26.472 55.83 27.152 55.473 27.186 55.493C27.218 55.512 27.315 56.272 27.315 56.272C27.405 56.383 27.93 56.274 28.16 56.372C28.218 56.398 28.215 56.44 28.164 56.448C27.992 56.478 27.444 56.713 27.354 56.865C27.668 57.335 27.52 58.029 27.52 58.22Z" fill="white"/>
</svg>
