<svg width="48" height="48" viewBox="0 0 48 48" fill="none" xmlns="http://www.w3.org/2000/svg">
<g clip-path="url(#clip0_74_981)">
<path d="M9 4C9 1.8 10.8 0 13 0C15.2 0 17 1.8 17 4C17 6.2 15.2 8 13 8C10.8 8 9 6.2 9 4ZM33.5 27.8L39.2 33.4C39.9 34.1 41.1 34.1 41.8 33.4L47.4 27.9C48 27.3 48.1 26.3 47.7 25.6C47.2 24.9 46.1 24.7 45.4 25.3C45.3 25.3 45.3 25.4 45.2 25.5L42 28.3V15.7C42.1 14.9 41.5 14.1 40.7 14C39.9 13.9 39.1 14.5 39 15.3V28.2L35.8 25.4C35.2 24.7 34.1 24.7 33.4 25.4C32.8 26.1 32.8 27.2 33.5 27.8ZM47.9 47.1C47.7 47.6 47.2 48 46.7 48H1.3C0.8 47.9 0.3 47.6 0.1 47.1C0 46.9 0 46.7 0 46.5C0.1 45.9 0.5 45.4 1 45.3C1.2 45.2 2.6 44.8 4.9 44.3C5.8 44 6.8 43.8 8 43.6V15.3C5.5 16.6 3.9 19.2 4 22C4 23.1 3.1 24 2 24C0.9 24 0 23.1 0 22C0 15.2 5.6 10 13 10C20.4 10 26 15.2 26 22C26 23.1 25.1 24 24 24C22.9 24 22 23.1 22 22C22.1 19.2 20.5 16.6 18 15.3V42.3C26.5 41.6 35.1 42.3 43.4 44.3C44.6 44.6 45.8 44.9 47 45.3H47.1C47.8 45.6 48.2 46.4 47.9 47.1V47.1ZM14 31H12V42.9C12.3 42.9 13 42.8 14 42.7V31Z" fill="#011E41"/>
</g>
<defs>
<clipPath id="clip0_74_981">
<rect width="48" height="48" fill="white"/>
</clipPath>
</defs>
</svg>
