<svg width="278" height="92" xmlns="http://www.w3.org/2000/svg">
    <g fill-rule="nonzero" fill="none">
      <path fill="#154273" d="M0 0h50v92H0z"/>
      <path d="M25.904 69.363h-.87V66.95h.87v2.413zm3.923-10.639h-.87V56.31h.87v2.414zm-16.115-4.162c-.066 0-.516.001-.516.094s.21.045.516.097c.696.12.97.47 1.46.47.443 0 .896-.302.72-.944-.03-.107-.092-.082-.106-.009-.068.287-.42.451-.791.451-.46 0-.559-.16-1.283-.16zM8.92 56.973c.076.107.897 1.172-.363 1.579-.056.019-.075.073.009.109.93.388 1.382-.327 1.382-.327.468 1.072-.25 1.667-.25 1.667.101.193.546.516 1.222.667.256-.137.616-.4.766-.803 0 0 .182.468.016.915 1.902.173 2.575-1.347 4.04-1.074.043.008.062-.019.062-.064 0-.937-.574-2.651-2.388-2.999-1.809-.349-1.322-1.092-1.322-1.092.763-.034 1.203.298 1.203.298.14-.229-.057-.475-.057-.475.073-.088.114-.398.114-.398-.86-.002-1.085-.186-1.085-.186-.132-.51.222-1.23 1.498-.459.318-.284.294-.716.294-.716.097-.045.156-.197.156-.261 0-.213-1.02-.784-1.282-.852-.063-.31-.459-.755-1.658-.594-.567.07-.976-.079-.785-.409.032-.056-.07-.066-.122-.012-.132.131-.313.502.184.75.55.28.583.831.587.91.01.118-.131.128-.162.011-.254-.93-1.526-1.131-2.28-.636.045.498.581.827.875.827.169 0 .403-.168.403-.4 0-.113.058-.098.091-.01.125.33-.365 1.015-1.094.599-.741.741-.445 1.655-.371 1.992.133.605-.163 1.191-.708.918-.028-.013-.056-.024-.056.041 0 .381.496.81 1.08.484zm4.083-3.738c-.346.386-.91.298-1.045-.34.71-.036 1.016.035 1.045.34zm22.069 1.486c-.372 0-.723-.164-.791-.45-.015-.074-.078-.1-.106.008-.176.642.277.943.72.943.49 0 .764-.35 1.46-.47.306-.05.515-.003.515-.096s-.45-.094-.516-.094c-.724 0-.823.16-1.282.16zm7.155 1.768c0-.065-.027-.054-.055-.04-.545.272-.84-.314-.708-.919.074-.337.37-1.25-.371-1.992-.73.416-1.22-.268-1.095-.6.034-.087.091-.102.091.01 0 .233.234.401.403.401.294 0 .83-.329.875-.827-.753-.495-2.025-.295-2.279.636-.031.117-.172.107-.163-.01.005-.08.038-.632.588-.91.496-.25.315-.62.184-.75-.054-.055-.155-.045-.123.011.192.33-.217.479-.784.409-1.2-.161-1.595.285-1.658.594-.263.068-1.282.64-1.282.852 0 .064.06.216.156.26 0 0-.024.433.294.717 1.275-.77 1.629-.05 1.498.46 0 0-.226.183-1.085.185 0 0 .04.31.114.398 0 0-.197.246-.057.475 0 0 .44-.332 1.203-.298 0 0 .487.743-1.323 1.092-1.813.348-2.387 2.062-2.387 3 0 .044.019.071.061.063 1.466-.273 2.138 1.247 4.04 1.074-.165-.447.017-.915.017-.915.15.404.51.666.766.803.675-.151 1.12-.474 1.221-.667 0 0-.717-.595-.249-1.667 0 0 .451.715 1.382.327.084-.036.064-.09.01-.109-1.262-.407-.44-1.472-.364-1.579.585.327 1.08-.103 1.08-.484zm-4.118-3.593c-.136.637-.7.725-1.045.34.029-.306.334-.377 1.045-.34zM24.7 42.212c0 .16.07.301.124.38.112.159.095.246.042.3-.052.053-.14.07-.3-.042a.68.68 0 00-.38-.124c-.274 0-.41.18-.41.334 0 .154.136.334.41.334.161 0 .301-.069.38-.125.16-.11.248-.094.3-.04.053.051-.025.603-.086 1.037-.454.095-.673.459-.673.67 0 .547.584.863.927 1.046.343-.183.928-.499.928-1.045 0-.212-.22-.576-.673-.671-.062-.434-.14-.986-.087-1.038.053-.053.14-.07.3.041a.68.68 0 00.38.125c.274 0 .41-.18.41-.334 0-.154-.136-.334-.41-.334a.68.68 0 00-.38.124c-.16.112-.247.095-.3.041-.052-.053-.07-.14.042-.3a.687.687 0 00.125-.379c0-.274-.18-.41-.335-.41-.154 0-.334.136-.334.41zm.334 4.06a.666.666 0 10-.002 1.332.666.666 0 00.002-1.331zm0 6.412c2.669 0 4.174.509 4.174.509.015-1.348.006-2.1.779-1.987-.423-1.133 1.398-1.577 1.398-3.054 0-.972-.688-1.082-.89-1.082-.605 0-.51.392-1.024.392-.064 0-.13-.015-.13.031 0 .17.145.46.38.46.316 0 .323-.315.557-.315.102 0 .247.082.247.406 0 .627-.41 1.323-.896 1.862-.112-.154-.264-.25-.445-.25-.287 0-.54.3-.54.67a.82.82 0 00.072.352c-.162.09-.306.142-.414.142-.219 0-.549-.089-.549-.57 0-1.068 1.434-2.01 1.434-3.366 0-.647-.432-1.292-1.336-1.292-.969 0-.788.885-1.627.885-.038 0-.069.012-.069.046 0 .056.146.546.58.546.464 0 .594-.803 1.005-.803.154 0 .383.09.383.634 0 .423-.21 1.106-.51 1.762a.604.604 0 00-.423-.189c-.36 0-.617.348-.617.763a.94.94 0 00.281.683c-.211.27-.427.491-.72.491-.58 0-.836-.329-.836-.687 0-.388.707-.528.707-1.133 0-.411-.267-.643-.524-.643-.277 0-.419.183-.447.183-.028 0-.17-.183-.447-.183-.257 0-.524.232-.524.643 0 .605.707.745.707 1.133 0 .358-.256.687-.834.687-.294 0-.51-.22-.722-.49a.941.941 0 00.282-.684c0-.415-.258-.763-.618-.763a.604.604 0 00-.422.189c-.3-.656-.51-1.339-.51-1.762 0-.544.23-.634.383-.634.41 0 .54.803 1.006.803.433 0 .579-.49.579-.546 0-.034-.032-.046-.07-.046-.838 0-.658-.885-1.626-.885-.904 0-1.336.645-1.336 1.292 0 1.356 1.434 2.298 1.434 3.367 0 .48-.33.569-.55.569-.108 0-.251-.052-.414-.142a.82.82 0 00.072-.352c0-.37-.252-.67-.54-.67-.181 0-.332.096-.444.25-.486-.539-.896-1.235-.896-1.862 0-.324.145-.406.246-.406.235 0 .242.315.557.315.236 0 .38-.29.38-.46 0-.046-.065-.03-.129-.03-.515 0-.42-.393-1.023-.393-.204 0-.891.11-.891 1.082 0 1.477 1.82 1.921 1.398 3.054.773-.113.763.64.778 1.987 0 0 1.506-.51 4.174-.51zm-4.892 1.99c-.727.16-1.248.31-1.481.381.012-.32.134-.618.42-.684.036-.01.045-.058.011-.081-.647-.43-.994.394-1.004.42-.23-.017-.579.055-.579.365 0 .927-2.12 1.442-2.612 1.518.866.334 1.227 1.426 1.227 1.426.629-.63 1.364-1.184 1.526-1.184.167 0 .23.21.244.335.004.04.042.054.068.018.33-.49.171-.602.145-.746-.021-.115.012-.544.492-.494v6.188l-.247.05c-.113.02-1.018-.75-2.054-1.467-1.036-.716-1.592-.287-2.774.352-1.546.837-3.11.078-3.11.078-1.333.953-1.786 3.706-1.786 3.706a3.08 3.08 0 01-1.123.234c-1.018 0-1.205-.616-1.205-.984 0-1.571 1.967-2.245 1.967-3.793 0-.375-.173-1.903-2.063-1.903l-1.691-.003c-.708 0-.885-.51-.983-.704-.038-.076-.11-.032-.083.028.055.13-.081.327-.081.72 0 .629.37 1.007 1.057 1.007.313 0 .607-.09.703-.146.064-.037.097.024.068.058-.3.35-.324 1.006-.2 1.165.028.038.065.028.072-.003.166-.664.788-1.292 1.626-1.292 1.025 0 1.02.872 1.02 1.082 0 1.26-2.213 2.185-2.213 3.918 0 1.757 1.856 2.134 2.932 1.855-.063 1.76-2.077 2.359-2.138 1.1-.004-.06-.048-.074-.08.005-.255.622-.155 1.17.63 1.343.052.013.027.042-.022.075-.776.494-.355 2.433-.317 3.004.058.822-.76.724-.826.7-.034-.013-.067.004-.015.069.58.71 1.296.06 1.296.06.541.17.206.632-.155.874-.057.038-.052.075.01.08.08.005.918.075 1.067-.592.37.443.916.281 1.03.223.162-.083.946-.368 1.025.514.004.064.042.023.067-.01.593-.746-.042-1.206-.395-1.26a.598.598 0 01.931.11c.029.038.056.046.061-.028.05-.946-.72-1.032-1.218-.621-.023-.097-.19-.629.563-.61.018 0 .054-.027.016-.064-.584-.617-1.064-.056-1.175.078-.26.307-.908.185-.967.177.203-3.287 3.098-2.123 3.496-3.72.019-.085.057-.053.065-.022.11.39 1.092.444 1.272-.324.01-.048.004-.085-.03-.049-.838.837-2.726-1.78-.15-3.907 2.2-1.813 4.17-.802 4.92-.205.04.263-.117.347-.217.38-.036.01-.047.043.01.066.21.08.505.054.643-.142.473.33.068.745-.123.86-.048.031-.027.063.013.07.434.079.79-.364.808-.619l.073.042v1.867c0 2.66 3.068 3.029 6.435 5.284 3.367-2.255 6.435-2.624 6.435-5.284v-1.867l.074-.042c.017.255.374.698.808.62.04-.008.06-.04.013-.07-.191-.116-.596-.531-.123-.861.138.196.433.221.643.142.056-.023.046-.056.01-.067-.1-.032-.257-.116-.217-.379.75-.597 2.72-1.608 4.92.205 2.576 2.127.688 4.744-.15 3.907-.035-.036-.04.001-.03.05.18.767 1.163.713 1.272.323.008-.03.046-.063.065.022.398 1.597 3.293.433 3.496 3.72-.06.008-.707.13-.967-.177-.111-.134-.591-.695-1.175-.078-.038.037-.003.064.016.064.752-.019.586.513.562.61-.497-.411-1.267-.325-1.217.62.004.075.032.067.06.03a.598.598 0 01.932-.111c-.353.054-.988.514-.395 1.26.025.033.062.074.067.01.078-.882.862-.597 1.024-.514.115.058.66.22 1.031-.223.149.667.987.597 1.068.591.06-.004.065-.04.01-.08-.362-.24-.697-.702-.156-.872 0 0 .716.65 1.296-.061.051-.065.018-.082-.015-.07-.067.025-.885.123-.826-.7.038-.57.459-2.51-.317-3.003-.05-.033-.075-.062-.021-.075.784-.174.884-.72.63-1.343-.033-.08-.077-.065-.081-.005-.061 1.259-2.075.66-2.138-1.1 1.075.279 2.932-.098 2.932-1.855 0-1.733-2.214-2.657-2.214-3.918 0-.21-.005-1.082 1.02-1.082.838 0 1.46.628 1.627 1.292.006.03.044.041.073.003.123-.16.1-.815-.2-1.165-.031-.034.003-.095.067-.058.095.057.39.146.703.146.687 0 1.057-.378 1.057-1.007 0-.393-.136-.59-.081-.72.027-.06-.046-.104-.083-.028-.099.195-.276.704-.983.704l-1.692.003c-1.89 0-2.063 1.528-2.063 1.903 0 1.548 1.967 2.222 1.967 3.793 0 .368-.187.984-1.205.984-.417 0-.857-.12-1.122-.234 0 0-.453-2.753-1.787-3.706 0 0-1.564.759-3.109-.078-1.182-.64-1.739-1.068-2.775-.352-1.036.717-1.94 1.486-2.053 1.466l-.248-.049v-6.188c.48-.05.514.38.493.494-.026.144-.184.256.145.746.025.036.063.023.067-.018.014-.125.077-.335.244-.335.162 0 .898.555 1.527 1.184 0 0 .361-1.092 1.227-1.426-.492-.076-2.613-.59-2.613-1.518 0-.31-.35-.382-.578-.365-.011-.026-.358-.85-1.005-.42a.044.044 0 00.012.08c.286.067.408.364.42.685-.618-.19-3.25-.928-6.374-.928a22.87 22.87 0 00-4.022.375v2.145h-.87v-1.972M14.38 76.648c-.231-.093-.384-.241-.384-.545V74.77c-.38-.134-1.424-.532-3.505-.532-1.73 0-2.272.39-2.297.528l-.46 2.536s.7-.64 3.209-.476c3.022.192 6.152 1.975 6.152.074v-1.118c-2.368 0-2.715.753-2.715.865zm18.592-.865v1.118c0 1.901 3.13.118 6.152-.074 2.508-.164 3.209.476 3.209.476l-.46-2.536c-.025-.138-.567-.528-2.297-.528-2.08 0-3.125.398-3.505.532v1.332c0 .304-.153.452-.384.545 0-.112-.347-.865-2.715-.865zm-7.939-1.151c4.866 0 9.807.254 10.453.988.051.058.073-.001.073-.045v-2.579c0-.752-5.097-1.19-10.526-1.19-5.429 0-10.526.438-10.526 1.19l.001 2.579c0 .044.022.103.073.045.646-.734 5.587-.988 10.452-.988zm-4.34-12.159l-.491-.127-.041.06-.571-.25.51-.004c.048 0 .051-.03.026-.054l-.436-.427.563.21c.038.012.052-.015.034-.04-.159-.236-.376-.551-.376-.551l.553.37c.03.021.054.001.041-.03l-.261-.647.504.477c.023.02.05.009.043-.023l-.14-.647.37.541c.022.032.05.023.05-.015l.013-.591.235.54c.016.038.043.04.063-.007l.19-.458.023.616-.083.016-.103.741c.735-.172 1.65-1.428 2.352-1.428.835 0 1.14.979 2.684.482.39.577.526 1.079.676 1.773.596.56 1.434.374 1.434-.22 0-.8-.873-.953-.873-1.787 0-.373.262-.909.974-.909.377 0 .93.162 1.247.162.377 0 .458-.273.5-.386.035-.085.137-.057.127.01-.012.077.044.186.044.365 0 .528-.768.597-.863.532-.04-.028-.069.015-.04.037.115.093.09.408-.048.608-.016.022-.038.018-.042-.003-.083-.378-.526-.845-.917-.845-.144 0-.43.084-.43.415 0 .475.951.908.951 1.892 0 1.023-1.013 1.268-2.032 1.013.035.969 1.48 1.545 1.515.852.002-.048.028-.018.043.001.214.296.116.522-.157.636.252.114.297.622.371.926.111.455.594.203.618.19.026-.016.035-.002.024.027-.183.474-.668.295-.668.295-.255.179.053.34.284.408.034.01.032.035.005.045-.17.063-.534.177-.71-.128-.132.315-.4.306-.505.306-.186 0-.31.191-.267.446.004.022-.012.029-.028.016-.444-.295-.19-.64-.01-.727-.031-.019-.337-.146-.467.212-.01.028-.027.03-.037.003-.194-.516.23-.666.534-.536-.02-.073-.18-.325-.582-.244-.018.005-.03-.003-.018-.028.065-.158.264-.391.628-.155.186.115.507-.053.536-.068-.647-1.288-1.905-.21-2.186-1.219-.005-.021-.03-.04-.048.016-.067.215-.615.23-.716-.194-.008-.033.005-.037.026-.016.08.081.253.154.48-.173.15-.217.17-.506.17-.702 0-.784-.782-2.099-2.003-2.099-.77 0-1.6.301-2.215.75l.573.131a.887.887 0 01-1.124.775l.09-.663c-.09.027-.315.107-.435.278-.008.013-.026.01-.03-.005-.105-.376.205-.565.302-.614.01-.007.01-.015-.01-.015a.551.551 0 00-.478.264c-.007.01-.02.008-.023-.001-.022-.07-.071-.263.059-.4zm1.703 4.478c-.22.268-.412.012-.7.012-.271 0-.316.227-.323.317-.001.016-.01.023-.022.006-.307-.42.036-.648.236-.678-.029-.03-.33-.232-.523.046-.015.02-.033.01-.033-.013-.01-.52.403-.557.675-.329.05-.196-.078-.329-.298-.34-.027 0-.031-.017-.02-.029.092-.1.181-.144.271-.144.29 0 .327.366.516.366.284 0 .685-.382.724-.423-.008-.022-.28-.757-.226-1.197.003-.019-.007-.021-.02-.013-.137.077-.485.074-.485-.354 0-.035.01-.037.03-.01.152.211.4-.026.523-.165.134-.15.847-1.189 1.8-1.189.21.001.48.115.698.267-.329.4-.002.784.242.734.028-.005.033.022.006.031-1.26.474-1.822.663-1.822 1.718 0 .55.188.855.511.784.025-.007.031.004.014.022a.473.473 0 01-.364.186c-.262 0-.309-.143-.45-.143-.144 0-.613.276-.613.507 0 .087.055.205.221.314.01.007.005.016-.004.017-.106.02-.478.052-.564-.3zm3.317-10.253c-.394-.024-.646.063-.634.19.191.2.446.178.634-.19zm-1.454.973c.278-.07.585-.037.617-.026.044.014.043.08-.007.087-.58.075-.607.341-.977.341-.244 0-.508-.245-.409-.607.013-.047.05-.048.06-.004.037.156.263.326.716.21zM16.73 70.53c.385.492.754.03 1.257.03.246 0 .546.083.603.576.002.025.024.033.048 0 .549-.75-.077-1.174-.437-1.228.078-.07.615-.4.955.087.019.027.056.019.056-.018 0-.95-.712-1.016-1.227-.605-.097-.37.182-.614.541-.614.043 0 .058-.03.036-.055-.636-.682-1.112.175-1.22.312-.255.338-1.163-.297-1.526-.675 0 0 .803-.841.803-1.61 0-.046-.005-.11-.005-.137 0-.024.01-.033.032-.02a.62.62 0 00.296.077c.184 0 .53-.058.53-.711 0-.05-.022-.047-.043-.017-.095.138-.2.168-.282.168-.648 0-2.001-2.162-3.597-2.162-.417 0-1.206.301-1.605.732.193.114.23.348.21.519-.03.274-.247.41-.47.472-.04.01-.043.038 0 .056.806.308 2.273.863 2.606 1.15.394.34.317.984.088 1.871-.22.853-.692.737-.866.709-.025-.004-.034.012-.018.032.209.262.461.35.678.35.419 0 .575-.26.792-.26.365 0 1.128.523 1.128.92 0 .223-.174.426-.399.572-.015.01-.012.028.01.032.174.03.889.09 1.027-.553zm17.634.553c.022-.004.025-.021.011-.032-.225-.146-.4-.349-.4-.572 0-.397.763-.92 1.128-.92.217 0 .374.26.792.26.217 0 .47-.088.679-.35.015-.02.006-.036-.018-.032-.174.028-.646.144-.866-.709-.229-.887-.306-1.532.088-1.871.333-.287 1.8-.842 2.606-1.15.043-.018.04-.047 0-.056-.223-.062-.44-.198-.47-.472-.02-.171.016-.405.21-.519-.399-.431-1.189-.732-1.605-.732-1.596 0-2.95 2.162-3.598 2.162-.08 0-.186-.03-.281-.168-.021-.03-.044-.032-.044.017 0 .653.346.71.53.71a.623.623 0 00.297-.076c.02-.013.031-.004.031.02 0 .026-.005.091-.005.136 0 .77.804 1.61.804 1.61-.364.379-1.272 1.014-1.526.676-.108-.137-.585-.994-1.22-.312-.022.025-.007.055.036.055.358 0 .637.244.541.614-.515-.411-1.227-.345-1.227.605 0 .037.037.045.056.018.34-.488.877-.158.954-.087-.36.054-.985.477-.436 1.228.024.033.045.025.048 0 .057-.493.357-.577.602-.577.504 0 .872.463 1.257-.03.138.644.853.583 1.026.554zM21.45 58.608c-.051.07-.22-.003-.283-.032-.015-.007-.017 0-.012.01.04.09.202.361.443.361.108 0 .267-.063.312-.136 0 0 .94.305 1.405.433-.18.24-.293.53-.316.844-.375-.23-1.874-1.035-1.874-1.035l-.465.636c-.077.105-.449-.166-.372-.272l.355-.486c-.117-.124-.4-.046-.477-.024-.011.003-.021-.002-.011-.02.045-.096.221-.39.663-.258.002-.27-.4-.183-.505-.154-.013.003-.017-.003-.005-.015.108-.116.435-.38.8-.164l.16-.219-.322-.338.201-.277.226.303 1.73-2.37c.043-.058.386-.158.516-.186.013.133.028.488-.013.547l-1.703 2.391.36.119-.2.278-.423-.198-.19.262zm6.07-.388c0 .218.134.536.425.445.014-.007.028-.003.024.012-.044.242-.477.464-.674.177-.175.37-.135.717.244.921.02.012.024.038 0 .056a.494.494 0 01-.74-.189c-.31.234-.266.733-.077.902 0 .003-.86.511-1.64.148-.517-.248-.938-.565-1.605-.514.092-.935.56-1.182 1.42-1.316.687-.111.774-.427.676-.665-.233-.063-.66.152-.66.152-.078-.129.034-.263.034-.263-.043-.051-.064-.224-.064-.224.48 0 .565-.106.565-.106.086-.5-.423-.553-.811-.284-.18-.159-.152-.371-.152-.371-.053-.027-.087-.11-.087-.146 0-.118.57-.44.716-.476.037-.166.244-.396.849-.341.072-.16-.045-.746-.12-.904-.023-.047.011-.074.064-.04.212.133.422.627.565.636 0 0 .68-.357.714-.337.032.019.129.779.129.779.09.111.615.002.845.1.058.026.055.068.004.076-.172.03-.72.265-.81.417.314.47.166 1.164.166 1.355z" fill="#FFF"/>
      <g fill="#000">
        <path d="M217.555 66.81c.604 0 1.271.108 1.799.248l-.606 2.976c-.076.406-.138 1.061-.179 1.703l-.033.629c-.01.202-.015.392-.018.562l-.002.238c0 3.534-1.737 5.038-3.783 5.038-1.395 0-2.216-.604-2.216-1.426 0-.744.76-1.334 1.534-1.334-.31.327-.418.636-.418 1.008 0 .605.48 1.024 1.348 1.024 1.132 0 2.03-.837 2.248-2.636l.294-2.729h-.015c-.59 1.473-1.581 2.45-2.403 2.45-.682 0-1.41-.884-1.41-2.76 0-2.976 1.751-4.991 3.86-4.991zm-77.498-2.404c.449 0 .898.047 1.224.156v.263c-.326.109-.558.341-.589.666l-.822 6.868c-.356 3.085-1.209 3.923-2.17 3.923-.263 0-.496-.031-.714-.14v-.186c.838-.558 1.427-1.612 1.628-3.364l.884-7.395-.868-.248v-.31c.466-.17.868-.233 1.427-.233zm-19.483 2.404c.496 0 .837.263.837.93 0 1.597-1.504 4.867-3.008 6.31a3.661 3.661 0 01-.821.573h-.31l-.636-6.977-.666-.263v-.325c.48-.171.837-.233 1.27-.233.218 0 .435.031.636.093l.34 6.34h.016c1.132-1.395 1.955-3.519 1.955-5.115 0-.42-.203-.667-.575-.853v-.248c.264-.14.575-.232.962-.232zm80.551-.047c1.07 0 1.66.543 1.66 1.596 0 1.83-1.861 2.947-3.707 2.947 0 1.875.496 2.325 1.396 2.325.558 0 1.364-.325 1.69-.776a.56.56 0 01.154.373c0 .744-.992 1.364-2.248 1.364-1.301 0-2.2-.853-2.2-2.697 0-3.489 1.767-5.132 3.255-5.132zm29.31 0c1.069 0 1.659.543 1.659 1.596 0 1.83-1.86 2.947-3.705 2.947 0 1.875.496 2.325 1.394 2.325.559 0 1.364-.325 1.69-.776a.56.56 0 01.155.373c0 .744-.992 1.364-2.247 1.364-1.303 0-2.202-.853-2.202-2.697 0-3.489 1.767-5.132 3.256-5.132zm-58.914 0c1.069 0 1.659.543 1.659 1.596 0 1.83-1.86 2.947-3.705 2.947 0 1.875.496 2.325 1.394 2.325.559 0 1.364-.325 1.69-.776a.56.56 0 01.155.373c0 .744-.992 1.364-2.247 1.364-1.303 0-2.202-.853-2.202-2.697 0-3.489 1.767-5.132 3.256-5.132zm8.029 0c1.07 0 1.659.543 1.659 1.596 0 1.83-1.86 2.947-3.705 2.947 0 1.875.496 2.325 1.394 2.325.559 0 1.365-.325 1.69-.776a.56.56 0 01.155.373c0 .744-.992 1.364-2.247 1.364-1.303 0-2.202-.853-2.202-2.697 0-3.489 1.768-5.132 3.256-5.132zm-68.059 0c1.07 0 1.66.543 1.66 1.596 0 1.83-1.861 2.947-3.706 2.947 0 1.875.496 2.325 1.395 2.325.558 0 1.364-.325 1.69-.776a.56.56 0 01.155.373c0 .744-.993 1.364-2.247 1.364-1.303 0-2.203-.853-2.203-2.697 0-3.489 1.768-5.132 3.256-5.132zm-13.407 0c1.07 0 1.66.543 1.66 1.596 0 1.83-1.861 2.947-3.707 2.947 0 1.875.496 2.325 1.396 2.325.558 0 1.364-.325 1.69-.776a.56.56 0 01.154.373c0 .744-.992 1.364-2.248 1.364-1.301 0-2.2-.853-2.2-2.697 0-3.489 1.767-5.132 3.255-5.132zm143.572-3.55a2.5 2.5 0 01.713.093l-1.132 6.418-.09.594-.104.774-.064.536-.05.495c-.02.23-.033.426-.033.562 0 1.007.217 1.178.745 1.255v.327c-.48.154-.869.232-1.38.232-.264 0-.465-.047-.652-.108l.388-2.341h-.016c-.573 1.441-1.55 2.526-2.433 2.526-.697 0-1.411-.914-1.411-2.728 0-3.117 1.783-5.038 3.86-5.038.187 0 .419.015.589.03l.45-2.79-1.023-.295v-.294c.48-.171.976-.248 1.643-.248zM125.922 66.81c.496 0 1.209.108 1.72.248l-.542 2.713c-.186.806-.341 2.248-.357 2.914 0 .992.201 1.178.744 1.255v.327c-.403.14-.9.232-1.38.232a2.14 2.14 0 01-.65-.108l.355-2.31h-.014c-.605 1.534-1.582 2.495-2.403 2.495-.729 0-1.412-.945-1.412-2.728 0-3.194 1.83-5.038 3.939-5.038zm25.046-.032c1.132 0 1.69.341 1.69.837 0 .28-.11.605-.28.807-.448-.465-1.1-.76-1.689-.76-.682 0-1.039.372-1.039.868 0 .39.14.64.682 1.154l.28.257.588.527c.744.667.992 1.116.992 1.799 0 1.224-1.24 2.294-2.868 2.294-.976 0-1.41-.31-1.41-.884 0-.279.093-.465.232-.65.434.417.946.65 1.52.65.729 0 1.317-.418 1.317-1.07 0-.475-.173-.803-.806-1.393l-.698-.637c-.712-.651-.914-1.07-.914-1.752 0-1.023.977-2.047 2.403-2.047zm-62.541 0c1.132 0 1.69.341 1.69.837 0 .28-.11.605-.28.807-.448-.465-1.1-.76-1.689-.76-.682 0-1.039.372-1.039.868 0 .39.14.64.682 1.154l.28.257.588.527c.744.667.992 1.116.992 1.799 0 1.224-1.24 2.294-2.868 2.294-.976 0-1.41-.31-1.41-.884 0-.279.093-.465.232-.65.434.417.946.65 1.52.65.729 0 1.317-.418 1.317-1.07 0-.475-.173-.803-.806-1.393l-.698-.637c-.712-.651-.914-1.07-.914-1.752 0-1.023.977-2.047 2.403-2.047zm4.805-1.007l-.263 1.271h.449c.434 0 .775-.031 1.193-.108 0 .667-.372.96-1.348.96h-.434l-.302 1.851-.083.545-.08.589c-.062.492-.11.97-.11 1.28 0 1.022.513 1.472 1.195 1.472.248 0 .403-.031.636-.109v.28c-.14.37-.698.744-1.427.744-1.023 0-1.565-.683-1.565-1.907 0-.641.103-1.571.245-2.474l.114-.667.06-.32.262-1.3c-.136 0-.25-.002-.358-.007l-.327-.022-.183-.016v-.202c.496-.697 1.272-1.38 2.093-1.86h.233zm62.541 0l-.263 1.271h.449c.434 0 .775-.031 1.193-.108 0 .667-.372.96-1.348.96h-.434l-.302 1.851-.083.545-.08.589c-.062.492-.11.97-.11 1.28 0 1.022.513 1.472 1.195 1.472.248 0 .403-.031.636-.109v.28c-.14.37-.698.744-1.427.744-1.023 0-1.565-.683-1.565-1.907 0-.641.103-1.571.245-2.474l.114-.667.06-.32.262-1.3c-.136 0-.25-.002-.358-.007l-.327-.022-.183-.016v-.202c.496-.697 1.272-1.38 2.093-1.86h.233zm7.471 0l-.264 1.271h.45c.433 0 .775-.031 1.193-.108 0 .667-.372.96-1.349.96h-.433l-.303 1.851-.083.545-.08.589c-.062.492-.108.97-.108 1.28 0 1.022.511 1.472 1.194 1.472.248 0 .402-.031.636-.109v.28c-.14.37-.699.744-1.427.744-1.024 0-1.566-.683-1.566-1.907 0-.881.196-2.31.42-3.461l.262-1.3c-.136 0-.25-.002-.359-.007l-.326-.022c-.058-.004-.118-.01-.183-.016v-.202c.496-.697 1.271-1.38 2.093-1.86h.233zm-20.057 1.054c.496 0 .76.264.76.713 0 .192-.023.445-.06.732l-.062.453-.077.483-.127.735-.34 1.721c-.079.34-.14.853-.14 1.162 0 .435.216.667.542.667.73 0 2.015-1.303 2.202-3.658l.17-2.683a3.67 3.67 0 011.395-.294l-.434 2.418c-.202 1.055-.387 2.465-.387 3.396 0 1.022.185 1.193.713 1.27v.327c-.45.14-.915.232-1.396.232-.248 0-.449-.031-.635-.108l.418-2.124h-.015c-.605 1.069-1.705 2.263-2.605 2.263-.681 0-1.193-.558-1.193-1.426 0-.214.039-.473.084-.716l.442-2.277c.109-.526.234-1.395.234-1.876 0-.511-.264-.76-.714-.868v-.263c.356-.17.744-.279 1.225-.279zm-78.288-2.388l1.364 7.395h.016l2.558-7.395h.388c.387 0 1.038.032 1.488.125v.372l-.73.186.358 8.588.852.232v.311c-.465.155-.821.232-1.271.232-.636 0-1.008-.046-1.364-.155v-.264c.295-.14.48-.325.48-.805l-.093-6.868h-.015l-2.822 8.14-.465-.032-1.519-8.108h-.016l-1.488 7.301.884.248v.311a3.28 3.28 0 01-1.287.232c-.372 0-.76-.062-1.07-.155v-.264c.264-.124.465-.293.543-.588l1.938-8.294-.837-.187v-.371c.403-.11 1.131-.187 1.597-.187h.51zm132.74-.03c.294 0 .634.046.898.155v.263c-.264.077-.45.217-.542.45l-3.612 9.193-1.055.047-1.379-9.302-.73-.264v-.31c.467-.17.853-.233 1.303-.233.45 0 .79.047 1.178.156v.263c-.262.077-.402.264-.387.45l.899 7.55h.016l2.744-7.628-.837-.248v-.31c.48-.155.96-.233 1.504-.233zm-38.642 2.418c.28 0 .496.016.698.093l-.698 4.558-.023.188-.043.434c-.034.381-.058.785-.058 1.037 0 .511.187.744.62.884v.263a2.895 2.895 0 01-1.163.217c-.496 0-.744-.264-.744-.713 0-.13.013-.31.032-.516l.075-.668.11-.863.497-3.146.077-.915-.93-.295v-.294a4.278 4.278 0 011.55-.264zm7.47 0c.28 0 .497.016.699.093l-.698 4.558-.046.398-.04.454c-.023.307-.038.605-.038.807 0 .511.186.744.62.884v.263a2.895 2.895 0 01-1.163.217c-.496 0-.744-.264-.744-.713 0-.13.012-.31.032-.516l.047-.438.138-1.093.497-3.146.077-.915-.93-.295v-.294a4.278 4.278 0 011.55-.264zm55.675-3.612a2.5 2.5 0 01.712.093l-.82 5.673h.015c.635-1.333 1.597-2.185 2.603-2.185.76 0 1.226.573 1.226 1.426 0 .256-.031.581-.076.924l-.075.522-.082.508-.279 1.628a10.322 10.322 0 00-.124 1.333c0 .511.233.713.729.805v.264c-.357.187-.76.295-1.24.295-.481 0-.76-.264-.76-.713 0-.194.03-.492.071-.806l.1-.696.03-.204.308-1.907.055-.42.043-.43c.018-.207.028-.395.028-.53 0-.682-.294-.93-.698-.93-.774 0-1.906 1.319-2.061 3.535l-.186 2.961h-1.303l.652-5.038.511-5.271-.96-.295v-.294a4.948 4.948 0 011.58-.248zm-10.246 3.612c.28 0 .497.016.698.093l-.698 4.558-.045.398-.04.454-.028.443c-.007.138-.01.263-.01.364 0 .511.186.744.62.884v.263a2.893 2.893 0 01-1.163.217c-.496 0-.744-.264-.744-.713 0-.13.013-.31.032-.516l.047-.438.138-1.093.496-3.146.077-.915-.93-.295v-.294a4.278 4.278 0 011.55-.264zm-78.767-.031c.682 0 1.225.48 1.225 1.426 0 .248-.035.57-.082.913l-.15 1.04-.28 1.675-.053.42c-.037.309-.071.65-.071.867 0 .511.248.713.728.805v.264c-.356.187-.76.295-1.24.295s-.76-.264-.76-.713c0-.097.007-.217.018-.35l.046-.431.092-.665.326-1.98c.077-.481.154-1.148.154-1.566 0-.697-.31-.93-.682-.93-.868 0-2.108 1.674-2.17 3.875l-.093 2.62h-1.318l.775-6.681-.946-.295v-.294a4.14 4.14 0 011.536-.264c.2 0 .418.031.634.109l-.496 2.372h.016c.714-1.582 1.736-2.512 2.79-2.512zm-48.98.031c.28 0 .497.016.699.093l-.699 4.558-.023.188-.043.434c-.033.381-.058.785-.058 1.037 0 .511.187.744.62.884v.263a2.895 2.895 0 01-1.163.217c-.496 0-.744-.264-.744-.713 0-.087.006-.196.015-.32l.04-.41.11-.907.053-.41.496-3.146.077-.915-.93-.295v-.294a4.278 4.278 0 011.55-.264zm120.897 0c.28 0 .496.016.698.093l-.698 4.558-.023.188-.043.434c-.034.381-.058.785-.058 1.037 0 .511.186.744.62.884v.263a2.895 2.895 0 01-1.163.217c-.496 0-.744-.264-.744-.713 0-.13.012-.31.032-.516l.047-.438.139-1.093.496-3.146.077-.915-.93-.295v-.294a4.278 4.278 0 011.55-.264zm3.89-3.612c.263 0 .527.031.713.093l-1.163 8.124c-.077.496-.124 1.24-.124 1.705 0 .511.248.744.698.884v.263c-.326.139-.729.217-1.194.217-.512 0-.775-.264-.775-.728l.003-.147.022-.373.039-.438.073-.678.05-.396 1.084-7.69-.976-.294v-.294c.496-.171.96-.248 1.55-.248zM73.687 66.825c.279 0 .497.016.698.093l-.698 4.558-.023.188-.043.434c-.034.381-.058.785-.058 1.037 0 .511.186.744.62.884v.263a2.901 2.901 0 01-1.162.217c-.497 0-.745-.264-.745-.713 0-.13.013-.31.033-.516l.047-.438.137-1.093.496-3.146.078-.915-.93-.295v-.294a4.278 4.278 0 011.55-.264zm6.31-.031c.68 0 1.224.48 1.224 1.426 0 .186-.02.413-.05.66l-.068.513-.115.78-.279 1.675-.053.42c-.037.309-.071.65-.071.867 0 .511.248.713.728.805v.264c-.356.187-.76.295-1.24.295s-.76-.264-.76-.713c0-.194.028-.48.064-.781l.06-.45.063-.412.295-1.784c.077-.48.154-1.147.154-1.565 0-.697-.31-.93-.681-.93-.869 0-2.109 1.674-2.171 3.875l-.093 2.62h-1.317l.774-6.681-.945-.295v-.294a4.14 4.14 0 011.535-.264c.201 0 .418.031.635.109l-.497 2.372h.016c.714-1.582 1.736-2.512 2.791-2.512zm26.44.031c.28 0 .497.016.698.093l-.697 4.558-.046.398-.04.454-.028.443c-.007.138-.01.263-.01.364 0 .511.186.744.62.884v.263a2.893 2.893 0 01-1.163.217c-.496 0-.744-.264-.744-.713 0-.13.013-.31.032-.516l.047-.438.138-1.093.496-3.146.077-.915-.93-.295v-.294a4.278 4.278 0 011.55-.264zm127.918 0c.28 0 .497.016.698.093l-.698 4.558-.045.398-.04.454-.028.443c-.007.138-.01.263-.01.364 0 .511.186.744.62.884v.263a2.893 2.893 0 01-1.163.217c-.496 0-.744-.264-.744-.713 0-.13.013-.31.032-.516l.047-.438.138-1.093.496-3.146.077-.915-.93-.295v-.294a4.278 4.278 0 011.55-.264zm-48.001-.031c.681 0 1.224.48 1.224 1.426 0 .248-.035.57-.081.913l-.151 1.04-.28 1.675-.053.42-.049.468c-.013.15-.022.29-.022.399 0 .511.248.713.729.805v.264c-.357.187-.76.295-1.24.295s-.76-.264-.76-.713c0-.145.015-.343.038-.56l.055-.448.093-.635.295-1.784c.077-.48.155-1.147.155-1.565 0-.697-.31-.93-.682-.93-.868 0-2.108 1.674-2.17 3.875l-.094 2.62h-1.317l.774-6.681-.945-.295v-.294a4.14 4.14 0 011.535-.264c.201 0 .418.031.635.109l-.496 2.372h.015c.714-1.582 1.737-2.512 2.792-2.512zm-84.458.031c.202 0 .45.031.652.109l-.466 2.248h.016l.822-1.365c.402-.667.821-.976 1.302-.976.34 0 .511.217.511.573 0 .248-.061.558-.17.806a1.65 1.65 0 00-.481-.062c-.977 0-1.953 1.07-2.093 3.938l-.124 2.263h-1.286l.759-6.681-.945-.295v-.294c.496-.187.96-.264 1.503-.264zm137.823.853c-1.287 0-2.388 1.209-2.388 3.953 0 1.287.372 1.876.774 1.876.597 0 1.52-.929 1.881-2.923l.477-2.83a3.706 3.706 0 00-.744-.076zm-22.536 0c-1.194 0-2.294 1.286-2.294 3.953 0 1.333.402 1.876.79 1.876.651 0 1.612-1.04 1.923-3.272l.356-2.48a3.236 3.236 0 00-.775-.077zm-91.68 0c-1.256 0-2.325 1.317-2.325 3.953 0 1.317.402 1.876.775 1.876.666 0 1.566-1.04 1.922-3.163l.434-2.573a3.497 3.497 0 00-.806-.093zm104.606-.047c-.682 0-1.659 1.179-1.659 2.96 1.411 0 2.404-.758 2.404-1.952 0-.729-.295-1.008-.745-1.008zm-29.31 0c-.682 0-1.658 1.179-1.658 2.96 1.41 0 2.403-.758 2.403-1.952 0-.729-.295-1.008-.744-1.008zm-29.604 0c-.682 0-1.659 1.179-1.659 2.96 1.411 0 2.403-.758 2.403-1.952 0-.729-.294-1.008-.744-1.008zm-73.436 0c-.683 0-1.66 1.179-1.66 2.96 1.412 0 2.404-.758 2.404-1.952 0-.729-.295-1.008-.744-1.008zm81.466 0c-.683 0-1.66 1.179-1.66 2.96 1.412 0 2.404-.758 2.404-1.952 0-.729-.295-1.008-.744-1.008zm-68.059 0c-.683 0-1.66 1.179-1.66 2.96 1.412 0 2.404-.758 2.404-1.952 0-.729-.295-1.008-.744-1.008zm48.25-4.015c.402 0 .713.31.713.744 0 .527-.419.961-.868.961-.42 0-.713-.279-.713-.744 0-.512.403-.96.868-.96zm-74.848 0c.403 0 .713.31.713.744 0 .527-.419.961-.868.961-.419 0-.713-.279-.713-.744 0-.512.404-.96.868-.96zm120.897 0c.402 0 .713.31.713.744 0 .527-.42.961-.868.961-.42 0-.713-.279-.713-.744 0-.512.403-.96.868-.96zm29.31 0c.403 0 .712.31.712.744 0 .527-.419.961-.868.961-.419 0-.713-.279-.713-.744 0-.512.403-.96.868-.96zm-160.67 0c.404 0 .713.31.713.744 0 .527-.418.961-.867.961-.419 0-.714-.279-.714-.744 0-.512.404-.96.868-.96zm92.782 0c.402 0 .713.31.713.744 0 .527-.42.961-.869.961-.419 0-.712-.279-.712-.744 0-.512.403-.96.868-.96zm-60.03 0c.403 0 .712.31.712.744 0 .527-.419.961-.868.961-.419 0-.713-.279-.713-.744 0-.512.403-.96.868-.96zm105.458 0c.404 0 .713.31.713.744 0 .527-.419.961-.868.961-.419 0-.713-.279-.713-.744 0-.512.403-.96.868-.96zm-112.96-14.36c.636 0 1.41.263 1.674.511.28-.264.868-.496 1.365-.496.263 0 .511.046.667.093l-.109 1.023a7.805 7.805 0 00-1.659-.17v.015c.512.388.884 1.054.884 1.69 0 1.798-1.473 3.023-3.148 3.023-.34 0-.697-.077-.96-.186-.233.14-.497.466-.497.744 0 .466.388.714.992.714l2.171-.016c1.302-.015 2.03.589 2.03 1.736 0 1.473-1.626 2.713-3.782 2.713-1.953 0-2.96-.79-2.96-1.813 0-.822.635-1.488 1.472-1.722v-.014c-.573-.203-.915-.62-.915-1.21s.496-1.194 1.086-1.395v-.016c-.698-.28-1.395-1.085-1.395-2.155 0-1.737 1.395-3.07 3.084-3.07zm1.132 8.077h-2.496c-.45.201-.79.713-.79 1.24 0 .636.682 1.178 1.984 1.178 1.472 0 2.45-.729 2.45-1.473 0-.604-.404-.945-1.148-.945zm96.547-8.062c1.566 0 2.496.79 2.496 2.077l-.007.326-.054 1.24-.047 2.512c.108.28.34.573.62.79-.232.28-.651.59-1.055.79a2.105 2.105 0 01-.713-.759c-.433.419-1.271.744-2.092.744-1.163 0-1.97-.728-1.97-1.72 0-1.365 1.49-2.527 4.031-2.527v-.42c0-1.673-.402-2.03-1.38-2.03-.852 0-1.674.357-2.325 1.008a2.303 2.303 0 01-.046-.466c0-.992.729-1.565 2.542-1.565zm-25.56 0c1.567 0 2.497.79 2.497 2.077l-.002.147-.06 1.42-.047 2.51c.109.28.341.574.62.792-.232.278-.65.589-1.054.79a2.105 2.105 0 01-.713-.76c-.434.419-1.272.744-2.093.744-1.163 0-1.969-.728-1.969-1.72 0-1.365 1.489-2.527 4.03-2.527v-.42c0-1.673-.402-2.03-1.378-2.03-.854 0-1.675.357-2.326 1.008a2.235 2.235 0 01-.046-.466c0-.992.728-1.565 2.542-1.565zm73.734-3.644l-.093.869v8.883c.109.31.294.636.59.9-.311.279-.652.495-1.086.728a2.808 2.808 0 01-.744-.93c-.496.512-1.35.884-1.984.884-1.567 0-2.823-1.303-2.823-3.365 0-2.79 1.69-4.31 3.705-4.31.373 0 .823.047 1.07.109v-2.728l-1.054-.42v-.34a7.712 7.712 0 011.923-.28h.496zm-133.516 3.644c1.566 0 2.496.79 2.496 2.077l-.007.326-.054 1.24-.047 2.512c.108.28.34.573.62.79-.232.28-.651.59-1.054.79a2.105 2.105 0 01-.713-.759c-.434.419-1.272.744-2.093.744-1.163 0-1.969-.728-1.969-1.72 0-1.365 1.488-2.527 4.03-2.527v-.42c0-1.673-.402-2.03-1.38-2.03-.852 0-1.673.357-2.325 1.008a2.303 2.303 0 01-.046-.466c0-.992.729-1.565 2.542-1.565zm106.763 0c1.566 0 2.496.79 2.496 2.077l-.007.326-.055 1.24-.046 2.512c.108.28.34.573.62.79-.233.28-.651.59-1.055.79a2.105 2.105 0 01-.713-.759c-.433.419-1.271.744-2.092.744-1.164 0-1.97-.728-1.97-1.72 0-1.365 1.49-2.527 4.031-2.527v-.42c0-1.673-.402-2.03-1.379-2.03-.853 0-1.675.357-2.326 1.008a2.235 2.235 0 01-.046-.466c0-.992.729-1.565 2.542-1.565zm-35.618.093l-.093.868v3.504c0 1.628.51 2.155 1.503 2.155a2.98 2.98 0 001.52-.45v-5.023l-.9-.434v-.325c.714-.202 1.319-.295 1.752-.295h.512l-.093.868v5.24c.108.264.34.543.589.806-.232.248-.666.543-1.054.729a2.064 2.064 0 01-.73-.899c-.386.357-1.27.822-2.232.822-1.317 0-2.138-.76-2.138-2.543v-3.969l-.884-.434v-.325c.697-.202 1.302-.295 1.736-.295h.512zm87.015-.109c1.24 0 1.736.372 1.736.961 0 .233-.031.435-.077.652-.496-.341-1.179-.59-1.768-.59-.992 0-1.457.434-1.457.962 0 .52.243.825 1.032 1.154l1.014.396c1.116.434 1.535 1.008 1.535 1.922 0 1.194-1.147 2.28-2.884 2.28-1.364 0-1.968-.434-1.968-1.271 0-.218.047-.466.14-.636.697.651 1.364.977 2.185.977.868 0 1.318-.42 1.318-.961 0-.544-.31-.885-1.334-1.319l-.774-.325c-.9-.388-1.396-1.039-1.396-1.923 0-1.224 1.085-2.279 2.698-2.279zm-34.658.016c1.675 0 2.683 1.116 2.683 2.899l-.003.56-.013.432h-4.574c0 1.736 1.008 2.744 2.295 2.744.76 0 1.597-.263 2.186-.666.03.077.062.248.062.403 0 .698-1.023 1.348-2.667 1.348-1.767 0-3.209-1.379-3.209-3.55 0-2.697 1.628-4.17 3.24-4.17zm-106.761 0c1.674 0 2.682 1.116 2.682 2.899l-.003.56-.012.432h-4.575c0 1.736 1.008 2.744 2.295 2.744.76 0 1.597-.263 2.186-.666.031.077.062.248.062.403 0 .698-1.023 1.348-2.667 1.348-1.766 0-3.209-1.379-3.209-3.55 0-2.697 1.628-4.17 3.24-4.17zm15.05 0c1.674 0 2.681 1.116 2.681 2.899l-.003.56a19.46 19.46 0 01-.012.432h-4.573c0 1.736 1.007 2.744 2.294 2.744.76 0 1.597-.263 2.186-.666.03.077.062.248.062.403 0 .698-1.023 1.348-2.667 1.348-1.766 0-3.209-1.379-3.209-3.55 0-2.697 1.628-4.17 3.24-4.17zm111.133 0c1.675 0 2.683 1.116 2.683 2.899l-.001.365-.007.403a17.97 17.97 0 01-.008.224h-4.574c0 1.736 1.008 2.744 2.295 2.744.76 0 1.597-.263 2.185-.666.032.077.063.248.063.403 0 .698-1.023 1.348-2.667 1.348-1.767 0-3.209-1.379-3.209-3.55 0-2.697 1.628-4.17 3.24-4.17zm-41.989-.016c1.24 0 1.736.372 1.736.961 0 .233-.031.435-.077.652-.496-.341-1.179-.59-1.767-.59-.993 0-1.457.434-1.457.962 0 .52.242.825 1.031 1.154l1.014.396c1.117.434 1.536 1.008 1.536 1.922 0 1.194-1.148 2.28-2.884 2.28-1.364 0-1.969-.434-1.969-1.271 0-.218.047-.466.14-.636.697.651 1.364.977 2.185.977.868 0 1.319-.42 1.319-.961 0-.544-.311-.885-1.334-1.319l-.775-.325c-.9-.388-1.395-1.039-1.395-1.923 0-1.224 1.085-2.279 2.697-2.279zm-46.266-2.496c.62 0 .899.047 1.302.171v.279c-.682.217-.884.496-.884 1.458v8.123l-.728.17-4.899-8.077-.015.016v7.163l.945.248v.34c-.45.171-.898.264-1.41.264-.62 0-1.04-.047-1.411-.155v-.294c.682-.187.9-.528.9-1.364v-7.458l-.977-.264v-.449a13.585 13.585 0 011.705-.109h.573l4.31 7.085.03-.015v-6.294l-.991-.248v-.326c.511-.155 1.023-.264 1.55-.264zm108.761 1.473l-.062 1.395h2.046l-.108.837h-1.984l-.04 2.431-.007.903v.434c0 1.256.372 1.69.945 1.69.45 0 .838-.155 1.148-.403l.155.062c-.063.914-.605 1.38-1.675 1.38-1.24 0-1.845-.651-1.845-2.156l.005-.57.042-1.709.046-2.062h-.852v-.51l1.674-1.66.512-.062zm-50.187 0l-.063 1.395h2.047l-.108.837h-1.985l-.031 1.954c-.008.325-.012.635-.014.936l-.002.878c0 1.256.372 1.69.946 1.69.45 0 .838-.155 1.147-.403l.155.062c-.062.914-.604 1.38-1.674 1.38-1.24 0-1.845-.651-1.845-2.156 0-.372.008-.763.017-1.15l.03-1.129.046-2.062h-.853v-.51l1.675-1.66.512-.062zm-46.98 0l-.063 1.395h2.046l-.108.837h-1.984l-.04 2.431-.007.903v.434c0 1.256.372 1.69.945 1.69.45 0 .838-.155 1.148-.403l.155.062c-.063.914-.605 1.38-1.675 1.38-1.24 0-1.845-.651-1.845-2.156 0-.372.008-.763.018-1.15l.03-1.129.045-2.062h-.852v-.51l1.674-1.66.512-.062zm-59.783 0l-.063 1.395h2.047l-.11.837h-1.983l-.04 2.431-.006.903v.434c0 1.256.372 1.69.945 1.69.45 0 .837-.155 1.147-.403l.156.062c-.063.914-.605 1.38-1.675 1.38-1.24 0-1.845-.651-1.845-2.156l.005-.57.042-1.709.046-2.062h-.853v-.51l1.675-1.66.512-.062zm-54.59-1.426c.573 0 1.007.047 1.44.155v.294c-.666.186-.898.496-.898 1.117v7.69l.977.248v.34a6.157 6.157 0 01-1.783.264c-.62 0-1.024-.047-1.442-.155v-.294c.527-.155.9-.435.9-1.194v-7.628l-.978-.248v-.34a6.658 6.658 0 011.783-.249zm185.795 2.573l-.078.837v5.892l.868.233v.294c-.526.186-1.008.263-1.798.263-.356 0-.806-.03-1.163-.14v-.263c.419-.154.821-.465.821-.837v-5.24l-.992-.418v-.326c.698-.202 1.411-.295 1.846-.295h.496zm-97.54-.03c1.287 0 2.17.82 2.17 2.418v4.341l.806.233v.294c-.418.17-.96.263-1.627.263-.326 0-.698-.03-1.008-.14v-.263c.387-.17.558-.465.558-1.022V52.51c0-1.52-.635-2.093-1.55-2.093-.635 0-1.256.217-1.597.48v5.21l.868.233v.294c-.527.186-1.023.263-1.798.263-.372 0-.806-.03-1.163-.14v-.263c.403-.154.822-.465.822-.837v-5.24L147.311 50v-.341a7.286 7.286 0 011.86-.28h.372v.837c.526-.527 1.395-.868 2.294-.868zm56.048.03l-.078.837v5.892l.868.233v.294c-.527.186-1.008.263-1.798.263-.356 0-.807-.03-1.163-.14v-.263c.419-.154.821-.465.821-.837v-5.24l-.992-.418v-.326c.698-.202 1.411-.295 1.846-.295h.496zm-4.247-3.752l-.078.869v9.612l.868.233v.294c-.528.186-1.024.263-1.798.263-.372 0-.807-.03-1.163-.14v-.263c.403-.154.822-.465.822-.837v-8.991l-1.008-.42v-.34a7.286 7.286 0 011.86-.28h.497zm26.318 3.752l-.078.837v5.892l.868.233v.294c-.527.186-1.008.263-1.798.263-.356 0-.806-.03-1.163-.14v-.263c.42-.154.822-.465.822-.837v-5.24l-.992-.418v-.326c.698-.202 1.41-.295 1.845-.295h.496zm-106.762 0l-.078.837v5.892l.868.233v.294c-.527.186-1.007.263-1.797.263-.357 0-.807-.03-1.164-.14v-.263c.42-.154.823-.465.823-.837v-5.24l-.992-.418v-.326c.697-.202 1.41-.295 1.844-.295h.496zm-15.547-.077c.543 0 .806.233.806.666 0 .295-.093.636-.248.93a1.567 1.567 0 00-.96-.356c-.481 0-.93.217-1.365.636v4.93l1.07.233v.294c-.527.186-1.039.263-1.923.263-.449 0-.883-.03-1.24-.14v-.263c.403-.154.822-.465.822-.837v-5.24L103.602 50v-.341a7.286 7.286 0 011.86-.28h.372v1.085h.016l.433-.48c.42-.45.837-.682 1.364-.682zm-19.869.046c1.302 0 2.156.791 2.156 2.465v4.295l.805.233v.294c-.434.17-.976.263-1.643.263-.31 0-.698-.03-.992-.14v-.263c.387-.17.558-.465.558-1.022v-3.024c0-1.41-.62-2.031-1.582-2.031-.558 0-1.085.14-1.488.357.062.325.094.76.094 1.162v4.171l.805.233v.294c-.433.17-.96.263-1.628.263-.325 0-.697-.03-1.008-.14v-.263c.388-.17.56-.465.56-1.022V52.62c0-1.721-.513-2.202-1.474-2.202-.62 0-1.209.217-1.535.48v5.21l.868.233v.294c-.542.186-1.022.263-1.797.263-.373 0-.807-.03-1.164-.14v-.263c.404-.154.822-.465.822-.837v-5.24L79.128 50v-.341a7.286 7.286 0 011.86-.28h.372v.837c.542-.527 1.365-.868 2.279-.868.728 0 1.442.388 1.752.946.48-.48 1.52-.946 2.387-.946zm-12.725 0c1.301 0 2.154.791 2.154 2.465v4.295l.807.233v.294c-.434.17-.977.263-1.644.263-.31 0-.697-.03-.992-.14v-.263c.388-.17.559-.465.559-1.022v-3.024c0-1.41-.62-2.031-1.582-2.031-.558 0-1.085.14-1.488.357.062.325.093.76.093 1.162v4.171l.806.233v.294c-.434.17-.961.263-1.628.263-.325 0-.698-.03-1.008-.14v-.263c.388-.17.558-.465.558-1.022V52.62c0-1.721-.511-2.202-1.472-2.202-.62 0-1.21.217-1.535.48v5.21l.868.233v.294c-.543.186-1.023.263-1.798.263-.372 0-.807-.03-1.163-.14v-.263c.403-.154.822-.465.822-.837v-5.24L66.402 50v-.341a7.292 7.292 0 011.86-.28h.372v.837c.543-.527 1.365-.868 2.28-.868.728 0 1.441.388 1.751.946.48-.48 1.52-.946 2.388-.946zm187.918 0c1.287 0 2.17.822 2.17 2.42v4.34l.806.233v.294c-.418.17-.96.263-1.628.263-.325 0-.697-.03-1.007-.14v-.263c.387-.17.558-.465.558-1.022V52.51c0-1.52-.636-2.093-1.55-2.093-.636 0-1.256.217-1.597.48v5.21l.868.233v.294c-.527.186-1.023.263-1.798.263-.372 0-.807-.03-1.163-.14v-.263c.403-.154.821-.465.821-.837v-5.24L258.444 50v-.341a7.286 7.286 0 011.86-.28h.373v.837c.526-.527 1.394-.868 2.294-.868zm-69.982-.046c.543 0 .806.233.806.666 0 .295-.093.636-.248.93a1.567 1.567 0 00-.961-.356c-.48 0-.93.217-1.364.636v4.93l1.07.233v.294c-.527.186-1.04.263-1.923.263-.45 0-.884-.03-1.24-.14v-.263c.403-.154.822-.465.822-.837v-5.24L188.943 50v-.341a7.286 7.286 0 011.86-.28h.373v1.085h.015l.434-.48c.419-.45.837-.682 1.364-.682zm-98.78.077l-.078.837v5.892l.868.233v.294c-.526.186-1.008.263-1.798.263-.356 0-.806-.03-1.163-.14v-.263c.419-.154.821-.465.821-.837v-5.24L91.867 50v-.326c.698-.202 1.411-.295 1.846-.295h.496zm18.692 4.093c-1.75 0-2.697.729-2.697 1.566 0 .62.419 1.024 1.21 1.024.48 0 1.1-.187 1.487-.42v-2.17zm106.763 0c-1.752 0-2.697.729-2.697 1.566 0 .62.419 1.024 1.209 1.024.48 0 1.101-.187 1.488-.42v-2.17zm-21.42 0c-1.752 0-2.698.729-2.698 1.566 0 .62.419 1.024 1.209 1.024.481 0 1.1-.187 1.488-.42v-2.17zm-25.56 0c-1.752 0-2.698.729-2.698 1.566 0 .62.42 1.024 1.21 1.024.48 0 1.1-.187 1.488-.42v-2.17zm70.044-3.317c-1.319 0-2.311 1.038-2.311 3.193 0 1.69.884 2.605 1.86 2.605.59 0 1.225-.202 1.582-.496v-5.132a3.782 3.782 0 00-1.131-.17zm-143.465-.11c-.884 0-1.628.838-1.628 2.187 0 1.302.728 1.938 1.488 1.938.945 0 1.69-.682 1.69-2.202 0-1.302-.729-1.922-1.55-1.922zm36.78 1.846l-.217 1.116-3.659.17.295-1.131 3.581-.155zm-7.734-1.783c-.853 0-1.752 1.023-1.752 2.248h3.318c0-1.52-.651-2.248-1.566-2.248zm15.05 0c-.853 0-1.753 1.023-1.753 2.248h3.318c0-1.52-.65-2.248-1.566-2.248zm91.711 0c-.852 0-1.752 1.023-1.752 2.248h3.319c0-1.52-.652-2.248-1.567-2.248zm19.422 0c-.852 0-1.752 1.023-1.752 2.248h3.319c0-1.52-.652-2.248-1.567-2.248zM93.573 46.155c.434 0 .806.325.806.837 0 .543-.372.961-.868.961-.465 0-.822-.372-.822-.884 0-.48.341-.914.884-.914zm113.676 0c.434 0 .806.325.806.837 0 .543-.372.961-.868.961-.465 0-.822-.372-.822-.884 0-.48.341-.914.884-.914zm-84.69 0c.433 0 .805.325.805.837 0 .543-.372.961-.868.961-.465 0-.821-.372-.821-.884 0-.48.34-.914.884-.914zm106.761 0c.434 0 .806.325.806.837 0 .543-.372.961-.868.961-.465 0-.821-.372-.821-.884 0-.48.34-.914.883-.914zm19.421 0c.434 0 .806.325.806.837 0 .543-.372.961-.868.961-.465 0-.822-.372-.822-.884 0-.48.341-.914.884-.914z"/>
      </g>
    </g>
  </svg>
