<svg width="48" height="48" viewBox="0 0 48 48" fill="none" xmlns="http://www.w3.org/2000/svg">
<path d="M23.9998 12.96C16.2036 12.96 9.86133 18.7744 9.86133 25.9202C9.86133 26.5452 10.1096 27.1445 10.5515 27.5864C10.9934 28.0283 11.5928 28.2766 12.2177 28.2766C12.8427 28.2766 13.4421 28.0283 13.884 27.5864C14.3259 27.1445 14.5741 26.5452 14.5741 25.9202C14.5853 24.6422 14.9142 23.387 15.5313 22.2677C16.1483 21.1484 17.0341 20.2002 18.1088 19.5084V27.0984H29.8908V19.5084C30.9655 20.2002 31.8512 21.1484 32.4683 22.2677C33.0853 23.387 33.4142 24.6422 33.4254 25.9202C33.4254 26.5452 33.6737 27.1445 34.1156 27.5864C34.5575 28.0283 35.1568 28.2766 35.7818 28.2766C36.4068 28.2766 37.0061 28.0283 37.448 27.5864C37.8899 27.1445 38.1382 26.5452 38.1382 25.9202C38.1382 18.7744 31.7959 12.96 23.9998 12.96Z" fill="#011E41"/>
<path d="M24.0002 10.6038C26.9283 10.6038 29.3021 8.23008 29.3021 5.30191C29.3021 2.37375 26.9283 0 24.0002 0C21.072 0 18.6982 2.37375 18.6982 5.30191C18.6982 8.23008 21.072 10.6038 24.0002 10.6038Z" fill="#011E41"/>
<path d="M20.6298 43.7109C19.8149 43.1434 19.1569 42.3789 18.7171 41.4886C18.2773 40.5983 18.07 39.6112 18.1144 38.6191C18.1589 37.6271 18.4537 36.6625 18.9714 35.8151C19.489 34.9677 20.2128 34.2651 21.0751 33.7728C21.1148 33.7515 21.149 33.7213 21.175 33.6845C21.2009 33.6477 21.2179 33.6053 21.2245 33.5608C21.2312 33.5162 21.2273 33.4708 21.2132 33.428C21.1991 33.3852 21.1753 33.3463 21.1435 33.3144L18.1603 30.3312C18.1097 30.2805 18.0427 30.2493 17.9713 30.2433C17.8999 30.2372 17.8287 30.2567 17.7703 30.2982C16.4086 31.2859 15.3016 32.5835 14.5408 34.0838C13.7801 35.5842 13.3876 37.244 13.3956 38.9262C13.4037 40.6083 13.8121 42.2644 14.5872 43.7573C15.3622 45.2503 16.4816 46.5373 17.8527 47.5118C18.3223 47.8532 18.8987 48.0147 19.4773 47.9672C20.0558 47.9196 20.5981 47.6661 21.0056 47.2526C21.237 47.0061 21.4126 46.7127 21.5202 46.3922C21.6279 46.0717 21.6651 45.7318 21.6295 45.3956C21.5938 45.0594 21.486 44.7349 21.3135 44.4441C21.141 44.1534 20.9078 43.9033 20.6298 43.7109V43.7109ZM30.2286 30.2982C30.1703 30.257 30.0993 30.2377 30.0282 30.2438C29.957 30.2498 29.8903 30.2808 29.8398 30.3312L26.8554 33.3144C26.8236 33.3463 26.7997 33.3852 26.7857 33.428C26.7716 33.4708 26.7677 33.5162 26.7743 33.5608C26.781 33.6053 26.798 33.6477 26.8239 33.6845C26.8498 33.7213 26.884 33.7515 26.9237 33.7728C27.7861 34.2651 28.5098 34.9677 29.0275 35.8151C29.5452 36.6625 29.84 37.6271 29.8844 38.6191C29.9289 39.6112 29.7216 40.5983 29.2817 41.4886C28.8419 42.3789 28.184 43.1434 27.3691 43.7109C26.9583 43.9976 26.6496 44.4078 26.4877 44.8819C26.3259 45.356 26.3194 45.8694 26.4691 46.3474C26.6188 46.8255 26.917 47.2434 27.3204 47.5405C27.7237 47.8376 28.2113 47.9984 28.7122 47.9996C29.1925 47.9968 29.6607 47.849 30.0554 47.5754C31.4443 46.6099 32.5819 45.326 33.373 43.8309C34.1641 42.3358 34.5858 40.673 34.6027 38.9815C34.6197 37.2901 34.2314 35.6192 33.4704 34.1086C32.7095 32.5979 31.5979 31.2914 30.2286 30.2982Z" fill="#011E41"/>
</svg>
