<svg width="48" height="48" viewBox="0 0 48 48" fill="none" xmlns="http://www.w3.org/2000/svg">
<path d="M32 14H16C15.735 14.0008 15.4811 14.1064 15.2938 14.2938C15.1064 14.4811 15.0008 14.735 15 15V45C15.0024 45.7949 15.3192 46.5566 15.8813 47.1187C16.4434 47.6808 17.2051 47.9976 18 48H30C30.7949 47.9976 31.5566 47.6808 32.1187 47.1187C32.6808 46.5566 32.9976 45.7949 33 45V15C32.9992 14.735 32.8936 14.4811 32.7062 14.2938C32.5189 14.1064 32.265 14.0008 32 14V14ZM25 33H19C18.7348 33 18.4804 32.8946 18.2929 32.7071C18.1054 32.5196 18 32.2652 18 32C18 31.7348 18.1054 31.4804 18.2929 31.2929C18.4804 31.1054 18.7348 31 19 31H25C25.2652 31 25.5196 31.1054 25.7071 31.2929C25.8946 31.4804 26 31.7348 26 32C26 32.2652 25.8946 32.5196 25.7071 32.7071C25.5196 32.8946 25.2652 33 25 33ZM25 28H19C18.7348 28 18.4804 27.8946 18.2929 27.7071C18.1054 27.5196 18 27.2652 18 27C18 26.7348 18.1054 26.4804 18.2929 26.2929C18.4804 26.1054 18.7348 26 19 26H25C25.2652 26 25.5196 26.1054 25.7071 26.2929C25.8946 26.4804 26 26.7348 26 27C26 27.2652 25.8946 27.5196 25.7071 27.7071C25.5196 27.8946 25.2652 28 25 28ZM25 23H19C18.7348 23 18.4804 22.8946 18.2929 22.7071C18.1054 22.5196 18 22.2652 18 22C18 21.7348 18.1054 21.4804 18.2929 21.2929C18.4804 21.1054 18.7348 21 19 21H25C25.2652 21 25.5196 21.1054 25.7071 21.2929C25.8946 21.4804 26 21.7348 26 22C26 22.2652 25.8946 22.5196 25.7071 22.7071C25.5196 22.8946 25.2652 23 25 23ZM32 9H31L26 4V2C26 1.46957 25.7893 0.960859 25.4142 0.585786C25.0391 0.210714 24.5304 0 24 0C23.4696 0 22.9609 0.210714 22.5858 0.585786C22.2107 0.960859 22 1.46957 22 2V4L17 9H16C15.7348 9 15.4804 9.10536 15.2929 9.29289C15.1054 9.48043 15 9.73478 15 10V11C15 11.2652 15.1054 11.5196 15.2929 11.7071C15.4804 11.8946 15.7348 12 16 12H32C32.2652 12 32.5196 11.8946 32.7071 11.7071C32.8946 11.5196 33 11.2652 33 11V10C33 9.73478 32.8946 9.48043 32.7071 9.29289C32.5196 9.10536 32.2652 9 32 9Z" fill="#011E41"/>
</svg>
