<svg width="48" height="48" viewBox="0 0 48 48" fill="none" xmlns="http://www.w3.org/2000/svg">
<path d="M5.5 0H19.5V7H5.5V0ZM6.5 9H18.5V42C18.5 45.3 15.8 48 12.5 48C9.2 48 6.5 45.3 6.5 42V9ZM9.5 28H15.5V17H9.5V28ZM42.5 27.5C42.5 28.3 41.8 29 41 29H40.8L37.9 28.7C37.7 29.3 37.4 29.8 37 30.3L38.1 31.6C38.6 32.2 38.6 33.2 37.9 33.7C37.3 34.2 36.3 34.2 35.8 33.5L34.7 32.2C34.1 32.5 33.4 32.8 32.6 32.9L32.5 34.7C32.4 35.5 31.8 36 31 36H30.8C30 35.9 29.4 35.2 29.5 34.3L29.7 32.7C28.8 32.5 28 32.1 27.3 31.6L25.9 32.7C25.2 33.2 24.3 33.1 23.8 32.4C23.3 31.7 23.4 30.8 24.1 30.3L25.4 29.3C25 28.6 24.8 27.9 24.7 27.2L22.8 27C22 26.9 21.4 26.2 21.5 25.3C21.6 24.5 22.3 23.9 23.2 24L24.8 24.2C25 23.4 25.4 22.6 25.9 21.9L23.9 19.5C23.4 18.9 23.4 17.9 24.1 17.4C24.7 16.9 25.7 16.9 26.2 17.6L28.2 19.9C29.2 19.4 30.3 19.1 31.4 19L31.6 17.3C31.7 16.5 32.4 15.9 33.3 16C34.1 16.1 34.7 16.8 34.6 17.7L34.4 19.6C35.1 19.9 35.8 20.4 36.4 21L37.2 20.4C37.9 19.9 38.8 20 39.3 20.7C39.8 21.4 39.7 22.3 39 22.8L38.1 23.5C38.4 24.2 38.6 25 38.6 25.8L41.3 26.1C41.9 26.1 42.5 26.7 42.5 27.5V27.5ZM31.5 24C31.5 22.9 30.6 22 29.5 22C28.4 22 27.5 22.9 27.5 24C27.5 25.1 28.4 26 29.5 26C30.6 26 31.5 25.1 31.5 24ZM34.5 28.5C34.5 27.7 33.8 27 33 27C32.2 27 31.5 27.7 31.5 28.5C31.5 29.3 32.2 30 33 30C33.8 30 34.5 29.3 34.5 28.5Z" fill="#011E41"/>
</svg>
