<svg width="48" height="48" viewBox="0 0 48 48" fill="none" xmlns="http://www.w3.org/2000/svg">
<path d="M34.5489 25.1017L31.6253 24.7745C31.5852 23.9099 31.4008 23.0582 31.0798 22.2545L32.0944 21.4799C32.2648 21.3481 32.4077 21.184 32.5148 20.997C32.6218 20.81 32.691 20.6038 32.7184 20.39C32.7457 20.1763 32.7307 19.9592 32.6742 19.7513C32.6176 19.5434 32.5207 19.3486 32.3889 19.1781C32.2571 19.0076 32.093 18.8648 31.906 18.7577C31.719 18.6506 31.5127 18.5815 31.299 18.5541C31.0853 18.5268 30.8682 18.5418 30.6603 18.5983C30.4523 18.6548 30.2576 18.7518 30.0871 18.8836L29.2362 19.549C28.5881 18.9345 27.8389 18.4363 27.0216 18.0763L27.2616 16.0036C27.2909 15.7877 27.2768 15.5682 27.2201 15.358C27.1634 15.1477 27.0653 14.9508 26.9316 14.7789C26.7978 14.607 26.6311 14.4636 26.4412 14.357C26.2513 14.2503 26.042 14.1827 25.8256 14.158C25.6092 14.1333 25.3901 14.1521 25.181 14.2132C24.972 14.2743 24.7772 14.3765 24.6082 14.5138C24.4392 14.6512 24.2992 14.8209 24.1967 15.013C24.0941 15.2051 24.0309 15.4158 24.0107 15.6326L23.7925 17.4654C22.5825 17.4949 21.3969 17.8128 20.3344 18.3926L18.1525 15.8399C18.0122 15.6766 17.841 15.5425 17.6488 15.4454C17.4566 15.3482 17.2471 15.2899 17.0323 15.2737C16.8176 15.2575 16.6017 15.2837 16.3971 15.3509C16.1925 15.4181 16.0031 15.525 15.8398 15.6654C15.6765 15.8058 15.5424 15.977 15.4453 16.1692C15.3481 16.3614 15.2898 16.5708 15.2736 16.7856C15.2574 17.0003 15.2836 17.2162 15.3508 17.4208C15.418 17.6254 15.5249 17.8148 15.6653 17.9781L17.8689 20.5526C17.3014 21.3186 16.8832 22.1846 16.6362 23.1054L14.9125 22.9199C14.4864 22.8804 14.0616 23.0094 13.7295 23.2793C13.3973 23.5492 13.1841 23.9385 13.1356 24.3638C13.087 24.789 13.2071 25.2164 13.4699 25.5542C13.7328 25.892 14.1175 26.1134 14.5416 26.1708L16.4835 26.389C16.6217 27.2099 16.8944 28.0024 17.2907 28.7345L15.9053 29.7926C15.561 30.0588 15.3365 30.4509 15.2813 30.8826C15.226 31.3142 15.3445 31.7502 15.6107 32.0945C15.8769 32.4388 16.269 32.6632 16.7006 32.7185C17.1323 32.7737 17.5682 32.6552 17.9125 32.389L19.4398 31.2108C20.2204 31.7857 21.1007 32.211 22.0362 32.4654L21.8289 34.1781C21.804 34.3916 21.8216 34.608 21.8805 34.8148C21.9395 35.0215 22.0387 35.2146 22.1726 35.3828C22.3064 35.5511 22.4721 35.6913 22.6603 35.7953C22.8484 35.8993 23.0552 35.9652 23.2689 35.989C23.3303 35.9983 23.3923 36.0019 23.4544 35.9999C23.8561 35.9996 24.2437 35.8516 24.5434 35.584C24.8431 35.3165 25.0341 34.9481 25.0798 34.549L25.3089 32.6072C26.0933 32.4716 26.8516 32.2139 27.5562 31.8436L28.7562 33.2508C29.0411 33.5785 29.4437 33.7805 29.8767 33.8132C30.3097 33.8459 30.738 33.7065 31.0689 33.4254C31.3986 33.1417 31.6021 32.7388 31.6349 32.3051C31.6676 31.8715 31.5268 31.4426 31.2435 31.1126L30.0544 29.7272C30.4619 29.1984 30.7992 28.619 31.058 28.0036L34.178 28.3526C34.2394 28.3613 34.3014 28.3649 34.3635 28.3636C34.7808 28.3627 35.1821 28.2025 35.4852 27.9156C35.7883 27.6287 35.9703 27.2368 35.994 26.8201C36.0177 26.4034 35.8813 25.9934 35.6127 25.674C35.344 25.3545 34.9635 25.1498 34.5489 25.1017V25.1017ZM21.818 25.0908C21.3865 25.0908 20.9646 24.9629 20.6058 24.7231C20.247 24.4834 19.9674 24.1426 19.8023 23.744C19.6371 23.3453 19.5939 22.9066 19.6781 22.4834C19.7623 22.0601 19.9701 21.6714 20.2752 21.3662C20.5804 21.0611 20.9691 20.8533 21.3924 20.7691C21.8156 20.6849 22.2543 20.7281 22.6529 20.8933C23.0516 21.0584 23.3924 21.3381 23.6321 21.6969C23.8719 22.0557 23.9998 22.4775 23.9998 22.909C23.9981 23.4871 23.7677 24.0411 23.3589 24.4499C22.9501 24.8587 22.3961 25.0891 21.818 25.0908ZM25.6362 29.4545C25.3125 29.4545 24.9962 29.3585 24.7271 29.1787C24.458 28.9989 24.2482 28.7433 24.1244 28.4443C24.0005 28.1453 23.9681 27.8163 24.0313 27.4989C24.0944 27.1814 24.2503 26.8899 24.4791 26.661C24.708 26.4322 24.9995 26.2763 25.3169 26.2132C25.6344 26.15 25.9634 26.1824 26.2624 26.3063C26.5614 26.4302 26.817 26.6399 26.9968 26.909C27.1766 27.1781 27.2725 27.4945 27.2725 27.8181C27.2728 28.0331 27.2307 28.246 27.1486 28.4446C27.0664 28.6433 26.9459 28.8238 26.7939 28.9758C26.6419 29.1278 26.4614 29.2484 26.2627 29.3305C26.0641 29.4126 25.8512 29.4548 25.6362 29.4545V29.4545Z" fill="#011E41"/>
<path d="M41.4545 0H6.54545C4.81011 0.00202103 3.14642 0.692278 1.91935 1.91935C0.692278 3.14642 0.00202103 4.81011 0 6.54545L0 41.4545C0.00202103 43.1899 0.692278 44.8536 1.91935 46.0806C3.14642 47.3077 4.81011 47.998 6.54545 48H41.4545C43.1899 47.998 44.8536 47.3077 46.0806 46.0806C47.3077 44.8536 47.998 43.1899 48 41.4545V6.54545C47.998 4.81011 47.3077 3.14642 46.0806 1.91935C44.8536 0.692278 43.1899 0.00202103 41.4545 0V0ZM43.6364 41.4545C43.6355 42.0329 43.4054 42.5874 42.9964 42.9964C42.5874 43.4054 42.0329 43.6355 41.4545 43.6364H6.54545C5.96707 43.6355 5.41262 43.4054 5.00363 42.9964C4.59465 42.5874 4.3645 42.0329 4.36364 41.4545V6.54545C4.3645 5.96707 4.59465 5.41262 5.00363 5.00363C5.41262 4.59465 5.96707 4.3645 6.54545 4.36364H41.4545C42.0329 4.3645 42.5874 4.59465 42.9964 5.00363C43.4054 5.41262 43.6355 5.96707 43.6364 6.54545V41.4545Z" fill="#011E41"/>
</svg>
