<svg width="48" height="48" viewBox="0 0 48 48" fill="none" xmlns="http://www.w3.org/2000/svg">
<path d="M2 9.98549H6.317C6.7296 11.1591 7.49639 12.1757 8.5115 12.8948C9.52662 13.614 10.74 14.0002 11.984 14.0002C13.228 14.0002 14.4414 13.614 15.4565 12.8948C16.4716 12.1757 17.2384 11.1591 17.651 9.98549H46C46.5304 9.98549 47.0391 9.77478 47.4142 9.39971C47.7893 9.02463 48 8.51593 48 7.98549C48 7.45506 47.7893 6.94635 47.4142 6.57128C47.0391 6.19621 46.5304 5.98549 46 5.98549H17.651C17.2389 4.81141 16.4722 3.79432 15.4571 3.07477C14.4419 2.35523 13.2283 1.96875 11.984 1.96875C10.7397 1.96875 9.52609 2.35523 8.51092 3.07477C7.49575 3.79432 6.72913 4.81141 6.317 5.98549H2C1.46957 5.98549 0.960859 6.19621 0.585786 6.57128C0.210714 6.94635 0 7.45506 0 7.98549C0 8.51593 0.210714 9.02463 0.585786 9.39971C0.960859 9.77478 1.46957 9.98549 2 9.98549V9.98549ZM11.984 5.96849C12.3827 5.96849 12.7724 6.0867 13.1039 6.30818C13.4354 6.52966 13.6938 6.84445 13.8464 7.21277C13.9991 7.58109 14.039 7.98639 13.9613 8.37743C13.8836 8.76847 13.6917 9.12768 13.4099 9.40967C13.128 9.69165 12.7689 9.88373 12.3779 9.96163C11.9869 10.0395 11.5816 9.99975 11.2132 9.84732C10.8448 9.69489 10.5299 9.43665 10.3082 9.10525C10.0866 8.77385 9.9682 8.38418 9.968 7.98549C9.96827 7.4508 10.1807 6.93808 10.5587 6.5599C10.9367 6.18173 11.4493 5.96902 11.984 5.96849V5.96849ZM46 38.0175H25.683C25.2709 36.8434 24.5042 35.8263 23.4891 35.1068C22.4739 34.3872 21.2603 34.0007 20.016 34.0007C18.7717 34.0007 17.5581 34.3872 16.5429 35.1068C15.5278 35.8263 14.7611 36.8434 14.349 38.0175H2C1.46957 38.0175 0.960859 38.2282 0.585786 38.6033C0.210714 38.9783 0 39.4871 0 40.0175C0 40.5479 0.210714 41.0566 0.585786 41.4317C0.960859 41.8068 1.46957 42.0175 2 42.0175H14.349C14.7616 43.1911 15.5284 44.2077 16.5435 44.9268C17.5586 45.646 18.772 46.0322 20.016 46.0322C21.26 46.0322 22.4734 45.646 23.4885 44.9268C24.5036 44.2077 25.2704 43.1911 25.683 42.0175H46C46.5304 42.0175 47.0391 41.8068 47.4142 41.4317C47.7893 41.0566 48 40.5479 48 40.0175C48 39.4871 47.7893 38.9783 47.4142 38.6033C47.0391 38.2282 46.5304 38.0175 46 38.0175ZM20.016 42.0325C19.6172 42.0325 19.2274 41.9142 18.8959 41.6927C18.5643 41.4711 18.3059 41.1562 18.1534 40.7878C18.0008 40.4193 17.9609 40.0139 18.0388 39.6228C18.1167 39.2317 18.3088 38.8725 18.5908 38.5906C18.8729 38.3087 19.2322 38.1168 19.6233 38.0391C20.0144 37.9614 20.4198 38.0015 20.7882 38.1542C21.1565 38.307 21.4713 38.5655 21.6927 38.8972C21.9141 39.2289 22.0322 39.6187 22.032 40.0175C22.0312 40.5518 21.8185 41.064 21.4406 41.4418C21.0627 41.8195 20.5503 42.032 20.016 42.0325ZM46 22.0005H41.683C41.2704 20.8269 40.5036 19.8103 39.4885 19.0912C38.4734 18.372 37.26 17.9858 36.016 17.9858C34.772 17.9858 33.5586 18.372 32.5435 19.0912C31.5284 19.8103 30.7616 20.8269 30.349 22.0005H2C1.46957 22.0005 0.960859 22.2112 0.585786 22.5863C0.210714 22.9614 0 23.4701 0 24.0005C0 24.5309 0.210714 25.0396 0.585786 25.4147C0.960859 25.7898 1.46957 26.0005 2 26.0005H30.349C30.7611 27.1746 31.5278 28.1917 32.5429 28.9112C33.5581 29.6308 34.7717 30.0172 36.016 30.0172C37.2603 30.0172 38.4739 29.6308 39.4891 28.9112C40.5042 28.1917 41.2709 27.1746 41.683 26.0005H46C46.5304 26.0005 47.0391 25.7898 47.4142 25.4147C47.7893 25.0396 48 24.5309 48 24.0005C48 23.4701 47.7893 22.9614 47.4142 22.5863C47.0391 22.2112 46.5304 22.0005 46 22.0005ZM36.016 26.0175C35.6173 26.0175 35.2276 25.8993 34.8961 25.6778C34.5646 25.4563 34.3062 25.1415 34.1536 24.7732C34.0009 24.4049 33.961 23.9996 34.0387 23.6086C34.1164 23.2175 34.3083 22.8583 34.5901 22.5763C34.872 22.2943 35.2311 22.1023 35.6221 22.0244C36.0131 21.9465 36.4184 21.9862 36.7868 22.1387C37.1552 22.2911 37.4701 22.5493 37.6918 22.8807C37.9134 23.2121 38.0318 23.6018 38.032 24.0005C38.0317 24.5352 37.8193 25.0479 37.4413 25.4261C37.0633 25.8043 36.5507 26.017 36.016 26.0175V26.0175Z" fill="#011E41"/>
</svg>
