<svg width="48" height="48" viewBox="0 0 48 48" fill="none" xmlns="http://www.w3.org/2000/svg">
<path d="M45.3971 27.001C45.7339 27.0145 46.07 26.9598 46.3852 26.8402C46.7004 26.7206 46.9881 26.5385 47.2312 26.305C47.4743 26.0714 47.6677 25.7912 47.7998 25.481C47.9319 25.1709 48 24.8373 48 24.5002C48 24.1631 47.9319 23.8294 47.7998 23.5193C47.6677 23.2092 47.4743 22.9289 47.2312 22.6954C46.9881 22.4618 46.7004 22.2798 46.3852 22.1602C46.07 22.0406 45.7339 21.9859 45.3971 21.9993H42.006V17.998H45.3971C45.7339 18.0115 46.07 17.9568 46.3852 17.8372C46.7004 17.7176 46.9881 17.5355 47.2312 17.302C47.4743 17.0684 47.6677 16.7882 47.7998 16.478C47.9319 16.1679 48 15.8343 48 15.4972C48 15.1601 47.9319 14.8264 47.7998 14.5163C47.6677 14.2062 47.4743 13.9259 47.2312 13.6924C46.9881 13.4588 46.7004 13.2768 46.3852 13.1572C46.07 13.0376 45.7339 12.9829 45.3971 12.9963H42.006V8.0647C42.0057 7.78091 41.8929 7.50881 41.6922 7.30814C41.4915 7.10746 41.2194 6.99461 40.9356 6.99435H36.004V2.60289C36.0175 2.26606 35.9628 1.92997 35.8432 1.61481C35.7235 1.29964 35.5415 1.01188 35.308 0.768798C35.0744 0.525714 34.7942 0.332316 34.484 0.200207C34.1739 0.0680976 33.8403 0 33.5032 0C33.1661 0 32.8324 0.0680976 32.5223 0.200207C32.2122 0.332316 31.9319 0.525714 31.6984 0.768798C31.4648 1.01188 31.2828 1.29964 31.1632 1.61481C31.0436 1.92997 30.9889 2.26606 31.0023 2.60289V6.99435H27.001V2.60289C27.0145 2.26606 26.9598 1.92997 26.8402 1.61481C26.7206 1.29964 26.5385 1.01188 26.305 0.768798C26.0714 0.525714 25.7912 0.332316 25.481 0.200207C25.1709 0.0680976 24.8373 0 24.5002 0C24.1631 0 23.8294 0.0680976 23.5193 0.200207C23.2092 0.332316 22.9289 0.525714 22.6954 0.768798C22.4618 1.01188 22.2798 1.29964 22.1602 1.61481C22.0406 1.92997 21.9859 2.26606 21.9993 2.60289V6.99435H17.998V2.60289C18.0115 2.26606 17.9568 1.92997 17.8372 1.61481C17.7176 1.29964 17.5355 1.01188 17.302 0.768798C17.0684 0.525714 16.7882 0.332316 16.478 0.200207C16.1679 0.0680976 15.8343 0 15.4972 0C15.1601 0 14.8264 0.0680976 14.5163 0.200207C14.2062 0.332316 13.9259 0.525714 13.6924 0.768798C13.4588 1.01188 13.2768 1.29964 13.1572 1.61481C13.0376 1.92997 12.9829 2.26606 12.9963 2.60289V6.99435H8.0647C7.78091 6.99461 7.50881 7.10746 7.30814 7.30814C7.10746 7.50881 6.99461 7.78091 6.99435 8.0647V12.9963H2.60289C2.26606 12.9829 1.92997 13.0376 1.61481 13.1572C1.29964 13.2768 1.01188 13.4588 0.768798 13.6924C0.525714 13.9259 0.332316 14.2062 0.200207 14.5163C0.0680976 14.8264 0 15.1601 0 15.4972C0 15.8343 0.0680976 16.1679 0.200207 16.478C0.332316 16.7882 0.525714 17.0684 0.768798 17.302C1.01188 17.5355 1.29964 17.7176 1.61481 17.8372C1.92997 17.9568 2.26606 18.0115 2.60289 17.998H6.99435V21.9993H2.60289C2.26606 21.9859 1.92997 22.0406 1.61481 22.1602C1.29964 22.2798 1.01188 22.4618 0.768798 22.6954C0.525714 22.9289 0.332316 23.2092 0.200207 23.5193C0.0680976 23.8294 0 24.1631 0 24.5002C0 24.8373 0.0680976 25.1709 0.200207 25.481C0.332316 25.7912 0.525714 26.0714 0.768798 26.305C1.01188 26.5385 1.29964 26.7206 1.61481 26.8402C1.92997 26.9598 2.26606 27.0145 2.60289 27.001H6.99435V31.0023H2.60289C2.26606 30.9889 1.92997 31.0436 1.61481 31.1632C1.29964 31.2828 1.01188 31.4648 0.768798 31.6984C0.525714 31.9319 0.332316 32.2122 0.200207 32.5223C0.0680976 32.8324 0 33.1661 0 33.5032C0 33.8403 0.0680976 34.1739 0.200207 34.484C0.332316 34.7942 0.525714 35.0744 0.768798 35.308C1.01188 35.5415 1.29964 35.7235 1.61481 35.8432C1.92997 35.9628 2.26606 36.0175 2.60289 36.004H6.99435V40.9356C6.99461 41.2194 7.10746 41.4915 7.30814 41.6922C7.50881 41.8929 7.78091 42.0057 8.0647 42.006H12.9963V45.3971C12.9829 45.7339 13.0376 46.07 13.1572 46.3852C13.2768 46.7004 13.4588 46.9881 13.6924 47.2312C13.9259 47.4743 14.2062 47.6677 14.5163 47.7998C14.8264 47.9319 15.1601 48 15.4972 48C15.8343 48 16.1679 47.9319 16.478 47.7998C16.7882 47.6677 17.0684 47.4743 17.302 47.2312C17.5355 46.9881 17.7176 46.7004 17.8372 46.3852C17.9568 46.07 18.0115 45.7339 17.998 45.3971V42.006H21.9993V45.3971C21.9859 45.7339 22.0406 46.07 22.1602 46.3852C22.2798 46.7004 22.4618 46.9881 22.6954 47.2312C22.9289 47.4743 23.2092 47.6677 23.5193 47.7998C23.8294 47.9319 24.1631 48 24.5002 48C24.8373 48 25.1709 47.9319 25.481 47.7998C25.7912 47.6677 26.0714 47.4743 26.305 47.2312C26.5385 46.9881 26.7206 46.7004 26.8402 46.3852C26.9598 46.07 27.0145 45.7339 27.001 45.3971V42.006H31.0023V45.3971C30.9889 45.7339 31.0436 46.07 31.1632 46.3852C31.2828 46.7004 31.4648 46.9881 31.6984 47.2312C31.9319 47.4743 32.2122 47.6677 32.5223 47.7998C32.8324 47.9319 33.1661 48 33.5032 48C33.8403 48 34.1739 47.9319 34.484 47.7998C34.7942 47.6677 35.0744 47.4743 35.308 47.2312C35.5415 46.9881 35.7235 46.7004 35.8432 46.3852C35.9628 46.07 36.0175 45.7339 36.004 45.3971V42.006H40.9356C41.2194 42.0057 41.4915 41.8929 41.6922 41.6922C41.8929 41.4915 42.0057 41.2194 42.006 40.9356V36.004H45.3971C45.7339 36.0175 46.07 35.9628 46.3852 35.8432C46.7004 35.7235 46.9881 35.5415 47.2312 35.308C47.4743 35.0744 47.6677 34.7942 47.7998 34.484C47.9319 34.1739 48 33.8403 48 33.5032C48 33.1661 47.9319 32.8324 47.7998 32.5223C47.6677 32.2122 47.4743 31.9319 47.2312 31.6984C46.9881 31.4648 46.7004 31.2828 46.3852 31.1632C46.07 31.0436 45.7339 30.9889 45.3971 31.0023H42.006V27.001H45.3971ZM36.004 31.0023V35.3638C36.0029 35.5332 35.9352 35.6955 35.8153 35.8153C35.6955 35.9352 35.5332 36.0029 35.3638 36.004H13.6366C13.4671 36.0029 13.3049 35.9352 13.185 35.8153C13.0652 35.6955 12.9974 35.5332 12.9963 35.3638V13.6366C12.9974 13.4671 13.0652 13.3049 13.185 13.185C13.3049 13.0652 13.4671 12.9974 13.6366 12.9963H35.3638C35.5332 12.9974 35.6955 13.0652 35.8153 13.185C35.9352 13.3049 36.0029 13.4671 36.004 13.6366V31.0023Z" fill="#011E41"/>
</svg>
