<svg width="48" height="48" viewBox="0 0 48 48" fill="none" xmlns="http://www.w3.org/2000/svg">
<path d="M26 0V48H48V0H26ZM39 42C39 42.5304 38.7893 43.0391 38.4142 43.4142C38.0391 43.7893 37.5304 44 37 44C36.4696 44 35.9609 43.7893 35.5858 43.4142C35.2107 43.0391 35 42.5304 35 42V36C35.0016 35.4701 35.2128 34.9623 35.5875 34.5875C35.9623 34.2128 36.4701 34.0016 37 34C37.5293 34.0037 38.0359 34.2156 38.4102 34.5898C38.7844 34.9641 38.9963 35.4707 39 36V42ZM39 27C39 27.5304 38.7893 28.0391 38.4142 28.4142C38.0391 28.7893 37.5304 29 37 29C36.4696 29 35.9609 28.7893 35.5858 28.4142C35.2107 28.0391 35 27.5304 35 27V21C35.0016 20.4701 35.2128 19.9623 35.5875 19.5875C35.9623 19.2128 36.4701 19.0016 37 19C37.5293 19.0037 38.0359 19.2156 38.4102 19.5898C38.7844 19.9641 38.9963 20.4707 39 21V27ZM39 12C39 12.5304 38.7893 13.0391 38.4142 13.4142C38.0391 13.7893 37.5304 14 37 14C36.4696 14 35.9609 13.7893 35.5858 13.4142C35.2107 13.0391 35 12.5304 35 12V6C35.0016 5.47005 35.2128 4.96227 35.5875 4.58753C35.9623 4.2128 36.4701 4.00158 37 4C37.5293 4.00367 38.0359 4.21556 38.4102 4.58984C38.7844 4.96412 38.9963 5.4707 39 6V12ZM0 32C4.694 32 9 35.306 9 40V48H15V40C15 35.306 19.306 32 24 32V24H0V32Z" fill="#011E41"/>
</svg>
