<svg width="48" height="48" viewBox="0 0 48 48" fill="none" xmlns="http://www.w3.org/2000/svg">
<path d="M18.47 41.53C18.0026 41.0688 17.6319 40.5191 17.3795 39.913C17.1271 39.3069 16.9981 38.6566 17 38C17.0005 36.6741 17.5275 35.4026 18.4651 34.465C19.4026 33.5275 20.6741 33.0005 22 33H26.04C26.154 32.9996 26.2678 33.0097 26.38 33.03L29 18H16C14.4091 18.0013 12.8838 18.6339 11.7588 19.7588C10.6339 20.8838 10.0013 22.4091 10 24V44C9.99987 44.5253 10.1032 45.0455 10.3042 45.5309C10.5052 46.0162 10.7998 46.4573 11.1713 46.8287C11.5427 47.2002 11.9837 47.4948 12.4691 47.6958C12.9545 47.8968 13.4747 48.0001 14 48H28C28.5253 48.0001 29.0455 47.8968 29.5309 47.6958C30.0163 47.4948 30.4573 47.2002 30.8287 46.8287C31.2002 46.4573 31.4948 46.0162 31.6958 45.5309C31.8968 45.0455 32.0001 44.5253 32 44V43H22C21.3434 43.0019 20.6931 42.8729 20.087 42.6205C19.4809 42.3681 18.9312 41.9974 18.47 41.53V41.53Z" fill="#011E41"/>
<path d="M19 38C19.0013 38.7952 19.3178 39.5575 19.8801 40.1199C20.4425 40.6822 21.2048 40.9987 22 41H25L26.04 35H22C21.6059 34.9995 21.2155 35.0767 20.8513 35.2273C20.4871 35.3779 20.1562 35.5988 19.8775 35.8775C19.5988 36.1562 19.3779 36.4871 19.2273 36.8513C19.0767 37.2155 18.9995 37.6059 19 38ZM34.01 18L34 35V41H35C35.3941 41.0005 35.7845 40.9233 36.1487 40.7727C36.5129 40.6221 36.8438 40.4012 37.1225 40.1225C37.4012 39.8438 37.6221 39.5129 37.7727 39.1487C37.9233 38.7845 38.0005 38.3941 38 38V22C38.0008 20.9406 37.581 19.9243 36.8328 19.1742C36.0847 18.4242 35.0694 18.0019 34.01 18V18Z" fill="#011E41"/>
<path d="M24 14C27.866 14 31 10.866 31 7C31 3.13401 27.866 0 24 0C20.134 0 17 3.13401 17 7C17 10.866 20.134 14 24 14Z" fill="#011E41"/>
</svg>
