<svg width="48" height="48" viewBox="0 0 48 48" fill="none" xmlns="http://www.w3.org/2000/svg">
<path d="M27.5 40H20.5C20.1022 40 19.7206 40.158 19.4393 40.4393C19.158 40.7206 19 41.1022 19 41.5C19 41.8978 19.158 42.2794 19.4393 42.5607C19.7206 42.842 20.1022 43 20.5 43H27.5C27.8978 43 28.2794 42.842 28.5607 42.5607C28.842 42.2794 29 41.8978 29 41.5C29 41.1022 28.842 40.7206 28.5607 40.4393C28.2794 40.158 27.8978 40 27.5 40ZM24 14C21.5302 13.9988 19.1319 14.8293 17.1916 16.3575C15.2514 17.8857 13.8821 20.0227 13.3046 22.424C12.7271 24.8254 12.9749 27.3512 14.0081 29.5946C15.0413 31.8379 16.7997 33.668 19 34.79V37C19 37.2652 19.1054 37.5196 19.2929 37.7071C19.4804 37.8946 19.7348 38 20 38H28C28.2652 38 28.5196 37.8946 28.7071 37.7071C28.8946 37.5196 29 37.2652 29 37V34.79C31.2003 33.668 32.9587 31.8379 33.9919 29.5946C35.0251 27.3512 35.2729 24.8254 34.6954 22.424C34.1179 20.0227 32.7486 17.8857 30.8084 16.3575C28.8681 14.8293 26.4698 13.9988 24 14V14ZM24 10C24.5304 10 25.0391 9.78929 25.4142 9.41421C25.7893 9.03914 26 8.53043 26 8V2C26 1.46957 25.7893 0.960859 25.4142 0.585786C25.0391 0.210714 24.5304 0 24 0C23.4696 0 22.9609 0.210714 22.5858 0.585786C22.2107 0.960859 22 1.46957 22 2V8C22 8.53043 22.2107 9.03914 22.5858 9.41421C22.9609 9.78929 23.4696 10 24 10ZM8 22H2C1.46957 22 0.960859 22.2107 0.585786 22.5858C0.210714 22.9609 0 23.4696 0 24C0 24.5304 0.210714 25.0391 0.585786 25.4142C0.960859 25.7893 1.46957 26 2 26H8C8.53043 26 9.03914 25.7893 9.41421 25.4142C9.78929 25.0391 10 24.5304 10 24C10 23.4696 9.78929 22.9609 9.41421 22.5858C9.03914 22.2107 8.53043 22 8 22ZM46 22H40C39.4696 22 38.9609 22.2107 38.5858 22.5858C38.2107 22.9609 38 23.4696 38 24C38 24.5304 38.2107 25.0391 38.5858 25.4142C38.9609 25.7893 39.4696 26 40 26H46C46.5304 26 47.0391 25.7893 47.4142 25.4142C47.7893 25.0391 48 24.5304 48 24C48 23.4696 47.7893 22.9609 47.4142 22.5858C47.0391 22.2107 46.5304 22 46 22ZM13.946 10.732L10.155 6.08C9.81683 5.67872 9.33449 5.42642 8.812 5.37753C8.28951 5.32863 7.76873 5.48705 7.36198 5.81862C6.95522 6.15019 6.69508 6.62834 6.63766 7.14997C6.58023 7.67159 6.73012 8.19488 7.055 8.607L10.845 13.257C11.1845 13.6536 11.6656 13.9018 12.1855 13.9485C12.7055 13.9953 13.2231 13.8368 13.6279 13.507C14.0326 13.1772 14.2923 12.7023 14.3516 12.1836C14.4108 11.6649 14.2649 11.1436 13.945 10.731L13.946 10.732ZM40.66 5.794C40.4564 5.62791 40.222 5.50357 39.9703 5.4281C39.7186 5.35263 39.4545 5.3275 39.193 5.35415C38.9316 5.38081 38.678 5.45872 38.4467 5.58344C38.2154 5.70815 38.0109 5.87723 37.845 6.081L34.055 10.731C33.7198 11.1421 33.5616 11.6695 33.6152 12.1972C33.6688 12.725 33.9299 13.2098 34.341 13.545C34.7521 13.8802 35.2795 14.0384 35.8072 13.9848C36.335 13.9312 36.8198 13.6701 37.155 13.259L40.945 8.609C41.1112 8.40543 41.2356 8.17111 41.3111 7.91943C41.3867 7.66776 41.4119 7.40366 41.3853 7.14224C41.3588 6.88081 41.2809 6.62718 41.1563 6.39585C41.0317 6.16451 40.8627 5.96 40.659 5.794H40.66ZM27 45H21C20.7348 45 20.4804 45.1054 20.2929 45.2929C20.1054 45.4804 20 45.7348 20 46C20 46.5304 20.2107 47.0391 20.5858 47.4142C20.9609 47.7893 21.4696 48 22 48H26C26.5304 48 27.0391 47.7893 27.4142 47.4142C27.7893 47.0391 28 46.5304 28 46C28 45.7348 27.8946 45.4804 27.7071 45.2929C27.5196 45.1054 27.2652 45 27 45Z" fill="#011E41"/>
</svg>
