<svg width="48" height="48" viewBox="0 0 48 48" fill="none" xmlns="http://www.w3.org/2000/svg">
<path d="M19.7576 21.1087L21.0617 25.8856C21.1663 26.269 21.4189 26.595 21.7639 26.7921C22.1089 26.9892 22.5181 27.0412 22.9014 26.9366C23.2848 26.832 23.6109 26.5794 23.8079 26.2343C24.005 25.8893 24.057 25.4801 23.9524 25.0968L22.4546 19.615C22.3946 19.3959 22.2855 19.1933 22.1357 19.0226C21.9859 18.8519 21.7993 18.7174 21.5899 18.6294L17.0147 16.7083V13.1825L20.7312 11.1386C20.9327 11.0275 21.1059 10.8716 21.2375 10.6829C21.3691 10.4941 21.4555 10.2777 21.49 10.0502L21.9893 6.75509C22.0462 6.36358 21.9459 5.96544 21.7103 5.64762C21.4747 5.3298 21.1229 5.1181 20.7318 5.05875C20.3406 4.99941 19.9419 5.09724 19.6226 5.33087C19.3033 5.56451 19.0895 5.91498 19.0277 6.30576L18.6393 8.86994L16.5804 10.0023C16.3216 9.41836 15.9531 8.88957 15.495 8.44458L18.832 2.2478C18.9324 2.07423 18.997 1.88226 19.0218 1.68329C19.0466 1.48431 19.0313 1.28237 18.9766 1.08944C18.9219 0.896515 18.8291 0.71653 18.7035 0.560159C18.578 0.403788 18.4224 0.274215 18.2458 0.179123C18.0693 0.0840318 17.8754 0.025358 17.6758 0.00658112C17.4762 -0.0121958 17.2748 0.0093066 17.0836 0.0698131C16.8924 0.13032 16.7154 0.228598 16.5629 0.358822C16.4104 0.489045 16.2856 0.648561 16.1959 0.827911L12.813 7.10856C12.5519 7.06118 12.2874 7.0348 12.0221 7.02968C11.7565 7.03508 11.4917 7.06179 11.2303 7.10956L7.84934 0.827911C7.75915 0.649501 7.63416 0.490953 7.48173 0.36161C7.32929 0.232268 7.15251 0.134749 6.9618 0.0748022C6.77109 0.0148554 6.57031 -0.00630622 6.37129 0.0125646C6.17227 0.0314354 5.97904 0.0899567 5.80299 0.184679C5.62695 0.279402 5.47164 0.408408 5.34624 0.564095C5.22084 0.719781 5.12787 0.898997 5.07281 1.09118C5.01776 1.28336 5.00174 1.48462 5.02569 1.68309C5.04964 1.88156 5.11308 2.07323 5.21227 2.2468L8.5483 8.44358C8.09025 8.88863 7.72179 9.41741 7.46292 10.0013L5.40498 8.86994L5.01556 6.30576C4.9538 5.91498 4.73993 5.56451 4.42066 5.33087C4.10138 5.09724 3.70264 4.99941 3.31148 5.05875C2.92033 5.1181 2.56855 5.3298 2.33294 5.64762C2.09733 5.96544 1.99704 6.36358 2.05397 6.75509L2.55323 10.0502C2.58776 10.2777 2.67417 10.4941 2.80576 10.6829C2.93735 10.8716 3.1106 11.0275 3.3121 11.1386L7.03056 13.1825V16.7083L2.45537 18.6294C2.24598 18.7174 2.05933 18.8519 1.90953 19.0226C1.75973 19.1933 1.65069 19.3959 1.59066 19.615L0.0928875 25.0968C0.0410924 25.2866 0.0271896 25.4847 0.0519728 25.6799C0.076756 25.8751 0.13974 26.0635 0.237328 26.2343C0.334917 26.4052 0.465199 26.5551 0.620735 26.6756C0.776272 26.7961 0.954017 26.8848 1.14382 26.9366C1.33363 26.9884 1.53178 27.0023 1.72696 26.9775C1.92214 26.9527 2.11052 26.8897 2.28136 26.7921C2.4522 26.6945 2.60214 26.5642 2.72263 26.4087C2.84312 26.2532 2.93179 26.0754 2.98359 25.8856L4.28764 21.1087L7.03056 19.9574V20.0104C7.03056 21.3345 7.55656 22.6044 8.49285 23.5406C9.42914 24.4769 10.699 25.0029 12.0231 25.0029C13.3472 25.0029 14.6171 24.4769 15.5534 23.5406C16.4897 22.6044 17.0157 21.3345 17.0157 20.0104V19.9574L19.7576 21.1087ZM47.3975 27.8607C47.0871 27.6128 46.691 27.4984 46.2963 27.5426C45.9015 27.5868 45.5405 27.786 45.2926 28.0963L43.674 30.1223L41.3245 30.0734C41.3923 29.4388 41.3377 28.7972 41.1638 28.1832L47.1519 24.4837C47.4813 24.2711 47.7143 23.9378 47.8007 23.5554C47.8872 23.1729 47.8202 22.7718 47.6142 22.4382C47.4081 22.1046 47.0795 21.865 46.6988 21.7711C46.3182 21.6771 45.9158 21.7361 45.5782 21.9355L39.5072 25.6839C39.1083 25.331 38.6424 25.0621 38.1373 24.8931L38.35 17.7617C38.3601 17.5626 38.3304 17.3635 38.2626 17.176C38.1948 16.9885 38.0902 16.8164 37.955 16.6699C37.8199 16.5233 37.6568 16.4053 37.4754 16.3226C37.294 16.2399 37.0979 16.1942 36.8986 16.1883C36.6993 16.1824 36.5008 16.2163 36.3148 16.2881C36.1288 16.3599 35.959 16.4681 35.8154 16.6064C35.6718 16.7446 35.5572 16.9102 35.4784 17.0933C35.3995 17.2765 35.3581 17.4735 35.3564 17.6728L35.1467 24.7084C34.5279 24.865 33.9449 25.1389 33.4293 25.5152L32.2111 23.5042L33.1567 21.0898C33.2321 20.9059 33.2702 20.7089 33.2687 20.5102C33.2673 20.3115 33.2263 20.1151 33.1482 19.9324C33.0701 19.7496 32.9564 19.5843 32.8137 19.446C32.6711 19.3076 32.5023 19.1991 32.3173 19.1266C32.1323 19.0541 31.9347 19.0192 31.736 19.0238C31.5373 19.0285 31.3416 19.0726 31.1602 19.1537C30.9787 19.2347 30.8152 19.351 30.6792 19.4959C30.5432 19.6407 30.4373 19.8112 30.3678 19.9974L29.1526 23.1008C29.0684 23.3149 29.0348 23.5457 29.0543 23.775C29.0739 24.0043 29.1462 24.226 29.2655 24.4228L31.4622 28.0514L29.6998 31.1049L24.7772 30.4818C24.5518 30.4535 24.3229 30.4768 24.1079 30.55C23.8929 30.6231 23.6973 30.7442 23.536 30.9042L19.492 34.9112C19.2099 35.1908 19.0503 35.5711 19.0486 35.9684C19.0468 36.3657 19.2029 36.7474 19.4825 37.0295C19.7622 37.3117 20.1425 37.4712 20.5397 37.473C20.937 37.4748 21.3187 37.3187 21.6009 37.039L25.1256 33.5452L28.0752 33.9187L28.0483 33.9646C27.3863 35.1113 27.2069 36.474 27.5495 37.753C27.8922 39.0319 28.7289 40.1224 29.8756 40.7844C31.0223 41.4465 32.385 41.6259 33.6639 41.2832C34.9429 40.9405 36.0333 40.1038 36.6954 38.9572L36.7224 38.9112L38.5197 41.2797L37.2586 46.0786C37.2019 46.2708 37.1844 46.4724 37.207 46.6716C37.2297 46.8707 37.2921 47.0632 37.3905 47.2378C37.4889 47.4124 37.6214 47.5654 37.78 47.6879C37.9387 47.8103 38.1203 47.8997 38.3141 47.9507C38.5079 48.0017 38.71 48.0133 38.9083 47.9848C39.1067 47.9562 39.2973 47.8882 39.4689 47.7847C39.6405 47.6811 39.7896 47.5442 39.9073 47.382C40.025 47.2198 40.109 47.0357 40.1543 46.8404L41.6021 41.3356C41.6604 41.1159 41.6678 40.8857 41.6237 40.6626C41.5796 40.4396 41.4851 40.2296 41.3475 40.0485L38.347 36.0974L40.1103 33.044L44.351 33.1318H44.383C44.6077 33.1319 44.8296 33.0815 45.0322 32.9841C45.2348 32.8868 45.4128 32.7452 45.5532 32.5697L47.6331 29.9655C47.881 29.6552 47.9954 29.259 47.9512 28.8643C47.907 28.4696 47.7078 28.1086 47.3975 27.8607V27.8607Z" fill="#011E41"/>
</svg>
