<svg width="48" height="48" viewBox="0 0 48 48" fill="none" xmlns="http://www.w3.org/2000/svg">
<g clip-path="url(#clip0_74_1438)">
<path d="M14.0762 27.7007C13.7686 27.9516 13.5138 28.2611 13.3266 28.6113C13.1394 28.9614 13.0237 29.3452 12.9859 29.7404C12.9482 30.1357 12.9893 30.5345 13.1068 30.9137C13.2244 31.2929 13.416 31.645 13.6707 31.9496C13.9253 32.2542 14.2379 32.5053 14.5903 32.6882C14.9427 32.8711 15.3279 32.9822 15.7235 33.0152C16.1192 33.0481 16.5174 33.0022 16.8952 32.88C17.273 32.7579 17.6227 32.562 17.9242 32.3037C19.5972 30.8127 21.7599 29.9889 24.0007 29.9889C26.2416 29.9889 28.4043 30.8127 30.0772 32.3037C30.3783 32.5652 30.7285 32.764 31.1073 32.8886C31.4861 33.0131 31.8859 33.0609 32.2834 33.0292C32.6809 32.9974 33.0681 32.8867 33.4223 32.7036C33.7765 32.5204 34.0907 32.2685 34.3464 31.9626C34.6021 31.6566 34.7942 31.3027 34.9116 30.9216C35.029 30.5405 35.0692 30.1398 35.0299 29.743C34.9905 29.3462 34.8725 28.9612 34.6827 28.6105C34.4929 28.2598 34.235 27.9505 33.9242 27.7007C31.1747 25.3017 27.6492 23.9799 24.0002 23.9799C20.3513 23.9799 16.8258 25.3017 14.0762 27.7007V27.7007ZM46.7902 9.59367C40.2154 4.66324 32.2189 1.99805 24.0007 1.99805C15.7826 1.99805 7.7861 4.66324 1.21124 9.59367C0.572471 10.0681 0.148343 10.7769 0.0321639 11.5641C-0.0840149 12.3513 0.117272 13.1524 0.591745 13.7912C1.06622 14.4299 1.77501 14.8541 2.56219 14.9703C3.34938 15.0864 4.15047 14.8851 4.78924 14.4107C10.3317 10.2544 17.0725 8.00767 24.0002 8.00767C30.928 8.00767 37.6688 10.2544 43.2112 14.4107C43.85 14.8851 44.6511 15.0864 45.4383 14.9703C46.2255 14.8541 46.9343 14.4299 47.4087 13.7912C47.8832 13.1524 48.0845 12.3513 47.9683 11.5641C47.8521 10.7769 47.428 10.0681 46.7892 9.59367H46.7902Z" fill="#011E41"/>
<path d="M6.07686 19.7068C5.76609 19.9565 5.50826 20.2657 5.31847 20.6163C5.12867 20.9669 5.01073 21.3518 4.97155 21.7485C4.93236 22.1453 4.97272 22.5458 5.09026 22.9267C5.20779 23.3077 5.40015 23.6613 5.65606 23.967C5.91198 24.2727 6.2263 24.5242 6.58064 24.7069C6.93497 24.8896 7.32219 24.9998 7.71963 25.0309C8.11706 25.0621 8.51672 25.0137 8.89521 24.8885C9.2737 24.7633 9.62341 24.5639 9.92386 24.3018C13.8265 20.905 18.8259 19.034 23.9999 19.034C29.1738 19.034 34.1732 20.905 38.0759 24.3018C38.3767 24.561 38.7261 24.7577 39.1036 24.8807C39.4812 25.0037 39.8794 25.0504 40.2751 25.0181C40.6709 24.9859 41.0563 24.8753 41.409 24.6928C41.7616 24.5104 42.0745 24.2596 42.3294 23.9552C42.5844 23.6508 42.7763 23.2987 42.894 22.9195C43.0117 22.5403 43.0529 22.1415 43.0152 21.7462C42.9774 21.3509 42.8615 20.9671 42.6742 20.617C42.4868 20.2669 42.2318 19.9575 41.9239 19.7068C36.9545 15.3815 30.5885 12.999 24.0004 12.999C17.4122 12.999 11.0463 15.3815 6.07686 19.7068V19.7068Z" fill="#011E41"/>
<path d="M24 46.002C26.7614 46.002 29 43.7634 29 41.002C29 38.2405 26.7614 36.002 24 36.002C21.2386 36.002 19 38.2405 19 41.002C19 43.7634 21.2386 46.002 24 46.002Z" fill="#011E41"/>
</g>
<defs>
<clipPath id="clip0_74_1438">
<rect width="48" height="48" fill="white"/>
</clipPath>
</defs>
</svg>
