<svg width="48" height="48" viewBox="0 0 48 48" fill="none" xmlns="http://www.w3.org/2000/svg">
<path d="M47.5447 22.8804L40.5967 15.9334C40.3056 15.6423 39.9109 15.4788 39.4992 15.4788C39.0876 15.4788 38.6928 15.6423 38.4017 15.9334C38.1106 16.2245 37.9471 16.6193 37.9471 17.0309C37.9471 17.4426 38.1106 17.8373 38.4017 18.1284L42.7517 22.4784H29.4997C29.1019 22.4784 28.7204 22.6365 28.4391 22.9178C28.1577 23.1991 27.9997 23.5806 27.9997 23.9784C27.9997 24.3762 28.1577 24.7578 28.4391 25.0391C28.7204 25.3204 29.1019 25.4784 29.4997 25.4784H42.7517L38.4017 29.8284C38.1106 30.1195 37.9471 30.5143 37.9471 30.9259C37.9471 31.3376 38.1106 31.7323 38.4017 32.0234C38.6928 32.3145 39.0876 32.478 39.4992 32.478C39.9109 32.478 40.3056 32.3145 40.5967 32.0234L47.5447 25.0764C47.6888 24.9323 47.8032 24.7612 47.8812 24.5729C47.9592 24.3846 47.9994 24.1827 47.9994 23.9789C47.9994 23.7751 47.9592 23.5733 47.8812 23.3849C47.8032 23.1966 47.6888 23.0255 47.5447 22.8814V22.8804ZM29.7977 5.24042C29.5503 4.48894 29.0856 3.8277 28.4624 3.34033C27.8392 2.85295 27.0855 2.56133 26.2965 2.50235C25.5076 2.44336 24.7189 2.61966 24.0301 3.00895C23.3413 3.39823 22.7835 3.98302 22.4271 4.68936C22.0707 5.3957 21.9318 6.19185 22.0279 6.97715C22.124 7.76244 22.4509 8.5016 22.9671 9.10114C23.4833 9.70068 24.1657 10.1337 24.928 10.3454C25.6903 10.5571 26.4983 10.5379 27.2497 10.2904C28.2572 9.95856 29.0916 9.2401 29.5695 8.29307C30.0473 7.34603 30.1294 6.24798 29.7977 5.24042V5.24042ZM20.7347 25.9904L24.6657 18.2014C25.2456 17.0524 25.3453 15.72 24.9428 14.4975C24.5404 13.2749 23.6688 12.2623 22.5197 11.6824L19.9637 10.3924C19.8277 10.3255 19.6844 10.2745 19.5367 10.2404C16.2308 8.79228 12.497 8.65926 9.09637 9.86849C5.69574 11.0777 2.88419 13.5382 1.23471 16.7484C0.998177 17.2351 0.961792 17.795 1.13336 18.3082C1.30493 18.8213 1.67079 19.2468 2.15245 19.4933C2.6341 19.7399 3.1932 19.7878 3.70978 19.6268C4.22637 19.4659 4.65931 19.1089 4.91571 18.6324C5.85833 16.7983 7.34249 15.2987 9.16671 14.3371C10.9909 13.3755 13.0669 12.9986 15.1127 13.2574L0.22771 42.4434C0.103217 42.6876 0.02804 42.9539 0.00647194 43.2272C-0.0150961 43.5004 0.0173669 43.7752 0.102008 44.0359C0.186648 44.2967 0.321809 44.5381 0.499772 44.7466C0.677736 44.9551 0.895017 45.1264 1.13921 45.2509C1.3834 45.3754 1.64973 45.4506 1.92297 45.4722C2.19622 45.4937 2.47104 45.4613 2.73174 45.3766C2.99244 45.292 3.23391 45.1568 3.44238 44.9789C3.65085 44.8009 3.82222 44.5836 3.94671 44.3394L12.9887 26.6104L17.4637 28.8704C19.7914 30.139 21.5295 32.2688 22.3056 34.8035C23.0817 37.3382 22.8341 40.0761 21.6157 42.4304C21.4841 42.6741 21.4022 42.9415 21.375 43.2172C21.3477 43.4928 21.3756 43.7711 21.457 44.0358C21.5384 44.3005 21.6717 44.5464 21.8491 44.7591C22.0265 44.9718 22.2444 45.1471 22.4902 45.2747C22.736 45.4023 23.0048 45.4797 23.2808 45.5024C23.5569 45.5251 23.8346 45.4927 24.098 45.4069C24.3614 45.3212 24.605 45.1838 24.8148 45.003C25.0245 44.8221 25.1962 44.6013 25.3197 44.3534C26.9208 41.2589 27.3384 37.6866 26.4944 34.3062C25.6503 30.9258 23.6025 27.9692 20.7347 25.9904V25.9904Z" fill="#011E41"/>
</svg>
