<svg width="48" height="48" viewBox="0 0 48 48" fill="none" xmlns="http://www.w3.org/2000/svg">
<g clip-path="url(#clip0_74_648)">
<path d="M47.6133 19.706C47.3998 19.1642 47.0768 18.6724 46.6645 18.2611C46.2522 17.8499 45.7596 17.5281 45.2173 17.316C44.1027 16.8713 42.8593 16.8748 41.7473 17.326C41.5782 17.4091 41.428 17.5263 41.3063 17.6701C41.1845 17.8139 41.0937 17.9812 41.0395 18.1617C40.9854 18.3422 40.969 18.5319 40.9915 18.719C41.014 18.9061 41.0749 19.0865 41.1703 19.249C41.3271 19.5483 41.5822 19.7846 41.8927 19.9181C42.2032 20.0515 42.5501 20.0741 42.8753 19.982C43.2763 19.9099 43.6894 19.9468 44.0713 20.089C44.244 20.1589 44.4011 20.2624 44.5335 20.3936C44.6658 20.5248 44.7708 20.6809 44.8423 20.853C45.0581 21.4023 45.0479 22.0147 44.8139 22.5565C44.5799 23.0983 44.1411 23.5255 43.5933 23.745C43.2016 23.9106 42.781 23.9968 42.3558 23.9985C41.9306 24.0003 41.5092 23.9175 41.1163 23.755C40.7335 23.5961 40.3865 23.362 40.0959 23.0665C39.8053 22.7711 39.5769 22.4203 39.4243 22.035L32.8573 7.856C32.7747 7.67488 32.657 7.51201 32.5109 7.37685C32.3648 7.2417 32.1932 7.13698 32.0062 7.06878C31.8193 7.00059 31.6206 6.97029 31.4218 6.97965C31.2229 6.98902 31.028 7.03785 30.8482 7.12331C30.6685 7.20878 30.5075 7.32916 30.3748 7.47744C30.242 7.62573 30.1401 7.79895 30.0749 7.98702C30.0098 8.17509 29.9827 8.37425 29.9953 8.57288C30.0079 8.77152 30.0599 8.96566 30.1483 9.144L36.6843 23.252C36.988 23.9885 37.435 24.6573 37.9992 25.2196C38.5635 25.782 39.2338 26.2267 39.9713 26.528C40.721 26.839 41.5246 26.9994 42.3363 27C43.1638 26.9985 43.9829 26.8334 44.7463 26.514C46.0267 25.9883 47.0471 24.9771 47.5845 23.7015C48.1218 22.4259 48.1325 20.9895 47.6143 19.706H47.6133ZM21.0533 7.33C20.8765 6.93403 20.5888 6.59773 20.2251 6.36174C19.8613 6.12575 19.4369 6.00016 19.0033 6.00016C18.5696 6.00016 18.1453 6.12575 17.7815 6.36174C17.4177 6.59773 17.13 6.93403 16.9533 7.33L0.199276 44.84C0.0466334 45.1826 -0.017771 45.558 0.0119411 45.9319C0.0416531 46.3058 0.164535 46.6664 0.369373 46.9806C0.574211 47.2948 0.854481 47.5527 1.1846 47.7308C1.51473 47.9088 1.88419 48.0014 2.25928 48H35.7473C36.1233 48.0011 36.4936 47.908 36.8243 47.7291C37.1551 47.5502 37.4357 47.2913 37.6406 46.976C37.8455 46.6607 37.9681 46.2991 37.9972 45.9242C38.0263 45.5494 37.961 45.1731 37.8073 44.83L21.0533 7.33ZM37.1453 9.514C37.2341 9.66224 37.3598 9.78493 37.5102 9.87011C37.6606 9.95528 37.8305 10 38.0033 10H43.0033C43.1759 9.99986 43.3456 9.95503 43.4958 9.86986C43.646 9.7847 43.7715 9.6621 43.8603 9.514L45.8603 5.514C45.9533 5.3587 46.0025 5.18105 46.0025 5C46.0025 4.81895 45.9533 4.6413 45.8603 4.486L43.8603 0.486C43.7715 0.337903 43.646 0.215304 43.4958 0.130137C43.3456 0.0449702 43.1759 0.000136457 43.0033 0L38.0033 0C37.8306 0.000136457 37.661 0.0449702 37.5108 0.130137C37.3606 0.215304 37.235 0.337903 37.1463 0.486L35.1463 4.486C35.0532 4.6413 35.0041 4.81895 35.0041 5C35.0041 5.18105 35.0532 5.3587 35.1463 5.514L37.1453 9.514Z" fill="#011E41"/>
</g>
<defs>
<clipPath id="clip0_74_648">
<rect width="48" height="48" fill="white"/>
</clipPath>
</defs>
</svg>
