<svg width="48" height="48" viewBox="0 0 48 48" fill="none" xmlns="http://www.w3.org/2000/svg">
<path d="M24 48C37.2149 48 48 37.2142 48 24C48 10.785 37.2142 0 24 0C10.7851 0 0 10.7858 0 24C0 37.215 10.7858 48 24 48ZM31.12 43.9553C32.4799 42.2177 33.5222 40.1451 34.3051 38.0616H39.8332C37.4907 40.6969 34.5031 42.7446 31.12 43.9553ZM41.9459 35.25H35.2143C36.0442 32.2324 36.531 28.8866 36.6345 25.4062H45.1397C44.9027 29.0051 43.7634 32.3611 41.9459 35.25ZM41.9459 12.75C43.7634 15.6389 44.9027 18.9949 45.1397 22.5938H36.6345C36.531 19.1134 36.0442 15.7676 35.2143 12.75H41.9459ZM39.8331 9.9375H34.305C33.5224 7.85578 32.4802 5.78288 31.1199 4.04466C34.5031 5.25544 37.4907 7.30312 39.8331 9.9375ZM25.4062 3.05306C28.1659 3.98841 30.1456 7.27041 31.2779 9.9375H25.4062V3.05306ZM25.4062 12.75H32.29C33.1842 15.7104 33.7102 19.069 33.821 22.5938H25.4062V12.75ZM25.4062 25.4053H33.821C33.7102 28.931 33.1842 32.2896 32.29 35.25H25.4062V25.4053ZM25.4062 38.0616H31.2779C30.1437 40.7341 28.1636 44.0124 25.4062 44.9469V38.0616ZM8.16694 38.0625H13.695C14.4776 40.1442 15.5198 42.2171 16.8801 43.9553C13.4969 42.7447 10.5093 40.6969 8.16694 38.0625ZM22.5938 44.9469C19.8365 44.0124 17.8565 40.7345 16.7221 38.0625H22.5938V44.9469ZM22.5938 35.25H15.71C14.8158 32.2896 14.2897 28.931 14.179 25.4062H22.5938V35.25ZM22.5938 22.5938H14.179C14.2897 19.069 14.8158 15.7104 15.71 12.75H22.5938V22.5938ZM22.5938 3.05306V9.9375H16.7221C17.8564 7.26581 19.8363 3.98766 22.5938 3.05306ZM16.88 4.04466C15.5201 5.78231 14.4779 7.85484 13.6949 9.9375H8.16694C10.5093 7.30312 13.4969 5.25534 16.88 4.04466ZM6.05409 12.7491H12.7857C11.9558 15.7676 11.469 19.1134 11.3655 22.5938H2.86031C3.09731 18.9949 4.23656 15.6389 6.05409 12.7491ZM2.86031 25.4062H11.3655C11.469 28.8866 11.9558 32.2324 12.7857 35.25H6.05409C4.23656 32.3611 3.09731 29.0051 2.86031 25.4062Z" fill="#011E41"/>
</svg>
