<svg width="44" height="49" viewBox="0 0 44 49" fill="none" xmlns="http://www.w3.org/2000/svg">
<path d="M10.1392 40.5188H9.93071L9.78399 40.6668L5.7241 44.764L5.72408 44.764C5.711 44.7772 5.69488 44.7857 5.67801 44.7891C5.66117 44.7925 5.64367 44.7908 5.62753 44.784C5.61133 44.7772 5.59675 44.7655 5.58615 44.7495C5.57552 44.7334 5.56958 44.7141 5.56958 44.6939V44.6938V41.0188V40.5188H5.06958C3.85913 40.5188 2.69733 40.0335 1.84001 39.1683C0.982536 38.303 0.5 37.1284 0.5 35.9026V29.1474C0.5 27.9216 0.982536 26.747 1.84001 25.8817C2.69733 25.0165 3.85913 24.5312 5.06958 24.5312H23.278C24.4885 24.5312 25.6503 25.0165 26.5076 25.8817C27.3651 26.747 27.8476 27.9216 27.8476 29.1474V35.9026C27.8476 37.1284 27.3651 38.303 26.5076 39.1683C25.6503 40.0335 24.4885 40.5188 23.278 40.5188H10.1392Z" fill="#011E41" stroke="white"/>
<mask id="path-2-inside-1_1383_5608" fill="white">
<path d="M36.3308 45.2175H28.0425L25.4814 48.8452C25.4293 48.9192 25.3628 48.9695 25.2904 48.9899C25.218 49.0103 25.143 48.9998 25.0748 48.9598C25.0066 48.9198 24.9484 48.8521 24.9074 48.7652C24.8664 48.6782 24.8445 48.5761 24.8445 48.4715V45.2175C23.9963 45.2175 23.1829 44.7403 22.5832 43.8908C21.9834 43.0412 21.6465 41.889 21.6465 40.6876L21.6465 34.7064C21.6465 33.505 21.9834 32.3528 22.5832 31.5033C23.1829 30.6538 23.9963 30.1765 24.8445 30.1765H36.3308C37.179 30.1765 37.9924 30.6538 38.5922 31.5033C39.1919 32.3528 39.5288 33.505 39.5288 34.7064V40.6876C39.5288 41.889 39.1919 43.0412 38.5922 43.8908C37.9924 44.7403 37.179 45.2175 36.3308 45.2175Z"/>
</mask>
<path d="M36.3308 45.2175H28.0425L25.4814 48.8452C25.4293 48.9192 25.3628 48.9695 25.2904 48.9899C25.218 49.0103 25.143 48.9998 25.0748 48.9598C25.0066 48.9198 24.9484 48.8521 24.9074 48.7652C24.8664 48.6782 24.8445 48.5761 24.8445 48.4715V45.2175C23.9963 45.2175 23.1829 44.7403 22.5832 43.8908C21.9834 43.0412 21.6465 41.889 21.6465 40.6876L21.6465 34.7064C21.6465 33.505 21.9834 32.3528 22.5832 31.5033C23.1829 30.6538 23.9963 30.1765 24.8445 30.1765H36.3308C37.179 30.1765 37.9924 30.6538 38.5922 31.5033C39.1919 32.3528 39.5288 33.505 39.5288 34.7064V40.6876C39.5288 41.889 39.1919 43.0412 38.5922 43.8908C37.9924 44.7403 37.179 45.2175 36.3308 45.2175Z" fill="#011E41"/>
<path d="M36.3308 45.2175L36.3308 46.2175L36.3308 45.2175ZM28.0425 45.2175V44.2175H27.5244L27.2256 44.6408L28.0425 45.2175ZM25.4814 48.8452L24.6645 48.2685L24.6645 48.2685L25.4814 48.8452ZM24.8445 48.4715L25.8445 48.4716V48.4715H24.8445ZM24.8445 45.2175H25.8445V44.2175L24.8445 44.2175L24.8445 45.2175ZM21.6465 40.6876H20.6465H21.6465ZM21.6465 34.7064H22.6465H21.6465ZM24.8445 30.1765V29.1765V30.1765ZM36.3308 44.2175H28.0425V46.2175H36.3308V44.2175ZM27.2256 44.6408L24.6645 48.2685L26.2984 49.422L28.8594 45.7943L27.2256 44.6408ZM24.6645 48.2685C24.7167 48.1946 24.8283 48.0811 25.0192 48.0274L25.5616 49.9524C25.8972 49.8578 26.1418 49.6437 26.2984 49.4219L24.6645 48.2685ZM25.0192 48.0274C25.2233 47.9698 25.4278 48.0075 25.5809 48.0973L24.5688 49.8223C24.8582 49.9921 25.2127 50.0507 25.5616 49.9524L25.0192 48.0274ZM25.5809 48.0973C25.7208 48.1794 25.7857 48.2832 25.8118 48.3385L24.0029 49.1918C24.111 49.4209 24.2925 49.6602 24.5688 49.8223L25.5809 48.0973ZM25.8118 48.3385C25.8391 48.3964 25.8445 48.4417 25.8445 48.4716L23.8445 48.4715C23.8445 48.7104 23.8936 48.96 24.0029 49.1918L25.8118 48.3385ZM25.8445 48.4715V45.2175H23.8445V48.4715H25.8445ZM24.8445 44.2175C24.3961 44.2175 23.8603 43.9658 23.4001 43.314L21.7662 44.4675C22.5055 45.5147 23.5965 46.2175 24.8445 46.2175L24.8445 44.2175ZM23.4001 43.314C22.9373 42.6584 22.6465 41.7156 22.6465 40.6876H20.6465C20.6465 42.0624 21.0296 43.4241 21.7662 44.4675L23.4001 43.314ZM22.6465 40.6876L22.6465 34.7064L20.6465 34.7064L20.6465 40.6876L22.6465 40.6876ZM22.6465 34.7064C22.6465 33.6784 22.9373 32.7356 23.4001 32.08L21.7662 30.9266C21.0296 31.97 20.6465 33.3316 20.6465 34.7064H22.6465ZM23.4001 32.08C23.8603 31.4282 24.3961 31.1765 24.8445 31.1765V29.1765C23.5965 29.1765 22.5055 29.8793 21.7662 30.9266L23.4001 32.08ZM24.8445 31.1765H36.3308V29.1765H24.8445V31.1765ZM36.3308 31.1765C36.7792 31.1765 37.3151 31.4282 37.7752 32.08L39.4091 30.9266C38.6698 29.8793 37.5788 29.1765 36.3308 29.1765V31.1765ZM37.7752 32.08C38.2381 32.7356 38.5288 33.6784 38.5288 34.7064H40.5288C40.5288 33.3316 40.1457 31.97 39.4091 30.9266L37.7752 32.08ZM38.5288 34.7064V40.6876H40.5288V34.7064H38.5288ZM38.5288 40.6876C38.5288 41.7156 38.2381 42.6584 37.7752 43.314L39.4091 44.4675C40.1457 43.4241 40.5288 42.0624 40.5288 40.6876H38.5288ZM37.7752 43.314C37.3151 43.9658 36.7792 44.2175 36.3308 44.2175L36.3308 46.2175C37.5788 46.2175 38.6698 45.5147 39.4091 44.4675L37.7752 43.314Z" fill="white" mask="url(#path-2-inside-1_1383_5608)"/>
<path d="M23.1901 27.2654L23.1901 27.2654C24.2697 28.3093 25.7302 28.893 27.25 28.893H33.0754L36.5056 32.2102C36.562 32.2648 36.6238 32.312 36.6893 32.3515L36.6898 32.3518C36.7939 32.4144 36.9084 32.4582 37.028 32.4812L37.0285 32.4813C37.2236 32.5188 37.4264 32.4998 37.6119 32.4255C37.797 32.3513 37.9583 32.2247 38.073 32.0584C38.1875 31.8925 38.25 31.6955 38.25 31.4923V28.8719C39.5871 28.7587 40.8493 28.1942 41.8099 27.2654L41.8099 27.2654C42.89 26.221 43.5 24.8006 43.5 23.3161V11.077C43.5 9.59241 42.89 8.17208 41.8099 7.12763L41.8099 7.1276C40.7303 6.08375 39.2698 5.50002 37.75 5.50002H31.7223H27.25C25.7302 5.50002 24.2697 6.08375 23.1901 7.1276L23.1901 7.12763C22.11 8.17208 21.5 9.59241 21.5 11.077V23.3161C21.5 24.8006 22.11 26.221 23.1901 27.2654Z" fill="#011E41" stroke="#FAF7F4"/>
<mask id="path-5-outside-2_1383_5608" maskUnits="userSpaceOnUse" x="3.42969" y="0" width="26" height="28" fill="black">
<rect fill="white" x="3.42969" width="26" height="28"/>
<path fill-rule="evenodd" clip-rule="evenodd" d="M15.9313 24.0032C22.2834 24.0032 27.4329 18.8537 27.4329 12.5016C27.4329 6.14943 22.2834 1 15.9313 1C9.57912 1 4.42969 6.14943 4.42969 12.5016C4.42969 16.5986 6.5719 20.1954 9.79733 22.2327V25.7658C9.79733 25.8935 9.83496 26.0184 9.90516 26.1247C9.94728 26.1881 9.99988 26.2432 10.0604 26.2877C10.1012 26.3177 10.1453 26.3428 10.1923 26.3624C10.3093 26.4115 10.4381 26.4242 10.5622 26.3993C10.6863 26.3744 10.8004 26.3128 10.8898 26.2224L13.372 23.7174C14.195 23.9044 15.0516 24.0032 15.9313 24.0032Z"/>
</mask>
<path fill-rule="evenodd" clip-rule="evenodd" d="M15.9313 24.0032C22.2834 24.0032 27.4329 18.8537 27.4329 12.5016C27.4329 6.14943 22.2834 1 15.9313 1C9.57912 1 4.42969 6.14943 4.42969 12.5016C4.42969 16.5986 6.5719 20.1954 9.79733 22.2327V25.7658C9.79733 25.8935 9.83496 26.0184 9.90516 26.1247C9.94728 26.1881 9.99988 26.2432 10.0604 26.2877C10.1012 26.3177 10.1453 26.3428 10.1923 26.3624C10.3093 26.4115 10.4381 26.4242 10.5622 26.3993C10.6863 26.3744 10.8004 26.3128 10.8898 26.2224L13.372 23.7174C14.195 23.9044 15.0516 24.0032 15.9313 24.0032Z" fill="#011E41"/>
<path d="M9.79733 22.2327H10.7973V21.6816L10.3314 21.3873L9.79733 22.2327ZM9.90516 26.1247L9.07063 26.6756L9.07198 26.6777L9.90516 26.1247ZM10.0604 26.2877L9.46715 27.0928L9.46868 27.0939L10.0604 26.2877ZM10.1923 26.3624L10.5789 25.4402L10.5782 25.4399L10.1923 26.3624ZM10.5622 26.3993L10.3656 25.4188L10.3655 25.4188L10.5622 26.3993ZM10.8898 26.2224L10.1795 25.5185L10.1791 25.519L10.8898 26.2224ZM13.372 23.7174L13.5936 22.7423L13.0523 22.6193L12.6616 23.0135L13.372 23.7174ZM26.4329 12.5016C26.4329 18.3014 21.7311 23.0032 15.9313 23.0032V25.0032C22.8357 25.0032 28.4329 19.406 28.4329 12.5016H26.4329ZM15.9313 2C21.7311 2 26.4329 6.70172 26.4329 12.5016H28.4329C28.4329 5.59715 22.8357 0 15.9313 0V2ZM5.42969 12.5016C5.42969 6.70172 10.1314 2 15.9313 2V0C9.02684 0 3.42969 5.59715 3.42969 12.5016H5.42969ZM10.3314 21.3873C7.38379 19.5254 5.42969 16.2413 5.42969 12.5016H3.42969C3.42969 16.9559 5.76001 20.8653 9.26329 23.0782L10.3314 21.3873ZM8.79733 22.2327V25.7658H10.7973V22.2327H8.79733ZM8.79733 25.7658C8.79733 26.0899 8.89276 26.4062 9.07063 26.6756L10.7397 25.5737C10.7772 25.6305 10.7973 25.6971 10.7973 25.7658H8.79733ZM9.07198 26.6777C9.17901 26.8389 9.31296 26.9792 9.46715 27.0928L10.6535 25.4827C10.6868 25.5072 10.7155 25.5373 10.7383 25.5717L9.07198 26.6777ZM9.46868 27.0939C9.57248 27.1701 9.68562 27.2344 9.80642 27.285L10.5782 25.4399C10.6051 25.4511 10.6298 25.4653 10.652 25.4816L9.46868 27.0939ZM9.80571 27.2847C10.1074 27.4111 10.4394 27.4439 10.7589 27.3798L10.3655 25.4188C10.4369 25.4045 10.5113 25.4118 10.5789 25.4402L9.80571 27.2847ZM10.7589 27.3798C11.0794 27.3155 11.372 27.1568 11.6006 26.9258L10.1791 25.519C10.2287 25.4688 10.2933 25.4333 10.3656 25.4188L10.7589 27.3798ZM11.6002 26.9263L14.0823 24.4212L12.6616 23.0135L10.1795 25.5185L11.6002 26.9263ZM15.9313 23.0032C15.1267 23.0032 14.3444 22.9129 13.5936 22.7423L13.1504 24.6925C14.0456 24.896 14.9766 25.0032 15.9313 25.0032V23.0032Z" fill="#FAF7F4" mask="url(#path-5-outside-2_1383_5608)"/>
<path d="M21.5758 9.44568C21.0349 8.63888 19.8961 7.42869 18.9566 6.55234L18.1453 7.02529C18.5011 7.37305 18.9139 7.79036 19.284 8.22157L15.3553 8.44414C16.1382 7.73472 16.9496 6.85837 17.6471 5.9542L16.5652 5.60645C15.825 6.70536 14.729 7.80427 14.4016 8.08247C14.0884 8.3885 13.8037 8.56933 13.5617 8.61106C13.6899 8.88927 13.8322 9.39004 13.9034 9.6126C14.2877 9.45959 14.8998 9.40395 20.01 9.0701C20.2947 9.40395 20.5367 9.72388 20.7075 9.98818L21.5758 9.44568ZM12.9639 7.94337C12.5084 7.37305 11.5404 6.4967 10.7718 5.88465L10.0885 6.51061C10.8429 7.16439 11.7967 8.08247 12.2379 8.6667L12.9639 7.94337ZM11.9675 15.9557V10.0021H9.03516V11.0036H10.9995V15.9835C10.9995 16.6512 10.544 17.1102 10.2878 17.305C10.4728 17.458 10.7433 17.8197 10.8429 18.0283V18.0144C11.0565 17.7501 11.4123 17.4997 13.7041 15.8722C13.5902 15.6636 13.4194 15.2741 13.3482 14.9959L11.9675 15.9557ZM21.8747 14.4673V13.5631H17.9318C17.9602 13.2849 17.9745 13.0345 17.9745 12.7702V11.7548H21.3765V10.8506H15.5261C15.7254 10.4889 15.8962 10.0855 16.0528 9.70997L15.0564 9.44568C14.5866 10.6559 13.818 11.8939 12.9781 12.7007C13.2201 12.8259 13.6614 13.118 13.8464 13.271C14.2592 12.8537 14.6436 12.339 15.0137 11.7548H16.9496V12.7563C16.9496 13.0206 16.9353 13.2849 16.9069 13.5631H12.9497V14.4673H16.6791C16.2521 15.5801 15.1703 16.7207 12.5084 17.5275C12.6792 17.7223 12.9497 18.1396 13.0351 18.3622C15.6115 17.5554 16.8499 16.4704 17.462 15.3019C18.2734 16.8181 19.5972 17.8475 21.4762 18.3343C21.6185 18.0561 21.9032 17.6527 22.1452 17.4441C20.1666 17.0407 18.7858 15.9835 18.0741 14.4673H21.8747Z" fill="white"/>
<path d="M19.3104 32.8511C19.3104 33.1 19.1555 33.8662 18.8456 35.1494H9.85981C8.88205 35.1494 8.07642 34.9132 7.44294 34.4407C6.85077 34.0002 6.55469 33.4639 6.55469 32.8319C6.55469 32.5255 6.73371 32.0083 7.09177 31.2805C7.47737 30.5017 7.80099 30.1122 8.06265 30.1122C8.07642 30.125 8.08331 30.1378 8.08331 30.1505C8.08331 30.2016 7.98002 30.441 7.77345 30.8688C7.56688 31.2965 7.4636 31.6061 7.4636 31.7977C7.4636 32.3786 7.64951 32.8479 8.02134 33.2054C8.39316 33.5629 8.89237 33.7417 9.51897 33.7417H18.4428C18.4428 33.1224 18.0779 32.2573 17.348 31.1465C17.4995 30.8719 17.7749 30.3899 18.1743 29.7004C18.3602 29.9239 18.5771 30.3229 18.825 30.8975C19.1486 31.6444 19.3104 32.2956 19.3104 32.8511ZM14.0222 37.7925L13.2889 38.9129L11.6363 37.9744L12.3696 36.8731L14.0222 37.7925Z" fill="white"/>
<path d="M32.321 40L31.6188 38.0995H29.358L28.6636 40H28L30.2299 34H30.7816L33 40H32.321ZM31.4144 37.4741L30.7585 35.6226C30.6736 35.3883 30.5862 35.1008 30.4961 34.7602C30.4396 35.0218 30.3585 35.3093 30.2531 35.6226L29.5895 37.4741H31.4144Z" fill="white"/>
<path d="M30.305 12.5H38.78V14.435H32.72V16.595H35.63C36.9 16.595 37.865 16.86 38.525 17.39C39.195 17.92 39.53 18.685 39.53 19.685C39.53 20.735 39.16 21.55 38.42 22.13C37.68 22.71 36.635 23 35.285 23H30.305V12.5ZM35.15 21.2C35.77 21.2 36.245 21.08 36.575 20.84C36.905 20.59 37.07 20.23 37.07 19.76C37.07 18.84 36.43 18.38 35.15 18.38H32.72V21.2H35.15Z" fill="white"/>
</svg>
