<svg width="48" height="48" viewBox="0 0 48 48" fill="none" xmlns="http://www.w3.org/2000/svg">
<path d="M47 34.5H31C30.9963 35.0293 30.7844 35.5359 30.4102 35.9102C30.0359 36.2844 29.5293 36.4963 29 36.5H19C18.4701 36.4984 17.9623 36.2872 17.5875 35.9125C17.2128 35.5377 17.0016 35.03 17 34.5H1C0.735027 34.5008 0.481133 34.6064 0.293767 34.7938C0.106402 34.9811 0.000791363 35.235 0 35.5L0 39.5C0.000791363 39.765 0.106402 40.0189 0.293767 40.2062C0.481133 40.3936 0.735027 40.4992 1 40.5H47C47.265 40.4992 47.5189 40.3936 47.7062 40.2062C47.8936 40.0189 47.9992 39.765 48 39.5V35.5C47.9992 35.235 47.8936 34.9811 47.7062 34.7938C47.5189 34.6064 47.265 34.5008 47 34.5V34.5ZM7 31.5H8V12.5H40V31.5H45V9.5C45.0005 9.23307 44.9471 8.96879 44.843 8.723C44.6398 8.24289 44.2579 7.86062 43.778 7.657C43.5319 7.55283 43.2673 7.49943 43 7.5H5C4.46957 7.5 3.96086 7.71072 3.58579 8.08579C3.21071 8.46086 3 8.96957 3 9.5V31.5H7Z" fill="#011E41"/>
</svg>
