<svg width="48" height="48" viewBox="0 0 48 48" fill="none" xmlns="http://www.w3.org/2000/svg">
<path d="M13 42.954V46.5C13 46.8978 13.158 47.2794 13.4393 47.5607C13.7206 47.842 14.1022 48 14.5 48C14.8978 48 15.2794 47.842 15.5607 47.5607C15.842 47.2794 16 46.8978 16 46.5V45H32V46.5C32 46.8978 32.158 47.2794 32.4393 47.5607C32.7206 47.842 33.1022 48 33.5 48C33.8978 48 34.2794 47.842 34.5607 47.5607C34.842 47.2794 35 46.8978 35 46.5V8H13V42.954ZM30 25C30 24.7348 30.1054 24.4804 30.2929 24.2929C30.4804 24.1054 30.7348 24 31 24C31.2652 24 31.5196 24.1054 31.7071 24.2929C31.8946 24.4804 32 24.7348 32 25V28C32 28.2652 31.8946 28.5196 31.7071 28.7071C31.5196 28.8946 31.2652 29 31 29C30.7348 29 30.4804 28.8946 30.2929 28.7071C30.1054 28.5196 30 28.2652 30 28V25ZM29 0H19C17.4087 0 15.8826 0.632141 14.7574 1.75736C13.6321 2.88258 13 4.4087 13 6H35C35 4.4087 34.3679 2.88258 33.2426 1.75736C32.1174 0.632141 30.5913 0 29 0V0Z" fill="#011E41"/>
</svg>
