<svg width="48" height="48" viewBox="0 0 48 48" fill="none" xmlns="http://www.w3.org/2000/svg">
<path d="M22.5286 44.6195C22.5162 42.9627 23.8492 41.6091 25.506 41.5962L44.9523 41.4445C46.6091 41.4316 47.9622 42.7642 47.9746 44.421L48 47.8014L22.5539 48L22.5286 44.6195Z" fill="#011E41"/>
<rect width="27.1925" height="8.05956" rx="3" transform="matrix(0.708405 -0.705806 0.691217 0.722647 0 35.5181)" fill="#011E41"/>
<rect width="20.4976" height="6.31799" rx="3" transform="matrix(0.708405 -0.705806 0.691217 0.722647 6.89001 14.4839)" fill="#011E41"/>
<rect width="20.4976" height="6.69616" rx="3" transform="matrix(0.708405 -0.705806 0.691217 0.722647 21.5823 29.8105)" fill="#011E41"/>
<path d="M11.9877 17.6445L23.8425 5.83325L26.6172 14.2146L34.7602 17.2474L22.9054 29.0587L20.8017 20.0088L11.9877 17.6445Z" fill="#011E41"/>
</svg>
