<svg width="48" height="48" viewBox="0 0 48 48" fill="none" xmlns="http://www.w3.org/2000/svg">
<g clip-path="url(#clip0_74_477)">
<path d="M12.1862 25.8406C12.4246 24.4835 12.9022 23.1795 13.5966 21.9894C13.9636 21.3457 14.3924 20.7393 14.8771 20.1788C15.0432 19.976 15.2202 19.7823 15.4072 19.5986C13.798 18.5488 11.9169 17.9924 9.99547 17.9981C7.7957 17.9976 5.65723 18.7229 3.91171 20.0616C2.16618 21.4004 0.911137 23.2776 0.341217 25.4023C-0.228702 27.5269 -0.0816517 29.7803 0.759564 31.8128C1.60078 33.8454 3.08915 35.5436 4.99386 36.6441V38.0046C4.99544 38.5347 5.20673 39.0426 5.58158 39.4175C5.95643 39.7923 6.46439 40.0036 6.9945 40.0052H12.9964C13.527 40.0052 14.0359 39.7944 14.4111 39.4192C14.7863 39.044 14.9971 38.5352 14.9971 38.0046V35.9239C14.4667 35.3349 14.0006 34.691 13.6066 34.0033C12.1786 31.5375 11.675 28.6439 12.1862 25.8406V25.8406ZM2.98321 28.0013C2.98198 26.1606 3.70407 24.3931 4.99386 23.0797V32.9229C3.70407 31.6096 2.98198 29.8421 2.98321 28.0013V28.0013Z" fill="#011E41"/>
<path d="M10.0013 15.9977C12.2111 15.9977 14.0026 14.2063 14.0026 11.9964C14.0026 9.78656 12.2111 7.99512 10.0013 7.99512C7.79144 7.99512 6 9.78656 6 11.9964C6 14.2063 7.79144 15.9977 10.0013 15.9977Z" fill="#011E41"/>
<path d="M38.0042 15.9977C40.2141 15.9977 42.0055 14.2063 42.0055 11.9964C42.0055 9.78656 40.2141 7.99512 38.0042 7.99512C35.7944 7.99512 34.0029 9.78656 34.0029 11.9964C34.0029 14.2063 35.7944 15.9977 38.0042 15.9977Z" fill="#011E41"/>
<path d="M38.0052 17.9981C36.0731 17.9929 34.1816 18.5527 32.5635 19.6086C32.7572 19.8024 32.9408 20.0061 33.1137 20.2188C33.5916 20.7715 34.0169 21.3676 34.3841 21.9994C35.439 23.8219 35.9945 25.8905 35.9945 27.9963C35.9945 30.1021 35.439 32.1707 34.3841 33.9933C33.9858 34.6726 33.5235 35.3124 33.0036 35.9039V38.0045C33.0052 38.5347 33.2165 39.0426 33.5913 39.4175C33.9662 39.7923 34.4742 40.0036 35.0043 40.0052H41.0062C41.5363 40.0036 42.0443 39.7923 42.4191 39.4175C42.794 39.0426 43.0053 38.5347 43.0069 38.0045V36.6441C44.9116 35.5436 46.3999 33.8454 47.2411 31.8128C48.0824 29.7803 48.2294 27.5269 47.6595 25.4023C47.0896 23.2776 45.8345 21.4003 44.089 20.0616C42.3435 18.7229 40.205 17.9976 38.0052 17.9981V17.9981ZM43.0069 32.9229V23.0797C44.2957 24.3937 45.0177 26.1608 45.0177 28.0013C45.0177 29.8419 44.2957 31.609 43.0069 32.9229Z" fill="#011E41"/>
<path d="M24.0003 15.9977C26.2102 15.9977 28.0016 14.2063 28.0016 11.9964C28.0016 9.78656 26.2102 7.99512 24.0003 7.99512C21.7905 7.99512 19.999 9.78656 19.999 11.9964C19.999 14.2063 21.7905 15.9977 24.0003 15.9977Z" fill="#011E41"/>
<path d="M33.9942 28.0013C33.9988 26.5008 33.66 25.0193 33.0039 23.6699C32.9439 23.5398 32.8838 23.4198 32.8138 23.2898C32.3338 22.3974 31.7236 21.5816 31.0032 20.869C29.1379 19.0278 26.6219 17.9963 24.001 17.998C23.3671 18.001 22.7346 18.0578 22.1104 18.1681C20.1713 18.5293 18.3863 19.4671 16.9887 20.859C16.2608 21.565 15.6497 22.3821 15.1781 23.2798C15.1101 23.3957 15.05 23.516 14.9981 23.6399C14.5977 24.4457 14.3148 25.3047 14.1578 26.1907C13.7792 28.2786 14.0734 30.4328 14.9981 32.3427C15.0581 32.4627 15.1181 32.5928 15.1881 32.7128C16.0689 34.3517 17.3886 35.7129 18.9993 36.6441V37.1042C18.9993 37.1342 19.0094 37.1642 19.0094 37.1943C19.0094 37.2243 18.9993 37.2443 18.9993 37.2743V38.0045C19.0009 38.5346 19.2122 39.0426 19.5871 39.4174C19.9619 39.7923 20.4699 40.0036 21 40.0052H27.0019C27.5321 40.0036 28.04 39.7923 28.4149 39.4174C28.7897 39.0426 29.001 38.5346 29.0026 38.0045V37.2743C29.0026 37.2443 28.9926 37.2243 28.9926 37.1943C28.9926 37.1642 29.0026 37.1342 29.0026 37.1042V36.6441C29.7315 36.2245 30.4038 35.7135 31.0032 35.1236C31.7258 34.413 32.3363 33.5967 32.8138 32.7028C32.8838 32.5828 32.9439 32.4527 33.0039 32.3227C33.6589 30.9765 33.9976 29.4984 33.9942 28.0013V28.0013ZM18.9993 32.9129C18.9341 32.851 18.8739 32.7841 18.8193 32.7128C17.7151 31.5245 17.0697 29.982 16.9987 28.3614C17.0254 28.1221 17.0254 27.8805 16.9987 27.6412C17.0697 26.0176 17.7149 24.472 18.8193 23.2798C18.8693 23.2097 18.9393 23.1497 18.9993 23.0797V32.9129V32.9129ZM29.1826 32.7028C29.1285 32.7777 29.0683 32.8479 29.0026 32.9129V23.0897C29.0678 23.1515 29.128 23.2184 29.1826 23.2898C30.3011 24.5041 30.9439 26.0811 30.9932 27.7312C30.9799 27.911 30.9799 28.0916 30.9932 28.2714C30.9419 29.9181 30.2991 31.4913 29.1826 32.7028V32.7028Z" fill="#011E41"/>
</g>
<defs>
<clipPath id="clip0_74_477">
<rect width="48" height="48" fill="white"/>
</clipPath>
</defs>
</svg>
