<svg width="48" height="48" viewBox="0 0 48 48" fill="none" xmlns="http://www.w3.org/2000/svg">
<path d="M14 27C13.9999 26.4747 14.1032 25.9545 14.3042 25.4691C14.5052 24.9837 14.7998 24.5427 15.1713 24.1713C15.5427 23.7998 15.9837 23.5052 16.4691 23.3042C16.9545 23.1032 17.4747 22.9999 18 23H24V1C23.9992 0.735027 23.8936 0.481133 23.7062 0.293767C23.5189 0.106402 23.265 0.000791363 23 0L1 0C0.735027 0.000791363 0.481133 0.106402 0.293767 0.293767C0.106402 0.481133 0.000791363 0.735027 0 1L0 30C0.000791363 30.265 0.106402 30.5189 0.293767 30.7062C0.481133 30.8936 0.735027 30.9992 1 31H14V27ZM10 6H20C20.2652 6 20.5196 6.10536 20.7071 6.29289C20.8946 6.48043 21 6.73478 21 7C21 7.26522 20.8946 7.51957 20.7071 7.70711C20.5196 7.89464 20.2652 8 20 8H10C9.73478 8 9.48043 7.89464 9.29289 7.70711C9.10536 7.51957 9 7.26522 9 7C9 6.73478 9.10536 6.48043 9.29289 6.29289C9.48043 6.10536 9.73478 6 10 6V6ZM6 28H3V3H6V28ZM9 13C9.00079 12.735 9.1064 12.4811 9.29377 12.2938C9.48113 12.1064 9.73503 12.0008 10 12H20C20.2652 12 20.5196 12.1054 20.7071 12.2929C20.8946 12.4804 21 12.7348 21 13C21 13.2652 20.8946 13.5196 20.7071 13.7071C20.5196 13.8946 20.2652 14 20 14H10C9.73503 13.9992 9.48113 13.8936 9.29377 13.7062C9.1064 13.5189 9.00079 13.265 9 13V13Z" fill="#011E41"/>
<path d="M18 25C17.4701 25.0016 16.9623 25.2128 16.5875 25.5875C16.2128 25.9623 16.0016 26.4701 16 27V42H20V29H42V42H46V27C45.9984 26.4701 45.7872 25.9623 45.4125 25.5875C45.0377 25.2128 44.5299 25.0016 44 25H18ZM47 44H36C35.9992 44.265 35.8936 44.5189 35.7062 44.7062C35.5189 44.8936 35.265 44.9992 35 45H27C26.735 44.9992 26.4811 44.8936 26.2938 44.7062C26.1064 44.5189 26.0008 44.265 26 44H15C14.735 44.0008 14.4811 44.1064 14.2938 44.2938C14.1064 44.4811 14.0008 44.735 14 45V47C14.0008 47.265 14.1064 47.5189 14.2938 47.7062C14.4811 47.8936 14.735 47.9992 15 48H47C47.265 47.9992 47.5189 47.8936 47.7062 47.7062C47.8936 47.5189 47.9992 47.265 48 47V45C47.9992 44.735 47.8936 44.4811 47.7062 44.2938C47.5189 44.1064 47.265 44.0008 47 44Z" fill="#011E41"/>
</svg>
