<svg width="48" height="48" viewBox="0 0 48 48" fill="none" xmlns="http://www.w3.org/2000/svg">
<path fill-rule="evenodd" clip-rule="evenodd" d="M20 38.9949H12L7.195 43.7999C7.0971 43.8978 6.97237 43.9645 6.83658 43.9915C6.70078 44.0185 6.56003 44.0046 6.43211 43.9516C6.3042 43.8987 6.19487 43.8089 6.11796 43.6938C6.04104 43.5787 5.99999 43.4433 6 43.3049V38.9949C4.4087 38.9949 2.88258 38.3627 1.75736 37.2375C0.632141 36.1123 0 34.5862 0 32.9949V22.9949C0 21.4036 0.632141 19.8775 1.75736 18.7522C2.88258 17.627 4.4087 16.9949 6 16.9949H20C21.5913 16.9949 23.1174 17.627 24.2426 18.7522C25.3679 19.8775 26 21.4036 26 22.9949V32.9949C26 34.5862 25.3679 36.1123 24.2426 37.2375C23.1174 38.3627 21.5913 38.9949 20 38.9949ZM17.8514 35.5H13.7267V21.625H17.5893L15.8189 26.1074C15.7918 26.1759 15.7785 26.2492 15.7797 26.3229C15.7809 26.3966 15.7966 26.4694 15.826 26.537C15.8553 26.6047 15.8977 26.6659 15.9507 26.7171C16.0037 26.7684 16.0662 26.8087 16.1348 26.8358C16.2034 26.8629 16.2766 26.8762 16.3503 26.875C16.4241 26.8738 16.4968 26.858 16.5645 26.8287C16.6321 26.7994 16.6933 26.757 16.7446 26.704C16.7958 26.651 16.8362 26.5884 16.8632 26.5199L18.4143 22.5925L19.9653 26.5199C19.9923 26.5884 20.0327 26.651 20.0839 26.704C20.1352 26.757 20.1964 26.7994 20.264 26.8287C20.3317 26.858 20.4044 26.8738 20.4782 26.875C20.5519 26.8762 20.6251 26.8629 20.6937 26.8358C20.7623 26.8087 20.8248 26.7684 20.8778 26.7171C20.9308 26.6659 20.9732 26.6047 21.0025 26.537C21.0319 26.4694 21.0476 26.3966 21.0488 26.3229C21.05 26.2492 21.0367 26.1759 21.0096 26.1074L18.9355 20.8562C18.8948 20.7512 18.8231 20.6609 18.7301 20.5973C18.6371 20.5337 18.5269 20.4998 18.4143 20.5H13.7267V19.75C13.7267 19.5511 13.6477 19.3603 13.5071 19.2197C13.3664 19.079 13.1757 19 12.9767 19C12.7778 19 12.5871 19.079 12.4464 19.2197C12.3058 19.3603 12.2267 19.5511 12.2267 19.75V20.5H7.53925C7.42655 20.4998 7.31644 20.5337 7.2234 20.5973C7.13035 20.6609 7.05875 20.7512 7.018 20.8562L4.94387 26.1074C4.91679 26.1759 4.90348 26.2492 4.9047 26.3229C4.90591 26.3966 4.92164 26.4694 4.95098 26.537C4.98032 26.6047 5.02269 26.6659 5.07568 26.7171C5.12867 26.7684 5.19124 26.8087 5.25981 26.8358C5.32839 26.8629 5.40163 26.8762 5.47535 26.875C5.54906 26.8738 5.62182 26.858 5.68946 26.8287C5.75711 26.7994 5.81831 26.757 5.86957 26.704C5.92084 26.651 5.96116 26.5884 5.98825 26.5199L7.53925 22.5925L9.09025 26.5199C9.11734 26.5884 9.15766 26.651 9.20893 26.704C9.26019 26.757 9.32139 26.7994 9.38904 26.8287C9.45668 26.858 9.52944 26.8738 9.60316 26.875C9.67688 26.8762 9.75011 26.8629 9.81869 26.8358C9.88726 26.8087 9.94983 26.7684 10.0028 26.7171C10.0558 26.6659 10.0982 26.6047 10.1275 26.537C10.1569 26.4694 10.1726 26.3966 10.1738 26.3229C10.175 26.2492 10.1617 26.1759 10.1346 26.1074L8.36388 21.625H12.2264V35.5H8.10138C7.90246 35.5 7.7117 35.579 7.57104 35.7197C7.43039 35.8603 7.35138 36.0511 7.35138 36.25C7.35138 36.4489 7.43039 36.6397 7.57104 36.7803C7.7117 36.921 7.90246 37 8.10138 37H17.8514C18.0503 37 18.2411 36.921 18.3817 36.7803C18.5224 36.6397 18.6014 36.4489 18.6014 36.25C18.6014 36.0511 18.5224 35.8603 18.3817 35.7197C18.2411 35.579 18.0503 35.5 17.8514 35.5ZM11.0756 28.0744C11.0788 28.0884 11.079 28.103 11.0759 28.117C10.8862 28.9123 10.434 29.6205 9.79224 30.1272C9.1505 30.6339 8.35672 30.9095 7.53906 30.9095C6.72141 30.9095 5.92762 30.6339 5.28589 30.1272C4.64415 29.6205 4.19193 28.9123 4.00225 28.117C3.99917 28.103 3.99928 28.0884 4.00255 28.0744C4.00583 28.0604 4.01219 28.0473 4.02118 28.0361C4.03017 28.0249 4.04156 28.0158 4.0545 28.0096C4.06745 28.0033 4.08163 28.0001 4.096 28H10.9821C10.9965 28.0001 11.0107 28.0033 11.0236 28.0096C11.0366 28.0158 11.048 28.0249 11.0569 28.0361C11.0659 28.0473 11.0723 28.0604 11.0756 28.0744ZM14.9706 28H21.8568C21.8711 28.0001 21.8853 28.0033 21.8983 28.0096C21.9112 28.0158 21.9226 28.0249 21.9316 28.0361C21.9406 28.0473 21.9469 28.0604 21.9502 28.0744C21.9535 28.0884 21.9536 28.103 21.9505 28.117C21.7608 28.9123 21.3086 29.6205 20.6669 30.1272C20.0251 30.6339 19.2313 30.9095 18.4137 30.9095C17.596 30.9095 16.8022 30.6339 16.1605 30.1272C15.5188 29.6205 15.0666 28.9123 14.8769 28.117C14.8738 28.103 14.8739 28.0884 14.8772 28.0744C14.8805 28.0604 14.8868 28.0473 14.8958 28.0361C14.9048 28.0249 14.9162 28.0158 14.9291 28.0096C14.9421 28.0033 14.9563 28.0001 14.9706 28Z" fill="#011E41"/>
<path fill-rule="evenodd" clip-rule="evenodd" d="M27 4H41C42.8565 4 44.637 4.7375 45.9497 6.05025C47.2625 7.36301 48 9.14348 48 11V21C48 22.8565 47.2625 24.637 45.9497 25.9497C44.637 27.2625 42.8565 28 41 28V32.31C41 32.4485 40.959 32.5838 40.882 32.6989C40.8051 32.814 40.6958 32.9038 40.5679 32.9568C40.44 33.0098 40.2992 33.0236 40.1634 32.9966C40.0276 32.9696 39.9029 32.9029 39.805 32.805L35 28H29V23C28.9974 20.6139 28.0483 18.3262 26.361 16.639C24.6738 14.9517 22.3861 14.0026 20 14V11C20 9.14348 20.7375 7.36301 22.0503 6.05025C23.363 4.7375 25.1435 4 27 4ZM37.7708 13.3362L34.6065 16.5002L37.7706 19.664C37.9173 19.8108 37.9998 20.0098 37.9998 20.2174C37.9998 20.425 37.9173 20.624 37.7706 20.7708C37.6238 20.9175 37.4247 21 37.2172 21C37.0096 21 36.8106 20.9175 36.6638 20.7708L33.4997 17.607L30.336 20.7706C30.1893 20.9174 29.9902 20.9998 29.7826 20.9998C29.5751 20.9998 29.376 20.9174 29.2292 20.7706C29.0825 20.6238 29 20.4248 29 20.2172C29 20.0096 29.0825 19.8106 29.2292 19.6638L32.3927 16.5002L29.2292 13.336C29.0825 13.1892 29 12.9902 29 12.7826C29 12.575 29.0825 12.376 29.2292 12.2292C29.376 12.0825 29.5751 12 29.7826 12C29.9902 12 30.1893 12.0825 30.336 12.2292L33.4997 15.3934L36.664 12.2294C36.8107 12.0826 37.0098 12.0002 37.2174 12.0002C37.4249 12.0002 37.624 12.0826 37.7708 12.2294C37.9175 12.3762 38 12.5752 38 12.7828C38 12.9904 37.9175 13.1894 37.7708 13.3362Z" fill="#011E41"/>
</svg>
