<svg width="48" height="48" viewBox="0 0 48 48" fill="none" xmlns="http://www.w3.org/2000/svg">
<mask id="path-1-inside-1_125_18" fill="white">
<rect x="45.9907" y="46" width="43.9908" height="43.9908" rx="2" transform="rotate(-179.988 45.9907 46)"/>
</mask>
<rect x="45.9907" y="46" width="43.9908" height="43.9908" rx="2" transform="rotate(-179.988 45.9907 46)" stroke="#011E41" stroke-width="6" mask="url(#path-1-inside-1_125_18)"/>
<path d="M45.9954 23.9988L26.7447 23.9988" stroke="#011E41" stroke-width="3"/>
<path d="M45.9954 31.3328L17.5799 31.3331" stroke="#011E41" stroke-width="3"/>
<path d="M45.9907 38.6666L8.87348 38.6508" stroke="#011E41" stroke-width="3"/>
<path d="M45.5374 9.33932L8.41541 9.33901" stroke="#011E41" stroke-width="3"/>
<path d="M45.9954 16.6696L17.5799 16.67" stroke="#011E41" stroke-width="3"/>
<path d="M25.7641 24.3855L4.32328 42.1296C3.99731 42.3994 3.5045 42.1676 3.5045 41.7444L3.5045 6.25613C3.5045 5.83301 3.99731 5.60116 4.32328 5.87093L25.7641 23.6151C26.0058 23.8151 26.0058 24.1855 25.7641 24.3855Z" stroke="#011E41" stroke-width="3"/>
<path d="M17.0984 24.3776L4.32761 35.1899C4.00268 35.465 3.50453 35.234 3.50453 34.8083L3.50453 13.1905C3.50453 12.7648 4.00253 12.5338 4.32749 12.8088L17.0983 23.6143C17.3343 23.814 17.3343 24.1779 17.0984 24.3776Z" stroke="#011E41" stroke-width="3"/>
</svg>
