<svg width="49" height="49" viewBox="0 0 49 49" fill="none" xmlns="http://www.w3.org/2000/svg">
<mask id="path-1-inside-1_109_3078" fill="white">
<rect x="48" y="48.01" width="48" height="48" rx="2" transform="rotate(-179.988 48 48.01)"/>
</mask>
<rect x="48" y="48.01" width="48" height="48" rx="2" transform="rotate(-179.988 48 48.01)" stroke="#011E41" stroke-width="6" mask="url(#path-1-inside-1_109_3078)"/>
<path d="M48.0051 24.0039L27 24.0038" stroke="#011E41" stroke-width="3"/>
<path d="M48.0051 32.0064L17 32.0066" stroke="#011E41" stroke-width="3"/>
<path d="M48 40.0082L7.5 39.9912" stroke="#011E41" stroke-width="3"/>
<path d="M47.5051 8.00849L7 8.00797" stroke="#011E41" stroke-width="3"/>
<path d="M48.0051 16.0066L17 16.0069" stroke="#011E41" stroke-width="3"/>
<path d="M26.187 24.3903L2.32391 44.1391C1.99794 44.4088 1.50513 44.177 1.50513 43.7539L1.50513 4.25637C1.50513 3.83325 1.99794 3.6014 2.32391 3.87118L26.187 23.6199C26.4286 23.8199 26.4286 24.1904 26.187 24.3903Z" stroke="#011E41" stroke-width="3"/>
<path d="M16.7273 24.3821L2.32821 36.5729C2.00327 36.848 1.50513 36.6171 1.50513 36.1913L1.50513 11.8172C1.50513 11.3915 2.00313 11.1606 2.32809 11.4355L16.7272 23.6188C16.9632 23.8185 16.9632 24.1823 16.7273 24.3821Z" stroke="#011E41" stroke-width="3"/>
</svg>
