<svg width="48" height="48" viewBox="0 0 48 48" fill="none" xmlns="http://www.w3.org/2000/svg">
<path d="M24 0C19.2533 0 14.6131 1.40758 10.6663 4.04473C6.71954 6.68188 3.6434 10.4302 1.8269 14.8156C0.0103989 19.201 -0.464881 24.0266 0.461164 28.6822C1.38721 33.3377 3.67299 37.6141 7.02945 40.9706C10.3859 44.327 14.6623 46.6128 19.3178 47.5388C23.9734 48.4649 28.799 47.9896 33.1844 46.1731C37.5698 44.3566 41.3181 41.2805 43.9553 37.3337C46.5924 33.3869 48 28.7467 48 24C48 17.6348 45.4714 11.5303 40.9706 7.02944C36.4697 2.52856 30.3652 0 24 0V0ZM40.9015 14.2102L36.2422 17.3029C36.0082 17.4421 35.7306 17.4887 35.4641 17.4333C35.1975 17.378 34.9614 17.2248 34.8022 17.004C33.7552 15.5317 32.4686 14.2455 30.996 13.1989C30.7749 13.0397 30.6215 12.8033 30.5662 12.5365C30.5108 12.2697 30.5575 11.9919 30.6971 11.7578L33.7898 7.09854C33.862 6.9711 33.9593 6.85961 34.0758 6.77081C34.1923 6.682 34.3256 6.61771 34.4676 6.58182C34.6096 6.54594 34.7574 6.5392 34.9021 6.56201C35.0468 6.58482 35.1854 6.63671 35.3095 6.71454C37.6951 8.26966 39.7303 10.3049 41.2855 12.6905C41.3633 12.8146 41.4152 12.9532 41.438 13.0979C41.4608 13.2426 41.4541 13.3904 41.4182 13.5324C41.3823 13.6744 41.318 13.8077 41.2292 13.9242C41.1404 14.0407 41.0289 14.138 40.9015 14.2102V14.2102ZM14.1818 24C14.1818 22.0581 14.7577 20.1599 15.8365 18.5453C16.9153 16.9307 18.4487 15.6723 20.2427 14.9292C22.0368 14.1861 24.0109 13.9916 25.9154 14.3705C27.82 14.7493 29.5694 15.6844 30.9425 17.0575C32.3156 18.4306 33.2507 20.18 33.6295 22.0846C34.0084 23.9891 33.8139 25.9632 33.0708 27.7572C32.3277 29.5513 31.0693 31.0847 29.4547 32.1635C27.8401 33.2423 25.9419 33.8182 24 33.8182C21.3961 33.8182 18.8988 32.7838 17.0575 30.9425C15.2162 29.1012 14.1818 26.6039 14.1818 24V24ZM14.6116 7.09854L17.3029 11.6498C17.4425 11.8839 17.4892 12.1617 17.4338 12.4285C17.3785 12.6953 17.2251 12.9317 17.004 13.0909C15.4955 14.1738 14.1738 15.4955 13.0909 17.004C12.9317 17.2248 12.6956 17.378 12.429 17.4333C12.1625 17.4887 11.8849 17.4421 11.6509 17.3029L7.09746 14.1818C6.96987 14.1096 6.85825 14.0123 6.76934 13.8957C6.68043 13.7791 6.61609 13.6457 6.58019 13.5036C6.5443 13.3614 6.5376 13.2135 6.56051 13.0687C6.58342 12.9239 6.63545 12.7852 6.71346 12.6611C8.41736 10.2699 10.5865 8.24727 13.0909 6.71454C13.215 6.63653 13.3537 6.5845 13.4985 6.56159C13.6433 6.53868 13.7913 6.54538 13.9334 6.58127C14.0756 6.61717 14.209 6.68151 14.3255 6.77042C14.4421 6.85933 14.5394 6.97095 14.6116 7.09854V7.09854ZM7.09855 33.7898L11.7578 30.6971C11.9918 30.5578 12.2694 30.5113 12.5359 30.5666C12.8025 30.622 13.0386 30.7752 13.1978 30.996C14.2448 32.4683 15.5314 33.7545 17.004 34.8011C17.2251 34.9603 17.3785 35.1967 17.4338 35.4635C17.4892 35.7303 17.4425 36.0081 17.3029 36.2422L14.2102 40.9014C14.138 41.0289 14.0407 41.1404 13.9242 41.2292C13.8077 41.318 13.6744 41.3823 13.5324 41.4182C13.3904 41.454 13.2426 41.4608 13.0979 41.438C12.9532 41.4152 12.8146 41.3633 12.6906 41.2854C10.305 39.7303 8.26967 37.695 6.71455 35.3094C6.63672 35.1854 6.58483 35.0468 6.56202 34.9021C6.53921 34.7574 6.54595 34.6096 6.58184 34.4676C6.61772 34.3256 6.68201 34.1923 6.77082 34.0758C6.85963 33.9593 6.97111 33.862 7.09855 33.7898V33.7898ZM33.8182 40.9025L30.6971 36.3502C30.5575 36.1161 30.5108 35.8383 30.5662 35.5715C30.6215 35.3047 30.7749 35.0683 30.996 34.9091C32.5045 33.8262 33.8262 32.5045 34.9091 30.996C35.0683 30.7752 35.3044 30.622 35.571 30.5666C35.8375 30.5113 36.1152 30.5578 36.3491 30.6971L40.9015 33.3884C41.029 33.4606 41.1407 33.5579 41.2296 33.6745C41.3185 33.791 41.3828 33.9244 41.4187 34.0666C41.4546 34.2087 41.4613 34.3567 41.4384 34.5015C41.4155 34.6463 41.3635 34.785 41.2855 34.9091C39.7526 37.4131 37.73 39.5819 35.3389 41.2854C35.2148 41.3635 35.0761 41.4155 34.9313 41.4384C34.7865 41.4613 34.6386 41.4546 34.4964 41.4187C34.3543 41.3828 34.2209 41.3185 34.1043 41.2296C33.9877 41.1407 33.8904 41.029 33.8182 40.9014V40.9025Z" fill="#011E41"/>
</svg>
