<svg width="48" height="48" viewBox="0 0 48 48" fill="none" xmlns="http://www.w3.org/2000/svg">
<g clip-path="url(#clip0_74_1595)">
<path d="M45.574 8.39748L38.4696 1.44113C38.0128 0.98424 37.4705 0.621812 36.8736 0.374541C36.2767 0.12727 35.637 0 34.9909 0C34.3448 0 33.7051 0.12727 33.1082 0.374541C32.5113 0.621812 31.969 0.98424 31.5122 1.44113L14.5056 18.4468C14.0487 18.9036 13.6863 19.4459 13.439 20.0428C13.1917 20.6396 13.0645 21.2794 13.0645 21.9254C13.0645 22.5715 13.1917 23.2113 13.439 23.8081C13.6863 24.405 14.0487 24.9473 14.5056 25.4041L17.9838 28.8823C18.1888 29.0872 18.4669 29.2023 18.7567 29.2023C19.0466 29.2023 19.3246 29.0872 19.5297 28.8823L21.8492 26.5628C21.9507 26.4614 22.0313 26.3409 22.0863 26.2082C22.1413 26.0756 22.1696 25.9334 22.1696 25.7899C22.1696 25.6463 22.1413 25.5041 22.0863 25.3715C22.0313 25.2389 21.9507 25.1184 21.8492 25.0169L18.7572 21.9249L34.9894 5.69379L41.1733 11.8777L34.2169 18.834L35.6638 20.2799C36.4978 21.1168 37.1397 22.125 37.545 23.2348L45.574 15.3558C46.0309 14.899 46.3933 14.3567 46.6406 13.7598C46.8879 13.163 47.0151 12.5232 47.0151 11.8772C47.0151 11.2311 46.8879 10.5913 46.6406 9.99447C46.3933 9.39759 46.0309 8.85527 45.574 8.39848V8.39748Z" fill="#011E41"/>
<path d="M29.8656 19.1202C29.7642 19.0186 29.6437 18.938 29.511 18.8831C29.3784 18.8281 29.2362 18.7998 29.0927 18.7998C28.9491 18.7998 28.8069 18.8281 28.6743 18.8831C28.5417 18.938 28.4212 19.0186 28.3197 19.1202L26.0002 21.4386C25.7953 21.6437 25.6803 21.9217 25.6803 22.2116C25.6803 22.5015 25.7953 22.7795 26.0002 22.9846L26.7727 23.7581L29.0922 26.0765L19.8164 35.3523L12.859 42.3097L9.76707 39.2178L6.67513 36.1258L13.6325 29.1685L13.2462 28.7822L13.2442 28.7812L12.1866 27.7216C11.3519 26.8853 10.7093 25.8773 10.3034 24.7677L2.42447 32.6476C1.50352 33.5709 0.986328 34.8218 0.986328 36.1258C0.986328 37.4299 1.50352 38.6807 2.42447 39.604L9.38083 46.5614C10.3041 47.4826 11.5552 48 12.8595 48C14.1638 48 15.4149 47.4826 16.3382 46.5614L24.8515 38.047L33.3438 29.5557C34.2651 28.6324 34.7825 27.3813 34.7825 26.077C34.7825 24.7727 34.2651 23.5217 33.3438 22.5984L29.8656 19.1202Z" fill="#011E41"/>
</g>
<defs>
<clipPath id="clip0_74_1595">
<rect width="48" height="48" fill="white"/>
</clipPath>
</defs>
</svg>
