<svg width="48" height="48" viewBox="0 0 48 48" fill="none" xmlns="http://www.w3.org/2000/svg">
<path d="M45.2135 24.9307H8.80374C8.57655 24.9328 8.3594 25.0247 8.19969 25.1863C8.03997 25.3479 7.95063 25.5661 7.95117 25.7933V27.9397H42.1041C42.2295 27.9388 42.3538 27.9628 42.4698 28.0104C42.5859 28.0579 42.6913 28.1281 42.7799 28.2167C42.8686 28.3054 42.9388 28.4108 42.9863 28.5268C43.0339 28.6429 43.0579 28.7672 43.057 28.8926V42.9851H45.2135C45.4396 42.9851 45.6564 42.8952 45.8163 42.7354C45.9762 42.5755 46.066 42.3586 46.066 42.1325V25.7933C46.0666 25.5661 45.9772 25.3479 45.8175 25.1863C45.6578 25.0247 45.4406 24.9328 45.2135 24.9307Z" fill="#011E41"/>
<path d="M40.1987 29.9456H3.78894C3.67698 29.9456 3.56612 29.9677 3.46268 30.0105C3.35924 30.0533 3.26525 30.1161 3.18609 30.1953C3.10692 30.2745 3.04412 30.3685 3.00127 30.4719C2.95843 30.5753 2.93637 30.6862 2.93637 30.7982V47.1374C2.93583 47.3646 3.02517 47.5828 3.18489 47.7444C3.3446 47.906 3.56174 47.9979 3.78894 48H40.1987C40.4258 47.9979 40.643 47.906 40.8027 47.7444C40.9624 47.5828 41.0518 47.3646 41.0512 47.1374V30.7982C41.0512 30.6862 41.0292 30.5753 40.9863 30.4719C40.9435 30.3685 40.8807 30.2745 40.8015 30.1953C40.7223 30.1161 40.6284 30.0533 40.5249 30.0105C40.4215 29.9677 40.3106 29.9456 40.1987 29.9456V29.9456ZM8.95451 40.9788C8.55775 40.9788 8.1699 40.8612 7.84001 40.6408C7.51012 40.4203 7.253 40.107 7.10116 39.7405C6.94933 39.3739 6.9096 38.9706 6.98701 38.5814C7.06441 38.1923 7.25547 37.8349 7.53602 37.5543C7.81657 37.2738 8.17401 37.0827 8.56315 37.0053C8.95228 36.9279 9.35563 36.9676 9.72219 37.1195C10.0887 37.2713 10.402 37.5284 10.6225 37.8583C10.8429 38.1882 10.9606 38.576 10.9606 38.9728C10.959 39.5043 10.7471 40.0137 10.3712 40.3895C9.99538 40.7654 9.48605 40.9773 8.95451 40.9788ZM21.9938 44.9909C20.8035 44.9909 19.64 44.638 18.6503 43.9767C17.6606 43.3154 16.8893 42.3755 16.4338 41.2758C15.9783 40.1762 15.8591 38.9661 16.0913 37.7987C16.3235 36.6313 16.8967 35.559 17.7383 34.7173C18.58 33.8757 19.6523 33.3025 20.8197 33.0703C21.9871 32.8381 23.1972 32.9573 24.2968 33.4128C25.3965 33.8683 26.3364 34.6396 26.9977 35.6293C27.659 36.619 28.0119 37.7825 28.0119 38.9728C28.0106 40.5685 27.3761 42.0985 26.2478 43.2268C25.1195 44.3551 23.5895 44.9896 21.9938 44.9909V44.9909ZM35.0331 40.9788C34.6363 40.9788 34.2485 40.8612 33.9186 40.6408C33.5887 40.4203 33.3316 40.107 33.1797 39.7405C33.0279 39.3739 32.9882 38.9706 33.0656 38.5814C33.143 38.1923 33.334 37.8349 33.6146 37.5543C33.8951 37.2738 34.2526 37.0827 34.6417 37.0053C35.0309 36.9279 35.4342 36.9676 35.8008 37.1195C36.1673 37.2713 36.4806 37.5284 36.7011 37.8583C36.9215 38.1882 37.0391 38.576 37.0391 38.9728C37.0375 39.5043 36.8257 40.0137 36.4498 40.3895C36.074 40.7654 35.5646 40.9773 35.0331 40.9788V40.9788ZM20.8784 12.1159L18.3839 11.4469C17.0992 11.1025 15.7303 11.2826 14.5783 11.9476C13.4264 12.6125 12.5858 13.7078 12.2414 14.9925L12.0649 15.6525L14.5594 16.3215C15.1956 16.492 15.8592 16.5355 16.5122 16.4496C17.1652 16.3636 17.7949 16.1498 18.3653 15.8205C18.9357 15.4911 19.4356 15.0527 19.8365 14.5301C20.2374 14.0075 20.5315 13.4111 20.7019 12.7749L20.8784 12.1159ZM20.3218 17.8652L22.8163 18.5332C24.101 18.8776 25.4699 18.6975 26.6219 18.0325C27.7738 17.3676 28.6144 16.2723 28.9588 14.9875L29.1353 14.3275L26.6408 13.6585C26.0046 13.488 25.341 13.4445 24.688 13.5305C24.035 13.6165 23.4053 13.8302 22.8349 14.1596C22.2645 14.4889 21.7646 14.9274 21.3637 15.45C20.9628 15.9726 20.6687 16.569 20.4983 17.2052L20.3218 17.8652ZM28.5776 20.0779L31.0732 20.7459C32.3579 21.0902 33.7268 20.9101 34.8787 20.2452C36.0307 19.5802 36.8713 18.4849 37.2157 17.2002L37.3922 16.5402L34.8967 15.8712C33.6119 15.5272 32.2432 15.7076 31.0914 16.3727C29.9397 17.0378 29.0993 18.1332 28.7552 19.4179L28.5776 20.0779ZM19.1211 8.69457L21.6167 9.36258L21.7932 8.70259C21.9637 8.06639 22.0072 7.40283 21.9212 6.74982C21.8352 6.0968 21.6215 5.46712 21.2921 4.89673C20.9628 4.32633 20.5243 3.8264 20.0017 3.42547C19.4792 3.02455 18.8827 2.73049 18.2465 2.56008L15.752 1.89207L15.5755 2.55206C15.2311 3.83679 15.4112 5.2057 16.0762 6.35764C16.7411 7.50959 17.8364 8.3502 19.1211 8.69457V8.69457ZM27.378 10.9062L29.8725 11.5752L30.0501 10.9153C30.2206 10.2791 30.2641 9.6155 30.1781 8.96249C30.0921 8.30947 29.8783 7.67979 29.549 7.10939C29.2197 6.539 28.7812 6.03906 28.2586 5.63814C27.736 5.23722 27.1396 4.94315 26.5034 4.77275L24.0089 4.10373L23.8313 4.76473C23.4873 6.04946 23.6677 7.41823 24.3328 8.56996C24.9979 9.7217 26.0933 10.5621 27.378 10.9062V10.9062ZM35.6349 13.1189L38.1294 13.7879L38.3059 13.1269C38.65 11.8423 38.4697 10.4737 37.8048 9.32197C37.1399 8.17026 36.0448 7.32979 34.7603 6.98542L32.2657 6.3164L32.0882 6.97639C31.9177 7.61259 31.8742 8.27615 31.9602 8.92916C32.0462 9.58218 32.2599 10.2119 32.5893 10.7823C32.9186 11.3527 33.3571 11.8526 33.8797 12.2535C34.4022 12.6544 34.9987 12.9485 35.6349 13.1189ZM46.0172 17.3757C46.0657 17.195 46.0782 17.0065 46.0538 16.821C46.0295 16.6354 45.9688 16.4565 45.8753 16.2944C45.7818 16.1324 45.6572 15.9903 45.5088 15.8764C45.3603 15.7624 45.1909 15.6789 45.0101 15.6305L39.9649 14.2794L39.2267 17.0317L44.2719 18.3838C44.4527 18.4323 44.6413 18.4447 44.8269 18.4203C45.0125 18.3959 45.1914 18.3351 45.3535 18.2415C45.5156 18.1479 45.6576 18.0232 45.7715 17.8747C45.8854 17.7261 45.9689 17.5566 46.0172 17.3757V17.3757ZM5.92137 11.0567C5.55639 10.9589 5.16753 11.0102 4.84032 11.1991C4.51312 11.3881 4.27437 11.6992 4.17661 12.0642C4.07885 12.4292 4.13008 12.8181 4.31903 13.1453C4.50798 13.4725 4.81917 13.7112 5.18415 13.809L8.8542 14.7919C9.03572 14.8431 9.22557 14.8577 9.41277 14.8349C9.59996 14.812 9.78076 14.7523 9.94467 14.659C10.1086 14.5658 10.2524 14.4409 10.3676 14.2917C10.4829 14.1425 10.5674 13.9718 10.6162 13.7897C10.665 13.6075 10.6772 13.4175 10.652 13.2306C10.6267 13.0437 10.5647 12.8637 10.4693 12.701C10.374 12.5383 10.2473 12.3961 10.0966 12.2828C9.9459 12.1694 9.77419 12.0871 9.59143 12.0406L5.92137 11.0567ZM8.13404 2.80081L11.8041 3.78377C12.1691 3.88153 12.5579 3.8303 12.8851 3.64135C13.2123 3.4524 13.4511 3.14121 13.5488 2.77623C13.6466 2.41126 13.5954 2.02239 13.4064 1.69519C13.2175 1.36798 12.9063 1.12924 12.5413 1.03148L8.87126 0.048516C8.50628 -0.0492456 8.11742 0.00198329 7.79021 0.190933C7.46301 0.379883 7.22426 0.691075 7.1265 1.05605C7.02874 1.42103 7.07997 1.80989 7.26892 2.1371C7.45787 2.4643 7.76906 2.70305 8.13404 2.80081V2.80081ZM13.0809 10.0256C13.4459 10.1233 13.8348 10.0721 14.162 9.88316C14.4892 9.69421 14.7279 9.38302 14.8257 9.01804C14.9235 8.65306 14.8722 8.2642 14.6833 7.937C14.4943 7.60979 14.1831 7.37105 13.8182 7.27328L3.72876 4.56914C3.54804 4.52053 3.35952 4.508 3.17396 4.53225C2.9884 4.55651 2.80943 4.61707 2.64727 4.71049C2.31979 4.89916 2.08066 5.21019 1.9825 5.57517C1.88434 5.94014 1.93519 6.32917 2.12385 6.65665C2.31252 6.98414 2.62355 7.22327 2.98853 7.32143L13.0809 10.0256Z" fill="#011E41"/>
</svg>
