<svg width="48" height="48" viewBox="0 0 48 48" fill="none" xmlns="http://www.w3.org/2000/svg">
<path d="M46.7111 16.8468L40.4675 11.9844L41.7746 10.6762C42.0192 10.4319 42.2132 10.1418 42.3456 9.82244C42.478 9.50312 42.5463 9.16083 42.5464 8.81514C42.5465 8.46944 42.4786 8.1271 42.3464 7.80767C42.2143 7.48823 42.0205 7.19796 41.7761 6.95341C41.5318 6.70887 41.2417 6.51485 40.9223 6.38243C40.603 6.25001 40.2607 6.18178 39.915 6.18164C39.5693 6.1815 39.227 6.24945 38.9076 6.38162C38.5881 6.51378 38.2979 6.70757 38.0533 6.95191L35.9291 9.0771L35.5651 8.71307C35.3207 8.46859 35.0305 8.27465 34.7111 8.14231C34.3918 8.00998 34.0495 7.94184 33.7038 7.94179C33.3581 7.94175 33.0158 8.00979 32.6964 8.14204C32.377 8.27429 32.0867 8.46815 31.8423 8.71257C31.3485 9.20618 31.0711 9.87571 31.071 10.5739C31.071 10.9196 31.139 11.2619 31.2712 11.5813C31.4035 11.9007 31.5974 12.1909 31.8418 12.4354L32.2058 12.7994L31.1907 13.8145H5.49748C4.03994 13.8161 2.64256 14.3958 1.61193 15.4264C0.581295 16.4571 0.00158831 17.8545 0 19.312L0 28.4498C0 28.9803 0.210732 29.489 0.585837 29.8641C0.960943 30.2392 1.46969 30.45 2.00017 30.45C2.53065 30.45 3.03941 30.2392 3.41451 29.8641C3.78962 29.489 4.00035 28.9803 4.00035 28.4498V19.312C4.00088 18.9154 4.15867 18.5351 4.43914 18.2546C4.7196 17.9742 5.09984 17.8164 5.49648 17.8159H6.00052V38.8177C6.00052 39.6134 6.31662 40.3765 6.87928 40.9392C7.44194 41.5019 8.20506 41.8179 9.00078 41.8179C9.7965 41.8179 10.5596 41.5019 11.1223 40.9392C11.6849 40.3765 12.001 39.6134 12.001 38.8177V32.8172H13.7952C14.8725 34.072 16.2082 35.0792 17.711 35.7697C19.2138 36.4602 20.8481 36.8177 22.502 36.8177C24.1558 36.8177 25.7901 36.4602 27.2929 35.7697C28.7957 35.0792 30.1315 34.072 31.2087 32.8172H33.0029V38.8177C33.0029 39.6134 33.319 40.3765 33.8816 40.9392C34.4443 41.5019 35.2074 41.8179 36.0031 41.8179C36.7989 41.8179 37.562 41.5019 38.1246 40.9392C38.6873 40.3765 39.0034 39.6134 39.0034 38.8177V22.8163H44.6609C45.3565 22.8169 46.0348 22.6001 46.6011 22.1961C47.1674 21.7922 47.5932 21.2214 47.8191 20.5635C48.045 19.9057 48.0597 19.1936 47.861 18.527C47.6623 17.8604 47.2603 17.2726 46.7111 16.8458V16.8468Z" fill="#011E41"/>
</svg>
