<svg width="48" height="48" viewBox="0 0 48 48" fill="none" xmlns="http://www.w3.org/2000/svg">
<g clip-path="url(#clip0_74_933)">
<path d="M10 5C9.20459 5.00079 8.44199 5.31712 7.87956 5.87956C7.31712 6.44199 7.00079 7.20459 7 8H13C12.9992 7.20459 12.6829 6.44199 12.1204 5.87956C11.558 5.31712 10.7954 5.00079 10 5V5Z" fill="#011E41"/>
<path d="M10 0C8.02219 0 6.08879 0.58649 4.4443 1.6853C2.79981 2.78412 1.51809 4.3459 0.761209 6.17317C0.00433284 8.00043 -0.193701 10.0111 0.192152 11.9509C0.578004 13.8907 1.53041 15.6725 2.92894 17.0711C4.32746 18.4696 6.10929 19.422 8.0491 19.8079C9.98891 20.1937 11.9996 19.9957 13.8268 19.2388C15.6541 18.4819 17.2159 17.2002 18.3147 15.5557C19.4135 13.9112 20 11.9778 20 10C19.9989 7.34816 18.945 4.80524 17.0699 2.9301C15.1948 1.05497 12.6518 0.0010601 10 0V0ZM15 14C15 14.5304 14.7893 15.0391 14.4142 15.4142C14.0391 15.7893 13.5304 16 13 16H7C6.46957 16 5.96086 15.7893 5.58579 15.4142C5.21072 15.0391 5 14.5304 5 14V8C5 6.67392 5.52679 5.40215 6.46447 4.46447C7.40215 3.52678 8.67392 3 10 3C11.3261 3 12.5979 3.52678 13.5355 4.46447C14.4732 5.40215 15 6.67392 15 8V14ZM34 6C26.268 6 20 12.663 20 20.882C20 27.95 30.353 43.405 33.253 47.596C33.3341 47.7202 33.4448 47.8223 33.5753 47.8929C33.7057 47.9635 33.8517 48.0005 34 48.0005C34.1483 48.0005 34.2943 47.9635 34.4247 47.8929C34.5552 47.8223 34.6659 47.7202 34.747 47.596C37.647 43.405 48 27.95 48 20.882C48 12.663 41.732 6 34 6ZM34 25C32.8133 25 31.6533 24.6481 30.6666 23.9888C29.6799 23.3295 28.9109 22.3925 28.4567 21.2961C28.0026 20.1997 27.8838 18.9933 28.1153 17.8295C28.3468 16.6656 28.9182 15.5965 29.7574 14.7574C30.5965 13.9182 31.6656 13.3468 32.8295 13.1153C33.9933 12.8838 35.1997 13.0026 36.2961 13.4567C37.3925 13.9108 38.3295 14.6799 38.9888 15.6666C39.6481 16.6533 40 17.8133 40 19C40 20.5913 39.3679 22.1174 38.2426 23.2426C37.1174 24.3679 35.5913 25 34 25V25Z" fill="#011E41"/>
<path d="M11 10H9C8.44772 10 8 10.4477 8 11V13C8 13.5523 8.44772 14 9 14H11C11.5523 14 12 13.5523 12 13V11C12 10.4477 11.5523 10 11 10Z" fill="#011E41"/>
</g>
<defs>
<clipPath id="clip0_74_933">
<rect width="48" height="48" fill="white"/>
</clipPath>
</defs>
</svg>
