<svg width="48" height="48" viewBox="0 0 48 48" fill="none" xmlns="http://www.w3.org/2000/svg">
<path d="M24.0002 0C15.1358 0 7.95605 7.62099 7.95605 17.0068C7.95605 25.0891 19.8187 42.7477 23.1479 47.5409C23.2409 47.682 23.3674 47.7978 23.5162 47.8779C23.665 47.9581 23.8313 48 24.0002 48C24.1692 48 24.3355 47.9581 24.4843 47.8779C24.6331 47.7978 24.7596 47.682 24.8526 47.5409C28.1818 42.7477 40.0444 25.0891 40.0444 17.0068C40.0444 7.62099 32.8647 0 24.0002 0ZM24.0002 23.9359C22.4136 23.9359 20.8626 23.4654 19.5434 22.584C18.2242 21.7025 17.196 20.4496 16.5888 18.9838C15.9816 17.5179 15.8228 15.9049 16.1323 14.3488C16.4418 12.7927 17.2059 11.3633 18.3278 10.2414C19.4497 9.11944 20.8791 8.35541 22.4352 8.04588C23.9913 7.73634 25.6043 7.89521 27.0702 8.50238C28.536 9.10955 29.7889 10.1378 30.6704 11.457C31.5518 12.7762 32.0223 14.3272 32.0223 15.9138C32.0226 16.9674 31.8153 18.0107 31.4122 18.9841C31.0092 19.9575 30.4183 20.8419 29.6733 21.5869C28.9283 22.3319 28.0439 22.9228 27.0705 23.3258C26.0971 23.7289 25.0538 23.9362 24.0002 23.9359V23.9359Z" fill="#011E41"/>
</svg>
