<svg width="48" height="48" viewBox="0 0 48 48" fill="none" xmlns="http://www.w3.org/2000/svg">
<path d="M47.99 28.6006C47.815 22.2468 45.1545 16.2152 40.5803 11.8018C36.0061 7.38841 29.8832 4.94546 23.5272 4.9979C23.1245 4.99682 22.7377 5.15495 22.451 5.43782C22.1644 5.7207 22.0012 6.10539 21.997 6.50807C22.0033 6.90917 22.1675 7.29162 22.4539 7.57245C22.7404 7.85329 23.126 8.00987 23.5272 8.00824C28.4562 7.97778 33.2436 9.65617 37.0746 12.7578C40.9056 15.8595 43.5436 20.1927 44.5396 25.0202C44.4596 25.0202 44.3796 25.0002 44.2996 25.0002H42.2893C41.6129 25.0004 40.9497 25.1872 40.3727 25.5402C39.7957 25.8931 39.3272 26.3984 39.019 27.0004H37.9388L31.4381 20.5797C31.0506 20.2044 30.5323 19.9946 29.9929 19.9946C29.4535 19.9946 28.9352 20.2044 28.5477 20.5797L25.9974 23.1L23.4372 20.5797C23.0497 20.2044 22.5314 19.9946 21.992 19.9946C21.4526 19.9946 20.9343 20.2044 20.5468 20.5797L14.0561 27.0004H6.4952C6.03552 27.0004 5.58034 27.091 5.15565 27.2669C4.73097 27.4428 4.34508 27.7006 4.02004 28.0257C3.695 28.3507 3.43716 28.7366 3.26125 29.1613C3.08534 29.586 2.9948 30.0412 2.9948 30.5008C2.9948 30.9605 3.08534 31.4157 3.26125 31.8404C3.43716 32.2651 3.695 32.651 4.02004 32.976C4.34508 33.301 4.73097 33.5589 5.15565 33.7348C5.58034 33.9107 6.03552 34.0012 6.4952 34.0012H6.96525L0.484507 40.402C0.234982 40.6349 0.0707912 40.9447 0.018209 41.282C-0.0343733 41.6193 0.0276919 41.9644 0.194473 42.2622C0.313987 42.4596 0.476596 42.6274 0.67013 42.7531C0.863665 42.8787 1.08311 42.959 1.31205 42.9878C1.54099 43.0167 1.7735 42.9934 1.99216 42.9197C2.21082 42.846 2.40999 42.7238 2.57475 42.5622L11.2457 34.0012H12.996C12.9943 34.2577 13.0439 34.5118 13.1418 34.7488C13.2397 34.9858 13.3839 35.2009 13.566 35.3814L8.48543 40.402C8.33989 40.5383 8.22295 40.7023 8.1414 40.8843C8.05986 41.0663 8.01535 41.2627 8.01046 41.4621C8.00557 41.6615 8.04041 41.8598 8.11294 42.0456C8.18546 42.2314 8.29424 42.4008 8.43292 42.5442C8.5716 42.6875 8.73741 42.8018 8.9207 42.8804C9.10399 42.959 9.30108 43.0004 9.50051 43.002C9.69994 43.0037 9.8977 42.9657 10.0823 42.8902C10.2669 42.8147 10.4346 42.7032 10.5757 42.5622L17.2264 36.0015H24.9373L20.4868 40.402C20.3413 40.5383 20.2243 40.7023 20.1428 40.8843C20.0612 41.0663 20.0167 41.2627 20.0118 41.4621C20.007 41.6615 20.0418 41.8598 20.1143 42.0456C20.1868 42.2314 20.2956 42.4008 20.4343 42.5442C20.573 42.6875 20.7388 42.8018 20.9221 42.8804C21.1054 42.959 21.3025 43.0004 21.5019 43.002C21.7013 43.0037 21.8991 42.9657 22.0837 42.8902C22.2683 42.8147 22.436 42.7032 22.5771 42.5622L27.4976 37.7117L32.3982 42.5522C32.685 42.837 33.0721 42.9976 33.4763 42.9995C33.8804 43.0013 34.269 42.8443 34.5584 42.5622C34.6991 42.4225 34.8106 42.2562 34.8864 42.073C34.9621 41.8898 35.0007 41.6933 34.9997 41.495C34.9988 41.2967 34.9584 41.1006 34.8809 40.9181C34.8035 40.7356 34.6904 40.5704 34.5484 40.432L30.0579 36.0015H34.7685L41.3992 42.5522C41.686 42.837 42.0732 42.9976 42.4773 42.9995C42.8814 43.0013 43.2701 42.8443 43.5595 42.5622C43.7002 42.4225 43.8116 42.2562 43.8874 42.073C43.9632 41.8898 44.0017 41.6933 44.0008 41.495C43.9998 41.2967 43.9595 41.1006 43.882 40.9181C43.8045 40.7356 43.6915 40.5704 43.5495 40.432L39.059 36.0015H44.2996C44.7858 36.0025 45.2675 35.9075 45.7169 35.7219C46.1663 35.5364 46.5747 35.2638 46.9185 34.92C47.2623 34.5762 47.5349 34.1678 47.7205 33.7184C47.9061 33.269 48.001 32.7873 48 32.301V28.7006C48 28.6606 47.99 28.6306 47.99 28.6006V28.6006ZM22.047 27.0004H18.3366L21.997 23.39L23.8472 25.2202L22.047 27.0004ZM29.9379 27.0004L28.1377 25.2202L29.9979 23.39L33.6583 27.0004H29.9379ZM44.4996 32.001C44.2029 32.001 43.9128 31.913 43.6661 31.7482C43.4194 31.5833 43.2272 31.3491 43.1136 31.0749C43.0001 30.8008 42.9704 30.4992 43.0282 30.2082C43.0861 29.9172 43.229 29.6499 43.4388 29.4401C43.6486 29.2303 43.9159 29.0874 44.2069 29.0295C44.4979 28.9716 44.7996 29.0013 45.0737 29.1149C45.3478 29.2284 45.5821 29.4207 45.7469 29.6674C45.9118 29.9141 45.9998 30.2041 45.9998 30.5008C46 30.6979 45.9614 30.8931 45.8861 31.0752C45.8108 31.2574 45.7003 31.4229 45.561 31.5622C45.4216 31.7016 45.2561 31.8121 45.074 31.8874C44.8919 31.9627 44.6967 32.0013 44.4996 32.001V32.001Z" fill="#011E41"/>
</svg>
