<svg width="48" height="48" viewBox="0 0 48 48" fill="none" xmlns="http://www.w3.org/2000/svg">
<g clip-path="url(#clip0_74_1096)">
<path d="M25.9991 42.3844C25.9874 42.3195 25.9693 42.2558 25.9451 42.1944C25.9333 42.1339 25.9159 42.0746 25.8931 42.0174C25.8687 41.981 25.842 41.9463 25.8131 41.9133C25.7679 41.8397 25.713 41.7725 25.6501 41.7133L25.6421 41.7033L21.9873 38.6796V23.2512L25.0039 23.9704V17.1189L21.9873 15.7006V7.48875C21.9873 6.69505 21.672 5.93386 21.1107 5.37262C20.5495 4.81139 19.7883 4.49609 18.9946 4.49609C18.2009 4.49609 17.4397 4.81139 16.8785 5.37262C16.3172 5.93386 16.0019 6.69505 16.0019 7.48875V15.6986L1.21968 22.6601C0.823823 22.8264 0.493508 23.1181 0.279475 23.4903C0.247005 23.5334 0.220119 23.5804 0.199457 23.6303C0.178489 23.6684 0.16172 23.7086 0.149446 23.7503C0.119098 23.8028 0.0987488 23.8605 0.0894328 23.9204C-0.0142349 24.2474 -0.0280536 24.5964 0.049424 24.9306C0.0394218 24.9406 0.049424 24.9506 0.049424 24.9606C0.060343 25.0233 0.080571 25.084 0.109437 25.1406C0.125675 25.211 0.152664 25.2785 0.189455 25.3407C0.355237 25.7121 0.635677 26.0206 0.989631 26.2209C1.03275 26.2534 1.0798 26.2802 1.12966 26.3009C1.16774 26.3219 1.20799 26.3386 1.24969 26.3509C1.30217 26.3813 1.35982 26.4016 1.41973 26.4109C1.60727 26.4708 1.80298 26.5012 1.99985 26.5009C2.14452 26.4986 2.2886 26.4818 2.42995 26.4509H2.45996L16.0029 23.2602V38.6856L12.3641 41.7033L12.3561 41.7133C12.2954 41.7713 12.2423 41.8369 12.1981 41.9083C12.1673 41.9431 12.1389 41.9798 12.1131 42.0184C12.0766 42.1404 12.0412 42.2628 12.0071 42.3854C12.0088 42.428 12.0131 42.4704 12.0201 42.5125C12.0184 42.6001 12.0285 42.6876 12.0501 42.7725L12.0521 42.7855C12.1148 42.8927 12.1748 43.0014 12.2321 43.1116L12.2421 43.1196C12.2954 43.174 12.3548 43.222 12.4192 43.2626C12.4598 43.2994 12.5033 43.3328 12.5492 43.3627C12.5813 43.3743 12.614 43.3843 12.6472 43.3927C12.7326 43.43 12.8229 43.4553 12.9153 43.4677C12.9518 43.4663 12.9881 43.463 13.0243 43.4577C13.1181 43.4598 13.2117 43.4487 13.3023 43.4247L13.3144 43.4237L19.0036 41.5563L24.6719 43.4167L24.6939 43.4237C24.918 43.5005 25.163 43.489 25.379 43.3917C25.4108 43.3777 25.4419 43.362 25.472 43.3447C25.5697 43.2928 25.658 43.2248 25.7331 43.1436C25.7461 43.1296 25.7631 43.1246 25.7761 43.1106C25.7801 43.1046 25.7811 43.0976 25.7861 43.0916C25.8605 43.0005 25.9181 42.8968 25.9561 42.7855V42.7725C25.9788 42.686 25.9896 42.5969 25.9881 42.5075C25.9946 42.4667 25.9986 42.4257 26.0001 42.3844H25.9991ZM30.2161 21.0798C30.8734 20.7915 31.5722 20.6092 32.2865 20.5396H32.2965C32.5322 20.5111 32.7694 20.4977 33.0067 20.4996H42.0087C42.9411 20.4991 43.8641 20.6856 44.7231 21.0481C45.5821 21.4106 46.3597 21.9418 47.0098 22.6101V16.4987C47.0107 16.2358 46.9596 15.9752 46.8594 15.7321C46.7592 15.489 46.6119 15.2681 46.4259 15.0822C46.24 14.8962 46.0191 14.7489 45.776 14.6487C45.5328 14.5485 45.2723 14.4974 45.0093 14.4983H30.006C29.7431 14.4974 29.4825 14.5485 29.2394 14.6487C28.9963 14.7489 28.7754 14.8962 28.5894 15.0822C28.4035 15.2681 28.2562 15.489 28.156 15.7321C28.0558 15.9752 28.0047 16.2358 28.0056 16.4987V22.6101C28.5796 22.0154 29.2576 21.5306 30.006 21.1798C30.0741 21.1424 30.1442 21.109 30.2161 21.0798V21.0798Z" fill="#011E41"/>
<path d="M47.0103 30.5018V27.5011C47.0097 26.1749 46.4827 24.9032 45.5449 23.9654C44.6071 23.0276 43.3354 22.5006 42.0092 22.5H33.0072C31.9244 22.4957 30.8702 22.8471 30.0065 23.5003C29.8974 23.5721 29.7968 23.656 29.7065 23.7503C29.1711 24.2174 28.7422 24.7939 28.4489 25.441C28.1555 26.0881 28.0045 26.7907 28.0061 27.5011V30.5018C27.741 30.5026 27.4871 30.6082 27.2997 30.7956C27.1123 30.983 27.0067 31.237 27.0059 31.502V39.5038C27.0067 39.7688 27.1123 40.0228 27.2997 40.2102C27.4871 40.3976 27.741 40.5032 28.0061 40.504H29.0063V42.0043C29.0063 42.4023 29.1644 42.7839 29.4457 43.0652C29.7271 43.3466 30.1087 43.5047 30.5066 43.5047C30.9045 43.5047 31.2862 43.3466 31.5675 43.0652C31.8489 42.7839 32.007 42.4023 32.007 42.0043V40.504H43.0094V42.0043C43.0094 42.4023 43.1675 42.7839 43.4488 43.0652C43.7302 43.3466 44.1118 43.5047 44.5097 43.5047C44.9076 43.5047 45.2892 43.3466 45.5706 43.0652C45.852 42.7839 46.0101 42.4023 46.0101 42.0043V40.504H47.0003C47.2653 40.5032 47.5193 40.3976 47.7067 40.2102C47.8941 40.0228 47.9997 39.7688 48.0005 39.5038V31.502C48.0005 31.2385 47.8965 30.9856 47.7111 30.7983C47.5257 30.611 47.2738 30.5044 47.0103 30.5018ZM31.0067 27.5011C31.0082 27.1126 31.1224 26.7329 31.3355 26.408C31.5485 26.0831 31.8513 25.827 32.207 25.6707H32.217C32.4652 25.5581 32.7346 25.5001 33.0072 25.5007H42.0092C42.4553 25.5035 42.8879 25.6543 43.2391 25.9294C43.5903 26.2046 43.8402 26.5885 43.9496 27.021C43.9905 27.1778 44.0107 27.3392 44.0096 27.5011V30.5018H31.0067V27.5011ZM31.5069 36.5031C31.2101 36.5031 30.92 36.4151 30.6733 36.2503C30.4266 36.0854 30.2343 35.8511 30.1207 35.5769C30.0072 35.3028 29.9775 35.0011 30.0353 34.7101C30.0932 34.4191 30.2361 34.1517 30.446 33.9419C30.6558 33.7321 30.9231 33.5892 31.2142 33.5313C31.5052 33.4734 31.8069 33.5031 32.081 33.6167C32.3552 33.7302 32.5895 33.9225 32.7543 34.1693C32.9192 34.416 33.0072 34.7061 33.0072 35.0028C33.0074 35.1999 32.9688 35.3951 32.8935 35.5773C32.8182 35.7594 32.7077 35.9249 32.5683 36.0643C32.429 36.2036 32.2635 36.3142 32.0813 36.3895C31.8992 36.4648 31.704 36.5034 31.5069 36.5031V36.5031ZM43.5095 36.5031C43.2128 36.5031 42.9227 36.4151 42.676 36.2503C42.4292 36.0854 42.2369 35.8511 42.1234 35.5769C42.0098 35.3028 41.9801 35.0011 42.038 34.7101C42.0959 34.4191 42.2388 34.1517 42.4486 33.9419C42.6584 33.7321 42.9258 33.5892 43.2168 33.5313C43.5078 33.4734 43.8095 33.5031 44.0837 33.6167C44.3578 33.7302 44.5921 33.9225 44.757 34.1693C44.9218 34.416 45.0098 34.7061 45.0098 35.0028C45.0101 35.1999 44.9715 35.3951 44.8962 35.5773C44.8209 35.7594 44.7104 35.9249 44.571 36.0643C44.4316 36.2036 44.2661 36.3142 44.084 36.3895C43.9018 36.4648 43.7066 36.5034 43.5095 36.5031V36.5031Z" fill="#011E41"/>
</g>
<defs>
<clipPath id="clip0_74_1096">
<rect width="48" height="48" fill="white"/>
</clipPath>
</defs>
</svg>
