<?xml version="1.0" encoding="utf-8"?>
<!-- Generator: Adobe Illustrator 17.1.0, SVG Export Plug-In . SVG Version: 6.00 Build 0)  -->
<!DOCTYPE svg PUBLIC "-//W3C//DTD SVG 1.1//EN" "http://www.w3.org/Graphics/SVG/1.1/DTD/svg11.dtd">
<svg version="1.1"
	 id="ГЕРБ" xmlns:svg="http://www.w3.org/2000/svg" xmlns:rdf="http://www.w3.org/1999/02/22-rdf-syntax-ns#" xmlns:cc="http://creativecommons.org/ns#" xmlns:dc="http://purl.org/dc/elements/1.1/"
	 xmlns="http://www.w3.org/2000/svg" xmlns:xlink="http://www.w3.org/1999/xlink" x="0px" y="0px"
	 viewBox="-626.295 41.35 715.503 232.822" enable-background="new -626.295 41.35 715.503 232.822" xml:space="preserve">
<g id="g236">
	<g id="g238">
		<path id="path240" fill="#F6C315" d="M-565.203,78.831c7.939-11.255,21.71-18.299,35.547-17.272
			c8.418,0.427,16.174,4.373,22.532,9.717c6.348-5.324,14.073-9.293,22.471-9.717c13.835-1.035,27.664,5.972,35.59,17.263
			c7.309-0.525,15.183-0.108,21.425,4.171c7,4.811,11.249,13.326,11.249,21.773c0.069,7.095-3.803,14.167-10.05,17.614
			c-3.162,2.069-7.849,3.528-8.211,7.951c-1.542,11.594-1.556,23.362-2.036,35.045c2.819-2.572,5.304-6.773,9.602-6.755
			c5.936,0.357,11.355,5.249,12.091,11.204c0.975,4.549-1.08,8.975-3.812,12.485c-7.295,9.835-14.156,19.991-21.547,29.73
			c-2.741,3.844-7.707,3.501-11.803,2.691c-4.35,11.126-13.496,20.462-24.837,24.453c-10.302,3.703-22.691,5.442-29.56,14.902
			h-1.249c-5.866-9.121-17.538-10.847-27.075-14.059c-12.407-3.638-22.563-13.414-27.312-25.368
			c-2.901,0.362-6.113,1.346-8.834-0.238c-2.891-1.661-4.61-4.65-6.551-7.254c-6.508-9.389-13.465-18.458-19.875-27.908
			c-5.003-7.51-0.279-18.885,8.663-20.455c5.002-1.302,8.201,3.563,11.222,6.627c-0.384-11.323-0.586-22.681-1.823-33.952
			c-0.244-7.39-9.25-7.882-13.069-12.756c-9.56-10.209-5.441-27.643,5.3-35.345C-580.863,78.78-572.713,78.257-565.203,78.831
			 M-563.26,82.747c-5.442-0.543-11.095-0.928-16.365,0.811c-12.024,3.774-18.851,20.056-11.693,30.823
			c4.567,7.273,15.459,9.237,22.287,4.076c4.224-3.076,5.546-9.655,2.486-13.966c-1.388-2.058-3.948-2.622-6.114-3.487
			c1.664,2.411,4.214,4.823,3.628,8.054c-0.214,4.471-5.24,7.895-9.464,6.2c-4.919-1.558-6.669-8.557-2.934-12.194
			c3.562-5.098,11.531-6.188,16.248-2.122c3.861,3.486,4.128,9.302,3.104,14.071c-2.093,6.057-8.269,9.429-14.317,10.303
			c1.162,12.644,2.059,25.307,2.176,38.002c-0.213,5.954-1.098,12.645-5.633,16.975c-2.669,2.636-6.573,3.03-10.082,3.574
			c5.792,7.904,11.46,15.904,17.175,23.867c1.432,1.917,3.192,4.275,5.891,4.073c3.168-0.009,4.684-3.048,6.102-5.387
			c1.838,7.776,5.174,15.341,11.224,20.76c11.747-3.025,23.791-4.821,35.9-5.503c-2.326-7.437-6.891-13.872-10.818-20.533
			c-4.982-7.485-8.483-15.966-9.912-24.867c-0.63-3.371-1.024-7.24-3.82-9.623c-2.87-2.439-6.549-4.485-10.434-4.117
			c-2.466,0.265-2.978,3.16-4,4.908c1.333,1.487,3.104,2.636,4.074,4.43c0.556,2.078-1.601,3.414-3.372,3.606
			c-0.631-1.771-4.235-4.911-0.618-5.698c-3.852-2.325-1.58-7.817,2.038-9.105c6.316-2.515,13.378,0.833,17.603,5.691
			c-0.789-12.408,6.772-22.738,10.561-34.002c-2.411-3.341-4.759-6.711-6.957-10.19c-4.979-0.574-11.083,0.054-13.315,5.324
			c3.638-0.556,5.972-4.856,9.891-3.937c3.37,1.228,5.516,4.597,6.474,7.949c-2.187,1.153-4.054,2.983-6.444,3.723
			c-2.306-0.372-4.492-1.185-6.775-1.655c2.421,3.571,8.172,1.399,10.114,5.176c0.108,4.268,0.182,8.914-2.613,12.441
			c-1.771-1.152-3.531-2.303-5.303-3.459c-0.544,0.214-1.633,0.652-2.176,0.877c-0.982-3.274-0.865-7.046-3.147-9.773
			c-3.915,0.682-0.684,4.351-0.054,6.531c1.591,3.316-0.682,6.495-2.912,8.789c-0.394-0.342-1.172-1.003-1.558-1.345
			c-1.247,1.826-2.591,3.576-4.002,5.269c-2.186-2.14-2.868-5.35-5.216-7.333c0.906-4.41,3.018-8.365,4.812-12.434
			c-2.113,1.549-2.773,4.375-4.801,5.924c-2.806,0.743-5.645,1.331-8.459,2.033c-0.342-2.165-0.673-4.332-1.451-6.378
			c0.979-3.351,0.534-8.251,4.459-9.72c3.863-1.77,7.745,0.928,11.586,1.375c-1.409-2.538-4.415-3.199-6.39-5.131
			c-1.312-2.09-1.27-6.07,1.921-6.294c0.8-2.859,3.295-4.228,5.976-4.939c0.606,1.773,1.164,3.551,1.684,5.356
			c0.874-0.351,1.739-0.703,2.613-1.056c0.233,1.963,0.438,3.936,0.64,5.909c2.634-4.45,7.564-6.155,12.47-6.444
			c-4.823-7.074-12.45-11.159-19.918-14.861c6.231-0.372,11.054,3.832,16.666,5.666c-1.004-2.551-2.115-5.058-3.052-7.618
			c-1.098-2.804-0.394-5.888-1.015-8.779c-1.098-2.911-3.756-4.802-5.78-7.04c2.411,0.937,5.152,1.802,6.573,4.172
			c4.117,5.738,1.673,13.995,7.233,18.99c1.673-7.501,1.865-15.588-0.757-22.906c1.388,1.685,3.222,3.21,3.765,5.421
			c1.003,6.017,0.523,12.151-0.342,18.158c-0.864,5.975,2.7,11.338,6.126,15.875c-0.022-4.282-1.035-8.601-0.15-12.867
			c0.586-3.021,2.645-5.494,3.32-8.492c0.351-2.882,0.094-5.793,0.168-8.686c0.693,2.904,1.484,5.847,1.355,8.856
			c-0.307,3.904-2.442,7.573-1.823,11.564c0.672,4.981,0.81,10.007,0.287,15.01c3.096,3.543,6.041,7.309,9.999,9.945
			c-0.14-4.078-0.984-8.056-1.641-12.067c-0.662-4.149,0.416-8.289,1.277-12.321c1.057-4.874,0.92-9.939,2.181-14.786
			c1.737,6.891,0.629,13.914-0.471,20.796c-1.046,6.016,1.494,11.66,3.499,17.165c2.902-2.712,5.529-5.708,8.142-8.693
			c-0.513-4.993-0.394-10.03,0.288-14.989c0.627-4.033-1.547-7.736-1.835-11.682c-0.096-3.02,0.696-5.963,1.364-8.886
			c0.078,2.933-0.192,5.878,0.183,8.8c0.673,2.966,2.7,5.431,3.295,8.419c0.911,4.3-0.119,8.675-0.151,12.993
			c3.396-4.588,7.021-9.963,6.137-15.971c-0.874-6.006-1.341-12.15-0.334-18.178c0.549-2.189,2.371-3.691,3.757-5.355
			c-2.412,7.255-2.879,15.522-0.417,22.8c2.22-2.903,3.799-6.272,3.941-9.977c0.407-5.719,3.35-11.906,9.501-13.1
			c-1.899,2.07-4.176,3.862-5.506,6.379c-1.053,2.777-0.124,5.881-1.034,8.707c-0.925,2.838-2.204,5.549-3.284,8.342
			c5.638-1.811,10.458-6.057,16.709-5.654c-7.499,3.66-15.124,7.789-19.959,14.862c3.84,0.373,7.657,1.366,10.764,3.765
			c-0.599,0.534-1.199,1.066-1.805,1.601c-3.117-2.529-7.185-2.346-10.947-2.135c-2.185,3.477-4.542,6.849-6.943,10.191
			c2.256,6.176,5.037,12.131,7.696,18.125c2.215,4.979,2.741,10.478,2.867,15.865c3.091-3.304,7.025-6.124,11.693-6.412
			c4.032-0.81,9.281,1.249,9.92,5.748c0.735,1.817-0.947,2.892-1.975,4.078c3.65,0.753,0.14,3.849-0.574,5.547
			c-1.94,0.302-3.737-1.515-3.501-3.458c1.114-1.714,2.776-2.959,4.158-4.442c-0.979-2.059-1.973-5.281-4.892-4.97
			c-5.794,0.362-12.005,4.398-12.744,10.549c-1.124,7.085-2.906,14.137-6.167,20.572c-4.835,9.46-11.849,17.858-15.167,28.055
			c12.16,0.558,24.238,2.426,36.027,5.474c5.931-5.474,9.272-12.968,11.098-20.709c1.3,2.009,2.389,4.668,4.993,5.231
			c2.728,0.888,5.085-1.218,6.526-3.3c5.899-8.137,11.67-16.375,17.634-24.471c-3.496-0.542-7.382-0.927-10.05-3.542
			c-4.545-4.311-5.451-10.995-5.661-16.966c0.114-12.701,1.011-25.386,2.165-38.041c-4.238-0.841-8.677-2.229-11.51-5.708
			c-3.991-4.051-4.133-10.639-1.977-15.618c2.604-5.804,10.819-7.104,15.757-3.594c3.565,2.462,6.426,7.296,3.822,11.469
			c-2.453,5.102-10.659,4.938-12.792-0.354c-2.059-3.871,0.554-7.714,3.085-10.54c-2.183,0.865-4.769,1.397-6.178,3.466
			c-3.135,4.322-1.78,10.978,2.485,14.062c6.659,4.95,17.153,3.274,21.872-3.594c6.709-9.122,2.485-22.797-6.348-28.923
			c-6.284-4.332-14.284-3.927-21.533-3.309c-7.639-13.517-25.034-20.653-39.949-16.323c-6.165,1.717-11.437,5.549-15.982,9.934
			c-4.373-4.163-9.336-7.885-15.172-9.679C-537.496,61.688-555.269,69.06-563.26,82.747 M-578.154,104.138
			c-3.157,1.418-3.273,6.316-0.342,8.033c2.582,1.783,6.399-0.148,6.668-3.201C-571.155,105.621-575.07,102.441-578.154,104.138
			 M-439.703,104.051c-3.535,1.366-3.684,7.03-0.087,8.418c2.943,1.474,6.584-1.418,6.181-4.588
			C-433.687,104.97-437.028,102.74-439.703,104.051 M-550.33,125.037c1.129,2.613,3.189,4.577,5.281,6.412
			c-2.775,0.968-5.579,1.847-8.3,2.966c2.229-0.168,4.459-0.456,6.669-0.768c-1.27,3.074-1.784,6.371-1.922,9.689
			c1.195-3.285,2.379-6.605,4.354-9.518c1.804,2.079,3.64,4.129,5.516,6.135l0.418-0.377c-1.943-2.484-4.15-4.949-4.778-8.139
			c1.983-1.045,4.105-1.811,6.165-2.685c-2.835,0.265-5.717,1.181-8.564,0.598C-547.309,128.163-548.72,126.479-550.33,125.037
			 M-519.637,136.174c-0.96,2.763-2.006,5.507-3.339,8.11c-3.543,6.935-5.221,14.698-5.579,22.446
			c4.78-8.215,12.278-14.219,19.812-19.757C-512.37,143.369-516.36,140.135-519.637,136.174 M-505.179,147.078
			c7.275,5.7,14.815,11.446,19.481,19.643c-0.341-7.757-2.046-15.533-5.595-22.49c-1.32-2.58-2.352-5.303-3.318-8.035
			C-497.669,140.285-502.202,142.991-505.179,147.078 M-527.486,178.36c-0.129,14.3,10.038,25.519,18.167,36.233
			c0.044-2.618,0.071-5.217,0.14-7.826c1.643-1.437,2.934-3.185,4.206-4.931c0,4.254-0.025,8.513,0.023,12.766
			c4.442-5.698,8.961-11.359,12.714-17.535c-2.453-0.966-4.97-1.831-7.597-2.156c-0.902-3.064-1.813-6.229-4.211-8.503
			c-2.027,3.721,2.545,6.444,2.229,10.135c0.05,2.398-1.547,4.65-4,4.97c-0.911,1.469-1.835,2.924-2.769,4.384
			c-1.714-1.996-3.198-4.183-4.987-6.103c0.34-3.737,0.714-7.563,2.826-10.776c-0.342-0.105-1.013-0.334-1.355-0.439
			c-0.61,1.675-0.991,3.469-1.943,4.993c-2.411,1.185-4.939,2.105-7.423,3.117c-1.612-4.288-2.133-8.755-1.399-13.291
			c1.514-1.217,2.915-3.043,5.048-3.002c2.39,0.151,4.736,0.659,7.113,0.87c-1.525-1.986-4.009-2.682-5.995-4.082
			c-1.003-1.613-0.907-3.634-1.301-5.437c0.49-0.023,1.481-0.075,1.983-0.096c0.468-2.716,2.315-4.631,4.705-5.824
			c0.727,1.487,1.418,2.982,2.09,4.503c1.302-0.096,2.602-0.149,3.913-0.215c-1.353-0.49-2.728-0.883-4.126-1.245
			c0.266-5.229,0.179-10.458,0.14-15.685C-517.642,159.33-527.402,166.987-527.486,178.36 M-505.458,153.084
			c0.236,3.715,5.345,3.44,5.954,7.01c2.261,6.224-2.426,11.533-5.016,16.709c2.787-1.547,4.618-5.304,8.151-5.089
			c2.902,1.034,4.874,3.712,6.261,6.357c-1.449,1.432-2.86,2.915-4.137,4.503c-2.334-0.167-4.673-0.494-7.011-0.673
			c2.924,2.478,7.3,0.995,10.085,3.767c-0.236,0.504-0.698,1.515-0.918,2.028c0.714,2.989,0.734,6.069,0.256,9.103
			c1.79-4.238,3.973-8.398,4.682-12.997c1.107-6.229-0.032-13.121-4.096-18.114C-495.254,160.771-499.985,156.36-505.458,153.084
			 M-504.728,157.554c-0.458,5.986,0.236,12.078-1.403,17.95c1.998-3.428,4.673-6.915,4.302-11.108
			C-501.779,161.783-503.326,159.604-504.728,157.554 M-595.459,175.106c0.534,3.304,3.808,4.682,6.582,5.725
			c-1.655-2.876-3.447-5.684-4.961-8.638c3.159-0.639,7.074-0.149,9.42-2.794c2.7-2.494,0.01-8.375-3.808-6.998
			C-593.742,163.627-597.197,169.719-595.459,175.106 M-429.82,169.408c2.348,2.645,6.242,2.133,9.4,2.746
			c-1.506,2.975-3.284,5.78-4.906,8.696c2.741-1.066,5.995-2.439,6.531-5.721c1.757-5.41-1.716-11.524-7.259-12.741
			C-429.884,161.055-432.529,166.936-429.82,169.408 M-589.195,174.904c1.237,1.757,2.39,3.574,3.84,5.162
			c4.973-1.474,9.198-7.455,5.525-12.224C-581.535,171.765-584.801,174.607-589.195,174.904 M-435.795,172.941
			c0.721,3.693,3.961,5.899,7.201,7.245c1.158-1.785,2.298-3.551,3.458-5.314c-4.249-0.332-7.625-2.952-9.103-6.947
			C-434.749,169.582-436.591,171.129-435.795,172.941 M-511.742,175.266c1.515,2.036,3.446,3.703,5.465,5.217
			c-2.179,1.272-4.365,2.494-6.467,3.886c1.792-0.536,3.574-1.122,5.364-1.707c-0.595,2.943-0.801,5.959-0.478,8.959
			c0.693-3.021,1.375-6.059,2.529-8.95c2.046,1.963,4.169,3.84,6.494,5.483c-2.206-2.453-4.389-4.931-6.046-7.799
			c1.78-1.066,3.59-2.037,5.419-3.021c-2.206,0.439-4.394,1.057-6.65,1.323C-508.305,178.254-509.843,176.337-511.742,175.266
			 M-465.458,115.107c2.783,0.852,5.309,2.399,5.899,5.474c0.62-0.024,1.853-0.054,2.487-0.078
			c-0.162,1.965,0.451,4.183-0.634,5.964c-1.982,1.888-4.945,2.581-6.348,5.098c3.799-0.456,7.654-3.126,11.478-1.418
			c4.014,1.429,3.574,6.357,4.559,9.74c-0.783,2.059-1.112,4.226-1.451,6.381c-2.86-0.693-5.739-1.291-8.577-2.048
			c-2.137-1.303-1.945-5.207-5.002-5.132c1.043,1.685,2.183,3.307,3.314,4.93c0.48,2.285,1.163,4.506,1.78,6.744
			c-2.302,2.015-3.02,5.172-5.176,7.321c-1.414-1.691-2.76-3.438-4.009-5.267c-0.38,0.342-1.139,1.015-1.524,1.355
			c-2.238-2.271-4.535-5.44-2.956-8.765c0.632-2.182,3.904-5.987-0.105-6.54c-2.188,2.762-2.115,6.462-3.062,9.714
			c-0.554-0.213-1.661-0.629-2.22-0.828c-1.762,1.141-3.51,2.293-5.259,3.446c-3.181-3.341-1.78-7.96-3.053-11.96
			c2.133-4.15,7.808-2.104,10.522-5.635c-2.68,0.59-5.327,1.398-8.078,1.612c-1.483-1.538-3.272-2.7-5.112-3.765
			c0.936-3.318,3.082-6.625,6.401-7.874c3.309-0.874,5.737,1.994,8.119,3.745c1.005-0.66,2.011-1.31,3.03-1.972
			c0.135-1.965,0.323-3.916,0.533-5.871c0.865,0.355,1.739,0.693,2.609,1.048C-466.731,118.711-466.122,116.9-465.458,115.107
			 M-468.705,129.325c-2.833,0.631-5.725-0.309-8.563-0.553c1.966,0.83,3.982,1.525,5.853,2.558c0.034,3.49-3.174,6.05-4.787,8.984
			c2.3-1.952,4.298-4.228,6.272-6.495c1.881,2.953,3.105,6.243,4.302,9.518c-0.16-3.311-0.654-6.605-1.94-9.677
			c2.197,0.3,4.403,0.577,6.632,0.693c-2.719-1.066-5.49-1.932-8.252-2.891c2.069-1.844,4.146-3.785,5.236-6.399
			C-465.536,126.488-466.923,128.142-468.705,129.325 M-547.448,169.408c2.165,0.009,5.548,0.446,4.993,3.446
			c-0.255,2.554-3.095,2.105-4.93,2.412C-547.427,173.312-547.448,171.362-547.448,169.408 M-471.765,172.822
			c-0.609-2.959,2.847-3.423,4.989-3.391c-0.014,1.963-0.048,3.917-0.114,5.876C-468.705,174.991-471.582,175.385-471.765,172.822
			 M-541.634,170.364c1.438,0.549,3.726,0.069,4.557,1.705c1.76,2.275-1.708,5.737-3.993,3.945
			C-542.202,174.328-541.484,172.236-541.634,170.364 M-477.497,172.726c0.517-2.229,3.21-1.863,4.902-2.357
			c-0.158,1.867,0.533,3.956-0.577,5.641C-475.28,177.563-478.232,175.064-477.497,172.726 M-559.75,174.373
			c1.356-2.304,5.293-3.812,6.263-0.345c1.357,3.288-3.36,4.677-5.429,2.531c-0.63,1.16-1.003,2.97-2.688,2.947
			c-1.111-0.984-4.075-1.307-3.244-3.318C-564.671,173.536-561.606,173.454-559.75,174.373 M-459.051,177.55
			c-3.188-0.819-2.044-5.812,1.009-5.588c1.652-0.311,2.343,1.684,3.549,2.412c1.632-0.538,3.979-1.162,4.844,0.883
			c1.632,2.549-2.3,5.689-4.481,3.638c-0.298-0.577-0.906-1.739-1.211-2.316C-456.584,176.868-457.705,178.245-459.051,177.55
			 M-553.444,177.046c2.069-0.568,4.141-1.099,6.23-1.588c0.192,1.835,1.046,4.714-1.537,5.329
			C-551.291,182.144-552.579,178.799-553.444,177.046 M-546.232,177.165c1.122-0.339,2.252-0.686,3.37-1.016
			c1.903,1.089,4.297,2.636,1.984,4.739C-543.662,183.096-546.126,179.865-546.232,177.165 M-471.241,175.971
			c0.906,0.778,3.231,0.682,2.847,2.398c0.599,3.327-5.137,4.54-5.771,1.08C-475.241,177.646-472.028,177.165-471.241,175.971
			 M-467.01,175.449c2.092,0.513,4.183,1.055,6.261,1.618c-0.957,1.709-2.128,4.975-4.691,3.76
			C-468.076,180.218-467.22,177.344-467.01,175.449 M-554.712,182.534c-0.364-1.41-2.359-3.767-0.385-4.664
			c1.438,1.249,2.569,2.787,3.787,4.256C-552.165,182.222-553.873,182.424-554.712,182.534 M-462.932,182.071
			c1.524-1.034,2.453-4.664,4.792-3.703c-0.302,1.451-0.782,2.86-1.409,4.206C-460.392,182.446-462.09,182.204-462.932,182.071
			 M-566.717,184.675c-3.266-1.638-0.363-6.892,2.817-5.085C-560.369,181.444-563.272,186.945-566.717,184.675 M-561.317,180.346
			c1.984-0.545,5.035-0.471,5.002,2.313c0.237,3.094-3.36,3.265-5.505,2.517C-561.648,183.568-561.48,181.957-561.317,180.346
			 M-457.417,181.101c1.066-1.78,3.231-0.691,4.822-0.691c-0.341,1.734,0.975,4.627-1.49,5.153
			C-456.605,186.62-459.17,183.202-457.417,181.101 M-450.268,178.959c1.428,0.618,3.732,0.568,4.048,2.526
			c0.799,1.867-1.444,4.174-3.346,3.584c-1.801,0.137-1.897-2.22-2.819-3.263C-451.87,181.092-450.804,179.673-450.268,178.959
			 M-550.555,181.966c1.816-0.375,3.629-0.792,5.453-1.162c0,2.732-1.216,4.97-4.031,5.428
			C-549.487,185.165-550.202,183.037-550.555,181.966 M-474.872,182.021c1.966-0.009,3.92,0.293,5.87,0.49
			c-0.449,1.522-1.686,2.348-3.041,2.966c2.863,0,2.377,2.764,2.641,4.792c-1.147-0.343-2.295-0.673-3.441-1.007
			C-473.536,186.854-474.936,184.593-474.872,182.021 M-469.143,180.813c1.826,0.362,3.629,0.778,5.456,1.153
			c-0.348,1.057-1.03,3.158-1.368,4.215C-467.957,185.847-469.085,183.545-469.143,180.813 M-554.862,186.689
			c-2.766-3.156,2.09-3.54,4.233-4.03C-549.531,185.398-552.027,189.083-554.862,186.689 M-545.274,182.511
			c2.018-0.032,4.138-0.856,6.113-0.14c-0.501,2.378-1.472,4.597-2.243,6.888c-1.084,0.311-2.165,0.618-3.24,0.936
			c0.009-1.455,0.033-2.895,0.052-4.35c0.715,0.087,2.156,0.268,2.871,0.359C-543.052,185.115-544.568,184.167-545.274,182.511
			 M-463.669,182.822c1.801,0.298,3.593,0.595,5.403,0.883c-0.485,1.794-1.529,4.618-3.963,3.542
			C-464.22,186.597-463.605,184.378-463.669,182.822 M-562.14,186.607c2.176-0.16,4.354-0.32,6.531-0.458
			c-0.502,1.748-0.244,4.76-2.794,4.833C-561.084,191.536-561.67,188.497-562.14,186.607 M-549.946,187.005
			c1.738-0.215,3.489-0.43,5.225-0.641c-0.842,2.119-1.578,4.993-4.321,2.961c-0.459,1.556-0.949,3.108-1.441,4.663
			c-1.355-0.435-2.678-0.945-3.979-1.501c-0.394-1.272-0.747-2.54-1.056-3.835c2.444-0.275,4.906-0.403,7.329,0.11L-549.946,187.005
			 M-469.669,186.35c1.785,0.206,3.579,0.416,5.368,0.641l-1.748,1.762c2.421-0.504,4.897-0.366,7.341-0.101
			c-0.119,3.13-1.95,5.007-5.044,5.345c-0.485-1.551-0.984-3.117-1.478-4.673C-467.948,191.357-468.71,188.378-469.669,186.35
			 M-458.655,186.158c2.194,0.142,4.364,0.288,6.554,0.449c-0.481,1.899-1.08,4.993-3.774,4.353
			C-458.387,190.863-458.161,187.879-458.655,186.158 M-547.108,191.623c2.285-0.847,4.623,1.492,3.714,3.753
			c-0.534,2.627-5.153,2.7-5.57-0.041C-549.679,193.82-548.655,192.016-547.108,191.623 M-543.352,190.268
			c1.738,0.233,4.555,0.16,4.768,2.504c0.438,2.05-1.856,2.956-3.062,4.133C-542.211,194.684-542.785,192.474-543.352,190.268
			 M-475.66,192.739c0.3-2.238,2.776-2.59,4.611-2.261c-0.419,2.165-0.975,4.288-1.485,6.435
			C-473.781,195.742-476.129,194.845-475.66,192.739 M-469.367,191.746c1.785-0.835,4.609,0.462,4.215,2.659
			c0.311,2.359-2.881,3.851-4.65,2.421C-471.692,195.76-471.25,192.41-469.367,191.746 M-554.012,198.639
			c-2.303-0.627-1.558-3.272-1.621-5.012c2.102,0.371,4.216,0.769,6.318,1.195C-550.129,196.721-551.267,199.952-554.012,198.639
			 M-464.877,194.717c2.009-0.334,4.014-0.719,6.05-0.897c1.588,3.082-1.025,5.066-3.863,5.57
			C-463.458,197.852-464.191,196.295-464.877,194.717 M-549.198,197.266c1.389,0.49,2.765,0.97,4.141,1.469
			c-0.748,1.387-0.727,3.693-2.679,3.982c-1.985,0.792-2.978-1.474-4.183-2.526C-551.237,199.453-549.871,197.989-549.198,197.266
			 M-545.274,202.268c0.896-1.579,0.406-4.97,3.03-4.654c2.752-0.268,4.246,3.812,1.815,5.24
			C-541.755,204.401-543.736,202.451-545.274,202.268 M-474.451,202.268c-1.519-1.812,0.05-4.792,2.398-4.673
			c2.65-0.298,2.197,3.03,3.071,4.65C-470.648,202.886-473.195,204.378-474.451,202.268 M-469.143,198.79
			c1.364-0.577,2.728-1.162,4.087-1.748c0.897,1.675,3.826,3.764,1.043,5.176C-466.602,204.245-468.886,201.243-469.143,198.79
			L-469.143,198.79z"/>
		<path id="path242" fill="#302E89" d="M-563.26,82.747c7.991-13.686,25.764-21.061,40.978-16.143
			c5.835,1.795,10.799,5.516,15.172,9.679c4.545-4.387,9.817-8.216,15.982-9.933c14.915-4.333,32.311,2.805,39.949,16.323
			c7.25-0.618,15.25-1.023,21.533,3.309c8.833,6.124,13.057,19.801,6.348,28.923c-4.719,6.871-15.213,8.543-21.872,3.594
			c-4.265-3.083-5.62-9.74-2.485-14.062c1.409-2.069,3.995-2.603,6.178-3.466c-2.531,2.826-5.144,6.669-3.085,10.54
			c2.133,5.292,10.339,5.455,12.792,0.354c2.604-4.171-0.256-9.005-3.822-11.469c-4.938-3.51-13.153-2.21-15.757,3.594
			c-2.156,4.979-2.014,11.566,1.977,15.618c2.833,3.479,7.272,4.867,11.51,5.708c-1.153,12.656-2.05,25.34-2.165,38.043
			c0.211,5.968,1.117,12.652,5.661,16.966c2.668,2.611,6.554,2.995,10.05,3.542c-5.963,8.096-11.734,16.334-17.634,24.471
			c-1.442,2.082-3.799,4.185-6.526,3.297c-2.604-0.561-3.693-3.222-4.993-5.229c-1.826,7.739-5.167,15.236-11.098,20.709
			c-11.79-3.048-23.867-4.915-36.027-5.474c3.318-10.199,10.329-18.597,15.167-28.057c3.261-6.432,5.039-13.487,6.167-20.57
			c0.739-6.151,6.952-10.19,12.744-10.549c2.92-0.311,3.913,2.911,4.892,4.97c-1.387,1.483-3.048,2.723-4.158,4.439
			c-0.236,1.941,1.561,3.757,3.499,3.455c0.716-1.698,4.227-4.792,0.577-5.547c1.027-1.185,2.709-2.261,1.975-4.076
			c-0.638-4.501-5.892-6.561-9.922-5.748c-4.666,0.288-8.6,3.105-11.691,6.409c-0.126-5.387-0.65-10.883-2.867-15.863
			c-2.659-5.997-5.439-11.951-7.696-18.125c2.4-3.342,4.757-6.712,6.943-10.191c3.76-0.213,7.831-0.394,10.947,2.135
			c0.609-0.534,1.208-1.069,1.805-1.601c-3.108-2.399-6.924-3.392-10.767-3.765c4.838-7.074,12.458-11.204,19.961-14.86
			c-6.252-0.406-11.071,3.84-16.709,5.653c1.08-2.793,2.362-5.505,3.284-8.342c0.913-2.826-0.018-5.93,1.034-8.707
			c1.327-2.517,3.606-4.307,5.506-6.379c-6.151,1.196-9.094,7.382-9.501,13.099c-0.142,3.705-1.721,7.074-3.94,9.977
			c-2.462-7.278-1.996-15.545,0.416-22.8c-1.387,1.664-3.208,3.168-3.757,5.355c-1.007,6.028-0.54,12.173,0.334,18.178
			c0.883,6.006-2.741,11.383-6.137,15.971c0.032-4.318,1.062-8.693,0.151-12.993c-0.595-2.985-2.622-5.453-3.295-8.419
			c-0.375-2.924-0.105-5.867-0.183-8.799c-0.668,2.921-1.46,5.865-1.364,8.886c0.288,3.945,2.462,7.65,1.835,11.681
			c-0.682,4.96-0.801,9.997-0.288,14.99c-2.613,2.985-5.24,5.982-8.142,8.693c-2.004-5.505-4.544-11.149-3.499-17.165
			c1.101-6.882,2.208-13.902,0.469-20.796c-1.259,4.847-1.121,9.912-2.178,14.786c-0.86,4.035-1.94,8.176-1.277,12.321
			c0.657,4.014,1.506,7.99,1.641,12.067c-3.958-2.636-6.903-6.402-9.999-9.945c0.525-5,0.387-10.026-0.288-15.01
			c-0.618-3.989,1.517-7.66,1.824-11.564c0.128-3.009-0.661-5.954-1.355-8.856c-0.074,2.891,0.183,5.802-0.168,8.687
			c-0.673,2.998-2.732,5.471-3.32,8.492c-0.887,4.268,0.128,8.588,0.15,12.867c-3.426-4.537-6.99-9.9-6.126-15.875
			c0.865-6.007,1.346-12.141,0.342-18.158c-0.543-2.211-2.377-3.736-3.765-5.421c2.625,7.318,2.432,15.405,0.758,22.906
			c-5.561-4.993-3.117-13.252-7.235-18.99c-1.42-2.37-4.161-3.235-6.572-4.172c2.026,2.24,4.684,4.129,5.78,7.04
			c0.621,2.891-0.085,5.975,1.015,8.779c0.937,2.562,2.05,5.069,3.05,7.619c-5.611-1.835-10.433-6.039-16.665-5.667
			c7.468,3.703,15.095,7.789,19.918,14.862c-4.906,0.288-9.836,1.994-12.47,6.444c-0.204-1.974-0.406-3.949-0.639-5.91
			c-0.874,0.351-1.739,0.702-2.613,1.056c-0.523-1.804-1.078-3.582-1.684-5.356c-2.681,0.714-5.174,2.08-5.976,4.939
			c-3.189,0.224-3.233,4.201-1.921,6.294c1.975,1.932,4.982,2.594,6.39,5.131c-3.841-0.445-7.724-3.144-11.586-1.375
			c-3.927,1.471-3.479,6.371-4.459,9.72c0.78,2.046,1.111,4.213,1.451,6.379c2.816-0.704,5.654-1.292,8.459-2.034
			c2.027-1.549,2.688-4.375,4.801-5.925c-1.794,4.066-3.906,8.024-4.812,12.434c2.346,1.985,3.027,5.196,5.216,7.331
			c1.409-1.689,2.753-3.438,4.002-5.266c0.385,0.341,1.163,1.005,1.557,1.345c2.231-2.294,4.505-5.474,2.913-8.79
			c-0.631-2.18-3.859-5.849,0.054-6.531c2.283,2.728,2.166,6.498,3.148,9.773c0.543-0.224,1.633-0.662,2.176-0.876
			c1.772,1.153,3.532,2.304,5.303,3.459c2.795-3.526,2.721-8.17,2.612-12.439c-1.942-3.778-7.692-1.606-10.113-5.177
			c2.283,0.469,4.469,1.282,6.775,1.654c2.39-0.738,4.255-2.57,6.444-3.723c-0.959-3.351-3.105-6.721-6.475-7.949
			c-3.915-0.919-6.252,3.382-9.89,3.937c2.231-5.27,8.333-5.9,13.315-5.324c2.198,3.479,4.546,6.849,6.956,10.19
			c-3.789,11.267-11.352,21.594-10.561,34c-4.225-4.854-11.287-8.206-17.603-5.689c-3.618,1.286-5.891,6.778-2.039,9.103
			c-3.616,0.787-0.012,3.927,0.619,5.7c1.771-0.192,3.928-1.528,3.372-3.606c-0.97-1.796-2.741-2.943-4.074-4.432
			c1.024-1.748,1.534-4.638,4-4.906c3.882-0.371,7.564,1.675,10.434,4.115c2.796,2.387,3.19,6.256,3.82,9.625
			c1.429,8.902,4.93,17.382,9.912,24.87c3.927,6.659,8.492,13.094,10.818,20.531c-12.108,0.682-24.154,2.476-35.9,5.501
			c-6.05-5.419-9.387-12.984-11.224-20.757c-1.418,2.336-2.934,5.378-6.102,5.387c-2.697,0.201-4.459-2.156-5.891-4.073
			c-5.715-7.961-11.383-15.966-17.176-23.867c3.513-0.545,7.416-0.938,10.083-3.574c4.534-4.33,5.42-11.021,5.633-16.975
			c-0.117-12.693-1.014-25.358-2.176-38.002c6.05-0.874,12.226-4.246,14.317-10.303c1.024-4.769,0.758-10.585-3.105-14.071
			c-4.714-4.065-12.685-2.976-16.247,2.122c-3.736,3.637-1.985,10.636,2.934,12.194c4.224,1.695,9.248-1.729,9.465-6.2
			c0.586-3.231-1.965-5.642-3.628-8.054c2.166,0.865,4.727,1.429,6.115,3.487c3.062,4.311,1.74,10.894-2.486,13.966
			c-6.828,5.161-17.72,3.198-22.287-4.076c-7.161-10.767-0.331-27.046,11.693-30.823C-574.355,81.819-568.702,82.203-563.26,82.747
			 M-465.458,115.107c-0.664,1.793-1.272,3.606-1.835,5.42c-0.87-0.351-1.744-0.691-2.609-1.047c-0.21,1.952-0.398,3.906-0.531,5.87
			c-1.016,0.662-2.028,1.312-3.03,1.972c-2.38-1.75-4.81-4.618-8.119-3.745c-3.318,1.249-5.464,4.556-6.403,7.874
			c1.84,1.066,3.629,2.229,5.114,3.765c2.751-0.216,5.4-1.024,8.076-1.612c-2.712,3.531-8.389,1.485-10.519,5.635
			c1.272,3.998-0.13,8.619,3.053,11.96c1.748-1.152,3.497-2.303,5.258-3.446c0.556,0.201,1.666,0.618,2.217,0.83
			c0.947-3.255,0.874-6.955,3.064-9.715c4.009,0.553,0.735,4.358,0.105,6.54c-1.579,3.325,0.721,6.495,2.959,8.765
			c0.384-0.342,1.142-1.013,1.522-1.353c1.249,1.825,2.593,3.572,4.009,5.268c2.156-2.152,2.877-5.308,5.176-7.323
			c-0.62-2.238-1.302-4.46-1.78-6.745c-1.128-1.621-2.272-3.245-3.313-4.93c3.057-0.072,2.865,3.832,5.002,5.133
			c2.838,0.756,5.714,1.354,8.577,2.047c0.341-2.156,0.668-4.323,1.451-6.38c-0.984-3.384-0.542-8.312-4.558-9.741
			c-3.826-1.708-7.677,0.961-11.476,1.418c1.4-2.516,4.366-3.21,6.348-5.098c1.085-1.784,0.467-4,0.632-5.963
			c-0.632,0.021-1.867,0.054-2.485,0.077C-460.149,117.506-462.676,115.957-465.458,115.107 M-547.448,169.408
			c0,1.954,0.02,3.904,0.063,5.858c1.835-0.307,4.673,0.142,4.93-2.412C-541.902,169.856-545.285,169.417-547.448,169.408
			 M-471.765,172.822c0.183,2.563,3.06,2.169,4.874,2.485c0.064-1.959,0.1-3.913,0.114-5.876
			C-468.916,169.399-472.374,169.865-471.765,172.822 M-541.634,170.364c0.15,1.872-0.565,3.963,0.564,5.648
			c2.285,1.796,5.753-1.671,3.993-3.945C-537.911,170.433-540.196,170.913-541.634,170.364 M-477.497,172.726
			c-0.735,2.339,2.217,4.835,4.325,3.286c1.11-1.687,0.419-3.776,0.577-5.643C-474.284,170.863-476.982,170.497-477.497,172.726
			 M-559.75,174.373c-1.856-0.92-4.919-0.835-5.1,1.813c-0.832,2.014,2.133,2.334,3.244,3.318c1.686,0.023,2.06-1.785,2.688-2.947
			c2.069,2.146,6.786,0.76,5.429-2.531C-554.459,170.561-558.395,172.067-559.75,174.373 M-459.049,177.55
			c1.343,0.696,2.467-0.682,3.712-0.97c0.302,0.577,0.911,1.739,1.208,2.316c2.181,2.05,6.114-1.089,4.481-3.638
			c-0.863-2.046-3.213-1.419-4.844-0.883c-1.206-0.73-1.897-2.723-3.549-2.412C-461.094,171.737-462.241,176.73-459.049,177.55
			 M-553.444,177.046c0.865,1.753,2.156,5.098,4.693,3.744c2.582-0.618,1.73-3.497,1.538-5.332
			C-549.303,175.948-551.376,176.479-553.444,177.046 M-546.232,177.165c0.105,2.7,2.572,5.931,5.357,3.726
			c2.312-2.103-0.085-3.652-1.985-4.739C-543.98,176.479-545.111,176.826-546.232,177.165 M-471.241,175.971
			c-0.787,1.194-4,1.675-2.924,3.478c0.634,3.46,6.373,2.247,5.771-1.08C-468.012,176.653-470.337,176.749-471.241,175.971
			 M-467.01,175.449c-0.211,1.895-1.066,4.769,1.57,5.382c2.563,1.213,3.735-2.055,4.691-3.762
			C-462.827,176.506-464.918,175.962-467.01,175.449 M-554.712,182.534c0.841-0.11,2.549-0.311,3.403-0.407
			c-1.218-1.469-2.348-3.007-3.787-4.256C-557.071,178.767-555.075,181.124-554.712,182.534 M-462.932,182.071
			c0.842,0.135,2.54,0.375,3.382,0.503c0.627-1.343,1.107-2.755,1.409-4.206C-460.479,177.408-461.408,181.037-462.932,182.071
			 M-566.717,184.675c3.445,2.27,6.348-3.231,2.817-5.085C-567.079,177.783-569.983,183.037-566.717,184.675 M-561.317,180.346
			c-0.16,1.611-0.331,3.222-0.501,4.833c2.145,0.746,5.74,0.577,5.504-2.517C-556.282,179.874-559.336,179.801-561.317,180.346
			 M-457.417,181.101c-1.753,2.101,0.812,5.52,3.332,4.462c2.465-0.526,1.149-3.419,1.49-5.153
			C-454.186,180.41-456.351,179.321-457.417,181.101 M-450.266,178.959c-0.538,0.716-1.604,2.133-2.119,2.847
			c0.927,1.043,1.023,3.4,2.819,3.266c1.902,0.59,4.144-1.714,3.346-3.581C-446.536,179.527-448.84,179.577-450.266,178.959
			 M-550.555,181.966c0.355,1.071,1.069,3.199,1.42,4.265c2.817-0.458,4.031-2.696,4.031-5.428
			C-546.925,181.174-548.739,181.591-550.555,181.966 M-474.87,182.021c-0.064,2.572,1.334,4.833,2.025,7.24
			c1.144,0.334,2.295,0.664,3.444,1.007c-0.266-2.027,0.22-4.792-2.641-4.792c1.353-0.618,2.588-1.442,3.039-2.966
			C-470.952,182.314-472.907,182.012-474.87,182.021 M-469.143,180.813c0.055,2.732,1.185,5.034,4.087,5.368
			c0.341-1.057,1.023-3.158,1.368-4.215C-465.513,181.591-467.316,181.174-469.143,180.813 M-554.862,186.689
			c2.837,2.391,5.333-1.291,4.234-4.028C-552.771,183.151-557.627,183.536-554.862,186.689 M-545.274,182.511
			c0.704,1.657,2.22,2.604,3.553,3.698c-0.714-0.091-2.156-0.275-2.871-0.362c-0.018,1.455-0.041,2.897-0.052,4.352
			c1.076-0.32,2.157-0.629,3.241-0.938c0.771-2.293,1.738-4.513,2.243-6.888C-541.135,181.655-543.256,182.479-545.274,182.511
			 M-463.669,182.822c0.064,1.556-0.552,3.776,1.437,4.426c2.435,1.076,3.478-1.748,3.963-3.542
			C-460.076,183.417-461.868,183.119-463.669,182.822 M-562.14,186.607c0.47,1.89,1.056,4.929,3.735,4.375
			c2.55-0.073,2.294-3.085,2.794-4.835C-557.789,186.286-559.964,186.447-562.14,186.607 M-549.946,187.005l1.76,1.757
			c-2.423-0.513-4.886-0.385-7.329-0.11c0.309,1.295,0.662,2.563,1.056,3.835c1.301,0.554,2.625,1.066,3.979,1.501
			c0.492-1.556,0.982-3.107,1.441-4.663c2.741,2.032,3.479-0.84,4.321-2.961C-546.457,186.575-548.208,186.79-549.946,187.005
			 M-469.669,186.35c0.957,2.027,1.721,5.007,4.44,2.975c0.494,1.556,0.993,3.121,1.478,4.673c3.094-0.339,4.927-2.213,5.044-5.343
			c-2.444-0.265-4.92-0.405-7.341,0.101l1.748-1.762C-466.09,186.767-467.884,186.556-469.669,186.35 M-458.655,186.158
			c0.494,1.721,0.268,4.705,2.78,4.801c2.694,0.641,3.293-2.453,3.774-4.35C-454.291,186.447-456.465,186.3-458.655,186.158
			 M-547.108,191.623c-1.547,0.393-2.571,2.197-1.856,3.711c0.416,2.742,5.035,2.668,5.57,0.041
			C-542.488,193.115-544.823,190.776-547.108,191.623 M-543.352,190.268c0.566,2.206,1.141,4.417,1.708,6.636
			c1.204-1.176,3.498-2.082,3.062-4.133C-538.797,190.428-541.614,190.501-543.352,190.268 M-475.66,192.739
			c-0.469,2.103,1.879,3.002,3.126,4.174c0.51-2.146,1.066-4.27,1.485-6.435C-472.886,190.149-475.362,190.501-475.66,192.739
			 M-469.367,191.746c-1.886,0.664-2.325,4.014-0.435,5.08c1.767,1.428,4.961-0.062,4.65-2.421
			C-464.758,192.209-467.582,190.909-469.367,191.746 M-554.012,198.639c2.741,1.314,3.883-1.918,4.693-3.817
			c-2.102-0.426-4.215-0.824-6.317-1.195C-555.57,195.366-556.315,198.012-554.012,198.639 M-464.877,194.717
			c0.687,1.579,1.419,3.135,2.188,4.673c2.838-0.503,5.451-2.487,3.863-5.57C-460.863,193.998-462.868,194.382-464.877,194.717
			 M-549.198,197.266c-0.671,0.723-2.039,2.188-2.721,2.924c1.207,1.053,2.198,3.318,4.183,2.526
			c1.952-0.288,1.93-2.595,2.679-3.982C-546.436,198.236-547.812,197.756-549.198,197.266 M-545.274,202.268
			c1.538,0.183,3.519,2.133,4.844,0.586c2.431-1.428,0.937-5.51-1.815-5.24C-544.865,197.298-544.376,200.689-545.274,202.268
			 M-474.451,202.268c1.254,2.11,3.803,0.618,5.469-0.023c-0.874-1.62-0.421-4.948-3.071-4.65
			C-474.401,197.476-475.971,200.456-474.451,202.268 M-469.143,198.79c0.256,2.453,2.54,5.455,5.13,3.428
			c2.783-1.412-0.146-3.501-1.043-5.176C-466.415,197.627-467.779,198.213-469.143,198.79 M-578.154,104.138
			c3.084-1.696,6.999,1.484,6.326,4.832c-0.267,3.054-4.086,4.984-6.668,3.201C-581.427,110.454-581.31,105.555-578.154,104.138
			 M-439.703,104.051c2.68-1.311,6.016,0.919,6.094,3.832c0.403,3.168-3.238,6.06-6.181,4.588
			C-443.39,111.083-443.239,105.417-439.703,104.051 M-550.33,125.037c1.61,1.442,3.02,3.126,4.834,4.313
			c2.847,0.583,5.729-0.333,8.564-0.598c-2.057,0.874-4.182,1.641-6.165,2.687c0.63,3.187,2.835,5.653,4.778,8.137l-0.418,0.377
			c-1.874-2.006-3.712-4.056-5.516-6.135c-1.975,2.911-3.158,6.231-4.354,9.518c0.141-3.318,0.651-6.614,1.921-9.689
			c-2.209,0.311-4.44,0.599-6.668,0.768c2.721-1.119,5.527-1.998,8.3-2.966C-547.141,129.614-549.198,127.653-550.33,125.037
			 M-468.705,129.325c1.785-1.185,3.174-2.837,4.748-4.267c-1.089,2.614-3.167,4.555-5.233,6.399
			c2.767,0.959,5.531,1.825,8.249,2.891c-2.229-0.117-4.435-0.394-6.631-0.693c1.286,3.072,1.782,6.366,1.94,9.677
			c-1.195-3.274-2.421-6.565-4.302-9.518c-1.973,2.271-3.968,4.544-6.27,6.495c1.611-2.934,4.819-5.494,4.787-8.984
			c-1.872-1.031-3.89-1.727-5.853-2.558C-474.433,129.019-471.538,129.956-468.705,129.325 M-519.635,136.174
			c3.273,3.959,7.265,7.192,10.891,10.796c-7.532,5.539-15.032,11.542-19.812,19.757c0.36-7.748,2.035-15.511,5.579-22.445
			C-521.642,141.681-520.597,138.938-519.635,136.174 M-505.179,147.078c2.977-4.085,7.51-6.79,10.568-10.882
			c0.966,2.732,1.998,5.455,3.318,8.035c3.549,6.956,5.249,14.732,5.595,22.49C-490.364,158.524-497.904,152.777-505.179,147.078
			 M-527.486,178.36c0.083-11.373,9.846-19.03,18.19-25.177c0.043,5.228,0.131,10.454-0.14,15.685
			c1.398,0.362,2.773,0.755,4.126,1.245c-1.311,0.064-2.611,0.119-3.913,0.215c-0.673-1.52-1.366-3.016-2.09-4.503
			c-2.39,1.195-4.239,3.108-4.705,5.826c-0.502,0.018-1.493,0.073-1.983,0.096c0.394,1.803,0.298,3.822,1.301,5.435
			c1.984,1.403,4.47,2.098,5.995,4.082c-2.377-0.211-4.725-0.721-7.113-0.87c-2.135-0.041-3.534,1.787-5.048,3.002
			c-0.733,4.538-0.213,9.002,1.399,13.291c2.486-1.014,5.015-1.931,7.423-3.117c0.95-1.522,1.333-3.318,1.943-4.993
			c0.342,0.105,1.015,0.336,1.355,0.441c-2.112,3.213-2.486,7.039-2.826,10.774c1.79,1.922,3.273,4.11,4.987,6.105
			c0.931-1.46,1.858-2.915,2.769-4.384c2.453-0.323,4.051-2.574,4-4.97c0.316-3.693-4.256-6.417-2.229-10.137
			c2.398,2.275,3.309,5.442,4.211,8.503c2.627,0.325,5.144,1.19,7.597,2.156c-3.753,6.178-8.27,11.84-12.714,17.538
			c-0.048-4.256-0.023-8.513-0.023-12.769c-1.272,1.748-2.563,3.497-4.206,4.931c-0.064,2.609-0.096,5.21-0.14,7.828
			C-517.448,203.879-527.617,192.657-527.486,178.36 M-505.458,153.084c5.474,3.276,10.204,7.687,14.21,12.603
			c4.064,4.993,5.204,11.883,4.096,18.112c-0.709,4.6-2.892,8.76-4.682,12.998c0.476-3.034,0.458-6.112-0.256-9.103
			c0.22-0.515,0.682-1.522,0.918-2.027c-2.785-2.773-7.16-1.291-10.085-3.764c2.339,0.179,4.677,0.504,7.011,0.673
			c1.277-1.59,2.687-3.073,4.137-4.503c-1.387-2.648-3.359-5.323-6.261-6.359c-3.533-0.215-5.364,3.545-8.151,5.091
			c2.59-5.176,7.277-10.487,5.016-16.712C-500.113,156.524-505.222,156.799-505.458,153.084 M-504.728,157.554
			c1.407,2.05,2.952,4.229,2.899,6.842c0.371,4.192-2.304,7.68-4.302,11.108C-504.497,169.632-505.188,163.54-504.728,157.554
			 M-595.459,175.106c-1.738-5.387,1.719-11.478,7.233-12.705c3.818-1.378,6.508,4.503,3.808,6.998
			c-2.346,2.645-6.261,2.156-9.419,2.794c1.514,2.954,3.305,5.762,4.96,8.638C-591.649,179.788-594.925,178.41-595.459,175.106
			 M-429.82,169.408c-2.709-2.471-0.064-8.352,3.767-7.021c5.542,1.217,9.016,7.332,7.259,12.741
			c-0.536,3.281-3.789,4.654-6.531,5.721c1.62-2.915,3.4-5.721,4.906-8.696C-423.577,171.54-427.472,172.053-429.82,169.408
			 M-589.195,174.904c4.394-0.298,7.66-3.139,9.365-7.062c3.673,4.769-0.553,10.751-5.525,12.224
			C-586.805,178.479-587.958,176.662-589.195,174.904 M-435.795,172.941c-0.796-1.812,1.046-3.359,1.556-5.016
			c1.478,3.995,4.849,6.615,9.103,6.947c-1.156,1.762-2.295,3.529-3.458,5.314C-431.834,178.84-435.079,176.634-435.795,172.941
			 M-511.742,175.266c1.899,1.071,3.437,2.986,5.629,3.391c2.256-0.265,4.444-0.883,6.65-1.323
			c-1.826,0.984-3.639,1.954-5.419,3.021c1.657,2.87,3.84,5.345,6.046,7.799c-2.325-1.643-4.449-3.52-6.494-5.483
			c-1.153,2.89-1.835,5.929-2.529,8.95c-0.323-3-0.117-6.016,0.478-8.959c-1.79,0.586-3.572,1.172-5.364,1.707
			c2.1-1.391,4.288-2.613,6.467-3.886C-508.296,178.968-510.227,177.302-511.742,175.266L-511.742,175.266z"/>
	</g>
	<rect id="rect250" x="-461.47" y="169.76" fill="#2C276B" width="1.657" height="2.394"/>
	<path id="path252" fill="#F6C315" d="M-545.357,169.266c0.33-0.476,2.97,1.19,2.73,2.586c1.418,3.059-4.558,5.883-5.019,2.258
		c1.429-1.22-1.634-5.13,1.031-4.691C-548.883,170.945-545.185,170.433-545.357,169.266 M-552.434,169.714
		c2.296-1.556,5.378,2.384,3.32,4.435c-0.673,0.929-3.44,1.78-3.382-0.041c-0.09-1.012-0.783-1.684-1.584-2.22
		c-0.572-0.874,0.673-1.684,1.361-2.023C-552.537,171.339-550.18,169.38-552.434,169.714 M-540.568,171.298
		c0.946-1.574,4.105,1.012,3.068,2.7c0.34,2.405-3.291,3.284-4.525,1.421c0.635-1.268,0.179-3.226,1.051-4.123
		C-541.646,173.71-537.151,170.442-540.568,171.298 M-557.533,172.186c3.593-1.945,5.826,4.49,2.287,5.378
		C-558.679,179.266-560.72,173.275-557.533,172.186 M-557.154,172.579c-0.83-0.06-2.03,1.826-0.653,1.24
		C-556.643,172.593-552.718,172.286-557.154,172.579 M-563.235,173.71c0.858-0.156,3.979-0.634,3.132,1.286
		c-0.795,1.643,2.085,3.291-0.106,4.416C-564.23,181.998-566.838,175.266-563.235,173.71 M-562.871,174.099
		c-0.83,0.25-1.478,0.84-1.279,1.78C-563.518,175.33-560.528,173.504-562.871,174.099 M-549.135,175.682
		c2.26-0.581,3.058,3.474,1.109,4.503c-1.675,1.945-5.581-0.004-4.872-2.535C-552.727,175.769-550.3,176.671-549.135,175.682
		 M-543.452,176.048c1.354-0.048,4.597,1.497,3.283,3.263c-0.546,2.778-4.856,2.892-5.612,0.243
		C-546.92,177.412-544.816,176.739-543.452,176.048 M-554.527,178.675c1.288,1.08,4.295,4.792-0.026,4.036
		C-554.698,180.982-558.609,178.236-554.527,178.675 M-564.837,184.959c-3.15,0.256-3.818-5.021-0.764-5.295
		c-0.447,0.485-0.905,0.961-1.286,1.501c0.995-0.375,1.928-0.879,2.853-1.396C-560.95,180.209-561.923,185.344-564.837,184.959
		 M-559.03,180.231c1.78-0.819,3.376,1.712,2.903,3.27c0.307,3.208-6.858,4.028-5.15-0.162
		C-562.006,181.307-560.284,180.877-559.03,180.231 M-546.524,180.63c2.115,0.455,1.644,3.986-0.382,4.865
		c-2.5,1.574-2.193-1.892-3.07-3.16C-548.756,181.911-547.459,181.609-546.524,180.63 M-540.434,181.742
		c2.113-0.471,1.201,4.714-0.626,4.128c-1.08-0.975-4.029-0.439-3.04-2.435C-544.143,181.536-541.601,182.556-540.434,181.742
		 M-550.949,182.881c1.983,1.719,0.129,5.613-2.538,4.792c-1.209,0.018-1.992-1.551-1.881-2.641
		C-555.016,183.019-552.259,183.993-550.949,182.881 M-546.126,186.314c2.017-1.048,1.254,2.838-0.029,3.359
		c-1.804,1.199-2.735-1.583-3.601-2.673C-548.479,187.138-547.262,186.845-546.126,186.314 M-544.393,186.122
		c0.373,0.929,0.975,0.453,1.575,0.037c1.322,0.526,1.668,2.009,1.832,3.286c-1.308,0.142-2.446,0.993-3.788,0.888
		C-544.102,188.987-543.832,187.568-544.393,186.122 M-557.142,186.689c2.265-0.856,1.907,3.542-0.007,3.769
		c-2.339,1.629-5.764-0.819-4.234-3.52C-559.96,186.886-558.444,187.44-557.142,186.689 M-550.728,188.245
		c3.299,0.773,1.364,6.522-1.967,5.492c-2.095-0.403-3.165-3.396-1.436-4.819C-552.966,188.863-551.844,188.547-550.728,188.245
		 M-542.372,190.744c3.66-1.218,4.939,3.799,2.064,5.139c-2.303,1.03-1.026-2.499-2.16-3.664
		C-542.714,191.728-543.052,191.055-542.372,190.744 M-546.907,191.197c2.585-0.568,5.256,3.044,3.41,5.314
		c-1.657,1.638-6.126,1.927-5.579-1.588C-549.299,193.485-548.38,191.549-546.907,191.197 M-555.296,193.774
		c1.807-0.032,3.157,1.689,5.151,0.819c1.167,2.176-1.2,5.231-3.689,4.069C-556.109,198.241-555.987,195.495-555.296,193.774
		 M-548.995,198.021c1.249,0.925,4.46,0.362,3.45,2.87c-1.444,1.799-3.944,1.739-5.631,0.385
		C-552.013,199.394-550.002,198.9-548.995,198.021 M-543.895,197.952c2.905-1.483,5.942,2.059,3.632,4.444
		c-1.082,2.082-5.891,1.112-4.515-1.442C-544.357,199.975-544.695,198.73-543.895,197.952"/>
	<path id="path254" fill="#F6C315" d="M-469.68,169.508c1.286-0.471,2.616-0.096,3.634,0.709c-1.007,1.675,0.275,4.055-1.618,5.19
		C-471.822,177.334-473.099,170.804-469.68,169.508 M-469.33,169.916c-0.609,0.535-1.51,0.897-1.707,1.757
		C-469.994,171.193-466.376,169.229-469.33,169.916 M-463.98,169.527c1.657-0.668,3.501,0.599,4.036,2.146
		c-1.041,1.062-1.709,2.293-1.995,3.767C-465.458,176.538-467.422,170.534-463.98,169.527 M-463.63,169.916
		c-0.643,0.485-1.677,0.792-1.705,1.744C-464.216,171.129-460.596,169.238-463.63,169.916 M-475.412,171.385
		c3.954-1.876,4.558,6.883,0.119,4.623C-477.614,175.357-477.401,172.245-475.412,171.385 M-475.023,171.719
		c-0.352,0.156-1.076,0.407-0.828,0.929C-475.271,173.014-473.785,171.595-475.023,171.719 M-458.694,172.534
		c1.867-0.673,4.174,1.286,3.558,3.204c-0.341,2.27-4.59,3.087-5.355,0.634C-461.094,174.945-460.216,172.996-458.694,172.534
		 M-454.035,176.479c0.613-0.49-0.572-2.979,0.989-2.526c-1.218,1.726,0.284,1.218,0.998,0.082c1.817-0.485,3.281,1.661,2.741,3.345
		c-0.172,2.371-3.625,3.602-5.247,1.817C-455.687,178.428-454.333,177.334-454.035,176.479 M-465.948,175.902
		c1.579,0.659,4.742-0.252,4.659,2.105c0.659,3.057-4.252,4.137-5.533,1.666C-467.66,178.401-466.996,176.785-465.948,175.902
		 M-471.582,176.387c2.018-0.297,5.094,1.84,2.522,4.032c-1.492,3.181-5.822,0.135-4.934-2.581
		C-473.161,177.403-472.312,176.991-471.582,176.387 M-459.822,178.959c0.84,0,1.657,0.252,2.492,0.375
		c-1.188,1.613-2.156,5.263-4.503,2.915C-461.483,181.078-460.106,180.323-459.822,178.959 M-449.955,179.755
		c2.462-0.796,4.94,2.242,3.183,4.343c-1.213,1.954-4.009,1.291-5.142-0.38C-452.483,182.103-451.504,180.291-449.955,179.755
		 M-456.438,180.103c4.471-1.034,5.307,7.657,0.385,6.284C-459.074,185.403-458.827,181.668-456.438,180.103 M-467.827,180.891
		c1.167,0.151,2.174,1.785,3.698,1.524c-0.462,1.259-0.751,2.92-2.009,3.593C-468.694,186.254-469.843,182.25-467.827,180.891
		 M-474.305,181.582c1.483-0.105,2.407,1.725,4.069,1.226c1.282,2.256-3.345,4.064-4.183,1.799
		C-475.124,183.687-474.554,182.552-474.305,181.582 M-463.266,183.133c1.666,0.563,4.394-0.004,4.826,2.252
		c0.183,2.069-2.977,3.414-4.556,2.27C-464.392,186.497-464.328,184.511-463.266,183.133 M-471.25,186.218
		c2.632-0.998,0.561,2.902,2.117,4.059c-1.281,0.421-4.94-0.02-4.018-2.158C-472.827,187.247-472.129,186.538-471.25,186.218
		 M-468.609,186.543c1.364,0.087,2.881,0,4.08,0.732c-0.97,1.192-1.757,4.101-3.673,2.531
		C-469.042,189.083-469.701,187.27-468.609,186.543 M-457.655,186.57c1.634,0.851,3.524,0.545,5.3,0.737
		c1.098,3.222-3.016,5.222-5.24,3.277C-458.721,189.545-458.641,187.687-457.655,186.57 M-463.655,188.465
		c1.231-0.069,2.325,1.011,3.611,0.403c2.348,1.712-0.673,6.549-3.27,4.778C-466.065,192.964-465.509,189.714-463.655,188.465
		 M-474.3,191.101c0.929,0.261,2.444-0.531,3.261,0.357c-0.783,1.67-1.416,3.442-1.124,5.309
		C-475.211,196.849-476.623,192.996-474.3,191.101 M-473.902,191.536c-0.446,0.192-1.041,0.728-0.792,1.263
		C-474.154,192.996-473.209,191.797-473.902,191.536 M-468.946,191.531c2.522-1.089,4.847,2.032,3.563,4.174
		c0.197,2.586-3.952,2.938-5.096,0.938C-471.683,194.932-470.987,192.19-468.946,191.531 M-459.818,194.25
		c1.973-0.609,2.121,2.627,1.085,3.73c-1.32,2.302-6.414,1.043-5.416-1.996C-464.163,193.888-461.033,195.435-459.818,194.25
		 M-473.284,198.63c3.977-4.064,6.197,6.238,1.162,4.979c-2.631,0.76-3.263-3.625-1.922-4.485c-0.21,2.147,1.849-0.444,2.728-0.879
		C-471.98,198.337-472.63,198.478-473.284,198.63 M-465.518,198.437c1.423-0.504,3.524,2.018,2.059,3.181
		c-1.32,1.364-4.176,1.185-4.739-0.812C-469.58,198.273-466.708,199.161-465.518,198.437"/>
</g>
<g>
	<path d="M-377.138,114.792c1.032,0.435,2.498,0.868,4.072,0.868c2.606,0,3.909-1.574,3.909-3.312c0-1.683-1.032-3.42-1.792-4.995
		l-11.347-23.888h9.393l8.741,20.359l8.578-20.359h9.066l-13.03,28.448c-3.583,7.872-6.624,10.913-12.867,10.913
		c-2.063,0-3.909-0.543-4.723-0.869V114.792z"/>
	<path d="M-336.475,122.122h-10.478l15.473-22.856l-14.062-15.799h10.207l13.41,15.799V83.466h8.144v15.799l13.41-15.799h10.207
		l-14.061,15.799l15.473,22.856h-10.532l-10.315-16.83l-4.18,4.724v12.106h-8.144v-12.106l-4.181-4.724L-336.475,122.122z"/>
	<path d="M-258.569,90.687h-18.459v31.435h-8.469V83.466h26.928V90.687z"/>
	<path d="M-217.906,102.848c0,12.053-7.655,20.196-19.002,20.196c-11.455,0-19.11-8.089-19.11-20.196
		c0-12.27,7.601-20.305,19.165-20.305C-225.561,82.543-217.906,90.742-217.906,102.848z M-247.44,102.686
		c0,8.306,4.018,13.301,10.586,13.356c6.406,0,10.37-5.104,10.37-13.356c0-8.144-4.018-13.193-10.478-13.193
		C-243.368,89.493-247.44,94.65-247.44,102.686z"/>
	<path d="M-195.375,83.466c8.361,0,14.17,3.909,14.17,12.433c0,8.415-5.972,12.324-13.736,12.324h-8.687v13.898h-8.415V83.466
		H-195.375z M-203.628,101.545h7.546c3.8,0,6.624-1.249,6.624-5.538c0-4.126-2.823-5.592-6.569-5.592h-7.601V101.545z"/>
	<path d="M-139.457,102.848c0,12.053-7.655,20.196-19.002,20.196c-11.455,0-19.11-8.089-19.11-20.196
		c0-12.27,7.601-20.305,19.165-20.305C-147.112,82.543-139.457,90.742-139.457,102.848z M-168.991,102.686
		c0,8.306,4.018,13.301,10.586,13.356c6.406,0,10.37-5.104,10.37-13.356c0-8.144-4.018-13.193-10.478-13.193
		C-164.919,89.493-168.991,94.65-168.991,102.686z"/>
	<path d="M-105.633,132.058v-9.936h-24.54v9.936h-8.198v-17.157h2.932c4.56-6.081,6.189-14.17,6.189-25.571v-5.864h27.525v31.435
		h4.289v17.157H-105.633z M-110.194,90.361h-10.641v0.652c0,10.586-1.737,17.645-5.158,23.888h15.799V90.361z"/>
	<path d="M-75.611,123.044c-11.238,0-18.676-8.089-18.676-20.305c0-11.238,7.167-20.196,19.001-20.196
		c9.284,0,16.07,5.864,16.722,13.844h-8.306c-0.869-4.235-4.018-6.732-8.578-6.732c-7.438,0-10.315,6.678-10.315,13.138
		c0,7.981,3.963,13.084,10.207,13.084c5.103,0,8.144-3.041,8.849-8.687h8.415C-59.161,116.638-65.024,123.044-75.611,123.044z"/>
	<path d="M-35.599,122.122h-17.102V83.466h8.415v13.898h9.121c7.764,0,13.736,3.909,13.736,12.324
		C-21.429,118.212-27.239,122.122-35.599,122.122z M-36.305,104.043h-7.98v11.129h8.035c4.072,0,6.569-1.466,6.569-5.592
		C-29.682,105.509-32.505,104.043-36.305,104.043z"/>
	<path d="M2.838,98.722l16.559,23.399H8.756l-11.727-17.373l-4.94,4.886v12.487h-8.361V83.466h8.361v16.07L7.29,83.466h10.695
		L2.838,98.722z"/>
	<path d="M56.748,122.122h-8.904l-3.04-8.632H30.417l-3.149,8.632h-8.687l14.713-38.709h8.741L56.748,122.122z M37.637,92.913
		L32.48,107.3h10.261L37.637,92.913z"/>
	<path d="M-348.156,176.412h-2.941v-19.454c0-3.394,0.136-6.741,0.362-10.135c-0.633,1.946-1.357,3.937-2.126,5.837l-9.5,23.752
		h-2.76l-9.637-23.48c-0.814-1.945-1.493-3.937-2.126-5.927c0.226,3.303,0.362,6.56,0.362,9.862v19.545h-2.94v-32.213h4.162
		l9.365,22.983c0.814,1.99,1.493,4.026,2.217,6.063c0.724-1.99,1.357-4.026,2.126-5.972l9.229-23.074h4.208V176.412z"/>
	<path d="M-338.43,176.412h-3.076v-32.213h3.076V176.412z"/>
	<path d="M-318.433,177.136c-8.913,0-14.749-6.605-14.749-16.784c0-9.049,5.248-16.921,15.02-16.921
		c6.198,0,12.442,3.891,13.166,10.451h-3.076c-0.996-4.796-4.932-7.782-10.18-7.782c-7.148,0-11.898,5.7-11.898,14.252
		c0,8.551,4.66,14.16,11.808,14.16c6.47,0,10.044-4.434,10.722-10.451h3.031C-305.268,172.023-310.697,177.136-318.433,177.136z"/>
	<path d="M-285.498,176.412h-14.342v-32.213h3.077v13.573h11.265c5.927,0,9.591,3.619,9.591,9.319
		C-275.906,172.793-279.571,176.412-285.498,176.412z M-286.176,160.396h-10.586v13.392h10.586c4.524,0,7.194-2.533,7.194-6.696
		C-278.982,162.93-281.652,160.396-286.176,160.396z"/>
	<path d="M-260.027,157.365l15.247,19.047h-3.936l-13.482-16.966l-6.153,5.61v11.355h-3.031v-32.213h3.031v17.328l18.775-17.328
		h4.072L-260.027,157.365z"/>
	<path d="M-216.414,176.412h-3.394l-3.891-10.134h-14.749l-3.936,10.134h-3.303l13.03-32.303h3.393L-216.414,176.412z
		 M-230.982,147.005l-6.515,16.784h12.849L-230.982,147.005z"/>
	<path d="M-187.007,144.199c6.018,0,10.134,3.031,10.134,9.049c0,6.289-4.117,9.41-10.225,9.41h-10.632v13.754h-3.077v-32.213
		H-187.007z M-197.729,160.08h9.772c4.434,0,8.008-1.811,8.008-6.605c0-4.615-3.077-6.651-7.691-6.651h-10.089V160.08z"/>
	<path d="M-149.954,176.412h-3.394l-3.891-10.134h-14.749l-3.936,10.134h-3.303l13.03-32.303h3.393L-149.954,176.412z
		 M-164.522,147.005l-6.515,16.784h12.849L-164.522,147.005z"/>
	<path d="M-121.995,185.099v-8.687h-24.974v8.687h-3.077v-11.311h2.941c5.021-9.41,4.795-20.133,4.795-27.733v-1.855h19.997v29.589
		h3.393v11.311H-121.995z M-125.388,146.823h-13.844v0.589c0,7.193,0.045,17.599-4.615,26.376h18.459V146.823z"/>
	<path d="M-89.602,176.412h-3.394l-3.891-10.134h-14.749l-3.936,10.134h-3.303l13.03-32.303h3.393L-89.602,176.412z
		 M-104.17,147.005l-6.515,16.784h12.849L-104.17,147.005z"/>
</g>
<g>
	<path fill="#A5A5A5" d="M-362.341,211.743c0,5.105-3.127,8.531-7.749,8.531c-4.599,0-7.681-3.449-7.681-8.577
		c0-5.104,3.104-8.577,7.704-8.577C-365.491,203.12-362.341,206.615-362.341,211.743z M-376.207,211.651
		c0,4.393,2.438,7.267,6.14,7.267s6.163-2.874,6.163-7.197s-2.483-7.243-6.186-7.243
		C-373.746,204.478-376.207,207.374-376.207,211.651z"/>
	<path fill="#A5A5A5" d="M-352.127,217.906v1.978h-1.563v-1.978c-3.725,0-7.151-2.069-7.151-6.347c0-4.116,3.357-6.255,7.151-6.255
		v-1.793h1.563v1.793c3.794,0,7.152,2.139,7.152,6.255C-344.976,215.837-348.402,217.906-352.127,217.906z M-353.691,206.639
		c-3.196,0.161-5.611,1.518-5.611,4.921c0,3.38,2.483,4.806,5.611,5.036V206.639z M-352.127,206.639v9.957
		c3.127-0.23,5.611-1.656,5.611-5.036C-346.517,208.156-348.931,206.8-352.127,206.639z"/>
	<path fill="#A5A5A5" d="M-340.948,219.884h-1.564v-16.372h1.564V219.884z"/>
	<path fill="#A5A5A5" d="M-324.483,224.299v-4.415h-13.038v-16.372h1.563v15.038h9.75v-15.038h1.563v15.038h1.725v5.749H-324.483z"
		/>
	<path fill="#A5A5A5" d="M-319.237,219.884h-1.564v-16.372h1.564V219.884z"/>
	<path fill="#A5A5A5" d="M-315.81,203.512h1.563v14.693l9.29-14.693h2.023v16.372h-1.563V205.19l-9.29,14.693h-2.023V203.512z
		 M-311.763,199.51c0.138,1.173,1.012,1.886,2.369,1.886c1.311,0,2.208-0.689,2.438-1.886h0.896c-0.345,1.932-1.472,2.99-3.357,2.99
		c-1.909,0-3.012-1.059-3.242-2.99H-311.763z"/>
	<path fill="#A5A5A5" d="M-286.741,219.884h-1.563v-7.91h-9.773v7.91h-1.563v-16.372h1.563v7.128h9.773v-7.128h1.563V219.884z"/>
	<path fill="#A5A5A5" d="M-283.426,203.512h1.563v14.693l9.29-14.693h2.023v16.372h-1.563V205.19l-9.29,14.693h-2.023V203.512z"/>
	<path fill="#A5A5A5" d="M-267.234,203.512h1.563v14.693l9.29-14.693h2.023v16.372h-1.563V205.19l-9.29,14.693h-2.023V203.512z
		 M-263.187,199.51c0.138,1.173,1.012,1.886,2.369,1.886c1.311,0,2.208-0.689,2.438-1.886h0.897c-0.345,1.932-1.472,2.99-3.357,2.99
		c-1.909,0-3.012-1.059-3.242-2.99H-263.187z"/>
	<path fill="#A5A5A5" d="M-237.635,203.512c2.69,0,5.128,1.173,5.128,4.093c0,1.794-1.288,3.266-2.828,3.61
		c1.816,0.345,3.472,1.472,3.472,3.978c0,3.174-2.529,4.691-5.542,4.691h-7.243v-16.372H-237.635z M-243.131,210.755h5.197
		c1.863,0,3.886-0.667,3.886-2.943c0-2.575-2.208-2.967-4.3-2.967h-4.783V210.755z M-243.131,218.55h4.898
		c2.276,0,4.806-0.414,4.806-3.334c0-2.806-2.667-3.196-4.898-3.196h-4.806V218.55z"/>
	<path fill="#A5A5A5" d="M-217.948,204.845h-9.796v5.91h9.175v1.311h-9.175v6.484h9.888v1.334h-11.451v-16.372h11.359V204.845z"/>
	<path fill="#A5A5A5" d="M-207.92,219.884h-7.749v-16.372h11.336v1.333h-9.773v5.565h6.186c3.013,0,4.875,1.839,4.875,4.736
		S-204.907,219.884-207.92,219.884z M-208.265,211.743h-5.841v6.807h5.841c2.299,0,3.656-1.287,3.656-3.403
		C-204.608,213.031-205.965,211.743-208.265,211.743z"/>
	<path fill="#A5A5A5" d="M-194.832,214.273h-5.771v-1.403h5.771V214.273z"/>
	<path fill="#A5A5A5" d="M-185.081,220.252c-4.53,0-7.496-3.357-7.496-8.531c0-4.6,2.667-8.601,7.634-8.601
		c3.15,0,6.324,1.978,6.691,5.313h-1.563c-0.506-2.438-2.507-3.955-5.174-3.955c-3.633,0-6.048,2.896-6.048,7.243
		c0,4.346,2.369,7.197,6.001,7.197c3.289,0,5.105-2.254,5.45-5.312h1.541C-178.39,217.653-181.149,220.252-185.081,220.252z"/>
	<path fill="#A5A5A5" d="M-162.611,219.884h-1.725l-1.978-5.15h-7.497l-2,5.15h-1.679l6.623-16.418h1.725L-162.611,219.884z
		 M-170.016,204.937l-3.312,8.53h6.531L-170.016,204.937z"/>
	<path fill="#A5A5A5" d="M-161.137,203.512h1.563v14.693l9.29-14.693h2.023v16.372h-1.563V205.19l-9.29,14.693h-2.023V203.512z
		 M-157.09,199.51c0.138,1.173,1.012,1.886,2.369,1.886c1.311,0,2.208-0.689,2.438-1.886h0.897c-0.345,1.932-1.472,2.99-3.357,2.99
		c-1.909,0-3.012-1.059-3.242-2.99H-157.09z"/>
	<path fill="#A5A5A5" d="M-133.677,204.845h-5.749v15.039h-1.563v-15.039h-5.749v-1.333h13.062V204.845z"/>
</g>
</svg>
