<svg id="Laag_1" data-name="Laag 1" xmlns="http://www.w3.org/2000/svg" viewBox="0 0 1581.39 268.28"><defs><style>.cls-1{fill:#bf1731;}</style></defs><title>Weblogo horizontaal </title><path class="cls-1" d="M87.53,186.25h33.25c4,0,6,2.09,6,6.28v19.76c0,4.19-2.1,6.28-6,6.28H58.69c-3.95,0-6-2.09-6-6.28V60.67c0-4.18,2.09-6.28,6-6.28H81.25q6.27,0,6.28,6.28Z"/><path class="cls-1" d="M238.92,136.48c0,67.67-17.68,84.18-52.33,84.18-34.88,0-52.55-16.51-52.55-84.18s17.67-84.41,52.55-84.41C221.24,52.07,238.92,68.81,238.92,136.48Zm-35.58,0c0-44.18-4.42-53-16.75-53-12.55,0-17,8.84-17,53s4.42,53,17,53C198.92,189.5,203.34,180.67,203.34,136.48Z"/><path class="cls-1" d="M356.82,136.48c0,67.67-17.68,84.18-52.32,84.18-34.89,0-52.56-16.51-52.56-84.18s17.67-84.41,52.56-84.41C339.14,52.07,356.82,68.81,356.82,136.48Zm-35.58,0c0-44.18-4.42-53-16.74-53-12.56,0-17,8.84-17,53s4.42,53,17,53C316.82,189.5,321.24,180.67,321.24,136.48Z"/><path class="cls-1" d="M473.56,212.29c0,4.19-2.1,6.28-6.05,6.28H447.74c-4.65,0-6.74-1.4-8.37-5.35l-33.72-83v82.09q0,6.28-6.28,6.28H378c-4,0-6.05-2.09-6.05-6.28V60.67c0-4.18,2.1-6.28,6.05-6.28h19.77c4.65,0,6.74,1.4,8.37,5.35l33.72,82.79V60.67q0-6.27,6.28-6.28h21.39c3.95,0,6.05,2.1,6.05,6.28Z"/><path class="cls-1" d="M593.55,136.48c0,67.67-17.67,84.18-52.32,84.18-34.88,0-52.56-16.51-52.56-84.18s17.68-84.41,52.56-84.41C575.88,52.07,593.55,68.81,593.55,136.48Zm-35.58,0c0-44.18-4.42-53-16.74-53-12.56,0-17,8.84-17,53s4.42,53,17,53C553.55,189.5,558,180.67,558,136.48Z"/><path class="cls-1" d="M614.71,218.57c-4,0-6-2.09-6-6V60.67c0-4.18,2.09-6.28,6-6.28h36c39.76,0,54.64,13,54.64,59.54,0,45.81-14.88,59.06-54.64,59.06h-7.21v39.53c0,4-2.09,6-6.28,6Zm36-76.74c15.58,0,19.07-5.58,19.07-27.9S666.34,86,650.76,86h-7.21v55.81Z"/><path class="cls-1" d="M712.15,193.92a21.57,21.57,0,0,1,2.33-9.77L761,86.25H721.22c-4.18,0-6.28-2.09-6.28-6V60.67q0-6.27,6.28-6.28h71.63q6.27,0,6.27,6.28V79a25.21,25.21,0,0,1-2.32,9.77l-46.51,97.67h44.18c4.19,0,6.28,2.32,6.28,6.28v19.53q0,6.28-6.28,6.28h-76q-6.27,0-6.28-6.28Z"/><path class="cls-1" d="M881.45,54.39c6.27,0,8.13,2.56,8.83,6.75l28.61,150.69c.69,3.95-1.17,6.74-5.35,6.74h-23c-4.42,0-6-2.09-6.75-6L878.89,186H849.12l-4.88,26.51c-.7,4-2.33,6-6.75,6h-23c-4.18,0-6-2.79-5.35-6.74L837.73,61.14c.7-4.19,2.79-6.75,8.83-6.75Zm-5.59,100.93-11.39-66h-.93l-11.16,66Z"/><path class="cls-1" d="M1031.67,212.29c0,4.19-2.09,6.28-6.05,6.28h-19.76c-4.65,0-6.75-1.4-8.37-5.35l-33.72-83v82.09q0,6.28-6.28,6.28H936.1c-4,0-6.05-2.09-6.05-6.28V60.67c0-4.18,2.09-6.28,6.05-6.28h19.76c4.65,0,6.74,1.4,8.37,5.35L998,142.53V60.67q0-6.27,6.28-6.28h21.39c4,0,6.05,2.1,6.05,6.28Z"/><path class="cls-1" d="M1054.93,218.57c-4,0-6-2.09-6-6.28V60.67c0-4.18,2.09-6.28,6-6.28h35.81c40.23,0,59.06,18.14,59.06,82.09,0,63.49-18.13,82.09-58.36,82.09ZM1083.76,86V186.94h7.68c16.27,0,23-9.3,23-50.46,0-41.62-7.44-50.46-23.72-50.46Z"/><path class="cls-1" d="M1444,5.8a2.26,2.26,0,0,1,2.56,2.56v9.19A2.23,2.23,0,0,1,1444,20H1336.35a2.23,2.23,0,0,1-2.56-2.46V8.36a2.26,2.26,0,0,1,2.56-2.56Z"/><path class="cls-1" d="M1444,252.42a2.26,2.26,0,0,1,2.56,2.56v9.19a2.23,2.23,0,0,1-2.56,2.46H1336.35a2.23,2.23,0,0,1-2.56-2.46V255a2.26,2.26,0,0,1,2.56-2.56Z"/><path class="cls-1" d="M1303.51,100.09c1.15-3.44,2.81-6.89,4.21-10.72a31.92,31.92,0,0,1,2.43-6.64c.76-4,1.27-6,3.19-9.19,1.53-5,2.3-4.86,4.47-9.84a5,5,0,0,0,0-1.4c4.21-6,1.79-16.85,8.94-20.56-.26,1.15,1.27,1.41,1.78,2.94,1.54.38,1.92,1.4,3.07,1.92.13.63-.13,1-.26,1.78a1.79,1.79,0,0,0,2.05-.51c.38,2,2.68,3.32,2.17,5.11.76,2.43-.77,5.11-1,7,.76,4-3.2,9.19-4.73,13.15-1.4,3.45-.89,1.41-2,4.47-.13,3.06-.77,2-.51,4.34-1,.64-.64,2.43-1.53,3.32-.9,5.11-3.07,8.68-4.86,12.64-2.17,3.45-3.06,7-5.1,10.6.76.76-.77,1.28-.13,2-1.79,3.19-2.3,7-3.32,10.34-1.41,3.58-4.09,6.13-6.38,8.56-.39.89.76.51.76,1.28l-9.32,2.17c-1.91.38-3.57-1.54-5.49-1.41-1.4.13-3.58-1.53-5-1.4-.64,0-2.94-1.79-3.45-2.56-1.78-2.93-2.17-5.49-2.81-9.44-.51-5.24-1-9.71-1.78-13.92-.9-3.7.12-8.56-.64-13.28-1.53-11-1.15-22.34-2.3-32.81-.25-2.81-.77-5.75,0-7.92,1.28-1.15,2.3-2.68,4.09-3.19s4.59-1.15,6.38-.51c3.06,1,8.17.89,8.94,3.7.38,1,.64,4.09,1,5.62l1.79,8.55c0,.64-.39,1.15-.13,1.66.38,2.94.13,4.85.64,7.54a70.64,70.64,0,0,1,1.66,7.78l1,7c.64,5.49,0,10.72.64,15.7C1303,103.16,1303.13,101.62,1303.51,100.09Z"/><path class="cls-1" d="M1358.53,48.38c-.25-.38-.5.13-1-.13.26-.89,1.92-.25,2.94-.5-.38.25-.77.89-1.66.89,1.28.89,2-.64,3.32-.51.38,0,.77.51,1.15.64,2.55.76,5.74,1.14,8,2.17-1.15,0-2.68-1-4.59-.39v-.12c-1.54.12-2.94-.64-4.85-.77a18.2,18.2,0,0,0,6.76,1.15c.38.13.13,1.15,1,.64.51-.13-.25-.39-.38-.51.89-.26,1.79.89,2.94.89a.13.13,0,0,0,.13-.13c3.44,1,7.14,2.68,9.19,5.75l1.4,2.42c.51,1,1.66,1.66,2,2.68.64.9.77,2,1.41,3.33a37.16,37.16,0,0,1,2.81,6.51c.38,2,1,4,1.28,5.74.89,3.83.12,6.13-.26,9.32-.51,1.92,0,4.09-.38,6a41.63,41.63,0,0,1-2.81,10.22c-2.17,6.76-5.88,12.51-8.81,17.49.89-2,2.42-4.72,3.32-7.28-2.3,3.45-3.7,7.41-6.13,10.22,0,.12,0,.12.13.12-2.94,3.58-8.56,6.64-14.43,7.41-3.83.77-6.39,2.55-10.47,2.17-5.36-.51-10.09-3.58-13.15-6.64-5-5.36-8-12-9.19-20.56-1-5.87.63-10.85,1.15-16.08a46.27,46.27,0,0,1,1.27-8.94,72.94,72.94,0,0,1,7.92-17.88A41.74,41.74,0,0,1,1344,56c2.55-3.06,4.6-5.74,7.79-7,.76-.64.89-1.91,1.4-2.42A11,11,0,0,0,1357,48c.26-.25-.51-.64.26-.25.13.12-.51.63-.38,1.14C1357.51,48.77,1357.77,48.38,1358.53,48.38Zm5.88,59.25a43.27,43.27,0,0,0,5.49-16.35l1-8.17a17.54,17.54,0,0,0-2.42-9.83c-2.3-4.21-5.11-7.66-9.58-9.07a21.37,21.37,0,0,0-1.66,4.6c-.26,1,.13,2.3-.26,3.58-.38,1.78-2.17,3.19-2.93,5.1-.64,1.28-.64,3.32-1,5.24-.52,1.4-1.54,2.81-1.92,4.34-.77,2.3-.64,5.62-.89,8.68-.39,1.53-.51,2.81-.9,4.22-.38,1.78,0,3.06-.12,4.72,0,2.17-.64,4.47-.26,6.38.13,2.94,1.4,5.37,3.06,7.92,2.81-.51,6-1.79,7.66-3.45S1362.75,110.18,1364.41,107.63Zm-10-59c.13-.13.38-.64,0-.64S1353.68,48.51,1354.45,48.64Zm1-.64a1,1,0,0,0-.64.89,1,1,0,0,0,.77-.64A.41.41,0,0,1,1355.47,48Zm7,83c.77,0,1-.38,1.66-.51-.63-.38.9-.64,1-1.28Zm4.34-80.56a.4.4,0,0,0,.26-.13A.45.45,0,0,0,1366.83,50.43Zm1.79,78.52a2.54,2.54,0,0,0,1.66-.9A1.45,1.45,0,0,0,1368.62,129Zm3.71-77.25c-.26,0-.52,0-.64-.12C1371.94,51.45,1372.33,51.58,1372.33,51.7Zm4.21,5.62c-1,0-2.17-.77-3.07-.38C1374.5,57.06,1375.64,57.58,1376.54,57.32Zm-1,66.9.12-.12A.12.12,0,0,1,1375.52,124.22Zm5.87-10.47c.77-.25,1.41-1.78,1.41-2.55C1382.41,112.09,1381.65,113,1381.39,113.75Z"/><path class="cls-1" d="M1446.38,71.62c.25,0-.13-.38,0-.64,1.66,3.19,1.15,6.13,1.91,10-.13.26.39-.51.39,0,0,1.28-.52,2.81.25,3.7-.38,1.92,0,5.37-.64,7.92.77-.13,1,.77,1.53,1.15-.51-2.68.64-5.11.77-7.66.38,2.42,0,5.23,0,7.53.51.51.38-.51,1-.38-.13.25-.25.89-.51,1.4,0,.26.13.51.13.9-.13,1.78-.9,3.57-1.28,5.61-.13.51.13.9,0,1.28,0,1-1.27,2.3-1.79,3.58-1.4,2.55-2.42,5.23-3.83,7.66-.76,1.27-1.66,2.17-2.29,3.44a8.23,8.23,0,0,0-1.41,2.81,11.3,11.3,0,0,0-1.53,1c-2.17,2.3-4.21,5.11-7,6-1.66,1.27-5.75,2.8-7.28,2.55-.26.25-.51.25-.64.51-4,.64-5.62,2.17-8.55,2.3-11.11,1.53-17.62-9.07-21.45-18a29.09,29.09,0,0,1-2.43-10.46c-1.4-17.75,4.47-32.95,12.39-43-.64-1.41.12-2.05,1.66-2.05,2.93-3.7,6-7.4,11-9.44.51.63,1,1,1.78.51a1.33,1.33,0,0,0,.26.76c1.28-.25,1.79.9,2.68.39,1.28,1.4,3.32,1.78,4.21,3.44,2.3.39,3.7,1.15,5.49.77a24.18,24.18,0,0,0,4.22,2.68,2.14,2.14,0,0,1,.13.89c.38-.38.38-.63.89-.25,1,.89,4.21,2.81,4.72,4.34.26,0,.64,0,.64-.26.64,1.79,2.55,2,2.68,3.83-.38-.25-.51-.76-1-.76a3.08,3.08,0,0,0,2,1.91,7.6,7.6,0,0,0,.77,2.18c-1.28-1.15-1.79-2.56-3.06-3.58C1444.33,68.05,1445.74,69.32,1446.38,71.62Zm-23.75,41.24c.38-.13,1-.13,1.4-.51a28.54,28.54,0,0,0,3.58-6.26A44.19,44.19,0,0,0,1433.1,82c-.38-6.38-3.71-9.83-7.79-13-2.17,3.45-5.11,6.89-7.53,10.21-.51,1.28-1.28,2.81-2,4.47a21.67,21.67,0,0,0-1.14,2.43c-2.18,4.47-3.33,9.83-3.58,16.72-.13,4.73.89,10.22,3.7,14.43,2.17,0,3.45-.89,4.85-1.15C1420.59,115.41,1421.22,114,1422.63,112.86Z"/><path class="cls-1" d="M1467.82,130.61c-.38.38-.64-.13-1.14,0-.13.25-.26.76-.77.76a13.64,13.64,0,0,1-3.32.77c-1.92.38-3.45,1.66-5.24,1.79-1.4.25-2.68,0-3.83.51-3.7-1.53-2.68-5-2.55-8.56.13-1.15,0-2.55.13-4.21,0-3.06.51-6.38.76-9.7,1.15-9.58,3.2-20,4.86-30.14,1-5.61,1.14-10.21,2.29-16.21a14.24,14.24,0,0,0,1-4.6c.38-1.91.63-4.59,2-6.13,1.79-1.53,9.32-.25,11.87-.38,12.51-.38,18.64.38,26.43,5.36.64,1.41,3.58,2.43,5.87,10.6.77,1.92.52,3.07.77,5.36a21,21,0,0,1-.77,5c-1.4,5.24-4.59,6-7.14,9.32-.9,1.41-1.54,1.41-2.43,2.3a12.91,12.91,0,0,1-5.23,3.32c-1.28,0-2,1-2.69,1.66-2.17,1.28.26,1.92-4.08,3.45a39,39,0,0,0,3.57,6.77c2.94,3.83,3.32,5.61,6.64,9.44a29.76,29.76,0,0,1,4.6,5c1.91,2.68,4.59,5.49,3.83,8.43l-.64.38a1.57,1.57,0,0,1-1.66-.25c-.13.25.38.89,0,1.15s-1.79-1.66-2.43-1.41c-.38.13.13,2.3-.25,2.43a2.07,2.07,0,0,1-1.15.13,2.44,2.44,0,0,0-.13.89c-.13.25-1.28-.38-1.4-.13-.26.9-1,1.53-.77,1.66-.38-.13-.64-.76-.76-.76-.39.51-.26,1.78-.64,1.4-5.62-1-9.32-6.89-12.51-10.72-4.73-5.62-7-7.92-9.84-15.33C1469.36,116.31,1469.48,124.86,1467.82,130.61Zm23-60.52a18.21,18.21,0,0,0-3.71-2.94,25.15,25.15,0,0,1-2.93-.89,20.23,20.23,0,0,0-7.92.25c0,2.17.77,3.32.64,5.62.13,1.79-1,2.55-1.15,4.47,0,1.53.26,3.19.13,4.21-.51,3.07-1.66,4.6-1.41,7.28h.26c3.32-2.68,9.19-6.26,12.26-10C1489,75.45,1491.45,74.05,1490.81,70.09Z"/><path class="cls-1" d="M1253.27,143.12l3.06-.13c1.79-.25,2.17-.76,3.83-.76a39.07,39.07,0,0,0,5.49-.52c4-.12,6.51.9,8.43,3.33-.38,1,.64,1.4.89,2.55-.51.64-1.79,2,.26,2.55-.64,1.92.89,5-.51,6.51a12.08,12.08,0,0,1-5.24,1.41,26.62,26.62,0,0,0-5.49,1.53,9.36,9.36,0,0,0-2.81,1c-1.4.51-3.32-.38-4.72.26s-1.66,1.53-3.58,1.78a26.67,26.67,0,0,1-3.44.26,6.82,6.82,0,0,1,0,2.3c-.13,1.66-.51,4.08-.64,5.49l-.38,2.17a26.79,26.79,0,0,0-.9,4.85c3.19.13,6.39-1.4,10.47-2,.77,0,0,.25.64.13,2.94-.64,6.77-2.69,9.7-1.54.9.51,1.28,2.3,2.56,2.17-.26.39-.13.9-.77,1.54.26.38.64.51.89.76-.12.39-.51.39-.89.77.89,1.66,2.17,3.45,1.41,4.47.38.63,1,.76,1.4,1-.13.38-.77.13-.77.51.77.13.26,1.28.64,1.53-1.91,2.3-5.1,2.17-9.32,2.81-2.68.64-3.7,1.66-6.51,2.3-3.19.76-6.64,1.15-9.45,2-.51.13-.76.51-1,.51a9.35,9.35,0,0,0-.51,3.71,9.63,9.63,0,0,1-.51,2.17c.13,1.14-.13,2.17,0,3.31a10.77,10.77,0,0,0-.51,2.94,29.91,29.91,0,0,0,7.53-1.28,11.2,11.2,0,0,0,3.19-1,21.52,21.52,0,0,1,5.49-1.27,54.66,54.66,0,0,0,7.28-1.41c.39.26-.25.39-.25.64,1.53.77,3.57.38,5.87.38.25.64.76.77.89,1.28s-.89,1.15-.76,2.17a15,15,0,0,1-4.6,1.92c0,.63,1,.51,1.15,1,0,2.55-1.41,4-1.28,5.74,1,0,.51.39,1.53.39-.25,1.27.52,1.78.64,2.8-.38.64-1.53.77-1.53,1.41-2.42,1.79-3.83,1.91-6.64,3.06a10.39,10.39,0,0,0-2.3.64,29.44,29.44,0,0,1-3.32.64l-2.17.64a24.59,24.59,0,0,1-3.06.38,16.44,16.44,0,0,0-4.21,1.41c-2.43,0-4.86.12-7.41.12-2,0-2.17,0-4.09-.12-2.55-.39-3.19-1-5-2.56-2-1.91-5.74-2.93-6.51-5.74a33.66,33.66,0,0,1-1.15-6.39,21.13,21.13,0,0,1,0-4.85c.13-.89.52-2.17.64-2.94a12,12,0,0,1-.12-3.06,5.11,5.11,0,0,1-.13-1.4c.13-2.17.13-4.22.38-6.13a18.86,18.86,0,0,0,.26-2.43c.12-1.28.25-5.49,1-6.76a41.28,41.28,0,0,1,1-13.16c.76-2.8,1.53-4.08,2.17-7,.38-1,.26-4.21.26-5.11.76-1.66.76-3.19,1.27-4.46a30.81,30.81,0,0,0,1.28-4.09c.25-1.79.64-.38,1.15-2.3.25-.76,0-1.53.38-2.3,0-.76,2-2.42,3.45-2.42a15,15,0,0,1,4.47.76c1.91.51,3.7,0,5,.51C1248.93,144.14,1251.1,143.5,1253.27,143.12Z"/><path class="cls-1" d="M1291.31,140a15.06,15.06,0,0,1,2,.36c.38.37.76.49.89,1,2.17.61,5,0,6.9,1.34,3.06,1.82,4.59,2.92,5.23,6.92.26.61-.38,1.22-.38,2.19.38,1.82.76,5.22.13,6.56a14.8,14.8,0,0,1-1.41,3.52c-1.15,3.16-.76,11.18-1.66,14-1,11.79-2.81,19.68-4.85,32.8,2.17.37,5.36-.85,7.15-1.09,4.47-.85,7.15-.61,10.72-2.07,1.41.25,2.81.25,3.58-.48,4.47,0,5.23,1,9.58,1.21-1.15,1.58-2.69,3.77-2.43,6.08-.26.85.38.72.51,1.21,0,.12-.25,1.09-.25,1.46s.5,1.58,0,1.94c.63.24,1.78-.73,2.17,0-.52,1.46-2.69,1.94-4.09,2.67-.51.25-1,.85-1.66,1.22-2.43,1-5.87.24-9.58,1.33-2.8.85-6.12,1.34-9.57,2.19-2.81.85-6.51,2.43-9.45,2.55-2.3.12-3.7.73-5.87.24-1-.12-1.41-.6-2.68-.85-1-.12-.9-2.06-2-2.67-3.83-1.46-.89-1.46-4.08-3.89-1.15-1.33-2.94-2.79-2.94-4.61a24.53,24.53,0,0,1-.64-6.92c.64-13.49,2-26.85,3.83-39.36a25,25,0,0,1,1.53-7.53c.52-2.31,1.92-3.16,1.92-5.47,1.15-4,.89-7.9,2.43-11.3-.13-.73.12-1.21-.26-1.7,1.4-1.46,2-1.94,3.32-3.16C1290.29,139.74,1290.68,139.37,1291.31,140Z"/><path class="cls-1" d="M1380.18,217.81c-.64,0-2.43-1.53-2.56-.89s1.92,1.91,1.92,2.42c-.64-.25-.26.26,0,.77-.77-.26-.64.51-.38.51-.51,0-1,.38-1.79.51a2,2,0,0,1,.13,1.28c-.39,0-1.54-.77-1.41-.26.77,2.94-3.57,2.81-8.42.13-.77-.77-2.81-1.53-4.22-2.68-1.91-2.43-5.62-5-7.53-6.26a2.75,2.75,0,0,0-1.28-1.78V211c-1.66-.89-2.42-2.68-4.08-3.31a2.93,2.93,0,0,0-1.41-2c-.13-.64-.25-1.27-1.15-1.53-2-2.94-2.93-5.11-5-8.55-2.55.51.9,1-2.17,2.17-.64,1.27-.64,3.7-.89,5.87-.26.13-.38.13-.77,0,0,.13.39.51.64.25-1,5.75-.64,11-1.66,15.71a4.09,4.09,0,0,1,.26-3.32c-.13-.13-.39-.13-.39-.51.39-.89-.12-1.79.51-1.92-1.15-.64-.51.51-1.4.51.13.52.38.64.77.9-1.28.25-.26,2.3-1.28,3.06.51.64,0,1.41,0,2.3-.38,0-.26-.38-.77-.51a6.94,6.94,0,0,1-2,1.28c0,.12.51,0,.89.12-.12.39-.76.52-.89.13,0,.51.13.51.13.9-.64-.13-.77,0-1.28-.39-.77.13.13,1.15-.64,1.53-.25,0-.13-.5-.38-.5s-.13.63,0,.63c-.64.26-1.66,0-1.92.9-.63-.13-1-.64-1.4-.64s.38.25.38.64c-.38.12-.51-.26-1-.39.9.51-2.93,1-3.83.77-.89,0-1.79-1.15-2.42-1.28.12-.51.76.26,1,0-1.15-.51-2.68-2.3-1.92-3.32a4.69,4.69,0,0,0-.25-1.78c-.51-3.2.89-5.62.64-9.2-.52-4.08,0-8.17.25-12.13.13-7.53,1.28-14.68,2.3-21.57.38-2.94-.13-6.39,1.15-9.2.89-7.91,3.44-14.55,4-22.47.12-1.66,1.66-1.66,1.78-3.45.77-.51.77-1.4,1.15-1.91,2.17-.38,1.79-1.28,3.45-1,4.34,1.15,8.94,3.06,11.11,7.4,4.47,5.88,1.91,13.54.51,18.26.38,1.41-.9,3.45-.77,5.36,4.73-3.32,8.17-7.66,12.64-11.1,2.81-4.09,7.92-6.39,9.83-11.37.26.13.26-.13.51-.13s-.12-.25-.12-.51c.25-.51,2,.26,1.53-.76,1-.13,1.79.13,2.17-.39,1,.39,1,1.28,2.3,1.66a2.77,2.77,0,0,0,1.78,2.17c-.63.9.77,1.41.77,2.18.64,0,.64.89,1.41.89-.77.76-.77,2.17-1.28,2.94.13.38.51,0,.76,0-.12.38-.25.51-.51.51,0,.25.13.12.39.12-.26.77-.39,1.66-1.41,1.79.51.38.51-.13.64,0-.64.9-1.15,2.56-2.68,3.06.13.13.25.13.25.52-1,0-.51,1.66-1.78,1.15.25.38.51.38.51.51a3.1,3.1,0,0,1-1.53.38c.25.64.63,0,.76.38,0,.64.64.39.13.9.89.25.77-.9.64-.9.64-.51.13.9.89.39.26-.64-.38-.39-.64-.64,1,0,1.54-.64,2.56-1.15-.51-.26-1,.64-1.66.64-.26-.77.64-.13.38-1h1.53c-.38-.38-.64-.63-1.15-.51a3.6,3.6,0,0,1,2.56.13c.25,0-.51-.38-.13-.64-1.28.51-1.28-.38-1.92-.13.64-.38.9-.89,1.41-1.14.13.51-.77.76-.26,1.14.13.39.9,0,.9-.38s-.77.51-.77-.12a3.39,3.39,0,0,1,1.15,0c-.26-.39-.38-.26-.38-.64,0,0,.12.38.38.25.26-.51-.26-.51-.38-.38,0-.38.38-.13.89-.26a2.29,2.29,0,0,0-.89-.63c.12-.39.64.38.89-.13-.13-.26-.89,0-.89-.13s.12-.26,0-.51c.64.25,1,.64,1.91.51.13.64-.25.64-.25.89.38.13.51-.12.89-.12-.13.38-.51.76-.38,1.15a1.79,1.79,0,0,0-1.41.12c.26.38.9-.12,1.15,0a1.07,1.07,0,0,0-.25.77c-.77.13-.77-.77-1.28-.39,0,.64.26.39.77.39.38.38-.51.25-.13.64-.64.25-.38-.39-.77-.26s.13.26,0,.64c-.38-.13-.38-.26-.89,0,.38.77.64-.13,1,.26-.13.38-.51.25-.51.51-.64-.26-.64-.13-1.41,0,.13.12-.25.25-.76,0-.13.76.89,0,.76.63a3.6,3.6,0,0,1-1.14-.25c0,.64.76.13.63.77h-.63c.89,1-.52-.26-.64.63,0,.39.89-.25.89.39h-1.28c0,.64.77-.39.77.38-.64.26-1.15-.13-1.79,0-.25.64,1,0,.77.64-.51-.26-.51.13-1,.13l1,.51c-.26.51-.38.13-1,.13.25.25.51.25.51.5-.77.13-.64.64-1.28.52a.7.7,0,0,0,.51.25c-.89.64-1.15,2.17-2.55,1.92,0,.25.38.12.51.25-.51.39-.51,1-1.15,1.15.25-.38.38-.38.25-.64-.38.13-.5.77-1,.77,0,.38.77.13.64-.13.38.64-.76,1-1.4,1,.25.26.25.13.51.13a8.22,8.22,0,0,1-3.19,4.47c-.9,3.83-4,5.87-6,8.94.26.63-.63.89.13,1.15.13.76-1,.89-.63,1.4,5.1,11.11,11.74,17.11,16.85,22.47h.51a18.46,18.46,0,0,0,2.94,3.32c.38,0,.38.26.51.38.12.64.25,0,0,.51a3,3,0,0,0,1.15,1.15c.12.39-.26.64-.13,1h-.13v.89C1380.43,217.3,1380.05,217.3,1380.18,217.81Zm-48.9,4.85c-.13.39.25.39.63.39C1332,222.54,1331.4,222.79,1331.28,222.66Zm3.7-6.38c.51.64,1.15,0,.64-.13C1335.62,216.66,1334.85,215.77,1335,216.28Zm1.15-1c-.26-.26-1-.26-1,.13C1335.36,215.39,1336.13,215.51,1336.13,215.26Zm.25,3.7c-.25-.13-.51.13-.63.38a5.78,5.78,0,0,1-.64-.12c0,.63.51.38,1,.38C1335.75,219.09,1336.64,219.6,1336.38,219Zm.26-18.13a.45.45,0,0,1-.38-.13c0,.13.12.26-.13.26s-.64,0-.26.13S1336.64,201,1336.64,200.83Zm1.91,9.58c-.12-.26-.38,0-.89,0C1337.66,211,1338.43,211,1338.55,210.41Zm.26-1.41h-.89c.38.64-.77.64.12.9-.12-.64.64.63,1,.12-.52-.12-.77-.25-.9-.89C1338.43,208.87,1338.94,209.77,1338.81,209ZM1360,159.08a28,28,0,0,0,6.26-6c-1.15-.64-1.4.77-2.17,1.15-.26,0-1.4,0-.77.51-.12-.38.39-.38.51,0-2,.25-3.19,2-3.95,2.94,0,.51.12.38,0,.76A29.84,29.84,0,0,0,1353,166h.39C1355.53,163.68,1357.71,161.25,1360,159.08Zm4.22,10.21c-.26,0-.64,0-.64.13.38-.13-.13.51.51.39C1364.09,169.68,1364.47,169.55,1364.22,169.29Zm.38,1.79c.51-.38,1,0,1.79-.38C1365.75,170.44,1364.73,170.44,1364.6,171.08Zm.9,4.34c-.26.13-.52.13-.64.51.25-.12,0,.64.25.51C1364.86,175.81,1365.5,176.19,1365.5,175.42Zm1.53-2.55c-.77-.13-1.41.51-1,.89A3.53,3.53,0,0,1,1367,172.87Zm.25-1.15c-.13-.51-.51-.26-.13-.77-.63-.25-.89.64-.51.77C1366.77,171.21,1367,171.72,1367.28,171.72Zm.77-2.81c-.51-.13-.9-.13-.77.51C1367.54,169.29,1367.92,169.17,1368.05,168.91Zm.13,3.45a.61.61,0,0,0-.64-.64c.38.26,0,.13,0,.64Zm.89-2.43a2.43,2.43,0,0,0,1.15-.38C1370,169.55,1369.07,169.55,1369.07,169.93Zm.89-3.7a.28.28,0,0,1,.26.25c-.13.13-.26,0-.26.26.26.26.13-.13.39-.26C1370.47,166.1,1370,165.85,1370,166.23Zm.9,2.68a.71.71,0,0,0,.76-.64C1371.11,168.27,1370.73,168.27,1370.86,168.91Zm.51-3.57h.64c-.13-.77.38-.77.63-1-.38-.38-.63,0-1.4-.25C1372,164.44,1371.37,164.57,1371.37,165.34Zm1.91-4.35c.51.13.77-.12.51-.51C1373.28,160.48,1373,160.61,1373.28,161Zm3.83-9.32c0,.39.39.39.77.51v-.51Zm1.92,7.15h.64v-.38C1379.54,158.57,1378.9,158.31,1379,158.82Z"/><path class="cls-1" d="M1411.71,198a33.45,33.45,0,0,0-3.83.26,7.12,7.12,0,0,1-1.66.13c-.89.12-1.53-.39-2.42-.52-1.66-.51-3.07.13-4.6.13a46.58,46.58,0,0,1-2.43,7.53,34,34,0,0,0-3.06,7c-.77,1.78-1,3.32-1.79,4.85,0,.25-.25.38-.25.64a12.33,12.33,0,0,1-1.54,2.55c-.63.38-2.68.26-3.06,1.66-.38-1-1.28.64-2.68.13-.51.25-1,.13-1.28.77-1.15-.26-1.4-.13-2.81-.52-.76-.63-1.4-.63-1.53-2a17,17,0,0,1,.77-3.7l-.26-1.79c.13-3.7,1.92-7.79,2.81-11.75,2.55-7,4.73-14,7.15-21.7,1.15-3.58,2.56-7.15,3.45-10.34.64-2.3,1-4.47,1.79-6.64,2-5.88,4.59-11.88,8.42-16.22-.38-.89,1.28-1.4.9-2.17a30.87,30.87,0,0,1,4.59-5.23,12.77,12.77,0,0,1,6.9-1.66c1,.38,1.79,1.15,2.94.76.25.64,1.27,1.28,1.78,1.79.77.38,1.53.89,2.43,1.28,1.27.76,3.06.76,5,1.27s5.61,2.94,6.51,5.24c.51,1,.25,3.83.64,5.75,1,7.27,1,14.68,1.27,22,0,3.95-.51,9.19-.12,13.66,0,1.66.38,3.45.25,4.47-.13.38-.64.51-.64,1-.51,1.91.77,5,.51,6.89-.89.38.26,2.17-.51,3.07,0,.76-.64-.39-1,.25,1,2.81-.13,5.11-1.28,7.53-1.14,1.92-1.14,3.45-2.17,5.24-1.4,2.43-2.8,3.32-5.74,4.85-1.92.89-6.89,2.68-9.19.38-.51-1-.26-2.29-.13-4.08-.13-7.92-.9-15.07-1.28-23.49C1413.63,197.38,1412.61,198,1411.71,198Zm-.25-33.58c-.26-.76-.13-1.91-.9-2.68-1.66,1.92-2.3,4.6-3.44,7a45,45,0,0,0-2,8.17l-.64,1.41c.13,1.66.39,2.55.13,3.32s-.64.64-.76,1.28c0,0-.13.63,0,.51-.26.25-.64.12-.9.38a9.67,9.67,0,0,0-1.4,3.32c4.21,0,7.79-1.53,12.51-1.41C1413.37,178.36,1412.73,170.44,1411.46,164.44Zm17.87,53.88c1.15-1.53,1-2.93,1.28-4.72C1429.2,215.13,1429.46,216.92,1429.33,218.32Zm1.41-37.15c-.13-.77.12-1.79-.26-1.92C1430.48,179.64,1429.46,180.4,1430.74,181.17Zm1.15-1.79c.76-.25,1.4-1.66.63-1.4C1432.52,178.49,1432,178.87,1431.89,179.38Zm.51,3.19s.25-1.91.51-3.06A23.25,23.25,0,0,0,1432.4,182.57Zm.63-5.87c.39-.26,1.15-.64.13-.77C1433.29,176.19,1433.16,176.44,1433,176.7Z"/><path class="cls-1" d="M1472,228.28c.25-8.81-.39-16.09-.13-23.24,0-.12-.39-.12-.64-.12a15.28,15.28,0,0,0-.13-4.09c-3.32,1-6.64,2.17-10.59,2.3a63.44,63.44,0,0,0-7,.13c.13.89,1.79.89,1,2-.76-.26-.89-1.15-1.53-1.53-1.4,1.66-1.66,4.21-2.93,6a26.74,26.74,0,0,1-1.28,6.51c-1.15.51-2.17,2.55-4,3.06a16,16,0,0,0-3.45.13c-1.4.13-3.19.77-4.85-.25-.25-.26-.13-.77-.13-1.15a.59.59,0,0,0-.63.64c-.52-3.71.63-7.54,1.66-10.73l3.57-10.85c-.51-.9.64-1.28.13-2.3.89-.13.64-1.4.89-2.17,0-.51.51-.51.64-.51,4-15.45,9.7-29.5,14.05-44.31,1.91-1.53,1.53-4,3.31-5.23,1-.77,2.43-.38,3.83-.9,1.66-.38,2.81-2.16,4.35-2.29,3.57-.64,7.4,2.42,9.06,4,3.19,2.42,5.36,5.36,7.66,9.32,1.28,2.68,2.68,4.46,3.19,7.66.39,2,.13,4.34.26,6.76.38,4.47,1.15,8.81.77,12.26a8.2,8.2,0,0,1,.25,1.53c0,4.34-.64,9.2,0,13.15,0,.26-.13.52.51.77,0,.25-.64.13-.51.64.64,9.19,1.28,18.51.89,27.32a6.63,6.63,0,0,0-1.53,2.94c-.64.25-.25-.51-.76-.39-.52,1-1.54,1.15-2,2.56-.63.13-.63-.51-1.4-.26-.77,1.92-4.34-.38-4.73,1.66-.25-.25-.38-.76-1.14-.51-.39,1-2.56.77-2.43,2.68A5.44,5.44,0,0,1,1472,228.28Zm-2.81-57.2a18.94,18.94,0,0,1-1.15-2.42c-.26-.77-.13-2-1.53-2.43a5.65,5.65,0,0,1-1.41,2.55c-1.4,6.51-4.47,12.26-5.74,18.9,3.57.13,7.53-.89,11-1.28C1469.81,181.17,1470.44,175.68,1469.17,171.08Zm3.95,51.07c.26,0,.39.13.52.13.12-2.43,1-4.6-.64-5.87C1472.36,217.56,1473.25,220.37,1473.12,222.15Z"/><path class="cls-1" d="M1495.72,223.81c-.12,0-.25.77-1.15,2.05a20.71,20.71,0,0,0-1.91-4.22c.13-1.53-1-5.87.51-6.76-.13-4,1-7.41.77-12,.51-.51-.26-1.78.63-2.42-.25-3.58,1.66-7.41,2.68-11.24.9-7.79-.63-16.34,1.79-25.15.9-3.83,2-7,2.94-10.85.25-1.54.89-2.94.77-4.73.51-2.3,1-5,1.78-6.13a4.44,4.44,0,0,0,1-1.53c.13-.76,0-1.4.64-1.79.64-.89,2-1.15,2.43-1.91,1.27-.13,3.06-.13,3.7-1.41.9.13,4.85-.25,5.36.13,8.69,1.15,17.5-.89,24,2.94,2.42,2.55,5,4.08,7.4,6.77,1.53,1.53,2.3,2.68,3.83,3.95a6.2,6.2,0,0,0,.77,2.94c.51,3.7,1.28,5.11,1.15,8.81.25,3.06-1.28,8.56-2.43,11-3.83,9.32-10.21,10.09-17.87,16,.25,1.4,2.93,4.34,3.7,5.87,1.66,2.05,2.17,3.45,3.7,5.75,1.28,1.53.77,1,2,2.43,1.79,1.91,4.09,3.95,6,6.12.89,2.68,3.19,3.07,4.21,4.09,1.28,1.15,1.92,2.17,1.79,4.85-.39.26.38,1,.13,1.53-.26.26-4.73.77-4.86,1.15s.51,1.15,0,1.53c-.12.64-1.15.9-.76,1.41.38,1.66.25,1.91-1.15,1.53-.26-.13-1.28-.64-1.54-.25-.5.25.52,1.78.26,2a5.13,5.13,0,0,1-1,.89,2.21,2.21,0,0,1-1.66-1,18.89,18.89,0,0,1-4.85-3.19,54.43,54.43,0,0,0-5-3.7c-.9-1.54-2.43-1.54-3.58-2.81a7.69,7.69,0,0,0-2.17-2.68,38.34,38.34,0,0,0-4.59-5.62c-1-.9-.51-1.41-1.15-2.68-1.41-1.79-1.53-5.88-3.58-5.49-1.27.12-2.3-2.05-3.06-4.09-1.15,4.21-3.45,13.53-4.21,18.13-.52,4.73.38,6.51-1.28,10.85-1.41,0-2.3,3.07-3.07,1.92-2.29,1.15-9.19-2.3-9.95-1.15-.64.51-.64,3.06-1.67,1l-.63-.89c.38-1-.13-4,.25-4.85-1.4-.51-1.4-3.2-.64-4.34-.25-2.3-1.66-.64.39-2.18-.77-.76-1.41-1.53,0-2.8-1.79-2.81.76.89-.39-1.92.26-.38.13-.89.39-1.28-.77-2.68.89.64,0-1.66.25-.25.25-2.29.76-2.55-1-1.4.51-1.53-.25-4.21-1.41,8-2,7-2.43,16.34A15.71,15.71,0,0,0,1495.72,223.81Zm.77,1.79c-.64-1.15-.64-1.79-.77-1.79A11.5,11.5,0,0,0,1496.49,225.6Zm2-27.83c-.13-.64,0-1.54-.13-1.92-.76.38,0,1.41-.63,2C1498.15,197.89,1498.28,197.77,1498.53,197.77Zm-.38-3.71s0,.64.38.64a1.23,1.23,0,0,0,.13-.51c.13-.13.26,0,.26-.13.25-1.78.89-3.19.76-5.36-1.28.64-.89,3.07-1.4,4.73C1498.15,193.55,1498.15,193.81,1498.15,194.06Zm1.4,13.79c-.51,0-.25.64-.25.9.13,0,.25-.13.38-.13V209c-.13,0-.25-.25-.38,0s.13.38,0,.51c.13,0,.25-.13.38,0,0,.64-.13,1.53-.89,1.53.25,2.56.64,5.37,0,7.41a1.91,1.91,0,0,1,.38.26c-.77.12-.64,1.4-.51,2.17a1.59,1.59,0,0,0,.77-1.15c.12-.51,0-1.41.12-1.92a.28.28,0,0,0,.26-.25c-.13,0-.26,0-.26-.13,0-3.45.39-6.77.51-10.09-.51-.13-.25.39-.25.64C1499.68,208,1499.68,207.73,1499.55,207.85Zm-.89,15.33c.38,0,.64-.77,0-.64Zm1.15-16.48c.64-.51.51-1.27-.13-1.27C1499,205.94,1499.68,206.07,1499.81,206.7Zm.25-2c.64-.64.39-2.3.77-3.19-.38,0-.89.13-.89.51C1500.58,202.36,1499.81,203.64,1500.06,204.66Zm.52-4.6c-.52-.12-.64.77-.52,1.15C1500.45,201.09,1500.58,200.45,1500.58,200.06Zm-.13,12.13c.38-.76.13-2.17.63-2.68,0-.13.39-.13.64-.25.13-.77-.51-1.15-.25-1.66-.26,0-.39.25-.77.13a6.42,6.42,0,0,0,.38-2.18c-1,1.66-.38,4.86-1,6.64Zm.63-13.28c0-.12,0-.12.13-.12v-.38c-.13,0-.51.38-.51-.13a.45.45,0,0,0-.25.13C1500.58,198.79,1501,198.79,1501.08,198.91Zm0-2.8c-.38.12-.5.25-.38.76C1501.21,196.74,1501,196.23,1501.08,196.11Zm0,5.36a19.27,19.27,0,0,0-.12,2.68c.12.26.38,0,.51,0,0-.51,0-.77.76-.77a3.09,3.09,0,0,0,.13-1c-.76,0-.38.77-.89.77,0-.38.38-.77.38-1.41-.25,0-.25.26-.38,0a.45.45,0,0,0-.13-.25Zm.52,10.09-.52,11.36h.52c.25-.13.12-.26.12-.38l.26-.26c-.13-.25,0-.77,0-1,0-1.66-.13-3.45,0-4.72a3.88,3.88,0,0,0,.25-1c0-.25-.25-.51-.12-.76-.26-4.09.76-8.68.76-13.28-.25,1.66-.64,2.94-.89,4.47C1501.72,207.73,1501.85,209.64,1501.6,211.56Zm-.26-16.48c.38-.76.77-2.29.26-2.93C1500.83,192.91,1501.47,193.94,1501.34,195.08Zm1.28-.12a10.8,10.8,0,0,0-.77,2.93C1502.49,197.13,1502.49,196.23,1502.62,195Zm0,5.1v-.51c-.13,0-.13.26-.51.26A.51.51,0,0,0,1502.62,200.06Zm.51.77c.25-2.17,1.28-4.09,1-6.51h-.26a20.54,20.54,0,0,0-1.14,6.64C1502.87,201,1503,200.83,1503.13,200.83Zm15.7-26.17c4.47-3.45,12.9-7.92,15.58-13.54,1.53-2,2.68-5.74,1-8.68-3.83-.77-6.64-3.57-11.36-1.79,1.4,5.62-.64,10.47-2.3,15.2a53.21,53.21,0,0,0-2.81,6.76c0,.64-.77,1.54-.25,2Z"/></svg>