<?xml version="1.0" encoding="utf-8"?>
<!-- Generator: Adobe Illustrator 25.2.1, SVG Export Plug-In . SVG Version: 6.00 Build 0)  -->
<svg version="1.1" id="Layer_1" xmlns="http://www.w3.org/2000/svg" xmlns:xlink="http://www.w3.org/1999/xlink" x="0px" y="0px"
	 viewBox="0 0 48 48" style="enable-background:new 0 0 48 48;" xml:space="preserve">
<style type="text/css">
	.st0{fill:#FEFEFE;}
	.st1{fill:#007CC1;}
	.st2{fill:#00AF9B;}
	.st3{fill:#813D7C;}
	.st4{fill:#803B7A;}
	.st5{fill:#813D7B;}
	.st6{fill:#83417D;}
	.st7{fill:#803C7A;}
	.st8{fill:#803C7B;}
	.st9{fill:#823F7D;}
	.st10{fill:#84427E;}
	.st11{fill:#02729A;}
	.st12{fill:#5F758C;}
	.st13{fill:#4D4182;}
	.st14{fill:#CBB2C8;}
	.st15{fill:#8B4D85;}
	.st16{fill:#CEB8CB;}
	.st17{fill:#B088AC;}
	.st18{fill:#9CCBE3;}
	.st19{fill:#BADCEB;}
	.st20{fill:#CCB2C9;}
	.st21{fill:#D3BFD1;}
	.st22{fill:#A577A1;}
	.st23{fill:#B794B4;}
	.st24{fill:#DAC7D9;}
	.st25{fill:#63ACD3;}
	.st26{fill:#BFA0BC;}
	.st27{fill:#CEB6CB;}
	.st28{fill:#BB9BB8;}
	.st29{fill:#9D6A98;}
	.st30{fill:#D8C6D6;}
	.st31{fill:#FDFCFD;}
	.st32{fill:#F4EFF3;}
	.st33{fill:#F1EAF0;}
	.st34{fill:#F6F2F6;}
	.st35{fill:#D4C0D3;}
	.st36{fill:#783071;}
</style>
<g>
	<g>
		<path class="st0" d="M1.02,24c0-7.49,0-14.97-0.01-22.46c0-0.42,0.06-0.53,0.51-0.53c14.97,0.02,29.95,0.02,44.92,0
			c0.48,0,0.55,0.12,0.55,0.56c-0.01,14.95-0.01,29.9,0,44.85c0,0.43-0.06,0.57-0.54,0.56c-14.97-0.02-29.95-0.02-44.92,0
			c-0.45,0-0.51-0.11-0.51-0.53C1.03,38.97,1.02,31.49,1.02,24z"/>
		<path class="st1" d="M34.51,24.7c-0.16,1.12-0.22,2.26-0.5,3.37c-0.09,0.36-0.26,0.66-0.63,0.68c-0.39,0.02-0.46-0.37-0.54-0.65
			c-0.26-0.86-0.01-1.73,0.07-2.58c0.18-1.94,0.42-3.87,0.69-5.79c0.16-1.12,0.16-2.23,0.13-3.36c-0.02-0.57-0.22-0.6-0.65-0.36
			c-0.36,0.2-0.7,0.45-1.12,0.54c-0.27-0.33-0.17-0.72-0.16-1.09c0.01-0.51-0.06-1-0.34-1.44c-0.02-0.07-0.03-0.13-0.01-0.2
			c0.67-0.54,1.49-0.82,2.24-1.22c0.4-0.21,0.47-0.42,0.3-0.84c-0.47-1.16-0.43-2.35-0.01-3.52c0.14-0.39,0.37-0.73,0.83-0.75
			c0.5-0.02,0.7,0.36,0.84,0.74c0.48,1.21,0.5,2.43-0.04,3.63c-0.17,0.37-0.1,0.5,0.24,0.66c0.87,0.42,1.7,0.89,2.56,1.32
			c0.27,0.13,0.46,0.31,0.51,0.59c0.1,0.61,0.13,1.23-0.02,1.83c-0.15,0.63-0.54,0.74-1.09,0.41c-0.45-0.27-0.92-0.5-1.38-0.75
			c-0.33-0.18-0.4-0.04-0.45,0.3c-0.28,2.06,0.22,4.07,0.41,6.1c0.16,1.73,0.46,3.44,0.53,5.18c0.01,0.32-0.03,0.64-0.21,0.91
			c-0.13,0.2-0.3,0.38-0.55,0.35c-0.22-0.03-0.33-0.22-0.42-0.43c-0.2-0.5-0.27-1.03-0.31-1.55c-0.07-0.82-0.21-1.64-0.31-2.45
			c-0.12-0.69-0.15-1.39-0.32-1.94c-0.03-0.21-0.14-0.08-0.07-0.13c0.03-0.02,0.05,0,0.05,0.04C34.68,23.09,34.74,23.91,34.51,24.7z
			"/>
		<path class="st1" d="M16.69,16.59c-0.52-0.11-0.94-0.44-1.41-0.68c-0.7-0.33-0.33,0.36-0.5,0.53c-0.14,3.05,0.55,6.02,0.81,9.03
			c0.07,0.76,0.13,1.52,0.11,2.28c-0.01,0.21,0,0.43-0.14,0.61c-0.14,0.18-0.25,0.39-0.53,0.4c-0.32,0.01-0.37-0.26-0.46-0.45
			c-0.3-0.67-0.25-1.41-0.39-2.11c-0.19-0.99-0.23-2.01-0.33-3.02c-0.14-0.17-0.15-0.38-0.16-0.64c-0.42,0.89-0.21,1.82-0.39,2.69
			c-0.02,0.08-0.01,0.17-0.06,0.23c-0.12,0.9-0.18,1.8-0.43,2.68c-0.09,0.31-0.19,0.58-0.58,0.54c-0.41-0.04-0.55-0.37-0.61-0.7
			c-0.1-0.63-0.11-1.3,0.05-1.9c0.23-0.85,0.25-1.72,0.32-2.57c0.22-2.35,0.8-4.68,0.56-7.07c-0.07-0.72-0.07-0.73-0.74-0.37
			c-0.41,0.21-0.8,0.45-1.21,0.66c-0.48,0.24-0.89,0.07-1.01-0.45c-0.13-0.6-0.15-1.22-0.02-1.83c0.06-0.29,0.25-0.46,0.51-0.59
			c0.86-0.43,1.7-0.91,2.57-1.33c0.34-0.16,0.36-0.28,0.23-0.62c-0.53-1.31-0.59-2.64,0.08-3.91c0.38-0.73,1.07-0.71,1.43,0.03
			c0.59,1.23,0.56,2.51,0.1,3.76c-0.15,0.41-0.12,0.57,0.28,0.77c0.78,0.4,1.61,0.7,2.31,1.24c0.02,0.07,0.02,0.13,0,0.2
			c-0.37,0.58-0.4,1.22-0.31,1.87C16.79,16.11,16.89,16.37,16.69,16.59z"/>
		<path class="st2" d="M31.45,13.81l-0.01,0.06c-0.64,0.52-0.63,1.22-0.56,1.94c0.03,0.26,0.15,0.54-0.09,0.77
			c-0.46-0.09-0.84-0.35-1.24-0.58c-0.34-0.19-0.48-0.25-0.6,0.27c-0.33,1.54,0.07,3.03,0.22,4.53c0.15,1.47,0.35,2.94,0.47,4.42
			c0.05,0.66,0.23,1.29,0.25,1.95c0.01,0.19,0.04,0.4-0.02,0.57c-0.13,0.37-0.12,0.92-0.68,0.93c-0.56,0.02-0.58-0.5-0.63-0.87
			c-0.25-1.8-0.47-3.6-0.72-5.49c-0.23,0.41-0.19,0.78-0.24,1.14c-0.14,1.13-0.25,2.27-0.4,3.4c-0.06,0.46-0.15,0.92-0.27,1.36
			c-0.07,0.23-0.21,0.48-0.51,0.48c-0.31,0-0.49-0.19-0.6-0.48c-0.14-0.37-0.17-0.75-0.12-1.13c0.31-2.75,0.63-5.51,0.96-8.26
			c0.11-0.87,0.07-1.73-0.02-2.6c-0.04-0.41-0.21-0.45-0.54-0.28c-0.42,0.22-0.82,0.51-1.3,0.62c-0.23-0.05-0.24-0.23-0.18-0.39
			c0.27-0.74,0.16-1.43-0.17-2.12c-0.05-0.09-0.06-0.2-0.03-0.31c0.72-0.5,1.53-0.83,2.32-1.22c0.34-0.17,0.4-0.36,0.24-0.68
			c-0.54-1.08-0.41-2.22-0.2-3.35c0.05-0.28,0.24-0.52,0.44-0.74c0.41-0.43,0.91-0.42,1.2,0.1c0.45,0.83,0.67,1.73,0.49,2.68
			c-0.09,0.49-0.11,1.01-0.4,1.46c-0.15,0.23-0.01,0.35,0.18,0.44C29.6,12.91,30.53,13.36,31.45,13.81z"/>
		<path class="st3" d="M17.08,13.89c-0.01-0.03-0.01-0.06,0-0.09c0.92-0.45,1.84-0.9,2.77-1.33c0.34-0.16,0.19-0.32,0.1-0.54
			c-0.57-1.3-0.57-2.61,0.02-3.91c0.15-0.32,0.37-0.56,0.78-0.54c0.4,0.03,0.59,0.28,0.72,0.61c0.52,1.23,0.5,2.48,0.05,3.71
			c-0.16,0.44-0.09,0.55,0.29,0.75c0.75,0.4,1.57,0.69,2.25,1.22c0.04,0.05,0.08,0.12,0.06,0.17c-0.4,0.77-0.37,1.57-0.21,2.38
			c0.02,0.13,0,0.25-0.1,0.35c-0.48-0.1-0.84-0.44-1.27-0.63c-0.56-0.26-0.64-0.21-0.72,0.39c-0.19,1.56,0.12,3.09,0.29,4.62
			c0.19,1.74,0.41,3.49,0.58,5.23c0.06,0.61,0.22,1.21,0.01,1.82c-0.1,0.3-0.2,0.57-0.56,0.59c-0.39,0.02-0.51-0.27-0.57-0.56
			c-0.16-0.85-0.35-1.7-0.4-2.56c-0.07-1.07-0.38-2.11-0.32-3.19c-0.05-0.01-0.11-0.01-0.16-0.02c-0.06,0.33-0.14,0.66-0.18,1
			c-0.18,1.47-0.35,2.94-0.54,4.41c-0.06,0.44-0.16,0.99-0.69,0.98c-0.49-0.02-0.59-0.57-0.62-0.98c-0.08-1.15,0.18-2.28,0.27-3.41
			c0.09-1.16,0.28-2.31,0.42-3.46c0.21-1.52,0.46-3.04,0.22-4.59c-0.04-0.28-0.04-0.6-0.47-0.37c-0.45,0.25-0.86,0.58-1.39,0.66
			c-0.22-0.21-0.2-0.47-0.1-0.7C17.96,15.06,17.59,14.46,17.08,13.89z"/>
		<path class="st4" d="M5.33,33.71c0.48-0.81,1.12-0.82,1.52,0.02c0.16,0.33,0.31,0.29,0.42,0.09c0.24-0.44,0.5-0.86,1.05-0.67
			c0.58,0.21,0.77,0.78,0.8,1.33c0.06,0.97,0.05,1.95,0.06,2.92c0.01,0.87,0,1.74,0,2.61c0,0.22,0.01,0.43-0.31,0.45
			c-0.33,0.01-0.38-0.17-0.38-0.44c0.01-1.36,0-2.71,0-4.07c0-0.36-0.01-0.72-0.12-1.07c-0.07-0.22-0.17-0.43-0.47-0.43
			c-0.29,0-0.46,0.18-0.5,0.4c-0.1,0.47-0.28,0.93-0.27,1.43c0.02,1.23,0.01,2.46,0,3.69c0,0.22,0.07,0.49-0.31,0.5
			c-0.39,0.01-0.38-0.23-0.38-0.51c0-1.31,0-2.63,0-3.94c0-0.38-0.01-0.77-0.12-1.13c-0.07-0.23-0.17-0.43-0.47-0.43
			c-0.29,0-0.45,0.19-0.5,0.41c-0.11,0.47-0.27,0.93-0.26,1.43c0.02,1.36,0,2.71-0.01,4.07c-0.64,0.17-0.7,0.13-0.7-0.5c0-2,0-4,0-6
			c0-0.21-0.1-0.48,0.21-0.59c0.35-0.02,0.29,0.26,0.37,0.47C5.11,34.09,5.24,33.94,5.33,33.71z"/>
		<path class="st5" d="M22.68,39.48c0.03,0.28-0.12,0.49-0.26,0.7c-0.38,0.54-0.86,0.56-1.31,0.06c-0.12-0.14-0.22-0.29-0.34-0.43
			c-0.16,0.1-0.12,0.27-0.14,0.41c-0.02,0.19-0.14,0.26-0.31,0.24c-0.16-0.01-0.28-0.1-0.29-0.28c-0.01-0.13-0.01-0.25-0.01-0.38
			c0-2.93,0-5.85,0-8.78c0-0.28-0.11-0.65,0.37-0.64c0.49,0.01,0.35,0.39,0.35,0.66c0.01,0.89,0.01,1.78,0.01,2.68
			c0.16,0.03,0.25-0.09,0.34-0.18c0.57-0.62,1.05-0.56,1.43,0.23c0.54,1.12,0.46,2.34,0.48,3.54c0.01,0.42-0.07,0.84-0.11,1.26
			C22.77,38.86,22.79,39.19,22.68,39.48z"/>
		<path class="st6" d="M25.71,40.22c-0.31,0.28-0.63,0.53-1.07,0.31c-0.61-0.31-0.76-0.92-0.78-1.5c-0.06-1.57-0.04-3.14-0.05-4.71
			c0-0.21,0.01-0.42,0-0.64c-0.02-0.29,0.1-0.44,0.4-0.43c0.29,0.01,0.32,0.21,0.32,0.44c0,1.17-0.01,2.33,0,3.5
			c0,0.49,0.01,0.98,0.07,1.46c0.04,0.31,0.14,0.65,0.56,0.66c0.43,0,0.6-0.33,0.65-0.66c0.09-0.56,0.14-1.14,0.15-1.71
			c0.02-1.04,0.01-2.08,0.01-3.12c0-0.26-0.04-0.56,0.33-0.57c0.37-0.01,0.41,0.26,0.41,0.57c-0.01,2.04,0,4.07-0.01,6.11
			c0,0.18,0.06,0.41-0.17,0.5c-0.19,0.08-0.38,0.06-0.44-0.2C25.97,40.03,25.84,40.09,25.71,40.22z"/>
		<path class="st7" d="M34.64,33.62c0.25-0.34,0.57-0.64,1.01-0.47c0.53,0.21,0.8,0.71,0.84,1.24c0.16,1.9,0.05,3.82,0.08,5.72
			c0,0.28-0.13,0.37-0.39,0.36c-0.32-0.02-0.36-0.22-0.36-0.48c0.01-1.31,0.01-2.63,0-3.95c0-0.36-0.01-0.72-0.06-1.08
			c-0.04-0.25-0.15-0.49-0.47-0.51c-0.3-0.02-0.47,0.13-0.6,0.38c-0.16,0.33-0.21,0.69-0.21,1.05c0,1.34-0.01,2.67-0.01,4.01
			c0,0.28,0.03,0.57-0.39,0.57c-0.46,0-0.35-0.33-0.35-0.59c-0.01-2.06,0-4.11-0.01-6.17c0-0.39,0.04-0.68,0.52-0.35
			C34.4,33.41,34.33,33.82,34.64,33.62z"/>
		<path class="st8" d="M10.95,34.5c-0.17,0-0.3,0.42-0.44,0.15c-0.16-0.3-0.37-0.69-0.06-1.06c0.63-0.73,1.6-0.61,1.99,0.27
			c0.22,0.49,0.28,1.02,0.28,1.55c0,1.42,0.01,2.84-0.01,4.26c0,0.26,0.19,0.68-0.21,0.76c-0.48,0.1-0.32-0.44-0.46-0.67
			c-0.06,0.02-0.12,0.02-0.13,0.04c-0.19,0.48-0.48,0.9-1.07,0.78c-0.55-0.11-0.73-0.6-0.79-1.1c-0.11-0.86-0.2-1.71,0.16-2.55
			c0.23-0.53,0.63-0.76,1.17-0.84c0.71-0.1,0.81-0.27,0.6-0.96c-0.06-0.2-0.11-0.41-0.17-0.61C11.54,34.2,11.25,34.25,10.95,34.5z"
			/>
		<path class="st7" d="M14.4,34.51c-0.12,0.16-0.4,0.33-0.44,0.17c-0.09-0.36-0.31-0.78,0.05-1.13c0.35-0.34,0.78-0.58,1.25-0.39
			c0.62,0.26,0.87,0.85,0.9,1.47c0.05,1.29,0.03,2.58,0.04,3.87c0,0.49,0.01,0.97,0,1.46c0,0.19,0.11,0.46-0.23,0.49
			c-0.28,0.03-0.28-0.19-0.31-0.38c-0.01-0.07-0.09-0.13-0.16-0.22c-0.33,0.4-0.62,0.91-1.23,0.71c-0.65-0.22-0.7-0.85-0.77-1.4
			c-0.09-0.67-0.1-1.35,0.12-2.01c0.19-0.57,0.57-0.91,1.15-1.03c0.79-0.17,0.9-0.32,0.7-1.13c-0.04-0.16-0.12-0.31-0.18-0.47
			C14.98,34.18,14.69,34.31,14.4,34.51z"/>
		<path class="st7" d="M32.89,35.85c0.02,1.37,0.02,1.37-1.23,1.37c-0.92,0-0.99,0.08-0.83,0.97c0.2,1.08,0.56,1.29,1.6,0.93
			c0.26-0.09,0.35-0.03,0.37,0.23c0.03,0.48,0.02,0.93-0.55,1.15c-0.56,0.21-1.11,0.1-1.48-0.36c-0.34-0.42-0.51-0.92-0.58-1.43
			c-0.18-1.45-0.25-2.9,0.18-4.33c0.07-0.23,0.15-0.44,0.27-0.64c0.5-0.84,1.32-0.83,1.8,0.03C32.84,34.45,32.9,35.21,32.89,35.85z"
			/>
		<path class="st8" d="M17.32,39.08c0.34,0.29,0.73,0.53,1.12,0.14c0.35-0.35,0.31-0.81,0.09-1.24c-0.17-0.33-0.47-0.53-0.73-0.77
			c-0.87-0.79-1.13-2.64-0.5-3.56c0.45-0.65,1.21-0.73,1.79-0.2c0.49,0.45-0.09,0.83-0.02,1.24c-0.14,0.04-0.19-0.05-0.25-0.08
			c-0.32-0.17-0.67-0.55-0.99-0.09c-0.27,0.38-0.25,0.83,0.1,1.21c0.48,0.52,1.13,0.91,1.31,1.65c0.22,0.92,0.25,1.85-0.25,2.7
			c-0.39,0.67-1.13,0.71-1.93,0.17c-0.17-0.29-0.11-0.6-0.09-0.91C16.97,39.12,17.06,38.97,17.32,39.08z"/>
		<path class="st9" d="M41.49,40.37c-0.23-0.18-0.12-0.43-0.13-0.65c-0.03-1.48,0.06-2.96-0.09-4.44c-0.04-0.37-0.07-0.75-0.53-0.81
			c-0.46-0.05-0.57,0.3-0.69,0.66c-0.33,1.02-0.15,2.06-0.19,3.09c-0.02,0.61-0.01,1.23,0,1.84c0,0.24-0.05,0.41-0.34,0.41
			c-0.3,0-0.33-0.18-0.33-0.41c0-2.14,0-4.28,0-6.41c0-0.17-0.03-0.37,0.22-0.38c0.19-0.01,0.31,0.09,0.34,0.3
			c0.03,0.19,0.09,0.5,0.3,0.16c0.27-0.43,0.59-0.73,1.07-0.57c0.53,0.17,0.73,0.66,0.79,1.2c0.01,0.12,0,0.25,0,0.38
			c-0.01,0.04-0.02,0.07-0.03,0.11c-0.17,0.24-0.19,0.5-0.19,0.78c0.01,1.29,0,2.58,0,3.87c0,0.27,0.03,0.55-0.11,0.81
			C41.55,40.32,41.52,40.34,41.49,40.37z"/>
		<path class="st8" d="M43.67,30.42c0.01,3.2,0.02,6.4,0.04,9.6c0,0.27-0.05,0.45-0.38,0.44c-0.32-0.01-0.31-0.21-0.31-0.43
			c0.01-3.2,0.01-6.4,0.02-9.6C43.24,30.27,43.46,30.27,43.67,30.42z"/>
		<path class="st10" d="M28.66,33.61c0.11-0.12,0.21-0.25,0.34-0.35c0.36-0.28,0.56-0.18,0.67,0.34c-0.07,0.09-0.08,0.19-0.06,0.29
			c0.1,0.5-0.13,0.76-0.6,0.84c-0.53,0.37-0.59,0.94-0.61,1.5c-0.03,1.37-0.02,2.74-0.02,4.1c-0.57,0.21-0.67,0.16-0.67-0.36
			c-0.01-2.07-0.01-4.14,0-6.22c0-0.18-0.06-0.41,0.21-0.45c0.25-0.04,0.3,0.16,0.36,0.35C28.43,34.17,28.54,33.78,28.66,33.61z"/>
		<path class="st11" d="M30.8,16.58c-0.03-0.56-0.2-1.11-0.12-1.68c0.07-0.47,0.08-1,0.76-1.03c0.38,0.29,0.55,0.67,0.52,1.15
			c-0.03,0.51-0.01,1.02-0.01,1.52C31.58,16.82,31.21,17.23,30.8,16.58z"/>
		<path class="st12" d="M23.81,16.67c-0.06-0.65-0.27-1.27-0.16-1.96c0.06-0.39,0.38-0.59,0.42-0.94c0.12,0,0.24,0,0.36,0
			c0.53,0.77,0.75,1.57,0.32,2.47c-0.06,0.13-0.03,0.25,0.06,0.35C24.51,16.97,24.16,16.86,23.81,16.67z"/>
		<path class="st13" d="M17.08,13.89c0.57,0.13,1.11,1.22,0.81,1.79c-0.16,0.31-0.17,0.59-0.17,0.9c-0.34,0.38-0.68,0.36-1.02,0.01
			c-0.06-0.54-0.19-1.07-0.14-1.62C16.6,14.54,16.68,14.14,17.08,13.89z"/>
		<path class="st14" d="M28.66,33.61c-0.02,0.1-0.02,0.21-0.06,0.31c-0.05,0.14-0.09,0.31-0.28,0.29c-0.22-0.02-0.15-0.22-0.17-0.35
			c-0.01-0.1,0-0.21-0.01-0.32c-0.01-0.12-0.08-0.2-0.2-0.19c-0.13,0-0.19,0.08-0.2,0.2c-0.01,0.13-0.01,0.25-0.01,0.38
			c0,1.94,0.01,3.89-0.01,5.83c-0.01,0.5,0.12,0.73,0.64,0.56c-0.05,0.3-0.27,0.28-0.48,0.24c-0.23-0.04-0.28-0.23-0.28-0.43
			c0-2.19,0-4.39,0-6.58c0-0.18-0.02-0.41,0.24-0.44c0.28-0.04,0.46,0.13,0.51,0.37C28.4,33.75,28.45,33.82,28.66,33.61z"/>
		<path class="st15" d="M38.09,38.81c0.43,0.5,0.25,1.04,0.12,1.58c-0.04,0.14-0.19,0.27-0.4,0.24c-0.17-0.03-0.24-0.16-0.3-0.29
			c-0.13-0.32-0.07-0.66-0.07-0.99C37.56,39.04,37.52,38.56,38.09,38.81z"/>
		<path class="st9" d="M41.91,34.73c0.18,0.28,0.17,0.61,0.17,0.92c0.02,1.44,0.01,2.88,0.01,4.32c0,0.45-0.15,0.65-0.61,0.4
			c0,0,0.04-0.04,0.04-0.04c0.22-0.2,0.16-0.46,0.16-0.71c0.01-1.33,0-2.65,0-3.98c0-0.3,0-0.59,0.17-0.85
			C41.88,34.76,41.9,34.75,41.91,34.73z"/>
		<path class="st16" d="M4.84,33.36c-0.29-0.06-0.37,0.07-0.37,0.34c0,2.11,0,4.22,0,6.33c0,0.51,0.37,0.33,0.64,0.34
			c-0.05,0.33-0.3,0.24-0.49,0.21c-0.23-0.03-0.28-0.22-0.28-0.43c0-2.21,0-4.42,0-6.64c0-0.17-0.01-0.37,0.22-0.39
			c0.2-0.02,0.5-0.14,0.51,0.25C4.99,33.43,4.91,33.43,4.84,33.36z"/>
		<path class="st17" d="M19.1,15.92c0.18-0.12,0.43-0.5,0.51,0.03c0.27,1.66,0.16,3.31-0.26,4.94c-0.1-0.72,0.09-1.43,0.18-2.13
			c0.11-0.83-0.03-1.63-0.02-2.45C19.51,16,19.39,15.88,19.1,15.92z"/>
		<path class="st18" d="M13.24,25.46c-0.02-1.04,0.16-2.06,0.26-3.09c0.01-0.12,0.01-0.28,0.18-0.29c0.18-0.01,0.17,0.16,0.18,0.28
			c0.01,0.27,0.01,0.55,0.01,0.82c-0.42-0.04-0.34,0.27-0.35,0.51C13.46,24.29,13.58,24.91,13.24,25.46z"/>
		<path class="st19" d="M34.51,24.7c-0.02-0.87,0.15-1.71,0.27-2.67c0.33,0.81,0.41,1.54,0.35,2.29c-0.25-0.38-0.24-0.83-0.28-1.34
			C34.6,23.59,35.02,24.23,34.51,24.7z"/>
		<path class="st20" d="M17.32,39.08c-0.34,0.01-0.26,0.26-0.27,0.46c-0.01,0.23,0,0.46,0,0.7c-0.49-0.36-0.25-0.87-0.17-1.28
			C16.93,38.71,17.21,38.87,17.32,39.08z"/>
		<path class="st21" d="M29,34.73c0.49-0.22,0.56-0.68,0.66-1.13c0.01,0.17,0.01,0.34,0.03,0.5C29.74,34.63,29.54,34.87,29,34.73z"
			/>
		<path class="st22" d="M4.84,33.36c0.08,0.01,0.15,0.01,0.23,0.02c0.13,0.08-0.17,0.5,0.27,0.34c0.03,0.2,0.03,0.4-0.25,0.39
			c-0.24-0.01-0.23-0.2-0.23-0.37C4.84,33.61,4.84,33.48,4.84,33.36z"/>
		<path class="st23" d="M38.09,38.81c-0.45-0.11-0.48,0.3-0.65,0.53c-0.06-0.31,0.02-0.59,0.3-0.74
			C37.89,38.52,38.07,38.57,38.09,38.81z"/>
		<path class="st24" d="M34.64,33.62c-0.02,0.18-0.1,0.39-0.28,0.31c-0.21-0.09-0.07-0.38-0.12-0.57
			C34.45,33.32,34.49,33.55,34.64,33.62z"/>
		<path class="st25" d="M14.79,16.44c-0.02-0.26-0.14-0.55,0.12-0.73c0.15-0.1,0.31,0.04,0.38,0.2
			C14.84,15.83,14.92,16.23,14.79,16.44z"/>
		<path class="st26" d="M14.4,34.51c0.29-0.34,0.58-0.49,0.86,0C14.98,34.36,14.69,34.49,14.4,34.51z"/>
		<path class="st27" d="M43.67,30.42c-0.21,0-0.42,0-0.64,0.01C43.24,30.02,43.45,30.03,43.67,30.42z"/>
		<path class="st28" d="M10.95,34.5c0.3-0.42,0.59-0.39,0.87,0.03C11.53,34.38,11.24,34.42,10.95,34.5z"/>
		<path class="st29" d="M22.68,39.48c-0.04-0.33-0.04-0.66,0.23-0.91C22.95,38.91,22.94,39.23,22.68,39.48z"/>
		<path class="st30" d="M25.71,40.22c0.02-0.19,0.11-0.34,0.26-0.47c0.21,0.13,0.14,0.31,0.12,0.49
			C25.96,40.23,25.83,40.22,25.71,40.22z"/>
		<path class="st31" d="M22.31,36.91c-0.08,0.6,0.06,1.22-0.21,1.81c-0.13,0.28-0.2,0.6-0.57,0.57c-0.4-0.03-0.58-0.38-0.62-0.7
			c-0.09-0.69-0.12-1.39-0.13-2.09c-0.01-0.44,0.04-0.89,0.11-1.33c0.05-0.33,0.18-0.66,0.58-0.72c0.42-0.06,0.5,0.26,0.63,0.56
			C22.38,35.64,22.24,36.28,22.31,36.91z"/>
		<path class="st32" d="M10.69,38.39c0-0.84,0.3-1.28,0.91-1.33c0.29-0.02,0.47,0.03,0.47,0.4c0,0.51-0.12,0.98-0.33,1.44
			c-0.13,0.29-0.27,0.57-0.62,0.49c-0.32-0.07-0.44-0.36-0.44-0.68C10.69,38.6,10.69,38.49,10.69,38.39z"/>
		<path class="st33" d="M15.51,37.7c0,0.5-0.06,0.92-0.25,1.3c-0.12,0.23-0.32,0.41-0.59,0.4c-0.28-0.01-0.4-0.26-0.46-0.47
			c-0.15-0.54-0.12-1.09,0.24-1.56c0.21-0.26,0.52-0.4,0.85-0.31C15.7,37.17,15.4,37.54,15.51,37.7z"/>
		<path class="st34" d="M31.85,34.48c0.22,0.24,0.21,0.57,0.32,0.86c0.23,0.6,0.07,0.77-0.58,0.77c-0.81,0-0.95-0.18-0.72-0.97
			c0.04-0.14,0.13-0.26,0.2-0.39C31.25,34.45,31.49,34.29,31.85,34.48z"/>
		<path class="st35" d="M31.85,34.48c-0.31-0.03-0.56,0.08-0.79,0.27C31.21,34.34,31.39,34.01,31.85,34.48z"/>
		<path class="st36" d="M41.86,34.78c0.01,1.7,0.01,3.41,0.02,5.11c0,0.24,0.02,0.49-0.35,0.43c-0.01-1.68-0.01-3.36-0.03-5.04
			C41.5,35.01,41.6,34.85,41.86,34.78z"/>
	</g>
</g>
</svg>
