<svg width="48" height="48" viewBox="0 0 48 48" fill="none" xmlns="http://www.w3.org/2000/svg">
<g clip-path="url(#clip0_74_1261)">
<path d="M45 4H38V37H43C43.5299 37.0016 44.0377 37.2128 44.4125 37.5875C44.7872 37.9623 44.9984 38.4701 45 39C44.9961 39.5292 44.7841 40.0357 44.4099 40.4099C44.0356 40.7841 43.5292 40.9961 43 41H3V12H35V9H0V44H45C45.3941 44.0005 45.7845 43.9233 46.1487 43.7727C46.5129 43.6221 46.8438 43.4012 47.1225 43.1225C47.4012 42.8438 47.6221 42.5129 47.7727 42.1487C47.9233 41.7845 48.0005 41.3941 48 41V7C48.0005 6.60589 47.9233 6.21554 47.7727 5.85133C47.6221 5.48712 47.4012 5.15619 47.1225 4.87751C46.8438 4.59883 46.5129 4.37787 46.1487 4.22729C45.7845 4.07671 45.3941 3.99948 45 4V4Z" fill="#011E41"/>
<path d="M14 38C14 38.2652 14.1054 38.5196 14.2929 38.7071C14.4804 38.8946 14.7348 39 15 39H16C16.2652 39 16.5196 38.8946 16.7071 38.7071C16.8946 38.5196 17 38.2652 17 38V36H18C18.2652 36 18.5196 35.8946 18.7071 35.7071C18.8946 35.5196 19 35.2652 19 35V31H20C20.2652 31 20.5196 30.8946 20.7071 30.7071C20.8946 30.5196 21 30.2652 21 30V29C21 28.7348 20.8946 28.4804 20.7071 28.2929C20.5196 28.1054 20.2652 28 20 28H15V26C15.2652 26 15.5196 25.8946 15.7071 25.7071C15.8946 25.5196 16 25.2652 16 25V24H17C17.2652 24 17.5196 23.8946 17.7071 23.7071C17.8946 23.5196 18 23.2652 18 23V21H19C19.2652 21 19.5196 20.8946 19.7071 20.7071C19.8946 20.5196 20 20.2652 20 20V19C20 18.7348 19.8946 18.4804 19.7071 18.2929C19.5196 18.1054 19.2652 18 19 18H14V16C14 15.7348 13.8946 15.4804 13.7071 15.2929C13.5196 15.1054 13.2652 15 13 15H10C9.73478 15 9.48043 15.1054 9.29289 15.2929C9.10536 15.4804 9 15.7348 9 16V18H7C6.73478 18 6.48043 18.1054 6.29289 18.2929C6.10536 18.4804 6 18.7348 6 19V20C6 20.2652 6.10536 20.5196 6.29289 20.7071C6.48043 20.8946 6.73478 21 7 21H9V23C9 23.2652 9.10536 23.5196 9.29289 23.7071C9.48043 23.8946 9.73478 24 10 24H11V25C11 25.2652 11.1054 25.5196 11.2929 25.7071C11.4804 25.8946 11.7348 26 12 26V28H11C10.7348 28 10.4804 28.1054 10.2929 28.2929C10.1054 28.4804 10 28.7348 10 29V30C10 30.2652 10.1054 30.5196 10.2929 30.7071C10.4804 30.8946 10.7348 31 11 31H12V33C12 33.2652 12.1054 33.5196 12.2929 33.7071C12.4804 33.8946 12.7348 34 13 34H14V38ZM32 28H35V16H26C25.7348 16 25.4804 16.1054 25.2929 16.2929C25.1054 16.4804 25 16.7348 25 17V19C25 19.2652 25.1054 19.5196 25.2929 19.7071C25.4804 19.8946 25.7348 20 26 20H27V22H24C23.735 22.0008 23.4811 22.1064 23.2938 22.2938C23.1064 22.4811 23.0008 22.735 23 23V24C23.0008 24.265 23.1064 24.5189 23.2938 24.7062C23.4811 24.8936 23.735 24.9992 24 25H25V28H24C23.7348 28 23.4804 28.1054 23.2929 28.2929C23.1054 28.4804 23 28.7348 23 29V30C23 30.2652 23.1054 30.5196 23.2929 30.7071C23.4804 30.8946 23.7348 31 24 31H25V33C25 33.2652 25.1054 33.5196 25.2929 33.7071C25.4804 33.8946 25.7348 34 26 34H27V36C27.0008 36.265 27.1064 36.5189 27.2938 36.7062C27.4811 36.8936 27.735 36.9992 28 37H31C31.265 36.9992 31.5189 36.8936 31.7062 36.7062C31.8936 36.5189 31.9992 36.265 32 36V33H33C33.2652 33 33.5196 32.8946 33.7071 32.7071C33.8946 32.5196 34 32.2652 34 32V31C34 30.7348 33.8946 30.4804 33.7071 30.2929C33.5196 30.1054 33.2652 30 33 30H32V28Z" fill="#011E41"/>
</g>
<defs>
<clipPath id="clip0_74_1261">
<rect width="48" height="48" fill="white"/>
</clipPath>
</defs>
</svg>
