<svg width="48" height="48" viewBox="0 0 48 48" fill="none" xmlns="http://www.w3.org/2000/svg">
<path d="M1.412 16.5L5.765 4.167C5.83389 3.97194 5.96157 3.80304 6.13046 3.68358C6.29935 3.56413 6.50113 3.49998 6.708 3.5H40.33C40.5283 3.5 40.7221 3.55894 40.8868 3.66933C41.0515 3.77973 41.1797 3.9366 41.255 4.12L46.353 16.5H1.412ZM0.706 18.5L0 20.5V22.5C0 23.5609 0.421427 24.5783 1.17157 25.3284C1.92172 26.0786 2.93913 26.5 4 26.5C5.06087 26.5 6.07828 26.0786 6.82843 25.3284C7.57857 24.5783 8 23.5609 8 22.5C8 23.5609 8.42143 24.5783 9.17157 25.3284C9.92172 26.0786 10.9391 26.5 12 26.5C13.0609 26.5 14.0783 26.0786 14.8284 25.3284C15.5786 24.5783 16 23.5609 16 22.5C16 23.5609 16.4214 24.5783 17.1716 25.3284C17.9217 26.0786 18.9391 26.5 20 26.5C21.0609 26.5 22.0783 26.0786 22.8284 25.3284C23.5786 24.5783 24 23.5609 24 22.5C24 23.5609 24.4214 24.5783 25.1716 25.3284C25.9217 26.0786 26.9391 26.5 28 26.5C29.0609 26.5 30.0783 26.0786 30.8284 25.3284C31.5786 24.5783 32 23.5609 32 22.5C32 23.5609 32.4214 24.5783 33.1716 25.3284C33.9217 26.0786 34.9391 26.5 36 26.5C37.0609 26.5 38.0783 26.0786 38.8284 25.3284C39.5786 24.5783 40 23.5609 40 22.5C40 23.5609 40.4214 24.5783 41.1716 25.3284C41.9217 26.0786 42.9391 26.5 44 26.5C45.0609 26.5 46.0783 26.0786 46.8284 25.3284C47.5786 24.5783 48 23.5609 48 22.5V20.5L47.177 18.5H0.706ZM40 26.96C38.9037 27.9516 37.4782 28.5006 36 28.5006C34.5218 28.5006 33.0963 27.9516 32 26.96C30.9037 27.9516 29.4782 28.5006 28 28.5006C26.5218 28.5006 25.0963 27.9516 24 26.96C22.9037 27.9516 21.4782 28.5006 20 28.5006C18.5218 28.5006 17.0963 27.9516 16 26.96C14.9037 27.9516 13.4782 28.5006 12 28.5006C10.5218 28.5006 9.09629 27.9516 8 26.96C6.90342 27.951 5.47805 28.4998 4 28.5V44.5H8V34.5C8 33.9696 8.21071 33.4609 8.58579 33.0858C8.96086 32.7107 9.46957 32.5 10 32.5H14C14.5304 32.5 15.0391 32.7107 15.4142 33.0858C15.7893 33.4609 16 33.9696 16 34.5V44.5H44V28.5C42.522 28.4998 41.0966 27.951 40 26.96V26.96Z" fill="#011E41"/>
</svg>
