<svg width="48" height="48" viewBox="0 0 48 48" fill="none" xmlns="http://www.w3.org/2000/svg">
<g clip-path="url(#clip0_74_938)">
<path d="M47.1761 22.0013H14.9924C13.4109 22.6612 11.7142 23.0011 10.0006 23.0011C8.28691 23.0011 6.59025 22.6612 5.00877 22.0013H0.706948L0.000976562 24.0012V26.0011C0.000976563 27.0619 0.422387 28.0793 1.1725 28.8294C1.92262 29.5795 2.93999 30.0009 4.00081 30.0009C5.06164 30.0009 6.07901 29.5795 6.82913 28.8294C7.57924 28.0793 8.00065 27.0619 8.00065 26.0011C8.00065 27.0619 8.42206 28.0793 9.17218 28.8294C9.92229 29.5795 10.9397 30.0009 12.0005 30.0009C13.0613 30.0009 14.0787 29.5795 14.8288 28.8294C15.5789 28.0793 16.0003 27.0619 16.0003 26.0011C16.0003 27.0619 16.4217 28.0793 17.1719 28.8294C17.922 29.5795 18.9393 30.0009 20.0002 30.0009C21.061 30.0009 22.0784 29.5795 22.8285 28.8294C23.5786 28.0793 24 27.0619 24 26.0011C24 27.0619 24.4214 28.0793 25.1715 28.8294C25.9216 29.5795 26.939 30.0009 27.9998 30.0009C29.0607 30.0009 30.078 29.5795 30.8281 28.8294C31.5783 28.0793 31.9997 27.0619 31.9997 26.0011C31.9997 27.0619 32.4211 28.0793 33.1712 28.8294C33.9213 29.5795 34.9387 30.0009 35.9995 30.0009C37.0603 30.0009 38.0777 29.5795 38.8278 28.8294C39.5779 28.0793 39.9993 27.0619 39.9993 26.0011C39.9993 27.0619 40.4208 28.0793 41.1709 28.8294C41.921 29.5795 42.9384 30.0009 43.9992 30.0009C45.06 30.0009 46.0774 29.5795 46.8275 28.8294C47.5776 28.0793 47.999 27.0619 47.999 26.0011V24.0012L47.1761 22.0013ZM18.2952 20.0013H46.3521L41.2543 7.62185C41.179 7.43845 41.0508 7.28159 40.8861 7.1712C40.7214 7.06081 40.5276 7.00187 40.3293 7.00187H22.6371C23.2083 9.35772 23.104 11.8269 22.3361 14.1262C21.5681 16.4254 20.1676 18.4617 18.2952 20.0013V20.0013ZM10.0006 5.00195C9.2052 5.00275 8.44263 5.31906 7.88021 5.88147C7.3178 6.44389 7.00149 7.20646 7.00069 8.00183H13.0004C12.9997 7.20646 12.6833 6.44389 12.1209 5.88147C11.5585 5.31906 10.7959 5.00275 10.0006 5.00195V5.00195ZM43.9992 32.0009V48.0002H16.0003V38.0006C15.9987 37.4707 15.7875 36.9629 15.4128 36.5882C15.0381 36.2135 14.5303 36.0023 14.0004 36.0007H10.0006C9.47064 36.0023 8.96288 36.2135 8.58816 36.5882C8.21345 36.9629 8.00223 37.4707 8.00065 38.0006V48.0002H4.00081V32.0009C5.47857 31.9994 6.90345 31.4508 8.00065 30.4609C9.0971 31.452 10.5225 32.0008 12.0005 32.0008C13.4785 32.0008 14.9039 31.452 16.0003 30.4609C17.0968 31.452 18.5221 32.0008 20.0002 32.0008C21.4782 32.0008 22.9036 31.452 24 30.4609C25.0964 31.452 26.5218 32.0008 27.9998 32.0008C29.4779 32.0008 30.9032 31.452 31.9997 30.4609C33.0961 31.452 34.5215 32.0008 35.9995 32.0008C37.4775 32.0008 38.9029 31.452 39.9993 30.4609C41.0965 31.4508 42.5214 31.9994 43.9992 32.0009V32.0009Z" fill="#011E41"/>
<path d="M19.541 7.00196C18.8246 4.72236 17.3156 2.77464 15.2872 1.51148C13.2589 0.24832 10.8453 -0.246777 8.48345 0.115839C6.12161 0.478455 3.96768 1.67481 2.41169 3.48828C0.855704 5.30175 0.000514486 7.61244 0.00097675 10.002C0.00097675 12.6541 1.05455 15.1977 2.92991 17.073C4.80527 18.9484 7.34881 20.002 10.001 20.002C12.6531 20.002 15.1967 18.9484 17.072 17.073C18.9474 15.1977 20.001 12.6541 20.001 10.002C20.0027 8.98427 19.8475 7.97239 19.541 7.00196V7.00196ZM15.001 14.002C14.9994 14.5319 14.7882 15.0397 14.4134 15.4144C14.0387 15.7892 13.5309 16.0004 13.001 16.002H7.00098C6.47103 16.0004 5.96324 15.7892 5.58851 15.4144C5.21378 15.0397 5.00256 14.5319 5.00098 14.002V8.00196C4.99973 6.76201 5.45926 5.56582 6.29035 4.64562C7.12144 3.72542 8.26481 3.14686 9.49848 3.02225C10.7322 2.89763 11.9681 3.23586 12.9664 3.97127C13.9648 4.70668 14.6542 5.7868 14.901 7.00196C14.9698 7.33078 15.0034 7.66601 15.001 8.00196V14.002Z" fill="#011E41"/>
<path d="M11.001 10.002H9.00098C8.44869 10.002 8.00098 10.4497 8.00098 11.002V13.002C8.00098 13.5542 8.44869 14.002 9.00098 14.002H11.001C11.5533 14.002 12.001 13.5542 12.001 13.002V11.002C12.001 10.4497 11.5533 10.002 11.001 10.002Z" fill="#011E41"/>
</g>
<defs>
<clipPath id="clip0_74_938">
<rect width="48" height="48" fill="white"/>
</clipPath>
</defs>
</svg>
