<svg width="48" height="48" viewBox="0 0 48 48" fill="none" xmlns="http://www.w3.org/2000/svg">
<path d="M46 25.5037H41V20.5037H46C46.5304 20.5037 47.0391 20.293 47.4142 19.9179C47.7893 19.5428 48 19.0341 48 18.5037C48 17.9732 47.7893 17.4645 47.4142 17.0895C47.0391 16.7144 46.5304 16.5037 46 16.5037H40.699L30.275 7.56268C28.7224 6.23105 26.7445 5.49902 24.699 5.49902C22.6535 5.49902 20.6756 6.23105 19.123 7.56268L8.699 16.5027H2C1.46957 16.5027 0.960859 16.7134 0.585786 17.0885C0.210714 17.4635 0 17.9722 0 18.5027C0 19.0331 0.210714 19.5418 0.585786 19.9169C0.960859 20.292 1.46957 20.5027 2 20.5027H8V25.5027H2C1.46957 25.5027 0.960859 25.7134 0.585786 26.0885C0.210714 26.4635 0 26.9722 0 27.5027C0 28.0331 0.210714 28.5418 0.585786 28.9169C0.960859 29.292 1.46957 29.5027 2 29.5027H8.396C9.19062 33.1835 11.2222 36.4809 14.1523 38.846C17.0825 41.2111 20.7344 42.5011 24.5 42.5011C28.2656 42.5011 31.9175 41.2111 34.8477 38.846C37.7778 36.4809 39.8094 33.1835 40.604 29.5027H46C46.5304 29.5027 47.0391 29.292 47.4142 28.9169C47.7893 28.5418 48 28.0331 48 27.5027C48 26.9722 47.7893 26.4635 47.4142 26.0885C47.0391 25.7134 46.5304 25.5027 46 25.5027V25.5037Z" fill="#011E41"/>
</svg>
