<svg width="48" height="48" viewBox="0 0 48 48" fill="none" xmlns="http://www.w3.org/2000/svg">
<path d="M35 0H13C12.4701 0.00158273 11.9623 0.212805 11.5875 0.587535C11.2128 0.962265 11.0016 1.47005 11 2V14H37V2C36.9984 1.47005 36.7872 0.962265 36.4125 0.587535C36.0377 0.212805 35.5299 0.00158273 35 0V0ZM33 8C32.9984 8.52995 32.7872 9.03773 32.4125 9.41247C32.0377 9.7872 31.5299 9.99842 31 10H17C16.4701 9.99842 15.9623 9.7872 15.5875 9.41247C15.2128 9.03773 15.0016 8.52995 15 8V6C15.0016 5.47005 15.2128 4.96227 15.5875 4.58753C15.9623 4.2128 16.4701 4.00158 17 4H31C31.5299 4.00158 32.0377 4.2128 32.4125 4.58753C32.7872 4.96227 32.9984 5.47005 33 6V8ZM11 46C11.0016 46.5299 11.2128 47.0377 11.5875 47.4125C11.9623 47.7872 12.4701 47.9984 13 48H35C35.5299 47.9984 36.0377 47.7872 36.4125 47.4125C36.7872 47.0377 36.9984 46.5299 37 46V17H11V46Z" fill="#011E41"/>
</svg>
