<svg width="48" height="48" viewBox="0 0 48 48" fill="none" xmlns="http://www.w3.org/2000/svg">
<path d="M31.5339 14.5587C32.3371 13.774 32.9767 12.8377 33.4154 11.804C33.8542 10.7704 34.0835 9.65993 34.09 8.53702C34.0966 7.41412 33.8802 6.30108 33.4535 5.26238C33.0268 4.22369 32.3983 3.27999 31.6042 2.48596C30.8102 1.69193 29.8665 1.06336 28.8278 0.636656C27.7891 0.209953 26.6761 -0.00639524 25.5532 0.000143926C24.4303 0.00668309 23.3198 0.23598 22.2862 0.674751C21.2525 1.11352 20.3162 1.75304 19.5315 2.55626L11.0439 11.0439L2.55626 19.5315C1.75304 20.3162 1.11352 21.2525 0.674751 22.2862C0.23598 23.3198 0.00668309 24.4303 0.000143926 25.5532C-0.00639524 26.6761 0.209953 27.7891 0.636656 28.8278C1.06336 29.8665 1.69193 30.8102 2.48596 31.6042C3.27999 32.3983 4.22369 33.0268 5.26238 33.4535C6.30108 33.8802 7.41412 34.0966 8.53702 34.09C9.65993 34.0835 10.7704 33.8542 11.804 33.4154C12.8377 32.9767 13.774 32.3371 14.5587 31.5339L23.0463 23.0463L31.5339 14.5587ZM13.1608 13.1608L21.6484 4.67317C22.6789 3.64365 24.076 3.06535 25.5327 3.06535C26.9894 3.06535 28.3865 3.64365 29.417 4.67317C30.4434 5.70539 31.0195 7.10186 31.0195 8.5575C31.0195 10.0131 30.4434 11.4096 29.417 12.4418L20.9294 20.9294L13.1608 13.1608ZM35.0188 22.0378C32.6219 22.0352 30.2712 22.697 28.2277 23.9497C26.1842 25.2025 24.5279 26.9971 23.4428 29.1343C22.3576 31.2715 21.8861 33.6676 22.0805 36.0566C22.2749 38.4457 23.1277 40.734 24.5441 42.6677L42.6677 24.5441C40.4515 22.9126 37.7708 22.0342 35.0188 22.0378V22.0378ZM45.4935 27.37L27.37 45.4935C29.8678 47.3233 32.9378 48.1989 36.025 47.962C39.1121 47.7251 42.0126 46.3914 44.202 44.202C46.3914 42.0126 47.7251 39.1121 47.962 36.025C48.1989 32.9378 47.3233 29.8678 45.4935 27.37V27.37Z" fill="#011E41"/>
</svg>
