<svg width="48" height="48" viewBox="0 0 48 48" fill="none" xmlns="http://www.w3.org/2000/svg">
<path d="M46 12.5H35V5.5C34.9984 4.97005 34.7872 4.46227 34.4125 4.08753C34.0377 3.7128 33.5299 3.50158 33 3.5L15 3.5C14.4701 3.50158 13.9623 3.7128 13.5875 4.08753C13.2128 4.46227 13.0016 4.97005 13 5.5V12.5H2C1.47005 12.5016 0.962265 12.7128 0.587535 13.0875C0.212805 13.4623 0.00158273 13.9701 0 14.5L0 42.5C0.00158273 43.0299 0.212805 43.5377 0.587535 43.9125C0.962265 44.2872 1.47005 44.4984 2 44.5H46C46.5299 44.4984 47.0377 44.2872 47.4125 43.9125C47.7872 43.5377 47.9984 43.0299 48 42.5V14.5C47.9984 13.9701 47.7872 13.4623 47.4125 13.0875C47.0377 12.7128 46.5299 12.5016 46 12.5ZM18 8.5H30V12.5H18V8.5ZM20.27 30.77C19.8001 31.2384 19.1635 31.501 18.5 31.5H16V34C16 34.663 15.7366 35.2989 15.2678 35.7678C14.7989 36.2366 14.163 36.5 13.5 36.5C12.837 36.5 12.2011 36.2366 11.7322 35.7678C11.2634 35.2989 11 34.663 11 34V31.5H8.5C7.83696 31.5 7.20107 31.2366 6.73223 30.7678C6.26339 30.2989 6 29.663 6 29C6 28.337 6.26339 27.7011 6.73223 27.2322C7.20107 26.7634 7.83696 26.5 8.5 26.5H11V24C11 23.337 11.2634 22.7011 11.7322 22.2322C12.2011 21.7634 12.837 21.5 13.5 21.5C14.163 21.5 14.7989 21.7634 15.2678 22.2322C15.7366 22.7011 16 23.337 16 24V26.5H18.5C18.9945 26.5005 19.4777 26.6475 19.8887 26.9224C20.2997 27.1973 20.6201 27.5878 20.8095 28.0445C20.9988 28.5013 21.0486 29.0039 20.9526 29.489C20.8566 29.974 20.6191 30.4198 20.27 30.77Z" fill="#011E41"/>
</svg>
