<svg width="105" height="85" viewBox="0 0 105 85" fill="none" xmlns="http://www.w3.org/2000/svg">
<path fill-rule="evenodd" clip-rule="evenodd" d="M59.417 1.79565H88.5977C92.4673 1.79565 96.1784 3.33328 98.9146 6.07028C101.651 8.80727 103.188 12.5194 103.188 16.3901V37.2394C103.188 41.1101 101.651 44.8222 98.9146 47.5592C96.1784 50.2962 92.4673 51.8338 88.5977 51.8338V60.8199C88.5977 61.1085 88.5122 61.3907 88.3519 61.6308C88.1915 61.8708 87.9637 62.0579 87.697 62.1683C87.4304 62.2788 87.137 62.3077 86.854 62.2514C86.571 62.1951 86.311 62.056 86.1069 61.8519L76.0917 51.8338H63.5857V41.4092C63.5802 36.4343 61.602 31.6647 58.0852 28.1469C54.5684 24.6291 49.8002 22.6504 44.8267 22.6449V16.3901C44.8267 12.5194 46.3639 8.80727 49.1001 6.07028C51.8363 3.33328 55.5475 1.79565 59.417 1.79565ZM27.9415 74.3271H44.5587C47.8641 74.3271 51.0341 73.0127 53.3713 70.673C55.7086 68.3332 57.0216 65.1599 57.0216 61.851V41.0575C57.0216 37.7486 55.7086 34.5752 53.3713 32.2355C51.0341 29.8958 47.8641 28.5813 44.5587 28.5813H15.4785C12.1732 28.5813 9.00318 29.8958 6.66593 32.2355C4.32868 34.5752 3.01562 37.7486 3.01562 41.0575V61.851C3.01562 65.1599 4.32868 68.3332 6.66593 70.673C9.00318 73.0127 12.1732 74.3271 15.4785 74.3271V83.2892C15.4785 83.5771 15.5638 83.8585 15.7236 84.0979C15.8833 84.3373 16.1104 84.5238 16.3761 84.634C16.6418 84.7442 16.9342 84.773 17.2162 84.7169C17.4983 84.6607 17.7574 84.522 17.9607 84.3185L27.9415 74.3271ZM25.8393 46.887V38.0858H34.7119V46.887H43.5997V55.7032H34.7119V64.5044H25.8393V55.7032H16.9515V46.887H25.8393ZM90.4421 28.8152L89.1377 30.1244L78.6655 41.2618C78.5776 41.352 78.4731 41.4236 78.358 41.4724C78.2429 41.5213 78.1194 41.5464 77.9946 41.5464C77.8699 41.5464 77.7464 41.5213 77.6313 41.4724C77.5161 41.4236 77.4116 41.352 77.3238 41.2618L66.8515 30.1244L65.5471 28.8152C64.7784 28.0578 64.1651 27.1525 63.7428 26.1518C63.3206 25.151 63.0978 24.0749 63.0874 22.9857C63.077 21.8966 63.2792 20.8162 63.6823 19.8073C64.0853 18.7984 64.6812 17.8811 65.4353 17.1086C66.8988 15.7251 68.8235 14.9589 70.8205 14.9646C72.9036 14.9646 74.9037 15.7956 76.3921 17.2794L77.9946 18.7783L79.5971 17.2794C81.0856 15.7956 83.0857 14.9646 85.1687 14.9646C87.1657 14.9589 89.0904 15.7251 90.5539 17.1086C91.308 17.8811 91.9039 18.7984 92.307 19.8073C92.7101 20.8162 92.9123 21.8966 92.9019 22.9857C92.8915 24.0749 92.6686 25.151 92.2464 26.1518C91.8242 27.1525 91.2109 28.0578 90.4421 28.8152Z" fill="#011E41"/>
</svg>
