<svg width="70" height="104" viewBox="0 0 70 104" fill="none" xmlns="http://www.w3.org/2000/svg">
<path d="M11.774 21.3634C13.1484 19.378 16.3555 15.8655 20.3262 14.3383C24.2969 12.8111 28.2676 13.1166 32.5437 14.3383C36.8198 15.5601 41.4013 18.309 43.5394 24.4177C45.6774 30.5265 43.5394 39.0787 44.4557 42.1331C45.372 45.1874 51.4807 47.0201 51.4807 47.0201V67.7897C51.4807 67.7897 45.372 72.524 44.4557 74.2039C43.5394 75.8838 45.2193 85.5051 44.4557 88.5594C43.6921 91.6138 40.4822 95.8812 36.2089 98.6389C32.6274 100.95 30.0864 101.963 25.8241 101.999C21.4481 102.035 18.6024 101.307 15.1338 98.6389C11.4855 95.8325 10.3847 92.9568 9.02504 88.5594C7.36892 83.2035 9.78864 76.0365 9.02504 74.2039C8.26145 72.3713 2 67.7897 2 67.7897V47.0201C2 47.0201 7.37565 45.0397 9.02504 42.1331C10.9089 38.8134 8.83722 36.6352 9.02504 32.3591C9.21286 28.083 10.3995 23.3487 11.774 21.3634Z" fill="#011E41" stroke="#00214D" stroke-width="3"/>
<rect x="17.161" y="25.8341" width="19.1588" height="65.2798" rx="9.57941" fill="white" stroke="#00214D"/>
<circle cx="23.0751" cy="47.6309" r="0.610873" fill="#011E41"/>
<circle cx="23.0751" cy="47.6309" r="0.610873" fill="#011E41"/>
<circle cx="26.435" cy="47.6309" r="0.610873" fill="#011E41"/>
<circle cx="29.7947" cy="47.6309" r="0.610873" fill="#011E41"/>
<circle cx="20.0208" cy="42.133" r="0.610873" fill="#011E41"/>
<circle cx="23.0751" cy="42.133" r="0.610873" fill="#011E41"/>
<circle cx="26.435" cy="42.133" r="0.610873" fill="#011E41"/>
<circle cx="29.7947" cy="42.133" r="0.610873" fill="#011E41"/>
<circle cx="32.8492" cy="42.133" r="0.610873" fill="#011E41"/>
<circle cx="23.6859" cy="60.4594" r="0.610873" fill="#011E41"/>
<circle cx="23.6859" cy="60.4594" r="0.610873" fill="#011E41"/>
<circle cx="27.0458" cy="60.4594" r="0.610873" fill="#011E41"/>
<circle cx="30.4056" cy="60.4594" r="0.610873" fill="#011E41"/>
<circle cx="20.6316" cy="54.9615" r="0.610873" fill="#011E41"/>
<circle cx="23.6859" cy="54.9615" r="0.610873" fill="#011E41"/>
<circle cx="27.0458" cy="54.9615" r="0.610873" fill="#011E41"/>
<circle cx="30.4056" cy="54.9615" r="0.610873" fill="#011E41"/>
<circle cx="33.46" cy="54.9615" r="0.610873" fill="#011E41"/>
<circle cx="23.6859" cy="73.2876" r="0.610873" fill="#011E41"/>
<circle cx="23.6859" cy="73.2876" r="0.610873" fill="#011E41"/>
<circle cx="27.0458" cy="73.2876" r="0.610873" fill="#011E41"/>
<circle cx="30.4056" cy="73.2876" r="0.610873" fill="#011E41"/>
<circle cx="20.6316" cy="67.7898" r="0.610873" fill="#011E41"/>
<circle cx="23.6859" cy="67.7898" r="0.610873" fill="#011E41"/>
<circle cx="27.0458" cy="67.7898" r="0.610873" fill="#011E41"/>
<circle cx="30.4056" cy="67.7898" r="0.610873" fill="#011E41"/>
<circle cx="33.46" cy="67.7898" r="0.610873" fill="#011E41"/>
<path fill-rule="evenodd" clip-rule="evenodd" d="M57.1182 3.06928C59.223 5.29157 64.75 11.6002 64.75 16.5682C64.75 21.0869 60.9747 24.75 56.3176 24.75C51.6604 24.75 47.885 21.0869 47.885 16.5682C47.885 11.6002 53.4121 5.29157 55.5168 3.06928C56.0118 2.54662 56.3176 2.25 56.3176 2.25C56.3176 2.25 56.6232 2.54662 57.1182 3.06928ZM56.3176 3.89221C56.4526 4.03539 56.6011 4.19483 56.7608 4.36912C57.5338 5.21286 58.5623 6.39821 59.5883 7.767C60.6166 9.13888 61.6265 10.6742 62.3757 12.2188C63.1304 13.775 63.5834 15.2656 63.5834 16.5682C63.5834 20.4721 60.3235 23.625 56.3176 23.625C52.3116 23.625 49.0517 20.4721 49.0517 16.5682C49.0517 15.2656 49.5046 13.775 50.2594 12.2188C51.0085 10.6742 52.0185 9.13888 53.0468 7.767C54.0728 6.39821 55.1014 5.21286 55.8743 4.36912C56.034 4.19483 56.1825 4.03539 56.3176 3.89221Z" fill="#011E41"/>
<path fill-rule="evenodd" clip-rule="evenodd" d="M60.3319 18.1693C59.9564 17.8944 59.4179 17.9613 59.1293 18.319L59.0111 18.4654C57.638 20.1665 54.9455 20.1665 53.5724 18.4654L53.4542 18.319C53.1655 17.9613 52.6272 17.8944 52.2516 18.1693C51.8761 18.4443 51.8059 18.9571 52.0945 19.3148L52.2127 19.4611C54.2723 22.0129 58.3112 22.0129 60.3709 19.4611L60.489 19.3148C60.7777 18.9571 60.7073 18.4443 60.3319 18.1693Z" fill="#011E41"/>
</svg>
