<svg width="110" height="118" viewBox="0 0 110 118" fill="none" xmlns="http://www.w3.org/2000/svg">
<path d="M48.1735 2.3775e-07C59.8698 0.000747496 71.1664 4.1706 79.9563 11.7318C88.7461 19.2929 94.4289 29.7291 95.9447 41.0935L109.492 61.9736C110.383 63.3483 110.203 65.3956 108.137 66.2688L96.3421 71.213V88.5C96.3421 91.6296 95.0734 94.6309 92.815 96.8439C90.5567 99.0568 87.4937 100.3 84.2999 100.3H72.2638L72.2578 118H18.0681V96.2054C18.0681 89.2434 15.4429 82.6531 10.5718 76.7059C4.8982 69.7643 1.34141 61.3932 0.31129 52.5572C-0.718833 43.7211 0.819629 34.7797 4.74941 26.7631C8.6792 18.7465 14.8404 11.9809 22.5231 7.24587C30.2058 2.51087 39.0975 -0.000892233 48.1735 2.3775e-07ZM44.9823 34.0017C42.9954 32.1205 40.334 31.0793 37.5712 31.1023C34.8085 31.1252 32.1655 32.2106 30.2115 34.1245C28.2574 36.0385 27.1488 38.6279 27.1242 41.3351C27.0996 44.0423 28.1612 46.6506 30.0801 48.5983L48.1735 66.3337L66.2668 48.5983C67.273 47.6457 68.0755 46.5062 68.6274 45.2464C69.1794 43.9866 69.4698 42.6317 69.4817 41.2607C69.4935 39.8898 69.2267 38.5303 68.6966 37.2615C68.1665 35.9927 67.3839 34.84 66.3944 33.8708C65.4048 32.9015 64.2282 32.1351 62.9332 31.6162C61.6381 31.0973 60.2506 30.8363 58.8515 30.8485C57.4524 30.8607 56.0698 31.1458 54.7844 31.6872C53.499 32.2286 52.3364 33.0154 51.3646 34.0017L48.1735 37.1287L44.9823 34.0017Z" fill="#011E41"/>
<path d="M40.64 68.3714C39.7787 67.2384 38.1456 67.0054 37 67.8571C35.8544 68.7089 35.6187 70.3241 36.48 71.4571L39.5756 75.5393C39.9656 76.0536 39.9087 76.7687 39.4537 77.2188L38.4137 78.2473C37.8694 78.7857 36.9837 78.7455 36.4963 78.1589L29.2 69.4964V57.5714C29.2 56.1491 28.0381 55 26.6 55C25.1619 55 24 56.1491 24 57.5714V75.1214C24 75.9973 24.3006 76.8491 24.8531 77.5321L33.3112 88.3241C33.7175 88.8464 33.9937 89.4411 34.1562 90.0679C34.3025 90.6223 34.8144 91 35.3994 91H46.1C46.815 91 47.4 90.4214 47.4 89.7143V80.7143C47.4 78.4884 46.6687 76.3268 45.32 74.5429L40.64 68.3714ZM73.4 55C71.9619 55 70.8 56.1491 70.8 57.5714V69.4964L63.5037 78.1589C63.0163 78.7375 62.1225 78.7777 61.5863 78.2473L60.5462 77.2188C60.0912 76.7687 60.0344 76.0536 60.4244 75.5393L63.52 71.4571C64.3812 70.3241 64.1456 68.7089 63 67.8571C61.8544 67.0054 60.2212 67.2384 59.36 68.3714L54.68 74.5429C53.3312 76.3268 52.6 78.4884 52.6 80.7143V89.7143C52.6 90.4214 53.185 91 53.9 91H64.6006C65.1775 91 65.6975 90.6223 65.8438 90.0679C66.0062 89.4411 66.2825 88.8464 66.6888 88.3241L75.1469 77.5321C75.6994 76.8491 76 75.9973 76 75.1214V57.5714C76 56.1491 74.8381 55 73.4 55Z" fill="white"/>
</svg>
