<svg width="48" height="48" viewBox="0 0 48 48" fill="none" xmlns="http://www.w3.org/2000/svg">
<path d="M3 15H45C45.7956 15 46.5587 14.6839 47.1213 14.1213C47.6839 13.5587 48 12.7956 48 12C48 11.2044 47.6839 10.4413 47.1213 9.87868C46.5587 9.31607 45.7956 9 45 9H3C2.20435 9 1.44129 9.31607 0.87868 9.87868C0.31607 10.4413 0 11.2044 0 12C0 12.7956 0.31607 13.5587 0.87868 14.1213C1.44129 14.6839 2.20435 15 3 15V15ZM45 33H3C2.20435 33 1.44129 33.3161 0.87868 33.8787C0.31607 34.4413 0 35.2044 0 36C0 36.7956 0.31607 37.5587 0.87868 38.1213C1.44129 38.6839 2.20435 39 3 39H45C45.7956 39 46.5587 38.6839 47.1213 38.1213C47.6839 37.5587 48 36.7956 48 36C48 35.2044 47.6839 34.4413 47.1213 33.8787C46.5587 33.3161 45.7956 33 45 33ZM45 21H3C2.20435 21 1.44129 21.3161 0.87868 21.8787C0.31607 22.4413 0 23.2044 0 24C0 24.7956 0.31607 25.5587 0.87868 26.1213C1.44129 26.6839 2.20435 27 3 27H45C45.7956 27 46.5587 26.6839 47.1213 26.1213C47.6839 25.5587 48 24.7956 48 24C48 23.2044 47.6839 22.4413 47.1213 21.8787C46.5587 21.3161 45.7956 21 45 21Z" fill="#011E41"/>
</svg>
