<svg width="32" height="48" viewBox="0 0 32 48" fill="none" xmlns="http://www.w3.org/2000/svg">
<path fill-rule="evenodd" clip-rule="evenodd" d="M4.7127 3.28158C4.56645 3.49642 4.5 3.80701 4.5 4C4.5 4.82843 3.82843 5.5 3 5.5C2.17157 5.5 1.5 4.82843 1.5 4C1.5 3.35965 1.66992 2.42024 2.23276 1.59342C2.84998 0.686711 3.8929 0 5.36364 0H5.37485H5.38632H5.39806H5.41005H5.42231H5.43482H5.4476H5.46063H5.47392H5.48746H5.50126H5.51531H5.52962H5.54418H5.55899H5.57405H5.58936H5.60492H5.62073H5.63679H5.65309H5.66964H5.68643H5.70347H5.72075H5.73828H5.75605H5.77406H5.7923H5.81079H5.82952H5.84848H5.86768H5.88712H5.90679H5.9267H5.94684H5.96721H5.98782H6.00865H6.02972H6.05102H6.07254H6.09429H6.11627H6.13848H6.16091H6.18357H6.20645H6.22955H6.25287H6.27642H6.30018H6.32417H6.34837H6.3728H6.39744H6.42229H6.44736H6.47265H6.49815H6.52386H6.54979H6.57592H6.60227H6.62883H6.65559H6.68257H6.70975H6.73713H6.76473H6.79252H6.82053H6.84873H6.87714H6.90575H6.93456H6.96356H6.99277H7.02218H7.05178H7.08158H7.11158H7.14177H7.17215H7.20273H7.2335H7.26446H7.29561H7.32696H7.35849H7.39021H7.42212H7.45421H7.48649H7.51895H7.5516H7.58444H7.61745H7.65065H7.68402H7.71758H7.75132H7.78523H7.81933H7.85359H7.88804H7.92266H7.95746H7.99242H8.02756H8.06288H8.09836H8.13401H8.16984H8.20583H8.24199H8.27831H8.3148H8.35146H8.38828H8.42527H8.46242H8.49973H8.5372H8.57483H8.61262H8.65057H8.68867H8.72694H8.76536H8.80393H8.84266H8.88155H8.92058H8.95977H8.99911H9.0386H9.07824H9.11803H9.15797H9.19805H9.23828H9.27865H9.31917H9.35984H9.40064H9.44159H9.48268H9.52391H9.56528H9.60679H9.64844H9.69022H9.73214H9.7742H9.81639H9.85871H9.90117H9.94376H9.98648H10.0293H10.0723H10.1154H10.1587H10.202H10.2455H10.2891H10.3329H10.3767H10.4207H10.4648H10.5091H10.5534H10.5979H10.6425H10.6872H10.732H10.777H10.8221H10.8672H10.9125H10.9579H11.0034H11.0491H11.0948H11.1407H11.1866H11.2327H11.2789H11.3251H11.3715H11.418H11.4646H11.5113H11.5581H11.605H11.652H11.6991H11.7463H11.7936H11.841H11.8885H11.9361H11.9838H12.0316H12.0795H12.1274H12.1755H12.2236H12.2719H12.3202H12.3686H12.4171H12.4657H12.5144H12.5632H12.612H12.661H12.71H12.7591H12.8082H12.8575H12.9068H12.9563H13.0058H13.0553H13.105H13.1547H13.2045H13.2544H13.3043H13.3543H13.4044H13.4546H13.5048H13.5551H13.6055H13.6559H13.7064H13.757H13.8076H13.8583H13.909H13.9599H14.0107H14.0617H14.1127H14.1637H14.2149H14.266H14.3173H14.3685H14.4199H14.4713H14.5227H14.5742H14.6258H14.6774H14.729H14.7807H14.8325H14.8843H14.9361H14.988H15.0399H15.0919H15.1439H15.196H15.2481H15.3003H15.3524H15.4047H15.4569H15.5092H15.5616H15.6139H15.6663H15.7188H15.7713H15.8238H15.8763H15.9289H15.9815H16.0341H16.0868H16.1394H16.1922H16.2449H16.2977H16.3504H16.4033H16.4561H16.5089H16.5618H16.6147H16.6676H16.7206H16.7735H16.8265H16.8795H16.9325H16.9855H17.0385H17.0916H17.1446H17.1977H17.2508H17.3038H17.3569H17.41H17.4631H17.5162H17.5694H17.6225H17.6756H17.7287H17.7819H17.835H17.8881H17.9413H17.9944H18.0475H18.1007H18.1538H18.2069H18.26H18.3131H18.3662H18.4193H18.4724H18.5255H18.5785H18.6316H18.6846H18.7376H18.7907H18.8437H18.8966H18.9496H19.0026H19.0555H19.1084H19.1613H19.2142H19.267H19.3199H19.3727H19.4254H19.4782H19.5309H19.5837H19.6363H19.689H19.7416H19.7942H19.8468H19.8993H19.9518H20.0043H20.0567H20.1091H20.1615H20.2138H20.2661H20.3184H20.3706H20.4228H20.4749H20.527H20.5791H20.6311H20.6831H20.735H20.7869H20.8387H20.8905H20.9423H20.994H21.0456H21.0972H21.1488H21.2003H21.2517H21.3031H21.3544H21.4057H21.4569H21.5081H21.5592H21.6103H21.6613H21.7122H21.7631H21.8139H21.8646H21.9153H21.9659H22.0165H22.067H22.1174H22.1678H22.2181H22.2683H22.3184H22.3685H22.4185H22.4685H22.5183H22.5681H22.6178H22.6675H22.717H22.7665H22.8159H22.8653H22.9145H22.9637H23.0128H23.0618H23.1107H23.1596H23.2083H23.257H23.3056H23.3541H23.4025H23.4508H23.499H23.5472H23.5952H23.6432H23.6911H23.7388H23.7865H23.8341H23.8816H23.929H23.9763H24.0235H24.0706H24.1176H24.1644H24.2112H24.2579H24.3045H24.351H24.3974H24.4436H24.4898H24.5359H24.5818H24.6276H24.6734H24.719H24.7645H24.8099H24.8552H24.9003H24.9454H24.9903H25.0351H25.0798H25.1244H25.1689H25.2132H25.2575H25.3016H25.3455H25.3894H25.4331H25.4767H25.5202H25.5636H25.6068H25.6499H25.6929H25.7357H25.7784H25.821H25.8634H25.9057H25.9479H25.99H26.0319H26.0736H26.1153H26.1568H26.1981H26.2393H26.2804H26.3213H26.3621H26.4028H26.4433H26.4837H26.5239H26.5639H26.6039H26.6436H26.6833H26.7227H26.7621H26.8012H26.8403H26.8791H26.9178H26.9564H26.9948H27.0331H27.0712H27.1091C27.6819 0 28.4934 0.168805 29.1997 0.706642C29.9771 1.29866 30.5 2.24564 30.5 3.5C30.5 4.32843 29.8284 5 29 5C28.1716 5 27.5 4.32843 27.5 3.5C27.5 3.30124 27.4621 3.20509 27.445 3.17006C27.4281 3.13548 27.4089 3.11377 27.3821 3.09336C27.3499 3.06884 27.3008 3.04279 27.2365 3.02337C27.2057 3.01404 27.1763 3.0078 27.1512 3.00407C27.1389 3.00225 27.1287 3.00119 27.121 3.0006L27.1121 3.00008C27.111 3.00004 27.1102 3.00002 27.1097 3.00001L27.1091 3H27.0712H27.0331H26.9948H26.9564H26.9178H26.8791H26.8403H26.8012H26.7621H26.7227H26.6833H26.6436H26.6039H26.5639H26.5239H26.4837H26.4433H26.4028H26.3621H26.3213H26.2804H26.2393H26.1981H26.1568H26.1153H26.0736H26.0319H25.99H25.9479H25.9057H25.8634H25.821H25.7784H25.7357H25.6929H25.6499H25.6068H25.5636H25.5202H25.4767H25.4331H25.3894H25.3455H25.3016H25.2575H25.2132H25.1689H25.1244H25.0798H25.0351H24.9903H24.9454H24.9003H24.8552H24.8099H24.7645H24.719H24.6734H24.6276H24.5818H24.5359H24.4898H24.4436H24.3974H24.351H24.3045H24.2579H24.2112H24.1644H24.1176H24.0706H24.0235H23.9763H23.929H23.8816H23.8341H23.7865H23.7388H23.6911H23.6432H23.5952H23.5472H23.499H23.4508H23.4025H23.3541H23.3056H23.257H23.2083H23.1596H23.1107H23.0618H23.0128H22.9637H22.9145H22.8653H22.8159H22.7665H22.717H22.6675H22.6178H22.5681H22.5183H22.4685H22.4185H22.3685H22.3184H22.2683H22.2181H22.1678H22.1174H22.067H22.0165H21.9659H21.9153H21.8646H21.8139H21.7631H21.7122H21.6613H21.6103H21.5592H21.5081H21.4569H21.4057H21.3544H21.3031H21.2517H21.2003H21.1488H21.0972H21.0456H20.994H20.9423H20.8905H20.8387H20.7869H20.735H20.6831H20.6311H20.5791H20.527H20.4749H20.4228H20.3706H20.3184H20.2661H20.2138H20.1615H20.1091H20.0567H20.0043H19.9518H19.8993H19.8468H19.7942H19.7416H19.689H19.6363H19.5837H19.5309H19.4782H19.4254H19.3727H19.3199H19.267H19.2142H19.1613H19.1084H19.0555H19.0026H18.9496H18.8966H18.8437H18.7907H18.7376H18.6846H18.6316H18.5785H18.5255H18.4724H18.4193H18.3662H18.3131H18.26H18.2069H18.1538H18.1007H18.0475H18V6.5H28C30.2091 6.5 32 8.29086 32 10.5V35.5323C32 37.7414 30.2091 39.5323 28 39.5323H27.2147L30.5776 45.3569C30.9918 46.0744 30.746 46.9918 30.0286 47.406C29.3111 47.8202 28.3937 47.5744 27.9795 46.8569L26.6187 44.5H4.78018L3.34755 46.9814C2.93334 47.6988 2.01595 47.9446 1.29851 47.5304C0.581074 47.1162 0.335261 46.1988 0.749475 45.4814L4.18419 39.5323H4C1.79086 39.5323 0 37.7414 0 35.5323V10.5C0 8.29086 1.79086 6.5 4 6.5H15V3H14.988H14.9361H14.8843H14.8325H14.7807H14.729H14.6774H14.6258H14.5742H14.5227H14.4713H14.4199H14.3685H14.3173H14.266H14.2149H14.1637H14.1127H14.0617H14.0107H13.9599H13.909H13.8583H13.8076H13.757H13.7064H13.6559H13.6055H13.5551H13.5048H13.4546H13.4044H13.3543H13.3043H13.2544H13.2045H13.1547H13.105H13.0553H13.0058H12.9563H12.9068H12.8575H12.8082H12.7591H12.71H12.661H12.612H12.5632H12.5144H12.4657H12.4171H12.3686H12.3202H12.2719H12.2236H12.1755H12.1274H12.0795H12.0316H11.9838H11.9361H11.8885H11.841H11.7936H11.7463H11.6991H11.652H11.605H11.5581H11.5113H11.4646H11.418H11.3715H11.3251H11.2789H11.2327H11.1866H11.1407H11.0948H11.0491H11.0034H10.9579H10.9125H10.8672H10.8221H10.777H10.732H10.6872H10.6425H10.5979H10.5534H10.5091H10.4648H10.4207H10.3767H10.3329H10.2891H10.2455H10.202H10.1587H10.1154H10.0723H10.0293H9.98648H9.94376H9.90117H9.85871H9.81639H9.7742H9.73214H9.69022H9.64844H9.60679H9.56528H9.52391H9.48268H9.44159H9.40064H9.35984H9.31917H9.27865H9.23828H9.19805H9.15797H9.11803H9.07824H9.0386H8.99911H8.95977H8.92058H8.88155H8.84266H8.80393H8.76536H8.72694H8.68867H8.65057H8.61262H8.57483H8.5372H8.49973H8.46242H8.42527H8.38828H8.35146H8.3148H8.27831H8.24199H8.20583H8.16984H8.13401H8.09836H8.06288H8.02756H7.99242H7.95746H7.92266H7.88804H7.85359H7.81933H7.78523H7.75132H7.71758H7.68402H7.65065H7.61745H7.58444H7.5516H7.51895H7.48649H7.45421H7.42212H7.39021H7.35849H7.32696H7.29561H7.26446H7.2335H7.20273H7.17215H7.14177H7.11158H7.08158H7.05178H7.02218H6.99277H6.96356H6.93456H6.90575H6.87714H6.84873H6.82053H6.79252H6.76473H6.73713H6.70975H6.68257H6.65559H6.62883H6.60227H6.57592H6.54979H6.52386H6.49815H6.47265H6.44736H6.42229H6.39744H6.3728H6.34837H6.32417H6.30018H6.27642H6.25287H6.22955H6.20645H6.18357H6.16091H6.13848H6.11627H6.09429H6.07254H6.05102H6.02972H6.00865H5.98782H5.96721H5.94684H5.9267H5.90679H5.88712H5.86768H5.84848H5.82952H5.81079H5.7923H5.77406H5.75605H5.73828H5.72075H5.70347H5.68643H5.66964H5.65309H5.63679H5.62073H5.60492H5.58936H5.57405H5.55899H5.54418H5.52962H5.51531H5.50126H5.48746H5.47392H5.46063H5.4476H5.43482H5.42231H5.41005H5.39806H5.38632H5.37485H5.36364C5.11887 3 4.98549 3.05175 4.91505 3.09018C4.84139 3.13037 4.77505 3.18999 4.7127 3.28158ZM6.51223 41.5H24.8867L23.7506 39.5323H7.64829L6.51223 41.5ZM4 14C4 12.8954 4.89543 12 6 12H26C27.1046 12 28 12.8954 28 14V22C28 23.1046 27.1046 24 26 24H6C4.89543 24 4 23.1046 4 22V14ZM6 31.5C7.10457 31.5 8 30.6046 8 29.5C8 28.3954 7.10457 27.5 6 27.5C4.89543 27.5 4 28.3954 4 29.5C4 30.6046 4.89543 31.5 6 31.5ZM28 29.5C28 30.6046 27.1046 31.5 26 31.5C24.8954 31.5 24 30.6046 24 29.5C24 28.3954 24.8954 27.5 26 27.5C27.1046 27.5 28 28.3954 28 29.5Z" fill="#011E41"/>
</svg>
