<svg width="48" height="48" viewBox="0 0 48 48" fill="none" xmlns="http://www.w3.org/2000/svg">
<path fill-rule="evenodd" clip-rule="evenodd" d="M10 0C7.79086 0 6 1.79086 6 4V34.4547C6 36.6638 7.79086 38.4547 10 38.4547H10.838L6.86363 45.3855C6.38633 46.2179 6.67187 47.2835 7.50141 47.7658C8.33094 48.248 9.39035 47.9641 9.86766 47.1317L11.5271 44.2379H36.7779L38.3543 46.9869C38.8316 47.8193 39.891 48.1031 40.7205 47.6209C41.5501 47.1387 41.8356 46.073 41.3583 45.2407L37.467 38.4547H39C41.2091 38.4547 43 36.6638 43 34.4547V4C43 1.79086 41.2091 0 39 0H10ZM34.7752 40.7454H13.5298L14.8433 38.4547H33.4616L34.7752 40.7454ZM12.625 6.40285C11.5204 6.40285 10.625 7.29828 10.625 8.40285V18.3727C10.625 19.4773 11.5204 20.3727 12.625 20.3727H36.375C37.4796 20.3727 38.375 19.4773 38.375 18.3727V8.40285C38.375 7.29828 37.4796 6.40285 36.375 6.40285H12.625ZM15.25 26.7756C15.25 28.0615 14.2147 29.1039 12.9375 29.1039C11.6603 29.1039 10.625 28.0615 10.625 26.7756C10.625 25.4897 11.6603 24.4473 12.9375 24.4473C14.2147 24.4473 15.25 25.4897 15.25 26.7756ZM36.0625 29.1039C37.3397 29.1039 38.375 28.0615 38.375 26.7756C38.375 25.4897 37.3397 24.4473 36.0625 24.4473C34.7853 24.4473 33.75 25.4897 33.75 26.7756C33.75 28.0615 34.7853 29.1039 36.0625 29.1039ZM25.0781 33.1784C27.3132 33.1784 29.125 31.3542 29.125 29.1039C29.125 26.8536 27.3132 25.0293 25.0781 25.0293C22.8431 25.0293 21.0312 26.8536 21.0312 29.1039C21.0312 31.3542 22.8431 33.1784 25.0781 33.1784Z" fill="#011E41"/>
<path d="M24.9258 30.1936L23.9668 27.6663H23.9512C23.9564 27.7196 23.9609 27.7847 23.9648 27.8616C23.9688 27.9384 23.972 28.0224 23.9746 28.1135C23.9772 28.2034 23.9785 28.2952 23.9785 28.3889V30.1936H23.6699V27.3381H24.1621L25.0664 29.7131H25.0801L25.998 27.3381H26.4863V30.1936H26.1582V28.3655C26.1582 28.2808 26.1595 28.1962 26.1621 28.1116C26.1647 28.0256 26.168 27.9449 26.1719 27.8694C26.1758 27.7926 26.1797 27.7262 26.1836 27.6702H26.168L25.1973 30.1936H24.9258Z" fill="#011E41"/>
</svg>
