<svg width="32" height="42" viewBox="0 0 32 42" fill="none" xmlns="http://www.w3.org/2000/svg">
<path fill-rule="evenodd" clip-rule="evenodd" d="M4 0.5C1.79086 0.5 0 2.29086 0 4.5V29.5323C0 31.7414 1.79086 33.5323 4 33.5323H4.18419L0.749475 39.4814C0.335261 40.1988 0.581074 41.1162 1.29851 41.5304C2.01595 41.9446 2.93334 41.6988 3.34755 40.9814L4.78018 38.5H26.6187L27.9795 40.8569C28.3937 41.5744 29.3111 41.8202 30.0286 41.406C30.746 40.9918 30.9918 40.0744 30.5776 39.3569L27.2147 33.5323H28C30.2091 33.5323 32 31.7414 32 29.5323V4.5C32 2.29086 30.2091 0.5 28 0.5H4ZM24.8867 35.5H6.51223L7.64829 33.5323H23.7506L24.8867 35.5ZM6 6C4.89543 6 4 6.89543 4 8V16C4 17.1046 4.89543 18 6 18H26C27.1046 18 28 17.1046 28 16V8C28 6.89543 27.1046 6 26 6H6ZM8 23.5C8 24.6046 7.10457 25.5 6 25.5C4.89543 25.5 4 24.6046 4 23.5C4 22.3954 4.89543 21.5 6 21.5C7.10457 21.5 8 22.3954 8 23.5ZM26 25.5C27.1046 25.5 28 24.6046 28 23.5C28 22.3954 27.1046 21.5 26 21.5C24.8954 21.5 24 22.3954 24 23.5C24 24.6046 24.8954 25.5 26 25.5ZM16.5 29C18.433 29 20 27.433 20 25.5C20 23.567 18.433 22 16.5 22C14.567 22 13 23.567 13 25.5C13 27.433 14.567 29 16.5 29Z" fill="#011E41"/>
<path d="M16.3477 27L15.3887 24.4727H15.373C15.3783 24.526 15.3828 24.5911 15.3867 24.668C15.3906 24.7448 15.3939 24.8288 15.3965 24.9199C15.3991 25.0098 15.4004 25.1016 15.4004 25.1953V27H15.0918V24.1445H15.584L16.4883 26.5195H16.502L17.4199 24.1445H17.9082V27H17.5801V25.1719C17.5801 25.0872 17.5814 25.0026 17.584 24.918C17.5866 24.832 17.5898 24.7513 17.5938 24.6758C17.5977 24.599 17.6016 24.5326 17.6055 24.4766H17.5898L16.6191 27H16.3477Z" fill="#011E41"/>
</svg>
