<svg width="733" height="733" viewBox="0 0 733 733" fill="none" xmlns="http://www.w3.org/2000/svg">
<path d="M367.008 0C231.641 0 122 116.379 122 259.709C122 383.131 303.153 652.793 353.992 725.99C355.412 728.144 357.344 729.912 359.616 731.136C361.888 732.359 364.428 733 367.008 733C369.588 733 372.128 732.359 374.4 731.136C376.672 729.912 378.604 728.144 380.024 725.99C430.863 652.793 612.016 383.131 612.016 259.709C612.016 116.379 502.375 0 367.008 0Z" fill="#FFB30F"/>
<ellipse cx="366.25" cy="244.333" rx="183.25" ry="183.25" fill="url(#paint0_linear)"/>
<path d="M276.504 323L255.879 255.793H255.352C256.094 269.465 256.465 278.586 256.465 283.156V323H240.234V237.336H264.961L285.234 302.844H285.586L307.09 237.336H331.816V323H314.883V282.453C314.883 280.539 314.902 278.332 314.941 275.832C315.02 273.332 315.293 266.691 315.762 255.91H315.234L293.145 323H276.504ZM405.879 323L399.668 302.609H368.438L362.227 323H342.656L372.891 236.984H395.098L425.449 323H405.879ZM395.332 287.375C389.59 268.898 386.348 258.449 385.605 256.027C384.902 253.605 384.395 251.691 384.082 250.285C382.793 255.285 379.102 267.648 373.008 287.375H395.332ZM505.547 323H484.805L464.883 290.598L444.961 323H425.508L453.926 278.82L427.324 237.336H447.363L465.82 268.156L483.926 237.336H503.496L476.602 279.816L505.547 323Z" fill="#323232"/>
<path d="M440.99 198.439L376.753 86.6506C375.764 84.9324 374.342 83.5058 372.63 82.514C370.918 81.5221 368.976 81 367 81C365.024 81 363.082 81.5221 361.37 82.514C359.658 83.5058 358.236 84.9324 357.247 86.6506L293.01 198.439C292.349 199.584 292.001 200.884 292 202.208C291.999 203.532 292.346 204.832 293.005 205.978C293.665 207.124 294.614 208.076 295.756 208.736C296.898 209.397 298.194 209.743 299.512 209.74H434.488C435.806 209.743 437.102 209.397 438.244 208.736C439.386 208.076 440.335 207.124 440.995 205.978C441.654 204.832 442.001 203.532 442 202.208C441.999 200.884 441.651 199.584 440.99 198.439ZM367 187.765C365.763 187.765 364.555 187.397 363.527 186.707C362.499 186.017 361.697 185.037 361.224 183.89C360.751 182.742 360.627 181.48 360.868 180.262C361.11 179.044 361.705 177.926 362.579 177.047C363.454 176.169 364.568 175.571 365.78 175.329C366.993 175.087 368.25 175.211 369.392 175.686C370.535 176.162 371.511 176.966 372.198 177.999C372.885 179.031 373.252 180.245 373.252 181.487C373.247 183.151 372.587 184.745 371.415 185.921C370.244 187.097 368.657 187.761 367 187.765ZM373.252 159.512C373.252 161.177 372.593 162.774 371.421 163.952C370.248 165.129 368.658 165.791 367 165.791C365.342 165.791 363.752 165.129 362.579 163.952C361.407 162.774 360.748 161.177 360.748 159.512V124.981C360.748 123.316 361.407 121.719 362.579 120.541C363.752 119.364 365.342 118.702 367 118.702C368.658 118.702 370.248 119.364 371.421 120.541C372.593 121.719 373.252 123.316 373.252 124.981V159.512Z" fill="#FFB30F"/>
<defs>
<linearGradient id="paint0_linear" x1="366.25" y1="61.083" x2="366.25" y2="427.583" gradientUnits="userSpaceOnUse">
<stop offset="0.9995" stop-color="white"/>
<stop offset="0.9996" stop-color="white" stop-opacity="0.814583"/>
<stop offset="0.9997" stop-color="white" stop-opacity="0.992595"/>
<stop offset="0.9998" stop-color="white" stop-opacity="0.996734"/>
<stop offset="0.9999" stop-color="white"/>
<stop offset="1" stop-color="white" stop-opacity="0"/>
<stop offset="1" stop-color="white" stop-opacity="0"/>
<stop offset="1" stop-color="white" stop-opacity="0"/>
</linearGradient>
</defs>
</svg>
