<svg width="48" height="48" viewBox="0 0 48 48" fill="none" xmlns="http://www.w3.org/2000/svg">
<path d="M46.464 17.536C46.1212 17.1932 45.6563 17.0007 45.1715 17.0007C44.6867 17.0007 44.2218 17.1932 43.879 17.536L40 21.414L36.121 17.536C35.7768 17.1999 35.314 17.013 34.833 17.0159C34.352 17.0187 33.8914 17.2111 33.5513 17.5513C33.2111 17.8914 33.0187 18.352 33.0159 18.833C33.013 19.314 33.1999 19.7768 33.536 20.121L37.414 24L33.536 27.879C33.1999 28.2232 33.013 28.686 33.0159 29.167C33.0187 29.648 33.2111 30.1086 33.5513 30.4487C33.8914 30.7889 34.352 30.9813 34.833 30.9841C35.314 30.987 35.7768 30.8001 36.121 30.464L40 26.586L43.879 30.464C44.2232 30.8001 44.686 30.987 45.167 30.9841C45.648 30.9813 46.1086 30.7889 46.4487 30.4487C46.7889 30.1086 46.9813 29.648 46.9841 29.167C46.987 28.686 46.8001 28.2232 46.464 27.879L42.586 24L46.464 20.121C46.8068 19.7782 46.9993 19.3133 46.9993 18.8285C46.9993 18.3437 46.8068 17.8788 46.464 17.536V17.536ZM14.464 17.536C14.1212 17.1932 13.6563 17.0007 13.1715 17.0007C12.6867 17.0007 12.2218 17.1932 11.879 17.536L8 21.414L4.121 17.536C3.77683 17.1999 3.31404 17.013 2.833 17.0159C2.35195 17.0187 1.89142 17.2111 1.55126 17.5513C1.21111 17.8914 1.01874 18.352 1.01589 18.833C1.01303 19.314 1.19991 19.7768 1.536 20.121L5.414 24L1.536 27.879C1.19991 28.2232 1.01303 28.686 1.01589 29.167C1.01874 29.648 1.21111 30.1086 1.55126 30.4487C1.89142 30.7889 2.35195 30.9813 2.833 30.9841C3.31404 30.987 3.77683 30.8001 4.121 30.464L8 26.586L11.879 30.464C12.2232 30.8001 12.686 30.987 13.167 30.9841C13.648 30.9813 14.1086 30.7889 14.4487 30.4487C14.7889 30.1086 14.9813 29.648 14.9841 29.167C14.987 28.686 14.8001 28.2232 14.464 27.879L10.586 24L14.464 20.121C14.8068 19.7782 14.9993 19.3133 14.9993 18.8285C14.9993 18.3437 14.8068 17.8788 14.464 17.536V17.536ZM30.464 17.536C30.1212 17.1932 29.6563 17.0007 29.1715 17.0007C28.6867 17.0007 28.2218 17.1932 27.879 17.536L24 21.414L20.121 17.536C19.7768 17.1999 19.314 17.013 18.833 17.0159C18.352 17.0187 17.8914 17.2111 17.5513 17.5513C17.2111 17.8914 17.0187 18.352 17.0159 18.833C17.013 19.314 17.1999 19.7768 17.536 20.121L21.414 24L17.536 27.879C17.1999 28.2232 17.013 28.686 17.0159 29.167C17.0187 29.648 17.2111 30.1086 17.5513 30.4487C17.8914 30.7889 18.352 30.9813 18.833 30.9841C19.314 30.987 19.7768 30.8001 20.121 30.464L24 26.586L27.879 30.464C28.2232 30.8001 28.686 30.987 29.167 30.9841C29.648 30.9813 30.1086 30.7889 30.4487 30.4487C30.7889 30.1086 30.9813 29.648 30.9841 29.167C30.987 28.686 30.8001 28.2232 30.464 27.879L26.586 24L30.464 20.121C30.8068 19.7782 30.9993 19.3133 30.9993 18.8285C30.9993 18.3437 30.8068 17.8788 30.464 17.536V17.536ZM2 14H46C46.5304 14 47.0391 13.7893 47.4142 13.4142C47.7893 13.0391 48 12.5304 48 12C48 11.4696 47.7893 10.9609 47.4142 10.5858C47.0391 10.2107 46.5304 10 46 10H2C1.46957 10 0.960859 10.2107 0.585786 10.5858C0.210714 10.9609 0 11.4696 0 12C0 12.5304 0.210714 13.0391 0.585786 13.4142C0.960859 13.7893 1.46957 14 2 14V14ZM46 34H2C1.46957 34 0.960859 34.2107 0.585786 34.5858C0.210714 34.9609 0 35.4696 0 36C0 36.5304 0.210714 37.0391 0.585786 37.4142C0.960859 37.7893 1.46957 38 2 38H46C46.5304 38 47.0391 37.7893 47.4142 37.4142C47.7893 37.0391 48 36.5304 48 36C48 35.4696 47.7893 34.9609 47.4142 34.5858C47.0391 34.2107 46.5304 34 46 34Z" fill="#011E41"/>
</svg>
