<svg width="48" height="48" viewBox="0 0 48 48" fill="none" xmlns="http://www.w3.org/2000/svg">
<path d="M12.0008 28C12.004 29.0599 12.4264 30.0755 13.1759 30.8249C13.9253 31.5744 14.9409 31.9968 16.0008 32H32.0008C33.0617 32 34.0791 31.5786 34.8292 30.8284C35.5794 30.0783 36.0008 29.0609 36.0008 28C36.0008 26.9391 35.5794 25.9217 34.8292 25.1716C34.0791 24.4214 33.0617 24 32.0008 24H16.0008C14.9409 24.0032 13.9253 24.4256 13.1759 25.1751C12.4264 25.9245 12.004 26.9401 12.0008 28ZM24.0008 15C24.5312 15 25.04 14.7893 25.415 14.4142C25.7901 14.0391 26.0008 13.5304 26.0008 13V2C26.0008 1.46957 25.7901 0.960859 25.415 0.585786C25.04 0.210714 24.5312 0 24.0008 0C23.4704 0 22.9617 0.210714 22.5866 0.585786C22.2115 0.960859 22.0008 1.46957 22.0008 2V13C22.0008 13.5304 22.2115 14.0391 22.5866 14.4142C22.9617 14.7893 23.4704 15 24.0008 15ZM36.0008 19C36.2635 19.0003 36.5236 18.9487 36.7663 18.8482C37.009 18.7476 37.2294 18.6 37.4148 18.414L44.4148 11.414C44.7791 11.0368 44.9807 10.5316 44.9762 10.0072C44.9716 9.4828 44.7613 8.98118 44.3904 8.61036C44.0196 8.23955 43.518 8.02921 42.9936 8.02465C42.4692 8.02009 41.964 8.22168 41.5868 8.586L34.5868 15.586C34.3072 15.8657 34.1168 16.222 34.0396 16.6099C33.9625 16.9978 34.0021 17.3999 34.1535 17.7653C34.3048 18.1307 34.5611 18.443 34.8899 18.6628C35.2187 18.8826 35.6053 18.9999 36.0008 19ZM10.5868 18.414C10.964 18.7783 11.4692 18.9799 11.9936 18.9753C12.518 18.9708 13.0196 18.7605 13.3905 18.3896C13.7613 18.0188 13.9716 17.5172 13.9762 16.9928C13.9807 16.4684 13.7791 15.9632 13.4148 15.586L6.41481 8.586C6.03761 8.22168 5.53241 8.02009 5.00801 8.02465C4.48362 8.02921 3.98199 8.23955 3.61118 8.61036C3.24036 8.98118 3.03002 9.4828 3.02547 10.0072C3.02091 10.5316 3.2225 11.0368 3.58681 11.414L10.5868 18.414Z" fill="#011E41"/>
<path d="M46 35H2C0.89543 35 0 35.8954 0 37V46C0 47.1046 0.89543 48 2 48H46C47.1046 48 48 47.1046 48 46V37C48 35.8954 47.1046 35 46 35Z" fill="#011E41"/>
</svg>
