<?xml version="1.0" encoding="utf-8"?>
<!-- Generator: Adobe Illustrator 21.1.0, SVG Export Plug-In . SVG Version: 6.00 Build 0)  -->
<svg version="1.1" id="Layer_1" xmlns="http://www.w3.org/2000/svg" xmlns:xlink="http://www.w3.org/1999/xlink" x="0px" y="0px"
	 viewBox="0 0 1024 768" style="enable-background:new 0 0 1024 768;" xml:space="preserve">
<style type="text/css">
	.st0{fill:#0CB7E6;}
	.st1{fill:#DC0C22;}
	.st2{fill:#F9FBFC;}
</style>
<g>
	<path class="st0" d="M438.2,139.2c23.5-22.9,46.3-46.6,69.9-69.5c12.8,12,24.8,24.7,37.3,37c26.5,26.6,53.1,53.2,79.7,79.7
		c-2.8,1.8-5.5,3.6-8.2,5.6c-1-1.9-2-3.8-3-5.6c-8.6,0-17.3,0-25.9,0c-3.2,0.1-6.8,0.2-9.3,2.5c-1.8,2-1.6,5-0.6,7.3
		c1.9,4,6.7,5.3,8.9,9.1c1,3.2,0.7,6.5,0.8,9.8c0,22,0.1,44.1,0,66.1c0,8.4-3.9,16.5-2.9,25c0.7,4.2,2.6,8.6,6.5,10.7
		c9.7,5.5,22.8,2.9,30.3-5.1c1.1-1.3,2.7-2.7,2.9-4.5c-0.8-3.2-2.9-5.8-3.6-9.1c-2.2-9.8-1.4-20-1.5-30c0.1-8.9-0.2-17.9,0.1-26.8
		c-0.1-2.3,2-3.8,3.7-5.1c8-5.6,19.6-6.6,27.8-1c6.9,5.2,11.1,13.5,11.9,22c0.8,10.7-2.2,21.2-5.7,31.2c-4.1,11.1-9.3,22-16.2,31.7
		c-2.6,3.9-5.7,7.6-7.1,12.1c-1.1,3.7,2.2,7.2,5.5,8.3c3.5,0.7,7.5,0.5,10.6-1.5c4.7-2.9,8-7.4,11.4-11.6
		c10.3-12.9,18.9-27,26.2-41.8c4.4-8.7,6.4-18.4,8.1-27.9c6.9,5.6,12.7,12.4,19.1,18.5c3.8,4,8.2,7.5,11.4,11.9
		c0.6,8.8-1.1,19.1,5.3,26.3c6.1,6.9,16.5,5.6,24.2,2.5c14,14.7,28.9,28.6,42.8,43.4c-10.8,1.7-22.2,4-30.6,11.5
		c-6.3,5.4-10.1,13.8-9.3,22.2c1.2,7.3,6.8,13.3,13.6,16c4.1,1.8,8.7,1.8,13.1,1.7c0.9-4.1,1.2-9,5-11.6c4.6-3,10.4-3.3,15.8-3.5
		c6.6,0,14.2,0.9,18.3,6.8c-10.7,4-21.9,6.2-32.6,10.3c-6.9,2.7-14,5.4-19.9,10c-9,7-16,17.5-16.4,29.2c-0.7,9.5,3.3,19,10,25.5
		c8.2,7.7,19.2,12.6,30.5,12.2c11.8,0.2,22.6-5.7,32.2-12.1c2.6,4.8,5.6,10.5,11.4,11.9c5.1,0.8,11,0.7,15-3c4-3.7,5-9.7,3.7-14.8
		c-1.1-3.5-4.3-5.9-5.6-9.2c-1.4-4.3-0.9-8.9-1-13.4c0.1-12-0.2-24.1,0.2-36.1c11.5,10.6,22.1,22,33.3,32.9
		c11.2,11.1,22.4,22.3,33.5,33.5c3.8,3.6,7.5,7.3,10.9,11.3c-3.2,0.4-6.4,0.6-9.5,0.6c-22-0.1-44,0.1-66-0.1
		c-6.3-0.6-12.7-0.8-19-0.1c-8.7,0.2-17.3,0.1-26,0c-8-0.6-16-0.6-24,0c-22.3,0.1-44.7,0-67,0.1c-2.7,0-5.5-0.3-8.1-0.6
		c10.1-17.4,21.7-34.8,24.5-55.1c1.5-8.1,1.5-16.4,1.4-24.6c-0.1-16.7-8.3-33.1-21.5-43.3c-9.5-7.2-22.3-9.7-33.9-7.2
		c-5.5,1.1-10.3,4.3-14.9,7.5c-1.1-1.8-2-3.8-3.6-5.2c-5.6-0.4-11.3,0-16.9-0.1c-4.2,0.1-8.8-0.4-12.4,2c-2.6,1.7-2.8,5.5-1.2,8
		c1.8,2.9,5,4.4,7,7.1c1.5,2.5,1.1,5.5,1.2,8.3c0,22,0.1,43.9-0.1,65.9c0,8.4-4.3,16.5-2.2,24.9c1,5.2,5.4,9.4,10.6,10.5
		c4.9,1,10.2,0.7,14.7-1.7c4.2-2.1,7.3-5.8,10.1-9.4c-4.9-8.1-5.1-17.9-5.1-27.1c0-11.4,0-22.7,0-34.1c0-1.7,0.1-3.6,1.4-4.9
		c6.8-7.1,19.4-8.8,27.1-2.2c7.5,6.4,10.5,16.7,10.1,26.2c-1,12.3-5,24.2-9.7,35.5c-2.5,5.9-5.3,11.8-8.9,17.1
		c-2.2,3.8-7.1,2.2-10.7,2.5c-12,0.5-24-1.3-36-0.1c-10.3,0.3-20.7,0-31,0.1c-7.7-0.1-15.4,0.4-23-0.5
		c10.8-17.6,22.3-35.7,25.1-56.6c2.4-16.9,2.7-35.5-6.6-50.6c-7-13.1-20.5-23.1-35.6-23.9c-9.7-0.9-19.4,2.2-26.9,8.4
		c-1.2-2.1-1.9-5.4-4.9-5.3c-5.7-0.3-11.3,0-17-0.1c-4.2,0.1-9.1-0.1-12.4,2.9c-0.5,2.2-0.6,4.6,0,6.8c2,3.3,5.9,4.9,7.6,8.4
		c1.1,4.6,1,9.5,1,14.2c0,16.7,0,33.3,0,50c0.1,6.8-0.6,13.6-2,20.3c-1,4.8-1.5,9.9-0.3,14.8c1.7,5.8,7.6,9.3,13.4,9.6
		c8.6,1,17.6-4,21.3-11.8c-0.9-3.8-3.4-7-3.7-11c-2.1-15.9-0.9-32-1.2-48c-0.2-3,0.5-6.2,3.1-8.1c6.9-6,18.3-7.4,25.6-1.3
		c5.2,4.7,8.5,11.3,9.7,18.1c1.4,9.2-0.6,18.4-3.1,27.3c-3.8,12.6-8.9,24.9-16.2,35.9c-15.2,1.6-30.5-1-45.8,0.4c-9,0.2-18,0-27,0.1
		c-6,0.2-12-1-18-0.6c-11,0.9-22,0.5-33,0.4c-13-1.2-26,0.5-39,0.1c-14.3-0.2-28.6,0.4-42.9-0.3c1.7-2.6,3.7-5.2,4.4-8.3
		c0.8-4.9,0-9.9-1.4-14.6c-13.2-45.8-26.2-91.7-39.5-137.6c-1.7-5.4-3-11.2-1.6-16.8c1.2-4.7,2.5-9.5,1.7-14.3
		c-0.6-5.6-6.2-9.6-11.7-9.2c-6.9-0.7-12,5.1-15.5,10.3c-11.4,18.1-22.2,36.6-33.6,54.7c-6-7.1-11.1-14.9-16.6-22.3
		c3.4-3.4,6.2-7.5,10.3-10.2c5.1-0.8,10.7-0.1,15.5-2.7c6.1-3.1,9.9-9.5,10.8-16.1c0.9-3.9,0.1-8.7,3.5-11.5
		c15.4-15,30.1-30.7,45.7-45.3c10.7,13.8,20.5,28.1,31,42c2.6,3,5.6,7,10,6.9c3.8,0.3,8.5-0.7,10.2-4.6c2.8-5.3-1.3-10.8-1.5-16.3
		c-0.1-5.5,1.7-10.9,4.9-15.4c10-14.6,20.4-28.9,30.5-43.4c1.7-3.1,5.2-2.7,8.1-1.7c5.6,18.7,11.8,37.2,17.4,55.8
		c2.5,8,5.5,16,5.8,24.4c0.2,5.5,0.7,11,1.2,16.5c0.6,5.8,6,9.7,11.4,10.7c5.4,1,11.3,0.8,16.5-1.4c5.1-2.3,8-8,8-13.4
		c0.1-4.5-1.3-8.7-2.6-12.9c-14.3-46.4-28.7-92.8-43-139.2c-1.2-3.9-2.7-7.8-3.3-11.9C435.2,142.1,436.9,140.6,438.2,139.2
		L438.2,139.2z"/>
	<path class="st1" d="M297.6,118.5c1-3.7,5.4-3.7,8.4-3.3c5.2,1.1,9.4,5,12.8,8.9c16.8,21,33,42.4,49.8,63.4
		c11.8-18.2,23.8-36.2,35.6-54.3c4.2-6.2,7.8-13.5,14.5-17.4c4.6-2.5,12.4-0.7,13.3,5.1c0.5,3.9-1,7.6-1.9,11.3
		c-1.7,5.7-1.2,11.9,0.5,17.6c13.5,43.9,27.1,87.7,40.6,131.6c2.3,7.8,5.3,15.5,6.8,23.6c0.6,4,0,9-3.8,11.3
		c-4.9,2.3-10.6,2.5-15.8,1c-2.6-0.9-5.5-2.7-5.8-5.6c-0.4-4.6-0.6-9.2-1-13.8c-0.2-12.2-4.9-23.7-8.3-35.2
		c-4.9-15.5-9.7-31-14.6-46.5c-1.2-6-9.1-8.8-14.1-5.6c-2.5,1.5-4,4.1-5.7,6.3c-9.4,13.3-18.7,26.6-28.1,39.9
		c-5.3,7.4-8,17.2-4.9,26c0.9,2.7,1,5.6,0.6,8.3c-3.1,0.4-6.9,1.3-9.1-1.7c-6.1-6.9-11-15-16.7-22.3c-10.9-15.1-21.9-30-32.8-45.1
		c-2.6-3.3-5.9-7.4-10.7-7c-4.8,0.2-7.7,4.8-9.2,8.9c-4.8,13.7-9.1,27.5-13.9,41.2c-2.4,8.2-6.2,16-6.9,24.6
		c-1.2,7.1-0.3,14.8-4.1,21.2c-2.6,5.1-8.8,7.1-14.2,7.1c-3.2-0.4-7.6-0.5-9-4.1c-1.9-5-0.3-10.5,1.1-15.4
		c15.4-48.9,30.8-97.7,46.3-146.5c1.5-4.9,3-10,3.2-15.2C300.7,130.7,295.8,124.9,297.6,118.5L297.6,118.5z"/>
	<path class="st2" d="M530.4,125.3c10.8-3.7,23.7,4.2,24.9,15.7c1.2,11.7-11.1,21.4-22.2,19.2c-7.2-1.1-13.7-6.4-15.5-13.5
		c-0.6-4-0.6-8.3,1.3-11.9C521.2,130.1,525.5,126.9,530.4,125.3L530.4,125.3z"/>
	<path class="st1" d="M738.8,130.2c7.9-2.8,18.1,3.1,18.1,11.8c0.7,8.9-9.6,15.3-17.6,12.7c-6.3-1.5-11.2-7.9-10-14.5
		C730.2,135.4,734.3,131.7,738.8,130.2L738.8,130.2z"/>
	<path class="st1" d="M531.4,130.3c7.2-2.7,16.3,1.5,18.3,9c2.3,7.1-3.8,14.5-10.7,15.6c-6.6,1.6-13.8-2.4-16.2-8.6
		c-1-3.8-0.7-8.4,2.2-11.5C526.7,133,528.9,131.3,531.4,130.3L531.4,130.3z"/>
	<path class="st2" d="M522.6,185.6c8.9-4.9,21.8-3.7,27.9,5c3.5,4.7,2.3,11,1.4,16.4c-1.7,7.3-1.1,14.7-1.2,22.1c0,16.7,0,33.3,0,50
		c0,4,0.1,8.1,1.2,11.9c1.4,4.1,5.9,5.5,9.6,7c-2.4,7-6,14-12.3,18.2c-6.8,4.5-16.5,4.9-23.1-0.2c-4.8-4.1-6.5-10.8-6.6-16.9
		c0.1-28.3,0-56.7,0-85c-0.1-2,0-3.9-0.4-5.9c-1-3.2-3.8-5.2-6-7.4C514,194.7,517.2,188.8,522.6,185.6L522.6,185.6z"/>
	<path class="st1" d="M528.1,188.8c5-1.1,10.9-1.3,15.3,1.8c2.8,1.8,4.6,5.1,4.4,8.5c-0.2,5.4-2.4,10.5-2.2,15.9c0,22.7,0,45.3,0,68
		c0.1,3.8,0.5,7.8,2.1,11.2c1.5,3,4.4,4.9,7,6.9c-2.6,5-5.9,10.1-11.4,12.2c-4.8,1.6-10.9,1.8-14.8-1.9c-2.9-3.4-3.9-8-4-12.4
		c-0.1-29.6,0.1-59.3-0.1-88.9c0.3-4.8-3.1-8.4-5.5-12.1C520.5,193.9,523.5,189.8,528.1,188.8L528.1,188.8z"/>
	<path class="st1" d="M624.7,192.7c15.9-8.7,37.3-5.3,50.1,7.5c10.9,10.1,16.7,25,16.7,39.8c0.1,15.6-2.3,31.7-9.7,45.7
		c-8,16-17.8,31-29.5,44.5c-1.7,1.9-3.6,3.7-6,4.9c-2.2,1.1-4.8,0.4-7.1,0.2c-0.2-4.6,3.3-8,5.5-11.6c6.6-8.9,11.5-19,15.6-29.3
		c4.3-11.3,8.3-23.2,7.8-35.4c-0.5-11.5-6.2-23-16-29.2c-9.1-5.2-20.9-4.3-29.9,0.7c-4,2.5-8.7,6.2-8.2,11.5c0,14.7,0,29.4,0,44.1
		c0.4,7.1,0.9,14.6,4.8,20.8c-3.7,3.6-8,7-13.3,7.4c-5.4,0.6-12.7,0-14.9-5.9c-2.9-8.1,1.9-16.3,1.9-24.6
		c0.3-23.6,0.1-47.2,0.1-70.8c-0.1-4,0.2-8.3-1.8-11.9c-2.8-3.1-6.6-5.1-9.2-8.3c2-0.8,4.1-1.5,6.3-1.4c7.6,0,15.2,0,22.8,0
		c1.5,4,3.1,7.9,5.1,11.6C618,199,620.4,194.8,624.7,192.7L624.7,192.7z"/>
	<path class="st1" d="M736.5,188.5c4.7-0.7,10-0.8,14,2.2c3,2,4.8,5.7,4.3,9.2c-0.5,5.1-2.2,10-2.2,15.1c0.1,20.7,0,41.3,0,62
		c-0.1,5.8-0.3,11.9,2.2,17.3c1.4,3.1,4.4,4.9,7,6.9c-2.6,5-5.8,10.3-11.4,12.2c-5.1,1.9-12.2,1.7-15.6-3.1
		c-2.9-3.8-3.2-8.7-3.1-13.3c0-28.3,0-56.7,0-85c0.1-3.7-0.8-7.5-3.2-10.4c-0.8-1.2-2.1-2.1-2.3-3.6
		C727.5,193.3,731.5,189.2,736.5,188.5L736.5,188.5z"/>
	<path class="st1" d="M198.9,297.8c2.5-2.8,7-2.3,10.1-0.7c5.1,3,8.7,8,12.1,12.7c13.4,18.4,26.7,36.8,40,55.2
		c12.5-20.2,24.8-40.6,37.2-60.9c2.5-3.5,5.4-7.3,9.8-8.5c3.3-0.2,7.9,0.8,8.7,4.6c1.6,4.7-0.9,9.4-1.7,14
		c-1.4,5.4-0.2,10.9,1.2,16.1c12.9,44.6,25.6,89.2,38.4,133.7c1.4,4.9,3.1,9.7,3.5,14.8c0.2,4.3-2.1,9.1-6.6,10
		c-4.5,0.7-9.9,1.2-13.7-1.9c-2.8-2.2-2.3-6-2.5-9.1c-0.7-7.8-0.5-15.8-2.8-23.4c-5.4-20-11.7-39.8-17.2-59.8
		c-0.9-3.2-2.1-7.2-5.7-8.2c-2.7-0.5-5.9-1-8.1,0.9c-3.2,2.6-5.1,6.3-7.3,9.7c-6.9,10.7-13.9,21.4-20.9,32
		c-3.7,5.3-6.4,11.4-6.8,17.9c-0.6,5.5,2.4,10.6,2.1,16.2c-2,0.4-4.2,1.9-6.3,0.9c-2.7-1.8-4.3-4.6-6.1-7.2
		c-13.6-20.1-27.1-40.2-40.8-60.2c-2.1-3.4-6-6.3-10.2-5.1c-3.7,1.5-5.5,5.3-6.7,8.8c-4.2,13.5-8.4,26.9-12.6,40.4
		c-2.3,7.6-5.2,15.2-5.8,23.2c-1,7.1,0,15.3-5,21.1c-3.3,4.2-9.2,4.8-14.1,4.1c-2.4-0.4-4.7-2.1-5.2-4.6c-1.1-5.4,0.7-10.9,2.1-16
		c13.8-46.9,27.6-93.8,41.3-140.7c1.6-5.9,2.6-12.3,0.5-18.2C198.4,305.9,197.3,301.6,198.9,297.8L198.9,297.8z"/>
	<path class="st2" d="M410.5,365.4c13.4-5.7,28.5-5.7,42.7-3.7c8.7,1.5,17.6,4.6,23.7,11.2c4.3,4.9,6.9,11.4,6.8,17.9
		c0,19.4,0,38.7,0,58c0,4.7-0.2,9.6,1,14.2c1.4,3.6,5,6.1,5.8,10c0.7,4.6,0.5,9.8-3,13.3c-3.9,4.5-10.5,5-16,3.9
		c-5.7-1.5-8.4-7.2-11.3-11.8c-6.4,4-12.8,8.3-20.2,10.2c-11.7,3.5-24.9,1.9-35.2-4.8c-8.6-5.3-15.4-14-16.9-24.2
		c-2.5-14.9,6-29.7,18.2-37.7c15.3-9.6,33.3-12.9,50.2-18.7c-3.6-5.9-11.1-6.7-17.4-6.9c-5.5,0.1-11.4,0.3-16.2,3.2
		c-4,2.5-4.5,7.7-5.5,11.9c-6.6,0.4-13.7-0.7-18.9-5.2c-5.5-4.3-9.2-11.5-7.6-18.5C392.5,377.5,400.9,369.2,410.5,365.4L410.5,365.4
		z"/>
	<path class="st1" d="M414.8,368.8c10.2-3.9,21.3-3.8,32-3.2c9,1,18.6,2.8,25.3,9.3c5.5,4.6,7.2,12.2,7.2,19c0,20.7,0,41.4,0,62.1
		c0,3.4,0.1,7,1.5,10.2c1.5,2.8,3.9,5,5.3,7.9c0.8,3.5,0.1,7.7-2.8,10c-4.5,3-11.4,3-14.9-1.5c-2.8-3.7-3.8-8.3-5.1-12.6
		c-9.9,8.3-21.8,15.9-35.3,15.7c-10.5,0.4-20.9-4.1-28-11.8c-5.2-5.3-8-12.7-7.6-20c-0.1-9.3,5-17.8,11.6-24
		c6-5.6,13.7-8.9,21.3-11.7c11.8-4.5,24.3-7.1,36.3-11.2c0.5-4.9-2.6-9.5-6.8-11.8c-6.3-3.6-13.8-3.1-20.7-3
		c-6,0.1-12.4,1.6-16.6,6.1c-2.3,2.4-3,5.6-4,8.7c-5.8-0.3-11.6-2.6-15.1-7.4c-4.4-5.2-3.3-12.9,0-18.4
		C401.7,375,408.3,371.3,414.8,368.8L414.8,368.8z"/>
	<path class="st1" d="M548.6,370.7c8.5-6.2,19.9-6.5,29.7-3.6c13.9,4.5,23.7,17.3,27.8,30.8c2.9,9,2.6,18.5,2.2,27.8
		c-0.9,11.2-3.3,22.4-8.1,32.7c-7.2,15.4-15.9,30.1-26.7,43.2c-1.8,2.1-3.9,4-6.6,4.8c-1.8,0.2-3.3-1.1-4.9-1.7
		c1.6-4,3.9-7.7,6.3-11.2c6.7-9.8,11.1-21,15-32.2c3.9-11.9,6.9-24.9,3.5-37.3c-2.7-9-8.4-18.1-17.8-20.9c-7.5-1.8-16-1-22.4,3.7
		c-3.1,2.2-6.4,5.3-6.3,9.4c-0.1,14,0,28,0,42c0.5,7.1,0.9,14.4,4.3,20.9c-3.1,2.9-6.4,6.1-10.8,6.7c-5.1,0.8-11.9,0.1-14-5.4
		c-2.3-8.7,2-17.4,1.9-26.1c0-21.4,0-42.7,0-64.1c-0.1-3,0.1-6.1-0.7-9c-1-5.2-6.8-6.9-9.1-11.3c2-0.6,4-1.2,6.1-1.1
		c6.4,0,12.8,0,19.2,0.1c1.5,3.8,3,7.7,4.7,11.4C543.6,376.6,545.4,372.9,548.6,370.7L548.6,370.7z"/>
	<path class="st1" d="M670.9,370.9c7.6-5.9,17.9-6.6,27-4.7c10.1,2.1,18.6,9.1,24.2,17.6c7,10.2,9.7,22.9,9.2,35.1
		c-0.5,12-2.1,24.3-6.7,35.5c-7,15.6-15.5,30.6-26.1,44c-2.3,2.8-4.3,6.1-7.8,7.4c-2,1.1-4.2-0.4-6.2-0.8
		c2.4-6.4,6.8-11.7,10.1-17.6c3.8-6.5,6.6-13.5,9.4-20.5c4.6-12.8,8.4-26.4,6.2-40.1c-1.7-8-5.6-15.8-12.3-20.7
		c-6.6-4.8-15.7-5-23.2-2.4c-5.3,2.2-11.4,5.9-11.9,12.2c-0.2,12.3,0,24.7-0.1,37c0.5,8.7,0.3,17.9,4.4,25.9
		c-3.2,3.4-7.2,6.8-12.2,6.9c-4.5,0.4-10.7-0.1-12.4-5.2c-2.9-8.4,1.8-17,1.8-25.5c0.2-20,0-40,0.1-60c-0.1-5.1,0.2-10.4-1.2-15.4
		c-1.7-4.4-7.1-5.7-8.6-10.2c8.3-1.7,16.8-0.4,25.1-0.8c1.4,3.8,2.9,7.6,4.6,11.4C666.2,376.7,667.8,373.1,670.9,370.9L670.9,370.9z
		"/>
	<path class="st1" d="M782.8,368.8c10.5-4,22.1-3.8,33.1-3c10.1,1.1,21.2,4.1,27.3,12.9c5.3,9.1,3.9,20.2,3.6,30.3
		c0.9,17.9-1,35.8,0.7,53.7c0.3,5.3,5.9,8.2,6.6,13.4c0,3.1-0.7,6.8-3.6,8.6c-4.4,2.6-11,2.4-14.4-1.7c-2.8-3.6-3.7-8.3-5-12.6
		c-8.6,6.6-17.8,13.2-28.7,15c-11.7,2-24.5-1.1-33-9.7c-5.8-5.1-9.3-12.8-9.2-20.6c-0.4-13.4,9.1-25.2,20.5-31.3
		c15.4-8,32.6-11.2,49-16.7c-0.7-3.4-1.3-7.2-4.2-9.5c-5.2-4.9-12.8-5.4-19.5-5.3c-6.6-0.2-13.8,0.4-19.2,4.6
		c-3.4,2.5-4.5,6.7-5.7,10.5c-5.4-0.8-11-2.4-14.5-6.9c-4.9-5.2-3.9-13.5-0.4-19.2C769.6,374.8,776.3,371.2,782.8,368.8L782.8,368.8
		z"/>
	<path class="st0" d="M299.1,398.1c1.8-2.6,3.3-5.6,6.1-7.2c2.2-0.7,4.5,0.8,4.9,3c4.4,16.1,9.4,32.1,14,48.2
		c2.4,8.2,5.1,16.4,5.8,25c0.7,5.6,0.2,11.3,1.2,16.9c0.4,3.1,2.4,5.5,4,8.1c-44.7,0.5-89.4,0.1-134.1,0.2
		c-8.6-0.2-17.3,0.5-25.9-0.4c3.9-3.7,7-8.3,8.1-13.6c1.5-7.9,1.1-16,3.4-23.7c5.1-16.8,10.5-33.5,15.6-50.4c0.9-2.8,1.7-6,4.2-7.8
		c3.3-0.5,4.9,3.3,6.8,5.4c12,18,24.3,35.8,36.3,53.8c3.3,4.6,5.9,10.1,11,13c4.7,2.3,12.8-0.5,12.3-6.5c0.4-5.3-2.1-10.4-1.4-15.7
		c0.3-6,3.6-11.2,6.9-16.1C285,419.4,292.4,408.9,299.1,398.1L299.1,398.1z"/>
	<path class="st0" d="M149.9,427.9c6.9-6.9,13.8-14,20.9-20.7c-6.1,20.8-12.2,41.5-18.2,62.3c-2.2,7.3-3.7,16.2,2,22.4
		c-13.8,0.7-27.7,0.1-41.6,0.3c-8.8-0.2-17.7,0.5-26.5-0.6C107.4,470.2,128.8,449.2,149.9,427.9L149.9,427.9z"/>
	<path class="st2" d="M443.4,422.4c7-2.9,14.1-5.6,21.2-8.2c0.1,11.2,0.1,22.5,0,33.7c0.2,2.1-1.7,3.4-2.9,4.8
		c-4.4,4.5-10.2,8.4-16.7,8.2c-6.7,0.5-13.9-2.5-17.5-8.3c-3.9-7.6-1.3-17.5,4.8-23.2C435.4,426.1,439.4,424,443.4,422.4
		L443.4,422.4z"/>
	<path class="st2" d="M816.4,420.3c5.3-2.2,10.6-4.2,16-6.1c0.2,10.9,0.1,21.9,0.1,32.8c0.2,3.8-3.6,6-6,8.5
		c-8,7.4-21.8,7.4-29.5-0.5c-6.4-7.5-3.6-19.4,3.2-25.7C804.6,424.6,810.7,422.6,816.4,420.3L816.4,420.3z"/>
	<path class="st0" d="M438.4,430.5c6.6-4.2,14.2-6.5,21.4-9.4c0,7.7,0,15.3,0,23c-0.1,1.6,0.3,3.5-1,4.8c-4.3,5-11,8.6-17.8,7.3
		c-4.2-1-8.9-3.4-10.2-7.9C429.1,441.5,432.6,434.1,438.4,430.5L438.4,430.5z"/>
	<path class="st0" d="M810.8,427.8c5.5-2.5,11.2-4.5,16.9-6.8c-0.1,8.8,0.4,17.7-0.2,26.5c-2.6,3.8-6.5,6.7-10.8,8.1
		c-5.8,2-12.7,0.1-16.6-4.6c-2.7-3.9-1.9-9.1-0.2-13.2C801.7,433,806.3,430,810.8,427.8L810.8,427.8z"/>
	<path class="st0" d="M86.2,518.3c277.6,0,555.2,0,832.8,0c5.5,0,11.1-0.1,16.6,0.2c-0.1,45.4,0.1,90.8-0.1,136.2
		c-283.1,0-566.2,0-849.3,0C86.2,609.3,86.2,563.8,86.2,518.3L86.2,518.3z"/>
	<path class="st2" d="M177.6,550.6c8.8-4.9,19.2-5.6,29.1-4.9c7.8,0.8,15.5,2.4,22.8,5.3c-0.1,6.3,0.1,12.6-0.2,18.9
		c-6-2.8-11.6-6.8-18.1-8.2c-7.3-1.7-15.5-2.3-22.4,1.2c-4.5,2.3-3.9,9.7,1,11.1c11.1,3.9,23.6,3.9,33.7,10.5
		c6.6,3.9,9.7,11.9,9.1,19.3c-0.3,7.4-4.8,14-10.7,18.1c-8,5.7-18.2,7.2-27.9,6.8c-10.3,0.4-20.5-2-29.9-5.9
		c-0.6-6.6-0.7-13.3,0.3-19.9c4.9,2.6,9.5,6,14.8,7.9c8.1,3,17.1,4.5,25.6,2.1c2.1-0.6,4.2-1.8,5.6-3.6c1.8-2.8,0.9-7.1-2.2-8.6
		c-4.8-2.7-10.4-3.2-15.7-4.4c-7.5-1.6-15.3-3.6-21.2-8.7c-6.2-5.2-8.1-14.2-6.4-21.9C166.4,559,171.7,553.8,177.6,550.6
		L177.6,550.6z"/>
	<path class="st2" d="M802,549.9c8.9-4.5,19.1-4.9,28.9-4.3c8.6,0.8,17.1,2.9,24.8,6.8c0,6.5,0.2,12.9-0.1,19.4
		c-5.7-2-10-6.7-15.7-8.7c-8.9-3.8-19.8-3.7-28.1,1.7c-6.1,4-9,11.3-9.9,18.2c-0.8,8.4,0.7,18,7,24.1c6.7,6.7,16.8,7.8,25.8,7.1
		c0.2-5.3,0.1-10.6,0-15.8c-5.2,0-10.3,0-15.5-0.1c-0.6-5-0.7-10-0.1-15c12.2-0.3,24.5,0,36.7-0.1c-0.2,13.4,0.3,26.7-0.3,40.1
		c-14.2,4.5-29.5,7.9-44.3,4.7c-8.9-2-17.6-6.6-23.1-14.1c-7.8-10.4-9.1-24.2-7.1-36.7C783.1,565.3,791.2,554.9,802,549.9L802,549.9
		z"/>
	<path class="st2" d="M385.2,561.4c7.2-10.6,20.2-16.1,32.8-16c10.2-0.4,20.5,2.1,29.6,6.8c-0.1,6.7,0.2,13.3-0.3,20
		c-6.2-3.1-11.3-8.3-18.1-10.1c-7.1-1.8-15.5-1.2-21.2,3.9c-4.8,3.7-7.1,9.7-8,15.5c-1.2,8.8,0,18.7,6.1,25.6
		c5.1,5.8,13.5,7.2,20.8,6.1c7.9-1.3,13.8-7.1,20.4-10.9c0.4,6.4,0.5,12.9,0.1,19.3c-3.7,3.1-8.6,4.3-13.2,5.7
		c-6.2,1.9-12.8,1.6-19.2,1.5c-12.1-0.3-24.6-6.3-30.9-16.9c-4.8-7.4-6.1-16.3-6.3-24.9C378.1,578,379.9,568.8,385.2,561.4
		L385.2,561.4z"/>
	<path class="st2" d="M238.8,547.3c9.1-0.8,18.2-0.4,27.2-0.5c14.5,0.3,29.1-0.6,43.6,0.5c0,5.1,0.1,10.1,0,15.2
		c-8.3,0.1-16.6-0.1-24.9,0.2c-0.1,21.6,0,43.2-0.1,64.8c-6.8,0-13.6,0-20.3,0c-0.7-5.8-0.4-11.7-0.5-17.5c0-15.8,0-31.6,0-47.4
		c-8.2-0.1-16.4,0-24.6-0.1C238.5,557.5,238.7,552.4,238.8,547.3L238.8,547.3z"/>
	<path class="st2" d="M318.5,547.3c11.1-0.9,22.3-0.4,33.5-0.5c4.5-0.1,9.1,0,13.6,0.5c0.1,4.6,0.1,9.2,0,13.8
		c-4.3,0.3-8.7,0.3-13,0.2c-0.1,17.3-0.1,34.6,0,51.9c4.4,0.1,8.7,0.1,13.1,0.1c0.1,4.7,0,9.4-0.1,14.2c-15.7,0-31.3,0.1-47-0.1
		c0-4.7,0-9.4-0.1-14.1c4.4-0.1,8.8-0.1,13.2-0.2c0-17.3,0.1-34.5,0-51.8c-4.4,0-8.8,0.1-13.1-0.5
		C318.5,556.4,318.6,551.8,318.5,547.3L318.5,547.3z"/>
	<path class="st2" d="M462.7,547.3c6.9-0.3,13.9-1,20.8-0.1c0,9.7-0.1,19.4,0.1,29.1c10.2,0,20.4,0,30.5,0c0.3-9.7,0-19.4,0.1-29.1
		c6.8-0.8,13.7-0.7,20.5,0c0,26.7,0.1,53.4,0,80.1c-6.8,0.2-13.6,0.2-20.5,0.1c-0.2-11.7,0.5-23.5-0.4-35.2c-10-0.8-20.2-0.7-30.2,0
		c-0.2,11.8,0,23.5-0.1,35.2c-6.9,0-13.9,0.1-20.8,0C462.5,600.8,462.6,574,462.7,547.3L462.7,547.3z"/>
	<path class="st2" d="M547.4,547.3c7.8-1,15.8-0.4,23.6-0.5c15.8,0.2,31.6-0.5,47.3,0.4c0,5.1,0,10.2,0,15.3
		c-8.3,0.2-16.7,0.1-25,0.1c-0.2,15.5,0,31-0.1,46.5c-0.1,6.2,0.3,12.4-0.4,18.5c-6.8,0-13.7,0-20.5,0c0.1-21.6,0.2-43.2,0-64.8
		c-8.3-0.1-16.6,0-24.9-0.1C547.4,557.4,547.4,552.4,547.4,547.3L547.4,547.3z"/>
	<path class="st2" d="M627.3,547.3c7.9-0.9,15.8-0.4,23.7-0.5c7.8,0.1,15.7-0.4,23.4,0.4c-0.1,4.5-0.1,9.1-0.1,13.7
		c-4.3,0.6-8.7,0.5-13.1,0.5c0,17.3-0.1,34.6,0.1,51.8c4.2,0.1,8.5,0.1,12.8,0.2c0.4,4.7,0.3,9.4,0.2,14.1c-15.7,0.2-31.4,0.1-47,0
		c0-4.7,0-9.4,0-14.1c4.3,0,8.6,0,13-0.1c0.1-17.3,0.1-34.6,0-51.9c-4.3,0-8.6,0-12.9-0.2C627.3,556.5,627.3,551.9,627.3,547.3
		L627.3,547.3z"/>
	<path class="st2" d="M691.3,547.3c8.2-0.9,16.4-0.5,24.6-0.3c9.8,15,19,30.4,29.1,45.2c0.7-14.9,0.1-29.9,0.3-44.8
		c6.3-0.7,12.7-0.9,19-0.1c0,26.7,0.1,53.4-0.1,80.2c-6.6,0.1-13.3,0-19.9,0.1C733,609.4,722,591,710.5,572.9
		c-0.6,18.2,0.3,36.4-0.5,54.6c-6.2,0-12.5,0-18.7,0C691.3,600.8,691.2,574,691.3,547.3L691.3,547.3z"/>
	<path class="st0" d="M86.9,681.4c283,0,566.1,0.1,849.2,0c0.3,6.3,0.2,12.7,0.1,19c-283.1,0-566.2,0-849.3,0
		C86.7,694,86.6,687.7,86.9,681.4L86.9,681.4z"/>
</g>
</svg>
