<svg width="48" height="48" viewBox="0 0 48 48" fill="none" xmlns="http://www.w3.org/2000/svg">
<path d="M32 10C24.589 10 19 15.159 19 22C19 22.5304 19.2107 23.0391 19.5858 23.4142C19.9609 23.7893 20.4696 24 21 24C21.5304 24 22.0391 23.7893 22.4142 23.4142C22.7893 23.0391 23 22.5304 23 22C22.9736 20.615 23.334 19.25 24.0406 18.0585C24.7472 16.867 25.772 15.8962 27 15.255V46C27 46.5304 27.2107 47.0391 27.5858 47.4142C27.9609 47.7893 28.4696 48 29 48C29.5304 48 30.0391 47.7893 30.4142 47.4142C30.7893 47.0391 31 46.5304 31 46V31H33V46C33 46.5304 33.2107 47.0391 33.5858 47.4142C33.9609 47.7893 34.4696 48 35 48C35.5304 48 36.0391 47.7893 36.4142 47.4142C36.7893 47.0391 37 46.5304 37 46V15.255C38.228 15.8962 39.2528 16.867 39.9594 18.0585C40.666 19.25 41.0264 20.615 41 22C41 22.5304 41.2107 23.0391 41.5858 23.4142C41.9609 23.7893 42.4696 24 43 24C43.5304 24 44.0391 23.7893 44.4142 23.4142C44.7893 23.0391 45 22.5304 45 22C45 15.159 39.411 10 32 10Z" fill="#011E41"/>
<path d="M32 8C34.2091 8 36 6.20914 36 4C36 1.79086 34.2091 0 32 0C29.7909 0 28 1.79086 28 4C28 6.20914 29.7909 8 32 8Z" fill="#011E41"/>
<path d="M11 2.50148e-07C9.41775 2.50148e-07 7.87103 0.469192 6.55544 1.34824C5.23985 2.22729 4.21447 3.47672 3.60897 4.93853C3.00347 6.40034 2.84504 8.00887 3.15372 9.56072C3.4624 11.1126 4.22433 12.538 5.34315 13.6569C6.46197 14.7757 7.88743 15.5376 9.43928 15.8463C10.9911 16.155 12.5997 15.9965 14.0615 15.391C15.5233 14.7855 16.7727 13.7602 17.6518 12.4446C18.5308 11.129 19 9.58225 19 8C19.0003 6.94935 18.7935 5.90895 18.3916 4.93822C17.9896 3.9675 17.4004 3.08548 16.6574 2.34256C15.9145 1.59964 15.0325 1.01037 14.0618 0.608429C13.0911 0.206484 12.0507 -0.000262511 11 2.50148e-07V2.50148e-07ZM11 14.09C10.7844 14.09 10.5737 14.0261 10.3944 13.9063C10.2152 13.7865 10.0755 13.6163 9.99298 13.4171C9.91048 13.218 9.88889 12.9988 9.93095 12.7874C9.97301 12.5759 10.0768 12.3817 10.2293 12.2293C10.3817 12.0768 10.5759 11.973 10.7874 11.9309C10.9988 11.8889 11.218 11.9105 11.4171 11.993C11.6163 12.0755 11.7865 12.2152 11.9063 12.3944C12.0261 12.5737 12.09 12.7844 12.09 13C12.0892 13.2888 11.9741 13.5656 11.7699 13.7699C11.5656 13.9741 11.2888 14.0892 11 14.09V14.09ZM13.94 5.8C13.8355 6.30706 13.602 6.77863 13.2622 7.16924C12.9224 7.55984 12.4877 7.85629 12 8.03V9.6C12 9.86522 11.8946 10.1196 11.7071 10.3071C11.5196 10.4946 11.2652 10.6 11 10.6C10.7348 10.6 10.4804 10.4946 10.2929 10.3071C10.1054 10.1196 10 9.86522 10 9.6V7.2C10.0008 6.93503 10.1064 6.68113 10.2938 6.49377C10.4811 6.3064 10.735 6.20079 11 6.2C11.0737 6.19831 11.1472 6.19163 11.22 6.18C11.4079 6.13597 11.5792 6.03914 11.7139 5.90095C11.8485 5.76275 11.9409 5.58894 11.98 5.4C11.9926 5.33407 11.9993 5.26713 12 5.2C11.9983 5.1263 11.9916 5.0528 11.98 4.98C11.936 4.79214 11.8391 4.62079 11.7009 4.48613C11.5628 4.35148 11.3889 4.25914 11.2 4.22C11.065 4.19 10.925 4.19 10.79 4.22C10.6202 4.25682 10.4628 4.33696 10.3331 4.45261C10.2035 4.56826 10.1059 4.7155 10.05 4.88C9.95688 5.12153 9.77373 5.31753 9.53907 5.4268C9.30441 5.53606 9.03652 5.55008 8.79173 5.46589C8.54695 5.38171 8.34435 5.20589 8.22653 4.9754C8.10872 4.74491 8.08487 4.47771 8.16 4.23C8.32871 3.73805 8.6218 3.2981 9.0108 2.9529C9.3998 2.60771 9.87148 2.36901 10.38 2.26C10.7861 2.17995 11.2039 2.17995 11.61 2.26C12.1806 2.3812 12.704 2.66462 13.1173 3.07619C13.5307 3.48776 13.8163 4.00996 13.94 4.58C13.9798 4.78428 13.9999 4.99189 14 5.2C14.0008 5.40154 13.9807 5.60262 13.94 5.8V5.8Z" fill="#011E41"/>
</svg>
