<svg width="48" height="48" viewBox="0 0 48 48" fill="none" xmlns="http://www.w3.org/2000/svg">
<g clip-path="url(#clip0_74_830)">
<path fill-rule="evenodd" clip-rule="evenodd" d="M43.42 23H43V20C42.9995 18.6741 42.4725 17.4026 41.535 16.4651C40.5974 15.5275 39.3259 15.0005 38 15H33V12.01C32.9992 11.2119 32.6818 10.4468 32.1175 9.88249C31.5532 9.31817 30.7881 9.00079 29.99 9H3.01C2.21194 9.00079 1.4468 9.31817 0.882486 9.88249C0.318173 10.4468 0.00079422 11.2119 0 12.01L0 35H5C5 33.4087 5.63214 31.8826 6.75736 30.7574C7.88258 29.6321 9.4087 29 11 29C12.5913 29 14.1174 29.6321 15.2426 30.7574C16.3679 31.8826 17 33.4087 17 35H29C28.9985 33.7597 29.3827 32.5496 30.0993 31.5374C30.816 30.5251 31.8297 29.7607 33 29.35C33.6409 29.1167 34.3179 28.9982 35 29C36.5909 29.0013 38.1162 29.6339 39.2412 30.7588C40.3661 31.8838 40.9987 33.4091 41 35H46.47C46.6711 35.0008 46.8705 34.9618 47.0564 34.8852C47.2424 34.8085 47.4114 34.6959 47.5536 34.5536C47.6959 34.4114 47.8085 34.2424 47.8852 34.0564C47.9618 33.8705 48.0008 33.6711 48 33.47V27.58C48 26.3653 47.5175 25.2004 46.6586 24.3415C45.7996 23.4825 44.6347 23 43.42 23V23ZM37.11 18C37.4897 17.9993 37.8658 18.0736 38.2167 18.2186C38.5677 18.3636 38.8865 18.5765 39.155 18.845C39.4235 19.1135 39.6364 19.4323 39.7814 19.7833C39.9264 20.1342 40.0007 20.5103 40 20.89V23H33V18H37.11ZM21 21H19V23C18.9961 23.5292 18.7841 24.0357 18.4099 24.4099C18.0357 24.7841 17.5292 24.9961 17 25C16.4701 24.9984 15.9623 24.7872 15.5875 24.4125C15.2128 24.0377 15.0016 23.5299 15 23V21H13C12.4708 20.9961 11.9643 20.7841 11.5901 20.4099C11.2159 20.0357 11.0039 19.5292 11 19C11.0016 18.4701 11.2128 17.9623 11.5875 17.5875C11.9623 17.2128 12.4701 17.0016 13 17H15V15C15.0037 14.4707 15.2156 13.9641 15.5898 13.5898C15.9641 13.2156 16.4707 13.0037 17 13C17.5299 13.0016 18.0377 13.2128 18.4125 13.5875C18.7872 13.9623 18.9984 14.4701 19 15V17H21C21.5293 17.0037 22.0359 17.2156 22.4102 17.5898C22.7844 17.9641 22.9963 18.4707 23 19C22.9984 19.5299 22.7872 20.0377 22.4125 20.4125C22.0377 20.7872 21.5299 20.9984 21 21Z" fill="#011E41"/>
<path d="M11 39C13.2091 39 15 37.2091 15 35C15 32.7909 13.2091 31 11 31C8.79086 31 7 32.7909 7 35C7 37.2091 8.79086 39 11 39Z" fill="#011E41"/>
<path fill-rule="evenodd" clip-rule="evenodd" d="M35 31C34.2089 31 33.4355 31.2346 32.7777 31.6741C32.1199 32.1137 31.6072 32.7384 31.3045 33.4693C31.0017 34.2002 30.9225 35.0045 31.0769 35.7804C31.2312 36.5563 31.6122 37.269 32.1716 37.8284C32.731 38.3879 33.4437 38.7688 34.2196 38.9232C34.9956 39.0775 35.7998 38.9983 36.5307 38.6955C37.2616 38.3928 37.8864 37.8801 38.3259 37.2223C38.7654 36.5645 39 35.7911 39 35C39.0015 34.4743 38.899 33.9535 38.6985 33.4676C38.498 32.9816 38.2034 32.5401 37.8317 32.1684C37.4599 31.7966 37.0184 31.502 36.5325 31.3015C36.0465 31.101 35.5257 30.9986 35 31V31Z" fill="#011E41"/>
</g>
<defs>
<clipPath id="clip0_74_830">
<rect width="48" height="48" fill="white"/>
</clipPath>
</defs>
</svg>
