<svg width="48" height="48" viewBox="0 0 48 48" fill="none" xmlns="http://www.w3.org/2000/svg">
<path d="M33 1.25074e-07H15C14.4747 -0.000131255 13.9545 0.103242 13.4691 0.304214C12.9837 0.505187 12.5427 0.79982 12.1713 1.17128C11.7998 1.54274 11.5052 1.98375 11.3042 2.46911C11.1032 2.95447 10.9999 3.47468 11 4V44C10.9999 44.5253 11.1032 45.0455 11.3042 45.5309C11.5052 46.0162 11.7998 46.4573 12.1713 46.8287C12.5427 47.2002 12.9837 47.4948 13.4691 47.6958C13.9545 47.8968 14.4747 48.0001 15 48H33C33.5253 48.0001 34.0455 47.8968 34.5309 47.6958C35.0163 47.4948 35.4573 47.2002 35.8287 46.8287C36.2002 46.4573 36.4948 46.0162 36.6958 45.5309C36.8968 45.0455 37.0001 44.5253 37 44V4C37.0001 3.47468 36.8968 2.95447 36.6958 2.46911C36.4948 1.98375 36.2002 1.54274 35.8287 1.17128C35.4573 0.79982 35.0163 0.505187 34.5309 0.304214C34.0455 0.103242 33.5253 -0.000131255 33 1.25074e-07V1.25074e-07ZM21 3H27C27.2652 3 27.5196 3.10536 27.7071 3.29289C27.8946 3.48043 28 3.73478 28 4C28 4.26522 27.8946 4.51957 27.7071 4.70711C27.5196 4.89464 27.2652 5 27 5H21C20.7348 5 20.4804 4.89464 20.2929 4.70711C20.1054 4.51957 20 4.26522 20 4C20 3.73478 20.1054 3.48043 20.2929 3.29289C20.4804 3.10536 20.7348 3 21 3V3ZM17 45C16.6044 45 16.2178 44.8827 15.8889 44.6629C15.56 44.4432 15.3036 44.1308 15.1522 43.7654C15.0009 43.3999 14.9613 42.9978 15.0384 42.6098C15.1156 42.2219 15.3061 41.8655 15.5858 41.5858C15.8655 41.3061 16.2219 41.1156 16.6098 41.0384C16.9978 40.9613 17.3999 41.0009 17.7654 41.1522C18.1308 41.3036 18.4432 41.56 18.6629 41.8889C18.8827 42.2178 19 42.6044 19 43C18.9984 43.5299 18.7872 44.0377 18.4125 44.4125C18.0377 44.7872 17.5299 44.9984 17 45ZM17 37C16.6044 37 16.2178 36.8827 15.8889 36.6629C15.56 36.4432 15.3036 36.1308 15.1522 35.7654C15.0009 35.3999 14.9613 34.9978 15.0384 34.6098C15.1156 34.2219 15.3061 33.8655 15.5858 33.5858C15.8655 33.3061 16.2219 33.1156 16.6098 33.0384C16.9978 32.9613 17.3999 33.0009 17.7654 33.1522C18.1308 33.3036 18.4432 33.56 18.6629 33.8889C18.8827 34.2178 19 34.6044 19 35C18.9984 35.5299 18.7872 36.0377 18.4125 36.4125C18.0377 36.7872 17.5299 36.9984 17 37V37ZM17 29C16.6044 29 16.2178 28.8827 15.8889 28.6629C15.56 28.4432 15.3036 28.1308 15.1522 27.7654C15.0009 27.3999 14.9613 26.9978 15.0384 26.6098C15.1156 26.2219 15.3061 25.8655 15.5858 25.5858C15.8655 25.3061 16.2219 25.1156 16.6098 25.0384C16.9978 24.9613 17.3999 25.0009 17.7654 25.1522C18.1308 25.3036 18.4432 25.56 18.6629 25.8889C18.8827 26.2178 19 26.6044 19 27C18.9984 27.5299 18.7872 28.0377 18.4125 28.4125C18.0377 28.7872 17.5299 28.9984 17 29ZM24 45C23.6044 45 23.2178 44.8827 22.8889 44.6629C22.56 44.4432 22.3036 44.1308 22.1522 43.7654C22.0009 43.3999 21.9613 42.9978 22.0384 42.6098C22.1156 42.2219 22.3061 41.8655 22.5858 41.5858C22.8655 41.3061 23.2219 41.1156 23.6098 41.0384C23.9978 40.9613 24.3999 41.0009 24.7654 41.1522C25.1308 41.3036 25.4432 41.56 25.6629 41.8889C25.8827 42.2178 26 42.6044 26 43C25.9984 43.5299 25.7872 44.0377 25.4125 44.4125C25.0377 44.7872 24.5299 44.9984 24 45V45ZM24 37C23.6044 37 23.2178 36.8827 22.8889 36.6629C22.56 36.4432 22.3036 36.1308 22.1522 35.7654C22.0009 35.3999 21.9613 34.9978 22.0384 34.6098C22.1156 34.2219 22.3061 33.8655 22.5858 33.5858C22.8655 33.3061 23.2219 33.1156 23.6098 33.0384C23.9978 32.9613 24.3999 33.0009 24.7654 33.1522C25.1308 33.3036 25.4432 33.56 25.6629 33.8889C25.8827 34.2178 26 34.6044 26 35C25.9984 35.5299 25.7872 36.0377 25.4125 36.4125C25.0377 36.7872 24.5299 36.9984 24 37V37ZM24 29C23.6044 29 23.2178 28.8827 22.8889 28.6629C22.56 28.4432 22.3036 28.1308 22.1522 27.7654C22.0009 27.3999 21.9613 26.9978 22.0384 26.6098C22.1156 26.2219 22.3061 25.8655 22.5858 25.5858C22.8655 25.3061 23.2219 25.1156 23.6098 25.0384C23.9978 24.9613 24.3999 25.0009 24.7654 25.1522C25.1308 25.3036 25.4432 25.56 25.6629 25.8889C25.8827 26.2178 26 26.6044 26 27C25.9984 27.5299 25.7872 28.0377 25.4125 28.4125C25.0377 28.7872 24.5299 28.9984 24 29V29ZM31 45C30.6044 45 30.2178 44.8827 29.8889 44.6629C29.56 44.4432 29.3036 44.1308 29.1522 43.7654C29.0009 43.3999 28.9613 42.9978 29.0384 42.6098C29.1156 42.2219 29.3061 41.8655 29.5858 41.5858C29.8655 41.3061 30.2219 41.1156 30.6098 41.0384C30.9978 40.9613 31.3999 41.0009 31.7654 41.1522C32.1308 41.3036 32.4432 41.56 32.6629 41.8889C32.8827 42.2178 33 42.6044 33 43C32.9984 43.5299 32.7872 44.0377 32.4125 44.4125C32.0377 44.7872 31.5299 44.9984 31 45ZM31 37C30.6044 37 30.2178 36.8827 29.8889 36.6629C29.56 36.4432 29.3036 36.1308 29.1522 35.7654C29.0009 35.3999 28.9613 34.9978 29.0384 34.6098C29.1156 34.2219 29.3061 33.8655 29.5858 33.5858C29.8655 33.3061 30.2219 33.1156 30.6098 33.0384C30.9978 32.9613 31.3999 33.0009 31.7654 33.1522C32.1308 33.3036 32.4432 33.56 32.6629 33.8889C32.8827 34.2178 33 34.6044 33 35C32.9984 35.5299 32.7872 36.0377 32.4125 36.4125C32.0377 36.7872 31.5299 36.9984 31 37V37ZM31 29C30.6044 29 30.2178 28.8827 29.8889 28.6629C29.56 28.4432 29.3036 28.1308 29.1522 27.7654C29.0009 27.3999 28.9613 26.9978 29.0384 26.6098C29.1156 26.2219 29.3061 25.8655 29.5858 25.5858C29.8655 25.3061 30.2219 25.1156 30.6098 25.0384C30.9978 24.9613 31.3999 25.0009 31.7654 25.1522C32.1308 25.3036 32.4432 25.56 32.6629 25.8889C32.8827 26.2178 33 26.6044 33 27C32.9984 27.5299 32.7872 28.0377 32.4125 28.4125C32.0377 28.7872 31.5299 28.9984 31 29ZM33 21C32.9992 21.265 32.8936 21.5189 32.7062 21.7062C32.5189 21.8936 32.265 21.9992 32 22H16C15.735 21.9992 15.4811 21.8936 15.2938 21.7062C15.1064 21.5189 15.0008 21.265 15 21V9C15.0008 8.73503 15.1064 8.48113 15.2938 8.29377C15.4811 8.1064 15.735 8.00079 16 8H32C32.265 8.00079 32.5189 8.1064 32.7062 8.29377C32.8936 8.48113 32.9992 8.73503 33 9V21Z" fill="#011E41"/>
</svg>
