<?xml version="1.0" encoding="utf-8"?>
<!-- Generator: Adobe Illustrator 25.2.1, SVG Export Plug-In . SVG Version: 6.00 Build 0)  -->
<svg version="1.1" id="Layer_1" xmlns="http://www.w3.org/2000/svg" xmlns:xlink="http://www.w3.org/1999/xlink" x="0px" y="0px"
	 viewBox="0 0 288 560" style="enable-background:new 0 0 288 560;" xml:space="preserve">
<style type="text/css">
	.st0{fill:#FEFEFE;}
	.st1{fill:#B0B1B2;}
	.st2{fill:#AFB1B2;}
	.st3{fill:#DF0478;}
	.st4{fill:#DE0478;}
	.st5{fill:#FCFBF7;}
	.st6{fill:#A7C122;}
	.st7{fill:#DE0678;}
	.st8{fill:#F7E1F0;}
	.st9{fill:#CCCCCC;}
	.st10{fill:#CACACA;}
	.st11{fill:#C8C8C8;}
	.st12{fill:#C8C9C9;}
	.st13{fill:#C7C7C8;}
	.st14{fill:#C6C6C6;}
	.st15{fill:#C7C7C7;}
	.st16{fill:#C3C3C4;}
	.st17{fill:#CACACC;}
	.st18{fill:#CDCCCD;}
	.st19{fill:#CBCBCB;}
	.st20{fill:#C6C6C7;}
	.st21{fill:#BEBEBF;}
	.st22{fill:#C5C5C5;}
	.st23{fill:#A42564;}
	.st24{fill:#E2D1B3;}
	.st25{fill:#FDFDFD;}
	.st26{fill:#FDFBFC;}
	.st27{fill:#FCFBFC;}
	.st28{fill:#B01C63;}
</style>
<g>
	<path class="st0" d="M33.81,311.16c0-21.59,0.04-43.19-0.06-64.78c-0.01-2.21,0.45-2.65,2.69-2.65c71.7,0.07,143.41,0.07,215.11,0
		c2.23,0,2.7,0.44,2.69,2.65c-0.11,20.6-0.12,41.21,0.01,61.82c0.02,2.54-0.51,3.04-3.07,3.03
		C178.72,311.14,106.27,311.16,33.81,311.16z"/>
	<path class="st1" d="M227.9,263.08c-4.4-3.73-3.63-11.37,1.47-13.95c2.6-1.31,5.17-1.29,6.79,1.46c0.94,1.6,1.57,1.67,3.02,0.62
		c1.95-1.42,4.42-3.6,6.6-1.62c2.33,2.12-0.25,4.47-1.33,6.54c-1.02,1.96-2.3,3.78-3.4,5.69c-1.28,2.21-0.8,3.16,1.87,2.4
		c0.52,0.82,0.55,1.63-0.04,2.43c-1.76,0.48-3.75-0.43-5.43,0.81c4.59,4.48,4.63,4.76,1.34,10.23c-0.45,0.74-0.82,1.53-1.35,2.21
		c-0.65,0.83-0.25,2.95-2.24,2.17c-1.8-0.71-1.67-2.44-1.04-3.81c0.6-1.31,1.66-2.43,2.59-3.58c0.93-1.15,1.55-2.55,0.6-3.7
		c-1.02-1.24-2.52-0.53-3.77,0.09c-2.5,1.24-4,3.38-4.75,5.92c-0.61,2.06-0.04,3.93,2.13,4.96c0.78,0.37,1.56,0.78,2.38,1.06
		c2.73,0.91,5.27,2.25,5.56,5.33c0.28,2.98-1.78,5.13-4.11,6.62c-2.88,1.83-6.1,2.76-9.59,1.6c-4.23-1.42-5.5-6.26-2.44-9.45
		c1.43-1.49,3.14-1.78,4.58-0.27c1.71,1.78-0.58,2.09-1.39,2.9c-0.87,0.87-2.09,1.64-1.58,3.08c0.59,1.66,2.16,1.44,3.5,1.34
		c0.97-0.07,1.97-0.3,2.88-0.66c1.63-0.66,3.27-1.4,3.26-3.57c-0.02-2.07-1.48-3.06-3.1-3.78c-2.52-1.11-5.58-1.99-6.35-4.75
		c-1.41-5.09,0.32-10.07,1.91-14.9c0.44-1.33,2-2.18,3.7-2.03c0.22,0.3,0.28,0.63,0.18,0.99c-0.41,1.14-2.02,1.48-2.01,3.13
		c3.03-0.77,5.34-2.69,7.96-3.97c0.78-0.38,0.99-1.08,0.76-1.87c-0.9-3.07-1.31-6.29-2.58-9.24c-1.32-3.07-3.53-3.25-5.66-0.63
		c-2.19,2.69-1.92,5.9,0.81,9.7C229.28,263.48,228.67,263.53,227.9,263.08z"/>
	<path class="st1" d="M173.66,277.78c-3.28,4.77-5.11,10.25-7.9,16.05c-2.81-4.78-0.81-9.41-1.77-14.2
		c-1.84,4.48-2.63,8.8-3.52,13.1c-0.2,0.94,0.54,2.61-1.19,2.55c-1.38-0.05-2.74-1-2.5-2.67c1.2-8.15,2.95-16.17,6.41-23.73
		c0.58-1.27,1.38-1.48,2.69-0.88c1.59,0.72,2.33,1.6,1.87,3.43c-1.15,4.53-1.54,9.14-1.09,14.5c3.25-5.7,5.65-11.21,9.33-15.96
		c1.07-1.38,1.76-3.02,4.08-1.8c2.51,1.31,0.64,2.66,0.2,3.96c-2.22,6.65-4.09,13.37-4.87,20.36c-0.12,1.11,0.35,2.88-1.48,2.8
		c-1.49-0.06-2.2-1.32-2.22-2.91C171.66,287.43,173.11,282.71,173.66,277.78z"/>
	<path class="st2" d="M56.41,276.95c-3.74,5.53-5.16,11.21-8.3,16.76c-2.81-5.23-1.25-10.19-1.16-15.11
		c-2.16,4.56-2.97,9.49-4.12,14.33c-0.22,0.9,0.58,2.59-1.34,2.34c-1.24-0.16-2.54-1.02-2.32-2.47c1.28-8.14,2.85-16.22,6.39-23.77
		c0.51-1.08,1.28-1.66,2.71-1.04c1.65,0.72,2.25,1.7,1.89,3.46c-0.94,4.54-1.58,9.12-1.17,14.59c3.37-5.96,6.1-11.44,9.63-16.44
		c1.02-1.45,1.96-2.43,3.95-1.45c1.21,0.6,1.73,0.91,1,2.4c-3.38,6.94-4.5,14.5-5.75,22c-0.19,1.12,0.31,2.85-1.57,2.72
		c-1.51-0.11-2.39-1.36-2.16-2.94c0.59-4.12,1.27-8.23,1.91-12.35C56.09,279.25,56.19,278.54,56.41,276.95z"/>
	<path class="st1" d="M215.94,277.86c-3.55,4.76-5.45,10.11-8.31,16.33c-2.41-5.94-1.27-11.02-1.04-16.1
		c-2.07,4.65-3.1,9.61-4.13,14.57c-0.22,1.04,0.56,2.96-1.47,2.68c-1.86-0.26-2.5-1.83-2.18-3.68c0.89-5.21,1.99-10.37,3.59-15.41
		c0.71-2.23,1.47-4.45,2.37-6.6c0.49-1.19,0.98-2.65,2.97-1.72c1.53,0.72,2.49,1.48,2.02,3.35c-1.15,4.56-1.56,9.2-1.15,14.71
		c2.93-5.27,5.19-10.15,8.27-14.53c0.78-1.11,1.59-2.19,2.47-3.23c1.01-1.2,2.04-0.35,3.01,0.13c1.16,0.58,0.98,1.37,0.55,2.46
		c-2.9,7.22-4.8,14.7-5.55,22.44c-0.09,0.94-0.07,2.26-1.5,2.04c-1.3-0.2-2.12-1.15-2.16-2.62c-0.12-4.47,1.04-8.76,1.86-13.11
		C215.66,279,215.81,278.43,215.94,277.86z"/>
	<path class="st1" d="M98.87,276c-3.79,5.95-5.74,11.67-8.71,17.83c-3.05-5.63-1.01-10.91-1.01-16.72
		c-2.05,5.65-3.22,10.77-4.36,15.9c-0.2,0.91,0.55,2.61-1.44,2.22c-1.25-0.25-2.4-1.07-2.18-2.58c1.2-8.03,2.93-15.93,6.23-23.42
		c0.53-1.21,1.33-1.93,2.95-1.22c1.74,0.76,2.09,1.85,1.73,3.53c-0.95,4.46-1.49,8.97-1.16,14.47c1.99-3.55,3.55-6.46,5.23-9.3
		c1.44-2.44,3.06-4.79,4.5-7.23c1.1-1.87,2.49-2.12,4.35-1.18c2.31,1.18,0.26,2.28-0.1,3.28c-2.47,6.84-4.14,13.86-5.15,21.05
		c-0.15,1.04,0.66,2.88-1.43,2.7c-1.47-0.13-2.39-1.28-2.27-2.9c0.32-4.54,1.15-8.99,2.19-13.42
		C98.38,278.34,98.51,277.66,98.87,276z"/>
	<path class="st1" d="M110.33,294.18c1.43,0.06,2.67-0.36,3.87-1.14c3.24-2.09,3.39-4.01,0.28-6.22c-1-0.71-2.17-1.19-3.27-1.76
		c-5.43-2.84-6.46-7.16-3.02-12.28c1.99-2.97,4.9-4.57,8.28-5.16c2.42-0.42,4.48,0.41,6.15,2.55c1.69,2.17,0.92,3.84-0.26,5.69
		c-0.92,1.46-1.8,2.95-2.7,4.43c-0.51,0.83-0.41,2.54-2.12,1.78c-1.55-0.69-1.7-2.24-1.09-3.49c0.75-1.53,1.98-2.81,2.95-4.24
		c0.68-1,1.7-2.1,0.6-3.29c-1.11-1.19-2.51-0.74-3.77-0.06c-2.14,1.15-3.74,2.78-4.69,5.07c-1.13,2.75-0.52,4.79,2.2,6.13
		c0.67,0.33,1.36,0.61,2.07,0.85c2.56,0.88,5.05,2.1,5.52,4.94c0.53,3.2-1.72,5.36-4.13,6.93c-2.98,1.94-6.34,2.91-9.91,1.49
		c-4.23-1.68-5.12-6.55-1.77-9.6c1.41-1.28,3-1.33,4.28,0.1c1.43,1.61-0.46,1.95-1.26,2.68c-1,0.91-2.39,1.76-1.79,3.33
		C107.36,294.49,109,294.1,110.33,294.18z"/>
	<path class="st3" d="M198.77,277.41c-0.1,5.32-1.64,10.22-4.96,14.41c-2.16,2.73-4.96,4.62-8.76,3.41
		c-3.82-1.22-4.84-4.38-5.07-7.84c-0.33-4.89,0.72-9.54,3.2-13.8c3.65-6.28,5.02-5.84,10.9-5.2
		C197.28,268.73,198.76,272.08,198.77,277.41z"/>
	<path class="st4" d="M80.36,282.4c-0.53,4.29-2.34,7.99-5.55,10.91c-4.51,4.1-10.4,2.65-11.83-3.19
		c-1.91-7.81,0.29-14.9,5.87-20.64c3.71-3.83,9.57-2.1,11.51,2.98C80.83,275.77,80.83,279.08,80.36,282.4z"/>
	<path class="st4" d="M134.79,274.86c0.63-5.45,3.98-9.7,6.51-14.31c1.61-2.94,4.43-1.72,6.7-1.5c2.18,0.21,1.23,2.35,1.26,3.66
		c0.11,3.93,0.39,7.91-0.06,11.8c-0.48,4.22,1.05,6.45,5.17,7.14c-2.35,3.07-5.56,1.52-8.35,1.26c-2.4-0.23-2.23-2.61-2.27-4.43
		c-0.08-3.31-0.05-6.62,0.01-10.35c-2.5,3.46-4.65,6.75-7,9.89c-0.52,0.7-1.23,1.5-2.11,1.3c-1.2-0.28-1.13-1.43-1.06-2.43
		C133.72,276.05,134.16,275.4,134.79,274.86z"/>
	<path class="st5" d="M134.39,276.34c-0.06,0.85-0.11,1.71-0.17,2.56c0.19,0.1,0.37,0.21,0.56,0.31c3.14-4.52,6.28-9.03,10-14.38
		c0,5.51,0.1,10.12-0.04,14.72c-0.06,2.11,0.63,3.01,2.75,2.68c2.28-0.35,4.69,0.77,6.89-0.58c1.08,2.22,0.71,2.65-2.42,2.74
		c-4.55-0.71-9.02,0.98-13.58,0.48c-1.22-0.13-2.47,0.03-3.7-0.04c-3.79-0.22-4.6-1.31-3.65-4.86c0.22-0.82,0.56-1.61,0.86-2.41
		C133.13,275.51,133.35,275.4,134.39,276.34z"/>
	<path class="st6" d="M132.86,277.12c-1.32,6.57-1.32,6.42,5.57,6.56c4.5,0.1,9.09-0.92,13.52,0.71c-1.41,0.09-2.81,0.18-4.21,0.28
		c-5.84,3.04-12.5,2.17-18.65,3.72c-1.32,0.33-2.71-0.03-3.76-1.06c2.22-3.94,4.44-7.88,6.67-11.83
		C133.21,275.55,133.22,276.24,132.86,277.12z"/>
	<path class="st7" d="M146.28,286.17c2-0.42,3.43-0.26,3.05,2.4c-0.19,1.32,0,2.7-0.04,4.04c-0.05,1.38,0.49,3.01-2.01,3.03
		c-2.35,0.01-2.69-1.16-2.51-3.02c0.07-0.72-0.03-1.46-0.05-2.2c-2.84-1.55-5.98-0.93-9-1.23c-0.69-0.32-1.6-0.42-1.6-1.47
		C138,285.86,142.26,286.95,146.28,286.17z"/>
	<path class="st8" d="M135.81,288.96c2.49,0.13,4.98,0.26,7.47,0.38c0.75,0.04,1.57-0.06,1.45,1.09
		c-5.54-0.96-11.15-0.83-16.72-0.63c-2.14,0.08-2.43-0.98-2.68-2.47c6.73,0.1,13.25-1.47,19.86-2.33c0.85-0.11,1.7-0.22,2.56-0.33
		c-0.49,0.5-0.97,1.01-1.46,1.51c-2.28,2-5.06,0.99-7.63,1.25c-1.55,0.16-3.2-0.21-4.63,0.71c-1.38,0.8-2.82,0.35-4.52,0.32
		C131.75,288.9,133.87,288.1,135.81,288.96z"/>
	<path class="st9" d="M197.5,304.26c0.83-1.21,0.11-2.41,1.34-3.27c1.25,2.16,0.46,4.37,0.6,6.77c-2.09-0.74-2.93-2.59-4.64-3.56
		c-1.25,0.89,0.09,2.65-1.32,3.67c-1.36-1.85-0.66-3.92-0.62-5.82c0.03-1.47,1.04-1.02,1.78-0.39
		C195.56,302.44,196.43,303.28,197.5,304.26z"/>
	<path class="st10" d="M157.47,300.81c1.99,0.8,1.46,2.54,2.62,3.16c1.07-0.55,0.77-1.96,1.62-2.7c1.36,0.35,0.96,1.97,2.24,2.59
		c1.24-0.3,0.45-2.46,2.26-2.84c-0.15,2.43-1.26,4.41-1.99,6.61c-1.59-0.66-1.17-2.37-2.36-3.49c-0.57,1.04-1.11,2-1.83,3.3
		C158.78,305.29,157.91,303.42,157.47,300.81z"/>
	<path class="st11" d="M204.35,300.98c2.21,0.21,1.49,2.36,2.92,3.11c0.48-0.99,0.93-1.91,1.36-2.81c1.76,0.2,0.89,2.27,2.31,2.69
		c1.01-0.71,0.69-2.49,2.5-3.16c-0.38,2.45-1.29,4.34-2.18,6.26c-1.61-0.29-1.22-2.12-2.42-2.7c-0.84,0.74-0.56,2.29-2.22,2.89
		C205.88,305.21,205.14,303.18,204.35,300.98z"/>
	<path class="st10" d="M225.92,307.64c-2.43,0.5-2.25-1.63-3.45-1.88c-0.94,0.31,0,1.78-1.33,1.89c-1.2-1.64-0.51-3.53-0.59-5.31
		c-0.06-1.33,0.9-1.59,2.02-1.55c1.26,0.04,2.72,0.72,2.19,1.81C223.8,304.58,224.19,306.11,225.92,307.64z"/>
	<path class="st12" d="M179.36,300.87c1.22,0,2.45,0,3.53,0c1.54,2.13-5.17,4.54,0.68,6.44c-1.46,1.37-3.45,1.29-4.39,0.49
		c-1.27-1.1,0.5-2.31,1.12-3.39C181.19,302.86,182.31,301.36,179.36,300.87z"/>
	<path class="st13" d="M171.46,307.54c-1.09,0.86-2.5,0.97-3,0.07c-1.04-1.85-0.72-4.07-0.25-6.03c0.33-1.34,1.86-0.62,3.41-0.67
		c-3.35,1.08-1.83,2.24-0.61,3.39C167.41,305.75,171.04,306.5,171.46,307.54z"/>
	<path class="st14" d="M232.04,301.02c-4.62,2.77-0.48,4.51,0.04,6.78c-2.17,0.18-2.24-2.13-3.8-2.76c-0.21,0.87-0.4,1.69-0.75,3.15
		C226.64,304.22,226.43,301.29,232.04,301.02z"/>
	<path class="st15" d="M242.89,266.64c0.01-0.81,0.03-1.61,0.04-2.42c1.38-1.86,3.42-0.94,5.18-1.21c0.75-0.54,1.29-1.38,2.33-1.47
		c0.94,0.16,1.72,0.56,1.37,1.64c-0.41,1.28-1.58,1.28-2.7,1.3C246.8,264.54,244.21,263.83,242.89,266.64z"/>
	<path class="st16" d="M218.66,300.46c-0.79,1.56-2.56,0.74-2.52,2.17c0.04,1.4,1.64,0.75,2.29,1.42c-0.61,0.83-2.25,0.05-2.29,1.49
		c-0.05,1.68,1.91,0.73,2.47,1.8c-0.7,1.32-2.21,1.07-2.76,0.45c-1.41-1.6-0.67-3.74-0.61-5.63
		C215.3,300.13,217.03,301.1,218.66,300.46z"/>
	<path class="st17" d="M190.62,300.51c0.85,2.61,0.79,4.6,0.28,6.56c-0.18,0.71-0.96,1.25-1.77,0.94c-1.24-0.48-0.38-0.98,0.06-1.55
		C190.42,304.89,189.07,302.83,190.62,300.51z"/>
	<path class="st18" d="M185.9,307.68c-0.78-2.18-1-4.34,0.04-7.48C187,303.35,186.95,305.51,185.9,307.68z"/>
	<path class="st19" d="M227.9,263.08c0.58-0.08,1.19-0.12,1.51-0.72c0.29-0.23,0.58-0.49,0.97-0.5c1.74-0.03,3.51-0.1,4.88,1.2
		c0.4,0.38,0.08,0.97-0.3,1.26c-1.44,1.1-3,1.71-4.81,0.87c0.02-0.24,0.02-0.48,0.02-0.73C229.41,263.99,228.66,263.53,227.9,263.08
		z"/>
	<path class="st20" d="M174.28,301.25c1.39,1.95-1.18,5.71,3.7,5.83C173.76,308.67,173.32,307.79,174.28,301.25z"/>
	<path class="st21" d="M237.53,300.93c-3.41,1.58-1.32,4.41-2.39,6.54c-0.95-1.05-0.49-2.23-0.51-3.28
		c-0.03-1.34-0.43-2.4-2.67-3.27C234.26,300.93,235.48,300.93,237.53,300.93z"/>
	<path class="st22" d="M250.43,261.54c-0.44,1.01-1.21,1.52-2.33,1.47c-0.28-1.25,2.21-2.3,0.23-3.72c-0.33-0.24,0-1.05,0.51-1.13
		c0.37-0.06,1.09,0.27,1.17,0.55C250.28,259.62,250.31,260.59,250.43,261.54z"/>
	<path class="st23" d="M80.36,282.4c0-3.31,0-6.63,0-9.94C81.74,275.77,81.53,279.08,80.36,282.4z"/>
	<path class="st24" d="M132.86,277.12c-0.17-0.6-0.07-1.35-0.87-1.62c0.63-0.8,0.36-2.36,1.59-2.51c1-0.12,0.47,1.42,1.21,1.86
		c0.22,0.59,0.09,1.09-0.4,1.49C133.35,275.57,133.46,277.04,132.86,277.12z"/>
	<path class="st25" d="M230.15,265.18c1.41-0.88,3.43-0.29,4.67-1.88c-1.87-0.33-3.63-0.64-5.4-0.95c-3.62-0.84-3.11-3.71-2.97-6.23
		c0.17-2.95,1.86-5.19,4.57-6.2c2.2-0.82,3.47,1.05,4.24,2.74c1.62,3.57,1.54,7.66,3.45,11.18c0.53,0.98-0.59,1.06-1.2,1.37
		c-2.76,1.39-5.5,2.84-8.28,4.19c-0.78,0.38-1.68,1.65-2.52,0.42c-0.6-0.88,0.18-1.96,0.82-2.65
		C228.24,266.37,229.26,265.83,230.15,265.18z"/>
	<path class="st26" d="M194.46,276.29c-0.31,5.15-1.32,10.3-4.42,14.82c-0.74,1.08-1.63,2.46-3.21,2.1
		c-1.67-0.38-2.18-1.94-2.33-3.45c-0.6-6.06,0.76-11.73,3.94-16.92c0.87-1.42,2.06-3.31,3.97-2.86c2.24,0.53,1.97,2.82,2.05,4.65
		C194.47,275.12,194.46,275.61,194.46,276.29z"/>
	<path class="st27" d="M66.7,286.34c0.47-5.01,1.59-10.14,4.94-14.5c0.72-0.94,1.25-2.56,3.09-1.98c1.74,0.55,2.16,2.08,2.27,3.5
		c0.34,4.35-0.59,8.57-2.01,12.65c-0.64,1.84-1.52,3.64-2.6,5.26c-0.69,1.04-1.66,2.44-3.29,1.91c-1.42-0.46-1.98-1.83-2.22-3.19
		C66.7,288.9,66.77,287.77,66.7,286.34z"/>
	<path class="st28" d="M135.81,288.96c-2.22,0-4.45,0-6.67,0c-0.01-0.28-0.01-0.55-0.02-0.83c1.64,0,3.27,0,4.91,0
		C134.7,288.24,135.39,288.32,135.81,288.96z"/>
</g>
</svg>
