<svg width="48" height="48" viewBox="0 0 48 48" fill="none" xmlns="http://www.w3.org/2000/svg">
<path d="M47 2.5H1C0.735027 2.50079 0.481133 2.6064 0.293767 2.79377C0.106402 2.98113 0.000791363 3.23503 0 3.5L0 34.5C0.000791363 34.765 0.106402 35.0189 0.293767 35.2062C0.481133 35.3936 0.735027 35.4992 1 35.5H19V41.5H10C9.46957 41.5 8.96086 41.7107 8.58579 42.0858C8.21071 42.4609 8 42.9696 8 43.5V45C8 45.1326 8.05268 45.2598 8.14645 45.3536C8.24021 45.4473 8.36739 45.5 8.5 45.5H39.5C39.6326 45.5 39.7598 45.4473 39.8536 45.3536C39.9473 45.2598 40 45.1326 40 45V43.5C40 42.9696 39.7893 42.4609 39.4142 42.0858C39.0391 41.7107 38.5304 41.5 38 41.5H29V35.5H47C47.265 35.4992 47.5189 35.3936 47.7062 35.2062C47.8936 35.0189 47.9992 34.765 48 34.5V3.5C47.9992 3.23503 47.8936 2.98113 47.7062 2.79377C47.5189 2.6064 47.265 2.50079 47 2.5V2.5ZM25.9 34C25.784 34.4147 25.5355 34.78 25.1924 35.0402C24.8493 35.3004 24.4306 35.4413 24 35.4413C23.5694 35.4413 23.1507 35.3004 22.8076 35.0402C22.4645 34.78 22.216 34.4147 22.1 34C22.0515 33.8276 22.028 33.6491 22.03 33.47C22.0256 33.1289 22.1156 32.7932 22.29 32.5C22.4607 32.1966 22.709 31.9441 23.0095 31.7683C23.31 31.5926 23.6519 31.4999 24 31.4999C24.3481 31.4999 24.69 31.5926 24.9905 31.7683C25.291 31.9441 25.5393 32.1966 25.71 32.5C25.8844 32.7932 25.9744 33.1289 25.97 33.47C25.972 33.6491 25.9485 33.8276 25.9 34V34ZM4 29.5V6.5H44V29.5H4Z" fill="#011E41"/>
</svg>
