<svg width="48" height="48" viewBox="0 0 48 48" fill="none" xmlns="http://www.w3.org/2000/svg">
<path d="M8.38443 33.7962L1.20523 40.9754C0.433533 41.7471 -1.62622e-08 42.7938 0 43.8851C1.62622e-08 44.9764 0.433533 46.0231 1.20523 46.7948C1.97692 47.5665 3.02356 48 4.1149 48C5.20624 48 6.25288 47.5665 7.02458 46.7948L14.2038 39.6156C11.9435 38.0252 9.97479 36.0565 8.38443 33.7962V33.7962ZM28.0022 9.00523e-07C24.047 9.00523e-07 20.1807 1.17285 16.8921 3.37023C13.6035 5.56762 11.0403 8.69084 9.52671 12.345C8.01312 15.9991 7.6171 20.0199 8.38872 23.8991C9.16034 27.7783 11.0649 31.3416 13.8617 34.1383C16.6584 36.9351 20.2217 38.8397 24.1009 39.6113C27.9801 40.3829 32.0009 39.9869 35.655 38.4733C39.3092 36.9597 42.4324 34.3965 44.6298 31.1079C46.8271 27.8193 48 23.953 48 19.9978C48.0008 17.3714 47.4841 14.7706 46.4794 12.344C45.4747 9.91742 44.0017 7.71257 42.1445 5.85545C40.2874 3.99833 38.0826 2.52534 35.656 1.52063C33.2294 0.515932 30.6286 -0.000787364 28.0022 9.00523e-07V9.00523e-07ZM39.001 30.1766C36.9524 32.3863 34.2858 33.9277 31.3486 34.6C28.4114 35.2723 25.3398 35.0443 22.534 33.9457C19.7282 32.8471 17.3184 30.9289 15.6185 28.441C13.9186 25.9532 13.0075 23.0109 13.0039 19.9978C13.001 17.5545 13.595 15.1475 14.7342 12.9861C15.8735 10.8247 17.5236 8.97441 19.5409 7.59604C21.5582 6.21768 23.8818 5.35301 26.3094 5.07725C28.7371 4.80149 31.1953 5.12298 33.4704 6.01377C35.7455 6.90456 37.7686 8.33766 39.3636 10.1885C40.9586 12.0392 42.0773 14.2517 42.6225 16.6334C43.1676 19.015 43.1226 21.4938 42.4915 23.8542C41.8603 26.2145 40.6621 28.3849 39.001 30.1766Z" fill="#011E41"/>
<path d="M39.4153 18.5844L33.416 12.5851C33.2315 12.3941 33.0108 12.2418 32.7668 12.137C32.5229 12.0322 32.2604 11.977 31.9949 11.9747C31.7294 11.9724 31.4661 12.023 31.2203 12.1235C30.9745 12.2241 30.7513 12.3726 30.5635 12.5603C30.3757 12.7481 30.2272 12.9714 30.1267 13.2171C30.0261 13.4629 29.9755 13.7262 29.9778 13.9918C29.9801 14.2573 30.0353 14.5197 30.1401 14.7637C30.2449 15.0077 30.3973 15.2283 30.5883 15.4128L33.174 17.9985H18.0037C17.4733 17.9985 16.9647 18.2092 16.5896 18.5842C16.2146 18.9593 16.0039 19.4679 16.0039 19.9983C16.0039 20.5287 16.2146 21.0373 16.5896 21.4123C16.9647 21.7874 17.4733 21.9981 18.0037 21.9981H33.174L30.5883 24.5838C30.3973 24.7683 30.2449 24.9889 30.1401 25.2329C30.0353 25.4769 29.9801 25.7393 29.9778 26.0048C29.9755 26.2703 30.0261 26.5337 30.1267 26.7794C30.2272 27.0252 30.3757 27.2485 30.5635 27.4362C30.7513 27.624 30.9745 27.7725 31.2203 27.8731C31.4661 27.9736 31.7294 28.0242 31.9949 28.0219C32.2604 28.0196 32.5229 27.9644 32.7668 27.8596C33.0108 27.7548 33.2315 27.6025 33.416 27.4115L39.4153 21.4121C39.7902 21.0371 40.0008 20.5286 40.0008 19.9983C40.0008 19.468 39.7902 18.9595 39.4153 18.5844V18.5844Z" fill="#011E41"/>
</svg>
