<svg width="48" height="48" viewBox="0 0 48 48" fill="none" xmlns="http://www.w3.org/2000/svg">
<path d="M24 10C26.7614 10 29 7.76142 29 5C29 2.23858 26.7614 0 24 0C21.2386 0 19 2.23858 19 5C19 7.76142 21.2386 10 24 10Z" fill="#011E41"/>
<path d="M24 29C26.7614 29 29 26.7614 29 24C29 21.2386 26.7614 19 24 19C21.2386 19 19 21.2386 19 24C19 26.7614 21.2386 29 24 29Z" fill="#011E41"/>
<path d="M24 48C26.7614 48 29 45.7614 29 43C29 40.2386 26.7614 38 24 38C21.2386 38 19 40.2386 19 43C19 45.7614 21.2386 48 24 48Z" fill="#011E41"/>
</svg>
