<svg width="48" height="48" viewBox="0 0 48 48" fill="none" xmlns="http://www.w3.org/2000/svg">
<path d="M46.5 44.9999H1.5C1.10218 44.9999 0.720644 45.1579 0.43934 45.4393C0.158035 45.7206 0 46.1021 0 46.4999C0 46.8977 0.158035 47.2793 0.43934 47.5606C0.720644 47.8419 1.10218 47.9999 1.5 47.9999H46.5C46.8978 47.9999 47.2794 47.8419 47.5607 47.5606C47.842 47.2793 48 46.8977 48 46.4999C48 46.1021 47.842 45.7206 47.5607 45.4393C47.2794 45.1579 46.8978 44.9999 46.5 44.9999ZM5.5 42.9999H42.5C42.8978 42.9999 43.2794 42.8419 43.5607 42.5606C43.842 42.2793 44 41.8977 44 41.4999C44 41.1021 43.842 40.7206 43.5607 40.4393C43.2794 40.1579 42.8978 39.9999 42.5 39.9999H5.5C5.10218 39.9999 4.72064 40.1579 4.43934 40.4393C4.15804 40.7206 4 41.1021 4 41.4999C4 41.8977 4.15804 42.2793 4.43934 42.5606C4.72064 42.8419 5.10218 42.9999 5.5 42.9999V42.9999ZM12.94 20.2299C13.2627 20.5553 13.6179 20.8468 14 21.0999V37.9999H21V27.2599C21 25.4599 24 23.9999 24 23.9999C24 23.9999 27 25.4599 27 27.2599V37.9999H34V21.0999C34.3821 20.8468 34.7373 20.5553 35.06 20.2299L35.11 20.1899C36.3445 18.9492 37.0375 17.2702 37.0375 15.5199C37.0375 13.7697 36.3445 12.0906 35.11 10.8499L24.44 0.179911C24.3226 0.0646036 24.1646 0 24 0C23.8354 0 23.6774 0.0646036 23.56 0.179911L12.89 10.8499C11.6555 12.0906 10.9625 13.7697 10.9625 15.5199C10.9625 17.2702 11.6555 18.9492 12.89 20.1899L12.94 20.2299ZM24 8.99991C24.262 9.00073 24.5233 9.02753 24.78 9.07991C23.9327 9.25703 23.1813 9.74207 22.671 10.4412C22.1607 11.1403 21.9278 12.0039 22.0174 12.8648C22.1069 13.7257 22.5126 14.5228 23.1559 15.1019C23.7992 15.6811 24.6344 16.001 25.5 15.9999C26.0128 16.0013 26.5192 15.885 26.98 15.6599C26.6073 16.0825 26.1486 16.4207 25.6347 16.6518C25.1208 16.8829 24.5635 17.0015 24 16.9999C22.9391 16.9999 21.9217 16.5785 21.1716 15.8283C20.4214 15.0782 20 14.0608 20 12.9999C20 11.939 20.4214 10.9216 21.1716 10.1715C21.9217 9.42134 22.9391 8.99991 24 8.99991Z" fill="#011E41"/>
</svg>
