<svg width="48" height="48" viewBox="0 0 48 48" fill="none" xmlns="http://www.w3.org/2000/svg">
<path d="M18.7994 25.839L15.7545 22.7941C15.4947 22.5347 15.1678 22.3528 14.8104 22.2687C14.453 22.1846 14.0792 22.2016 13.731 22.3179L1.75116 26.3171C1.43775 26.4152 1.14704 26.5747 0.896024 26.7864C0.645008 26.9981 0.438731 27.2578 0.289259 27.5502C0.139786 27.8425 0.0501197 28.1618 0.025504 28.4892C0.000888305 28.8167 0.0418179 29.1458 0.145898 29.4572C0.249979 29.7687 0.415121 30.0562 0.631664 30.3031C0.848206 30.5499 1.1118 30.7511 1.40703 30.8949C1.70226 31.0387 2.0232 31.1221 2.35107 31.1404C2.67893 31.1587 3.00715 31.1114 3.31652 31.0012L12.4811 27.9464L4.78704 35.7153C4.31893 36.1834 4.05594 36.8183 4.05594 37.4803C4.05594 38.1423 4.31893 38.7772 4.78704 39.2453C5.25515 39.7135 5.89005 39.9764 6.55206 39.9764C7.21407 39.9764 7.84897 39.7135 8.31709 39.2453L20.211 27.2506L18.7994 25.839ZM25.5051 18.4265L27.2701 20.1915L39.2649 8.29753C39.733 7.82942 39.996 7.19452 39.996 6.53251C39.996 5.8705 39.733 5.2356 39.2649 4.76749C38.7968 4.29937 38.1619 4.03639 37.4999 4.03639C36.8379 4.03639 36.203 4.29937 35.7349 4.76749L27.966 12.4625L31.0218 3.29796C31.1319 2.9886 31.1792 2.66038 31.161 2.33251C31.1427 2.00464 31.0592 1.68371 30.9155 1.38848C30.7717 1.09325 30.5705 0.829652 30.3236 0.613109C30.0768 0.396566 29.7892 0.231424 29.4778 0.127344C29.1663 0.0232632 28.8372 -0.0176664 28.5098 0.00694929C28.1823 0.031565 27.8631 0.121232 27.5707 0.270704C27.2783 0.420177 27.0187 0.626454 26.807 0.877469C26.5952 1.12848 26.4357 1.4192 26.3377 1.7326L22.3384 13.7124C22.222 14.0609 22.2049 14.4349 22.2892 14.7925C22.3735 15.1502 22.5558 15.4772 22.8156 15.737L25.5051 18.4265ZM45.107 25.0014L47.5429 22.5655C47.8075 22.2816 47.9515 21.9061 47.9446 21.5182C47.9378 21.1302 47.7806 20.7601 47.5062 20.4857C47.2319 20.2114 46.8617 20.0542 46.4738 20.0474C46.0858 20.0405 45.7104 20.1845 45.4265 20.449L20.4686 45.407C20.3215 45.544 20.2035 45.7094 20.1216 45.8931C20.0398 46.0767 19.9958 46.275 19.9922 46.4761C19.9887 46.6772 20.0257 46.8769 20.101 47.0634C20.1763 47.2498 20.2884 47.4192 20.4306 47.5614C20.5728 47.7036 20.7422 47.8157 20.9286 47.891C21.1151 47.9663 21.3148 48.0033 21.5159 47.9998C21.7169 47.9962 21.9152 47.9522 22.0989 47.8704C22.2826 47.7885 22.4479 47.6705 22.585 47.5234L25.0209 45.0875L27.4568 47.5234C27.7379 47.8035 28.1182 47.9613 28.515 47.9626H29.5133C29.9102 47.9613 30.2904 47.8035 30.5716 47.5234L33.5066 44.5883L36.4417 47.5234C36.7224 47.8038 37.103 47.9613 37.4999 47.9613C37.8967 47.9613 38.2773 47.8038 38.5581 47.5234L47.5429 38.5385C47.8234 38.2578 47.9809 37.8772 47.9809 37.4803C47.9809 37.0835 47.8234 36.7029 47.5429 36.4221L44.6079 33.4871L47.5429 30.552C47.6827 30.4136 47.7936 30.2488 47.869 30.0671C47.9444 29.8854 47.9829 29.6905 47.9822 29.4938V28.4955C47.9829 28.2988 47.9444 28.1039 47.869 27.9222C47.7936 27.7405 47.6827 27.5757 47.5429 27.4373L45.107 25.0014ZM38.4982 31.6112L40.375 33.4881L37.999 35.8611L36.1242 33.9862L38.4982 31.6112ZM29.0142 44.8479L27.1374 42.9711L29.5133 40.5961L31.3902 42.4729L29.0142 44.8479ZM31.6308 38.4786L34.0058 36.1036L35.8826 37.9805L33.5066 40.3545L31.6308 38.4786ZM37.4999 44.3477L35.623 42.4709L37.999 40.0969L39.8749 41.9727L37.4999 44.3477ZM41.9923 39.8553L40.1155 37.9785L42.4915 35.6045L44.3673 37.4803L41.9923 39.8553ZM42.4915 31.3696L40.6166 29.4938L42.9926 27.1178L44.8675 28.9946L42.4915 31.3696ZM22.3714 25.1811L23.0403 25.8499C23.0373 25.8999 23.0243 25.9488 23.0243 25.9997C23.018 26.4631 23.1209 26.9215 23.3245 27.3379C23.5281 27.7542 23.8269 28.1169 24.1965 28.3964C24.5662 28.676 24.9964 28.8647 25.4525 28.9473C25.9086 29.0299 26.3777 29.004 26.8219 28.8718C26.8506 28.9213 26.8822 28.969 26.9167 29.0146L28.4541 30.552C28.7364 30.8249 29.1146 30.976 29.5073 30.9728C29.8999 30.9696 30.2756 30.8123 30.5533 30.5348C30.8311 30.2572 30.9888 29.8817 30.9924 29.4891C30.996 29.0965 30.8452 28.7181 30.5726 28.4356L29.0352 26.8982C28.9893 26.8633 28.9413 26.8313 28.8914 26.8023C29.0236 26.3581 29.0494 25.889 28.9669 25.4329C28.8843 24.9769 28.6956 24.5466 28.416 24.177C28.1364 23.8073 27.7738 23.5086 27.3574 23.305C26.9411 23.1013 26.4827 22.9985 26.0192 23.0047C25.9683 23.0047 25.9194 23.0177 25.8695 23.0197L25.2006 22.3508L11.4897 8.63896C11.3052 8.44736 11.0843 8.29448 10.84 8.18923C10.5957 8.08399 10.3329 8.0285 10.0669 8.026C9.80085 8.02351 9.53702 8.07407 9.29078 8.17471C9.04454 8.27536 8.82083 8.42408 8.63273 8.61218C8.44463 8.80028 8.29591 9.02399 8.19526 9.27023C8.09462 9.51647 8.04406 9.7803 8.04656 10.0463C8.04905 10.3123 8.10454 10.5751 8.20978 10.8195C8.31503 11.0638 8.46792 11.2846 8.65951 11.4692L22.3714 25.1811Z" fill="#011E41"/>
</svg>
