<svg width="48" height="48" viewBox="0 0 48 48" fill="none" xmlns="http://www.w3.org/2000/svg">
<path d="M48 7.99928C47.9997 5.91615 47.186 3.91547 45.7323 2.42345C44.2785 0.931428 42.2997 0.0659999 40.2173 0.0115251C38.1348 -0.0429497 36.1134 0.717835 34.5837 2.13181C33.0539 3.54578 32.1368 5.50118 32.0275 7.58145L14.0309 13.7359C13.0486 12.6087 11.77 11.7793 10.3403 11.3418C8.91053 10.9044 7.38678 10.8764 5.94191 11.261C4.49704 11.6456 3.18887 12.4274 2.16582 13.5178C1.14276 14.6082 0.445766 15.9635 0.153898 17.4299C-0.137971 18.8963 -0.0130282 20.4152 0.514552 21.8142C1.04213 23.2132 1.95123 24.4364 3.13872 25.3449C4.32621 26.2535 5.74455 26.8111 7.23285 26.9544C8.72116 27.0977 10.2198 26.8211 11.5589 26.1559L24.4396 37.4143C23.9623 38.8132 23.8821 40.317 24.208 41.7588C24.5338 43.2005 25.2529 44.5237 26.2854 45.5814C27.3179 46.6391 28.6233 47.39 30.0568 47.7505C31.4903 48.111 32.9956 48.0671 34.4056 47.6237C35.8157 47.1803 37.0752 46.3547 38.0443 45.2386C39.0134 44.1226 39.6542 42.7597 39.8955 41.3014C40.1368 39.8432 39.9691 38.3465 39.4111 36.9778C38.8531 35.6091 37.9267 34.4218 36.7346 33.5478L41.1808 15.9001C43.0757 15.619 44.8065 14.6667 46.0582 13.2165C47.3098 11.7664 47.9989 9.91488 48 7.99928V7.99928ZM28.36 32.8751L15.5433 21.6737C15.8029 20.9433 15.9545 20.1789 15.9931 19.4046L33.9827 13.2511C34.3895 13.717 34.8486 14.1342 35.3512 14.4946L30.923 32.0714C30.0292 32.1918 29.1625 32.4636 28.36 32.8751V32.8751Z" fill="#011E41"/>
</svg>
