<svg width="48" height="48" viewBox="0 0 48 48" fill="none" xmlns="http://www.w3.org/2000/svg">
<path d="M7.00961 18.0153C9.21759 18.0153 11.0075 16.2254 11.0075 14.0174C11.0075 11.8094 9.21759 10.0195 7.00961 10.0195C4.80164 10.0195 3.01172 11.8094 3.01172 14.0174C3.01172 16.2254 4.80164 18.0153 7.00961 18.0153Z" fill="#011E41"/>
<path d="M43.2394 27.4481C40.6843 25.4858 37.5936 24.3453 34.3762 24.1775C31.1588 24.0098 27.9663 24.8226 25.2209 26.5086L16.7434 18.8027C18.3085 16.3935 19.0972 13.5623 19.0032 10.6909C18.8117 6.87038 17.1729 3.26602 14.4196 0.610255C14.2352 0.419335 14.0146 0.267051 13.7708 0.162288C13.5269 0.0575253 13.2646 0.00238189 12.9992 7.54737e-05C12.7337 -0.00223094 12.4705 0.0483458 12.2249 0.148855C11.9792 0.249364 11.756 0.397792 11.5683 0.585478C11.3806 0.773165 11.2322 0.996351 11.1317 1.24201C11.0312 1.48768 10.9806 1.7509 10.9829 2.01632C10.9852 2.28174 11.0404 2.54404 11.1451 2.78792C11.2499 3.0318 11.4022 3.25237 11.5931 3.43677C13.5935 5.3456 14.8102 7.93183 15.0053 10.6899C15.0033 13.7114 14.2137 15.9692 12.5926 17.5913C12.5726 17.6113 12.5596 17.6343 12.5416 17.6543L10.3697 19.9501C8.98258 21.25 7.87934 22.8228 7.1294 24.5697C6.37946 26.3166 5.99903 28.1997 6.01204 30.1007C6.33374 33.6663 7.96616 36.986 10.5936 39.4178C10.9706 39.7819 11.4756 39.9834 11.9997 39.9789C12.5238 39.9743 13.0252 39.7641 13.3958 39.3935C13.7664 39.0228 13.9766 38.5215 13.9812 37.9974C13.9857 37.4733 13.7843 36.9683 13.4201 36.5913C11.5128 34.8522 10.2999 32.4812 10.0059 29.9168C9.97538 28.2232 10.4451 26.5583 11.3562 25.1303L35.6394 47.4716C36.0296 47.8308 36.5465 48.0202 37.0764 47.9983C37.6063 47.9764 38.1058 47.7448 38.4649 47.3546C38.8241 46.9644 39.0136 46.4475 38.9917 45.9177C38.9697 45.3878 38.7382 44.8883 38.348 44.5291L24.7682 32.0357C28.3833 27.9688 35.5375 26.4087 40.7427 30.5715C41.1569 30.9026 41.6857 31.0555 42.2127 30.9968C42.7396 30.938 43.2217 30.6723 43.5528 30.2581C43.8838 29.844 44.0368 29.3152 43.9781 28.7882C43.9193 28.2613 43.6536 27.7792 43.2394 27.4481V27.4481ZM28.4982 10.0193C28.8958 10.0193 29.2771 9.86135 29.5583 9.58019C29.8395 9.29903 29.9974 8.9177 29.9974 8.52009V1.52377C29.9974 1.12616 29.8395 0.744829 29.5583 0.463672C29.2771 0.182516 28.8958 0.0245635 28.4982 0.0245635C28.1006 0.0245635 27.7193 0.182516 27.4381 0.463672C27.1569 0.744829 26.999 1.12616 26.999 1.52377V8.52009C26.999 8.9177 27.1569 9.29903 27.4381 9.58019C27.7193 9.86135 28.1006 10.0193 28.4982 10.0193ZM43.4903 15.0167H36.494C36.0964 15.0167 35.715 15.1746 35.4339 15.4558C35.1527 15.7369 34.9948 16.1183 34.9948 16.5159C34.9948 16.9135 35.1527 17.2948 35.4339 17.576C35.715 17.8571 36.0964 18.0151 36.494 18.0151H43.4903C43.8879 18.0151 44.2692 17.8571 44.5504 17.576C44.8316 17.2948 44.9895 16.9135 44.9895 16.5159C44.9895 16.1183 44.8316 15.7369 44.5504 15.4558C44.2692 15.1746 43.8879 15.0167 43.4903 15.0167ZM35.5545 11.5785L40.5518 6.58111C40.8167 6.29691 40.9608 5.92101 40.954 5.53262C40.9471 5.14422 40.7898 4.77364 40.5151 4.49896C40.2404 4.22428 39.8699 4.06694 39.4815 4.06009C39.0931 4.05324 38.7172 4.19741 38.433 4.46223L33.4356 9.45959C33.2883 9.59685 33.1702 9.76236 33.0882 9.94626C33.0063 10.1302 32.9622 10.3287 32.9587 10.53C32.9551 10.7313 32.9921 10.9312 33.0675 11.1179C33.1429 11.3046 33.2552 11.4742 33.3975 11.6165C33.5399 11.7589 33.7095 11.8711 33.8962 11.9465C34.0828 12.0219 34.2828 12.059 34.4841 12.0554C34.6854 12.0519 34.8839 12.0078 35.0678 11.9259C35.2517 11.8439 35.4172 11.7258 35.5545 11.5785Z" fill="#011E41"/>
</svg>
