<svg width="48" height="48" viewBox="0 0 48 48" fill="none" xmlns="http://www.w3.org/2000/svg">
<path d="M17.0002 8.5C17.0002 10.2239 17.685 11.8772 18.904 13.0962C20.123 14.3152 21.7763 15 23.5002 15C25.2241 15 26.8774 14.3152 28.0964 13.0962C29.3154 11.8772 30.0002 10.2239 30.0002 8.5C30.0019 7.99451 29.9414 7.49074 29.8202 7H17.1802C17.059 7.49074 16.9985 7.99451 17.0002 8.5V8.5ZM18.0002 5H29.0002C29.5384 4.99157 30.0513 4.76992 30.4263 4.3837C30.8013 3.99748 31.0077 3.47825 31.0002 2.94V2.06C31.0036 1.79272 30.9543 1.52738 30.8552 1.27916C30.756 1.03094 30.6089 0.804701 30.4222 0.613381C30.2355 0.422062 30.0129 0.269414 29.7672 0.164166C29.5215 0.058917 29.2575 0.00313194 28.9902 0L28.8702 0L17.8702 0.76C17.357 0.801721 16.8786 1.03645 16.5316 1.41687C16.1846 1.79729 15.9947 2.29511 16.0002 2.81V2.94C15.9927 3.47825 16.1991 3.99748 16.5741 4.3837C16.9491 4.76992 17.462 4.99157 18.0002 5V5Z" fill="#011E41"/>
<path d="M42.9601 29.8198C41.0013 25.6798 37.7134 22.3145 33.6201 20.2598L35.4101 17.1598C35.5419 16.9327 35.6275 16.6819 35.6621 16.4216C35.6967 16.1614 35.6796 15.8969 35.6118 15.6432C35.544 15.3896 35.4268 15.1519 35.2669 14.9437C35.107 14.7354 34.9076 14.5608 34.6801 14.4298L38.1801 8.36978L38.9301 7.06978C38.9976 6.95436 39.0165 6.81692 38.9827 6.68758C38.949 6.55824 38.8653 6.44755 38.7501 6.37978L36.5801 5.12978C36.3506 4.99914 36.0786 4.96473 35.8238 5.03406C35.5689 5.1034 35.3519 5.27085 35.2201 5.49978C35.1312 5.65162 35.083 5.82384 35.0801 5.99978C35.08 6.17587 35.1262 6.3489 35.2139 6.50157C35.3017 6.65424 35.4279 6.78121 35.5801 6.86978L31.9501 13.1598C31.5993 13.1598 31.2548 13.2523 30.9511 13.4278C30.6474 13.6034 30.3953 13.8558 30.2201 14.1598L27.8101 18.3398C26.5534 18.1091 25.2779 17.9952 24.0001 17.9998C21.4226 17.9901 18.8646 18.4475 16.4501 19.3498L16.4701 19.3798L16.9401 20.1998L19.5001 24.6298H19.5101L19.5201 24.6698L21.8401 28.6798L22.6001 29.9998L32.3401 46.8698C32.7674 46.3402 33.0003 45.6802 33.0001 44.9998V26.8698C35.3662 28.5854 37.1524 30.9821 38.1201 33.7398C38.709 35.4307 39.0066 37.2093 39.0001 38.9998C39.0001 39.7954 39.3162 40.5585 39.8788 41.1211C40.4414 41.6837 41.2045 41.9998 42.0001 41.9998C42.7958 41.9998 43.5588 41.6837 44.1215 41.1211C44.6841 40.5585 45.0001 39.7954 45.0001 38.9998C45.0113 35.8261 44.3144 32.69 42.9601 29.8198V29.8198ZM28.0001 28.9998C27.6046 28.9998 27.2179 28.8825 26.889 28.6627C26.5601 28.443 26.3037 28.1306 26.1524 27.7651C26.001 27.3997 25.9614 26.9976 26.0386 26.6096C26.1157 26.2216 26.3062 25.8653 26.5859 25.5856C26.8656 25.3059 27.222 25.1154 27.61 25.0382C27.9979 24.961 28.4 25.0006 28.7655 25.152C29.131 25.3034 29.4433 25.5597 29.6631 25.8886C29.8828 26.2175 30.0001 26.6042 30.0001 26.9998C29.9985 27.5297 29.7873 28.0375 29.4126 28.4122C29.0379 28.787 28.5301 28.9982 28.0001 28.9998ZM16.7001 25.7698L15.0101 22.8498L13.7301 20.6298L13.7201 20.6098C9.92888 22.6888 6.89108 25.9121 5.04013 29.8198C3.68588 32.69 2.98896 35.8261 3.00013 38.9998C3.00013 39.7954 3.3162 40.5585 3.87881 41.1211C4.44142 41.6837 5.20448 41.9998 6.00013 41.9998C6.79578 41.9998 7.55884 41.6837 8.12145 41.1211C8.68406 40.5585 9.00013 39.7954 9.00013 38.9998C8.99367 37.2093 9.29123 35.4307 9.88013 33.7398C10.8479 30.9821 12.6341 28.5854 15.0001 26.8698V44.9998C14.9996 45.3939 15.0768 45.7842 15.2274 46.1485C15.378 46.5127 15.599 46.8436 15.8776 47.1223C16.1563 47.401 16.4872 47.6219 16.8515 47.7725C17.2157 47.9231 17.606 48.0003 18.0001 47.9998H29.5301L16.7101 25.7998L16.7001 25.7698Z" fill="#011E41"/>
</svg>
