<svg width="48" height="48" viewBox="0 0 48 48" fill="none" xmlns="http://www.w3.org/2000/svg">
<path d="M38 6H33C32.9984 5.47005 32.7872 4.96227 32.4125 4.58753C32.0378 4.2128 31.53 4.00158 31 4H28C28 2.93913 27.5786 1.92172 26.8285 1.17157C26.0783 0.421427 25.0609 0 24 0C22.9392 0 21.9217 0.421427 21.1716 1.17157C20.4215 1.92172 20 2.93913 20 4H17C16.4701 4.00158 15.9623 4.2128 15.5876 4.58753C15.2128 4.96227 15.0016 5.47005 15 6H10C9.45067 6.02266 8.93244 6.26119 8.55795 6.66376C8.18346 7.06634 7.98297 7.60044 8.00003 8.15V45.85C7.98297 46.3996 8.18346 46.9337 8.55795 47.3362C8.93244 47.7388 9.45067 47.9773 10 48H38C38.5494 47.9773 39.0676 47.7388 39.4421 47.3362C39.8166 46.9337 40.0171 46.3996 40 45.85V8.15C40.0171 7.60044 39.8166 7.06634 39.4421 6.66376C39.0676 6.26119 38.5494 6.02266 38 6V6ZM25 5C25 5.19778 24.9414 5.39112 24.8315 5.55557C24.7216 5.72002 24.5654 5.84819 24.3827 5.92388C24.2 5.99957 23.9989 6.01937 23.8049 5.98079C23.611 5.9422 23.4328 5.84696 23.2929 5.70711C23.1531 5.56725 23.0578 5.38907 23.0192 5.19509C22.9807 5.00111 23.0005 4.80004 23.0761 4.61732C23.1518 4.43459 23.28 4.27841 23.4445 4.16853C23.6089 4.05865 23.8022 4 24 4C24.265 4.00079 24.5189 4.1064 24.7063 4.29377C24.8936 4.48113 24.9992 4.73503 25 5V5ZM36 44H12V10H15C15.0016 10.5299 15.2128 11.0377 15.5876 11.4125C15.9623 11.7872 16.4701 11.9984 17 12H31C31.53 11.9984 32.0378 11.7872 32.4125 11.4125C32.7872 11.0377 32.9984 10.5299 33 10H36V44Z" fill="#011E41"/>
<path d="M23.9705 35.4001C23.5156 35.4001 23.0709 35.535 22.6927 35.7877C22.3144 36.0404 22.0196 36.3996 21.8456 36.8199C21.6715 37.2402 21.6259 37.7026 21.7147 38.1488C21.8034 38.5949 22.0225 39.0047 22.3441 39.3264C22.6658 39.6481 23.0756 39.8671 23.5218 39.9559C23.9679 40.0446 24.4304 39.9991 24.8507 39.825C25.2709 39.6509 25.6301 39.3561 25.8829 38.9779C26.1356 38.5996 26.2705 38.155 26.2705 37.7001C26.2705 37.0901 26.0282 36.5051 25.5968 36.0737C25.1655 35.6424 24.5805 35.4001 23.9705 35.4001V35.4001ZM25.2005 16.9801C24.378 16.8185 23.5316 16.8219 22.7105 16.9901C21.5564 17.2287 20.4963 17.7969 19.6586 18.6258C18.8209 19.4546 18.2414 20.5086 17.9905 21.6601C17.9338 21.8686 17.9068 22.084 17.9105 22.3001C17.9095 22.8096 18.1032 23.3002 18.4521 23.6715C18.801 24.0428 19.2787 24.2668 19.7873 24.2974C20.2959 24.3281 20.797 24.1632 21.1879 23.8365C21.5789 23.5098 21.8303 23.046 21.8905 22.5401C21.8984 22.5283 21.902 22.5142 21.9005 22.5001C21.995 22.1118 22.1957 21.7575 22.48 21.4767C22.7643 21.196 23.1211 20.9998 23.5105 20.9101C23.804 20.852 24.1057 20.8486 24.4005 20.9001C24.8017 20.9874 25.1699 21.187 25.462 21.4756C25.7542 21.7642 25.9583 22.1299 26.0505 22.5301C26.0791 22.6817 26.0925 22.8358 26.0905 22.9901C26.0935 23.1344 26.0801 23.2787 26.0505 23.4201C25.9599 23.9024 25.7012 24.3369 25.3203 24.6464C24.9394 24.9558 24.4611 25.1201 23.9705 25.1101C23.4401 25.1101 22.9313 25.3208 22.5563 25.6958C22.1812 26.0709 21.9705 26.5796 21.9705 27.1101V31.2301C21.9705 31.7605 22.1812 32.2692 22.5563 32.6443C22.9313 33.0194 23.4401 33.2301 23.9705 33.2301C24.5009 33.2301 25.0096 33.0194 25.3847 32.6443C25.7598 32.2692 25.9705 31.7605 25.9705 31.2301V28.7801C26.975 28.4314 27.8717 27.8278 28.5729 27.0285C29.2741 26.2292 29.7557 25.2614 29.9705 24.2201C30.051 23.815 30.0912 23.403 30.0905 22.9901C30.0903 22.5672 30.0501 22.1453 29.9705 21.7301C29.7213 20.5612 29.1377 19.49 28.2909 18.6467C27.444 17.8034 26.3704 17.2244 25.2005 16.9801V16.9801Z" fill="#011E41"/>
</svg>
