<svg width="48" height="48" viewBox="0 0 48 48" fill="none" xmlns="http://www.w3.org/2000/svg">
<g clip-path="url(#clip0_74_1607)">
<path d="M46.829 21.1721L32.829 7.1721C32.079 6.42181 31.0616 6.00019 30.0007 6C28.9398 5.99981 27.9223 6.42107 27.172 7.1711C26.4217 7.92114 26.0001 8.9385 25.9999 9.9994C25.9997 11.0603 26.421 12.0778 27.171 12.8281L34.343 20.0001H4C2.93913 20.0001 1.92172 20.4215 1.17157 21.1717C0.421427 21.9218 0 22.9392 0 24.0001C0 25.061 0.421427 26.0784 1.17157 26.8285C1.92172 27.5787 2.93913 28.0001 4 28.0001H34.343L27.171 35.1721C26.7996 35.5436 26.5051 35.9846 26.3041 36.47C26.1032 36.9553 25.9998 37.4755 25.9999 38.0008C26 38.5261 26.1035 39.0462 26.3047 39.5315C26.5058 40.0168 26.8005 40.4577 27.172 40.8291C27.5435 41.2005 27.9845 41.495 28.4699 41.696C28.9552 41.8969 29.4754 42.0003 30.0007 42.0002C30.526 42.0001 31.0461 41.8966 31.5314 41.6954C32.0167 41.4943 32.4576 41.1996 32.829 40.8281L46.829 26.8281C47.5789 26.078 48.0001 25.0608 48.0001 24.0001C48.0001 22.9394 47.5789 21.9222 46.829 21.1721V21.1721Z" fill="#011E41"/>
</g>
<defs>
<clipPath id="clip0_74_1607">
<rect width="48" height="48" fill="white"/>
</clipPath>
</defs>
</svg>
