<svg width="48" height="48" viewBox="0 0 48 48" fill="none" xmlns="http://www.w3.org/2000/svg">
<path d="M33 14C32.735 14.0008 32.4811 14.1064 32.2938 14.2938C32.1064 14.4811 32.0008 14.735 32 15V21C32 21.2652 32.1054 21.5196 32.2929 21.7071C32.4804 21.8946 32.7348 22 33 22C33.2652 22 33.5196 21.8946 33.7071 21.7071C33.8946 21.5196 34 21.2652 34 21V15C33.9992 14.735 33.8936 14.4811 33.7062 14.2938C33.5189 14.1064 33.265 14.0008 33 14V14Z" fill="#011E41"/>
<path d="M38 6H10C9.47005 6.00158 8.96227 6.2128 8.58753 6.58753C8.2128 6.96227 8.00158 7.47005 8 8V30H40V8C39.9984 7.47005 39.7872 6.96227 39.4125 6.58753C39.0377 6.2128 38.5299 6.00158 38 6V6ZM19 23C19.0002 23.2249 18.9241 23.4432 18.7843 23.6194C18.6445 23.7956 18.4491 23.9191 18.23 23.97C18.1549 23.9898 18.0776 23.9999 18 24C17.8153 23.9996 17.6344 23.9479 17.4772 23.8508C17.3201 23.7537 17.193 23.615 17.11 23.45L14 17.24V23C14 23.2652 13.8946 23.5196 13.7071 23.7071C13.5196 23.8946 13.2652 24 13 24C12.7348 24 12.4804 23.8946 12.2929 23.7071C12.1054 23.5196 12 23.2652 12 23V13C12.0013 12.7761 12.0778 12.5591 12.2171 12.3838C12.3564 12.2085 12.5505 12.085 12.7684 12.0331C12.9862 11.9813 13.2151 12.004 13.4185 12.0977C13.6219 12.1914 13.7879 12.3507 13.89 12.55L17 18.76V13C17 12.7348 17.1054 12.4804 17.2929 12.2929C17.4804 12.1054 17.7348 12 18 12C18.2652 12 18.5196 12.1054 18.7071 12.2929C18.8946 12.4804 19 12.7348 19 13V23ZM28 20.5C28 21.4283 27.6313 22.3185 26.9749 22.9749C26.3185 23.6313 25.4283 24 24.5 24C23.5717 24 22.6815 23.6313 22.0251 22.9749C21.3687 22.3185 21 21.4283 21 20.5V15C21.0024 14.2051 21.3192 13.4434 21.8813 12.8813C22.4434 12.3192 23.2051 12.0024 24 12H26C26.2652 12 26.5196 12.1054 26.7071 12.2929C26.8946 12.4804 27 12.7348 27 13C27 13.2652 26.8946 13.5196 26.7071 13.7071C26.5196 13.8946 26.2652 14 26 14H24C23.735 14.0008 23.4811 14.1064 23.2938 14.2938C23.1064 14.4811 23.0008 14.735 23 15V20.5C23 20.8978 23.158 21.2794 23.4393 21.5607C23.7206 21.842 24.1022 22 24.5 22C24.8978 22 25.2794 21.842 25.5607 21.5607C25.842 21.2794 26 20.8978 26 20.5V19H25C24.7348 19 24.4804 18.8946 24.2929 18.7071C24.1054 18.5196 24 18.2652 24 18C24 17.7348 24.1054 17.4804 24.2929 17.2929C24.4804 17.1054 24.7348 17 25 17H26C26.5299 17.0016 27.0377 17.2128 27.4125 17.5875C27.7872 17.9623 27.9984 18.4701 28 19V20.5ZM36 21C36 21.7956 35.6839 22.5587 35.1213 23.1213C34.5587 23.6839 33.7956 24 33 24C32.2044 24 31.4413 23.6839 30.8787 23.1213C30.3161 22.5587 30 21.7956 30 21V15C30 14.2044 30.3161 13.4413 30.8787 12.8787C31.4413 12.3161 32.2044 12 33 12C33.7956 12 34.5587 12.3161 35.1213 12.8787C35.6839 13.4413 36 14.2044 36 15V21ZM14 4H34C34.5304 4 35.0391 3.78929 35.4142 3.41421C35.7893 3.03914 36 2.53043 36 2C36 1.46957 35.7893 0.960859 35.4142 0.585786C35.0391 0.210714 34.5304 0 34 0L14 0C13.4696 0 12.9609 0.210714 12.5858 0.585786C12.2107 0.960859 12 1.46957 12 2C12 2.53043 12.2107 3.03914 12.5858 3.41421C12.9609 3.78929 13.4696 4 14 4V4ZM8 48H20V38C20.0016 37.4701 20.2128 36.9623 20.5875 36.5875C20.9623 36.2128 21.4701 36.0016 22 36H26C26.5299 36.0016 27.0377 36.2128 27.4125 36.5875C27.7872 36.9623 27.9984 37.4701 28 38V48H40V32H8V48Z" fill="#011E41"/>
</svg>
