<svg width="48" height="48" viewBox="0 0 48 48" fill="none" xmlns="http://www.w3.org/2000/svg">
<path d="M47.5 6.5H16.5C16.3674 6.5 16.2402 6.55268 16.1464 6.64645C16.0527 6.74021 16 6.86739 16 7V14.5H26.5C27.1628 14.5008 27.7982 14.7644 28.2669 15.2331C28.7356 15.7018 28.9992 16.3372 29 17V41C29.0002 41.1679 28.9834 41.3354 28.95 41.5H47.5C47.6326 41.5 47.7598 41.4473 47.8536 41.3536C47.9473 41.2598 48 41.1326 48 41V7C48 6.86739 47.9473 6.74021 47.8536 6.64645C47.7598 6.55268 47.6326 6.5 47.5 6.5V6.5ZM43.56 27.06C43.2788 27.3409 42.8975 27.4987 42.5 27.4987C42.1025 27.4987 41.7212 27.3409 41.44 27.06L40 25.622V34C40 34.3978 39.842 34.7794 39.5607 35.0607C39.2794 35.342 38.8978 35.5 38.5 35.5C38.1022 35.5 37.7206 35.342 37.4393 35.0607C37.158 34.7794 37 34.3978 37 34V25.621L35.56 27.061C35.277 27.3341 34.898 27.4851 34.5047 27.4815C34.1114 27.4779 33.7353 27.32 33.4573 27.0417C33.1793 26.7635 33.0217 26.3872 33.0185 25.9939C33.0153 25.6006 33.1666 25.2218 33.44 24.939L37.39 20.989C37.395 20.983 37.403 20.982 37.409 20.976C37.5467 20.8278 37.713 20.7092 37.898 20.6273C38.0829 20.5455 38.2826 20.5021 38.4848 20.4999C38.6871 20.4976 38.8877 20.5365 39.0744 20.6143C39.2611 20.692 39.4301 20.8069 39.571 20.952L39.578 20.957L43.561 24.939C43.7004 25.0783 43.811 25.2437 43.8864 25.4258C43.9618 25.6078 44.0007 25.8029 44.0007 26C44.0007 26.1971 43.9618 26.3922 43.8864 26.5742C43.811 26.7563 43.7004 26.9217 43.561 27.061L43.56 27.06Z" fill="#011E41"/>
<path d="M26.5 16.5H0.5C0.367392 16.5 0.240215 16.5527 0.146447 16.6464C0.0526784 16.7402 0 16.8674 0 17L0 41C0 41.1326 0.0526784 41.2598 0.146447 41.3536C0.240215 41.4473 0.367392 41.5 0.5 41.5H26.5C26.6326 41.5 26.7598 41.4473 26.8536 41.3536C26.9473 41.2598 27 41.1326 27 41V17C27 16.8674 26.9473 16.7402 26.8536 16.6464C26.7598 16.5527 26.6326 16.5 26.5 16.5ZM17 25.5H10C9.46957 25.5 8.96086 25.2893 8.58579 24.9142C8.21071 24.5391 8 24.0304 8 23.5C8 22.9696 8.21071 22.4609 8.58579 22.0858C8.96086 21.7107 9.46957 21.5 10 21.5H17C17.5304 21.5 18.0391 21.7107 18.4142 22.0858C18.7893 22.4609 19 22.9696 19 23.5C19 24.0304 18.7893 24.5391 18.4142 24.9142C18.0391 25.2893 17.5304 25.5 17 25.5Z" fill="#011E41"/>
</svg>
