<svg width="48" height="48" viewBox="0 0 48 48" fill="none" xmlns="http://www.w3.org/2000/svg">
<path d="M43.4286 1.42942e-07H4.57143C3.97106 -0.000150006 3.37654 0.117991 2.82184 0.347674C2.26714 0.577356 1.76313 0.91408 1.33861 1.33861C0.91408 1.76313 0.577356 2.26714 0.347674 2.82184C0.117991 3.37654 -0.000150006 3.97106 1.42942e-07 4.57143V43.4286C-0.000150006 44.0289 0.117991 44.6235 0.347674 45.1782C0.577356 45.7329 0.91408 46.2369 1.33861 46.6614C1.76313 47.0859 2.26714 47.4226 2.82184 47.6523C3.37654 47.882 3.97106 48.0002 4.57143 48H43.4286C44.0289 48.0002 44.6235 47.882 45.1782 47.6523C45.7329 47.4226 46.2369 47.0859 46.6614 46.6614C47.0859 46.2369 47.4226 45.7329 47.6523 45.1782C47.882 44.6235 48.0002 44.0289 48 43.4286V4.57143C48.0002 3.97106 47.882 3.37654 47.6523 2.82184C47.4226 2.26714 47.0859 1.76313 46.6614 1.33861C46.2369 0.91408 45.7329 0.577356 45.1782 0.347674C44.6235 0.117991 44.0289 -0.000150006 43.4286 1.42942e-07V1.42942e-07ZM20.5714 33.7143C20.571 34.0978 20.4426 34.4701 20.2066 34.7724C19.9706 35.0746 19.6405 35.2895 19.2686 35.3829C19.1338 35.415 18.9956 35.4304 18.8571 35.4286C18.5448 35.428 18.2384 35.3427 17.9707 35.1817C17.703 35.0206 17.484 34.79 17.3371 34.5143L10.2857 21.1886V33.7143C10.2857 34.1689 10.1051 34.605 9.78361 34.9265C9.46212 35.248 9.02609 35.4286 8.57143 35.4286C8.11677 35.4286 7.68074 35.248 7.35925 34.9265C7.03775 34.605 6.85714 34.1689 6.85714 33.7143V14.2857C6.85756 13.9022 6.98594 13.5299 7.22194 13.2276C7.45795 12.9254 7.78807 12.7105 8.16 12.6171C8.53265 12.5294 8.92384 12.5669 9.27301 12.7239C9.62217 12.8809 9.90983 13.1487 10.0914 13.4857L17.1429 26.8114V14.2857C17.1429 13.8311 17.3235 13.395 17.645 13.0735C17.9665 12.752 18.4025 12.5714 18.8571 12.5714C19.3118 12.5714 19.7478 12.752 20.0693 13.0735C20.3908 13.395 20.5714 13.8311 20.5714 14.2857V33.7143ZM32.5714 21.7143C33.0261 21.7143 33.4621 21.8949 33.7836 22.2164C34.1051 22.5379 34.2857 22.9739 34.2857 23.4286C34.2857 23.8832 34.1051 24.3193 33.7836 24.6408C33.4621 24.9622 33.0261 25.1429 32.5714 25.1429H27.4286V33.7143C27.4286 34.1689 27.248 34.605 26.9265 34.9265C26.605 35.248 26.1689 35.4286 25.7143 35.4286C25.2596 35.4286 24.8236 35.248 24.5021 34.9265C24.1806 34.605 24 34.1689 24 33.7143V14.2857C23.9997 14.0605 24.0438 13.8375 24.1299 13.6293C24.2159 13.4212 24.3422 13.2321 24.5014 13.0729C24.6607 12.9136 24.8498 12.7874 25.0579 12.7013C25.266 12.6153 25.4891 12.5711 25.7143 12.5714H32.5714C33.0261 12.5714 33.4621 12.752 33.7836 13.0735C34.1051 13.395 34.2857 13.8311 34.2857 14.2857C34.2857 14.7404 34.1051 15.1764 33.7836 15.4979C33.4621 15.8194 33.0261 16 32.5714 16H27.4286V21.7143H32.5714ZM41.1429 33.7143C41.1429 34.1689 40.9622 34.605 40.6408 34.9265C40.3193 35.248 39.8832 35.4286 39.4286 35.4286C38.9739 35.4286 38.5379 35.248 38.2164 34.9265C37.8949 34.605 37.7143 34.1689 37.7143 33.7143V14.2857C37.7143 13.8311 37.8949 13.395 38.2164 13.0735C38.5379 12.752 38.9739 12.5714 39.4286 12.5714C39.8832 12.5714 40.3193 12.752 40.6408 13.0735C40.9622 13.395 41.1429 13.8311 41.1429 14.2857V33.7143Z" fill="#011E41"/>
</svg>
