<svg width="48" height="48" viewBox="0 0 48 48" fill="none" xmlns="http://www.w3.org/2000/svg">
<path d="M24 0C19.2533 0 14.6131 1.40758 10.6663 4.04473C6.71954 6.68188 3.6434 10.4302 1.8269 14.8156C0.0103989 19.201 -0.464881 24.0266 0.461164 28.6822C1.38721 33.3377 3.67299 37.6141 7.02945 40.9706C10.3859 44.327 14.6623 46.6128 19.3178 47.5388C23.9734 48.4649 28.799 47.9896 33.1844 46.1731C37.5698 44.3566 41.3181 41.2805 43.9553 37.3337C46.5924 33.3869 48 28.7467 48 24C48 17.6348 45.4714 11.5303 40.9706 7.02944C36.4697 2.52856 30.3652 0 24 0V0ZM39.4364 17.5527L22.5273 35.0073C22.2227 35.3214 21.8582 35.5711 21.4553 35.7417C21.0524 35.9122 20.6193 36 20.1818 36H20.16C19.7179 36 19.2805 35.909 18.8751 35.7326C18.4697 35.5562 18.1049 35.2981 17.8036 34.9745L8.53092 25.1564C8.22514 24.8461 7.98437 24.478 7.82271 24.0735C7.66105 23.669 7.58177 23.2364 7.5895 22.8008C7.59723 22.3653 7.69183 21.9357 7.86774 21.5372C8.04365 21.1388 8.29734 20.7794 8.61394 20.4802C8.93054 20.1811 9.30367 19.9481 9.71147 19.795C10.1193 19.6419 10.5535 19.5718 10.9888 19.5887C11.424 19.6056 11.8515 19.7092 12.2462 19.8935C12.6409 20.0778 12.9949 20.339 13.2873 20.6618L20.2146 27.9927L34.7455 12.9927C35.0449 12.6847 35.402 12.4387 35.7965 12.2687C36.191 12.0987 36.6151 12.0081 37.0446 12.002C37.4741 11.996 37.9006 12.0745 38.2998 12.2333C38.6989 12.392 39.0629 12.6279 39.3709 12.9273C39.6789 13.2267 39.9249 13.5838 40.0949 13.9783C40.2649 14.3728 40.3555 14.7969 40.3616 15.2264C40.3677 15.656 40.2891 16.0825 40.1303 16.4816C39.9716 16.8807 39.7358 17.2447 39.4364 17.5527Z" fill="#011E41"/>
</svg>
