<svg width="48" height="48" viewBox="0 0 48 48" fill="none" xmlns="http://www.w3.org/2000/svg">
<g clip-path="url(#clip0_74_1612)">
<path d="M12 20C13.9778 20 15.9112 19.4135 17.5557 18.3147C19.2002 17.2159 20.4819 15.6541 21.2388 13.8268C21.9957 11.9996 22.1937 9.98891 21.8079 8.0491C21.422 6.10929 20.4696 4.32746 19.0711 2.92894C17.6725 1.53041 15.8907 0.578004 13.9509 0.192152C12.0111 -0.193701 10.0004 0.00433284 8.17317 0.761209C6.3459 1.51809 4.78412 2.79981 3.6853 4.4443C2.58649 6.08879 2 8.02219 2 10C2.00106 12.6518 3.05497 15.1948 4.9301 17.0699C6.80524 18.945 9.34816 19.9989 12 20V20ZM7.29 6.71C7.1017 6.5217 6.99591 6.26631 6.99591 6C6.99591 5.7337 7.1017 5.47831 7.29 5.29C7.4783 5.1017 7.7337 4.99591 8 4.99591C8.2663 4.99591 8.5217 5.1017 8.71 5.29L12 8.58L15.29 5.29C15.3832 5.19677 15.4939 5.12281 15.6158 5.07234C15.7376 5.02188 15.8681 4.99591 16 4.99591C16.1319 4.99591 16.2624 5.02188 16.3842 5.07234C16.5061 5.12281 16.6168 5.19677 16.71 5.29C16.8032 5.38324 16.8772 5.49393 16.9277 5.61576C16.9781 5.73758 17.0041 5.86815 17.0041 6C17.0041 6.13186 16.9781 6.26243 16.9277 6.38425C16.8772 6.50608 16.8032 6.61677 16.71 6.71L13.42 10L16.71 13.29C16.8974 13.4788 17.0025 13.734 17.0025 14C17.0025 14.266 16.8974 14.5212 16.71 14.71C16.5204 14.8959 16.2655 15.0001 16 15.0001C15.7345 15.0001 15.4796 14.8959 15.29 14.71L12 11.42L8.71 14.71C8.52044 14.8959 8.26551 15.0001 8 15.0001C7.73449 15.0001 7.47956 14.8959 7.29 14.71C7.10265 14.5212 6.99752 14.266 6.99752 14C6.99752 13.734 7.10265 13.4788 7.29 13.29L10.58 10L7.29 6.71ZM46 9.97001V30.15C46 40.01 38.7 48 30 48C21.3 48 14 40.01 14 30.15V22.83C15.7686 22.5625 17.4626 21.931 18.9747 20.9754C20.4869 20.0199 21.7844 18.7611 22.7853 17.2786C23.7861 15.7961 24.4686 14.122 24.7896 12.3623C25.1106 10.6026 25.063 8.79542 24.65 7.055L29.81 6.04C29.9349 6.00995 30.0651 6.00995 30.19 6.04L45.19 8.99C45.418 9.03354 45.6236 9.15524 45.7715 9.33414C45.9193 9.51303 46.0002 9.73791 46 9.97001Z" fill="#011E41"/>
</g>
<defs>
<clipPath id="clip0_74_1612">
<rect width="48" height="48" fill="white"/>
</clipPath>
</defs>
</svg>
