<svg width="48" height="48" viewBox="0 0 48 48" fill="none" xmlns="http://www.w3.org/2000/svg">
<path d="M23 48H25C26.0609 48 27.0783 47.5786 27.8284 46.8284C28.5786 46.0783 29 45.0609 29 44H19C19 45.0609 19.4214 46.0783 20.1716 46.8284C20.9217 47.5786 21.9391 48 23 48ZM38.5 33H38.333L36.453 18.9C36.1658 16.7545 35.3286 14.7198 34.0226 12.9935C32.7167 11.2672 30.9865 9.908 29 9.048V5C29 3.67392 28.4732 2.40215 27.5355 1.46447C26.5979 0.526784 25.3261 0 24 0C22.6739 0 21.4021 0.526784 20.4645 1.46447C19.5268 2.40215 19 3.67392 19 5V9.048C17.0135 9.908 15.2833 11.2672 13.9774 12.9935C12.6714 14.7198 11.8342 16.7545 11.547 18.9L9.667 33H9.5C8.30653 33 7.16193 33.4741 6.31802 34.318C5.47411 35.1619 5 36.3065 5 37.5C5 38.6935 5.47411 39.8381 6.31802 40.682C7.16193 41.5259 8.30653 42 9.5 42H38.5C39.6935 42 40.8381 41.5259 41.682 40.682C42.5259 39.8381 43 38.6935 43 37.5C43 36.3065 42.5259 35.1619 41.682 34.318C40.8381 33.4741 39.6935 33 38.5 33V33ZM24 3C24.3956 3 24.7822 3.1173 25.1111 3.33706C25.44 3.55682 25.6964 3.86918 25.8478 4.23463C25.9991 4.60009 26.0387 5.00222 25.9616 5.39018C25.8844 5.77814 25.6939 6.13451 25.4142 6.41421C25.1345 6.69392 24.7781 6.8844 24.3902 6.96157C24.0022 7.03874 23.6001 6.99913 23.2346 6.84776C22.8692 6.69638 22.5568 6.44004 22.3371 6.11114C22.1173 5.78224 22 5.39556 22 5C22 4.46957 22.2107 3.96086 22.5858 3.58579C22.9609 3.21071 23.4696 3 24 3V3Z" fill="#011E41"/>
</svg>
