<?xml version="1.0" encoding="utf-8"?>
<!-- Generator: Adobe Illustrator 25.2.1, SVG Export Plug-In . SVG Version: 6.00 Build 0)  -->
<svg version="1.1" id="Layer_1" xmlns="http://www.w3.org/2000/svg" xmlns:xlink="http://www.w3.org/1999/xlink" x="0px" y="0px"
	 viewBox="0 0 48 48" style="enable-background:new 0 0 48 48;" xml:space="preserve">
<style type="text/css">
	.st0{fill:#FEFEFE;}
	.st1{fill:#FACE0F;}
	.st2{fill:#27B1E6;}
	.st3{fill:#CDA921;}
	.st4{fill:#CCA81B;}
	.st5{fill:#D4B019;}
	.st6{fill:#C0A541;}
	.st7{fill:#B99A25;}
	.st8{fill:#C4A427;}
	.st9{fill:#BEA134;}
	.st10{fill:#C6A529;}
	.st11{fill:#CDA91E;}
	.st12{fill:#BD9C23;}
	.st13{fill:#BF9E25;}
	.st14{fill:#BC9B24;}
	.st15{fill:#CDAB28;}
	.st16{fill:#C4A329;}
	.st17{fill:#D2AD1D;}
	.st18{fill:#CFAA1E;}
	.st19{fill:#C8A933;}
	.st20{fill:#C5A62E;}
	.st21{fill:#BB9C29;}
	.st22{fill:#BB9C27;}
	.st23{fill:#BEA236;}
	.st24{fill:#CCA81D;}
	.st25{fill:#CCA821;}
	.st26{fill:#CDAA20;}
	.st27{fill:#D0AB1E;}
	.st28{fill:#CCA922;}
	.st29{fill:#CDAA21;}
	.st30{fill:#D5B01D;}
	.st31{fill:#C0A025;}
	.st32{fill:#C6A526;}
	.st33{fill:#C19F1F;}
	.st34{fill:#C5A52A;}
	.st35{fill:#CBA720;}
	.st36{fill:#C0A43D;}
	.st37{fill:#E4C33A;}
	.st38{fill:#C3A121;}
	.st39{fill:#CCA81E;}
	.st40{fill:#BB9C26;}
	.st41{fill:#B99C33;}
	.st42{fill:#BC9C27;}
	.st43{fill:#C09F23;}
	.st44{fill:#C19F21;}
	.st45{fill:#D4AF1C;}
	.st46{fill:#4298B7;}
	.st47{fill:#2B8FB4;}
	.st48{fill:#2DA6D4;}
	.st49{fill:#2DA7D5;}
	.st50{fill:#328EAF;}
	.st51{fill:#2BAADA;}
	.st52{fill:#4A96B1;}
	.st53{fill:#2FA0CB;}
	.st54{fill:#4799B7;}
	.st55{fill:#2F96BC;}
	.st56{fill:#348BAA;}
	.st57{fill:#2C96BD;}
	.st58{fill:#2A98C1;}
	.st59{fill:#369ABF;}
	.st60{fill:#2DA2CE;}
	.st61{fill:#2CA0CC;}
	.st62{fill:#4895B1;}
	.st63{fill:#2DA0CB;}
	.st64{fill:#31A0C9;}
	.st65{fill:#3291B4;}
	.st66{fill:#2C9AC3;}
	.st67{fill:#2E9FC9;}
	.st68{fill:#31A4D0;}
	.st69{fill:#358FB0;}
	.st70{fill:#2C98C0;}
	.st71{fill:#2E9FCA;}
	.st72{fill:#32A0C8;}
	.st73{fill:#62BCE5;}
	.st74{fill:#39A0C7;}
	.st75{fill:#2EA0CB;}
	.st76{fill:#68BDE1;}
	.st77{fill:#A2D9F1;}
	.st78{fill:#2C99C2;}
	.st79{fill:#2CA2CE;}
	.st80{fill:#3E9CBE;}
	.st81{fill:#328DAE;}
	.st82{fill:#3291B3;}
	.st83{fill:#318CAE;}
	.st84{fill:#2C97BF;}
	.st85{fill:#2DA1CC;}
	.st86{fill:#2D97BE;}
	.st87{fill:#3696B9;}
	.st88{fill:#2C98C1;}
	.st89{fill:#2E99C1;}
	.st90{fill:#57BCE9;}
	.st91{fill:#3F9ABB;}
	.st92{fill:#2C8EB2;}
	.st93{fill:#318FB2;}
	.st94{fill:#2D91B5;}
	.st95{fill:#2E8FB2;}
	.st96{fill:#4096B5;}
	.st97{fill:#4094B2;}
	.st98{fill:#FAD549;}
	.st99{fill:#2BA1CE;}
	.st100{fill:#2CA1CD;}
	.st101{fill:#338DAD;}
	.st102{fill:#2D92B8;}
	.st103{fill:#2F90B4;}
	.st104{fill:#2E96BD;}
	.st105{fill:#2D98C0;}
	.st106{fill:#2C94BA;}
	.st107{fill:#3B9CC0;}
</style>
<g>
	<path class="st0" d="M45.71,24c0,7.12,0,14.24,0.01,21.36c0,0.27-0.03,0.36-0.34,0.36c-14.25-0.01-28.51-0.01-42.76,0
		c-0.27,0-0.32-0.07-0.32-0.33c0.01-14.25,0.01-28.51,0-42.76c0-0.32,0.1-0.33,0.36-0.33c14.24,0.01,28.48,0.01,42.72,0
		c0.29,0,0.34,0.06,0.34,0.35C45.7,9.76,45.71,16.88,45.71,24z"/>
	<path class="st1" d="M45.27,24.09c0.05,3.78-0.85,7.32-2.74,10.58c-3.29,5.65-8.16,9.16-14.58,10.41
		C16.73,47.26,5.61,39.82,3.3,28.66c-0.27-1.29-0.41-2.59-0.47-3.89c-0.01-0.22,0.02-0.45,0.02-0.67c0.16-0.12,0.35-0.1,0.53-0.1
		c1.85,0,3.69,0,5.54,0c0.18,0,0.37-0.01,0.54,0.08c0.21,0.2,0.17,0.47,0.14,0.71c-0.08,0.57-0.06,1.15-0.07,1.72
		c0,0.14-0.03,0.29,0.08,0.41c0.16,0.21,0.36,0.38,0.58,0.53c0.1,0.09,0.18,0.18,0.3,0.24c0.26,0.11,0.32,0.4,0.5,0.58
		c0.09,0.12,0.23,0.15,0.36,0.2c0.1,0.05,0.2,0.1,0.29,0.16c0.16,0.07,0.3,0.25,0.51,0.13c0.33-0.51,0.12-1.04,0.02-1.55
		c-0.04-0.18-0.19-0.17-0.34-0.14c-0.47,0.09-0.64,0.01-0.79-0.45c-0.15-0.47-0.32-0.92-0.64-1.31c-0.21-0.25-0.23-0.6-0.25-0.92
		c-0.01-0.14,0.02-0.28,0.17-0.35c0.32-0.07,0.65-0.04,0.97-0.04c1.38,0,2.76,0,4.14,0c0.21,0,0.42-0.02,0.62,0.09
		c0.04,0.02,0.08,0.05,0.11,0.09c0.1,0.11,0.16,0.24,0.26,0.35c0.02,0.03,0.05,0.06,0.07,0.09c0.06,0.11,0.14,0.21,0.23,0.29
		c0.04,0.04,0.07,0.08,0.1,0.12c0.06,0.1,0.13,0.2,0.22,0.28c0.02,0.03,0.04,0.05,0.06,0.08c0.06,0.11,0.14,0.19,0.22,0.28
		c0.04,0.04,0.07,0.08,0.1,0.12c0.07,0.12,0.16,0.23,0.28,0.31c0.46,0.45,0.93,0.89,1.48,1.23c0.18,0.13,0.38,0.24,0.6,0.3
		c0.11,0.02,0.22,0.04,0.32,0.11c0.11,0.1,0.24,0.16,0.39,0.2c0.04,0.01,0.07,0.03,0.11,0.04c0.35,0.15,0.71,0.25,1.09,0.27
		c0.16,0.02,0.31,0.07,0.46,0.09c0.14,0.06,0.3,0.04,0.43,0.12c0.13,0.05,0.3,0.22,0.35-0.08c0.09-0.45,0.09-0.89-0.08-1.33
		c-0.09-0.23-0.08-0.47,0.18-0.58c0.28-0.11,0.39,0.13,0.51,0.33c0.13,0.22,0.13,0.46,0.14,0.7c0.02,0.7-0.08,1.41,0.16,2.1
		c0.09,0.26-0.06,0.37-0.32,0.34c-0.22-0.03-0.44-0.09-0.67-0.12c-0.37-0.06-0.47,0.03-0.41,0.41c0.08,0.52,0.21,1.02,0.38,1.52
		c0.1,0.31,0.22,0.61,0.29,0.93c0.18,0.81-0.27,1.34-1.09,1.28c-1.22-0.1-2.44-0.18-3.66-0.37c-0.4-0.07-0.79,0.01-1.15,0.19
		c-0.44,0.22-0.72,0.56-0.74,1.09c-0.03,0.71-0.3,1.37-0.48,2.05c-0.03,0.12-0.08,0.24-0.1,0.37c-0.02,0.15-0.14,0.32,0,0.43
		c0.13,0.1,0.25-0.07,0.38-0.12c0.08-0.03,0.15-0.07,0.23-0.1c0.16-0.03,0.31-0.08,0.42-0.21c0.07-0.07,0.16-0.11,0.26-0.14
		c0.16-0.02,0.27-0.11,0.37-0.23c0.29-0.2,0.3-0.4,0.1-0.69c-0.33-0.48-0.22-0.93,0.27-1.28c0.18-0.08,0.37-0.1,0.56-0.1
		c0.65,0,1.3,0,1.94,0c0.46,0,0.92,0,1.38,0c0.19,0.01,0.38,0,0.57,0.02c0.04,0.01,0.09,0.02,0.13,0.03
		c0.45,0.13,0.92,0.2,1.38,0.33c0.34,0.07,0.67,0.26,1.01,0.05c0.04-0.04,0.08-0.08,0.13-0.11c0.13-0.08,0.21-0.2,0.26-0.34
		c0.16-0.22,0.23-0.52,0.48-0.67c0.06-0.01,0.12,0,0.18,0.03c0.23,0.3,0.06,0.57-0.11,0.8c-0.52,0.68-1.12,1.3-1.67,1.95
		c-0.51,0.6-1.08,1.15-1.71,1.63c-0.36,0.28-0.36,0.65-0.26,1.03c0.07,0.29,0.2,0.56,0.32,0.82c0.08,0.19,0.23,0.32,0.38,0.45
		c0.15,0.11,0.28,0.25,0.26,0.44c-0.04,0.4,0.15,0.72,0.36,1.03c0.06,0.12,0.13,0.23,0.23,0.33c0.03,0.03,0.05,0.06,0.07,0.09
		c0.09,0.1,0.15,0.3,0.29,0.04c0.27-0.54,0.51-1.1,0.69-1.68c0.14-0.44,0.08-0.53-0.38-0.54c-0.14-0.01-0.29,0.01-0.42-0.04
		c-0.23-0.09-0.4-0.22-0.28-0.51c0.09-0.12,0.26-0.2,0.22-0.39c-0.06-0.42-0.12-0.84,0.04-1.24c0.08-0.2,0.19-0.38,0.39-0.48
		c0.19-0.01,0.29-0.16,0.39-0.29c0.07-0.11,0.15-0.21,0.29-0.24c0.11-0.01,0.17-0.09,0.23-0.17c0.04-0.04,0.08-0.07,0.13-0.09
		c0.11-0.04,0.18-0.12,0.26-0.2c0.52-0.43,1.08-0.8,1.65-1.15c0.2-0.06,0.37-0.15,0.37-0.39c0.01-0.44,0-0.87,0-1.31
		c0-1.2,0.6-2.06,1.56-2.68c0.78-0.5,1.6-0.94,2.24-1.63c0.13-0.08,0.25-0.18,0.3-0.34c0.09-0.21,0.2-0.4,0.38-0.54
		c0.16-0.1,0.33-0.09,0.49-0.02c0.12,0.06,0.25,0.08,0.37,0.12c0.37,0.17,0.54,0.47,0.55,0.87c0.01,0.38,0.15,0.74,0.17,1.12
		c-0.02,0.25,0.08,0.45,0.25,0.61c0.09,0.09,0.18,0.19,0.29,0.25c0.16,0.09,0.33,0.16,0.48,0.27c0.15,0.1,0.32,0.16,0.49,0.2
		c0.17,0.02,0.3-0.07,0.45-0.13c0.15-0.04,0.24-0.15,0.33-0.27c0.21-0.19,0.42-0.39,0.71-0.43c0.13-0.02,0.27-0.01,0.4-0.05
		c0.09-0.05,0.25,0.02,0.28-0.16c-0.25-0.33-0.47-0.41-0.82-0.28c-0.05,0.02-0.1,0.05-0.15,0.07c-0.92,0.43-1.44,0.16-1.59-0.85
		c-0.03-0.2-0.18-0.39-0.07-0.61c0.17-0.13,0.35-0.04,0.53-0.02c0.11,0.01,0.22,0.02,0.33,0.04c0.44,0.02,0.88,0.22,1.31-0.03
		c0.6-0.44,0.72-1.08,0.69-1.76c-0.03-0.77-0.18-1.53-0.22-2.38c-0.27,0.26-0.39,0.5-0.46,0.77c-0.04,0.16-0.08,0.33-0.08,0.5
		c-0.03,1.06-0.47,1.37-1.56,1.69c-0.2,0.06-0.44,0.11-0.57-0.12c-0.12-0.2-0.07-0.41,0.1-0.58c0.18-0.13,0.33-0.28,0.41-0.5
		c0.54-0.55,0.58-1.22,0.48-1.93c-0.04-0.28-0.06-0.56-0.04-0.84c0.01-0.15,0.01-0.31,0.17-0.4c0.2-0.08,0.42-0.07,0.63-0.07
		c2.71,0,5.41,0,8.12,0C44.84,23.99,45.07,23.96,45.27,24.09z"/>
	<path class="st2" d="M9.49,24.09c-2.21,0-4.42,0-6.63,0c-0.05-1.06,0.06-2.11,0.23-3.15c0.76-4.7,2.84-8.74,6.29-12.03
		c3.49-3.33,7.64-5.27,12.45-5.78c10.83-1.14,20.7,6.01,23.01,16.69c0.3,1.41,0.48,2.83,0.44,4.28c-3.15,0-6.31,0-9.46,0
		c-0.19-0.54,0.12-0.95,0.38-1.37c0.12-0.19,0.3-0.33,0.47-0.47c0.14-0.09,0.29-0.18,0.34-0.35c0.02-0.03,0.04-0.06,0.07-0.09
		c0.28-0.27,0.38-0.59,0.26-0.97c-0.07-0.29-0.18-0.58-0.03-0.87c0.12-0.16,0.23-0.33,0.27-0.53c0.03-0.1,0.07-0.19,0.14-0.26
		c0.19-0.16,0.28-0.37,0.28-0.62c0.37-0.89,0.13-1.73-0.23-2.56c0-0.04-0.01-0.08,0-0.13c-0.01,0.04-0.01,0.08-0.01,0.13
		c0.01,0.57-0.26,1.06-0.51,1.54c-0.12,0.24-0.27,0.46-0.45,0.67c-0.36,0.42-0.63,0.87-0.55,1.45c0.01,0.04,0,0.08-0.02,0.12
		c-0.06,0.21-0.11,0.52-0.36,0.51c-0.25-0.01-0.16-0.31-0.18-0.49c-0.05-0.48-0.27-0.88-0.52-1.28c-0.93-1.46-0.68-2.89,0.12-4.3
		c0.18-0.14,0.28-0.34,0.35-0.55c0.02-0.04,0.04-0.07,0.06-0.11c0.25-0.34,0.35-0.73,0.33-1.15c0-0.21-0.02-0.42,0.01-0.63
		c0.13-0.92-0.3-1.6-0.91-2.2c-0.19-0.19-0.39-0.37-0.55-0.58c-0.06-0.03-0.04-0.18-0.17-0.12c0.01,0.09,0.06,0.16,0.1,0.24
		c0.06,0.13,0.13,0.27,0.2,0.4c0.06,0.13,0.16,0.21,0.26,0.31c0.45,0.71,0.55,1.45,0.29,2.26c-0.28,0.87-0.69,1.66-1.25,2.38
		c-0.25,0.31-0.41,0.67-0.56,1.04c-0.05,0.12-0.09,0.24-0.17,0.34c-0.06,0.09-0.14,0.19-0.27,0.18c-0.14-0.01-0.17-0.14-0.2-0.24
		c-0.23-0.66-0.32-1.34-0.2-2.04c0.07-0.37,0.13-0.75,0.27-1.11c0.32-0.82,0.15-1.61-0.07-2.4c-0.13-0.44-0.41-0.8-0.78-1.08
		c-0.63-0.46-1.01-1.04-0.91-1.87c0.06-0.48-0.18-0.87-0.54-1.2c0.18,0.46-0.04,0.92,0.04,1.39c0.02,0.08,0,0.18-0.09,0.22
		c-0.09,0.03-0.16-0.03-0.22-0.09c-0.08-0.08-0.13-0.18-0.23-0.35c0.06,0.19,0.07,0.3,0.07,0.42c0,0.13-0.01,0.26,0.08,0.37
		c0.02,0.03,0.04,0.06,0.06,0.09c0.07,0.12,0.19,0.18,0.29,0.26c0.84,0.71,1.3,1.58,1.18,2.7c-0.02,0.21-0.05,0.42-0.12,0.62
		c-0.12,0.36-0.21,0.39-0.48,0.14c-0.16-0.15-0.32-0.27-0.52-0.35c-0.03,0.01-0.07-0.07-0.07-0.04c0.02,0.15,0.08,0.28,0.21,0.37
		c0.1,0.5,0.09,1-0.03,1.49c-0.13,0.5-0.26,1-0.28,1.52c-0.15,0.63,0.03,1.23,0.22,1.82c0.04,0.07,0.07,0.15,0.1,0.23
		c0.07,0.28,0.16,0.55,0.39,0.75c0.24,0.26,0.4,0.57,0.55,0.88c0.05,0.16,0.18,0.27,0.29,0.38c0.04,0.04,0.07,0.08,0.1,0.13
		c0.08,0.14,0.2,0.26,0.31,0.37c0.04,0.04,0.07,0.08,0.1,0.13c0.07,0.13,0.17,0.23,0.3,0.3c0.2,0.13,0.26,0.33,0.33,0.53
		c0.07,0.24,0.2,0.46,0.31,0.68c0.06,0.13,0.13,0.24,0.23,0.35c0.35,0.61,0.56,1.26,0.58,1.97c-0.01,0.13-0.01,0.28-0.15,0.35
		c-0.14,0-0.23-0.1-0.32-0.18c-0.54-0.52-1.19-0.78-1.93-0.82c-0.43-0.02-0.83-0.13-1.22-0.26c-0.09,0.17,0.08,0.26,0.13,0.39
		c0.02,0.03,0.04,0.06,0.06,0.09c0.11,0.2,0.27,0.35,0.48,0.45c0.2,0.12,0.44,0.18,0.63,0.33c0.11,0.11,0.3,0.11,0.34,0.3
		c-0.14,0.17-0.33,0.13-0.51,0.13c-1.08,0-2.17,0.01-3.25,0c-0.67-0.09-1.12-0.56-1.59-0.97c-0.98-0.85-1.83-1.81-2.6-2.85
		c-0.31-0.42-0.55-0.88-0.68-1.39c-0.03-0.12-0.11-0.26,0.04-0.34c0.15-0.08,0.27,0.03,0.37,0.13c0.1,0.1,0.16,0.23,0.21,0.36
		c0.27,0.45,0.68,0.24,1.04,0.2c0.2-0.12,0.4-0.23,0.64-0.22c0.21,0.04,0.43,0.01,0.64,0.05c0.11,0.03,0.19,0.09,0.24,0.18
		c0.09,0.18,0.13,0.39,0.22,0.57c0.02,0.03,0.03,0.05,0.05,0.08c0.14-0.01,0.04-0.12,0.07-0.17c-0.04-0.95-0.34-1.26-1.32-1.3
		c-0.34-0.01-0.68-0.04-0.9-0.35c-0.11-0.15-0.19-0.33-0.06-0.51c0.11-0.16,0.27-0.09,0.42-0.03c0.17,0.09,0.34,0.16,0.53,0.19
		c0.22,0.06,0.45,0.08,0.67,0.17c0.09,0.02,0.17,0.09,0.3,0.07c0.03-0.4-0.16-0.69-0.47-0.92c-0.34-0.27-0.54-0.6-0.41-1.06
		c0.19-0.16,0.41-0.16,0.63-0.12c0.16,0.05,0.32,0.11,0.49,0.16c0.16,0.06,0.3,0.16,0.37,0.33c0.21,0.53,0.57,0.9,1.13,1.04
		c0.04,0.01,0.07,0.05,0.1,0.08c0.13,0.21,0.35,0.01,0.5,0.11c0,0,0.03-0.01,0.03-0.02c0-0.01-0.01-0.02-0.02-0.03
		c-0.6-0.44-1.02-0.97-1.06-1.74c-0.02-0.4-0.22-0.72-0.54-0.96c-0.25-0.18-0.48-0.39-0.65-0.66c-0.16-0.27-0.18-0.51,0.16-0.65
		c0.29-0.09,0.57,0.04,0.85,0.07c0.16,0.05,0.32,0.11,0.48,0.16c0.3,0.14,0.46,0.39,0.54,0.7c0,0.14,0.05,0.25,0.17,0.33
		c0.04,0.02,0.07,0.05,0.11,0.05c-0.01-0.02-0.02-0.05-0.05-0.07c-0.3-0.47-0.38-0.99-0.39-1.53c-0.02-0.64-0.08-0.73-0.68-0.94
		c-0.29-0.1-0.58-0.22-0.82-0.41c-0.41-0.31-0.57-0.77-0.43-1.21c0.12-0.09,0.26-0.08,0.39-0.08c0.16,0,0.3,0.04,0.45,0.09
		c0.16,0.06,0.28,0.18,0.4,0.29c0.15,0.15,0.28,0.31,0.5,0.37c0.05,0.01,0.1,0.02,0.14,0.02c0.06,0,0.09-0.03,0.03-0.01
		s0.02-0.08-0.02-0.03c-0.41-0.43-0.8-0.86-1.14-1.35c-0.35-0.51-0.78-0.95-1.3-1.29c-0.1-0.07-0.29-0.09-0.19-0.3
		c0.18-0.11,0.39-0.04,0.58-0.1c0.11-0.03,0.2-0.09,0.26-0.18c0.09-0.12,0.19-0.23,0.3-0.32c0.09-0.07,0.15-0.16,0.17-0.27
		c-0.1-0.12-0.12,0.07-0.19,0.05c-1.09,0.32-2.03,0-2.85-0.73c-0.44-0.39-0.86-0.52-1.41-0.21c-0.44,0.25-0.6,0.16-0.94-0.35
		c-0.1,0.07-0.13,0.18-0.19,0.27c-0.21,0.31-0.47,0.45-0.83,0.27c-0.22-0.11-0.34-0.08-0.32,0.21c0.03,0.48-0.2,0.82-0.58,1.1
		c-0.52,0.38-0.9,0.86-1.11,1.5c-0.14,0.45-0.49,0.78-0.76,1.16c-0.45,0.63-0.89,1.27-1.46,1.81c-0.23,0.22-0.36,0.46-0.32,0.78
		c0,0.24,0,0.49,0.37,0.31c0.06-0.05,0.13-0.11,0.2-0.15c0.16-0.09,0.35-0.19,0.49-0.04c0.16,0.17-0.02,0.3-0.13,0.42
		c-0.11,0.12-0.15,0.23-0.02,0.35c0.02,0.02,0.01,0.09,0.04,0.08c0.09-0.02,0.09-0.11,0.13-0.18c0.28-0.52,0.71-0.79,1.31-0.8
		c0.57,0.01,1.15,0.11,1.72-0.07c0.14-0.05,0.25-0.15,0.32-0.27c0.35-0.3,0.49-0.71,0.61-1.14c0.07-0.21,0.13-0.44,0.29-0.6
		c0.07-0.07,0.16-0.13,0.26-0.09c0.11,0.04,0.12,0.15,0.11,0.25c-0.05,0.38-0.07,0.75-0.08,1.13c-0.01,0.27-0.19,0.5-0.39,0.68
		c-0.58,0.54-1.24,0.91-2.05,0.85c-0.71-0.05-1.25,0.14-1.78,0.65c-0.56,0.54-1.28,0.92-1.86,1.46c-0.2,0.18-0.36,0.05-0.52-0.09
		c-0.68-0.61-1.26-1.28-1.57-2.17c-0.23-0.65-0.26-0.64-0.93-0.57c-0.23,0.02-0.45-0.07-0.67,0.01c-0.36,0.13-0.67,0.31-0.91,0.65
		c-0.63,0.89-1.38,1.66-2.36,2.2c-0.55,0.31-0.88,0.78-0.89,1.44c-0.01,0.23,0.1,0.42,0.23,0.6c0.34,0.41,0.43,0.92,0.56,1.42
		c0.05,0.2,0.1,0.4,0.17,0.6c0.02,0.04,0.03,0.08,0.04,0.13c0.02,0.11,0.06,0.21,0.11,0.31c0.4,0.96,0.37,1.96,0.3,2.97
		C9.64,23.89,9.6,24.01,9.49,24.09z"/>
	<path class="st0" d="M26.04,16.09c-0.03,0.42,0.11,0.76,0.49,0.99c0.25,0.14,0.36,0.38,0.44,0.64c0.04,0.14,0.06,0.3-0.07,0.39
		c-0.09,0.06-0.23,0.03-0.33-0.06c-0.17-0.14-0.38-0.14-0.59-0.16c-0.19-0.1-0.41-0.08-0.6-0.19c-0.13,0-0.25-0.2-0.38-0.03
		c-0.11,0.15-0.02,0.3,0.07,0.43c0.13,0.19,0.34,0.24,0.55,0.26c0.15,0.01,0.31,0,0.46,0.01c0.89,0.04,1.21,0.44,1.22,1.5
		c-0.04,0.06-0.01,0.17-0.1,0.2c-0.08,0.03-0.11-0.04-0.13-0.11l0,0.01c-0.13-0.19-0.15-0.43-0.26-0.63
		c-0.05-0.05-0.1-0.09-0.15-0.14c-0.23-0.12-0.47-0.04-0.71-0.07c-0.23,0.01-0.39,0.17-0.59,0.25c-0.29,0.05-0.57,0.06-0.85-0.01
		c-0.15-0.03-0.28-0.13-0.32-0.29c-0.07-0.22-0.2-0.39-0.47-0.46c0.09,0.52,0.27,0.97,0.55,1.37c1.05,1.46,2.23,2.79,3.72,3.82
		c0.12,0.09,0.24,0.2,0.41,0.21c0.06,0.03,0.12,0.05,0.18,0.07c0.25,0.03,0.51-0.01,0.77,0.03c1.63,0.55,2.52,1.76,2.97,3.35
		c0.05,0.18,0,0.44,0.27,0.46c0.27,0.02,0.44-0.2,0.46-0.41c0.1-0.83,0.35-1.66,0.23-2.51c-0.05-0.38-0.37-0.58-0.64-0.81
		c-0.15-0.1-0.24-0.28-0.44-0.31c-0.1-0.07-0.24-0.04-0.31-0.17c-0.2-0.08-0.42-0.13-0.59-0.28c-0.19-0.15-0.38-0.31-0.51-0.53
		l0,0.01c-0.1-0.22-0.33-0.39-0.24-0.67c0.53,0.29,1.13,0.33,1.71,0.39c0.76,0.09,1.35,0.46,1.82,1.03
		c0.14-0.05,0.15-0.07,0.09-0.33c-0.02-0.7-0.28-1.32-0.56-1.95c-0.13-0.1-0.12-0.29-0.23-0.41c-0.09-0.22-0.22-0.42-0.31-0.64
		c-0.13-0.14-0.13-0.36-0.3-0.47c-0.13-0.08-0.2-0.23-0.3-0.33c-0.03-0.03-0.06-0.06-0.09-0.09c-0.07-0.17-0.23-0.27-0.33-0.42
		c-0.03-0.03-0.06-0.06-0.09-0.08c-0.06-0.17-0.23-0.24-0.32-0.38c-0.18-0.3-0.35-0.59-0.53-0.89c-0.19-0.24-0.31-0.51-0.4-0.8
		c-0.03-0.05-0.07-0.09-0.1-0.14c-0.14-0.61-0.34-1.21-0.28-1.85c0-0.58,0.15-1.14,0.3-1.69c0.13-0.48,0.15-0.97-0.01-1.45
		c-0.05-0.11-0.12-0.21-0.09-0.34c0.43-0.05,0.6,0.29,0.84,0.54c0.52-0.9,0.31-2.28-0.45-3.07c-0.17-0.17-0.33-0.34-0.5-0.51
		c-0.09-0.08-0.17-0.16-0.22-0.26l0,0.01c-0.11-0.1-0.13-0.24-0.17-0.37c-0.03-0.25-0.06-0.5-0.1-0.81c0.28,0.23,0.3,0.58,0.6,0.75
		c-0.17-0.65,0.17-1.29-0.16-1.91c0.52,0.36,0.91,0.8,0.84,1.43c-0.09,0.86,0.29,1.42,0.94,1.93c0.96,0.76,1.04,1.88,0.96,3
		c-0.02,0.25-0.12,0.49-0.2,0.73c-0.32,1.04-0.39,2.07,0.08,3.1c0.19-0.03,0.22-0.21,0.27-0.36c0.18-0.51,0.43-0.98,0.77-1.4
		c0.56-0.68,0.89-1.46,1.15-2.29c0.23-0.75,0.06-1.45-0.33-2.1c-0.09-0.07-0.13-0.18-0.19-0.27c-0.08-0.18-0.15-0.35-0.25-0.52
		c-0.01-0.06-0.01-0.12,0.04-0.17c0.06-0.02,0.12-0.03,0.16,0.05c0.05,0.05,0.09,0.11,0.15,0.15c1.08,0.86,1.62,1.94,1.38,3.35
		c-0.06,0.43-0.11,0.87-0.4,1.22c-0.02,0.01-0.03,0.03-0.02,0.05c-0.1,0.18-0.16,0.39-0.32,0.54c-0.82,1.5-1.06,2.99,0.02,4.48
		c0.33,0.46,0.43,0.99,0.4,1.62c0.28-0.27,0.36-0.54,0.33-0.84c-0.04-0.42,0.1-0.76,0.37-1.08c0.6-0.72,1.07-1.51,1.18-2.48
		c0.05-0.07,0.1-0.07,0.15,0c0.06,0.14,0.1,0.29,0.17,0.43c0.38,0.73,0.37,1.48,0.08,2.24c-0.07,0.22-0.15,0.45-0.32,0.62
		c-0.04,0.07-0.07,0.14-0.11,0.21c-0.09,0.18-0.16,0.38-0.28,0.55c-0.15,0.32,0.04,0.62,0.04,0.94c0.07,0.37-0.08,0.67-0.33,0.94
		c-0.02,0.01-0.03,0.03-0.03,0.05c-0.05,0.16-0.2,0.25-0.31,0.36c-0.56,0.48-0.93,1.06-0.96,1.83c-0.06,0.38,0.01,0.75,0.04,1.12
		c0.02,0.31,0.02,0.61,0.03,0.92c0.02,0.5-0.26,0.86-0.59,1.19c-0.08,0.18-0.24,0.31-0.37,0.44c-0.14,0.16-0.23,0.37-0.09,0.53
		c0.13,0.16,0.34,0.05,0.51-0.01c0.12-0.04,0.24-0.08,0.36-0.11c0.68-0.19,1.04-0.63,1.05-1.35c0.01-0.61,0.17-1.16,0.7-1.6
		c0.14,0.46,0.09,0.93,0.16,1.37c0.09,0.56,0.17,1.12,0.12,1.68c-0.05,0.58-0.23,1.1-0.76,1.44c-0.39,0.13-0.79-0.01-1.18,0.04
		c-0.15-0.04-0.29-0.12-0.45-0.08c-0.2,0.03-0.4-0.22-0.61-0.03c0.07,0.18,0.16,0.35,0.19,0.55c0.11,0.97,0.63,1.23,1.47,0.75
		c0.5-0.29,0.98-0.11,1.16,0.43c-0.13,0.18-0.35,0-0.49,0.14c-0.13,0.05-0.27,0-0.39,0.07c-0.28,0.01-0.4,0.3-0.64,0.39
		c-0.1,0.12-0.21,0.22-0.36,0.28c-0.15,0.06-0.27,0.2-0.45,0.17c-0.15-0.14-0.36-0.16-0.54-0.24c-0.16-0.09-0.32-0.18-0.49-0.26
		c-0.08-0.08-0.14-0.17-0.22-0.25c-0.2-0.16-0.33-0.37-0.38-0.62c-0.07-0.49-0.16-0.98-0.22-1.48c-0.03-0.3-0.27-0.39-0.47-0.53
		c-0.11-0.06-0.24-0.09-0.35-0.15c-0.16-0.1-0.31-0.09-0.43,0.07c-0.11,0.16-0.22,0.32-0.32,0.49c-0.07,0.14-0.16,0.26-0.28,0.35
		c-0.58,0.66-1.3,1.12-2.06,1.53c-0.44,0.24-0.78,0.59-1.1,0.95c-0.41,0.47-0.59,1.05-0.61,1.67c-0.01,0.51-0.01,1.01-0.01,1.52
		c-0.09,0.18-0.27,0.25-0.43,0.34c-0.56,0.4-1.11,0.8-1.67,1.19c-0.1,0.04-0.17,0.13-0.27,0.16c-0.03,0.02-0.05,0.04-0.08,0.06
		c-0.06,0.09-0.15,0.16-0.26,0.2c-0.11,0.05-0.21,0.12-0.25,0.25c-0.12,0.08-0.2,0.21-0.35,0.26c-0.65,0.46-0.57,1.1-0.42,1.75
		c-0.05,0.15-0.17,0.25-0.26,0.37c-0.15,0.21-0.01,0.31,0.15,0.38c0.08,0.04,0.2,0.04,0.29,0.02c0.79-0.11,0.88,0.13,0.61,0.87
		c-0.2,0.54-0.41,1.07-0.7,1.57c-0.17,0.18-0.19,0.17-0.41-0.15l0,0.01c-0.09-0.11-0.18-0.23-0.27-0.34
		c-0.27-0.34-0.5-0.71-0.44-1.17c0.02-0.18-0.14-0.23-0.22-0.34c-0.1-0.16-0.25-0.29-0.36-0.44c-0.11-0.25-0.25-0.5-0.34-0.76
		c-0.22-0.64-0.12-0.93,0.41-1.35c1.27-1,2.25-2.28,3.27-3.51c0.15-0.18,0.23-0.39,0.12-0.63c-0.05-0.1-0.11-0.16-0.18-0.01
		c-0.14,0.22-0.27,0.44-0.41,0.66c-0.07,0.14-0.16,0.26-0.28,0.35c-0.02,0.02-0.04,0.04-0.06,0.06c-0.31,0.33-0.66,0.07-1,0.06
		c-0.5-0.19-1.03-0.23-1.54-0.38l0.01,0.01c-0.21-0.09-0.43-0.02-0.65-0.04c-1.08,0.01-2.16-0.08-3.25-0.03
		c-0.05,0.01-0.09,0.02-0.14,0.03c-0.21-0.01-0.4,0.01-0.58,0.13c-0.41,0.56-0.42,0.75,0,1.29c0.33,0.42-0.07,0.51-0.3,0.68
		c-0.11,0.11-0.25,0.18-0.39,0.23c-0.07,0.03-0.14,0.07-0.21,0.1c-0.11,0.11-0.25,0.18-0.39,0.23c-0.21,0.1-0.43,0.19-0.63,0.32
		c-0.23,0.14-0.26,0-0.27-0.17c-0.01-0.08,0.01-0.17,0.03-0.25c0.25-0.99,0.59-1.96,0.7-2.99c0.06-0.54,0.59-0.85,1.16-0.98
		c0.74-0.17,1.45,0.09,2.18,0.13c0.77,0.05,1.54,0.15,2.32,0.19c0.8,0.04,1.13-0.4,0.92-1.18c-0.21-0.77-0.54-1.51-0.64-2.32
		c-0.01-0.11-0.03-0.22-0.03-0.34c0-0.27,0.07-0.43,0.4-0.34c0.34,0.09,0.68,0.14,1.14,0.24c-0.48-0.87-0.25-1.74-0.28-2.6
		c-0.01-0.24-0.1-0.44-0.24-0.62c-0.08-0.1-0.17-0.19-0.32-0.1c-0.13,0.08-0.18,0.2-0.11,0.32c0.29,0.52,0.24,1.06,0.13,1.6
		c-0.14,0.34-0.34,0.02-0.5,0.04c-0.1-0.03-0.2-0.07-0.29-0.1c-0.19-0.02-0.37-0.12-0.57-0.12c-0.41-0.01-0.78-0.15-1.15-0.3l0.01,0
		c-0.14-0.08-0.32-0.07-0.43-0.21c-0.1-0.08-0.22-0.03-0.32-0.06c-0.17-0.17-0.39-0.24-0.61-0.32c-0.57-0.35-1.05-0.8-1.52-1.27
		c-0.07-0.13-0.17-0.23-0.26-0.34c-0.02-0.03-0.05-0.05-0.07-0.08c-0.07-0.13-0.19-0.23-0.25-0.36l0,0.01
		c-0.09-0.11-0.18-0.23-0.27-0.33c-0.02-0.03-0.05-0.05-0.07-0.08c-0.07-0.13-0.19-0.22-0.25-0.36l0,0.01
		c-0.09-0.11-0.19-0.21-0.26-0.34l0,0.01c-0.07-0.07-0.12-0.17-0.21-0.22c-0.05-0.03-0.08-0.07-0.11-0.11
		c-0.08-0.13-0.18-0.23-0.27-0.35c-0.25-0.32-0.56-0.6-0.69-1c-0.04-0.13-0.12-0.28,0-0.4c0.1-0.11,0.24-0.01,0.36,0.02
		c0.74,0.23,1.4,0.02,1.85-0.58c0.07-0.09,0.15-0.18,0.08-0.3c-0.06-0.11-0.16-0.09-0.26-0.04c-0.12,0.07-0.2,0.17-0.3,0.27
		c-0.24,0.18-0.45,0.42-0.79,0.41c-0.19-0.04-0.37-0.09-0.54-0.15c-0.19-0.06-0.4-0.05-0.57-0.17c-0.34-0.16-0.69-0.22-1.06-0.21
		c-0.55,0.02-1.1-0.06-1.64,0.05c-0.27,0.06-0.56-0.02-0.82,0.12c-0.04,0.02-0.07,0.04-0.11,0.05c-0.19,0.09-0.3,0.24-0.38,0.43
		c-0.24,0.61-0.33,1.26-0.38,1.91c-0.02,0.04-0.04,0.08-0.06,0.12c-0.02,0.55,0.05,1.06,0.49,1.46c0.24,0.21,0.24,0.53,0.32,0.81
		c0.19,0.64,0.26,0.68,0.9,0.51c0.08-0.02,0.16-0.09,0.25,0.04c0.27,0.41,0.27,1.55-0.02,1.98c-0.21-0.05-0.4-0.18-0.61-0.23
		c-0.09-0.05-0.17-0.11-0.26-0.16c-0.11-0.12-0.31-0.08-0.42-0.22c-0.24-0.13-0.21-0.48-0.49-0.57c-0.08-0.09-0.15-0.2-0.27-0.24
		c-0.22-0.13-0.42-0.3-0.58-0.5c-0.1-0.11-0.12-0.24-0.17-0.37c-0.11-0.85,0.12-1.7,0.08-2.55c0.13-1.13,0.14-2.25-0.24-3.35
		c0.12-0.58,0.84-0.99,1.36-1.03c0.34-0.03,0.68-0.05,1.01,0.01c0.73,0.13,1.43-0.01,2.13-0.18c0.55-0.13,0.57-0.27,0.66-0.83
		c0.07-0.42,0.07-0.8-0.13-1.18c-0.07-0.18-0.15-0.36-0.24-0.53c-0.02-0.03-0.03-0.07-0.04-0.1c-0.05-0.18-0.13-0.34-0.21-0.5
		c-0.02-0.03-0.03-0.07-0.04-0.1c-0.04-0.14-0.1-0.27-0.16-0.41c-0.12-0.36-0.29-0.68-0.66-0.84c-0.22-0.07-0.45-0.06-0.67-0.01
		c-0.18,0.04-0.35,0.11-0.49,0.24c-0.12,0.11-0.26,0.21-0.42,0.28c-0.12,0.06-0.2,0.15-0.29,0.25c-0.24,0.24-0.49,0.49-0.73,0.73
		c-0.12,0.12-0.25,0.23-0.33,0.38c-0.29,0.27-0.24,0.63-0.23,0.97c0.01,0.21,0.22,0.27,0.34,0.4c0.2,0.21,0.54,0.36,0.32,0.75
		c-0.08,0.1-0.18,0.19-0.24,0.3c-0.02,0.03-0.04,0.06-0.06,0.09c-0.08,0.09-0.16,0.19-0.23,0.29c-0.03,0.04-0.07,0.09-0.1,0.13
		c-0.08,0.08-0.15,0.16-0.21,0.25c-0.04,0.06-0.08,0.12-0.13,0.18c-0.08,0.08-0.16,0.17-0.29,0.16c-0.2-0.43-0.24-0.91-0.39-1.36
		c-0.09-0.27-0.18-0.52-0.38-0.73c-0.05-0.22-0.19-0.4-0.24-0.62c-0.02-0.73,0.37-1.24,0.97-1.57c0.99-0.55,1.71-1.36,2.38-2.24
		c0.34-0.45,0.76-0.69,1.32-0.6c0.19,0.03,0.36-0.06,0.54-0.07c0.32-0.03,0.54,0.06,0.64,0.4c0.3,1,0.9,1.8,1.67,2.49
		c0.15,0.13,0.24,0.19,0.4,0.01c0.68-0.75,1.63-1.16,2.32-1.89c0.27-0.29,0.67-0.26,1.04-0.23c0.73,0.05,1.39-0.11,1.97-0.58
		c0.41-0.33,0.75-0.66,0.66-1.27c-0.03-0.24,0.06-0.5,0.1-0.75c0.01-0.07,0.05-0.14-0.04-0.18c-0.08-0.04-0.13,0.03-0.17,0.08
		c-0.16,0.2-0.24,0.45-0.3,0.69c-0.1,0.43-0.29,0.82-0.65,1.1c-0.1,0.15-0.26,0.21-0.42,0.29c-0.25,0.13-0.53,0.08-0.78,0.06
		c-0.3-0.02-0.61-0.02-0.91-0.02c-0.52,0.08-0.94,0.31-1.19,0.8c-0.05,0.12-0.11,0.21-0.25,0.11c-0.14-0.1-0.52-0.12-0.14-0.41
		c0.12-0.09,0.4-0.21,0.23-0.39c-0.13-0.14-0.36,0.01-0.51,0.15c-0.03,0.03-0.06,0.06-0.09,0.09c-0.37,0.14-0.45-0.09-0.5-0.38
		c-0.07-0.37,0.08-0.63,0.34-0.89c0.83-0.81,1.47-1.79,2.11-2.75c0.24-0.36,0.28-0.83,0.62-1.17c0.19-0.19,0.35-0.4,0.58-0.55
		c0.54-0.35,0.71-0.84,0.52-1.47c0.34-0.05,0.6,0.33,0.93,0.17c0.29-0.14,0.37-0.48,0.6-0.75c0.05,0.13,0.1,0.24,0.14,0.34
		c0.12,0.3,0.34,0.35,0.61,0.23c0.12-0.05,0.23-0.1,0.34-0.16c0.35-0.18,0.68-0.14,0.99,0.1c0.18,0.14,0.35,0.28,0.53,0.42
		c0.66,0.5,1.37,0.78,2.21,0.57c0.12-0.03,0.25-0.02,0.38-0.02c0.04-0.02,0.08-0.02,0.12,0.02c0.07,0.14,0.01,0.24-0.09,0.34
		c-0.09,0.1-0.18,0.2-0.28,0.3c-0.06,0.11-0.18,0.14-0.29,0.18c-0.2,0.08-0.42,0.02-0.62,0.11c0.78,0.44,1.35,1.1,1.85,1.84
		c0.28,0.4,0.62,0.75,0.94,1.12c-0.08,0.07-0.19,0.03-0.28,0.04c-0.25-0.05-0.38-0.28-0.59-0.39c-0.11-0.08-0.21-0.16-0.32-0.25
		c-0.12-0.09-0.26-0.14-0.42-0.13c-0.15-0.04-0.29-0.06-0.42,0.05c-0.04,0.6,0.21,1.03,0.77,1.27c0.21,0.09,0.41,0.2,0.63,0.24
		c0.5,0.09,0.61,0.43,0.61,0.86c0,0.63,0.1,1.23,0.44,1.77c-0.11,0.1-0.18,0.01-0.26-0.05c-0.08-0.09-0.2-0.14-0.19-0.29
		c-0.07-0.29-0.22-0.52-0.48-0.68c-0.11-0.09-0.26-0.11-0.39-0.17c-0.32-0.02-0.63-0.22-0.97-0.07c-0.24,0.1-0.19,0.27-0.09,0.45
		c0.16,0.29,0.41,0.5,0.67,0.69c0.26,0.2,0.53,0.41,0.53,0.77c-0.01,0.93,0.5,1.55,1.19,2.07c-0.24,0.1-0.47,0.06-0.7-0.01
		c-0.64-0.18-1.12-0.54-1.34-1.2c-0.03-0.09-0.15-0.16-0.23-0.24c-0.13-0.04-0.24-0.13-0.38-0.14
		C26.5,15.94,26.26,15.88,26.04,16.09z"/>
	<path class="st3" d="M16.02,24.05c0.07,0.07,0.15,0.13,0.16,0.25c-0.16-0.1-0.31-0.17-0.51-0.16c-1.8,0.01-3.6,0.01-5.41,0.01
		c-0.01-0.02-0.01-0.04-0.01-0.06c0.12-0.18,0.31-0.17,0.49-0.17c1.57-0.01,3.14,0,4.71,0C15.66,23.9,15.85,23.94,16.02,24.05z"/>
	<path class="st4" d="M18.44,34.86c0.7-0.11,1.4-0.03,2.1-0.03c0.43,0,0.87,0.03,1.3,0.04c0.03,0.02,0.04,0.03,0.03,0.05
		c-0.01,0.02-0.02,0.03-0.03,0.03c-0.48,0-0.96,0-1.44,0c-0.51-0.09-1.02-0.01-1.52-0.04C18.73,34.9,18.57,34.96,18.44,34.86z"/>
	<path class="st5" d="M18.44,34.86c0.53,0,1.05,0,1.58,0.01c0.13,0,0.28-0.04,0.39,0.08c-0.68,0-1.36,0-2.03,0
		c-0.02-0.02-0.03-0.04-0.02-0.06c0.01-0.02,0.02-0.03,0.03-0.03C18.4,34.85,18.42,34.85,18.44,34.86z"/>
	<path class="st6" d="M22.44,34.95c0.53,0.04,1.04,0.17,1.55,0.33c-0.03,0.05-0.07,0.06-0.11,0.02
		C23.39,35.21,22.89,35.17,22.44,34.95z"/>
	<path class="st7" d="M35.74,29.7c0.42,0,0.84,0.01,1.26,0.01c-0.45,0.26-0.9,0.07-1.36,0.01C35.66,29.68,35.69,29.67,35.74,29.7z"
		/>
	<path class="st8" d="M20.49,28.01c0.4,0.07,0.77,0.25,1.18,0.27c0.03,0.02,0.04,0.03,0.03,0.05c-0.01,0.02-0.02,0.03-0.03,0.03
		C21.25,28.35,20.84,28.28,20.49,28.01z"/>
	<path class="st9" d="M23.87,35.3c0.04-0.01,0.07-0.01,0.11-0.02c0.33,0.04,0.66,0.2,0.98-0.01c-0.12,0.31-0.39,0.2-0.6,0.18
		C24.2,35.44,24.02,35.42,23.87,35.3z"/>
	<path class="st10" d="M34.76,29.64c-0.07-0.07-0.16-0.17,0.02-0.16c0.17,0.01,0.34,0.1,0.51,0.15c0.03,0.02,0.04,0.03,0.03,0.05
		c-0.01,0.02-0.02,0.03-0.03,0.03C35.12,29.69,34.95,29.59,34.76,29.64z"/>
	<path class="st11" d="M33.61,31.04c0.13,0.21,0.26,0.42,0.4,0.62c-0.02,0.03-0.05,0.03-0.07,0C33.71,31.52,33.59,31.31,33.61,31.04
		z"/>
	<path class="st12" d="M19.13,27.43c0.25,0.01,0.48,0.08,0.61,0.32C19.53,27.66,19.31,27.58,19.13,27.43z"/>
	<path class="st13" d="M27.33,35.8c0.14-0.11,0.29-0.23,0.43-0.34C27.72,35.7,27.56,35.79,27.33,35.8z"/>
	<path class="st14" d="M11.6,28.71c0.25-0.04,0.41,0.14,0.61,0.23C11.97,28.97,11.78,28.84,11.6,28.71z"/>
	<path class="st15" d="M23.71,42.73c0.15,0.02,0.17,0.38,0.41,0.15c0,0.11-0.02,0.21-0.16,0.18C23.81,43.03,23.71,42.91,23.71,42.73
		z"/>
	<path class="st16" d="M34.7,32.17c0.21,0.01,0.42,0.02,0.54,0.24C35.05,32.34,34.84,32.33,34.7,32.17z"/>
	<path class="st17" d="M34.92,27.76c0.08-0.18,0.21-0.33,0.37-0.44C35.28,27.56,35.12,27.68,34.92,27.76z"/>
	<path class="st18" d="M22.43,40.46c0.18,0.09,0.31,0.23,0.36,0.44C22.62,40.78,22.47,40.67,22.43,40.46z"/>
	<path class="st19" d="M22.51,28.53c0.16-0.09,0.35,0.21,0.5-0.04C22.88,28.94,22.68,28.61,22.51,28.53z"/>
	<path class="st20" d="M32.15,28.95c0.1-0.28,0.26-0.23,0.45-0.1c0.03,0.02,0.04,0.04,0.03,0.06c-0.01,0.02-0.02,0.03-0.03,0.03
		C32.44,28.85,32.29,28.86,32.15,28.95z"/>
	<path class="st21" d="M18.38,34.87c0,0.03,0,0.06-0.01,0.09c-0.18,0.03-0.36,0.06-0.54,0.09C17.97,34.86,18.17,34.86,18.38,34.87z"
		/>
	<path class="st22" d="M21.85,34.95c0-0.03,0-0.05,0-0.08c0.2,0,0.41-0.06,0.6,0.08C22.24,34.95,22.04,34.95,21.85,34.95z"/>
	<path class="st23" d="M21.67,28.36c0-0.02,0-0.05,0-0.07c0.19,0,0.38,0.02,0.54,0.15C22.02,28.48,21.85,28.39,21.67,28.36z"/>
	<path class="st24" d="M24.45,37.91c0.09-0.12,0.19-0.23,0.35-0.26C24.71,37.77,24.68,37.97,24.45,37.91z"/>
	<path class="st25" d="M17.35,25.82c0.15,0.07,0.24,0.18,0.26,0.34C17.48,26.08,17.37,25.99,17.35,25.82z"/>
	<path class="st26" d="M16.18,24.29c0.13,0.08,0.22,0.19,0.26,0.34C16.29,24.57,16.18,24.47,16.18,24.29z"/>
	<path class="st27" d="M16.43,24.62c0.13,0.09,0.24,0.19,0.25,0.36C16.55,24.9,16.43,24.81,16.43,24.62z"/>
	<path class="st28" d="M16.76,25.06c0.15,0.06,0.23,0.19,0.27,0.33C16.88,25.33,16.78,25.22,16.76,25.06z"/>
	<path class="st18" d="M17.02,25.39c0.13,0.09,0.24,0.19,0.25,0.36C17.15,25.66,17.02,25.57,17.02,25.39z"/>
	<path class="st29" d="M23.44,42.4c0.16,0.05,0.22,0.19,0.27,0.34C23.56,42.68,23.47,42.57,23.44,42.4z"/>
	<path class="st30" d="M23.78,40.04c0.02-0.17,0.14-0.26,0.26-0.37C24.05,39.86,23.93,39.96,23.78,40.04z"/>
	<path class="st31" d="M20.06,27.81c0.15,0.06,0.32,0.07,0.43,0.21C20.32,28.02,20.15,28,20.06,27.81z"/>
	<path class="st32" d="M16.55,37.58c0.1-0.12,0.24-0.18,0.39-0.23C16.88,37.54,16.72,37.57,16.55,37.58z"/>
	<path class="st33" d="M10.93,28.32c0.14,0.06,0.33,0.04,0.42,0.22C11.18,28.51,11.01,28.51,10.93,28.32z"/>
	<path class="st34" d="M17.15,37.24c0.1-0.12,0.24-0.18,0.39-0.23C17.48,37.21,17.31,37.23,17.15,37.24z"/>
	<path class="st35" d="M31.54,29.79c0.09-0.12,0.19-0.24,0.28-0.35C31.82,29.63,31.72,29.74,31.54,29.79z"/>
	<path class="st25" d="M25.03,35.21c0.09-0.12,0.19-0.24,0.28-0.35C25.31,35.04,25.2,35.15,25.03,35.21z"/>
	<path class="st36" d="M37.05,31.48c0.16-0.12,0.35-0.06,0.52-0.11c-0.09,0.2-0.28,0.1-0.42,0.13
		C37.11,31.53,37.08,31.52,37.05,31.48z"/>
	<path class="st37" d="M25.72,34.19c0.01-0.09,0.03-0.18,0.04-0.28c0.1,0.09,0.15,0.18,0.14,0.29
		C25.84,34.2,25.78,34.19,25.72,34.19z"/>
	<path class="st38" d="M35.69,32.24c0.12-0.09,0.24-0.19,0.36-0.28C36,32.14,35.89,32.25,35.69,32.24z"/>
	<path class="st39" d="M33.94,31.66c0.02,0,0.05,0,0.07,0c0.11,0.05,0.19,0.12,0.2,0.25C34.09,31.86,34,31.78,33.94,31.66z"/>
	<path class="st40" d="M37.05,31.48c0.03,0.01,0.07,0.01,0.1,0.02c-0.14,0.13-0.31,0.06-0.46,0.08
		C36.8,31.47,36.93,31.48,37.05,31.48z"/>
	<path class="st41" d="M35.3,29.7c0-0.03,0-0.05,0-0.08c0.15,0,0.3-0.01,0.44,0.08c-0.03,0.01-0.07,0.01-0.1,0.02
		C35.53,29.72,35.41,29.71,35.3,29.7z"/>
	<path class="st42" d="M32.59,28.94c0-0.03,0-0.06,0-0.08c0.12,0.04,0.25,0.07,0.34,0.18C32.8,29.05,32.69,29.01,32.59,28.94z"/>
	<path class="st43" d="M25.39,37.15c0.07-0.09,0.14-0.17,0.27-0.16C25.58,37.06,25.56,37.25,25.39,37.15z"/>
	<path class="st38" d="M25.05,37.41c0.09-0.07,0.17-0.13,0.26-0.2C25.27,37.33,25.24,37.47,25.05,37.41z"/>
	<path class="st44" d="M10.16,27.52c0.17-0.01,0.25,0.08,0.27,0.24C10.31,27.71,10.23,27.62,10.16,27.52z"/>
	<path class="st45" d="M9.41,26.64c0.08,0.11,0.17,0.22,0.17,0.37C9.42,26.94,9.39,26.8,9.41,26.64z"/>
	<path class="st2" d="M14.31,17.45c0.22,0.36,0.43,0.71,0.2,1.16c-0.05,0.1-0.17,0.3,0.1,0.41c0.12,0.04-0.03,0.16-0.09,0.22
		c-0.41,0.39-0.93,0.49-1.46,0.58c-0.66,0.11-1.32,0.06-1.97,0c-0.82-0.07-1.4,0.27-1.84,0.93c-0.11-0.06-0.09-0.16-0.08-0.26
		c0.1-0.08,0.2-0.15,0.24-0.28c0.04-0.05,0.07-0.1,0.11-0.14c0.09-0.08,0.19-0.15,0.23-0.28c0.01-0.02,0.03-0.04,0.04-0.06
		c0.13-0.09,0.22-0.21,0.29-0.35l0,0.01c0.1-0.11,0.21-0.21,0.26-0.36c0.13-0.14,0.14-0.27-0.02-0.39
		c-0.17-0.14-0.36-0.28-0.52-0.44c-0.11-0.11-0.43-0.2-0.1-0.43c0.01-0.01,0.02-0.06,0.01-0.07c-0.34-0.39,0.07-0.58,0.22-0.84
		c0.12-0.11,0.26-0.2,0.32-0.37c0.21-0.28,0.46-0.53,0.74-0.74c0.13-0.03,0.21-0.13,0.29-0.23c0.13-0.09,0.25-0.18,0.38-0.28
		c0.23-0.1,0.46-0.22,0.71-0.29c0.22,0.01,0.44-0.04,0.65,0.04c0.4,0.17,0.55,0.52,0.64,0.9c0.06,0.15,0.07,0.32,0.18,0.45
		l-0.01-0.01c0.06,0.21,0.15,0.41,0.26,0.6l-0.01-0.01C14.13,17.11,14.18,17.3,14.31,17.45z"/>
	<path class="st46" d="M32.25,23.88c0.16,0.03,0.32,0.06,0.42,0.22c-0.07,0.13-0.2,0.15-0.33,0.15c-0.98-0.01-1.97,0.09-2.95-0.07
		c-0.29-0.06-0.6,0.05-0.89-0.06c-0.03-0.02-0.06-0.05-0.09-0.07c1.26,0,2.52-0.01,3.78-0.01c0.01,0,0.03,0,0.04-0.01
		c0.01-0.02,0.01-0.04,0.01-0.07c-0.03-0.02-0.04-0.03-0.03-0.05C32.23,23.89,32.24,23.88,32.25,23.88z"/>
	<path class="st47" d="M18.88,13.47c0.35-0.17,0.71-0.02,1.07-0.03c0.24,0,0.47-0.01,0.7-0.07c0.03-0.03,0.06-0.03,0.09,0.01
		c-0.16,0.18-0.37,0.18-0.58,0.16C19.74,13.51,19.3,13.63,18.88,13.47z"/>
	<path class="st48" d="M30.36,14.91c0,0.63,0.22,1.23,0.28,1.85C30.39,16.17,30.23,15.56,30.36,14.91z"/>
	<path class="st49" d="M35.73,13.64c0.19-0.39,0.28-0.81,0.4-1.22C36.16,12.87,36.1,13.31,35.73,13.64z"/>
	<path class="st50" d="M24.22,19.1c0.32,0.41,0.77,0.26,1.18,0.29c-0.3,0.14-0.61,0.1-0.92,0.03C24.33,19.39,24.21,19.29,24.22,19.1
		z"/>
	<path class="st51" d="M37.1,21.85c0.17-0.29,0.31-0.59,0.33-0.94C37.54,21.31,37.39,21.73,37.1,21.85z"/>
	<path class="st52" d="M27.09,13.64c0.36-0.2,0.69-0.03,1.03,0.07c-0.03,0.05-0.06,0.05-0.1,0.02
		C27.71,13.75,27.41,13.59,27.09,13.64z"/>
	<path class="st53" d="M30.74,16.9c0.13,0.27,0.27,0.53,0.4,0.8C30.85,17.51,30.76,17.22,30.74,16.9z"/>
	<path class="st54" d="M16.44,13.45c0.06,0.26,0.21,0.41,0.5,0.38c-0.08,0.13-0.16,0.16-0.31,0.09
		C16.42,13.8,16.42,13.63,16.44,13.45z"/>
	<path class="st55" d="M25.99,19.14c0.25-0.08,0.49-0.13,0.71,0.07C26.46,19.19,26.21,19.29,25.99,19.14z"/>
	<path class="st56" d="M28.69,17.6c0.23,0,0.47,0.01,0.7,0.01c-0.21,0.3-0.47,0.01-0.7,0.06c0,0-0.01-0.02-0.01-0.03
		C28.68,17.63,28.69,17.61,28.69,17.6z"/>
	<path class="st57" d="M28.09,11.08c0.24,0.01,0.33,0.26,0.53,0.34c0.03,0.02,0.04,0.04,0.03,0.06c-0.01,0.02-0.02,0.03-0.03,0.03
		C28.39,11.43,28.21,11.29,28.09,11.08z"/>
	<path class="st58" d="M26.17,8.48c0.16-0.19,0.39-0.09,0.58-0.14c0.04,0,0.07,0.02,0.08,0.05C26.63,8.55,26.39,8.44,26.17,8.48z"/>
	<path class="st59" d="M30.82,22.93c0.19,0.16,0.39,0.31,0.51,0.53C31.06,23.37,30.88,23.22,30.82,22.93z"/>
	<path class="st60" d="M30.58,22.27c-0.03,0.26,0.2,0.43,0.24,0.67C30.62,22.76,30.4,22.58,30.58,22.27z"/>
	<path class="st61" d="M33.11,20.36c0.16,0.18,0.27,0.39,0.33,0.62c0.02,0.02,0.03,0.04,0.02,0.06c-0.01,0.02-0.02,0.03-0.03,0.03
		C33.27,20.87,33.13,20.64,33.11,20.36z"/>
	<path class="st62" d="M26.04,16.09c0.2-0.33,0.47-0.17,0.72-0.09c-0.03,0.04-0.06,0.04-0.09,0.01C26.46,16,26.24,15.98,26.04,16.09
		z"/>
	<path class="st63" d="M37.77,19.22c0.11-0.21,0.21-0.42,0.32-0.62C38.08,18.86,38.03,19.09,37.77,19.22z"/>
	<path class="st64" d="M8.14,17.75c0.09,0.2,0.26,0.37,0.24,0.62C8.24,18.19,8.12,18,8.14,17.75z"/>
	<path class="st65" d="M26.02,17.85c0.21,0,0.41,0.01,0.56,0.19c-0.22-0.06-0.46-0.05-0.67-0.18
		C25.94,17.83,25.98,17.83,26.02,17.85z"/>
	<path class="st66" d="M26.93,10.76c0.09-0.22,0.25-0.15,0.41-0.09c0.03,0.02,0.04,0.04,0.03,0.06c-0.01,0.02-0.02,0.03-0.03,0.03
		C27.21,10.75,27.07,10.75,26.93,10.76z"/>
	<path class="st67" d="M35.39,14.23c0.07-0.2,0.17-0.39,0.32-0.54C35.68,13.91,35.64,14.13,35.39,14.23z"/>
	<path class="st68" d="M26.84,19.35c0.18,0.17,0.21,0.4,0.26,0.63C26.9,19.82,26.88,19.58,26.84,19.35z"/>
	<path class="st69" d="M26.02,17.85c-0.04,0.01-0.08,0.01-0.11,0.02c-0.19,0-0.37-0.02-0.51-0.17
		C25.61,17.7,25.82,17.78,26.02,17.85z"/>
	<path class="st70" d="M32.07,19.05c0.18,0.09,0.29,0.22,0.33,0.42C32.26,19.36,32.1,19.26,32.07,19.05z"/>
	<path class="st71" d="M37.38,19.98c0.04-0.21,0.13-0.39,0.28-0.55C37.65,19.65,37.57,19.84,37.38,19.98z"/>
	<path class="st72" d="M34.45,9.07c0.12,0.15,0.21,0.32,0.27,0.5c-0.03,0.04-0.06,0.04-0.09,0c-0.06-0.14-0.12-0.28-0.18-0.42
		c-0.02-0.02-0.03-0.04-0.02-0.06C34.44,9.07,34.44,9.07,34.45,9.07z"/>
	<path class="st73" d="M34.61,8.92c-0.06-0.02-0.13-0.04-0.19-0.06c-0.06,0.01-0.1,0-0.14-0.05C34.49,8.54,34.53,8.8,34.61,8.92z"/>
	<path class="st74" d="M27.11,19.96c0.15,0.16,0.16-0.04,0.23-0.09c0,0.12,0.04,0.28-0.11,0.3C27.11,20.19,27.09,20.07,27.11,19.96z
		"/>
	<path class="st70" d="M36.76,22.27c0.07-0.15,0.19-0.26,0.31-0.36C37.07,22.11,36.96,22.22,36.76,22.27z"/>
	<path class="st75" d="M27.36,7.88c0.01-0.12,0.12-0.21,0.07-0.34c0.05-0.04,0.11-0.05,0.16,0C27.57,7.69,27.55,7.84,27.36,7.88z"/>
	<path class="st76" d="M27.6,7.54c-0.05,0-0.11,0-0.16,0c-0.03,0-0.06-0.01-0.1-0.01c0.01-0.11,0.08-0.18,0.18-0.18
		C27.64,7.36,27.58,7.47,27.6,7.54z"/>
	<path class="st77" d="M34.21,23.36c0.1,0.11,0.1,0.25,0.06,0.36c-0.06,0.21-0.11,0.05-0.16-0.02
		C34.25,23.61,34.16,23.47,34.21,23.36z"/>
	<path class="st78" d="M31.67,18.59c0.19,0.06,0.29,0.18,0.32,0.38C31.85,18.86,31.71,18.77,31.67,18.59z"/>
	<path class="st79" d="M30.56,11.43c0.03,0.11,0.06,0.23,0.09,0.34c-0.16-0.06-0.15-0.21-0.16-0.34c0-0.01,0.02-0.02,0.04-0.02
		C30.53,11.41,30.55,11.42,30.56,11.43z"/>
	<path class="st80" d="M20.74,13.39c-0.03,0-0.06-0.01-0.09-0.01c0.12-0.08,0.23-0.15,0.35-0.23C20.98,13.3,20.89,13.37,20.74,13.39
		z"/>
	<path class="st81" d="M27.35,10.75c0-0.03,0-0.06,0-0.09c0.17-0.01,0.33,0,0.43,0.17C27.63,10.81,27.49,10.78,27.35,10.75z"/>
	<path class="st82" d="M26.67,16.01c0.03,0,0.06-0.01,0.09-0.01c0.15,0,0.27,0.06,0.36,0.17C26.96,16.16,26.8,16.12,26.67,16.01z"/>
	<path class="st83" d="M28.03,13.72c0.03-0.01,0.07-0.01,0.1-0.02c0.14,0.01,0.26,0.03,0.33,0.18
		C28.3,13.86,28.15,13.83,28.03,13.72z"/>
	<path class="st84" d="M28.93,14.56c0.06,0.1,0.12,0.2,0.18,0.29l0,0.04C29.01,14.81,28.82,14.77,28.93,14.56z"/>
	<path class="st75" d="M33.43,21.08c0-0.03,0-0.06,0.01-0.09c0.12,0.12,0.16,0.28,0.2,0.43C33.49,21.36,33.46,21.22,33.43,21.08z"/>
	<path class="st85" d="M34.28,8.8c0.05,0.02,0.09,0.03,0.14,0.05c0.01,0.07,0.02,0.14,0.03,0.21c0,0.03,0,0.05,0,0.08
		C34.34,9.06,34.29,8.94,34.28,8.8z"/>
	<path class="st86" d="M32.5,19.56c0.16,0.05,0.22,0.2,0.3,0.33C32.63,19.85,32.53,19.74,32.5,19.56z"/>
	<path class="st87" d="M9.4,20.21c0.01,0.17-0.07,0.26-0.24,0.28c0,0-0.02-0.04-0.02-0.04C9.23,20.37,9.31,20.29,9.4,20.21z"/>
	<path class="st88" d="M30.23,8.12c0.1,0.06,0.18,0.15,0.22,0.26C30.29,8.37,30.22,8.28,30.23,8.12z"/>
	<path class="st89" d="M30.06,7.76c0.06,0.12,0.12,0.24,0.17,0.37C30.05,8.07,30.05,7.92,30.06,7.76z"/>
	<path class="st90" d="M37.83,15.93c-0.05,0-0.1,0-0.15,0c0-0.07-0.06-0.19,0.06-0.2C37.83,15.73,37.83,15.85,37.83,15.93z"/>
	<path class="st91" d="M29.11,14.9c0,0,0-0.04,0-0.04c0.09,0.01,0.18,0.03,0.27,0.04C29.29,15.1,29.2,14.96,29.11,14.9z"/>
	<path class="st92" d="M17.44,14.38c0.11,0.02,0.18-0.04,0.25-0.11c0,0.1-0.02,0.2-0.14,0.2C17.49,14.48,17.4,14.51,17.44,14.38z"/>
	<path class="st63" d="M34.62,9.57c0.03,0,0.06,0,0.09,0c0.05,0.09,0.1,0.17,0.15,0.26C34.71,9.81,34.68,9.68,34.62,9.57z"/>
	<path class="st93" d="M32.25,23.88c0,0.02,0,0.05,0,0.07c-0.14-0.02-0.28-0.05-0.34-0.21C32.03,23.79,32.14,23.84,32.25,23.88z"/>
	<path class="st94" d="M28.61,11.51c0-0.03,0-0.06,0-0.09c0.11,0,0.23,0.01,0.34,0.01C28.88,11.62,28.73,11.48,28.61,11.51z"/>
	<path class="st95" d="M26.84,8.39c-0.03-0.02-0.05-0.03-0.08-0.05c0.11-0.05,0.22-0.1,0.33-0.16C27.06,8.32,26.97,8.38,26.84,8.39z
		"/>
	<path class="st2" d="M16.02,24.05c-1.28,0.01-2.55,0.02-3.83,0.03c-0.65,0-1.29,0-1.94,0c-0.04-0.72,0.08-1.41,0.39-2.07
		c0.12-0.14,0.25-0.27,0.36-0.41c0.01-0.02,0.02-0.03,0.04-0.02c0.29-0.12,0.59-0.13,0.89-0.12c0.97-0.1,1.93-0.18,2.88,0.14
		c0.14,0.14,0.36-0.02,0.49,0.15c0.13,0.18,0.36,0.09,0.52,0.18c0.28-0.08,0.49-0.26,0.72-0.43c0.14-0.04,0.24-0.13,0.31-0.25
		c0.11-0.15,0.24-0.19,0.38-0.04c0.15,0.15,0.14,0.3-0.01,0.44c-0.19,0.18-0.39,0.37-0.6,0.53c-0.42,0.33-0.87,0.44-1.37,0.16
		c-0.09-0.05-0.2-0.08-0.34-0.13c0.01,0.42,0.23,0.7,0.45,0.98c0.1,0.13,0.24,0.24,0.28,0.41c0.07,0.13,0.17,0.24,0.27,0.35
		C15.97,23.99,15.99,24.02,16.02,24.05z"/>
	<path class="st1" d="M29.38,24.12c1.1-0.01,2.2-0.02,3.3-0.03c0.76,0.42,0.89,1.1,0.74,1.87c-0.08,0.4-0.15,0.8-0.14,1.21
		c0.01,0.22-0.08,0.41-0.2,0.59c-0.14,0.2-0.28,0.4-0.58,0.34c-0.31-0.06-0.21-0.32-0.26-0.51c-0.4-1.6-1.31-2.77-2.88-3.38
		C29.33,24.19,29.33,24.15,29.38,24.12z"/>
	<path class="st96" d="M14.83,21.6c-0.95-0.22-1.92-0.19-2.88-0.11c-0.03-0.02-0.04-0.04-0.03-0.06c0.01-0.02,0.02-0.03,0.03-0.03
		c0.84-0.1,1.68-0.11,2.52,0.03C14.59,21.46,14.75,21.45,14.83,21.6z"/>
	<path class="st97" d="M11.94,21.41c0,0.03,0,0.06,0,0.09c-0.3,0.03-0.59,0.06-0.89,0.08C11.32,21.38,11.64,21.41,11.94,21.41z"/>
	<path class="st98" d="M29.38,24.12c0,0.03-0.01,0.07-0.01,0.1c-0.28-0.06-0.59,0.11-0.85-0.11C28.8,24.12,29.09,24.12,29.38,24.12z
		"/>
	<path class="st99" d="M14.31,17.45c-0.22-0.11-0.25-0.31-0.25-0.52C14.2,17.07,14.27,17.25,14.31,17.45z"/>
	<path class="st100" d="M14.07,16.93c-0.18-0.16-0.28-0.35-0.26-0.6C13.96,16.51,14.04,16.71,14.07,16.93z"/>
	<path class="st101" d="M13,14.99c-0.24,0-0.48,0-0.72,0c-0.04,0.04-0.08,0.03-0.11-0.01C12.45,14.85,12.73,14.83,13,14.99z"/>
	<path class="st102" d="M12.17,14.98c0.04,0,0.07,0.01,0.11,0.01c-0.2,0.11-0.4,0.23-0.63,0.24C11.79,15.09,11.96,15,12.17,14.98z"
		/>
	<path class="st103" d="M15.84,21.93c-0.19-0.02-0.42,0.08-0.52-0.18C15.49,21.81,15.67,21.87,15.84,21.93z"/>
	<path class="st89" d="M11.02,21.6c-0.04,0.21-0.18,0.32-0.36,0.41C10.72,21.82,10.83,21.68,11.02,21.6z"/>
	<path class="st66" d="M10.25,16.49c0,0.21-0.12,0.32-0.32,0.37C10,16.7,10.11,16.59,10.25,16.49z"/>
	<path class="st104" d="M10.33,19.02c0.01,0.19-0.1,0.29-0.26,0.36C10.1,19.22,10.21,19.12,10.33,19.02z"/>
	<path class="st66" d="M15.94,23.96c-0.15-0.07-0.27-0.17-0.27-0.35C15.82,23.67,15.87,23.83,15.94,23.96z"/>
	<path class="st79" d="M13.82,16.34c-0.17-0.11-0.19-0.27-0.18-0.45C13.74,16.02,13.81,16.17,13.82,16.34z"/>
	<path class="st105" d="M10.07,19.38c0,0.2-0.11,0.3-0.29,0.35C9.86,19.59,9.93,19.45,10.07,19.38z"/>
	<path class="st106" d="M16.87,21.25c0,0.22-0.14,0.25-0.31,0.25C16.66,21.41,16.76,21.33,16.87,21.25z"/>
	<path class="st66" d="M9.74,19.79c0.01,0.16-0.06,0.26-0.23,0.28C9.56,19.95,9.64,19.86,9.74,19.79z"/>
	<path class="st107" d="M11.27,15.51c-0.02,0.17-0.12,0.24-0.29,0.23C11.06,15.64,11.13,15.54,11.27,15.51z"/>
</g>
</svg>
