<svg width="48" height="48" viewBox="0 0 48 48" fill="none" xmlns="http://www.w3.org/2000/svg">
<g clip-path="url(#clip0_74_1235)">
<path d="M13.002 10H34.998C35.2152 10 35.4264 9.92933 35.5998 9.79865C35.7732 9.66798 35.8994 9.48441 35.9593 9.27568C36.0191 9.06696 36.0094 8.84442 35.9316 8.6417C35.8538 8.43898 35.7122 8.26709 35.528 8.152L24.53 0.152002C24.3711 0.0526697 24.1874 0 24 0C23.8126 0 23.629 0.0526697 23.47 0.152002L12.472 8.152C12.2879 8.26709 12.1462 8.43898 12.0684 8.6417C11.9906 8.84442 11.9809 9.06696 12.0408 9.27568C12.1006 9.48441 12.2268 9.66798 12.4002 9.79865C12.5736 9.92933 12.7849 10 13.002 10V10ZM40 44H36.325L32.622 23H32.9C33.1758 23 33.4489 22.9457 33.7037 22.8401C33.9584 22.7346 34.1899 22.5799 34.385 22.3849C34.58 22.1899 34.7346 21.9584 34.8402 21.7036C34.9457 21.4489 35 21.1758 35 20.9V12H13V20.9C13 21.1758 13.0543 21.4489 13.1599 21.7036C13.2654 21.9584 13.4201 22.1899 13.6151 22.3849C13.8101 22.5799 14.0416 22.7346 14.2964 22.8401C14.5512 22.9457 14.8243 23 15.1 23H15.32L11.619 44H8.00003C7.73742 43.9986 7.47723 44.0501 7.23498 44.1515C6.99273 44.2529 6.77338 44.402 6.59003 44.59C6.40203 44.7734 6.25289 44.9927 6.15152 45.235C6.05015 45.4772 5.99863 45.7374 6.00003 46C6.00161 46.53 6.21283 47.0377 6.58756 47.4125C6.96229 47.7872 7.47008 47.9984 8.00003 48H40C40.5292 47.9961 41.0357 47.7841 41.4099 47.4099C41.7841 47.0357 41.9961 46.5292 42 46C41.9984 45.4701 41.7872 44.9623 41.4125 44.5875C41.0378 44.2128 40.53 44.0016 40 44V44ZM24 37.32L30.68 44H17.32L24 37.32ZM16.536 39.144L17.928 31.248L21.18 34.5L16.536 39.144ZM31.396 39.075L26.82 34.5L30.024 31.297L31.396 39.075ZM17.5 16H30.5C30.8979 16 31.2794 16.158 31.5607 16.4393C31.842 16.7206 32 17.1022 32 17.5C32 17.8978 31.842 18.2794 31.5607 18.5607C31.2794 18.842 30.8979 19 30.5 19H17.5C17.1022 19 16.7207 18.842 16.4394 18.5607C16.1581 18.2794 16 17.8978 16 17.5C16 17.1022 16.1581 16.7206 16.4394 16.4393C16.7207 16.158 17.1022 16 17.5 16V16ZM28.56 23L29.178 26.502L24 31.68L18.773 26.453L19.383 23H28.56Z" fill="#011E41"/>
</g>
<defs>
<clipPath id="clip0_74_1235">
<rect width="48" height="48" fill="white"/>
</clipPath>
</defs>
</svg>
