<svg xmlns="http://www.w3.org/2000/svg" viewBox="0 0 100 105">
<path fill="#ffa10a" d="M94 38a20 20 0 0 0-4-4 24 24 0 0 0-7-3 18 18 0 0 0-7-1 17 17 0 0 0-9 4 20 20 0 0 0-5 5 20 20 0 0 0-2 14l2 1h10l1-2a16 16 0 0 0 0-2 9 9 0 0 1 1-4 5 5 0 0 1 8-2 10 10 0 0 1 3 4c3 5-3 24-4 29l-3 8a7 7 0 0 1-6 5h-3a5 5 0 0 1-1 0l-14 2-4 1H39l-8 1-3 1c-2 0-2 0-2 2a30 30 0 0 0 2 7 2 2 0 0 0 2 1 604 604 0 0 0 40-3l14-2h2a3 3 0 0 0 1-1l2-6 1-1 4-14 5-21c1-7 0-13-5-19"/>
<path fill="#de2424" d="M31 85v-2l-2-3-2-3-8-12c-3-4-7-14-6-20a10 10 0 0 1 2-5 5 5 0 0 1 8 0 9 9 0 0 1 2 4 16 16 0 0 0 1 2l1 1 6-1 4-1 2-2a20 20 0 0 0-6-13 20 20 0 0 0-6-4 17 17 0 0 0-10-1 18 18 0 0 0-7 3 24 24 0 0 0-5 5 20 20 0 0 0-3 5c-3 7-2 13 0 19l5 13 8 12 1 1 3 5h3l8-3h1z"/>
<path fill="#fff" d="M62 3a1 1 0 0 0-1 0c0 6-2 13-3 14-1-2 0-10 1-13V3a2 2 0 0 0-2-3 2 2 0 0 0-2 0 2 2 0 0 0-1 2 80 80 0 0 1-2 13V1a1 1 0 0 0-1 0c-1 2-4 7-4 14 0 4-1 8 1 11a7 7 0 0 1 1 6 123 123 0 0 1-15 39 3 3 0 0 0 0 3 3 3 0 0 0 0 1h1a3 3 0 0 0 2 1 4 4 0 0 0 1-1c7-2 16-19 17-41 0-2 3-5 4-6 3-2 5-8 5-16l1-3c0-5-3-6-3-6"/>
</svg>
