<?xml version="1.0" encoding="utf-8"?>
<!-- Generator: Adobe Illustrator 25.2.1, SVG Export Plug-In . SVG Version: 6.00 Build 0)  -->
<svg version="1.1" id="Layer_1" xmlns="http://www.w3.org/2000/svg" xmlns:xlink="http://www.w3.org/1999/xlink" x="0px" y="0px"
	 viewBox="0 0 560 288" style="enable-background:new 0 0 560 288;" xml:space="preserve">
<style type="text/css">
	.st0{fill:#FEFEFE;}
	.st1{fill:#2B47FE;}
	.st2{fill:#272424;}
	.st3{fill:#282525;}
	.st4{fill:#262323;}
	.st5{fill:#252222;}
	.st6{fill:#2C47FE;}
	.st7{fill:#262424;}
	.st8{fill:#292626;}
	.st9{fill:#282626;}
	.st10{fill:#232020;}
	.st11{fill:#272525;}
	.st12{fill:#322F2F;}
	.st13{fill:#312E2E;}
	.st14{fill:#3E3C3C;}
	.st15{fill:#2C2929;}
	.st16{fill:#2A2727;}
	.st17{fill:#2F2C2C;}
	.st18{fill:#4E4C4C;}
	.st19{fill:#333030;}
	.st20{fill:#F9F9FE;}
	.st21{fill:#FCFCFE;}
	.st22{fill:#F7F8FE;}
	.st23{fill:#F9FAFE;}
	.st24{fill:#E7EAFE;}
	.st25{fill:#EFF1FE;}
	.st26{fill:#E2E6FE;}
	.st27{fill:#CDCCCC;}
	.st28{fill:#E4E4E4;}
	.st29{fill:#E8E8E8;}
	.st30{fill:#D8D7D7;}
	.st31{fill:#F9F9F9;}
	.st32{fill:#FAFAFA;}
	.st33{fill:#E3E3E3;}
	.st34{fill:#DBDADA;}
	.st35{fill:#DFDEDE;}
</style>
<g>
	<path class="st0" d="M270.19,100.59c17.93,0,35.86,0,53.79-0.02c0.67,0,0.78,0.16,0.78,0.8c-0.02,24.02-0.02,48.03,0,72.05
		c0,0.62-0.09,0.8-0.77,0.8c-35.86-0.02-71.73-0.02-107.59,0c-0.64,0-0.74-0.14-0.74-0.75c0.02-24.05,0.02-48.09-0.01-72.14
		c0-0.75,0.27-0.75,0.83-0.75C234.38,100.59,252.29,100.59,270.19,100.59z"/>
	<path class="st1" d="M244.67,138.29c0-4.94,4-8.88,8.98-8.87c4.97,0.01,8.95,4,8.92,8.93c-0.03,4.9-4,8.82-8.94,8.82
		C248.65,147.18,244.66,143.23,244.67,138.29z"/>
	<path class="st1" d="M231.44,130.82c0,4.2-0.01,8.21,0.01,12.22c0,0.44-0.15,0.61-0.58,0.57c-0.09-0.01-0.18,0.01-0.27,0
		c-1.32-0.19-2.37-0.01-2.76,1.56c-0.18,0.73-0.94,1.16-1.48,1.68c-0.26,0.25-0.37,0.12-0.58-0.05c-0.86-0.7-1.59-1.5-1.89-2.59
		c-0.13-0.49-0.38-0.64-0.83-0.58c-0.03,0-0.06,0-0.09,0c-0.71-0.08-1.65,0.32-2.06-0.2c-0.34-0.43-0.12-1.33-0.12-2.02
		c-0.01-3.47,0-6.93,0-10.52c1.75,0.98,2.59,2.42,2.86,4.24c0.14,0.99,0.23,1.98,0.37,2.96c0.06,0.4,0.04,0.67-0.46,0.79
		c-0.42,0.1-0.63,0.48-0.54,0.92c0.08,0.43,0.41,0.63,0.82,0.74c0.55,0.16,0.6-0.29,0.74-0.58c0.91-1.8,1.22-3.7,1.04-5.71
		c-0.1-1.11-0.12-2.23-0.13-3.35c0-0.49,0.18-1.2,0.59-1.2c0.5,0.01,0.66,0.72,0.66,1.22c-0.01,1.48-0.09,2.96-0.17,4.43
		c-0.09,1.68,0.39,3.22,1.11,4.7c0.12,0.25,0.19,0.6,0.63,0.49c0.4-0.1,0.76-0.23,0.86-0.69c0.08-0.39,0-0.84-0.37-0.92
		c-0.8-0.17-0.59-0.7-0.53-1.18c0.1-0.93,0.21-1.86,0.34-2.79C228.84,133.2,229.75,131.85,231.44,130.82z"/>
	<path class="st1" d="M269.8,146.33c-1,0-2-0.02-2.99,0.01c-0.48,0.01-0.63-0.16-0.62-0.63c0.02-1.63,0.02-3.26,0-4.89
		c0-0.44,0.09-0.66,0.6-0.65c2,0.02,3.99,0.02,5.99,0c0.43,0,0.58,0.15,0.57,0.58c-0.02,1.66-0.02,3.32,0,4.99
		c0.01,0.5-0.19,0.62-0.64,0.61C271.74,146.31,270.77,146.33,269.8,146.33z"/>
	<path class="st1" d="M269.73,130.27c1,0,2,0.02,2.99-0.01c0.48-0.01,0.63,0.16,0.62,0.63c-0.02,1.63-0.02,3.26,0,4.89
		c0.01,0.44-0.09,0.66-0.6,0.65c-2-0.02-3.99-0.02-5.99,0c-0.43,0-0.58-0.15-0.58-0.58c0.02-1.66,0.02-3.32,0-4.99
		c-0.01-0.49,0.19-0.62,0.64-0.61C267.79,130.29,268.76,130.27,269.73,130.27z"/>
	<path class="st2" d="M279.64,131.69c0,0.47,0,0.86,0,1.24c0,0.25,0.02,0.48-0.35,0.49c-0.41,0.02-0.41-0.23-0.41-0.52
		c0.01-0.72,0-1.44,0-2.17c0-0.23-0.07-0.51,0.3-0.55c0.25-0.03,0.47,0,0.61,0.27c0.27,0.5,0.56,0.98,0.9,1.56
		c0.31-0.54,0.59-0.98,0.83-1.45c0.16-0.32,0.39-0.45,0.73-0.37c0.35,0.08,0.21,0.39,0.22,0.6c0.02,0.72,0,1.44,0.01,2.17
		c0,0.27-0.02,0.47-0.38,0.46c-0.35-0.01-0.38-0.21-0.37-0.47c0.01-0.38,0-0.77,0-1.19c-0.57,0.23-0.38,1.15-1.06,1.12
		C280.07,132.84,280.17,132.06,279.64,131.69z"/>
	<path class="st3" d="M318.16,138.67c0.53-0.72,0.92-1.24,1.3-1.78c0.17-0.25,0.38-0.39,0.68-0.34c0.43,0.08,0.24,0.43,0.25,0.66
		c0.02,0.66,0.02,1.33,0,1.99c0,0.24,0.12,0.56-0.34,0.57c-0.51,0.02-0.4-0.32-0.41-0.61c-0.01-0.42,0-0.84,0-1.54
		c-0.51,0.71-0.9,1.21-1.24,1.74c-0.21,0.32-0.47,0.5-0.82,0.38c-0.35-0.12-0.18-0.47-0.19-0.71c-0.02-0.66,0-1.33-0.01-1.99
		c0-0.26,0-0.48,0.36-0.5c0.38-0.02,0.45,0.19,0.44,0.51C318.14,137.51,318.16,137.96,318.16,138.67z"/>
	<path class="st2" d="M295.93,138.49c0.39-0.53,0.78-1.05,1.15-1.59c0.2-0.29,0.44-0.42,0.76-0.31c0.32,0.11,0.18,0.41,0.19,0.63
		c0.01,0.69-0.01,1.38,0.01,2.07c0.01,0.32-0.06,0.51-0.44,0.49c-0.37-0.01-0.34-0.26-0.34-0.5c0-0.45,0-0.89,0-1.45
		c-0.59,0.44-0.86,1.04-1.23,1.54c-0.22,0.29-0.45,0.5-0.82,0.39c-0.39-0.11-0.19-0.45-0.2-0.69c-0.03-0.66,0-1.32-0.01-1.98
		c0-0.29-0.01-0.54,0.4-0.54c0.45,0,0.35,0.31,0.36,0.56c0.01,0.44,0,0.88,0,1.32C295.82,138.45,295.88,138.47,295.93,138.49z"/>
	<path class="st3" d="M310.26,131.87c0-0.26-0.03-0.44,0.01-0.61c0.07-0.35-0.26-0.91,0.22-1.03c0.59-0.15,1.27-0.17,1.81,0.26
		c0.3,0.23,0.5,2.18,0.28,2.49c-0.26,0.35-1.94,0.7-2.18,0.38C310.06,132.91,310.34,132.32,310.26,131.87z"/>
	<path class="st4" d="M301.28,144.01c-0.54,0.75-0.92,1.25-1.27,1.77c-0.19,0.28-0.42,0.43-0.75,0.36
		c-0.43-0.08-0.23-0.43-0.24-0.66c-0.03-0.69,0-1.39-0.01-2.08c0-0.29,0.07-0.45,0.4-0.46c0.33,0,0.4,0.18,0.39,0.46
		c-0.01,0.47,0,0.94,0,1.68c0.49-0.68,0.86-1.17,1.21-1.67c0.2-0.28,0.39-0.55,0.8-0.46c0.46,0.11,0.23,0.49,0.25,0.75
		c0.03,0.66,0,1.33,0.01,1.99c0.01,0.29-0.06,0.45-0.39,0.46c-0.34,0-0.38-0.19-0.38-0.46
		C301.28,145.22,301.28,144.75,301.28,144.01z"/>
	<path class="st2" d="M286.62,138.2c0-0.18-0.03-0.36,0.01-0.54c0.06-0.36-0.24-0.93,0.19-1.05c0.58-0.16,1.26-0.18,1.81,0.23
		c0.13,0.1,0.31,0.37,0.27,0.43c-0.47,0.7,0.53,1.35,0.07,2.04c-0.26,0.39-1.96,0.7-2.25,0.39c-0.08-0.09-0.08-0.27-0.09-0.41
		C286.61,138.92,286.62,138.56,286.62,138.2z"/>
	<path class="st5" d="M282.33,138.17c0,0.93-0.72,1.65-1.66,1.66c-0.94,0.01-1.69-0.7-1.71-1.62c-0.02-0.95,0.75-1.72,1.71-1.71
		C281.61,136.52,282.33,137.25,282.33,138.17z"/>
	<path class="st4" d="M316.81,131.85c-0.02,0.93-0.75,1.62-1.71,1.61c-0.95-0.01-1.67-0.73-1.67-1.65c0-0.95,0.79-1.7,1.76-1.66
		C316.12,130.18,316.83,130.92,316.81,131.85z"/>
	<path class="st6" d="M238.58,138.48c0,2.42,0.01,4.83-0.01,7.25c0,0.24,0.16,0.66-0.21,0.67c-0.39,0.01-0.22-0.42-0.22-0.65
		c-0.01-4.89-0.01-9.79,0-14.68c0-0.24-0.15-0.66,0.2-0.67c0.39-0.01,0.22,0.42,0.23,0.65C238.58,133.52,238.58,136,238.58,138.48z"
		/>
	<path class="st7" d="M285.38,131.77c0-0.36,0-0.72,0-1.09c0-0.25-0.02-0.48,0.34-0.51c0.4-0.03,0.48,0.2,0.43,0.51
		c-0.11,0.65,0.23,0.73,0.77,0.73c0.53,0,0.7-0.17,0.64-0.68c-0.03-0.27-0.06-0.56,0.37-0.56c0.43-0.01,0.39,0.28,0.39,0.55
		c0,0.69,0,1.39,0,2.08c0,0.28,0.1,0.64-0.41,0.61c-0.44-0.02-0.37-0.34-0.34-0.58c0.07-0.57-0.1-0.79-0.73-0.77
		c-0.58,0.01-0.75,0.2-0.69,0.74c0.03,0.27,0.13,0.64-0.39,0.62c-0.52-0.01-0.35-0.39-0.37-0.65
		C285.37,132.44,285.38,132.1,285.38,131.77z"/>
	<path class="st4" d="M302.77,138.13c0-0.36,0-0.72,0-1.09c0-0.25-0.01-0.49,0.35-0.49c0.32,0,0.44,0.15,0.4,0.44
		c-0.07,0.54,0.04,0.8,0.7,0.8c0.64-0.01,0.78-0.24,0.71-0.79c-0.04-0.28,0.07-0.46,0.4-0.44c0.35,0.01,0.36,0.23,0.36,0.49
		c-0.01,0.75-0.01,1.51,0,2.26c0,0.26,0,0.47-0.36,0.48c-0.42,0.02-0.44-0.24-0.4-0.52c0.08-0.59-0.08-0.83-0.76-0.84
		c-0.74-0.01-0.67,0.39-0.65,0.85c0.02,0.29,0.01,0.53-0.41,0.52c-0.37-0.01-0.35-0.23-0.35-0.48
		C302.77,138.91,302.77,138.52,302.77,138.13z"/>
	<path class="st4" d="M297.94,144.55c0,0.33,0,0.66,0,1c0,0.29,0.08,0.63-0.41,0.61c-0.44-0.02-0.37-0.34-0.34-0.58
		c0.07-0.57-0.11-0.79-0.73-0.77c-0.56,0.01-0.76,0.17-0.7,0.73c0.03,0.26,0.13,0.64-0.38,0.63c-0.52-0.01-0.37-0.38-0.37-0.65
		c-0.01-0.66-0.01-1.33,0-1.99c0-0.26-0.07-0.56,0.37-0.57c0.43-0.01,0.43,0.26,0.39,0.53c-0.09,0.61,0.22,0.67,0.73,0.69
		c0.57,0.02,0.77-0.16,0.69-0.71c-0.05-0.32,0.04-0.52,0.43-0.5c0.37,0.02,0.33,0.28,0.33,0.51
		C297.94,143.83,297.94,144.19,297.94,144.55z"/>
	<path class="st2" d="M289.21,146.05c0.36-0.89,0.72-1.77,1.07-2.66c0.11-0.27,0.24-0.44,0.58-0.44c0.33,0,0.48,0.15,0.59,0.43
		c0.35,0.89,0.71,1.77,1.07,2.65c-0.84,0.6-0.92-0.62-1.65-0.62C290.13,145.41,290.02,146.55,289.21,146.05z"/>
	<path class="st2" d="M283.7,144.18c0.74-0.33,0.82-1.53,1.89-1.17c-0.04,0.32-0.29,0.48-0.45,0.68c-0.68,0.85-0.65,1.24,0.34,1.76
		c0.32,0.17,0.43,0.32,0.3,0.59c-0.14,0.3-0.41,0.16-0.63,0.08c-0.34-0.11-0.53-0.39-0.74-0.64c-0.19-0.22-0.37-0.44-0.71-0.83
		c0,0.53,0,0.85,0,1.17c0.01,0.31-0.21,0.32-0.43,0.32c-0.21,0-0.33-0.1-0.33-0.33c0-0.85,0-1.69,0-2.54c0-0.3,0.18-0.34,0.42-0.33
		c0.2,0.01,0.35,0.08,0.34,0.32C283.69,143.57,283.7,143.85,283.7,144.18z"/>
	<path class="st4" d="M309.69,139.71c-0.37,0.07-0.63,0.14-0.88-0.17c-0.51-0.66-1.09-0.64-1.67,0.04c-0.2,0.24-0.45,0.25-0.64,0.16
		c-0.29-0.13-0.04-0.36,0.02-0.53c0.28-0.73,0.58-1.45,0.88-2.18c0.1-0.26,0.19-0.48,0.55-0.49c0.38-0.01,0.52,0.19,0.64,0.5
		C308.95,137.91,309.31,138.77,309.69,139.71z"/>
	<path class="st8" d="M297.64,131.83c0-0.12,0-0.24,0-0.36c0-1.36,0.24-1.54,1.63-1.3c0.25,0.04,0.39,0.11,0.39,0.38
		c-0.01,0.3-0.22,0.31-0.44,0.31c-0.15,0-0.3,0-0.45,0c-0.2,0-0.35,0.05-0.35,0.29c0,0.26,0.18,0.27,0.37,0.27
		c0.06,0,0.12-0.01,0.18,0c0.24,0.02,0.58-0.11,0.58,0.34c0,0.44-0.33,0.32-0.58,0.35c-0.24,0.02-0.59-0.11-0.56,0.35
		c0.03,0.39,0.33,0.24,0.54,0.28c0.28,0.05,0.75-0.18,0.71,0.39c-0.04,0.49-0.46,0.22-0.71,0.29c-0.06,0.02-0.12-0.01-0.18,0
		c-0.92,0.17-1.32-0.19-1.15-1.13C297.66,132.14,297.64,131.98,297.64,131.83z"/>
	<path class="st3" d="M300.64,131.81c0-0.15-0.03-0.31,0.01-0.45c0.09-0.38-0.28-0.96,0.22-1.13c0.52-0.17,1.14-0.15,1.67,0.15
		c0.41,0.24,0.57,0.61,0.49,1.07c-0.09,0.51-0.44,0.82-0.92,0.84c-0.53,0.02-0.79,0.16-0.7,0.73c0.04,0.25-0.07,0.38-0.35,0.39
		c-0.32,0-0.42-0.14-0.41-0.44C300.65,132.59,300.64,132.2,300.64,131.81z"/>
	<path class="st9" d="M311.45,138.19c0.23-0.54,0.42-0.91,0.55-1.31c0.13-0.4,0.46-0.43,0.72-0.32c0.38,0.16,0.02,0.41-0.06,0.58
		c-0.28,0.66-0.61,1.31-0.92,1.97c-0.16,0.34-0.38,0.62-0.77,0.71c-0.23,0.05-0.51,0.14-0.59-0.19c-0.06-0.24-0.08-0.46,0.3-0.49
		c0.44-0.03,0.23-0.31,0.13-0.52c-0.24-0.49-0.51-0.96-0.72-1.46c-0.07-0.18-0.44-0.41-0.09-0.59c0.26-0.13,0.59-0.08,0.76,0.28
		C310.96,137.27,311.18,137.66,311.45,138.19z"/>
	<path class="st8" d="M285.02,137.23c-0.44-0.05-0.82,0.03-1.05,0.41c-0.21,0.36-0.22,0.76,0.03,1.11c0.25,0.36,0.62,0.43,1.04,0.4
		c0.21-0.02,0.53-0.39,0.63,0.12c0.09,0.49-0.28,0.53-0.62,0.57c-0.71,0.08-1.32-0.11-1.74-0.72c-0.39-0.58-0.4-1.19-0.03-1.78
		c0.39-0.62,0.98-0.87,1.7-0.81c0.35,0.03,0.7,0.09,0.63,0.56C285.54,137.61,285.2,137.18,285.02,137.23z"/>
	<path class="st10" d="M286.61,144.53c0-0.12,0-0.24,0-0.36c0-1.33,0.05-1.37,1.34-1.2c0.62,0.08,1.03,0.39,1.05,1.04
		c0.01,0.6-0.36,0.97-0.94,1.04c-0.49,0.05-0.82,0.15-0.7,0.74c0.05,0.27-0.1,0.36-0.36,0.37c-0.34,0.01-0.41-0.15-0.4-0.44
		C286.62,145.31,286.61,144.92,286.61,144.53z"/>
	<path class="st2" d="M279.2,143.02c1.31-0.33,0.96,1.03,1.64,1.37c0.55-0.26,0.14-1.64,1.46-1.39c-0.46,0.96-0.88,1.87-1.34,2.76
		c-0.16,0.31-0.46,0.47-0.82,0.49c-0.19,0.01-0.38-0.02-0.39-0.26c-0.01-0.16-0.1-0.44,0.14-0.45c0.79-0.04,0.34-0.45,0.22-0.71
		C279.82,144.24,279.51,143.65,279.2,143.02z"/>
	<path class="st11" d="M305.46,133.48c-0.75-0.01-1.33-0.26-1.65-0.94c-0.27-0.59-0.23-1.18,0.17-1.7c0.44-0.58,1.06-0.75,1.77-0.66
		c0.36,0.05,0.56,0.22,0.49,0.59c-0.09,0.47-0.37,0.12-0.55,0.11c-0.78-0.06-1.26,0.27-1.25,0.93c0.01,0.72,0.45,0.98,1.13,0.99
		c0.23,0,0.62-0.41,0.68,0.15C306.33,133.59,305.76,133.37,305.46,133.48z"/>
	<path class="st3" d="M292.84,133.48c-1.14,0-1.9-0.77-1.84-1.76c0.06-0.97,0.93-1.67,1.95-1.57c0.36,0.03,0.68,0.09,0.62,0.56
		c-0.08,0.54-0.42,0.15-0.61,0.14c-0.69-0.04-1.15,0.23-1.18,0.93c-0.02,0.64,0.39,0.95,1.03,1.02c0.26,0.03,0.78-0.51,0.78,0.24
		C293.59,133.63,293.03,133.32,292.84,133.48z"/>
	<path class="st12" d="M294.25,136.95c0.01,0.25-0.16,0.32-0.35,0.29c-0.6-0.09-0.62,0.27-0.6,0.71c0.02,0.48,0,0.96,0.01,1.44
		c0,0.26-0.09,0.39-0.36,0.39c-0.29,0.01-0.46-0.08-0.45-0.4c0.01-0.39,0.01-0.78,0-1.17c-0.01-0.48,0.18-1.1-0.69-0.98
		c-0.17,0.02-0.26-0.11-0.26-0.29c0-0.2,0.05-0.37,0.28-0.38c0.72-0.01,1.45-0.01,2.17,0C294.23,136.56,294.26,136.75,294.25,136.95
		z"/>
	<path class="st13" d="M308.17,130.17c0.33,0,0.66,0,0.99,0c0.28,0,0.36,0.15,0.35,0.4c0,0.24-0.14,0.33-0.34,0.3
		c-0.68-0.11-0.62,0.34-0.61,0.77c0.01,0.42,0,0.84,0,1.26c0.01,0.3-0.01,0.53-0.41,0.52c-0.43-0.01-0.37-0.3-0.37-0.56
		c0-0.3,0.01-0.6,0-0.9c-0.02-0.51,0.25-1.23-0.74-1.11c-0.18,0.02-0.24-0.15-0.24-0.31c-0.01-0.21,0.06-0.36,0.29-0.36
		C307.45,130.17,307.81,130.18,308.17,130.17C308.17,130.18,308.17,130.18,308.17,130.17z"/>
	<path class="st2" d="M295.57,130.18c0.15,0,0.31-0.02,0.45,0.01c0.29,0.06,0.74-0.22,0.83,0.27c0.1,0.56-0.38,0.38-0.67,0.42
		c-0.31,0.03-0.27,0.26-0.27,0.47c0,0.54-0.01,1.08,0,1.62c0,0.27-0.02,0.46-0.38,0.46c-0.35,0-0.4-0.16-0.39-0.44
		c0.01-0.36,0.01-0.72,0-1.08c-0.02-0.49,0.24-1.17-0.71-1.04c-0.19,0.02-0.23-0.15-0.24-0.31c-0.01-0.2,0.07-0.36,0.3-0.36
		C294.84,130.18,295.2,130.18,295.57,130.18C295.57,130.18,295.57,130.18,295.57,130.18z"/>
	<path class="st8" d="M314.58,137.93c0.52-0.54,0.7-1.53,1.79-1.37c0.02,0.4-0.32,0.57-0.5,0.81c-0.61,0.77-0.56,1.22,0.35,1.69
		c0.3,0.15,0.48,0.26,0.36,0.55c-0.17,0.42-0.54,0.22-0.76,0.09c-0.55-0.33-0.9-0.86-1.24-1.39
		C314.47,138.18,314.47,138.05,314.58,137.93z"/>
	<path class="st14" d="M314.58,137.93c0,0.13,0,0.25,0,0.38c-0.46,0.26-0.16,0.69-0.21,1.03c-0.04,0.28-0.09,0.44-0.41,0.45
		c-0.31,0-0.43-0.12-0.43-0.42c0.01-0.81,0.01-1.61,0-2.42c0-0.3,0.14-0.43,0.43-0.42c0.33,0,0.36,0.2,0.4,0.46
		C314.42,137.3,314.14,137.7,314.58,137.93z"/>
	<path class="st15" d="M290.16,131.93c0,0.39,0,0.78,0,1.17c0,0.22-0.12,0.31-0.34,0.31c-0.22,0-0.43-0.01-0.43-0.31
		c0-0.87-0.01-1.74,0-2.61c0-0.29,0.2-0.32,0.43-0.32c0.29,0,0.35,0.17,0.35,0.41C290.16,131.03,290.16,131.48,290.16,131.93z"/>
	<path class="st8" d="M284.31,131.8c0,0.42,0,0.84,0,1.26c0,0.27-0.12,0.36-0.38,0.36c-0.26,0-0.38-0.1-0.38-0.37
		c0-0.84,0-1.68,0-2.51c0-0.26,0.12-0.37,0.38-0.37c0.27,0,0.38,0.12,0.38,0.37C284.31,130.97,284.31,131.38,284.31,131.8z"/>
	<path class="st16" d="M300.79,138.16c0,0.39-0.01,0.79,0,1.18c0.01,0.3-0.07,0.45-0.4,0.44c-0.27-0.01-0.37-0.12-0.36-0.38
		c0.01-0.81,0-1.63,0-2.44c0-0.24,0.06-0.4,0.35-0.41c0.32,0,0.43,0.13,0.42,0.44C300.78,137.38,300.79,137.77,300.79,138.16z"/>
	<path class="st17" d="M290.01,138.06c0-0.36,0-0.72,0-1.08c-0.01-0.28,0.08-0.46,0.41-0.44c0.26,0.01,0.38,0.12,0.37,0.39
		c-0.01,0.84-0.01,1.67,0,2.51c0,0.29-0.17,0.34-0.41,0.34c-0.26,0-0.38-0.11-0.37-0.37C290.02,138.96,290.01,138.51,290.01,138.06z
		"/>
	<path class="st4" d="M293.93,144.54c0,0.42-0.01,0.84,0,1.26c0.01,0.28-0.13,0.36-0.39,0.36c-0.26,0-0.38-0.09-0.37-0.37
		c0.01-0.81,0.01-1.62,0-2.43c0-0.24,0.06-0.4,0.34-0.41c0.31-0.01,0.43,0.11,0.42,0.42C293.92,143.76,293.93,144.15,293.93,144.54z
		"/>
	<path class="st18" d="M294.13,142.64c-0.26,0-0.41-0.05-0.42-0.29c-0.01-0.22,0.1-0.33,0.32-0.34c0.2-0.01,0.35,0.07,0.36,0.29
		C294.4,142.52,294.29,142.63,294.13,142.64z"/>
	<path class="st19" d="M293.37,142.3c-0.01,0.15-0.03,0.29-0.23,0.32c-0.2,0.03-0.35-0.03-0.37-0.26c-0.01-0.16,0.03-0.29,0.22-0.31
		C293.2,142.03,293.36,142.06,293.37,142.3z"/>
	<path class="st0" d="M258.86,138.33c-0.02,2.83-2.37,5.16-5.23,5.17c-2.88,0.01-5.28-2.38-5.26-5.24c0.02-2.83,2.39-5.17,5.24-5.17
		C256.5,133.08,258.88,135.46,258.86,138.33z"/>
	<path class="st20" d="M230.54,132.75c0,2.12,0,4,0,5.89c0,0.19,0.09,0.45-0.2,0.53c-0.27,0.07-0.31-0.21-0.47-0.33
		c-0.76-0.6-0.78-1.35-0.61-2.23C229.51,135.34,229.43,133.98,230.54,132.75z"/>
	<path class="st21" d="M221.64,132.76c0.72,0.82,0.96,1.61,1.08,2.44c0.08,0.54,0.05,1.11,0.21,1.61c0.31,0.96-0.27,1.56-0.75,2.22
		c-0.1,0.14-0.24,0.19-0.39,0.13c-0.22-0.09-0.15-0.3-0.15-0.47C221.64,136.79,221.64,134.89,221.64,132.76z"/>
	<path class="st22" d="M230.55,141.55c-0.05,1.31,0.33,1.19-1.34,1.21c-0.41,0.01-0.67-0.04-0.71-0.56
		c-0.03-0.43-0.22-0.81,0.43-0.94c0.42-0.08,0.73-0.41,0.95-0.79c0.1-0.17,0.16-0.43,0.44-0.37c0.36,0.07,0.22,0.37,0.23,0.59
		C230.57,140.94,230.55,141.18,230.55,141.55z"/>
	<path class="st23" d="M221.64,141.37c0-0.06-0.01-0.12,0-0.18c0.07-0.36-0.23-0.88,0.21-1.04c0.45-0.16,0.41,0.49,0.7,0.67
		c0.22,0.15,0.42,0.39,0.66,0.44c0.69,0.13,0.47,0.59,0.46,1.01c-0.02,0.57-0.41,0.49-0.76,0.48
		C221.35,142.74,221.68,142.91,221.64,141.37z"/>
	<path class="st22" d="M226.09,138.81c0.26,0.58,0.47,1.04,0.68,1.5c0.09,0.2,0.35,0.45,0.04,0.61c-0.27,0.14-0.47,0.55-0.83,0.41
		c-0.29-0.12-0.6-0.33-0.75-0.58c-0.08-0.14,0.18-0.46,0.29-0.7C225.69,139.67,225.87,139.29,226.09,138.81z"/>
	<path class="st24" d="M225.65,145.39c-0.52-0.36-0.64-0.8-0.84-1.19c-0.08-0.15-0.2-0.35-0.07-0.5c0.15-0.18,0.39-0.1,0.6-0.09
		c0.28,0.02,0.32,0.22,0.32,0.45C225.65,144.45,225.65,144.84,225.65,145.39z"/>
	<path class="st25" d="M226.54,145.37c0-0.58-0.02-1,0-1.41c0.02-0.48,0.41-0.37,0.68-0.34c0.41,0.04,0.24,0.33,0.15,0.54
		C227.21,144.56,227.04,144.98,226.54,145.37z"/>
	<path class="st26" d="M226.99,142.76c-0.11-0.02-0.45,0.1-0.41-0.28c0.04-0.37,0.29-0.69,0.67-0.74c0.39-0.06,0.34,0.32,0.39,0.56
		C227.71,142.74,227.43,142.8,226.99,142.76z"/>
	<path class="st24" d="M225.13,142.76c-0.44,0.05-0.66-0.08-0.58-0.48c0.05-0.24-0.03-0.62,0.39-0.53c0.37,0.08,0.62,0.39,0.65,0.76
		C225.61,142.87,225.26,142.73,225.13,142.76z"/>
	<path class="st27" d="M312,132.41c-0.08,0.31-0.3,0.42-0.6,0.42c-0.25,0-0.39-0.1-0.4-0.36c-0.01-0.27,0.06-0.47,0.39-0.46
		C311.67,132.02,311.91,132.1,312,132.41z"/>
	<path class="st28" d="M311.02,131.13c0-0.3,0.2-0.31,0.42-0.29c0.19,0.02,0.36,0.12,0.36,0.31c-0.01,0.31-0.26,0.35-0.51,0.35
		C311.07,131.49,311,131.33,311.02,131.13z"/>
	<path class="st29" d="M287.75,138.41c0.24,0.02,0.51,0.02,0.53,0.34c0.02,0.31-0.21,0.39-0.47,0.42c-0.28,0.02-0.46-0.06-0.45-0.39
		C287.37,138.51,287.5,138.41,287.75,138.41z"/>
	<path class="st30" d="M287.98,137.22c-0.02,0,0.18,0.07,0.15,0.34c-0.02,0.26-0.23,0.32-0.45,0.32c-0.22,0-0.31-0.13-0.32-0.34
		C287.35,137.28,287.48,137.17,287.98,137.22z"/>
	<path class="st31" d="M281.57,138.14c-0.02,0.63-0.34,1-0.93,1c-0.6,0-0.92-0.39-0.91-0.99c0.01-0.56,0.32-0.91,0.88-0.93
		C281.22,137.2,281.53,137.57,281.57,138.14z"/>
	<path class="st32" d="M316.05,131.73c0,0.65-0.32,1.03-0.91,1.04c-0.59,0.01-0.94-0.36-0.93-0.97c0.01-0.55,0.29-0.92,0.86-0.94
		C315.68,130.83,315.99,131.18,316.05,131.73z"/>
	<path class="st33" d="M290.93,143.9c0.04,0.43,0.44,0.64,0.13,0.96c-0.07,0.07-0.37,0.05-0.42-0.02
		C290.45,144.53,290.66,144.28,290.93,143.9z"/>
	<path class="st33" d="M308.35,138.45c-1.09,0.23-0.57-0.37-0.42-0.8C308.28,137.82,308.26,138.15,308.35,138.45z"/>
	<path class="st34" d="M302.28,131.26c-0.04,0.35-0.28,0.42-0.52,0.44c-0.33,0.03-0.38-0.2-0.38-0.47c0-0.33,0.16-0.42,0.45-0.39
		C302.1,130.88,302.26,131.01,302.28,131.26z"/>
	<path class="st35" d="M288.25,144.05c-0.09,0.3-0.31,0.42-0.6,0.41c-0.38-0.01-0.28-0.3-0.3-0.51c-0.01-0.25,0.09-0.39,0.36-0.36
		C288,143.61,288.22,143.72,288.25,144.05z"/>
</g>
</svg>
