<svg width="48" height="48" viewBox="0 0 48 48" fill="none" xmlns="http://www.w3.org/2000/svg">
<path d="M46.5001 44.878H33.2856L26.5348 19.6839C27.2621 19.0197 27.7497 18.1339 27.9218 17.164L37.7884 15.1361L39.9973 25.8787C40.2083 25.8517 40.4203 25.8247 40.6333 25.7807C42.78 25.3703 44.6758 24.1242 45.904 22.3164C47.1322 20.5085 47.5923 18.287 47.183 16.1401L45.2201 6.59043C44.7494 4.45606 43.4504 2.59598 41.6086 1.41913C39.7668 0.242286 37.5331 -0.154983 35.3985 0.314665C35.1886 0.360175 34.9804 0.413544 34.7745 0.474659L36.9834 11.2183L26.7798 13.3152C26.2574 12.7499 25.5978 12.3292 24.8651 12.0936C24.1323 11.8581 23.3511 11.8158 22.5972 11.9707C21.8432 12.1257 21.1421 12.4728 20.5617 12.9783C19.9812 13.4838 19.5412 14.1306 19.2841 14.8561L7.8745 17.201C7.71478 16.7594 7.40446 16.3883 6.99812 16.1529C6.59179 15.9175 6.11546 15.8329 5.65291 15.914C5.19036 15.995 4.77122 16.2366 4.4692 16.5962C4.16718 16.9558 4.00162 17.4104 4.00165 17.88V38.8792H2.00172C1.73651 38.8792 1.48217 38.9846 1.29464 39.1721C1.10711 39.3596 1.00176 39.614 1.00176 39.8792V44.97C0.66783 45.0869 0.386132 45.3183 0.206692 45.6232C0.0272527 45.9281 -0.0383139 46.2868 0.0216371 46.6354C0.081588 46.9841 0.263176 47.3003 0.534152 47.5277C0.805128 47.7552 1.14795 47.8793 1.50174 47.8779H46.5001C46.8979 47.8779 47.2794 47.7199 47.5607 47.4386C47.842 47.1573 48 46.7757 48 46.3779C48 45.9801 47.842 45.5986 47.5607 45.3173C47.2794 45.036 46.8979 44.878 46.5001 44.878ZM21.11 28.8796H25.8918L27.4998 34.8794H19.5021L21.11 28.8796ZM18.4301 38.8792H28.5717L30.1797 44.879H16.8212L18.4301 38.8792ZM24.8199 24.8797H22.182L23.2599 20.8549C23.3409 20.8599 23.4179 20.8789 23.5009 20.8789C23.5839 20.8789 23.6609 20.8589 23.7419 20.8549L24.8199 24.8797ZM8.0015 21.2169C8.13654 21.217 8.27125 21.2033 8.40348 21.1759L19.7431 18.846C19.949 19.154 20.1921 19.4355 20.467 19.6839L13.7163 44.878H11.0014V39.8782C11.0014 39.613 10.896 39.3586 10.7085 39.1711C10.521 38.9836 10.2666 38.8782 10.0014 38.8782H8.0015V21.2169Z" fill="#011E41"/>
</svg>
