<svg width="48" height="48" viewBox="0 0 48 48" fill="none" xmlns="http://www.w3.org/2000/svg">
<path d="M28 20.6738V14.9998C28.265 14.999 28.5189 14.8934 28.7062 14.7061C28.8936 14.5187 28.9992 14.2648 29 13.9998V10.9998C28.9992 10.7349 28.8936 10.481 28.7062 10.2936C28.5189 10.1062 28.265 10.0006 28 9.99984H26V0.248837C26 0.0258373 25.638 -0.0841627 25.431 0.0758373L22.094 2.65984C22.0659 2.6796 22.0429 2.7056 22.0266 2.73579C22.0102 2.76598 22.0012 2.79954 22 2.83384V9.99984H20C19.735 10.0006 19.4811 10.1062 19.2938 10.2936C19.1064 10.481 19.0008 10.7349 19 10.9998V13.9998C19.0008 14.2648 19.1064 14.5187 19.2938 14.7061C19.4811 14.8934 19.735 14.999 20 14.9998V20.6738C18.2308 21.3745 16.7128 22.5906 15.643 24.1643C14.5731 25.7381 14.0007 27.5969 14 29.4998L14 45.9998C14 46.5303 14.2107 47.039 14.5858 47.4141C14.9609 47.7891 15.4696 47.9998 16 47.9998H32C32.5304 47.9998 33.0391 47.7891 33.4142 47.4141C33.7893 47.039 34 46.5303 34 45.9998V29.4998C33.9993 27.5969 33.4269 25.7381 32.357 24.1643C31.2872 22.5906 29.7692 21.3745 28 20.6738V20.6738Z" fill="#011E41"/>
</svg>
