<?xml version="1.0" encoding="utf-8"?>
<!-- Generator: Adobe Illustrator 25.2.1, SVG Export Plug-In . SVG Version: 6.00 Build 0)  -->
<svg version="1.1" id="Layer_1" xmlns="http://www.w3.org/2000/svg" xmlns:xlink="http://www.w3.org/1999/xlink" x="0px" y="0px"
	 viewBox="0 0 48 48" style="enable-background:new 0 0 48 48;" xml:space="preserve">
<style type="text/css">
	.st0{fill:#FEFEFE;}
	.st1{fill:#18545C;}
	.st2{fill:#19545C;}
	.st3{fill:#19555D;}
	.st4{fill:#1B565E;}
</style>
<g>
	<path class="st0" d="M23.94,38.03c-7.86,0-15.72,0-23.58,0.01C0.05,38.04,0,37.96,0,37.67c0.01-9.11,0.01-18.22,0-27.33
		c0-0.29,0.04-0.37,0.36-0.37c15.72,0.01,31.44,0.01,47.15,0c0.29,0,0.34,0.06,0.34,0.35c-0.01,9.11-0.01,18.22,0,27.33
		c0,0.31-0.05,0.39-0.38,0.39C39.63,38.02,31.79,38.03,23.94,38.03z"/>
	<path class="st1" d="M22.96,17.29c-0.77-0.74-1.6-0.93-2.51-0.59c-0.85,0.32-1.3,0.98-1.39,1.89c-0.15,1.49,1.26,2.68,2.84,2.38
		c0.29-0.05,0.58-0.13,0.84-0.26c0.13-0.06,0.22-0.07,0.22,0.11c0,1.15,0,2.29,0,3.48c-0.94-0.59-1.75-0.41-2.52,0.21
		c-0.68-0.76-1.51-0.77-2.57-0.02c-0.12-0.12,0.09-0.39-0.16-0.41c-0.32-0.03-0.65-0.08-0.96,0.04c-0.04,0.02-0.05,0.18-0.05,0.27
		c0,1.19,0.01,2.39-0.01,3.58c0,0.26,0.08,0.33,0.34,0.33c0.79,0.01,0.79,0.02,0.79-0.76c0-0.51,0-1.01,0-1.52
		c0-0.28,0.07-0.53,0.25-0.74c0.24-0.29,0.56-0.38,0.91-0.29c0.36,0.1,0.44,0.41,0.45,0.73c0.01,0.73,0.01,1.46,0,2.19
		c-0.01,0.28,0.05,0.39,0.36,0.39c0.76-0.01,0.76,0,0.76-0.74c0-0.53,0-1.07,0-1.6c0-0.3,0.09-0.56,0.31-0.76
		c0.26-0.24,0.56-0.31,0.9-0.19c0.32,0.12,0.38,0.4,0.38,0.69c0.01,0.73,0.02,1.46,0,2.19c-0.01,0.3,0.06,0.45,0.39,0.39
		c0.35-0.06,0.43,0.08,0.45,0.43c0.05,0.72-0.28,1.11-0.9,1.4c-1.64,0.77-3.35,0.88-5.12,0.62c-2.1-0.31-4.08-1.05-6.11-1.6
		c-0.72-0.19-1.44-0.38-2.18-0.47c-0.61-0.08-0.77,0.02-1.03,0.56c-0.88,1.85-1.75,3.7-2.64,5.54c-0.07,0.14-0.08,0.39-0.28,0.35
		c-0.14-0.03-0.12-0.26-0.14-0.41c-0.5-3.95-1.01-7.9-1.51-11.85c-0.34-2.67-0.68-5.34-1.02-8.01C2,14.39,2.23,14.12,2.61,13.92
		c1.51-0.82,3.14-1.04,4.82-0.87c2.07,0.21,4.02,0.92,5.99,1.51c1.66,0.5,3.32,0.96,5.07,0.97c1.38,0.01,2.67-0.3,3.89-0.96
		c0.42-0.23,0.56-0.15,0.56,0.33C22.97,15.67,22.96,16.44,22.96,17.29z"/>
	<path class="st1" d="M25.28,24.34c1.19-0.65,2.38-0.51,3.02,0.34c0.66,0.87,0.59,2.29-0.11,3.09c-0.56,0.64-1.83,1-2.91,0.16
		c0.1,0.48-0.2,0.4-0.46,0.4c-0.69,0-0.69,0-0.69-0.69c0-1.71,0.01-3.42-0.01-5.13c0-0.31,0.05-0.44,0.41-0.43
		c0.74,0.03,0.74,0,0.74,0.75C25.28,23.33,25.28,23.83,25.28,24.34z"/>
	<path class="st1" d="M32.63,27.97c-0.94,0.72-2.06,0.48-2.64-0.03c-0.76-0.67-1-1.83-0.56-2.77c0.41-0.89,1.32-1.36,2.33-1.21
		c0.2,0.03,0.38,0.11,0.56,0.19c0.13,0.06,0.2,0.29,0.39-0.04c0.12-0.2,0.66-0.1,1-0.03c0.21,0.04,0.1,0.32,0.1,0.48
		c0.01,1.14-0.01,2.27,0.01,3.41c0,0.3-0.09,0.4-0.38,0.37c-0.17-0.02-0.34-0.02-0.51,0C32.68,28.36,32.6,28.24,32.63,27.97z"/>
	<path class="st1" d="M25.29,17.1c0.53-0.44,1.05-0.62,1.66-0.56c0.7,0.07,1.16,0.47,1.24,1.16c0.11,1,0.03,2.02,0.05,3.02
		c0,0.08,0.01,0.19-0.11,0.19c-0.32,0.01-0.65,0.02-0.97,0c-0.15-0.01-0.09-0.18-0.09-0.28c-0.01-0.7,0-1.4,0-2.1
		c0-0.59-0.22-0.87-0.7-0.92c-0.5-0.05-0.91,0.23-1.01,0.75c-0.13,0.71-0.05,1.43-0.04,2.14c0,0.34-0.07,0.45-0.43,0.44
		c-0.73-0.03-0.74-0.01-0.74-0.72c0-1.07,0.01-2.13-0.01-3.2c0-0.28,0.06-0.42,0.37-0.38c0.12,0.02,0.25,0.02,0.38,0
		C25.17,16.6,25.37,16.67,25.29,17.1z"/>
	<path class="st1" d="M41.47,24.07c1.16-0.08,1.16-0.08,1.61,0.87c0.19,0.4,0.38,0.81,0.61,1.29c0.29-0.62,0.58-1.17,0.81-1.75
		c0.14-0.37,0.34-0.5,0.72-0.45c0.21,0.03,0.42,0,0.7,0c-0.34,0.71-0.67,1.38-1,2.05c-0.6,1.23-1.21,2.46-1.79,3.71
		c-0.16,0.35-0.37,0.52-0.76,0.46c-0.19-0.03-0.39-0.01-0.62-0.01c0.07-0.4,0.31-0.7,0.47-1.03c0.24-0.49,0.49-0.98,0.76-1.45
		c0.12-0.22,0.12-0.39,0.01-0.62C42.48,26.15,41.99,25.13,41.47,24.07z"/>
	<path class="st1" d="M38.39,26.91c0.42,0.26,0.81,0.48,1.29,0.43c0.19-0.02,0.38-0.04,0.42-0.27c0.04-0.23-0.12-0.33-0.29-0.41
		c-0.23-0.1-0.47-0.18-0.71-0.27c-0.6-0.25-0.9-0.7-0.85-1.26c0.04-0.56,0.45-1.01,1.07-1.15c0.05-0.01,0.11-0.02,0.17-0.02
		c1.22-0.18,1.54,0.09,1.5,1.32c-0.17,0.03-0.27-0.11-0.41-0.17c-0.26-0.12-0.52-0.22-0.81-0.19c-0.17,0.02-0.35,0.06-0.39,0.26
		c-0.05,0.2,0.11,0.31,0.26,0.39c0.2,0.1,0.41,0.17,0.62,0.25c0.8,0.29,1.05,0.64,1,1.39c-0.04,0.61-0.51,1.1-1.21,1.21
		c-0.58,0.09-1.15,0.02-1.69-0.24c-0.19-0.09-0.28-0.19-0.2-0.42C38.27,27.48,38.32,27.2,38.39,26.91z"/>
	<path class="st1" d="M37.36,25.32c-0.35-0.2-0.65-0.39-1.01-0.41c-0.22-0.02-0.49-0.02-0.58,0.23c-0.1,0.29,0.17,0.38,0.37,0.47
		c0.18,0.08,0.37,0.14,0.55,0.21c0.72,0.26,1.01,0.65,0.97,1.29c-0.04,0.65-0.46,1.12-1.15,1.27c-0.61,0.13-1.2,0.04-1.77-0.21
		c-0.2-0.09-0.27-0.2-0.19-0.42c0.09-0.26,0.14-0.53,0.21-0.83c0.42,0.26,0.8,0.48,1.28,0.43c0.19-0.02,0.38-0.06,0.43-0.26
		c0.06-0.23-0.12-0.33-0.28-0.41c-0.23-0.11-0.47-0.18-0.7-0.28c-0.63-0.26-0.92-0.71-0.86-1.29c0.06-0.59,0.49-1.02,1.12-1.14
		c0.03-0.01,0.06-0.01,0.08-0.01C37.08,23.76,37.4,24.04,37.36,25.32z"/>
	<path class="st2" d="M21.51,19.07c0.38,0,0.76,0,1.14,0c0.1,0,0.25-0.06,0.29,0.08c0.04,0.13,0.05,0.28-0.04,0.4
		c-0.49,0.72-2.21,0.66-2.64-0.09c-0.21-0.36-0.19-0.39,0.24-0.4C20.84,19.07,21.18,19.07,21.51,19.07z"/>
	<path class="st3" d="M20.17,18.31c0.18-0.59,0.52-0.89,1.02-0.91c0.43-0.02,0.82,0.21,1,0.57c0.11,0.23,0.11,0.35-0.21,0.35
		C21.38,18.3,20.8,18.31,20.17,18.31z"/>
	<path class="st0" d="M15.09,20.57c0,0.67-0.01,1.31,0,1.94c0.01,0.24-0.05,0.35-0.32,0.35c-0.81,0.01-0.81,0.02-0.81-0.78
		c0-1.67,0.01-3.34-0.01-5.01c0-0.32,0.09-0.43,0.4-0.39c0.11,0.02,0.23,0.01,0.34,0c0.26-0.03,0.45,0.03,0.39,0.42
		c0.53-0.45,1.08-0.61,1.69-0.52c0.49,0.07,0.9,0.3,1.23,0.67c0.69,0.8,0.72,2.23,0.05,3.04C17.39,21.11,16.3,21.22,15.09,20.57z"/>
	<path class="st0" d="M10.93,21.01c-1.3,0-2.32-0.96-2.34-2.2c-0.02-1.25,1.03-2.27,2.33-2.27c1.28,0,2.31,1,2.32,2.23
		C13.24,20.02,12.22,21.01,10.93,21.01z"/>
	<path class="st0" d="M15.6,26.89c0.08,0.34-0.02,0.65,0,0.95c0.01,0.09-0.06,0.15-0.14,0.19c-1.16,0.61-2.75,0.57-3.54-0.75
		c-0.51-0.85-0.4-1.94,0.27-2.65c0.68-0.72,1.79-0.91,2.67-0.46c0.7,0.36,1.19,1.32,1.08,2.09c-0.03,0.24-0.18,0.2-0.33,0.2
		c-0.87,0-1.74,0.02-2.62-0.01c-0.36-0.01-0.33,0.13-0.21,0.36c0.3,0.57,1.07,0.79,1.91,0.54C15.02,27.27,15.29,27.07,15.6,26.89z"
		/>
	<path class="st0" d="M26.42,27.34c-0.71,0-1.19-0.49-1.17-1.19c0.01-0.68,0.51-1.17,1.18-1.16c0.67,0,1.17,0.5,1.18,1.17
		C27.61,26.85,27.12,27.34,26.42,27.34z"/>
	<path class="st0" d="M31.5,27.34c-0.65-0.01-1.13-0.5-1.13-1.17c0-0.67,0.51-1.19,1.16-1.19c0.66,0,1.16,0.51,1.17,1.18
		C32.7,26.87,32.2,27.35,31.5,27.34z"/>
	<path class="st1" d="M17.43,18.76c0.01,0.73-0.47,1.23-1.2,1.22c-0.71,0-1.19-0.47-1.2-1.18c-0.01-0.73,0.48-1.23,1.2-1.23
		C16.94,17.57,17.43,18.06,17.43,18.76z"/>
	<path class="st1" d="M12.11,18.77c0,0.72-0.49,1.22-1.2,1.22c-0.69,0-1.19-0.5-1.19-1.19c0-0.71,0.51-1.23,1.21-1.22
		C11.6,17.58,12.11,18.08,12.11,18.77z"/>
	<path class="st4" d="M12.75,25.71c0.11-0.56,0.45-0.88,0.96-0.91c0.48-0.03,0.9,0.21,1.05,0.61c0.08,0.2,0.07,0.31-0.2,0.31
		C13.96,25.71,13.35,25.71,12.75,25.71z"/>
</g>
</svg>
