<svg width="48" height="48" viewBox="0 0 48 48" fill="none" xmlns="http://www.w3.org/2000/svg">
<g clip-path="url(#clip0_74_1614)">
<path d="M33 22.65V44H4.00001V20H20.09L29.09 11H2.20001C1.91088 10.9992 1.62444 11.0556 1.35717 11.1659C1.0899 11.2761 0.847054 11.4382 0.642608 11.6426C0.438161 11.8471 0.27614 12.0899 0.165861 12.3572C0.0555807 12.6244 -0.000783553 12.9109 8.22746e-06 13.2V45.8C-0.000783553 46.0891 0.0555807 46.3756 0.165861 46.6428C0.27614 46.9101 0.438161 47.153 0.642608 47.3574C0.847054 47.5619 1.0899 47.7239 1.35717 47.8342C1.62444 47.9444 1.91088 48.0008 2.20001 48H34.8C35.0891 48.0008 35.3756 47.9444 35.6428 47.8342C35.9101 47.7239 36.153 47.5619 36.3574 47.3574C36.5619 47.153 36.7239 46.9101 36.8342 46.6428C36.9444 46.3756 37.0008 46.0891 37 45.8V18.65L33 22.65ZM11.5 14C11.7967 14 12.0867 14.088 12.3334 14.2528C12.58 14.4176 12.7723 14.6519 12.8858 14.926C12.9994 15.2001 13.0291 15.5017 12.9712 15.7926C12.9133 16.0836 12.7704 16.3509 12.5607 16.5607C12.3509 16.7704 12.0836 16.9133 11.7926 16.9712C11.5017 17.0291 11.2001 16.9994 10.926 16.8858C10.6519 16.7723 10.4176 16.58 10.2528 16.3334C10.088 16.0867 10 15.7967 10 15.5C9.99975 15.303 10.0384 15.1078 10.1137 14.9257C10.1889 14.7436 10.2994 14.5781 10.4388 14.4388C10.5781 14.2994 10.7436 14.1889 10.9257 14.1137C11.1078 14.0384 11.303 13.9997 11.5 14V14ZM5.50001 14C5.79668 14 6.08669 14.088 6.33336 14.2528C6.58004 14.4176 6.7723 14.6519 6.88583 14.926C6.99936 15.2001 7.02906 15.5017 6.97119 15.7926C6.91331 16.0836 6.77045 16.3509 6.56067 16.5607C6.35089 16.7704 6.08362 16.9133 5.79264 16.9712C5.50167 17.0291 5.20007 16.9994 4.92598 16.8858C4.65189 16.7723 4.41763 16.58 4.2528 16.3334C4.08798 16.0867 4.00001 15.7967 4.00001 15.5C3.99974 15.303 4.03836 15.1078 4.11365 14.9257C4.18894 14.7436 4.29942 14.5781 4.43876 14.4388C4.5781 14.2994 4.74356 14.1889 4.92567 14.1137C5.10778 14.0384 5.30295 13.9997 5.50001 14V14Z" fill="#011E41"/>
<path d="M46.0005 0H25.0005C24.4701 0 23.9614 0.210714 23.5863 0.585786C23.2112 0.960859 23.0005 1.46957 23.0005 2C23.0005 2.53043 23.2112 3.03914 23.5863 3.41421C23.9614 3.78929 24.4701 4 25.0005 4H41.0305L18.5155 26.515C18.1217 26.9088 17.9004 27.443 17.9004 28C17.9004 28.557 18.1217 29.0912 18.5155 29.485C18.9093 29.8788 19.4435 30.1001 20.0005 30.1001C20.5575 30.1001 21.0917 29.8788 21.4855 29.485L44.0005 6.97V23C44.0005 23.5304 44.2112 24.0391 44.5863 24.4142C44.9614 24.7893 45.4701 25 46.0005 25C46.5309 25 47.0396 24.7893 47.4147 24.4142C47.7898 24.0391 48.0005 23.5304 48.0005 23V2C48.0005 1.46957 47.7898 0.960859 47.4147 0.585786C47.0396 0.210714 46.5309 0 46.0005 0V0Z" fill="#011E41"/>
</g>
<defs>
<clipPath id="clip0_74_1614">
<rect width="48" height="48" fill="white"/>
</clipPath>
</defs>
</svg>
