<svg width="48" height="48" viewBox="0 0 48 48" fill="none" xmlns="http://www.w3.org/2000/svg">
<path d="M10.0486 28.4664L11.9362 26.5789C12.2329 26.2778 12.4266 25.8905 12.4894 25.4725C12.541 25.1347 12.5122 24.7894 12.4053 24.4649C12.2984 24.1403 12.1163 23.8455 11.874 23.6046C11.586 23.3186 11.2253 23.1168 10.8309 23.0208C10.4913 22.9345 10.1352 22.9372 9.79696 23.0285C9.45869 23.1199 9.14967 23.2969 8.89969 23.5424L6.02031 26.4228L3.71485 28.7283C3.3301 29.1315 3.12064 29.6706 3.1323 30.2277C3.14395 30.7849 3.37577 31.3148 3.77704 31.7015C4.18608 32.1132 4.74168 32.3459 5.32202 32.3485C5.85653 32.3487 6.36975 32.1391 6.75134 31.7648L10.0486 28.4675V28.4664Z" fill="#011E41"/>
<path d="M24.594 11.6156L24.3016 11.908L20.3158 15.8938L20.1696 16.04L18.6148 17.5839C18.227 17.9705 17.7664 18.2766 17.2596 18.4845C16.7529 18.6924 16.2101 18.7979 15.6624 18.795C15.5369 18.795 15.4114 18.784 15.2859 18.7731C15.2445 18.7731 15.1921 18.7633 15.1506 18.7633C14.3736 18.6714 13.6382 18.3622 13.0289 17.8712C12.4196 17.3802 11.9612 16.7273 11.7062 15.9875C11.4512 15.2477 11.41 14.451 11.5873 13.6889C11.7647 12.9268 12.1534 12.2301 12.7088 11.6789L21.588 2.80947C21.8073 2.59126 22.0376 2.37086 22.2667 2.17337C19.2188 0.296869 15.588 -0.395269 12.0634 0.228332C8.53892 0.851934 5.36602 2.74787 3.147 5.55626C0.927988 8.36466 -0.182689 11.89 0.0257933 15.4632C0.234276 19.0364 1.74741 22.4087 4.27797 24.9399L4.40345 25.0654L7.41921 22.0497C7.80155 21.6686 8.25574 21.3673 8.75545 21.1631C9.25516 20.959 9.79044 20.8561 10.3302 20.8604C11.0693 20.8566 11.7963 21.0474 12.4382 21.4136C12.7778 21.6029 13.0898 21.8378 13.3656 22.1119C13.9037 22.653 14.2892 23.3268 14.4829 24.0649C14.5643 24.3891 14.6097 24.7214 14.6182 25.0556C14.6332 25.4501 14.5838 25.8444 14.472 26.2231C14.8212 26.1223 15.1833 26.0734 15.5467 26.078C16.6687 26.0749 17.747 26.5128 18.5491 27.2974C19.3512 28.0819 19.8129 29.1503 19.8347 30.2721C19.8502 30.6669 19.8011 31.0616 19.6895 31.4406C20.0387 31.3395 20.4008 31.2902 20.7643 31.2944C21.8865 31.2914 22.9649 31.7295 23.7671 32.5143C24.5692 33.299 25.0308 34.3677 25.0522 35.4897C25.0672 35.8842 25.0179 36.2785 24.906 36.6571C25.2552 36.5564 25.6173 36.5075 25.9807 36.512C27.1028 36.5089 28.181 36.9469 28.9832 37.7314C29.7853 38.516 30.247 39.5843 30.2687 40.7061C30.2891 41.3391 30.1609 41.968 29.8945 42.5424C30.2753 42.699 30.6829 42.7805 31.0947 42.7825C31.6398 42.7819 32.1753 42.639 32.6483 42.3679C33.1213 42.0968 33.5153 41.707 33.7913 41.2369C34.0674 40.7669 34.216 40.2329 34.2224 39.6878C34.2288 39.1427 34.0928 38.6054 33.8278 38.129C34.4272 38.5036 35.136 38.6638 35.8382 38.5834C36.5404 38.503 37.1946 38.1867 37.6938 37.6863C38.193 37.1858 38.5076 36.5309 38.5862 35.8284C38.6649 35.126 38.5029 34.4176 38.1267 33.8192C38.59 34.086 39.1152 34.2267 39.6499 34.2273C40.2688 34.227 40.8737 34.0432 41.3882 33.6992C41.9027 33.3552 42.3037 32.8665 42.5405 32.2947C42.7773 31.7229 42.8393 31.0937 42.7186 30.4867C42.598 29.8796 42.3001 29.322 41.8626 28.8842L24.594 11.6156Z" fill="#011E41"/>
<path d="M25.9821 38.609C25.8733 38.6092 25.7648 38.6198 25.658 38.6407C25.2407 38.7057 24.854 38.8991 24.5516 39.1939L19.3668 44.3787C18.9817 44.7819 18.7721 45.3212 18.7837 45.8787C18.7954 46.4361 19.0274 46.9662 19.429 47.353C19.8378 47.7644 20.3929 47.9971 20.9729 48C21.5075 47.9999 22.0208 47.7899 22.4022 47.4152L27.5881 42.2293C27.8846 41.9285 28.0782 41.5416 28.1413 41.124C28.1871 40.813 28.1656 40.4958 28.0781 40.1939C27.9907 39.8919 27.8395 39.6123 27.6347 39.3738C27.4299 39.1354 27.1762 38.9437 26.8909 38.8118C26.6056 38.6798 26.2953 38.6107 25.981 38.609H25.9821ZM17.7062 30.6899C17.7519 30.379 17.7304 30.0619 17.6431 29.7601C17.5558 29.4582 17.4046 29.1786 17.1999 28.9402C16.9952 28.7018 16.7417 28.5101 16.4565 28.3781C16.1714 28.246 15.8612 28.1768 15.5469 28.175C15.4385 28.1752 15.3304 28.1858 15.224 28.2066C14.8067 28.2717 14.42 28.465 14.1176 28.7598L8.93167 33.9436C8.54672 34.3469 8.33725 34.8863 8.34911 35.4438C8.36097 36.0012 8.5932 36.5312 8.99495 36.9178C9.40372 37.3293 9.95888 37.5619 10.5388 37.5649C11.0735 37.5647 11.5867 37.3547 11.9682 36.98L17.1541 31.7941C17.4506 31.4933 17.6442 31.1064 17.7073 30.6888L17.7062 30.6899ZM22.9237 35.9075C22.9697 35.5965 22.9483 35.2793 22.861 34.9773C22.7738 34.6753 22.6227 34.3956 22.4179 34.157C22.2132 33.9185 21.9597 33.7267 21.6744 33.5946C21.3891 33.4625 21.0788 33.3932 20.7645 33.3915C20.656 33.392 20.5479 33.403 20.4415 33.4242C20.0244 33.4889 19.6377 33.6819 19.3352 33.9763L14.1492 39.1622C13.7645 39.5654 13.555 40.1045 13.5667 40.6617C13.5783 41.2188 13.8102 41.7487 14.2114 42.1354C14.6205 42.5471 15.1761 42.7798 15.7564 42.7824C16.2909 42.7826 16.8041 42.573 17.1857 42.1987L22.3717 37.0128C22.668 36.7116 22.8613 36.3243 22.9237 35.9064V35.9075ZM43.7198 4.28023C41.1365 1.69458 37.6772 0.17211 34.0256 0.0137236C30.3741 -0.144663 26.7959 1.07256 23.9985 3.42482C23.6755 3.6965 23.3624 3.978 23.0601 4.28023L14.1907 13.1507C13.8002 13.5426 13.5809 14.0732 13.5809 14.6264C13.5809 15.1796 13.8002 15.7103 14.1907 16.1021C14.5843 16.4898 15.1145 16.7071 15.6669 16.7071C16.2194 16.7071 16.7496 16.4898 17.1432 16.1021L24.8342 8.41217L27.4845 11.0635L42.4673 26.0463C42.9065 25.7029 43.3248 25.3334 43.7198 24.9399C45.0769 23.5837 46.1534 21.9733 46.8879 20.2009C47.6224 18.4285 48.0004 16.5287 48.0004 14.6101C48.0004 12.6915 47.6224 10.7917 46.8879 9.01925C46.1534 7.24681 45.0769 5.63647 43.7198 4.28023V4.28023Z" fill="#011E41"/>
</svg>
