<svg width="48" height="48" viewBox="0 0 48 48" fill="none" xmlns="http://www.w3.org/2000/svg">
<path d="M47.1385 6.86898L43.1393 2.8698C42.8608 2.59126 42.5302 2.37031 42.1664 2.21955C41.8025 2.0688 41.4126 1.99121 41.0187 1.99121C40.6249 1.99121 40.2349 2.0688 39.871 2.21955C39.5072 2.37031 39.1766 2.59126 38.8981 2.8698L14.6441 27.1228C12.5235 26.0157 10.0766 25.7045 7.74646 26.2457C5.41628 26.7868 3.3569 28.1444 1.94123 30.0727C0.525555 32.001 -0.152815 34.3725 0.0289567 36.7578C0.210729 39.1431 1.24063 41.3844 2.93215 43.0759C4.62368 44.7675 6.86501 45.7974 9.25027 45.9791C11.6355 46.1609 14.007 45.4825 15.9354 44.0669C17.8637 42.6512 19.2213 40.5918 19.7624 38.2616C20.3035 35.9314 19.9924 33.4845 18.8852 31.364L33.5103 16.739L35.3899 18.6176C35.9566 19.1585 36.7125 19.4562 37.4959 19.447C38.2793 19.4378 39.028 19.1225 39.5819 18.5685C40.1358 18.0144 40.4509 17.2657 40.4599 16.4823C40.4689 15.6989 40.171 14.9431 39.63 14.3764L37.7514 12.4968L41.0187 9.2325L42.8973 11.1121C43.4614 11.667 44.2219 11.9765 45.0132 11.9731C45.8044 11.9698 46.5623 11.654 47.1218 11.0944C47.6812 10.5348 47.9968 9.77689 48 8.98564C48.0031 8.19439 47.6934 7.43396 47.1385 6.86998V6.86898ZM10.0251 39.9832C9.2341 39.9832 8.4609 39.7486 7.80324 39.3092C7.14558 38.8698 6.63299 38.2452 6.3303 37.5144C6.02761 36.7837 5.94842 35.9796 6.10273 35.2038C6.25704 34.4281 6.63792 33.7155 7.19722 33.1562C7.75651 32.5969 8.4691 32.216 9.24486 32.0617C10.0206 31.9074 10.8247 31.9866 11.5555 32.2893C12.2862 32.5919 12.9108 33.1045 13.3503 33.7622C13.7897 34.4199 14.0242 35.1931 14.0242 35.984C14.0229 37.0443 13.6012 38.0607 12.8514 38.8104C12.1017 39.5601 11.0853 39.9819 10.0251 39.9832V39.9832Z" fill="#011E41"/>
</svg>
