<svg width="48" height="48" viewBox="0 0 48 48" fill="none" xmlns="http://www.w3.org/2000/svg">
<path d="M24 2.23222e-07C19.2533 2.23222e-07 14.6131 1.40758 10.6663 4.04473C6.71954 6.68188 3.6434 10.4302 1.8269 14.8156C0.0103989 19.201 -0.464881 24.0266 0.461164 28.6822C1.38721 33.3377 3.67299 37.6141 7.02945 40.9706C10.3859 44.327 14.6623 46.6128 19.3178 47.5388C23.9734 48.4649 28.799 47.9896 33.1844 46.1731C37.5698 44.3566 41.3181 41.2805 43.9553 37.3337C46.5924 33.3869 48 28.7467 48 24C48.0004 20.8481 47.3799 17.7271 46.174 14.8151C44.968 11.9031 43.2002 9.25717 40.9715 7.02848C38.7428 4.79979 36.0969 3.03198 33.1849 1.82602C30.2729 0.620055 27.1518 -0.000429662 24 2.23222e-07V2.23222e-07ZM20.7273 33.6491C20.7273 33.8145 20.6947 33.9784 20.6314 34.1313C20.568 34.2841 20.4752 34.423 20.3582 34.54C20.2412 34.657 20.1023 34.7498 19.9495 34.8132C19.7966 34.8765 19.6327 34.9091 19.4673 34.9091H17.6236C17.2895 34.9091 16.969 34.7763 16.7327 34.54C16.4964 34.3037 16.3636 33.9833 16.3636 33.6491V14.3509C16.3636 14.0167 16.4964 13.6962 16.7327 13.46C16.969 13.2237 17.2895 13.0909 17.6236 13.0909H19.4673C19.8014 13.0909 20.1219 13.2237 20.3582 13.46C20.5945 13.6962 20.7273 14.0167 20.7273 14.3509V33.6491ZM31.6364 33.6491C31.6364 33.9833 31.5036 34.3037 31.2673 34.54C31.031 34.7763 30.7105 34.9091 30.3764 34.9091H28.5327C28.1986 34.9091 27.8781 34.7763 27.6418 34.54C27.4055 34.3037 27.2727 33.9833 27.2727 33.6491V14.3509C27.2727 14.1854 27.3053 14.0216 27.3686 13.8687C27.432 13.7159 27.5248 13.577 27.6418 13.46C27.7588 13.3429 27.8977 13.2501 28.0505 13.1868C28.2034 13.1235 28.3673 13.0909 28.5327 13.0909H30.3764C30.7105 13.0909 31.031 13.2237 31.2673 13.46C31.5036 13.6962 31.6364 14.0167 31.6364 14.3509V33.6491Z" fill="#011E41"/>
</svg>
