<svg width="48" height="48" viewBox="0 0 48 48" fill="none" xmlns="http://www.w3.org/2000/svg">
<path d="M40.3636 7.57135V6.5459L48 14.1823H41.2145C40.989 14.182 40.7727 14.0922 40.6132 13.9327C40.4537 13.7732 40.3639 13.5569 40.3636 13.3314V7.57135ZM48 16.3641V39.2732C48 39.8518 47.7701 40.4068 47.3609 40.8159C46.9518 41.2251 46.3968 41.455 45.8182 41.455H2.18182C1.60317 41.455 1.04823 41.2251 0.639059 40.8159C0.229892 40.4068 1.73587e-05 39.8518 0 39.2732V8.72772C0 8.14906 0.22987 7.59411 0.63904 7.18494C1.04821 6.77577 1.60316 6.5459 2.18182 6.5459H38.1818V13.3311C38.1827 14.1352 38.5025 14.9062 39.0711 15.4748C39.6397 16.0434 40.4107 16.3632 41.2148 16.3641H48ZM18.5455 22.9095C18.5445 22.0418 18.1994 21.21 17.5858 20.5964C16.9723 19.9829 16.1404 19.6378 15.2727 19.6368H12C11.8567 19.6368 11.7149 19.665 11.5825 19.7198C11.4501 19.7746 11.3298 19.8549 11.2285 19.9562C11.1272 20.0576 11.0469 20.1778 10.9921 20.3102C10.9372 20.4426 10.9091 20.5844 10.9091 20.7277V31.6368C10.9091 31.9261 11.024 32.2036 11.2286 32.4082C11.4332 32.6128 11.7107 32.7277 12 32.7277C12.2893 32.7277 12.5668 32.6128 12.7714 32.4082C12.976 32.2036 13.0909 31.9261 13.0909 31.6368V27.2732H15.2727C16.1404 27.2722 16.9723 26.9271 17.5858 26.3136C18.1994 25.7 18.5445 24.8681 18.5455 24.0004V22.9095ZM28.3636 22.9095C28.3627 22.0418 28.0176 21.21 27.404 20.5964C26.7905 19.9829 25.9586 19.6378 25.0909 19.6368H21.8182C21.6749 19.6368 21.533 19.665 21.4007 19.7198C21.2683 19.7746 21.148 19.8549 21.0467 19.9562C20.9454 20.0576 20.865 20.1778 20.8102 20.3102C20.7554 20.4426 20.7272 20.5844 20.7273 20.7277V31.6368C20.7272 31.7801 20.7554 31.922 20.8102 32.0543C20.865 32.1867 20.9454 32.307 21.0467 32.4083C21.148 32.5096 21.2683 32.5899 21.4007 32.6448C21.533 32.6996 21.6749 32.7278 21.8182 32.7277H25.0909C25.9586 32.7268 26.7905 32.3817 27.404 31.7681C28.0176 31.1546 28.3627 30.3227 28.3636 29.455V22.9095ZM38.1818 20.7277C38.1819 20.5844 38.1537 20.4426 38.0989 20.3102C38.044 20.1778 37.9637 20.0576 37.8624 19.9562C37.7611 19.8549 37.6408 19.7746 37.5084 19.7198C37.3761 19.665 37.2342 19.6368 37.0909 19.6368H31.6364C31.4931 19.6368 31.3512 19.665 31.2188 19.7198C31.0865 19.7746 30.9662 19.8549 30.8649 19.9562C30.7636 20.0576 30.6832 20.1778 30.6284 20.3102C30.5736 20.4426 30.5454 20.5844 30.5455 20.7277V31.6368C30.5455 31.9261 30.6604 32.2036 30.865 32.4082C31.0696 32.6128 31.347 32.7277 31.6364 32.7277C31.9257 32.7277 32.2032 32.6128 32.4078 32.4082C32.6123 32.2036 32.7273 31.9261 32.7273 31.6368V27.2732H34.9091C35.1984 27.2732 35.4759 27.1582 35.6805 26.9537C35.8851 26.7491 36 26.4716 36 26.1823C36 25.8929 35.8851 25.6155 35.6805 25.4109C35.4759 25.2063 35.1984 25.0914 34.9091 25.0914H32.7273V21.8186H37.0909C37.2342 21.8187 37.3761 21.7905 37.5084 21.7357C37.6408 21.6809 37.7611 21.6005 37.8624 21.4992C37.9637 21.3979 38.044 21.2776 38.0989 21.1452C38.1537 21.0129 38.1819 20.871 38.1818 20.7277ZM25.0909 21.8186H22.9091V30.5459H25.0909C25.3801 30.5456 25.6575 30.4306 25.862 30.2261C26.0665 30.0215 26.1815 29.7442 26.1818 29.455V22.9095C26.1815 22.6203 26.0665 22.343 25.862 22.1385C25.6575 21.9339 25.3801 21.8189 25.0909 21.8186ZM15.2727 21.8186H13.0909V25.0914H15.2727C15.562 25.0911 15.8393 24.976 16.0438 24.7715C16.2483 24.567 16.3633 24.2897 16.3636 24.0004V22.9095C16.3633 22.6203 16.2483 22.343 16.0438 22.1385C15.8393 21.9339 15.562 21.8189 15.2727 21.8186Z" fill="#011E41"/>
</svg>
