<svg width="48" height="48" viewBox="0 0 48 48" fill="none" xmlns="http://www.w3.org/2000/svg">
<path d="M45.5 23.4972H42.98C42.3253 18.0457 39.6159 13.0491 35.4043 9.52626C31.1927 6.0034 25.796 4.21953 20.3145 4.53837C14.833 4.85721 9.67957 7.25474 5.90482 11.2421C2.13006 15.2295 0.0182626 20.5065 1.25074e-07 25.9972L1.25074e-07 31.4972C-0.000131255 32.0226 0.103242 32.5428 0.304214 33.0281C0.505187 33.5135 0.79982 33.9545 1.17128 34.326C1.54274 34.6974 1.98375 34.9921 2.46911 35.193C2.95447 35.394 3.47468 35.4974 4 35.4972H21.01L29.01 43.4972H36.5C36.8978 43.4972 37.2794 43.3392 37.5607 43.0579C37.842 42.7766 38 42.3951 38 41.9972C38 41.5994 37.842 41.2179 37.5607 40.9366C37.2794 40.6553 36.8978 40.4972 36.5 40.4972H32V28.4972H45.5C46.163 28.4972 46.7989 28.2339 47.2678 27.765C47.7366 27.2962 48 26.6603 48 25.9972C48 25.3342 47.7366 24.6983 47.2678 24.2295C46.7989 23.7606 46.163 23.4972 45.5 23.4972V23.4972ZM19.98 20.9972C19.98 21.4569 19.8895 21.912 19.7136 22.3366C19.5377 22.7613 19.2799 23.1471 18.9549 23.4721C18.6299 23.7971 18.244 24.0549 17.8194 24.2308C17.3948 24.4067 16.9396 24.4972 16.48 24.4972C16.0204 24.4972 15.5652 24.4067 15.1406 24.2308C14.716 24.0549 14.3301 23.7971 14.0051 23.4721C13.6801 23.1471 13.4223 22.7613 13.2464 22.3366C13.0705 21.912 12.98 21.4569 12.98 20.9972V13.4972C12.98 13.232 13.0854 12.9777 13.2729 12.7901C13.4604 12.6026 13.7148 12.4972 13.98 12.4972C14.2452 12.4972 14.4996 12.6026 14.6871 12.7901C14.8746 12.9777 14.98 13.232 14.98 13.4972V20.9972C14.98 21.3951 15.138 21.7766 15.4193 22.0579C15.7006 22.3392 16.0822 22.4972 16.48 22.4972C16.8778 22.4972 17.2594 22.3392 17.5407 22.0579C17.822 21.7766 17.98 21.3951 17.98 20.9972V13.4972C17.98 13.232 18.0854 12.9777 18.2729 12.7901C18.4604 12.6026 18.7148 12.4972 18.98 12.4972C19.2452 12.4972 19.4996 12.6026 19.6871 12.7901C19.8746 12.9777 19.98 13.232 19.98 13.4972V20.9972ZM23.98 23.4972C23.98 23.7625 23.8746 24.0168 23.6871 24.2044C23.4996 24.3919 23.2452 24.4972 22.98 24.4972C22.7148 24.4972 22.4604 24.3919 22.2729 24.2044C22.0854 24.0168 21.98 23.7625 21.98 23.4972V13.4972C21.9813 13.2733 22.0578 13.0563 22.1971 12.881C22.3364 12.7057 22.5305 12.5822 22.7484 12.5304C22.9662 12.4785 23.1951 12.5013 23.3985 12.595C23.6019 12.6887 23.7679 12.848 23.87 13.0472L26.98 19.2572V13.4972C26.98 13.232 27.0854 12.9777 27.2729 12.7901C27.4604 12.6026 27.7148 12.4972 27.98 12.4972C28.2452 12.4972 28.4996 12.6026 28.6871 12.7901C28.8746 12.9777 28.98 13.232 28.98 13.4972V23.4972C28.9802 23.7222 28.9041 23.9405 28.7643 24.1166C28.6245 24.2928 28.4291 24.4164 28.21 24.4672C28.1349 24.4871 28.0576 24.4971 27.98 24.4972C27.7953 24.4967 27.6144 24.445 27.4573 24.3479C27.3002 24.2508 27.1731 24.1122 27.09 23.9472L23.98 17.7372V23.4972ZM29 37.5072L24 32.5072L28 28.4972H29V37.5072Z" fill="#011E41"/>
</svg>
