<svg width="48" height="48" viewBox="0 0 48 48" fill="none" xmlns="http://www.w3.org/2000/svg">
<g clip-path="url(#clip0_74_1011)">
<path d="M38.001 31.0255C36.2845 30.9766 34.5847 31.3742 33.0681 32.1795C31.5514 32.9848 30.2699 34.1702 29.349 35.6195C28.7239 34.7925 27.9156 34.1218 26.9875 33.66C26.0594 33.1982 25.0369 32.9579 24.0002 32.958C22.9636 32.958 21.9411 33.1985 21.0131 33.6605C20.0851 34.1225 19.2769 34.7934 18.652 35.6205C17.7311 34.1708 16.4495 32.9852 14.9326 32.1797C13.4158 31.3742 11.7157 30.9765 9.99898 31.0255C4.29898 31.0255 0.000976562 35.0895 0.000976562 40.4795C0.000976563 40.8773 0.159012 41.2589 0.440316 41.5402C0.721621 41.8215 1.10315 41.9795 1.50098 41.9795C1.8988 41.9795 2.28033 41.8215 2.56164 41.5402C2.84294 41.2589 3.00098 40.8773 3.00098 40.4795C2.99415 39.4028 3.26704 38.3428 3.79292 37.4032C4.3188 36.4637 5.07965 35.6767 6.00098 35.1195V43.9995C6.00098 45.0604 6.4224 46.0778 7.17255 46.828C7.92269 47.5781 8.94011 47.9995 10.001 47.9995C11.0618 47.9995 12.0793 47.5781 12.8294 46.828C13.5795 46.0778 14.001 45.0604 14.001 43.9995V35.1205C14.9215 35.6779 15.6815 36.4647 16.2068 37.4039C16.7322 38.343 17.0048 39.4024 16.998 40.4785C16.998 40.8763 17.156 41.2579 17.4373 41.5392C17.7186 41.8205 18.1002 41.9785 18.498 41.9785C18.8958 41.9785 19.2773 41.8205 19.5586 41.5392C19.8399 41.2579 19.998 40.8763 19.998 40.4785L19.996 40.4525L19.998 40.4395C19.9943 39.3759 20.3475 38.3418 21.001 37.5025V40.9995C21.001 41.7949 21.3169 42.5577 21.8794 43.1201C22.4418 43.6826 23.2046 43.9985 24 43.9985C24.7954 43.9985 25.5582 43.6826 26.1206 43.1201C26.683 42.5577 26.999 41.7949 26.999 40.9995V37.4995C27.6535 38.3391 28.0074 39.374 28.004 40.4385L28.002 40.4775C28.002 40.8754 28.16 41.2569 28.4413 41.5382C28.7226 41.8195 29.1042 41.9775 29.502 41.9775C29.8998 41.9775 30.2813 41.8195 30.5626 41.5382C30.8439 41.2569 31.002 40.8754 31.002 40.4775C30.9966 39.2841 31.3327 38.114 31.9705 37.1053C32.6084 36.0966 33.5215 35.2913 34.602 34.7845L33.068 41.9995C32.9233 42.7287 32.9423 43.4808 33.1236 44.2017C33.3049 44.9227 33.6439 45.5944 34.1162 46.1684C34.5885 46.7424 35.1824 47.2044 35.8549 47.5211C36.5274 47.8378 37.2618 48.0013 38.0052 47.9998C38.7485 47.9983 39.4823 47.8318 40.1535 47.5124C40.8247 47.193 41.4167 46.7285 41.8867 46.1526C42.3566 45.5767 42.6929 44.9036 42.8713 44.182C43.0496 43.4603 43.0656 42.7081 42.918 41.9795L41.399 34.7855C42.4794 35.2924 43.3924 36.0977 44.0303 37.1064C44.6681 38.1151 45.0042 39.2851 44.999 40.4785C44.999 40.8763 45.157 41.2579 45.4383 41.5392C45.7196 41.8205 46.1012 41.9785 46.499 41.9785C46.8968 41.9785 47.2783 41.8205 47.5596 41.5392C47.8409 41.2579 47.999 40.8763 47.999 40.4785C47.999 35.0895 43.701 31.0255 38.001 31.0255V31.0255Z" fill="#011E41"/>
<path d="M38.001 29C39.6578 29 41.001 27.6569 41.001 26C41.001 24.3431 39.6578 23 38.001 23C36.3441 23 35.001 24.3431 35.001 26C35.001 27.6569 36.3441 29 38.001 29Z" fill="#011E41"/>
<path d="M10 29C11.6569 29 13 27.6569 13 26C13 24.3431 11.6569 23 10 23C8.34315 23 7 24.3431 7 26C7 27.6569 8.34315 29 10 29Z" fill="#011E41"/>
<path d="M24.0005 31C24.4959 30.9998 24.9801 30.8527 25.392 30.5773C25.8038 30.302 26.1247 29.9107 26.3141 29.4529C26.5036 28.9952 26.553 28.4915 26.4563 28.0057C26.3595 27.5198 26.1208 27.0736 25.7705 26.7233C25.4201 26.3731 24.9738 26.1346 24.4879 26.0381C24.002 25.9415 23.4983 25.9912 23.0407 26.1808C22.583 26.3704 22.1918 26.6915 21.9166 27.1034C21.6414 27.5153 21.4945 27.9996 21.4945 28.495C21.4945 29.1594 21.7584 29.7965 22.2282 30.2663C22.698 30.7361 23.3352 31 23.9995 31H24.0005ZM14.4255 15.56C14.7063 15.841 15.0872 15.9991 15.4844 15.9997C15.8817 16.0002 16.2629 15.8432 16.5445 15.563L20.5575 11.563C20.6971 11.4239 20.8078 11.2587 20.8835 11.0769C20.9592 10.895 20.9983 10.7 20.9987 10.503C20.999 10.306 20.9605 10.1108 20.8854 9.92871C20.8103 9.74658 20.7001 9.58103 20.561 9.4415C20.422 9.30197 20.2568 9.1912 20.0749 9.11551C19.893 9.03982 19.698 9.0007 19.501 9.00037C19.304 9.00005 19.1089 9.03853 18.9267 9.11362C18.7446 9.1887 18.5791 9.29893 18.4395 9.438L16.9985 11V1.5C16.9985 1.10218 16.8405 0.720644 16.5592 0.43934C16.2779 0.158035 15.8964 0 15.4985 0C15.1007 0 14.7192 0.158035 14.4379 0.43934C14.1566 0.720644 13.9985 1.10218 13.9985 1.5L14.0005 11L12.5595 9.44C12.4202 9.30061 12.2548 9.19003 12.0728 9.11459C11.8907 9.03915 11.6956 9.00032 11.4985 9.00032C11.3015 9.00032 11.1063 9.03915 10.9243 9.11459C10.7422 9.19003 10.5768 9.30061 10.4375 9.44C10.156 9.72376 9.99805 10.1073 9.99805 10.507C9.99805 10.9067 10.156 11.2902 10.4375 11.574L14.4255 15.56ZM31.4255 15.56C31.7063 15.841 32.0872 15.9991 32.4844 15.9997C32.8817 16.0002 33.2629 15.8432 33.5445 15.563L37.5575 11.563C37.6971 11.4239 37.8078 11.2587 37.8835 11.0769C37.9592 10.895 37.9983 10.7 37.9987 10.503C37.999 10.306 37.9605 10.1108 37.8854 9.92871C37.8103 9.74658 37.7001 9.58103 37.561 9.4415C37.422 9.30197 37.2568 9.1912 37.0749 9.11551C36.893 9.03982 36.698 9.0007 36.501 9.00037C36.304 9.00005 36.1089 9.03853 35.9267 9.11362C35.7446 9.1887 35.5791 9.29893 35.4395 9.438L33.9985 11V1.5C33.9985 1.10218 33.8405 0.720644 33.5592 0.43934C33.2779 0.158035 32.8964 0 32.4985 0C32.1007 0 31.7192 0.158035 31.4379 0.43934C31.1566 0.720644 30.9985 1.10218 30.9985 1.5V11L29.5585 9.44C29.2773 9.1591 28.896 9.00132 28.4985 9.00132C28.101 9.00132 27.7198 9.1591 27.4385 9.44C27.157 9.72376 26.999 10.1073 26.999 10.507C26.999 10.9067 27.157 11.2902 27.4385 11.574L31.4255 15.56Z" fill="#011E41"/>
</g>
<defs>
<clipPath id="clip0_74_1011">
<rect width="48" height="48" fill="white"/>
</clipPath>
</defs>
</svg>
