<svg width="48" height="48" viewBox="0 0 48 48" fill="none" xmlns="http://www.w3.org/2000/svg">
<g clip-path="url(#clip0_74_1004)">
<path d="M1.50195 25.9786C1.89978 25.9786 2.28131 25.8205 2.56261 25.5392C2.84392 25.2579 3.00195 24.8764 3.00195 24.4786C2.99513 23.4018 3.26802 22.3418 3.7939 21.4023C4.31977 20.4627 5.08062 19.6758 6.00195 19.1186V27.9996C6.00195 29.0604 6.42338 30.0778 7.17353 30.828C7.92367 31.5781 8.94109 31.9996 10.002 31.9996C11.0628 31.9996 12.0802 31.5781 12.8304 30.828C13.5805 30.0778 14.002 29.0604 14.002 27.9996V19.1206C14.9222 19.6781 15.6821 20.4649 16.2073 21.4041C16.7324 22.3432 17.0048 23.4026 16.998 24.4786C16.998 24.8764 17.156 25.2579 17.4373 25.5392C17.7186 25.8205 18.1001 25.9786 18.498 25.9786C18.8958 25.9786 19.2773 25.8205 19.5586 25.5392C19.8399 25.2579 19.998 24.8764 19.998 24.4786L19.997 24.4526L19.998 24.4396C19.9949 23.3757 20.3488 22.3415 21.003 21.5026V24.9996C21.0173 25.7853 21.3395 26.5341 21.9003 27.0847C22.4611 27.6353 23.2156 27.9438 24.0015 27.9438C24.7874 27.9438 25.5418 27.6353 26.1026 27.0847C26.6634 26.5341 26.9856 25.7853 27 24.9996V21.4996C27.6546 22.3391 28.0085 23.374 28.005 24.4386L28.003 24.4776C28.003 24.8754 28.161 25.2569 28.4423 25.5382C28.7236 25.8195 29.1051 25.9776 29.503 25.9776C29.9008 25.9776 30.2823 25.8195 30.5636 25.5382C30.8449 25.2569 31.003 24.8754 31.003 24.4776C31.0776 23.2518 31.4907 22.0708 32.1963 21.0658C32.9019 20.0607 33.8724 19.2711 35 18.7846L33.072 25.9996C32.9271 26.7273 32.9455 27.4781 33.1258 28.1979C33.306 28.9177 33.6437 29.5885 34.1144 30.1621C34.5851 30.7358 35.1771 31.1978 35.8479 31.5151C36.5187 31.8324 37.2514 31.9969 37.9935 31.9969C38.7355 31.9969 39.4683 31.8324 40.139 31.5151C40.8098 31.1978 41.4018 30.7358 41.8726 30.1621C42.3433 29.5885 42.6809 28.9177 42.8611 28.1979C43.0414 27.4781 43.0598 26.7273 42.915 25.9996L41 18.7856C42.1278 19.272 43.0986 20.0616 43.8048 21.0666C44.5109 22.0716 44.9246 23.2526 45 24.4786C45 24.8764 45.158 25.2579 45.4393 25.5392C45.7206 25.8205 46.1021 25.9786 46.5 25.9786C46.8978 25.9786 47.2793 25.8205 47.5606 25.5392C47.8419 25.2579 48 24.8764 48 24.4786C48 19.0896 43.702 15.0256 38.002 15.0256C36.2855 14.9766 34.5857 15.3743 33.069 16.1796C31.5524 16.9849 30.2709 18.1702 29.35 19.6196C28.7249 18.7926 27.9165 18.1218 26.9885 17.66C26.0604 17.1982 25.0378 16.9579 24.0012 16.958C22.9646 16.9581 21.9421 17.1986 21.0141 17.6606C20.0861 18.1226 19.2779 18.7935 18.653 19.6206C17.732 18.1707 16.4502 16.985 14.9331 16.1795C13.4161 15.374 11.7159 14.9764 9.99895 15.0256C4.29895 15.0256 0.00195312 19.0896 0.00195312 24.4796C0.00195313 24.8774 0.159988 25.2589 0.441293 25.5402C0.722598 25.8215 1.10413 25.9796 1.50195 25.9796V25.9786Z" fill="#011E41"/>
<path d="M38.002 13C39.6588 13 41.002 11.6569 41.002 10C41.002 8.34315 39.6588 7 38.002 7C36.3451 7 35.002 8.34315 35.002 10C35.002 11.6569 36.3451 13 38.002 13Z" fill="#011E41"/>
<path d="M10.001 13C11.6578 13 13.001 11.6569 13.001 10C13.001 8.34315 11.6578 7 10.001 7C8.34412 7 7.00098 8.34315 7.00098 10C7.00098 11.6569 8.34412 13 10.001 13Z" fill="#011E41"/>
<path d="M24.001 15.0002C24.4965 15.0002 24.9808 14.8533 25.3927 14.5781C25.8047 14.3028 26.1257 13.9116 26.3153 13.4539C26.5049 12.9961 26.5545 12.4925 26.4579 12.0065C26.3612 11.5206 26.1227 11.0743 25.7723 10.7239C25.422 10.3736 24.9756 10.135 24.4897 10.0384C24.0038 9.94171 23.5001 9.99132 23.0424 10.1809C22.5847 10.3705 22.1934 10.6916 21.9182 11.1035C21.6429 11.5155 21.496 11.9998 21.496 12.4952C21.496 13.1596 21.7599 13.7968 22.2297 14.2665C22.6995 14.7363 23.3367 15.0002 24.001 15.0002V15.0002ZM45.999 37.0002H1.99902C1.46859 37.0002 0.959883 37.2109 0.58481 37.586C0.209737 37.9611 -0.000976562 38.4698 -0.000976562 39.0002C-0.000976562 39.5307 0.209737 40.0394 0.58481 40.4144C0.959883 40.7895 1.46859 41.0002 1.99902 41.0002H45.999C46.5295 41.0002 47.0382 40.7895 47.4132 40.4144C47.7883 40.0394 47.999 39.5307 47.999 39.0002C47.999 38.4698 47.7883 37.9611 47.4132 37.586C47.0382 37.2109 46.5295 37.0002 45.999 37.0002Z" fill="#011E41"/>
</g>
<defs>
<clipPath id="clip0_74_1004">
<rect width="48" height="48" fill="white"/>
</clipPath>
</defs>
</svg>
