<svg width="48" height="48" viewBox="0 0 48 48" fill="none" xmlns="http://www.w3.org/2000/svg">
<path d="M39.999 7.46472C40.6842 7.86004 41.4712 8.04331 42.2606 7.99137C43.0499 7.93943 43.8061 7.6546 44.4336 7.17291C45.0611 6.69121 45.5317 6.03427 45.7858 5.28515C46.04 4.53603 46.0663 3.72837 45.8615 2.96429C45.6567 2.20021 45.2299 1.51402 44.6351 0.992476C44.0403 0.470932 43.3043 0.137458 42.52 0.0342157C41.7357 -0.0690264 40.9384 0.0626 40.2289 0.412453C39.5194 0.762305 38.9296 1.31467 38.534 1.99972C38.2714 2.45468 38.101 2.95691 38.0325 3.47773C37.964 3.99855 37.9988 4.52776 38.1348 5.03514C38.2708 5.54252 38.5055 6.01814 38.8253 6.43484C39.1452 6.85153 39.544 7.20115 39.999 7.46372V7.46472ZM31.219 34.2327C30.859 34.0723 30.4708 33.9845 30.0768 33.9743C29.6828 33.9641 29.2907 34.0317 28.9228 34.1733C28.555 34.3148 28.2187 34.5276 27.9332 34.7993C27.6477 35.071 27.4186 35.3963 27.259 35.7567C26.396 37.6187 25.0192 39.1955 23.2905 40.3017C21.5618 41.4078 19.5532 41.9973 17.501 42.0007C14.7172 41.9975 12.0483 40.8903 10.0799 38.9218C8.11142 36.9534 7.00415 34.2845 7.00098 31.5007C7.00098 25.8097 12.038 21.0007 18.001 21.0007C18.7966 21.0007 19.5597 20.6846 20.1223 20.122C20.6849 19.5594 21.001 18.7964 21.001 18.0007C21.001 17.2051 20.6849 16.442 20.1223 15.8794C19.5597 15.3168 18.7966 15.0007 18.001 15.0007C8.78598 15.0007 1.00098 22.5577 1.00098 31.5007C1.02342 35.2912 2.34268 38.9598 4.73938 41.8965C7.13608 44.8331 10.4658 46.8609 14.1749 47.6427C17.8839 48.4244 21.7488 47.913 25.1269 46.1934C28.505 44.4738 31.1926 41.6497 32.743 38.1907C33.0655 37.4637 33.0861 36.6384 32.8003 35.8962C32.5146 35.154 31.9458 34.5557 31.219 34.2327V34.2327Z" fill="#011E41"/>
<path d="M46.2033 23.9656C45.9004 23.6386 45.5287 23.383 45.1151 23.2171C44.7014 23.0513 44.2561 22.9794 43.8113 23.0066L34.9913 23.5576L40.5293 15.5106C40.5872 15.4147 40.6373 15.3144 40.6793 15.2106C40.8934 14.8313 41.0034 14.4021 40.9981 13.9665C40.9928 13.531 40.8725 13.1046 40.6493 12.7306C40.4723 12.4396 40.2415 12.1851 39.9692 11.9806L36.4692 9.55057L28.4693 3.98057C27.9885 3.62813 27.3973 3.45958 26.8029 3.50544C26.2086 3.5513 25.6503 3.80855 25.2293 4.23057L20.7293 8.73057C20.2598 9.2 19.9961 9.83669 19.9961 10.5006C19.9961 11.1644 20.2598 11.8011 20.7293 12.2706C21.1987 12.74 21.8354 13.0037 22.4993 13.0037C23.1631 13.0037 23.7998 12.74 24.2693 12.2706L27.2593 9.28057L31.5093 12.2106L24.5093 24.0606C24.1718 24.6697 23.9991 25.3563 24.0084 26.0526C24.0176 26.7489 24.2084 27.4307 24.5619 28.0307C24.9154 28.6306 25.4194 29.1279 26.024 29.4734C26.6286 29.8189 27.3129 30.0006 28.0093 30.0006L28.0633 29.9906C28.1053 29.9896 28.1443 29.9976 28.1863 29.9946L40.5073 29.2246L39.0293 39.5766C38.9167 40.3643 39.1216 41.1644 39.599 41.801C40.0763 42.4376 40.7871 42.8585 41.5748 42.9711C42.3624 43.0836 43.1626 42.8787 43.7992 42.4013C44.4358 41.924 44.8567 41.2133 44.9692 40.4256L46.9692 26.4256C47.0325 25.9844 46.9965 25.5346 46.864 25.1091C46.7315 24.6835 46.5058 24.2929 46.2033 23.9656V23.9656Z" fill="#011E41"/>
</svg>
