<svg width="48" height="48" viewBox="0 0 48 48" fill="none" xmlns="http://www.w3.org/2000/svg">
<g clip-path="url(#clip0_74_1080)">
<path d="M47 42H1C0.447715 42 0 42.4477 0 43V47C0 47.5523 0.447715 48 1 48H47C47.5523 48 48 47.5523 48 47V43C48 42.4477 47.5523 42 47 42Z" fill="#011E41"/>
<path d="M5.43618 17.557L5.43818 17.561L5.45218 17.57C5.58839 17.7039 5.74894 17.8105 5.92518 17.884C5.93818 17.889 5.95218 17.891 5.96518 17.896C6.13104 17.9607 6.30719 17.9949 6.48518 17.997L6.50018 18L6.51318 17.998C6.69256 17.9958 6.87006 17.9612 7.03718 17.896C7.04918 17.891 7.06218 17.889 7.07418 17.885C7.25333 17.8103 7.41633 17.7017 7.55418 17.565L7.56118 17.561L7.56418 17.557L12.5612 12.56C12.7005 12.4208 12.8111 12.2554 12.8865 12.0734C12.9619 11.8914 13.0008 11.6964 13.0008 11.4994C13.0009 11.3024 12.9621 11.1073 12.8868 10.9253C12.8114 10.7433 12.701 10.5779 12.5617 10.4385C12.4224 10.2992 12.2571 10.1887 12.0751 10.1132C11.8931 10.0378 11.698 9.99894 11.501 9.9989C11.1032 9.9988 10.7216 10.1568 10.4402 10.438L7.99918 12.879V1.49902C7.99918 1.1012 7.84115 0.719668 7.55984 0.438363C7.27854 0.157059 6.89701 -0.000976562 6.49918 -0.000976562C6.10136 -0.000976562 5.71983 0.157059 5.43852 0.438363C5.15722 0.719668 4.99918 1.1012 4.99918 1.49902V12.879L2.55918 10.439C2.27641 10.1656 1.89758 10.0143 1.50428 10.0175C1.11098 10.0207 0.734686 10.1783 0.456442 10.4563C0.178197 10.7343 0.0202664 11.1104 0.0166645 11.5037C0.0130627 11.897 0.164078 12.276 0.437185 12.559L5.43618 17.557ZM12.3302 21.67L10.0002 39H28.0002V29.29C28.0022 29.2248 28.0255 29.162 28.0665 29.1111C28.1075 29.0603 28.1639 29.0242 28.2273 29.0084C28.2906 28.9926 28.3574 28.9978 28.4175 29.0234C28.4776 29.0489 28.5277 29.0934 28.5602 29.15L34.0002 39H47.0002L44.6702 21.67C44.6447 21.4707 44.5794 21.2785 44.478 21.105C44.3766 20.9314 44.2413 20.7801 44.0802 20.66L29.5002 9.34002C29.2127 9.12121 28.8614 9.00272 28.5002 9.00272C28.1389 9.00272 27.7876 9.12121 27.5002 9.34002L12.9202 20.66C12.759 20.7801 12.6237 20.9314 12.5224 21.105C12.421 21.2785 12.3556 21.4707 12.3302 21.67V21.67Z" fill="#011E41"/>
</g>
<defs>
<clipPath id="clip0_74_1080">
<rect width="48" height="48" fill="white"/>
</clipPath>
</defs>
</svg>
