<svg width="48" height="48" viewBox="0 0 48 48" fill="none" xmlns="http://www.w3.org/2000/svg">
<path d="M24 10C16.46 10 11 15.05 11 22C11 22.5304 11.2107 23.0391 11.5858 23.4142C11.9609 23.7893 12.4696 24 13 24C13.5304 24 14.0391 23.7893 14.4142 23.4142C14.7893 23.0391 15 22.5304 15 22C15 20.4577 15.4819 18.9539 16.3784 17.6988C17.2748 16.4438 18.541 15.5002 20 15L16 34C15.9877 34.1344 16.0051 34.2699 16.051 34.3968C16.0969 34.5237 16.1702 34.6389 16.2656 34.7344C16.3611 34.8298 16.4763 34.9031 16.6032 34.949C16.7301 34.9949 16.8656 35.0123 17 35H19V46C19 46.5304 19.2107 47.0391 19.5858 47.4142C19.9609 47.7893 20.4696 48 21 48C21.5304 48 22.0391 47.7893 22.4142 47.4142C22.7893 47.0391 23 46.5304 23 46V35H25V46C25 46.5304 25.2107 47.0391 25.5858 47.4142C25.9609 47.7893 26.4696 48 27 48C27.5304 48 28.0391 47.7893 28.4142 47.4142C28.7893 47.0391 29 46.5304 29 46V35H31C31.1344 35.0123 31.2699 34.9949 31.3968 34.949C31.5237 34.9031 31.6389 34.8298 31.7344 34.7344C31.8298 34.6389 31.9031 34.5237 31.949 34.3968C31.9949 34.2699 32.0123 34.1344 32 34L28 15C29.4485 15.5166 30.7041 16.4643 31.598 17.7157C32.4918 18.9671 32.9811 20.4622 33 22C33 22.5304 33.2107 23.0391 33.5858 23.4142C33.9609 23.7893 34.4696 24 35 24C35.5304 24 36.0391 23.7893 36.4142 23.4142C36.7893 23.0391 37 22.5304 37 22C37 15.05 31.53 10 24 10Z" fill="#011E41"/>
<path d="M23.9902 8C26.1994 8 27.9902 6.20914 27.9902 4C27.9902 1.79086 26.1994 0 23.9902 0C21.7811 0 19.9902 1.79086 19.9902 4C19.9902 6.20914 21.7811 8 23.9902 8Z" fill="#011E41"/>
</svg>
