<svg width="48" height="48" viewBox="0 0 48 48" fill="none" xmlns="http://www.w3.org/2000/svg">
<path d="M23.9978 10C16.4708 10 11.0068 15.047 11.0068 22C11.0068 22.5304 11.2175 23.0391 11.5926 23.4142C11.9677 23.7893 12.4764 24 13.0068 24C13.5373 24 14.046 23.7893 14.421 23.4142C14.7961 23.0391 15.0068 22.5304 15.0068 22C14.9771 20.5814 15.3326 19.1813 16.0354 17.9487C16.7381 16.7161 17.7619 15.697 18.9978 15V46C18.9978 46.5304 19.2085 47.0391 19.5836 47.4142C19.9587 47.7893 20.4674 48 20.9978 48C21.5283 48 22.037 47.7893 22.412 47.4142C22.7871 47.0391 22.9978 46.5304 22.9978 46V31H24.9978V46C24.9978 46.5304 25.2085 47.0391 25.5836 47.4142C25.9587 47.7893 26.4674 48 26.9978 48C27.5283 48 28.037 47.7893 28.4121 47.4142C28.7871 47.0391 28.9978 46.5304 28.9978 46V14.999C30.2349 15.6954 31.2598 16.7143 31.9635 17.9472C32.6672 19.18 33.0233 20.5807 32.9938 22C32.9938 22.5304 33.2045 23.0391 33.5796 23.4142C33.9547 23.7893 34.4634 24 34.9938 24C35.5243 24 36.033 23.7893 36.408 23.4142C36.7831 23.0391 36.9938 22.5304 36.9938 22C36.9938 15.047 31.5278 10 23.9978 10V10Z" fill="#011E41"/>
<path d="M23.998 8C26.2072 8 27.998 6.20914 27.998 4C27.998 1.79086 26.2072 0 23.998 0C21.7889 0 19.998 1.79086 19.998 4C19.998 6.20914 21.7889 8 23.998 8Z" fill="#011E41"/>
</svg>
