<svg width="48" height="48" viewBox="0 0 48 48" fill="none" xmlns="http://www.w3.org/2000/svg">
<path d="M24 34C21.7874 33.9972 19.6533 33.1802 18.0045 31.7047C16.3557 30.2293 15.3076 28.1987 15.06 26H0V38C0.00158273 38.5299 0.212805 39.0377 0.587535 39.4125C0.962265 39.7872 1.47005 39.9984 2 40H46C46.5299 39.9984 47.0377 39.7872 47.4125 39.4125C47.7872 39.0377 47.9984 38.5299 48 38V26H32.94C32.6924 28.1987 31.6443 30.2293 29.9955 31.7047C28.3467 33.1802 26.2126 33.9972 24 34V34ZM46 14H33V10C32.9984 9.47005 32.7872 8.96227 32.4125 8.58753C32.0377 8.2128 31.5299 8.00158 31 8H17C16.4701 8.00158 15.9623 8.2128 15.5875 8.58753C15.2128 8.96227 15.0016 9.47005 15 10V14H10V12C10 11.7348 9.89464 11.4804 9.70711 11.2929C9.51957 11.1054 9.26522 11 9 11H6C5.73478 11 5.48043 11.1054 5.29289 11.2929C5.10536 11.4804 5 11.7348 5 12V14H2C1.47005 14.0016 0.962265 14.2128 0.587535 14.5875C0.212805 14.9623 0.00158273 15.4701 0 16L0 24H15.06C15.3044 21.7999 16.3515 19.7672 18.001 18.2908C19.6504 16.8145 21.7863 15.9982 24 15.9982C26.2137 15.9982 28.3496 16.8145 29.999 18.2908C31.6485 19.7672 32.6956 21.7999 32.94 24H48V16C47.9984 15.4701 47.7872 14.9623 47.4125 14.5875C47.0377 14.2128 46.5299 14.0016 46 14ZM42.5 20H37.5C37.1022 20 36.7206 19.842 36.4393 19.5607C36.158 19.2794 36 18.8978 36 18.5C36 18.1022 36.158 17.7206 36.4393 17.4393C36.7206 17.158 37.1022 17 37.5 17H42.5C42.8978 17 43.2794 17.158 43.5607 17.4393C43.842 17.7206 44 18.1022 44 18.5C44 18.8978 43.842 19.2794 43.5607 19.5607C43.2794 19.842 42.8978 20 42.5 20Z" fill="#011E41"/>
<path d="M24 32.0002C25.5484 32.0015 27.0533 31.4886 28.2787 30.542C29.504 29.5954 30.3803 28.2687 30.77 26.7702C31.0766 25.6101 31.0766 24.3903 30.77 23.2302C30.3789 21.7325 29.5022 20.4067 28.2772 19.4605C27.0521 18.5143 25.5479 18.001 24 18.001C22.4521 18.001 20.9478 18.5143 19.7228 19.4605C18.4978 20.4067 17.6211 21.7325 17.23 23.2302C16.9233 24.3903 16.9233 25.6101 17.23 26.7702C17.6197 28.2687 18.496 29.5954 19.7213 30.542C20.9466 31.4886 22.4516 32.0015 24 32.0002ZM20.13 24.0002C20.3508 23.1416 20.8509 22.3809 21.5515 21.8377C22.2521 21.2945 23.1135 20.9997 24 20.9997C24.8865 20.9997 25.7478 21.2945 26.4484 21.8377C27.149 22.3809 27.6491 23.1416 27.87 24.0002C28.0433 24.6556 28.0433 25.3448 27.87 26.0002C27.6491 26.8587 27.149 27.6195 26.4484 28.1627C25.7478 28.7058 24.8865 29.0006 24 29.0006C23.1135 29.0006 22.2521 28.7058 21.5515 28.1627C20.8509 27.6195 20.3508 26.8587 20.13 26.0002C19.9566 25.3448 19.9566 24.6556 20.13 24.0002V24.0002Z" fill="#011E41"/>
</svg>
