<svg width="48" height="48" viewBox="0 0 48 48" fill="none" xmlns="http://www.w3.org/2000/svg">
<path d="M38.992 7.52256C38.9918 7.61823 38.982 7.71364 38.963 7.8074C38.945 7.89828 38.9186 7.98729 38.884 8.07325L38.881 8.08324C38.7973 8.28846 38.6689 8.47247 38.5052 8.62194L32.5326 14.5846C32.3954 14.7248 32.2318 14.8365 32.0512 14.9131C31.8706 14.9897 31.6766 15.0297 31.4805 15.0309C31.2843 15.0321 31.0899 14.9944 30.9084 14.9199C30.7269 14.8455 30.562 14.7358 30.4231 14.5972C30.2843 14.4587 30.1743 14.2939 30.0995 14.1126C30.0247 13.9312 29.9866 13.7369 29.9874 13.5407C29.9882 13.3446 30.0279 13.1505 30.1042 12.9698C30.1804 12.789 30.2918 12.6252 30.4317 12.4878L33.9048 9.02172H14.0968L17.5689 12.4878C17.8423 12.7673 17.9944 13.1435 17.9921 13.5345C17.9897 13.9256 17.8332 14.2999 17.5564 14.5761C17.2796 14.8524 16.905 15.0082 16.514 15.0098C16.1229 15.0114 15.7471 14.8586 15.4681 14.5846L9.49439 8.62094C9.33123 8.47164 9.20322 8.28799 9.1196 8.08324L9.1156 8.07225C9.04551 7.89743 9.00922 7.7109 9.00866 7.52256C9.00952 7.33489 9.04581 7.14907 9.1156 6.97486L9.1196 6.96087C9.20276 6.7575 9.3297 6.57494 9.49139 6.42617L15.4681 0.461489C15.6044 0.318067 15.7681 0.203367 15.9495 0.124135C16.1308 0.0449035 16.3262 0.00274139 16.5241 0.000129294C16.7219 -0.0024828 16.9184 0.0345078 17.1017 0.108925C17.2851 0.183342 17.4518 0.293683 17.5919 0.433455C17.732 0.573228 17.8427 0.739609 17.9176 0.922811C17.9924 1.10601 18.0299 1.30234 18.0277 1.50023C18.0256 1.69812 17.9839 1.89359 17.9051 2.07513C17.8263 2.25667 17.712 2.42061 17.5689 2.55732L14.0958 6.02339H33.9028L30.4307 2.55732C30.1574 2.27766 30.0055 1.90142 30.008 1.51037C30.0105 1.11933 30.1672 0.745071 30.4441 0.468948C30.7211 0.192824 31.0958 0.0371477 31.4868 0.0357511C31.8779 0.0343546 32.2537 0.187351 32.5326 0.461489L38.5092 6.42617C38.6709 6.57492 38.7979 6.75748 38.881 6.96087L38.885 6.97486V6.97686C38.919 7.06157 38.9451 7.14923 38.963 7.23871C38.9819 7.33182 38.9916 7.42655 38.992 7.52156V7.52256ZM46.9875 21.015C46.9875 20.2244 46.753 19.4514 46.3138 18.794C45.8745 18.1366 45.2501 17.6242 44.5196 17.3216C43.7891 17.019 42.9853 16.9398 42.2098 17.0941C41.4343 17.2483 40.722 17.6291 40.1629 18.1882C39.6038 18.7473 39.223 19.4596 39.0688 20.2351C38.9145 21.0106 38.9937 21.8144 39.2963 22.5449C39.5988 23.2754 40.1113 23.8998 40.7687 24.3391C41.4261 24.7783 42.199 25.0128 42.9897 25.0128C44.05 25.0128 45.0668 24.5916 45.8166 23.8419C46.5663 23.0922 46.9875 22.0753 46.9875 21.015ZM47.9869 27.8732C46.3842 27.2968 44.693 27.0052 42.9897 27.0117C35.5829 27.0117 29.997 32.1688 29.997 39.005C29.997 39.5351 30.2076 40.0436 30.5824 40.4184C30.9573 40.7933 31.4657 41.0039 31.9959 41.0039C32.526 41.0039 33.0344 40.7933 33.4093 40.4184C33.7841 40.0436 33.9947 39.5351 33.9947 39.005C33.9684 37.6208 34.3285 36.2566 35.0347 35.0657C35.7409 33.8749 36.7652 32.9046 37.9925 32.2638V48H47.9869V32.2638V27.8732ZM5.01089 25.0128C5.80157 25.0128 6.5745 24.7783 7.23193 24.3391C7.88936 23.8998 8.40177 23.2754 8.70435 22.5449C9.00693 21.8144 9.0861 21.0106 8.93184 20.2351C8.77759 19.4596 8.39684 18.7473 7.83774 18.1882C7.27864 17.6291 6.56631 17.2483 5.79081 17.0941C5.01532 16.9398 4.2115 17.019 3.48101 17.3216C2.75051 17.6242 2.12614 18.1366 1.68686 18.794C1.24758 19.4514 1.01311 20.2244 1.01311 21.015C1.01311 22.0753 1.43431 23.0922 2.18404 23.8419C2.93376 24.5916 3.95061 25.0128 5.01089 25.0128ZM5.01089 27.0117C3.30765 27.0052 1.61642 27.2968 0.0136719 27.8732L0.0136719 48H10.0081V32.2638C11.2354 32.9046 12.2597 33.8749 12.9659 35.0657C13.6721 36.2566 14.0322 37.6208 14.0059 39.005C14.0059 39.5351 14.2165 40.0436 14.5913 40.4184C14.9662 40.7933 15.4746 41.0039 16.0048 41.0039C16.5349 41.0039 17.0433 40.7933 17.4182 40.4184C17.7931 40.0436 18.0036 39.5351 18.0036 39.005C18.0036 32.1688 12.4178 27.0117 5.01089 27.0117Z" fill="#011E41"/>
</svg>
