<svg width="48" height="48" viewBox="0 0 48 48" fill="none" xmlns="http://www.w3.org/2000/svg">
<g clip-path="url(#clip0_74_1238)">
<path d="M24 0C19.2533 0 14.6131 1.40758 10.6663 4.04473C6.71954 6.68188 3.64341 10.4302 1.8269 14.8156C0.0103989 19.201 -0.464881 24.0266 0.461164 28.6822C1.38721 33.3377 3.67299 37.6141 7.02945 40.9706C10.3859 44.327 14.6623 46.6128 19.3178 47.5388C23.9734 48.4649 28.799 47.9896 33.1844 46.1731C37.5698 44.3566 41.3181 41.2805 43.9553 37.3337C46.5924 33.3869 48 28.7468 48 24C48 17.6348 45.4714 11.5303 40.9706 7.02944C36.4697 2.52856 30.3652 0 24 0V0ZM24 42C20.4399 42 16.9598 40.9443 13.9997 38.9665C11.0397 36.9886 8.73256 34.1774 7.37018 30.8883C6.0078 27.5992 5.65134 23.98 6.34588 20.4884C7.04041 16.9967 8.75474 13.7894 11.2721 11.2721C13.7894 8.75473 16.9967 7.0404 20.4884 6.34586C23.98 5.65133 27.5992 6.00779 30.8883 7.37017C34.1774 8.73255 36.9886 11.0397 38.9665 13.9997C40.9443 16.9598 42 20.4399 42 24C41.9947 28.7723 40.0966 33.3476 36.7221 36.7221C33.3476 40.0966 28.7723 41.9947 24 42V42Z" fill="#011E41"/>
<path d="M34.1208 13.8788C33.8423 13.6002 33.5116 13.3792 33.1477 13.2284C32.7837 13.0776 32.3937 13 31.9998 13C31.6058 13 31.2158 13.0776 30.8518 13.2284C30.4879 13.3792 30.1573 13.6002 29.8788 13.8788L23.9998 19.9998L18.1208 13.8788C17.5549 13.3323 16.7971 13.0299 16.0106 13.0368C15.224 13.0436 14.4715 13.3591 13.9153 13.9153C13.3591 14.4715 13.0436 15.224 13.0367 16.0106C13.0299 16.7972 13.3323 17.555 13.8788 18.1208L19.9998 23.9998L13.8788 29.8788C13.5922 30.1555 13.3637 30.4865 13.2065 30.8526C13.0492 31.2186 12.9665 31.6122 12.963 32.0106C12.9595 32.4089 13.0354 32.8039 13.1863 33.1726C13.3371 33.5413 13.5599 33.8763 13.8416 34.158C14.1232 34.4396 14.4582 34.6624 14.8269 34.8132C15.1956 34.9641 15.5906 35.04 15.989 35.0365C16.3873 35.0331 16.781 34.9503 17.147 34.7931C17.513 34.6359 17.844 34.4073 18.1208 34.1208L23.9998 27.9998L29.8788 34.1208C30.4446 34.6672 31.2024 34.9696 31.989 34.9628C32.7756 34.956 33.528 34.6405 34.0842 34.0842C34.6404 33.528 34.9559 32.7756 34.9628 31.989C34.9696 31.2024 34.6672 30.4446 34.1208 29.8788L27.9998 23.9998L34.1208 18.1208C34.3994 17.8423 34.6204 17.5116 34.7711 17.1477C34.9219 16.7838 34.9995 16.3937 34.9995 15.9998C34.9995 15.6058 34.9219 15.2158 34.7711 14.8519C34.6204 14.4879 34.3994 14.1573 34.1208 13.8788V13.8788Z" fill="#011E41"/>
</g>
<defs>
<clipPath id="clip0_74_1238">
<rect width="48" height="48" fill="white"/>
</clipPath>
</defs>
</svg>
