<svg width="48" height="48" viewBox="0 0 48 48" fill="none" xmlns="http://www.w3.org/2000/svg">
<rect x="11" y="30.0002" width="35" height="5" rx="2.5" fill="#011E41"/>
<rect x="33" y="20.9673" width="11" height="5" rx="2.5" transform="rotate(-5.04535 33 20.9673)" fill="#011E41"/>
<path d="M28 30L32.3985 23.1315C33.0989 22.0378 34.5507 21.7145 35.649 22.4074V22.4074C36.7196 23.0829 37.0676 24.4822 36.4382 25.5805L33.8407 30.113L28 30Z" fill="#011E41"/>
<circle cx="6" cy="32.0002" r="4" fill="#011E41"/>
<path d="M0 43L0 39C0 37.8954 0.895431 37 2 37H46C47.1046 37 48 37.8954 48 39V43H0Z" fill="#011E41"/>
<path d="M0 43H6.4V45C6.4 46.6569 5.05685 48 3.4 48H3C1.34315 48 0 46.6569 0 45V43Z" fill="#011E41"/>
<path d="M41.6 43H48V45C48 46.6569 46.6568 48 45 48H44.6C42.9431 48 41.6 46.6569 41.6 45V43Z" fill="#011E41"/>
<path d="M21 11C23.2091 11 25 9.20914 25 7C25 4.79086 23.2091 3 21 3C18.7909 3 17 4.79086 17 7C17 9.20914 18.7909 11 21 11Z" fill="#011E41"/>
<path d="M34.1775 19.6298L34.177 19.6297C30.8687 19.1577 27.8186 17.3094 26.5705 14.3959C26.5705 14.3959 26.5705 14.3959 26.5705 14.3959C26.5704 14.3957 26.5704 14.3956 26.5703 14.3955L26.3719 13.9311L26.3714 13.93C26.1824 13.4905 25.8641 13.1189 25.4587 12.8649C25.2025 12.7043 24.9192 12.5954 24.6247 12.5424V12.5H24.1247H18.9913C18.3306 12.5 17.6969 12.7625 17.2297 13.2297C16.7625 13.6969 16.5 14.3306 16.5 14.9913V27C16.5 27.8284 17.1716 28.5 18 28.5H24.9059C25.7343 28.5 26.4059 27.8284 26.4059 27V21.3549C28.5026 22.8645 30.9433 23.8381 33.5145 24.1826L33.5305 24.1847L33.5465 24.1858C33.6467 24.1927 33.7471 24.1934 33.8473 24.1879C34.3926 24.2156 34.9297 24.0436 35.3578 23.7035C35.7948 23.3563 36.0868 22.8589 36.177 22.3082L36.1771 22.3082L36.1786 22.2976C36.2664 21.6785 36.105 21.0499 35.7298 20.5498C35.3547 20.0496 34.7964 19.7188 34.1775 19.6298Z" fill="#011E41" stroke="#FDFDFD"/>
</svg>
