<svg width="48" height="48" viewBox="0 0 48 48" fill="none" xmlns="http://www.w3.org/2000/svg">
<path d="M40.3637 0H5.81507C4.24916 0.0269848 2.75782 0.673684 1.6679 1.79836C0.57799 2.92303 -0.021583 4.43394 0.000594015 5.99993V46.9958C-0.00157275 47.1254 0.0218234 47.2542 0.0694461 47.3749C0.117069 47.4955 0.187985 47.6055 0.278145 47.6987C0.368304 47.7919 0.475941 47.8664 0.594907 47.918C0.713873 47.9696 0.841837 47.9973 0.971491 47.9994H17.4549V34.9087C17.4548 34.3356 17.5675 33.7681 17.7868 33.2386C18.006 32.7091 18.3274 32.228 18.7327 31.8228C19.1379 31.4176 19.619 31.0962 20.1485 30.8769C20.6779 30.6577 21.2454 30.5449 21.8185 30.5451H34.9093V15.2725H40.3637C42.389 15.2725 44.3313 14.468 45.7634 13.0359C47.1955 11.6038 48 9.66153 48 7.63627C48 5.611 47.1955 3.66869 45.7634 2.23661C44.3313 0.804533 42.389 0 40.3637 0V0ZM4.68054 14.498L11.2259 7.95263C11.3276 7.85091 11.4484 7.77023 11.5813 7.71518C11.7142 7.66014 11.8566 7.63181 12.0004 7.63181C12.1443 7.63181 12.2867 7.66014 12.4196 7.71518C12.5525 7.77023 12.6733 7.85091 12.775 7.95263C12.8767 8.05434 12.9574 8.17509 13.0124 8.30799C13.0675 8.44088 13.0958 8.58332 13.0958 8.72716C13.0958 8.87101 13.0675 9.01345 13.0124 9.14634C12.9574 9.27924 12.8767 9.39999 12.775 9.5017L6.22961 16.0471C6.02281 16.2499 5.74472 16.3635 5.45507 16.3635C5.16542 16.3635 4.88733 16.2499 4.68054 16.0471C4.47615 15.8411 4.36147 15.5627 4.36147 15.2725C4.36147 14.9824 4.47615 14.704 4.68054 14.498V14.498ZM21.5021 11.6835L4.04782 29.1378C3.84102 29.3406 3.56293 29.4542 3.27328 29.4542C2.98363 29.4542 2.70554 29.3406 2.49874 29.1378C2.29436 28.9318 2.17968 28.6534 2.17968 28.3633C2.17968 28.0731 2.29436 27.7947 2.49874 27.5887L19.9531 10.1344C20.0548 10.0327 20.1755 9.95202 20.3084 9.89698C20.4413 9.84193 20.5838 9.8136 20.7276 9.8136C20.8715 9.8136 21.0139 9.84193 21.1468 9.89698C21.2797 9.95202 21.4004 10.0327 21.5021 10.1344C21.6039 10.2361 21.6845 10.3569 21.7396 10.4898C21.7946 10.6227 21.823 10.7651 21.823 10.909C21.823 11.0528 21.7946 11.1952 21.7396 11.3281C21.6845 11.461 21.6039 11.5818 21.5021 11.6835V11.6835ZM34.9093 13.0907V12.9707C34.9437 13.016 34.984 13.0563 35.0293 13.0907H34.9093ZM40.3637 11.9999C39.5007 11.9999 38.657 11.7439 37.9395 11.2645C37.2219 10.785 36.6626 10.1035 36.3323 9.30614C36.002 8.5088 35.9156 7.63143 36.084 6.78498C36.2524 5.93852 36.668 5.16101 37.2782 4.55075C37.8885 3.94049 38.666 3.5249 39.5124 3.35653C40.3589 3.18816 41.2363 3.27458 42.0336 3.60484C42.8309 3.93511 43.5124 4.4944 43.9919 5.21199C44.4714 5.92958 44.7273 6.77323 44.7273 7.63627C44.7275 8.20934 44.6147 8.77683 44.3954 9.30631C44.1762 9.83579 43.8548 10.3169 43.4496 10.7221C43.0443 11.1273 42.5632 11.4487 42.0338 11.668C41.5043 11.8872 40.9368 12 40.3637 11.9999V11.9999Z" fill="#011E41"/>
<path d="M19.6357 34.9084V47.9991L34.9083 32.7266H21.8175C21.2394 32.7283 20.6855 32.9587 20.2767 33.3675C19.8679 33.7763 19.6375 34.3302 19.6357 34.9084V34.9084Z" fill="#011E41"/>
</svg>
