<svg width="48" height="48" viewBox="0 0 48 48" fill="none" xmlns="http://www.w3.org/2000/svg">
<g clip-path="url(#clip0_74_505)">
<path d="M47.0619 3.02637H18.9773C18.7205 3.03472 18.4775 3.14453 18.3015 3.33174C18.1256 3.51895 18.031 3.76828 18.0385 4.02511V8.5494L18.9773 8.73916C19.8291 8.91648 20.5939 9.38161 21.1432 10.0564C21.6925 10.7311 21.9927 11.5744 21.9935 12.4445L22.0335 24.4693C22.0731 27.9313 20.8519 31.2895 18.5978 33.9174C18.418 34.1272 18.2283 34.3269 18.0385 34.5167V43.9747C18.031 44.2316 18.1256 44.4809 18.3015 44.6681C18.4775 44.8553 18.7205 44.9651 18.9773 44.9735H39.0121V38.981C39.0144 38.1871 39.3309 37.4264 39.8923 36.865C40.4536 36.3036 41.2144 35.9872 42.0083 35.9848H48.0007V4.02511C48.0083 3.76828 47.9137 3.51895 47.7377 3.33174C47.5617 3.14453 47.3187 3.03472 47.0619 3.02637V3.02637ZM39.9709 31.9899H26.0684C25.8035 31.9899 25.5495 31.8846 25.3622 31.6973C25.1749 31.51 25.0696 31.256 25.0696 30.9911C25.0696 30.7262 25.1749 30.4722 25.3622 30.2849C25.5495 30.0976 25.8035 29.9924 26.0684 29.9924H39.9709C40.2357 29.9924 40.4898 30.0976 40.6771 30.2849C40.8644 30.4722 40.9696 30.7262 40.9696 30.9911C40.9696 31.256 40.8644 31.51 40.6771 31.6973C40.4898 31.8846 40.2357 31.9899 39.9709 31.9899V31.9899ZM39.9709 25.9974H26.0684C25.8035 25.9974 25.5495 25.8922 25.3622 25.7049C25.1749 25.5176 25.0696 25.2635 25.0696 24.9987C25.0696 24.7338 25.1749 24.4797 25.3622 24.2924C25.5495 24.1051 25.8035 23.9999 26.0684 23.9999H39.9709C40.2357 23.9999 40.4898 24.1051 40.6771 24.2924C40.8644 24.4797 40.9696 24.7338 40.9696 24.9987C40.9696 25.2635 40.8644 25.5176 40.6771 25.7049C40.4898 25.8922 40.2357 25.9974 39.9709 25.9974V25.9974ZM39.9709 20.005H26.0684C25.8035 20.005 25.5495 19.8997 25.3622 19.7124C25.1749 19.5251 25.0696 19.2711 25.0696 19.0062C25.0696 18.7413 25.1749 18.4873 25.3622 18.3C25.5495 18.1127 25.8035 18.0075 26.0684 18.0075H39.9709C40.2357 18.0075 40.4898 18.1127 40.6771 18.3C40.8644 18.4873 40.9696 18.7413 40.9696 19.0062C40.9696 19.2711 40.8644 19.5251 40.6771 19.7124C40.4898 19.8997 40.2357 20.005 39.9709 20.005V20.005ZM39.9709 14.0125H26.0684C25.8035 14.0125 25.5495 13.9073 25.3622 13.72C25.1749 13.5327 25.0696 13.2787 25.0696 13.0138C25.0696 12.7489 25.1749 12.4949 25.3622 12.3076C25.5495 12.1203 25.8035 12.015 26.0684 12.015H39.9709C40.2357 12.015 40.4898 12.1203 40.6771 12.3076C40.8644 12.4949 40.9696 12.7489 40.9696 13.0138C40.9696 13.2787 40.8644 13.5327 40.6771 13.72C40.4898 13.9073 40.2357 14.0125 39.9709 14.0125V14.0125Z" fill="#011E41"/>
<path d="M42.0071 37.982C41.7425 37.9828 41.4889 38.0883 41.3018 38.2754C41.1147 38.4626 41.0092 38.7162 41.0084 38.9808V44.9732L47.9996 37.982H42.0071ZM20.0348 24.4791L19.9949 12.4442C19.9984 12.035 19.86 11.6372 19.6033 11.3185C19.3465 10.9999 18.9873 10.78 18.5867 10.6964L18.0374 10.5866L10.3271 9.04853C10.215 9.02824 10.1014 9.01821 9.98751 9.01856C9.87368 9.01908 9.76009 9.0291 9.64793 9.04853L1.39833 10.7464C0.998842 10.8342 0.641768 11.0569 0.387134 11.377C0.1325 11.6971 -0.00417001 12.0952 9.69692e-05 12.5042L0.0300592 24.539C0.050034 30.871 4.61428 35.9846 10.0374 35.9846H10.0674C11.6775 35.9353 13.2498 35.4847 14.6416 34.6737C16.0334 33.8627 17.2007 32.7169 18.0374 31.3404C19.358 29.297 20.0523 26.912 20.0348 24.4791V24.4791Z" fill="#011E41"/>
</g>
<defs>
<clipPath id="clip0_74_505">
<rect width="48" height="48" fill="white"/>
</clipPath>
</defs>
</svg>
