<svg width="48" height="48" viewBox="0 0 48 48" fill="none" xmlns="http://www.w3.org/2000/svg">
<path d="M38 6H10C9.47005 6.00158 8.96227 6.2128 8.58753 6.58753C8.2128 6.96227 8.00158 7.47005 8 8V30H40V8C39.9984 7.47005 39.7872 6.96227 39.4125 6.58753C39.0377 6.2128 38.5299 6.00158 38 6V6ZM31 20C31.0027 20.9271 30.819 21.8453 30.46 22.7C30.4607 22.7054 30.4601 22.7109 30.4584 22.7161C30.4566 22.7213 30.4538 22.726 30.45 22.73C29.9129 23.9965 29.0149 25.0768 27.8679 25.8363C26.7209 26.5958 25.3757 27.0008 24 27.0008C22.6243 27.0008 21.2791 26.5958 20.1321 25.8363C18.9851 25.0768 18.0871 23.9965 17.55 22.73C17.5462 22.726 17.5434 22.7213 17.5416 22.7161C17.5399 22.7109 17.5393 22.7054 17.54 22.7C17.181 21.8453 16.9973 20.9271 17 20V11.75C17.0029 11.5329 17.0754 11.3225 17.2068 11.1497C17.3382 10.9769 17.5216 10.8508 17.73 10.79L23.73 9.08C23.9065 9.02996 24.0935 9.02996 24.27 9.08L30.27 10.79C30.4784 10.8508 30.6618 10.9769 30.7932 11.1497C30.9246 11.3225 30.9971 11.5329 31 11.75V20ZM14 4H34C34.5304 4 35.0391 3.78929 35.4142 3.41421C35.7893 3.03914 36 2.53043 36 2C36 1.46957 35.7893 0.960859 35.4142 0.585786C35.0391 0.210714 34.5304 0 34 0L14 0C13.4696 0 12.9609 0.210714 12.5858 0.585786C12.2107 0.960859 12 1.46957 12 2C12 2.53043 12.2107 3.03914 12.5858 3.41421C12.9609 3.78929 13.4696 4 14 4V4ZM8 48H20V38C20.0016 37.4701 20.2128 36.9623 20.5875 36.5875C20.9623 36.2128 21.4701 36.0016 22 36H26C26.5299 36.0016 27.0377 36.2128 27.4125 36.5875C27.7872 36.9623 27.9984 37.4701 28 38V48H40V32H8V48Z" fill="#011E41"/>
<path d="M27.4799 16.6302L25.5999 16.5902C25.4909 16.5879 25.3854 16.5508 25.299 16.4842C25.2126 16.4176 25.1499 16.3251 25.1199 16.2202L24.4999 14.3702C24.4666 14.2637 24.4001 14.1707 24.3101 14.1046C24.2202 14.0385 24.1115 14.0029 23.9999 14.0029C23.8884 14.0029 23.7797 14.0385 23.6897 14.1046C23.5998 14.1707 23.5333 14.2637 23.4999 14.3702L22.8799 16.2202C22.85 16.3251 22.7872 16.4176 22.7009 16.4842C22.6145 16.5508 22.509 16.5879 22.3999 16.5902L20.5199 16.6302C20.4079 16.6374 20.3007 16.6785 20.2124 16.7479C20.1242 16.8172 20.059 16.9117 20.0254 17.0188C19.9919 17.126 19.9915 17.2408 20.0245 17.3481C20.0574 17.4554 20.1221 17.5503 20.2099 17.6202L21.7099 18.8102C21.7959 18.8812 21.8589 18.9761 21.8909 19.0829C21.9229 19.1897 21.9226 19.3036 21.8899 19.4102L21.3499 21.2902C21.314 21.3965 21.3124 21.5116 21.3456 21.6188C21.3787 21.7261 21.4448 21.8203 21.5345 21.8878C21.6242 21.9554 21.733 21.9929 21.8452 21.9951C21.9575 21.9974 22.0676 21.9641 22.1599 21.9002L23.6999 20.7802C23.7871 20.7168 23.8921 20.6826 23.9999 20.6826C24.1077 20.6826 24.2128 20.7168 24.2999 20.7802L25.8399 21.9002C25.9322 21.9641 26.0424 21.9974 26.1546 21.9951C26.2669 21.9929 26.3756 21.9554 26.4653 21.8878C26.555 21.8203 26.6212 21.7261 26.6543 21.6188C26.6874 21.5116 26.6859 21.3965 26.6499 21.2902L26.1099 19.4102C26.0773 19.3036 26.0769 19.1897 26.109 19.0829C26.141 18.9761 26.204 18.8812 26.2899 18.8102L27.7899 17.6202C27.8778 17.5503 27.9425 17.4554 27.9754 17.3481C28.0083 17.2408 28.008 17.126 27.9745 17.0188C27.9409 16.9117 27.8757 16.8172 27.7874 16.7479C27.6992 16.6785 27.592 16.6374 27.4799 16.6302V16.6302Z" fill="#011E41"/>
</svg>
