<svg width="48" height="48" viewBox="0 0 48 48" fill="none" xmlns="http://www.w3.org/2000/svg">
<g clip-path="url(#clip0_74_1420)">
<path d="M43.5036 47.9886C45.9876 47.9886 48.0013 45.9749 48.0013 43.4909C48.0013 41.0069 45.9876 38.9932 43.5036 38.9932C41.0195 38.9932 39.0059 41.0069 39.0059 43.4909C39.0059 45.9749 41.0195 47.9886 43.5036 47.9886Z" fill="#011E41"/>
<path d="M43.5036 35.9944C45.9876 35.9944 48.0013 33.9807 48.0013 31.4967C48.0013 29.0127 45.9876 26.999 43.5036 26.999C41.0195 26.999 39.0059 29.0127 39.0059 31.4967C39.0059 33.9807 41.0195 35.9944 43.5036 35.9944Z" fill="#011E41"/>
<path d="M43.5036 24.0003C45.9876 24.0003 48.0013 21.9866 48.0013 19.5026C48.0013 17.0186 45.9876 15.0049 43.5036 15.0049C41.0195 15.0049 39.0059 17.0186 39.0059 19.5026C39.0059 21.9866 41.0195 24.0003 43.5036 24.0003Z" fill="#011E41"/>
<path d="M31.5094 47.9886C33.9934 47.9886 36.0071 45.9749 36.0071 43.4909C36.0071 41.0069 33.9934 38.9932 31.5094 38.9932C29.0254 38.9932 27.0117 41.0069 27.0117 43.4909C27.0117 45.9749 29.0254 47.9886 31.5094 47.9886Z" fill="#011E41"/>
<path d="M31.5094 35.9944C33.9934 35.9944 36.0071 33.9807 36.0071 31.4967C36.0071 29.0127 33.9934 26.999 31.5094 26.999C29.0254 26.999 27.0117 29.0127 27.0117 31.4967C27.0117 33.9807 29.0254 35.9944 31.5094 35.9944Z" fill="#011E41"/>
<path d="M19.5153 47.9886C21.9993 47.9886 24.013 45.9749 24.013 43.4909C24.013 41.0069 21.9993 38.9932 19.5153 38.9932C17.0313 38.9932 15.0176 41.0069 15.0176 43.4909C15.0176 45.9749 17.0313 47.9886 19.5153 47.9886Z" fill="#011E41"/>
<path d="M7.52113 47.9886C10.0051 47.9886 12.0188 45.9749 12.0188 43.4909C12.0188 41.0069 10.0051 38.9932 7.52113 38.9932C5.03712 38.9932 3.02344 41.0069 3.02344 43.4909C3.02344 45.9749 5.03712 47.9886 7.52113 47.9886Z" fill="#011E41"/>
<path d="M19.5153 35.9944C21.9993 35.9944 24.013 33.9807 24.013 31.4967C24.013 29.0127 21.9993 26.999 19.5153 26.999C17.0313 26.999 15.0176 29.0127 15.0176 31.4967C15.0176 33.9807 17.0313 35.9944 19.5153 35.9944Z" fill="#011E41"/>
<path d="M31.5094 24.0003C33.9934 24.0003 36.0071 21.9866 36.0071 19.5026C36.0071 17.0186 33.9934 15.0049 31.5094 15.0049C29.0254 15.0049 27.0117 17.0186 27.0117 19.5026C27.0117 21.9866 29.0254 24.0003 31.5094 24.0003Z" fill="#011E41"/>
<path d="M43.5036 12.0061C45.9876 12.0061 48.0013 9.99245 48.0013 7.50844C48.0013 5.02443 45.9876 3.01074 43.5036 3.01074C41.0195 3.01074 39.0059 5.02443 39.0059 7.50844C39.0059 9.99245 41.0195 12.0061 43.5036 12.0061Z" fill="#011E41"/>
<path d="M19.0148 6.8372V11.0071C19.0148 11.5372 19.2254 12.0457 19.6003 12.4206C19.9752 12.7954 20.4837 13.006 21.0138 13.006C21.544 13.006 22.0524 12.7954 22.4273 12.4206C22.8022 12.0457 23.0128 11.5372 23.0128 11.0071V2.01167C23.0128 1.48151 22.8022 0.973063 22.4273 0.598182C22.0524 0.223301 21.544 0.0126953 21.0138 0.0126953L12.0184 0.0126953C11.4883 0.0126953 10.9798 0.223301 10.6049 0.598182C10.2301 0.973063 10.0194 1.48151 10.0194 2.01167C10.0194 2.54183 10.2301 3.05028 10.6049 3.42516C10.9798 3.80004 11.4883 4.01065 12.0184 4.01065H16.1883L0.610264 19.5887C0.419341 19.7731 0.267055 19.9936 0.162291 20.2375C0.0575262 20.4814 0.00238193 20.7437 7.54749e-05 21.0091C-0.00223098 21.2746 0.0483465 21.5378 0.148857 21.7835C0.249367 22.0291 0.397797 22.2523 0.585487 22.44C0.773176 22.6277 0.996366 22.7761 1.24203 22.8766C1.4877 22.9771 1.75092 23.0277 2.01635 23.0254C2.28177 23.0231 2.54407 22.968 2.78796 22.8632C3.03184 22.7584 3.25242 22.6061 3.43682 22.4152L19.0148 6.8372Z" fill="#011E41"/>
</g>
<defs>
<clipPath id="clip0_74_1420">
<rect width="48" height="48" fill="white"/>
</clipPath>
</defs>
</svg>
