<svg width="48" height="48" viewBox="0 0 48 48" fill="none" xmlns="http://www.w3.org/2000/svg">
<path d="M38.8982 33.4632C38.9332 33.4652 38.9682 33.4732 39.0042 33.4732C41.39 33.4732 43.6782 32.5255 45.3652 30.8384C47.0522 29.1514 48 26.8633 48 24.4774C48 22.0916 47.0522 19.8035 45.3652 18.1164C43.6782 16.4294 41.39 15.4816 39.0042 15.4816L29.5013 15.4836C29.1035 15.4836 28.7219 15.6417 28.4406 15.923C28.1593 16.2043 28.0012 16.5859 28.0012 16.9838C28.0012 17.3816 28.1593 17.7632 28.4406 18.0445C28.7219 18.3258 29.1035 18.4839 29.5013 18.4839L39.0042 18.4819C40.5943 18.4819 42.1193 19.1136 43.2437 20.2379C44.3681 21.3623 44.9997 22.8873 44.9997 24.4774C44.9997 26.0675 44.3681 27.5925 43.2437 28.7169C42.1193 29.8413 40.5943 30.473 39.0042 30.473C38.9489 30.4755 38.8938 30.4812 38.8392 30.49C38.8042 30.487 38.7692 30.48 38.7332 30.48H35.1339L39.2862 26.3266C39.4336 26.1893 39.5518 26.0236 39.6338 25.8396C39.7158 25.6556 39.7599 25.457 39.7634 25.2555C39.767 25.0541 39.7299 24.854 39.6545 24.6673C39.5791 24.4805 39.4668 24.3108 39.3243 24.1683C39.1819 24.0259 39.0122 23.9136 38.8254 23.8381C38.6386 23.7627 38.4385 23.7256 38.2371 23.7292C38.0357 23.7327 37.837 23.7768 37.653 23.8588C37.469 23.9408 37.3034 24.059 37.166 24.2064L30.4524 30.918C30.313 31.0573 30.2024 31.2227 30.127 31.4048C30.0515 31.5869 30.0127 31.782 30.0127 31.9791C30.0127 32.1762 30.0515 32.3713 30.127 32.5534C30.2024 32.7355 30.313 32.9009 30.4524 33.0402L37.165 39.7528C37.3028 39.8985 37.4683 40.0151 37.6519 40.0957C37.8355 40.1764 38.0334 40.2194 38.2339 40.2222C38.4344 40.225 38.6334 40.1876 38.8192 40.1122C39.005 40.0368 39.1738 39.925 39.3156 39.7832C39.4574 39.6415 39.5694 39.4727 39.6449 39.287C39.7204 39.1012 39.7579 38.9022 39.7551 38.7017C39.7524 38.5012 39.7095 38.3033 39.6289 38.1197C39.5484 37.936 39.4319 37.7704 39.2862 37.6326L35.1339 33.4792H38.7332C38.7884 33.477 38.8435 33.4717 38.8982 33.4632V33.4632ZM29.8004 5.23871C29.553 4.48717 29.0882 3.82587 28.465 3.33845C27.8417 2.85103 27.0879 2.55939 26.2989 2.50039C25.5099 2.4414 24.7211 2.61772 24.0322 3.00704C23.3434 3.39636 22.7855 3.9812 22.4291 4.6876C22.0727 5.394 21.9338 6.19023 22.0299 6.9756C22.126 7.76096 22.4529 8.50018 22.9691 9.09977C23.4854 9.69937 24.1679 10.1324 24.9302 10.3441C25.6926 10.5558 26.5006 10.5367 27.2521 10.2892C28.2597 9.95728 29.0942 9.23875 29.5721 8.29163C30.05 7.34451 30.1321 6.24636 29.8004 5.23871V5.23871ZM20.7366 25.9906L24.6679 18.2009C25.2479 17.0517 25.3475 15.7192 24.9451 14.4966C24.5426 13.2739 23.6709 12.2612 22.5217 11.6813L19.9655 10.3912C19.8295 10.3242 19.6862 10.2732 19.5385 10.2392C16.2322 8.79089 12.4981 8.65786 9.09718 9.8672C5.69625 11.0765 2.88445 13.5372 1.23482 16.7477C0.998266 17.2344 0.961878 17.7944 1.13346 18.3076C1.30505 18.8208 1.67094 19.2464 2.15264 19.4929C2.63434 19.7394 3.19348 19.7874 3.71012 19.6264C4.22675 19.4655 4.65972 19.1084 4.91615 18.6319C5.85885 16.7976 7.34314 15.2979 9.16753 14.3362C10.9919 13.3746 13.068 12.9976 15.1141 13.2564L0.22773 42.445C0.103226 42.6893 0.0280425 42.9556 0.00647252 43.2289C-0.0150975 43.5021 0.0173685 43.777 0.102017 44.0377C0.186665 44.2984 0.321837 44.5399 0.499817 44.7484C0.677796 44.9569 0.895097 45.1283 1.13931 45.2528C1.38353 45.3773 1.64987 45.4525 1.92314 45.4741C2.19641 45.4956 2.47126 45.4632 2.73198 45.3785C2.99271 45.2939 3.2342 45.1587 3.44269 44.9807C3.65117 44.8027 3.82256 44.5854 3.94706 44.3412L12.9899 26.6106L17.4653 28.8708C19.7931 30.1395 21.5314 32.2695 22.3076 34.8045C23.0838 37.3394 22.8361 40.0775 21.6176 42.432C21.486 42.6757 21.4041 42.9432 21.3769 43.2188C21.3496 43.4945 21.3775 43.7728 21.4589 44.0376C21.5403 44.3023 21.6736 44.5482 21.851 44.7609C22.0284 44.9737 22.2464 45.1489 22.4922 45.2766C22.7381 45.4042 23.0069 45.4816 23.2829 45.5043C23.559 45.527 23.8368 45.4945 24.1002 45.4088C24.3635 45.323 24.6072 45.1857 24.817 45.0048C25.0267 44.8239 25.1984 44.6031 25.322 44.3552C26.9232 41.2604 27.3408 37.6878 26.4967 34.3071C25.6526 30.9264 23.6046 27.9695 20.7366 25.9906V25.9906Z" fill="#011E41"/>
</svg>
