<svg width="48" height="48" viewBox="0 0 48 48" fill="none" xmlns="http://www.w3.org/2000/svg">
<path d="M42.089 32.8809C41.8105 32.6024 41.4799 32.3814 41.116 32.2306C40.7521 32.0799 40.3621 32.0023 39.9683 32.0023C39.5744 32.0023 39.1844 32.0799 38.8205 32.2306C38.4566 32.3814 38.126 32.6024 37.8475 32.8809C34.8735 35.7231 31.0554 37.5203 26.9699 38.0013V24.0031H33.969C34.7646 24.0031 35.5275 23.687 36.0901 23.1245C36.6526 22.562 36.9686 21.799 36.9686 21.0035C36.9686 20.2079 36.6526 19.4449 36.0901 18.8824C35.5275 18.3199 34.7646 18.0038 33.969 18.0038H26.9699V11.1947C28.1136 10.5344 29.0075 9.51515 29.5129 8.29504C30.0183 7.07493 30.1069 5.72215 29.7651 4.44652C29.4233 3.17088 28.6701 2.04367 27.6224 1.23972C26.5747 0.435769 25.2909 0 23.9703 0C22.6497 0 21.3659 0.435769 20.3182 1.23972C19.2705 2.04367 18.5173 3.17088 18.1755 4.44652C17.8337 5.72215 17.9224 7.07493 18.4277 8.29504C18.9331 9.51515 19.827 10.5344 20.9707 11.1947V18.0038H13.9716C13.176 18.0038 12.4131 18.3199 11.8505 18.8824C11.288 19.4449 10.972 20.2079 10.972 21.0035C10.972 21.799 11.288 22.562 11.8505 23.1245C12.4131 23.687 13.176 24.0031 13.9716 24.0031H20.9707V38.0013C16.8852 37.5203 13.0671 35.7231 10.0931 32.8809C9.52562 32.3442 8.77116 32.05 7.99013 32.0608C7.2091 32.0717 6.46312 32.3868 5.91079 32.9391C5.35847 33.4914 5.04338 34.2374 5.03252 35.0184C5.02166 35.7995 5.31588 36.5539 5.85263 37.1214C9.95621 41.077 15.2926 43.5052 20.9707 44.0005V45.0004C20.9707 45.7959 21.2867 46.5589 21.8493 47.1214C22.4118 47.684 23.1748 48 23.9703 48C24.7659 48 25.5288 47.684 26.0914 47.1214C26.6539 46.5589 26.9699 45.7959 26.9699 45.0004V44.0005C32.6483 43.5057 37.985 41.0779 42.089 37.1224C42.3675 36.8439 42.5885 36.5133 42.7393 36.1494C42.89 35.7856 42.9676 35.3955 42.9676 35.0017C42.9676 34.6078 42.89 34.2178 42.7393 33.8539C42.5885 33.49 42.3675 33.1594 42.089 32.8809V32.8809ZM23.9703 4.00564C24.3658 4.00564 24.7525 4.12292 25.0813 4.34266C25.4102 4.56239 25.6665 4.87471 25.8178 5.24011C25.9692 5.60552 26.0088 6.0076 25.9316 6.39551C25.8545 6.78343 25.664 7.13975 25.3843 7.41942C25.1047 7.69908 24.7484 7.88954 24.3604 7.9667C23.9725 8.04386 23.5704 8.00426 23.205 7.85291C22.8396 7.70155 22.5273 7.44524 22.3076 7.11638C22.0878 6.78752 21.9706 6.40089 21.9706 6.00538C21.9721 5.4755 22.1833 4.96778 22.558 4.5931C22.9327 4.21842 23.4404 4.00722 23.9703 4.00564V4.00564Z" fill="#011E41"/>
</svg>
