<svg width="48" height="48" viewBox="0 0 48 48" fill="none" xmlns="http://www.w3.org/2000/svg">
<g clip-path="url(#clip0_74_601)">
<path d="M20.001 10C20.001 8.02219 19.4145 6.08879 18.3157 4.4443C17.2169 2.79981 15.6551 1.51809 13.8278 0.761209C12.0006 0.00433284 9.98989 -0.193701 8.05008 0.192152C6.11027 0.578004 4.32844 1.53041 2.92991 2.92894C1.53139 4.32746 0.57898 6.10929 0.193128 8.0491C-0.192724 9.98891 0.0053094 11.9996 0.762186 13.8268C1.51906 15.6541 2.80079 17.2159 4.44528 18.3147C6.08977 19.4135 8.02317 20 10.001 20C12.6528 19.9989 15.1957 18.945 17.0709 17.0699C18.946 15.1948 19.9999 12.6518 20.001 10V10ZM9.00098 4C9.00098 3.73479 9.10634 3.48043 9.29387 3.2929C9.48141 3.10536 9.73576 3 10.001 3C10.2662 3 10.5206 3.10536 10.7081 3.2929C10.8956 3.48043 11.001 3.73479 11.001 4V12C11.001 12.2652 10.8956 12.5196 10.7081 12.7071C10.5206 12.8946 10.2662 13 10.001 13C9.73576 13 9.48141 12.8946 9.29387 12.7071C9.10634 12.5196 9.00098 12.2652 9.00098 12V4ZM9.00098 16C9.00098 15.8022 9.05963 15.6089 9.16951 15.4444C9.27939 15.28 9.43557 15.1518 9.6183 15.0761C9.80102 15.0004 10.0021 14.9806 10.1961 15.0192C10.3901 15.0578 10.5682 15.153 10.7081 15.2929C10.8479 15.4328 10.9432 15.6109 10.9818 15.8049C11.0204 15.9989 11.0005 16.2 10.9249 16.3827C10.8492 16.5654 10.721 16.7216 10.5566 16.8315C10.3921 16.9414 10.1988 17 10.001 17C9.73601 16.9992 9.48211 16.8936 9.29475 16.7062C9.10738 16.5189 9.00177 16.265 9.00098 16Z" fill="#011E41"/>
<path d="M47.1203 33.8778C46.8418 33.5992 46.5112 33.3782 46.1472 33.2274C45.7833 33.0767 45.3933 32.9991 44.9994 32.9991C44.6055 32.9991 44.2154 33.0767 43.8515 33.2274C43.4876 33.3782 43.1569 33.5992 42.8784 33.8778C39.9318 36.8226 36.1193 38.7462 31.9998 39.3666V25.9991H38.9996C39.7952 25.9991 40.5582 25.683 41.1208 25.1205C41.6834 24.5579 41.9995 23.7948 41.9995 22.9992C41.9995 22.2036 41.6834 21.4406 41.1208 20.878C40.5582 20.3154 39.7952 19.9993 38.9996 19.9993H31.9998V12.9996C32.9051 12.5152 33.6621 11.7944 34.1903 10.914C34.7186 10.0336 34.9983 9.02649 34.9997 7.99978C34.9997 6.40854 34.3676 4.88247 33.2424 3.75729C32.1173 2.63212 30.5912 2 29 2C27.4087 2 25.8827 2.63212 24.7575 3.75729C23.6323 4.88247 23.0002 6.40854 23.0002 7.99978C23.0016 9.02649 23.2814 10.0336 23.8096 10.914C24.3378 11.7944 25.0948 12.5152 26.0001 12.9996V19.9993H19.0003C18.2047 19.9993 17.4417 20.3154 16.8791 20.878C16.3165 21.4406 16.0004 22.2036 16.0004 22.9992C16.0004 23.7948 16.3165 24.5579 16.8791 25.1205C17.4417 25.683 18.2047 25.9991 19.0003 25.9991H26.0001V39.3666C21.8805 38.7459 18.068 36.822 15.1215 33.8768C14.8437 33.5946 14.5128 33.3701 14.1479 33.2163C13.7829 33.0626 13.3911 32.9827 12.9951 32.9811C12.5991 32.9795 12.2067 33.0564 11.8406 33.2072C11.4744 33.3581 11.1418 33.5799 10.8618 33.86C10.5818 34.14 10.36 34.4727 10.2093 34.8389C10.0585 35.2051 9.98177 35.5975 9.98342 35.9935C9.98508 36.3895 10.0651 36.7813 10.219 37.1462C10.3728 37.5111 10.5973 37.842 10.8796 38.1196C14.9599 42.2056 20.3065 44.7853 26.0441 45.4364C26.1457 46.1479 26.5006 46.7989 27.0436 47.2699C27.5866 47.7408 28.2812 48.0001 29 48.0001C29.7187 48.0001 30.4134 47.7408 30.9563 47.2699C31.4993 46.7989 31.8542 46.1479 31.9559 45.4364C37.6934 44.7853 43.04 42.2056 47.1203 38.1196C47.3989 37.8412 47.6199 37.5105 47.7706 37.1466C47.9214 36.7827 47.999 36.3926 47.999 35.9987C47.999 35.6048 47.9214 35.2148 47.7706 34.8509C47.6199 34.4869 47.3989 34.1563 47.1203 33.8778V33.8778ZM29 9.9997C28.6044 9.9997 28.2177 9.88241 27.8889 9.66265C27.56 9.4429 27.3036 9.13055 27.1523 8.76511C27.0009 8.39968 26.9613 7.99756 27.0385 7.60961C27.1156 7.22166 27.3061 6.86531 27.5858 6.58561C27.8655 6.30592 28.2218 6.11545 28.6098 6.03828C28.9977 5.96111 29.3999 6.00072 29.7653 6.15209C30.1307 6.30346 30.4431 6.55979 30.6628 6.88868C30.8826 7.21756 30.9999 7.60423 30.9999 7.99978C30.9983 8.5297 30.7871 9.03747 30.4124 9.41219C30.0377 9.7869 29.5299 9.99812 29 9.9997V9.9997Z" fill="#011E41"/>
</g>
<defs>
<clipPath id="clip0_74_601">
<rect width="48" height="48" fill="white"/>
</clipPath>
</defs>
</svg>
