<svg width="48" height="48" viewBox="0 0 48 48" fill="none" xmlns="http://www.w3.org/2000/svg">
<path d="M24.0039 18.546C24.577 18.5461 25.1444 18.4333 25.6739 18.2141C26.2033 17.9949 26.6844 17.6735 27.0896 17.2683C27.4948 16.8631 27.8161 16.382 28.0354 15.8526C28.2546 15.3231 28.3674 14.7557 28.3672 14.1827C28.3672 12.1101 25.1384 7.89951 24.233 6.66688C24.2079 6.62908 24.1739 6.59807 24.1339 6.57662C24.0939 6.55517 24.0493 6.54395 24.0039 6.54395C23.9586 6.54395 23.9139 6.55517 23.8739 6.57662C23.834 6.59807 23.7999 6.62908 23.7748 6.66688C22.8695 7.89951 19.6406 12.1101 19.6406 14.1827C19.6405 14.7557 19.7532 15.3231 19.9725 15.8526C20.1917 16.382 20.5131 16.8631 20.9183 17.2683C21.3235 17.6735 21.8045 17.9949 22.334 18.2141C22.8634 18.4333 23.4309 18.5461 24.0039 18.546V18.546Z" fill="#011E41"/>
<path d="M40.3521 0.00145062H7.64916C7.50433 -0.00618067 7.35949 0.0163579 7.22382 0.067638C7.08815 0.118918 6.96461 0.197821 6.86103 0.299348C6.75745 0.400874 6.6761 0.522809 6.62211 0.657426C6.56813 0.792043 6.5427 0.936406 6.54743 1.08137L10.5835 45.2488C10.6929 46.0324 11.0894 46.7474 11.696 47.2553C12.3027 47.7632 13.0763 48.0277 13.8669 47.9977H34.1344C34.925 48.0277 35.6986 47.7632 36.3052 47.2553C36.9118 46.7474 37.3083 46.0324 37.4177 45.2488L41.4538 1.08137C41.4585 0.936406 41.4331 0.792043 41.3791 0.657426C41.3251 0.522809 41.2438 0.400874 41.1402 0.299348C41.0366 0.197821 40.9131 0.118918 40.7774 0.067638C40.6417 0.0163579 40.4969 -0.00618067 40.3521 0.00145062V0.00145062ZM35.1488 22.0797C34.2145 21.8986 33.2644 21.8109 32.3127 21.8179C30.3075 21.7729 28.321 22.2107 26.5204 23.0942C25.2756 23.7281 23.8916 24.0394 22.4953 23.9996C21.1025 24.0383 19.7223 23.727 18.481 23.0942C16.7238 22.2312 14.7881 21.794 12.8306 21.8179L11.238 4.36475H36.7633L35.1488 22.0797Z" fill="#011E41"/>
</svg>
