<svg width="48" height="48" viewBox="0 0 48 48" fill="none" xmlns="http://www.w3.org/2000/svg">
<path d="M40.3521 0.00145062H7.64916C7.50433 -0.00618067 7.35949 0.0163579 7.22382 0.067638C7.08815 0.118918 6.96461 0.197821 6.86103 0.299348C6.75745 0.400874 6.6761 0.522809 6.62211 0.657426C6.56813 0.792043 6.5427 0.936406 6.54743 1.08137L10.5835 45.2488C10.6929 46.0324 11.0894 46.7474 11.696 47.2553C12.3027 47.7632 13.0763 48.0277 13.8669 47.9977H34.1344C34.925 48.0277 35.6986 47.7632 36.3052 47.2553C36.9118 46.7474 37.3083 46.0324 37.4177 45.2488L41.4538 1.08137C41.4585 0.936406 41.4331 0.792043 41.3791 0.657426C41.3251 0.522809 41.2438 0.400874 41.1402 0.299348C41.0366 0.197821 40.9131 0.118918 40.7774 0.067638C40.6417 0.0163579 40.4969 -0.00618067 40.3521 0.00145062V0.00145062ZM35.1488 22.0797C34.2145 21.8986 33.2644 21.8109 32.3127 21.8179C30.3075 21.7729 28.321 22.2107 26.5204 23.0942C25.2756 23.7281 23.8916 24.0394 22.4953 23.9996C21.1025 24.0383 19.7223 23.727 18.481 23.0942C16.7238 22.2312 14.7881 21.794 12.8306 21.8179L11.238 4.36475H36.7633L35.1488 22.0797Z" fill="#011E41"/>
</svg>
