<svg width="48" height="48" viewBox="0 0 48 48" fill="none" xmlns="http://www.w3.org/2000/svg">
<g clip-path="url(#clip0_74_656)">
<path d="M40.8501 28.49L33.0001 13H15.0001L7.15009 28.49C6.05434 31.0306 5.73834 33.8396 6.24222 36.5602C6.7461 39.2808 8.04713 41.7903 9.98009 43.77C11.2772 45.1163 12.834 46.1854 14.5563 46.9125C16.2787 47.6396 18.1306 48.0095 20.0001 48H28.0001C29.8696 48.0095 31.7215 47.6396 33.4438 46.9125C35.1662 46.1854 36.723 45.1163 38.0201 43.77C39.953 41.7903 41.2541 39.2808 41.7579 36.5602C42.2618 33.8396 41.9458 31.0306 40.8501 28.49V28.49ZM30.5601 35.44C30.7003 35.5787 30.8115 35.7437 30.8875 35.9257C30.9634 36.1076 31.0025 36.3028 31.0025 36.5C31.0025 36.6972 30.9634 36.8924 30.8875 37.0743C30.8115 37.2563 30.7003 37.4213 30.5601 37.56C30.421 37.6994 30.2558 37.8101 30.0739 37.8856C29.892 37.9611 29.697 37.9999 29.5001 37.9999C29.3032 37.9999 29.1081 37.9611 28.9263 37.8856C28.7444 37.8101 28.5792 37.6994 28.4401 37.56L24.0001 33.12L19.5601 37.56C19.421 37.6994 19.2558 37.8101 19.0739 37.8856C18.892 37.9611 18.697 37.9999 18.5001 37.9999C18.3032 37.9999 18.1081 37.9611 17.9263 37.8856C17.7444 37.8101 17.5792 37.6994 17.4401 37.56C17.2999 37.4213 17.1886 37.2563 17.1127 37.0743C17.0368 36.8924 16.9976 36.6972 16.9976 36.5C16.9976 36.3028 17.0368 36.1076 17.1127 35.9257C17.1886 35.7437 17.2999 35.5787 17.4401 35.44L21.8801 31L17.4401 26.56C17.1751 26.2756 17.0309 25.8996 17.0377 25.511C17.0446 25.1224 17.202 24.7516 17.4768 24.4768C17.7517 24.2019 18.1224 24.0445 18.511 24.0376C18.8996 24.0308 19.2757 24.175 19.5601 24.44L24.0001 28.88L28.4401 24.44C28.7244 24.175 29.1005 24.0308 29.4891 24.0376C29.8777 24.0445 30.2485 24.2019 30.5233 24.4768C30.7982 24.7516 30.9556 25.1224 30.9624 25.511C30.9693 25.8996 30.825 26.2756 30.5601 26.56L26.1201 31L30.5601 35.44ZM14.9941 11H22.9971L21.3471 3.566C21.2484 3.12204 21.0013 2.72498 20.6467 2.44029C20.292 2.15561 19.8509 2.00031 19.3961 2H13.9961C13.8463 1.99988 13.6983 2.03342 13.5632 2.09815C13.4281 2.16288 13.3092 2.25714 13.2155 2.37398C13.1217 2.49081 13.0553 2.62722 13.0213 2.77314C12.9873 2.91906 12.9866 3.07075 13.0191 3.217L14.9941 11ZM29.0011 11H32.9991L34.9831 1.18C35.0087 1.03542 35.0022 0.88699 34.9643 0.745157C34.9263 0.603325 34.8577 0.471532 34.7634 0.359051C34.669 0.24657 34.5511 0.156133 34.418 0.0941005C34.285 0.0320684 34.1399 -5.15982e-05 33.9931 6.22175e-08H31.0021C30.4734 0.00671524 29.9681 0.219461 29.5939 0.592976C29.2196 0.966492 29.0059 1.4713 28.9981 2C28.9934 1.47256 28.7824 0.96791 28.4103 0.5941C28.0382 0.220291 27.5345 0.00703668 27.0071 6.22175e-08H24.0071C23.8603 -5.15982e-05 23.7152 0.0320684 23.5821 0.0941005C23.4491 0.156133 23.3312 0.24657 23.2368 0.359051C23.1424 0.471532 23.0739 0.603325 23.0359 0.745157C22.9979 0.88699 22.9915 1.03542 23.0171 1.18L24.9971 11H29.0011Z" fill="#011E41"/>
</g>
<defs>
<clipPath id="clip0_74_656">
<rect width="48" height="48" fill="white"/>
</clipPath>
</defs>
</svg>
