<svg width="48" height="48" viewBox="0 0 48 48" fill="none" xmlns="http://www.w3.org/2000/svg">
<path d="M36 13H32V2C32 1.46957 31.7893 0.960859 31.4142 0.585786C31.0391 0.210714 30.5304 0 30 0C29.4696 0 28.9609 0.210714 28.5858 0.585786C28.2107 0.960859 28 1.46957 28 2V13H20V2C20 1.46957 19.7893 0.960859 19.4142 0.585786C19.0391 0.210714 18.5304 0 18 0C17.4696 0 16.9609 0.210714 16.5858 0.585786C16.2107 0.960859 16 1.46957 16 2V13H12C11.7348 13 11.4804 13.1054 11.2929 13.2929C11.1054 13.4804 11 13.7348 11 14V22C11.0178 24.4364 11.6733 26.8257 12.9014 28.93C14.1296 31.0343 15.8874 32.7802 18 33.994V37C18 37.2652 18.1054 37.5196 18.2929 37.7071C18.4804 37.8946 18.7348 38 19 38H21V48H27V38H29C29.2652 38 29.5196 37.8946 29.7071 37.7071C29.8946 37.5196 30 37.2652 30 37V33.994C32.1126 32.7802 33.8704 31.0343 35.0986 28.93C36.3267 26.8257 36.9822 24.4364 37 22V14C37 13.7348 36.8946 13.4804 36.7071 13.2929C36.5196 13.1054 36.2652 13 36 13Z" fill="#011E41"/>
</svg>
