<svg width="48" height="48" viewBox="0 0 48 48" fill="none" xmlns="http://www.w3.org/2000/svg">
<path d="M32 18.0204V18.0004L30.88 11.3504C30.8657 11.0054 30.7256 10.6776 30.486 10.4288C30.2465 10.1801 29.9242 10.0277 29.58 10.0004H22.84C22.8162 9.99878 22.7924 10.0022 22.77 10.0104L22.764 10.0114C19.3597 10.0752 16.1162 11.4712 13.7296 13.8997C11.343 16.3282 10.0037 19.5955 9.99902 23.0004C9.99902 23.5308 10.2097 24.0395 10.5848 24.4146C10.9599 24.7897 11.4686 25.0004 11.999 25.0004C12.5295 25.0004 13.0382 24.7897 13.4132 24.4146C13.7883 24.0395 13.999 23.5308 13.999 23.0004C14.0205 20.9409 14.7169 18.9452 15.9815 17.3196C17.2461 15.6939 19.0091 14.5279 21 14.0004L16.03 34.1904C15.9729 34.3889 15.9596 34.5974 15.991 34.8015C16.0224 35.0056 16.0978 35.2005 16.2119 35.3726C16.326 35.5447 16.4762 35.69 16.652 35.7984C16.8278 35.9068 17.025 35.9757 17.23 36.0004H21V46.0004C21 46.5308 21.2107 47.0395 21.5858 47.4146C21.9609 47.7897 22.4696 48.0004 23 48.0004C23.5305 48.0004 24.0392 47.7897 24.4142 47.4146C24.7893 47.0395 25 46.5308 25 46.0004V36.0004H27V46.0004C27 46.5308 27.2107 47.0395 27.5858 47.4146C27.9609 47.7897 28.4696 48.0004 29 48.0004C29.5305 48.0004 30.0392 47.7897 30.4142 47.4146C30.7893 47.0395 31 46.5308 31 46.0004V34.8004C31.8944 33.9906 32.5191 32.9261 32.79 31.7504C34.3513 31.3337 35.721 30.3912 36.6682 29.0819C37.6153 27.7727 38.0818 26.1768 37.989 24.5635C37.8961 22.9503 37.2497 21.4184 36.1586 20.2264C35.0676 19.0344 33.5988 18.2553 32 18.0204V18.0204ZM34.36 25.8404L34.1 26.1104L32.75 27.5104L31.52 28.7804C31.4525 28.8501 31.3717 28.9055 31.2824 28.9433C31.1931 28.9811 31.097 29.0006 31 29.0006C30.903 29.0006 30.807 28.9811 30.7177 28.9433C30.6283 28.9055 30.5475 28.8501 30.48 28.7804L29.02 27.2704L27.9 26.1104L27.64 25.8404C27.2214 25.3999 26.9922 24.8128 27.0015 24.2052C27.0109 23.5976 27.2581 23.0178 27.69 22.5904C27.9015 22.3929 28.15 22.2392 28.4212 22.1382C28.6924 22.0373 28.9809 21.9911 29.27 22.0022C29.5592 22.0134 29.8433 22.0817 30.1059 22.2033C30.3685 22.3248 30.6044 22.4972 30.8 22.7104L31 22.9104L31.2 22.7104C31.4568 22.4403 31.7762 22.2376 32.13 22.1204C32.5013 21.989 32.9017 21.9634 33.2866 22.0464C33.6716 22.1294 34.0259 22.3178 34.31 22.5904C34.742 23.0178 34.9892 23.5976 34.9985 24.2052C35.0078 24.8128 34.7786 25.3999 34.36 25.8404V25.8404Z" fill="#011E41"/>
<path d="M27 8C29.2091 8 31 6.20914 31 4C31 1.79086 29.2091 0 27 0C24.7909 0 23 1.79086 23 4C23 6.20914 24.7909 8 27 8Z" fill="#011E41"/>
</svg>
