<svg width="48" height="48" viewBox="0 0 48 48" fill="none" xmlns="http://www.w3.org/2000/svg">
<path fill-rule="evenodd" clip-rule="evenodd" d="M13.4128 35.5741C13.0382 35.1996 12.5301 34.9892 12.0003 34.9892C11.4705 34.9892 10.9624 35.1996 10.5877 35.5741L7.50489 38.657L4.42204 35.5741C4.04522 35.2102 3.54054 35.0088 3.01668 35.0134C2.49282 35.0179 1.99171 35.2281 1.62127 35.5985C1.25084 35.9689 1.04071 36.47 1.03616 36.9939C1.03161 37.5178 1.23299 38.0224 1.59694 38.3993L4.67978 41.4821L1.59694 44.5649C1.40611 44.7492 1.2539 44.9697 1.14919 45.2135C1.04448 45.4572 0.989365 45.7194 0.987059 45.9847C0.984754 46.25 1.03531 46.5131 1.13576 46.7586C1.23622 47.0041 1.38458 47.2272 1.57217 47.4148C1.75976 47.6024 1.98284 47.7508 2.22838 47.8512C2.47392 47.9517 2.73701 48.0022 3.0023 47.9999C3.26759 47.9976 3.52976 47.9425 3.77352 47.8378C4.01727 47.7331 4.23774 47.5809 4.42204 47.3901L7.50489 44.3072L10.5877 47.3901C10.9645 47.754 11.4692 47.9554 11.9931 47.9508C12.517 47.9463 13.0181 47.7362 13.3885 47.3657C13.7589 46.9953 13.9691 46.4942 13.9736 45.9703C13.9782 45.4464 13.7768 44.9418 13.4128 44.5649L10.33 41.4821L13.4128 38.3993C13.7874 38.0246 13.9978 37.5165 13.9978 36.9867C13.9978 36.4569 13.7874 35.9488 13.4128 35.5741ZM12.5857 17.5926L6.00642 24.1718L3.42307 21.5885C3.04625 21.2245 2.54156 21.0231 2.0177 21.0277C1.49385 21.0322 0.992734 21.2424 0.622297 21.6128C0.25186 21.9832 0.0417371 22.4844 0.0371849 23.0082C0.0326327 23.5321 0.234015 24.0368 0.597959 24.4136L4.59387 28.4095C4.96854 28.784 5.47663 28.9945 6.00642 28.9945C6.53621 28.9945 7.0443 28.784 7.41897 28.4095L15.4108 20.4177C15.7747 20.0408 15.9761 19.5362 15.9716 19.0123C15.967 18.4884 15.7569 17.9873 15.3865 17.6169C15.016 17.2465 14.5149 17.0363 13.991 17.0318C13.4672 17.0272 12.9625 17.2286 12.5857 17.5926ZM44.9665 22.002H22.989C22.1942 22.002 21.4319 22.3178 20.8699 22.8798C20.3078 23.4419 19.9921 24.2041 19.9921 24.999C19.9921 25.7938 20.3078 26.5561 20.8699 27.1181C21.4319 27.6802 22.1942 27.9959 22.989 27.9959H44.9665C45.7614 27.9959 46.5236 27.6802 47.0857 27.1181C47.6477 26.5561 47.9635 25.7938 47.9635 24.999C47.9635 24.2041 47.6477 23.4419 47.0857 22.8798C46.5236 22.3178 45.7614 22.002 44.9665 22.002ZM12.5857 0.609952L6.00642 7.18921L3.42307 4.60586C3.04625 4.24192 2.54156 4.04053 2.0177 4.04509C1.49385 4.04964 0.992734 4.25976 0.622297 4.6302C0.25186 5.00063 0.0417371 5.50175 0.0371849 6.0256C0.0326327 6.54946 0.234015 7.05415 0.597959 7.43097L4.59387 11.4269C4.96854 11.8014 5.47663 12.0118 6.00642 12.0118C6.53621 12.0118 7.0443 11.8014 7.41897 11.4269L15.4108 3.43506C15.6016 3.25075 15.7538 3.03029 15.8585 2.78653C15.9632 2.54277 16.0184 2.2806 16.0207 2.01532C16.023 1.75003 15.9724 1.48694 15.872 1.2414C15.7715 0.995856 15.6231 0.772781 15.4356 0.585187C15.248 0.397594 15.0249 0.24924 14.7793 0.148781C14.5338 0.0483218 14.2707 -0.00222984 14.0054 7.54363e-05C13.7401 0.00238071 13.478 0.0574967 13.2342 0.162208C12.9905 0.266918 12.77 0.419127 12.5857 0.609952V0.609952ZM22.989 11.0133H44.9665C45.7614 11.0133 46.5236 10.6976 47.0857 10.1355C47.6477 9.57348 47.9635 8.8112 47.9635 8.01637C47.9635 7.22153 47.6477 6.45925 47.0857 5.89722C46.5236 5.33518 45.7614 5.01944 44.9665 5.01944H22.989C22.1942 5.01944 21.4319 5.33518 20.8699 5.89722C20.3078 6.45925 19.9921 7.22153 19.9921 8.01637C19.9921 8.8112 20.3078 9.57348 20.8699 10.1355C21.4319 10.6976 22.1942 11.0133 22.989 11.0133ZM44.9665 38.9847H22.989C22.1942 38.9847 21.4319 39.3004 20.8699 39.8624C20.3078 40.4245 19.9921 41.1868 19.9921 41.9816C19.9921 42.7764 20.3078 43.5387 20.8699 44.1007C21.4319 44.6628 22.1942 44.9785 22.989 44.9785H44.9665C45.7614 44.9785 46.5236 44.6628 47.0857 44.1007C47.6477 43.5387 47.9635 42.7764 47.9635 41.9816C47.9635 41.1868 47.6477 40.4245 47.0857 39.8624C46.5236 39.3004 45.7614 38.9847 44.9665 38.9847Z" fill="#011E41"/>
</svg>
