<svg width="48" height="48" viewBox="0 0 48 48" fill="none" xmlns="http://www.w3.org/2000/svg">
<path d="M43.9991 19.9683H13.6561L20.8281 12.7963C21.5644 12.0433 21.9739 11.0304 21.9679 9.97726C21.9619 8.92417 21.5409 7.91592 20.7962 7.17132C20.0514 6.42673 19.0431 6.00586 17.99 6.00006C16.9369 5.99426 15.924 6.404 15.1711 7.14034L1.17115 21.1403C0.421262 21.8905 0 22.9077 0 23.9683C0 25.029 0.421262 26.0462 1.17115 26.7963L15.1711 40.7963C15.541 41.1746 15.9822 41.4758 16.4693 41.6824C16.9563 41.889 17.4795 41.9969 18.0086 41.9999C18.5376 42.0029 19.062 41.901 19.5514 41.6999C20.0407 41.4989 20.4853 41.2027 20.8595 40.8287C21.2336 40.4546 21.5298 40.01 21.7309 39.5207C21.9321 39.0314 22.0341 38.507 22.0312 37.978C22.0283 37.4489 21.9205 36.9257 21.714 36.4386C21.5075 35.9515 21.2064 35.5103 20.8281 35.1403L13.6561 27.9683H43.9991C45.06 27.9683 46.0774 27.5469 46.8276 26.7968C47.5777 26.0466 47.9991 25.0292 47.9991 23.9683C47.9991 22.9075 47.5777 21.8901 46.8276 21.1399C46.0774 20.3898 45.06 19.9683 43.9991 19.9683V19.9683Z" fill="#011E41"/>
</svg>
