<svg width="48" height="48" viewBox="0 0 48 48" fill="none" xmlns="http://www.w3.org/2000/svg">
<path d="M44 4C44 3.448 43.311 3 42.462 3H5.538C4.688 3 4 3.448 4 4V7H44V4ZM46 9H2C1.47005 9.00158 0.962265 9.2128 0.587535 9.58753C0.212805 9.96227 0.00158273 10.4701 0 11L0 26.96C0.00158273 27.4899 0.212805 27.9977 0.587535 28.3725C0.962265 28.7472 1.47005 28.9584 2 28.96H8V18.99H40V28.96H46C46.5299 28.9584 47.0377 28.7472 47.4125 28.3725C47.7872 27.9977 47.9984 27.4899 48 26.96V11C47.9984 10.4701 47.7872 9.96227 47.4125 9.58753C47.0377 9.2128 46.5299 9.00158 46 9ZM31 16C30.6044 16 30.2178 15.8827 29.8889 15.6629C29.56 15.4432 29.3036 15.1308 29.1522 14.7654C29.0009 14.3999 28.9613 13.9978 29.0384 13.6098C29.1156 13.2219 29.3061 12.8655 29.5858 12.5858C29.8655 12.3061 30.2219 12.1156 30.6098 12.0384C30.9978 11.9613 31.3999 12.0009 31.7654 12.1522C32.1308 12.3036 32.4432 12.56 32.6629 12.8889C32.8827 13.2178 33 13.6044 33 14C32.9984 14.5299 32.7872 15.0377 32.4125 15.4125C32.0377 15.7872 31.5299 15.9984 31 16ZM38 16C37.6044 16 37.2178 15.8827 36.8889 15.6629C36.56 15.4432 36.3036 15.1308 36.1522 14.7654C36.0009 14.3999 35.9613 13.9978 36.0384 13.6098C36.1156 13.2219 36.3061 12.8655 36.5858 12.5858C36.8655 12.3061 37.2219 12.1156 37.6098 12.0384C37.9978 11.9613 38.3999 12.0009 38.7654 12.1522C39.1308 12.3036 39.4432 12.56 39.6629 12.8889C39.8827 13.2178 40 13.6044 40 14C39.9984 14.5299 39.7872 15.0377 39.4125 15.4125C39.0377 15.7872 38.5299 15.9984 38 16Z" fill="#011E41"/>
<path d="M10 28.9602V44.0002C10.0008 44.2652 10.1064 44.5191 10.2938 44.7065C10.4811 44.8938 10.735 44.9994 11 45.0002H37C37.265 44.9994 37.5189 44.8938 37.7062 44.7065C37.8936 44.5191 37.9992 44.2652 38 44.0002V20.9902H10V28.9602ZM34 38.0002H14C13.7348 38.0002 13.4804 37.8949 13.2929 37.7073C13.1054 37.5198 13 37.2655 13 37.0002C13 36.735 13.1054 36.4807 13.2929 36.2931C13.4804 36.1056 13.7348 36.0002 14 36.0002H34C34.2652 36.0002 34.5196 36.1056 34.7071 36.2931C34.8946 36.4807 35 36.735 35 37.0002C35 37.2655 34.8946 37.5198 34.7071 37.7073C34.5196 37.8949 34.2652 38.0002 34 38.0002ZM34 32.0002H14C13.7348 32.0002 13.4804 31.8949 13.2929 31.7073C13.1054 31.5198 13 31.2655 13 31.0002C13 30.735 13.1054 30.4807 13.2929 30.2931C13.4804 30.1056 13.7348 30.0002 14 30.0002H34C34.2652 30.0002 34.5196 30.1056 34.7071 30.2931C34.8946 30.4807 35 30.735 35 31.0002C35 31.2655 34.8946 31.5198 34.7071 31.7073C34.5196 31.8949 34.2652 32.0002 34 32.0002Z" fill="#011E41"/>
</svg>
