<svg width="48" height="48" viewBox="0 0 48 48" fill="none" xmlns="http://www.w3.org/2000/svg">
<g clip-path="url(#clip0_210_19)">
<path fill-rule="evenodd" clip-rule="evenodd" d="M24.2248 0.0258341L41.8423 3.12898C42.103 3.17875 42.3381 3.31786 42.5072 3.52236C42.6762 3.72685 42.7687 3.98391 42.7686 4.24925V27.3221C42.7686 38.5956 34.4376 48 24.0068 48C13.576 48 5.23145 38.5956 5.23145 27.3221V4.24925C5.23135 3.98391 5.32381 3.72685 5.49288 3.52236C5.66196 3.31786 5.89707 3.17875 6.1577 3.12898L23.7898 0.0258341C23.9328 -0.00861136 24.0819 -0.00861136 24.2248 0.0258341ZM19.5455 20.48C19.5455 18.0132 21.5472 16 24 16C24.0776 16.0014 24.1542 16.0171 24.2262 16.0462C26.5687 16.1719 28.4545 18.0938 28.4545 20.48V21.76H29.7273C30.4305 21.76 31 22.3328 31 23.04V30.72C31 31.4272 30.4305 32 29.7273 32H18.2727C17.5695 32 17 31.4272 17 30.72V23.04C17 22.3328 17.5695 21.76 18.2727 21.76H19.5455V20.48ZM27.1818 20.48C27.1818 18.7049 25.7651 17.28 24 17.28C22.2349 17.28 20.8182 18.7049 20.8182 20.48V21.76H27.1818V20.48Z" fill="#011E41"/>
</g>
<defs>
<clipPath id="clip0_210_19">
<rect width="48" height="48" fill="white"/>
</clipPath>
</defs>
</svg>
