<svg width="48" height="41" viewBox="0 0 48 41" fill="none" xmlns="http://www.w3.org/2000/svg">
<path d="M41.007 0H27.0245C25.1703 0 23.392 0.742766 22.0809 2.0649C20.7698 3.38703 20.0332 5.18022 20.0332 7.05V10.0714C22.4164 10.0741 24.7012 11.0299 26.3863 12.7292C28.0715 14.4285 29.0193 16.7325 29.022 19.1357V24.1714H35.0145L39.8135 29.0108C39.9113 29.1094 40.0359 29.1765 40.1715 29.2037C40.3071 29.2309 40.4477 29.217 40.5755 29.1636C40.7032 29.1102 40.8124 29.0199 40.8892 28.9039C40.966 28.788 41.007 28.6517 41.007 28.5122V24.1714C42.8612 24.1714 44.6395 23.4287 45.9506 22.1065C47.2617 20.7844 47.9983 18.9912 47.9983 17.1214V7.05C47.9983 5.18022 47.2617 3.38703 45.9506 2.0649C44.6395 0.742766 42.8612 0 41.007 0Z" fill="#011E41"/>
<path d="M19.9063 35.0372H11.9438L7.16128 39.8636C7.06384 39.9619 6.9397 40.0289 6.80454 40.056C6.66938 40.0832 6.52929 40.0692 6.40197 40.016C6.27466 39.9628 6.16584 39.8727 6.08928 39.757C6.01273 39.6414 5.97187 39.5054 5.97188 39.3664V35.0372C4.38804 35.0372 2.86907 34.4022 1.74912 33.272C0.629179 32.1418 0 30.6088 0 29.0105L0 18.9659C0 17.3675 0.629179 15.8346 1.74912 14.7044C2.86907 13.5742 4.38804 12.9392 5.97188 12.9392H19.9063C21.4901 12.9392 23.0091 13.5742 24.129 14.7044C25.249 15.8346 25.8782 17.3675 25.8782 18.9659V29.0105C25.8782 30.6088 25.249 32.1418 24.129 33.272C23.0091 34.4022 21.4901 35.0372 19.9063 35.0372Z" fill="#011E41"/>
<path d="M10.9365 21.7818V17.5303H15.188V21.7818H19.4468V26.0406H15.188V30.2921H10.9365V26.0406H6.67773V21.7818H10.9365Z" fill="white"/>
<path d="M31.9313 6.46924L39.653 7.72141L40.4878 12.104L34.227 18.3648C26.4109 11.1478 25.7785 8.49985 31.9313 6.46924Z" fill="white"/>
<path d="M36.0554 5.16288L34.7858 3.33941C34.6944 3.31682 34.4198 4.59529 33.5267 4.12804L32.6453 6.01404C32.4784 6.04675 31.338 4.59539 27.3696 6.39499C26.713 6.01411 26.7128 7.41675 26.7129 8.26586L28.3 15.282C30.656 16.7963 30.0684 18.1152 34.7858 18.7825C38.4855 15.5658 39.4655 14.8101 40.8864 12.5402L41.7389 10.2702C40.318 9.86267 40.0549 9.05602 40.6022 6.01404C39.0697 7.59136 38.1797 6.7026 38.0446 5.16288H36.0554ZM39.0463 12.9021L38.5339 13.4206L34.4198 17.8314C34.3853 17.8671 34.3443 17.8955 34.299 17.9148C34.2538 17.9342 34.2053 17.9441 34.1563 17.9441C34.1073 17.9441 34.0588 17.9342 34.0135 17.9148C33.9683 17.8955 33.9273 17.8671 33.8928 17.8314L29.7787 13.4206L29.2663 12.9021C28.9643 12.6021 28.7234 12.2436 28.5575 11.8473C28.3916 11.4509 28.3041 11.0247 28.3 10.5934C28.2959 10.1621 28.3754 9.7342 28.5337 9.33463C28.692 8.93507 28.9261 8.57178 29.2224 8.26585C29.7973 7.71794 30.5534 7.41447 31.338 7.41675C32.1563 7.41675 32.942 7.74585 33.5267 8.33348L34.1563 8.9271L34.7858 8.33348C35.3706 7.74585 36.1563 7.41675 36.9746 7.41675C37.7591 7.41447 38.5153 7.71794 39.0902 8.26585C39.3865 8.57178 39.6206 8.93507 39.7789 9.33463C39.9372 9.7342 40.0167 10.1621 40.0126 10.5934C40.0085 11.0247 39.921 11.4509 39.7551 11.8473C39.5892 12.2436 39.3483 12.6021 39.0463 12.9021Z" fill="#011E41"/>
</svg>
