<svg width="48" height="26" viewBox="0 0 48 26" fill="none" xmlns="http://www.w3.org/2000/svg">
<path d="M47.2168 21.3913C47.4244 21.3913 47.6234 21.3089 47.7702 21.1621C47.917 21.0153 47.9994 20.8163 47.9994 20.6087C47.9994 20.4011 47.917 20.2021 47.7702 20.0553C47.6234 19.9085 47.4244 19.8261 47.2168 19.8261H45.3907V18.7826H47.2168C47.4244 18.7826 47.6234 18.7002 47.7702 18.5534C47.917 18.4066 47.9994 18.2076 47.9994 18C47.9994 17.7924 47.917 17.5934 47.7702 17.4466C47.6234 17.2998 47.4244 17.2174 47.2168 17.2174H45.3907V16.1739H46.4342C46.7107 16.1731 46.9756 16.0629 47.1711 15.8674C47.3666 15.6719 47.4768 15.4069 47.4777 15.1304V1.04348C47.4768 0.766985 47.3666 0.502051 47.1711 0.30654C46.9756 0.111029 46.7107 0.000825771 46.4342 0L30.782 0C30.5055 0.000825771 30.2406 0.111029 30.0451 0.30654C29.8496 0.502051 29.7394 0.766985 29.7385 1.04348V15.1304C29.7394 15.4069 29.8496 15.6719 30.0451 15.8674C30.2406 16.0629 30.5055 16.1731 30.782 16.1739H31.8255V17.2174H29.9994C29.7918 17.2174 29.5928 17.2998 29.446 17.4466C29.2993 17.5934 29.2168 17.7924 29.2168 18C29.2168 18.2076 29.2993 18.4066 29.446 18.5534C29.5928 18.7002 29.7918 18.7826 29.9994 18.7826H31.8255V19.8261H29.9994C29.7918 19.8261 29.5928 19.9085 29.446 20.0553C29.2993 20.2021 29.2168 20.4011 29.2168 20.6087C29.2168 20.8163 29.2993 21.0153 29.446 21.1621C29.5928 21.3089 29.7918 21.3913 29.9994 21.3913H31.8255V22.4348H29.9994C29.7918 22.4348 29.5928 22.5172 29.446 22.664C29.2993 22.8108 29.2168 23.0098 29.2168 23.2174C29.2168 23.425 29.2993 23.624 29.446 23.7708C29.5928 23.9175 29.7918 24 29.9994 24H31.8255V24.2609C31.8255 24.4684 31.9079 24.6675 32.0547 24.8143C32.2015 24.961 32.4005 25.0435 32.6081 25.0435C32.8157 25.0435 33.0147 24.961 33.1615 24.8143C33.3083 24.6675 33.3907 24.4684 33.3907 24.2609V24H43.8255V24.2609C43.8255 24.4684 43.9079 24.6675 44.0547 24.8143C44.2015 24.961 44.4005 25.0435 44.6081 25.0435C44.8157 25.0435 45.0147 24.961 45.1615 24.8143C45.3083 24.6675 45.3907 24.4684 45.3907 24.2609V24H47.2168C47.4244 24 47.6234 23.9175 47.7702 23.7708C47.917 23.624 47.9994 23.425 47.9994 23.2174C47.9994 23.0098 47.917 22.8108 47.7702 22.664C47.6234 22.5172 47.4244 22.4348 47.2168 22.4348H45.3907V21.3913H47.2168ZM43.8255 16.1739V17.2174H33.3907V16.1739H43.8255ZM43.8255 18.7826V19.8261H33.3907V18.7826H43.8255ZM43.8255 21.3913V22.4348H33.3907V21.3913H43.8255ZM44.869 14.6087C44.6626 14.6087 44.4608 14.5475 44.2892 14.4328C44.1176 14.3182 43.9839 14.1552 43.9049 13.9645C43.8259 13.7739 43.8053 13.5641 43.8455 13.3616C43.8858 13.1592 43.9852 12.9733 44.1311 12.8274C44.2771 12.6814 44.463 12.5821 44.6654 12.5418C44.8678 12.5015 45.0776 12.5222 45.2683 12.6012C45.459 12.6801 45.6219 12.8139 45.7366 12.9855C45.8512 13.1571 45.9124 13.3588 45.9124 13.5652C45.9116 13.8417 45.8014 14.1066 45.6059 14.3022C45.4104 14.4977 45.1455 14.6079 44.869 14.6087ZM31.3038 3.65217C31.3042 3.51393 31.3593 3.38146 31.457 3.2837C31.5548 3.18595 31.6872 3.13085 31.8255 3.13043H45.3907C45.529 3.13085 45.6614 3.18595 45.7592 3.2837C45.8569 3.38146 45.912 3.51393 45.9124 3.65217V9.91304C45.912 10.0513 45.8569 10.1838 45.7592 10.2815C45.6614 10.3793 45.529 10.4344 45.3907 10.4348H31.8255C31.6872 10.4344 31.5548 10.3793 31.457 10.2815C31.3593 10.1838 31.3042 10.0513 31.3038 9.91304V3.65217ZM31.3038 13.5652C31.3038 13.3588 31.365 13.1571 31.4796 12.9855C31.5943 12.8139 31.7572 12.6801 31.9479 12.6012C32.1386 12.5222 32.3484 12.5015 32.5508 12.5418C32.7532 12.5821 32.9391 12.6814 33.0851 12.8274C33.231 12.9733 33.3304 13.1592 33.3707 13.3616C33.4109 13.5641 33.3903 13.7739 33.3113 13.9645C33.2323 14.1552 33.0986 14.3182 32.927 14.4328C32.7554 14.5475 32.5536 14.6087 32.3472 14.6087C32.0707 14.6079 31.8058 14.4977 31.6103 14.3022C31.4148 14.1066 31.3046 13.8417 31.3038 13.5652Z" fill="#011E41"/>
<path d="M21.7549 3.5415H21.249V1.56838C21.2469 1.15308 21.081 0.755386 20.7873 0.461718C20.4936 0.16805 20.0959 0.00212708 19.6806 0L2.58024 0C2.16493 0.00212708 1.76724 0.16805 1.47358 0.461718C1.17991 0.755386 1.01398 1.15308 1.01186 1.56838V3.5415H0.505929C0.371871 3.5419 0.243419 3.59533 0.148625 3.69013C0.053832 3.78492 0.000400374 3.91337 0 4.04743L0 10.1186C0.000400374 10.2526 0.053832 10.3811 0.148625 10.4759C0.243419 10.5707 0.371871 10.6241 0.505929 10.6245H1.01186V18.6688C1.01308 19.0752 1.17198 19.4653 1.45509 19.7569C1.73821 20.0485 2.12343 20.2189 2.52964 20.2321V20.996C2.52964 21.3315 2.6629 21.6532 2.9001 21.8904C3.1373 22.1276 3.45901 22.2609 3.79447 22.2609C4.12992 22.2609 4.45163 22.1276 4.68883 21.8904C4.92603 21.6532 5.05929 21.3315 5.05929 20.996V20.2372H17.7075V20.996C17.7075 21.3315 17.8408 21.6532 18.078 21.8904C18.3152 22.1276 18.6369 22.2609 18.9723 22.2609C19.3078 22.2609 19.6295 22.1276 19.8667 21.8904C20.1039 21.6532 20.2372 21.3315 20.2372 20.996V20.136C20.5333 20.0209 20.7882 19.8195 20.9686 19.5579C21.149 19.2963 21.2467 18.9865 21.249 18.6688V10.6245H21.7549C21.889 10.6241 22.0175 10.5707 22.1122 10.4759C22.207 10.3811 22.2605 10.2526 22.2609 10.1186V4.04743C22.2605 3.91337 22.207 3.78492 22.1122 3.69013C22.0175 3.59533 21.889 3.5419 21.7549 3.5415V3.5415ZM2.52964 2.02372C2.53004 1.88966 2.58348 1.76121 2.67827 1.66641C2.77306 1.57162 2.90152 1.51819 3.03557 1.51779H19.2253C19.3594 1.51819 19.4878 1.57162 19.5826 1.66641C19.6774 1.76121 19.7308 1.88966 19.7312 2.02372V2.52964C19.7308 2.6637 19.6774 2.79215 19.5826 2.88695C19.4878 2.98174 19.3594 3.03517 19.2253 3.03557H3.03557C2.90152 3.03517 2.77306 2.98174 2.67827 2.88695C2.58348 2.79215 2.53004 2.6637 2.52964 2.52964V2.02372ZM4.55336 17.9605C4.33437 18.1246 4.06812 18.2133 3.79447 18.2134C3.52199 18.2157 3.2566 18.1266 3.04063 17.9605C2.82844 17.8017 2.67162 17.5801 2.5924 17.3272C2.51319 17.0742 2.51559 16.8028 2.59928 16.5513C2.68297 16.2998 2.84369 16.0811 3.05866 15.926C3.27364 15.771 3.53196 15.6876 3.797 15.6876C4.06204 15.6876 4.32035 15.771 4.53533 15.926C4.7503 16.0811 4.91102 16.2998 4.99471 16.5513C5.0784 16.8028 5.08081 17.0742 5.00159 17.3272C4.92237 17.5801 4.76555 17.8017 4.55336 17.9605V17.9605ZM10.1186 11.6364C10.1182 11.7704 10.0647 11.8989 9.96995 11.9937C9.87516 12.0885 9.74671 12.1419 9.61265 12.1423H3.03557C2.90152 12.1419 2.77306 12.0885 2.67827 11.9937C2.58348 11.8989 2.53004 11.7704 2.52964 11.6364V5.56522C2.53004 5.43116 2.58348 5.30271 2.67827 5.20791C2.77306 5.11312 2.90152 5.05969 3.03557 5.05929H9.61265C9.74671 5.05969 9.87516 5.11312 9.96995 5.20791C10.0647 5.30271 10.1182 5.43116 10.1186 5.56522V11.6364ZM12.1423 11.6364V5.56522C12.1427 5.43116 12.1961 5.30271 12.2909 5.20791C12.3857 5.11312 12.5142 5.05969 12.6482 5.05929H19.2253C19.3594 5.05969 19.4878 5.11312 19.5826 5.20791C19.6774 5.30271 19.7308 5.43116 19.7312 5.56522V11.6364C19.7308 11.7704 19.6774 11.8989 19.5826 11.9937C19.4878 12.0885 19.3594 12.1419 19.2253 12.1423H12.6482C12.5142 12.1419 12.3857 12.0885 12.2909 11.9937C12.1961 11.8989 12.1427 11.7704 12.1423 11.6364V11.6364ZM19.7312 17.9605C19.5122 18.1246 19.246 18.2133 18.9723 18.2134C18.6999 18.2157 18.4345 18.1266 18.2185 17.9605C18.0063 17.8017 17.8495 17.5801 17.7703 17.3272C17.6911 17.0742 17.6935 16.8028 17.7771 16.5513C17.8608 16.2998 18.0216 16.0811 18.2365 15.926C18.4515 15.771 18.7098 15.6876 18.9749 15.6876C19.2399 15.6876 19.4982 15.771 19.7132 15.926C19.9282 16.0811 20.0889 16.2998 20.1726 16.5513C20.2563 16.8028 20.2587 17.0742 20.1795 17.3272C20.1002 17.5801 19.9434 17.8017 19.7312 17.9605V17.9605Z" fill="#011E41"/>
</svg>
