<svg width="48" height="48" viewBox="0 0 48 48" fill="none" xmlns="http://www.w3.org/2000/svg">
<g clip-path="url(#clip0_74_512)">
<path d="M24.021 0H23.979C19.5723 0 16 3.57232 16 7.979V25.021C16 29.4277 19.5723 33 23.979 33H24.021C28.4277 33 32 29.4277 32 25.021V7.979C32 3.57232 28.4277 0 24.021 0Z" fill="#011E41"/>
<path d="M38 24.5C38 24.1022 37.842 23.7206 37.5607 23.4393C37.2794 23.158 36.8978 23 36.5 23C36.1022 23 35.7206 23.158 35.4393 23.4393C35.158 23.7206 35 24.1022 35 24.5C35 27.4174 33.8411 30.2153 31.7782 32.2782C29.7153 34.3411 26.9174 35.5 24 35.5C21.0826 35.5 18.2847 34.3411 16.2218 32.2782C14.1589 30.2153 13 27.4174 13 24.5C13 24.1022 12.842 23.7206 12.5607 23.4393C12.2794 23.158 11.8978 23 11.5 23C11.1022 23 10.7206 23.158 10.4393 23.4393C10.158 23.7206 10 24.1022 10 24.5C10.0017 27.865 11.2156 31.1167 13.4194 33.6595C15.6233 36.2024 18.6694 37.8661 22 38.346V44H18C17.6492 44.0019 17.3049 44.0951 17.001 44.2705C16.6971 44.4459 16.4442 44.6974 16.2671 45.0002C16.09 45.3031 15.9948 45.6469 15.9909 45.9977C15.987 46.3485 16.0746 46.6943 16.245 47.001C16.4137 47.3111 16.6649 47.5685 16.9707 47.7448C17.2765 47.9211 17.6251 48.0094 17.978 48H30C30.351 47.9982 30.6955 47.905 30.9995 47.7296C31.3035 47.5541 31.5565 47.3025 31.7336 46.9995C31.9108 46.6965 32.0059 46.3526 32.0097 46.0016C32.0134 45.6506 31.9256 45.3047 31.755 44.998C31.5861 44.6881 31.3349 44.4309 31.0291 44.2548C30.7233 44.0787 30.3748 43.9905 30.022 44H26V38.335C29.3264 37.8501 32.3678 36.1864 34.5704 33.647C36.773 31.1076 37.9901 27.8615 38 24.5V24.5Z" fill="#011E41"/>
</g>
<defs>
<clipPath id="clip0_74_512">
<rect width="48" height="48" fill="white"/>
</clipPath>
</defs>
</svg>
