<svg width="48" height="48" viewBox="0 0 48 48" fill="none" xmlns="http://www.w3.org/2000/svg">
<path d="M45 14.4917H16.767L39.517 8.42365C40.0154 8.27431 40.436 7.93662 40.6895 7.48226C40.943 7.02791 41.0094 6.49265 40.8747 5.9901C40.7401 5.48754 40.4148 5.05725 39.9681 4.79056C39.5214 4.52386 38.9883 4.44175 38.482 4.56165L1.482 14.4297C1.03575 14.55 0.644943 14.8212 0.37604 15.1971C0.107137 15.573 -0.0232675 16.0304 0.007 16.4917H0V40.4917C0.00237409 41.2866 0.319207 42.0483 0.881302 42.6104C1.4434 43.1724 2.20508 43.4893 3 43.4917H45C45.7949 43.4893 46.5566 43.1724 47.1187 42.6104C47.6808 42.0483 47.9976 41.2866 48 40.4917V17.4917C47.9976 16.6967 47.6808 15.935 47.1187 15.373C46.5566 14.8109 45.7949 14.494 45 14.4917V14.4917ZM9 37.9917C9 38.3895 8.84196 38.771 8.56066 39.0523C8.27936 39.3336 7.89782 39.4917 7.5 39.4917C7.10218 39.4917 6.72064 39.3336 6.43934 39.0523C6.15804 38.771 6 38.3895 6 37.9917V28.9917C6 28.5938 6.15804 28.2123 6.43934 27.931C6.72064 27.6497 7.10218 27.4917 7.5 27.4917C7.89782 27.4917 8.27936 27.6497 8.56066 27.931C8.84196 28.2123 9 28.5938 9 28.9917V37.9917ZM16 37.9917C16 38.3895 15.842 38.771 15.5607 39.0523C15.2794 39.3336 14.8978 39.4917 14.5 39.4917C14.1022 39.4917 13.7206 39.3336 13.4393 39.0523C13.158 38.771 13 38.3895 13 37.9917V28.9917C13 28.5938 13.158 28.2123 13.4393 27.931C13.7206 27.6497 14.1022 27.4917 14.5 27.4917C14.8978 27.4917 15.2794 27.6497 15.5607 27.931C15.842 28.2123 16 28.5938 16 28.9917V37.9917ZM23 37.9917C23 38.3895 22.842 38.771 22.5607 39.0523C22.2794 39.3336 21.8978 39.4917 21.5 39.4917C21.1022 39.4917 20.7206 39.3336 20.4393 39.0523C20.158 38.771 20 38.3895 20 37.9917V28.9917C20 28.5938 20.158 28.2123 20.4393 27.931C20.7206 27.6497 21.1022 27.4917 21.5 27.4917C21.8978 27.4917 22.2794 27.6497 22.5607 27.931C22.842 28.2123 23 28.5938 23 28.9917V37.9917ZM36 39.4917C34.8133 39.4917 33.6533 39.1398 32.6666 38.4805C31.6799 37.8212 30.9108 36.8841 30.4567 35.7878C30.0026 34.6914 29.8838 33.485 30.1153 32.3211C30.3468 31.1572 30.9182 30.0881 31.7574 29.249C32.5965 28.4099 33.6656 27.8385 34.8295 27.6069C35.9933 27.3754 37.1997 27.4942 38.2961 27.9484C39.3925 28.4025 40.3295 29.1715 40.9888 30.1582C41.6481 31.1449 42 32.305 42 33.4917C41.9987 35.0825 41.3661 36.6079 40.2412 37.7328C39.1162 38.8578 37.5909 39.4903 36 39.4917V39.4917ZM40.5 22.4917H7.5C7.10218 22.4917 6.72064 22.3336 6.43934 22.0523C6.15804 21.771 6 21.3895 6 20.9917C6 20.5938 6.15804 20.2123 6.43934 19.931C6.72064 19.6497 7.10218 19.4917 7.5 19.4917H40.5C40.8978 19.4917 41.2794 19.6497 41.5607 19.931C41.842 20.2123 42 20.5938 42 20.9917C42 21.3895 41.842 21.771 41.5607 22.0523C41.2794 22.3336 40.8978 22.4917 40.5 22.4917Z" fill="#011E41"/>
</svg>
