<svg width="48" height="48" viewBox="0 0 48 48" fill="none" xmlns="http://www.w3.org/2000/svg">
<path d="M21.5 15.001C25.0899 15.001 28 12.0908 28 8.50098C28 4.91113 25.0899 2.00098 21.5 2.00098C17.9101 2.00098 15 4.91113 15 8.50098C15 12.0908 17.9101 15.001 21.5 15.001Z" fill="#011E41"/>
<path d="M8.86865e-07 38.95C-0.000312179 39.3603 0.0822628 39.7665 0.242772 40.1441C0.403282 40.5218 0.638418 40.8631 0.934076 41.1477C1.22973 41.4322 1.57982 41.6541 1.96334 41.8C2.34685 41.946 2.75589 42.0129 3.16592 41.9969C3.94941 41.9312 4.67848 41.5696 5.20489 40.9856C5.73131 40.4016 6.01556 39.6391 5.99985 38.853C5.98942 36.5433 6.52797 34.2642 7.57112 32.2034C8.61426 30.1427 10.1321 28.3593 11.9997 27.0003V44.0298C11.9997 45.0827 12.4179 46.0925 13.1624 46.837C13.9069 47.5815 14.9167 47.9997 15.9696 47.9997H27.0293C27.5548 47.999 28.0749 47.8944 28.5599 47.6921C29.0448 47.4898 29.485 47.1937 29.8552 46.8208C29.9487 46.7244 30.0005 46.595 29.9992 46.4608V19.5805C27.2936 18.5133 24.4078 17.9769 21.4994 18.0005C9.21976 18.0005 8.86865e-07 26.9503 8.86865e-07 38.95ZM47.9988 23.0004V20.1075C48.0098 19.6206 47.8491 19.1453 47.5448 18.765C47.2406 18.3848 46.8122 18.1237 46.3348 18.0275C46.0478 17.9788 45.7536 17.9932 45.4727 18.0699C45.1918 18.1466 44.9311 18.2837 44.7087 18.4716C44.4863 18.6594 44.3075 18.8935 44.1849 19.1576C44.0623 19.4217 43.9988 19.7093 43.9989 20.0005V23.0004C43.9983 23.5306 43.7875 24.039 43.4125 24.414C43.0376 24.7889 42.5292 24.9998 41.9989 25.0003V11.0007C41.9973 10.4708 41.7861 9.96298 41.4114 9.58826C41.0367 9.21354 40.5289 9.00233 39.999 9.00074V0.500964C39.999 0.368359 39.9463 0.241185 39.8525 0.147419C39.7588 0.0536536 39.6316 0.000976563 39.499 0.000976562L36.999 0.000976563C36.7338 0.000976563 36.4795 0.106331 36.292 0.293862C36.1044 0.481394 35.9991 0.735741 35.9991 1.00095C35.9991 1.26616 36.1044 1.52051 36.292 1.70804C36.4795 1.89557 36.7338 2.00092 36.999 2.00092V9.28074C36.6966 9.45501 36.4451 9.70553 36.2696 10.0073C36.0942 10.3091 36.0009 10.6516 35.9991 11.0007V17.0005H34.9991C34.4692 17.0021 33.9614 17.2133 33.5867 17.5881C33.2119 17.9628 33.0007 18.4706 32.9991 19.0005V34.0001C33.0007 34.53 33.2119 35.0378 33.5867 35.4125C33.9614 35.7872 34.4692 35.9985 34.9991 36H35.9991V45.9998C36.0006 46.5297 36.2119 47.0375 36.5866 47.4122C36.9613 47.7869 37.4691 47.9981 37.999 47.9997H42.9989C43.3031 47.9991 43.6031 47.9292 43.8763 47.7954C44.1494 47.6616 44.3886 47.4674 44.5755 47.2274C44.7625 46.9875 44.8923 46.7081 44.9553 46.4105C45.0182 46.1129 45.0126 45.8049 44.9388 45.5098C44.9388 45.5098 41.9989 36.08 41.9989 36H45.8918C46.3787 36.011 46.8539 35.8503 47.2342 35.5461C47.6145 35.2419 47.8756 34.8135 47.9718 34.3361C48.0205 34.0491 48.006 33.7548 47.9293 33.474C47.8526 33.1931 47.7156 32.9324 47.5277 32.71C47.3399 32.4876 47.1057 32.3088 46.8417 32.1862C46.5776 32.0636 46.2899 32.0001 45.9988 32.0001H41.9989V29.0002C43.5896 28.9984 45.1146 28.3657 46.2394 27.2409C47.3642 26.1161 47.9969 24.5911 47.9988 23.0004V23.0004Z" fill="#011E41"/>
</svg>
