<svg width="48" height="48" viewBox="0 0 48 48" fill="none" xmlns="http://www.w3.org/2000/svg">
<path d="M1.38252 11.1469L9.88213 13.9085L25.3512 18.9364C26.1233 19.1861 26.9673 18.7346 26.9673 18.0705V11.0161H33.9587V13.0136H44.5288C44.9818 13.0214 45.4318 12.9388 45.8526 12.7708C46.2734 12.6028 46.6566 12.3527 46.9797 12.0351C47.3028 11.7175 47.5594 11.3387 47.7346 10.9208C47.9098 10.503 48 10.0544 48 9.6013C48 9.14821 47.9098 8.69965 47.7346 8.2818C47.5594 7.86394 47.3028 7.48515 46.9797 7.16751C46.6566 6.84988 46.2734 6.59977 45.8526 6.43176C45.4318 6.26376 44.9818 6.18122 44.5288 6.18897H33.9587V8.01974H26.9673V0.965356C26.9673 0.301168 26.1233 -0.151279 25.3512 0.0994145L9.88113 5.12727L1.38252 7.88889C0.9964 7.95253 0.645436 8.15124 0.392219 8.44961C0.139003 8.74797 0 9.12658 0 9.5179C0 9.90923 0.139003 10.2878 0.392219 10.5862C0.645436 10.8846 0.9964 11.0833 1.38252 11.1469V11.1469Z" fill="#011E41"/>
<path d="M46.9419 36.9844H25.9675C25.4159 36.9844 24.9688 37.4315 24.9688 37.9832V46.9722C24.9688 47.5238 25.4159 47.9709 25.9675 47.9709H46.9419C47.4935 47.9709 47.9407 47.5238 47.9407 46.9722V37.9832C47.9407 37.4315 47.4935 36.9844 46.9419 36.9844Z" fill="#011E41"/>
<path d="M34.9583 24H12.9851C12.4335 24 11.9863 24.4472 11.9863 24.9988V33.9878C11.9863 34.5394 12.4335 34.9866 12.9851 34.9866H34.9583C35.5099 34.9866 35.957 34.5394 35.957 33.9878V24.9988C35.957 24.4472 35.5099 24 34.9583 24Z" fill="#011E41"/>
<path d="M21.9731 36.9844H0.998779C0.447169 36.9844 0 37.4315 0 37.9832V46.9722C0 47.5238 0.447169 47.9709 0.998779 47.9709H21.9731C22.5248 47.9709 22.9719 47.5238 22.9719 46.9722V37.9832C22.9719 37.4315 22.5248 36.9844 21.9731 36.9844Z" fill="#011E41"/>
<path d="M46.9421 24H38.9519C38.4003 24 37.9531 24.4472 37.9531 24.9988V33.9878C37.9531 34.5394 38.4003 34.9866 38.9519 34.9866H46.9421C47.4938 34.9866 47.9409 34.5394 47.9409 33.9878V24.9988C47.9409 24.4472 47.4938 24 46.9421 24Z" fill="#011E41"/>
</svg>
