<svg width="48" height="48" viewBox="0 0 48 48" fill="none" xmlns="http://www.w3.org/2000/svg">
<g clip-path="url(#clip0_123_4)">
<path d="M6.70588 24.1177H5.29412C3.89003 24.1177 2.54345 24.6754 1.55061 25.6683C0.557772 26.6611 0 28.0077 0 29.4118L0 31.5294H12V29.4118C12 28.0077 11.4422 26.6611 10.4494 25.6683C9.45655 24.6754 8.10997 24.1177 6.70588 24.1177Z" fill="#011E41"/>
<path d="M6.00011 23.0588C7.94936 23.0588 9.52953 21.4787 9.52953 19.5294C9.52953 17.5802 7.94936 16 6.00011 16C4.05087 16 2.4707 17.5802 2.4707 19.5294C2.4707 21.4787 4.05087 23.0588 6.00011 23.0588Z" fill="#011E41"/>
<path d="M42.7059 8.11768H41.2941C39.89 8.11768 38.5435 8.67545 37.5506 9.66829C36.5578 10.6611 36 12.0077 36 13.4118V15.5294H48V13.4118C48 12.0077 47.4422 10.6611 46.4494 9.66829C45.4565 8.67545 44.11 8.11768 42.7059 8.11768Z" fill="#011E41"/>
<path d="M42.0001 7.05882C43.9494 7.05882 45.5295 5.47865 45.5295 3.52941C45.5295 1.58017 43.9494 0 42.0001 0C40.0509 0 38.4707 1.58017 38.4707 3.52941C38.4707 5.47865 40.0509 7.05882 42.0001 7.05882Z" fill="#011E41"/>
<path d="M42.7059 40.1177H41.2941C39.89 40.1177 38.5435 40.6754 37.5506 41.6683C36.5578 42.6611 36 44.0077 36 45.4118V47.5294H48V45.4118C48 44.0077 47.4422 42.6611 46.4494 41.6683C45.4565 40.6754 44.11 40.1177 42.7059 40.1177Z" fill="#011E41"/>
<path d="M42.0001 39.0588C43.9494 39.0588 45.5295 37.4787 45.5295 35.5294C45.5295 33.5802 43.9494 32 42.0001 32C40.0509 32 38.4707 33.5802 38.4707 35.5294C38.4707 37.4787 40.0509 39.0588 42.0001 39.0588Z" fill="#011E41"/>
<path d="M30.428 39C30.0903 39.0004 29.7559 38.9338 29.4439 38.804C29.132 38.6742 28.8486 38.4838 28.61 38.2437L15.7535 25.3272C15.5146 25.0873 15.3251 24.8025 15.1958 24.489C15.0665 24.1755 15 23.8395 15 23.5001C15 23.1608 15.0665 22.8248 15.1958 22.5113C15.3251 22.1978 15.5146 21.913 15.7535 21.6731L28.61 8.75656C28.8489 8.51667 29.1324 8.32639 29.4444 8.19658C29.7564 8.06677 30.0908 7.99997 30.4285 8C30.7662 8.00003 31.1006 8.06689 31.4126 8.19675C31.7246 8.32662 32.0081 8.51695 32.2468 8.75688C32.4856 8.99681 32.675 9.28164 32.8042 9.59511C32.9334 9.90858 32.9999 10.2445 32.9999 10.5838C32.9998 10.9231 32.9333 11.2591 32.804 11.5725C32.6748 11.886 32.4853 12.1708 32.2465 12.4106L21.2079 23.5001L32.2465 34.5896C32.6063 34.9509 32.8513 35.4113 32.9506 35.9125C33.0498 36.4137 32.9989 36.9333 32.8042 37.4054C32.6096 37.8775 32.2799 38.281 31.8569 38.5649C31.4339 38.8487 30.9366 39.0001 30.428 39V39Z" fill="#011E41"/>
</g>
<defs>
<clipPath id="clip0_123_4">
<rect width="48" height="48" fill="white"/>
</clipPath>
</defs>
</svg>
