<svg width="48" height="32" viewBox="0 0 48 32" fill="none" xmlns="http://www.w3.org/2000/svg">
<g clip-path="url(#clip0_1377_5578)">
<path d="M45 0H3C2.20508 0.00237409 1.4434 0.319207 0.881302 0.881302C0.319207 1.4434 0.00237409 2.20508 0 3L0 29C0.00237409 29.7949 0.319207 30.5566 0.881302 31.1187C1.4434 31.6808 2.20508 31.9976 3 32H45C45.7949 31.9976 46.5566 31.6808 47.1187 31.1187C47.6808 30.5566 47.9976 29.7949 48 29V3C47.9976 2.20508 47.6808 1.4434 47.1187 0.881302C46.5566 0.319207 45.7949 0.00237409 45 0V0ZM8.46 5.46C9.2795 4.63544 10.3597 4.12073 11.5163 4.00367C12.6729 3.88661 13.8344 4.17445 14.8025 4.8181C15.7706 5.46174 16.4854 6.42132 16.825 7.53315C17.1646 8.64498 17.1079 9.84019 16.6646 10.9149C16.2214 11.9896 15.419 12.8773 14.3944 13.4265C13.3697 13.9756 12.1863 14.1523 11.0459 13.9264C9.90557 13.7004 8.87891 13.0859 8.14109 12.1875C7.40326 11.2891 6.99997 10.1625 7 9C7.00004 7.67349 7.5249 6.40087 8.46 5.46ZM20 26H4V25C4 22.8783 4.84285 20.8434 6.34315 19.3431C7.84344 17.8429 9.87827 17 12 17C14.1217 17 16.1566 17.8429 17.6569 19.3431C19.1571 20.8434 20 22.8783 20 25V26ZM40.52 24H25.49C25.0922 24 24.7106 23.842 24.4293 23.5607C24.148 23.2794 23.99 22.8978 23.99 22.5C23.99 22.1022 24.148 21.7206 24.4293 21.4393C24.7106 21.158 25.0922 21 25.49 21H40.52C40.9178 21 41.2994 21.158 41.5807 21.4393C41.862 21.7206 42.02 22.1022 42.02 22.5C42.02 22.8978 41.862 23.2794 41.5807 23.5607C41.2994 23.842 40.9178 24 40.52 24ZM40.52 18H25.49C25.0922 18 24.7106 17.842 24.4293 17.5607C24.148 17.2794 23.99 16.8978 23.99 16.5C23.99 16.1022 24.148 15.7206 24.4293 15.4393C24.7106 15.158 25.0922 15 25.49 15H40.52C40.9178 15 41.2994 15.158 41.5807 15.4393C41.862 15.7206 42.02 16.1022 42.02 16.5C42.02 16.8978 41.862 17.2794 41.5807 17.5607C41.2994 17.842 40.9178 18 40.52 18ZM40.52 12H25.49C25.0922 12 24.7106 11.842 24.4293 11.5607C24.148 11.2794 23.99 10.8978 23.99 10.5C23.99 10.1022 24.148 9.72064 24.4293 9.43934C24.7106 9.15804 25.0922 9 25.49 9H40.52C40.9178 9 41.2994 9.15804 41.5807 9.43934C41.862 9.72064 42.02 10.1022 42.02 10.5C42.02 10.8978 41.862 11.2794 41.5807 11.5607C41.2994 11.842 40.9178 12 40.52 12Z" fill="#011E41"/>
</g>
<defs>
<clipPath id="clip0_1377_5578">
<rect width="48" height="32" fill="white"/>
</clipPath>
</defs>
</svg>
