<svg width="48" height="48" viewBox="0 0 48 48" fill="none" xmlns="http://www.w3.org/2000/svg">
<path d="M45 8H3C2.20508 8.00237 1.4434 8.31921 0.881302 8.8813C0.319207 9.4434 0.00237409 10.2051 0 11L0 37C0.00237409 37.7949 0.319207 38.5566 0.881302 39.1187C1.4434 39.6808 2.20508 39.9976 3 40H45C45.7949 39.9976 46.5566 39.6808 47.1187 39.1187C47.6808 38.5566 47.9976 37.7949 48 37V11C47.9976 10.2051 47.6808 9.4434 47.1187 8.8813C46.5566 8.31921 45.7949 8.00237 45 8V8ZM8.46 13.46C9.2795 12.6354 10.3597 12.1207 11.5163 12.0037C12.6729 11.8866 13.8344 12.1745 14.8025 12.8181C15.7706 13.4617 16.4854 14.4213 16.825 15.5332C17.1646 16.645 17.1079 17.8402 16.6646 18.9149C16.2214 19.9896 15.419 20.8773 14.3944 21.4265C13.3697 21.9756 12.1863 22.1523 11.0459 21.9264C9.90557 21.7004 8.87891 21.0859 8.14109 20.1875C7.40326 19.2891 6.99997 18.1625 7 17C7.00004 15.6735 7.5249 14.4009 8.46 13.46ZM20 34H4V33C4 30.8783 4.84285 28.8434 6.34315 27.3431C7.84344 25.8429 9.87827 25 12 25C14.1217 25 16.1566 25.8429 17.6569 27.3431C19.1571 28.8434 20 30.8783 20 33V34ZM40.52 32H25.49C25.0922 32 24.7106 31.842 24.4293 31.5607C24.148 31.2794 23.99 30.8978 23.99 30.5C23.99 30.1022 24.148 29.7206 24.4293 29.4393C24.7106 29.158 25.0922 29 25.49 29H40.52C40.9178 29 41.2994 29.158 41.5807 29.4393C41.862 29.7206 42.02 30.1022 42.02 30.5C42.02 30.8978 41.862 31.2794 41.5807 31.5607C41.2994 31.842 40.9178 32 40.52 32ZM40.52 26H25.49C25.0922 26 24.7106 25.842 24.4293 25.5607C24.148 25.2794 23.99 24.8978 23.99 24.5C23.99 24.1022 24.148 23.7206 24.4293 23.4393C24.7106 23.158 25.0922 23 25.49 23H40.52C40.9178 23 41.2994 23.158 41.5807 23.4393C41.862 23.7206 42.02 24.1022 42.02 24.5C42.02 24.8978 41.862 25.2794 41.5807 25.5607C41.2994 25.842 40.9178 26 40.52 26ZM40.52 20H25.49C25.0922 20 24.7106 19.842 24.4293 19.5607C24.148 19.2794 23.99 18.8978 23.99 18.5C23.99 18.1022 24.148 17.7206 24.4293 17.4393C24.7106 17.158 25.0922 17 25.49 17H40.52C40.9178 17 41.2994 17.158 41.5807 17.4393C41.862 17.7206 42.02 18.1022 42.02 18.5C42.02 18.8978 41.862 19.2794 41.5807 19.5607C41.2994 19.842 40.9178 20 40.52 20Z" fill="#011E41"/>
</svg>
