<svg width="48" height="48" viewBox="0 0 48 48" fill="none" xmlns="http://www.w3.org/2000/svg">
<path d="M24 0C19.4913 0 15.1673 1.79107 11.9792 4.97918C8.79107 8.1673 7 12.4913 7 17H41C41 12.4913 39.2089 8.1673 36.0208 4.97918C32.8327 1.79107 28.5087 0 24 0V0ZM35.461 19.418L24.001 30.42L12.538 19.418C12.251 19.1424 11.8664 18.9922 11.4686 19.0002C11.0708 19.0083 10.6926 19.174 10.417 19.461C10.1414 19.748 9.99116 20.1326 9.99923 20.5304C10.0073 20.9282 10.173 21.3064 10.46 21.582L22.96 33.582C22.97 33.592 22.983 33.594 22.993 33.603C23.1237 33.7246 23.2751 33.8218 23.44 33.89C23.451 33.895 23.462 33.896 23.474 33.9C23.8115 34.0325 24.1865 34.0325 24.524 33.9C24.536 33.896 24.547 33.895 24.558 33.89C24.7229 33.8218 24.8743 33.7246 25.005 33.603C25.015 33.594 25.028 33.591 25.038 33.582L37.538 21.582C37.825 21.3064 37.9907 20.9282 37.9988 20.5304C38.0068 20.1326 37.8566 19.748 37.581 19.461C37.3054 19.174 36.9272 19.0083 36.5294 19.0002C36.1316 18.9922 35.747 19.1424 35.46 19.418H35.461Z" fill="#011E41"/>
<path d="M29 36H19C18.4477 36 18 36.4477 18 37V47C18 47.5523 18.4477 48 19 48H29C29.5523 48 30 47.5523 30 47V37C30 36.4477 29.5523 36 29 36Z" fill="#011E41"/>
</svg>
