<svg width="49" height="48" viewBox="0 0 49 48" fill="none" xmlns="http://www.w3.org/2000/svg">
<path d="M12.5507 12.0173C15.5853 12.0019 18.0329 9.52926 18.0174 6.49462C18.0019 3.45998 15.5293 1.01246 12.4947 1.02792C9.46006 1.04338 7.01253 3.51597 7.02799 6.55061C7.04345 9.58525 9.51605 12.0328 12.5507 12.0173Z" fill="#011E41"/>
<rect x="14.8828" y="39.2793" width="27.1046" height="6.27974" rx="3.13987" transform="rotate(-0.121695 14.8828 39.2793)" fill="#011E41"/>
<path d="M34.8853 31.8525C35.7685 33.3449 35.2746 35.2706 33.7822 36.1537L18.7641 45.0407C17.2717 45.9238 15.346 45.4299 14.4628 43.9375V43.9375C13.5797 42.4451 14.0736 40.5194 15.566 39.6363L30.5841 30.7493C32.0765 29.8662 34.0022 30.3601 34.8853 31.8525V31.8525Z" fill="#011E41"/>
<path d="M14.5362 28.645C13.5303 27.8243 13.3802 26.3435 14.2009 25.3376L20.6008 17.4938C21.4215 16.4879 22.9023 16.3378 23.9082 17.1585V17.1585C24.9141 17.9792 25.0643 19.46 24.2435 20.466L17.8437 28.3097C17.0229 29.3156 15.5421 29.4658 14.5362 28.645V28.645Z" fill="#011E41"/>
<path d="M16.831 29.2947C15.7335 29.9881 14.2816 29.6606 13.5881 28.563L7.25409 18.5381C6.56063 17.4405 6.8882 15.9886 7.98574 15.2952V15.2952C9.08329 14.6017 10.5352 14.9293 11.2286 16.0268L17.5627 26.0518C18.2561 27.1493 17.9286 28.6012 16.831 29.2947V29.2947Z" fill="#011E41"/>
<path d="M15.6114 13.9829C15.1313 12.9881 15.5486 11.7925 16.5434 11.3124L18.4612 10.387C23.4352 7.98673 29.4132 10.0732 31.8135 15.0472L38.2581 28.4023C39.4582 30.8893 38.415 33.8783 35.928 35.0784L27.7059 39.0461L15.6114 13.9829Z" fill="#011E41"/>
</svg>
