<svg width="117" height="111" viewBox="0 0 117 111" fill="none" xmlns="http://www.w3.org/2000/svg">
<path d="M25 3C25 2.44771 25.4477 2 26 2H30C30.5523 2 31 2.44772 31 3V49C31 49.5523 30.5523 50 30 50H26C25.4477 50 25 49.5523 25 49V3Z" fill="#011E41"/>
<path d="M11 21C10.4477 21 10 20.5523 10 20L10 16C10 15.4477 10.4477 15 11 15L45 15C45.5523 15 46 15.4477 46 16V20C46 20.5523 45.5523 21 45 21L11 21Z" fill="#011E41"/>
<circle cx="88.9983" cy="83.9995" r="15.6429" stroke="#011E41" stroke-width="3"/>
<path d="M89 67.5715L89 100.429" stroke="#011E41" stroke-width="3"/>
<path d="M72.5703 84L105.427 84" stroke="#011E41" stroke-width="3"/>
<path d="M77.5703 72.5715L101.142 95.4287" stroke="#011E41" stroke-width="3"/>
<path d="M77.4648 96.4675L101.465 72.4675" stroke="#011E41" stroke-width="3"/>
<path d="M88.1329 61.5C88.5178 60.8333 89.48 60.8333 89.8649 61.5L91.1021 63.6429C91.487 64.3095 91.0059 65.1429 90.2361 65.1429H87.7617C86.9919 65.1429 86.5108 64.3095 86.8957 63.6429L88.1329 61.5Z" fill="#011E41"/>
<path d="M103.564 67.0064C104.313 66.8273 104.975 67.5258 104.755 68.2638L104.051 70.6356C103.831 71.3736 102.896 71.5974 102.366 71.0386L100.664 69.2424C100.135 68.6835 100.409 67.7611 101.158 67.582L103.564 67.0064Z" fill="#011E41"/>
<path d="M111.5 83.1336C112.167 83.5185 112.167 84.4807 111.5 84.8656L109.357 86.1028C108.69 86.4877 107.857 86.0066 107.857 85.2368V82.7624C107.857 81.9926 108.69 81.5115 109.357 81.8964L111.5 83.1336Z" fill="#011E41"/>
<path d="M104.729 99.9071C104.92 100.653 104.233 101.326 103.491 101.119L101.108 100.453C100.367 100.246 100.128 99.3139 100.678 98.7754L102.446 97.0444C102.996 96.5059 103.923 96.7647 104.114 97.5104L104.729 99.9071Z" fill="#011E41"/>
<path d="M89.8671 106.5C89.4822 107.167 88.52 107.167 88.1351 106.5L86.8979 104.357C86.513 103.69 86.9941 102.857 87.7639 102.857H90.2383C91.0081 102.857 91.4892 103.69 91.1043 104.357L89.8671 106.5Z" fill="#011E41"/>
<path d="M71.683 98.2931C70.9266 98.4365 70.2987 97.7074 70.5526 96.9807L71.3688 94.6449C71.6228 93.9182 72.5682 93.7389 73.0706 94.3221L74.6854 96.1969C75.1877 96.7802 74.8703 97.6886 74.114 97.832L71.683 98.2931Z" fill="#011E41"/>
<path d="M66.5 84.8664C65.8333 84.4815 65.8333 83.5193 66.5 83.1344L68.6429 81.8972C69.3095 81.5123 70.1429 81.9934 70.1429 82.7632V85.2376C70.1429 86.0074 69.3095 86.4885 68.6429 86.1036L66.5 84.8664Z" fill="#011E41"/>
<path d="M71.9538 68.2866C71.7251 67.5515 72.3779 66.8446 73.1288 67.014L75.5424 67.5588C76.2933 67.7283 76.5792 68.6471 76.0569 69.2127L74.3783 71.0306C73.8561 71.5961 72.9174 71.3843 72.6888 70.6492L71.9538 68.2866Z" fill="#011E41"/>
<path d="M88.809 9.92705C89.1084 9.00574 90.4118 9.00574 90.7111 9.92705L91.9514 13.744C92.0852 14.1561 92.4692 14.435 92.9024 14.435H96.9158C97.8846 14.435 98.2873 15.6746 97.5036 16.244L94.2567 18.6031C93.9062 18.8577 93.7595 19.3091 93.8934 19.7211L95.1336 23.5381C95.433 24.4594 94.3785 25.2255 93.5948 24.6561L90.3479 22.2971C89.9974 22.0425 89.5228 22.0425 89.1723 22.2971L85.9254 24.6561C85.1416 25.2255 84.0872 24.4594 84.3865 23.5381L85.6267 19.7211C85.7606 19.3091 85.614 18.8577 85.2635 18.6031L82.0165 16.244C81.2328 15.6746 81.6356 14.435 82.6043 14.435H86.6177C87.051 14.435 87.4349 14.1561 87.5688 13.744L88.809 9.92705Z" fill="#011E41"/>
<path fill-rule="evenodd" clip-rule="evenodd" d="M104.719 42.6793C105.405 41.9421 104.574 40.835 103.599 41.0867C100.954 41.7692 98.1519 41.962 95.2994 41.5785C82.9838 39.9231 74.4017 28.1536 76.1307 15.2906C76.6668 11.3018 78.1316 7.67621 80.2647 4.62156C80.8417 3.79522 80.0891 2.65364 79.1683 3.06337C70.843 6.76775 65 15.4523 65 25.5751C65 39.0646 75.3758 49.9999 88.175 49.9999C94.6546 49.9999 100.513 47.1972 104.719 42.6793Z" fill="#011E41"/>
<path d="M7.68435 94.7852L27.3295 62.8621L46.9744 94.7852H27.3295H7.68435Z" stroke="#011E41" stroke-width="3"/>
<path d="M47.3011 73.062L27.3548 104.798L8.01282 72.6903L27.6568 72.8762L47.3011 73.062Z" stroke="#011E41" stroke-width="3"/>
</svg>
