<svg width="48" height="48" viewBox="0 0 48 48" fill="none" xmlns="http://www.w3.org/2000/svg">
<path d="M43.81 17.081C43.1153 12.3367 40.737 8.00072 37.1095 4.865C33.4821 1.72928 28.8477 0.00316695 24.0528 0.00195376C19.2579 0.000740578 14.6226 1.72451 10.9936 4.85839C7.36463 7.99227 4.98414 12.3271 4.287 17.071C3.09825 17.2414 2.01066 17.8344 1.22337 18.7412C0.436085 19.648 0.00178765 20.8081 9.98096e-08 22.009V30.987C-0.000131239 31.645 0.129359 32.2966 0.381077 32.9046C0.632794 33.5125 1.00181 34.0649 1.46704 34.5303C1.93228 34.9956 2.48462 35.3647 3.09253 35.6166C3.70043 35.8684 4.35199 35.998 5.01 35.998H8.996C9.52749 35.998 10.0372 35.7869 10.413 35.4111C10.7889 35.0352 11 34.5255 11 33.994V19.002C11 18.4705 10.7889 17.9608 10.413 17.585C10.0372 17.2092 9.52749 16.998 8.996 16.998H8.34C9.03595 13.3416 10.9857 10.0425 13.8531 7.66939C16.7205 5.29627 20.3259 3.99781 24.048 3.99781C27.7701 3.99781 31.3755 5.29627 34.2429 7.66939C37.1103 10.0425 39.0601 13.3416 39.756 16.998H39.004C38.4725 16.998 37.9628 17.2092 37.587 17.585C37.2111 17.9608 37 18.4705 37 19.002V33.994C37 34.5255 37.2111 35.0352 37.587 35.4111C37.9628 35.7869 38.4725 35.998 39.004 35.998H39.952C39.6865 37.6686 38.8347 39.1901 37.5492 40.2896C36.2637 41.3891 34.6286 41.9947 32.937 41.998H29.445C29.0047 41.2355 28.3251 40.6395 27.5116 40.3025C26.6981 39.9655 25.7962 39.9064 24.9456 40.1343C24.0951 40.3622 23.3435 40.8644 22.8075 41.563C22.2714 42.2615 21.9809 43.1175 21.9809 43.998C21.9809 44.8786 22.2714 45.7345 22.8075 46.4331C23.3435 47.1316 24.0951 47.6338 24.9456 47.8617C25.7962 48.0896 26.6981 48.0305 27.5116 47.6935C28.3251 47.3566 29.0047 46.7606 29.445 45.998H32.937C35.7075 45.9943 38.3769 44.9566 40.4226 43.0881C42.4683 41.2196 43.7429 38.6549 43.997 35.896C45.1272 35.6637 46.1427 35.0486 46.872 34.1544C47.6013 33.2603 47.9997 32.1419 48 30.988V22.01C47.9986 20.8254 47.5766 19.6797 46.8092 18.7772C46.0419 17.8747 44.979 17.2739 43.81 17.082V17.081Z" fill="#011E41"/>
</svg>
