<svg width="48" height="48" viewBox="0 0 48 48" fill="none" xmlns="http://www.w3.org/2000/svg">
<g clip-path="url(#clip0_74_1634)">
<path d="M47.0604 3H18.9404C18.6833 3.00836 18.44 3.11831 18.2638 3.30575C18.0876 3.4932 17.9929 3.74285 18.0004 4V29H24.0004C25.3265 29 26.5983 29.5268 27.536 30.4645C28.4736 31.4021 29.0004 32.6739 29.0004 34C29.0004 35.3261 28.4736 36.5979 27.536 37.5355C26.5983 38.4732 25.3265 39 24.0004 39H18.0004V44C17.9929 44.2571 18.0876 44.5068 18.2638 44.6942C18.44 44.8817 18.6833 44.9916 18.9404 45H39.0004V38.78C39.0023 38.0433 39.2958 37.3372 39.8167 36.8163C40.3377 36.2953 41.0437 36.0018 41.7804 36H48.0004V4C48.008 3.74285 47.9133 3.4932 47.7371 3.30575C47.5609 3.11831 47.3175 3.00836 47.0604 3V3ZM42.0004 26H24.0004C23.7352 26 23.4808 25.8946 23.2933 25.7071C23.1058 25.5196 23.0004 25.2652 23.0004 25C23.0004 24.7348 23.1058 24.4804 23.2933 24.2929C23.4808 24.1054 23.7352 24 24.0004 24H42.0004C42.2656 24 42.52 24.1054 42.7075 24.2929C42.8951 24.4804 43.0004 24.7348 43.0004 25C43.0004 25.2652 42.8951 25.5196 42.7075 25.7071C42.52 25.8946 42.2656 26 42.0004 26ZM42.0004 20H24.0004C23.7352 20 23.4808 19.8946 23.2933 19.7071C23.1058 19.5196 23.0004 19.2652 23.0004 19C23.0004 18.7348 23.1058 18.4804 23.2933 18.2929C23.4808 18.1054 23.7352 18 24.0004 18H42.0004C42.2656 18 42.52 18.1054 42.7075 18.2929C42.8951 18.4804 43.0004 18.7348 43.0004 19C43.0004 19.2652 42.8951 19.5196 42.7075 19.7071C42.52 19.8946 42.2656 20 42.0004 20ZM42.0004 14H24.0004C23.7352 14 23.4808 13.8946 23.2933 13.7071C23.1058 13.5196 23.0004 13.2652 23.0004 13C23.0004 12.7348 23.1058 12.4804 23.2933 12.2929C23.4808 12.1054 23.7352 12 24.0004 12H42.0004C42.2656 12 42.52 12.1054 42.7075 12.2929C42.8951 12.4804 43.0004 12.7348 43.0004 13C43.0004 13.2652 42.8951 13.5196 42.7075 13.7071C42.52 13.8946 42.2656 14 42.0004 14Z" fill="#011E41"/>
<path d="M41.78 38C41.5732 38.0003 41.375 38.0825 41.2287 38.2287C41.0825 38.375 41.0003 38.5732 41 38.78V45L48 38H41.78Z" fill="#011E41"/>
<path d="M41.78 38C41.5732 38.0003 41.375 38.0825 41.2287 38.2287C41.0825 38.375 41.0003 38.5732 41 38.78V45L48 38H41.78ZM24 36H2C1.46957 36 0.960859 35.7893 0.585786 35.4142C0.210714 35.0391 0 34.5304 0 34C0 33.4696 0.210714 32.9609 0.585786 32.5858C0.960859 32.2107 1.46957 32 2 32H24C24.5304 32 25.0391 32.2107 25.4142 32.5858C25.7893 32.9609 26 33.4696 26 34C26 34.5304 25.7893 35.0391 25.4142 35.4142C25.0391 35.7893 24.5304 36 24 36Z" fill="#011E41"/>
</g>
<defs>
<clipPath id="clip0_74_1634">
<rect width="48" height="48" fill="white"/>
</clipPath>
</defs>
</svg>
