<svg width="48" height="48" viewBox="0 0 48 48" fill="none" xmlns="http://www.w3.org/2000/svg">
<g clip-path="url(#clip0_74_1632)">
<path d="M4.0005 28.0041C3.47521 28.0042 2.95506 27.9008 2.46973 27.6998C1.9844 27.4988 1.54341 27.2043 1.17193 26.8329C0.421687 26.0828 0.00013264 25.0655 3.12953e-08 24.0046C-0.000132577 22.9437 0.421168 21.9263 1.17122 21.176C1.92127 20.4258 2.93863 20.0042 3.9995 20.0041L43.9995 19.9961H44.0005C45.0614 19.996 46.0788 20.4173 46.8291 21.1673C47.5793 21.9174 48.0009 22.9347 48.001 23.9956C48.0011 25.0565 47.5798 26.0739 46.8298 26.8242C46.0797 27.5744 45.0624 27.996 44.0015 27.9961L4.0015 28.0041H4.0005Z" fill="#011E41"/>
</g>
<defs>
<clipPath id="clip0_74_1632">
<rect width="48" height="48" fill="white"/>
</clipPath>
</defs>
</svg>
