<?xml version="1.0" encoding="utf-8"?>
<!-- Generator: Adobe Illustrator 25.2.1, SVG Export Plug-In . SVG Version: 6.00 Build 0)  -->
<svg version="1.1" id="Layer_1" xmlns="http://www.w3.org/2000/svg" xmlns:xlink="http://www.w3.org/1999/xlink" x="0px" y="0px"
	 viewBox="0 0 288 560" style="enable-background:new 0 0 288 560;" xml:space="preserve">
<style type="text/css">
	.st0{fill:#FEFEFE;}
	.st1{fill:#FE4212;}
	.st2{fill:#1C1284;}
	.st3{fill:#1C1285;}
	.st4{fill:#010074;}
	.st5{fill:#010174;}
	.st6{fill:#EBEAF4;}
	.st7{fill:#2C208C;}
	.st8{fill:#ACA8D0;}
	.st9{fill:#140A80;}
	.st10{fill:#FE4213;}
	.st11{fill:#FEFDFE;}
	.st12{fill:#1D1385;}
	.st13{fill:#1F1586;}
	.st14{fill:#FE4416;}
	.st15{fill:#201686;}
	.st16{fill:#1E1486;}
	.st17{fill:#221887;}
	.st18{fill:#070678;}
	.st19{fill:#251B89;}
	.st20{fill:#231A88;}
	.st21{fill:#231988;}
	.st22{fill:#211787;}
	.st23{fill:#241A89;}
	.st24{fill:#251C89;}
	.st25{fill:#241A88;}
	.st26{fill:#11097D;}
	.st27{fill:#261D8A;}
	.st28{fill:#3D399E;}
	.st29{fill:#291F8B;}
	.st30{fill:#0E0C7C;}
	.st31{fill:#3E399F;}
	.st32{fill:#09097B;}
	.st33{fill:#38349D;}
	.st34{fill:#29208B;}
	.st35{fill:#423DA0;}
	.st36{fill:#261C89;}
	.st37{fill:#211887;}
	.st38{fill:#4440A1;}
	.st39{fill:#3E399E;}
	.st40{fill:#3F3A9F;}
	.st41{fill:#271D8A;}
	.st42{fill:#4541A1;}
	.st43{fill:#39359D;}
	.st44{fill:#423EA0;}
	.st45{fill:#3F3B9F;}
	.st46{fill:#413DA0;}
	.st47{fill:#4641A2;}
	.st48{fill:#35319B;}
	.st49{fill:#433EA0;}
	.st50{fill:#443FA1;}
	.st51{fill:#34309A;}
	.st52{fill:#4945A3;}
	.st53{fill:#3F3A9E;}
	.st54{fill:#0F0B7C;}
	.st55{fill:#413CA0;}
	.st56{fill:#413C9F;}
	.st57{fill:#4844A3;}
	.st58{fill:#4743A2;}
	.st59{fill:#3E3A9F;}
	.st60{fill:#4E49A5;}
	.st61{fill:#4540A2;}
	.st62{fill:#160C7D;}
	.st63{fill:#242094;}
	.st64{fill:#23127C;}
	.st65{fill:#4843A2;}
	.st66{fill:#2D248D;}
	.st67{fill:#4540A1;}
	.st68{fill:#221E93;}
	.st69{fill:#4E4AA5;}
	.st70{fill:#4D49A4;}
	.st71{fill:#403C9F;}
	.st72{fill:#37339C;}
	.st73{fill:#4D49A5;}
	.st74{fill:#534FA7;}
	.st75{fill:#403CA0;}
	.st76{fill:#362D93;}
	.st77{fill:#2B1F8B;}
	.st78{fill:#332A91;}
	.st79{fill:#372E93;}
	.st80{fill:#4642A3;}
	.st81{fill:#403B9E;}
	.st82{fill:#443FA0;}
	.st83{fill:#2F2B99;}
	.st84{fill:#120A7D;}
	.st85{fill:#231987;}
	.st86{fill:#1F1585;}
	.st87{fill:#4742A1;}
	.st88{fill:#423EA1;}
	.st89{fill:#4B47A5;}
	.st90{fill:#4541A3;}
	.st91{fill:#211D93;}
	.st92{fill:#252194;}
	.st93{fill:#7E7ABB;}
	.st94{fill:#514DA8;}
	.st95{fill:#433FA1;}
	.st96{fill:#3B379E;}
	.st97{fill:#000074;}
	.st98{fill:#4B46A3;}
	.st99{fill:#4A45A2;}
	.st100{fill:#3D399F;}
	.st101{fill:#231F94;}
	.st102{fill:#504CA7;}
	.st103{fill:#615DAF;}
	.st104{fill:#5B57AC;}
	.st105{fill:#FEFDFD;}
	.st106{fill:#FDFCFD;}
	.st107{fill:#FAFAFC;}
	.st108{fill:#F9F9FC;}
	.st109{fill:#E9E8F3;}
	.st110{fill:#E8E7F2;}
	.st111{fill:#DAD8EB;}
	.st112{fill:#FDFDFD;}
</style>
<g>
	<path class="st0" d="M35.6,284.76c0-11.68,0-23.37-0.01-35.05c0-0.48,0.1-0.58,0.58-0.58c71.89,0.01,143.77,0.01,215.66,0
		c0.48,0,0.58,0.09,0.58,0.58c-0.02,11.47-0.02,22.95,0,34.42c0,0.53-0.12,0.65-0.65,0.65C179.71,284.75,107.66,284.76,35.6,284.76z
		"/>
	<path class="st0" d="M65.71,260.96c-0.1,0.1-0.21,0.2-0.31,0.29c-0.12,0.13-0.25,0.26-0.39,0.38c-0.06,0.06-0.11,0.12-0.17,0.18
		c-1.08,0.65-0.46,1.46-0.21,2.23c0.05,0.09,0.09,0.18,0.17,0.24c0.56,0.15,1.14-0.04,1.7,0.12c0.32,0.15,0.67,0.01,1,0.13
		c0.07,0.04,0.12,0.09,0.15,0.17c0.08,0.26,0.13,0.52,0.15,0.79c-0.01,0.07,0,0.17-0.06,0.2c-0.68,0.34-1.35,0.72-2.16,0.64
		c-0.42-0.3-0.64,0.01-0.88,0.27c0.24,0.42,0.15,0.85,0.06,1.28c-0.06,0.3-0.24,0.65,0.19,0.85c0.25,0.16,0.5,0.33,0.77,0.46
		c0.39,0.28,0.85,0.45,1.21,0.78c0.17,0.19,0.18,0.4,0.07,0.63c-0.02,0.54-0.33,0.71-0.83,0.64c-0.43-0.06-0.86-0.15-1.3-0.2
		c-0.25-0.03-0.49-0.09-0.73-0.16c-0.27-0.09-0.5-0.05-0.64,0.22c-0.2,0.25-0.37,0.52-0.57,0.77c-0.58,0.62,0.14,0.98,0.3,1.45
		c0.21,0.3,0.37,0.62,0.57,0.92c0.15,0.26,0.46,0.52,0.09,0.83c-0.29,0.25-0.5,0.73-1.02,0.38c-0.35-0.34-0.81-0.53-1.17-0.86
		c-0.18-0.17-0.43-0.26-0.59-0.45c-0.19-0.23-0.41-0.34-0.68-0.13c-0.39,0.27-0.85,0.4-1.27,0.59c-0.24,0.25,0.02,0.48,0.03,0.72
		c0.02,0.32,0.01,0.64,0.01,0.96c0.01,0.33-0.02,0.65,0.03,0.98c0.02,0.48-0.42,0.38-0.68,0.53c-0.18,0.05-0.35,0.29-0.55,0.03
		c-0.17-0.25-0.28-0.53-0.43-0.79c-0.27-0.59-0.6-1.16-0.86-1.75c-0.5-0.5-1.07-0.36-1.64-0.17c-0.41,0.19-0.46,0.62-0.63,0.97
		c-0.21,0.5-0.47,0.97-0.66,1.47c-0.04,0.06-0.09,0.11-0.16,0.14c-0.22,0.06-0.45,0.04-0.68,0.03c-0.18-0.05-0.39-0.04-0.49-0.25
		c-0.04-0.86-0.12-1.73,0.05-2.58c0.1-0.48-0.31-0.5-0.56-0.68c-0.19-0.09-0.35-0.23-0.54-0.31c-0.41-0.28-0.77-0.27-1.09,0.14
		c-0.13,0.17-0.35,0.24-0.51,0.37c-0.21,0.25-0.49,0.4-0.74,0.59c-0.23,0.23-0.47,0.39-0.78,0.14c-0.19-0.17-0.48-0.25-0.58-0.52
		c-0.03-0.29,0.16-0.49,0.27-0.73c0.34-0.68,0.87-1.27,0.99-2.05c-0.07-0.14-0.1-0.3-0.2-0.43c-0.17-0.21-0.3-0.43-0.44-0.66
		c-0.14-0.3-0.35-0.4-0.68-0.31c-0.61,0.16-1.23,0.25-1.85,0.38c-0.41,0.08-0.66-0.06-0.84-0.43c-0.19-0.39-0.21-0.71,0.19-0.97
		c0.63-0.34,1.23-0.75,1.83-1.14c0.21-0.13,0.42-0.23,0.24-0.53c-0.1-0.47,0.1-0.97-0.13-1.43c-0.34-0.3-0.77-0.29-1.17-0.37
		c-0.49-0.25-1.11-0.21-1.51-0.67c-0.04-0.35-0.09-0.71,0.04-1.05c0.13-0.11,0.28-0.13,0.44-0.15c0.3-0.02,0.61,0.03,0.9-0.06
		c0.21-0.07,0.42-0.09,0.64-0.08c0.24-0.01,0.47,0.02,0.71-0.04c0.41-0.04,0.42-0.41,0.55-0.68c0.5-1.13,0.47-1.11-0.46-2.02
		c-0.38-0.37-0.93-0.62-1.08-1.21c0.27-0.43,0.35-1.14,1.15-0.78c0.24,0.1,0.49,0.2,0.74,0.29c0.39,0.15,0.77,0.36,1.17,0.5
		c0.26,0.19,0.5,0.38,0.72-0.08c0.08-0.16,0.3-0.28,0.45-0.42c0.56-0.3,0.71-0.72,0.38-1.29c-0.11-0.49-0.29-0.96-0.46-1.43
		c-0.16-0.44-0.09-0.75,0.35-0.96c0.25-0.2,0.51-0.25,0.79-0.04c0.24,0.24,0.4,0.53,0.64,0.77c0.28,0.27,0.47,0.63,0.76,0.89
		c0.22,0.37,0.49,0.53,0.93,0.31c0.14-0.07,0.32-0.12,0.47-0.12c0.67,0.02,0.85-0.36,0.84-0.92c0.2-0.39,0.09-0.86,0.33-1.24
		l-0.01,0.02c0.02-0.39-0.05-0.83,0.49-0.94c0.37-0.07,0.76-0.17,0.95,0.31c0.07,0.14,0.11,0.28,0.11,0.44
		c0.06,0.48,0.27,0.93,0.3,1.42c0.04,0.63,0.33,1.03,1.02,1.02c0.43,0.03,0.82,0.52,1.28,0.09c0.19-0.17,0.3-0.39,0.45-0.58
		c0.23-0.22,0.41-0.48,0.59-0.73c0.27-0.22,0.38-0.68,0.87-0.59c0.13,0.04,0.25,0.11,0.38,0.17c0.21,0.11,0.5,0.16,0.41,0.51
		c-0.16,0.66-0.44,1.29-0.49,1.98l0.01-0.02c-0.16,0.3-0.41,0.6-0.07,0.94c0.1,0.1,0.25,0.16,0.31,0.27c0.57,0.94,1.28,0.64,2,0.22
		c0.51-0.17,0.94-0.58,1.54-0.53C66.32,260.18,66.34,260.3,65.71,260.96z"/>
	<path class="st1" d="M63.37,277.72c-0.01-0.23,0.19-0.3,0.32-0.41c0.6-0.49,1.21-0.97,1.81-1.47c0.5-0.41,0.49-1.1-0.01-1.53
		c-0.62-0.54-1.24-1.08-1.87-1.61c-0.21-0.17-0.43-0.35-0.15-0.61c0.27-0.25,0.24-0.91,0.89-0.65c0.74,0.29,1.49,0.58,2.23,0.87
		c0.7,0.27,1.35-0.1,1.49-0.84c0.14-0.76,0.3-1.52,0.42-2.28c0.05-0.34,0.16-0.54,0.53-0.43c0.33,0.1,0.84-0.22,0.93,0.44
		c0.11,0.81,0.26,1.62,0.4,2.43c0.1,0.56,0.75,0.95,1.29,0.77c0.73-0.25,1.47-0.5,2.19-0.77c0.34-0.12,0.61-0.23,0.78,0.23
		c0.14,0.39,0.54,0.73-0.07,1.11c-0.55,0.35-1.03,0.82-1.54,1.23c-0.78,0.63-0.78,1.28,0,1.94c0.54,0.46,1.07,0.92,1.61,1.37
		c0.25,0.21,0.41,0.41,0.13,0.69c-0.26,0.26-0.27,0.86-0.92,0.57c-0.7-0.32-1.44-0.56-2.17-0.83c-0.69-0.26-1.29,0.09-1.43,0.82
		c-0.14,0.74-0.28,1.47-0.41,2.21c-0.05,0.29-0.06,0.62-0.48,0.49c-0.36-0.11-0.94,0.23-1.01-0.53c-0.07-0.77-0.24-1.53-0.36-2.29
		c-0.1-0.6-0.75-1-1.33-0.8c-0.69,0.23-1.37,0.48-2.06,0.72C63.97,278.76,63.41,278.38,63.37,277.72z"/>
	<path class="st2" d="M74.88,262.09c-0.25-1.76-0.34-3.54-0.4-5.32c-0.03-0.69-0.24-0.84-0.87-0.68c-0.26,0.07-0.74,0.35-0.8-0.11
		c-0.07-0.45,0.47-0.32,0.76-0.36c1.47-0.22,2.93-0.44,4.42-0.42c1.33,0.02,2.55,0.37,3.59,1.25c1.06,0.9,1.26,1.91,0.59,3.13
		c-0.62,1.13-1.58,1.9-2.71,2.49c-0.18,0.1-0.37,0.18-0.66,0.33c0.67,0.18,1.24,0.31,1.8,0.5c1.6,0.55,2.27,1.71,1.86,3.35
		c-0.25,1-0.62,1.96-0.91,2.95c-0.12,0.43-0.2,0.87-0.23,1.31c-0.07,1.14,0.73,1.94,1.93,1.93c1.06,0,1.86-0.76,1.82-1.73
		c-0.03-0.73-0.38-1.18-1.12-1.31c0.13-0.38,0.41-0.15,0.63-0.15c1.37,0.39,1.73,1.58,0.76,2.6c-0.77,0.81-1.73,1.09-2.82,0.86
		c-0.89-0.19-1.43-0.75-1.66-1.62c-0.02-0.09,0-0.18-0.01-0.28c0.09-0.23,0.09-0.46,0-0.7c0.1-1.12,0.24-2.23,0.31-3.35
		c0.15-2.5-0.86-3.63-3.37-3.87c-0.21-0.02-0.56,0.09-0.58-0.23c-0.01-0.28,0.35-0.24,0.55-0.31c0.81-0.29,1.57-0.66,2.13-1.32
		c0.83-0.99,1.14-2.14,0.71-3.35c-0.43-1.23-1.52-1.75-2.74-1.93c-1.62-0.23-1.68-0.18-1.76,1.42c-0.19,3.65-0.24,7.31-0.12,10.97
		c0.02,0.48,0.17,0.56,0.58,0.45c0.41-0.11,0.83-0.17,1.24-0.26c0.17-0.04,0.38-0.17,0.42,0.15c0.03,0.21-0.01,0.37-0.27,0.41
		c-0.47,0.07-0.93,0.16-1.39,0.2c-0.89,0.08-1.78,0.13-2.67,0.18c-0.19,0.01-0.43,0.14-0.44-0.24c-0.01-0.29,0.14-0.37,0.39-0.34
		c0.05,0,0.09,0,0.14,0c1.44-0.06,1.44-0.06,1.31-1.51c-0.13-1.47-0.25-2.94-0.37-4.41C74.98,262.55,75.03,262.32,74.88,262.09z"/>
	<path class="st2" d="M141.87,267.4c0-0.14-0.01-0.28,0-0.42c0.03-0.22-0.17-0.57,0.07-0.64c0.29-0.09,0.68-0.07,0.96,0.05
		c0.25,0.11,0.11,0.47,0.07,0.71c-0.57,3.93-4.34,5.5-7.58,3.17c-2.85-2.06-3.91-5.25-2.82-8.57c0.57-1.72,1.4-3.27,2.81-4.46
		c1.28-1.07,2.73-1.52,4.39-1.2c0.81,0.16,1.5,0.53,2.04,1.16c0.91,1.06,0.82,2.35-0.23,3.32c-1.19,1.11-2.68,1.22-3.67,0.28
		c-0.54-0.51-0.69-1.23-0.38-1.86c0.27-0.56,0.97-0.89,1.68-0.77c0.9,0.14,1.31,1.11,0.78,1.81c-0.17,0.22-0.38,0.35-0.67,0.27
		c-0.11-0.03-0.22-0.09-0.24-0.23c-0.02-0.13,0.1-0.13,0.18-0.18c0.14-0.09,0.29-0.17,0.39-0.29c0.18-0.2,0.14-0.44,0.04-0.66
		c-0.11-0.24-0.32-0.24-0.54-0.2c-0.55,0.12-0.93,0.45-1.07,1c-0.14,0.54,0.17,0.9,0.58,1.18c0.52,0.36,1.06,0.36,1.58,0
		c0.77-0.53,1.19-1.81,0.91-2.78c-0.28-0.98-1.13-1.69-2.16-1.74c-1.35-0.07-2.49,0.4-3.41,1.39c-2.8,3.04-2.39,9.38,0.77,12.03
		c0.77,0.64,1.65,0.98,2.65,1.02c1.64,0.07,2.79-0.98,2.89-2.61C141.89,267.91,141.88,267.65,141.87,267.4
		C141.88,267.4,141.88,267.4,141.87,267.4z"/>
	<path class="st3" d="M99.06,262.65c0.17,0.25,0.3,0.53,0.57,0.71c0.09,0.17,0.43-0.09,0.42,0.25c-0.65,0.22-1.23,0.12-1.6-0.5
		c-0.37-0.61-0.27-1.2,0.19-1.75c1.18-1.42,3.26-1.45,4.74-0.07c2.24,2.08,1.54,5.69-1.38,7.12c-1.66,0.82-2.73,0.69-4.73-0.6
		c-0.06,1.19-0.13,2.32-0.17,3.46c-0.02,0.58,0.02,1.17,0.02,1.76c0,0.48,0.14,0.72,0.67,0.51c0.19-0.08,0.41-0.12,0.61-0.16
		c0.14-0.03,0.33-0.15,0.38,0.12c0.04,0.22,0.06,0.44-0.24,0.47c-0.58,0.07-1.17,0.14-1.75,0.19c-0.42,0.03-0.85,0.04-1.27,0.04
		c-0.18,0-0.49,0.17-0.51-0.16c-0.02-0.37,0.3-0.25,0.52-0.25c0.24,0.07,0.47,0.11,0.7-0.02c0.58,0,0.45-0.41,0.41-0.74
		c-0.41-3.62-0.44-7.25-0.25-10.89c0.03-0.63,0.11-1.26,0.18-1.94c-0.57-0.01-1.07,0.18-1.58,0.29c-0.15,0.03-0.34,0.13-0.41-0.1
		c-0.09-0.28,0.14-0.31,0.32-0.35c1.1-0.23,2.18-0.58,3.33-0.99c-0.15,0.92-0.32,1.78-0.42,2.64c-0.16,1.3-0.28,2.6-0.42,3.91
		c-0.14,0.28-0.1,0.56-0.03,0.84c0.04,0.95,0.75,1.35,1.46,1.7c0.9,0.44,1.82,0.41,2.65-0.21c0.97-0.72,1.43-1.75,1.7-2.89
		c0.11-0.42,0.12-0.85-0.01-1.27c-0.21-0.71-0.33-1.45-0.78-2.08c-0.46-0.63-0.99-1.14-1.84-1.08c-0.82,0.06-1.19,0.65-1.47,1.32
		C98.95,262.19,98.94,262.42,99.06,262.65z"/>
	<path class="st3" d="M160.67,264.48c-0.34,1.87-0.27,3.66,1.13,5.13c0.99,1.04,2.4,1.21,3.45,0.47c0.5-0.36,0.79-0.82,0.62-1.45
		c-0.13-0.48-0.93-0.92-1.5-0.87c-0.3,0.03-0.55,0.16-0.67,0.45c-0.11,0.26-0.09,0.51,0.21,0.65c0.26,0.12,0.46,0.04,0.56-0.24
		c0.06-0.17,0.05-0.42,0.34-0.3c0.23,0.09,0.28,0.3,0.26,0.52c-0.05,0.52-0.7,0.85-1.18,0.59c-0.41-0.22-0.64-0.57-0.61-1.03
		c0.03-0.5,0.24-0.9,0.72-1.12c0.74-0.35,1.66-0.1,2.12,0.6c0.51,0.77,0.37,1.86-0.35,2.42c-1.07,0.83-2.26,0.86-3.47,0.41
		c-2.06-0.76-3.4-2.73-3.36-4.9c0.04-2.1,1.63-4.33,3.55-4.98c1.45-0.49,3.26,0.11,4.15,1.36c0.51,0.72,0.47,1.46,0.05,2.18
		c-1,1.72-4.47,1.94-5.7,0.38c-0.25-0.69-0.07-1.26,0.54-1.68c0.55-0.38,1.29-0.36,1.78,0.03c0.49,0.4,0.45,1.15-0.09,1.5
		c-0.23,0.15-0.48,0.2-0.72,0.04c-0.25-0.17-0.19-0.39-0.07-0.62c0.09-0.17,0.17-0.38-0.1-0.45c-0.23-0.06-0.33,0.14-0.4,0.32
		c-0.12,0.35-0.02,0.65,0.3,0.85c0.71,0.44,1.49,0.57,2.3,0.36c0.72-0.19,1.14-0.98,1.02-1.79c-0.14-0.95-0.95-1.89-1.78-2.06
		c-0.83-0.17-1.61,0.26-2.21,1.18C161.14,263.07,160.97,263.8,160.67,264.48z"/>
	<path class="st1" d="M187.28,266.9c-0.64,0.01-1.27-0.05-1.86-0.32c-0.48-0.22-0.82-0.57-0.8-1.14c0.02-0.57,0.34-0.97,0.85-1.2
		c0.52-0.23,1.02-0.16,1.47,0.17c0.22,0.16,0.32,0.39,0.22,0.68c-0.11,0.31-0.28,0.55-0.6,0.64c-0.15,0.04-0.35,0.06-0.45-0.1
		c-0.17-0.24,0.1-0.25,0.2-0.34c0.29-0.28,0.26-0.55-0.05-0.77c-0.29-0.21-0.56-0.17-0.76,0.17c-0.33,0.55-0.23,1.05,0.33,1.39
		c0.67,0.4,1.41,0.54,2.17,0.43c0.83-0.12,1.32-0.69,1.39-1.53c0.13-1.51-0.94-2.81-2.3-2.81c-0.72,0-1.25,0.34-1.7,0.86
		c-1.47,1.7-1.66,5.33-0.38,7.17c1.02,1.47,2.66,1.9,3.9,1.02c0.49-0.35,0.8-0.8,0.63-1.44c-0.14-0.5-0.87-0.91-1.48-0.86
		c-0.33,0.03-0.6,0.14-0.68,0.5c-0.06,0.24-0.04,0.47,0.23,0.59c0.29,0.13,0.43,0,0.55-0.26c0.06-0.13,0.04-0.44,0.35-0.28
		c0.24,0.13,0.33,0.33,0.24,0.59c-0.14,0.39-0.43,0.64-0.85,0.6c-0.5-0.05-0.81-0.38-0.91-0.86c-0.16-0.75,0.38-1.43,1.18-1.53
		c0.76-0.1,1.47,0.31,1.77,1c0.33,0.76,0.16,1.61-0.44,2.12c-0.88,0.75-1.92,0.86-3,0.61c-2.22-0.5-3.9-2.7-3.89-5.01
		c0.01-2.26,1.83-4.64,3.92-5.13c1.38-0.32,3.07,0.34,3.84,1.52c0.55,0.84,0.37,1.95-0.44,2.66
		C189.15,266.73,188.26,266.95,187.28,266.9z"/>
	<path class="st1" d="M90.56,264.93c-0.64,0.01-1.27-0.06-1.86-0.34c-0.48-0.23-0.79-0.6-0.75-1.16c0.04-0.57,0.38-0.96,0.89-1.17
		c0.52-0.21,1.02-0.13,1.46,0.23c0.21,0.18,0.28,0.42,0.16,0.7c-0.12,0.3-0.3,0.54-0.63,0.6c-0.16,0.03-0.35,0.04-0.43-0.15
		c-0.08-0.19,0.12-0.21,0.22-0.29c0.17-0.15,0.28-0.31,0.17-0.55c-0.1-0.21-0.28-0.31-0.5-0.34c-0.26-0.04-0.38,0.15-0.48,0.34
		c-0.27,0.53-0.22,1,0.33,1.33c0.69,0.41,1.45,0.57,2.24,0.43c1.04-0.19,1.59-1.15,1.3-2.34c-0.23-0.93-0.76-1.69-1.75-1.93
		c-0.98-0.24-1.74,0.18-2.33,0.95c-1.31,1.69-1.48,5.09-0.35,6.89c0.97,1.55,2.7,2.06,3.98,1.16c0.52-0.37,0.84-0.84,0.63-1.5
		c-0.16-0.49-0.93-0.88-1.52-0.81c-0.33,0.04-0.58,0.18-0.64,0.54c-0.04,0.26,0.02,0.47,0.29,0.56c0.26,0.09,0.38-0.04,0.49-0.26
		c0.07-0.13,0.03-0.45,0.34-0.3c0.27,0.13,0.36,0.36,0.23,0.65c-0.16,0.39-0.46,0.62-0.88,0.54c-0.49-0.08-0.79-0.41-0.86-0.9
		c-0.15-0.99,0.83-1.74,1.87-1.43c0.67,0.2,1.07,0.67,1.21,1.34c0.14,0.69-0.03,1.31-0.6,1.77c-0.88,0.71-1.89,0.82-2.94,0.58
		c-2.19-0.48-3.9-2.66-3.91-4.93c-0.01-2.31,1.78-4.71,3.9-5.21c1.39-0.33,3.06,0.32,3.85,1.5c0.57,0.85,0.38,1.99-0.47,2.71
		C92.44,264.79,91.54,264.98,90.56,264.93z"/>
	<path class="st4" d="M228.97,270.7c-0.95,0.54-1.82,0.21-2.64-0.28c-1.38-0.83-2.08-2.61-1.74-4.23c0.31-1.48,1.79-2.98,3.2-3.24
		c0.77-0.14,1.41,0.2,2.38,1.3c0.05-0.74,0.1-1.39,0.14-2.05c0.07-1.59,0.12-3.18,0.22-4.77c0.03-0.45-0.07-0.59-0.52-0.55
		c-0.17,0.02-0.48,0.12-0.47-0.22c0.01-0.29,0.28-0.19,0.44-0.19c0.94-0.02,1.86-0.16,2.98-0.3c-1.48,1.03-1.16,2.53-1.36,3.82
		c-0.48,3.01-0.81,6.04-0.83,9.09c0,0.72,0.05,1.41,0.66,1.91c0.18,0.15,0.11,0.27,0,0.4c-0.13,0.16-0.25,0.07-0.36-0.02
		c-0.52-0.39-0.63-0.97-0.72-1.55c-0.21-1.42-0.15-2.85-0.18-4.28c-0.02-0.91-0.76-1.92-1.61-2.15c-0.74-0.21-1.53,0.21-2.03,1.17
		c-0.93,1.76-0.76,3.53,0.15,5.24c0.42,0.78,1.21,1.02,2.12,0.76C228.87,270.59,228.96,270.6,228.97,270.7z"/>
	<path class="st5" d="M179.52,269.32c-0.16-0.51-0.13-0.89,0.08-1.25c0.39-0.66,0.95-0.8,1.6-0.39c0.91,0.58,1.38,1.88,1.05,2.91
		c-0.22,0.69-0.79,1.05-1.72,1.08c-1.18,0.03-2.33-0.27-3.49-0.44c-0.99-0.14-1.96-0.16-2.95-0.03c-0.15,0.02-0.41,0.17-0.42-0.16
		c-0.01-0.25,0.2-0.2,0.35-0.22c1.44-0.21,1.44-0.21,1.48-1.68c0.09-3.19-0.04-6.37-0.47-9.54c-0.13-0.97-0.14-0.97-1.13-0.83
		c-0.18,0.03-0.39,0.1-0.55,0.04c-0.17-0.07-0.08-0.29-0.07-0.44c0.03-0.25,0.23-0.19,0.38-0.18c1.29,0.16,2.58,0.17,3.87,0
		c0.15-0.02,0.34-0.05,0.36,0.2c0.02,0.24-0.08,0.31-0.31,0.34c-0.37,0.05-0.88-0.23-1.09,0.16c-0.15,0.29-0.01,0.73,0,1.1
		c0.13,3.43-0.04,6.84-0.49,10.23c-0.04,0.31-0.04,0.46,0.35,0.47c1.2,0.02,2.4,0.08,3.59,0.13c0.31,0.01,0.61-0.04,0.9-0.13
		c0.8-0.26,1.15-0.64,1.09-1.24c-0.06-0.54-0.23-1.02-0.84-1.15C180.41,268.15,179.84,268.52,179.52,269.32z"/>
	<path class="st3" d="M121.27,260c0,0.67,0,1.34,0,2.05c0.28-0.15,0.28-0.41,0.38-0.6c0.27-0.55,0.58-1.07,1.05-1.48
		c0.61-0.54,1.29-0.89,2.12-0.58c0.84,0.32,1.28,0.97,1.36,1.87c-0.08,0.23-0.08,0.46,0,0.69c-0.19,1.41-1.22,2.3-2.47,2.13
		c-0.59-0.08-0.89-0.45-1.07-0.99c-0.21-0.63,0.21-0.95,0.62-1.29c0.42-0.34,0.86-0.36,1.31-0.09c0.38,0.23,0.51,0.54,0.23,0.94
		c-0.11,0.15-0.28,0.18-0.45,0.13c-0.21-0.07-0.09-0.2-0.05-0.33c0.05-0.2-0.02-0.39-0.23-0.45c-0.19-0.05-0.31,0.1-0.4,0.23
		c-0.22,0.33-0.29,0.69-0.08,1.06c0.2,0.34,0.51,0.44,0.91,0.38c0.78-0.14,1.34-0.93,1.28-1.85c-0.05-0.75-0.82-1.38-1.7-1.36
		c-0.55,0.02-1.09,0.16-1.47,0.59c-0.75,0.84-1.32,1.74-1.21,2.95c0.16,1.77,0.27,3.55,0.41,5.37c0.76-0.17,1.4-0.5,2.04-0.83
		c0.15-0.08,0.32-0.29,0.46-0.01c0.12,0.24-0.02,0.37-0.25,0.48c-1.36,0.66-2.79,1.12-4.29,1.32c-0.2,0.03-0.37,0.07-0.39-0.22
		c-0.02-0.28,0.15-0.27,0.35-0.3c1.55-0.23,1.58-0.24,1.38-1.79c-0.29-2.28-0.76-4.52-1.36-6.74c-0.14-0.52-0.33-0.54-0.77-0.36
		c-0.31,0.12-0.86,0.49-0.94,0.17c-0.12-0.43,0.53-0.34,0.84-0.46c0.79-0.32,1.54-0.69,2.21-1.22
		C121.49,259.49,121.28,259.77,121.27,260z"/>
	<path class="st6" d="M233.31,276.29c-0.19,0.26-0.48,0.15-0.72,0.15c-51.8,0-103.61,0-155.41,0c-0.24,0-0.53,0.11-0.72-0.15
		c0.19-0.17,0.43-0.17,0.67-0.18c0.24-0.01,0.47,0,0.71,0c51.37,0,102.74,0,154.11,0.01C232.4,276.12,232.88,275.99,233.31,276.29z"
		/>
	<path class="st7" d="M233.31,276.29c-0.28,0.01-0.56,0.02-0.85,0.02c-51.7,0-103.39,0-155.09,0c-0.31,0-0.61-0.01-0.92-0.02
		c-0.02-0.04-0.01-0.09,0.01-0.13c0.34-0.24,0.73-0.13,1.1-0.13c22.86-0.01,45.73,0,68.59,0c28.68,0,57.36,0,86.04,0
		c0.37,0,0.76-0.1,1.1,0.13C233.31,276.21,233.32,276.25,233.31,276.29z"/>
	<path class="st8" d="M76.46,276.04c0.22-0.27,0.53-0.14,0.79-0.14c7.56-0.01,15.12-0.01,22.68-0.01c44.15,0,88.31,0,132.46,0.01
		c0.3,0,0.66-0.17,0.92,0.15c-0.25,0.1-0.51,0.05-0.77,0.05c-51.77,0-103.54,0-155.31,0C76.97,276.09,76.7,276.15,76.46,276.04z"/>
	<path class="st9" d="M76.46,276.04c0.28,0,0.57-0.01,0.85-0.01c51.74,0,103.48,0,155.22,0c0.26,0,0.52,0.01,0.78,0.02
		c0.02,0.04,0.01,0.08-0.01,0.12c-42.01,0-84.02,0-126.03,0c-10.27,0-20.53,0-30.8,0C76.43,276.13,76.43,276.08,76.46,276.04z"/>
	<path class="st5" d="M196.42,272.47c-0.46,0.52-0.46,0.93,0.01,1.38c0.47,0.44,0.97,0.47,1.44,0.05c0.5-0.45,0.79-1.05,1.03-1.66
		c0.35-0.87,0.61-1.77,0.93-2.65c0.07-0.19,0.07-0.35,0-0.54c-0.78-2.09-1.62-4.14-2.8-6.04c-0.38-0.62-0.74-0.97-1.49-0.55
		c-0.1,0.06-0.43,0.39-0.54-0.04c-0.08-0.32,0.27-0.25,0.42-0.32c0.51-0.22,1.08-0.33,1.56-0.6c0.54-0.31,0.77-0.11,1.01,0.34
		c0.7,1.28,1.13,2.67,1.54,4.06c0.24,0.83,0.47,1.66,0.76,2.68c0.93-2.03,2.14-3.74,2.6-5.79c0.21-0.97-0.36-1.68-1.16-1.55
		c-0.24,0.04-0.42,0.15-0.42,0.39c0,0.23,0.06,0.47,0.4,0.46c0.14,0,0.35-0.09,0.4,0.16c0.04,0.21-0.09,0.35-0.26,0.46
		c-0.18,0.13-0.35,0.08-0.52-0.04c-0.46-0.35-0.56-0.79-0.34-1.31c0.25-0.57,0.86-0.92,1.34-0.79c0.77,0.22,1.26,0.96,1.14,1.79
		c-0.14,0.96-0.55,1.84-0.98,2.69c-1.18,2.34-2.41,4.65-3,7.24c-0.2,0.91-0.69,1.68-1.67,2.03c-0.54,0.19-1.06,0.19-1.58-0.02
		c-0.43-0.17-0.8-0.45-0.81-0.96c-0.01-0.53,0.28-0.87,0.8-1.01C196.39,272.28,196.43,272.34,196.42,272.47z"/>
	<path class="st3" d="M156.01,254.76c-1.32,0.47-1.79,1.52-1.83,2.8c-0.05,1.71,0.29,3.4,0.49,5.1c0.13,1.11,0.16,1.12,1.27,0.97
		c0.56-0.08,1.1-0.23,1.65-0.35c0.16-0.03,0.37-0.2,0.43,0.13c0.05,0.26-0.04,0.39-0.31,0.43c-0.79,0.11-1.58,0.26-2.37,0.35
		c-0.35,0.04-0.49,0.11-0.47,0.49c0.1,1.8,0.18,3.6,0.24,5.4c0.01,0.38,0.15,0.42,0.47,0.34c0.36-0.09,0.73-0.16,1.1-0.24
		c0.17-0.04,0.37-0.18,0.43,0.13c0.05,0.24-0.04,0.34-0.28,0.37c-1.1,0.13-2.19,0.27-3.29,0.4c-0.15,0.02-0.29,0.01-0.31-0.18
		c-0.02-0.22,0.07-0.34,0.32-0.36c0.32-0.03,0.75,0.14,0.94-0.11c0.24-0.31,0.08-0.77,0.06-1.16c-0.06-1.47-0.16-2.94-0.37-4.41
		c-0.06-0.43-0.19-0.58-0.63-0.44c-0.29,0.09-0.6,0.08-0.91,0.12c-0.19,0.03-0.38,0.11-0.41-0.19c-0.03-0.27,0.09-0.39,0.36-0.4
		c0.21-0.01,0.42-0.03,0.63-0.04c0.84-0.05,0.85-0.06,0.64-0.89c-0.35-1.38-0.8-2.74-1.05-4.15c-0.37-2.09,0.91-3.99,2.87-4.27
		C155.83,254.57,156,254.48,156.01,254.76z"/>
	<path class="st10" d="M219.32,261.52c0.79-0.85,1.75-1.32,2.9-0.95c1.15,0.37,1.63,1.34,1.81,2.47c0.22,1.35-0.25,2.53-0.93,3.66
		c-0.68,1.11-1.23,2.26-1.44,3.56c-0.05,0.35-0.05,0.7-0.08,1.05c-0.01,0.14,0,0.3-0.19,0.31c-0.24,0.02-0.26-0.15-0.26-0.33
		c0-0.33,0-0.65,0-1.05c-0.46,0.23-0.86,0.45-1.28,0.63c-0.91,0.39-1.85,0.09-2.24-0.69c-0.41-0.83-0.1-1.63,0.83-2.17
		c0.82-0.48,1.74-0.37,2.62-0.4c0.57-0.02,0.82-0.22,1.02-0.73c0.53-1.35,0.65-2.72,0.4-4.14c-0.25-1.44-1.04-1.99-2.69-1.23
		c-0.11,0.05-0.2,0.11-0.31,0.17C219.34,261.72,219.29,261.66,219.32,261.52z"/>
	<path class="st10" d="M146.12,260.96c0.79-0.85,1.75-1.32,2.9-0.95c1.15,0.37,1.63,1.34,1.81,2.47c0.22,1.35-0.25,2.53-0.93,3.66
		c-0.68,1.11-1.23,2.26-1.44,3.56c-0.05,0.35-0.05,0.7-0.08,1.05c-0.01,0.14,0,0.3-0.19,0.31c-0.24,0.02-0.26-0.15-0.26-0.33
		c0-0.33,0-0.65,0-1.05c-0.46,0.23-0.86,0.45-1.28,0.63c-0.91,0.39-1.85,0.09-2.24-0.69c-0.41-0.83-0.1-1.63,0.83-2.17
		c0.82-0.48,1.74-0.37,2.62-0.4c0.57-0.02,0.82-0.22,1.02-0.73c0.53-1.35,0.65-2.72,0.4-4.14c-0.25-1.44-1.04-1.99-2.69-1.23
		c-0.11,0.05-0.2,0.11-0.31,0.17C146.13,261.16,146.09,261.1,146.12,260.96z"/>
	<path class="st3" d="M108.14,260.13c0.74-0.9,1.71-1.26,2.81-0.95c1.11,0.31,1.62,1.23,1.82,2.3c0.23,1.25-0.06,2.41-0.71,3.5
		c-0.7,1.17-1.37,2.35-1.59,3.72c-0.06,0.39-0.07,0.79-0.1,1.19c-0.01,0.16,0.02,0.35-0.23,0.35c-0.24,0-0.24-0.17-0.24-0.34
		c0-0.32,0-0.65,0-1.02c-0.59,0.2-1.06,0.62-1.66,0.76c-0.73,0.16-1.52-0.18-1.85-0.83c-0.34-0.66-0.19-1.38,0.42-1.89
		c0.44-0.37,0.95-0.59,1.54-0.62c0.59-0.03,1.17-0.09,1.76-0.11c0.32-0.01,0.5-0.12,0.63-0.43c0.61-1.39,0.79-2.82,0.53-4.32
		c-0.26-1.54-1.08-2.07-2.76-1.29c-0.08,0.04-0.17,0.08-0.25,0.12C108.19,260.24,108.15,260.19,108.14,260.13z"/>
	<path class="st5" d="M210.57,263.32c-0.23-0.52-0.01-0.67,0.45-0.76c1.4-0.27,1.4-0.29,1.28-1.75c-0.01-0.07-0.01-0.14-0.02-0.21
		c-0.09-1.18-0.08-1.13,1.06-1.38c0.55-0.12,0.54,0.11,0.51,0.48c-0.06,0.74-0.12,1.48-0.17,2.23c0.78-0.19,1.53-0.36,2.27-0.57
		c0.26-0.07,0.37-0.1,0.42,0.22c0.03,0.24,0.06,0.37-0.25,0.42c-0.72,0.12-1.45,0.13-2.15,0.36c-0.21,0.07-0.39,0.07-0.42,0.36
		c-0.24,1.9-0.84,3.75-1.03,5.66c-0.05,0.47-0.04,0.94,0.04,1.4c0.07,0.43,0.26,0.8,0.59,1.1c0.6,0.54,1.49,0.5,1.94-0.06
		c0.56-0.7,0.54-1.96-0.03-2.39c-0.22-0.16-0.43-0.19-0.64,0c-0.21,0.19-0.32,0.46-0.2,0.7c0.22,0.42,0.4-0.01,0.71-0.12
		c-0.1,0.41-0.22,0.74-0.64,0.69c-0.43-0.05-0.83-0.26-0.78-0.81c0.05-0.58,0.47-0.86,0.97-0.98c0.95-0.22,1.89,0.69,1.74,1.65
		c-0.17,1.07-1.02,1.97-1.88,1.99c-1.18,0.03-2.12-0.7-2.37-1.88c-0.23-1.05,0.03-2.1,0.08-3.15c0.06-1.05,0.15-2.1,0.26-3.15
		c0.05-0.43-0.12-0.49-0.47-0.39C211.41,263.08,210.99,263.2,210.57,263.32z"/>
	<path class="st5" d="M191.79,256.85c1.16-0.12,2.31-0.22,3.45-0.47c0.11-0.02,0.18-0.01,0.21,0.1c0.04,0.17-0.03,0.27-0.21,0.28
		c-0.6,0.01-0.66,0.41-0.7,0.89c-0.4,3.94-1.08,7.83-2.11,11.66c-0.04,0.14-0.06,0.27-0.08,0.41c-0.1,0.68,0.05,1.29,0.64,1.67
		c0.55,0.35,1.09,0.07,1.57-0.23c0.58-0.37,0.84-0.93,0.77-1.62c-0.03-0.33-0.21-0.58-0.54-0.67c-0.38-0.1-0.73,0.04-0.96,0.3
		c-0.17,0.19-0.2,0.5,0.23,0.52c0.16,0.01,0.33,0,0.55,0c-0.23,0.32-0.42,0.63-0.79,0.31c-0.37-0.32-0.35-0.79-0.11-1.14
		c0.32-0.48,0.82-0.85,1.44-0.67c0.63,0.18,0.91,0.71,0.9,1.36c-0.01,1.21-1.92,2.7-3.07,2.39c-0.65-0.18-1.04-0.83-1-1.66
		c0.06-1.41,0.34-2.79,0.55-4.18c0.43-2.86,0.46-5.74,0.51-8.62c0.01-0.38-0.12-0.49-0.49-0.45
		C192.3,257.04,192.03,257.1,191.79,256.85z"/>
	<path class="st5" d="M208.85,263.9c0.36-0.74,0.05-1.32-0.48-1.82c-0.47-0.44-1.02-0.57-1.62-0.28c-0.66,0.33-0.92,0.88-0.89,1.61
		c0.05,1.22,0.66,2.12,1.57,2.86c0.55,0.44,1.11,0.88,1.51,1.46c0.64,0.91,0.72,1.89,0.18,2.85c-0.52,0.91-1.25,1.59-2.43,1.51
		c-0.65-0.04-1.14-0.54-1.41-1.38c-0.21-0.66-0.04-1.2,0.48-1.63c0.34-0.28,0.72-0.33,1.1-0.07c0.22,0.15,0.28,0.37,0.16,0.62
		c-0.14,0.29-0.32,0.06-0.46,0c-0.41-0.19-0.68,0.01-0.91,0.31c-0.26,0.35-0.03,0.62,0.2,0.86c0.66,0.68,1.8,0.78,2.42,0.24
		c0.78-0.69,0.84-1.64,0.11-2.49c-0.72-0.84-1.64-1.47-2.48-2.19c-0.53-0.46-0.91-1-1.09-1.68c-0.3-1.1-0.04-2.04,0.83-2.78
		c0.85-0.73,1.81-0.82,2.82-0.4c1.22,0.51,1.4,1.57,0.47,2.58C208.85,264.07,208.8,264.02,208.85,263.9z"/>
	<path class="st11" d="M160.67,264.48c0.06-1.02,0.46-1.9,1.12-2.66c0.79-0.9,1.97-1.06,2.84-0.41c1.05,0.77,1.44,2.28,0.84,3.24
		c-0.2,0.33-0.49,0.58-0.87,0.67c-0.86,0.19-1.69,0.09-2.44-0.37c-0.54-0.32-0.65-0.85-0.33-1.38c0.19-0.32,0.45-0.42,0.75-0.19
		c0.3,0.22,0.34,0.49,0.07,0.77c-0.1,0.1-0.38,0.12-0.22,0.34c0.14,0.2,0.38,0.19,0.57,0.08c0.3-0.17,0.5-0.42,0.51-0.78
		c0.01-0.37-0.24-0.54-0.52-0.67c-1.08-0.5-2.1,0.35-2,1.65C160.88,264.66,160.78,264.57,160.67,264.48z"/>
	<path class="st12" d="M116.56,261.24c-0.13,2.55-0.25,5.1-0.4,7.65c-0.03,0.56,0.1,0.76,0.67,0.68c0.44-0.06,0.89-0.04,1.34-0.08
		c0.23-0.02,0.36,0.01,0.37,0.28c0,0.25-0.11,0.33-0.34,0.33c-1.22,0.02-2.45-0.05-3.66,0.18c-0.16,0.03-0.29,0-0.3-0.19
		c-0.01-0.16-0.04-0.34,0.2-0.38c0.05-0.01,0.09,0,0.14-0.01c1.07-0.15,1.05-0.15,1.05-1.24c-0.01-2.32-0.16-4.64-0.35-6.95
		c-0.04-0.54-0.07-1.11-0.89-0.96c-0.15,0.03-0.43,0.1-0.44-0.19c-0.02-0.35,0.28-0.25,0.46-0.24c0.97,0.03,1.93,0,2.87-0.29
		c0.11-0.04,0.28-0.14,0.34,0.08c0.04,0.18,0.01,0.32-0.2,0.38c-0.27,0.08-0.53,0.17-0.8,0.26
		C116.44,260.77,116.5,261.01,116.56,261.24z"/>
	<path class="st13" d="M108.14,260.13c0.04,0.05,0.07,0.09,0.11,0.14c-0.64,0.81-0.87,1.74-0.85,2.75c0.01,0.43,0.18,0.77,0.59,0.95
		c0.41,0.18,0.73-0.03,1.01-0.29c0.32-0.29,0.58-0.65,0.46-1.11c-0.09-0.36-0.4-0.51-0.75-0.52c-0.18-0.01-0.31,0.1-0.36,0.28
		c-0.06,0.19,0,0.32,0.21,0.36c0.1,0.02,0.27-0.05,0.24,0.14c-0.02,0.15-0.17,0.21-0.31,0.24c-0.2,0.04-0.37-0.02-0.51-0.17
		c-0.19-0.22-0.2-0.46-0.1-0.72c0.24-0.6,1.07-0.81,1.84-0.45c0.53,0.25,0.67,0.77,0.32,1.37c-0.35,0.61-0.9,1.03-1.58,1.22
		c-1.14,0.32-2.08-0.58-1.84-1.75C106.82,261.57,107.31,260.74,108.14,260.13z"/>
	<path class="st14" d="M219.32,261.52c0.05,0.05,0.11,0.1,0.16,0.15c-0.63,0.76-0.84,1.66-0.85,2.62c-0.01,0.68,0.39,1.15,0.9,1.12
		c0.58-0.03,1.27-0.81,1.19-1.36c-0.03-0.23-0.15-0.4-0.35-0.5c-0.18-0.09-0.38-0.2-0.6-0.09c-0.15,0.07-0.19,0.2-0.2,0.34
		c-0.04,0.38,0.36,0.18,0.5,0.37c-0.2,0.32-0.46,0.39-0.76,0.19c-0.3-0.2-0.32-0.5-0.19-0.81c0.25-0.6,1.08-0.8,1.84-0.44
		c0.52,0.25,0.65,0.79,0.31,1.38c-0.36,0.61-0.91,1.02-1.58,1.21c-1.06,0.31-2.01-0.54-1.85-1.63
		C218,263.03,218.54,262.2,219.32,261.52z"/>
	<path class="st14" d="M146.12,260.96c0.05,0.05,0.11,0.1,0.16,0.15c-0.63,0.76-0.84,1.66-0.85,2.62c-0.01,0.68,0.39,1.15,0.9,1.12
		c0.58-0.03,1.27-0.81,1.19-1.36c-0.03-0.23-0.15-0.4-0.35-0.5c-0.18-0.09-0.38-0.2-0.6-0.09c-0.15,0.07-0.19,0.2-0.2,0.34
		c-0.04,0.38,0.36,0.18,0.5,0.37c-0.2,0.32-0.46,0.39-0.76,0.19c-0.3-0.2-0.32-0.5-0.19-0.81c0.25-0.6,1.08-0.8,1.84-0.44
		c0.52,0.25,0.65,0.79,0.31,1.38c-0.36,0.61-0.91,1.02-1.58,1.21c-1.06,0.31-2.01-0.54-1.85-1.63
		C144.79,262.47,145.33,261.64,146.12,260.96z"/>
	<path class="st15" d="M116.99,280.42c-0.15-0.38-0.08-0.79-0.1-1.18c-0.01-0.18-0.06-0.41,0.24-0.4c0.25,0.01,0.19,0.22,0.2,0.37
		c0.04,0.67,0.07,1.34,0.12,2.21c0.4-0.85,0.72-1.51,1.04-2.18c0.1-0.21,0.17-0.48,0.49-0.41c0.31,0.07,0.17,0.34,0.19,0.53
		c0.05,0.63,0.08,1.25,0.12,1.99c0.59-0.86,0.76-1.88,1.39-2.6c0.08,0.05,0.17,0.1,0.25,0.16c-0.44,0.92-0.88,1.84-1.32,2.77
		c-0.12,0.25-0.22,0.49-0.55,0.41c-0.35-0.09-0.16-0.38-0.21-0.59c-0.02-0.09,0.01-0.18,0.02-0.28c0.07-0.51,0.14-1.03-0.04-1.54
		c-0.63,0.54-0.74,1.36-1.12,2.04c-0.14,0.24-0.26,0.46-0.58,0.36c-0.14-0.04-0.12-0.18-0.1-0.29
		C117.09,281.34,117.17,280.88,116.99,280.42z"/>
	<path class="st13" d="M147.21,280.63c0.41-0.58,0.74-1.02,1.04-1.49c0.16-0.25,0.37-0.38,0.64-0.29c0.37,0.13,0.07,0.4,0.04,0.58
		c-0.13,0.71-0.29,1.42-0.49,2.12c-0.06,0.2,0.03,0.65-0.37,0.52c-0.32-0.1-0.08-0.43-0.04-0.65c0.11-0.55,0.24-1.09,0.24-1.7
		c-0.29,0.41-0.58,0.81-0.87,1.22c-0.09,0.13-0.18,0.33-0.37,0.25c-0.1-0.04-0.16-0.22-0.2-0.34c-0.11-0.43-0.21-0.86-0.41-1.29
		c-0.16,0.7-0.31,1.41-0.49,2.11c-0.04,0.17-0.02,0.5-0.34,0.43c-0.38-0.08-0.09-0.34-0.06-0.5c0.14-0.73,0.31-1.46,0.49-2.19
		c0.06-0.23-0.01-0.58,0.45-0.57c0.45,0.01,0.35,0.38,0.43,0.6C147.04,279.75,147.09,280.1,147.21,280.63z"/>
	<path class="st16" d="M156.88,254.62c1.21,0.24,1.97,1.28,1.73,2.38c-0.2,0.9-1.29,1.53-2.27,1.29c-0.53-0.13-0.89-0.67-0.75-1.17
		c0.13-0.47,0.72-0.72,1.23-0.54c0.19,0.07,0.33,0.16,0.36,0.37c0.01,0.06-0.03,0.16-0.07,0.18c-0.23,0.1-0.25-0.13-0.35-0.24
		c-0.23-0.25-0.37-0.09-0.47,0.12c-0.18,0.37-0.08,0.71,0.24,0.93c0.37,0.25,0.72,0.12,0.99-0.22c0.6-0.74,0.3-2.19-0.57-2.73
		c-0.16-0.1-0.34-0.15-0.51-0.23C156.49,254.43,156.7,254.58,156.88,254.62z"/>
	<path class="st17" d="M128.86,279.67c-0.2,0.84-0.34,1.61-0.56,2.37c-0.23,0.8-0.89,1.17-1.68,0.99c-0.16-0.04-0.42-0.02-0.33-0.32
		c0.07-0.27,0.25-0.11,0.39-0.09c0.54,0.08,1.04,0.08,1.19-0.61c-0.05-0.03-0.1-0.07-0.13-0.06c-0.43,0.15-0.88,0.29-1.21-0.16
		c-0.33-0.45-0.18-0.94,0.04-1.39c0.25-0.52,0.68-0.85,1.28-0.8C128.17,279.61,128.49,279.72,128.86,279.67z"/>
	<path class="st15" d="M125.07,282c-1.07,0.14-1.37,0.02-1.47-0.6c-0.13-0.79,0.41-1.62,1.13-1.8c0.43-0.11,0.82,0.19,1.34,0.03
		c-0.21,0.9-0.37,1.72-0.6,2.51c-0.21,0.71-0.89,1.05-1.62,0.89c-0.17-0.04-0.42-0.02-0.34-0.32c0.07-0.28,0.25-0.11,0.39-0.09
		C124.42,282.69,124.92,282.71,125.07,282z"/>
	<path class="st18" d="M229.5,268.87c-0.23-0.31-0.51-0.54-0.87-0.67c-0.35-0.12-0.65-0.03-0.89,0.23c-0.19,0.2-0.21,0.42,0.03,0.6
		c0.23,0.17,0.44,0.13,0.59-0.13c0.07-0.12,0.02-0.39,0.28-0.3c0.23,0.08,0.28,0.31,0.25,0.53c-0.04,0.3-0.24,0.51-0.5,0.64
		c-0.27,0.14-0.5,0.01-0.71-0.16c-0.51-0.4-0.55-1.12-0.09-1.7c0.45-0.57,1.2-0.66,1.74-0.2c0.55,0.47,0.74,1.35,0.46,2.12
		C229.32,269.61,229.75,269.15,229.5,268.87z"/>
	<path class="st19" d="M151.6,280.6c-0.02,0.9-0.68,1.62-1.45,1.6c-0.58-0.02-0.92-0.41-0.91-1.03c0.02-0.88,0.69-1.62,1.46-1.6
		C151.26,279.59,151.61,279.99,151.6,280.6z"/>
	<path class="st20" d="M154.32,280.63c-0.03,0.87-0.65,1.57-1.4,1.57c-0.61,0-0.98-0.42-0.95-1.06c0.04-0.87,0.67-1.57,1.42-1.57
		C153.99,279.58,154.34,279.96,154.32,280.63z"/>
	<path class="st21" d="M115.46,258.83c-0.89-0.36-1.28-1-1.11-1.84c0.16-0.81,0.9-1.49,1.64-1.49c0.83-0.01,1.4,0.39,1.54,1.06
		c-1.26-0.57-2.35-0.41-2.76,0.41c-0.31,0.62,0.04,1.23,0.98,1.73C115.68,258.82,115.54,258.75,115.46,258.83z"/>
	<path class="st19" d="M131.53,280.59c-0.02,0.91-0.67,1.63-1.44,1.61c-0.58-0.02-0.93-0.4-0.92-1.01c0.01-0.89,0.68-1.63,1.45-1.61
		C131.19,279.59,131.55,279.99,131.53,280.59z"/>
	<path class="st21" d="M134.25,280.64c-0.03,0.87-0.65,1.57-1.4,1.56c-0.61,0-0.97-0.42-0.94-1.06c0.04-0.88,0.66-1.56,1.41-1.56
		C133.93,279.57,134.28,279.97,134.25,280.64z"/>
	<path class="st22" d="M166.02,257.28c0,0.22-0.18,0.24-0.29,0.28c-1.13,0.41-2.19,0.94-3.21,1.56c-0.15,0.09-0.32,0.25-0.46-0.04
		c-0.15-0.3,0.13-0.3,0.26-0.37c0.99-0.54,1.9-1.19,2.81-1.86c0.16-0.11,0.32-0.41,0.5-0.27
		C165.83,256.74,165.9,257.05,166.02,257.28z"/>
	<path class="st23" d="M137.33,280.94c-0.15,0-0.25-0.03-0.33,0c-0.22,0.08-0.64-0.23-0.63,0.28c0,0.45,0.33,0.59,0.73,0.57
		c0.16-0.01,0.32-0.07,0.48-0.1c0.12-0.02,0.27-0.2,0.36-0.03c0.09,0.17-0.04,0.29-0.21,0.38c-0.52,0.26-1.37,0.17-1.64-0.23
		c-0.38-0.56-0.22-1.13,0.14-1.63c0.38-0.51,0.89-0.76,1.54-0.53c0.49,0.17,0.53,0.57,0.45,0.98
		C138.08,281.25,137.57,280.79,137.33,280.94z"/>
	<path class="st24" d="M121.39,280.94c0.02,0.89,0.33,1.03,1.51,0.66c-0.06,0.43-0.19,0.54-0.78,0.57
		c-0.49,0.02-0.96-0.05-1.16-0.58c-0.33-0.89,0.44-2.01,1.39-2.01c0.49,0,0.86,0.18,0.89,0.76c0.02,0.43-0.09,0.66-0.58,0.61
		c-0.37-0.04-0.75-0.03-1.12-0.04c0.28-0.46,0.73-0.21,1.1-0.24c0.09-0.01,0.16-0.02,0.07-0.02c-0.01,0-0.01-0.04-0.02-0.07
		c-0.39-0.59-0.61-0.58-1.06,0.07C121.54,280.74,121.47,280.85,121.39,280.94z"/>
	<path class="st17" d="M140.91,280.56c-0.06,0.28-0.18,0.75-0.28,1.23c-0.04,0.17-0.07,0.34-0.29,0.3
		c-0.27-0.04-0.15-0.25-0.12-0.39c0.06-0.32,0.17-0.63,0.22-0.95c0.04-0.28,0.21-0.67-0.24-0.75c-0.38-0.06-0.76,0.06-0.9,0.49
		c-0.12,0.38-0.17,0.78-0.28,1.15c-0.05,0.17,0,0.49-0.32,0.44c-0.4-0.07-0.1-0.33-0.08-0.49c0.03-0.28,0.11-0.55,0.17-0.82
		c0.24-1.09,0.4-1.23,1.49-1.2C140.75,279.59,140.99,279.86,140.91,280.56z"/>
	<path class="st13" d="M84.57,269.25c-0.21,0.05-0.46-0.05-0.63,0.15c-0.71,0.25-0.97,0.7-0.72,1.24c0.09,0.2,0.21,0.38,0.46,0.36
		c0.24-0.01,0.27-0.22,0.32-0.4c0.04-0.16,0-0.43,0.31-0.31c0.27,0.1,0.27,0.32,0.15,0.52c-0.21,0.36-0.51,0.61-0.96,0.6
		c-0.47-0.01-0.89-0.16-1.12-0.59c-0.21-0.38-0.03-0.73,0.2-1.04C83.08,269.13,83.67,268.97,84.57,269.25z"/>
	<path class="st25" d="M166.03,279.77c-0.01,0.1-0.05,0.16-0.16,0.2c-0.25,0.09-0.63-0.16-0.75,0.19c-0.15,0.41-0.26,0.86-0.28,1.3
		c-0.02,0.46,0.43,0.29,0.79,0.34c-0.23,0.43-0.54,0.39-0.85,0.33c-0.3-0.06-0.5-0.28-0.42-0.55c0.25-0.79,0.05-1.67,0.52-2.41
		c0.07-0.1,0.09-0.21,0.23-0.21c0.09,0,0.17,0.01,0.22,0.12C165.56,279.65,165.57,279.65,166.03,279.77z"/>
	<path class="st26" d="M162.35,282.09c-0.66-0.15-0.93-0.73-0.66-1.5c0.06-0.17,0.18-0.32,0.28-0.48c0.14-0.12,0.24-0.05,0.33,0.07
		c0.35,0.37,0.35,0.37,0.9,0.17c-0.04-0.23-0.27-0.21-0.4-0.32c-0.11-0.09-0.2-0.19-0.13-0.35c0.58-0.05,1.17-0.12,1.27,0.7
		c-0.06,0.32-0.17,0.55-0.58,0.5c-0.35-0.04-0.71-0.01-1.06-0.01c-0.49,0.08-0.21,0.4-0.2,0.64c0.38,0.34,0.38,0.34,1.58,0.2
		c-0.05,0.34-0.32,0.34-0.56,0.37C162.85,282.18,162.6,282.18,162.35,282.09z"/>
	<path class="st27" d="M141.89,279.34c0.23-0.52,1-0.74,1.48-0.46c0.5,0.29,0.44,0.72,0.19,1.15c-0.29,0.5-1.02,0.57-1.21,1.19
		c-0.02,0.06-0.34,0.06-0.28-0.21c0.05-0.25,0.11-0.49,0.4-0.61c0.19-0.08,0.37-0.2,0.52-0.34c0.19-0.18,0.35-0.41,0.2-0.68
		c-0.14-0.28-0.42-0.27-0.68-0.22C142.33,279.19,142.15,279.26,141.89,279.34z"/>
	<path class="st28" d="M45.23,269.44c-0.39,0.31-0.27,0.63-0.09,1.02c0.21,0.43,0.51,0.22,0.77,0.19c0.57-0.09,1.15-0.18,1.71-0.34
		c0.5-0.15,0.75,0.01,0.86,0.48c0.07,0.17-0.02,0.19-0.16,0.17c-0.18-0.3-0.38-0.46-0.79-0.33c-0.53,0.16-1.12,0.15-1.63,0.34
		c-0.96,0.36-1-0.43-1.26-0.93c-0.3-0.58,0.31-0.58,0.56-0.81C45.27,269.3,45.28,269.37,45.23,269.44z"/>
	<path class="st29" d="M158.27,279.7c0.26,0.16,0.48-0.03,0.71-0.09c0.63-0.15,1.02,0.19,0.91,0.83c-0.08,0.46-0.21,0.91-0.31,1.36
		c-0.04,0.17-0.07,0.34-0.3,0.3c-0.27-0.05-0.15-0.24-0.12-0.38c0.06-0.3,0.15-0.59,0.21-0.88c0.16-0.81,0-0.95-0.83-0.73
		C158.38,280.03,158.09,280.02,158.27,279.7z"/>
	<path class="st30" d="M208.85,263.9c0.04,0.05,0.08,0.11,0.13,0.16c-0.34,0.39-0.76,0.58-1.24,0.33c-0.52-0.27-0.75-0.78-0.72-1.35
		c0.03-0.56,0.44-0.56,0.89-0.49c-0.08,0.42-0.65,0.78-0.21,1.21C208.01,264.06,208.43,264.2,208.85,263.9z"/>
	<path class="st19" d="M100.04,263.61c-0.14-0.08-0.28-0.16-0.42-0.25c0.4,0.04,0.7-0.12,0.81-0.51c0.11-0.38,0.05-0.7-0.38-0.85
		c-0.18-0.06-0.21-0.19-0.1-0.32c0.13-0.18,0.33-0.17,0.51-0.11c0.74,0.23,0.93,1.09,0.36,1.62
		C100.61,263.39,100.36,263.57,100.04,263.61z"/>
	<path class="st31" d="M56.84,275.18c0.28,0.59,0.56,1.17,0.84,1.76c0.04,0.14,0.01,0.22-0.15,0.21c-0.22-0.42-0.49-0.83-0.66-1.28
		c-0.17-0.43-0.43-0.52-0.87-0.57c-0.76-0.09-1.25,0.11-1.45,0.86c-0.16,0.02-0.23-0.04-0.16-0.2c0.12-0.38,0.2-0.78,0.54-1.05
		c0.45,0.09,0.91-0.03,1.36,0.02C56.5,274.96,56.75,274.87,56.84,275.18z"/>
	<path class="st32" d="M196.42,272.47c-0.06-0.04-0.11-0.09-0.17-0.13c0.25-0.2,0.53-0.26,0.84-0.26c0.49-0.01,0.86,0.21,0.86,0.7
		c0,0.47-0.46,0.58-0.84,0.7c-0.07,0.02-0.19-0.02-0.25-0.07c-0.12-0.13,0.01-0.2,0.1-0.27c0.21-0.17,0.42-0.38,0.23-0.64
		C196.99,272.22,196.69,272.41,196.42,272.47z"/>
	<path class="st33" d="M46.23,260.04c0.53,0.51,1.03,1.07,1.61,1.53c0.47,0.38,0.52,0.73,0.2,1.21c-0.1,0.15-0.17,0.32-0.25,0.49
		c-0.1-0.02-0.12-0.11-0.15-0.18c0.46-0.73,0.2-1.25-0.44-1.72c-0.37-0.27-0.68-0.63-1-0.96c-0.16-0.16-0.41-0.3-0.12-0.56
		C46.23,259.82,46.29,259.88,46.23,260.04z"/>
	<path class="st34" d="M167.43,279.15c-0.16,0.58-0.34,1.26-0.52,1.93c-0.03,0.1-0.12,0.15-0.22,0.13
		c-0.15-0.02-0.18-0.12-0.15-0.25c0.13-0.64,0.26-1.28,0.39-1.92c0.04-0.17,0.17-0.21,0.32-0.2
		C167.39,278.84,167.47,278.9,167.43,279.15z"/>
	<path class="st35" d="M51.89,274.04c0.59,0.14,0.86,0.43,0.75,1.11c-0.12,0.75-0.07,1.52-0.09,2.29c-0.15,0.07-0.19-0.05-0.26-0.14
		c0.01-0.63-0.05-1.27,0.04-1.89c0.09-0.6-0.06-0.98-0.62-1.2C51.7,274.06,51.71,273.96,51.89,274.04z"/>
	<path class="st36" d="M158.27,279.7c-0.02,0.21,0.2,0.27,0.28,0.41c-0.51,0.39-0.37,1.02-0.57,1.52c-0.08,0.19-0.02,0.55-0.37,0.45
		c-0.34-0.09-0.06-0.36-0.04-0.52c0.07-0.5,0.2-1,0.33-1.5C157.95,279.89,157.93,279.59,158.27,279.7z"/>
	<path class="st37" d="M116.29,258.71c0.7-0.48,0.74-0.87,0.16-1.54c-0.02-0.17,0.04-0.23,0.21-0.17c0.47,0.06,0.79,0.32,0.79,0.8
		c0,0.63-0.43,0.92-1,1.04C116.39,258.8,116.3,258.79,116.29,258.71z"/>
	<path class="st38" d="M59.07,274.51c0.45-0.21,0.91-0.42,1.36-0.62c0.16-0.06,0.2,0.03,0.19,0.17c-0.47,0.26-0.93,0.52-1.4,0.77
		c0.14,0.39-0.03,0.81,0.11,1.2c0.02,0.3,0.03,0.6,0.06,0.9c0.08,0.65-0.19,0.99-0.86,0.99c-0.08-0.05-0.09-0.11-0.03-0.19
		c0.23-0.12,0.46-0.24,0.69-0.36c-0.12-0.34,0.03-0.71-0.1-1.05c-0.01-0.35-0.02-0.7-0.04-1.05
		C58.99,275.01,58.94,274.76,59.07,274.51z"/>
	<path class="st19" d="M134.64,281.77c0.15-0.61,0.3-1.23,0.43-1.84c0.04-0.2,0.14-0.3,0.33-0.25c0.21,0.06,0.11,0.22,0.08,0.34
		c-0.13,0.59-0.27,1.18-0.4,1.78c-0.04,0.17-0.09,0.33-0.31,0.29C134.55,282.06,134.63,281.91,134.64,281.77z"/>
	<path class="st19" d="M154.71,281.73c0.14-0.58,0.29-1.19,0.42-1.8c0.04-0.2,0.14-0.3,0.33-0.24c0.2,0.06,0.11,0.22,0.08,0.35
		c-0.13,0.59-0.27,1.18-0.4,1.78c-0.04,0.17-0.09,0.33-0.32,0.29C154.6,282.06,154.7,281.89,154.71,281.73z"/>
	<path class="st39" d="M44.93,264.18c-0.13,0.01-0.26,0.02-0.39,0.03c-0.18,0.37-0.14,0.74-0.02,1.12c0.47,0.18,0.95,0.35,1.42,0.53
		c0.07,0.06,0.06,0.12-0.02,0.17c-0.51-0.14-1.02-0.27-1.53-0.41c-0.21-0.05-0.27-0.15-0.26-0.39c0.06-1.29,0.07-1.33,1.4-1.32
		c0.33,0,0.62-0.23,0.96-0.11c0.04,0.03,0.07,0.07,0.07,0.12c-0.01,0.05-0.04,0.09-0.08,0.12c-0.22,0.01-0.44,0.03-0.66,0.04
		C45.53,264.19,45.22,264.06,44.93,264.18z"/>
	<path class="st40" d="M58.36,257.87c-0.78,0.03-1.21-0.31-1.26-1.12c-0.03-0.48-0.17-0.95-0.26-1.42c0.1-0.13-0.02-0.32,0.12-0.43
		c0.13,0.49,0.33,0.98,0.37,1.47c0.05,0.82,0.44,1.24,1.23,1.34C58.52,257.8,58.42,257.82,58.36,257.87z"/>
	<path class="st41" d="M161.18,280.18c-0.12,0.51-0.24,1.06-0.36,1.6c-0.04,0.17-0.08,0.33-0.29,0.31
		c-0.28-0.03-0.15-0.25-0.13-0.38c0.12-0.57,0.25-1.13,0.39-1.69c0.03-0.12-0.05-0.36,0.25-0.24
		C161.27,279.87,161.24,280,161.18,280.18z"/>
	<path class="st42" d="M64.97,268.86c-0.39-0.08-0.53-0.29-0.4-0.69c0.16-0.51,0.15-1.05,0.15-1.58c0.11-0.02,0.24-0.01,0.34-0.06
		c0.13-0.05,0.26-0.17,0.35,0c0.11,0.19-0.11,0.18-0.2,0.26c-0.32,0.26-0.36,1.58-0.07,1.9C65.16,268.84,65.14,268.93,64.97,268.86z
		"/>
	<path class="st28" d="M50.72,255.89c-0.39,0.21-0.45,0.48-0.3,0.91c0.18,0.51,0.51,1.01,0.38,1.6l-0.02,0.01
		c-0.49-0.64-0.59-1.42-0.8-2.16c-0.09-0.31,0.32-0.38,0.55-0.51C50.7,255.68,50.73,255.76,50.72,255.89z"/>
	<path class="st40" d="M55.12,256.77c0.14,0.65-0.03,1.04-0.79,0.99c-0.18-0.01-0.38,0.05-0.54,0.13c-0.54,0.26-0.88,0.08-1.07-0.45
		c0.03-0.06,0.07-0.1,0.13-0.13c0.55,0.72,1.19,0.14,1.77,0.08c0.39-0.04,0.29-0.51,0.37-0.8C55.11,256.59,55.2,256.61,55.12,256.77
		z"/>
	<path class="st43" d="M64.01,260.11c-1.19,0.62-1.19,0.62-2.4-0.55c-0.02-0.14,0.02-0.2,0.17-0.16c0.08,0.05,0.18,0.08,0.22,0.15
		c0.48,0.7,1.08,0.88,1.82,0.4C63.98,259.89,64.02,259.97,64.01,260.11z"/>
	<path class="st44" d="M65.6,266.33c0.71-0.26,1.54-0.24,2.1-0.86c0.08-0.08,0.02-0.23,0.13-0.29c0.32,0.41,0.25,0.7-0.27,0.86
		c-0.49,0.15-0.97,0.31-1.45,0.48C65.89,266.58,65.66,266.72,65.6,266.33z"/>
	<path class="st45" d="M64.54,264.12c-0.1-0.28-0.21-0.56-0.31-0.84c-0.32-0.84-0.25-1.01,0.62-1.46c0,0.02,0.02,0.06,0.01,0.07
		c-0.66,0.58-0.44,1.24-0.17,1.91C64.61,263.89,64.7,264.05,64.54,264.12z"/>
	<path class="st46" d="M45.23,269.44c-0.01-0.07-0.02-0.14-0.03-0.21c0.65-0.42,1.31-0.85,1.96-1.27c0.17,0.08,0.09-0.17,0.2-0.15
		c0.11,0.18,0.17,0.34-0.08,0.46C46.58,268.63,46,269.21,45.23,269.44z"/>
	<path class="st47" d="M56.77,254.96c-0.18-0.47-0.55-0.28-0.88-0.26c-0.32,0.02-0.35,0.24-0.37,0.49c-0.01,0.11-0.02,0.23-0.14,0.3
		c-0.24-0.38-0.28-0.86,0.15-0.99c0.41-0.12,0.99-0.49,1.38,0.14C56.84,254.73,56.92,254.9,56.77,254.96z"/>
	<path class="st36" d="M116.65,257c-0.07,0.06-0.14,0.11-0.21,0.17c-0.23,0.01-0.5-0.06-0.6,0.22c-0.1,0.27,0.16,0.28,0.33,0.33
		c0.15,0.05,0.17,0.14,0.09,0.26c-0.13,0.17-0.29,0.23-0.49,0.13c-0.34-0.16-0.42-0.67-0.12-0.95
		C115.93,256.88,116.27,256.78,116.65,257z"/>
	<path class="st48" d="M62.9,275.31c0.36,0.32,0.53-0.02,0.78-0.2c0.45-0.31,0.13-0.58,0.02-0.87c-0.06-0.16,0.03-0.19,0.16-0.18
		c0.16,0.25,0.52,0.53,0.39,0.77c-0.2,0.38-0.54,0.72-0.9,0.97c-0.24,0.17-0.42-0.18-0.62-0.33
		C62.71,275.33,62.75,275.27,62.9,275.31z"/>
	<path class="st49" d="M64.73,270.93c0.47-0.13,0.91,0.09,1.36,0.15c0.55,0.07,0.76-0.13,0.88-0.59c0.14,0.07,0.05,0.23,0.14,0.32
		c-0.02,0.5-0.24,0.69-0.75,0.58c-0.54-0.12-1.09-0.2-1.63-0.3c-0.03-0.04-0.04-0.07-0.03-0.1
		C64.7,270.95,64.71,270.93,64.73,270.93z"/>
	<path class="st50" d="M49.05,271.77c0.17,0.09,0.13,0.19,0.06,0.34c-0.32,0.63-0.62,1.28-1.05,1.85c-0.1-0.02-0.11-0.11-0.16-0.18
		c0.33-0.61,0.66-1.22,1-1.83C48.94,271.88,48.96,271.79,49.05,271.77z"/>
	<path class="st51" d="M47.37,267.81c-0.06,0.06,0.03,0.32-0.2,0.15c-0.22-0.53-0.01-1.12-0.25-1.65c-0.01-0.27,0.13-0.22,0.29-0.14
		C47.38,266.7,47.29,267.26,47.37,267.81z"/>
	<path class="st38" d="M64.01,260.11c-0.06-0.05-0.13-0.11-0.19-0.16c0.46-0.22,0.92-0.45,1.39-0.67c0.19-0.09,0.41-0.2,0.5,0.13
		c0.03,0.14-0.01,0.19-0.15,0.15C64.98,259.58,64.55,259.99,64.01,260.11z"/>
	<path class="st35" d="M65.55,259.56c0.05-0.05,0.1-0.1,0.15-0.15c0.11,0.11,0.23,0.22,0.33,0.35c0.54,0.66,0.5,0.81-0.32,1.21
		C66.1,260.45,66.01,259.98,65.55,259.56z"/>
	<path class="st52" d="M61.75,258.58c-0.22-0.74,0.21-1.35,0.41-2.01c0.13,0.06,0.05,0.23,0.14,0.31
		C62.16,257.46,62.06,258.05,61.75,258.58z"/>
	<path class="st53" d="M67.56,264.77c-0.02-0.03-0.03-0.07-0.03-0.11c-0.32-0.24-0.71,0-1.05-0.15c-0.63-0.03-1.28,0.1-1.89-0.17
		c0.25-0.21,0.57,0.04,0.82-0.12c0.1,0,0.19,0,0.29,0c0.3,0.11,0.62-0.01,0.91,0.09c0.41,0.05,0.91-0.23,1.19,0.31
		C67.75,264.71,67.71,264.83,67.56,264.77z"/>
	<path class="st54" d="M181.02,269.55c0.12,0.41-0.22,0.5-0.46,0.55c-0.51,0.11-0.8-0.23-1.16-0.8
		C180.02,269.76,180.52,269.78,181.02,269.55L181.02,269.55z"/>
	<path class="st46" d="M49.74,274.34c0.17-0.15,0.36-0.28,0.51-0.45c0.37-0.44,0.76-0.49,1.19-0.09c0.01,0.13-0.01,0.21-0.17,0.14
		c-0.67-0.32-0.88,0.43-1.35,0.57C49.76,274.54,49.72,274.47,49.74,274.34z"/>
	<path class="st55" d="M46.23,260.04c-0.05-0.07-0.11-0.13-0.16-0.2c0.05-0.1,0.08-0.21,0.14-0.31c0.45-0.8,0.45-0.8,1.27-0.39
		c0.02,0.16-0.04,0.23-0.2,0.16C46.49,258.94,46.56,259.77,46.23,260.04z"/>
	<path class="st56" d="M63.13,273.37c-0.13-0.21-0.24-0.44-0.4-0.62c-0.33-0.38-0.27-0.68,0.13-0.95c0.14-0.03,0.21,0.02,0.16,0.17
		c-0.39,0.52,0.18,0.81,0.29,1.21C63.38,273.36,63.29,273.4,63.13,273.37z"/>
	<path class="st57" d="M54.37,275.97c0.05,0.07,0.11,0.13,0.16,0.2c-0.23,0.52-0.47,1.04-0.7,1.56c-0.11-0.06-0.05-0.21-0.13-0.28
		C53.89,276.93,54.08,276.43,54.37,275.97z"/>
	<path class="st57" d="M50.79,258.4c0,0,0.02-0.01,0.02-0.01c0.52,0.53,0.51,0.57-0.36,1.17c-0.09-0.02-0.15-0.07-0.17-0.16
		C50.59,259.15,50.87,258.86,50.79,258.4z"/>
	<path class="st58" d="M62.9,275.31c-0.05,0.05-0.11,0.11-0.16,0.16c-0.38-0.27-0.82-0.46-1.14-0.82c-0.03-0.15,0.01-0.24,0.18-0.19
		C62.15,274.75,62.52,275.03,62.9,275.31z"/>
	<path class="st59" d="M50.28,259.41c0.06,0.05,0.11,0.11,0.17,0.16c-0.4,0.23-0.55,1.05-1.27,0.54c0-0.26,0.15-0.2,0.29-0.13
		C49.84,259.92,49.96,259.53,50.28,259.41z"/>
	<path class="st60" d="M49.47,259.97c-0.11,0.01-0.23,0.02-0.29,0.13c-0.4-0.17-0.8-0.34-1.2-0.51c0.02-0.11,0.13-0.12,0.2-0.17
		C48.61,259.61,49.04,259.79,49.47,259.97z"/>
	<path class="st28" d="M58.36,257.87c0.06-0.06,0.13-0.11,0.19-0.17c0.31-0.04,0.62,0.33,0.94,0.02c0.14-0.03,0.2,0.01,0.15,0.15
		C59.2,258.59,58.78,257.89,58.36,257.87z"/>
	<path class="st61" d="M64.73,270.93c0,0.05-0.01,0.1-0.01,0.15c-0.37,0.1-0.82-0.37-1.14,0.15c-0.13,0-0.25-0.02-0.16-0.2
		C63.79,270.25,64.28,270.86,64.73,270.93z"/>
	<path class="st57" d="M66.83,269.98c-0.39-0.23-0.78-0.46-1.17-0.69c0.02-0.09,0.09-0.15,0.18-0.17c0.41,0.19,0.8,0.41,1.15,0.7
		C66.98,269.91,66.93,269.96,66.83,269.98z"/>
	<path class="st62" d="M181.03,269.55c-0.01-0.2,0.01-0.41-0.15-0.58c-0.1-0.11-0.29-0.25-0.04-0.38c0.19-0.1,0.38,0,0.45,0.19
		C181.38,269.09,181.48,269.42,181.03,269.55C181.02,269.55,181.03,269.55,181.03,269.55z"/>
	<path class="st63" d="M55.12,256.77c-0.04-0.06-0.09-0.11-0.13-0.17c0.16-0.37-0.05-0.87,0.41-1.13
		C55.38,255.92,55.42,256.38,55.12,256.77z"/>
	<path class="st64" d="M229.5,268.87c0.35,0.25-0.01,0.7,0.27,0.97c-0.1,0.26-0.15,0.56-0.54,0.55l0.02,0.02
		C229.31,269.89,229.73,269.43,229.5,268.87z"/>
	<path class="st65" d="M50.72,255.89c-0.06-0.05-0.12-0.1-0.18-0.16c0.35-0.31,0.7-0.68,1.03,0.02c-0.02,0.09-0.07,0.15-0.16,0.17
		C51.2,255.65,50.96,255.75,50.72,255.89z"/>
	<path class="st66" d="M162.09,280.81c0.35,0,0.71-0.04,1.06,0c0.38,0.04,0.61-0.11,0.78-0.43c0.1,0.43-0.08,0.58-0.51,0.56
		c-0.44-0.02-0.88,0-1.32,0.01c-0.04-0.03-0.05-0.07-0.04-0.1C162.06,280.83,162.08,280.81,162.09,280.81z"/>
	<path class="st67" d="M52.84,257.32c-0.04,0.04-0.09,0.08-0.13,0.13c-0.3-0.23-0.52-0.53-0.71-0.84c-0.04-0.13,0.01-0.19,0.15-0.15
		C52.43,256.7,52.68,256.98,52.84,257.32z"/>
	<path class="st68" d="M46.49,263.92c0-0.04,0-0.08,0-0.12c0.55,0.03,1.02-0.07,1.15-0.72c0.05,0.06,0.1,0.12,0.15,0.18
		c-0.17,0.24-0.04,0.73-0.56,0.68C46.98,264,46.73,264.04,46.49,263.92z"/>
	<path class="st45" d="M47.9,273.78c0.05,0.06,0.1,0.12,0.16,0.18c-0.1,0.21-0.19,0.43-0.29,0.64c0.04,0.16-0.02,0.22-0.19,0.18
		C47.29,274.31,47.78,274.1,47.9,273.78z"/>
	<path class="st69" d="M61.47,256.04c-0.5-0.12-0.52,0.44-0.83,0.59c-0.09-0.02-0.15-0.08-0.17-0.17c0.16-0.26,0.32-0.52,0.57-0.71
		C61.19,255.82,61.49,255.7,61.47,256.04z"/>
	<path class="st70" d="M61.77,259.4c-0.06,0.05-0.11,0.11-0.17,0.16c-0.58-0.43-0.21-0.71,0.15-1
		C61.82,258.84,61.57,259.13,61.77,259.4z"/>
	<path class="st65" d="M48.33,275.04c0.29,0.25,0.48-0.04,0.7-0.14c0.09,0.02,0.15,0.07,0.18,0.16c-0.31,0.33-0.62,0.72-1.06,0.14
		C48.17,275.11,48.23,275.05,48.33,275.04z"/>
	<path class="st71" d="M47.2,266.17c-0.11,0.01-0.22,0.02-0.29,0.14c-0.33-0.1-0.66-0.19-0.99-0.29c0.01-0.06,0.01-0.11,0.02-0.17
		C46.39,265.84,46.81,265.93,47.2,266.17z"/>
	<path class="st65" d="M63.13,273.37c0.06-0.06,0.12-0.12,0.19-0.18c0.18,0.29,0.36,0.59,0.54,0.88c-0.05,0.06-0.1,0.12-0.16,0.18
		C63.51,273.95,63.32,273.66,63.13,273.37z"/>
	<path class="st31" d="M66.83,269.98c0.06-0.05,0.11-0.11,0.17-0.16c0.64,0.27,0.12,0.66,0.1,0.99c-0.05-0.11-0.1-0.21-0.14-0.32
		C66.97,270.31,67.01,270.12,66.83,269.98z"/>
	<path class="st72" d="M62.3,256.88c-0.12-0.07-0.12-0.19-0.14-0.31c0.03-0.3-0.28-0.27-0.4-0.41c-0.01-0.16,0.07-0.2,0.2-0.15
		C62.63,256.08,62.48,256.47,62.3,256.88z"/>
	<path class="st44" d="M60.47,256.46c0.06,0.06,0.11,0.12,0.17,0.17c-0.18,0.23-0.36,0.46-0.55,0.69c-0.14,0.04-0.21,0-0.17-0.16
		C60.1,256.93,60.28,256.69,60.47,256.46z"/>
	<path class="st73" d="M63.42,271.04c0.05,0.07,0.11,0.13,0.16,0.2c-0.14,0.27-0.3,0.54-0.55,0.73c-0.05-0.06-0.11-0.11-0.16-0.17
		C63.05,271.55,63.24,271.29,63.42,271.04z"/>
	<path class="st26" d="M121.39,280.94c0.01-0.12,0.05-0.22,0.17-0.28c0.4-0.26,0.8-0.26,1.21-0.01c0.04,0.01,0.1,0.02,0.13,0.04
		c0.06,0.07,0.03,0.1-0.06,0.11c-0.43,0.05-0.88-0.11-1.3,0.1C121.49,280.92,121.44,280.93,121.39,280.94z"/>
	<path class="st50" d="M49.21,275.06c-0.06-0.05-0.12-0.11-0.18-0.16c0.24-0.19,0.47-0.37,0.71-0.56c0.06,0.05,0.12,0.11,0.18,0.16
		C49.71,274.73,49.48,274.92,49.21,275.06z"/>
	<path class="st74" d="M60.62,274.06c-0.06-0.06-0.13-0.11-0.19-0.17c0.35-0.4,0.55-0.11,0.76,0.15c0.03,0.15-0.02,0.21-0.18,0.17
		C60.88,274.16,60.75,274.11,60.62,274.06z"/>
	<path class="st75" d="M52.14,256.46c-0.05,0.05-0.1,0.1-0.15,0.15c-0.24-0.18-0.43-0.42-0.58-0.67c0.05-0.06,0.11-0.12,0.16-0.17
		C51.77,255.99,51.96,256.22,52.14,256.46z"/>
	<path class="st47" d="M65.85,269.12c-0.06,0.06-0.12,0.11-0.18,0.17c-0.23-0.14-0.47-0.28-0.7-0.43c0.06-0.05,0.12-0.11,0.18-0.16
		C65.38,268.84,65.61,268.98,65.85,269.12z"/>
	<path class="st76" d="M155.82,278.97c-0.04,0.15-0.07,0.29-0.25,0.3c-0.14,0.01-0.29,0.01-0.27-0.2c0.01-0.17,0.1-0.25,0.27-0.25
		C155.68,278.82,155.81,278.82,155.82,278.97z"/>
	<path class="st77" d="M156.88,254.62c-0.15,0.03-0.33-0.02-0.44,0.14c-0.14,0-0.29,0-0.43,0c-0.11-0.05-0.22-0.1-0.32-0.15
		C156.08,254.45,156.48,254.46,156.88,254.62z"/>
	<path class="st78" d="M135.74,279.06c-0.03,0.17-0.16,0.23-0.35,0.21c-0.17-0.02-0.17-0.13-0.15-0.25c0.03-0.18,0.16-0.21,0.31-0.2
		C135.68,278.83,135.79,278.86,135.74,279.06z"/>
	<path class="st26" d="M116.99,280.42c0.3,0.45,0.2,0.91,0.04,1.37C117.01,281.34,117,280.88,116.99,280.42z"/>
	<path class="st79" d="M161.25,278.81c0.11,0.02,0.25,0.01,0.23,0.18c-0.02,0.19-0.13,0.29-0.33,0.28
		c-0.14-0.01-0.21-0.07-0.19-0.22C160.99,278.88,161.09,278.81,161.25,278.81z"/>
	<path class="st34" d="M162.66,279.69c0.05,0.08,0.1,0.17,0.14,0.25c-0.11,0.23-0.29,0.36-0.55,0.34c-0.05-0.12-0.15-0.16-0.28-0.17
		C162.2,279.98,162.31,279.65,162.66,279.69z"/>
	<path class="st26" d="M118.82,279.69c0.29,0.5,0.22,1.02,0.04,1.54C118.85,280.72,118.83,280.21,118.82,279.69z"/>
	<path class="st80" d="M48.18,259.42c-0.07,0.06-0.13,0.11-0.2,0.17c-0.24-0.1-0.47-0.2-0.71-0.29c0.07-0.05,0.13-0.11,0.2-0.16
		C47.71,259.23,47.95,259.33,48.18,259.42z"/>
	<path class="st81" d="M57.53,277.15c0.05-0.07,0.1-0.14,0.15-0.21c0.18,0.24,0.32,0.49,0.37,0.79c-0.03,0.07-0.04,0.15-0.14,0.17
		C57.72,277.68,57.62,277.41,57.53,277.15z"/>
	<path class="st59" d="M61.96,256.01c-0.07,0.05-0.14,0.1-0.2,0.15c-0.1-0.04-0.19-0.08-0.29-0.12c-0.14-0.1-0.29-0.2-0.43-0.29
		C61.42,255.56,61.66,255.88,61.96,256.01z"/>
	<path class="st82" d="M48.33,275.04c-0.06,0.05-0.12,0.11-0.18,0.16c-0.19-0.14-0.38-0.28-0.56-0.42c0.06-0.06,0.12-0.12,0.19-0.18
		C47.96,274.74,48.14,274.89,48.33,275.04z"/>
	<path class="st83" d="M65.42,264.23c-0.25,0.21-0.55,0.07-0.82,0.12c-0.02-0.08-0.03-0.15-0.05-0.23c0.05-0.11,0.09-0.22,0.14-0.33
		C64.73,264.27,65.11,264.18,65.42,264.23z"/>
	<path class="st84" d="M116.29,258.71c0.05,0.04,0.1,0.09,0.15,0.13c-0.33,0.15-0.66,0.13-0.98,0c0.1-0.04,0.2-0.09,0.29-0.13
		C115.93,258.71,116.11,258.71,116.29,258.71z"/>
	<path class="st85" d="M166.5,282.1c-0.13-0.01-0.21-0.06-0.2-0.21c0.01-0.16,0.09-0.25,0.26-0.25c0.13,0,0.21,0.05,0.2,0.2
		C166.75,282.01,166.67,282.1,166.5,282.1z"/>
	<path class="st86" d="M142.14,281.65c0.14,0.01,0.2,0.07,0.17,0.22c-0.03,0.17-0.12,0.23-0.28,0.22c-0.15-0.01-0.19-0.08-0.17-0.22
		C141.89,281.7,141.97,281.63,142.14,281.65z"/>
	<path class="st87" d="M48.32,270.96c0.05-0.06,0.11-0.12,0.16-0.17c0.13,0.2,0.26,0.4,0.4,0.6c-0.04,0.07-0.05,0.16-0.15,0.18
		C48.53,271.4,48.4,271.2,48.32,270.96z"/>
	<path class="st60" d="M61.02,274.21c0.06-0.06,0.12-0.11,0.18-0.17c0.19,0.14,0.39,0.28,0.58,0.43c-0.06,0.06-0.12,0.12-0.18,0.19
		C61.41,274.5,61.11,274.48,61.02,274.21z"/>
	<path class="st26" d="M103.15,263.78c0.24,0.42,0.23,0.84,0.01,1.27C103.16,264.62,103.15,264.2,103.15,263.78z"/>
	<path class="st88" d="M59.91,257.16c0.06,0.05,0.12,0.1,0.17,0.16c-0.12,0.21-0.24,0.42-0.45,0.56c-0.05-0.05-0.1-0.1-0.15-0.15
		C59.63,257.54,59.77,257.35,59.91,257.16z"/>
	<path class="st89" d="M59.33,276.02c-0.24-0.38-0.08-0.8-0.11-1.2C59.37,275.22,59.34,275.62,59.33,276.02z"/>
	<path class="st83" d="M52.29,277.3c0.09,0.05,0.17,0.09,0.26,0.14c0.14,0.05,0.29,0.1,0.43,0.15c0,0.28-0.18,0.19-0.32,0.15
		C52.3,277.79,52.21,277.61,52.29,277.3z"/>
	<path class="st90" d="M52.66,277.74c0.11-0.05,0.22-0.1,0.32-0.15c0.23-0.05,0.47,0.08,0.69-0.05c0.04,0.49-0.42,0.1-0.54,0.3
		C52.96,277.87,52.8,277.85,52.66,277.74z"/>
	<path class="st91" d="M57.91,277.89c0.05-0.06,0.09-0.11,0.14-0.17c0.15,0.29,0.3,0.01,0.45,0c0.01,0.06,0.02,0.12,0.03,0.19
		C58.32,277.94,58.11,278.38,57.91,277.89z"/>
	<path class="st92" d="M65.02,261.63c0.03-0.23,0.13-0.38,0.39-0.38C65.41,261.52,65.31,261.68,65.02,261.63z"/>
	<path class="st91" d="M67.56,264.77c0.08-0.05,0.16-0.09,0.25-0.14c0.01,0.18,0.02,0.36,0.03,0.54c-0.01,0.11-0.02,0.23-0.13,0.29
		C67.66,265.23,67.61,265,67.56,264.77z"/>
	<path class="st83" d="M53.13,277.84c0.12-0.21,0.48,0,0.54-0.3c-0.01-0.04,0-0.07,0.03-0.1c0.04,0.09,0.08,0.19,0.13,0.28
		C53.66,278.08,53.38,277.84,53.13,277.84z"/>
	<path class="st93" d="M121.27,260c-0.11-0.19,0.08-0.46-0.18-0.6c0.17-0.21,0.26-0.14,0.28,0.08
		C121.38,259.65,121.39,259.84,121.27,260z"/>
	<path class="st94" d="M66.62,264.32c-0.31,0-0.63,0.12-0.91-0.09C66.02,264.21,66.33,264.19,66.62,264.32z"/>
	<path class="st95" d="M51.26,273.93c0.06-0.05,0.11-0.09,0.17-0.14c0.19,0.02,0.34,0.12,0.46,0.25c-0.06,0.05-0.12,0.11-0.18,0.16
		C51.54,274.16,51.38,274.07,51.26,273.93z"/>
	<path class="st96" d="M48.73,271.56c0.05-0.06,0.1-0.12,0.15-0.18c0.13,0.09,0.2,0.22,0.17,0.38c-0.05,0.06-0.1,0.12-0.15,0.18
		C48.84,271.82,48.78,271.69,48.73,271.56z"/>
	<path class="st26" d="M97.35,266.45c-0.18-0.29-0.2-0.57,0.03-0.84C97.36,265.89,97.35,266.17,97.35,266.45z"/>
	<path class="st26" d="M116.56,261.24c-0.17-0.24-0.21-0.48,0.04-0.69C116.59,260.78,116.57,261.01,116.56,261.24z"/>
	<path class="st26" d="M126.17,261.95c-0.17-0.23-0.17-0.46,0-0.69C126.17,261.48,126.17,261.71,126.17,261.95z"/>
	<path class="st26" d="M99.06,262.65c-0.21-0.23-0.21-0.47,0-0.7C99.06,262.19,99.06,262.42,99.06,262.65z"/>
	<path class="st26" d="M74.88,262.09c0.23,0.22,0.21,0.46,0.03,0.7C74.9,262.56,74.89,262.32,74.88,262.09z"/>
	<path class="st26" d="M96.23,273.77c-0.23,0.22-0.46,0.2-0.7,0.02C95.76,273.79,96,273.78,96.23,273.77z"/>
	<path class="st26" d="M80.84,270.12c0.19,0.23,0.19,0.46,0,0.7C80.85,270.58,80.85,270.35,80.84,270.12z"/>
	<path class="st97" d="M228.97,270.7c-0.06-0.05-0.12-0.09-0.18-0.14c0.12-0.13,0.26-0.21,0.45-0.15c0,0-0.02-0.02-0.02-0.02
		C229.22,270.55,229.16,270.68,228.97,270.7z"/>
	<path class="st34" d="M162.09,280.81c0,0.05,0,0.1,0,0.15c0,0.19-0.01,0.37-0.01,0.56C161.87,281.28,161.87,281.04,162.09,280.81z"
		/>
	<path class="st91" d="M56.77,254.96c0.05-0.11,0.1-0.21,0.15-0.32c0.01,0.08,0.02,0.17,0.03,0.25c-0.04,0.14,0.02,0.32-0.12,0.43
		C56.81,255.2,56.79,255.08,56.77,254.96z"/>
	<path class="st34" d="M162.35,282.09c0.25,0,0.5,0,0.75,0C162.85,282.23,162.6,282.24,162.35,282.09z"/>
	<path class="st38" d="M56.8,264.92c1.09,0.73,1.16,1.83,0.18,2.68c-0.12,0.07-0.19,0.01-0.24-0.1c-0.01-0.05-0.03-0.1,0-0.13
		c0.65-0.78,0.45-1.52-0.13-2.24C56.62,265.01,56.7,264.95,56.8,264.92z"/>
	<path class="st0" d="M56.84,275.18c-0.34-0.31-0.75-0.06-1.12-0.13c-0.27-0.05-0.56,0.02-0.81-0.13c0.48-0.21,0.98-0.18,1.48-0.13
		C56.61,274.81,56.95,274.75,56.84,275.18z"/>
	<path class="st46" d="M56.8,264.92c-0.06,0.05-0.13,0.11-0.19,0.16c-0.37,0.25-0.76,0.17-1.16,0.11c-0.11-0.05-0.22-0.11-0.2-0.26
		C55.77,264.63,56.28,264.63,56.8,264.92z"/>
	<path class="st40" d="M54.52,266.79c-0.23-0.47-0.12-0.91,0.16-1.32c0.14-0.04,0.19,0.04,0.24,0.15c0.05,0.3-0.06,0.57-0.13,0.84
		C54.73,266.6,54.66,266.72,54.52,266.79z"/>
	<path class="st98" d="M55.25,267.71c-0.27-0.1-0.46-0.29-0.57-0.55c0.02-0.1,0.09-0.16,0.19-0.19c0.32,0.06,0.5,0.25,0.57,0.55
		C55.42,267.63,55.34,267.67,55.25,267.71z"/>
	<path class="st99" d="M54.84,265.65c-0.05-0.06-0.11-0.12-0.16-0.18c0.12-0.26,0.3-0.45,0.57-0.55c0.06,0.05,0.13,0.11,0.19,0.16
		C55.38,265.41,55.2,265.62,54.84,265.65z"/>
	<path class="st100" d="M54.84,266.99c-0.05,0.06-0.11,0.12-0.16,0.17c-0.11-0.1-0.17-0.22-0.16-0.37c0.02-0.12,0.03-0.25,0.16-0.33
		C54.87,266.59,54.97,266.75,54.84,266.99z"/>
	<path class="st44" d="M44.51,265.33c-0.22-0.38-0.25-0.75,0.02-1.12C44.48,264.58,44.42,264.95,44.51,265.33z"/>
	<path class="st38" d="M56.79,267.41c0.06,0.06,0.12,0.13,0.19,0.19c-0.12,0.15-0.28,0.22-0.47,0.24c-0.13-0.11-0.36,0.04-0.45-0.17
		C56.23,267.36,56.5,267.36,56.79,267.41z"/>
	<path class="st101" d="M56.06,267.7c0.15,0.06,0.33-0.01,0.45,0.14c-0.32,0.1-0.65,0.11-0.97-0.01c0-0.26,0.19-0.21,0.34-0.22
		C55.95,267.62,56.01,267.65,56.06,267.7z"/>
	<path class="st94" d="M66.49,264.51c0.35,0.02,0.74-0.17,1.05,0.15C67.19,264.57,66.82,264.67,66.49,264.51z"/>
	<path class="st102" d="M59.09,276.31c0.23,0.33,0.09,0.7,0.1,1.05C59.03,277.03,59.07,276.67,59.09,276.31z"/>
	<path class="st53" d="M55.99,267.7c-0.15,0.04-0.3,0.09-0.45,0.13c-0.1-0.04-0.2-0.08-0.29-0.12c0.06-0.05,0.13-0.11,0.19-0.16
		C55.67,267.43,55.88,267.39,55.99,267.7z"/>
	<path class="st103" d="M44.93,264.18c0.28-0.2,0.59-0.11,0.89-0.09C45.54,264.2,45.24,264.21,44.93,264.18z"/>
	<path class="st104" d="M46.49,263.92c0.25,0.01,0.49,0.02,0.74,0.02c-0.23,0.14-0.49,0.12-0.74,0.1
		C46.49,264,46.49,263.96,46.49,263.92z"/>
	<path class="st89" d="M59.07,274.51c-0.01,0.25-0.01,0.5-0.02,0.75C58.98,275.01,58.81,274.76,59.07,274.51z"/>
	<path class="st105" d="M69.17,273.64c0.8,0,1.48,0.68,1.47,1.48c0,0.79-0.7,1.47-1.49,1.47c-0.79,0-1.47-0.69-1.47-1.48
		C67.69,274.31,68.37,273.64,69.17,273.64z"/>
	<path class="st105" d="M221.03,267.98c0.47-0.1,0.58,0.03,0.47,0.55c-0.17,0.76-0.36,1.45-1.18,1.76
		c-0.39,0.15-0.78,0.25-1.11-0.08c-0.35-0.35-0.39-0.79-0.2-1.23C219.39,268.08,220.2,268.01,221.03,267.98z"/>
	<path class="st105" d="M147.84,267.41c0.48-0.1,0.56,0.06,0.44,0.56c-0.17,0.73-0.34,1.4-1.12,1.73c-0.41,0.17-0.82,0.3-1.18-0.06
		c-0.37-0.37-0.39-0.83-0.16-1.3C146.24,267.5,147.03,267.46,147.84,267.41z"/>
	<path class="st106" d="M110.37,266.56c-0.25,0.87-0.16,1.8-1.1,2.24c-0.47,0.22-0.95,0.42-1.35-0.04
		c-0.42-0.47-0.33-1.01,0.02-1.48C108.54,266.48,109.43,266.63,110.37,266.56z"/>
	<path class="st107" d="M126.83,281.27c-0.01-0.78,0.39-1.29,0.91-1.29c0.23,0,0.54-0.06,0.55,0.35c0.01,0.79-0.35,1.32-0.92,1.34
		C126.96,281.68,126.84,281.45,126.83,281.27z"/>
	<path class="st107" d="M125,279.97c0.22,0.03,0.5-0.01,0.48,0.4c-0.04,0.83-0.38,1.31-0.95,1.3c-0.43,0-0.49-0.26-0.49-0.6
		C124.05,280.44,124.44,279.97,125,279.97z"/>
	<path class="st108" d="M151.15,280.59c-0.02,0.71-0.41,1.22-0.9,1.21c-0.48-0.01-0.57-0.34-0.56-0.72
		c0.02-0.65,0.45-1.15,0.93-1.12C151.06,279.99,151.12,280.31,151.15,280.59z"/>
	<path class="st107" d="M152.44,281.14c0.04-0.73,0.41-1.19,0.88-1.17c0.47,0.02,0.58,0.33,0.56,0.72
		c-0.03,0.65-0.45,1.15-0.93,1.12C152.45,281.77,152.43,281.42,152.44,281.14z"/>
	<path class="st107" d="M129.62,281.2c0-0.69,0.4-1.23,0.87-1.24c0.49-0.01,0.57,0.31,0.57,0.7c-0.01,0.66-0.4,1.16-0.89,1.14
		C129.73,281.79,129.64,281.5,129.62,281.2z"/>
	<path class="st107" d="M132.38,281.05c0.03-0.63,0.41-1.1,0.88-1.08c0.47,0.02,0.57,0.33,0.55,0.72c-0.03,0.64-0.45,1.15-0.93,1.12
		C132.38,281.77,132.37,281.42,132.38,281.05z"/>
	<path class="st109" d="M136.53,280.66c-0.06-0.63,0.38-0.72,0.84-0.7c0.46,0.01,0.48,0.35,0.38,0.7
		C137.34,280.8,136.94,280.79,136.53,280.66z"/>
	<path class="st26" d="M136.53,280.66c0.41,0,0.81,0,1.22,0c0.06,0.03,0.2,0.12,0.14,0.13c-0.45,0.03-0.91,0-1.36-0.01
		c-0.01,0-0.02-0.04-0.02-0.05C136.5,280.7,136.52,280.68,136.53,280.66z"/>
	<path class="st110" d="M122.76,280.65c-0.4,0-0.81,0.01-1.21,0.01c-0.06-0.63,0.38-0.72,0.83-0.71
		C122.85,279.97,122.86,280.3,122.76,280.65z"/>
	<path class="st111" d="M162.25,280.28c0.18-0.11,0.37-0.23,0.55-0.34c0.16,0.01,0.34-0.01,0.48,0.05c0.22,0.09,0.3,0.3,0.21,0.52
		c-0.08,0.21-1.26,0.2-1.37-0.01C162.09,280.46,162.2,280.36,162.25,280.28z"/>
	<path class="st112" d="M55.99,267.7c-0.18-0.05-0.37-0.1-0.55-0.15c-0.2-0.19-0.4-0.38-0.6-0.57c-0.06-0.18-0.11-0.35-0.17-0.53
		c0.06-0.27,0.11-0.54,0.17-0.81c0.2-0.19,0.4-0.38,0.6-0.57c0.39-0.09,0.78-0.09,1.16,0c0.97,0.82,1.02,1.38,0.18,2.34
		c-0.24,0.1-0.49,0.19-0.73,0.29c0,0-0.03-0.02-0.03-0.02L55.99,267.7z"/>
</g>
</svg>
