<svg width="48" height="48" viewBox="0 0 48 48" fill="none" xmlns="http://www.w3.org/2000/svg">
<g clip-path="url(#clip0_74_516)">
<path d="M26.5731 28.69L20.3931 30.41C20.1983 30.4667 19.996 30.4936 19.7931 30.49C19.4463 30.49 19.1042 30.4096 18.7936 30.2552C18.483 30.1008 18.2125 29.8765 18.0031 29.6C17.8637 29.4193 17.7556 29.2164 17.6831 29H6.01311C5.7479 29 5.49354 28.8946 5.30601 28.7071C5.11847 28.5196 5.01311 28.2652 5.01311 28C5.01311 27.7348 5.11847 27.4804 5.30601 27.2929C5.49354 27.1054 5.7479 27 6.01311 27H17.8031L18.9131 23H6.01311C5.7479 23 5.49354 22.8946 5.30601 22.7071C5.11847 22.5196 5.01311 22.2652 5.01311 22C5.01311 21.7348 5.11847 21.4804 5.30601 21.2929C5.49354 21.1054 5.7479 21 6.01311 21H19.5231C19.6643 20.679 19.8645 20.3873 20.1131 20.14L23.2531 17H6.01311C5.7479 17 5.49354 16.8946 5.30601 16.7071C5.11847 16.5196 5.01311 16.2652 5.01311 16C5.01311 15.7348 5.11847 15.4804 5.30601 15.2929C5.49354 15.1054 5.7479 15 6.01311 15H25.2531L30.0131 10.24V7C30.0207 6.74285 29.926 6.4932 29.7498 6.30575C29.5736 6.11831 29.3302 6.00836 29.0731 6H0.953114C0.695991 6.00836 0.452669 6.11831 0.27647 6.30575C0.100271 6.4932 0.00556752 6.74285 0.0131141 7V47C0.00556752 47.2571 0.100271 47.5068 0.27647 47.6942C0.452669 47.8817 0.695991 47.9916 0.953114 48H21.0131V42C21.0155 41.2051 21.3323 40.4434 21.8944 39.8813C22.4565 39.3192 23.2182 39.0024 24.0131 39H30.0131V25.8L27.8931 27.92C27.5271 28.2865 27.0723 28.5518 26.5731 28.69V28.69ZM13.0131 35H6.01311C5.7479 35 5.49354 34.8946 5.30601 34.7071C5.11847 34.5196 5.01311 34.2652 5.01311 34C5.01311 33.7348 5.11847 33.4804 5.30601 33.2929C5.49354 33.1054 5.7479 33 6.01311 33H13.0131C13.2783 33 13.5327 33.1054 13.7202 33.2929C13.9078 33.4804 14.0131 33.7348 14.0131 34C14.0131 34.2652 13.9078 34.5196 13.7202 34.7071C13.5327 34.8946 13.2783 35 13.0131 35Z" fill="#011E41"/>
<path d="M24.0131 41C23.7481 41.0008 23.4942 41.1064 23.3068 41.2938C23.1195 41.4811 23.0138 41.735 23.0131 42V48L30.0131 41H24.0131ZM47.1431 1.16001C46.8136 0.794562 46.411 0.50245 45.9613 0.302614C45.5117 0.102778 45.0251 -0.000320115 44.5331 6.9326e-06C44.0736 -0.000912812 43.6185 0.089693 43.1944 0.266537C42.7704 0.44338 42.3857 0.702919 42.0631 1.03001L30.0131 13.07L27.0031 16.08L26.0931 16.99L21.5231 21.56C21.4004 21.6805 21.3138 21.8329 21.2731 22L19.7831 27.36L19.5531 28.18C19.5427 28.2167 19.5412 28.2553 19.5484 28.2927C19.5557 28.3301 19.5717 28.3653 19.595 28.3954C19.6183 28.4256 19.6484 28.4498 19.6828 28.4662C19.7172 28.4827 19.755 28.4908 19.7931 28.49C19.8168 28.491 19.8405 28.4876 19.8631 28.48L19.8931 28.47L26.0431 26.76C26.2062 26.7168 26.3547 26.6304 26.4731 26.51L30.0131 22.97L46.8731 6.11001C47.5355 5.47188 47.9316 4.60653 47.9817 3.68811C48.0318 2.7697 47.7321 1.8664 47.1431 1.16001Z" fill="#011E41"/>
</g>
<defs>
<clipPath id="clip0_74_516">
<rect width="48" height="48" fill="white"/>
</clipPath>
</defs>
</svg>
