<svg width="48" height="48" viewBox="0 0 48 48" fill="none" xmlns="http://www.w3.org/2000/svg">
<g clip-path="url(#clip0_74_659)">
<path d="M46.68 1.32011C46.1822 0.821303 45.5742 0.446493 44.9049 0.22592C44.2356 0.00534599 43.5238 -0.054815 42.827 0.0502907C42.1302 0.155396 41.4679 0.422825 40.8934 0.831001C40.319 1.23918 39.8485 1.77667 39.52 2.40011C40.4396 3.10792 41.1456 4.05618 41.56 5.14011C41.8718 5.93624 42.0227 6.78631 42.0038 7.64112C41.9849 8.49594 41.7967 9.33852 41.45 10.1201L39 15.6301V43.5001C39 44.6936 39.4741 45.8382 40.318 46.6821C41.1619 47.526 42.3065 48.0001 43.5 48.0001C44.6935 48.0001 45.8381 47.526 46.682 46.6821C47.5259 45.8382 48 44.6936 48 43.5001V4.50011C48.0019 3.909 47.8862 3.32341 47.6595 2.77746C47.4329 2.23152 47.0999 1.73611 46.68 1.32011V1.32011Z" fill="#011E41"/>
<path d="M39.6199 9.31006C40.1 8.21736 40.1263 6.97873 39.6931 5.86664C39.2599 4.75455 38.4026 3.8601 37.3099 3.38006C36.2173 2.90001 34.9786 2.8737 33.8665 3.30691C32.7544 3.74012 31.86 4.59736 31.3799 5.69006L30.9199 6.73006C32.0521 7.73439 32.7748 9.1205 32.9501 10.6238C33.1253 12.1271 32.7408 13.6422 31.8699 14.8801L18.7099 34.2001L15.3799 41.6801C14.9001 42.7742 14.8737 44.0141 15.3068 45.1277C15.7398 46.2412 16.5969 47.1376 17.6899 47.6201C18.2616 47.8672 18.8772 47.9964 19.4999 48.0001C20.3735 47.9991 21.2279 47.7443 21.9593 47.2667C22.6907 46.7892 23.2677 46.1094 23.6199 45.3101L38.9999 10.7101L39.6199 9.31006Z" fill="#011E41"/>
<path d="M20.12 28.5799L23.25 23.9899L30.22 13.7599C30.8388 12.8593 31.0864 11.7548 30.9113 10.6763C30.7362 9.59781 30.1519 8.62839 29.28 7.96986C29.2003 7.89466 29.1132 7.82766 29.02 7.76986C28.8292 7.64109 28.6286 7.52741 28.42 7.42986C27.4345 6.9729 26.3198 6.87676 25.2706 7.15825C24.2214 7.43975 23.3045 8.08096 22.68 8.96986L0.780022 40.9699C0.2713 41.7117 -0.000651428 42.5903 2.24538e-05 43.4899C-0.00302248 44.4535 0.303695 45.3926 0.874939 46.1687C1.44618 46.9448 2.25171 47.5167 3.17272 47.8002C4.09372 48.0836 5.08145 48.0636 5.99022 47.7431C6.89898 47.4225 7.68068 46.8184 8.22002 46.0199L16.95 33.2099L20.12 28.5799Z" fill="#011E41"/>
</g>
<defs>
<clipPath id="clip0_74_659">
<rect width="48" height="48" fill="white"/>
</clipPath>
</defs>
</svg>
