<svg width="48" height="48" viewBox="0 0 48 48" fill="none" xmlns="http://www.w3.org/2000/svg">
<path d="M2.5 25.9962C3.16304 25.9962 3.79893 25.7328 4.26777 25.2639C4.73661 24.7951 5 24.1592 5 23.4962C5.00967 21.9554 5.32682 20.432 5.93285 19.0154C6.53888 17.5988 7.42159 16.3174 8.52926 15.2463C9.63692 14.1753 10.9473 13.3361 12.3834 12.778C13.8196 12.2199 15.3528 11.9541 16.893 11.9962H39.469L36.728 14.7372C36.4892 14.9678 36.2988 15.2436 36.1677 15.5487C36.0367 15.8537 35.9678 16.1817 35.9649 16.5137C35.962 16.8456 36.0252 17.1748 36.1509 17.4821C36.2766 17.7893 36.4623 18.0684 36.697 18.3032C36.9317 18.5379 37.2109 18.7235 37.5181 18.8492C37.8254 18.9749 38.1546 19.0382 38.4865 19.0353C38.8185 19.0324 39.1465 18.9634 39.4515 18.8324C39.7565 18.7014 40.0324 18.5109 40.263 18.2722L47.268 11.2682C47.7367 10.7994 48 10.1636 48 9.50067C48 8.83776 47.7367 8.20199 47.268 7.73317L40.263 0.728169C39.7934 0.262786 39.1586 0.00237255 38.4974 0.00391305C37.8363 0.00545354 37.2027 0.268823 36.7352 0.736389C36.2678 1.20396 36.0046 1.83764 36.0032 2.49879C36.0019 3.15993 36.2625 3.79469 36.728 4.26417L39.459 6.99617H16.893C14.6941 6.94678 12.5075 7.33692 10.4614 8.14371C8.41532 8.95049 6.55089 10.1577 4.97747 11.6945C3.40404 13.2313 2.1533 15.0668 1.29858 17.0934C0.443865 19.1199 0.00237406 21.2967 0 23.4962C0 24.1592 0.263392 24.7951 0.732233 25.2639C1.20107 25.7328 1.83696 25.9962 2.5 25.9962ZM40.263 22.7282C39.7934 22.2628 39.1586 22.0024 38.4974 22.0039C37.8363 22.0055 37.2027 22.2688 36.7352 22.7364C36.2678 23.204 36.0046 23.8376 36.0032 24.4988C36.0019 25.1599 36.2625 25.7947 36.728 26.2642L39.459 28.9962H16.893C14.6941 28.9468 12.5075 29.3369 10.4614 30.1437C8.41532 30.9505 6.55089 32.1577 4.97747 33.6945C3.40404 35.2313 2.1533 37.0668 1.29858 39.0934C0.443865 41.1199 0.00237406 43.2967 0 45.4962C0 46.1592 0.263392 46.7951 0.732233 47.2639C1.20107 47.7328 1.83696 47.9962 2.5 47.9962C3.16304 47.9962 3.79893 47.7328 4.26777 47.2639C4.73661 46.7951 5 46.1592 5 45.4962C5.00967 43.9554 5.32682 42.432 5.93285 41.0154C6.53888 39.5988 7.42159 38.3174 8.52926 37.2463C9.63692 36.1753 10.9473 35.3361 12.3834 34.778C13.8196 34.2199 15.3528 33.9541 16.893 33.9962H39.469L36.728 36.7372C36.4892 36.9678 36.2988 37.2437 36.1677 37.5487C36.0367 37.8537 35.9678 38.1817 35.9649 38.5137C35.962 38.8456 36.0252 39.1748 36.1509 39.4821C36.2766 39.7893 36.4623 40.0684 36.697 40.3032C36.9317 40.5379 37.2109 40.7235 37.5181 40.8492C37.8254 40.9749 38.1546 41.0382 38.4865 41.0353C38.8185 41.0324 39.1465 40.9634 39.4515 40.8324C39.7565 40.7014 40.0324 40.5109 40.263 40.2722L47.268 33.2682C47.7367 32.7994 48 32.1636 48 31.5007C48 30.8378 47.7367 30.202 47.268 29.7332L40.263 22.7282Z" fill="#011E41"/>
</svg>
