<svg width="48" height="48" viewBox="0 0 48 48" fill="none" xmlns="http://www.w3.org/2000/svg">
<path d="M19 29.104V42.504C19.0001 42.8974 18.9228 43.287 18.7723 43.6504C18.6219 44.0139 18.4013 44.3442 18.1231 44.6224C17.845 44.9007 17.5148 45.1213 17.1514 45.2719C16.7879 45.4225 16.3984 45.5 16.005 45.5H2.995C2.20068 45.5 1.43889 45.1845 0.877215 44.6228C0.315544 44.0611 0 43.2993 0 42.505L0 23.067C0 18.6732 1.74545 14.4593 4.85236 11.3524C7.95928 8.24545 12.1732 6.5 16.567 6.5C16.8865 6.49987 17.203 6.56271 17.4982 6.68493C17.7935 6.80716 18.0617 6.98636 18.2877 7.21232C18.5136 7.43827 18.6928 7.70653 18.8151 8.00178C18.9373 8.29702 19.0001 8.61346 19 8.933V17.753L13.475 23.318L10.828 20.672C10.0736 19.9434 9.06318 19.5402 8.01439 19.5493C6.96561 19.5584 5.96236 19.9791 5.22073 20.7207C4.47909 21.4624 4.05842 22.4656 4.0493 23.5144C4.04019 24.5632 4.44337 25.5736 5.172 26.328L7.838 28.994L6.173 30.671C5.79123 31.0403 5.48682 31.4819 5.27754 31.97C5.06825 32.4582 4.95829 32.9831 4.95405 33.5142C4.94981 34.0454 5.0514 34.572 5.25287 35.0634C5.45434 35.5549 5.75166 36.0013 6.1275 36.3766C6.50333 36.7519 6.95014 37.0486 7.44186 37.2493C7.93359 37.4501 8.46037 37.551 8.99148 37.546C9.52259 37.541 10.0474 37.4303 10.5353 37.2203C11.0231 37.0103 11.4643 36.7053 11.833 36.323L19 29.104ZM31.433 6.5C31.1135 6.49987 30.797 6.56271 30.5018 6.68493C30.2065 6.80716 29.9383 6.98636 29.7123 7.21232C29.4864 7.43827 29.3072 7.70653 29.1849 8.00178C29.0627 8.29702 28.9999 8.61346 29 8.933V17.843L34.5 23.343L37.172 20.672C37.541 20.29 37.9824 19.9852 38.4704 19.7756C38.9584 19.566 39.4833 19.4556 40.0144 19.451C40.5455 19.4464 41.0722 19.5476 41.5638 19.7487C42.0554 19.9498 42.502 20.2468 42.8776 20.6224C43.2531 20.998 43.5502 21.4446 43.7513 21.9362C43.9524 22.4278 44.0536 22.9545 44.049 23.4856C44.0444 24.0167 43.934 24.5416 43.7244 25.0296C43.5148 25.5176 43.21 25.959 42.828 26.328L40.156 29L41.828 30.672C42.21 31.041 42.5148 31.4824 42.7244 31.9704C42.934 32.4584 43.0444 32.9833 43.049 33.5144C43.0536 34.0455 42.9524 34.5722 42.7513 35.0638C42.5502 35.5554 42.2531 36.002 41.8776 36.3776C41.502 36.7531 41.0554 37.0502 40.5638 37.2513C40.0722 37.4524 39.5455 37.5536 39.0144 37.549C38.4833 37.5444 37.9584 37.434 37.4704 37.2244C36.9824 37.0148 36.541 36.71 36.172 36.328L29 29.157V42.505C29 43.2993 29.3155 44.0611 29.8772 44.6228C30.4389 45.1845 31.2007 45.5 31.995 45.5H45.005C45.7993 45.5 46.5611 45.1845 47.1228 44.6228C47.6845 44.0611 48 43.2993 48 42.505V23.067C48 18.6732 46.2546 14.4593 43.1476 11.3524C40.0407 8.24545 35.8268 6.5 31.433 6.5V6.5ZM41.414 22.086C41.0389 21.7111 40.5303 21.5004 40 21.5004C39.4697 21.5004 38.9611 21.7111 38.586 22.086L34.5 26.172L26 17.672V4.5C26 3.96957 25.7893 3.46086 25.4142 3.08579C25.0391 2.71071 24.5304 2.5 24 2.5C23.4696 2.5 22.9609 2.71071 22.5858 3.08579C22.2107 3.46086 22 3.96957 22 4.5V17.57L13.48 26.151L9.414 22.086C9.0368 21.7217 8.53159 21.5201 8.0072 21.5247C7.4828 21.5292 6.98118 21.7395 6.61036 22.1104C6.23955 22.4812 6.02921 22.9828 6.02465 23.5072C6.0201 24.0316 6.22168 24.5368 6.586 24.914L10.661 28.989L7.586 32.086C7.22168 32.4632 7.0201 32.9684 7.02465 33.4928C7.02921 34.0172 7.23955 34.5188 7.61036 34.8896C7.98118 35.2605 8.4828 35.4708 9.0072 35.4753C9.53159 35.4799 10.0368 35.2783 10.414 34.914L23.95 21.278L37.586 34.914C37.9632 35.2783 38.4684 35.4799 38.9928 35.4753C39.5172 35.4708 40.0188 35.2605 40.3896 34.8896C40.7605 34.5188 40.9708 34.0172 40.9753 33.4928C40.9799 32.9684 40.7783 32.4632 40.414 32.086L37.328 29L41.414 24.914C41.7889 24.5389 41.9996 24.0303 41.9996 23.5C41.9996 22.9697 41.7889 22.4611 41.414 22.086V22.086Z" fill="#011E41"/>
</svg>
