<svg height="2385.3" viewBox="0 0 5536.1 2385.3" width="5536.1" xmlns="http://www.w3.org/2000/svg" xmlns:xlink="http://www.w3.org/1999/xlink"><clipPath id="a"><path d="m0 0h5536.1v2385.2h-5536.1z"/></clipPath><g fill="#df2d33"><path d="m5536.1 9.8-78.2 368.1h-594.2l-325.3 1530.1h-525.7l325.2-1530.1-1915.7.4 79.9-368.5z"/><path d="m3592.4 1143.6 78.2-368h-1343.4l-79.9 368.6z"/><path clip-path="url(#a)" d="m1103.2 8.4h-4.5l-80.7 377h213.3c168.3 0 344.5 19.1 296.9 212.2-48.2 194.9-214 207.7-382.2 207.7h-214.1l-88.8 366.5h206.2c204.6.6 264.1 130.2 264.1 332.5 0 138.5 3.8 262-9.5 400.7l519.2.1 273.5-1.3 1345.1-.4 78.2-368.1h-1343.4l-353.3.5c.9-29 1.5-59.9 1.9-89.4 1.6-135.4 4.7-415.7-270.6-455.1l2.2-10.6c285.1-52.6 432.8-152 529.1-483.3 57.5-374.2-262.1-494.8-632.2-489h-350.4m-591.9-7.9-403.4 1898.1h121.7l403.7-1898.6h-121.8zm3671.3 2145.1-159.9.1 12.3-56.9h158.9m-24.1 118.1h-159.9l-12.3 56.8h160.2m-11.2 60.4h-161.7l-12.4 56.7h162"/></g><path clip-path="url(#a)" d="m202.1 2379.6-7.4-54.1h-99l-27.7 54.1h-68l152.8-292.1h75.3l44.6 292.1zm-22.9-165.7c-2.2-16-3.9-31.6-4.3-48.5h-.9c-6.5 16.1-14.3 33.8-23.4 52l-29 54.9h66.3zm340 165.7-7.4-54.1h-99.1l-27.7 54.1h-68l152.8-292.1h75.3l44.5 292.1zm-23-165.7c-2.2-16-3.9-31.6-4.3-48.5h-.9c-6.5 16.1-14.3 33.8-23.4 52l-29 54.9h66.2zm321.8 41.9c4.7 9.6 10.4 21.3 15.6 32.5l41.5 91.3h-77l-46.3-114.2h-2.6l-21.6 114.2h-65.7l55.4-292.1c24.6-1.8 55.4-2.2 87.8-2.2 65.8 0 95.6 24.6 95.6 68.8 0 49.8-30.8 85.7-82.7 101.7m-36.5-115c-8.2 0-16.5.5-20.8.9l-14.3 74.9c3.9.4 9.1.9 16.5.9 32.4 0 66.9-22.1 66.9-50.2-.1-17.1-22.8-26.5-48.3-26.5m262.6 241c-35.5 0-62.2-1.3-88.2-2.6l55.4-290.8c22.5-1.3 59.7-2.6 94.3-2.6 77.9 0 122.5 33.8 122.5 105.2 0 98.6-61.5 190.8-184 190.8m52.8-239.3c-13.9 0-22.5 0-30.3.9l-34.1 178.7c6.1.9 14.3 1.6 21.2 1.6 78.8 0 103.9-79.2 103.9-126.3-.1-34.1-14.8-54.9-60.7-54.9m251.7 237.2h-65.7l55.3-292.2h65.8zm354.5-221.7c-22.1-9.1-49.4-14.7-73.2-14.7-71.4 0-112.1 58.4-112.1 120.3 0 32 16.8 59.7 63.6 59.7 11.3 0 22.5-1.3 32.4-4.3l18.2-95.2h66.2l-27.2 142c-30.3 12.1-67.9 18.6-101.3 18.6-87 0-123.3-45.9-123.3-111.2 0-106.9 77-190 189.6-190 29.8 0 60.1 3.9 86.5 11.3zm399.3 227.3c-75.7 0-110.3-41.5-110.3-107.4 0-104.7 74.9-196 173.1-196 72.3 0 109.5 39.3 109.5 108.2-.1 113-77.9 195.2-172.3 195.2m51.9-241.9c-57.1 0-91.3 61.9-91.3 122.9 0 37.2 16.8 57.1 49.3 57.1 54.1 0 92.2-59.3 92.2-125.5 0-32.1-15.6-54.5-50.2-54.5m411.4 236.3h-77.4l-43.7-124.2c-7.8-22.1-13.8-45-18.6-64.5-2.6 22.5-5.6 42-10.4 66.3l-22.9 122.5h-64.1l55.4-292.2h77.9l42 114.2c8.6 24.3 15.5 49.4 21.2 71.9 2.6-23.4 6.9-51.5 11.7-74.9l20.7-111.2h64.1zm193.6 2.1c-35.5 0-62.3-1.3-88.3-2.6l55.5-290.8c22.4-1.3 59.7-2.6 94.3-2.6 77.9 0 122.5 33.8 122.5 105.2 0 98.6-61.4 190.8-184 190.8m52.9-239.3c-13.9 0-22.5 0-30.3.9l-34.1 178.7c6.1.9 14.3 1.6 21.2 1.6 78.8 0 103.9-79.2 103.9-126.3-.1-34.1-14.9-54.9-60.7-54.9m595.6 113.3c4.7 9.6 10.3 21.3 15.6 32.5l41.5 91.3h-77.1l-46.3-114.2h-2.6l-21.7 114.2h-65.8l55.4-292.1c24.7-1.8 55.4-2.2 87.8-2.2 65.8 0 95.6 24.6 95.6 68.8.1 49.8-30.5 85.7-82.4 101.7m-24.3-115c-8.2 0-16.5.5-20.7.9l-14.3 74.9c3.9.4 9.1.9 16.5.9 32.4 0 54.5-22.1 54.5-50.2-.1-17.1-10.5-26.5-36-26.5m447.5 238.9h-80.5l-7.8-137.7c-.9-19.9 0-42.4 2.1-66.7h-.4c-6.5 22.5-13.9 43.8-23 64.5l-60.9 139.8h-75.8l-15.1-292.2h67.5l6.4 142.4c.9 19.1-.4 40.3-2.1 61.5h.4c6.9-20.3 13.4-40.3 22-60.1l64.9-143.7h68l10.8 141.1c1.2 16.9 1.2 38.5-.5 60.6h.5c7.3-22.5 14.7-42.4 22.5-61.4l58.8-140.3h68.8zm663.3-221.7c-22.1-9.1-49.4-14.7-73.1-14.7-71.5 0-112.1 58.4-112.1 120.3 0 32 16.8 59.7 63.6 59.7 11.3 0 22.4-1.3 32.4-4.3l18.2-95.2h66.2l-27.2 142c-30.3 12.1-67.9 18.6-101.3 18.6-87 0-123.3-45.9-123.3-111.2 0-106.9 77-190 189.5-190 29.9 0 60.2 3.9 86.6 11.3zm-1294.4-8.3h-95.1l-10.9 58.1h90.4l-10.8 54.8h-89.9l-12.6 64.5h95.2l-10.8 58h-161l55.4-292h160.9z" fill="#254a72"/></svg>