<svg width="48" height="19" viewBox="0 0 48 19" fill="none" xmlns="http://www.w3.org/2000/svg">
<path d="M38.5 4.9651H16.505L16.5 4.9631H5.121L7.561 2.5231C7.8261 2.23888 7.97052 1.86285 7.96385 1.47425C7.95718 1.08564 7.79993 0.714797 7.52523 0.439841C7.25053 0.164884 6.87984 0.00728545 6.49124 0.000246313C6.10264 -0.00679282 5.72647 0.137277 5.442 0.402105L0.443 5.4001L0.439 5.4021L0.43 5.4161C0.296159 5.55233 0.189581 5.71288 0.116 5.8891C0.111 5.9021 0.109 5.9151 0.104 5.9291C0.0395032 6.095 0.00529463 6.27113 0.003 6.4491L0 6.4641L0.002 6.4761C0.0039371 6.65616 0.0384957 6.83438 0.104 7.0021C0.109 7.0131 0.111 7.0261 0.116 7.0381C0.190076 7.2171 0.298057 7.38009 0.434 7.5181L0.439 7.5251L0.443 7.5271L5.441 12.5251C5.72403 12.7982 6.10301 12.9492 6.4963 12.9456C6.8896 12.942 7.26574 12.7841 7.54373 12.5058C7.82171 12.2276 7.97928 11.8513 7.98252 11.458C7.98575 11.0647 7.83437 10.6859 7.561 10.4031L5.123 7.96411H38.5C40.2233 7.96622 41.8753 8.65172 43.0939 9.87025C44.3124 11.0888 44.9979 12.7408 45 14.4641V17.4641C45 17.8619 45.158 18.2435 45.4393 18.5248C45.7206 18.8061 46.1022 18.9641 46.5 18.9641C46.8978 18.9641 47.2794 18.8061 47.5607 18.5248C47.842 18.2435 48 17.8619 48 17.4641V14.4641C47.9974 11.9454 46.9956 9.53054 45.2146 7.74951C43.4336 5.96849 41.0187 4.96675 38.5 4.9641V4.9651Z" fill="#011E41"/>
</svg>
