<svg width="48" height="48" viewBox="0 0 48 48" fill="none" xmlns="http://www.w3.org/2000/svg">
<g clip-path="url(#clip0_74_1639)">
<path d="M33.9996 48.0006C33.4743 48.0011 32.9541 47.8978 32.4687 47.6967C31.9834 47.4956 31.5426 47.2005 31.1716 46.8286L11.1716 26.8286C10.8002 26.4572 10.5055 26.0162 10.3045 25.5309C10.1035 25.0456 10 24.5254 10 24.0001C10 23.4748 10.1035 22.9546 10.3045 22.4693C10.5055 21.984 10.8002 21.543 11.1716 21.1716L31.1716 1.1716C31.9218 0.421438 32.9393 -7.90427e-09 34.0001 0C35.061 7.90427e-09 36.0785 0.421438 36.8286 1.1716C37.5788 1.92177 38.0002 2.93921 38.0002 4.0001C38.0002 5.061 37.5788 6.07844 36.8286 6.8286L19.6566 24.0006L36.8286 41.1706C37.3886 41.73 37.7701 42.4429 37.9247 43.2191C38.0793 43.9954 38.0002 44.8 37.6973 45.5313C37.3944 46.2626 36.8814 46.8875 36.2232 47.3271C35.565 47.7666 34.7911 48.001 33.9996 48.0006Z" fill="#011E41"/>
</g>
<defs>
<clipPath id="clip0_74_1639">
<rect width="48" height="48" fill="white"/>
</clipPath>
</defs>
</svg>
