<svg width="48" height="48" viewBox="0 0 48 48" fill="none" xmlns="http://www.w3.org/2000/svg">
<path d="M5.5 22.5H7.5C7.89782 22.5 8.27936 22.342 8.56066 22.0607C8.84196 21.7794 9 21.3978 9 21C9 20.6022 8.84196 20.2206 8.56066 19.9393C8.27936 19.658 7.89782 19.5 7.5 19.5H5.5C5.10218 19.5 4.72064 19.658 4.43934 19.9393C4.15804 20.2206 4 20.6022 4 21C4 21.3978 4.15804 21.7794 4.43934 22.0607C4.72064 22.342 5.10218 22.5 5.5 22.5V22.5ZM12.5 22.5H14.5C14.8978 22.5 15.2794 22.342 15.5607 22.0607C15.842 21.7794 16 21.3978 16 21C16 20.6022 15.842 20.2206 15.5607 19.9393C15.2794 19.658 14.8978 19.5 14.5 19.5H12.5C12.1022 19.5 11.7206 19.658 11.4393 19.9393C11.158 20.2206 11 20.6022 11 21C11 21.3978 11.158 21.7794 11.4393 22.0607C11.7206 22.342 12.1022 22.5 12.5 22.5V22.5ZM19.5 22.5H21.5C21.8978 22.5 22.2794 22.342 22.5607 22.0607C22.842 21.7794 23 21.3978 23 21C23 20.6022 22.842 20.2206 22.5607 19.9393C22.2794 19.658 21.8978 19.5 21.5 19.5H19.5C19.1022 19.5 18.7206 19.658 18.4393 19.9393C18.158 20.2206 18 20.6022 18 21C18 21.3978 18.158 21.7794 18.4393 22.0607C18.7206 22.342 19.1022 22.5 19.5 22.5ZM26.5 22.5H28.5C28.8978 22.5 29.2794 22.342 29.5607 22.0607C29.842 21.7794 30 21.3978 30 21C30 20.6022 29.842 20.2206 29.5607 19.9393C29.2794 19.658 28.8978 19.5 28.5 19.5H26.5C26.1022 19.5 25.7206 19.658 25.4393 19.9393C25.158 20.2206 25 20.6022 25 21C25 21.3978 25.158 21.7794 25.4393 22.0607C25.7206 22.342 26.1022 22.5 26.5 22.5V22.5ZM33.5 22.5H35.5C35.8978 22.5001 36.2794 22.3422 36.5608 22.061C36.8422 21.7798 37.0004 21.3983 37.0005 21.0005C37.0006 20.6027 36.8427 20.2211 36.5615 19.9397C36.2803 19.6583 35.8988 19.5001 35.501 19.5H33.501C33.304 19.4999 33.109 19.5387 32.9269 19.614C32.7449 19.6893 32.5795 19.7997 32.4402 19.939C32.3009 20.0782 32.1903 20.2436 32.1149 20.4255C32.0394 20.6075 32.0006 20.8025 32.0005 20.9995C32.0004 21.1965 32.0392 21.3916 32.1145 21.5736C32.1898 21.7556 32.3002 21.921 32.4395 22.0603C32.5787 22.1996 32.7441 22.3102 32.926 22.3856C33.108 22.4611 33.303 22.4999 33.5 22.5V22.5ZM12.5 17.5H14.5C14.8978 17.5 15.2794 17.342 15.5607 17.0607C15.842 16.7794 16 16.3978 16 16C16 15.6022 15.842 15.2206 15.5607 14.9393C15.2794 14.658 14.8978 14.5 14.5 14.5H12.5C12.1022 14.5 11.7206 14.658 11.4393 14.9393C11.158 15.2206 11 15.6022 11 16C11 16.3978 11.158 16.7794 11.4393 17.0607C11.7206 17.342 12.1022 17.5 12.5 17.5V17.5ZM19.5 17.5H21.5C21.8978 17.5 22.2794 17.342 22.5607 17.0607C22.842 16.7794 23 16.3978 23 16C23 15.6022 22.842 15.2206 22.5607 14.9393C22.2794 14.658 21.8978 14.5 21.5 14.5H19.5C19.1022 14.5 18.7206 14.658 18.4393 14.9393C18.158 15.2206 18 15.6022 18 16C18 16.3978 18.158 16.7794 18.4393 17.0607C18.7206 17.342 19.1022 17.5 19.5 17.5ZM26.5 17.5H28.5C28.8978 17.5 29.2794 17.342 29.5607 17.0607C29.842 16.7794 30 16.3978 30 16C30 15.6022 29.842 15.2206 29.5607 14.9393C29.2794 14.658 28.8978 14.5 28.5 14.5H26.5C26.1022 14.5 25.7206 14.658 25.4393 14.9393C25.158 15.2206 25 15.6022 25 16C25 16.3978 25.158 16.7794 25.4393 17.0607C25.7206 17.342 26.1022 17.5 26.5 17.5V17.5ZM19.5 12.5H21.5C21.8978 12.5 22.2794 12.342 22.5607 12.0607C22.842 11.7794 23 11.3978 23 11C23 10.6022 22.842 10.2206 22.5607 9.93934C22.2794 9.65804 21.8978 9.5 21.5 9.5H19.5C19.1022 9.5 18.7206 9.65804 18.4393 9.93934C18.158 10.2206 18 10.6022 18 11C18 11.3978 18.158 11.7794 18.4393 12.0607C18.7206 12.342 19.1022 12.5 19.5 12.5ZM26.5 12.5H28.5C28.8978 12.5 29.2794 12.342 29.5607 12.0607C29.842 11.7794 30 11.3978 30 11C30 10.6022 29.842 10.2206 29.5607 9.93934C29.2794 9.65804 28.8978 9.5 28.5 9.5H26.5C26.1022 9.5 25.7206 9.65804 25.4393 9.93934C25.158 10.2206 25 10.6022 25 11C25 11.3978 25.158 11.7794 25.4393 12.0607C25.7206 12.342 26.1022 12.5 26.5 12.5V12.5ZM33.5 17.5H35.5C35.8978 17.5001 36.2794 17.3422 36.5608 17.061C36.8422 16.7798 37.0004 16.3983 37.0005 16.0005C37.0006 15.6027 36.8427 15.2211 36.5615 14.9397C36.2803 14.6583 35.8988 14.5001 35.501 14.5H33.501C33.304 14.4999 33.109 14.5387 32.9269 14.614C32.7449 14.6893 32.5795 14.7997 32.4402 14.939C32.3009 15.0782 32.1903 15.2435 32.1149 15.4255C32.0394 15.6075 32.0006 15.8025 32.0005 15.9995C32.0004 16.1965 32.0392 16.3915 32.1145 16.5736C32.1898 16.7556 32.3002 16.921 32.4395 17.0603C32.5787 17.1996 32.7441 17.3102 32.926 17.3856C33.108 17.4611 33.303 17.4999 33.5 17.5V17.5ZM40.5 22.5H42.5C42.8978 22.5001 43.2794 22.3422 43.5608 22.061C43.8422 21.7798 44.0004 21.3983 44.0005 21.0005C44.0006 20.6027 43.8427 20.2211 43.5615 19.9397C43.2803 19.6583 42.8988 19.5001 42.501 19.5H40.501C40.304 19.4999 40.109 19.5387 39.9269 19.614C39.7449 19.6893 39.5795 19.7997 39.4402 19.939C39.3009 20.0782 39.1903 20.2436 39.1149 20.4255C39.0394 20.6075 39.0006 20.8025 39.0005 20.9995C39.0004 21.1965 39.0392 21.3916 39.1145 21.5736C39.1898 21.7556 39.3002 21.921 39.4395 22.0603C39.5787 22.1996 39.7441 22.3102 39.926 22.3856C40.108 22.4611 40.303 22.4999 40.5 22.5V22.5ZM47 24.5H1C0.734784 24.5 0.48043 24.6054 0.292893 24.7929C0.105357 24.9804 0 25.2348 0 25.5C0 28.9478 1.36964 32.2544 3.80761 34.6924C6.24558 37.1304 9.55219 38.5 13 38.5H35C38.4478 38.5 41.7544 37.1304 44.1924 34.6924C46.6304 32.2544 48 28.9478 48 25.5C48 25.2348 47.8946 24.9804 47.7071 24.7929C47.5196 24.6054 47.2652 24.5 47 24.5Z" fill="#011E41"/>
</svg>
