<svg width="48" height="48" viewBox="0 0 48 48" fill="none" xmlns="http://www.w3.org/2000/svg">
<path d="M24.7243 0.275205C24.5247 0.097917 24.267 0 24 0C23.733 0 23.4752 0.097917 23.2756 0.275205L4.72111 17.1289C4.60849 17.2311 4.51848 17.3557 4.45686 17.4948C4.39524 17.6338 4.36337 17.7842 4.36328 17.9362V48H19.6363V37.0907C19.638 36.5126 19.8684 35.9586 20.2772 35.5498C20.686 35.141 21.24 34.9106 21.8181 34.9089H26.1818C26.76 34.9106 27.3139 35.141 27.7227 35.5498C28.1315 35.9586 28.362 36.5126 28.3637 37.0907V48H43.6367V17.9373C43.6366 17.7852 43.6047 17.6349 43.5431 17.4959C43.4815 17.3568 43.3915 17.2322 43.2788 17.13L24.7243 0.275205Z" fill="#011E41"/>
<path d="M24.3409 20.8865H22.7955C21.2584 20.8865 19.7843 21.4971 18.6975 22.5839C17.6106 23.6708 17 25.1449 17 26.6819V29.0001H30.1364V26.6819C30.1364 25.1449 29.5258 23.6708 28.4389 22.5839C27.3521 21.4971 25.878 20.8865 24.3409 20.8865Z" fill="white"/>
<path d="M23.5682 19.7273C25.7021 19.7273 27.4319 17.9975 27.4319 15.8636C27.4319 13.7298 25.7021 12 23.5682 12C21.4344 12 19.7046 13.7298 19.7046 15.8636C19.7046 17.9975 21.4344 19.7273 23.5682 19.7273Z" fill="white"/>
</svg>
