<svg width="48" height="48" viewBox="0 0 48 48" fill="none" xmlns="http://www.w3.org/2000/svg">
<path d="M10 5C9.20459 5.00079 8.44199 5.31712 7.87956 5.87956C7.31712 6.44199 7.00079 7.20459 7 8H13C12.9992 7.20459 12.6829 6.44199 12.1204 5.87956C11.558 5.31712 10.7954 5.00079 10 5V5ZM18.3 0C19.9502 1.36833 21.2362 3.12372 22.0434 5.10967C22.8506 7.09563 23.1538 9.25045 22.9261 11.382C22.6984 13.5136 21.9468 15.5558 20.7383 17.3264C19.5298 19.097 17.902 20.5411 16 21.53V48H48V0H18.3ZM34 42C34 42.5304 33.7893 43.0391 33.4142 43.4142C33.0391 43.7893 32.5304 44 32 44C31.4696 44 30.9609 43.7893 30.5858 43.4142C30.2107 43.0391 30 42.5304 30 42V36C30.0016 35.4701 30.2128 34.9623 30.5875 34.5875C30.9623 34.2128 31.4701 34.0016 32 34C32.5292 34.0039 33.0356 34.2159 33.4099 34.5901C33.7841 34.9644 33.9961 35.4708 34 36V42ZM34 27C34 27.5304 33.7893 28.0391 33.4142 28.4142C33.0391 28.7893 32.5304 29 32 29C31.4696 29 30.9609 28.7893 30.5858 28.4142C30.2107 28.0391 30 27.5304 30 27V21C30.0016 20.4701 30.2128 19.9623 30.5875 19.5875C30.9623 19.2128 31.4701 19.0016 32 19C32.5292 19.0039 33.0356 19.2159 33.4099 19.5901C33.7841 19.9643 33.9961 20.4708 34 21V27ZM34 12C34 12.5304 33.7893 13.0391 33.4142 13.4142C33.0391 13.7893 32.5304 14 32 14C31.4696 14 30.9609 13.7893 30.5858 13.4142C30.2107 13.0391 30 12.5304 30 12V6C30.0016 5.47005 30.2128 4.96227 30.5875 4.58753C30.9623 4.2128 31.4701 4.00158 32 4C32.5292 4.00393 33.0356 4.2159 33.4099 4.59012C33.7841 4.96435 33.9961 5.47078 34 6V12Z" fill="#011E41"/>
<path d="M20 10C20 8.02219 19.4135 6.08879 18.3147 4.4443C17.2159 2.79981 15.6541 1.51809 13.8268 0.761209C11.9996 0.00433284 9.98891 -0.193701 8.0491 0.192152C6.10929 0.578004 4.32746 1.53041 2.92894 2.92894C1.53041 4.32746 0.578004 6.10929 0.192152 8.0491C-0.193701 9.98891 0.00433284 11.9996 0.761209 13.8268C1.51809 15.6541 2.79981 17.2159 4.4443 18.3147C6.08879 19.4135 8.02219 20 10 20C12.6519 19.9992 15.195 18.9454 17.0702 17.0702C18.9454 15.195 19.9992 12.6519 20 10ZM15 14C15 14.5304 14.7893 15.0391 14.4142 15.4142C14.0391 15.7893 13.5304 16 13 16H7C6.46957 16 5.96086 15.7893 5.58579 15.4142C5.21072 15.0391 5 14.5304 5 14V8C5 6.67392 5.52679 5.40215 6.46447 4.46447C7.40215 3.52679 8.67392 3 10 3C11.3261 3 12.5979 3.52679 13.5355 4.46447C14.4732 5.40215 15 6.67392 15 8V14Z" fill="#011E41"/>
<path d="M11 10H9C8.44772 10 8 10.4477 8 11V13C8 13.5523 8.44772 14 9 14H11C11.5523 14 12 13.5523 12 13V11C12 10.4477 11.5523 10 11 10Z" fill="#011E41"/>
</svg>
