<svg width="48" height="48" viewBox="0 0 48 48" fill="none" xmlns="http://www.w3.org/2000/svg">
<path d="M45 30.9951H3C2.20435 30.9951 1.44129 31.3112 0.87868 31.8738C0.31607 32.4364 0 33.1994 0 33.9951C0 34.7907 0.31607 35.5538 0.87868 36.1164C1.44129 36.679 2.20435 36.9951 3 36.9951H45C45.7956 36.9951 46.5587 36.679 47.1213 36.1164C47.6839 35.5538 48 34.7907 48 33.9951C48 33.1994 47.6839 32.4364 47.1213 31.8738C46.5587 31.3112 45.7956 30.9951 45 30.9951ZM15 27.9951H45L34.685 11.4381C34.5764 11.2623 34.4114 11.1285 34.2169 11.0586C34.0224 10.9888 33.8099 10.987 33.6143 11.0535C33.4186 11.12 33.2513 11.251 33.1398 11.4249C33.0282 11.5989 32.9789 11.8055 33 12.0111V24.9951L24.685 11.4381C24.5764 11.2623 24.4114 11.1285 24.2169 11.0586C24.0224 10.9888 23.8099 10.987 23.6143 11.0535C23.4186 11.12 23.2513 11.251 23.1398 11.4249C23.0282 11.5989 22.9789 11.8055 23 12.0111V24.9951L14.685 11.4381C14.5764 11.2623 14.4114 11.1285 14.2169 11.0586C14.0224 10.9888 13.8099 10.987 13.6143 11.0535C13.4186 11.12 13.2513 11.251 13.1398 11.4249C13.0282 11.5989 12.9789 11.8055 13 12.0111V24.9951L4.685 11.4381C4.5764 11.2623 4.41136 11.1285 4.21687 11.0586C4.02238 10.9888 3.80994 10.987 3.61429 11.0535C3.41863 11.12 3.25134 11.251 3.13975 11.4249C3.02817 11.5989 2.9789 11.8055 3 12.0111V27.9951H15Z" fill="#011E41"/>
</svg>
