<svg width="48" height="48" viewBox="0 0 48 48" fill="none" xmlns="http://www.w3.org/2000/svg">
<g clip-path="url(#clip0_74_1242)">
<path d="M47.41 9.59003C47.2266 9.40203 47.0073 9.25289 46.765 9.15152C46.5228 9.05015 46.2626 8.99863 46 9.00003C45.4701 9.00161 44.9623 9.21283 44.5875 9.58756C44.2128 9.96229 44.0016 10.4701 44 11V17L41 23H44V37C44 37.5305 44.2107 38.0392 44.5858 38.4142C44.9609 38.7893 45.4696 39 46 39C46.5304 39 47.0391 38.7893 47.4142 38.4142C47.7893 38.0392 48 37.5305 48 37V11C48.0014 10.7374 47.9499 10.4772 47.8485 10.235C47.7471 9.99273 47.598 9.77338 47.41 9.59003V9.59003ZM10 13H6L4 17V11C4 10.4696 3.78929 9.96089 3.41421 9.58581C3.03914 9.21074 2.53043 9.00003 2 9.00003C1.46957 9.00003 0.960859 9.21074 0.585786 9.58581C0.210714 9.96089 0 10.4696 0 11L0 37C0 37.5305 0.210714 38.0392 0.585786 38.4142C0.960859 38.7893 1.46957 39 2 39C2.53043 39 3.03914 38.7893 3.41421 38.4142C3.78929 38.0392 4 37.5305 4 37V23H5L10 13ZM14 13L9 23H13L18 13H14ZM22 13L17 23H21L26 13H22ZM30 13L25 23H29L34 13H30ZM38 13L33 23H37L42 13H38Z" fill="#011E41"/>
</g>
<defs>
<clipPath id="clip0_74_1242">
<rect width="48" height="48" fill="white"/>
</clipPath>
</defs>
</svg>
