<svg width="48" height="48" viewBox="0 0 48 48" fill="none" xmlns="http://www.w3.org/2000/svg">
<path d="M8 0V48H40V0H8ZM26 42C26 42.5304 25.7893 43.0391 25.4142 43.4142C25.0391 43.7893 24.5304 44 24 44C23.4696 44 22.9609 43.7893 22.5858 43.4142C22.2107 43.0391 22 42.5304 22 42V36C22.0016 35.4701 22.2128 34.9623 22.5875 34.5875C22.9623 34.2128 23.4701 34.0016 24 34C24.5293 34.0037 25.0359 34.2156 25.4102 34.5898C25.7844 34.9641 25.9963 35.4707 26 36V42ZM26 27C26 27.5304 25.7893 28.0391 25.4142 28.4142C25.0391 28.7893 24.5304 29 24 29C23.4696 29 22.9609 28.7893 22.5858 28.4142C22.2107 28.0391 22 27.5304 22 27V21C22.0016 20.4701 22.2128 19.9623 22.5875 19.5875C22.9623 19.2128 23.4701 19.0016 24 19C24.5293 19.0037 25.0359 19.2156 25.4102 19.5898C25.7844 19.9641 25.9963 20.4707 26 21V27ZM26 12C26 12.5304 25.7893 13.0391 25.4142 13.4142C25.0391 13.7893 24.5304 14 24 14C23.4696 14 22.9609 13.7893 22.5858 13.4142C22.2107 13.0391 22 12.5304 22 12V6C22.0016 5.47005 22.2128 4.96227 22.5875 4.58753C22.9623 4.2128 23.4701 4.00158 24 4C24.5293 4.00367 25.0359 4.21556 25.4102 4.58984C25.7844 4.96412 25.9963 5.4707 26 6V12Z" fill="#011E41"/>
</svg>
