<svg width="48" height="48" viewBox="0 0 48 48" fill="none" xmlns="http://www.w3.org/2000/svg">
<path d="M19.208 19C15.36 18.451 11.73 16.29 10.23 12.788L10.007 12.266C9.83984 11.8773 9.55825 11.5487 9.19972 11.324C8.84119 11.0992 8.42271 10.989 8 11.008V11H2.236C1.64298 11 1.07424 11.2356 0.654909 11.6549C0.235578 12.0742 0 12.643 0 13.236L0 28.764C0.00369207 28.8494 0.0123735 28.9346 0.026 29.019C0.0118749 29.103 0.00319016 29.1879 0 29.273L0 46C0 46.5304 0.210714 47.0391 0.585786 47.4142C0.960859 47.7893 1.46957 48 2 48C2.53043 48 3.03914 47.7893 3.41421 47.4142C3.78929 47.0391 4 46.5304 4 46V31H6V46C6 46.5304 6.21071 47.0391 6.58579 47.4142C6.96086 47.7893 7.46957 48 8 48C8.53043 48 9.03914 47.7893 9.41421 47.4142C9.78929 47.0391 10 46.5304 10 46V29.273C9.99681 29.1879 9.98813 29.103 9.974 29.019C9.98763 28.9346 9.99631 28.8494 10 28.764V19.24C12.4654 21.2732 15.4507 22.5756 18.618 23C18.7172 23.0068 18.8168 23.0068 18.916 23C19.4021 23.032 19.8826 22.8819 20.264 22.5789C20.6454 22.2759 20.9003 21.8417 20.979 21.361C21.0567 20.8132 20.9138 20.2569 20.5818 19.8142C20.2498 19.3716 19.7557 19.0788 19.208 19V19Z" fill="#011E41"/>
<path d="M5 9C7.20914 9 9 7.20914 9 5C9 2.79086 7.20914 1 5 1C2.79086 1 1 2.79086 1 5C1 7.20914 2.79086 9 5 9Z" fill="#011E41"/>
<path d="M34 10C36.2091 10 38 8.20914 38 6C38 3.79086 36.2091 2 34 2C31.7909 2 30 3.79086 30 6C30 8.20914 31.7909 10 34 10Z" fill="#011E41"/>
<path d="M46 0C45.4696 0 44.9609 0.210714 44.5858 0.585786C44.2107 0.960859 44 1.46957 44 2C43.9656 4.64145 42.9009 7.16503 41.033 9.03297C39.165 10.9009 36.6415 11.9656 34 12C28.87 12 25 7.701 25 2C25 1.46957 24.7893 0.960859 24.4142 0.585786C24.0391 0.210714 23.5304 0 23 0C22.4696 0 21.9609 0.210714 21.5858 0.585786C21.2107 0.960859 21 1.46957 21 2C21 8.051 24.216 12.968 29 14.995V28.82C29.0037 28.8957 29.0114 28.9711 29.023 29.046C29.011 29.1208 29.0033 29.1963 29 29.272V46C29 46.5304 29.2107 47.0391 29.5858 47.4142C29.9609 47.7893 30.4696 48 31 48C31.5304 48 32.0391 47.7893 32.4142 47.4142C32.7893 47.0391 33 46.5304 33 46V31H35V46C35 46.5304 35.2107 47.0391 35.5858 47.4142C35.9609 47.7893 36.4696 48 37 48C37.5304 48 38.0391 47.7893 38.4142 47.4142C38.7893 47.0391 39 46.5304 39 46V29.273C38.9967 29.1973 38.989 29.1218 38.977 29.047C38.9887 28.9718 38.9963 28.896 39 28.82V15.025C41.6231 13.9918 43.8796 12.2017 45.4823 9.88223C47.085 7.5628 47.9614 4.81901 48 2C48 1.46957 47.7893 0.960859 47.4142 0.585786C47.0391 0.210714 46.5304 0 46 0V0Z" fill="#011E41"/>
</svg>
