<svg width="48" height="48" viewBox="0 0 48 48" fill="none" xmlns="http://www.w3.org/2000/svg">
<path d="M37.0013 44H26.0013V7H36.3013L31.5803 18.953C31.508 19.1359 31.4725 19.3312 31.4758 19.5278C31.479 19.7243 31.521 19.9184 31.5992 20.0987C31.6774 20.2791 31.7904 20.4423 31.9317 20.579C32.0731 20.7157 32.2399 20.8233 32.4228 20.8955C32.6056 20.9677 32.8009 21.0032 32.9975 21C33.1941 20.9967 33.3881 20.9548 33.5685 20.8766C33.7489 20.7983 33.9121 20.6853 34.0488 20.544C34.1855 20.4027 34.293 20.2359 34.3653 20.053L38.5013 9.58L42.6373 20.053C42.7095 20.2359 42.817 20.4027 42.9537 20.544C43.0905 20.6853 43.2537 20.7983 43.434 20.8766C43.6144 20.9548 43.8084 20.9967 44.005 21C44.2016 21.0032 44.3969 20.9677 44.5798 20.8955C44.7626 20.8233 44.9295 20.7157 45.0708 20.579C45.2121 20.4423 45.3251 20.2791 45.4033 20.0987C45.4816 19.9184 45.5235 19.7243 45.5267 19.5278C45.53 19.3312 45.4945 19.1359 45.4223 18.953L39.8913 4.95C39.7826 4.66981 39.5917 4.42908 39.3436 4.25951C39.0954 4.08993 38.8018 3.99946 38.5013 4H26.0013V2C26.0013 1.46957 25.7906 0.960859 25.4155 0.585786C25.0404 0.210714 24.5317 0 24.0013 0C23.4708 0 22.9621 0.210714 22.5871 0.585786C22.212 0.960859 22.0013 1.46957 22.0013 2V4H9.50127C9.20074 3.99946 8.9071 4.08993 8.65899 4.25951C8.41088 4.42908 8.21993 4.66981 8.11127 4.95L2.58027 18.953C2.50804 19.1359 2.47254 19.3312 2.47579 19.5278C2.47904 19.7243 2.52098 19.9184 2.59921 20.0987C2.67745 20.2791 2.79044 20.4423 2.93175 20.579C3.07305 20.7157 3.2399 20.8233 3.42277 20.8955C3.60563 20.9677 3.80094 21.0032 3.99752 21C4.19411 20.9967 4.38813 20.9548 4.56851 20.8766C4.74888 20.7983 4.91209 20.6853 5.0488 20.544C5.1855 20.4027 5.29304 20.2359 5.36527 20.053L9.50127 9.58L13.6373 20.053C13.7095 20.2359 13.817 20.4027 13.9537 20.544C14.0905 20.6853 14.2537 20.7983 14.434 20.8766C14.6144 20.9548 14.8084 20.9967 15.005 21C15.2016 21.0032 15.3969 20.9677 15.5798 20.8955C15.7626 20.8233 15.9295 20.7157 16.0708 20.579C16.2121 20.4423 16.3251 20.2791 16.4033 20.0987C16.4816 19.9184 16.5235 19.7243 16.5267 19.5278C16.53 19.3312 16.4945 19.1359 16.4223 18.953L11.7003 7H22.0003V44H11.0003C10.4698 44 9.96113 44.2107 9.58605 44.5858C9.21098 44.9609 9.00027 45.4696 9.00027 46C9.00027 46.5304 9.21098 47.0391 9.58605 47.4142C9.96113 47.7893 10.4698 48 11.0003 48H37.0003C37.5307 48 38.0394 47.7893 38.4145 47.4142C38.7896 47.0391 39.0003 46.5304 39.0003 46C39.0003 45.4696 38.7896 44.9609 38.4145 44.5858C38.0394 44.2107 37.5307 44 37.0003 44H37.0013Z" fill="#011E41"/>
<path d="M18.9324 24.312C18.9406 24.2746 18.9404 24.2358 18.9316 24.1984C18.9229 24.1611 18.9059 24.1262 18.8819 24.0963C18.858 24.0664 18.8276 24.0422 18.7931 24.0255C18.7586 24.0089 18.7208 24.0002 18.6824 24H0.319431C0.281099 24.0002 0.243288 24.0089 0.208767 24.0255C0.174245 24.0422 0.143888 24.0664 0.119919 24.0963C0.0959495 24.1262 0.0789754 24.1611 0.0702395 24.1984C0.0615037 24.2358 0.0612275 24.2746 0.0694312 24.312C0.575241 26.4329 1.78116 28.3215 3.49246 29.6726C5.20375 31.0238 7.32052 31.7587 9.50093 31.7587C11.6813 31.7587 13.7981 31.0238 15.5094 29.6726C17.2207 28.3215 18.4266 26.4329 18.9324 24.312V24.312ZM47.6834 24H29.3184C29.2801 24.0002 29.2423 24.0089 29.2078 24.0255C29.1732 24.0422 29.1429 24.0664 29.1189 24.0963C29.0949 24.1262 29.078 24.1611 29.0692 24.1984C29.0605 24.2358 29.0602 24.2746 29.0684 24.312C29.5742 26.4329 30.7802 28.3215 32.4915 29.6726C34.2028 31.0238 36.3195 31.7587 38.4999 31.7587C40.6803 31.7587 42.7971 31.0238 44.5084 29.6726C46.2197 28.3215 47.4256 26.4329 47.9314 24.312C47.9396 24.2746 47.9394 24.2358 47.9306 24.1984C47.9219 24.1611 47.9049 24.1262 47.8809 24.0963C47.857 24.0664 47.8266 24.0422 47.7921 24.0255C47.7576 24.0089 47.7198 24.0002 47.6814 24H47.6834Z" fill="#011E41"/>
</svg>
