<svg width="48" height="48" viewBox="0 0 48 48" fill="none" xmlns="http://www.w3.org/2000/svg">
<path d="M1.5 11H12.91L9.435 14.468C9.22733 14.6755 9.08593 14.94 9.02871 15.228C8.9715 15.5159 9.00103 15.8144 9.11359 16.0855C9.22614 16.3567 9.41664 16.5883 9.66096 16.7511C9.90528 16.9139 10.1924 17.0005 10.486 17C10.6812 17.0002 10.8745 16.9619 11.0549 16.8873C11.2352 16.8126 11.3991 16.7031 11.537 16.565L17.514 10.599C17.6772 10.4496 17.8053 10.2658 17.889 10.061L17.893 10.049C17.9271 9.96359 17.9532 9.87522 17.971 9.785C17.9901 9.6912 17.9998 9.59573 18 9.5C17.9997 9.40461 17.99 9.30949 17.971 9.216C17.9537 9.1272 17.9282 9.04017 17.895 8.956L17.893 8.952L17.889 8.938C17.8058 8.73453 17.6788 8.55188 17.517 8.403L13.977 4.869L11.537 2.435C11.4006 2.2915 11.2368 2.17673 11.0553 2.09746C10.8739 2.01818 10.6784 1.976 10.4804 1.97338C10.2824 1.97077 10.0859 2.00778 9.90241 2.08224C9.71893 2.1567 9.5522 2.2671 9.41201 2.40695C9.27183 2.5468 9.16103 2.71328 9.08613 2.89658C9.01124 3.07988 8.97376 3.27631 8.9759 3.47432C8.97804 3.67232 9.01976 3.86789 9.09861 4.04954C9.17745 4.23118 9.29182 4.39522 9.435 4.532L12.91 8H1.5C1.10218 8 0.720644 8.15804 0.43934 8.43934C0.158035 8.72064 0 9.10218 0 9.5C0 9.89782 0.158035 10.2794 0.43934 10.5607C0.720644 10.842 1.10218 11 1.5 11V11ZM46.93 16H45V13.06C45.0008 12.9206 44.9739 12.7824 44.9209 12.6534C44.8679 12.5245 44.7899 12.4073 44.6913 12.3087C44.5927 12.2101 44.4755 12.1321 44.3466 12.0791C44.2176 12.0261 44.0794 11.9992 43.94 12H42V1.5C42 1.10218 41.842 0.720644 41.5607 0.43934C41.2794 0.158035 40.8978 0 40.5 0C40.1022 0 39.7206 0.158035 39.4393 0.43934C39.158 0.720644 39 1.10218 39 1.5V12H37.06C36.9206 11.9992 36.7824 12.0261 36.6534 12.0791C36.5245 12.1321 36.4073 12.2101 36.3087 12.3087C36.2101 12.4073 36.1321 12.5245 36.0791 12.6534C36.0261 12.7824 35.9992 12.9206 36 13.06V16H34.07C33.7863 16.0003 33.5143 16.1131 33.3137 16.3137C33.1131 16.5143 33.0003 16.7863 33 17.07V45H24V38.82C25.5501 38.4523 26.9113 37.5282 27.8249 36.2231C28.7386 34.9179 29.1411 33.3227 28.956 31.7403C28.7709 30.158 28.0111 28.6987 26.821 27.6396C25.6308 26.5805 24.0931 25.9954 22.5 25.9954C20.9069 25.9954 19.3692 26.5805 18.179 27.6396C16.9889 28.6987 16.2291 30.158 16.044 31.7403C15.8589 33.3227 16.2614 34.9179 17.1751 36.2231C18.0887 37.5282 19.4499 38.4523 21 38.82V45H0V48H48V17.07C47.9997 16.7863 47.8869 16.5143 47.6863 16.3137C47.4857 16.1131 47.2137 16.0003 46.93 16V16ZM42 31.5C41.9993 31.4342 42.0118 31.3688 42.0367 31.3079C42.0616 31.2469 42.0984 31.1915 42.145 31.145C42.1915 31.0984 42.2469 31.0616 42.3079 31.0367C42.3688 31.0118 42.4342 30.9993 42.5 31H44.5C44.5658 30.9993 44.6312 31.0118 44.6921 31.0367C44.7531 31.0616 44.8085 31.0984 44.855 31.145C44.9016 31.1915 44.9384 31.2469 44.9633 31.3079C44.9882 31.3688 45.0007 31.4342 45 31.5V33.5C45.0007 33.5658 44.9882 33.6312 44.9633 33.6921C44.9384 33.7531 44.9016 33.8085 44.855 33.855C44.8085 33.9016 44.7531 33.9384 44.6921 33.9633C44.6312 33.9882 44.5658 34.0007 44.5 34H42.5C42.4342 34.0007 42.3688 33.9882 42.3079 33.9633C42.2469 33.9384 42.1915 33.9016 42.145 33.855C42.0984 33.8085 42.0616 33.7531 42.0367 33.6921C42.0118 33.6312 41.9993 33.5658 42 33.5V31.5ZM44.5 28H42.5C42.4342 28.0007 42.3688 27.9882 42.3079 27.9633C42.2469 27.9384 42.1915 27.9016 42.145 27.855C42.0984 27.8085 42.0616 27.7531 42.0367 27.6921C42.0118 27.6312 41.9993 27.5658 42 27.5V25.5C41.9993 25.4342 42.0118 25.3688 42.0367 25.3079C42.0616 25.2469 42.0984 25.1915 42.145 25.145C42.1915 25.0984 42.2469 25.0616 42.3079 25.0367C42.3688 25.0118 42.4342 24.9993 42.5 25H44.5C44.5658 24.9993 44.6312 25.0118 44.6921 25.0367C44.7531 25.0616 44.8085 25.0984 44.855 25.145C44.9016 25.1915 44.9384 25.2469 44.9633 25.3079C44.9882 25.3688 45.0007 25.4342 45 25.5V27.5C45.0007 27.5658 44.9882 27.6312 44.9633 27.6921C44.9384 27.7531 44.9016 27.8085 44.855 27.855C44.8085 27.9016 44.7531 27.9384 44.6921 27.9633C44.6312 27.9882 44.5658 28.0007 44.5 28V28ZM44.5 22H42.5C42.4342 22.0007 42.3688 21.9882 42.3079 21.9633C42.2469 21.9384 42.1915 21.9016 42.145 21.855C42.0984 21.8085 42.0616 21.7531 42.0367 21.6921C42.0118 21.6312 41.9993 21.5658 42 21.5V19.5C41.9993 19.4342 42.0118 19.3688 42.0367 19.3079C42.0616 19.2469 42.0984 19.1915 42.145 19.145C42.1915 19.0984 42.2469 19.0616 42.3079 19.0367C42.3688 19.0118 42.4342 18.9993 42.5 19H44.5C44.5658 18.9993 44.6312 19.0118 44.6921 19.0367C44.7531 19.0616 44.8085 19.0984 44.855 19.145C44.9016 19.1915 44.9384 19.2469 44.9633 19.3079C44.9882 19.3688 45.0007 19.4342 45 19.5V21.5C45.0007 21.5658 44.9882 21.6312 44.9633 21.6921C44.9384 21.7531 44.9016 21.8085 44.855 21.855C44.8085 21.9016 44.7531 21.9384 44.6921 21.9633C44.6312 21.9882 44.5658 22.0007 44.5 22V22ZM36 19.5C35.9993 19.4342 36.0118 19.3688 36.0367 19.3079C36.0616 19.2469 36.0984 19.1915 36.145 19.145C36.1915 19.0984 36.2469 19.0616 36.3079 19.0367C36.3688 19.0118 36.4342 18.9993 36.5 19H38.5C38.5658 18.9993 38.6312 19.0118 38.6921 19.0367C38.7531 19.0616 38.8085 19.0984 38.855 19.145C38.9016 19.1915 38.9384 19.2469 38.9633 19.3079C38.9882 19.3688 39.0007 19.4342 39 19.5V21.5C39.0007 21.5658 38.9882 21.6312 38.9633 21.6921C38.9384 21.7531 38.9016 21.8085 38.855 21.855C38.8085 21.9016 38.7531 21.9384 38.6921 21.9633C38.6312 21.9882 38.5658 22.0007 38.5 22H36.5C36.4342 22.0007 36.3688 21.9882 36.3079 21.9633C36.2469 21.9384 36.1915 21.9016 36.145 21.855C36.0984 21.8085 36.0616 21.7531 36.0367 21.6921C36.0118 21.6312 35.9993 21.5658 36 21.5V19.5ZM36 25.5C35.9993 25.4342 36.0118 25.3688 36.0367 25.3079C36.0616 25.2469 36.0984 25.1915 36.145 25.145C36.1915 25.0984 36.2469 25.0616 36.3079 25.0367C36.3688 25.0118 36.4342 24.9993 36.5 25H38.5C38.5658 24.9993 38.6312 25.0118 38.6921 25.0367C38.7531 25.0616 38.8085 25.0984 38.855 25.145C38.9016 25.1915 38.9384 25.2469 38.9633 25.3079C38.9882 25.3688 39.0007 25.4342 39 25.5V27.5C39.0007 27.5658 38.9882 27.6312 38.9633 27.6921C38.9384 27.7531 38.9016 27.8085 38.855 27.855C38.8085 27.9016 38.7531 27.9384 38.6921 27.9633C38.6312 27.9882 38.5658 28.0007 38.5 28H36.5C36.4342 28.0007 36.3688 27.9882 36.3079 27.9633C36.2469 27.9384 36.1915 27.9016 36.145 27.855C36.0984 27.8085 36.0616 27.7531 36.0367 27.6921C36.0118 27.6312 35.9993 27.5658 36 27.5V25.5ZM36 31.5C35.9993 31.4342 36.0118 31.3688 36.0367 31.3079C36.0616 31.2469 36.0984 31.1915 36.145 31.145C36.1915 31.0984 36.2469 31.0616 36.3079 31.0367C36.3688 31.0118 36.4342 30.9993 36.5 31H38.5C38.5658 30.9993 38.6312 31.0118 38.6921 31.0367C38.7531 31.0616 38.8085 31.0984 38.855 31.145C38.9016 31.1915 38.9384 31.2469 38.9633 31.3079C38.9882 31.3688 39.0007 31.4342 39 31.5V33.5C39.0007 33.5658 38.9882 33.6312 38.9633 33.6921C38.9384 33.7531 38.9016 33.8085 38.855 33.855C38.8085 33.9016 38.7531 33.9384 38.6921 33.9633C38.6312 33.9882 38.5658 34.0007 38.5 34H36.5C36.4342 34.0007 36.3688 33.9882 36.3079 33.9633C36.2469 33.9384 36.1915 33.9016 36.145 33.855C36.0984 33.8085 36.0616 33.7531 36.0367 33.6921C36.0118 33.6312 35.9993 33.5658 36 33.5V31.5ZM42 45V40C42.0008 39.735 42.1064 39.4811 42.2938 39.2938C42.4811 39.1064 42.735 39.0008 43 39H44C44.265 39.0008 44.5189 39.1064 44.7062 39.2938C44.8936 39.4811 44.9992 39.735 45 40V45H42Z" fill="#011E41"/>
</svg>
