<svg width="48" height="48" viewBox="0 0 48 48" fill="none" xmlns="http://www.w3.org/2000/svg">
<g clip-path="url(#clip0_74_1390)">
<path d="M41.4961 13C45.0859 13 47.9961 10.0899 47.9961 6.5C47.9961 2.91015 45.0859 0 41.4961 0C37.9062 0 34.9961 2.91015 34.9961 6.5C34.9961 10.0899 37.9062 13 41.4961 13Z" fill="#011E41"/>
<path d="M8.49806 12H10.9981C10.9981 12.7956 11.3141 13.5587 11.8767 14.1213C12.4393 14.6839 13.2024 15 13.9981 15H18.9981C19.7937 15 20.5568 14.6839 21.1194 14.1213C21.682 13.5587 21.9981 12.7956 21.9981 12C21.9981 11.2044 21.682 10.4413 21.1194 9.87868C20.5568 9.31607 19.7937 9 18.9981 9H15.9481C15.8328 8.43532 15.526 7.9278 15.0795 7.56335C14.6331 7.19889 14.0744 6.99988 13.4981 7H8.49806C7.83502 7 7.19913 7.26339 6.73029 7.73223C6.26145 8.20107 5.99806 8.83696 5.99806 9.5C5.99806 10.163 6.26145 10.7989 6.73029 11.2678C7.19913 11.7366 7.83502 12 8.49806 12V12ZM23.0381 22.62C22.576 21.8239 21.913 21.1632 21.1154 20.7039C20.3178 20.2446 19.4135 20.0028 18.4931 20.0028C17.5726 20.0028 16.6683 20.2446 15.8707 20.7039C15.0731 21.1632 14.4101 21.8239 13.9481 22.62L0.10806 46.73C0.0359078 46.8612 -0.000626606 47.0089 0.00209477 47.1586C0.00481615 47.3083 0.0466984 47.4547 0.123571 47.5831C0.200444 47.7116 0.309626 47.8177 0.440246 47.8908C0.570865 47.9639 0.718365 48.0016 0.86806 48H17.6981L18.2581 47.01L27.6181 30.6L23.0381 22.62ZM47.8681 46.47L37.9381 29.1C37.5821 28.4631 37.0627 27.9326 36.4334 27.5634C35.8041 27.1941 35.0877 26.9995 34.3581 26.9995C33.6284 26.9995 32.912 27.1941 32.2827 27.5634C31.6534 27.9326 31.134 28.4631 30.7781 29.1L28.7781 32.61L19.9981 48H46.9681C47.1476 48.0005 47.3241 47.954 47.4801 47.8651C47.6361 47.7762 47.766 47.648 47.857 47.4932C47.9481 47.3385 47.997 47.1626 47.9989 46.9831C48.0008 46.8036 47.9557 46.6267 47.8681 46.47V46.47Z" fill="#011E41"/>
</g>
<defs>
<clipPath id="clip0_74_1390">
<rect width="48" height="48" fill="white"/>
</clipPath>
</defs>
</svg>
