<svg width="48" height="48" viewBox="0 0 48 48" fill="none" xmlns="http://www.w3.org/2000/svg">
<path d="M41.3676 3.3986L24.2176 0.025773C24.0748 -0.00859098 23.9259 -0.00859098 23.7831 0.025773L6.63313 3.3986C6.37248 3.44838 6.13736 3.58752 5.9683 3.79206C5.79925 3.9966 5.70685 4.25371 5.70703 4.51907V27.5915C5.70703 38.8648 14.0534 48 24.0004 48C33.9473 48 42.2937 38.8648 42.2937 27.5915V4.52021C42.2939 4.25485 42.2015 3.99774 42.0324 3.7932C41.8633 3.58867 41.6282 3.44952 41.3676 3.39975V3.3986ZM31.6378 24.3216L30.8375 25.1105L24.412 31.8218C24.3581 31.8762 24.2939 31.9193 24.2233 31.9488C24.1527 31.9782 24.0769 31.9933 24.0004 31.9933C23.9238 31.9933 23.848 31.9782 23.7774 31.9488C23.7068 31.9193 23.6426 31.8762 23.5888 31.8218L17.1632 25.1105L16.3629 24.3216C15.8912 23.8652 15.5149 23.3196 15.2558 22.7166C14.9967 22.1136 14.86 21.4651 14.8537 20.8088C14.8473 20.1524 14.9713 19.5014 15.2187 18.8934C15.466 18.2855 15.8316 17.7327 16.2943 17.2672C17.1923 16.4335 18.3732 15.9718 19.5985 15.9753C20.8766 15.9753 22.1038 16.476 23.0171 17.3701L24.0004 18.2734L24.9836 17.3701C25.8969 16.476 27.1241 15.9753 28.4022 15.9753C29.6275 15.9718 30.8084 16.4335 31.7064 17.2672C32.1691 17.7327 32.5347 18.2855 32.782 18.8934C33.0294 19.5014 33.1534 20.1524 33.147 20.8088C33.1407 21.4651 33.004 22.1136 32.7449 22.7166C32.4858 23.3196 32.1095 23.8652 31.6378 24.3216V24.3216Z" fill="#011E41"/>
</svg>
