<svg width="48" height="48" viewBox="0 0 48 48" fill="none" xmlns="http://www.w3.org/2000/svg">
<path d="M37 13C37 9.55219 35.6304 6.24558 33.1924 3.80761C30.7544 1.36964 27.4478 0 24 0C20.5522 0 17.2456 1.36964 14.8076 3.80761C12.3696 6.24558 11 9.55219 11 13L9 47C9.00079 47.265 9.1064 47.5189 9.29377 47.7062C9.48113 47.8936 9.73503 47.9992 10 48H38C38.265 47.9992 38.5189 47.8936 38.7062 47.7062C38.8936 47.5189 38.9992 47.265 39 47L37 13ZM31 7C31.3956 7 31.7822 7.1173 32.1111 7.33706C32.44 7.55682 32.6964 7.86918 32.8478 8.23463C32.9991 8.60009 33.0387 9.00222 32.9616 9.39018C32.8844 9.77814 32.6939 10.1345 32.4142 10.4142C32.1345 10.6939 31.7781 10.8844 31.3902 10.9616C31.0022 11.0387 30.6001 10.9991 30.2346 10.8478C29.8692 10.6964 29.5568 10.44 29.3371 10.1111C29.1173 9.78224 29 9.39556 29 9C29.0016 8.47005 29.2128 7.96227 29.5875 7.58753C29.9623 7.2128 30.4701 7.00158 31 7V7ZM24 3C24.3956 3 24.7822 3.1173 25.1111 3.33706C25.44 3.55682 25.6964 3.86918 25.8478 4.23463C25.9991 4.60009 26.0387 5.00222 25.9616 5.39018C25.8844 5.77814 25.6939 6.13451 25.4142 6.41421C25.1345 6.69392 24.7781 6.8844 24.3902 6.96157C24.0022 7.03874 23.6001 6.99913 23.2346 6.84776C22.8692 6.69638 22.5568 6.44004 22.3371 6.11114C22.1173 5.78224 22 5.39556 22 5C22.0016 4.47005 22.2128 3.96227 22.5875 3.58753C22.9623 3.2128 23.4701 3.00158 24 3V3ZM17 7C17.3956 7 17.7822 7.1173 18.1111 7.33706C18.44 7.55682 18.6964 7.86918 18.8478 8.23463C18.9991 8.60009 19.0387 9.00222 18.9616 9.39018C18.8844 9.77814 18.6939 10.1345 18.4142 10.4142C18.1345 10.6939 17.7781 10.8844 17.3902 10.9616C17.0022 11.0387 16.6001 10.9991 16.2346 10.8478C15.8692 10.6964 15.5568 10.44 15.3371 10.1111C15.1173 9.78224 15 9.39556 15 9C15.0016 8.47005 15.2128 7.96227 15.5875 7.58753C15.9623 7.2128 16.4701 7.00158 17 7V7ZM13 44L15 17H33L35 44H13Z" fill="#011E41"/>
<path d="M18 42C19.1046 42 20 41.1046 20 40C20 38.8954 19.1046 38 18 38C16.8954 38 16 38.8954 16 40C16 41.1046 16.8954 42 18 42Z" fill="#011E41"/>
<path d="M24 42C25.1046 42 26 41.1046 26 40C26 38.8954 25.1046 38 24 38C22.8954 38 22 38.8954 22 40C22 41.1046 22.8954 42 24 42Z" fill="#011E41"/>
<path d="M30 42C31.1046 42 32 41.1046 32 40C32 38.8954 31.1046 38 30 38C28.8954 38 28 38.8954 28 40C28 41.1046 28.8954 42 30 42Z" fill="#011E41"/>
<path d="M18 36C19.1046 36 20 35.1046 20 34C20 32.8954 19.1046 32 18 32C16.8954 32 16 32.8954 16 34C16 35.1046 16.8954 36 18 36Z" fill="#011E41"/>
<path d="M24 36C25.1046 36 26 35.1046 26 34C26 32.8954 25.1046 32 24 32C22.8954 32 22 32.8954 22 34C22 35.1046 22.8954 36 24 36Z" fill="#011E41"/>
<path d="M18 30C19.1046 30 20 29.1046 20 28C20 26.8954 19.1046 26 18 26C16.8954 26 16 26.8954 16 28C16 29.1046 16.8954 30 18 30Z" fill="#011E41"/>
</svg>
