<svg width="48" height="48" viewBox="0 0 48 48" fill="none" xmlns="http://www.w3.org/2000/svg">
<path d="M30.5 0H18C17.6022 0 17.2206 0.158035 16.9393 0.43934C16.658 0.720644 16.5 1.10218 16.5 1.5C16.5 1.89782 16.658 2.27936 16.9393 2.56066C17.2206 2.84196 17.6022 3 18 3H21.5V12H17.5C17.235 12.0008 16.9811 12.1064 16.7938 12.2938C16.6064 12.4811 16.5008 12.735 16.5 13V17H13.5C12.9701 17.0016 12.4623 17.2128 12.0875 17.5875C11.7128 17.9623 11.5016 18.4701 11.5 19V46C11.5016 46.5299 11.7128 47.0377 12.0875 47.4125C12.4623 47.7872 12.9701 47.9984 13.5 48H32.5C33.0299 47.9984 33.5377 47.7872 33.9125 47.4125C34.2872 47.0377 34.4984 46.5299 34.5 46V19C34.4984 18.4701 34.2872 17.9623 33.9125 17.5875C33.5377 17.2128 33.0299 17.0016 32.5 17H29.5V13C29.4992 12.735 29.3936 12.4811 29.2062 12.2938C29.0189 12.1064 28.765 12.0008 28.5 12H24.5V3H30.5C32.43 3 33.5 4.57 33.5 6.5C33.5 6.89782 33.658 7.27936 33.9393 7.56066C34.2206 7.84196 34.6022 8 35 8C35.3978 8 35.7794 7.84196 36.0607 7.56066C36.342 7.27936 36.5 6.89782 36.5 6.5C36.5 2.92 34.08 0 30.5 0Z" fill="#011E41"/>
</svg>
