<svg width="48" height="48" viewBox="0 0 48 48" fill="none" xmlns="http://www.w3.org/2000/svg">
<path d="M17.9982 21.9986C19.0469 22.0006 20.0856 21.796 21.0552 21.3965C22.0248 20.997 22.9062 20.4105 23.6491 19.6703C24.3921 18.9302 24.9819 18.051 25.385 17.0829C25.7882 16.1148 25.9967 15.0768 25.9986 14.0282C25.9986 10.048 19.4483 1.64751 18.1982 0.0974294C18.1744 0.0670783 18.1441 0.0425329 18.1094 0.0256527C18.0748 0.0087724 18.0367 0 17.9982 0C17.9597 0 17.9216 0.0087724 17.887 0.0256527C17.8523 0.0425329 17.8219 0.0670783 17.7982 0.0974294C16.5481 1.64751 9.99777 10.048 9.99777 14.0282C9.99974 15.0768 10.2082 16.1148 10.6114 17.0829C11.0145 18.051 11.6043 18.9302 12.3472 19.6703C13.0902 20.4105 13.9716 20.997 14.9412 21.3965C15.9108 21.796 16.9495 22.0006 17.9982 21.9986V21.9986ZM38.9993 28.999H25.4986C24.5717 29.0034 23.684 29.3737 23.0285 30.0291C22.3731 30.6845 22.0029 31.5722 21.9984 32.4992C21.9995 33.4272 22.3686 34.3168 23.0248 34.973C23.6809 35.6292 24.5706 35.9983 25.4986 35.9994H30.9989C31.5281 36.0033 32.0346 36.2153 32.4088 36.5895C32.7831 36.9638 32.9951 37.4702 32.999 37.9995C32.9974 38.5294 32.7862 39.0373 32.4114 39.412C32.0367 39.7868 31.5289 39.998 30.9989 39.9996H21.9984C21.411 39.9944 20.8443 39.7819 20.3983 39.3995L6.8076 26.1688C6.4107 25.7736 5.9355 25.4657 5.41255 25.265C4.88959 25.0643 4.33044 24.9752 3.77101 25.0035C3.21158 25.0317 2.66424 25.1767 2.16417 25.4291C1.66409 25.6814 1.22234 26.0356 0.867279 26.4688C0.243562 27.2709 -0.061638 28.2752 0.0103581 29.2887C0.0823542 30.3022 0.526464 31.2533 1.2573 31.9591L16.4881 46.8299C17.2392 47.5796 18.2571 48.0004 19.3183 48H38.9993C41.3864 48 43.6757 47.0517 45.3636 45.3638C47.0515 43.6759 47.9998 41.3866 47.9998 38.9995V37.9995C47.9998 35.6124 47.0515 33.3231 45.3636 31.6352C43.6757 29.9472 41.3864 28.999 38.9993 28.999V28.999Z" fill="#011E41"/>
</svg>
