<svg width="48" height="48" viewBox="0 0 48 48" fill="none" xmlns="http://www.w3.org/2000/svg">
<path d="M9.00722 39.0073C11.5291 41.4909 14.885 42.9471 18.4216 43.092C21.9581 43.237 25.422 42.0605 28.1387 39.7916C28.2497 39.6997 28.3397 39.585 28.4026 39.4553C28.4655 39.3256 28.4999 39.184 28.5035 39.0399C28.5071 38.8958 28.4798 38.7526 28.4234 38.62C28.3671 38.4873 28.2829 38.3683 28.1767 38.2709L8.74143 20.6861C8.63982 20.5961 8.52114 20.5274 8.39244 20.4842C8.26374 20.4409 8.12766 20.424 7.99229 20.4345C7.85693 20.4449 7.72505 20.4825 7.60451 20.5449C7.48396 20.6074 7.37721 20.6935 7.29061 20.798C2.64837 26.2256 3.79844 33.7995 9.00722 39.0073ZM47.8778 19.4052C46.3818 14.9139 43.8624 10.8319 40.5184 7.48117C37.1745 4.13047 33.0975 1.60284 28.6093 0.0977805C28.1052 -0.0659907 27.5566 -0.022775 27.0843 0.217921C26.612 0.458616 26.2547 0.877075 26.0909 1.38124C25.9271 1.88541 25.9703 2.43398 26.211 2.90629C26.4517 3.37859 26.8702 3.73593 27.3743 3.8997C31.2654 5.20455 34.7999 7.39615 37.6986 10.3014C40.5973 13.2067 42.7808 16.7461 44.0768 20.6402C44.1558 20.8923 44.2839 21.1264 44.4539 21.3287C44.6239 21.5311 44.8323 21.6977 45.0671 21.8189C45.3019 21.9402 45.5584 22.0136 45.8218 22.0351C46.0852 22.0565 46.3502 22.0255 46.6015 21.9439C46.8529 21.8622 47.0855 21.7315 47.286 21.5593C47.4864 21.3872 47.6508 21.177 47.7695 20.9409C47.8882 20.7048 47.9588 20.4475 47.9774 20.1839C47.996 19.9202 47.9621 19.6556 47.8778 19.4052ZM25.7617 7.18704C25.5187 7.08244 25.2574 7.02712 24.9929 7.02428C24.7284 7.02143 24.466 7.07113 24.2208 7.17048C23.9757 7.26983 23.7527 7.41687 23.5648 7.60305C23.3769 7.78924 23.2279 8.01087 23.1263 8.2551C23.0247 8.49934 22.9726 8.7613 22.973 9.02582C22.9735 9.29033 23.0264 9.55213 23.1288 9.79603C23.2312 10.0399 23.381 10.2611 23.5695 10.4466C23.758 10.6322 23.9814 10.7785 24.2269 10.8771C27.1604 12.0084 29.8245 13.7413 32.0479 15.9644C34.2713 18.1874 36.0046 20.8513 37.1364 23.7846C37.2368 24.0271 37.384 24.2474 37.5695 24.433C37.7551 24.6187 37.9753 24.7659 38.2178 24.8664C38.4602 24.9669 38.7201 25.0186 38.9825 25.0187C39.245 25.0187 39.5048 24.9671 39.7473 24.8667C39.9898 24.7664 40.2102 24.6192 40.3958 24.4337C40.5814 24.2481 40.7286 24.0278 40.8291 23.7854C40.9296 23.543 40.9814 23.2831 40.9814 23.0207C40.9815 22.7582 40.9298 22.4983 40.8295 22.2558C39.4912 18.8418 37.462 15.741 34.8691 13.148C32.2762 10.555 29.1756 8.52557 25.7617 7.18704V7.18704ZM22.9759 14.2843C22.5149 14.0369 21.9753 13.9802 21.4729 14.1263C20.9705 14.2724 20.5455 14.6097 20.2891 15.0658C20.0327 15.5218 19.9653 16.0602 20.1015 16.5654C20.2377 17.0705 20.5666 17.5021 21.0175 17.7675C24.9222 19.8879 28.1284 23.0949 30.248 27C30.3761 27.2302 30.5484 27.4327 30.7551 27.596C30.9617 27.7594 31.1986 27.8802 31.4521 27.9517C31.7056 28.0231 31.9708 28.0437 32.2323 28.0124C32.4938 27.981 32.7465 27.8982 32.9759 27.7688C33.2053 27.6394 33.4069 27.466 33.5691 27.2584C33.7312 27.0508 33.8507 26.8133 33.9207 26.5594C33.9907 26.3054 34.0098 26.0402 33.977 25.7789C33.9441 25.5175 33.8599 25.2653 33.7292 25.0366C31.2432 20.5008 27.5122 16.7704 22.9759 14.2853V14.2843ZM24.4048 23.6097C24.2211 23.4223 24.0019 23.2734 23.76 23.1718C23.5181 23.0701 23.2583 23.0177 22.9959 23.0177C22.7335 23.0177 22.4737 23.0701 22.2318 23.1718C21.9899 23.2734 21.7707 23.4223 21.587 23.6097L18.7094 26.4874L21.657 29.1752L24.4048 26.4275C24.5922 26.2438 24.7411 26.0246 24.8427 25.7827C24.9444 25.5408 24.9968 25.281 24.9968 25.0186C24.9968 24.7562 24.9444 24.4964 24.8427 24.2545C24.7411 24.0126 24.5922 23.7934 24.4048 23.6097V23.6097ZM6.79601 40.3892C6.70253 40.2699 6.58316 40.1735 6.44693 40.1072C6.31069 40.0409 6.16116 40.0064 6.00965 40.0064C5.85813 40.0064 5.7086 40.0409 5.57237 40.1072C5.43613 40.1735 5.31676 40.2699 5.22328 40.3892L0.227326 46.3883C0.112782 46.5359 0.0419312 46.7127 0.022819 46.8986C0.00370676 47.0845 0.0370995 47.272 0.119205 47.4399C0.20131 47.6077 0.328838 47.7492 0.487306 47.8482C0.645773 47.9472 0.82883 47.9998 1.01569 48H11.0056C11.1925 48 11.3757 47.9475 11.5343 47.8486C11.693 47.7496 11.8206 47.6082 11.9029 47.4403C11.9851 47.2724 12.0186 47.0848 11.9995 46.8989C11.9804 46.7129 11.9096 46.536 11.795 46.3883L6.79601 40.3892Z" fill="#011E41"/>
</svg>
