<svg width="48" height="48" viewBox="0 0 48 48" fill="none" xmlns="http://www.w3.org/2000/svg">
<path d="M42.2857 0H37.7143V11.4286C37.7143 11.7317 37.5939 12.0224 37.3796 12.2367C37.1652 12.451 36.8745 12.5714 36.5714 12.5714H6.85714C6.55404 12.5714 6.26335 12.451 6.04902 12.2367C5.83469 12.0224 5.71429 11.7317 5.71429 11.4286V0H2.28571C1.67951 0 1.09812 0.240816 0.66947 0.66947C0.240816 1.09812 0 1.67951 0 2.28571L0 45.7143C0 46.3205 0.240816 46.9019 0.66947 47.3305C1.09812 47.7592 1.67951 48 2.28571 48H45.7143C46.3205 48 46.9019 47.7592 47.3305 47.3305C47.7592 46.9019 48 46.3205 48 45.7143V5.71429L42.2857 0ZM42.2857 41.1429C42.2857 41.446 42.1653 41.7367 41.951 41.951C41.7367 42.1653 41.446 42.2857 41.1429 42.2857H6.85714C6.55404 42.2857 6.26335 42.1653 6.04902 41.951C5.83469 41.7367 5.71429 41.446 5.71429 41.1429V20.5714C5.71429 20.2683 5.83469 19.9776 6.04902 19.7633C6.26335 19.549 6.55404 19.4286 6.85714 19.4286H41.1429C41.446 19.4286 41.7367 19.549 41.951 19.7633C42.1653 19.9776 42.2857 20.2683 42.2857 20.5714V41.1429Z" fill="#011E41"/>
<path d="M8 0H35.4286V10.2857H8V0Z" fill="#011E41"/>
</svg>
