<svg width="48" height="48" viewBox="0 0 48 48" fill="none" xmlns="http://www.w3.org/2000/svg">
<path d="M44.5858 27.586L39.9998 32.172V15C39.9998 14.4696 39.7891 13.9609 39.4141 13.5858C39.039 13.2107 38.5303 13 37.9998 13C37.4694 13 36.9607 13.2107 36.5856 13.5858C36.2105 13.9609 35.9998 14.4696 35.9998 15V32.172L31.4138 27.586C31.0366 27.2217 30.5314 27.0201 30.007 27.0247C29.4826 27.0292 28.981 27.2395 28.6102 27.6104C28.2394 27.9812 28.029 28.4828 28.0245 29.0072C28.0199 29.5316 28.2215 30.0368 28.5858 30.414L36.5858 38.414C36.9609 38.7889 37.4695 38.9996 37.9998 38.9996C38.5302 38.9996 39.0388 38.7889 39.4138 38.414L47.4138 30.414C47.7782 30.0368 47.9797 29.5316 47.9752 29.0072C47.9706 28.4828 47.7603 27.9812 47.3895 27.6104C47.0187 27.2395 46.517 27.0292 45.9926 27.0247C45.4682 27.0201 44.963 27.2217 44.5858 27.586V27.586ZM9.99984 13C9.4694 13 8.9607 13.2107 8.58562 13.5858C8.21055 13.9609 7.99984 14.4696 7.99984 15V32.172L3.41384 27.586C3.03663 27.2217 2.53143 27.0201 2.00704 27.0247C1.48264 27.0292 0.981017 27.2395 0.610201 27.6104C0.239384 27.9812 0.0290465 28.4828 0.0244897 29.0072C0.0199328 29.5316 0.221522 30.0368 0.585838 30.414L8.58584 38.414C8.96089 38.7889 9.46951 38.9996 9.99984 38.9996C10.5302 38.9996 11.0388 38.7889 11.4138 38.414L19.4138 30.414C19.7782 30.0368 19.9797 29.5316 19.9752 29.0072C19.9706 28.4828 19.7603 27.9812 19.3895 27.6104C19.0187 27.2395 18.517 27.0292 17.9926 27.0247C17.4682 27.0201 16.963 27.2217 16.5858 27.586L11.9998 32.172V15C11.9998 14.4696 11.7891 13.9609 11.4141 13.5858C11.039 13.2107 10.5303 13 9.99984 13Z" fill="#011E41"/>
<path d="M47 44H1C0.447715 44 0 44.4477 0 45V47C0 47.5523 0.447715 48 1 48H47C47.5523 48 48 47.5523 48 47V45C48 44.4477 47.5523 44 47 44Z" fill="#011E41"/>
<path d="M47 0H1C0.447715 0 0 0.447715 0 1V9C0 9.55229 0.447715 10 1 10H47C47.5523 10 48 9.55229 48 9V1C48 0.447715 47.5523 0 47 0Z" fill="#011E41"/>
</svg>
