<svg width="48" height="48" viewBox="0 0 48 48" fill="none" xmlns="http://www.w3.org/2000/svg">
<path d="M9.99984 38.9996C10.5303 38.9996 11.039 38.7889 11.4141 38.4138C11.7891 38.0387 11.9998 37.53 11.9998 36.9996V19.8276L16.5858 24.4136C16.963 24.7779 17.4682 24.9795 17.9926 24.9749C18.517 24.9704 19.0187 24.76 19.3895 24.3892C19.7603 24.0184 19.9706 23.5168 19.9752 22.9924C19.9797 22.468 19.7782 21.9628 19.4138 21.5856L11.4138 13.5856C11.0388 13.2106 10.5302 13 9.99984 13C9.46951 13 8.96089 13.2106 8.58584 13.5856L0.585838 21.5856C0.221522 21.9628 0.0199328 22.468 0.0244897 22.9924C0.0290465 23.5168 0.239384 24.0184 0.610201 24.3892C0.981017 24.76 1.48264 24.9704 2.00704 24.9749C2.53143 24.9795 3.03663 24.7779 3.41384 24.4136L7.99984 19.8276V36.9996C7.99984 37.53 8.21055 38.0387 8.58562 38.4138C8.9607 38.7889 9.4694 38.9996 9.99984 38.9996ZM39.4138 13.5856C39.0388 13.2106 38.5302 13 37.9998 13C37.4695 13 36.9609 13.2106 36.5858 13.5856L28.5858 21.5856C28.2215 21.9628 28.0199 22.468 28.0245 22.9924C28.029 23.5168 28.2394 24.0184 28.6102 24.3892C28.981 24.76 29.4826 24.9704 30.007 24.9749C30.5314 24.9795 31.0366 24.7779 31.4138 24.4136L35.9998 19.8276V36.9996C35.9998 37.53 36.2105 38.0387 36.5856 38.4138C36.9607 38.7889 37.4694 38.9996 37.9998 38.9996C38.5303 38.9996 39.039 38.7889 39.4141 38.4138C39.7891 38.0387 39.9998 37.53 39.9998 36.9996V19.8276L44.5858 24.4136C44.963 24.7779 45.4682 24.9795 45.9926 24.9749C46.517 24.9704 47.0187 24.76 47.3895 24.3892C47.7603 24.0184 47.9706 23.5168 47.9752 22.9924C47.9797 22.468 47.7782 21.9628 47.4138 21.5856L39.4138 13.5856Z" fill="#011E41"/>
<path d="M47 44H1C0.447715 44 0 44.4477 0 45V47C0 47.5523 0.447715 48 1 48H47C47.5523 48 48 47.5523 48 47V45C48 44.4477 47.5523 44 47 44Z" fill="#011E41"/>
<path d="M47 0H1C0.447715 0 0 0.447715 0 1V9C0 9.55229 0.447715 10 1 10H47C47.5523 10 48 9.55229 48 9V1C48 0.447715 47.5523 0 47 0Z" fill="#011E41"/>
</svg>
