<svg width="48" height="48" viewBox="0 0 48 48" fill="none" xmlns="http://www.w3.org/2000/svg">
<g clip-path="url(#clip0_74_954)">
<path d="M46.5 45H1.5C1.10218 45 0.720644 45.158 0.43934 45.4393C0.158035 45.7206 0 46.1022 0 46.5C0 46.8978 0.158035 47.2794 0.43934 47.5607C0.720644 47.842 1.10218 48 1.5 48H46.5C46.8978 48 47.2794 47.842 47.5607 47.5607C47.842 47.2794 48 46.8978 48 46.5C48 46.1022 47.842 45.7206 47.5607 45.4393C47.2794 45.158 46.8978 45 46.5 45ZM10 20C11.9778 20 13.9112 19.4135 15.5557 18.3147C17.2002 17.2159 18.4819 15.6541 19.2388 13.8268C19.9957 11.9996 20.1937 9.98891 19.8079 8.0491C19.422 6.10929 18.4696 4.32746 17.0711 2.92894C15.6725 1.53041 13.8907 0.578004 11.9509 0.192152C10.0111 -0.193701 8.00043 0.00433284 6.17317 0.761209C4.3459 1.51809 2.78412 2.79981 1.6853 4.4443C0.58649 6.08879 0 8.02219 0 10C0.0010601 12.6518 1.05497 15.1948 2.9301 17.0699C4.80524 18.945 7.34816 19.9989 10 20V20ZM5 8C5 6.67392 5.52678 5.40215 6.46447 4.46447C7.40215 3.52679 8.67392 3 10 3C11.3261 3 12.5979 3.52679 13.5355 4.46447C14.4732 5.40215 15 6.67392 15 8V14C15 14.5304 14.7893 15.0391 14.4142 15.4142C14.0391 15.7893 13.5304 16 13 16H7C6.46957 16 5.96086 15.7893 5.58579 15.4142C5.21071 15.0391 5 14.5304 5 14V8Z" fill="#011E41"/>
<path d="M13 22.65V27C12.9992 27.265 12.8936 27.5189 12.7062 27.7062C12.5189 27.8936 12.265 27.9992 12 28H10C9.73503 27.9992 9.48113 27.8936 9.29377 27.7062C9.1064 27.5189 9.00079 27.265 9 27V22.96C7.25388 22.8258 5.55303 22.3393 4 21.53V43H20V33C20.0016 32.4701 20.2128 31.9623 20.5875 31.5875C20.9623 31.2128 21.4701 31.0016 22 31H26C26.5299 31.0016 27.0377 31.2128 27.4125 31.5875C27.7872 31.9623 27.9984 32.4701 28 33V43H44V18C43.9992 17.735 43.8936 17.4811 43.7062 17.2938C43.5189 17.1064 43.265 17.0008 43 17H33L26 11.75V8H35V2H26C26 1.46957 25.7893 0.960859 25.4142 0.585786C25.0391 0.210714 24.5304 0 24 0C23.4696 0 22.9609 0.210714 22.5858 0.585786C22.2107 0.960859 22 1.46957 22 2V4.99C22.7249 6.73025 23.063 8.60727 22.9908 10.4911C22.9186 12.3749 22.4379 14.2206 21.5819 15.9002C20.7259 17.5799 19.5151 19.0535 18.0333 20.2189C16.5515 21.3844 14.8341 22.2139 13 22.65ZM13 38C12.9992 38.265 12.8936 38.5189 12.7062 38.7062C12.5189 38.8936 12.265 38.9992 12 39H10C9.73503 38.9992 9.48113 38.8936 9.29377 38.7062C9.1064 38.5189 9.00079 38.265 9 38V33C9.00079 32.735 9.1064 32.4811 9.29377 32.2938C9.48113 32.1064 9.73503 32.0008 10 32H12C12.265 32.0008 12.5189 32.1064 12.7062 32.2938C12.8936 32.4811 12.9992 32.735 13 33V38ZM35 22C35.0008 21.735 35.1064 21.4811 35.2938 21.2938C35.4811 21.1064 35.735 21.0008 36 21H38C38.265 21.0008 38.5189 21.1064 38.7062 21.2938C38.8936 21.4811 38.9992 21.735 39 22V27C38.9992 27.265 38.8936 27.5189 38.7062 27.7062C38.5189 27.8936 38.265 27.9992 38 28H36C35.735 27.9992 35.4811 27.8936 35.2938 27.7062C35.1064 27.5189 35.0008 27.265 35 27V22ZM35 33C35.0008 32.735 35.1064 32.4811 35.2938 32.2938C35.4811 32.1064 35.735 32.0008 36 32H38C38.265 32.0008 38.5189 32.1064 38.7062 32.2938C38.8936 32.4811 38.9992 32.735 39 33V38C38.9992 38.265 38.8936 38.5189 38.7062 38.7062C38.5189 38.8936 38.265 38.9992 38 39H36C35.735 38.9992 35.4811 38.8936 35.2938 38.7062C35.1064 38.5189 35.0008 38.265 35 38V33ZM28 21C28 21.7911 27.7654 22.5645 27.3259 23.2223C26.8864 23.8801 26.2616 24.3928 25.5307 24.6955C24.7998 24.9983 23.9956 25.0775 23.2196 24.9231C22.4437 24.7688 21.731 24.3878 21.1716 23.8284C20.6122 23.269 20.2312 22.5563 20.0769 21.7804C19.9225 21.0044 20.0017 20.2002 20.3045 19.4693C20.6072 18.7384 21.1199 18.1136 21.7777 17.6741C22.4355 17.2346 23.2089 17 24 17C24.5253 16.9999 25.0455 17.1032 25.5309 17.3042C26.0163 17.5052 26.4573 17.7998 26.8287 18.1713C27.2002 18.5427 27.4948 18.9837 27.6958 19.4691C27.8968 19.9545 28.0001 20.4747 28 21V21ZM10 5C9.20459 5.00079 8.44199 5.31712 7.87956 5.87956C7.31712 6.44199 7.00079 7.20459 7 8H13C12.9992 7.20459 12.6829 6.44199 12.1204 5.87956C11.558 5.31712 10.7954 5.00079 10 5V5Z" fill="#011E41"/>
<path d="M11 10H9C8.44772 10 8 10.4477 8 11V13C8 13.5523 8.44772 14 9 14H11C11.5523 14 12 13.5523 12 13V11C12 10.4477 11.5523 10 11 10Z" fill="#011E41"/>
</g>
<defs>
<clipPath id="clip0_74_954">
<rect width="48" height="48" fill="white"/>
</clipPath>
</defs>
</svg>
