<svg xmlns="http://www.w3.org/2000/svg" viewBox="0 0 512 512"><g fill="#011E41"><path d="M143.2 241.4c-5.4.2-11.1-.3-14.1-2.3s-6.6-7.8-10.2-12.5a64.3 64.3 0 1 0 7.6 65.5c1.1-2.5 1.8-4 3.7-5.8 1.9-1.9 5.7-3 8.9-3.7 18.2-3.8 33.5-3.9 46.4-2l2.2-6 11.7-32.8c-15.1.1-37-1-56.2-.4m-62.7 56.7a34.7 34.7 0 1 1-25.2-64.7A34.7 34.7 0 0 1 80.5 298m427-128.8c-3.8-9.7-15.4-10.8-44.2-3.3-15.6 4-87.6 25.7-150.4 44.7l-15 78c63.8-30.7 161.8-77.9 179.3-87.1 26.2-14 34-22.6 30.3-32.3"/><path d="M303.6 393c-5-3.2-11.2-6.1-13.5-8.9s-3.3-8.4-3.7-13.8c-2-26.3-7.6-57-6.9-69.4 0 0 44.2-227.4 48.6-256.8 4.5-29.4 2.2-40.9-7.8-43.6s-17.9 6-29 33.5-88.8 245.8-88.8 245.8 51.1 20.3 43.3 99c-.3 3-1 7-2.7 9.1s-3 2.9-5.4 4.3a64.3 64.3 0 1 0 66 .8m-59.9-112.7a12.1 12.1 0 1 1 6.4-23.5 12.1 12.1 0 0 1-6.4 23.5m59.8 176.6a34.7 34.7 0 1 1-67-18.4 34.7 34.7 0 0 1 67 18.4"/></g></svg>
