<svg width="48" height="48" viewBox="0 0 48 48" fill="none" xmlns="http://www.w3.org/2000/svg">
<path d="M41.3676 3.3986L24.2176 0.025773C24.0748 -0.00859098 23.9259 -0.00859098 23.7831 0.025773L6.63313 3.3986C6.37248 3.44838 6.13736 3.58752 5.9683 3.79206C5.79925 3.9966 5.70685 4.25371 5.70703 4.51907V27.5915C5.70703 38.8648 14.0534 48 24.0004 48C33.9473 48 42.2937 38.8648 42.2937 27.5915V4.52021C42.2939 4.25485 42.2015 3.99774 42.0324 3.7932C41.8633 3.58867 41.6282 3.44952 41.3676 3.39975V3.3986ZM16.7882 14.5895C16.8946 14.2969 17.0784 14.0387 17.32 13.8424C17.5616 13.646 17.852 13.519 18.1602 13.4748L23.8792 12.6573L21.214 20.6492L16.8054 16.2417C16.6611 16.1044 16.4826 16.0084 16.2886 15.9638L16.7882 14.5895ZM35.4337 24.708C35.434 25.1211 35.2852 25.5204 35.0146 25.8325C34.7441 26.1446 34.37 26.3486 33.9611 26.407L27.4303 27.34L26.287 34.2L17.1404 35.3433L12.567 26.1967L15.4894 18.159L20.9054 23.575C21.1198 23.7893 21.4105 23.9098 21.7137 23.91C21.8022 23.9101 21.8904 23.9001 21.9767 23.8803C22.1662 23.8354 22.3411 23.7429 22.4848 23.6114C22.6284 23.4799 22.7361 23.3139 22.7976 23.1291L26.0469 13.3799L29.717 17.05L34.056 17.9189C34.4442 17.9968 34.7935 18.2066 35.0446 18.5128C35.2958 18.8189 35.4332 19.2025 35.4337 19.5985V24.708Z" fill="#011E41"/>
</svg>
