<svg width="48" height="48" viewBox="0 0 48 48" fill="none" xmlns="http://www.w3.org/2000/svg">
<path d="M46.8308 41.177L38.4081 32.7553C41.3307 28.4271 42.5358 23.1652 41.7883 17.9964C41.0409 12.8276 38.3945 8.12273 34.3654 4.79976C30.3364 1.4768 25.2138 -0.225838 19.9973 0.0240788C14.7807 0.273995 9.84435 2.45853 6.15144 6.15144C2.45853 9.84435 0.273995 14.7807 0.0240788 19.9973C-0.225838 25.2138 1.4768 30.3364 4.79976 34.3654C8.12273 38.3945 12.8276 41.0409 17.9964 41.7883C23.1652 42.5358 28.4271 41.3307 32.7553 38.4081L41.176 46.8288C41.9255 47.5785 42.9421 47.9998 44.0022 48C45.0623 48.0002 46.079 47.5792 46.8288 46.8298C47.5785 46.0803 47.9998 45.0637 48 44.0036C48.0002 42.9435 47.5792 41.9267 46.8298 41.177H46.8308ZM8.03083 21.0201C8.0289 18.8913 8.55015 16.7947 9.54874 14.9147C10.5473 13.0346 11.9927 11.4288 13.7575 10.2385C15.5224 9.0482 17.5528 8.30987 19.67 8.08846C21.7873 7.86706 23.9265 8.16938 25.8994 8.96881C27.8724 9.76825 29.6187 11.0403 30.9846 12.6731C32.3505 14.3058 33.2943 16.2493 33.7328 18.3324C34.1713 20.4155 34.0911 22.5745 33.4994 24.6194C32.9076 26.6642 31.8224 28.5323 30.3391 30.0593C30.2892 30.1043 30.2332 30.1373 30.1852 30.1852C30.1373 30.2332 30.1053 30.2892 30.0603 30.3391C28.2297 32.1179 25.9154 33.3177 23.4066 33.7883C20.8979 34.2589 18.306 33.9795 15.9552 32.985C13.6044 31.9906 11.5989 30.3252 10.1895 28.1971C8.78001 26.069 8.02918 23.5726 8.03083 21.0201V21.0201Z" fill="#011E41"/>
</svg>
