<svg width="48" height="48" viewBox="0 0 48 48" fill="none" xmlns="http://www.w3.org/2000/svg">
<g clip-path="url(#clip0_74_1647)">
<path d="M46 9.97001V30.15C46 40.01 38.7 48 30 48C21.3 48 14 40.01 14 30.15V22.83C15.7686 22.5625 17.4626 21.931 18.9747 20.9754C20.4869 20.0199 21.7844 18.7611 22.7853 17.2786C23.7861 15.7961 24.4686 14.122 24.7896 12.3623C25.1106 10.6026 25.063 8.79542 24.65 7.055L29.81 6.04C29.9349 6.00995 30.0651 6.00995 30.19 6.04L45.19 8.99C45.418 9.03354 45.6236 9.15524 45.7715 9.33414C45.9193 9.51303 46.0002 9.73791 46 9.97001ZM2 10C2 8.02219 2.58649 6.08879 3.6853 4.4443C4.78412 2.79981 6.3459 1.51809 8.17317 0.761209C10.0004 0.00433284 12.0111 -0.193701 13.9509 0.192152C15.8907 0.578004 17.6725 1.53041 19.0711 2.92894C20.4696 4.32746 21.422 6.10929 21.8079 8.0491C22.1937 9.98891 21.9957 11.9996 21.2388 13.8268C20.4819 15.6541 19.2002 17.2159 17.5557 18.3147C15.9112 19.4135 13.9778 20 12 20C9.34816 19.9989 6.80524 18.945 4.9301 17.0699C3.05497 15.1948 2.00106 12.6518 2 10V10ZM6.29 10.71L9.29 13.71C9.48016 13.895 9.7347 13.999 10 14C10.2382 13.9994 10.4685 13.9144 10.65 13.76L17.65 7.76C17.7498 7.67465 17.8318 7.57046 17.8914 7.45341C17.9509 7.33635 17.9868 7.20872 17.997 7.07779C18.0072 6.94686 17.9916 6.81519 17.9509 6.69032C17.9102 6.56545 17.8454 6.44981 17.76 6.35C17.6746 6.2502 17.5705 6.16818 17.4534 6.10864C17.3363 6.0491 17.2087 6.0132 17.0778 6.00298C16.8134 5.98235 16.5516 6.06761 16.35 6.24L10.05 11.64L7.71 9.29C7.5217 9.1017 7.2663 8.99591 7 8.99591C6.7337 8.99591 6.4783 9.1017 6.29 9.29C6.1017 9.47831 5.99591 9.7337 5.99591 10C5.99591 10.2663 6.1017 10.5217 6.29 10.71V10.71Z" fill="#011E41"/>
</g>
<defs>
<clipPath id="clip0_74_1647">
<rect width="48" height="48" fill="white"/>
</clipPath>
</defs>
</svg>
