<svg width="48" height="48" viewBox="0 0 48 48" fill="none" xmlns="http://www.w3.org/2000/svg">
<path d="M47.3838 21.804C41.9168 12.775 33.8308 9 23.9998 9C14.1688 9 6.08284 12.775 0.616844 21.803C0.213746 22.4647 0.000353174 23.2244 4.38009e-07 23.9992C-0.000352298 24.774 0.212349 25.534 0.614844 26.196C6.08284 35.225 14.1678 39 23.9998 39C33.8318 39 41.9168 35.225 47.3838 26.196C47.7864 25.5343 47.9994 24.7746 47.9994 24C47.9994 23.2254 47.7864 22.4657 47.3838 21.804V21.804ZM23.9998 32C22.4176 32 20.8709 31.5308 19.5553 30.6518C18.2397 29.7727 17.2143 28.5233 16.6088 27.0615C16.0033 25.5997 15.8449 23.9911 16.1536 22.4393C16.4622 20.8874 17.2242 19.462 18.343 18.3431C19.4618 17.2243 20.8873 16.4624 22.4391 16.1537C23.991 15.845 25.5995 16.0035 27.0613 16.609C28.5231 17.2145 29.7725 18.2398 30.6516 19.5554C31.5307 20.871 31.9998 22.4177 31.9998 24C31.9998 26.1217 31.157 28.1566 29.6567 29.6569C28.1564 31.1571 26.1216 32 23.9998 32Z" fill="#011E41"/>
</svg>
