<svg width="48" height="48" viewBox="0 0 48 48" fill="none" xmlns="http://www.w3.org/2000/svg">
<g clip-path="url(#clip0_74_1653)">
<path d="M19.0005 42.4996C18.433 42.4997 17.872 42.379 17.3547 42.1456C16.8375 41.9121 16.3759 41.5712 16.0005 41.1456L1.0005 24.1456C0.298607 23.35 -0.0584704 22.3081 0.00782368 21.2492C0.0741178 20.1902 0.558353 19.201 1.354 18.4991C2.14965 17.7972 3.19154 17.4401 4.25046 17.5064C5.30939 17.5727 6.29861 18.057 7.0005 18.8526L18.9655 32.4126L40.9705 6.88861C41.6631 6.08501 42.6466 5.58945 43.7046 5.51097C44.7626 5.43249 45.8084 5.7775 46.612 6.47011C47.4156 7.16273 47.9112 8.1462 47.9896 9.20419C48.0681 10.2622 47.7231 11.308 47.0305 12.1116L22.0305 41.1116C21.6575 41.5443 21.1961 41.892 20.6774 42.1314C20.1587 42.3709 19.5948 42.4964 19.0235 42.4996H19.0005Z" fill="#011E41"/>
</g>
<defs>
<clipPath id="clip0_74_1653">
<rect width="48" height="48" fill="white"/>
</clipPath>
</defs>
</svg>
