<svg width="48" height="48" viewBox="0 0 48 48" fill="none" xmlns="http://www.w3.org/2000/svg">
<g clip-path="url(#clip0_1456_5598)">
<path d="M15.8708 25.393C15.5889 25.113 15.2076 24.9559 14.8103 24.9559C14.413 24.9559 14.0317 25.113 13.7498 25.393L1.7498 37.393C0.629059 38.5205 0 40.0457 0 41.6355C0 43.2253 0.629059 44.7504 1.7498 45.878L2.1218 46.25C3.24937 47.371 4.77478 48.0003 6.3648 48.0003C7.95482 48.0003 9.48023 47.371 10.6078 46.25L22.6078 34.25C22.888 33.9682 23.0453 33.5869 23.0453 33.1895C23.0453 32.7921 22.888 32.4108 22.6078 32.129L15.8708 25.393ZM30.4658 21.068L38.4048 13.13L43.8548 12.375C44.1428 12.3349 44.4168 12.2259 44.6536 12.0572C44.8904 11.8885 45.0829 11.6651 45.2148 11.406L47.7758 6.37998C47.949 6.04017 48.0101 5.65425 47.9505 5.27754C47.8908 4.90084 47.7135 4.55268 47.4438 4.28298L43.7168 0.555982C43.4472 0.286171 43.099 0.108709 42.7223 0.0490626C42.3455 -0.0105838 41.9596 0.0506518 41.6198 0.223982L36.5938 2.78398C36.3345 2.91613 36.111 3.10898 35.9422 3.34613C35.7735 3.58327 35.6646 3.85768 35.6248 4.14598L34.8698 9.59398L26.9308 17.534L30.4658 21.068Z" fill="#011E41"/>
<path d="M35.904 30.5411L17.444 12.0831C17.977 10.6224 18.1225 9.04861 17.8663 7.51501C17.6101 5.98141 16.961 4.54033 15.9822 3.33222C15.0034 2.12411 13.7284 1.19019 12.2813 0.621468C10.8342 0.052746 9.26439 -0.131372 7.72496 0.087057C7.54085 0.11473 7.36803 0.192953 7.22573 0.31302C7.08344 0.433086 6.97725 0.590286 6.919 0.76712C6.86074 0.943954 6.85271 1.13349 6.89578 1.31462C6.93885 1.49575 7.03135 1.66137 7.16296 1.79306L11.025 5.65506C11.708 6.33937 12.0916 7.26671 12.0916 8.23356C12.0916 9.2004 11.708 10.1277 11.025 10.8121L10.805 11.0321C10.4664 11.3708 10.0644 11.6396 9.62188 11.823C9.17941 12.0064 8.70514 12.1008 8.22617 12.1009C7.7472 12.101 7.27289 12.0068 6.83035 11.8235C6.38781 11.6403 5.98569 11.3717 5.64696 11.0331L1.79296 7.18006C1.66138 7.04876 1.49599 6.95649 1.31515 6.91348C1.1343 6.87047 0.94508 6.87841 0.768476 6.93642C0.591872 6.99442 0.434792 7.10023 0.314668 7.24208C0.194544 7.38394 0.116073 7.55631 0.0879631 7.74006C-0.128555 9.27648 0.0562655 10.8428 0.624446 12.2866C1.19263 13.7304 2.12482 15.0026 3.33036 15.9794C4.53589 16.9563 5.97372 17.6044 7.50398 17.8609C9.03423 18.1174 10.6048 17.9734 12.063 17.4431L30.543 35.9231C30.012 37.3841 29.8684 38.9577 30.1262 40.4907C30.384 42.0237 31.0344 43.4638 32.014 44.6708C32.9936 45.8778 34.2691 46.8105 35.7163 47.3782C37.1635 47.9459 38.733 48.1291 40.272 47.9101C40.4556 47.8818 40.6279 47.8032 40.7696 47.683C40.9113 47.5628 41.017 47.4058 41.0749 47.2292C41.1328 47.0526 41.1406 46.8634 41.0976 46.6827C41.0545 46.5019 40.9622 46.3366 40.831 46.2051L37.415 42.7891C37.0875 42.4616 36.8277 42.0729 36.6504 41.6451C36.4732 41.2172 36.382 40.7587 36.382 40.2956C36.382 39.8325 36.4732 39.3739 36.6504 38.9461C36.8277 38.5182 37.0875 38.1295 37.415 37.8021L37.795 37.4221C38.1225 37.0945 38.5113 36.8347 38.9392 36.6575C39.3671 36.4802 39.8258 36.389 40.289 36.389C40.7521 36.389 41.2108 36.4802 41.6387 36.6575C42.0666 36.8347 42.4554 37.0945 42.783 37.4221L46.203 40.8401C46.3343 40.9713 46.4995 41.0636 46.6801 41.1068C46.8608 41.1499 47.0498 41.1423 47.2263 41.0846C47.4029 41.0269 47.56 40.9215 47.6803 40.78C47.8006 40.6386 47.8794 40.4666 47.908 40.2831C48.1307 38.7411 47.9495 37.1678 47.3821 35.7169C46.8146 34.2659 45.8804 32.9871 44.6707 32.0053C43.461 31.0236 42.0173 30.3726 40.4806 30.1159C38.944 29.8593 37.367 30.0057 35.904 30.5411V30.5411Z" fill="#011E41"/>
</g>
<defs>
<clipPath id="clip0_1456_5598">
<rect width="48" height="48" fill="white"/>
</clipPath>
</defs>
</svg>
