<svg width="48" height="48" viewBox="0 0 48 48" fill="none" xmlns="http://www.w3.org/2000/svg">
<path d="M45 21H43.75C43.266 17.7985 42.0068 14.7637 40.082 12.16L40.971 11.272C41.2533 10.9943 41.4779 10.6634 41.6317 10.2985C41.7855 9.93358 41.8656 9.54181 41.8672 9.1458C41.8689 8.74978 41.7921 8.35735 41.6414 7.99115C41.4906 7.62495 41.2688 7.29222 40.9888 7.01216C40.7088 6.7321 40.3762 6.51024 40.01 6.35939C39.6438 6.20854 39.2514 6.13169 38.8554 6.13325C38.4594 6.13482 38.0676 6.21478 37.7026 6.36852C37.3377 6.52225 37.0068 6.74673 36.729 7.029L35.839 7.918C33.2355 5.99341 30.2012 4.73422 27 4.25V3C27 2.20435 26.6839 1.44129 26.1213 0.87868C25.5587 0.31607 24.7956 0 24 0C23.2044 0 22.4413 0.31607 21.8787 0.87868C21.3161 1.44129 21 2.20435 21 3V4.25C17.7985 4.73407 14.7638 5.99327 12.16 7.918L11.272 7.029C10.9934 6.7504 10.6627 6.5294 10.2986 6.37863C9.93464 6.22785 9.5445 6.15025 9.1505 6.15025C8.7565 6.15025 8.36636 6.22785 8.00235 6.37863C7.63835 6.5294 7.3076 6.7504 7.029 7.029C6.7504 7.3076 6.5294 7.63835 6.37863 8.00235C6.22785 8.36636 6.15025 8.7565 6.15025 9.1505C6.15025 9.5445 6.22785 9.93464 6.37863 10.2986C6.5294 10.6627 6.7504 10.9934 7.029 11.272L7.918 12.161C5.99338 14.7644 4.73418 17.7988 4.25 21H3C2.20435 21 1.44129 21.3161 0.87868 21.8787C0.31607 22.4413 0 23.2044 0 24C0 24.7956 0.31607 25.5587 0.87868 26.1213C1.44129 26.6839 2.20435 27 3 27H4.25C4.73403 30.2015 5.99323 33.2363 7.918 35.84L7.029 36.728C6.47389 37.2921 6.16417 38.0527 6.1673 38.8441C6.17043 39.6355 6.48615 40.3936 7.04571 40.9533C7.60526 41.513 8.3633 41.8289 9.15471 41.8322C9.94612 41.8355 10.7068 41.526 11.271 40.971L12.161 40.082C14.7645 42.0066 17.7988 43.2658 21 43.75V45C21 45.7956 21.3161 46.5587 21.8787 47.1213C22.4413 47.6839 23.2044 48 24 48C24.7956 48 25.5587 47.6839 26.1213 47.1213C26.6839 46.5587 27 45.7956 27 45V43.75C30.2015 43.2659 33.2362 42.0067 35.84 40.082L36.728 40.971C37.2907 41.5337 38.0538 41.8498 38.8495 41.8498C39.6452 41.8498 40.4083 41.5337 40.971 40.971C41.5337 40.4083 41.8498 39.6452 41.8498 38.8495C41.8498 38.0538 41.5337 37.2907 40.971 36.728L40.082 35.839C42.0066 33.2356 43.2658 30.2012 43.75 27H45C45.7956 27 46.5587 26.6839 47.1213 26.1213C47.6839 25.5587 48 24.7956 48 24C48 23.2044 47.6839 22.4413 47.1213 21.8787C46.5587 21.3161 45.7956 21 45 21ZM24 38C21.2311 38 18.5243 37.1789 16.222 35.6406C13.9197 34.1022 12.1253 31.9157 11.0657 29.3576C10.0061 26.7994 9.72881 23.9845 10.269 21.2687C10.8092 18.553 12.1426 16.0584 14.1005 14.1005C16.0584 12.1426 18.553 10.8092 21.2687 10.269C23.9845 9.72881 26.7994 10.0061 29.3576 11.0657C31.9157 12.1253 34.1022 13.9197 35.6406 16.222C37.1789 18.5243 38 21.2311 38 24C37.9958 27.7117 36.5194 31.2702 33.8948 33.8948C31.2702 36.5194 27.7117 37.9958 24 38V38Z" fill="#011E41"/>
</svg>
