<svg width="48" height="48" viewBox="0 0 48 48" fill="none" xmlns="http://www.w3.org/2000/svg">
<path d="M35 10C27.589 10 22 15.16 22 22C22 22.5304 22.2107 23.0391 22.5858 23.4142C22.9609 23.7893 23.4696 24 24 24C24.5304 24 25.0391 23.7893 25.4142 23.4142C25.7893 23.0391 26 22.5304 26 22C26.0045 20.5626 26.4112 19.1552 27.1742 17.937C27.9371 16.7188 29.0258 15.7385 30.317 15.107L27.014 33.836C26.9902 33.9792 26.9978 34.1259 27.0364 34.2658C27.075 34.4057 27.1436 34.5356 27.2374 34.6464C27.3312 34.7571 27.4481 34.8461 27.5797 34.9072C27.7114 34.9683 27.8548 34.9999 28 35H30V46C30 46.5304 30.2107 47.0391 30.5858 47.4142C30.9609 47.7893 31.4696 48 32 48C32.5304 48 33.0391 47.7893 33.4142 47.4142C33.7893 47.0391 34 46.5304 34 46V35H36V46C36 46.5304 36.2107 47.0391 36.5858 47.4142C36.9609 47.7893 37.4696 48 38 48C38.5304 48 39.0391 47.7893 39.4142 47.4142C39.7893 47.0391 40 46.5304 40 46V35H42C42.1452 34.9999 42.2886 34.9683 42.4203 34.9072C42.5519 34.8461 42.6688 34.7571 42.7626 34.6464C42.8564 34.5356 42.925 34.4057 42.9636 34.2658C43.0022 34.1259 43.0098 33.9792 42.986 33.836L39.776 15.156C41.0432 15.7958 42.1085 16.7738 42.854 17.9818C43.5996 19.1898 43.9962 20.5805 44 22C44 22.5304 44.2107 23.0391 44.5858 23.4142C44.9609 23.7893 45.4696 24 46 24C46.5304 24 47.0391 23.7893 47.4142 23.4142C47.7893 23.0391 48 22.5304 48 22C48 15.16 42.411 10 35 10Z" fill="#011E41"/>
<path d="M35 8C37.2091 8 39 6.20914 39 4C39 1.79086 37.2091 0 35 0C32.7909 0 31 1.79086 31 4C31 6.20914 32.7909 8 35 8Z" fill="#011E41"/>
<path d="M12.496 40.999C12.0982 40.999 11.7166 41.157 11.4353 41.4383C11.154 41.7196 10.996 42.1012 10.996 42.499V46.498C10.996 46.8958 11.154 47.2774 11.4353 47.5587C11.7166 47.84 12.0982 47.998 12.496 47.998C12.8938 47.998 13.2754 47.84 13.5567 47.5587C13.838 47.2774 13.996 46.8958 13.996 46.498V42.498C13.996 42.1002 13.838 41.7186 13.5567 41.4373C13.2754 41.156 12.8938 40.998 12.496 40.998V40.999ZM23.498 34.002H19.498C19.1002 34.002 18.7186 34.16 18.4373 34.4413C18.156 34.7226 17.998 35.1042 17.998 35.502C17.998 35.8998 18.156 36.2814 18.4373 36.5627C18.7186 36.844 19.1002 37.002 19.498 37.002H23.498C23.8958 37.002 24.2774 36.844 24.5587 36.5627C24.84 36.2814 24.998 35.8998 24.998 35.502C24.998 35.1042 24.84 34.7226 24.5587 34.4413C24.2774 34.16 23.8958 34.002 23.498 34.002V34.002ZM12.502 23C12.1042 23 11.7226 23.158 11.4413 23.4393C11.16 23.7206 11.002 24.1022 11.002 24.5V28.499C11.002 28.8968 11.16 29.2784 11.4413 29.5597C11.7226 29.841 12.1042 29.999 12.502 29.999C12.8998 29.999 13.2814 29.841 13.5627 29.5597C13.844 29.2784 14.002 28.8968 14.002 28.499V24.5C14.002 24.1022 13.844 23.7206 13.5627 23.4393C13.2814 23.158 12.8998 23 12.502 23ZM6.999 35.496C6.999 35.0982 6.84096 34.7166 6.55966 34.4353C6.27836 34.154 5.89682 33.996 5.499 33.996H1.5C1.10218 33.996 0.720644 34.154 0.43934 34.4353C0.158035 34.7166 0 35.0982 0 35.496C0 35.8938 0.158035 36.2754 0.43934 36.5567C0.720644 36.838 1.10218 36.996 1.5 36.996H5.499C5.89682 36.996 6.27836 36.838 6.55966 36.5567C6.84096 36.2754 6.999 35.8938 6.999 35.496V35.496ZM18.56 39.435C18.4207 39.2957 18.2554 39.1851 18.0734 39.1097C17.8914 39.0343 17.6964 38.9954 17.4994 38.9954C17.3024 38.9953 17.1073 39.0341 16.9253 39.1094C16.7432 39.1848 16.5778 39.2952 16.4385 39.4345C16.2992 39.5738 16.1886 39.7391 16.1132 39.9211C16.0378 40.1031 15.9989 40.2981 15.9989 40.4951C15.9988 40.6921 16.0376 40.8872 16.1129 41.0692C16.1883 41.2513 16.2987 41.4167 16.438 41.556L19.441 44.56C19.7224 44.8414 20.104 44.9995 20.502 44.9995C20.9 44.9995 21.2816 44.8414 21.563 44.56C21.8444 44.2786 22.0025 43.897 22.0025 43.499C22.0025 43.101 21.8444 42.7194 21.563 42.438L18.56 39.435ZM18.556 31.563L21.56 28.56C21.8414 28.2786 21.9995 27.897 21.9995 27.499C21.9995 27.101 21.8414 26.7194 21.56 26.438C21.2786 26.1566 20.897 25.9985 20.499 25.9985C20.101 25.9985 19.7194 26.1566 19.438 26.438L16.435 29.441C16.1536 29.7223 15.9955 30.1038 15.9954 30.5016C15.9953 30.8995 16.1532 31.2811 16.4345 31.5625C16.7158 31.8439 17.0973 32.002 17.4951 32.0021C17.893 32.0022 18.2746 31.8443 18.556 31.563V31.563ZM6.441 31.563C6.72239 31.8444 7.10405 32.0025 7.502 32.0025C7.89995 32.0025 8.28161 31.8444 8.563 31.563C8.84439 31.2816 9.00248 30.9 9.00248 30.502C9.00248 30.104 8.84439 29.7224 8.563 29.441L5.56 26.438C5.42067 26.2987 5.25526 26.1881 5.07321 26.1127C4.89116 26.0373 4.69605 25.9985 4.499 25.9985C4.30195 25.9985 4.10684 26.0373 3.92479 26.1127C3.74274 26.1881 3.57733 26.2987 3.438 26.438C3.29867 26.5773 3.18814 26.7427 3.11274 26.9248C3.03733 27.1068 2.99852 27.302 2.99852 27.499C2.99852 27.696 3.03733 27.8912 3.11274 28.0732C3.18814 28.2553 3.29867 28.4207 3.438 28.56L6.441 31.563ZM6.441 39.435L3.438 42.438C3.15661 42.7194 2.99852 43.101 2.99852 43.499C2.99852 43.897 3.15661 44.2786 3.438 44.56C3.71939 44.8414 4.10105 44.9995 4.499 44.9995C4.89695 44.9995 5.27861 44.8414 5.56 44.56L8.563 41.556C8.7062 41.4176 8.82039 41.252 8.89892 41.0689C8.97744 40.8859 9.01873 40.6891 9.02037 40.4899C9.022 40.2907 8.98396 40.0932 8.90845 39.9089C8.83294 39.7246 8.72148 39.5572 8.58058 39.4164C8.43967 39.2756 8.27214 39.1643 8.08776 39.089C7.90338 39.0137 7.70585 38.9758 7.50668 38.9776C7.30751 38.9795 7.1107 39.0209 6.92773 39.0996C6.74477 39.1783 6.5793 39.2927 6.441 39.436V39.435Z" fill="#011E41"/>
</svg>
