<svg width="48" height="48" viewBox="0 0 48 48" fill="none" xmlns="http://www.w3.org/2000/svg">
<path d="M18 36H6V12H18C18.7956 12 19.5587 11.6839 20.1213 11.1213C20.6839 10.5587 21 9.79565 21 9C21 8.20435 20.6839 7.44129 20.1213 6.87868C19.5587 6.31607 18.7956 6 18 6H5C3.6744 6.00159 2.40356 6.52888 1.46622 7.46622C0.528882 8.40356 0.00158786 9.6744 0 11L0 37C0.00158786 38.3256 0.528882 39.5964 1.46622 40.5338C2.40356 41.4711 3.6744 41.9984 5 42H18C18.7956 42 19.5587 41.6839 20.1213 41.1213C20.6839 40.5587 21 39.7956 21 39C21 38.2044 20.6839 37.4413 20.1213 36.8787C19.5587 36.3161 18.7956 36 18 36Z" fill="#011E41"/>
<path d="M47.121 21.8791L34.121 8.8791C33.5535 8.34228 32.7989 8.04802 32.0178 8.05888C31.2366 8.06975 30.4906 8.38488 29.9382 8.93727C29.3858 9.48967 29.0706 10.2358 29.0598 11.0169C29.0489 11.798 29.3432 12.5526 29.88 13.1201L37.758 21.0001H14C13.2044 21.0001 12.4413 21.3162 11.8787 21.8788C11.3161 22.4414 11 23.2045 11 24.0001C11 24.7958 11.3161 25.5588 11.8787 26.1214C12.4413 26.684 13.2044 27.0001 14 27.0001H37.758L29.878 34.8791C29.5957 35.1569 29.3713 35.4878 29.2175 35.8528C29.0638 36.2177 28.9838 36.6095 28.9823 37.0055C28.9807 37.4015 29.0575 37.7939 29.2084 38.1601C29.3592 38.5263 29.5811 38.859 29.8612 39.139C30.1412 39.4189 30.4739 39.6407 30.8401 39.7915C31.2064 39.9422 31.5988 40.019 31.9948 40.0174C32.3908 40.0157 32.7826 39.9356 33.1475 39.7818C33.5124 39.628 33.8433 39.4034 34.121 39.1211L47.121 26.1211C47.3996 25.8426 47.6206 25.512 47.7714 25.148C47.9222 24.7841 47.9998 24.394 47.9998 24.0001C47.9998 23.6062 47.9222 23.2161 47.7714 22.8522C47.6206 22.4883 47.3996 22.1576 47.121 21.8791V21.8791Z" fill="#011E41"/>
</svg>
