<svg width="48" height="48" viewBox="0 0 48 48" fill="none" xmlns="http://www.w3.org/2000/svg">
<path d="M24 17.9932C18.014 17.9932 13.5 22.0772 13.5 27.4932C13.5 27.891 13.658 28.2725 13.9393 28.5538C14.2206 28.8351 14.6022 28.9932 15 28.9932C15.3978 28.9932 15.7794 28.8351 16.0607 28.5538C16.342 28.2725 16.5 27.891 16.5 27.4932C16.5093 26.3341 16.8418 25.2005 17.4601 24.2201C18.0785 23.2396 18.958 22.4511 20 21.9432V46.4992C20 46.897 20.158 47.2785 20.4393 47.5598C20.7206 47.8411 21.1022 47.9992 21.5 47.9992C21.8978 47.9992 22.2794 47.8411 22.5607 47.5598C22.842 47.2785 23 46.897 23 46.4992V33.9992H25V46.4992C25 46.897 25.158 47.2785 25.4393 47.5598C25.7206 47.8411 26.1022 47.9992 26.5 47.9992C26.8978 47.9992 27.2794 47.8411 27.5607 47.5598C27.842 47.2785 28 46.897 28 46.4992V21.9432C29.042 22.4511 29.9215 23.2396 30.5399 24.2201C31.1582 25.2005 31.4907 26.3341 31.5 27.4932C31.5 27.891 31.658 28.2725 31.9393 28.5538C32.2206 28.8351 32.6022 28.9932 33 28.9932C33.3978 28.9932 33.7794 28.8351 34.0607 28.5538C34.342 28.2725 34.5 27.891 34.5 27.4932C34.5 22.0772 29.986 17.9932 24 17.9932Z" fill="#011E41"/>
<path d="M24.0518 15.999C25.7086 15.999 27.0518 14.6559 27.0518 12.999C27.0518 11.3422 25.7086 9.99902 24.0518 9.99902C22.3949 9.99902 21.0518 11.3422 21.0518 12.999C21.0518 14.6559 22.3949 15.999 24.0518 15.999Z" fill="#011E41"/>
<path d="M46.757 12.8392L25.257 0.33915C24.8753 0.117022 24.4416 0 24 0C23.5584 0 23.1247 0.117022 22.743 0.33915L1.243 12.8392C0.864997 13.059 0.551281 13.3742 0.333168 13.7532C0.115055 14.1322 0.000176154 14.5619 0 14.9992L0 45.4991C0 46.1622 0.263392 46.7981 0.732233 47.2669C1.20107 47.7358 1.83696 47.9991 2.5 47.9991C3.16304 47.9991 3.79893 47.7358 4.26777 47.2669C4.73661 46.7981 5 46.1622 5 45.4991V16.4391L24 5.39115L43 16.4381V45.4991C43 46.1622 43.2634 46.7981 43.7322 47.2669C44.2011 47.7358 44.837 47.9991 45.5 47.9991C46.163 47.9991 46.7989 47.7358 47.2678 47.2669C47.7366 46.7981 48 46.1622 48 45.4991V14.9992C47.9998 14.5619 47.8849 14.1322 47.6668 13.7532C47.4487 13.3742 47.135 13.059 46.757 12.8392V12.8392Z" fill="#011E41"/>
</svg>
