<svg width="48" height="48" viewBox="0 0 48 48" fill="none" xmlns="http://www.w3.org/2000/svg">
<g clip-path="url(#clip0_74_1709)">
<path d="M21.001 0H15.001C14.4487 0 14.001 0.447715 14.001 1V7C14.001 7.55228 14.4487 8 15.001 8H21.001C21.5533 8 22.001 7.55228 22.001 7V1C22.001 0.447715 21.5533 0 21.001 0Z" fill="#011E41"/>
<path d="M31.001 0H25.001C24.4487 0 24.001 0.447715 24.001 1V7C24.001 7.55228 24.4487 8 25.001 8H31.001C31.5533 8 32.001 7.55228 32.001 7V1C32.001 0.447715 31.5533 0 31.001 0Z" fill="#011E41"/>
<path d="M9.33064 31.9997C10.2905 32.0301 11.2365 31.7648 12.0405 31.2397C13.4322 30.3978 15.0342 29.9678 16.6604 29.9997C18.2895 29.9698 19.8941 30.3995 21.2902 31.2397C22.093 31.7676 23.0399 32.0331 24.0001 31.9997C24.957 32.0318 25.9004 31.7663 26.7 31.2397C28.0955 30.398 29.7005 29.9681 31.3299 29.9997C32.9561 29.9678 34.558 30.3978 35.9497 31.2397C36.6739 31.7114 37.5155 31.9712 38.3796 31.9897C40.9582 28.9219 42.5632 25.1548 42.9894 21.17C43.0151 20.893 42.9823 20.6138 42.8931 20.3503C42.804 20.0868 42.6605 19.8449 42.472 19.6404C42.2835 19.4358 42.0541 19.2731 41.7987 19.1628C41.5434 19.0525 41.2677 18.9971 40.9895 19.0001H5.0108C4.73264 18.9971 4.45695 19.0525 4.20158 19.1628C3.9462 19.2731 3.71683 19.4358 3.52831 19.6404C3.33979 19.8449 3.19631 20.0868 3.10718 20.3503C3.01804 20.6138 2.98523 20.893 3.01087 21.17C3.41883 24.981 4.9072 28.5961 7.30072 31.5897C7.93354 31.8906 8.63063 32.0314 9.33064 31.9997V31.9997ZM45.9993 41.9993C44.3706 41.9668 42.7662 42.3982 41.3735 43.2432C40.5558 43.7376 39.6186 43.9989 38.6631 43.9989C37.7076 43.9989 36.7703 43.7376 35.9527 43.2432C34.5599 42.3982 32.9556 41.9668 31.3269 41.9993C29.6988 41.9673 28.0952 42.3987 26.703 43.2432C25.8989 43.7661 24.9538 44.03 23.9951 43.9992C23.0358 44.03 22.0901 43.7662 21.2852 43.2432C19.8934 42.3985 18.2901 41.9671 16.6624 41.9993C15.0344 41.9673 13.4308 42.3987 12.0385 43.2432C11.2344 43.7661 10.2893 44.03 9.33064 43.9992C8.37228 44.0298 7.42757 43.766 6.62374 43.2432C5.23192 42.3986 3.62863 41.9672 2.00091 41.9993C1.47049 41.9993 0.961801 42.21 0.586742 42.5851C0.211683 42.9601 0.000976563 43.4688 0.000976562 43.9992C0.000976563 44.5296 0.211683 45.0383 0.586742 45.4134C0.961801 45.7884 1.47049 45.9992 2.00091 45.9992C2.95927 45.9685 3.904 46.2323 4.70781 46.7551C6.09965 47.5997 7.70292 48.0311 9.33064 47.9991C10.9584 48.0314 12.5618 47.6 13.9535 46.7551C14.7577 46.2324 15.7027 45.9685 16.6614 45.9992C17.6207 45.9683 18.5664 46.2322 19.3713 46.7551C20.7633 47.6 22.367 48.0315 23.9951 47.9991C25.6232 48.0316 27.227 47.6002 28.619 46.7551C29.4362 46.2606 30.3732 45.9992 31.3284 45.9992C32.2835 45.9992 33.2205 46.2606 34.0378 46.7551C35.443 47.57 37.0387 47.9991 38.6631 47.9991C40.2875 47.9991 41.8832 47.57 43.2884 46.7551C44.0937 46.2323 45.0397 45.9684 45.9993 45.9992C46.5297 45.9992 47.0384 45.7884 47.4135 45.4134C47.7886 45.0383 47.9993 44.5296 47.9993 43.9992C47.9993 43.4688 47.7886 42.9601 47.4135 42.5851C47.0384 42.21 46.5297 41.9993 45.9993 41.9993ZM2.00091 37.9994C2.95927 37.9688 3.904 38.2326 4.70781 38.7554C6.09965 39.6 7.70292 40.0314 9.33064 39.9994C10.9584 40.0317 12.5618 39.6003 13.9535 38.7554C14.7577 38.2327 15.7027 37.9688 16.6614 37.9994C17.6207 37.9686 18.5664 38.2324 19.3713 38.7554C20.7633 39.6003 22.367 40.0318 23.9951 39.9994C25.6232 40.0319 27.227 39.6005 28.619 38.7554C29.4362 38.2609 30.3732 37.9995 31.3284 37.9995C32.2835 37.9995 33.2205 38.2609 34.0378 38.7554C35.443 39.5703 37.0387 39.9994 38.6631 39.9994C40.2875 39.9994 41.8832 39.5703 43.2884 38.7554C44.0937 38.2325 45.0397 37.9687 45.9993 37.9994C46.5297 37.9994 47.0384 37.7887 47.4135 37.4137C47.7886 37.0386 47.9993 36.5299 47.9993 35.9995C47.9993 35.4691 47.7886 34.9604 47.4135 34.5853C47.0384 34.2103 46.5297 33.9996 45.9993 33.9996C44.3706 33.9671 42.7662 34.3985 41.3735 35.2435C40.5558 35.7379 39.6186 35.9992 38.6631 35.9992C37.7076 35.9992 36.7703 35.7379 35.9527 35.2435C34.5599 34.3985 32.9556 33.9671 31.3269 33.9996C29.6988 33.9676 28.0952 34.399 26.703 35.2435C25.8989 35.7664 24.9538 36.0302 23.9951 35.9995C23.0358 36.0303 22.0901 35.7665 21.2852 35.2435C19.8934 34.3988 18.2901 33.9674 16.6624 33.9996C15.0344 33.9676 13.4308 34.399 12.0385 35.2435C11.2344 35.7664 10.2893 36.0302 9.33064 35.9995C8.37228 36.0301 7.42757 35.7663 6.62374 35.2435C5.23192 34.3989 3.62863 33.9675 2.00091 33.9996C1.47049 33.9996 0.961801 34.2103 0.586742 34.5853C0.211683 34.9604 0.000976563 35.4691 0.000976562 35.9995C0.000976563 36.5299 0.211683 37.0386 0.586742 37.4137C0.961801 37.7887 1.47049 37.9994 2.00091 37.9994V37.9994Z" fill="#011E41"/>
<path d="M36.9999 11H9.00094C8.44868 11 8.00098 11.4477 8.00098 12V14.9999C8.00098 15.5521 8.44868 15.9998 9.00094 15.9998H36.9999C37.5522 15.9998 37.9999 15.5521 37.9999 14.9999V12C37.9999 11.4477 37.5522 11 36.9999 11Z" fill="#011E41"/>
</g>
<defs>
<clipPath id="clip0_74_1709">
<rect width="48" height="48" fill="white"/>
</clipPath>
</defs>
</svg>
