<svg width="48" height="48" viewBox="0 0 48 48" fill="none" xmlns="http://www.w3.org/2000/svg">
<path d="M25.0018 0C23.1457 0.00211761 21.3662 0.740381 20.0538 2.05283C18.7413 3.36528 18.0031 5.14473 18.0009 7.00081V9.29408C11.1531 10.6342 5.99955 16.3219 5.99955 21.0024H36.003C36.003 16.3219 30.8494 10.6332 24.0016 9.29408V7.00081C24.0016 6.73556 24.107 6.48118 24.2946 6.29362C24.4821 6.10606 24.7365 6.0007 25.0018 6.0007H45.0041V0H25.0018ZM36.8211 23.0027H5.18146C4.90375 22.9778 4.6239 23.011 4.35974 23.1003C4.09558 23.1895 3.85289 23.3327 3.64713 23.5209C3.44137 23.7091 3.27705 23.938 3.16463 24.1932C3.0522 24.4483 2.99414 24.7241 2.99414 25.0029C2.99414 25.2817 3.0522 25.5575 3.16463 25.8126C3.27705 26.0678 3.44137 26.2967 3.64713 26.4849C3.85289 26.6731 4.09558 26.8163 4.35974 26.9055C4.6239 26.9948 4.90375 27.028 5.18146 27.0031H36.8211C37.0988 27.028 37.3787 26.9948 37.6428 26.9055C37.907 26.8163 38.1497 26.6731 38.3554 26.4849C38.5612 26.2967 38.7255 26.0678 38.838 25.8126C38.9504 25.5575 39.0084 25.2817 39.0084 25.0029C39.0084 24.7241 38.9504 24.4483 38.838 24.1932C38.7255 23.938 38.5612 23.7091 38.3554 23.5209C38.1497 23.3327 37.907 23.1895 37.6428 23.1003C37.3787 23.011 37.0988 22.9778 36.8211 23.0027V23.0027ZM20.9253 30.0395C20.4592 30.6055 18.0009 33.6569 18.0009 35.1061C18.0293 35.8829 18.3578 36.6184 18.9174 37.1579C19.477 37.6974 20.224 37.9988 21.0013 37.9988C21.7786 37.9988 22.5256 37.6974 23.0852 37.1579C23.6447 36.6184 23.9733 35.8829 24.0016 35.1061C24.0016 33.6569 21.5434 30.6055 21.0773 30.0395C21.068 30.0283 21.0564 30.0194 21.0432 30.0132C21.0301 30.0071 21.0158 30.0039 21.0013 30.0039C20.9868 30.0039 20.9725 30.0071 20.9593 30.0132C20.9462 30.0194 20.9346 30.0283 20.9253 30.0395ZM13.9245 40.0406C13.4584 40.6067 11.0001 43.6581 11.0001 45.1072C11.0285 45.884 11.357 46.6195 11.9166 47.159C12.4762 47.6985 13.2232 48 14.0005 48C14.7778 48 15.5248 47.6985 16.0844 47.159C16.6439 46.6195 16.9725 45.884 17.0008 45.1072C17.0008 43.6581 14.5425 40.6067 14.0765 40.0406C14.0672 40.0295 14.0556 40.0206 14.0424 40.0144C14.0293 40.0083 14.015 40.0051 14.0005 40.0051C13.986 40.0051 13.9717 40.0083 13.9585 40.0144C13.9454 40.0206 13.9338 40.0295 13.9245 40.0406V40.0406ZM27.9261 40.0406C27.46 40.6067 25.0018 43.6581 25.0018 45.1072C25.0301 45.884 25.3586 46.6195 25.9182 47.159C26.4778 47.6985 27.2248 48 28.0021 48C28.7794 48 29.5264 47.6985 30.086 47.159C30.6456 46.6195 30.9741 45.884 31.0024 45.1072C31.0024 43.6581 28.5442 40.6067 28.0781 40.0406C28.0688 40.0295 28.0572 40.0206 28.0441 40.0144C28.0309 40.0083 28.0166 40.0051 28.0021 40.0051C27.9876 40.0051 27.9733 40.0083 27.9601 40.0144C27.947 40.0206 27.9354 40.0295 27.9261 40.0406V40.0406ZM6.92366 30.0395C6.45761 30.6055 3.99932 33.6569 3.99932 35.1061C4.013 35.8882 4.33675 36.6329 4.89939 37.1765C5.46203 37.72 6.2175 38.0178 6.99967 38.0044C7.78184 38.0178 8.53731 37.72 9.09995 37.1765C9.66259 36.6329 9.98634 35.8882 10 35.1061C10 33.6569 7.54173 30.6055 7.07568 30.0395C7.06639 30.0283 7.05476 30.0194 7.04163 30.0132C7.02849 30.0071 7.01417 30.0039 6.99967 30.0039C6.98517 30.0039 6.97084 30.0071 6.95771 30.0132C6.94458 30.0194 6.93295 30.0283 6.92366 30.0395V30.0395ZM34.9269 30.0395C34.4609 30.6055 32.0026 33.6569 32.0026 35.1061C32.0309 35.8829 32.3595 36.6184 32.919 37.1579C33.4786 37.6974 34.2256 37.9988 35.0029 37.9988C35.7802 37.9988 36.5272 37.6974 37.0868 37.1579C37.6464 36.6184 37.9749 35.8829 38.0033 35.1061C38.0033 33.6569 35.545 30.6055 35.0789 30.0395C35.0696 30.0283 35.058 30.0194 35.0449 30.0132C35.0317 30.0071 35.0174 30.0039 35.0029 30.0039C34.9884 30.0039 34.9741 30.0071 34.961 30.0132C34.9478 30.0194 34.9362 30.0283 34.9269 30.0395Z" fill="#011E41"/>
</svg>
