<svg width="48" height="52" viewBox="0 0 48 52" fill="none" xmlns="http://www.w3.org/2000/svg">
<path d="M42.572 19.955L42.5482 19.8612C42.53 19.6978 42.4946 19.5411 42.4446 19.3809L42.3945 19.2193L42.3582 19.1375C42.2786 18.9506 42.1873 18.7864 42.0814 18.6369L42.0552 18.5799L25.587 0.740989C25.3963 0.534064 25.1728 0.36716 24.8919 0.226936L24.6948 0.148524C24.5501 0.0947174 24.4011 0.0563265 24.2461 0.0337959L24.1335 0H13.1626C8.89183 0 5.41797 3.76231 5.41797 8.38805V43.612C5.41797 48.2368 8.89169 52 13.1626 52H34.8398C39.1066 52 42.5793 48.2368 42.5793 43.612V20.1927L42.572 19.955ZM15.4298 41.0289H14.7778C13.7783 41.0289 12.969 40.1513 12.969 39.0689C12.969 37.9866 13.7783 37.1073 14.7778 37.1073H15.4298C16.4305 37.1073 17.2398 37.9867 17.2398 39.0689C17.2406 40.1513 16.4313 41.0289 15.4298 41.0289ZM15.4298 35.8005H14.7778C13.7783 35.8005 12.969 34.9229 12.969 33.8415C12.969 32.7581 13.7783 31.8806 14.7778 31.8806H15.4298C16.4305 31.8806 17.2398 32.7599 17.2398 33.8415C17.2406 34.923 16.4313 35.8005 15.4298 35.8005ZM15.4298 30.5733H14.7778C13.7783 30.5733 12.969 29.6956 12.969 28.6141C12.969 27.5309 13.7783 26.6532 14.7778 26.6532H15.4298C16.4305 26.6532 17.2398 27.5318 17.2398 28.6141C17.2406 29.6956 16.4313 30.5733 15.4298 30.5733ZM33.678 41.0289H20.4071C19.4075 41.0289 18.5974 40.1513 18.5974 39.0689C18.5974 37.9866 19.4074 37.1073 20.4071 37.1073H33.6764C34.677 37.1073 35.4856 37.9867 35.4856 39.0689C35.4865 40.1513 34.6779 41.0289 33.678 41.0289ZM33.678 35.8005H20.4071C19.4075 35.8005 18.5974 34.9229 18.5974 33.8415C18.5974 32.7581 19.4074 31.8806 20.4071 31.8806H33.6764C34.677 31.8806 35.4856 32.7599 35.4856 33.8415C35.4865 34.923 34.6779 35.8005 33.678 35.8005ZM33.678 30.5733H20.4071C19.4075 30.5733 18.5974 29.6956 18.5974 28.6141C18.5974 27.5309 19.4074 26.6532 20.4071 26.6532H33.6764C34.677 26.6532 35.4856 27.5318 35.4856 28.6141C35.4865 29.6956 34.6779 30.5733 33.678 30.5733Z" fill="#011E41"/>
<path d="M15.2031 18.7676C15.2031 18.6152 15.1797 18.4785 15.1328 18.3574C15.0898 18.2324 15.0078 18.1191 14.8867 18.0176C14.7656 17.9121 14.5957 17.8086 14.377 17.707C14.1582 17.6055 13.875 17.5 13.5273 17.3906C13.1406 17.2656 12.7734 17.125 12.4258 16.9688C12.082 16.8125 11.7773 16.6309 11.5117 16.4238C11.25 16.2129 11.043 15.9688 10.8906 15.6914C10.7422 15.4141 10.668 15.0918 10.668 14.7246C10.668 14.3691 10.7461 14.0469 10.9023 13.7578C11.0586 13.4648 11.2773 13.2148 11.5586 13.0078C11.8398 12.7969 12.1719 12.6348 12.5547 12.5215C12.9414 12.4082 13.3652 12.3516 13.8262 12.3516C14.4551 12.3516 15.0039 12.4648 15.4727 12.6914C15.9414 12.918 16.3047 13.2285 16.5625 13.623C16.8242 14.0176 16.9551 14.4688 16.9551 14.9766H15.209C15.209 14.7266 15.1562 14.5078 15.0508 14.3203C14.9492 14.1289 14.793 13.9785 14.582 13.8691C14.375 13.7598 14.1133 13.7051 13.7969 13.7051C13.4922 13.7051 13.2383 13.752 13.0352 13.8457C12.832 13.9355 12.6797 14.0586 12.5781 14.2148C12.4766 14.3672 12.4258 14.5391 12.4258 14.7305C12.4258 14.875 12.4609 15.0059 12.5312 15.123C12.6055 15.2402 12.7148 15.3496 12.8594 15.4512C13.0039 15.5527 13.1816 15.6484 13.3926 15.7383C13.6035 15.8281 13.8477 15.916 14.125 16.002C14.5898 16.1426 14.998 16.3008 15.3496 16.4766C15.7051 16.6523 16.002 16.8496 16.2402 17.0684C16.4785 17.2871 16.6582 17.5352 16.7793 17.8125C16.9004 18.0898 16.9609 18.4043 16.9609 18.7559C16.9609 19.127 16.8887 19.459 16.7441 19.752C16.5996 20.0449 16.3906 20.293 16.1172 20.4961C15.8438 20.6992 15.5176 20.8535 15.1387 20.959C14.7598 21.0645 14.3359 21.1172 13.8672 21.1172C13.4453 21.1172 13.0293 21.0625 12.6191 20.9531C12.209 20.8398 11.8359 20.6699 11.5 20.4434C11.168 20.2168 10.9023 19.9277 10.7031 19.5762C10.5039 19.2246 10.4043 18.8086 10.4043 18.3281H12.168C12.168 18.5938 12.209 18.8184 12.291 19.002C12.373 19.1855 12.4883 19.334 12.6367 19.4473C12.7891 19.5605 12.9688 19.6426 13.1758 19.6934C13.3867 19.7441 13.6172 19.7695 13.8672 19.7695C14.1719 19.7695 14.4219 19.7266 14.6172 19.6406C14.8164 19.5547 14.9629 19.4355 15.0566 19.2832C15.1543 19.1309 15.2031 18.959 15.2031 18.7676ZM20.0254 12.4688V21H18.2734V12.4688H20.0254ZM22.4746 12.4688H23.9629L26.1543 18.7324L28.3457 12.4688H29.834L26.752 21H25.5566L22.4746 12.4688ZM21.6719 12.4688H23.1543L23.4238 18.5742V21H21.6719V12.4688ZM29.1543 12.4688H30.6426V21H28.8848V18.5742L29.1543 12.4688Z" fill="white"/>
</svg>
