<svg width="35" height="35" viewBox="0 0 35 35" fill="none" xmlns="http://www.w3.org/2000/svg">
<rect width="35" height="35" fill="white"/>
<rect width="35" height="35" fill="black"/>
<path d="M23.6154 9.66268H5.40622L2.66267 7.57888C2.66267 7.57888 0.456361 10.7083 4.09533 12.9172C4.09533 12.9172 3.50077 17.1511 6.18702 18.6827V23.3731L7.77012 28.5273C7.77012 28.9179 7.92106 29.2925 8.18973 29.5687C8.45841 29.8448 8.82282 30 9.20278 30C9.58275 30 9.94715 29.8448 10.2158 29.5687C10.4845 29.2925 10.6354 28.9179 10.6354 28.5273L9.08101 23.1154V20.5235L18.6011 21.1641L20.1054 23.189V28.6672C20.1303 29.0198 20.2841 29.3496 20.536 29.5903C20.7878 29.831 21.1189 29.9648 21.4628 29.9648C21.8067 29.9648 22.1378 29.831 22.3897 29.5903C22.6415 29.3496 22.7953 29.0198 22.8203 28.6672V20.5677L24.5681 15.4723L27.0753 13.4768L28.114 12.4092L30.1197 14.4709C30.3652 14.7315 30.6845 14.9058 31.0321 14.9689C31.3796 15.032 31.7377 14.9808 32.0553 14.8225C32.3728 14.6642 32.6337 14.4069 32.8006 14.0872C32.9676 13.7676 33.0321 13.402 32.985 13.0424V13.0424L32.4979 8.99263C32.4979 8.99263 32.3618 4.27278 28.6655 6.68793H24.3675C24.4331 7.12829 24.6293 7.53713 24.9293 7.85867C25.2293 8.1802 25.6185 8.39877 26.0438 8.48456L23.6154 9.66268Z" fill="white"/>
</svg>
