<svg width="35" height="35" viewBox="0 0 35 35" fill="none" xmlns="http://www.w3.org/2000/svg">
<rect width="35" height="35" fill="white"/>
<rect width="35" height="35" fill="black"/>
<path d="M9.95507 9.5C9.95507 9.5 12.1775 6.5772 14.5995 9.27516C14.5995 9.27516 16.9551 6.5772 18.9737 9.52632C18.9737 9.52632 20.725 7.33068 22.4445 9.32377C22.4445 9.32377 22.4445 7.20915 24.7188 7.70337C24.6153 7.49408 24.5737 7.25849 24.599 7.0254C24.6243 6.79232 24.7155 6.57182 24.8614 6.39085C25.1079 6.14051 25.4412 6 25.7886 6C26.136 6 26.4693 6.14051 26.7157 6.39085L26.898 6.5772L29.1405 7.20915L32.3102 10.5391C32.5847 10.7565 32.7858 11.0564 32.8853 11.3966C32.9848 11.7368 32.9777 12.1003 32.865 12.4361C32.7523 12.772 32.5397 13.0634 32.2569 13.2695C31.9741 13.4756 31.6353 13.586 31.288 13.5854L27.6745 13.0345C28.8473 16.6642 25.5746 16.8667 25.5746 16.8667C26.9613 19.7348 23.855 20.8529 23.855 20.8529C24.1562 23.6562 21.2559 23.5832 21.2559 23.5832V28.4444C21.2559 28.8505 21.0981 29.24 20.8172 29.5272C20.5364 29.8144 20.1554 29.9757 19.7582 29.9757C19.361 29.9757 18.9801 29.8144 18.6992 29.5272C18.4183 29.24 18.2605 28.8505 18.2605 28.4444V25.3981C18.0079 25.5966 17.7138 25.7324 17.4011 25.7951C17.0885 25.8577 16.7659 25.8453 16.4588 25.7589C16.1516 25.6726 15.8682 25.5146 15.6308 25.2973C15.3935 25.0801 15.2086 24.8095 15.0908 24.5069C14.8727 24.8037 14.5954 25.0497 14.2771 25.2285C13.9589 25.4074 13.6071 25.5149 13.2451 25.544C12.8831 25.5732 12.5192 25.5232 12.1775 25.3974C11.8358 25.2717 11.5242 25.0731 11.2634 24.8147C11.1249 25.1468 10.9067 25.4378 10.629 25.6608C10.3513 25.8838 10.0232 26.0316 9.6748 26.0906C9.32645 26.1495 8.96918 26.1177 8.63603 25.9981C8.30289 25.8785 8.00462 25.6749 7.76882 25.4062V28.4687C7.76882 28.8748 7.61103 29.2643 7.33016 29.5515C7.04929 29.8387 6.66835 30 6.27114 30C5.87393 30 5.49299 29.8387 5.21212 29.5515C4.93125 29.2643 4.77346 28.8748 4.77346 28.4687V23.6075C4.77346 23.6075 1.53741 22.5706 3.45508 19.5C3.45508 19.5 0.304183 17.3334 3.27578 15C3.27578 15 1.95507 11.5 5.50249 11.0657C5.49456 11.0414 6.58007 7.70337 9.95507 9.5Z" fill="white"/>
</svg>
