<svg width="48" height="48" viewBox="0 0 48 48" fill="none" xmlns="http://www.w3.org/2000/svg">
<path d="M36 0H12C11.4701 0.00158273 10.9623 0.212805 10.5875 0.587535C10.2128 0.962265 10.0016 1.47005 10 2V46C10.0016 46.5299 10.2128 47.0377 10.5875 47.4125C10.9623 47.7872 11.4701 47.9984 12 48H36C36.5299 47.9984 37.0377 47.7872 37.4125 47.4125C37.7872 47.0377 37.9984 46.5299 38 46V2C37.9984 1.47005 37.7872 0.962265 37.4125 0.587535C37.0377 0.212805 36.5299 0.00158273 36 0V0ZM21 3H27C27.2652 3 27.5196 3.10536 27.7071 3.29289C27.8946 3.48043 28 3.73478 28 4C28 4.26522 27.8946 4.51957 27.7071 4.70711C27.5196 4.89464 27.2652 5 27 5H21C20.7348 5 20.4804 4.89464 20.2929 4.70711C20.1054 4.51957 20 4.26522 20 4C20 3.73478 20.1054 3.48043 20.2929 3.29289C20.4804 3.10536 20.7348 3 21 3V3ZM24 45C23.6044 45 23.2178 44.8827 22.8889 44.6629C22.56 44.4432 22.3036 44.1308 22.1522 43.7654C22.0009 43.3999 21.9613 42.9978 22.0384 42.6098C22.1156 42.2219 22.3061 41.8655 22.5858 41.5858C22.8655 41.3061 23.2219 41.1156 23.6098 41.0384C23.9978 40.9613 24.3999 41.0009 24.7654 41.1522C25.1308 41.3036 25.4432 41.56 25.6629 41.8889C25.8827 42.2178 26 42.6044 26 43C25.9984 43.5299 25.7872 44.0377 25.4125 44.4125C25.0377 44.7872 24.5299 44.9984 24 45ZM34 38H14V8H34V38Z" fill="#011E41"/>
</svg>
