<svg width="48" height="48" viewBox="0 0 48 48" fill="none" xmlns="http://www.w3.org/2000/svg">
<path d="M43.3001 20.26C43.4694 20.3071 43.6444 20.3307 43.8201 20.33C44.3043 20.3289 44.7717 20.1522 45.1355 19.8326C45.4993 19.5131 45.7348 19.0724 45.7983 18.5924C45.8618 18.1123 45.7491 17.6255 45.4809 17.2224C45.2127 16.8192 44.8074 16.527 44.3401 16.4L42.1701 15.82L44.0501 14.73C44.2773 14.5987 44.4764 14.4239 44.636 14.2156C44.7957 14.0074 44.9127 13.7697 44.9805 13.5162C45.0483 13.2627 45.0655 12.9983 45.0311 12.7382C44.9967 12.478 44.9114 12.2272 44.7801 12C44.6488 11.7728 44.474 11.5737 44.2657 11.4141C44.0575 11.2544 43.8198 11.1374 43.5663 11.0696C43.3128 11.0018 43.0484 10.9846 42.7883 11.019C42.5281 11.0534 42.2773 11.1387 42.0501 11.27L40.1701 12.35L40.7501 10.19C40.8223 9.93531 40.8433 9.66881 40.8117 9.40596C40.7801 9.14311 40.6966 8.88915 40.5661 8.65882C40.4356 8.4285 40.2606 8.2264 40.0513 8.06425C39.8421 7.9021 39.6027 7.78314 39.347 7.71427C39.0914 7.64539 38.8246 7.62798 38.5622 7.66304C38.2998 7.69811 38.047 7.78494 37.8184 7.91851C37.5898 8.05208 37.3901 8.22973 37.2307 8.44113C37.0714 8.65253 36.9556 8.89349 36.8901 9.15L35.2701 15.18L28.8001 18.92C28.0062 18.1663 27.0475 17.6082 26.0001 17.29V10.83L30.4101 6.41C30.784 6.03604 30.9941 5.52885 30.9941 5C30.9941 4.47115 30.784 3.96396 30.4101 3.59C30.0361 3.21604 29.5289 3.00596 29.0001 3.00596C28.4712 3.00596 27.964 3.21604 27.5901 3.59L26.0001 5.17V2C26.0001 1.46957 25.7894 0.960859 25.4143 0.585786C25.0392 0.210714 24.5305 0 24.0001 0C23.4697 0 22.961 0.210714 22.5859 0.585786C22.2108 0.960859 22.0001 1.46957 22.0001 2V5.17L20.4101 3.59C20.2249 3.40484 20.0051 3.25796 19.7632 3.15775C19.5213 3.05754 19.262 3.00596 19.0001 3.00596C18.7382 3.00596 18.4789 3.05754 18.237 3.15775C17.9951 3.25796 17.7753 3.40484 17.5901 3.59C17.4049 3.77516 17.258 3.99499 17.1578 4.23691C17.0576 4.47884 17.0061 4.73814 17.0061 5C17.0061 5.26186 17.0576 5.52116 17.1578 5.76309C17.258 6.00501 17.4049 6.22484 17.5901 6.41L22.0001 10.83V17.29C20.9527 17.6082 19.994 18.1663 19.2001 18.92L12.7301 15.18L11.1101 9.15C11.0446 8.89349 10.9288 8.65253 10.7695 8.44113C10.6101 8.22973 10.4103 8.05208 10.1818 7.91851C9.95319 7.78494 9.70036 7.69811 9.43795 7.66304C9.17554 7.62798 8.90878 7.64539 8.65316 7.71427C8.39754 7.78314 8.15814 7.9021 7.94886 8.06425C7.73959 8.2264 7.56461 8.4285 7.43408 8.65882C7.30355 8.88915 7.22007 9.14311 7.18848 9.40596C7.1569 9.66881 7.17784 9.93531 7.25009 10.19L7.83009 12.35L5.95009 11.27C5.72291 11.1387 5.47208 11.0534 5.21193 11.019C4.95178 10.9846 4.68741 11.0018 4.43391 11.0696C4.1804 11.1374 3.94273 11.2544 3.73447 11.4141C3.5262 11.5737 3.35142 11.7728 3.22009 12C3.08877 12.2272 3.00348 12.478 2.9691 12.7382C2.93471 12.9983 2.95191 13.2627 3.01969 13.5162C3.08748 13.7697 3.20453 14.0074 3.36417 14.2156C3.52381 14.4239 3.72291 14.5987 3.95009 14.73L5.83009 15.82L3.66009 16.4C3.19282 16.527 2.78748 16.8192 2.51931 17.2224C2.25114 17.6255 2.13834 18.1123 2.20186 18.5924C2.26537 19.0724 2.50089 19.5131 2.86469 19.8326C3.22849 20.1522 3.69587 20.3289 4.18009 20.33C4.35582 20.3307 4.5308 20.3071 4.70009 20.26L10.7301 18.65L17.2001 22.38C16.9335 23.4435 16.9335 24.5565 17.2001 25.62L11.5901 28.85L5.56009 27.24C5.30461 27.1659 5.03688 27.1435 4.77263 27.1742C4.50838 27.2049 4.25292 27.288 4.02124 27.4188C3.78956 27.5495 3.58632 27.7252 3.42344 27.9356C3.26057 28.1459 3.14134 28.3867 3.07276 28.6437C3.00417 28.9007 2.9876 29.1689 3.02403 29.4324C3.06046 29.6959 3.14914 29.9495 3.28489 30.1783C3.42063 30.4071 3.6007 30.6065 3.81452 30.7648C4.02835 30.923 4.27163 31.037 4.53009 31.1L6.69009 31.68L3.95009 33.27C3.72205 33.4005 3.52198 33.5746 3.36132 33.7825C3.20067 33.9904 3.0826 34.2279 3.01387 34.4815C2.94513 34.7351 2.92708 34.9997 2.96075 35.2603C2.99443 35.5209 3.07916 35.7722 3.21009 36C3.34207 36.2278 3.51763 36.4275 3.72675 36.5875C3.93587 36.7475 4.17447 36.8647 4.4289 36.9325C4.68333 37.0003 4.94863 37.0173 5.20964 36.9825C5.47064 36.9478 5.72225 36.862 5.95009 36.73L8.69009 35.15L8.11009 37.31C8.04241 37.5641 8.02546 37.8291 8.0602 38.0897C8.09494 38.3504 8.18069 38.6017 8.31255 38.8292C8.44442 39.0567 8.61982 39.256 8.82872 39.4157C9.03763 39.5754 9.27596 39.6924 9.53009 39.76C9.69925 39.8078 9.87432 39.8314 10.0501 39.83C10.4895 39.8289 10.9164 39.6835 11.2651 39.4161C11.6138 39.1487 11.865 38.7741 11.9801 38.35L13.5901 32.32L19.2001 29.08C19.994 29.8337 20.9527 30.3918 22.0001 30.71V38.17L17.5901 42.59C17.4049 42.7752 17.258 42.995 17.1578 43.2369C17.0576 43.4788 17.0061 43.7381 17.0061 44C17.0061 44.2619 17.0576 44.5212 17.1578 44.7631C17.258 45.005 17.4049 45.2248 17.5901 45.41C17.7753 45.5952 17.9951 45.742 18.237 45.8423C18.4789 45.9425 18.7382 45.994 19.0001 45.994C19.262 45.994 19.5213 45.9425 19.7632 45.8423C20.0051 45.742 20.2249 45.5952 20.4101 45.41L22.0001 43.83V46C22.0001 46.5304 22.2108 47.0391 22.5859 47.4142C22.961 47.7893 23.4697 48 24.0001 48C24.5305 48 25.0392 47.7893 25.4143 47.4142C25.7894 47.0391 26.0001 46.5304 26.0001 46V43.83L27.5901 45.41C27.7753 45.5952 27.9951 45.742 28.237 45.8423C28.4789 45.9425 28.7382 45.994 29.0001 45.994C29.262 45.994 29.5213 45.9425 29.7632 45.8423C30.0051 45.742 30.2249 45.5952 30.4101 45.41C30.5953 45.2248 30.7421 45.005 30.8423 44.7631C30.9426 44.5212 30.9941 44.2619 30.9941 44C30.9941 43.7381 30.9426 43.4788 30.8423 43.2369C30.7421 42.995 30.5953 42.7752 30.4101 42.59L26.0001 38.17V30.71C27.0475 30.3918 28.0062 29.8337 28.8001 29.08L34.4101 32.32L36.0201 38.35C36.1352 38.7741 36.3864 39.1487 36.7351 39.4161C37.0838 39.6835 37.5107 39.8289 37.9501 39.83C38.1259 39.8314 38.3009 39.8078 38.4701 39.76C38.7242 39.6924 38.9626 39.5754 39.1715 39.4157C39.3804 39.256 39.5558 39.0567 39.6876 38.8292C39.8195 38.6017 39.9053 38.3504 39.94 38.0897C39.9747 37.8291 39.9578 37.5641 39.8901 37.31L39.3101 35.15L42.0501 36.73C42.2779 36.862 42.5295 36.9478 42.7906 36.9825C43.0516 37.0173 43.3169 37.0003 43.5713 36.9325C43.8257 36.8647 44.0643 36.7475 44.2734 36.5875C44.4826 36.4275 44.6581 36.2278 44.7901 36C44.921 35.7722 45.0058 35.5209 45.0394 35.2603C45.0731 34.9997 45.0551 34.7351 44.9863 34.4815C44.9176 34.2279 44.7995 33.9904 44.6389 33.7825C44.4782 33.5746 44.2781 33.4005 44.0501 33.27L41.3101 31.68L43.4701 31.1C43.7286 31.037 43.9718 30.923 44.1857 30.7648C44.3995 30.6065 44.5796 30.4071 44.7153 30.1783C44.851 29.9495 44.9397 29.6959 44.9762 29.4324C45.0126 29.1689 44.996 28.9007 44.9274 28.6437C44.8588 28.3867 44.7396 28.1459 44.5767 27.9356C44.4139 27.7252 44.2106 27.5495 43.979 27.4188C43.7473 27.288 43.4918 27.2049 43.2276 27.1742C42.9633 27.1435 42.6956 27.1659 42.4401 27.24L36.4101 28.85L30.8001 25.62C31.0667 24.5565 31.0667 23.4435 30.8001 22.38L37.2701 18.65L43.3001 20.26ZM24.0001 27C23.4067 27 22.8267 26.8241 22.3334 26.4944C21.84 26.1648 21.4555 25.6962 21.2285 25.1481C21.0014 24.5999 20.942 23.9967 21.0577 23.4147C21.1735 22.8328 21.4592 22.2982 21.8788 21.8787C22.2983 21.4591 22.8329 21.1734 23.4148 21.0576C23.9968 20.9419 24.6 21.0013 25.1481 21.2284C25.6963 21.4554 26.1649 21.8399 26.4945 22.3333C26.8241 22.8266 27.0001 23.4067 27.0001 24C27.0006 24.3941 26.9234 24.7845 26.7728 25.1487C26.6222 25.5129 26.4013 25.8438 26.1226 26.1225C25.8439 26.4012 25.513 26.6221 25.1488 26.7727C24.7846 26.9233 24.3942 27.0005 24.0001 27V27Z" fill="#011E41"/>
</svg>
