<svg width="48" height="48" viewBox="0 0 48 48" fill="none" xmlns="http://www.w3.org/2000/svg">
<g clip-path="url(#clip0_74_664)">
<path d="M36.1933 7.333C36.3961 7.64419 36.7089 7.86734 37.0691 7.95782C37.4294 8.0483 37.8105 7.99943 38.1363 7.821L39.0033 7.351V8.5C39.0033 8.89782 39.1613 9.27936 39.4426 9.56066C39.7239 9.84196 40.1055 10 40.5033 10C40.9011 10 41.2826 9.84196 41.5639 9.56066C41.8452 9.27936 42.0033 8.89782 42.0033 8.5V7.352L42.8703 7.822C43.1961 8.00004 43.577 8.04859 43.9371 7.95793C44.2971 7.86728 44.6097 7.6441 44.8123 7.333C44.9048 7.18106 44.9648 7.01162 44.9887 6.83534C45.0125 6.65906 44.9996 6.47976 44.9508 6.30871C44.9019 6.13766 44.8182 5.97858 44.7049 5.84146C44.5915 5.70435 44.4511 5.59218 44.2923 5.512L43.3463 5L44.2923 4.488C44.4511 4.40782 44.5915 4.29565 44.7049 4.15854C44.8182 4.02142 44.9019 3.86234 44.9508 3.69129C44.9996 3.52024 45.0125 3.34094 44.9887 3.16466C44.9648 2.98838 44.9048 2.81894 44.8123 2.667C44.6095 2.35607 44.2969 2.1331 43.9369 2.04263C43.5768 1.95216 43.1959 2.00086 42.8703 2.179L42.0033 2.649V1.5C42.0033 1.10218 41.8452 0.720644 41.5639 0.43934C41.2826 0.158035 40.9011 0 40.5033 0C40.1055 0 39.7239 0.158035 39.4426 0.43934C39.1613 0.720644 39.0033 1.10218 39.0033 1.5V2.648L38.1363 2.178C37.8105 1.99996 37.4295 1.95141 37.0695 2.04207C36.7095 2.13272 36.3969 2.3559 36.1943 2.667C36.1018 2.81894 36.0417 2.98838 36.0179 3.16466C35.994 3.34094 36.007 3.52024 36.0558 3.69129C36.1046 3.86234 36.1884 4.02142 36.3017 4.15854C36.415 4.29565 36.5555 4.40782 36.7143 4.488L37.6603 5L36.7143 5.512C36.5555 5.59218 36.415 5.70435 36.3017 5.84146C36.1884 5.97858 36.1046 6.13766 36.0558 6.30871C36.007 6.47976 35.994 6.65906 36.0179 6.83534C36.0417 7.01162 36.1018 7.18106 36.1943 7.333H36.1933ZM47.6133 19.706C47.3998 19.1642 47.0768 18.6724 46.6645 18.2611C46.2522 17.8499 45.7596 17.5281 45.2173 17.316C44.1027 16.8713 42.8593 16.8748 41.7473 17.326C41.5782 17.4091 41.428 17.5263 41.3063 17.6701C41.1845 17.8139 41.0937 17.9812 41.0395 18.1617C40.9854 18.3422 40.969 18.5319 40.9915 18.719C41.014 18.9061 41.0749 19.0865 41.1703 19.249C41.3271 19.5483 41.5822 19.7846 41.8927 19.9181C42.2032 20.0515 42.5501 20.0741 42.8753 19.982C43.2763 19.9099 43.6894 19.9468 44.0713 20.089C44.244 20.1589 44.4011 20.2624 44.5335 20.3936C44.6658 20.5248 44.7708 20.6809 44.8423 20.853C45.0581 21.4023 45.0479 22.0147 44.8139 22.5565C44.5799 23.0983 44.1411 23.5255 43.5933 23.745C43.2016 23.9106 42.781 23.9968 42.3558 23.9985C41.9306 24.0003 41.5092 23.9175 41.1163 23.755C40.7335 23.5961 40.3865 23.362 40.0959 23.0665C39.8053 22.7711 39.5769 22.4203 39.4243 22.035L32.8573 7.856C32.7747 7.67488 32.657 7.51201 32.5109 7.37685C32.3648 7.2417 32.1932 7.13698 32.0062 7.06878C31.8193 7.00059 31.6206 6.97029 31.4218 6.97965C31.2229 6.98902 31.028 7.03785 30.8482 7.12331C30.6685 7.20878 30.5075 7.32916 30.3748 7.47744C30.242 7.62573 30.1401 7.79895 30.0749 7.98702C30.0098 8.17509 29.9827 8.37425 29.9953 8.57288C30.0079 8.77152 30.0599 8.96566 30.1483 9.144L36.6843 23.252C36.988 23.9885 37.435 24.6573 37.9992 25.2196C38.5635 25.782 39.2338 26.2267 39.9713 26.528C40.721 26.839 41.5246 26.9994 42.3363 27C43.1638 26.9985 43.9829 26.8334 44.7463 26.514C46.0267 25.9883 47.0471 24.9771 47.5845 23.7015C48.1218 22.4259 48.1325 20.9895 47.6143 19.706H47.6133ZM21.0533 7.33C20.8765 6.93403 20.5888 6.59773 20.2251 6.36174C19.8613 6.12575 19.4369 6.00016 19.0033 6.00016C18.5696 6.00016 18.1453 6.12575 17.7815 6.36174C17.4177 6.59773 17.13 6.93403 16.9533 7.33L0.199276 44.84C0.0466334 45.1826 -0.017771 45.558 0.0119411 45.9319C0.0416531 46.3058 0.164535 46.6664 0.369373 46.9806C0.574211 47.2948 0.854481 47.5527 1.1846 47.7308C1.51473 47.9088 1.88419 48.0014 2.25928 48H35.7473C36.1233 48.0011 36.4936 47.908 36.8243 47.7291C37.1551 47.5502 37.4357 47.2913 37.6406 46.976C37.8455 46.6607 37.9681 46.2991 37.9972 45.9242C38.0263 45.5494 37.961 45.1731 37.8073 44.83L21.0533 7.33ZM15.0033 22L19.0033 13L23.0033 22H15.0033Z" fill="#011E41"/>
</g>
<defs>
<clipPath id="clip0_74_664">
<rect width="48" height="48" fill="white"/>
</clipPath>
</defs>
</svg>
