<svg width="48" height="48" viewBox="0 0 48 48" fill="none" xmlns="http://www.w3.org/2000/svg">
<g clip-path="url(#clip0_74_766)">
<path d="M40 23H37.92C37.6824 21.3339 36.8518 19.8095 35.5805 18.7067C34.3093 17.6039 32.6829 16.9968 31 16.9968C29.3171 16.9968 27.6907 17.6039 26.4195 18.7067C25.1482 19.8095 24.3176 21.3339 24.08 23H8C5.88013 23.0061 3.84883 23.8509 2.34985 25.3499C0.850872 26.8488 0.00606848 28.8801 0 31V40C0.00633091 42.1198 0.851219 44.1509 2.35014 45.6499C3.84906 47.1488 5.88022 47.9937 8 48H40C42.1198 47.9937 44.1509 47.1488 45.6499 45.6499C47.1488 44.1509 47.9937 42.1198 48 40V31C47.9939 28.8801 47.1491 26.8488 45.6502 25.3499C44.1512 23.8509 42.1199 23.0061 40 23V23ZM27.13 23C27.3509 22.1414 27.8509 21.3807 28.5516 20.8375C29.2522 20.2943 30.1135 19.9996 31 19.9996C31.8865 19.9996 32.7478 20.2943 33.4484 20.8375C34.1491 21.3807 34.6491 22.1414 34.87 23C34.9593 23.3257 35.003 23.6623 35 24C35 25.0609 34.5786 26.0783 33.8284 26.8284C33.0783 27.5786 32.0609 28 31 28C29.9391 28 28.9217 27.5786 28.1716 26.8284C27.4214 26.0783 27 25.0609 27 24C26.997 23.6623 27.0407 23.3257 27.13 23V23ZM20.5 36C19.8078 36 19.1311 35.7947 18.5555 35.4101C17.9799 35.0256 17.5313 34.4789 17.2664 33.8394C17.0015 33.1999 16.9322 32.4961 17.0673 31.8172C17.2023 31.1383 17.5356 30.5146 18.0251 30.0251C18.5146 29.5356 19.1383 29.2023 19.8172 29.0673C20.4961 28.9322 21.1999 29.0015 21.8394 29.2664C22.4789 29.5313 23.0256 29.9799 23.4101 30.5555C23.7947 31.1311 24 31.8078 24 32.5C23.9989 33.4279 23.6299 34.3176 22.9737 34.9737C22.3176 35.6299 21.4279 35.9989 20.5 36V36ZM18.5 17C20.1811 17 21.8245 16.5015 23.2223 15.5675C24.6202 14.6335 25.7096 13.306 26.353 11.7528C26.9963 10.1996 27.1647 8.49057 26.8367 6.84174C26.5087 5.1929 25.6992 3.67834 24.5104 2.4896C23.3217 1.30085 21.8071 0.491303 20.1583 0.163329C18.5094 -0.164645 16.8004 0.00368291 15.2472 0.647028C13.694 1.29037 12.3665 2.37984 11.4325 3.77766C10.4985 5.17547 10 6.81886 10 8.5C10.0016 10.7539 10.8976 12.9149 12.4913 14.5087C14.0851 16.1024 16.2461 16.9984 18.5 17V17ZM18.5 3C19.5878 3 20.6512 3.32257 21.5556 3.92692C22.4601 4.53127 23.1651 5.39025 23.5813 6.39525C23.9976 7.40024 24.1065 8.50611 23.8943 9.573C23.6821 10.6399 23.1583 11.6199 22.3891 12.3891C21.6199 13.1583 20.6399 13.6821 19.573 13.8943C18.5061 14.1065 17.4002 13.9976 16.3952 13.5813C15.3902 13.1651 14.5313 12.4601 13.9269 11.5556C13.3226 10.6512 13 9.5878 13 8.5C12.9996 7.77762 13.1416 7.06225 13.4179 6.39478C13.6941 5.72731 14.0992 5.12084 14.61 4.61004C15.1208 4.09924 15.7273 3.69412 16.3948 3.41786C17.0622 3.1416 17.7776 2.99961 18.5 3V3Z" fill="#011E41"/>
</g>
<defs>
<clipPath id="clip0_74_766">
<rect width="48" height="48" fill="white"/>
</clipPath>
</defs>
</svg>
