<svg width="48" height="48" viewBox="0 0 48 48" fill="none" xmlns="http://www.w3.org/2000/svg">
<path d="M38 10H10C9.73503 10.0008 9.48113 10.1064 9.29377 10.2938C9.1064 10.4811 9.00079 10.735 9 11V47C9.00079 47.265 9.1064 47.5189 9.29377 47.7062C9.48113 47.8936 9.73503 47.9992 10 48H38C38.265 47.9992 38.5189 47.8936 38.7062 47.7062C38.8936 47.5189 38.9992 47.265 39 47V11C38.9992 10.735 38.8936 10.4811 38.7062 10.2938C38.5189 10.1064 38.265 10.0008 38 10V10ZM17 42C17 42.2652 16.8946 42.5196 16.7071 42.7071C16.5196 42.8946 16.2652 43 16 43C15.7348 43 15.4804 42.8946 15.2929 42.7071C15.1054 42.5196 15 42.2652 15 42V16C15 15.7348 15.1054 15.4804 15.2929 15.2929C15.4804 15.1054 15.7348 15 16 15C16.2652 15 16.5196 15.1054 16.7071 15.2929C16.8946 15.4804 17 15.7348 17 16V42ZM25 42C25 42.2652 24.8946 42.5196 24.7071 42.7071C24.5196 42.8946 24.2652 43 24 43C23.7348 43 23.4804 42.8946 23.2929 42.7071C23.1054 42.5196 23 42.2652 23 42V16C23 15.7348 23.1054 15.4804 23.2929 15.2929C23.4804 15.1054 23.7348 15 24 15C24.2652 15 24.5196 15.1054 24.7071 15.2929C24.8946 15.4804 25 15.7348 25 16V42ZM33 42C33 42.2652 32.8946 42.5196 32.7071 42.7071C32.5196 42.8946 32.2652 43 32 43C31.7348 43 31.4804 42.8946 31.2929 42.7071C31.1054 42.5196 31 42.2652 31 42V16C31 15.7348 31.1054 15.4804 31.2929 15.2929C31.4804 15.1054 31.7348 15 32 15C32.2652 15 32.5196 15.1054 32.7071 15.2929C32.8946 15.4804 33 15.7348 33 16V42ZM39 4H29V3C29 2.20435 28.6839 1.44129 28.1213 0.87868C27.5587 0.31607 26.7956 0 26 0L22 0C21.2044 0 20.4413 0.31607 19.8787 0.87868C19.3161 1.44129 19 2.20435 19 3V4H9C8.46957 4 7.96086 4.21071 7.58579 4.58579C7.21071 4.96086 7 5.46957 7 6C7 6.53043 7.21071 7.03914 7.58579 7.41421C7.96086 7.78929 8.46957 8 9 8H39C39.5304 8 40.0391 7.78929 40.4142 7.41421C40.7893 7.03914 41 6.53043 41 6C41 5.46957 40.7893 4.96086 40.4142 4.58579C40.0391 4.21071 39.5304 4 39 4V4Z" fill="#011E41"/>
</svg>
