<svg width="48" height="48" viewBox="0 0 48 48" fill="none" xmlns="http://www.w3.org/2000/svg">
<path d="M8.43137 17.562C8.43437 17.566 8.44037 17.567 8.44437 17.571C8.58061 17.7048 8.74115 17.8114 8.91737 17.885C8.93037 17.89 8.94437 17.892 8.95737 17.897C9.12323 17.9618 9.29934 17.9963 9.47737 17.999L9.49237 18.001L9.50537 17.999C9.68515 17.9966 9.86302 17.9617 10.0304 17.896L10.0664 17.886C10.2455 17.8112 10.4085 17.7026 10.5464 17.566L10.5534 17.562L10.5554 17.558L15.5534 12.561C15.6927 12.4217 15.8032 12.2564 15.8787 12.0744C15.9541 11.8924 15.993 11.6974 15.993 11.5004C15.993 11.3034 15.9543 11.1083 15.8789 10.9263C15.8036 10.7442 15.6931 10.5788 15.5539 10.4395C15.4146 10.3002 15.2493 10.1896 15.0673 10.1142C14.8853 10.0388 14.6902 9.99992 14.4932 9.99987C14.0954 9.99978 13.7138 10.1577 13.4324 10.439L10.9914 12.88V1.5C10.9914 1.10218 10.8333 0.720644 10.552 0.43934C10.2707 0.158035 9.8892 0 9.49137 0C9.09355 0 8.71202 0.158035 8.43071 0.43934C8.14941 0.720644 7.99137 1.10218 7.99137 1.5V12.88L5.55137 10.44C5.2686 10.1666 4.88977 10.0153 4.49647 10.0185C4.10317 10.0217 3.72687 10.1793 3.44863 10.4573C3.17038 10.7353 3.01245 11.1114 3.00885 11.5047C3.00525 11.898 3.15627 12.277 3.42937 12.56L8.42737 17.558L8.43137 17.562ZM44.5534 10.44C44.2721 10.1588 43.8906 10.0008 43.4929 10.0008C43.0951 10.0008 42.7137 10.1588 42.4324 10.44L39.9914 12.878V1.5C39.9914 1.10218 39.8333 0.720644 39.552 0.43934C39.2707 0.158035 38.8892 0 38.4914 0C38.0935 0 37.712 0.158035 37.4307 0.43934C37.1494 0.720644 36.9914 1.10218 36.9914 1.5V12.88L34.5514 10.44C34.2686 10.1666 33.8898 10.0153 33.4965 10.0185C33.1032 10.0217 32.7269 10.1793 32.4486 10.4573C32.1704 10.7353 32.0125 11.1114 32.0089 11.5047C32.0053 11.898 32.1563 12.277 32.4294 12.56L37.4274 17.558L37.4294 17.562C37.4334 17.566 37.4394 17.567 37.4434 17.571C37.5796 17.7048 37.7402 17.8114 37.9164 17.885C37.9294 17.89 37.9434 17.892 37.9564 17.897C38.1222 17.9618 38.2983 17.9963 38.4764 17.999L38.4914 18.001L38.5044 17.999C38.6842 17.9966 38.862 17.9617 39.0294 17.896L39.0654 17.886C39.2445 17.8112 39.4075 17.7026 39.5454 17.566L39.5524 17.562L39.5544 17.558L44.5524 12.561C44.6918 12.4217 44.8023 12.2563 44.8778 12.0742C44.9532 11.8922 44.9921 11.6971 44.9921 11.5C44.9921 11.3029 44.9532 11.1078 44.8778 10.9258C44.8023 10.7437 44.6918 10.5783 44.5524 10.439L44.5534 10.44ZM39.9914 29.66L25.0214 18.34C24.7227 18.1208 24.3619 18.0026 23.9914 18.0026C23.6209 18.0026 23.2601 18.1208 22.9614 18.34L7.99137 29.66C7.82759 29.7793 7.68926 29.93 7.58452 30.1035C7.47977 30.2769 7.4107 30.4695 7.38137 30.67L4.99137 48H22.9914V38.29C22.9914 37.99 23.4414 37.89 23.6114 38.15L29.1414 48H42.9914L40.6014 30.67C40.572 30.4695 40.503 30.2769 40.3982 30.1035C40.2935 29.93 40.1552 29.7793 39.9914 29.66V29.66Z" fill="#011E41"/>
</svg>
