<svg width="48" height="48" viewBox="0 0 48 48" fill="none" xmlns="http://www.w3.org/2000/svg">
<path fill-rule="evenodd" clip-rule="evenodd" d="M10.6663 4.04473C11.4617 3.51329 12.2852 3.03178 13.1321 2.60166C13.3291 2.76591 13.5723 2.97249 13.8633 3.21968L13.8634 3.21972L14.1594 3.47109C15.0698 4.24344 16.3151 5.29203 17.7557 6.42252C20.609 8.66154 24.3372 11.31 27.8377 12.7594C31.4394 14.2508 36.2239 15.0628 40.0097 15.5082C41.9221 15.7331 43.617 15.8685 44.8345 15.9477C45.4437 15.9873 45.9345 16.013 46.2746 16.0287C46.4303 16.036 46.5546 16.0411 46.6441 16.0446C47.5409 18.5979 48.0004 21.2875 48 24C48 28.7467 46.5924 33.3869 43.9553 37.3337C41.4822 41.0348 38.0321 43.9703 33.9957 45.8194C33.9855 45.8104 33.9751 45.8011 33.9645 45.7918C33.7098 45.5659 33.3402 45.242 32.8761 44.8455C31.9483 44.053 30.6393 42.9678 29.112 41.7952C26.0885 39.4738 22.0935 36.7187 18.4723 35.2752C14.9529 33.8723 10.434 33.1699 6.82767 32.7843C5.00683 32.5896 3.38308 32.4725 2.19197 32.391L1.80449 32.3646L1.80362 32.3645C1.69647 32.3573 1.59427 32.3503 1.49703 32.3437C1.05723 31.1576 0.710067 29.9336 0.461147 28.6822C-0.464898 24.0266 0.010382 19.201 1.82688 14.8156C3.64339 10.4302 6.71953 6.68188 10.6663 4.04473ZM2.90672 35.4487C4.00229 37.4672 5.3878 39.3289 7.02943 40.9706C10.3859 44.327 14.6623 46.6128 19.3178 47.5388C23.1429 48.2997 27.0827 48.1146 30.7989 47.0168C29.9103 46.2608 28.6926 45.2554 27.2851 44.1747C24.3004 41.8832 20.5777 39.344 17.3614 38.062C14.2442 36.8194 10.0694 36.148 6.50875 35.7673C5.17071 35.6243 3.93906 35.5241 2.90672 35.4487ZM40.9715 7.02848C42.7202 8.77721 44.1852 10.7828 45.3177 12.9723C45.225 12.9666 45.1288 12.9605 45.0293 12.954C43.8508 12.8774 42.2093 12.7462 40.3602 12.5287C36.6231 12.0891 32.1844 11.3122 28.9853 9.98763C25.8848 8.70385 22.4249 6.27312 19.6078 4.06245C18.2787 3.01942 17.1168 2.04496 16.2292 1.29283C18.7174 0.441364 21.342 2.41847e-06 24 2.41847e-06C27.1518 -0.000427467 30.2729 0.620057 33.1849 1.82602C36.0969 3.03198 38.7428 4.79979 40.9715 7.02848Z" fill="#011E41"/>
</svg>
