<svg xmlns="http://www.w3.org/2000/svg" width="389" height="50" viewBox="0 0 389 50" fill="none"><g clip-path="url(#clip0)"><path d="M234.098 40.4632C233.259 41.1383 232.041 41.7378 231.071 40.9938C230.026 40.1923 229.564 38.7875 229.505 37.5462C229.497 37.2454 229.507 36.9444 229.535 36.6446C229.641 36.5924 229.748 36.5447 229.853 36.4915C233.252 34.7726 238.138 32.3007 238.427 28.0845C238.56 26.1318 237.044 24.6117 235.152 24.1842C234.174 23.9656 233.153 24.0037 232.196 24.2946C231.238 24.5855 230.378 25.1186 229.707 25.8383C228.235 27.4113 227.6 29.5216 226.906 31.4858C226.587 32.3702 226.316 33.2702 226.095 34.1821C222.978 35.5639 219.687 36.5366 216.355 37.3099C213.981 37.861 214.986 41.3943 217.365 40.8418C220.232 40.191 223.046 39.3385 225.785 38.2913C225.789 38.3277 225.789 38.3642 225.794 38.4013C226.1 40.7815 227.342 43.3028 229.644 44.4509C232.134 45.6927 234.792 44.6549 236.783 43.053C237.571 42.4191 237.462 41.118 236.783 40.463C236.003 39.7108 234.888 39.8278 234.098 40.4632ZM234.679 27.8963C234.675 27.8928 234.671 27.8894 234.668 27.886C234.691 27.8428 234.692 27.8527 234.679 27.8963ZM234.659 27.8774C234.582 27.7869 234.675 27.7886 234.659 27.8774V27.8774ZM233.247 27.7954C233.636 27.6434 234.072 27.6432 234.462 27.7947C234.311 27.7416 234.548 27.8693 234.669 27.9261C234.633 28.0355 234.558 28.2326 234.541 28.2786C234.422 28.5744 234.268 28.8563 234.084 29.1191C233.325 30.2673 232.155 30.9011 230.958 31.6378C230.907 31.6693 230.853 31.6967 230.802 31.728C231.16 30.6355 231.557 29.5048 232.242 28.6112C232.528 28.2374 232.92 27.9056 233.247 27.7954Z" fill="#D14D1E"></path><path d="M250.895 37.8714C249.929 37.3263 248.909 37.7309 248.298 38.5278C247.543 39.5111 246.922 40.0642 245.733 40.2245C245.181 40.2989 244.838 40.2499 244.493 40.0607C244.097 39.8436 243.718 39.3835 243.462 38.8694C243.456 38.8559 243.454 38.8538 243.449 38.8451C243.441 38.8135 243.433 38.7799 243.419 38.7266C243.385 38.6025 243.351 38.4809 243.324 38.355C243.285 38.1763 243.265 37.9943 243.265 37.8117C243.248 37.4949 243.256 37.1754 243.268 36.8563C244.661 35.8525 246.063 34.8615 247.474 33.8832C249.202 32.6903 250.664 31.2112 251.437 29.2688C252.151 27.4737 251.81 25.2002 250.237 23.9135C248.166 22.2195 245.615 23.4007 243.904 24.9626C242.392 26.3429 241.408 28.2123 240.781 30.1057C240.271 31.677 239.9 33.2874 239.673 34.9194C239.22 35.2502 238.763 35.5758 238.313 35.9103C237.502 36.5127 237.068 37.4853 237.632 38.416C238.001 39.0252 238.898 39.4522 239.662 39.3071C239.768 39.7687 239.929 40.2166 240.144 40.6416C241.192 42.6905 243.32 44.0782 245.727 43.8915C248.344 43.6885 250.069 42.3398 251.575 40.376C252.185 39.5814 251.711 38.3326 250.895 37.8714ZM245.892 28.2814C246.258 27.8148 246.701 27.4085 247.202 27.078C247.4 26.9557 247.607 26.8468 247.821 26.7522C247.825 26.7568 247.827 26.7572 247.831 26.7628C247.869 26.8176 248.01 27.1761 247.932 26.9535C248.042 27.2647 248.03 27.2366 248.014 27.4565C247.976 27.9611 247.638 28.5833 247.27 29.0914C246.607 30.0088 245.711 30.6108 244.793 31.2557C244.623 31.3754 244.453 31.4973 244.283 31.6172C244.634 30.4339 245.102 29.2634 245.891 28.2814H245.892Z" fill="#D14D1E"></path><path d="M347.787 30.9056C346.822 30.3606 345.802 30.7651 345.19 31.5626C344.436 32.5459 343.815 33.099 342.626 33.2594C342.074 33.3337 341.731 33.2848 341.386 33.0955C340.99 32.8784 340.611 32.4183 340.355 31.9042C340.349 31.8908 340.346 31.8888 340.342 31.8799C340.334 31.8483 340.326 31.8149 340.312 31.7615C340.278 31.6374 340.244 31.5157 340.217 31.3898C340.178 31.2112 340.158 31.0291 340.158 30.8465C340.141 30.5298 340.149 30.2103 340.161 29.8911C341.554 28.8873 342.956 27.8963 344.367 26.918C346.095 25.7253 347.557 24.2462 348.33 22.3038C349.043 20.5086 348.702 18.2351 347.13 16.9484C345.059 15.2545 342.508 16.4357 340.797 17.9976C339.285 19.3779 338.301 21.2472 337.674 23.1406C337.164 24.7122 336.793 26.3228 336.565 27.9549C336.113 28.2857 335.656 28.6113 335.206 28.9459C334.395 29.5483 333.961 30.5209 334.525 31.4515C334.895 32.0608 335.791 32.4876 336.555 32.3426C336.661 32.8042 336.823 33.2521 337.037 33.6771C338.086 35.7259 340.214 37.1137 342.621 36.927C345.238 36.724 346.962 35.3753 348.468 33.4115C349.079 32.6156 348.605 31.3668 347.787 30.9056ZM342.784 21.3156C343.151 20.8491 343.594 20.4427 344.095 20.1122C344.293 19.9899 344.5 19.881 344.714 19.7863C344.718 19.7911 344.72 19.7914 344.724 19.797C344.761 19.8518 344.903 20.2103 344.824 19.9877C344.935 20.2989 344.923 20.2708 344.907 20.4907C344.869 20.9952 344.53 21.6175 344.163 22.1256C343.499 23.0429 342.604 23.6451 341.686 24.2899C341.515 24.4097 341.346 24.5313 341.176 24.6513C341.528 23.4681 341.996 22.2978 342.784 21.3156Z" fill="#D14D1E"></path><path d="M266.465 30.0999C267.372 30.3403 268.633 29.8023 268.8 28.8207C269.257 26.1351 266.947 23.9778 264.195 23.9691C262.469 23.9636 260.992 24.7929 259.808 25.9314C259.909 25.356 260.011 24.7816 260.113 24.2082C260.285 23.2341 259.845 22.2358 258.787 21.9553C257.875 21.7136 256.625 22.254 256.452 23.2344C255.414 29.1092 254.286 35.0776 254.178 41.0507C254.159 42.0403 255.063 42.8821 256.076 42.8821C257.195 42.8821 257.861 42.0381 257.974 41.0507C258.33 37.9366 259.042 34.6838 260.359 31.7969C260.937 30.5298 261.661 29.0726 262.816 28.1959C263.225 27.8853 263.807 27.5857 264.308 27.6293C264.593 27.6536 264.774 27.8143 264.979 27.9018C265.199 27.9954 265.089 28.141 265.139 27.847C264.974 28.8219 265.403 29.8183 266.465 30.0999Z" fill="#D14D1E"></path><path d="M365.074 21.2706C365.602 18.3958 363.212 15.9797 360.167 16.5137C358.759 16.7606 357.617 17.6272 356.667 18.6783C356.763 18.1787 356.86 17.6791 356.949 17.1801C357.122 16.2064 356.68 15.2075 355.623 14.9272C354.71 14.6852 353.463 15.2263 353.288 16.2064C352.21 22.2608 350.554 28.3553 350.432 34.5252C350.413 35.5148 351.319 36.3566 352.331 36.3566C353.452 36.3566 354.113 35.5125 354.229 34.5252C354.599 31.3526 355.633 27.9185 357.06 24.9649C357.706 23.6278 358.465 22.2568 359.48 21.1423C359.836 20.7513 360.353 20.1381 360.94 20.0898C361.017 20.0765 361.096 20.0805 361.171 20.1014C361.246 20.1223 361.315 20.1596 361.373 20.2104C361.259 20.1375 361.406 20.3364 361.413 20.2969C361.235 21.2694 361.686 22.2704 362.739 22.5497C363.656 22.7929 364.894 22.2497 365.074 21.2706Z" fill="#D14D1E"></path><path d="M281.02 20.9496C278.365 20.8094 275.418 20.7093 273.07 22.1257C270.748 23.5269 269.687 26.0582 270.99 28.49C271.993 30.362 274.123 31.4963 274.739 33.5777C275.188 35.0958 274.819 37.3825 273.028 37.9245C271.108 38.5057 269.443 36.3711 269.214 34.7314C269.077 33.7503 267.772 33.2156 266.879 33.4524C265.781 33.7434 265.416 34.7208 265.553 35.7052C265.897 38.1702 267.892 40.3445 270.242 41.2491C272.906 42.2751 275.743 41.2755 277.38 39.0839C279.012 36.8981 279.049 33.9185 277.976 31.5116C277.424 30.2729 276.542 29.2694 275.602 28.2874C275.041 27.7012 274.114 26.8271 274.174 26.1817C274.204 25.8591 274.19 26.131 274.191 26.1274C274.151 26.2425 274.262 25.9677 274.268 25.9572C274.397 25.7601 274.56 25.5858 274.749 25.4418C275.207 25.1138 275.732 24.8839 276.289 24.7675C277.82 24.3935 279.459 24.5295 281.02 24.6119C282.044 24.666 282.918 23.7315 282.918 22.7805C282.918 21.7444 282.048 21.0038 281.02 20.9496Z" fill="#D14D1E"></path><path d="M294.516 32.2173C293.632 31.983 292.32 32.5099 292.181 33.4965C291.845 35.8942 289.842 36.834 287.608 37.2125C287.588 37.2159 287.577 37.2158 287.56 37.2181C287.54 37.1509 287.519 37.0811 287.507 37.042C287.504 36.9738 287.484 36.7563 287.483 36.7244C287.419 35.5574 287.5 34.3873 287.722 33.2385C288.032 31.6415 288.424 30.0537 288.879 28.4797C289.077 28.4423 289.276 28.4015 289.475 28.3673C289.86 28.3013 290.247 28.2416 290.635 28.1882C290.621 28.189 290.608 28.191 290.594 28.1913C290.647 28.1876 290.699 28.1813 290.752 28.1724C290.776 28.1694 290.812 28.1646 290.821 28.164C290.862 28.1579 290.904 28.1539 290.943 28.1493C291.131 28.1276 291.319 28.1077 291.508 28.0896C292.165 28.0184 292.827 27.9883 293.488 27.9993C294.482 28.0281 295.431 27.1362 295.386 26.168C295.377 25.6852 295.174 25.2248 294.82 24.8834C294.466 24.5419 293.989 24.346 293.488 24.3366C292.37 24.3213 291.253 24.4003 290.149 24.5728C291.235 21.584 292.514 18.6637 293.979 15.8289C295.061 13.724 291.788 11.8661 290.701 13.9803C288.854 17.5521 287.29 21.2538 286.023 25.0535C285.988 25.1604 285.953 25.2688 285.918 25.3759C285.149 25.5752 284.399 25.8406 283.679 26.1691C282.783 26.5874 282.472 27.8885 282.998 28.6748C283.171 28.9488 283.416 29.174 283.708 29.3276C284 29.4812 284.329 29.5577 284.661 29.5494C284.084 31.7525 283.674 33.9962 283.679 36.2482C283.681 37.4891 283.841 38.8094 284.757 39.76C285.852 40.8973 287.446 40.9851 288.941 40.7453C292.203 40.2226 295.382 37.7526 295.843 34.4702C295.979 33.4914 295.598 32.5042 294.516 32.2173ZM287.505 37.2249C287.264 37.2451 287.394 37.1413 287.505 37.2249V37.2249Z" fill="#D14D1E"></path><path d="M290.683 28.1804C290.667 28.1827 290.651 28.1856 290.635 28.1879C290.698 28.1884 290.76 28.1802 290.821 28.1636C290.797 28.1671 290.775 28.1687 290.751 28.172C290.728 28.1753 290.721 28.1749 290.683 28.1804Z" fill="#D14D1E"></path><path d="M335.714 16.3479C334.744 15.8001 333.734 16.2112 333.117 17.0049C330.988 19.743 329.692 23.0005 328.458 26.1819C327.824 27.8164 327.217 29.4612 326.539 31.0796C326.236 31.8043 325.91 32.5199 325.556 33.2231C325.484 33.3666 325.405 33.5067 325.33 33.6485C325.136 33.0191 324.982 32.3785 324.871 31.7305C324.63 30.3748 324.512 29.0004 324.313 27.6387C324.092 26.1326 321.471 25.8111 320.843 27.2011C319.845 29.4134 318.902 31.6484 317.943 33.8769C317.093 32.1896 316.572 30.2269 316.147 28.5041C315.44 25.5854 314.962 22.6194 314.717 19.6313C314.516 17.2989 310.718 17.2783 310.92 19.6313C311.213 23.0313 311.716 26.4415 312.557 29.7571C313.368 32.9567 314.498 36.5594 317.01 38.9255C317.798 39.667 319.488 39.6696 319.991 38.5549C320.564 37.2847 321.109 36.0032 321.656 34.7226C321.896 35.5098 322.259 36.2571 322.731 36.9389C323.74 38.3445 325.708 39.0206 327.15 37.7335C328.124 36.8642 328.703 35.381 329.24 34.2338C331.62 29.1431 332.872 23.382 336.395 18.8528C337.011 18.0618 336.527 16.8067 335.714 16.3479ZM325.836 34.8065C325.882 34.8397 325.879 34.8573 325.836 34.8065V34.8065Z" fill="#D14D1E"></path><path d="M379.787 15.709C378.206 17.0929 376.485 18.7791 375.246 20.663C373.94 21.9902 372.602 23.2895 371.233 24.561C373.154 19.0074 374.527 13.2777 376.171 7.61578C376.933 4.99194 372.707 3.87178 371.947 6.49197C369.485 14.9702 367.733 23.6938 363.542 31.5938C362.409 33.7295 365.113 35.8028 366.983 34.155C369.304 32.1095 371.636 30.0505 373.916 27.938C374.739 30.3449 376.744 32.3809 378.78 34.024C379.687 34.7557 380.989 34.8816 381.878 34.024C382.658 33.2716 382.79 31.7708 381.878 31.035C380.024 29.5385 377.238 27.2823 378.046 24.7822C378.231 24.2335 378.478 23.706 378.782 23.2093C380.202 21.7485 381.58 20.2521 382.885 18.6995C384.637 16.6139 381.916 13.8464 379.787 15.709Z" fill="#D14D1E"></path><path d="M387.167 30.5462C384.724 30.5462 384.72 34.2089 387.167 34.2089C389.61 34.2089 389.613 30.5462 387.167 30.5462Z" fill="#D14D1E"></path></g><g clip-path="url(#clip1)"><path d="M29.664 31.4523C29.6729 33.3452 29.2487 35.215 28.4239 36.9187C27.6228 38.5787 26.5043 40.0657 25.1316 41.2959C23.7446 42.53 22.1476 43.5055 20.4163 44.1761C18.6484 44.8699 16.7657 45.2247 14.8665 45.222C13.4541 45.2121 12.0479 45.0323 10.6784 44.6863C9.25358 44.3375 7.87031 43.8366 6.55245 43.1922C5.26843 42.5655 4.06611 41.7837 2.97241 40.8643C1.93721 40.0116 1.07739 38.966 0.440672 37.7857C0.159314 37.3474 0.00663159 36.839 0 36.3182C0 35.5741 0.28842 34.8935 0.857169 34.2954C1.13114 33.9996 1.46447 33.7649 1.83536 33.6067C2.20625 33.4485 2.60636 33.3704 3.00951 33.3775C4.14741 33.3775 5.03625 33.8885 5.58013 34.8553L5.5974 34.8878C5.98073 35.6349 6.52921 36.2849 7.20122 36.7885C7.97086 37.3792 8.80657 37.8783 9.69152 38.2759C10.5748 38.6787 11.4995 38.9835 12.4491 39.1849C13.2657 39.3663 14.0987 39.4643 14.9351 39.4774C16.0859 39.4745 17.2264 39.259 18.2989 38.8418C19.3575 38.4442 20.3377 37.8634 21.1949 37.1259C22.0138 36.4101 22.6875 35.5435 23.1793 34.5733C23.6716 33.607 23.9254 32.5368 23.9193 31.4523C23.9193 30.3466 23.7061 29.3802 23.2854 28.5784C22.8366 27.7381 22.2153 27.002 21.4623 26.4184C20.5561 25.7199 19.5714 25.1299 18.5281 24.6602C18.4445 24.6217 18.3574 24.5838 18.2706 24.546L17.4361 24.1753L19.7631 18.7478L20.4562 19.0578C21.1192 19.3545 21.752 19.6577 22.3366 19.9593C23.7471 20.6752 25.0435 21.5966 26.1835 22.6932C27.2736 23.7584 28.1443 25.027 28.7462 26.4273C29.3551 27.8411 29.664 29.5317 29.664 31.4523ZM27.6883 5.95311L27.6726 5.93042C26.8741 4.79891 25.9071 3.79638 24.805 2.95771C23.8154 2.21417 22.7313 1.60549 21.5813 1.14766C20.5019 0.723803 19.3785 0.422059 18.232 0.248063C17.1633 0.0863623 16.0841 0.00345124 15.0033 0C13.3806 0.00713748 11.7686 0.261338 10.2225 0.753858C8.64508 1.24219 7.16461 2.00111 5.84724 2.99669C4.54314 3.98536 3.45119 5.2262 2.63633 6.6454C1.79643 8.10112 1.37066 9.78319 1.37066 11.645C1.37066 13.3039 1.83196 14.7977 2.74142 16.0853C3.6433 17.3498 4.76195 18.4445 6.04557 19.3189C7.39814 20.2453 8.84923 21.0189 10.3723 21.6256C11.2307 21.9709 12.104 22.298 12.9674 22.5968L13.6248 22.8244L15.9866 17.3154L15.2222 17.0553C14.942 16.9599 14.651 16.8619 14.3494 16.7611C13.1621 16.3664 12.0008 15.8975 10.8723 15.3572C9.87895 14.8948 8.95859 14.2894 8.14049 13.5605C7.49714 12.9728 7.18445 12.3468 7.18445 11.645C7.18445 10.519 7.42067 9.58357 7.88651 8.86504C8.3528 8.13309 8.98492 7.52125 9.73168 7.07907C10.5266 6.61073 11.3899 6.2697 12.2903 6.06836C13.1798 5.86026 14.0897 5.75168 15.0033 5.74462C15.5709 5.74462 16.2288 5.77817 16.9577 5.84408C17.6664 5.91155 18.3634 6.07021 19.0315 6.31613C19.7607 6.58922 20.4491 6.96067 21.0777 7.42018C21.7227 7.88394 22.2998 8.53617 22.7995 9.36807C23.3903 10.3153 24.2732 10.8166 25.3526 10.8166C26.2111 10.8166 26.9178 10.5134 27.4519 9.9161C27.9673 9.33626 28.2435 8.58251 28.2248 7.80697C28.2359 7.14921 28.0489 6.50332 27.6883 5.95311Z" fill="url(#paint0_linear)"></path><path d="M19.5358 19.2777L15.7742 17.8094L13.8511 22.2954L17.6126 23.7636L19.5358 19.2777Z" fill="#F8C6A5"></path><path d="M14.8324 0.0575645C14.0365 0.0573514 13.2527 0.253252 12.5505 0.627948C11.8482 1.00264 11.2491 1.54459 10.8061 2.20587C10.3631 2.86716 10.0898 3.6274 10.0105 4.4194C9.93111 5.2114 10.0481 6.01075 10.3511 6.74678C10.9697 6.44771 11.6203 6.22028 12.2904 6.0689C13.18 5.8608 14.0899 5.75222 15.0034 5.74515C15.5711 5.74515 16.229 5.7787 16.9579 5.84461C17.6665 5.91208 18.3636 6.07074 19.0317 6.31666C19.1588 6.36294 19.2862 6.4177 19.4136 6.47237C19.6653 5.74309 19.7389 4.96419 19.6282 4.20068C19.5176 3.43717 19.2259 2.7112 18.7776 2.08337C18.3292 1.45555 17.7372 0.944086 17.0509 0.591675C16.3646 0.239265 15.6039 0.056132 14.8324 0.0575645Z" fill="#21254F"></path><path d="M19.855 38.0914C19.3582 38.3847 18.8376 38.6355 18.2986 38.8413C17.2261 39.2585 16.0856 39.474 14.9348 39.477C14.0984 39.4638 13.2654 39.3658 12.4488 39.1844C11.9556 39.0801 11.4689 38.947 10.9912 38.7856C10.7393 39.5149 10.6654 40.2939 10.7759 41.0576C10.8864 41.8213 11.178 42.5475 11.6264 43.1755C12.0747 43.8035 12.6669 44.3151 13.3533 44.6676C14.0397 45.0201 14.8005 45.2033 15.5721 45.2019C15.6433 45.2019 15.7126 45.1943 15.7832 45.1912C15.8998 45.1843 16.0163 45.1765 16.1326 45.1669C16.9151 45.0764 17.6637 44.7964 18.3135 44.3511C18.9633 43.9058 19.4946 43.3086 19.8614 42.6115C20.2281 41.9143 20.4192 41.1382 20.4181 40.3504C20.417 39.5627 20.2237 38.7871 19.855 38.091V38.0914Z" fill="#D14D1E"></path><path d="M19.0316 6.31577C18.3635 6.06985 17.6665 5.91119 16.9578 5.84372C16.2289 5.77781 15.571 5.74426 15.0034 5.74426C14.0899 5.75129 13.1799 5.85984 12.2904 6.06791C11.6202 6.21929 10.9696 6.44672 10.3511 6.74579C10.7254 7.65716 11.3688 8.43267 12.1954 8.96882C13.022 9.50496 13.9925 9.77623 14.9773 9.74641C15.9621 9.71659 16.9144 9.3871 17.7071 8.80193C18.4997 8.21675 19.095 7.40373 19.4136 6.47138C19.2862 6.41681 19.1588 6.36205 19.0316 6.31577Z" fill="#F8C6A5"></path><path d="M12.4498 39.1853C13.2664 39.3667 14.0993 39.4647 14.9357 39.4779C16.0866 39.475 17.227 39.2595 18.2996 38.8422C18.8385 38.6364 19.3591 38.3856 19.8559 38.0923C19.4145 37.2563 18.738 36.5678 17.9099 36.1117C17.0818 35.6557 16.1383 35.452 15.1957 35.5258C14.2532 35.5997 13.353 35.9478 12.606 36.5273C11.859 37.1068 11.298 37.8923 10.9922 38.7869C11.4698 38.9482 11.9565 39.0812 12.4498 39.1853Z" fill="#F8C6A5"></path><path d="M48.2065 26.349C47.3466 25.4799 46.3261 24.7859 45.2017 24.3057C42.8346 23.2851 39.8809 23.3233 37.5447 24.3639C36.7033 24.7365 35.9229 25.2339 35.2299 25.8393V25.0598C35.2334 24.8471 35.1936 24.6359 35.1128 24.4391C35.032 24.2423 34.9118 24.064 34.7598 23.9152C34.4533 23.617 34.0425 23.4501 33.6148 23.4501C33.1872 23.4501 32.7764 23.617 32.4699 23.9152C32.3183 24.0643 32.1986 24.2426 32.1181 24.4394C32.0376 24.6362 31.998 24.8473 32.0017 25.0598V47.6836C32.0017 48.1116 32.1718 48.5222 32.4745 48.8249C32.7772 49.1276 33.1877 49.2977 33.6158 49.2977C34.0439 49.2977 34.4544 49.1276 34.7571 48.8249C35.0598 48.5222 35.2299 48.1116 35.2299 47.6836V39.7626C35.9272 40.3881 36.6888 40.9379 37.502 41.403C38.7353 42.1066 40.1238 42.4937 41.5433 42.5297C42.7865 42.5322 44.0161 42.2701 45.1501 41.7606C47.4099 40.7606 49.2134 38.9507 50.2053 36.6873C50.7084 35.5295 50.9697 34.2811 50.9731 33.0187C50.9765 31.7563 50.7219 30.5065 50.225 29.3461C49.7414 28.2318 49.0572 27.2159 48.2065 26.349ZM47.7453 32.9876C47.7516 34.224 47.3903 35.4344 46.7072 36.4651C46.0242 37.4958 45.0503 38.3003 43.9091 38.7763C42.3723 39.4171 40.6443 39.4235 39.1028 38.7942C38.3744 38.4903 37.7124 38.047 37.1541 37.4892C36.5818 36.911 36.1188 36.2341 35.7875 35.4912C35.4346 34.7008 35.2451 33.8473 35.2303 32.9818V32.7379C35.248 31.9275 35.4367 31.1299 35.7839 30.3974C36.1188 29.6847 36.5807 29.039 37.147 28.4917C37.7154 27.951 38.3783 27.5192 39.1028 27.218C40.6296 26.5913 42.342 26.5915 43.8687 27.2186C45.3954 27.8456 46.6136 29.049 47.2592 30.5679C47.5844 31.3329 47.7498 32.1563 47.7453 32.9876Z" fill="#21254F"></path><path d="M62.8221 23.4457C61.4806 23.435 60.1554 23.7397 58.9532 24.3351C58.1534 24.7319 57.4073 25.2286 56.7326 25.8134V25.0598C56.7362 24.847 56.6963 24.6357 56.6153 24.4389C56.5343 24.242 56.414 24.0638 56.2616 23.9152C55.9551 23.6173 55.5445 23.4506 55.117 23.4506C54.6896 23.4506 54.279 23.6173 53.9724 23.9152C53.8208 24.0642 53.7011 24.2426 53.6206 24.4393C53.5401 24.6361 53.5005 24.8472 53.5041 25.0598V40.9153C53.5026 41.1277 53.5432 41.3384 53.6238 41.535C53.7044 41.7315 53.8232 41.9101 53.9734 42.0604C54.1236 42.2106 54.3022 42.3295 54.4988 42.4101C54.6954 42.4907 54.906 42.5314 55.1184 42.5299C55.3306 42.5323 55.5411 42.4921 55.7374 42.4116C55.9337 42.3311 56.1118 42.2119 56.2612 42.0612C56.4137 41.9124 56.5343 41.734 56.6154 41.5369C56.6965 41.3399 56.7366 41.1284 56.733 40.9153V32.6639C56.7551 31.8847 56.9378 31.1184 57.2697 30.4131C57.6018 29.6985 58.0528 29.0454 58.6034 28.4818C59.1487 27.9258 59.7931 27.4766 60.5033 27.1573C61.2329 26.8326 62.0235 26.668 62.8221 26.6744C63.3383 26.6744 63.764 26.5189 64.0866 26.2132C64.244 26.0651 64.3694 25.8863 64.4551 25.6879C64.5409 25.4895 64.5851 25.2757 64.5851 25.0595C64.5851 24.8434 64.5409 24.6296 64.4551 24.4312C64.3694 24.2328 64.244 24.054 64.0866 23.9059C63.7631 23.6007 63.3378 23.4457 62.8221 23.4457Z" fill="#21254F"></path><path d="M66.6498 18.3065C66.3715 18.5846 66.182 18.939 66.1052 19.3248C66.0284 19.7106 66.0677 20.1105 66.2181 20.474C66.3685 20.8375 66.6234 21.1482 66.9504 21.3668C67.2774 21.5854 67.6619 21.7022 68.0553 21.7023C68.4487 21.7025 68.8333 21.5859 69.1604 21.3675C69.4876 21.1491 69.7426 20.8385 69.8933 20.4751C70.044 20.1118 70.0835 19.7119 70.0069 19.326C69.9304 18.9402 69.7411 18.5857 69.463 18.3074C69.0893 17.9357 68.5837 17.727 68.0566 17.7268C67.5295 17.7266 67.0237 17.9351 66.6498 18.3065Z" fill="#21254F"></path><path d="M66.9121 23.9144C66.7598 24.063 66.6395 24.2413 66.5585 24.4381C66.4775 24.6349 66.4376 24.8462 66.4411 25.059V40.9144C66.4395 41.1274 66.48 41.3387 66.5604 41.536C66.6407 41.7333 66.7594 41.9127 66.9094 42.0639C67.0595 42.2151 67.238 42.3352 67.4346 42.4171C67.6313 42.499 67.8422 42.5412 68.0553 42.5412C68.2683 42.5412 68.4792 42.499 68.6759 42.4171C68.8726 42.3352 69.0511 42.2151 69.2011 42.0639C69.3512 41.9127 69.4698 41.7333 69.5502 41.536C69.6305 41.3387 69.6711 41.1274 69.6694 40.9144V25.0589C69.673 24.8462 69.6333 24.6351 69.5526 24.4383C69.4719 24.2415 69.352 24.0632 69.2002 23.9143C68.8946 23.615 68.4839 23.4474 68.0561 23.4474C67.6284 23.4475 67.2177 23.6151 66.9121 23.9144Z" fill="#21254F"></path><path d="M85.2373 25.542C84.2537 24.5627 83.0075 23.8892 81.6494 23.6027C80.2913 23.3162 78.8793 23.4289 77.5839 23.9274C77.0922 24.1233 76.6222 24.3699 76.1817 24.6632C76.113 24.3792 75.9658 24.1203 75.757 23.9159C75.4505 23.6182 75.0401 23.4517 74.6129 23.4517C74.1857 23.4517 73.7753 23.6182 73.4688 23.9159C73.3168 24.0647 73.1967 24.2429 73.1158 24.4397C73.035 24.6365 72.9952 24.8478 72.9988 25.0605V40.9159C72.9952 41.1286 73.035 41.3398 73.1159 41.5366C73.1967 41.7334 73.3168 41.9117 73.4688 42.0605C73.7753 42.3582 74.1857 42.5247 74.6129 42.5247C75.0401 42.5247 75.4505 42.3582 75.757 42.0605C75.909 41.9117 76.0291 41.7334 76.1099 41.5366C76.1907 41.3398 76.2306 41.1286 76.227 40.9159V30.4653C76.2471 29.9607 76.3609 29.4643 76.5625 29.0013C76.7562 28.5562 77.0386 28.1553 77.3925 27.823C77.7585 27.4815 78.1817 27.2069 78.6427 27.0117C79.6134 26.6141 80.7016 26.6145 81.672 27.013C82.1416 27.2077 82.5687 27.4922 82.9293 27.8506C83.2913 28.2154 83.5826 28.6441 83.7885 29.115C83.9991 29.5932 84.1068 30.1103 84.1049 30.6327V40.9159C84.1035 41.1283 84.1443 41.3389 84.225 41.5354C84.3056 41.7319 84.4245 41.9104 84.5747 42.0606C84.7249 42.2108 84.9034 42.3297 85.0999 42.4104C85.2965 42.491 85.507 42.5319 85.7194 42.5305C85.9318 42.5327 86.1424 42.4923 86.3389 42.4117C86.5353 42.331 86.7136 42.2117 86.8631 42.0609C87.0151 41.9121 87.1352 41.7338 87.216 41.537C87.2968 41.3402 87.3367 41.129 87.3331 40.9163V30.6327C87.3375 29.6724 87.1468 28.7212 86.7725 27.8367C86.4129 26.9804 85.8917 26.2012 85.2373 25.542Z" fill="#21254F"></path><path d="M106.128 24.3263C105.977 24.4756 105.857 24.6539 105.776 24.8506C105.695 25.0473 105.655 25.2583 105.657 25.4709V26.0193C104.955 25.3924 104.167 24.8683 103.318 24.4626C102.105 23.885 100.781 23.5767 99.4381 23.5588C98.1384 23.5998 96.8581 23.8852 95.6642 24.4003C94.5397 24.8858 93.5161 25.5779 92.6466 26.4406C91.3278 27.7918 90.4363 29.5016 90.0834 31.3565C89.7305 33.2114 89.9319 35.1291 90.6624 36.8703C91.1397 37.9921 91.8349 39.008 92.7079 39.8591C93.5753 40.6977 94.5942 41.3638 95.7104 41.8219C98.0714 42.7999 100.994 42.7643 103.331 41.6838C104.173 41.2973 104.955 40.7912 105.652 40.1811C105.624 40.9191 105.461 41.6457 105.171 42.3249C104.854 43.0673 104.398 43.7425 103.828 44.3144C103.252 44.887 102.571 45.3429 101.822 45.6571C100.275 46.3138 98.3982 46.2951 96.9465 45.6593C96.2024 45.3335 95.5263 44.8706 94.9533 44.2949C94.3792 43.7226 93.3343 43.7044 92.6838 44.3513C92.5274 44.5019 92.4034 44.6829 92.3194 44.8831C92.2353 45.0833 92.193 45.2985 92.1951 45.5157C92.1951 45.9382 92.353 46.3105 92.7082 46.665C94.4907 48.4044 96.8908 49.365 99.3812 49.3357C100.664 49.3448 101.934 49.0903 103.114 48.5879C104.238 48.1074 105.259 47.4138 106.119 46.5454C106.97 45.6777 107.654 44.6616 108.137 43.5473C108.636 42.3985 108.891 41.1587 108.886 39.9063V25.4712C108.888 25.2587 108.848 25.0479 108.767 24.8513C108.686 24.6547 108.567 24.4763 108.416 24.3266C108.111 24.0269 107.7 23.859 107.272 23.859C106.845 23.8589 106.434 24.0267 106.128 24.3263ZM105.658 33.3735C105.618 34.1826 105.423 34.9766 105.083 35.712C104.755 36.4198 104.294 37.0581 103.725 37.5922C103.147 38.1324 102.478 38.5651 101.748 38.8701C100.225 39.4902 98.5205 39.4863 97.0013 38.8593C95.4821 38.2322 94.2708 37.0323 93.6294 35.5191C93.3028 34.7547 93.137 33.9312 93.1425 33.1C93.1386 32.2619 93.3048 31.4318 93.6312 30.6599C93.9443 29.9106 94.4 29.2293 94.9731 28.6539C95.5449 28.0833 96.2205 27.6273 96.9636 27.3104C97.7205 26.9922 98.5328 26.8269 99.3539 26.824C100.175 26.821 100.988 26.9804 101.748 27.2931C102.479 27.5995 103.149 28.0376 103.722 28.5857C104.292 29.1338 104.754 29.7843 105.083 30.5032C105.42 31.243 105.615 32.0397 105.658 32.8516L105.658 33.3735Z" fill="#21254F"></path><path d="M128.232 26.3491C127.373 25.4797 126.353 24.7857 125.229 24.3058C122.862 23.2852 119.907 23.3234 117.571 24.364C116.73 24.7366 115.949 25.2341 115.256 25.8395V25.0599C115.26 24.8472 115.22 24.636 115.139 24.4392C115.058 24.2424 114.938 24.0641 114.786 23.9153C114.481 23.6157 114.07 23.4478 113.642 23.4478C113.214 23.4478 112.804 23.6157 112.498 23.9153C112.346 24.0641 112.226 24.2424 112.145 24.4392C112.064 24.636 112.024 24.8472 112.028 25.0599V47.6837C112.026 47.8967 112.067 48.108 112.147 48.3053C112.228 48.5026 112.346 48.682 112.496 48.8332C112.646 48.9845 112.825 49.1045 113.022 49.1864C113.218 49.2683 113.429 49.3105 113.642 49.3105C113.855 49.3105 114.066 49.2683 114.263 49.1864C114.459 49.1045 114.638 48.9845 114.788 48.8332C114.938 48.682 115.057 48.5026 115.137 48.3053C115.217 48.108 115.258 47.8967 115.256 47.6837V39.7627C115.954 40.3882 116.715 40.938 117.528 41.4031C118.762 42.1068 120.15 42.4939 121.57 42.5298C122.813 42.5324 124.043 42.2703 125.177 41.7608C127.437 40.7603 129.24 38.9505 130.232 36.6874C130.735 35.5298 130.997 34.2813 131 33.0188C131.004 31.7564 130.749 30.5065 130.252 29.3462C129.768 28.2316 129.084 27.2157 128.232 26.3491ZM127.771 32.9877C127.775 33.8254 127.609 34.6551 127.284 35.4274C126.644 36.9512 125.428 38.1603 123.9 38.791C122.373 39.4217 120.657 39.4228 119.129 38.7943C118.401 38.4905 117.739 38.0474 117.18 37.4898C116.608 36.9114 116.145 36.2343 115.814 35.4913C115.461 34.7009 115.272 33.8474 115.256 32.982V32.7388C115.275 31.9281 115.464 31.1304 115.811 30.3974C116.145 29.685 116.607 29.0394 117.173 28.4923C117.741 27.9515 118.404 27.5197 119.129 27.2185C120.272 26.7504 121.529 26.6298 122.74 26.8718C123.952 27.1139 125.066 27.7078 125.942 28.5794C126.511 29.1513 126.967 29.8262 127.285 30.568C127.61 31.333 127.776 32.1564 127.771 32.9877H127.771Z" fill="#21254F"></path><path d="M133.652 18.1938C133.499 18.3424 133.379 18.5205 133.298 18.7174C133.217 18.9142 133.177 19.1256 133.181 19.3384V40.9151C133.181 41.3432 133.351 41.7537 133.654 42.0564C133.956 42.3591 134.367 42.5292 134.795 42.5292C135.223 42.5292 135.634 42.3591 135.936 42.0564C136.239 41.7537 136.409 41.3432 136.409 40.9151V19.3387C136.413 19.1262 136.373 18.9152 136.293 18.7187C136.212 18.5221 136.092 18.3441 135.94 18.1955C135.635 17.8955 135.224 17.7271 134.796 17.7268C134.368 17.7265 133.957 17.8942 133.652 18.1938Z" fill="#21254F"></path><path d="M154.853 26.3463C153.989 25.4834 152.973 24.7863 151.857 24.2896C149.496 23.23 146.703 23.3113 144.462 24.2674C143.33 24.7443 142.302 25.4387 141.436 26.3111C140.118 27.6816 139.228 29.4073 138.876 31.2763C138.524 33.1453 138.726 35.0763 139.456 36.8325C139.933 37.9544 140.628 38.9703 141.501 39.8213C143.289 41.5524 145.686 42.5115 148.175 42.492C149.572 42.4981 150.946 42.136 152.159 41.4421C152.983 40.9758 153.752 40.4183 154.451 39.78V40.9529C154.449 41.1659 154.489 41.3772 154.57 41.5745C154.65 41.7718 154.769 41.9512 154.919 42.1024C155.069 42.2537 155.247 42.3737 155.444 42.4556C155.641 42.5375 155.852 42.5797 156.065 42.5797C156.278 42.5797 156.489 42.5375 156.685 42.4556C156.882 42.3737 157.06 42.2537 157.211 42.1024C157.361 41.9512 157.479 41.7718 157.56 41.5745C157.64 41.3772 157.68 41.1659 157.679 40.9529V33.0622C157.685 31.7886 157.424 30.5279 156.911 29.362C156.417 28.2383 155.72 27.2158 154.853 26.3463ZM154.451 33.0507C154.413 33.9124 154.218 34.7599 153.873 35.5507C153.226 37.0323 152.032 38.2075 150.541 38.8323C149.007 39.4608 147.285 39.4542 145.756 38.814C144.256 38.1754 143.061 36.9807 142.423 35.4805C142.096 34.7164 141.93 33.8932 141.936 33.0622C141.932 32.2242 142.098 31.3941 142.425 30.6222C142.738 29.8728 143.193 29.1915 143.767 28.6161C144.338 28.0455 145.014 27.5895 145.757 27.2726C146.521 26.947 147.344 26.7814 148.174 26.7862C149.012 26.7825 149.842 26.9484 150.614 27.274C152.129 27.9035 153.334 29.1073 153.964 30.6222C154.287 31.3909 154.452 32.2167 154.451 33.0507Z" fill="#21254F"></path><path d="M172.58 25.5415C171.596 24.5621 170.35 23.8884 168.992 23.6019C167.634 23.3154 166.222 23.4282 164.927 23.9269C164.435 24.1229 163.966 24.3695 163.525 24.6627C163.456 24.3789 163.309 24.12 163.101 23.9153C162.795 23.6161 162.384 23.4485 161.957 23.4485C161.529 23.4485 161.118 23.6161 160.812 23.9153C160.66 24.064 160.54 24.2422 160.459 24.439C160.378 24.6359 160.338 24.8471 160.342 25.0599V40.9153C160.338 41.1281 160.378 41.3394 160.459 41.5362C160.54 41.733 160.66 41.9113 160.812 42.0599C161.118 42.3599 161.529 42.5279 161.957 42.5279C162.385 42.5279 162.796 42.3599 163.102 42.0599C163.253 41.9109 163.373 41.7326 163.454 41.5358C163.534 41.339 163.574 41.128 163.571 40.9153V30.4647C163.591 29.9601 163.705 29.4637 163.906 29.0007C164.099 28.5552 164.382 28.1542 164.736 27.8225C165.102 27.4807 165.526 27.206 165.987 27.0112C166.958 26.6139 168.046 26.6144 169.016 27.0125C169.485 27.2069 169.912 27.4915 170.272 27.85C170.635 28.2144 170.926 28.6431 171.131 29.114C171.342 29.5924 171.45 30.1096 171.448 30.6322V40.9153C171.448 41.1274 171.49 41.3373 171.571 41.5332C171.652 41.7291 171.771 41.9071 171.921 42.057C172.071 42.2069 172.249 42.3259 172.445 42.407C172.64 42.4882 172.85 42.5299 173.062 42.5299C173.274 42.5299 173.484 42.4882 173.68 42.407C173.876 42.3259 174.054 42.2069 174.204 42.057C174.354 41.9071 174.473 41.7291 174.554 41.5332C174.635 41.3373 174.677 41.1274 174.677 40.9153V30.6322C174.681 29.6719 174.49 28.7207 174.116 27.8362C173.756 26.9796 173.235 26.2005 172.58 25.5415Z" fill="#21254F"></path><path d="M189.782 40.1143L184.254 31.2258L189.38 26.2421C189.532 26.0933 189.652 25.9151 189.733 25.7183C189.814 25.5215 189.854 25.3103 189.85 25.0975C189.853 24.885 189.812 24.6741 189.732 24.4775C189.651 24.2809 189.531 24.1025 189.38 23.9529C189.075 23.6538 188.664 23.4862 188.236 23.486C187.809 23.4858 187.398 23.6531 187.092 23.9521L180.315 30.6964V19.376C180.317 19.1636 180.277 18.9529 180.196 18.7564C180.116 18.5599 179.996 18.3817 179.845 18.2324C179.54 17.9323 179.128 17.7641 178.7 17.7641C178.272 17.7641 177.861 17.9323 177.556 18.2324C177.405 18.3819 177.285 18.5603 177.204 18.7569C177.124 18.9535 177.083 19.1644 177.086 19.377V40.9153C177.082 41.1283 177.122 41.3397 177.203 41.5367C177.284 41.7337 177.404 41.9122 177.557 42.0612C177.862 42.3608 178.273 42.5284 178.701 42.5282C179.13 42.5279 179.54 42.3598 179.846 42.0599C179.997 41.9108 180.117 41.7325 180.198 41.5357C180.279 41.339 180.318 41.1279 180.315 40.9152V35.1582L181.908 33.5645L187.027 41.7551C187.36 42.2865 187.842 42.5673 188.422 42.5673C188.646 42.5693 188.866 42.5196 189.067 42.4221C189.268 42.3247 189.444 42.1822 189.58 42.0057C189.843 41.7022 189.991 41.3166 190 40.9153C189.999 40.6338 189.924 40.3575 189.782 40.1143Z" fill="#21254F"></path></g><defs><linearGradient id="paint0_linear" x1="8.53982" y1="1.18891" x2="20.1069" y2="44.358" gradientUnits="userSpaceOnUse"><stop stop-color="#D14D1E"></stop><stop offset="0.319" stop-color="#CB4A22"></stop><stop offset="0.326" stop-color="#C74923"></stop><stop offset="0.429" stop-color="#953E30"></stop><stop offset="0.529" stop-color="#6B353B"></stop><stop offset="0.627" stop-color="#4B2E44"></stop><stop offset="0.72" stop-color="#34294A"></stop><stop offset="0.808" stop-color="#26264E"></stop><stop offset="0.884" stop-color="#21254F"></stop></linearGradient><clipPath id="clip0"><rect width="174" height="40" fill="white" transform="translate(215 4.99991)"></rect></clipPath><clipPath id="clip1"><rect width="190" height="49.3363" fill="white"></rect></clipPath></defs></svg>