<svg width="48" height="48" viewBox="0 0 48 48" fill="none" xmlns="http://www.w3.org/2000/svg">
<g clip-path="url(#clip0_74_1492)">
<path d="M6.61974 31.2394C7.42377 31.7645 8.36979 32.0299 9.32964 31.9994C10.2895 32.0299 11.2355 31.7645 12.0395 31.2394C13.4313 30.3977 15.0332 29.9677 16.6594 29.9995C17.4474 29.9936 18.2332 30.0842 18.9993 30.2694V16H1.99992C1.47 16.0016 0.962228 16.2128 0.587512 16.5875C0.212796 16.9622 0.00158267 17.47 0 17.9999L0 30.1994C0.657612 30.0617 1.32806 29.9947 1.99992 29.9995C3.62612 29.9677 5.22801 30.3976 6.61974 31.2394V31.2394ZM45.9982 16H28.9989V30.2694C29.7614 30.0835 30.544 29.9929 31.3288 29.9995C32.955 29.9677 34.5568 30.3977 35.9486 31.2394C36.7669 31.7364 37.706 31.9993 38.6635 31.9993C39.621 31.9993 40.56 31.7364 41.3784 31.2394C42.7701 30.3976 44.372 29.9677 45.9982 29.9995C46.6701 29.9947 47.3405 30.0617 47.9981 30.1994V17.9999C47.9966 17.47 47.7853 16.9622 47.4106 16.5875C47.0359 16.2128 46.5281 16.0016 45.9982 16V16ZM45.9982 41.999C44.3698 41.9665 42.7658 42.398 41.3734 43.2429C40.5554 43.7374 39.6178 43.9988 38.662 43.9988C37.7062 43.9988 36.7686 43.7374 35.9506 43.2429C34.5579 42.3978 32.9535 41.9664 31.3248 41.999C29.697 41.9665 28.0936 42.3979 26.702 43.2429C25.8978 43.7658 24.9528 44.0296 23.9941 43.9989C23.0351 44.0296 22.0897 43.7658 21.2852 43.2429C19.8928 42.398 18.2887 41.9665 16.6604 41.999C15.0323 41.9667 13.4286 42.3981 12.0365 43.2429C11.2327 43.7656 10.288 44.0294 9.32964 43.9989C8.37161 44.0294 7.42726 43.7655 6.62374 43.2429C5.23162 42.3982 3.62797 41.9668 1.99992 41.999C1.46951 41.999 0.960822 42.2097 0.585764 42.5848C0.210706 42.9598 0 43.4685 0 43.9989C0 44.5293 0.210706 45.038 0.585764 45.4131C0.960822 45.7881 1.46951 45.9988 1.99992 45.9988C2.95828 45.9682 3.90299 46.2321 4.70682 46.7548C6.09834 47.5992 7.70126 48.0307 9.32864 47.9988C10.9567 48.0311 12.5604 47.5996 13.9525 46.7548C14.7566 46.2319 15.7017 45.9681 16.6604 45.9988C17.6197 45.968 18.5654 46.2318 19.3702 46.7548C20.7621 47.5994 22.3653 48.0308 23.9931 47.9988C25.6211 48.0306 27.2246 47.5992 28.6169 46.7548C29.4342 46.2601 30.3714 45.9986 31.3268 45.9986C32.2822 45.9986 33.2193 46.2601 34.0367 46.7548C35.4418 47.5696 37.0372 47.9987 38.6615 47.9987C40.2858 47.9987 41.8812 47.5696 43.2863 46.7548C44.0919 46.2317 45.0383 45.9679 45.9982 45.9988C46.5286 45.9988 47.0373 45.7881 47.4124 45.4131C47.7874 45.038 47.9981 44.5293 47.9981 43.9989C47.9981 43.4685 47.7874 42.9598 47.4124 42.5848C47.0373 42.2097 46.5286 41.999 45.9982 41.999ZM45.9982 33.9993C44.3698 33.9668 42.7658 34.3983 41.3734 35.2433C40.5554 35.7378 39.6178 35.9992 38.662 35.9992C37.7062 35.9992 36.7686 35.7378 35.9506 35.2433C34.5579 34.3981 32.9535 33.9667 31.3248 33.9993C29.697 33.9668 28.0936 34.3982 26.702 35.2433C25.8978 35.7661 24.9528 36.03 23.9941 35.9992C23.0351 36.0299 22.0897 35.7661 21.2852 35.2433C19.8928 34.3983 18.2887 33.9668 16.6604 33.9993C15.0323 33.967 13.4286 34.3984 12.0365 35.2433C11.2327 35.7659 10.288 36.0297 9.32964 35.9992C8.37161 36.0297 7.42726 35.7658 6.62374 35.2433C5.23162 34.3985 3.62797 33.9671 1.99992 33.9993C1.46951 33.9993 0.960822 34.21 0.585764 34.5851C0.210706 34.9601 0 35.4688 0 35.9992C0 36.5296 0.210706 37.0383 0.585764 37.4134C0.960822 37.7884 1.46951 37.9991 1.99992 37.9991C2.95828 37.9686 3.90299 38.2324 4.70682 38.7551C6.09834 39.5995 7.70126 40.031 9.32864 39.9991C10.9567 40.0314 12.5604 39.6 13.9525 38.7551C14.7566 38.2323 15.7017 37.9684 16.6604 37.9991C17.6197 37.9683 18.5654 38.2321 19.3702 38.7551C20.7621 39.5997 22.3653 40.0312 23.9931 39.9991C25.6211 40.0309 27.2246 39.5995 28.6169 38.7551C29.4342 38.2604 30.3714 37.9989 31.3268 37.9989C32.2822 37.9989 33.2193 38.2604 34.0367 38.7551C35.4418 39.5699 37.0372 39.999 38.6615 39.999C40.2858 39.999 41.8812 39.5699 43.2863 38.7551C44.0919 38.2321 45.0383 37.9682 45.9982 37.9991C46.5286 37.9991 47.0373 37.7884 47.4124 37.4134C47.7874 37.0383 47.9981 36.5296 47.9981 35.9992C47.9981 35.4688 47.7874 34.9601 47.4124 34.5851C47.0373 34.21 46.5286 33.9993 45.9982 33.9993Z" fill="#011E41"/>
<path d="M18.419 10.4098L18.999 9.81979L20.499 8.30985L21.9989 6.78991V26.9991C21.9989 27.5295 22.2096 28.0382 22.5847 28.4133C22.9597 28.7883 23.4684 28.999 23.9988 28.999C24.5292 28.999 25.0379 28.7883 25.413 28.4133C25.788 28.0382 25.9987 27.5295 25.9987 26.9991V6.8699L27.4987 8.34985L28.9986 9.83979L29.5886 10.4198C29.9654 10.7932 30.4751 11.002 31.0056 11.0001C31.5362 10.9982 32.0443 10.7859 32.4185 10.4098C32.7917 10.0328 33.0003 9.52323 32.9984 8.99275C32.9965 8.46228 32.7844 7.95419 32.4085 7.57988L28.9986 4.20001L27.4787 2.70007L25.3388 0.580148C25.1348 0.378989 24.889 0.225338 24.6188 0.130166C24.3996 0.0420123 24.1651 -0.00215766 23.9288 0.000170686H23.9188C23.6857 -0.00311674 23.4543 0.0411139 23.2389 0.130166C22.9639 0.226346 22.7143 0.383615 22.5089 0.590148L20.529 2.59007L18.999 4.14001L15.5791 7.58988C15.2052 7.96647 14.9962 8.47618 14.9981 9.00689C14.999 9.26967 15.0517 9.5297 15.1531 9.77212C15.2545 10.0145 15.4027 10.2346 15.5891 10.4198C15.7756 10.6049 15.9967 10.7515 16.2399 10.8512C16.483 10.9509 16.7434 11.0018 17.0062 11.0009C17.5369 10.999 18.0451 10.7864 18.419 10.4098Z" fill="#011E41"/>
</g>
<defs>
<clipPath id="clip0_74_1492">
<rect width="48" height="48" fill="white"/>
</clipPath>
</defs>
</svg>
