<svg width="48" height="48" viewBox="0 0 48 48" fill="none" xmlns="http://www.w3.org/2000/svg">
<path d="M24 2.23222e-07C19.2533 2.23222e-07 14.6131 1.40758 10.6663 4.04473C6.71954 6.68188 3.6434 10.4302 1.8269 14.8156C0.0103989 19.201 -0.464881 24.0266 0.461164 28.6822C1.38721 33.3377 3.67299 37.6141 7.02945 40.9706C10.3859 44.327 14.6623 46.6128 19.3178 47.5388C23.9734 48.4649 28.799 47.9896 33.1844 46.1731C37.5698 44.3566 41.3181 41.2805 43.9553 37.3337C46.5924 33.3869 48 28.7467 48 24C48.0004 20.8481 47.3799 17.7271 46.174 14.8151C44.968 11.9031 43.2002 9.25717 40.9715 7.02848C38.7428 4.79979 36.0969 3.03198 33.1849 1.82602C30.2729 0.620055 27.1518 -0.000429662 24 2.23222e-07V2.23222e-07ZM32.7273 31.6364C32.7273 31.9257 32.6123 32.2032 32.4078 32.4077C32.2032 32.6123 31.9257 32.7273 31.6364 32.7273H16.3636C16.0743 32.7273 15.7968 32.6123 15.5923 32.4077C15.3877 32.2032 15.2727 31.9257 15.2727 31.6364V16.3636C15.2727 16.0743 15.3877 15.7968 15.5923 15.5922C15.7968 15.3877 16.0743 15.2727 16.3636 15.2727H31.6364C31.9257 15.2727 32.2032 15.3877 32.4078 15.5922C32.6123 15.7968 32.7273 16.0743 32.7273 16.3636V31.6364Z" fill="#011E41"/>
</svg>
