<svg width="48" height="48" viewBox="0 0 48 48" fill="none" xmlns="http://www.w3.org/2000/svg">
<path d="M38.9976 9.01535C37.9176 9.01158 36.8463 9.20821 35.838 9.59527L35.828 9.60027C35.3561 6.76773 33.8404 4.21463 31.5797 2.44397C29.319 0.673318 26.4771 -0.186501 23.614 0.0339125C20.7509 0.254326 18.0741 1.53899 16.111 3.63481C14.148 5.73063 13.041 8.48562 13.0081 11.357C12.0203 11.0005 10.9558 10.9105 9.92212 11.0963C8.88841 11.2821 7.92192 11.737 7.12 12.4153C6.31808 13.0935 5.70907 13.9711 5.3543 14.9596C4.99954 15.9482 4.91156 17.0127 5.09923 18.0461L5.09223 18.0441C4.89692 18.0155 4.69969 18.0021 4.50231 18.0041C3.309 18.0041 2.16457 18.4782 1.32077 19.322C0.47697 20.1658 0.00292969 21.3102 0.00292969 22.5035C0.00292969 23.6968 0.47697 24.8412 1.32077 25.685C2.16457 26.5288 3.309 27.0029 4.50231 27.0029H38.9976C41.0792 27.0032 43.0967 26.282 44.7064 24.9621C46.3162 23.6422 47.4187 21.8052 47.8264 19.7639C47.9388 19.184 47.9957 18.5948 47.9963 18.0041C47.9961 16.8229 47.7631 15.6534 47.3106 14.5623C46.8582 13.4712 46.1952 12.4799 45.3595 11.6451C44.5238 10.8104 43.5318 10.1485 42.4402 9.69724C41.3486 9.24601 40.1788 9.0143 38.9976 9.01535V9.01535ZM28.499 37.0015H22.2069L25.7714 31.2973C25.8758 31.1303 25.9462 30.9443 25.9788 30.7501C26.0113 30.5558 26.0052 30.3571 25.961 30.1652C25.9167 29.9732 25.835 29.7919 25.7207 29.6316C25.6063 29.4712 25.4615 29.335 25.2945 29.2306C25.1274 29.1262 24.9415 29.0557 24.7472 29.0232C24.553 28.9907 24.3542 28.9967 24.1623 29.041C23.9704 29.0853 23.7891 29.167 23.6287 29.2813C23.4684 29.3957 23.3321 29.5405 23.2277 29.7075L18.2284 37.7064C18.0865 37.9334 18.008 38.1943 18.001 38.4619C17.9939 38.7296 18.0587 38.9942 18.1885 39.2284C18.3182 39.4625 18.5083 39.6577 18.739 39.7935C18.9697 39.9294 19.2325 40.0011 19.5003 40.0011H25.7924L22.2279 45.7053C22.1235 45.8723 22.053 46.0583 22.0205 46.2525C21.988 46.4468 21.994 46.6455 22.0383 46.8374C22.0826 47.0294 22.1643 47.2107 22.2786 47.371C22.393 47.5314 22.5378 47.6676 22.7048 47.772C22.8718 47.8764 23.0578 47.9469 23.252 47.9794C23.4463 48.0119 23.645 48.0059 23.8369 47.9616C24.0289 47.9173 24.2102 47.8356 24.3705 47.7213C24.5309 47.6069 24.6671 47.4621 24.7715 47.2951L29.7708 39.2962C29.9127 39.0692 29.9913 38.8083 29.9983 38.5407C30.0053 38.273 29.9406 38.0084 29.8108 37.7742C29.681 37.5401 29.4909 37.3449 29.2603 37.2091C29.0296 37.0732 28.7667 37.0015 28.499 37.0015V37.0015Z" fill="#011E41"/>
</svg>
