<svg width="48" height="48" viewBox="0 0 48 48" fill="none" xmlns="http://www.w3.org/2000/svg">
<path d="M45.9983 41.9987C44.3721 41.967 42.7703 42.3969 41.3785 43.2386C40.5602 43.7357 39.6212 43.9985 38.6637 43.9985C37.7063 43.9985 36.7672 43.7357 35.9489 43.2386C34.5571 42.3969 32.9553 41.967 31.3291 41.9987C29.6999 41.9673 28.0949 42.3972 26.6994 43.2386C25.8998 43.7653 24.9565 44.0308 23.9996 43.9986C23.0394 44.0322 22.0925 43.7666 21.2897 43.2386C19.8936 42.3986 18.2891 41.9689 16.66 41.9987C15.0338 41.967 13.432 42.3969 12.0403 43.2386C11.2363 43.7638 10.2903 44.0291 9.33043 43.9986C8.3706 44.0291 7.4246 43.7638 6.62059 43.2386C5.22886 42.3969 3.62702 41.967 2.00086 41.9987C1.47046 41.9987 0.961779 42.2094 0.586729 42.5845C0.211678 42.9595 0.000976563 43.4682 0.000976562 43.9986C0.000976563 44.529 0.211678 45.0377 0.586729 45.4127C0.961779 45.7878 1.47046 45.9985 2.00086 45.9985C2.96069 45.968 3.90669 46.2333 4.7107 46.7584C6.10243 47.6002 7.70427 48.0301 9.33043 47.9984C10.9566 48.0301 12.5584 47.6002 13.9502 46.7584C14.7542 46.2333 15.7002 45.968 16.66 45.9985C17.62 45.9664 18.5665 46.2319 19.3698 46.7584C20.7653 47.5999 22.3703 48.0297 23.9996 47.9984C25.6255 48.0285 27.2269 47.5987 28.6193 46.7584C29.4358 46.2614 30.3733 45.9985 31.3291 45.9985C32.285 45.9985 33.2225 46.2614 34.039 46.7584C35.4449 47.5707 37.04 47.9984 38.6637 47.9984C40.2874 47.9984 41.8825 47.5707 43.2884 46.7584C44.0918 46.2319 45.0383 45.9664 45.9983 45.9985C46.5287 45.9985 47.0374 45.7878 47.4124 45.4127C47.7875 45.0377 47.9982 44.529 47.9982 43.9986C47.9982 43.4682 47.7875 42.9595 47.4124 42.5845C47.0374 42.2094 46.5287 41.9987 45.9983 41.9987ZM45.9983 33.9992C44.3721 33.9675 42.7703 34.3974 41.3785 35.2391C40.5602 35.7361 39.6212 35.999 38.6637 35.999C37.7063 35.999 36.7672 35.7361 35.9489 35.2391C34.5571 34.3974 32.9553 33.9675 31.3291 33.9992C29.6999 33.9678 28.0949 34.3976 26.6994 35.2391C25.8998 35.7657 24.9565 36.0313 23.9996 35.9991C23.0394 36.0326 22.0925 35.7671 21.2897 35.2391C19.8936 34.3991 18.2891 33.9694 16.66 33.9992C15.0338 33.9675 13.432 34.3974 12.0403 35.2391C11.2363 35.7643 10.2903 36.0296 9.33043 35.9991C8.3706 36.0295 7.4246 35.7642 6.62059 35.2391C5.22886 34.3974 3.62702 33.9675 2.00086 33.9992C1.47046 33.9992 0.961779 34.2099 0.586729 34.5849C0.211678 34.96 0.000976563 35.4687 0.000976562 35.9991C0.000976563 36.5295 0.211678 37.0381 0.586729 37.4132C0.961779 37.7882 1.47046 37.9989 2.00086 37.9989C2.96069 37.9685 3.90669 38.2338 4.7107 38.7589C6.10243 39.6006 7.70427 40.0306 9.33043 39.9988C10.9566 40.0306 12.5584 39.6006 13.9502 38.7589C14.7542 38.2338 15.7002 37.9685 16.66 37.9989C17.62 37.9669 18.5665 38.2323 19.3698 38.7589C20.7653 39.6004 22.3703 40.0302 23.9996 39.9988C25.6255 40.029 27.2269 39.5992 28.6193 38.7589C29.4358 38.2619 30.3733 37.999 31.3291 37.999C32.285 37.999 33.2225 38.2619 34.039 38.7589C35.4449 39.5712 37.04 39.9989 38.6637 39.9989C40.2874 39.9989 41.8825 39.5712 43.2884 38.7589C44.0918 38.2323 45.0383 37.9669 45.9983 37.9989C46.5287 37.9989 47.0374 37.7882 47.4124 37.4132C47.7875 37.0381 47.9982 36.5295 47.9982 35.9991C47.9982 35.4687 47.7875 34.96 47.4124 34.5849C47.0374 34.2099 46.5287 33.9992 45.9983 33.9992ZM8.00051 21.9999H36.4988C38.2096 21.9976 39.8684 21.4116 41.2011 20.339C42.5337 19.2663 43.4606 17.771 43.8284 16.1002C43.9413 15.5744 43.9983 15.0381 43.9984 14.5003C43.9976 12.5116 43.2072 10.6045 41.8009 9.19822C40.3947 7.79195 38.4876 7.00156 36.4988 7.00077C35.5715 6.99895 34.6522 7.17196 33.789 7.51074L33.787 7.51174C33.298 5.22376 31.9816 3.19681 30.0903 1.8196C28.1989 0.442381 25.8657 -0.18816 23.5381 0.0488887C21.2105 0.285937 19.0523 1.37389 17.4774 3.10411C15.9025 4.83434 15.0218 7.08504 15.0041 9.42463C14.2437 9.0892 13.4116 8.94901 12.5833 9.01678C11.755 9.08454 10.9568 9.35812 10.2611 9.81267C9.56534 10.2672 8.99415 10.8883 8.59938 11.6197C8.20462 12.351 7.99876 13.1693 8.00051 14.0004C6.9397 14.0004 5.92235 14.4218 5.17225 15.1719C4.42214 15.922 4.00074 16.9393 4.00074 18.0001C4.00074 19.0609 4.42214 20.0783 5.17225 20.8284C5.92235 21.5785 6.9397 21.9999 8.00051 21.9999V21.9999ZM10.9883 24.5177L7.52453 27.9815C7.20187 28.3149 7.02315 28.7616 7.02692 29.2255C7.03069 29.6894 7.21664 30.1332 7.54467 30.4613C7.8727 30.7893 8.31652 30.9752 8.78041 30.979C9.24429 30.9828 9.69108 30.8041 10.0244 30.4814L13.4882 27.0176C13.8108 26.6843 13.9896 26.2375 13.9858 25.7736C13.982 25.3097 13.7961 24.8659 13.4681 24.5379C13.14 24.2098 12.6962 24.0239 12.2323 24.0201C11.7684 24.0164 11.3216 24.1951 10.9883 24.5177V24.5177ZM22.9856 24.5177L19.5208 27.9815C19.1982 28.3149 19.0194 28.7616 19.0232 29.2255C19.027 29.6894 19.2129 30.1332 19.541 30.4613C19.869 30.7893 20.3128 30.9752 20.7767 30.979C21.2406 30.9828 21.6874 30.8041 22.0207 30.4814L25.4855 27.0176C25.8081 26.6843 25.9869 26.2375 25.9831 25.7736C25.9793 25.3097 25.7934 24.8659 25.4653 24.5379C25.1373 24.2098 24.6935 24.0239 24.2296 24.0201C23.7657 24.0164 23.3189 24.1951 22.9856 24.5177V24.5177ZM34.9809 24.5177L31.5171 27.9815C31.1945 28.3149 31.0157 28.7616 31.0195 29.2255C31.0233 29.6894 31.2092 30.1332 31.5373 30.4613C31.8653 30.7893 32.3091 30.9752 32.773 30.979C33.2369 30.9828 33.6837 30.8041 34.017 30.4814L37.4808 27.0176C37.8034 26.6843 37.9822 26.2375 37.9784 25.7736C37.9746 25.3097 37.7887 24.8659 37.4606 24.5379C37.1326 24.2098 36.6888 24.0239 36.2249 24.0201C35.761 24.0164 35.3142 24.1951 34.9809 24.5177V24.5177Z" fill="#011E41"/>
</svg>
