<svg width="48" height="48" viewBox="0 0 48 48" fill="none" xmlns="http://www.w3.org/2000/svg">
<path d="M46.5403 23.9989H39.9817V18.9999C39.9817 18.7348 39.8763 18.4805 39.6888 18.293C39.5013 18.1055 39.247 18.0002 38.9819 18.0002H37.9921V5.12384L40.4316 7.56433C40.7128 7.84567 41.0942 8.00377 41.492 8.00387C41.8898 8.00396 42.2713 7.84603 42.5526 7.56483C42.834 7.28363 42.9921 6.90218 42.9922 6.50441C42.9923 6.10663 42.8343 5.72511 42.5531 5.44377L37.5562 0.446814L37.5542 0.442815L37.5402 0.433817C37.4042 0.300185 37.2441 0.193646 37.0683 0.119882C37.0543 0.114883 37.0403 0.112884 37.0273 0.107885C36.8614 0.0434429 36.6853 0.00924293 36.5074 0.00690563L36.4944 0.00390625L36.4804 0.00590583C36.301 0.00799552 36.1236 0.0425458 35.9565 0.107885L35.9205 0.119882C35.7415 0.194218 35.5785 0.302523 35.4406 0.438816L35.4326 0.442815L35.4306 0.446814L30.4337 5.44377C30.2944 5.58308 30.184 5.74844 30.1087 5.93042C30.0333 6.11241 29.9946 6.30745 29.9946 6.50441C29.9947 6.70136 30.0335 6.89638 30.1089 7.07833C30.1843 7.26028 30.2949 7.42559 30.4342 7.56483C30.5735 7.70407 30.7388 7.81451 30.9208 7.88983C31.1028 7.96516 31.2978 8.00391 31.4948 8.00387C31.6918 8.00382 31.8868 7.96498 32.0687 7.88956C32.2507 7.81415 32.416 7.70363 32.5552 7.56433L34.9927 5.12484V18.0002H33.9929C33.7278 18.0002 33.4735 18.1055 33.286 18.293C33.0985 18.4805 32.9931 18.7348 32.9931 18.9999V23.9989H23.995V4.00307C23.9918 2.9434 23.5695 1.92804 22.8202 1.17873C22.0709 0.429427 21.0555 0.00707104 19.9958 0.00390625L8.99813 0.00390625C7.93845 0.00707104 6.92309 0.429427 6.17378 1.17873C5.42448 1.92804 5.00212 2.9434 4.99896 4.00307V23.9989H1.46969C1.08321 24.001 0.713146 24.1555 0.439854 24.4288C0.166562 24.7021 0.0120984 25.0721 0.00999792 25.4586V30.1976C0.664113 30.0599 1.33114 29.9928 1.99958 29.9977C3.62551 29.9659 5.22712 30.3957 6.61862 31.2374C7.42251 31.7624 8.36837 32.0277 9.32806 31.9972C10.2877 32.0277 11.2336 31.7624 12.0375 31.2374C13.429 30.3958 15.0306 29.9659 16.6565 29.9977C18.2854 29.9679 19.8896 30.3975 21.2856 31.2374C22.0882 31.7652 23.035 32.0307 23.995 31.9972C24.9518 32.0294 25.8949 31.7639 26.6944 31.2374C28.0897 30.3961 29.6944 29.9663 31.3235 29.9977C32.9494 29.9659 34.551 30.3958 35.9425 31.2374C36.7607 31.7344 37.6996 31.9972 38.6569 31.9972C39.6142 31.9972 40.5532 31.7344 41.3714 31.2374C42.7629 30.3957 44.3645 29.9659 45.9904 29.9977C46.6655 29.9929 47.3391 30.06 48 30.1976V25.4586C47.9979 25.0721 47.8434 24.7021 47.5701 24.4288C47.2969 24.1555 46.9268 24.001 46.5403 23.9989V23.9989ZM45.9904 41.9952C44.3623 41.9627 42.7585 42.3941 41.3664 43.2389C40.5486 43.7333 39.6111 43.9947 38.6554 43.9947C37.6998 43.9947 36.7623 43.7333 35.9445 43.2389C34.552 42.3939 32.9479 41.9626 31.3195 41.9952C29.692 41.9626 28.0888 42.394 26.6974 43.2389C25.8934 43.7617 24.9485 44.0255 23.99 43.9947C23.0312 44.0254 22.086 43.7616 21.2816 43.2389C19.8894 42.3941 18.2857 41.9627 16.6575 41.9952C15.0297 41.9628 13.4263 42.3942 12.0345 43.2389C11.2308 43.7615 10.2862 44.0253 9.32806 43.9947C8.37019 44.0252 7.426 43.7614 6.62262 43.2389C5.23073 42.3943 3.62736 41.9629 1.99958 41.9952C1.46926 41.9952 0.960659 42.2058 0.585664 42.5808C0.21067 42.9558 0 43.4644 0 43.9947C0 44.5251 0.21067 45.0337 0.585664 45.4087C0.960659 45.7837 1.46926 45.9943 1.99958 45.9943C2.95778 45.9637 3.90233 46.2275 4.70602 46.7502C6.09731 47.5944 7.69995 48.0258 9.32706 47.9939C10.9548 48.0262 12.5583 47.5949 13.9501 46.7502C14.7541 46.2274 15.699 45.9636 16.6575 45.9943C17.6167 45.9634 18.5623 46.2272 19.367 46.7502C20.7585 47.5946 22.3616 48.026 23.989 47.9939C25.6167 48.0257 27.22 47.5944 28.612 46.7502C29.4293 46.2556 30.3663 45.9941 31.3215 45.9941C32.2767 45.9941 33.2137 46.2556 34.0309 46.7502C35.4358 47.5648 37.031 47.9938 38.6549 47.9938C40.2789 47.9938 41.8741 47.5648 43.279 46.7502C44.0844 46.2272 45.0306 45.9634 45.9904 45.9943C46.5207 45.9943 47.0293 45.7837 47.4043 45.4087C47.7793 45.0337 47.99 44.5251 47.99 43.9947C47.99 43.4644 47.7793 42.9558 47.4043 42.5808C47.0293 42.2058 46.5207 41.9952 45.9904 41.9952ZM45.9904 33.9968C44.3623 33.9644 42.7585 34.3957 41.3664 35.2406C40.5486 35.735 39.6111 35.9963 38.6554 35.9963C37.6998 35.9963 36.7623 35.735 35.9445 35.2406C34.552 34.3956 32.9479 33.9642 31.3195 33.9968C29.692 33.9643 28.0888 34.3957 26.6974 35.2406C25.8934 35.7633 24.9485 36.0271 23.99 35.9964C23.0312 36.0271 22.086 35.7633 21.2816 35.2406C19.8894 34.3957 18.2857 33.9644 16.6575 33.9968C15.0297 33.9645 13.4263 34.3959 12.0345 35.2406C11.2308 35.7631 10.2862 36.0269 9.32806 35.9964C8.37019 36.0268 7.426 35.7631 6.62262 35.2406C5.23073 34.396 3.62736 33.9646 1.99958 33.9968C1.46926 33.9968 0.960659 34.2075 0.585664 34.5825C0.21067 34.9575 0 35.4661 0 35.9964C0 36.5267 0.21067 37.0353 0.585664 37.4103C0.960659 37.7853 1.46926 37.996 1.99958 37.996C2.95778 37.9654 3.90233 38.2292 4.70602 38.7518C6.09731 39.5961 7.69995 40.0275 9.32706 39.9956C10.9548 40.0279 12.5583 39.5965 13.9501 38.7518C14.7541 38.2291 15.699 37.9653 16.6575 37.996C17.6167 37.9651 18.5623 38.2289 19.367 38.7518C20.7585 39.5963 22.3616 40.0277 23.989 39.9956C25.6167 40.0274 27.22 39.5961 28.612 38.7518C29.4293 38.2572 30.3663 37.9958 31.3215 37.9958C32.2767 37.9958 33.2137 38.2572 34.0309 38.7518C35.4358 39.5665 37.031 39.9955 38.6549 39.9955C40.2789 39.9955 41.8741 39.5665 43.279 38.7518C44.0844 38.2289 45.0306 37.9651 45.9904 37.996C46.5207 37.996 47.0293 37.7853 47.4043 37.4103C47.7793 37.0353 47.99 36.5267 47.99 35.9964C47.99 35.4661 47.7793 34.9575 47.4043 34.5825C47.0293 34.2075 46.5207 33.9968 45.9904 33.9968Z" fill="#011E41"/>
</svg>
