<svg width="50" height="48" viewBox="0 0 50 48" fill="none" xmlns="http://www.w3.org/2000/svg">
<path fill-rule="evenodd" clip-rule="evenodd" d="M30.3864 32.7815H37.3664C38.0807 32.7815 38.7658 32.5016 39.2708 32.0034C39.7759 31.5051 40.0597 30.8294 40.0597 30.1247V26.6168C40.0597 25.9121 39.7759 25.2364 39.2708 24.7381C38.7658 24.2399 38.0807 23.96 37.3664 23.96H27.6932C26.9789 23.96 26.2939 24.2399 25.7888 24.7381C25.2837 25.2364 25 25.9121 25 26.6168V30.1247C25 30.8294 25.2837 31.5051 25.7888 32.0034C26.2939 32.5016 26.9789 32.7815 27.6932 32.7815V34.69C27.6932 34.7513 27.7116 34.8112 27.7462 34.8622C27.7807 34.9132 27.8298 34.9529 27.8872 34.9764C27.9446 34.9998 28.0078 35.006 28.0687 34.994C28.1297 34.982 28.1857 34.9525 28.2296 34.9092L30.3864 32.7815ZM35.0119 29.7336C35.1765 29.0672 35.2588 28.6694 35.2588 28.5401C35.2588 28.2516 35.1729 27.9135 35.0009 27.5256C34.8692 27.2272 34.754 27.02 34.6553 26.904C34.4431 27.262 34.2968 27.5123 34.2163 27.6549C34.604 28.2317 34.7979 28.681 34.7979 29.0026H30.0571C29.7242 29.0026 29.459 28.9097 29.2615 28.7241C29.064 28.5384 28.9652 28.2947 28.9652 27.993C28.9652 27.8936 29.0201 27.7328 29.1298 27.5107C29.2396 27.2885 29.2944 27.1642 29.2944 27.1377C29.2944 27.1311 29.2908 27.1244 29.2835 27.1178C29.1445 27.1178 28.9725 27.32 28.7677 27.7245C28.5775 28.1024 28.4824 28.371 28.4824 28.5301C28.4824 28.8583 28.6396 29.1368 28.9542 29.3656C29.2908 29.6109 29.7188 29.7336 30.2382 29.7336H35.0119ZM32.0599 31.688L32.4495 31.1061L31.5715 30.6287L31.182 31.2006L32.0599 31.688Z" fill="#011E41"/>
<mask id="path-2-outside-1_1642_5780" maskUnits="userSpaceOnUse" x="35.3867" y="13.5759" width="15" height="18" fill="black">
<rect fill="white" x="35.3867" y="13.5759" width="15" height="18"/>
<path fill-rule="evenodd" clip-rule="evenodd" d="M39.5397 28.0462H43.1596L45.3073 30.1265C45.3244 30.1431 45.3433 30.1575 45.3636 30.1698C45.3957 30.1891 45.4313 30.2028 45.4688 30.2101C45.5299 30.2218 45.5933 30.2158 45.6509 30.1927C45.7085 30.1695 45.7578 30.1304 45.7924 30.0802C45.827 30.03 45.8455 29.9709 45.8455 29.9105V28.0462C46.6818 28.0462 47.4837 27.7244 48.075 27.1517C48.6663 26.579 48.9985 25.8021 48.9985 24.9922V17.6299C48.9985 16.82 48.6663 16.0431 48.075 15.4704C47.4837 14.8977 46.6818 14.5759 45.8455 14.5759H42.2256H39.5397C38.7034 14.5759 37.9015 14.8977 37.3102 15.4704C36.7189 16.0431 36.3867 16.82 36.3867 17.6299V24.9922C36.3867 25.8021 36.7189 26.579 37.3102 27.1517C37.9015 27.7244 38.7034 28.0462 39.5397 28.0462ZM44.3284 23.0281L45.2485 25.3259H46.1382L43.2315 18.0719H42.5086L39.5867 25.3259H40.4562L41.3661 23.0281H44.3284ZM43.2011 20.0337L44.0605 22.2721H41.6694L42.5389 20.0337C42.6771 19.6548 42.7833 19.3073 42.8574 18.991C42.9754 19.4028 43.0899 19.7503 43.2011 20.0337Z"/>
</mask>
<path fill-rule="evenodd" clip-rule="evenodd" d="M39.5397 28.0462H43.1596L45.3073 30.1265C45.3244 30.1431 45.3433 30.1575 45.3636 30.1698C45.3957 30.1891 45.4313 30.2028 45.4688 30.2101C45.5299 30.2218 45.5933 30.2158 45.6509 30.1927C45.7085 30.1695 45.7578 30.1304 45.7924 30.0802C45.827 30.03 45.8455 29.9709 45.8455 29.9105V28.0462C46.6818 28.0462 47.4837 27.7244 48.075 27.1517C48.6663 26.579 48.9985 25.8021 48.9985 24.9922V17.6299C48.9985 16.82 48.6663 16.0431 48.075 15.4704C47.4837 14.8977 46.6818 14.5759 45.8455 14.5759H42.2256H39.5397C38.7034 14.5759 37.9015 14.8977 37.3102 15.4704C36.7189 16.0431 36.3867 16.82 36.3867 17.6299V24.9922C36.3867 25.8021 36.7189 26.579 37.3102 27.1517C37.9015 27.7244 38.7034 28.0462 39.5397 28.0462ZM44.3284 23.0281L45.2485 25.3259H46.1382L43.2315 18.0719H42.5086L39.5867 25.3259H40.4562L41.3661 23.0281H44.3284ZM43.2011 20.0337L44.0605 22.2721H41.6694L42.5389 20.0337C42.6771 19.6548 42.7833 19.3073 42.8574 18.991C42.9754 19.4028 43.0899 19.7503 43.2011 20.0337Z" fill="#011E41"/>
<path d="M43.1596 28.0462L43.8554 27.3279L43.5645 27.0462H43.1596V28.0462ZM45.3073 30.1265L46.0042 29.4093L46.0031 29.4082L45.3073 30.1265ZM45.3636 30.1698L44.8466 31.0258L44.8476 31.0264L45.3636 30.1698ZM45.4688 30.2101L45.2792 31.1919L45.2801 31.1921L45.4688 30.2101ZM45.6509 30.1927L45.2784 29.2646L45.2784 29.2647L45.6509 30.1927ZM45.7924 30.0802L44.9689 29.5128L44.9689 29.5128L45.7924 30.0802ZM45.8455 28.0462V27.0462H44.8455V28.0462H45.8455ZM48.075 27.1517L48.7707 27.87L48.7708 27.87L48.075 27.1517ZM48.075 15.4704L48.7708 14.7521L48.7707 14.7521L48.075 15.4704ZM37.3102 15.4704L36.6145 14.7521L36.6144 14.7521L37.3102 15.4704ZM37.3102 27.1517L36.6144 27.87L36.6145 27.87L37.3102 27.1517ZM45.2485 25.3259L44.3201 25.6976L44.5717 26.3259H45.2485V25.3259ZM44.3284 23.0281L45.2568 22.6564L45.0052 22.0281H44.3284V23.0281ZM46.1382 25.3259V26.3259H47.6162L47.0664 24.9539L46.1382 25.3259ZM43.2315 18.0719L44.1597 17.7L43.9081 17.0719H43.2315V18.0719ZM42.5086 18.0719V17.0719H41.8333L41.581 17.6983L42.5086 18.0719ZM39.5867 25.3259L38.6591 24.9523L38.1058 26.3259H39.5867V25.3259ZM40.4562 25.3259V26.3259H41.1358L41.386 25.6941L40.4562 25.3259ZM41.3661 23.0281V22.0281H40.6866L40.4364 22.66L41.3661 23.0281ZM44.0605 22.2721V23.2721H45.5156L44.9941 21.9137L44.0605 22.2721ZM43.2011 20.0337L44.1347 19.6752L44.132 19.6682L43.2011 20.0337ZM41.6694 22.2721L40.7373 21.91L40.2082 23.2721H41.6694V22.2721ZM42.5389 20.0337L43.4711 20.3957L43.4748 20.3861L43.4784 20.3763L42.5389 20.0337ZM42.8574 18.991L43.8187 18.7156L42.7608 15.0222L41.8838 18.7628L42.8574 18.991ZM43.1596 27.0462H39.5397V29.0462H43.1596V27.0462ZM46.0031 29.4082L43.8554 27.3279L42.4639 28.7645L44.6116 30.8448L46.0031 29.4082ZM45.8806 29.3138C45.9237 29.3399 45.9655 29.3716 46.0042 29.4093L44.6104 30.8436C44.6833 30.9145 44.7628 30.9752 44.8466 31.0258L45.8806 29.3138ZM45.6584 29.2282C45.7354 29.2431 45.8104 29.2716 45.8796 29.3132L44.8476 31.0264C44.9809 31.1067 45.1271 31.1626 45.2792 31.1919L45.6584 29.2282ZM45.2784 29.2647C45.4 29.2158 45.5315 29.2038 45.6574 29.228L45.2801 31.1921C45.5283 31.2398 45.7866 31.2158 46.0234 31.1207L45.2784 29.2647ZM44.9689 29.5128C45.0484 29.3975 45.1576 29.3131 45.2784 29.2646L46.0234 31.1207C46.2595 31.026 46.4672 30.8633 46.6159 30.6476L44.9689 29.5128ZM44.8455 29.9105C44.8455 29.7656 44.8901 29.6273 44.9689 29.5128L46.6159 30.6476C46.764 30.4326 46.8455 30.1762 46.8455 29.9105H44.8455ZM44.8455 28.0462V29.9105H46.8455V28.0462H44.8455ZM47.3793 26.4333C46.9777 26.8223 46.4266 27.0462 45.8455 27.0462V29.0462C46.937 29.0462 47.9896 28.6265 48.7707 27.87L47.3793 26.4333ZM47.9985 24.9922C47.9985 25.5265 47.7797 26.0456 47.3793 26.4334L48.7708 27.87C49.553 27.1123 49.9985 26.0778 49.9985 24.9922H47.9985ZM47.9985 17.6299V24.9922H49.9985V17.6299H47.9985ZM47.3793 16.1887C47.7797 16.5765 47.9985 17.0956 47.9985 17.6299H49.9985C49.9985 16.5443 49.553 15.5098 48.7708 14.7521L47.3793 16.1887ZM45.8455 15.5759C46.4266 15.5759 46.9777 15.7998 47.3793 16.1888L48.7707 14.7521C47.9896 13.9956 46.937 13.5759 45.8455 13.5759V15.5759ZM42.2256 15.5759H45.8455V13.5759H42.2256V15.5759ZM39.5397 15.5759H42.2256V13.5759H39.5397V15.5759ZM38.0059 16.1888C38.4075 15.7998 38.9586 15.5759 39.5397 15.5759V13.5759C38.4482 13.5759 37.3956 13.9956 36.6145 14.7521L38.0059 16.1888ZM37.3867 17.6299C37.3867 17.0956 37.6055 16.5765 38.0059 16.1887L36.6144 14.7521C35.8322 15.5098 35.3867 16.5443 35.3867 17.6299H37.3867ZM37.3867 24.9922V17.6299H35.3867V24.9922H37.3867ZM38.0059 26.4334C37.6055 26.0456 37.3867 25.5265 37.3867 24.9922H35.3867C35.3867 26.0778 35.8322 27.1123 36.6144 27.87L38.0059 26.4334ZM39.5397 27.0462C38.9586 27.0462 38.4075 26.8223 38.0059 26.4333L36.6145 27.87C37.3956 28.6265 38.4483 29.0462 39.5397 29.0462V27.0462ZM46.1768 24.9542L45.2568 22.6564L43.4001 23.3999L44.3201 25.6976L46.1768 24.9542ZM46.1382 24.3259H45.2485V26.3259H46.1382V24.3259ZM42.3032 18.4439L45.2099 25.6979L47.0664 24.9539L44.1597 17.7L42.3032 18.4439ZM42.5086 19.0719H43.2315V17.0719H42.5086V19.0719ZM40.5143 25.6995L43.4362 18.4455L41.581 17.6983L38.6591 24.9523L40.5143 25.6995ZM40.4562 24.3259H39.5867V26.3259H40.4562V24.3259ZM40.4364 22.66L39.5265 24.9577L41.386 25.6941L42.2959 23.3963L40.4364 22.66ZM44.3284 22.0281H41.3661V24.0281H44.3284V22.0281ZM44.9941 21.9137L44.1347 19.6752L42.2676 20.3921L43.127 22.6305L44.9941 21.9137ZM41.6694 23.2721H44.0605V21.2721H41.6694V23.2721ZM41.6068 19.6716L40.7373 21.91L42.6016 22.6342L43.4711 20.3957L41.6068 19.6716ZM41.8838 18.7628C41.8206 19.0323 41.7271 19.3411 41.5995 19.691L43.4784 20.3763C43.6271 19.9686 43.7459 19.5822 43.831 19.2193L41.8838 18.7628ZM44.132 19.6682C44.036 19.4236 43.9312 19.1082 43.8187 18.7156L41.8961 19.2664C42.0195 19.6974 42.1439 20.0771 42.2703 20.3991L44.132 19.6682Z" fill="white" mask="url(#path-2-outside-1_1642_5780)"/>
<path d="M30.2232 25.6332C30.3763 25.6959 30.5442 25.712 30.7056 25.6804C30.8674 25.6486 31.0167 25.57 31.1345 25.4538C31.1346 25.4537 31.1347 25.4536 31.1347 25.4536L32.2641 24.3394C32.6529 24.4091 33.0532 24.4455 33.4618 24.4455C37.1017 24.4455 40.072 21.5582 40.072 17.9727C40.072 14.3873 37.1017 11.5 33.4618 11.5C29.8218 11.5 26.8516 14.3873 26.8516 17.9727C26.8516 20.184 27.9837 22.1321 29.703 23.2978V24.8607C29.703 25.0278 29.7534 25.1899 29.8459 25.3269L29.8466 25.328C29.9023 25.4099 29.9715 25.4806 30.0505 25.5375L30.0513 25.538C30.1044 25.5761 30.162 25.6081 30.2232 25.6332ZM30.2232 25.6332L30.4128 25.1706L30.2236 25.6333C30.2235 25.6333 30.2234 25.6333 30.2232 25.6332Z" fill="#011E41" stroke="white"/>
<g clip-path="url(#clip0_1642_5780)">
<path d="M20.4246 25.245L16.4996 17.5H7.49965L3.57465 25.245C3.02671 26.5153 2.86867 27.9198 3.12061 29.2801C3.37256 30.6404 4.02311 31.8952 4.98965 32.885C5.63818 33.5582 6.41659 34.0927 7.27775 34.4563C8.13892 34.8198 9.06491 35.0048 9.99965 35H13.9996C14.9344 35.0048 15.8604 34.8198 16.7215 34.4563C17.5827 34.0927 18.3611 33.5582 19.0096 32.885C19.9762 31.8952 20.6267 30.6404 20.8787 29.2801C21.1306 27.9198 20.9726 26.5153 20.4246 25.245V25.245ZM12.4996 30V30.75C12.4996 30.9489 12.4206 31.1397 12.28 31.2803C12.1393 31.421 11.9486 31.5 11.7496 31.5C11.5507 31.5 11.36 31.421 11.2193 31.2803C11.0787 31.1397 10.9996 30.9489 10.9996 30.75V30H10.7496C10.5507 30 10.36 29.921 10.2193 29.7803C10.0787 29.6397 9.99965 29.4489 9.99965 29.25C9.99965 29.0511 10.0787 28.8603 10.2193 28.7197C10.36 28.579 10.5507 28.5 10.7496 28.5H12.2246C12.4236 28.5 12.6143 28.421 12.755 28.2803C12.8956 28.1397 12.9746 27.9489 12.9746 27.75C12.9746 27.5511 12.8956 27.3603 12.755 27.2197C12.6143 27.079 12.4236 27 12.2246 27H11.7796C11.2467 27.0079 10.7284 26.826 10.3172 26.4869C9.90596 26.1478 9.62871 25.6736 9.53496 25.1489C9.4412 24.6243 9.53704 24.0833 9.80535 23.6228C10.0737 23.1623 10.497 22.8122 10.9996 22.635V21.75C10.9996 21.5511 11.0787 21.3603 11.2193 21.2197C11.36 21.079 11.5507 21 11.7496 21C11.9486 21 12.1393 21.079 12.28 21.2197C12.4206 21.3603 12.4996 21.5511 12.4996 21.75V22.5H13.2496C13.4486 22.5 13.6393 22.579 13.78 22.7197C13.9206 22.8603 13.9996 23.0511 13.9996 23.25C13.9996 23.4489 13.9206 23.6397 13.78 23.7803C13.6393 23.921 13.4486 24 13.2496 24H11.7796C11.6789 23.9963 11.5783 24.013 11.4841 24.049C11.3899 24.0851 11.304 24.1397 11.2313 24.2097C11.1587 24.2797 11.101 24.3637 11.0615 24.4565C11.0221 24.5493 11.0018 24.6491 11.0018 24.75C11.0018 24.8509 11.0221 24.9507 11.0615 25.0435C11.101 25.1363 11.1587 25.2203 11.2313 25.2903C11.304 25.3603 11.3899 25.4149 11.4841 25.451C11.5783 25.487 11.6789 25.5037 11.7796 25.5H12.2246C12.8022 25.496 13.3594 25.7135 13.7814 26.1078C14.2035 26.5021 14.4584 27.0432 14.4936 27.6197C14.5288 28.1963 14.3417 28.7644 13.9708 29.2071C13.5999 29.6499 13.0734 29.9336 12.4996 30V30ZM7.49815 16.5H11.4981L10.6736 12.783C10.6243 12.5609 10.5007 12.3623 10.3232 12.22C10.1458 12.0776 9.92513 12 9.69765 12H6.99765C6.92282 12.0001 6.84897 12.017 6.78153 12.0494C6.7141 12.0818 6.6548 12.129 6.60802 12.1874C6.56123 12.2458 6.52815 12.3139 6.51121 12.3868C6.49427 12.4597 6.49391 12.5355 6.51015 12.6085L7.49815 16.5ZM14.4996 16.5H16.4981L17.4901 11.59C17.5029 11.5177 17.4997 11.4435 17.4807 11.3726C17.4618 11.3017 17.4275 11.2358 17.3803 11.1795C17.3331 11.1233 17.2742 11.0781 17.2076 11.0471C17.1411 11.016 17.0686 11 16.9951 11H15.5001C15.2358 11.0034 14.9832 11.1097 14.796 11.2965C14.6089 11.4832 14.502 11.7356 14.4981 12C14.4958 11.7364 14.3904 11.4841 14.2044 11.2972C14.0185 11.1103 13.7668 11.0036 13.5031 11H12.0031C11.9297 11 11.8572 11.016 11.7907 11.0471C11.7241 11.0781 11.6652 11.1233 11.618 11.1795C11.5708 11.2358 11.5365 11.3017 11.5176 11.3726C11.4986 11.4435 11.4954 11.5177 11.5081 11.59L12.4981 16.5H14.4996Z" fill="#011E41"/>
</g>
<defs>
<clipPath id="clip0_1642_5780">
<rect width="24" height="24" fill="white" transform="translate(0 11)"/>
</clipPath>
</defs>
</svg>
