<svg width="98" height="49" viewBox="0 0 98 49" fill="none" xmlns="http://www.w3.org/2000/svg">
<g clip-path="url(#clip0_1643_5801)">
<path d="M40.8493 29.49L32.9993 14H14.9993L7.14929 29.49C6.05341 32.0306 5.73734 34.8396 6.24123 37.5603C6.74512 40.2809 8.04622 42.7904 9.97929 44.77C11.2764 46.1164 12.8332 47.1855 14.5555 47.9125C16.2778 48.6396 18.1298 49.0096 19.9993 49H27.9993C29.8688 49.0096 31.7208 48.6396 33.4431 47.9125C35.1654 47.1855 36.7222 46.1164 38.0193 44.77C39.9524 42.7904 41.2535 40.2809 41.7574 37.5603C42.2612 34.8396 41.9452 32.0306 40.8493 29.49V29.49ZM24.9993 39V40.5C24.9993 40.8978 24.8413 41.2794 24.56 41.5607C24.2786 41.842 23.8971 42 23.4993 42C23.1015 42 22.7199 41.842 22.4386 41.5607C22.1573 41.2794 21.9993 40.8978 21.9993 40.5V39H21.4993C21.1015 39 20.7199 38.842 20.4386 38.5607C20.1573 38.2794 19.9993 37.8978 19.9993 37.5C19.9993 37.1022 20.1573 36.7206 20.4386 36.4393C20.7199 36.158 21.1015 36 21.4993 36H24.4493C24.8471 36 25.2286 35.842 25.51 35.5607C25.7913 35.2794 25.9493 34.8978 25.9493 34.5C25.9493 34.1022 25.7913 33.7206 25.51 33.4393C25.2286 33.158 24.8471 33 24.4493 33H23.5593C22.4934 33.0158 21.4567 32.6521 20.6343 31.9739C19.8119 31.2957 19.2574 30.3472 19.0699 29.2978C18.8824 28.2485 19.0741 27.1667 19.6107 26.2456C20.1473 25.3246 20.9939 24.6243 21.9993 24.27V22.5C21.9993 22.1022 22.1573 21.7206 22.4386 21.4393C22.7199 21.158 23.1015 21 23.4993 21C23.8971 21 24.2786 21.158 24.56 21.4393C24.8413 21.7206 24.9993 22.1022 24.9993 22.5V24H26.4993C26.8971 24 27.2786 24.158 27.56 24.4393C27.8413 24.7206 27.9993 25.1022 27.9993 25.5C27.9993 25.8978 27.8413 26.2794 27.56 26.5607C27.2786 26.842 26.8971 27 26.4993 27H23.5593C23.3577 26.9926 23.1567 27.026 22.9683 27.0981C22.7799 27.1701 22.6079 27.2794 22.4627 27.4194C22.3175 27.5595 22.202 27.7273 22.1231 27.913C22.0442 28.0986 22.0035 28.2983 22.0035 28.5C22.0035 28.7017 22.0442 28.9014 22.1231 29.087C22.202 29.2727 22.3175 29.4405 22.4627 29.5806C22.6079 29.7206 22.7799 29.8299 22.9683 29.9019C23.1567 29.974 23.3577 30.0074 23.5593 30H24.4493C25.6045 29.992 26.7188 30.427 27.5629 31.2157C28.407 32.0043 28.9167 33.0864 28.9872 34.2395C29.0577 35.3925 28.6835 36.5287 27.9417 37.4142C27.1999 38.2998 26.1468 38.8673 24.9993 39V39ZM14.9963 12H22.9963L21.3473 4.566C21.2486 4.12187 21.0014 3.72468 20.6465 3.43998C20.2916 3.15528 19.8503 3.00008 19.3953 3H13.9953C13.8456 3.00018 13.6979 3.03394 13.5631 3.0988C13.4282 3.16366 13.3096 3.25796 13.216 3.37476C13.1225 3.49155 13.0563 3.62786 13.0224 3.77363C12.9885 3.9194 12.9878 4.07091 13.0203 4.217L14.9963 12ZM28.9993 12H32.9963L34.9803 2.18C35.0059 2.03542 34.9994 1.88699 34.9615 1.74516C34.9235 1.60332 34.8549 1.47153 34.7606 1.35905C34.6662 1.24657 34.5483 1.15613 34.4153 1.0941C34.2822 1.03207 34.1371 0.999948 33.9903 1H31.0003C30.4716 1.00672 29.9663 1.21946 29.5921 1.59298C29.2178 1.96649 29.0041 2.4713 28.9963 3C28.9916 2.47273 28.7808 1.96823 28.4089 1.59445C28.037 1.22066 27.5335 1.0073 27.0063 1H24.0063C23.8595 0.999948 23.7144 1.03207 23.5813 1.0941C23.4483 1.15613 23.3304 1.24657 23.236 1.35905C23.1417 1.47153 23.0731 1.60332 23.0351 1.74516C22.9972 1.88699 22.9907 2.03542 23.0163 2.18L24.9963 12H28.9993Z" fill="#011E41"/>
</g>
<path fill-rule="evenodd" clip-rule="evenodd" d="M59.7729 44.3702H73.7329C75.1615 44.3702 76.5315 43.786 77.5417 42.7462C78.5518 41.7064 79.1193 40.2961 79.1193 38.8256V31.5046C79.1193 30.034 78.5518 28.6238 77.5417 27.5839C76.5315 26.5441 75.1615 25.96 73.7329 25.96H54.3864C52.9579 25.96 51.5878 26.5441 50.5776 27.5839C49.5675 28.6238 49 30.034 49 31.5046V38.8256C49 40.2961 49.5675 41.7064 50.5776 42.7462C51.5878 43.786 52.9579 44.3702 54.3864 44.3702V48.353C54.3864 48.481 54.4233 48.6061 54.4923 48.7125C54.5614 48.8188 54.6595 48.9018 54.7744 48.9507C54.8892 48.9997 55.0155 49.0125 55.1375 48.9875C55.2594 48.9626 55.3713 48.901 55.4592 48.8105L59.7729 44.3702ZM69.0238 38.0093C69.353 36.6186 69.5176 35.7883 69.5176 35.5184C69.5176 34.9165 69.3457 34.2108 69.0019 33.4013C68.7385 32.7786 68.508 32.3461 68.3105 32.104C67.8862 32.8512 67.5935 33.3736 67.4326 33.6711C68.2081 34.875 68.5958 35.8125 68.5958 36.4836H59.1143C58.4485 36.4836 57.9181 36.2899 57.523 35.9024C57.128 35.515 56.9304 35.0064 56.9304 34.3768C56.9304 34.1693 57.0402 33.8337 57.2596 33.3701C57.4791 32.9066 57.5889 32.6471 57.5889 32.5917C57.5889 32.5779 57.5815 32.5641 57.5669 32.5502C57.2889 32.5502 56.9451 32.9723 56.5354 33.8164C56.1549 34.6051 55.9647 35.1656 55.9647 35.4977C55.9647 36.1827 56.2793 36.7639 56.9085 37.2413C57.5815 37.7533 58.4375 38.0093 59.4764 38.0093H69.0238ZM63.1198 42.088L63.8989 40.8737L62.1431 39.8774L61.3639 41.0709L63.1198 42.088Z" fill="#011E41"/>
<mask id="path-3-outside-1_1643_5801" maskUnits="userSpaceOnUse" x="70.7773" y="5.37598" width="28" height="35" fill="black">
<rect fill="white" x="70.7773" y="5.37598" width="28" height="35"/>
<path fill-rule="evenodd" clip-rule="evenodd" d="M78.0832 34.4878H85.3232L89.6185 38.8293C89.6527 38.8639 89.6905 38.8941 89.7311 38.9197C89.7953 38.9601 89.8665 38.9886 89.9415 39.0037C90.0637 39.0282 90.1905 39.0157 90.3057 38.9674C90.421 38.9192 90.5195 38.8376 90.5887 38.7327C90.658 38.6279 90.695 38.5046 90.695 38.3786V34.4878C92.3675 34.4878 93.9713 33.8162 95.154 32.621C96.3365 31.4258 97.0009 29.8046 97.0009 28.1143V12.7495C97.0009 11.0592 96.3365 9.438 95.154 8.24278C93.9713 7.04756 92.3675 6.37598 90.695 6.37598H83.4551H78.0832C76.4107 6.37598 74.8069 7.04756 73.6242 8.24278C72.4417 9.438 71.7773 11.0592 71.7773 12.7495V28.1143C71.7773 29.8046 72.4417 31.4258 73.6242 32.621C74.8069 33.8162 76.4107 34.4878 78.0832 34.4878ZM87.6608 24.0154L89.5009 28.8107H91.2803L85.4669 13.672H84.0211L78.1773 28.8107H79.9163L81.7362 24.0154H87.6608ZM85.4062 17.766L87.125 22.4376H82.3428L84.0818 17.766C84.3581 16.9754 84.5704 16.2501 84.7187 15.5901C84.9546 16.4495 85.1838 17.1748 85.4062 17.766Z"/>
</mask>
<path fill-rule="evenodd" clip-rule="evenodd" d="M78.0832 34.4878H85.3232L89.6185 38.8293C89.6527 38.8639 89.6905 38.8941 89.7311 38.9197C89.7953 38.9601 89.8665 38.9886 89.9415 39.0037C90.0637 39.0282 90.1905 39.0157 90.3057 38.9674C90.421 38.9192 90.5195 38.8376 90.5887 38.7327C90.658 38.6279 90.695 38.5046 90.695 38.3786V34.4878C92.3675 34.4878 93.9713 33.8162 95.154 32.621C96.3365 31.4258 97.0009 29.8046 97.0009 28.1143V12.7495C97.0009 11.0592 96.3365 9.438 95.154 8.24278C93.9713 7.04756 92.3675 6.37598 90.695 6.37598H83.4551H78.0832C76.4107 6.37598 74.8069 7.04756 73.6242 8.24278C72.4417 9.438 71.7773 11.0592 71.7773 12.7495V28.1143C71.7773 29.8046 72.4417 31.4258 73.6242 32.621C74.8069 33.8162 76.4107 34.4878 78.0832 34.4878ZM87.6608 24.0154L89.5009 28.8107H91.2803L85.4669 13.672H84.0211L78.1773 28.8107H79.9163L81.7362 24.0154H87.6608ZM85.4062 17.766L87.125 22.4376H82.3428L84.0818 17.766C84.3581 16.9754 84.5704 16.2501 84.7187 15.5901C84.9546 16.4495 85.1838 17.1748 85.4062 17.766Z" fill="#011E41"/>
<path d="M85.3232 34.4878L86.034 33.7845L85.7405 33.4878H85.3232V34.4878ZM89.6185 38.8293L90.3305 38.1271L90.3294 38.1259L89.6185 38.8293ZM89.7311 38.9197L89.1979 39.7657L89.1989 39.7664L89.7311 38.9197ZM89.9415 39.0037L89.7439 39.984L89.7449 39.9842L89.9415 39.0037ZM90.3057 38.9674L89.9194 38.0451L89.9194 38.0451L90.3057 38.9674ZM90.5887 38.7327L91.4232 39.2837L91.4232 39.2837L90.5887 38.7327ZM90.695 34.4878V33.4878H89.695V34.4878H90.695ZM95.154 32.621L95.8648 33.3244L95.8649 33.3243L95.154 32.621ZM95.154 8.24278L95.8649 7.53945L95.8648 7.5394L95.154 8.24278ZM73.6242 8.24278L72.9134 7.5394L72.9134 7.53945L73.6242 8.24278ZM73.6242 32.621L72.9134 33.3243L72.9134 33.3244L73.6242 32.621ZM89.5009 28.8107L88.5672 29.169L88.8135 29.8107H89.5009V28.8107ZM87.6608 24.0154L88.5944 23.6571L88.3482 23.0154H87.6608V24.0154ZM91.2803 28.8107V29.8107H92.7355L92.2138 28.4522L91.2803 28.8107ZM85.4669 13.672L86.4004 13.3135L86.1541 12.672H85.4669V13.672ZM84.0211 13.672V12.672H83.3352L83.0882 13.3118L84.0211 13.672ZM78.1773 28.8107L77.2444 28.4506L76.7194 29.8107H78.1773V28.8107ZM79.9163 28.8107V29.8107H80.6064L80.8513 29.1655L79.9163 28.8107ZM81.7362 24.0154V23.0154H81.0461L80.8012 23.6606L81.7362 24.0154ZM87.125 22.4376V23.4376H88.5584L88.0635 22.0923L87.125 22.4376ZM85.4062 17.766L86.3447 17.4207L86.3422 17.4139L85.4062 17.766ZM82.3428 22.4376L81.4056 22.0887L80.9035 23.4376H82.3428V22.4376ZM84.0818 17.766L85.0189 18.1149L85.0224 18.1055L85.0258 18.096L84.0818 17.766ZM84.7187 15.5901L85.683 15.3254L83.743 15.3709L84.7187 15.5901ZM85.3232 33.4878H78.0832V35.4878H85.3232V33.4878ZM90.3294 38.1259L86.034 33.7845L84.6123 35.1911L88.9077 39.5326L90.3294 38.1259ZM90.2643 38.0738C90.2876 38.0884 90.31 38.1063 90.3305 38.1271L88.9065 39.5315C88.9954 39.6215 89.0933 39.6998 89.1979 39.7657L90.2643 38.0738ZM90.139 38.0234C90.1832 38.0324 90.2253 38.0492 90.2633 38.0731L89.1989 39.7664C89.3652 39.8709 89.5498 39.9449 89.7439 39.984L90.139 38.0234ZM89.9194 38.0451C89.9887 38.0161 90.0649 38.0086 90.138 38.0232L89.7449 39.9842C90.0625 40.0479 90.3923 40.0154 90.6921 39.8898L89.9194 38.0451ZM89.7542 38.1817C89.794 38.1215 89.8513 38.0736 89.9194 38.0451L90.692 39.8898C90.9906 39.7647 91.245 39.5536 91.4232 39.2837L89.7542 38.1817ZM89.695 38.3786C89.695 38.3089 89.7154 38.2406 89.7542 38.1817L91.4232 39.2837C91.6005 39.0152 91.695 38.7003 91.695 38.3786H89.695ZM89.695 34.4878V38.3786H91.695V34.4878H89.695ZM94.4432 31.9176C93.4471 32.9243 92.0987 33.4878 90.695 33.4878V35.4878C92.6362 35.4878 94.4955 34.7082 95.8648 33.3244L94.4432 31.9176ZM96.0009 28.1143C96.0009 29.5428 95.4393 30.9108 94.4431 31.9177L95.8649 33.3243C97.2337 31.9408 98.0009 30.0664 98.0009 28.1143H96.0009ZM96.0009 12.7495V28.1143H98.0009V12.7495H96.0009ZM94.4431 8.9461C95.4393 9.95297 96.0009 11.321 96.0009 12.7495H98.0009C98.0009 10.7974 97.2337 8.92302 95.8649 7.53945L94.4431 8.9461ZM90.695 7.37598C92.0987 7.37598 93.4471 7.93954 94.4432 8.94616L95.8648 7.5394C94.4955 6.15558 92.6362 5.37598 90.695 5.37598V7.37598ZM83.4551 7.37598H90.695V5.37598H83.4551V7.37598ZM78.0832 7.37598H83.4551V5.37598H78.0832V7.37598ZM74.335 8.94616C75.3311 7.93954 76.6795 7.37598 78.0832 7.37598V5.37598C76.142 5.37598 74.2828 6.15558 72.9134 7.5394L74.335 8.94616ZM72.7773 12.7495C72.7773 11.321 73.3389 9.95297 74.3351 8.9461L72.9134 7.53945C71.5445 8.92302 70.7773 10.7974 70.7773 12.7495H72.7773ZM72.7773 28.1143V12.7495H70.7773V28.1143H72.7773ZM74.3351 31.9177C73.3389 30.9108 72.7773 29.5428 72.7773 28.1143H70.7773C70.7773 30.0664 71.5445 31.9408 72.9134 33.3243L74.3351 31.9177ZM78.0832 33.4878C76.6795 33.4878 75.3311 32.9243 74.335 31.9176L72.9134 33.3244C74.2828 34.7082 76.142 35.4878 78.0832 35.4878V33.4878ZM90.4345 28.4525L88.5944 23.6571L86.7272 24.3736L88.5672 29.169L90.4345 28.4525ZM91.2803 27.8107H89.5009V29.8107H91.2803V27.8107ZM84.5333 14.0304L90.3467 29.1692L92.2138 28.4522L86.4004 13.3135L84.5333 14.0304ZM84.0211 14.672H85.4669V12.672H84.0211V14.672ZM79.1103 29.1708L84.954 14.0321L83.0882 13.3118L77.2444 28.4506L79.1103 29.1708ZM79.9163 27.8107H78.1773V29.8107H79.9163V27.8107ZM80.8012 23.6606L78.9814 28.4559L80.8513 29.1655L82.6711 24.3702L80.8012 23.6606ZM87.6608 23.0154H81.7362V25.0154H87.6608V23.0154ZM88.0635 22.0923L86.3447 17.4207L84.4677 18.1113L86.1865 22.7829L88.0635 22.0923ZM82.3428 23.4376H87.125V21.4376H82.3428V23.4376ZM83.1446 17.4172L81.4056 22.0887L83.28 22.7864L85.0189 18.1149L83.1446 17.4172ZM83.743 15.3709C83.6049 15.9858 83.4043 16.6736 83.1378 17.4361L85.0258 18.096C85.3119 17.2772 85.536 16.5144 85.6944 15.8093L83.743 15.3709ZM86.3422 17.4139C86.1339 16.8603 85.9138 16.1661 85.683 15.3254L83.7544 15.8548C83.9954 16.7328 84.2337 17.4892 84.4702 18.1181L86.3422 17.4139Z" fill="white" mask="url(#path-3-outside-1_1643_5801)"/>
<path d="M59.389 28.8051L59.3897 28.8057L59.8296 28.4864L59.633 28.9461C59.6331 28.9461 59.6332 28.9462 59.6334 28.9462C59.8511 29.0393 60.0914 29.0635 60.3228 29.0162C60.5548 28.9687 60.7656 28.8517 60.9295 28.6828L63.3725 26.168C64.1983 26.3396 65.0528 26.4297 65.9275 26.4297C72.9621 26.4297 78.6479 20.6157 78.6479 13.4648C78.6479 6.31394 72.9621 0.5 65.9275 0.5C58.8929 0.5 53.207 6.31394 53.207 13.4648C53.207 17.9794 55.4719 21.9581 58.9099 24.2799V27.8398C58.9099 28.0742 58.9775 28.3039 59.1047 28.5004L59.1054 28.5014C59.1819 28.619 59.2779 28.7216 59.389 28.8051ZM67.5563 14.5651L67.5031 15.0949H67.4452H67.4245H67.4192L67.4623 14.665C67.4941 14.3483 67.5102 14.0451 67.5102 13.7407V12.6553V12.1754H67.5992V12.6553V13.7558C67.5992 14.0233 67.5851 14.2778 67.5563 14.5651ZM67.1908 15.771L67.4359 15.1196L67.7249 15.7477L67.55 15.4142L67.1099 16.271C66.5687 17.3248 65.4766 18.3761 63.1009 19.2055C63.0948 19.1951 63.0887 19.1847 63.0825 19.1744C65.5562 18.2834 66.7057 17.0605 67.1908 15.771ZM71.5834 19.1972C69.9898 18.695 68.8518 17.7725 68.1076 16.4684C68.8789 17.7115 70.0783 18.62 71.6426 19.1076C71.6223 19.1376 71.6026 19.1675 71.5834 19.1972ZM63.5718 13.5755C64.2547 12.7806 64.861 11.7681 65.296 10.7512L65.3759 10.7728C65.2756 11.0037 65.1708 11.2287 65.0579 11.4377L64.6594 12.1754H64.6628L64.5286 12.3915C64.2394 12.8571 63.9474 13.2715 63.6468 13.6267C63.6221 13.6096 63.597 13.5925 63.5718 13.5755ZM65.0896 9.61524C65.0479 9.61903 65.0073 9.62278 64.968 9.62649L64.8517 9.59503L65.3451 9.56652L66.6991 9.48828C66.0078 9.53826 65.4874 9.57912 65.0896 9.61524ZM64.0842 9.63938L64.672 9.60541L64.6519 9.6582C64.4321 9.6819 64.2575 9.70497 64.1126 9.72976C64.1034 9.70012 64.0939 9.66992 64.0842 9.63938ZM64.0559 9.55149C64.0527 9.54186 64.0495 9.53222 64.0464 9.52258C64.0934 9.49407 64.1401 9.46344 64.1863 9.43095L64.0559 9.55149ZM66.9175 6.62168C66.4003 7.25778 65.8423 7.86707 65.2905 8.403C65.7418 7.92639 66.3154 7.26845 66.8021 6.58384L66.9175 6.62168ZM70.6455 9.42503L70.5141 9.26784L70.5156 9.26775L69.8732 8.50423C69.729 8.33288 69.5794 8.164 69.4293 8.00044C70.0883 8.6695 70.7539 9.40932 71.213 10.014L71.1423 10.059C70.9951 9.85678 70.8273 9.64243 70.6455 9.42503ZM60.713 18.5868C60.9626 18.2617 61.1883 17.8084 61.1883 17.2381V11.8412V11.3412H60.6883H59.1011V11.2558H61.2167V17.208V18.1754L62.0059 17.6159L62.7472 17.0903C61.8229 17.7599 61.2519 18.175 60.8855 18.4539C60.8232 18.5013 60.7659 18.5454 60.713 18.5868ZM62.0976 8.50063L62.0389 8.56029C61.6004 8.05814 61.0069 7.47057 60.4593 6.96568L60.4658 6.95963C61.0485 7.45389 61.6718 8.03438 62.0976 8.50063Z" fill="#011E41" stroke="white"/>
<defs>
<clipPath id="clip0_1643_5801">
<rect width="48" height="48" fill="white" transform="translate(0 1)"/>
</clipPath>
</defs>
</svg>
