<svg width="48" height="48" viewBox="0 0 48 48" fill="none" xmlns="http://www.w3.org/2000/svg">
<path d="M45.6 0H2.4C1.76406 0.00189927 1.15472 0.255366 0.705042 0.705042C0.255366 1.15472 0.00189927 1.76406 0 2.4L0 45.6C0.00189927 46.2359 0.255366 46.8453 0.705042 47.295C1.15472 47.7446 1.76406 47.9981 2.4 48H45.6C46.2359 47.9981 46.8453 47.7446 47.295 47.295C47.7446 46.8453 47.9981 46.2359 48 45.6V2.4C47.9981 1.76406 47.7446 1.15472 47.295 0.705042C46.8453 0.255366 46.2359 0.00189927 45.6 0V0ZM44.4 15.6V22.8H15.6V15.6H44.4ZM44.4 33.6H15.6V26.4H44.4V33.6ZM3.6 26.4H12V33.6H3.6V26.4ZM3.6 15.6H12V22.8H3.6V15.6ZM3.6 37.2H12V44.4H3.6V37.2ZM44.4 44.4H15.6V37.2H44.4V44.4Z" fill="#011E41"/>
</svg>
