<?xml version="1.0" encoding="utf-8"?>
<!-- Generator: Adobe Illustrator 25.2.1, SVG Export Plug-In . SVG Version: 6.00 Build 0)  -->
<svg version="1.1" id="Layer_1" xmlns="http://www.w3.org/2000/svg" xmlns:xlink="http://www.w3.org/1999/xlink" x="0px" y="0px"
	 viewBox="0 0 288 560" style="enable-background:new 0 0 288 560;" xml:space="preserve">
<style type="text/css">
	.st0{fill:#FDFDFD;}
	.st1{fill:#339998;}
	.st2{fill:#339999;}
	.st3{fill:#349899;}
	.st4{fill:#339898;}
	.st5{fill:#349898;}
	.st6{fill:#329997;}
	.st7{fill:#329999;}
	.st8{fill:#369798;}
	.st9{fill:#339A99;}
	.st10{fill:#349998;}
	.st11{fill:#329A9A;}
	.st12{fill:#379899;}
	.st13{fill:#329A99;}
	.st14{fill:#33989C;}
	.st15{fill:#EAFBFB;}
	.st16{fill:#349795;}
	.st17{fill:#FEFDF9;}
	.st18{fill:#37999B;}
	.st19{fill:#F8FEFB;}
	.st20{fill:#379793;}
	.st21{fill:#359892;}
	.st22{fill:#329B9B;}
	.st23{fill:#D2EBEA;}
	.st24{fill:#50A09D;}
	.st25{fill:#359A98;}
	.st26{fill:#339B98;}
	.st27{fill:#419998;}
	.st28{fill:#3E8E8A;}
	.st29{fill:#E5F4F3;}
	.st30{fill:#449A97;}
	.st31{fill:#3E9998;}
	.st32{fill:#418E89;}
	.st33{fill:#28938F;}
	.st34{fill:#3D9997;}
	.st35{fill:#269E9A;}
	.st36{fill:#459A97;}
	.st37{fill:#3E9797;}
	.st38{fill:#529999;}
	.st39{fill:#EAF8F8;}
	.st40{fill:#4E9B9B;}
	.st41{fill:#DFF4F4;}
	.st42{fill:#D3F2F1;}
	.st43{fill:#D0F2F0;}
	.st44{fill:#509E98;}
	.st45{fill:#FEFEFE;}
	.st46{fill:#358F8E;}
	.st47{fill:#E7F5F7;}
	.st48{fill:#379D9A;}
	.st49{fill:#359794;}
	.st50{fill:#458B88;}
	.st51{fill:#37978F;}
	.st52{fill:#31958F;}
	.st53{fill:#E8F5F5;}
	.st54{fill:#31918A;}
	.st55{fill:#268D8D;}
	.st56{fill:#F7FBFB;}
	.st57{fill:#49A0A2;}
	.st58{fill:#2C9693;}
	.st59{fill:#F8FBFA;}
	.st60{fill:#2F9A99;}
	.st61{fill:#38969A;}
	.st62{fill:#2B9593;}
	.st63{fill:#2D9797;}
	.st64{fill:#329D9C;}
	.st65{fill:#FDFEFE;}
	.st66{fill:#319A97;}
	.st67{fill:#339A9A;}
	.st68{fill:#2D928A;}
	.st69{fill:#319C9A;}
	.st70{fill:#32999C;}
	.st71{fill:#489C99;}
	.st72{fill:#37979A;}
	.st73{fill:#45999A;}
	.st74{fill:#D2EFEF;}
	.st75{fill:#309491;}
	.st76{fill:#2D8D89;}
	.st77{fill:#2C9799;}
	.st78{fill:#2D9A9B;}
	.st79{fill:#479D9B;}
	.st80{fill:#E9F7F6;}
	.st81{fill:#35A0A2;}
	.st82{fill:#42999C;}
	.st83{fill:#319896;}
	.st84{fill:#469A9A;}
	.st85{fill:#2D9B9B;}
	.st86{fill:#FBFDFB;}
</style>
<g>
	<path class="st0" d="M76.27,294.01c0-23.53,0-47.07-0.01-70.6c0-0.42,0.1-0.52,0.52-0.52c44.82,0.01,89.63,0.01,134.45,0
		c0.42,0,0.52,0.1,0.52,0.52c-0.01,23.37-0.01,46.73,0,70.1c0,0.42-0.1,0.52-0.52,0.52C166.24,294.01,121.25,294.01,76.27,294.01z"
		/>
	<path class="st1" d="M169.66,282.18c1.93-0.46,3.86,0.77,4.46,2.84c0.54,1.9-0.04,3.86-1.47,4.98c-1.43,1.12-3.12,1.13-4.56,0.03
		c-0.1-0.08-0.22-0.13-0.34-0.19c-0.31,0.63-0.85,0.79-1.5,0.72c-0.33-0.03-0.51-0.2-0.54-0.53c0-0.07-0.01-0.15-0.01-0.23
		c0-3.92,0-7.84,0-11.76c0-0.26-0.02-0.53,0.26-0.7c0.05-0.03,0.11-0.05,0.16-0.06c0.23,0.1,0.45,0.01,0.68-0.05
		c0.09-0.01,0.17,0,0.25,0.02c0.67,0.11,0.67,0.11,0.67,0.77c0,1.5,0,3,0,4.5c0,0.18-0.08,0.4,0.14,0.5c0.19,0.09,0.3-0.1,0.43-0.2
		C168.72,282.53,169.26,282.5,169.66,282.18z"/>
	<path class="st2" d="M147.59,248.49c-1.4,0.1-2.8,0.2-4.21,0.3c-1.14,0.08-2.29,0.17-3.43,0.2c-0.46,0.01-0.54,0.18-0.54,0.6
		c0.01,5.39,0,10.78,0.02,16.17c0,0.49-0.15,0.66-0.61,0.76c-2.32,0.46-4.63,0.96-6.95,1.44c-0.07,0.01-0.15,0-0.22,0
		c-0.12-1.18-0.03-2.37-0.05-3.62c0.34,0.34,0.37,0.71,0.33,2.54c-0.02-0.53,0.04-1.22-0.03-1.91c-0.02-0.17-0.07-0.41,0.25-0.37
		c0.23,0.14,0.2,0.38,0.21,0.6c0.01,0.37,0.01,0.74,0.03,1.12c0.05,0.68,0.09,0.7,0.72,0.34c1.32-0.39,2.67-0.6,4.01-0.88
		c1.45-0.3,1.23-0.24,1.23-1.5c0.01-4.77,0-9.53,0.01-14.3c0-0.3-0.03-0.6,0.06-0.89c-0.06-0.1,0.25-0.18,0.06-0.22
		c-0.7-0.15-1.41-0.26-2.13-0.11c-0.54-0.04-1.1,0.04-1.57-0.34c0.11-0.19,0.26-0.11,0.4-0.09c-0.19-0.06-0.37-0.05-0.53,0.11
		c-0.59,0.13-1.15-0.02-1.71-0.18c-0.27-0.17-0.47-0.45-0.82-0.48c-0.16-0.09-0.25-0.2-0.1-0.38c0.28-0.15,0.58-0.12,0.88-0.05
		c1.49,0.35,3.02,0.39,4.52,0.63c0.3,0.05,0.6-0.01,0.89-0.02c0.3-0.01,0.61-0.01,0.91,0c0.99,0.05,1.96-0.1,2.94-0.19
		c1.15,0,2.29-0.21,3.44-0.11c0.56,0.31,1.16,0.14,1.74,0.18c-0.46-0.05-0.93,0.09-1.38-0.09c0.11-0.26,0.36-0.24,0.57-0.25
		c0.46-0.02,0.93-0.02,1.39,0c0.66,0.02,1.32,0,1.97,0.01c0.64,0.01,0.74,0.12,0.75,0.77c0.01,0.21,0,0.41,0,0.62
		c0,6.23,0,12.47,0,18.7c0,0.26-0.04,0.53,0.06,0.78c0.13,0.28,0.4,0.3,0.65,0.37c0.64,0.16,1.26,0.41,1.86,0.69
		c-0.05,0.22-0.24,0.26-0.39,0.23c-0.75-0.2-1.53,0.18-2.27-0.12c-1.05-0.24-0.85-0.02-0.85-0.99c0-6.53,0.01-13.05,0.01-19.58
		c0-0.25,0.14-0.6-0.32-0.62c-0.76,0.11-1.52,0-2.24,0.05C147.27,248.44,147.44,248.38,147.59,248.49z"/>
	<path class="st1" d="M163.81,284.76c0.33,0.62,0.34,1.29,0.35,1.96c0.01,0.4-0.28,0.32-0.51,0.32c-1.86,0-3.71,0-5.57,0.01
		c-0.19,0-0.46-0.12-0.56,0.11c-0.09,0.22,0.02,0.46,0.17,0.67c0.79,1.18,2.37,1.5,3.62,0.73c0.64-0.4,1.29-0.28,1.85,0.34
		c-0.14,0.13-0.23,0.28-0.14,0.48c0.01,0.11,0.01,0.21-0.02,0.32c-0.07,0.16-0.19,0.27-0.35,0.34c-1.35,0.82-2.81,1.03-4.31,0.56
		c-2.43-0.77-3.58-3.41-2.61-5.88c0.05-0.14,0.11-0.28,0.17-0.41c0.08-0.21,0.2-0.4,0.35-0.56c1.44-1.69,3.23-2.05,5.27-1.36
		c0.92,0.31,1.58,0.97,2.05,1.81C163.68,284.38,163.64,284.62,163.81,284.76z"/>
	<path class="st1" d="M123.2,288.59c1.14,0.55,2.24,0.56,3.27-0.26c0.17-0.14,0.33-0.13,0.52-0.04c0.37,0.18,0.74,0.36,1.12,0.53
		c0.28,0.12,0.33,0.25,0.12,0.5c-1.17,1.35-2.9,1.86-4.93,1.33c-1.67-0.43-2.87-1.92-3.03-3.67c-0.18-1.99,0.8-3.79,2.47-4.54
		c1.72-0.77,3.92-0.34,5.17,1.05c0.82,0.91,1.07,2.02,1.1,3.21c0.01,0.38-0.22,0.36-0.48,0.36c-1.86,0-3.72,0-5.58,0
		c-0.22,0-0.45-0.05-0.66,0.09C122.31,287.81,122.68,288.25,123.2,288.59z"/>
	<path class="st3" d="M113.49,277.12c0.04,0,0.08,0,0.11,0c0.45,0.37,0.47,0.52,0.1,0.78c-0.02-0.06-0.05-0.06-0.05-0.02
		c0,2.29-0.02,4.59,0.01,6.88c0,0.04,0.01,0.07,0.03,0.11c0.03,0.05,0.06,0.09,0.1,0.13c0.23,0.25,0.2,0.59,0.26,0.89
		c0.06,0.27-0.32,0.26-0.5,0.37c0.46-0.16,0.8-0.44,0.92-0.94c0.83-0.94,1.66-1.88,2.49-2.82c0.1-0.12,0.23-0.2,0.39-0.2
		c0.76,0,1.52,0,2.36,0c-0.3,0.56-0.72,0.91-1.07,1.31c-0.68,0.78-1.36,1.55-2.08,2.29c-0.29,0.3-0.27,0.49,0.01,0.78
		c1.06,1.11,2.1,2.24,3.14,3.37c0.14,0.15,0.27,0.31,0.51,0.58c-0.92,0-1.71,0.01-2.5-0.01c-0.2,0-0.31-0.2-0.43-0.34
		c-1.03-1.11-2.05-2.23-3.2-3.47c0,0.68,0,1.21,0,1.74c0,0.43,0,0.86,0,1.29c0,0.84,0,0.84-0.83,0.76c-0.15-0.03-0.28-0.1-0.43-0.13
		c-0.74-0.13-0.74-0.13-0.74-0.85c0-3.73,0-7.46,0-11.19c0-0.28-0.04-0.57,0.16-0.8c0.23-0.2,0.53-0.08,0.66-0.11
		c-0.11,0.04-0.37-0.09-0.6,0.06c-0.21-0.3,0.02-0.32,0.22-0.35C112.85,277.17,113.18,277.31,113.49,277.12z"/>
	<path class="st1" d="M181.19,289.61c-0.01-1.07-0.01-2.14-0.03-3.21c-0.01-0.37-0.04-0.75-0.08-1.12c-0.07-0.6-0.32-1.08-0.97-1.23
		c-0.65-0.15-1.17,0.07-1.6,0.56c-0.24,0.28-0.31,0.64-0.48,0.94c-0.12,0.41-0.13,0.84-0.13,1.27c0,1.11,0.01,2.21-0.01,3.32
		c0,0.17,0.01,0.36-0.2,0.41c-0.19,0.05-0.38,0.04-0.43-0.22c-0.03,0.05,0.07-0.24-0.05-0.02c-0.12,0.24-1.01,0.36-1.2,0.21
		c-0.1-0.09-0.07-0.2-0.07-0.31c0-2.49,0-4.99-0.01-7.48c0-0.29,0.1-0.4,0.39-0.39c0.34,0.02,0.68,0.02,1.01,0
		c0.38-0.02,0.61,0.1,0.64,0.5c0.2,0.19,0.31-0.02,0.45-0.11c1.39-0.92,2.92-0.88,4.02,0.12c0.13,0.12,0.3,0.23,0.32,0.44
		c0.45,0.95,0.33,1.97,0.33,2.97c0,1.2,0.01,2.4,0,3.6c-0.01,0.55-0.17,0.72-0.71,0.7c-1.16-0.04-1.14,0.23-1.04-1.11
		c0.05-0.72,0.01-1.46,0.01-2.18c0,0.64,0.01,1.28-0.01,1.92C181.32,289.33,181.44,289.54,181.19,289.61z"/>
	<path class="st1" d="M193.8,287.13c-0.08,2.24-2.47,4.15-4.51,3.61c-0.09-0.05,0.09-0.14-0.01-0.15c-0.11-0.01-0.22,0.04-0.33,0
		c-0.2-0.07-0.31-0.23-0.27-0.44c0.05-0.24,0.24-0.16,0.42-0.17c-0.65,0.18-1.29,0.32-1.77-0.31c-0.08-0.07-0.16-0.23-0.26-0.17
		c-0.2,0.13,0.06,0.29,0.03,0.44c-0.01,0.1-0.07,0.17-0.16,0.21c-0.23,0.08-0.48,0.08-0.71,0.05c-0.43-0.05-0.5-0.27-0.23-0.68
		c0.23-0.06,0.35-0.13,0.29-0.45c-0.17-0.83-0.07-1.67-0.06-2.51c0-0.24,0.1-0.44,0.44-0.31c-0.57-0.38-0.65-1.24-0.18-1.65
		c0.33,0.35,0.48,0.02,0.74-0.17c-0.28,0.05-0.39,0.44-0.68,0.19c-0.09-0.12-0.08-0.25-0.04-0.38c0.15-0.29,0.38-0.55,0.25-0.92
		c0.06-0.12,0.15-0.21,0.26-0.28c0.3,0.06,0.61,0.18,0.79-0.21c1.52-1.28,3.96-0.89,5.21,0.83c0.46,0.63,0.77,1.33,0.77,2.13
		C193.79,286.23,193.79,286.68,193.8,287.13z"/>
	<path class="st4" d="M96.01,286.02c0-1.35-0.01-2.7,0.01-4.06c0.01-0.37-0.11-0.52-0.48-0.47c-0.04,0.01-0.08,0-0.11,0
		c-0.44-0.04-1.16,0.19-1.27-0.09c-0.21-0.54-0.09-1.21-0.1-1.83c0-0.21,0.18-0.2,0.33-0.2c1.84,0,3.68,0,5.53,0
		c0.24,0,0.35,0.1,0.34,0.33c0,0.06,0,0.11,0,0.17c-0.04,0.52,0.22,1.18-0.1,1.52c-0.3,0.32-0.96,0.1-1.46,0.09
		c-0.39-0.01-0.51,0.09-0.51,0.51c0.02,2.67-0.01,5.33,0.01,8c0,0.46-0.07,0.71-0.6,0.64c-0.5-0.07-1.14,0.21-1.47-0.11
		c-0.33-0.32-0.1-0.96-0.11-1.46C96,288.05,96.01,287.03,96.01,286.02z"/>
	<path class="st5" d="M131.65,289.5c-0.63-0.66-1.08-1.41-1.14-2.35c-0.08-0.43-0.07-0.86,0-1.29c0.11-1.66,1.45-3.19,3.29-3.62
		c1.83-0.43,3.5-0.14,4.86,1.29c0.31,0.32,0.36,0.55-0.12,0.71c-0.12,0.04-0.24,0.11-0.34,0.19c-0.55,0.39-1,0.49-1.65-0.01
		c-1.05-0.79-2.76-0.41-3.53,0.63c-0.71,0.95-0.57,2.43,0.31,3.23c0.94,0.87,2.75,0.85,3.63-0.06c0.2-0.2,0.33-0.25,0.56-0.08
		c0.29,0.21,0.58,0.41,0.9,0.58c0.47,0.24,0.52,0.52,0.12,0.87c-0.19,0.16-0.33,0.37-0.57,0.47c-0.32,0.24-0.68,0.39-1.07,0.47
		c-0.11,0.05-0.22,0.04-0.34,0.04c-0.18-0.19-0.06-0.29,0.11-0.38c0.15-0.07,0.32-0.1,0.47-0.18c-0.28-0.05-0.51,0.06-0.74,0.18
		c-0.23,0.11-0.46,0.24-0.74,0.22c-0.28-0.02-0.56,0-0.81,0c0.38,0.04,0.8-0.08,1.2,0.07c0.1,0.14-0.02,0.2-0.1,0.27l-0.05,0.02
		l-0.05,0c-0.5,0.01-0.99,0.09-1.49-0.02l0.01,0.01c-0.33-0.16-0.7-0.12-1.04-0.23c-0.59-0.12-1.11-0.35-1.46-0.87
		c0.12-0.75-0.57-1.11-0.82-1.68c-0.15-0.51,0-1.08-0.26-1.59c0.06,0.57,0.12,1.13,0.32,1.66c0.19,0.35,0.33,0.73,0.63,1.02
		C131.85,289.19,131.98,289.41,131.65,289.5z"/>
	<path class="st1" d="M145.42,290.32c-1.38,0.93-3.4,0.55-4.63-0.81c-1.47-1.62-1.34-4.44-0.18-6.01c1.06-1.44,3.74-1.97,5.15-0.68
		c0.13,0.39,0.3,0.53,0.58,0.11c0.06-0.08,0.12-0.13,0.23-0.1c0.38,0.7,0.22,1.45,0.16,2.18c-0.01,0.11-0.12,0.22-0.23,0.21
		c-0.32-0.03-0.11-0.35-0.23-0.48c-0.17,0.34,0.39,0.54,0.2,0.91c-0.17,0.1-0.25-0.05-0.36-0.13c-0.25-0.3-0.45-0.64-0.76-0.9
		c-0.86-0.73-2.05-0.62-2.86,0.3c-0.62,0.71-0.68,1.54-0.39,2.38c0.28,0.83,0.9,1.31,1.78,1.46c0.51,0.09,0.94-0.24,1.43-0.25
		c0.12,0.02,0.21,0.08,0.27,0.19c0.01,0.51-0.4,0.55-0.74,0.57c-0.43,0.03-0.87-0.06-1.26-0.06c0.45,0.08,0.99-0.06,1.46,0.23
		c0.22,0.14,0.59,0.21,0.26,0.59c0.08,0,0.16-0.04,0.23,0.01C145.6,290.18,145.46,290.23,145.42,290.32z"/>
	<path class="st6" d="M103.56,282.4c1.25-0.61,2.83-0.35,3.85,0.65c0.02,0.04,0.04,0.07,0.06,0.1c0.07,0.06,0.11-0.01,0.16-0.05
		c0.04-0.07,0.06-0.14,0.05-0.22c-0.08-0.45,0.12-0.61,0.55-0.53c0.25,0.09,0.14,0.3,0.16,0.48c0.06-0.17-0.04-0.42,0.23-0.48
		c0.15,0.02,0.32-0.05,0.43,0.12c0.09,0.17,0.08,0.36,0.08,0.55c0,1.98,0.01,3.96,0,5.94c0,0.3,0.08,0.67-0.38,0.75
		c-0.19,0-0.26-0.16-0.38-0.25c0.03,0.09,0.14,0.13,0.19,0.21c0.02,0.29-0.19,0.28-0.38,0.31c-0.19,0.01-0.33-0.11-0.49-0.17
		c-0.17-0.12-0.29,0.16-0.45,0.05c-0.05-0.02-0.07-0.12-0.15-0.07c0.07,0.03,0.11,0.09,0.14,0.16c0,0.05-0.02,0.1-0.06,0.14
		c-0.09,0.07-0.18,0.15-0.26,0.22c-0.22,0.06-0.45,0.26-0.54-0.17c-0.05-0.22-0.32-0.1-0.49-0.15c-0.14-0.04-0.32-0.05-0.31-0.25
		c0.01-0.2,0.19-0.19,0.33-0.22c-0.43,0.09-0.9,0.07-1.27,0.4c-0.13,0.11-0.32,0.1-0.49,0.09c-0.29-0.02-0.72,0.02-0.76-0.3
		c-0.03-0.26,0.39-0.33,0.65-0.42c0.83-0.28,1.66-0.32,2.52-0.06c0.54,0.17,1.07-0.13,1.37-0.75c-0.25,0.18-0.34,0.46-0.59,0.56
		c-0.22,0.08-0.47,0.12-0.61-0.09c-0.13-0.2,0.05-0.39,0.2-0.46c0.4-0.18,0.4-0.54,0.45-0.89c0.15-0.6,0.29-1.18,0.1-1.82
		c-0.35-1.19-1.54-1.89-2.78-1.44c-0.29,0.06-0.52,0.2-0.71,0.42c-0.23,0.24-0.37,0.55-0.59,0.79c-0.2,0.14-0.41,0.27-0.35,0.57
		c0.04,0.4-0.09,0.8,0.1,1.19c0.03,0.05,0.05,0.09,0.07,0.15c-0.06,0.38-0.21,0.74,0.02,1.13c0.07,0.12,0.03,0.35-0.17,0.42
		c-0.17,0.07-0.31-0.05-0.37-0.18c-0.24-0.46-0.76-0.76-0.82-1.28c-0.09,0.23,0.2,0.46,0.13,0.75c-0.04,0.16,0.03,0.39-0.16,0.44
		c-0.22,0.06-0.17-0.25-0.32-0.32l0.01,0.01c-0.07-0.19-0.13-0.4-0.1-0.59c0.03-0.18-0.02-0.27-0.17-0.34
		c0.02-0.23-0.08-0.46-0.05-0.69c0.12-0.39,0.33-0.77,0.05-1.18c0.01-0.16-0.04-0.34,0.05-0.49l-0.01,0
		c0.17-0.18,0.26-0.36,0.32-0.64c0.13-0.58,0.55-1.05,1.06-1.39C102.98,282.86,103.28,282.64,103.56,282.4z"/>
	<path class="st7" d="M152.51,282.63c0.08-0.07,0.15-0.15,0.23-0.22c0.12-0.16,0.31-0.15,0.47-0.22c0.42-0.08,0.84-0.17,1.28-0.02
		c0.23,0.08,0.3,0.18,0.21,0.41c-0.12,0.28-0.23,0.56-0.3,0.85c-0.11,0.43-0.25,0.69-0.79,0.54c-0.41-0.11-0.69,0.21-0.87,0.57
		c-0.27,0.56-0.31,1.16-0.32,1.76c-0.01,1.28-0.02,2.55,0,3.83c0.01,0.4-0.11,0.55-0.51,0.5c-0.52-0.06-1.18,0.22-1.51-0.12
		c-0.31-0.31-0.08-0.97-0.09-1.47c-0.02-2.23-0.02-4.47-0.02-6.7c0.55-0.23,1.12-0.06,1.68-0.09c0.18-0.01,0.16,0.16,0.17,0.29
		c0.01,0.12-0.07,0.29,0.11,0.32C152.38,282.89,152.38,282.67,152.51,282.63z"/>
	<path class="st8" d="M167.41,274.27c-1.28-0.47-2.62-0.74-3.93-1.12c-1.56-0.45-3.13-0.89-4.69-1.33c0.37-0.29,0.78-0.19,1.17-0.07
		c0.54,0.16,1.07,0.34,1.61,0.38c-0.19-0.16-0.72-0.11-0.39-0.62c0.93,0.13,1.82,0.43,2.73,0.67c0.74,0.19,1.48,0.41,2.22,0.62
		c0.54,0.16,0.61,0.1,0.63-0.48c0.01-0.19,0-0.38,0-0.56c0-9.49,0-18.98,0-28.47c0-0.34-0.04-0.68,0.08-1
		c0.03-0.07,0.09-0.12,0.16-0.14c0.07,0.03,0.12,0.08,0.15,0.15c0.09,0.31,0.05,0.63,0.06,0.95c0,9.62,0,19.25,0,28.86
		c0.04-0.23,0.02-0.46,0.02-0.68c0-9.17,0-18.34,0-27.52c0-0.32-0.01-0.64,0.02-0.95c0.09-0.41,0.15-0.81-0.13-1.19
		c-0.09-0.12-0.08-0.28,0.05-0.4c0.15,0.08,0.3,0.15,0.46,0.23c0.22,0.14,0.16,0.36,0.16,0.56c0,10.55,0,21.1,0,31.65
		C167.79,274.04,167.95,274.48,167.41,274.27z"/>
	<path class="st9" d="M129.27,263.71c-0.18-0.17-0.1-0.39-0.1-0.59c-0.01-6.5,0-13,0-19.49c0-0.26-0.01-0.5,0.21-0.73
		c1.21-1.25,2.41-2.52,3.61-3.78c0.32-0.09,0.42-0.47,0.76-0.53c0.21,0.02,0.43-0.08,0.63,0.07c0.04,0.12-0.02,0.21-0.11,0.29
		c-0.55,0.1-0.61,0.71-1.01,0.98c-0.26,0.18-0.39,0.54-0.75,0.63c-0.08,0.02,0.04,0.16,0.02,0.24c-0.03,0.2-0.15,0.35-0.25,0.51
		c-0.64,0.65-1.22,1.35-1.95,1.91c-0.29,0.25-0.21,0.59-0.21,0.9c0,5.89,0,11.77,0,17.66c0,0.28,0.03,0.57-0.04,0.84
		c-0.04,0.17-0.08,0.4-0.36,0.3c-0.09-0.1-0.11-0.23-0.11-0.37c0.03-6.18,0-12.35,0.01-17.03c0,4.16-0.01,9.82,0.01,15.49
		c0,0.8-0.15,1.61,0.12,2.4c0.04,0.13-0.04,0.21-0.15,0.26C129.48,263.7,129.38,263.69,129.27,263.71z"/>
	<path class="st10" d="M146.54,282.85c-0.14,0.09-0.11,0.31-0.29,0.37c-0.14,0.05-0.28,0.12-0.41,0.03
		c-0.16-0.11-0.16-0.27-0.07-0.43c0.15,0.02,0.2,0.23,0.43,0.2c-0.17-0.82,0.37-0.75,0.91-0.74c1.22,0.02,1.22,0.01,1.21,1.25
		c0,2.18-0.01,4.35,0.01,6.53c0,0.44-0.12,0.61-0.57,0.57c-0.43-0.04-0.86-0.03-1.29,0c-0.29,0.02-0.27-0.16-0.28-0.34
		c-0.06-0.38-0.25-0.27-0.45-0.12c-0.11,0.05-0.21,0.1-0.32,0.15c0.03-0.09,0.07-0.17,0.1-0.26c-0.14-0.23,0.06-0.34,0.18-0.48
		c0.27-0.11,0.01-0.37,0.14-0.52c0.24-0.23,0.48-0.45,0.53-0.81c0.01-0.1,0.1-0.22,0.23-0.2c0.13,0.02,0.15,0.15,0.16,0.26
		c0.01,0.2,0,0.41,0.02,0.62c-0.15-1.89,0.02-3.79-0.03-5.68C146.75,283.09,146.87,282.84,146.54,282.85z"/>
	<path class="st11" d="M167.18,241.37c0.01,0.11-0.01,0.31,0.03,0.32c0.57,0.17,0.05,0.72,0.34,0.98c-0.05,0.02-0.1,0.04-0.15,0.06
		c-0.04,0.04-0.08,0.05-0.13,0.02c-0.08-0.06-0.1-0.16-0.14-0.25c-0.04-0.11,0.02-0.24-0.07-0.33l0,0
		c-0.14-0.17-0.33-0.18-0.52-0.17c-0.7-0.24-1.28-0.72-1.85-1.16c-1.55-1.18-3.2-2.21-4.77-3.37c-0.84-0.62-1.69-1.24-2.57-1.81
		c-0.13-0.08-0.25-0.17-0.25-0.34c0.05-0.13,0.25-0.15,0.28-0.26c0.11-0.38,0.26-0.15,0.44-0.07c0.35,0.16,0.56,0.56,1,0.55
		c2.71,1.77,5.3,3.69,7.96,5.52C166.93,241.15,167.05,241.27,167.18,241.37z"/>
	<path class="st12" d="M187.37,289.61c0.39,0.39,0.8,0.6,1.35,0.27c0.12-0.07,0.33-0.03,0.49,0c0.15,0.03,0.22,0.16,0.15,0.31
		c-0.05,0.12-0.19,0.13-0.29,0.07c-0.1-0.06-0.16-0.35-0.29-0.08c-0.07,0.14,0.08,0.32,0.28,0.33c0.15,0.01,0.3,0,0.5,0
		c-0.12,0.1-0.2,0.17-0.27,0.24c-0.74-0.01-1.27-0.48-1.92-0.89c0.14,0.79-0.3,0.8-0.84,0.78c-1.28-0.03-1.28-0.01-1.28-1.31
		c0-3.87,0.01-7.74-0.01-11.61c0-0.53,0.15-0.66,0.66-0.65c1.47,0.03,1.47,0.01,1.47,1.46c0,1.48,0,2.97,0,4.44
		c0.22,0.11,0.29-0.16,0.46-0.15c-0.1,0.59-0.43,0.45-0.78,0.25c-0.08-0.07-0.11-0.16-0.11-0.26c-0.07-1.45-0.04-2.9-0.04-4.36
		c0-0.28-0.02-0.56,0.08-0.86c-0.45-0.02-0.89,0.07-1.37-0.08c-0.01-0.01,0,0.08,0.03,0.08c0.22,0,0.17,0.19,0.21,0.32
		c0.04,3.71,0.01,7.42,0.01,11.13c0,0.19-0.03,0.37-0.08,0.55c-0.12,0.48-0.03,0.63,0.46,0.61c0.27-0.01,0.57,0.09,0.8-0.14
		c0-0.08,0-0.15,0-0.23C187.11,289.71,187.22,289.63,187.37,289.61z"/>
	<path class="st5" d="M101.52,288.38c0.14,0.03,0.21,0.14,0.3,0.3c0.08-0.61-0.19-1.16,0.08-1.73c-0.08,0.92,0.75,1.27,1.02,1.93
		c0.19-0.05,0.21-0.15,0.19-0.2c-0.21-0.45-0.35-0.88,0.01-1.32c0.12-0.05,0.22,0.01,0.3,0.08c0.41,0.5,0.75,1.06,1.46,1.24
		c0.9,0.22,1.61-0.02,2.2-0.71c0.12-0.15,0.17-0.39,0.43-0.39c0.03,0.57-0.24,0.97-0.86,1.22c0.56,0.17,0.56,0.17,1.36-0.73
		c0.07,0.31,0.2,0.64-0.07,0.83c-0.47,0.33-0.96,0.71-1.62,0.43c-0.63-0.27-1.27-0.17-1.91-0.01c-0.34,0.09-0.66,0.2-0.97,0.36
		c0.34,0.22,1.01,0.24,1.04,0.14c0.12-0.48,0.52-0.21,0.75-0.35c0.27-0.17,0.64-0.14,0.96,0.07c-0.17,0.15-0.39,0-0.55,0.18
		c0.16,0.19,0.38,0.1,0.56,0.12c0.27,0.03,0.27,0.03,0.3,0.35c0.01,0.09,0.01,0.09,0.41,0.1
		C105.04,291.53,102.21,290.53,101.52,288.38z"/>
	<path class="st13" d="M136.94,234.93c1.82-2.03,3.71-4,5.62-5.96c0.52-0.28,0.72-0.92,1.28-1.16c0.24,0.06,0.41,0.19,0.42,0.46
		c-0.14,0.56-0.58,0.91-0.94,1.3c-1.8,1.93-3.62,3.84-5.43,5.75c-0.13,0.13-0.25,0.29-0.46,0.27c-0.06,0.03-0.13-0.14-0.19,0.03
		c-0.12,0.38-0.53,0.54-0.67,0.91c-0.08,0.11-0.17,0.21-0.3,0.25c-0.35-0.08,0.01-0.48-0.27-0.59c-0.08-0.34,0.48-0.33,0.39-0.68
		l0,0C136.61,235.36,136.84,235.21,136.94,234.93z"/>
	<path class="st9" d="M161.09,271.62c0.22,0.44,0.68,0.38,1.06,0.52c-0.45,0.15-0.9,0.17-1.36,0.03c-0.65-0.2-1.29-0.47-2-0.34
		c-1.83-0.49-3.66-0.97-5.48-1.46c-0.92-0.25-1.86-0.45-2.75-0.79c0.88-0.03,1.76-0.07,2.63-0.1c0.09-0.12,0.2-0.07,0.3-0.02
		c0.23,0.2,0.51,0.19,0.79,0.18c0.72,0.07,1.39,0.32,2.07,0.51c1.37,0.38,2.76,0.73,4.13,1.13
		C160.71,271.34,160.97,271.35,161.09,271.62z"/>
	<path class="st14" d="M129.27,263.71c0.04-0.04,0.08-0.08,0.13-0.12c0.45,0.02,0.88,0,1.3-0.18c0.11-0.04,0.21-0.05,0.33-0.03
		c0.25,0.06,0.57,0.3,0.58-0.24c0-4.91,0-9.81,0-14.72c0-0.22-0.02-0.45,0.02-0.67c0.04-0.19,0.09-0.39,0.36-0.28
		c0,0.15,0.08,0.22,0.23,0.23c0.19,0.18,0.17,0.37,0.03,0.56c-0.04,0.05-0.06,0.11-0.08,0.18c-0.05,2.15-0.01,4.31-0.02,6.46
		c-0.01,2.27,0,4.53,0,6.8c0,0.26-0.03,0.52,0.05,0.78c0.08,0.34,0.08,0.69,0,1.03c-0.07,0.29-0.09,0.58,0.08,0.85
		c0.04,0.13,0.04,0.26-0.06,0.36c-0.33-0.11-0.22,0.16-0.22,0.28c-0.01,0.69,0,1.38-0.01,2.08c0,0.17,0.08,0.38-0.19,0.58
		c0.08-1.11,0.18-2.15-0.15-3.17c0,1.16,0,2.31,0,3.47c-0.21-0.11-0.1-0.3-0.11-0.45c-0.01-0.79-0.06-1.58,0.01-2.36
		c0.06-0.62-0.2-0.83-0.75-0.96C130.29,264.06,129.73,264.02,129.27,263.71z"/>
	<path class="st7" d="M158.83,235.53c-0.24,0.16-0.37,0.12-0.56-0.14c-0.31-0.43-0.73-0.45-1.15-0.09
		c-0.12,0.04-0.23,0.01-0.32-0.05c-1.29-0.92-2.64-1.74-3.86-2.75c-0.08-0.12-0.17-0.23-0.3-0.3c-0.04-0.03-0.06-0.07-0.07-0.12
		c-0.02-0.31-0.23,0.02-0.31-0.08c-0.43-0.24-0.86-0.47-1.23-0.81c-0.06-0.13-0.1-0.27-0.26-0.32c-0.04-0.03-0.07-0.06-0.09-0.11
		c0.02-0.13,0.13-0.19,0.22-0.27c0.11-0.08,0.15-0.23,0.28-0.3c1.12,0.62,2.11,1.43,3.16,2.14c0.48,0.32,0.95,0.65,1.42,0.99
		c0.14,0.1,0.35,0.16,0.38,0.38c-0.29,0.25-0.46-0.11-0.77-0.14c0.3,0.05,0.46,0.44,0.76,0.13
		C157.1,234.22,157.91,234.96,158.83,235.53z"/>
	<path class="st9" d="M144.18,228.34c0.02-0.26-0.22-0.33-0.35-0.48c0-0.26,0.28-0.35,0.33-0.59c0.01-0.02,0.01-0.04,0.02-0.05
		c1.07-1.28,1.07-1.29,2.42-0.33c0.96,0.68,1.92,1.38,2.87,2.06c0.15,0.13,0.24,0.32,0.44,0.4c0.22,0.09,0.11,0.22-0.02,0.33
		c-0.04,0.03-0.09,0.05-0.14,0.07c-0.18,0.04-0.37,0.05-0.55,0c-0.05-0.02-0.1-0.04-0.14-0.08c-0.19-0.2-0.38-0.4-0.69-0.41
		c-0.89-0.41-1.62-1.06-2.41-1.61c-0.23-0.16-0.45-0.35-0.76-0.17c-0.46,0.1-0.59,0.54-0.89,0.82
		C144.28,228.34,144.23,228.35,144.18,228.34z"/>
	<path class="st15" d="M167.41,274.27c0.31,0.05,0.37-0.11,0.37-0.39c-0.01-0.75,0-1.5,0-2.25c0-9.78,0-19.55,0-29.33
		c0-0.24,0.04-0.49-0.14-0.7c0.34,0.08,0.22,0.35,0.22,0.55c0.01,1.97,0.01,3.94,0.01,5.91c0,8.56,0,17.12,0,25.69
		c0,0.17,0,0.34-0.01,0.51c0,0.12-0.06,0.22-0.19,0.23C167.49,274.52,167.42,274.43,167.41,274.27z"/>
	<path class="st16" d="M114.47,285.31c0.14,0.08,0.19,0.2,0.07,0.32c-0.33,0.33-0.63,0.68-1.1,0.89c-0.05-0.18-0.09-0.33-0.14-0.49
		c0.02-0.07,0.07-0.05,0.12-0.03c0.35,0.12,0.68,0.21,0.42-0.37c-0.07-0.16,0.06-0.38-0.13-0.52c-0.15-0.18-0.11-0.39-0.11-0.59
		c0-2.11-0.01-4.21,0-6.32c0-0.11,0.03-0.22,0.11-0.3c0.42-0.32-0.07-0.52-0.11-0.78c0.26-0.05,0.48-0.07,0.48,0.32
		c-0.02,2.67-0.02,5.34-0.03,8.01c-0.02,0.27,0.09,0.19,0.22,0.09C114.3,285.43,114.37,285.35,114.47,285.31z"/>
	<path class="st17" d="M164.92,278.79c-0.09-0.02-0.22-0.05-0.15-0.16c0.09-0.13,0.19-0.29,0.39-0.27c0.1,0.01,0.18,0.06,0.19,0.17
		c0.01,0.13,0.02,0.26,0.02,0.39c0,3.6,0,7.2,0,10.79c0,0.09-0.01,0.19,0,0.28c0.01,0.22-0.15,0.33-0.29,0.45
		c-0.02,0.02-0.12-0.02-0.13-0.05c-0.05-0.17-0.05-0.33,0.11-0.46c0.1-0.08,0.08-0.2,0.09-0.31c-0.17-0.22-0.11-0.47-0.11-0.71
		c0-3.13,0-6.27,0-9.4C165.03,279.26,165.09,279.01,164.92,278.79z"/>
	<path class="st18" d="M177.97,282.84c-0.22-0.05-0.09-0.4-0.39-0.41c-0.48-0.01-0.97-0.08-1.45,0c-0.19,0.03-0.14,0.24-0.14,0.38
		c0,2.42,0,4.84,0,7.26c0,0.25,0.02,0.49,0.34,0.43c0.28-0.05,0.74,0.26,0.78-0.33c0.02-0.26,0.13-0.41,0.35-0.5
		c0.14,0.13,0.11,0.25,0.01,0.36c-0.11,0.12-0.18,0.25-0.08,0.4c0.06,0.09,0.17,0.09,0.26,0.05c0.19-0.09,0.09-0.25,0.1-0.39
		c0.12-1.45-0.09-2.91,0.16-4.36c0.01-0.06,0.08-0.12,0.12-0.18c-0.02,1.52-0.04,3.04-0.04,4.56c0,0.38-0.1,0.55-0.51,0.52
		c-0.41-0.03-0.83-0.02-1.24-0.01c-0.3,0.01-0.39-0.11-0.39-0.4c0.01-2.51,0.01-5.03,0-7.54c0-0.33,0.12-0.42,0.43-0.41
		c0.39,0.02,0.79,0.03,1.18,0C177.91,282.25,178.04,282.44,177.97,282.84z"/>
	<path class="st19" d="M164.92,278.79c0.37,0.09,0.22,0.39,0.22,0.6c0.01,3.41,0.01,6.81,0.01,10.22c-0.37-0.09-0.22-0.39-0.22-0.6
		C164.92,285.61,164.92,282.2,164.92,278.79z"/>
	<path class="st20" d="M166.28,277.33c-0.41,0.11-0.46,0.41-0.46,0.79c0.01,3.85,0.01,7.7,0,11.55c0,0.35,0.01,0.69,0.4,0.83
		c0.34,0.12,1.08-0.12,1.21-0.45c0.08-0.19,0.16-0.22,0.32-0.2c0.01,0.78,0.01,0.78-0.75,0.78c-0.43,0-0.85,0-1.28,0
		c-0.13-0.17-0.07-0.36-0.07-0.54c0-4.15,0-8.3-0.01-12.44c0-0.46,0.11-0.65,0.59-0.59c0.5,0.06,1.01-0.06,1.51,0.06l0,0
		c0.04,0.06,0.03,0.12-0.03,0.17C167.24,277.43,166.75,277.19,166.28,277.33z"/>
	<path class="st21" d="M181.19,289.61c0.19-0.62,0.05-1.26,0.09-1.89c0.01-0.22,0-0.44,0.12-0.67c0,0.85,0,1.7,0,2.56
		c0,0.97,0,0.96,0.98,0.91c0.39-0.02,0.59-0.21,0.6-0.59c0.01-1.87,0-3.75,0-5.62c0-0.35-0.34-0.63-0.22-1.01
		c0.19,0.23,0.29,0.49,0.34,0.78c0.12,0.18-0.02,0.4,0.1,0.58c0.01,1.87,0.03,3.75,0.05,5.62c0,0.27-0.11,0.37-0.37,0.35
		c-0.24-0.01-0.49,0-0.73,0C181.12,290.63,181.12,290.63,181.19,289.61z"/>
	<path class="st16" d="M113.49,277.12c-0.19,0.4-0.56,0.13-0.83,0.22c-0.12,0.04-0.43-0.16-0.3,0.22c-0.17,0.28-0.23,0.58-0.23,0.91
		c0.01,3.73,0.01,7.46,0,11.2c0,0.41,0.03,0.72,0.56,0.63c0.27-0.05,0.39,0.18,0.57,0.3c-1.26,0.11-1.26,0.11-1.27-1.1
		c-0.01-3.97,0-7.94-0.02-11.91c0-0.4,0.12-0.54,0.51-0.5C112.81,277.12,113.15,277.11,113.49,277.12z"/>
	<path class="st22" d="M136.05,236.2c0.45,0.03,0.02,0.43,0.23,0.56c0.06,0.35-0.15,0.52-0.42,0.66c-0.64,0.19-1,0.69-1.32,1.22
		c-0.03,0.04-0.08,0.06-0.14,0.06c-0.2-0.11-0.41,0.17-0.61-0.02c-0.06-0.06-0.08-0.13-0.06-0.21c0.07-0.3,0.37-0.43,0.51-0.67
		c0.38-0.51,0.82-0.97,1.31-1.39C135.75,236.4,135.78,236.03,136.05,236.2z"/>
	<path class="st23" d="M167.74,277.11c-0.53,0-1.05,0.02-1.58-0.01c-0.38-0.02-0.48,0.12-0.47,0.48c0.02,1.61,0,3.22,0.01,4.84
		c0.01,2.74,0.02,5.47,0.03,8.21c-0.22-0.12-0.13-0.33-0.13-0.5c-0.01-4.19,0-8.37-0.01-12.56c0-0.43,0.11-0.63,0.57-0.57
		C166.68,277.06,167.23,276.86,167.74,277.11z"/>
	<path class="st24" d="M107.17,290.06c0-0.04,0-0.07,0-0.11c0.03-0.04,0.04-0.11,0.11-0.11c0.13-0.13,0.25-0.27,0.45-0.11
		c0.17,0.16,0.07,0.44,0.26,0.59c0.12,0.06,0.25,0.05,0.38,0.05c0.09,0,0.18-0.01,0.27-0.01c0.75-0.07,0.82-0.14,0.83-0.89
		c0.01-2.02,0-4.05,0-6.07c0-0.28-0.03-0.56,0.06-0.84c0.03-0.07,0.07-0.12,0.13-0.16c0.11,0.15,0.07,0.32,0.07,0.49
		c0,2.38-0.01,4.75,0.01,7.13c0,0.47-0.1,0.71-0.62,0.64c-0.24-0.03-0.49-0.03-0.73,0c-0.54,0.06-0.95,0-0.78-0.74
		C107.44,289.97,107.31,290.02,107.17,290.06z"/>
	<path class="st20" d="M169.66,282.18c0.04,0.33-0.26,0.39-0.44,0.42c-0.42,0.08-0.77,0.22-1.05,0.54c-0.11,0.12-0.24,0.19-0.4,0.13
		c-0.19-0.08-0.19-0.27-0.18-0.43c0.09-1.48-0.01-2.96,0.05-4.44c0.02-0.55,0.02-1.02-0.69-1.08c0.27-0.09,0.54-0.08,0.81-0.01
		c0.09,1.71,0.01,3.41,0.05,5.12c0,0.16-0.18,0.53,0.28,0.41C168.6,282.62,169.03,282.17,169.66,282.18z"/>
	<path class="st5" d="M103.56,282.4c-0.11,0.32-0.34,0.56-0.62,0.69c-0.68,0.31-0.97,0.93-1.35,1.5c0.11,0.09,0.17,0.06,0.24,0.01
		c0.07-0.05,0.13-0.18,0.22-0.06c0.09,0.12-0.01,0.21-0.12,0.26c-0.21,0.11-0.43,0.21-0.64,0.31
		C101.56,283.79,102.3,282.87,103.56,282.4z"/>
	<path class="st23" d="M168.08,282.85c-0.04,0.12-0.11,0.22-0.24,0.19c-0.17-0.05-0.1-0.22-0.1-0.34c0-1.42,0-2.84,0-4.25
		c0-0.37-0.02-0.74-0.03-1.12c-0.02-0.02-0.03-0.05-0.03-0.07c0.01-0.03,0.01-0.04,0.02-0.04c0.01-0.04,0.02-0.07,0.03-0.11
		c0.2,0.16,0.11,0.38,0.11,0.58c0.01,1.54,0,3.08,0.01,4.62C167.87,282.5,167.74,282.78,168.08,282.85z"/>
	<path class="st25" d="M151.18,230.18c-0.02,0.16,0.01,0.36-0.24,0.38c-0.38-0.11-0.74-0.26-1.11-0.38
		c-0.04-0.04-0.08-0.08-0.1-0.13c-0.04-0.14-0.03-0.28,0.08-0.39l0,0c0.15-0.05,0.29-0.15,0.47-0.14c0.2,0.32,0.56,0.41,0.85,0.59
		C151.16,230.12,151.18,230.15,151.18,230.18z"/>
	<path class="st26" d="M131.65,289.5c0.26-0.25-0.04-0.36-0.15-0.48c-0.27-0.28-0.44-0.59-0.42-0.98c0.64,0.39,0.97,1.08,0.77,1.62
		C131.79,289.6,131.72,289.55,131.65,289.5z"/>
	<path class="st27" d="M144.16,227.27c0.06,0.29-0.17,0.42-0.33,0.59c-0.48,0.31-0.65,0.97-1.27,1.11
		C143.03,228.35,143.59,227.81,144.16,227.27z"/>
	<path class="st28" d="M101.31,286.68c0,0.26,0,0.53,0,0.79c-0.03,0.05-0.05,0.05-0.08,0c-0.21-0.8-0.2-1.59,0.08-2.38
		c0,0.19,0.01,0.38,0.01,0.57C101.5,286.01,101.43,286.35,101.31,286.68z"/>
	<path class="st29" d="M152.51,282.63c-0.05,0.2-0.16,0.36-0.34,0.48c-0.03-0.03-0.07-0.06-0.07-0.08
		c-0.02-0.73-0.02-0.73-0.77-0.73c-0.35,0-0.71,0.02-1.06,0.03c0.58-0.35,1.21-0.15,1.82-0.11c0.29,0.02-0.02,0.37,0.13,0.52
		C152.31,282.71,152.41,282.67,152.51,282.63z"/>
	<path class="st24" d="M108.3,282.41c-0.41-0.07-0.63,0.06-0.57,0.53c0.02,0.11-0.07,0.24-0.11,0.36c-0.13,0.07-0.16-0.05-0.22-0.11
		c0-0.05,0.01-0.1,0.01-0.14c0.14,0,0.22-0.06,0.2-0.2c-0.11-0.57,0.23-0.61,0.65-0.56c0.47,0.05,0.95-0.11,1.41,0.1
		c-0.01,0.01-0.03,0.03-0.04,0.04c-0.12,0.11-0.27,0.11-0.42,0.1c-0.09-0.01-0.16-0.06-0.23-0.12c-0.15,0-0.3,0-0.45,0
		C108.45,282.47,108.38,282.47,108.3,282.41z"/>
	<path class="st30" d="M123.2,288.59c-0.47-0.15-1.08-0.97-1.05-1.41c0-0.02,0.1-0.03,0.15-0.04
		C122.45,287.72,122.76,288.2,123.2,288.59z"/>
	<path class="st31" d="M136.05,236.2c-0.19,0-0.23,0.36-0.49,0.21c0.23-0.34,0.5-0.64,0.83-0.89
		C136.73,235.98,136.17,235.98,136.05,236.2z"/>
	<path class="st32" d="M147.59,248.49c-0.27,0-0.55,0-0.82,0c0-0.04,0-0.08,0-0.12c0.87,0,1.75,0,2.62,0
		C148.8,248.51,148.19,248.5,147.59,248.49z"/>
	<path class="st33" d="M193.8,287.13c-0.17-0.45-0.17-0.9,0-1.35C193.9,286.23,193.91,286.68,193.8,287.13z"/>
	<path class="st34" d="M150.28,229.52c-0.14,0.1-0.29,0.15-0.47,0.14c0.01-0.08,0.18-0.19,0.09-0.2c-0.35-0.03-0.33-0.3-0.42-0.51
		C149.78,229.1,150.06,229.27,150.28,229.52z"/>
	<path class="st5" d="M101.22,287.47c0.03,0,0.05,0,0.08,0c0.03,0.11,0.27-0.14,0.23,0.14c-0.03,0.26-0.01,0.52-0.02,0.78
		C101.3,288.12,101.23,287.81,101.22,287.47z"/>
	<path class="st35" d="M162.89,289.39c-0.22-0.33-0.16-0.5,0.26-0.47c0.06,0,0.12,0,0.18,0.01
		C163.43,289.31,163.27,289.46,162.89,289.39z"/>
	<path class="st34" d="M151.13,230.11c-0.37-0.08-0.79-0.07-0.85-0.59C150.6,229.67,150.89,229.86,151.13,230.11z"/>
	<path class="st36" d="M134.35,290.75c0.5,0.03,0.99-0.1,1.49,0.02C135.34,290.89,134.84,290.91,134.35,290.75z"/>
	<path class="st37" d="M133.79,238.45c0,0.07,0,0.15,0,0.22c-0.33,0.04-0.41,0.53-0.81,0.44c0.18-0.27,0.39-0.5,0.66-0.69
		C133.7,238.38,133.75,238.39,133.79,238.45z"/>
	<path class="st38" d="M162.89,289.39c0.24-0.06,0.4-0.22,0.45-0.46c0.17-0.03,0.2,0.08,0.22,0.21c-0.17,0.26-0.33,0.52-0.65,0.62
		C162.9,289.63,162.9,289.51,162.89,289.39z"/>
	<path class="st39" d="M162.9,289.76c0.22-0.21,0.44-0.41,0.65-0.62c-0.14,0.46-0.45,0.76-0.91,0.92
		C162.73,289.96,162.82,289.86,162.9,289.76z"/>
	<path class="st36" d="M136.5,290.51c0.12,0.01,0.25,0.01,0.37,0.02c-0.29,0.18-0.61,0.23-0.94,0.22c0.04-0.08,0.08-0.16,0.12-0.23
		C136.2,290.38,136.35,290.4,136.5,290.51z"/>
	<path class="st36" d="M133.32,290.52c0.37-0.02,0.74-0.05,1.04,0.23C133.98,290.78,133.63,290.72,133.32,290.52z"/>
	<path class="st26" d="M130.51,285.86c0,0.43,0,0.86,0,1.29C130.38,286.72,130.38,286.29,130.51,285.86z"/>
	<path class="st40" d="M133.79,238.45c-0.05-0.01-0.1-0.01-0.15-0.02c0.15-0.26,0.34-0.48,0.6-0.64
		C134.22,238.1,133.89,238.2,133.79,238.45z"/>
	<path class="st41" d="M137.95,290.05c0.17-0.18,0.33-0.38,0.57-0.47C138.36,289.78,138.4,290.21,137.95,290.05z"/>
	<path class="st31" d="M136.94,234.93c0.04,0.4-0.26,0.49-0.55,0.59C136.53,235.29,136.71,235.08,136.94,234.93z"/>
	<path class="st42" d="M145.74,290.17c0.12-0.13,0.22-0.34,0.41-0.27c0.14,0.05,0.06,0.25,0.04,0.39
		C146.08,290.11,145.91,290.15,145.74,290.17z"/>
	<path class="st43" d="M156.25,283.76c-0.06,0.22-0.2,0.4-0.35,0.56C155.87,284.04,156,283.86,156.25,283.76z"/>
	<path class="st44" d="M163.81,284.76c-0.27-0.1-0.24-0.33-0.24-0.55C163.72,284.36,163.81,284.55,163.81,284.76z"/>
	<path class="st29" d="M153.21,282.19c-0.14,0.11-0.28,0.23-0.47,0.22C152.79,282.09,153.02,282.19,153.21,282.19z"/>
	<path class="st1" d="M183.19,284.65c-0.18-0.17-0.08-0.38-0.1-0.58C183.23,284.25,183.2,284.45,183.19,284.65z"/>
	<path class="st3" d="M114.27,285.53c-0.04,0.1-0.08,0.23-0.22,0.17c-0.11-0.06-0.13-0.17-0.01-0.25
		C114.1,285.53,114.18,285.55,114.27,285.53z"/>
	<path class="st45" d="M170.79,288.71c-1.41,0.61-2.83-0.24-3.1-1.85c-0.18-1.1,0.36-2.22,1.28-2.65c0.91-0.42,1.99-0.19,2.67,0.57
		c0.61,0.69,0.74,1.9,0.29,2.8c-0.18,0.2-0.33,0.42-0.46,0.65c-0.1,0.09-0.2,0.18-0.3,0.27
		C171.02,288.54,170.89,288.6,170.79,288.71z"/>
	<path class="st46" d="M167.71,277.22c0,0.04,0,0.08,0.01,0.11c-0.25,0-0.51,0-0.76,0c-0.08,0-0.15,0-0.23,0
		c-0.15,0.08-0.3,0.09-0.45,0c0,0,0,0,0,0C166.74,277.08,167.24,277.28,167.71,277.22z"/>
	<path class="st47" d="M171.46,288.23c-0.06-0.37,0.21-0.5,0.46-0.65C171.89,287.89,171.72,288.09,171.46,288.23z"/>
	<path class="st47" d="M170.79,288.71c0.03-0.25,0.2-0.23,0.38-0.2C171.07,288.63,170.96,288.73,170.79,288.71z"/>
	<path class="st20" d="M166.28,277.33c0.15,0,0.3,0,0.45,0C166.58,277.4,166.43,277.67,166.28,277.33z"/>
	<path class="st45" d="M134.4,238.7c0.03,0.01,0.05,0.01,0.07-0.02c0.33-0.57,0.87-0.93,1.33-1.36c0.21-0.14,0.4-0.31,0.49-0.56
		c0.07-0.08,0.15-0.15,0.22-0.23c0.27-0.37,0.61-0.68,0.94-0.99c0.87-0.77,1.62-1.65,2.41-2.49c1.21-1.28,2.42-2.56,3.62-3.85
		c0.25-0.27,0.47-0.57,0.7-0.86c0.03-0.02,0.07-0.03,0.1-0.05c0.28-0.32,0.57-0.62,0.89-0.89c0.19-0.26,0.37-0.2,0.61-0.02
		c0.88,0.63,1.78,1.22,2.67,1.83c0.29,0.06,0.47,0.28,0.67,0.46l0,0c0.24,0.13,0.54,0.18,0.67,0.47l0-0.01
		c0.34,0.18,0.67,0.37,0.92,0.66l0,0c0.15,0.07,0.26,0.18,0.34,0.32c0.41,0.27,0.83,0.54,1.24,0.81c0.11,0.09,0.3,0.04,0.34,0.23
		l0,0c0.1,0.09,0.26,0.11,0.34,0.24c1.36,1.01,2.73,2.01,4.16,2.93c2.34,1.65,4.67,3.3,7.02,4.95c0.82,0.58,1.65,1.13,2.48,1.7
		c0.16,0.01,0.29,0.05,0.31,0.23c0,10.16,0,20.31,0.01,30.47c0,0.43-0.07,0.55-0.53,0.41c-1.77-0.51-3.55-0.97-5.32-1.45
		c-2.27-0.64-4.54-1.31-6.84-1.85c-0.27-0.08-0.57-0.06-0.82-0.23c-0.08-0.02-0.15-0.05-0.23-0.07c-0.9-0.2-1.77-0.51-2.63-0.83
		c-0.04-0.28-0.02-0.56-0.02-0.84c0-6.49,0-12.97,0-19.46c0-0.22,0.05-0.45-0.05-0.66c-0.28-0.16-0.57-0.09-0.86-0.04
		c-0.59,0.03-1.18-0.05-1.77,0.05c-0.63-0.01-1.27-0.03-1.89,0.12c-0.1,0.09-0.21,0.07-0.32,0.02c-1.15,0.04-2.31,0.08-3.46,0.12
		c-0.99,0.04-1.98,0.1-2.97,0.2c-0.29,0-0.57,0-0.86,0c-0.23-0.11-0.46,0.01-0.69-0.04c-0.19-0.09-0.4-0.06-0.6-0.07
		c-0.29-0.02-0.57-0.13-0.86-0.17c-0.13-0.06-0.29-0.04-0.41-0.14c-0.13-0.15-0.31-0.11-0.47-0.12c-0.15-0.01-0.36-0.01-0.37-0.18
		c-0.02-0.2,0.19-0.25,0.36-0.28c0.07-0.01,0.15-0.01,0.15-0.01c-0.18,0-0.43,0.01-0.67-0.09c-0.25-0.11-0.48-0.08-0.66,0.14
		c-0.09,0.1-0.21,0.2-0.34,0.18c-0.55-0.11-1.1-0.17-1.65-0.26c-0.21-0.03-0.17-0.21-0.03-0.33c0.12-0.11,0.27-0.11,0.42-0.16
		c-0.31-0.04-0.3-0.04-0.53,0.2c-0.28,0.29-0.57,0.12-0.85-0.06c-0.07,0.27,0.14,0.37,0.21,0.53c0.19,0.38,0.09,0.71-0.31,0.78
		c-0.42,0.08-0.48,0.32-0.48,0.68c0.01,1.71,0,3.42,0,5.13c0,2.69,0,5.37,0,8.06c0,0.37,0.01,0.7,0.42,0.9
		c0.18,0.08,0.53,0.1,0.44,0.4c-0.08,0.27-0.38,0.14-0.6,0.15c-0.07-0.01-0.13-0.03-0.19-0.07c-0.48-0.14-0.57-0.47-0.57-0.94
		c0.02-6.26,0-12.52,0.01-18.78c0-0.27,0.2-0.42,0.37-0.58c0.57-0.57,1.14-1.15,1.72-1.72c0.2-0.15,0.38-0.33,0.41-0.6
		c0.56-0.58,1.07-1.21,1.67-1.75C134.3,238.83,134.35,238.77,134.4,238.7z"/>
	<path class="st45" d="M138.5,248.94c0.01,0.19,0.03,0.37,0.03,0.56c0,5.17-0.01,10.35,0.02,15.52c0,0.53-0.17,0.69-0.66,0.79
		c-1.63,0.32-3.26,0.69-4.89,1.03c-0.6,0.14-0.62,0.13-0.65-0.44c-0.08-2.02-0.08-4.05-0.08-6.07c0.01-3.73,0-7.46,0-11.2
		c0-0.21-0.01-0.41,0.01-0.62c0.04-0.37,0.2-0.57,0.6-0.38c0.59,0.13,1.19,0.24,1.8,0.25c0.04-0.05,0.06-0.05,0.09,0.01
		c0.53,0.15,1.06,0.23,1.61,0.24c0.18-0.04,0.36-0.05,0.54,0.01c0.29,0.12,0.6,0.03,0.9,0.08
		C138.05,248.79,138.32,248.74,138.5,248.94z"/>
	<path class="st48" d="M132.89,248.13c-0.41-0.07-0.48,0.14-0.48,0.51c0.01,5.93,0.02,11.86,0,17.79c0,0.56,0.3,0.43,0.6,0.41
		c-0.14,0.28-0.41,0.24-0.62,0.18c-0.25-0.07-0.12-0.33-0.13-0.49c-0.04-0.61-0.03-1.22-0.04-1.83c0-0.11,0-0.23,0-0.34
		c-0.15-0.18-0.12-0.39-0.12-0.59c0.02-4.83-0.01-9.65,0.01-14.48c0-0.38-0.05-0.78,0.11-1.16c0.11-0.15,0.01-0.3,0-0.45
		C132.56,247.66,132.72,247.9,132.89,248.13z"/>
	<path class="st49" d="M137.65,248.02c0.24-0.01,0.48-0.02,0.69,0.11c-1.23,0.22-2.42-0.23-3.65-0.27
		c-0.89-0.03-1.79-0.35-2.71-0.39c-0.37,0.09-0.22,0.39-0.22,0.6c-0.01,5.13-0.01,10.27-0.01,15.4c-0.18,0-0.21-0.13-0.22-0.26
		c-0.03-0.26-0.05-0.52-0.05-0.78c0-4.83,0-9.67,0-14.5c0-0.22-0.02-0.45,0.05-0.67c0.23-0.37,0.56-0.04,0.83-0.12
		c0.21,0.05,0.42,0.07,0.64,0.07c0.33,0.05,0.65,0.14,0.98,0.16c0.2,0.06,0.41,0.07,0.61,0.07c0.3,0.06,0.59,0.12,0.89,0.17
		c0.21,0.11,0.45,0.15,0.68,0.2c0.31-0.02,0.6,0.07,0.89,0.13C137.25,248.04,137.47,247.91,137.65,248.02z"/>
	<path class="st50" d="M150.47,247.51c0.21,0.07,0.12,0.25,0.12,0.38c0,6.84,0,13.68-0.01,20.52c0,0.07-0.02,0.15-0.03,0.22
		c-0.14-0.21-0.07-0.44-0.07-0.66c0-6.51,0-13.03,0-19.54c0-0.75,0-0.74-0.77-0.75c-0.62,0-1.24-0.01-1.86-0.01
		c0.6-0.13,1.21-0.12,1.81-0.11C149.93,247.47,150.2,247.56,150.47,247.51z"/>
	<path class="st51" d="M138.74,249.19c0,5.53,0,11.07,0,16.6c-0.02,0-0.04,0-0.06,0c0-5.54,0-11.08,0-16.62
		C138.7,249.18,138.72,249.19,138.74,249.19z"/>
	<path class="st52" d="M149.91,251c0,2.9,0,5.81,0,8.71c-0.02,0-0.04,0-0.06,0c0-2.91,0-5.82,0-8.74
		C149.87,250.98,149.89,250.99,149.91,251z"/>
	<path class="st51" d="M138.5,248.94c-0.22-0.02-0.45,0.01-0.65-0.1c-0.28-0.21-0.62,0.02-0.9-0.13c-0.19,0.03-0.38,0.01-0.55-0.08
		c0.02-0.03,0.04-0.09,0.06-0.09c0.69,0.06,1.39-0.05,2.06,0.21C138.64,248.81,138.79,248.89,138.5,248.94z"/>
	<path class="st53" d="M139.21,248.13c0.98-0.21,1.97-0.25,2.97-0.2C141.19,248.08,140.2,248.14,139.21,248.13z"/>
	<path class="st54" d="M145.64,247.81c0.11-0.01,0.22-0.01,0.32-0.02c0.49,0,0.98,0,1.47,0
		C146.83,247.85,146.23,248.04,145.64,247.81z"/>
	<path class="st55" d="M134.78,248.39l-0.05,0.01c0,0-0.04-0.02-0.04-0.02c0.16-0.19,0.35-0.12,0.55-0.05
		C135.09,248.35,134.93,248.37,134.78,248.39z"/>
	<path class="st56" d="M157.6,285.22c0.44-0.74,1.03-1.26,1.94-1.35c1.08-0.1,1.88,0.34,2.45,1.24c0.18,0.31,0,0.43-0.27,0.43
		c-1.25,0.03-2.5,0.02-3.75,0.01C157.77,285.55,157.59,285.47,157.6,285.22z"/>
	<path class="st57" d="M157.6,285.22c0.08,0.24,0.29,0.19,0.47,0.19c1.18,0,2.35,0,3.53,0.01c0.22,0,0.43,0.02,0.38-0.31
		c0.29,0.14,0.28,0.29,0.01,0.45c-1.43,0.09-2.85,0.08-4.28,0C157.59,285.47,157.37,285.42,157.6,285.22z"/>
	<path class="st58" d="M157.71,285.56c1.43,0,2.85,0,4.28,0c-0.17,0.18-0.38,0.11-0.58,0.11c-0.99,0.01-1.97,0.01-2.96,0
		c-0.27,0-0.51,0.01-0.61,0.32C157.67,285.85,157.82,285.67,157.71,285.56z"/>
	<path class="st59" d="M124.6,285.42c-0.58,0-1.16-0.01-1.75,0c-0.43,0.01-0.43-0.13-0.23-0.45c0.88-1.43,3.07-1.5,4-0.13
		c0.09,0.14,0.24,0.28,0.17,0.46c-0.08,0.2-0.29,0.12-0.45,0.12C125.77,285.43,125.18,285.42,124.6,285.42z"/>
	<path class="st60" d="M128.6,286.68c-0.04,0.28-0.26,0.22-0.44,0.22c-1.59,0-3.19,0-4.78,0c-0.09,0-0.2,0.01-0.28-0.02
		c-0.14-0.06-0.31-0.16-0.29-0.3c0.02-0.21,0.24-0.09,0.37-0.12c0.2,0.16,0.43,0.11,0.65,0.11c1.37,0,2.74,0,4.12,0.01
		C128.17,286.58,128.41,286.51,128.6,286.68z"/>
	<path class="st61" d="M128.6,286.68c-1.62,0-3.25,0-4.87,0c-0.2,0-0.47,0.12-0.54-0.22c1.8,0,3.61,0,5.41,0
		C128.67,286.53,128.67,286.61,128.6,286.68L128.6,286.68z"/>
	<path class="st62" d="M126.65,285.65c-1.29,0-2.58,0-3.87,0c0-0.02,0-0.04,0-0.06c1.3,0,2.6,0,3.89,0
		C126.66,285.62,126.66,285.63,126.65,285.65z"/>
	<path class="st60" d="M128.6,286.68c0-0.08,0-0.15,0-0.23c0.18-0.26-0.16-0.57,0.12-0.87c0.19,0.4,0.09,0.8,0.08,1.18
		C128.81,286.86,128.68,286.7,128.6,286.68z"/>
	<path class="st63" d="M113.71,277.89c0,0.08,0,0.15,0,0.23c-0.11,0.19-0.05,0.4-0.06,0.6c0,1.94,0,3.89-0.01,5.83
		c0,0.18,0.05,0.37-0.05,0.55c-0.18-0.17-0.11-0.38-0.11-0.58c0.03-2.22-0.07-4.44,0.05-6.66c0.01-0.14-0.17-0.26-0.04-0.41
		C113.81,277.5,113.68,277.73,113.71,277.89z"/>
	<path class="st64" d="M113.6,285.11c0-2.13,0-4.27,0-6.4c0-0.2-0.07-0.42,0.11-0.58c0,2.33,0,4.66,0,6.99
		C113.68,285.11,113.64,285.11,113.6,285.11z"/>
	<path class="st63" d="M112.33,277.52c0.31-0.12,0.56-0.08,0.81,0C112.88,277.52,112.62,277.52,112.33,277.52z"/>
	<path class="st65" d="M189.29,288.94c-1.25-0.16-2.14-1.29-2.04-2.69c0.09-1.3,1.04-2.24,2.29-2.23c1.24,0.01,2.15,0.98,2.24,2.29
		c0.08,1.21-0.8,2.45-1.93,2.64C189.66,289.03,189.48,289.02,189.29,288.94z"/>
	<path class="st66" d="M187.03,290.06c-0.06,0.13,0.18,0.55-0.32,0.29c-0.25-0.13-0.59,0.04-0.92-0.04
		c-0.45-0.11-0.42-0.39-0.28-0.61c0.17-0.27,0.16-0.53,0.16-0.8c0-3.67,0-7.34,0-11.01c0.17-0.17,0.33-0.21,0.51-0.01
		c0.1,0.37,0.58,0.39,0.69,0.75c0.01,0.1-0.01,0.19-0.05,0.27c-0.19,0.72-0.05,1.45-0.08,2.17c-0.02,0.32,0.02,0.64-0.02,0.95
		c-0.03,0.22-0.04,0.48-0.39,0.37c-0.19-0.68-0.05-1.38-0.09-2.06c-0.01-0.23,0-0.47,0-0.7c-0.04,1.37,0.07,2.74,0.05,4.1
		c-0.03,1.84-0.08,3.67-0.03,5.5c0,0.14-0.05,0.26-0.14,0.36c-0.15,0.02-0.23,0.1-0.21,0.26c0.02,0.17,0.15,0.19,0.28,0.19
		C186.48,290.06,186.75,290.06,187.03,290.06z"/>
	<path class="st14" d="M186.13,289.61c0-3.58,0-7.16,0-10.74c0.08,0,0.15,0,0.23,0c0,1.18,0,2.35,0,3.53
		c0.11,0.15,0.32,0.07,0.45,0.17c0.11,0.07,0.13,0.2,0.22,0.28c0,0.08,0,0.15,0,0.23c0,0.15-0.08,0.22-0.23,0.23
		c-0.18,0.03-0.16,0.15-0.14,0.29c0.03,0.21,0.09,0.43-0.08,0.62c0,0.15,0,0.3,0,0.45c-0.48,0.34-0.17,0.81-0.18,1.22
		c-0.01,0.2,0.23,0.34,0.51,0.19c-0.03,0.09-0.04,0.15-0.05,0.15c-0.64,0.09-0.52,0.59-0.49,0.99c0.06,0.71-0.17,1.43,0.18,2.14
		C186.68,289.63,186.32,289.59,186.13,289.61z"/>
	<path class="st67" d="M191.2,288.6c0.14-0.17,0.27-0.35,0.44-0.56c0.1,0.36,0.45,0.58,0.35,0.98c-0.03,0.13,0.01,0.27-0.12,0.36
		c-0.14,0.1-0.2,0.42-0.42,0.27c-0.27-0.19,0.05-0.31,0.14-0.43C191.91,288.81,191.88,288.75,191.2,288.6L191.2,288.6z"/>
	<path class="st12" d="M187.49,284.35c-0.27,0.25-0.52,0.48-0.8,0.73c-0.13-0.16-0.19-0.35-0.05-0.42
		C186.9,284.54,187.03,284.06,187.49,284.35z"/>
	<path class="st12" d="M186.58,284.2c-0.03-0.23,0.07-0.47-0.11-0.68c-0.15-0.18,0.05-0.27,0.14-0.35c0.14-0.12,0.17,0.01,0.2,0.13
		C186.98,283.67,186.94,283.97,186.58,284.2z"/>
	<path class="st66" d="M187.37,289.61c-0.06,0.15-0.18,0.23-0.34,0.23c-0.27-0.04-0.23-0.23-0.21-0.41c0.02-0.11,0.1-0.14,0.2-0.14
		C187.25,289.28,187.35,289.4,187.37,289.61z"/>
	<path class="st67" d="M189.17,289.15c-0.26,0.02-0.43-0.02-0.54,0.05c-0.11,0.07-0.17,0.26-0.34,0.17
		c-0.23-0.12,0.17-0.27-0.06-0.44C188.54,289,188.81,289.06,189.17,289.15z"/>
	<path class="st67" d="M190.53,289.05c0.23-0.15,0.45-0.3,0.68-0.45c0,0,0,0,0,0C191.36,289.32,190.85,289.04,190.53,289.05
		L190.53,289.05z"/>
	<path class="st67" d="M189.06,289.16c0.3,0,0.6,0,0.9,0c0,0.04,0,0.07,0,0.11l0,0C189.62,289.57,189.33,289.47,189.06,289.16z"/>
	<path class="st67" d="M189.96,289.27c0.26,0,0.52,0,0.78,0C190.49,289.25,190.21,289.67,189.96,289.27
		C189.96,289.28,189.96,289.27,189.96,289.27z"/>
	<path class="st68" d="M189.19,283.77c0.21,0,0.42,0,0.64,0c0,0.02,0,0.04,0,0.06c-0.21,0-0.42,0-0.63,0
		C189.2,283.81,189.19,283.79,189.19,283.77z"/>
	<path class="st12" d="M187.26,283.74c0.02-0.07,0.02-0.17,0.12-0.14c0.08,0.02,0.09,0.1,0.08,0.18c-0.01,0.07-0.02,0.17-0.12,0.14
		C187.27,283.9,187.26,283.81,187.26,283.74z"/>
	<path class="st67" d="M189.96,289.16c0.16-0.19,0.37-0.09,0.56-0.11c0,0,0,0,0,0C190.37,289.24,190.15,289.14,189.96,289.16z"/>
	<path class="st67" d="M189.29,288.94c0.19,0,0.38,0,0.57,0C189.66,289.11,189.48,289.11,189.29,288.94z"/>
	<path class="st9" d="M133.23,288.6c0.64,0.54,1.4,0.58,2.19,0.58c0.25,0,0.73-0.17,0.72,0.4c0,0.07,0.14,0.15,0.01,0.22
		c-0.11,0.06-0.22,0.03-0.3-0.07c-0.39-0.54-0.94-0.44-1.48-0.36c-0.17,0.02-0.32,0.04-0.36,0.27c-0.04,0.23-0.36,0.23-0.36,0.12
		c0.01-0.56-0.48-0.72-0.76-1.04C132.98,288.59,133.1,288.59,133.23,288.6z"/>
	<path class="st69" d="M136.5,290.51c-0.15,0-0.3,0-0.45,0c-0.58,0-1.16,0-1.87,0c0.31-0.32,0.56-0.21,0.78-0.22
		c0.46-0.02,0.93,0.07,1.34-0.23c0.37-0.28,0.8-0.23,1.31-0.2c-0.3,0.24-0.53,0.41-0.84,0.43
		C136.61,290.3,136.51,290.35,136.5,290.51z"/>
	<path class="st26" d="M133.23,288.6c-0.08,0.13-0.21,0.11-0.34,0.11c-0.14-0.08-0.31-0.14-0.43-0.24c-0.28-0.24-0.26,0.05-0.3,0.21
		c-0.69-0.97-0.69-0.97-0.46-1.63c0,0.78,0.35,1.03,0.97,1.03C132.91,288.08,133.09,288.37,133.23,288.6z"/>
	<path class="st26" d="M131.01,288.04c-0.04-0.58-0.62-1.06-0.22-1.75C131.34,286.82,130.95,287.48,131.01,288.04z"/>
	<path class="st9" d="M136.08,289.03c0.44-0.21,0.87-0.39,1.25-0.77c0.09,0.4,0.17,0.7-0.35,0.68
		C136.69,288.93,136.49,289.43,136.08,289.03z"/>
	<path class="st45" d="M145.27,288.59c-1.39,0.53-2.27,0.36-3-0.59c-0.65-0.84-0.64-2.26,0.01-3.1c0.67-0.86,1.71-1.12,2.71-0.68
		c0.56,0.25,0.89,0.72,1.18,1.23c0.37,0.59,0.32,1.21,0.16,1.85c-0.01,0.06-0.03,0.11-0.05,0.17
		C146.03,287.9,145.82,288.4,145.27,288.59z"/>
	<path class="st70" d="M145.75,289.61c-0.08,0.15-0.15,0.3-0.23,0.45c-0.19,0.06-0.38,0.13-0.57,0.19
		c-0.04-0.18,0.11-0.18,0.19-0.22c0.29-0.16,0.24-0.28-0.02-0.41c-0.54-0.28-1.1-0.38-1.7-0.3c-0.11,0.01-0.21,0.1-0.31-0.01
		c-0.02-0.03-0.01-0.11,0.01-0.15c0.07-0.1,0.19-0.12,0.3-0.08c0.42,0.15,0.85,0.07,1.28,0.07c0.34,0,0.67-0.06,0.82-0.44
		c0.01-0.29,0.21-0.47,0.39-0.66c0.16-0.17,0.23-0.38,0.27-0.6l-0.01,0.01c0.15-0.1,0.03-0.31,0.16-0.42
		c0.24-0.35,0.23-0.71,0.03-1.08c-0.04-0.11-0.03-0.22,0.06-0.3c-0.05-0.41-0.29-0.74-0.41-1.14c0.37,0.06,0.48,0.29,0.47,0.65
		c0.24-0.78,0.2-1.55,0.05-2.32c0.12-0.11,0-0.36,0.28-0.4c0,2.37,0,4.72,0,7.08c-0.25-0.44-0.11-0.92-0.24-1.4
		c-0.16,0.41-0.21,0.89-0.72,1.03c-0.11,0.17-0.31,0.15-0.47,0.24C145.54,289.44,145.68,289.47,145.75,289.61z"/>
	<path class="st71" d="M146.18,287.46c0.12,0.6-0.41,0.86-0.66,1.26c-0.08-0.04-0.17-0.08-0.25-0.13
		C145.64,288.26,145.93,287.87,146.18,287.46z"/>
	<path class="st71" d="M146.42,285.67c0,0.11,0,0.23,0,0.34c0.19,0.38,0.13,0.75,0,1.13c-0.14,0.07-0.08,0.29-0.25,0.33
		c0.14-0.67,0.16-1.34,0-2.01C146.26,285.52,146.34,285.6,146.42,285.67z"/>
	<path class="st65" d="M107.51,287.57c-0.82,1.72-3.21,1.89-4.17-0.1c-0.39-0.67-0.38-1.35-0.01-2.03c0.18-0.27,0.3-0.59,0.58-0.79
		c0.2-0.18,0.45-0.3,0.67-0.46c1.8-0.66,3.41,0.73,3.1,2.67C107.64,287.11,107.57,287.34,107.51,287.57z"/>
	<path class="st72" d="M108.98,282.41c0.08,0,0.15,0,0.23,0c0.22,0.25,0.17,0.56,0.17,0.86c0.01,1.8-0.02,3.6,0.01,5.4
		c0.01,0.78,0.03,1.5-0.86,1.83c-0.08,0-0.15,0-0.23,0c-0.13-0.13-0.19-0.3-0.28-0.45c-0.02-0.08-0.01-0.15,0.05-0.21
		c0.18-0.02,0.41,0.08,0.45-0.23c0.46,0.07,0.46-0.22,0.45-0.55C108.97,286.85,108.98,284.63,108.98,282.41z"/>
	<path class="st5" d="M101.77,285.6c-0.03-0.28,0.05-0.41,0.19-0.56c0.21-0.23,0.6-0.43,0.35-0.87c-0.02-0.03,0.01-0.11,0.05-0.13
		c0.13-0.09,0.33-0.11,0.42-0.02c0.15,0.15,0.43,0.11,0.47,0.32c0.02,0.12-0.15,0.24-0.29,0.3c-0.47,0.19-0.34,0.78-0.72,1.04
		c-0.1,0.07,0.1,0.4-0.25,0.32C101.66,285.94,101.81,285.69,101.77,285.6z"/>
	<path class="st5" d="M102.23,286.34c0.04-0.1-0.15-0.3,0.1-0.33c0.23-0.03,0.34,0.08,0.34,0.32c0,0.33,0.18,0.65,0.1,0.99
		c-0.02,0.06-0.07,0.14-0.12,0.17c-0.08,0.04-0.17-0.03-0.16-0.1C102.5,287.01,102.07,286.75,102.23,286.34z"/>
	<path class="st73" d="M103.33,285.44c-0.16,0.68-0.16,1.35,0.01,2.03c-0.07-0.04-0.15-0.08-0.22-0.11c0,0,0,0,0,0
		c-0.21-0.3-0.07-0.65-0.11-0.97c0.01-0.13,0-0.26,0.06-0.38c0.03-0.06-0.07-0.07-0.03,0c0.03,0.07-0.11,0.03-0.04,0.04
		c0,0-0.06,0-0.06,0l-0.04-0.04C102.79,285.63,103.08,285.55,103.33,285.44z"/>
	<path class="st5" d="M103.1,286.23c0,0.38,0.01,0.76,0.01,1.13c-0.34-0.07-0.21-0.34-0.22-0.53c-0.02-0.27,0-0.55,0-0.82
		c0.04,0,0.07,0,0.11,0C103.08,286.06,103.03,286.17,103.1,286.23z"/>
	<path class="st72" d="M108.3,282.41c0.08,0,0.15,0,0.23,0c0,0.18,0,0.37-0.01,0.55c0,0.12-0.05,0.23-0.2,0.17
		c-0.11-0.04-0.29-0.1-0.14-0.26C108.31,282.72,108.29,282.57,108.3,282.41z"/>
	<path class="st5" d="M101.31,286.68c0-0.34,0-0.68,0-1.02c0.16-0.07,0.23-0.02,0.23,0.16
		C101.52,286.13,101.59,286.45,101.31,286.68z"/>
	<path class="st72" d="M108.09,289.41c0-0.13,0.04-0.22,0.18-0.23c0.2-0.02,0.26,0.1,0.26,0.27c0,0.07,0.07,0.19-0.11,0.17
		C108.27,289.59,108.11,289.62,108.09,289.41z"/>
	<path class="st5" d="M108.08,289.84c0,0.08,0,0.15,0,0.23c-0.04,0.16-0.1,0.32-0.23,0.44c-0.22-0.23-0.06-0.52-0.12-0.78
		C107.89,289.64,107.93,289.9,108.08,289.84z"/>
	<path class="st5" d="M107.29,289.84c-0.04,0.04-0.07,0.08-0.11,0.11c-0.11-0.19-0.35-0.05-0.53-0.22
		C106.92,289.61,107.14,289.47,107.29,289.84z"/>
	<path class="st74" d="M104.58,284.2c-0.16,0.24-0.4,0.38-0.67,0.46C104.06,284.4,104.28,284.25,104.58,284.2z"/>
	<path class="st72" d="M107.4,283.19c0.07,0.04,0.15,0.07,0.22,0.11c-0.02,0.08-0.01,0.21-0.14,0.16
		C107.36,283.42,107.41,283.29,107.4,283.19z"/>
	<path class="st75" d="M150.57,285.25c0,1.71,0,3.42,0,5.13c-0.02,0-0.04,0-0.06,0c0-1.72,0-3.44,0-5.15
		C150.53,285.24,150.55,285.25,150.57,285.25z"/>
	<path class="st76" d="M167.07,242.17c0.13,0.08,0.11,0.21,0.11,0.34c0.1,0.23,0.11,0.47,0.11,0.72c0,9.72,0.01,19.45,0,29.17
		c0,0.11-0.03,0.22-0.11,0.31c-0.2-0.21-0.11-0.46-0.11-0.7C167.07,262.06,167.07,252.12,167.07,242.17z"/>
	<path class="st77" d="M167.18,272.71c0-0.07,0-0.15,0-0.22c0.11-0.21,0.05-0.44,0.05-0.66c0-9.47,0-18.95,0.01-28.42
		c0-0.22-0.06-0.45,0.05-0.66c0.04,0,0.07,0,0.11,0c0,9.77,0,19.54-0.01,29.32C167.4,272.27,167.57,272.6,167.18,272.71z"/>
	<path class="st76" d="M166.93,242.18c-0.1-0.08-0.21-0.15-0.31-0.23c0.31-0.25,0.39-0.04,0.45,0.22
		C167.02,242.17,166.97,242.18,166.93,242.18z"/>
	<path class="st78" d="M130.75,263.47c-0.42,0.38-0.88,0.26-1.35,0.12c0.08-0.02,0.27-0.02,0.23-0.08
		c-0.34-0.55-0.11-1.12-0.11-1.68c0-5.96,0-11.93,0-17.89c0-0.22-0.05-0.45,0.06-0.66c0.06,0,0.11,0,0.17,0c0,6.55,0,13.09,0,19.64
		c0.21,0.13,0.42,0.26,0.67,0.3c0.05-0.01,0.09-0.01,0.14,0C130.64,263.27,130.72,263.34,130.75,263.47z"/>
	<path class="st79" d="M130.41,263.24c-0.31,0.06-0.57,0.01-0.68-0.33c0.31-0.22,0.22-0.55,0.22-0.84c0-6.08,0.01-12.15,0-18.23
		c0-0.41,0.05-0.74,0.5-0.87c-0.09,0.14-0.18,0.28-0.27,0.42c-0.09,0.18-0.05,0.37-0.05,0.55c0,6.18,0,12.35-0.01,18.53
		C130.12,262.79,130.16,263.04,130.41,263.24z"/>
	<path class="st37" d="M134.25,238.9c-0.42,0.7-1.11,1.16-1.58,1.82c-0.07,0.05-0.1,0.16-0.22,0.14c0-0.16-0.22-0.27,0.12-0.46
		c0.42-0.23,0.79-0.63,1.01-1.11C133.71,239.01,133.93,238.86,134.25,238.9z"/>
	<path class="st80" d="M132.45,240.85c0.07-0.05,0.14-0.09,0.22-0.14c-0.06,0.28-0.23,0.45-0.5,0.53
		C132.26,241.12,132.36,240.99,132.45,240.85z"/>
	<path class="st1" d="M145.75,289.61c-0.19-0.05-0.38-0.1-0.58-0.15c0.12-0.36,0.45-0.22,0.69-0.3c0.01,0.04,0.02,0.07,0.02,0.11
		c0.02,0.15,0.29,0.08,0.24,0.24C146.08,289.69,145.88,289.58,145.75,289.61z"/>
	<path class="st81" d="M167.29,242.73c0,9.68,0,19.37-0.01,29.05c0,0.23,0.09,0.49-0.11,0.7c0-9.99,0-19.98,0-29.98
		C167.27,242.56,167.29,242.64,167.29,242.73z"/>
	<path class="st60" d="M187.03,282.85c-0.15,0-0.22-0.08-0.23-0.23c-0.08-0.09-0.11-0.19-0.11-0.31c0-1.05,0-2.1,0-3.15
		c0-0.13,0.02-0.26,0.11-0.37c0-0.08,0-0.15,0-0.23c-0.01-0.01-0.03-0.03-0.04-0.04c-0.03-0.4-0.24-0.61-0.64-0.63
		c-0.15-0.11-0.3,0-0.45,0c0.01-0.15-0.01-0.29-0.2-0.43c0.61,0,1.13,0,1.69,0c-0.13,0.2-0.14,0.4-0.14,0.6
		c0,1.27,0.02,2.55-0.01,3.82C187.01,282.21,187.34,282.53,187.03,282.85z"/>
	<path class="st31" d="M137.44,235.54c-0.24,0.4-0.57,0.72-0.94,0.99c0.01-0.52,0.68-0.63,0.72-1.13
		C137.29,235.45,137.37,235.49,137.44,235.54z"/>
	<path class="st82" d="M153.42,269.54c0.29,0.01,0.57,0.08,0.82,0.23C153.95,269.78,153.63,269.84,153.42,269.54z"/>
	<path class="st2" d="M132.21,248.14c0.16,0.46-0.01,0.92,0,1.38c0.01,3.9,0.01,7.8,0.01,11.71c0,1.05,0,2.09,0,3.14
		c-0.42-0.16-0.24-0.52-0.19-0.76c0.07-0.35,0.07-0.7,0.08-1.05c-0.09-0.14-0.05-0.29-0.05-0.44c0-4.52,0-9.03,0-13.55
		c0-0.15-0.04-0.3,0.05-0.44C132.14,248.14,132.17,248.14,132.21,248.14z"/>
	<path class="st48" d="M131.65,247.16c0,5.22,0,10.45,0,15.67c0,0.21-0.09,0.45,0.11,0.64c-0.22,0.26-0.45,0.24-0.68,0.01
		c0.04-0.06,0.1-0.1,0.18-0.12c0.17-0.06,0.25-0.17,0.19-0.34c-0.16-0.48-0.09-0.97-0.09-1.45c-0.01-4.27,0-8.55-0.01-12.82
		c0-0.45,0.08-0.89,0.09-1.34C131.44,247.29,131.44,247.12,131.65,247.16z"/>
	<path class="st83" d="M132.1,248.14c0,4.81,0,9.62,0,14.42c-0.18-0.17-0.11-0.39-0.11-0.58c0-4.42,0-8.84,0-13.26
		C131.99,248.53,131.92,248.31,132.1,248.14z"/>
	<path class="st79" d="M131.23,263.45c-0.05,0.01-0.1,0.02-0.14,0.03c-0.11,0-0.22-0.01-0.34-0.01c-0.08-0.07-0.15-0.14-0.23-0.21
		c0.07-0.08,0.15-0.08,0.23-0.01c0.02,0.02,0.04,0.03,0.07,0.01C130.94,263.36,131.18,263.2,131.23,263.45z"/>
	<path class="st34" d="M150.71,230.79c-0.42-0.07-0.63-0.41-0.92-0.66c0.43,0.01,0.85,0.07,1.15,0.43
		C150.86,230.64,150.78,230.72,150.71,230.79z"/>
	<path class="st11" d="M156.14,233.7c-0.09,0.31-0.44,0.29-0.49,0.16c-0.13-0.33-0.39-0.09-0.56-0.19
		C155.47,233.21,155.79,233.81,156.14,233.7C156.14,233.7,156.14,233.7,156.14,233.7z"/>
	<path class="st11" d="M156.41,234.59c0.31-0.23,0.55-0.16,0.75,0.09C156.87,235.01,156.69,234.6,156.41,234.59z"/>
	<path class="st11" d="M156.61,234.29c-0.38,0.2-0.53-0.01-0.7-0.22C156.12,234.13,156.32,234.2,156.61,234.29z"/>
	<path class="st84" d="M152.63,232.14c-0.14-0.03-0.25-0.12-0.34-0.23c0.17,0.07,0.14-0.24,0.27-0.17
		C152.71,231.83,152.71,231.99,152.63,232.14z"/>
	<path class="st34" d="M151.05,231.11c-0.11-0.11-0.23-0.21-0.34-0.32C150.93,230.78,151.19,230.73,151.05,231.11z"/>
	<path class="st11" d="M157.32,234.99c-0.04,0.02-0.08,0.06-0.12,0.06c-0.06,0.01-0.11-0.03-0.07-0.1c0.02-0.03,0.05-0.06,0.09-0.06
		C157.27,234.87,157.31,234.9,157.32,234.99z"/>
	<path class="st84" d="M152.96,232.38c-0.15-0.02-0.26-0.11-0.34-0.24C152.8,232.14,152.96,232.14,152.96,232.38z"/>
	<path class="st27" d="M145.18,227.4c-0.26,0.33-0.5,0.69-0.89,0.89C144.53,227.94,144.58,227.4,145.18,227.4z"/>
	<path class="st34" d="M149.79,230.13c-0.27-0.09-0.49-0.25-0.67-0.47c0.23,0,0.46,0,0.69-0.01
		C149.8,229.82,149.8,229.98,149.79,230.13z"/>
	<path class="st34" d="M149.13,229.67c-0.27-0.09-0.47-0.27-0.67-0.46C148.84,229.13,149.01,229.36,149.13,229.67z"/>
	<path class="st37" d="M135.8,237.32c-0.41,0.49-0.81,0.98-1.33,1.36C134.52,238.17,135.27,237.4,135.8,237.32z"/>
	<path class="st85" d="M108.53,290.51c0.01-0.18-0.06-0.44,0.22-0.43c0.52,0.03,0.45-0.31,0.45-0.63c0-2.35,0-4.69,0-7.04
		c0.14,0.01,0.28,0.01,0.42,0.02c0.01,2.49,0.02,4.97,0.01,7.46C109.64,290.45,109.48,290.52,108.53,290.51z"/>
	<path class="st6" d="M107.85,290.51c0.02-0.18-0.07-0.41,0.23-0.44c0.3,0.04,0.21,0.27,0.22,0.44
		C108.15,290.51,108,290.51,107.85,290.51z"/>
	<path class="st86" d="M131.23,263.45c-0.14-0.07-0.27-0.13-0.41-0.2c0.18-0.04,0.38,0.04,0.55-0.08c-0.02-0.17-0.17-0.11-0.25-0.14
		c-0.49-0.18-0.73-0.44-0.72-1.04c0.03-4.46,0.02-8.93,0.01-13.39c0-0.44,0-0.81,0.61-0.7c0.13,0.02,0.27-0.02,0.29-0.19
		c0.02-0.21,0.04-0.4-0.2-0.53c-0.38-0.21-0.29-0.46-0.03-0.72c0.11-0.11,0.24-0.1,0.25,0.04c0.05,0.51,0.34,0.28,0.58,0.23
		c0.07-0.28-0.32-0.09-0.29-0.34c0.37-0.25,0.79,0.23,1.15-0.11c0.15,0.73-0.52,0.33-0.72,0.69c0.58,0.06,1.16-0.04,1.66,0.24
		c0.08,0.05,0.25,0.01,0.28-0.12c0.06-0.39,0.38-0.38,0.6-0.3c0.52,0.21,1.07,0.23,1.72,0.21c-0.26,0.32-0.49,0.2-0.69,0.22
		c-0.2,0.02-0.42-0.02-0.61,0.18c0.23,0.08,0.42,0.05,0.63-0.02c0.36-0.11,0.16,0.17,0.18,0.29c-0.11,0.1-0.22,0.07-0.33,0.02
		c-0.29-0.1-0.59-0.15-0.89-0.13c-0.18-0.12-0.39,0-0.57-0.09c-0.33-0.07-0.66-0.15-1.01-0.14c-0.18-0.12-0.4,0.01-0.57-0.1
		c-0.26-0.03-0.53-0.06-0.79-0.09c-0.22,0.15-0.1,0.38-0.1,0.57c-0.01,5.06,0,10.13-0.01,15.19
		C131.53,263.12,131.72,263.5,131.23,263.45z"/>
	<path class="st86" d="M130.75,263.25c-0.08,0-0.15,0.01-0.23,0.01l-0.05-0.02c0,0-0.06,0-0.06,0c-0.27-0.11-0.37-0.28-0.37-0.59
		c0.01-6.26,0.01-12.52,0.01-18.79c0-0.16-0.05-0.34,0.12-0.46c0,6.22,0,12.45,0.01,18.67c0,0.39-0.2,0.88,0.45,0.99
		C130.69,263.06,130.71,263.18,130.75,263.25z"/>
	<path class="st2" d="M150.47,247.51c-0.26,0.13-0.53,0.04-0.8,0.06C149.93,247.46,150.2,247.47,150.47,247.51z"/>
	<path class="st2" d="M135.49,247.7c0.11-0.01,0.22-0.02,0.33-0.02c0.12,0.04,0.24,0.08,0.35,0.12
		C135.95,247.77,135.7,247.89,135.49,247.7z"/>
	<path class="st2" d="M137.65,248.02c-0.2-0.01-0.42,0.08-0.59-0.09C137.27,247.93,137.47,247.89,137.65,248.02z"/>
	<path class="st2" d="M136.94,248.71c0.3,0.06,0.64-0.14,0.9,0.13C137.54,248.82,137.23,248.85,136.94,248.71z"/>
	<path class="st2" d="M134.02,247.48c0.2-0.01,0.4-0.03,0.57,0.09C134.4,247.56,134.19,247.65,134.02,247.48z"/>
	<path class="st48" d="M132.44,247.25c0.2-0.01,0.4-0.03,0.57,0.1C132.82,247.33,132.61,247.42,132.44,247.25z"/>
	<path class="st12" d="M186.81,278.79c0,1.28,0,2.55,0,3.83c-0.18-0.02-0.41,0.08-0.45-0.23c0.31-0.05,0.22-0.3,0.22-0.49
		c0.01-0.88,0-1.75,0.01-2.63C186.58,279.1,186.49,278.85,186.81,278.79z"/>
	<path class="st12" d="M186.13,277.89c0.26,0.05,0.44-0.07,0.59-0.39c0.14,0.43,0.06,0.75,0.09,1.07
		C186.55,278.37,186.05,278.42,186.13,277.89z"/>
	<path class="st1" d="M146.43,287.13c0-0.38,0-0.75,0-1.13C146.83,286.38,146.71,286.76,146.43,287.13z"/>
	<path class="st6" d="M103.1,286.23c-0.08-0.05-0.1-0.13-0.1-0.22c0.01-0.07,0.01-0.14,0.02-0.25
		C103.18,285.92,103.08,286.08,103.1,286.23z"/>
</g>
</svg>
