<svg width="48" height="48" viewBox="0 0 48 48" fill="none" xmlns="http://www.w3.org/2000/svg">
<path d="M27.2398 28.8105C26.2203 29.2654 25.1164 29.5005 24 29.5005C22.8835 29.5005 21.7796 29.2654 20.7601 28.8105L13.1403 41.6301C13.0701 41.7463 13.0247 41.8758 13.0069 42.0104C12.9891 42.145 12.9993 42.2819 13.0369 42.4124C13.0744 42.5429 13.1385 42.6642 13.2251 42.7688C13.3118 42.8733 13.4191 42.9589 13.5403 43.02C16.7862 44.6474 20.3666 45.4965 23.9976 45.4999C27.6286 45.5034 31.2106 44.6612 34.4596 43.04C34.5808 42.9789 34.6881 42.8933 34.7748 42.7888C34.8614 42.6842 34.9255 42.5629 34.9631 42.4324C35.0006 42.3019 35.0108 42.165 34.993 42.0304C34.9752 41.8958 34.9298 41.7663 34.8596 41.6501L27.2398 28.8105ZM18.6301 15.581L11.5004 3.0214C11.4369 2.90234 11.3496 2.79763 11.2439 2.71379C11.1381 2.62994 11.0163 2.56876 10.8859 2.53405C10.7555 2.49934 10.6194 2.49185 10.486 2.51204C10.3525 2.53224 10.2247 2.57968 10.1104 2.65142C7.1367 4.60624 4.66957 7.23917 2.91201 10.3336C1.15445 13.428 0.156684 16.8955 0.000792418 20.4508C-0.00459632 20.5868 0.0175424 20.7224 0.0658797 20.8496C0.114217 20.9768 0.187756 21.0929 0.282082 21.191C0.376408 21.289 0.489576 21.367 0.614793 21.4202C0.74001 21.4735 0.874693 21.5009 1.01076 21.5008H16.0002C15.9997 20.3849 16.2336 19.2814 16.6866 18.2616C17.1397 17.2419 17.8018 16.3286 18.6301 15.581V15.581ZM37.8695 2.65142C37.7551 2.58172 37.628 2.5357 37.4955 2.51608C37.363 2.49647 37.2279 2.50367 37.0983 2.53724C36.9687 2.57082 36.8471 2.63009 36.7408 2.71154C36.6345 2.79299 36.5457 2.89496 36.4795 3.0114L29.3598 15.571C30.1905 16.3194 30.8547 17.234 31.3095 18.2555C31.7642 19.277 31.9994 20.3826 31.9997 21.5008H46.9992C47.1345 21.4998 47.2682 21.4716 47.3924 21.4179C47.5165 21.3641 47.6286 21.286 47.7219 21.188C47.8153 21.09 47.8879 20.9742 47.9355 20.8476C47.9831 20.7209 48.0048 20.586 47.9991 20.4508C47.8462 16.8926 46.8475 13.422 45.086 10.3266C43.3244 7.23123 40.8506 4.60017 37.8695 2.65142V2.65142ZM22.526 26.2756C23.0031 26.4262 23.5006 26.5021 24.001 26.5006C24.496 26.5011 24.9884 26.4297 25.4629 26.2886C26.6129 25.9419 27.6002 25.1939 28.2452 24.1807C28.8902 23.1675 29.1501 21.9564 28.9775 20.7677C28.8049 19.5791 28.2113 18.4919 27.3048 17.704C26.3982 16.916 25.239 16.4797 24.0379 16.4744C22.8368 16.4691 21.6737 16.8951 20.7602 17.675C19.8467 18.4549 19.2436 19.5368 19.0605 20.7238C18.8773 21.9109 19.1265 23.1242 19.7625 24.1431C20.3985 25.162 21.3791 25.9187 22.526 26.2756V26.2756Z" fill="#011E41"/>
</svg>
