<?xml version="1.0" encoding="UTF-8"?>
<svg width="185px" height="155px" viewBox="0 0 185 155" version="1.1" xmlns="http://www.w3.org/2000/svg" xmlns:xlink="http://www.w3.org/1999/xlink">
    <title>Logo-tejo</title>
    <defs>
        <polygon id="path-1" points="0 0 183.745858 0 183.745858 154.030923 0 154.030923"></polygon>
        <polygon id="path-3" points="0 0 87.564925 0 87.564925 95.1803337 0 95.1803337"></polygon>
    </defs>
    <g id="Symbols" stroke="none" stroke-width="1" fill="none" fill-rule="evenodd">
        <g id="NAV" transform="translate(-224.000000, -31.000000)">
            <g id="Group" transform="translate(225.000000, 31.000000)">
                <g id="Logo-tejo" transform="translate(-1.352941, -0.000000)">
                    <g id="Group-3" transform="translate(1.352941, 0.368674)">
                        <mask id="mask-2" fill="white">
                            <use xlink:href="#path-1"></use>
                        </mask>
                        <g id="Clip-2"></g>
                        <path d="M100.668741,141.668292 C100.7056,142.081349 100.556689,142.450557 100.393403,142.814607 C99.1184443,145.662894 98.1567888,148.650831 96.4867003,151.322988 C95.9408161,152.195897 96.1553365,152.976689 96.895837,153.629621 C97.6149592,154.26376 98.3193377,154.072155 98.9835397,153.56956 C99.7494731,152.989217 100.603131,152.579108 101.463055,152.173052 C104.903858,150.547723 108.287897,148.810379 111.603379,146.944438 C125.606173,139.064671 138.895006,130.072487 152.009863,120.823478 C158.496707,116.248902 164.42882,111.015867 169.639599,104.989144 C179.05048,94.1041206 183.98371,81.5753454 183.737122,67.1058297 C183.689942,64.3419234 183.403547,61.598283 183.15143,58.8505894 C182.928432,57.0222328 183.020211,55.1854013 182.99957,53.3515176 C182.999202,53.3209344 182.999202,53.2899828 182.995516,53.2597681 C182.666363,50.3256278 182.399503,47.3844866 181.898218,44.4706123 C181.31953,41.1027808 180.512314,37.7839561 179.690723,34.4725008 C179.165112,32.3545254 178.062654,30.4580015 177.023595,28.5412117 C175.069691,24.9375583 172.646201,21.6791629 169.77561,18.7811329 C167.212055,16.1933561 164.321928,14.0050025 161.194429,12.0896866 C156.002816,8.91051263 150.402435,6.77485058 144.573159,5.18968527 C139.921902,3.92509035 135.184394,3.06470889 130.411133,2.36019098 C126.49153,1.78169039 122.557921,1.35389473 118.620994,0.947470426 C116.012471,0.678117603 113.391048,0.474721217 110.770362,0.395868271 C106.640661,0.271324831 102.516859,-0.0135038033 98.3816297,0 C89.5461206,0.029975859 80.7095058,-0.06656373 71.8751025,0.192471885 C70.6233654,0.229319056 69.3697854,0.271324831 68.1198914,0.32475323 C65.2496686,0.447454311 62.3930838,0.675538301 59.5320758,0.907675481 C56.8251392,1.12728462 54.1366321,1.48801843 51.45992,1.89886439 C46.9693686,2.58864344 42.5271027,3.54519601 38.1334909,4.71583064 C32.9533047,6.09612568 27.8752183,7.78004141 22.9611552,9.9256522 C19.7592001,11.3236339 16.720531,13.0267101 13.8864302,15.0853616 C11.4231326,16.8742918 9.20310546,18.9159935 7.36125327,21.3416428 C5.45895206,23.846882 4.03471415,26.6052613 3.0767446,29.6105166 C2.14752519,32.5258648 1.49327512,35.5049586 0.992359144,38.5135301 C0.421410768,41.9440018 0.0480274845,45.3958448 0.00637663455,48.8867458 C-0.0396973145,52.7778071 0.16044792,56.647497 0.614921354,60.5083437 C0.595017408,66.6430292 1.26695988,72.6925978 3.00192051,78.5899876 C5.4924939,87.0552567 9.34169589,94.7938997 15.456999,101.272001 C20.5487233,106.666058 26.6662379,110.604284 33.3934031,113.611013 C47.6578977,119.986311 62.7163386,123.025097 78.2248299,124.133091 C85.5480076,124.656321 92.8818745,124.781233 100.219796,124.790445 C100.861882,124.791182 101.513921,124.780496 102.108091,125.098487 C102.167434,126.057988 101.715172,126.877837 101.375331,127.722743 C99.6543764,131.997752 98.181853,136.379617 95.8460881,140.38859 C95.177463,141.536747 95.604292,142.722489 96.8092179,143.139968 C97.6986295,143.447642 98.2939049,142.784761 98.9205106,142.340016 C99.455337,141.96049 99.970628,141.595334 100.668741,141.668292" id="Fill-1" fill="#974E4E" mask="url(#mask-2)"></path>
                    </g>
                    <path d="M145.179813,73.6861995 C145.669671,73.6861995 146.15953,73.6861995 146.649019,73.6861995 C146.679612,73.6861995 146.710206,73.6839887 146.740799,73.6843572 C146.995864,73.6876734 147.139246,73.5892915 147.134823,73.3074106 C147.130031,73.022582 146.972274,72.9448344 146.724581,72.9452029 C146.235091,72.9459399 145.744496,72.956994 145.255743,72.9356226 C144.223318,72.8906691 143.975993,72.6367921 144.002532,71.6135461 C144.011009,71.2948181 143.952035,71.0413096 143.625462,70.9845649 C143.169515,70.9053435 143.290044,71.3150841 143.224803,71.5424311 C143.135604,71.8548951 143.22296,72.1434085 143.412785,72.4072342 C143.513411,72.5472535 143.661953,72.6670068 143.583074,72.8884583 C143.302208,73.6817779 143.307368,73.6839887 144.169504,73.6876734 C144.506396,73.6887788 144.84292,73.6876734 145.179813,73.6861995 M153.239068,65.7592676 C152.628681,65.7592676 152.018293,65.7526351 151.408274,65.7618469 C151.084651,65.766637 150.622437,65.7028914 150.635706,66.157217 C150.646395,66.5256887 151.082808,66.4722603 151.381367,66.4851568 C152.869002,66.5474285 154.378016,66.3119751 155.835428,66.7931992 C156.03631,66.8595241 156.198859,66.8562078 156.299116,66.6572331 C156.401216,66.4542052 156.254148,66.3130805 156.13841,66.176746 C155.884082,65.8760731 155.542766,65.7614784 155.161274,65.7581621 C154.520661,65.7530035 153.879681,65.7566882 153.239068,65.7592676 M152.391676,47.0877004 L152.391676,47.1005969 C152.575604,47.1005969 152.763954,47.1267584 152.942721,47.0954383 C153.390928,47.0169538 154.18856,47.3168898 154.191149,46.741337 C154.194089,46.1657842 153.401617,46.389815 152.946407,46.3783923 C151.54539,46.343756 151.394267,46.2354253 151.281847,44.8591835 C151.2601,44.5931469 151.150997,44.4523907 150.937582,44.3904875 C150.656716,44.3086867 150.567148,44.558879 150.479792,44.7409041 C150.316874,45.0813719 150.435561,45.3905197 150.627228,45.6908241 C150.751075,45.8850087 151.00356,46.0788248 150.811156,46.3411767 C150.308765,47.0265341 150.883768,47.0269026 151.289956,47.0781201 C151.651913,47.1238106 152.02419,47.0877004 152.391676,47.0877004 M152.466132,72.1669907 C152.83288,72.1669907 153.199629,72.1725177 153.566378,72.1655168 C153.873783,72.1596212 154.278865,72.156305 154.262279,71.7660934 C154.246429,71.3987271 153.838398,71.3909892 153.530624,71.3795666 C153.225799,71.368144 152.919499,71.3836198 152.613937,71.3729341 C151.488996,71.3331392 151.224715,71.0718927 151.277055,69.9495279 C151.289219,69.6805435 151.244251,69.5464198 151.005772,69.4694092 C150.697629,69.3699219 150.543189,69.5460514 150.457308,69.8002968 C150.330144,70.1783488 150.421554,70.5191851 150.664456,70.8305437 C150.803784,71.0088841 151.04558,71.1529565 150.808575,71.44626 C150.257162,72.1279327 150.866813,72.11651 151.275212,72.1581473 C151.6685,72.1979423 152.06879,72.1666222 152.466132,72.1669907 M145.288548,85.2584222 C145.597427,85.2584222 145.873503,85.2764773 146.14626,85.2547375 C147.051153,85.1832539 147.529953,84.3674576 147.160993,83.5549774 C147.078797,83.3740578 146.977434,83.2340386 146.763283,83.2447243 C146.517801,83.2576208 146.47615,83.4344872 146.494211,83.631988 C146.552817,84.2683387 146.223665,84.590383 145.633181,84.4986335 C145.009524,84.401357 144.080673,85.019284 143.856569,83.834279 C143.817499,83.6271979 143.789486,83.3501072 143.531472,83.3666884 C143.294836,83.3825327 143.24655,83.6437791 143.219643,83.866336 C143.185733,84.1452691 143.121229,84.4242022 142.81751,84.5299536 C142.533694,84.628704 142.455921,84.7841991 142.704721,84.9691719 C143.064835,85.2370508 143.542161,85.9747312 143.753732,85.6950612 C144.243591,85.0483933 144.807167,85.3859134 145.288548,85.2584222 M145.263852,52.999829 C145.53145,52.999829 145.839592,53.027096 146.1411,52.9946704 C147.031986,52.8984993 147.469873,52.1899282 147.183846,51.3575506 C147.107179,51.1338883 147.008028,50.9573903 146.741904,50.9960799 C146.490894,51.032927 146.513009,51.2403766 146.516695,51.4216647 C146.535124,52.3214726 145.875714,52.2750452 145.302923,52.231934 C144.724971,52.1888228 143.834822,52.628778 143.837034,51.4522478 C143.837403,51.2772238 143.839246,51.0649841 143.583812,51.0458235 C143.300365,51.0248207 143.225909,51.2145836 143.206374,51.4511424 C143.182047,51.7507099 143.221855,52.088967 142.922558,52.2757821 C142.691083,52.420223 142.455921,52.5307646 142.790603,52.7842731 C143.112752,53.0289383 143.601135,53.6361797 143.740463,53.4357311 C144.177613,52.8082238 144.72792,53.1048435 145.263852,52.999829 M152.968154,84.1286879 C152.695027,84.3018696 152.554225,84.4094633 152.397942,84.4861055 C151.847635,84.7554583 151.281847,84.9957018 150.742229,85.2853206 C150.476106,85.4279192 150.376955,85.7094315 150.496378,86.0016296 C150.570465,86.1821808 150.744809,86.1346479 150.890034,86.0661122 C151.999126,85.5432508 153.112641,85.0281274 154.214362,84.4890532 C154.549043,84.3250833 154.585165,84.0505719 154.225788,83.8807064 C153.117433,83.3556342 151.995809,82.8585659 150.874553,82.361866 C150.780194,82.3202287 150.570834,82.3261243 150.549824,82.3714463 C150.493061,82.4963582 150.464311,82.6673291 150.503013,82.7966627 C150.590738,83.0859129 150.855755,83.1975599 151.114506,83.3088383 C151.692458,83.5579252 152.266355,83.8173293 152.968154,84.1286879 M152.281467,59.878459 L152.281467,59.8662994 C152.770957,59.8662994 153.260447,59.8751428 153.749568,59.8622462 C153.996524,59.8556138 154.281445,59.8110287 154.257487,59.4838258 C154.239426,59.2376867 153.992838,59.16215 153.773158,59.1544121 C153.223219,59.1334092 152.671437,59.1522013 152.122604,59.1175649 C151.502265,59.0781384 151.035628,58.7704646 151.02973,58.113848 C151.023464,57.4336492 151.573403,57.3021048 152.122604,57.2700477 C152.671806,57.2383592 153.223588,57.2497818 153.77242,57.2162509 C154.01864,57.201512 154.298032,57.1141842 154.267808,56.8042995 C154.244218,56.5588973 153.996893,56.5028896 153.768366,56.5021527 C153.095686,56.5006788 152.421164,56.4730434 151.750327,56.5062059 C150.697629,56.5577919 150.228412,57.2070391 150.454727,58.2464978 C150.512228,58.5121659 150.709056,58.8297885 150.623911,59.0309741 C150.190447,60.0545885 150.899249,59.8762482 151.455822,59.878459 C151.730792,59.8795644 152.006498,59.878459 152.281467,59.878459 M152.415266,39.2923128 L152.415266,39.283101 C152.812977,39.283101 153.210687,39.2864173 153.608397,39.2819956 C153.890001,39.2794163 154.249747,39.2587819 154.266702,38.9352637 C154.285131,38.5811624 153.911748,38.5778462 153.639727,38.5664235 C153.059564,38.5424729 152.474978,38.5701083 151.899238,38.5096789 C151.343402,38.4510919 151.017567,38.1014122 151.017935,37.5221747 C151.018304,36.9322515 151.437393,36.730329 151.923934,36.6857439 C152.470555,36.6360002 153.025285,36.6794799 153.573012,36.639685 C153.861251,36.6186821 154.348898,36.8541355 154.356269,36.3058496 C154.36401,35.7269805 153.856459,35.8994253 153.52399,35.8857918 C153.005013,35.8644205 152.483824,35.8673682 151.964479,35.8857918 C150.648607,35.9333247 150.169806,36.6094703 150.523654,37.8972789 C150.571202,38.071566 150.690626,38.2775417 150.639392,38.4194033 C150.308028,39.3391087 150.931685,39.2816271 151.497842,39.2912074 C151.803404,39.2967345 152.109335,39.2923128 152.415266,39.2923128 M145.270118,54.1929405 L145.270118,54.1852025 C144.78026,54.1852025 144.290033,54.179307 143.800175,54.1877819 C143.57128,54.1922035 143.344964,54.283216 143.326535,54.5304605 C143.302945,54.849557 143.568699,54.9239883 143.823028,54.9365164 C144.434152,54.9659941 145.050438,54.9402011 145.656402,55.0094738 C146.238408,55.0761672 146.619163,55.4217936 146.587465,56.0537226 C146.55724,56.6547 146.08618,56.7829281 145.613277,56.8160906 C145.033851,56.8566225 144.450002,56.8249339 143.868733,56.8463053 C143.598924,56.8566225 143.198633,56.6985481 143.228489,57.2313582 C143.255028,57.7188463 143.62362,57.6009353 143.907066,57.6075678 C144.427518,57.6197274 144.948706,57.6234121 145.468789,57.611621 C147.001024,57.5762477 147.461027,57.0817587 147.069214,55.6270324 C146.935046,55.1273847 147.495306,54.4821908 146.90519,54.2327354 C146.438185,54.0348661 145.820794,54.1929405 145.270118,54.1929405 M145.262378,45.9340155 C145.722749,45.9340155 146.183488,45.9421218 146.643859,45.9310677 C146.908508,45.9244352 147.137772,45.8396867 147.131506,45.5117469 C147.124134,45.1502761 146.848796,45.1661204 146.603683,45.1620672 C145.989609,45.152487 145.373692,45.1790169 144.762199,45.138485 C144.1625,45.0986901 143.796489,44.7703818 143.795383,44.1321888 C143.794646,43.4737298 144.254648,43.3141816 144.781734,43.2898624 C145.425295,43.2603847 146.071068,43.269228 146.715734,43.2758605 C147.033092,43.2791768 147.146618,43.1402629 147.138878,42.8307467 C147.131137,42.5241782 146.946104,42.4899104 146.712786,42.4921212 C145.914785,42.4991221 145.111624,42.4526947 144.319889,42.5263891 C143.414259,42.6104006 142.972687,43.3657676 143.199739,44.2648386 C143.266086,44.5275589 143.51083,44.7733296 143.392513,45.0500518 C143.030556,45.8982737 143.614036,45.8993791 144.15734,45.9281199 C144.524826,45.9472804 144.894155,45.9314362 145.262378,45.9340155 M143.14187,69.0102935 C143.182047,69.2619597 143.21006,69.5688966 143.284147,69.863674 C143.366343,70.1897714 143.481712,70.6142509 143.908172,70.4933921 C144.403191,70.3533729 143.915913,69.9948499 143.959038,69.7354458 C143.977836,69.6226935 143.907804,69.49815 143.894534,69.3769228 C143.853989,69.0172944 143.912595,68.6602454 144.300354,68.5567048 C144.687006,68.4531642 144.802744,68.8087395 144.927328,69.0850932 C145.077345,69.4181917 145.180182,69.7789255 145.371112,70.0858624 C145.643133,70.5239753 146.031997,70.8423348 146.595205,70.651098 C147.112339,70.4757055 147.259038,70.0022193 147.228445,69.5375765 C147.19048,68.9598129 147.124134,68.3953142 147.203381,67.8101811 C147.245032,67.5036126 147.00213,67.0993992 146.651599,67.3315364 C145.930634,67.8094442 145.16507,67.5559356 144.423463,67.6263137 C143.528154,67.7110622 143.128232,68.1075378 143.14187,69.0102935 M154.502237,62.8122308 C154.499652,61.6379114 153.575961,60.6953608 152.420058,60.6872544 C151.294011,60.679148 150.376586,61.6519134 150.385064,62.8453932 C150.393541,64.033346 151.23393,64.8815679 152.40642,64.8848959 C153.627564,64.8885689 154.504812,64.020818 154.502237,62.8122308 M152.438487,77.7427045 C151.282953,77.7423362 150.407548,78.6086132 150.386538,79.7737207 C150.364054,81.0044162 151.215869,81.9311226 152.389096,81.9521255 C153.55016,81.9723914 154.485645,81.0497383 154.5026,79.8665756 C154.520293,78.6734642 153.615769,77.7427045 152.438487,77.7427045 M152.383936,77.1612563 C153.568221,77.1841015 154.490805,76.2824512 154.502232,75.0915506 C154.51329,73.9187052 153.586282,72.956994 152.436276,72.9488876 C151.30728,72.9407813 150.431138,73.817007 150.390224,74.9950111 C150.347467,76.233813 151.179747,77.1380425 152.383936,77.1612563 M144.159183,82.4974636 C144.926959,82.4974636 145.694736,82.5026222 146.462143,82.4945158 C146.703202,82.492305 147.017611,82.4908311 147.014662,82.1695238 C147.011713,81.8703248 146.7091,81.8205811 146.459932,81.8095269 C145.877557,81.7841024 145.291865,81.7999467 144.711333,81.7513084 C144.095417,81.6997224 143.775848,81.3319876 143.795383,80.7063226 C143.813813,80.1005551 144.242853,79.9446916 144.737872,79.9233202 C145.35084,79.8964218 145.96565,79.9074759 146.579724,79.9071075 C146.87128,79.9071075 147.140352,79.906739 147.132243,79.4922083 C147.124871,79.1108401 146.859485,79.1498981 146.618795,79.1491612 C145.851019,79.1473188 145.083242,79.1436341 144.315835,79.1572675 C143.60777,79.1694271 143.241759,79.5301609 143.256502,80.2531024 C143.265717,80.7114812 143.434901,81.2734006 143.231438,81.6031828 C142.963103,82.0376109 142.326177,81.7159351 141.858803,81.8084215 C141.611847,81.8574283 141.316973,81.9053296 141.344618,82.2137404 C141.365627,82.4480884 141.633225,82.4945158 141.855854,82.4948843 C142.623631,82.4970951 143.391407,82.4959897 144.159183,82.4974636 M145.292971,48.1861146 C145.037168,47.7807957 145.794255,46.9292576 144.794266,46.760129 C144.079199,46.6392703 143.246919,47.4734903 143.120123,48.3054994 C142.991854,49.1463519 143.518571,50.0686366 144.304408,50.3799952 C145.239894,50.7503092 146.444082,50.4186847 146.933941,49.6555798 C147.419744,48.8987389 147.378462,47.4878607 146.856536,46.9668417 C146.719789,46.8308756 146.550974,46.7111223 146.369258,46.7896068 C146.074754,46.917098 146.24836,47.1403919 146.311758,47.3308917 C146.495685,47.8813885 146.725686,48.4293059 146.414964,49.0100173 C146.232142,49.3519591 145.967862,49.6622123 145.567572,49.5829908 C145.164332,49.503401 145.328724,49.0877649 145.296657,48.805884 C145.276016,48.6249644 145.292971,48.4396231 145.292971,48.1861146 M145.2985,75.8996091 C145.12047,75.5112399 145.668197,74.807459 144.974139,74.56611 C144.353799,74.3501856 143.460333,75.047334 143.223698,75.7640115 C142.924401,76.6704519 143.269403,77.6402695 144.046025,78.0758031 C144.927328,78.5699236 146.238408,78.3617371 146.816728,77.6351109 C147.403526,76.8981675 147.452549,75.5186094 146.914037,74.8734154 C146.768812,74.6994967 146.587833,74.5568982 146.361886,74.6652289 C146.147366,74.768401 146.241357,74.9688496 146.288168,75.1453475 C146.428602,75.673736 146.639805,76.1958604 146.422704,76.7555689 C146.259418,77.1763636 145.905201,77.4479273 145.510808,77.3911826 C145.103146,77.3322271 145.35084,76.8856394 145.305503,76.6140758 C145.270487,76.4058892 145.2985,76.187017 145.2985,75.8996091 M147.30585,60.1032267 C147.278574,59.618318 147.18274,59.1713618 146.951633,58.764569 C146.822995,58.5375904 146.616952,58.3507753 146.353777,58.478635 C146.096501,58.6031784 146.252046,58.8452643 146.302543,59.0457129 C146.437816,59.5796284 146.595205,60.1142809 146.404643,60.6684624 C146.264947,61.0745182 145.944272,61.2749668 145.552828,61.214169 C145.163227,61.1537396 145.325038,60.7723714 145.308083,60.5251269 C145.280439,60.1290198 145.301448,59.729228 145.297763,59.33091 C145.289654,58.3308778 144.946495,58.1212174 144.076619,58.595072 C143.688492,58.8065748 143.402096,59.1157226 143.249499,59.5413074 C142.960892,60.3464181 143.124915,61.0675172 143.724245,61.6497025 C144.386973,62.2937911 145.193451,62.36638 146.030523,62.0365978 C146.907402,61.6913398 147.246506,60.9742939 147.30585,60.1032267 M152.533584,49.3431158 C152.328647,48.9315329 152.966679,48.1463196 152.057364,47.9532405 C151.371046,47.8076941 150.559408,48.5825901 150.420817,49.4046505 C150.257162,50.3770474 150.651555,51.202424 151.444027,51.5465766 C152.460603,51.9876372 153.578541,51.7127573 154.159442,50.8781689 C154.648194,50.1765988 154.62313,48.7554034 154.115211,48.1879569 C153.960771,48.0155122 153.766523,47.887284 153.554214,48.0029841 C153.267819,48.1588477 153.48197,48.3788253 153.557532,48.5556917 C153.768366,49.0483384 153.884841,49.5583032 153.710866,50.0723213 C153.580016,50.4592166 153.308732,50.8457434 152.864948,50.7908411 C152.408263,50.7340965 152.571549,50.2676113 152.53727,49.9573581 C152.516997,49.7757016 152.533584,49.5903603 152.533584,49.3431158 M154.525822,41.6980646 C154.499652,41.5532553 154.477168,41.2754276 154.394603,41.016392 C154.277391,40.6482887 154.173079,40.078263 153.696859,40.214229 C153.150975,40.3700926 153.629038,40.83363 153.680273,41.1365137 C153.784953,41.7533354 153.941973,42.350628 153.407146,42.8499072 C153.249758,42.9969274 153.059196,43.1273664 152.829563,43.0706218 C152.564546,43.0046653 152.561966,42.7555785 152.552751,42.5496028 C152.532478,42.090487 152.557174,41.6291604 152.528055,41.1707816 C152.507414,40.8505797 152.702768,40.4209417 152.357397,40.2359689 C151.953421,40.0193075 151.518851,40.2197561 151.142888,40.4415761 C150.784617,40.6530789 150.543189,40.9762286 150.455833,41.381179 C150.279278,42.1980808 150.306185,42.9843994 151.01425,43.5702694 C151.727106,44.1601926 152.536164,44.1778793 153.351857,43.8333582 C154.226894,43.4637811 154.524347,42.7257323 154.525822,41.6980646 M146.130411,66.4932632 C146.713154,66.4932632 147.301426,66.5419015 147.876798,66.4777874 C148.321688,66.4280437 149.134432,66.8296779 149.11158,66.0474124 C149.091307,65.3587388 148.312105,65.7522666 147.895227,65.7397385 C147.297003,65.7216834 147.068108,65.5975085 147.193429,64.9537884 C147.329808,64.2555345 147.165416,63.6092351 146.546551,63.1563834 C145.765137,62.5845153 144.639089,62.5815675 143.876842,63.1479085 C143.112383,63.7157234 142.743423,65.140972 143.265717,66.1708505 C143.62878,66.8871595 144.432678,66.3749838 145.027953,66.4803667 C145.385119,66.5437438 145.762188,66.4921578 146.130411,66.4932632 M156.335238,54.1605149 C156.314228,53.8546834 156.307593,53.5470095 156.268891,53.2437573 C156.202176,52.720159 156.150573,52.1449747 155.453935,52.0985472 C154.821063,52.0565415 154.445469,52.4791785 154.173079,52.9865641 C154.073928,53.1711684 154.045915,53.3944623 153.987309,53.6008064 C153.915803,53.8532095 153.932389,54.2312615 153.597708,54.2319985 C153.272242,54.2331039 153.251969,53.859842 153.173828,53.6037542 C152.931294,52.8082238 152.502622,52.2945742 151.567874,52.5034976 C151.455454,52.5285537 151.296959,52.5322384 151.214026,52.4718091 C150.480897,51.9386305 150.496378,52.5226582 150.455465,52.981037 C150.42782,53.2850262 150.440352,53.5945424 150.455096,53.9003739 C150.528446,55.4579038 151.248305,55.9299161 152.682495,55.3466254 C153.386505,55.0599544 154.019745,54.9777852 154.564155,55.6679327 C154.84023,56.0183493 155.252316,56.0386153 155.661452,55.9081763 C156.060268,55.7806851 156.243827,55.4700634 156.288795,55.0794834 C156.32418,54.7758627 156.320494,54.4678204 156.335238,54.1605149 M97.5433983,28.6792221 C97.5474589,31.3558006 99.5308503,33.3414946 102.189133,33.3304864 C104.83046,33.3193863 106.903051,31.2909496 106.919361,28.7009619 C106.935487,26.1400835 104.803553,23.9749437 102.261745,23.9708833 C99.5691838,23.9664688 97.5393499,25.9919578 97.5433983,28.6792221 M63.2264214,54.3484355 C63.2264214,47.8718082 63.216838,41.3951809 63.2404279,34.9189221 C63.243008,34.2199312 63.1250587,33.929944 62.3384842,34.0412224 C61.0329328,34.2254583 59.7122691,34.3061536 58.3967658,34.4178005 C56.886646,34.5456602 56.8490497,34.5766118 56.8494157,36.0464455 C56.8531042,47.587348 56.8567901,59.1282506 56.8608446,70.6691531 C56.8608446,70.9149238 56.8549471,71.1606944 56.8674792,71.4060966 C56.9356687,72.7303839 57.419998,73.3785256 58.6993795,73.7112556 C59.8563885,74.012297 61.0414104,74.2057446 62.1962079,74.5145239 C62.9919971,74.7271321 63.2514856,74.5760587 63.2463253,73.6858311 C63.2094662,67.2397869 63.2264214,60.7941112 63.2264214,54.3484355 M74.1566365,56.1333125 L74.1632711,56.1333125 C74.1632711,61.4116698 74.1603224,66.6900271 74.1643769,71.9683844 C74.1658513,73.9618164 74.6214305,74.4319863 76.595607,74.4113519 C80.8620547,74.3667668 85.128871,74.234117 89.3945815,74.2683848 C91.7502504,74.2871769 92.8457046,72.9665743 92.9514904,70.7634819 C92.9854008,70.0615433 92.7963133,69.8861507 92.1055726,69.8935202 C88.6677189,69.9274196 85.2291279,69.8802552 81.7912741,69.9274196 C80.9269268,69.9395791 80.6862365,69.6484865 80.6773903,68.8260576 C80.639794,65.3587388 80.5634955,61.8921569 80.4643444,58.4259435 C80.4418603,57.6469943 80.7385765,57.4218581 81.4842373,57.4207527 C83.7249056,57.4174364 85.9652053,57.3470583 88.2058736,57.3113166 C90.1535116,57.2799965 90.8737395,56.6303808 91.1085324,54.6660581 C91.1446544,54.3617005 91.1295421,54.0462887 91.2017861,53.7515113 C91.3761299,53.0381501 91.1041093,52.8605467 90.404891,52.8693901 C87.4583699,52.9062372 84.5107429,52.8679162 81.5642217,52.9051318 C80.7957082,52.9147121 80.5583352,52.6479386 80.5587038,51.8958878 C80.5598096,49.1341923 80.5247934,46.3721283 80.4588155,43.6115383 C80.4392802,42.7883724 80.6880795,42.468539 81.5583242,42.4843833 C84.1668469,42.5315477 86.7764754,42.4954374 89.3857353,42.5020699 C90.0152897,42.5035438 90.6205171,42.461538 91.0749906,41.9530471 C91.2788217,41.7257 91.5744322,41.4707176 91.4730695,41.1700447 C91.3853447,40.9099036 91.0064325,40.9342228 90.7384664,40.8844791 C87.4145075,40.2691313 84.146943,39.4408069 80.9707892,38.2768048 C79.9332039,37.8967037 78.8731345,37.7948438 77.8009015,38.0022934 C76.9288138,38.1710534 76.0836333,38.482412 75.2093341,38.6309061 C74.3656279,38.7746101 74.1371011,39.2083013 74.1414615,40.0226238 C74.1702744,45.3927305 74.1566365,50.7632057 74.1566365,56.1333125 M139.699962,57.9358761 C139.655731,56.3916112 139.507189,54.7452796 139.19278,53.1140553 C138.021396,47.0372198 134.73061,43.6373313 128.790019,42.4106889 C126.425136,41.9224639 124.042928,41.902198 121.643766,42.1715508 C115.111217,42.905178 110.870202,46.6263738 109.606301,53.0079354 C108.772547,57.2199356 109.006603,61.4470431 110.208212,65.5742947 C111.520766,70.0843885 114.552801,72.8641391 119.096429,74.0093492 C122.557136,74.8818902 126.024845,74.8759947 129.485183,74.0262989 C133.842673,72.9562571 136.786983,70.3006814 138.309635,66.0757848 C139.244383,63.4817439 139.654625,60.7977959 139.699962,57.9358761 M112.333142,40.3984649 C119.190051,40.2934505 126.008627,39.8542322 132.776338,38.6729119 C141.095081,37.2207648 148.897059,34.4417512 156.08091,29.9773479 C157.083479,29.3542622 157.212486,28.3940249 156.398267,27.5318011 C155.625699,26.7137939 154.498177,26.5232941 153.458012,27.1032685 C151.471672,28.211263 149.427094,29.1943455 147.307692,30.0175113 C138.35018,33.4958843 129.022969,35.2236482 119.461703,35.6831324 C110.706916,36.1039271 101.960606,35.8684737 93.2729022,34.6049842 C86.9740405,33.688595 80.8476796,31.9781493 74.7338509,30.2621765 C67.695963,28.2867997 60.6094211,27.7164055 53.4310998,29.2743039 C47.6305739,30.5330032 42.7213025,33.3035421 39.1028389,38.1190989 C38.4965057,38.9260519 37.9274003,39.7665359 37.6137288,40.748513 C37.4408594,41.2894295 37.4758756,41.7898141 37.8802205,42.2032394 C38.7430935,43.0857291 41.2314553,42.852855 41.9140869,41.8262928 C43.8429267,38.9271574 46.3851029,36.6971665 49.4285637,35.0497295 C54.6271795,32.2353426 60.2559417,31.865397 65.9934385,32.3097738 C69.9406858,32.6159738 73.695897,33.7785021 77.4017168,35.1068426 C88.7005235,39.1563468 100.394829,40.5963342 112.333142,40.3984649 M99.2507207,59.2649536 L99.2367142,59.2649536 C99.2367142,64.2982772 99.234134,69.3316008 99.2396629,74.3649244 C99.2407687,75.2289906 99.1652074,76.0786864 98.9256229,76.911064 C98.0745449,79.8669441 95.5684907,81.7863132 92.0617102,82.1514687 C88.1985018,82.5531028 84.4012712,81.997816 80.621733,81.306563 C73.0294834,79.9177932 65.6506483,77.7113845 58.2946659,75.4235437 C51.7105143,73.3755779 45.0010415,72.4204992 38.1268083,73.3214125 C31.8920815,74.1386828 26.6400199,76.9070108 22.4800952,81.665086 C21.5453469,82.7347594 20.7657757,83.905394 20.209571,85.2178903 C19.8789444,85.9979449 20.08683,86.5922898 20.8306478,86.9946609 C22.0016633,87.6284322 23.7406785,87.2805949 24.4671725,86.1773906 C27.3631966,81.7818916 31.5470798,79.287338 36.5403901,78.0518524 C42.5886095,76.5554888 48.5800659,76.9386993 54.5295028,78.7246817 C60.6403828,80.5589339 66.6358936,82.7590785 72.7991136,84.4230968 C78.9553304,86.0845358 85.173102,87.279121 91.5958105,87.0554587 C94.131352,86.9670255 96.5205627,86.3925781 98.6989391,85.0845035 C103.174378,82.3961339 105.067465,78.1524452 105.263924,73.2009223 C105.655737,63.3255119 105.329165,53.4386789 105.429422,43.5573729 C105.436056,42.8974401 105.182465,42.6181385 104.510523,42.6151907 C103.129041,42.6092952 101.743137,42.612243 100.368659,42.4965428 C99.445337,42.4187953 99.2274994,42.7353125 99.2333969,43.6126437 C99.2684131,48.8298347 99.2507207,54.0473941 99.2507207,59.2649536 M1.35942839,49.2554195 C1.40107924,45.7645185 1.77446252,42.3126755 2.34504231,38.8822038 C2.84595828,35.8736323 3.50057695,32.8945385 4.42979635,29.9791903 C5.38739731,26.973935 6.81200381,24.2155557 8.71393643,21.7103165 C10.5557886,19.2846672 12.7761844,17.2429655 15.2391134,15.4540353 C18.0735827,13.3953838 21.1122518,11.6923076 24.314207,10.2943259 C29.2279015,8.1487151 34.3059879,6.46479937 39.4861741,5.08450433 C43.8797859,3.91423817 48.3220518,2.95731713 52.8129717,2.26753808 C55.4896839,1.85669212 58.1778223,1.49595831 60.884759,1.27634917 C63.7457669,1.04421199 66.6027204,0.816127999 69.4725745,0.693426918 C70.7228372,0.63999852 71.9760486,0.597992744 73.2281542,0.561145573 C82.0621889,0.302109958 90.8988038,0.398649547 99.7346814,0.3666345 C103.869542,0.355169885 107.993713,0.63999852 112.123413,0.764541959 C114.743731,0.843394906 117.365523,1.04679129 119.974046,1.31614411 C123.910604,1.72256841 127.844582,2.15036407 131.764185,2.72886466 C136.537078,3.43338258 141.274585,4.29376403 145.926211,5.55835896 C151.755119,7.14352427 157.355868,9.27918632 162.547112,12.4583603 C165.67498,14.3736762 168.565107,16.5620297 171.128293,19.1498066 C173.999253,22.0478366 176.422374,25.306232 178.376278,28.9098853 C179.415337,30.8266752 180.518164,32.7231991 181.043407,34.8411745 C181.864997,38.1526298 182.672213,41.4714545 183.25127,44.839286 C183.752186,47.7531603 184.019415,50.6943015 184.348567,53.6284418 C184.351885,53.6586565 184.351885,53.6896081 184.352253,53.7201912 C184.373263,55.5544434 184.281115,57.3909065 184.504482,59.2192631 C184.307285,59.5578886 184.368103,59.9348352 184.351516,60.2977798 C183.922475,69.7807678 181.253872,78.5721345 176.178735,86.6085025 C171.064895,94.7064054 164.349893,101.313472 156.881122,107.210125 C150.00394,112.639924 142.61847,117.338675 135.343578,122.196975 C125.101523,129.037283 114.6995,135.606766 103.608579,141.015562 C103.037631,141.29339 102.444935,141.532528 102.021792,142.036965 C101.32368,141.964008 100.808389,142.329164 100.273194,142.708689 C99.646588,143.153435 99.0516812,143.816315 98.1622697,143.508642 C96.9573438,143.091163 96.5301461,141.905421 97.1991399,140.757263 C99.5349048,136.748659 101.007428,132.366425 102.728014,128.091417 C103.068224,127.246511 103.520486,126.426661 103.460774,125.467161 C103.714733,125.432525 103.796561,125.25271 103.866593,125.032733 C104.424641,123.282124 104.999275,121.537042 105.551794,119.784959 C105.749359,119.158188 105.726506,118.510047 105.583124,117.874064 C105.083683,115.657339 103.380052,114.350369 100.956194,114.345211 C89.5320662,114.319049 78.1259993,114.018745 66.7932822,112.374624 C55.4384496,110.727187 44.455526,107.780519 33.9525085,103.121194 C19.7064435,96.8011671 9.87094544,86.4113702 4.7652147,71.6179678 C3.55254836,68.10459 2.7792432,64.4887771 1.96797311,60.8770173 C0.692764578,55.1998121 1.29000812,55.0737708 1.35942839,49.2554195 Z" id="Fill-4" fill="#FFFFFF"></path>
                    <path d="M1.96750788,60.8771279 C2.77920634,64.4888876 3.5525115,68.1047005 4.76517784,71.6180783 C9.87090858,86.4114807 19.7064066,96.8012776 33.9524717,103.120936 C44.4558577,107.780629 55.4384128,110.727298 66.7932454,112.374735 C78.1259625,114.018855 89.5320293,114.31916 100.956157,114.344953 C103.380015,114.35048 105.083646,115.657449 105.583087,117.874175 C105.726469,118.510157 105.749322,119.158299 105.551757,119.785069 C104.999238,121.537152 104.424604,123.281866 103.866556,125.032475 C103.796524,125.252821 103.714697,125.432267 103.461106,125.467272 C102.866936,125.14928 102.214897,125.159966 101.572442,125.159229 C94.2345208,125.150017 86.9010225,125.025105 79.5778447,124.501876 C64.0689849,123.393881 49.0109126,120.355095 34.746418,113.979797 C28.0192528,110.973068 21.9017382,107.034843 16.8100139,101.640785 C10.6947108,95.1626839 6.84550879,87.424041 4.3549354,78.9584034 C2.61997478,73.061382 1.9480323,67.0118134 1.96750788,60.8771279" id="Fill-6" fill="#84A5D9"></path>
                    <g id="Group-10" transform="translate(97.533874, 59.219263)">
                        <mask id="mask-4" fill="white">
                            <use xlink:href="#path-3"></use>
                        </mask>
                        <g id="Clip-9"></g>
                        <path d="M4.48780799,82.8177024 C4.91095113,82.3132646 5.50364641,82.0741265 6.07459479,81.7962988 C17.1658844,76.3875025 27.5675391,69.8180203 37.8099623,62.9777114 C45.0848546,58.1194119 52.4703243,53.4206606 59.3471376,47.9908614 C66.8162777,42.0938401 73.5309107,35.4871423 78.6447504,27.3892394 C83.7198881,19.3528714 86.3888598,10.5615047 86.8179004,1.07851671 C86.8341184,0.715572068 86.7733008,0.338625505 86.9704973,0 C87.222614,2.74769357 87.5090097,5.49133395 87.5561894,8.25524028 C87.8027772,22.724756 82.8695473,35.2535312 73.4586667,46.1385541 C68.2478874,52.1652775 62.3157743,57.3983127 55.8289309,61.9728891 C42.7140734,71.2218976 29.4252408,80.2140813 15.4224462,88.0938489 C12.1069648,89.9597896 8.72292538,91.6971337 5.28212287,93.3224625 C4.42219868,93.7285183 3.56854055,94.1386273 2.80260723,94.7189703 C2.13840518,95.2215657 1.43402664,95.413171 0.714904446,94.7790312 C-0.0255960625,94.1260993 -0.240116369,93.3453077 0.305767779,92.4723982 C1.97585628,89.8002414 2.93751175,86.8123042 4.21247007,83.9640179 C4.37575614,83.5999678 4.52466714,83.2307592 4.48780799,82.8177024" id="Fill-8" fill="#84A5D9" mask="url(#mask-4)"></path>
                    </g>
                    <path d="M99.2507575,59.2650641 C99.2507575,54.0475047 99.2684499,48.8299452 99.2334337,43.6127542 C99.2275363,42.7354231 99.4453739,42.4185374 100.368696,42.4966534 C101.743174,42.6123535 103.129078,42.6094057 104.51056,42.6153013 C105.182502,42.6178806 105.436093,42.8975506 105.429458,43.5574835 C105.329201,53.4387894 105.655774,63.3256224 105.263961,73.2006644 C105.067501,78.1525557 103.174415,82.395876 98.6989759,85.0842456 C96.5205996,86.3926886 94.1313889,86.967136 91.5958473,87.0555693 C85.1731388,87.2788631 78.9553673,86.0846463 72.7991505,84.4228389 C66.6359305,82.7591891 60.6404196,80.5590445 54.5295396,78.7247923 C48.5801027,76.9388099 42.5882778,76.5552308 36.540427,78.0519629 C31.5471167,79.2874486 27.3632335,81.7816336 24.4672094,86.1775012 C23.7407153,87.280337 22.0017002,87.6285428 20.8306847,86.9947714 C20.0868669,86.5924003 19.8789812,85.9980554 20.2096079,85.2180008 C20.7658126,83.9055046 21.5453838,82.7345015 22.4801321,81.6651966 C26.6400568,76.9071213 31.8921184,74.1384249 38.1268452,73.3215231 C45.0010784,72.4206097 51.7101825,73.3756884 58.2947027,75.4236542 C65.6506852,77.7114951 73.0295202,79.9179037 80.6214013,81.3063051 C84.401308,81.997558 88.1985386,82.5532134 92.0617471,82.1512108 C95.5685275,81.7864238 98.0745818,79.8670546 98.9256597,76.9111745 C99.1652443,76.0784284 99.2408056,75.2291011 99.2396998,74.365035 C99.2341709,69.3317114 99.236751,64.2983877 99.236751,59.2650641 L99.2507575,59.2650641 Z" id="Fill-11" fill="#245093"></path>
                    <path d="M112.333068,40.3983175 C100.394755,40.5965553 88.7004498,39.1561994 77.4016431,35.1066952 C73.6958233,33.7787232 69.9409807,32.6158265 65.9933648,32.3099949 C60.255868,31.865618 54.6271058,32.2351952 49.42849,35.0495821 C46.3850292,36.6973876 43.842853,38.92701 41.9143818,41.8261454 C41.2313816,42.8527076 38.7433883,43.0855817 37.8801468,42.203092 C37.4761704,41.7896667 37.4407856,41.2892821 37.6136551,40.7483656 C37.9273265,39.7663885 38.496432,38.9259045 39.1031337,38.1189515 C42.7212288,33.3033947 47.6305002,30.5328559 53.4310261,29.2741565 C60.6093474,27.7162581 67.6958893,28.2866523 74.7341458,30.2620291 C80.8479745,31.9780019 86.9743354,33.6888161 93.2728285,34.6048368 C101.960532,35.8683263 110.706842,36.1041482 119.46163,35.6833535 C129.022896,35.2235008 138.350106,33.4957369 147.307987,30.0173639 C149.427389,29.1945666 151.471598,28.2111156 153.458307,27.1031211 C154.498104,26.5235151 155.625625,26.7136465 156.398193,27.5316537 C157.212412,28.3938776 157.083774,29.3541148 156.080836,29.9772005 C148.896986,34.4416038 141.095376,37.2206175 132.776264,38.6727645 C126.008922,39.8540848 119.189978,40.2933031 112.333068,40.3983175" id="Fill-13" fill="#E12C2B"></path>
                    <path d="M132.824992,58.6610653 C132.823886,55.9443234 132.551865,53.2703241 131.473366,50.7418712 C130.561839,48.6047353 129.083418,47.0431522 126.791147,46.3902203 C122.76281,45.2424309 118.837678,47.2627613 117.331244,51.3104231 C115.693223,55.7118177 115.652309,60.1986978 116.942749,64.677103 C117.965959,68.2269595 120.644882,70.3489881 124.042928,70.512958 C127.492946,70.6791387 130.291662,68.7855626 131.723271,65.3219285 C132.606417,63.1858979 132.865905,60.9478008 132.824992,58.6610653 M139.699962,57.935913 C139.654625,60.7978328 139.244751,63.4817807 138.309635,66.0758216 C136.787351,70.3007183 133.842673,72.9562939 129.485183,74.0263358 C126.024845,74.8760315 122.557136,74.8819271 119.096429,74.0093861 C114.552801,72.864176 111.520766,70.0840569 110.208212,65.5743316 C109.006603,61.4470799 108.772547,57.2199724 109.606301,53.0079723 C110.870202,46.6264107 115.111217,42.9052148 121.643766,42.1715876 C124.042928,41.9022348 126.425136,41.9225008 128.790019,42.4107258 C134.73061,43.6373681 138.021396,47.0372566 139.19278,53.1140921 C139.507189,54.7453164 139.655731,56.391648 139.699962,57.935913" id="Fill-15" fill="#E12A29"></path>
                    <path d="M74.1564522,56.1333862 C74.1564522,50.762911 74.1704587,45.3928042 74.1412871,40.022329 C74.1372854,39.2080065 74.3654436,38.7746838 75.2095184,38.6309798 C76.0838176,38.4824857 76.9289981,38.1707586 77.8007172,38.002367 C78.8733188,37.7949175 79.9330196,37.8962472 80.9706049,38.2768785 C84.1471273,39.4405121 87.4146917,40.269205 90.7382821,40.8845528 C91.0062482,40.933928 91.3851604,40.9099773 91.4728852,41.1701184 C91.5746165,41.4707913 91.2786374,41.7254052 91.0751749,41.9531208 C90.6203328,42.4616117 90.015474,42.5036175 89.3859196,42.5017751 C86.7766597,42.4951427 84.1666626,42.5312529 81.5585085,42.484457 C80.6882638,42.4686127 80.4390959,42.7880777 80.4589998,43.6116119 C80.5249777,46.372202 80.5599939,49.134266 80.5588881,51.8959615 C80.5585195,52.6480123 80.7958925,52.9147858 81.5640374,52.904837 C84.5105586,52.8679899 87.4581856,52.9063109 90.4050753,52.8694638 C91.103925,52.8606204 91.3763142,53.0382238 91.2019704,53.751585 C91.1297264,54.0459939 91.1448387,54.3614057 91.1083481,54.6661318 C90.8739238,56.6304545 90.1533273,57.2800702 88.2056893,57.3113903 C85.9653896,57.347132 83.7247213,57.4175101 81.4844216,57.4208264 C80.7387608,57.4219318 80.4420446,57.6466995 80.4641601,58.4260172 C80.5636798,61.8918621 80.6399783,65.3588125 80.677206,68.8261313 C80.6860522,69.6485602 80.9271111,69.9392844 81.7914584,69.9274933 C85.2289436,69.8803289 88.6679032,69.9274933 92.1057569,69.8932254 C92.796129,69.8862244 92.9852165,70.0612485 92.9516746,70.7635556 C92.8455203,72.966648 91.7504347,74.2872506 89.3943972,74.2684585 C85.1290553,74.2341907 80.8618704,74.3668405 76.5954227,74.4114256 C74.6212462,74.43206 74.1660356,73.9615216 74.1641926,71.9684581 C74.1605067,66.6901008 74.1630868,61.4117435 74.1630868,56.1333862 L74.1564522,56.1333862 Z" id="Fill-17" fill="#E12A29"></path>
                    <path d="M63.2264951,54.3482513 C63.2264951,60.7942954 63.2095399,67.2399711 63.2463991,73.6856468 C63.2515593,74.5758745 62.9920709,74.7269479 62.1962816,74.5143397 C61.0414841,74.2059289 59.8560936,74.0124812 58.6994532,73.7114398 C57.4200718,73.3783414 56.9357424,72.7301997 56.867553,71.4059123 C56.8550208,71.1608786 56.8609183,70.9147395 56.8605497,70.6693374 C56.8568638,59.1284348 56.8528093,47.5871638 56.8494894,36.0462613 C56.8491234,34.5764276 56.8863511,34.545476 58.3968395,34.4176163 C59.7119743,34.3063378 61.0326379,34.2252741 62.3381894,34.0410382 C63.1251324,33.9301282 63.2427131,34.219747 63.2405016,34.9191063 C63.2169117,41.3953651 63.2264951,47.871624 63.2264951,54.3482513" id="Fill-19" fill="#E12C2B"></path>
                    <path d="M97.5435089,28.6793694 C97.5394605,25.9921052 99.5692944,23.9666162 102.261856,23.9706633 C104.803295,23.9747226 106.935229,26.1402309 106.919467,28.7011093 C106.903161,31.2910969 104.830571,33.3195337 102.189243,33.3306338 C99.5309609,33.341642 97.5475695,31.355948 97.5435089,28.6793694" id="Fill-21" fill="#245093"></path>
                    <path d="M152.655146,54.0535476 C152.581796,53.5800615 152.37391,53.2222754 151.852353,53.2207988 C151.362126,53.2196961 151.160138,53.5583216 151.138023,54.0008562 C151.112958,54.4920289 151.322318,54.8501835 151.85051,54.8726602 C152.390128,54.8955055 152.558575,54.4968191 152.655146,54.0535476 M155.81803,54.1161878 C155.791491,53.8464665 155.798495,53.5977481 155.736203,53.3674533 C155.65843,53.0800453 155.453493,52.8681741 155.132081,52.9636083 C154.633008,53.1117339 154.687191,53.5656911 154.686085,53.9485332 C154.684611,54.4102282 154.515796,54.9747269 155.15862,55.1740701 C155.430272,55.2584501 155.627837,55.0439996 155.708927,54.8052299 C155.784857,54.5800937 155.787068,54.3302699 155.81803,54.1161878 M156.334427,54.1611413 C156.32042,54.4677098 156.324106,54.7757522 156.288721,55.0793729 C156.243753,55.4699529 156.060195,55.7805745 155.661379,55.9080657 C155.252242,56.0388732 154.840525,56.0182388 154.564081,55.6678222 C154.019672,54.9776747 153.386431,55.0598439 152.68279,55.3465148 C151.2486,55.9298056 150.528372,55.4581618 150.455022,53.9002634 C150.440647,53.5944319 150.428115,53.2852841 150.455391,52.9809264 C150.496305,52.5229161 150.481192,51.9388884 151.213952,52.4716985 C151.296886,52.5324964 151.455749,52.5284432 151.5678,52.5033871 C152.502549,52.2944636 152.931589,52.8084817 153.173754,53.6036436 C153.251895,53.8597315 153.272168,54.2329933 153.597634,54.2318879 C153.932315,54.231151 153.915729,53.8534675 153.987236,53.6006959 C154.045842,53.3943517 154.073855,53.1710579 154.173374,52.9864535 C154.445395,52.4794364 154.82099,52.0564309 155.453862,52.0984367 C156.1505,52.1448641 156.202102,52.7200485 156.269186,53.2436468 C156.307888,53.546899 156.314154,53.8545729 156.334427,54.1611413" id="Fill-23" fill="#345D9C"></path>
                    <path d="M145.322532,65.7332903 C145.732774,65.6780195 146.576112,66.0085387 146.590118,64.8979649 C146.600439,64.1079616 146.017327,63.5441998 145.180624,63.5464042 C144.4228,63.5486215 143.815729,64.1282275 143.797668,64.844168 C143.772604,65.8364624 144.45413,65.7778754 145.322532,65.7332903 M146.130116,66.4927105 C145.762262,66.492342 145.384824,66.5435596 145.028027,66.4805509 C144.432752,66.375168 143.628854,66.8869752 143.265791,66.1710347 C142.743497,65.1411563 143.112457,63.7155392 143.876916,63.1477243 C144.639163,62.5813833 145.76521,62.584331 146.546625,63.1561991 C147.16549,63.6094193 147.329882,64.2553503 147.193503,64.9536041 C147.067813,65.5973242 147.297077,65.7218677 147.895301,65.7399228 C148.31181,65.7524508 149.091381,65.3585546 149.111653,66.0475967 C149.134506,66.8298621 148.321762,66.4278595 147.876872,66.4776032 C147.3015,66.5417172 146.712859,66.4934474 146.130116,66.4927105" id="Fill-25" fill="#345D9C"></path>
                    <path d="M151.951983,41.0400847 C150.977796,41.5157817 150.749269,42.2733595 151.287781,42.8109598 C151.417157,42.9395564 151.567911,43.0736801 151.762527,43.0338851 C152.011695,42.983036 151.944243,42.7538466 151.948297,42.5884028 C151.958987,42.1057049 151.951983,41.6226385 151.951983,41.0400847 M154.525858,41.6978067 C154.524384,42.7258428 154.226931,43.4638916 153.351894,43.8334688 C152.536201,44.1779898 151.727143,44.1599347 151.014286,43.5700115 C150.306222,42.9841415 150.279315,42.1981913 150.45587,41.3812895 C150.543226,40.9759706 150.784654,40.6528209 151.142925,40.4413182 C151.518888,40.2194982 151.953458,40.0194181 152.357434,40.235711 C152.702804,40.4210522 152.507451,40.8503218 152.527723,41.1705237 C152.557211,41.6289025 152.532515,42.0905976 152.552788,42.5497133 C152.562002,42.7553205 152.564583,43.0047759 152.8296,43.0703638 C153.059233,43.127477 153.249794,42.997038 153.407183,42.8500178 C153.942009,42.3507386 153.784989,41.7534459 153.680309,41.1362558 C153.629075,40.8337405 153.151012,40.3698347 153.696896,40.2139711 C154.173116,40.0783735 154.277428,40.6483993 154.39464,41.0165025 C154.477204,41.2751697 154.499688,41.5533658 154.525858,41.6978067" id="Fill-27" fill="#345D9C"></path>
                    <path d="M151.968902,49.8380838 C151.82552,49.5304099 152.172733,48.9673852 151.713836,48.9194838 C151.256783,48.8715825 151.019778,49.3579652 151.017198,49.8377153 C151.014618,50.2938833 151.260837,50.7006761 151.692089,50.669356 C152.188951,50.6332458 151.80967,50.1144376 151.968902,49.8380838 M152.533584,49.3432263 C152.533584,49.5904708 152.516997,49.7758121 152.53727,49.9571002 C152.571549,50.2677218 152.408263,50.734207 152.864948,50.7905832 C153.308732,50.8454855 153.580016,50.4593271 153.710866,50.0724318 C153.884841,49.5584138 153.768366,49.0484489 153.5579,48.5558022 C153.48197,48.3789358 153.267819,48.1589582 153.554214,48.0030947 C153.766523,47.8873946 153.960771,48.0156227 154.115211,48.1880675 C154.62313,48.7555139 154.648194,50.1763408 154.159442,50.877911 C153.578541,51.7124994 152.460603,51.9877478 151.444027,51.5463187 C150.651555,51.2025346 150.257162,50.3767895 150.420817,49.4047611 C150.559408,48.5827007 151.371046,47.8074362 152.057364,47.9529825 C152.967048,48.1460617 152.328647,48.9316434 152.533584,49.3432263" id="Fill-29" fill="#345D9C"></path>
                    <path d="M144.769497,60.2832252 C144.530281,60.0065029 145.08022,59.4055256 144.426338,59.3771532 C144.01757,59.3594666 143.802681,59.7876307 143.801207,60.2353239 C143.798995,60.7091785 143.975919,61.1778745 144.452877,61.1572401 C144.996181,61.1336579 144.573038,60.5750548 144.769497,60.2832252 M147.305776,60.103411 C147.246433,60.9744781 146.907697,61.6915241 146.030449,62.0367821 C145.193377,62.3665642 144.386899,62.2936068 143.72454,61.6498868 C143.124841,61.067333 142.961187,60.3466023 143.249425,59.5414916 C143.402391,59.1159068 143.688418,58.806759 144.076913,58.5952563 C144.946421,58.1214016 145.28958,58.3306936 145.298057,59.3310943 C145.301375,59.7294122 145.280734,60.1288355 145.308009,60.5253111 C145.324965,60.7721871 145.163153,61.1535554 145.552754,61.2143532 C145.944567,61.275151 146.265242,61.0743339 146.404569,60.6686466 C146.5955,60.1140967 146.437743,59.5798127 146.302838,59.0458972 C146.251972,58.8454485 146.096427,58.6029942 146.353704,58.4784507 C146.616878,58.3509595 146.822921,58.5377747 146.951559,58.7643848 C147.182666,59.1711775 147.2785,59.6181337 147.305776,60.103411" id="Fill-31" fill="#345D9C"></path>
                    <path d="M144.729689,77.3608205 C144.729689,76.8442232 144.724529,76.3865813 144.730795,75.9296764 C144.739273,75.3633354 144.437765,75.5110925 144.150632,75.6835373 C143.816688,75.8839859 143.759187,76.2178213 143.804156,76.5693433 C143.861656,77.0188788 144.128516,77.2716504 144.729689,77.3608205 M145.298426,75.8998302 C145.298426,76.1868697 145.270413,76.4057419 145.305429,76.6139284 C145.351135,76.885492 145.103072,77.3320797 145.511103,77.3910352 C145.905128,77.4481483 146.259344,77.1765847 146.42263,76.7554215 C146.640099,76.195713 146.428528,75.6735886 146.288463,75.1455686 C146.241652,74.9690706 146.147661,74.7682536 146.361813,74.66545 C146.588128,74.5567508 146.768738,74.6993494 146.913963,74.8736365 C147.452475,75.518462 147.403453,76.8983885 146.816655,77.635332 C146.238335,78.3615897 144.927623,78.5701447 144.045952,78.0756557 C143.269698,77.6404906 142.924696,76.6703045 143.223993,75.7642326 C143.460628,75.0471867 144.353726,74.3500382 144.974065,74.5659626 C145.668123,74.80768 145.120765,75.5110925 145.298426,75.8998302" id="Fill-33" fill="#345D9C"></path>
                    <path d="M144.811775,48.671834 C144.630427,48.339104 145.04325,47.7045957 144.484834,47.694647 C144.015985,47.6861722 143.84975,48.2886234 143.832058,48.7613726 C143.816946,49.1773772 144.070168,49.5417957 144.463087,49.5230036 C145.061311,49.4935259 144.617158,48.9411868 144.811775,48.671834 M145.292787,48.1861883 C145.292787,48.4396968 145.2762,48.6250381 145.296472,48.8059577 C145.32854,49.0874701 145.164517,49.5031062 145.567756,49.5830645 C145.967678,49.662286 146.232327,49.3520328 146.415148,49.010091 C146.725871,48.4290111 146.495869,47.8814622 146.311942,47.3309654 C146.248176,47.1404655 146.074938,46.9171717 146.369443,46.7896805 C146.55079,46.7108275 146.719973,46.8305808 146.856352,46.9669154 C147.378278,47.4879344 147.419929,48.8984441 146.933756,49.655285 C146.443898,50.4183899 145.239709,50.7503829 144.304592,50.3800689 C143.518387,50.0687103 142.992038,49.1464256 143.120308,48.3052046 C143.246735,47.473564 144.079014,46.639344 144.794082,46.7602027 C145.794071,46.9293313 145.036984,47.7808694 145.292787,48.1861883" id="Fill-35" fill="#345D9C"></path>
                    <path d="M144.159183,82.4967635 C143.391407,82.4960266 142.623631,82.497132 141.855854,82.4949212 C141.633225,82.4945527 141.365627,82.4481253 141.344618,82.2134088 C141.316973,81.9053664 141.611847,81.8574651 141.858803,81.8084584 C142.326177,81.715972 142.963103,82.0376478 143.231438,81.6032196 C143.434901,81.2734374 143.265717,80.7115181 143.256502,80.2531393 C143.241759,79.5301978 143.60777,79.1694639 144.315835,79.1573044 C145.083242,79.1436709 145.851019,79.1473556 146.618795,79.149198 C146.859485,79.1499349 147.124871,79.1108769 147.132243,79.4922452 C147.140352,79.9067758 146.87128,79.9071443 146.579724,79.9071443 C145.96565,79.9075128 145.35084,79.8964586 144.737872,79.9233571 C144.242853,79.9447284 143.813813,80.100592 143.795383,80.7063595 C143.775848,81.3320244 144.095417,81.6997592 144.711702,81.7513452 C145.291865,81.799615 145.877557,81.7837708 146.459932,81.8095638 C146.7091,81.8206179 147.011713,81.8703616 147.014662,82.1695606 C147.017611,82.4904995 146.703202,82.4923419 146.462512,82.4945527 C145.694736,82.5026591 144.926959,82.4975005 144.159183,82.4967635" id="Fill-37" fill="#345D9C"></path>
                    <path d="M152.422085,76.376301 C153.099925,76.3851443 153.743855,75.7930102 153.77371,75.1323405 C153.805409,74.4396136 153.162586,73.7682582 152.455258,73.7557301 C151.747194,73.7428336 151.085203,74.3987133 151.101421,75.0965987 C151.117271,75.7664803 151.737242,76.3670892 152.422085,76.376301 M152.38412,77.1611457 C151.179931,77.137932 150.347652,76.2337024 150.390408,74.9949005 C150.430953,73.8168964 151.307096,72.9406707 152.43646,72.9487771 C153.586097,72.9568835 154.513474,73.9189631 154.502416,75.0918086 C154.49099,76.2823407 153.568036,77.183991 152.38412,77.1611457" id="Fill-39" fill="#345D9C"></path>
                    <path d="M153.776217,79.8677915 C153.796858,79.1934883 153.218538,78.5880893 152.510105,78.5420303 C151.79172,78.4952344 151.086973,79.1201624 151.081075,79.8092045 C151.075546,80.4555039 151.700678,81.1158052 152.360457,81.1603903 C153.04272,81.2064493 153.755207,80.5560967 153.776217,79.8677915 M152.438598,77.7424467 C153.61588,77.7428152 154.520403,78.6735747 154.502711,79.8666861 C154.485387,81.0498488 153.55027,81.972502 152.388838,81.9518676 C151.21598,81.9312331 150.364165,81.0045268 150.386649,79.7738313 C150.407658,78.6087237 151.282695,77.7424467 152.438598,77.7424467" id="Fill-41" fill="#345D9C"></path>
                    <path d="M152.411285,61.5246432 C151.695849,61.5320127 151.090622,62.1060916 151.082513,62.785185 C151.073666,63.49523 151.716859,64.1102092 152.457359,64.099892 C153.162475,64.0903118 153.759225,63.5184437 153.775443,62.8375079 C153.792398,62.1270945 153.158421,61.5169053 152.411285,61.5246432 M154.502311,62.8120834 C154.504886,64.0206706 153.627638,64.8884215 152.406494,64.8851147 C151.234004,64.881789 150.393246,64.0335671 150.385137,62.8452458 C150.37666,61.6521344 151.294084,60.6793691 152.420132,60.687107 C153.576035,60.6955819 154.499725,61.6381325 154.502311,62.8120834" id="Fill-43" fill="#345D9C"></path>
                    <path d="M145.82378,68.4829736 C145.701776,68.5673536 145.267575,68.3735375 145.338713,68.7228487 C145.428649,69.1664886 145.579403,69.7217755 146.172099,69.7777832 C146.56428,69.8146304 146.651268,69.4332622 146.663063,69.1373794 C146.683704,68.6329416 146.355289,68.4597599 145.82378,68.4829736 M143.141907,69.0102566 C143.128269,68.1075009 143.528191,67.7110254 144.4235,67.6262769 C145.165106,67.5558988 145.930671,67.8094073 146.651636,67.3314995 C147.002167,67.0993623 147.2447,67.5035758 147.203418,67.8101443 C147.124171,68.3952773 147.190517,68.959776 147.228482,69.5375397 C147.259075,70.0021825 147.112376,70.4756686 146.595242,70.6510612 C146.031665,70.842298 145.64317,70.5239384 145.370781,70.0858256 C145.180219,69.7788886 145.077382,69.4181548 144.927365,69.0850564 C144.802781,68.8087026 144.687043,68.4531274 144.300391,68.556668 C143.912632,68.6602085 143.854026,69.0172576 143.894571,69.376886 C143.90784,69.4981132 143.977873,69.6226566 143.959075,69.735409 C143.91595,69.9951815 144.403228,70.353336 143.908209,70.4937238 C143.481749,70.614214 143.366379,70.1897346 143.284184,69.8640056 C143.210097,69.5688598 143.182084,69.2619228 143.141907,69.0102566" id="Fill-45" fill="#345D9C"></path>
                    <path d="M145.262451,45.9327995 C144.89386,45.9316941 144.5249,45.9471699 144.157045,45.9280094 C143.61411,45.8992686 143.030629,45.8981632 143.392586,45.0499413 C143.510904,44.7735875 143.265791,44.5278169 143.199813,44.2647281 C142.97276,43.3656571 143.414333,42.6102901 144.319963,42.5262785 C145.111697,42.4525842 145.914859,42.4990116 146.712859,42.4920106 C146.946178,42.4901683 147.131211,42.5240677 147.138951,42.8310046 C147.146692,43.1401524 147.033165,43.2790662 146.715808,43.2761184 C146.071141,43.2691175 145.425369,43.2606426 144.781808,43.2901204 C144.254722,43.314071 143.79472,43.4736193 143.795457,44.1324467 C143.796194,44.7706397 144.162574,45.0985795 144.762273,45.1383745 C145.373766,45.1789064 145.989683,45.1527449 146.603756,45.1623252 C146.84887,45.1660099 147.124208,45.1501656 147.131579,45.5116363 C147.137845,45.8395762 146.908582,45.9246931 146.643933,45.9309571 C146.183562,45.9420113 145.722822,45.9339049 145.262451,45.9327995" id="Fill-47" fill="#345D9C"></path>
                    <path d="M145.270008,54.1927931 C145.820683,54.1927931 146.438074,54.0350872 146.905448,54.232588 C147.495564,54.4820434 146.934936,55.1272373 147.069472,55.626885 C147.460916,57.0816113 147.000914,57.5761003 145.469047,57.6114736 C144.948596,57.6232647 144.427407,57.6199485 143.907324,57.6077889 C143.623878,57.6011564 143.255286,57.7186989 143.228379,57.2315793 C143.198891,56.6987692 143.598813,56.8564751 143.868991,56.8465263 C144.449891,56.8247865 145.034109,56.8564751 145.613166,56.8159432 C146.086438,56.7827807 146.557129,56.6545526 146.587354,56.0539437 C146.619421,55.4216462 146.238298,55.0760198 145.656292,55.0093264 C145.050696,54.9400537 144.434042,54.9662152 143.822917,54.936369 C143.568957,54.9238409 143.303203,54.8494097 143.326793,54.5306816 C143.344854,54.2834371 143.571169,54.1920561 143.800433,54.1880029 C144.289923,54.1791596 144.780149,54.1850552 145.270008,54.1850552 L145.270008,54.1927931 Z" id="Fill-49" fill="#345D9C"></path>
                    <path d="M152.415414,39.2923865 C152.109483,39.2923865 151.803552,39.2968082 151.497621,39.2912811 C150.931832,39.2817008 150.308175,39.3391824 150.639539,38.419477 C150.690405,38.2776154 150.57135,38.0716397 150.523433,37.8969841 C150.169954,36.609544 150.648754,35.9330299 151.964257,35.8858655 C152.483972,35.8674419 153.00516,35.8644942 153.524137,35.8858655 C153.856607,35.899499 154.363789,35.7270542 154.356048,36.3059233 C154.349045,36.8538407 153.861398,36.6187558 153.57316,36.6397586 C153.025064,36.6795536 152.470334,36.6360739 151.924081,36.6858176 C151.43754,36.7304027 151.018083,36.9323252 151.018083,37.5218799 C151.017714,38.1014859 151.343181,38.4511656 151.899385,38.5093841 C152.475125,38.570182 153.059712,38.5421781 153.639506,38.5664972 C153.911895,38.5779199 154.28491,38.5812361 154.266481,38.9353374 C154.249894,39.2588556 153.88978,39.2791215 153.608176,39.2820693 C153.210466,39.2861225 152.813124,39.2831747 152.415414,39.2831747 L152.415414,39.2923865 Z" id="Fill-51" fill="#345D9C"></path>
                    <path d="M152.281504,59.8785695 C152.006166,59.8785695 151.730828,59.8793065 151.455859,59.8785695 C150.899286,59.8763587 150.190484,60.054699 150.623948,59.0310846 C150.709093,58.8295306 150.512265,58.5122764 150.454396,58.2466083 C150.228449,57.2071496 150.697666,56.5579025 151.750364,56.5063164 C152.4212,56.473154 153.095723,56.5007893 153.768403,56.5022632 C153.99693,56.5026317 154.244255,56.5590079 154.267844,56.80441 C154.298069,57.1142947 154.018676,57.2012541 153.772457,57.2163614 C153.223624,57.2498923 152.671843,57.2381012 152.122641,57.2701583 C151.57344,57.3018468 151.023501,57.4333912 151.029767,58.1139585 C151.035665,58.7702066 151.502302,59.078249 152.122641,59.1176755 C152.671474,59.1523118 153.223256,59.1335197 153.773194,59.1541542 C153.992875,59.1622605 154.239463,59.2377972 154.257524,59.4839363 C154.281482,59.8107707 153.996561,59.8557243 153.749605,59.8623568 C153.260484,59.8752533 152.770994,59.8660415 152.281504,59.8660415 L152.281504,59.8785695 Z" id="Fill-53" fill="#345D9C"></path>
                    <path d="M152.968301,84.1286142 C152.266134,83.8172556 151.692605,83.5578515 151.114654,83.3087646 C150.855903,83.1978547 150.590517,83.0858393 150.50316,82.796589 C150.464458,82.6672554 150.49284,82.4962845 150.549972,82.3713726 C150.570981,82.3260506 150.780341,82.320155 150.874332,82.3617923 C151.995956,82.8584922 153.117581,83.3555605 154.225936,83.8806327 C154.585312,84.0504982 154.54919,84.3250096 154.214141,84.489348 C153.112789,85.0280537 151.999274,85.5431771 150.889813,86.0660385 C150.744588,86.1345742 150.570613,86.1821071 150.496526,86.0015559 C150.376734,85.7093579 150.476253,85.4278455 150.742008,85.2852469 C151.281994,84.9959966 151.847414,84.7553846 152.39809,84.4860318 C152.554004,84.4093896 152.694806,84.3017959 152.968301,84.1286142" id="Fill-55" fill="#345D9C"></path>
                    <path d="M145.263705,52.9997922 C144.727772,53.1048066 144.177465,52.8081869 143.740684,53.4356942 C143.600988,53.6361428 143.112973,53.0289015 142.790455,52.7846047 C142.456143,52.5307277 142.691304,52.4201862 142.922779,52.2757453 C143.222076,52.0889301 143.182268,51.7506731 143.206595,51.4511056 C143.225762,51.2145467 143.300217,51.0247838 143.584033,51.0457867 C143.839467,51.0649472 143.837624,51.2771869 143.837255,51.452211 C143.835044,52.6287412 144.724824,52.188786 145.302775,52.2322656 C145.875567,52.2750083 146.534977,52.3214358 146.516547,51.4216278 C146.51323,51.2403398 146.490746,51.0328902 146.741757,50.9964115 C147.00788,50.9573535 147.107031,51.1338514 147.184067,51.3575138 C147.470094,52.1898914 147.032207,52.8984625 146.140953,52.9946336 C145.839445,53.0270591 145.531302,52.9997922 145.263705,52.9997922" id="Fill-57" fill="#345D9C"></path>
                    <path d="M145.288695,85.2584959 C144.806946,85.3859871 144.243738,85.048467 143.753511,85.6951348 C143.54194,85.9744364 143.064614,85.236756 142.7045,84.9692456 C142.4557,84.7842728 142.533842,84.6287777 142.817657,84.5296588 C143.121377,84.4239074 143.18588,84.1453428 143.219791,83.8664097 C143.246329,83.6438528 143.294983,83.3826064 143.53125,83.3667621 C143.789633,83.3498124 143.817278,83.6272716 143.856717,83.8343527 C144.080452,85.0193577 145.009303,84.4014307 145.633328,84.4983387 C146.223812,84.5904566 146.552964,84.2680439 146.494358,83.6320617 C146.475929,83.4345609 146.51758,83.257326 146.763062,83.2447979 C146.977582,83.2341123 147.078576,83.3741315 147.16114,83.5550511 C147.530101,84.3675313 147.0513,85.1833276 146.146408,85.2548111 C145.873281,85.276551 145.597206,85.2584959 145.288695,85.2584959" id="Fill-59" fill="#345D9C"></path>
                    <path d="M152.466169,72.1669538 C152.068827,72.1669538 151.668168,72.1979054 151.275249,72.1581105 C150.86685,72.1164732 150.257199,72.1282643 150.808612,71.4462231 C151.045617,71.1529196 150.803821,71.0088472 150.664493,70.8305069 C150.421591,70.5191483 150.33018,70.178312 150.457344,69.80026 C150.543226,69.5460145 150.697666,69.369885 151.005809,69.4693724 C151.244288,69.546383 151.289256,69.6805067 151.276724,69.949491 C151.224752,71.0718559 151.489032,71.3331023 152.613974,71.3728973 C152.919168,71.3839514 153.225836,71.3681071 153.530661,71.3795298 C153.838435,71.3909524 154.246466,71.3986903 154.262316,71.7660566 C154.278534,72.1562681 153.87382,72.1595844 153.566415,72.1654799 C153.199666,72.1724809 152.832917,72.1669538 152.466169,72.1669538" id="Fill-61" fill="#345D9C"></path>
                    <path d="M152.391824,47.0878478 C152.023969,47.0878478 151.651692,47.123958 151.290103,47.0782675 C150.883547,47.0266815 150.308913,47.0266815 150.811303,46.3409556 C151.003708,46.0786038 150.751223,45.8851561 150.627007,45.690603 C150.435708,45.3906671 150.316653,45.0815193 150.479939,44.7410514 C150.567295,44.5586579 150.656863,44.3088341 150.937361,44.3902664 C151.150776,44.4525381 151.260248,44.5929258 151.281626,44.8589624 C151.394046,46.2355727 151.545537,46.3439034 152.946554,46.3785397 C153.401396,46.3895939 154.193868,46.1659316 154.191294,46.7411159 C154.188708,47.3170372 153.391076,47.0171012 152.9425,47.0955857 C152.764101,47.1265373 152.575751,47.1007443 152.391824,47.1007443 L152.391824,47.0878478 Z" id="Fill-63" fill="#345D9C"></path>
                    <path d="M153.238995,65.7581253 C153.879607,65.7570199 154.520588,65.7529667 155.1612,65.7581253 C155.542692,65.7614415 155.884008,65.8760362 156.138705,66.1767092 C156.254074,66.3130437 156.401142,66.4541684 156.299042,66.6571963 C156.198785,66.856171 156.036236,66.8594872 155.835354,66.7935308 C154.377943,66.3119383 152.869297,66.5477602 151.381293,66.48512 C151.082734,66.4722235 150.646321,66.5256519 150.635632,66.1571802 C150.622363,65.703223 151.084577,65.7666001 151.4082,65.76181 C152.018219,65.7525982 152.628607,65.7592307 153.238995,65.7581253" id="Fill-65" fill="#345D9C"></path>
                    <path d="M145.179813,73.6868996 C144.84292,73.6876366 144.506396,73.688742 144.169504,73.6876366 C143.307368,73.6839519 143.302208,73.681741 143.583074,72.8884214 C143.661953,72.6669699 143.513411,72.5472166 143.412785,72.4071974 C143.22296,72.1433716 143.135604,71.8548583 143.224803,71.5423943 C143.290044,71.3150472 143.169515,70.9053067 143.625462,70.9848965 C143.952035,71.0412727 144.011009,71.2947813 144.002532,71.6135093 C143.975993,72.6367552 144.223318,72.8906323 145.255743,72.9355858 C145.744496,72.9569572 146.235091,72.945903 146.724581,72.9451661 C146.972274,72.9447976 147.130031,73.0225451 147.134823,73.3073738 C147.139246,73.5892546 146.995864,73.6876366 146.740799,73.6843203 C146.710206,73.6839519 146.679612,73.6861627 146.649019,73.6861627 C146.15953,73.6861627 145.669671,73.6861627 145.179813,73.6868996" id="Fill-67" fill="#345D9C"></path>
                    <path d="M132.824992,58.660181 C132.865905,60.9476534 132.606417,63.186119 131.723271,65.3221496 C130.291662,68.7854152 127.492946,70.6793598 124.042928,70.5128106 C120.644882,70.3488407 117.965959,68.2271805 116.942749,64.6769556 C115.652309,60.1985504 115.693223,55.7120388 117.331244,51.3106442 C118.837678,47.2626139 122.76281,45.242652 126.791147,46.3900729 C129.083418,47.0430048 130.561839,48.6045879 131.473366,50.7417238 C132.551865,53.2701767 132.823886,55.944176 132.824992,58.660181" id="Fill-69" fill="#FFFFFF"></path>
                    <path d="M155.818067,54.1161509 C155.787105,54.3306015 155.784894,54.5800568 155.708964,54.8051931 C155.627874,55.0439627 155.430309,55.2584133 155.158657,55.1740332 C154.515833,54.9750585 154.684648,54.4101914 154.686122,53.9484963 C154.687228,53.5656542 154.633045,53.1116971 155.132118,52.9635714 C155.45353,52.8681373 155.658467,53.0800085 155.73624,53.3674164 C155.798532,53.5977112 155.791528,53.8467981 155.818067,54.1161509" id="Fill-71" fill="#F1F4FA"></path>
                    <path d="M152.655146,54.0535476 C152.558575,54.4968191 152.390128,54.8955055 151.85051,54.8726602 C151.322318,54.8501835 151.112958,54.4920289 151.138023,54.0008562 C151.160138,53.5583216 151.362126,53.2196961 151.852353,53.2207988 C152.37391,53.2222754 152.581796,53.5800615 152.655146,54.0535476" id="Fill-73" fill="#F1F4FA"></path>
                    <path d="M145.322532,65.7332903 C144.45413,65.7778754 143.772604,65.8364624 143.797668,64.844168 C143.815729,64.1282275 144.4228,63.5486215 145.180624,63.5464042 C146.017327,63.5441998 146.600439,64.1079616 146.590118,64.8979649 C146.576112,66.0085387 145.732774,65.6780195 145.322532,65.7332903" id="Fill-75" fill="#F1F4FA"></path>
                    <path d="M151.951983,41.0400847 C151.951983,41.6226385 151.958987,42.1057049 151.948297,42.5884028 C151.944243,42.7538466 152.011695,42.983036 151.762527,43.0338851 C151.567911,43.0736801 151.417157,42.9395564 151.287781,42.8109598 C150.749269,42.2733595 150.977796,41.5157817 151.951983,41.0400847" id="Fill-77" fill="#F1F4FA"></path>
                    <path d="M151.968902,49.8380838 C151.80967,50.1144376 152.188951,50.6332458 151.692089,50.669356 C151.260837,50.7006761 151.014618,50.2938833 151.017198,49.8377153 C151.019778,49.3579652 151.256783,48.8715825 151.713836,48.9194838 C152.172733,48.9673852 151.82552,49.5304099 151.968902,49.8380838" id="Fill-79" fill="#F1F4FA"></path>
                    <path d="M144.769497,60.2832252 C144.573038,60.5750548 144.996181,61.1336579 144.452877,61.1572401 C143.975919,61.1778745 143.798995,60.7091785 143.801207,60.2353239 C143.802681,59.7876307 144.01757,59.3594666 144.426338,59.3771532 C145.08022,59.4055256 144.530281,60.0065029 144.769497,60.2832252" id="Fill-81" fill="#F1F4FA"></path>
                    <path d="M144.729689,77.3608205 C144.128516,77.2716504 143.861656,77.0188788 143.804156,76.5693433 C143.759187,76.2178213 143.816688,75.8839859 144.150632,75.6835373 C144.437765,75.5110925 144.739273,75.3633354 144.730795,75.9296764 C144.724529,76.3865813 144.729689,76.8442232 144.729689,77.3608205" id="Fill-83" fill="#F1F4FA"></path>
                    <path d="M144.811775,48.671834 C144.617158,48.9411868 145.061311,49.4935259 144.463087,49.5230036 C144.070168,49.5417957 143.816946,49.1773772 143.832058,48.7613726 C143.84975,48.2886234 144.015985,47.6861722 144.484834,47.694647 C145.04325,47.7045957 144.630427,48.339104 144.811775,48.671834" id="Fill-85" fill="#F1F4FA"></path>
                    <path d="M152.422085,76.376301 C151.737242,76.3670892 151.117271,75.7664803 151.101421,75.0965987 C151.085203,74.3987133 151.747194,73.7428336 152.455258,73.7557301 C153.162586,73.7682582 153.805409,74.4396136 153.77371,75.1323405 C153.743855,75.7930102 153.099925,76.3851443 152.422085,76.376301" id="Fill-87" fill="#F1F4FA"></path>
                    <path d="M153.776217,79.8677915 C153.755207,80.5560967 153.04272,81.2064493 152.360457,81.1603903 C151.700678,81.1158052 151.075546,80.4555039 151.081075,79.8092045 C151.086973,79.1201624 151.79172,78.4952344 152.510105,78.5420303 C153.218538,78.5880893 153.796858,79.1934883 153.776217,79.8677915" id="Fill-89" fill="#F1F4FA"></path>
                    <path d="M152.411285,61.5246432 C153.158421,61.5169053 153.792398,62.1270945 153.775443,62.8375079 C153.759225,63.5184437 153.162475,64.0903118 152.457359,64.099892 C151.716859,64.1102092 151.073666,63.49523 151.082513,62.785185 C151.090622,62.1060916 151.695849,61.5320127 152.411285,61.5246432" id="Fill-91" fill="#F1F4FA"></path>
                    <path d="M145.82378,68.4829736 C146.355289,68.4597599 146.683704,68.6329416 146.663063,69.1373794 C146.651268,69.4332622 146.56428,69.8146304 146.172099,69.7777832 C145.579403,69.7217755 145.428649,69.1664886 145.338713,68.7228487 C145.267575,68.3735375 145.701776,68.5673536 145.82378,68.4829736" id="Fill-93" fill="#F1F4FA"></path>
                </g>
            </g>
        </g>
    </g>
</svg>