<svg width="48" height="48" viewBox="0 0 48 48" fill="none" xmlns="http://www.w3.org/2000/svg">
<path d="M38.5 6.48366H16.505L16.5 6.48166H5.121L7.561 4.04166C7.8261 3.75743 7.97052 3.38141 7.96385 2.9928C7.95718 2.6042 7.79993 2.23335 7.52523 1.9584C7.25053 1.68344 6.87984 1.52584 6.49124 1.5188C6.10264 1.51176 5.72647 1.65583 5.442 1.92066L0.443 6.91866L0.439 6.92066L0.43 6.93466C0.296159 7.07088 0.189581 7.23143 0.116 7.40766C0.111 7.42066 0.109 7.43366 0.104 7.44766C0.0395032 7.61356 0.00529463 7.78968 0.003 7.96766L0 7.98266L0.002 7.99466C0.0039371 8.17472 0.0384957 8.35293 0.104 8.52066C0.109 8.53166 0.111 8.54466 0.116 8.55666C0.190076 8.73566 0.298057 8.89865 0.434 9.03666L0.439 9.04366L0.443 9.04566L5.441 14.0437C5.72403 14.3168 6.10301 14.4678 6.4963 14.4642C6.8896 14.4606 7.26574 14.3026 7.54373 14.0244C7.82171 13.7462 7.97928 13.3699 7.98252 12.9766C7.98575 12.5833 7.83437 12.2044 7.561 11.9217L5.123 9.48266H38.5C40.2233 9.48478 41.8753 10.1703 43.0939 11.3888C44.3124 12.6073 44.9979 14.2594 45 15.9827V18.9827C45 19.3805 45.158 19.762 45.4393 20.0433C45.7206 20.3246 46.1022 20.4827 46.5 20.4827C46.8978 20.4827 47.2794 20.3246 47.5607 20.0433C47.842 19.762 48 19.3805 48 18.9827V15.9827C47.9974 13.4639 46.9956 11.0491 45.2146 9.26807C43.4336 7.48705 41.0187 6.48531 38.5 6.48266V6.48366Z" fill="#011E41"/>
<path d="M40 28.1417L25.03 16.8217C24.7313 16.6026 24.3705 16.4844 24 16.4844C23.6295 16.4844 23.2687 16.6026 22.97 16.8217L8 28.1417C7.83621 28.261 7.69789 28.4118 7.59314 28.5852C7.4884 28.7587 7.41933 28.9513 7.39 29.1517L5 46.4817H23V36.7717C23 36.4717 23.45 36.3717 23.62 36.6317L29 46.4817H43L40.61 29.1517C40.5807 28.9513 40.5116 28.7587 40.4069 28.5852C40.3021 28.4118 40.1638 28.261 40 28.1417Z" fill="#011E41"/>
</svg>
