<?xml version="1.0" encoding="utf-8"?>
<!-- Generator: Adobe Illustrator 25.2.1, SVG Export Plug-In . SVG Version: 6.00 Build 0)  -->
<svg version="1.1" id="Layer_1" xmlns="http://www.w3.org/2000/svg" xmlns:xlink="http://www.w3.org/1999/xlink" x="0px" y="0px"
	 viewBox="0 0 288 560" style="enable-background:new 0 0 288 560;" xml:space="preserve">
<style type="text/css">
	.st0{fill:#015ABA;}
	.st1{fill:#FDD401;}
	.st2{fill:#FEFEFE;}
	.st3{fill:#015BBA;}
	.st4{fill:#025BBA;}
	.st5{fill:#025BB9;}
	.st6{fill:#015BB9;}
	.st7{fill:#035CB8;}
	.st8{fill:#055DB7;}
	.st9{fill:#FCD401;}
	.st10{fill:#FCD402;}
	.st11{fill:#FCD302;}
	.st12{fill:#F9D204;}
	.st13{fill:#EDCC0C;}
</style>
<g>
	<path class="st0" d="M76.89,280.78c0-14.72,0-29.45-0.01-44.17c0-0.42,0.09-0.51,0.51-0.51c44.54,0.01,89.07,0.01,133.61,0.01
		c0.1,0.19,0.05,0.4,0.05,0.6c0,14.49,0,28.99,0,43.48c0,0.2,0.03,0.41-0.03,0.61c-0.14,0.19-0.34,0.21-0.55,0.22
		c-0.3,0.01-0.6,0.01-0.89,0.01c-43.75,0-87.5,0-131.25-0.01C77.84,281.02,77.31,281.19,76.89,280.78z"/>
	<path class="st1" d="M76.89,280.78c44.7,0,89.4,0,134.09,0c0.14,0.18,0.07,0.4,0.07,0.59c0,14.48,0,28.96,0,43.44
		c0,0.77,0.09,0.69-0.68,0.69c-33.25,0-66.5,0-99.74,0c-11.03,0-22.05,0-33.08,0c-0.22,0-0.45,0.05-0.66-0.05
		C76.89,310.56,76.89,295.67,76.89,280.78z"/>
	<path class="st2" d="M76.89,325.45c44.42,0,88.84,0,133.26,0c0.17,0,0.34-0.01,0.5,0c0.26,0.02,0.38-0.07,0.35-0.34
		c-0.01-0.09,0-0.19,0-0.28c0-14.5,0-29,0-43.5c0-0.19-0.01-0.37-0.02-0.56c0.01-0.22,0.02-0.45,0.02-0.67c0-14.67,0-29.34,0-44.01
		c0.03,0.02,0.12-0.06,0.11,0.06c0,0.15,0,0.3,0,0.45c0,29.48,0,58.97,0.01,88.45c0,0.42-0.09,0.51-0.51,0.51
		c-44.41-0.01-88.81-0.01-133.22-0.02C77.23,325.56,77.01,325.69,76.89,325.45z"/>
	<path class="st1" d="M95.33,260.5c0.74-0.73,1.37-1.42,2.25-1.79c1.79-0.76,3.86-0.55,5.36,0.83c0.93,0.86,1.31,2.04,1.33,3.29
		c0.03,2.66,0,5.32,0.02,7.98c0,0.4-0.11,0.5-0.49,0.48c-0.99-0.03-1.97-0.03-2.96,0c-0.41,0.01-0.48-0.12-0.48-0.5
		c0.02-2.34,0.02-4.69,0-7.03c0-0.6-0.15-1.16-0.44-1.71c-0.42-0.81-1.79-1.03-2.53-0.72c-0.85,0.35-1.44,0.97-1.98,1.68
		c-0.13,0.17-0.07,0.36-0.07,0.53c-0.01,2.4-0.01,4.8,0,7.2c0,0.41-0.07,0.58-0.53,0.56c-0.95-0.04-1.9-0.03-2.85,0
		c-0.43,0.01-0.55-0.09-0.55-0.54c0.02-4.99,0.01-9.97,0.01-14.96c0-1.04,0.02-2.08-0.01-3.13c-0.01-0.38,0.07-0.51,0.48-0.5
		c0.99,0.03,1.97,0.03,2.96,0c0.39-0.01,0.49,0.09,0.49,0.49C95.32,255.23,95.33,257.8,95.33,260.5z"/>
	<path class="st1" d="M164.28,264.79c-0.06-1.6,0.49-3.11,1.63-4.3c1.08-1.13,2.45-1.83,4.05-2.06c1.55-0.22,3.08-0.22,4.55,0.35
		c2.33,0.9,3.88,2.44,4.21,5.05c0.26,2.05-0.06,3.93-1.53,5.41c-1.36,1.36-3.06,2.1-5.03,2.17c-1.52,0.05-3-0.07-4.36-0.79
		c-1.86-0.99-3.09-2.46-3.39-4.6c-0.03-0.2-0.15-0.37-0.12-0.59C164.31,265.25,164.28,265.06,164.28,264.79z"/>
	<path class="st1" d="M195.47,264.99c-0.03,1.6-0.44,3.22-1.77,4.41c-1.39,1.23-3.02,1.96-4.94,2.01c-1.53,0.05-3.01-0.08-4.36-0.81
		c-1.82-0.99-3.03-2.46-3.36-4.57c-0.27-1.75-0.04-3.38,1-4.84c1.11-1.58,2.68-2.43,4.57-2.75c1.54-0.26,3.07-0.23,4.55,0.34
		c2.33,0.9,3.92,2.43,4.22,5.04C195.41,264.17,195.46,264.51,195.47,264.99z"/>
	<path class="st1" d="M116.67,269.32c-0.83,0.91-1.69,1.59-2.77,1.88c-1.86,0.5-3.6,0.28-5.01-1.17c-0.77-0.78-1.13-1.8-1.15-2.86
		c-0.05-2.75-0.01-5.51-0.03-8.26c0-0.42,0.14-0.48,0.51-0.47c0.97,0.02,1.94,0.03,2.9,0c0.41-0.01,0.53,0.09,0.52,0.51
		c-0.02,2.53-0.02,5.06-0.01,7.59c0.01,1.32,0.54,2.25,2.05,2.35c1.07,0.07,1.89-0.54,2.52-1.38c0.33-0.43,0.47-0.91,0.46-1.47
		c-0.03-2.36,0-4.73-0.02-7.09c0-0.43,0.11-0.53,0.52-0.51c0.97,0.03,1.94,0.03,2.9,0c0.37-0.01,0.51,0.06,0.51,0.47
		c-0.02,3.98-0.01,7.97,0,11.95c0,0.33-0.06,0.45-0.42,0.44c-1.04-0.03-2.09-0.02-3.13,0c-0.29,0-0.39-0.08-0.37-0.37
		C116.69,270.44,116.67,269.95,116.67,269.32z"/>
	<path class="st1" d="M156.68,265.62c0.93-2.34,1.82-4.54,2.68-6.75c0.12-0.32,0.27-0.44,0.6-0.43c1.1,0.01,2.2,0.01,3.29,0
		c0.4-0.01,0.42,0.11,0.27,0.44c-0.9,1.95-1.79,3.91-2.67,5.87c-0.92,2.06-1.84,4.12-2.74,6.18c-0.18,0.41-0.4,0.68-0.89,0.58
		c-0.07-0.01-0.15,0-0.22,0c-1.46,0-1.45-0.01-2.04-1.34c-0.69-1.57-1.41-3.13-2.12-4.69c-0.97-2.13-1.96-4.26-2.93-6.4
		c-0.28-0.61-0.24-0.64,0.45-0.64c1.02,0,2.05,0.01,3.07-0.01c0.32-0.01,0.48,0.09,0.6,0.4c0.65,1.7,1.32,3.39,1.98,5.09
		C156.22,264.44,156.42,264.97,156.68,265.62z"/>
	<path class="st1" d="M89.18,267.86c0,0.86-0.01,1.68,0,2.5c0,0.23-0.06,0.31-0.29,0.41c-1.77,0.74-3.6,0.91-5.41,0.37
		c-1.5-0.44-2.41-1.57-2.67-3.14c-0.27-1.64-0.06-3.29-0.12-4.94c-0.02-0.52-0.02-1.04,0-1.56c0.01-0.28-0.05-0.41-0.36-0.38
		c-0.26,0.03-0.52,0.03-0.78,0c-0.22-0.03-0.54,0.17-0.63-0.14c-0.09-0.31-0.05-0.66,0.21-0.93c0.34-0.36,0.69-0.71,1.01-1.1
		c0.79-0.93,1.64-1.8,2.45-2.7c0.46-0.5,0.9-1.02,1.34-1.53c0.15-0.18,0.34-0.33,0.55-0.28c0.24,0.06,0.11,0.32,0.11,0.48
		c0.01,1.04,0.02,2.08,0,3.13c-0.01,0.32,0.09,0.41,0.4,0.4c1.23-0.02,2.46,0.02,3.69-0.02c0.44-0.01,0.53,0.12,0.51,0.53
		c-0.04,0.54-0.03,1.08,0,1.62c0.03,0.41-0.07,0.57-0.53,0.56c-1.21-0.04-2.42,0-3.63-0.02c-0.34-0.01-0.44,0.07-0.44,0.43
		c0.02,1.71-0.06,3.43,0.03,5.13c0.08,1.44,1.06,1.92,2.22,1.84C87.66,268.46,88.38,268.14,89.18,267.86z"/>
	<path class="st1" d="M131.2,267.9c1.01,0.42,2,0.71,3.01,0.87c0.86,0.14,1.73,0.16,2.58-0.06c0.36-0.09,0.61-0.34,0.66-0.73
		c0.06-0.37-0.18-0.6-0.46-0.79c-0.91-0.61-1.95-0.93-2.94-1.38c-1.16-0.53-2.25-1.11-2.81-2.35c-0.64-1.43-0.18-3.03,1-3.98
		c1.25-1,2.73-1.2,4.28-1.17c1.17,0.03,2.27,0.25,3.35,0.67c0.36,0.14,0.51,0.32,0.49,0.73c-0.04,0.7-0.01,1.41-0.01,2.17
		c-0.75-0.33-1.46-0.67-2.21-0.92c-0.89-0.29-1.8-0.38-2.72-0.28c-0.43,0.05-0.78,0.28-0.88,0.75c-0.1,0.46,0.21,0.63,0.56,0.81
		c1.06,0.56,2.2,0.91,3.27,1.45c1.32,0.67,2.35,1.6,2.6,3.13c0.18,1.11-0.05,2.13-0.8,3.01c-0.97,1.15-2.28,1.49-3.71,1.56
		c-1.53,0.07-3.03-0.07-4.5-0.54c-0.59-0.19-0.87-0.42-0.79-1.08C131.26,269.19,131.2,268.57,131.2,267.9z"/>
	<path class="st1" d="M202.3,262.14c0.29-0.52,0.59-1.04,0.88-1.57c0.43-0.77,0.99-1.42,1.74-1.87c1.16-0.7,2.31-0.42,3.4,0.24
		c0.72,0.44,0.7,0.45,0.46,1.24c-0.28,0.91-0.55,1.82-0.85,2.78c-0.4-0.34-0.84-0.51-1.26-0.71c-1.31-0.62-2.36-0.17-3.14,0.86
		c-0.53,0.71-0.88,1.54-1.27,2.33c-0.09,0.19-0.07,0.36-0.07,0.53c-0.01,1.62-0.01,3.24,0,4.86c0,0.36-0.09,0.47-0.46,0.46
		c-1.02-0.03-2.05-0.02-3.07,0c-0.32,0.01-0.4-0.1-0.4-0.41c0.01-4.02,0.01-8.04,0-12.06c0-0.33,0.1-0.4,0.41-0.39
		c1.04,0.02,2.09,0.02,3.13,0c0.34-0.01,0.39,0.12,0.39,0.42c-0.02,0.91-0.01,1.82,0,2.73c0,0.18,0.02,0.35,0.02,0.53
		C202.23,262.12,202.26,262.13,202.3,262.14z"/>
	<path class="st1" d="M124.16,264.85c0-1.97,0.01-3.94-0.01-5.91c0-0.37,0.06-0.52,0.47-0.5c1.02,0.03,2.05,0.02,3.07,0
		c0.28,0,0.38,0.06,0.38,0.36c-0.01,4.03-0.01,8.07,0,12.1c0,0.27-0.05,0.39-0.36,0.39c-1.06-0.02-2.12-0.02-3.18,0
		c-0.35,0.01-0.38-0.13-0.38-0.42C124.17,268.86,124.16,266.86,124.16,264.85z"/>
	<path class="st1" d="M128.3,254.22c-0.01,1.11-1.06,2.19-2.17,2.18c-1.33-0.02-2.25-1.28-2.21-2.27c0.04-0.95,0.91-2.08,2.2-2.13
		C127.22,251.95,128.3,253.09,128.3,254.22z"/>
	<path class="st3" d="M95.64,309.81c-1.67,0.08-3.34-0.04-4.95-0.65c-3.32-1.26-5.59-3.54-6.37-7.01c-0.6-2.68-0.09-5.24,1.63-7.5
		c1.71-2.25,3.96-3.61,6.72-4.03c2.59-0.38,5.17-0.25,7.56,0.94c2.23,1.11,3.89,2.84,4.84,5.16c1.06,2.6,0.97,5.23-0.38,7.69
		c-1.52,2.77-3.9,4.51-7.02,5.17C97.01,309.73,96.35,309.85,95.64,309.81z"/>
	<path class="st3" d="M138.08,296.86c-0.43,0.72-0.94,1.26-1.4,1.84c-1.13,1.41-2.28,2.8-3.41,4.21c-0.12,0.16-0.21,0.32,0,0.57
		c0.66,0.75,1.27,1.55,1.91,2.33c1.03,1.27,2.07,2.53,3.19,3.9c-1.61,0-3.07,0-4.53-0.01c-0.18,0-0.3-0.11-0.43-0.27
		c-1.58-1.94-3.18-3.87-4.76-5.8c-0.08-0.1-0.13-0.22-0.19-0.33c-0.05,0.03-0.11,0.07-0.16,0.1c0,1.33,0,2.66,0,3.99
		c0,0.61-0.02,1.23,0.01,1.84c0.01,0.37-0.12,0.49-0.49,0.48c-1-0.02-2.01-0.02-3.02,0c-0.43,0.01-0.54-0.14-0.54-0.55
		c0.02-2.1,0.01-4.2,0.01-6.31c0-3.87,0.01-7.74-0.01-11.61c0-0.53,0.15-0.67,0.67-0.65c0.91,0.04,1.83,0.04,2.74,0
		c0.54-0.03,0.65,0.17,0.64,0.67c-0.02,3.83-0.01,7.66-0.01,11.5c0,0.13,0,0.26,0,0.47c0.62-0.48,0.98-1.1,1.42-1.63
		c1.04-1.24,2.1-2.48,3.02-3.81c0.59-0.84,1.28-1.01,2.21-0.95C135.96,296.91,136.98,296.86,138.08,296.86z"/>
	<path class="st3" d="M178.7,298.84c0.67-0.79,1.33-1.39,2.17-1.72c2.03-0.81,4.62-0.49,6,1.61c0.42,0.64,0.6,1.38,0.67,2.15
		c0.22,2.73,0.04,5.46,0.12,8.18c0.02,0.52-0.14,0.68-0.66,0.66c-0.93-0.04-1.86-0.04-2.79,0c-0.49,0.02-0.59-0.16-0.59-0.61
		c0.02-2.55,0.01-5.1,0.01-7.65c0-1.3-0.7-2.15-1.95-2.21c-0.58-0.03-1.18,0.18-1.64,0.6c-0.42,0.39-0.84,0.78-1.16,1.26
		c-0.15,0.23-0.17,0.47-0.17,0.73c0.01,2.4-0.01,4.8,0.01,7.2c0,0.5-0.1,0.7-0.64,0.67c-0.97-0.05-1.94-0.02-2.9-0.01
		c-0.36,0.01-0.49-0.11-0.49-0.48c0.01-3.96,0.01-7.93,0-11.89c0-0.37,0.13-0.49,0.49-0.48c1.02,0.02,2.05,0.02,3.07,0
		c0.38-0.01,0.49,0.14,0.47,0.5C178.69,297.8,178.7,298.24,178.7,298.84z"/>
	<path class="st3" d="M165.4,306.73c0,0.45-0.05,0.85,0.01,1.23c0.1,0.63-0.16,0.95-0.73,1.18c-1.15,0.46-2.31,0.83-3.57,0.67
		c-0.62-0.08-1.21-0.26-1.45-0.96c-0.14-0.41-0.35-0.38-0.69-0.17c-1.53,0.96-3.19,1.47-5,1.01c-1.31-0.33-2.46-1.7-2.36-3.2
		c0.12-1.89,1.31-2.76,2.83-3.35c1.37-0.54,2.79-0.97,4.19-1.45c0.2-0.07,0.54-0.1,0.57-0.22c0.08-0.31,0.1-0.68,0.01-0.99
		c-0.2-0.67-0.75-1.06-1.4-1.15c-1.99-0.27-3.7,0.39-5.17,1.72c-0.1,0.09-0.19,0.3-0.34,0.24c-0.2-0.07-0.09-0.29-0.09-0.44
		c-0.01-0.73,0.01-1.45-0.01-2.18c-0.01-0.28,0.08-0.47,0.31-0.59c1.48-0.77,3.01-1.33,4.71-1.36c1.27-0.02,2.53,0,3.74,0.46
		c1.28,0.48,2.08,1.49,2.21,2.89c0.19,2.08,0.04,4.15,0.09,6.23c0.02,0.93,0.28,1.1,1.21,0.85
		C164.81,307.07,165.03,306.8,165.4,306.73z"/>
	<path class="st3" d="M199.14,303.9c-1.3,0-2.61,0.04-3.91-0.02c-0.59-0.03-0.6,0.26-0.54,0.65c0.24,1.53,1.28,2.59,2.82,2.94
		c2.05,0.47,3.84-0.21,5.53-1.27c0.12-0.08,0.21-0.24,0.38-0.16c0.18,0.08,0.08,0.26,0.09,0.4c0.01,0.39-0.03,0.78,0.01,1.17
		c0.05,0.52-0.21,0.78-0.63,1.01c-1.43,0.78-2.95,1.17-4.59,1.21c-1.41,0.03-2.77-0.07-4.08-0.63c-1.85-0.8-3.15-2.11-3.61-4.08
		c-0.57-2.47-0.19-4.78,1.72-6.62c1.16-1.12,2.58-1.7,4.22-1.76c1.28-0.05,2.52,0.07,3.67,0.68c1.82,0.96,2.91,2.44,3.3,4.48
		c0.11,0.58-0.02,1.16,0.17,1.74c0.09,0.27-0.23,0.26-0.43,0.26C201.89,303.9,200.52,303.9,199.14,303.9z"/>
	<path class="st3" d="M116.97,303.9c-1.3,0-2.61,0.03-3.91-0.01c-0.53-0.02-0.58,0.22-0.52,0.62c0.2,1.46,1.29,2.64,2.74,2.97
		c1.96,0.44,3.71-0.1,5.36-1.11c0.12-0.08,0.24-0.16,0.36-0.24c0.24-0.17,0.37-0.15,0.37,0.18c0,0.54,0,1.08,0,1.62
		c0,0.23-0.12,0.38-0.32,0.51c-1.03,0.68-2.17,1.05-3.37,1.28c-1.08,0.21-2.19,0.21-3.26,0.09c-3.04-0.33-5.52-1.99-6.07-5.23
		c-0.39-2.28,0.09-4.47,1.91-6.13c1.16-1.05,2.54-1.64,4.14-1.7c1.33-0.05,2.61,0.07,3.78,0.7c1.75,0.96,2.84,2.43,3.22,4.42
		c0.11,0.58,0,1.16,0.16,1.74c0.1,0.34-0.24,0.29-0.45,0.29C119.73,303.9,118.35,303.9,116.97,303.9z"/>
	<path class="st3" d="M143.72,300.48c0.61-0.93,1.12-1.86,1.86-2.66c1.05-1.14,2.58-1.45,3.92-0.6c1,0.64,0.99,0.65,0.6,1.84
		c-0.21,0.63-0.39,1.28-0.57,1.92c-0.08,0.29-0.19,0.37-0.47,0.17c-0.52-0.37-1.1-0.61-1.73-0.72c-0.78-0.14-1.4,0.15-1.93,0.67
		c-0.76,0.76-1.15,1.75-1.63,2.69c-0.08,0.16-0.05,0.33-0.05,0.49c0,1.64-0.01,3.28,0,4.91c0,0.38-0.1,0.53-0.5,0.53
		c-1.02-0.02-2.05-0.02-3.07,0c-0.34,0-0.46-0.11-0.46-0.45c0.01-3.98,0.01-7.96,0-11.95c0-0.34,0.12-0.46,0.46-0.45
		c1.04,0.01,2.09,0.01,3.13,0c0.35-0.01,0.45,0.14,0.44,0.47C143.71,298.38,143.72,299.43,143.72,300.48z"/>
	<path class="st3" d="M167.19,303.28c0-1.95,0.01-3.9-0.01-5.86c0-0.44,0.13-0.59,0.57-0.57c0.99,0.03,1.97,0.02,2.96,0
		c0.4-0.01,0.51,0.13,0.51,0.52c-0.01,3.94-0.01,7.88,0,11.82c0,0.39-0.12,0.52-0.51,0.51c-1-0.02-2.01-0.02-3.01,0
		c-0.4,0.01-0.51-0.13-0.51-0.52C167.2,307.22,167.19,305.25,167.19,303.28z"/>
	<path class="st3" d="M120.18,321.3c-0.79,1.15-1.92,1.39-3.12,1.4c-0.61,0.01-1.21-0.1-1.79-0.35c-1.46-0.63-2.17-1.88-1.91-3.45
		c0.28-1.73,1.51-2.94,3.06-3.06c1.16-0.09,2.24,0.05,3.02,1.03c0.68,0.86,0.77,1.84,0.36,2.84c-0.35,0.83-0.93,1.55-1.88,1.48
		c-0.68-0.05-1.33-0.03-2,0.04c-0.35,0.04-0.66-0.15-0.87-0.42c-0.55-0.7-0.45-1.47-0.14-2.21c0.3-0.71,0.76-1.28,1.63-1.33
		c0.09,0,0.19,0,0.28,0.01c0.44,0.05,0.82,0.42,1.33,0.1c0.27-0.17,0.39,0.1,0.34,0.4c-0.14,0.77-0.27,1.53-0.41,2.3
		c-0.03,0.16-0.09,0.35,0.09,0.45c0.19,0.11,0.36,0.01,0.5-0.12c0.69-0.6,1.05-1.35,0.89-2.28c-0.16-0.93-0.72-1.55-1.64-1.77
		c-1.18-0.28-2.31-0.19-3.21,0.73c-0.88,0.91-1.13,2.03-0.8,3.25c0.2,0.77,0.73,1.32,1.45,1.59c1.43,0.53,2.84,0.55,4.08-0.52
		C119.64,321.22,119.85,321.26,120.18,321.3z"/>
	<path class="st3" d="M168.08,292.73c0.11,1.24-0.85,2.12-2.07,2.2c-1.08,0.07-2.12-1.03-2.17-2.17c-0.05-1.09,1.07-2.24,2.17-2.24
		C167.17,290.52,168.08,291.5,168.08,292.73z"/>
	<path class="st3" d="M174.45,292.75c0.11,1.23-0.88,2.13-2.08,2.17c-1.11,0.04-2.13-1.05-2.15-2.18c-0.02-1.11,1.09-2.27,2.18-2.21
		C173.76,290.61,174.6,291.74,174.45,292.75z"/>
	<path class="st3" d="M124.95,318.21c0.2,0.01,0.24-0.12,0.32-0.19c0.41-0.35,0.87-0.41,1.35-0.21c0.47,0.19,0.64,0.61,0.66,1.07
		c0.03,0.65-0.01,1.3,0.02,1.95c0.02,0.48-0.33,0.3-0.54,0.31c-0.21,0.01-0.51,0.13-0.48-0.3c0.03-0.54,0.01-1.08,0-1.62
		c-0.01-0.41-0.06-0.81-0.58-0.86c-0.39-0.04-0.75,0.43-0.75,0.92c0,0.46-0.03,0.93,0.01,1.39c0.03,0.41-0.13,0.5-0.5,0.48
		c-0.33-0.01-0.54,0-0.53-0.45c0.03-1.39,0.03-2.79,0-4.18c-0.01-0.45,0.23-0.42,0.52-0.41c0.27,0.01,0.56-0.08,0.52,0.4
		C124.91,317.07,124.95,317.63,124.95,318.21z"/>
	<path class="st4" d="M130.61,320.65c-0.27,0.22-0.45,0.43-0.72,0.53c-0.78,0.28-1.54-0.21-1.58-1.05
		c-0.04-0.67,0.01-1.34-0.02-2.01c-0.01-0.47,0.32-0.31,0.54-0.32c0.22-0.01,0.5-0.1,0.49,0.31c-0.02,0.56,0,1.11-0.01,1.67
		c-0.01,0.41,0.07,0.76,0.57,0.79c0.39,0.03,0.75-0.35,0.77-0.79c0.02-0.54,0.03-1.08,0-1.62c-0.03-0.48,0.29-0.36,0.55-0.37
		c0.27-0.02,0.5-0.03,0.48,0.38c-0.03,0.83-0.01,1.67-0.01,2.51c0,0.24,0.06,0.47-0.34,0.47
		C130.69,321.17,130.68,321.19,130.61,320.65z"/>
	<path class="st4" d="M187.41,318.36c0.34-0.32,0.57-0.56,0.92-0.63c0.74-0.14,1.35,0.27,1.41,1.04c0.06,0.7,0.03,1.41,0.02,2.12
		c0,0.43-0.34,0.23-0.54,0.25c-0.19,0.01-0.48,0.13-0.47-0.26c0.01-0.58,0-1.15,0-1.73c0-0.4-0.08-0.76-0.58-0.79
		c-0.34-0.02-0.74,0.44-0.75,0.83c-0.01,0.54-0.03,1.08,0,1.62c0.03,0.45-0.28,0.34-0.52,0.34c-0.23,0-0.53,0.12-0.51-0.34
		c0.03-0.83,0.01-1.67,0.01-2.51c0-0.25-0.08-0.55,0.36-0.5C187.08,317.83,187.53,317.65,187.41,318.36z"/>
	<path class="st5" d="M176.78,318.35c0.31-0.26,0.49-0.47,0.76-0.57c0.76-0.29,1.53,0.18,1.6,1.04c0.05,0.68,0.02,1.37,0.02,2.06
		c0,0.48-0.37,0.23-0.57,0.26c-0.2,0.03-0.46,0.1-0.44-0.29c0.02-0.58,0.01-1.15,0-1.73c0-0.38-0.08-0.72-0.55-0.76
		c-0.34-0.03-0.77,0.4-0.78,0.79c-0.01,0.54-0.03,1.08,0,1.62c0.03,0.49-0.29,0.36-0.55,0.37c-0.26,0.01-0.5,0.05-0.48-0.37
		c0.04-0.83,0.02-1.67,0.01-2.51c0-0.29-0.01-0.52,0.39-0.47C176.49,317.84,176.92,317.65,176.78,318.35z"/>
	<path class="st4" d="M103.59,318.37c0.37-0.37,0.64-0.62,1.04-0.66c0.72-0.07,1.25,0.36,1.3,1.12c0.04,0.67,0.01,1.34,0.02,2.01
		c0,0.52-0.39,0.25-0.61,0.3c-0.23,0.05-0.43,0.03-0.41-0.32c0.03-0.56,0.01-1.11,0.01-1.67c0-0.4-0.08-0.76-0.58-0.78
		c-0.34-0.01-0.74,0.44-0.75,0.83c-0.01,0.54-0.03,1.08,0,1.62c0.03,0.46-0.29,0.33-0.52,0.33c-0.23,0-0.53,0.12-0.51-0.34
		c0.03-0.84,0.01-1.67,0.01-2.51c0-0.25-0.07-0.54,0.36-0.5C103.27,317.83,103.71,317.65,103.59,318.37z"/>
	<path class="st5" d="M155.38,317.7c1.13-0.01,1.95,0.71,1.98,1.74c0.02,1.06-0.8,1.82-1.97,1.81c-1.14-0.01-1.94-0.73-1.95-1.77
		C153.44,318.44,154.23,317.71,155.38,317.7z"/>
	<path class="st5" d="M143.39,317.71c1.16,0.04,1.92,0.77,1.89,1.82c-0.02,1.03-0.86,1.75-1.99,1.73c-1.17-0.02-1.95-0.78-1.92-1.85
		C141.41,318.38,142.25,317.67,143.39,317.71z"/>
	<path class="st5" d="M147.88,317.71c1.16,0.05,1.91,0.78,1.88,1.84c-0.03,1.03-0.88,1.74-2.01,1.71c-1.18-0.04-1.94-0.79-1.9-1.87
		C145.88,318.37,146.74,317.66,147.88,317.71z"/>
	<path class="st3" d="M169.81,318.77c-0.19-0.59,0.07-0.81,0.53-0.95c0.48-0.14,0.96-0.16,1.43-0.06c0.52,0.11,0.78,0.47,0.78,1
		c0,0.5,0,1,0,1.5c0,0.24,0.01,0.47,0.36,0.39c0.09-0.02,0.19-0.06,0.2,0.08c0.01,0.09,0.01,0.18-0.06,0.25
		c-0.25,0.25-1.11,0.34-1.35,0.08c-0.18-0.2-0.28-0.16-0.45-0.05c-0.09,0.06-0.19,0.11-0.3,0.15c-0.6,0.21-1.19,0-1.38-0.48
		c-0.18-0.46,0.09-0.94,0.7-1.21c0.29-0.13,0.59-0.2,0.88-0.33c0.15-0.06,0.42-0.03,0.38-0.31c-0.03-0.27-0.21-0.42-0.48-0.46
		C170.59,318.3,170.2,318.52,169.81,318.77z"/>
	<path class="st4" d="M110.87,317.71c1.16,0.04,1.92,0.77,1.89,1.83c-0.03,1.03-0.86,1.75-2,1.72c-1.18-0.03-1.95-0.78-1.91-1.86
		C108.89,318.37,109.74,317.67,110.87,317.71z"/>
	<path class="st5" d="M183.35,320.23c0.17,0.45-0.05,0.67-0.42,0.83c-1.25,0.54-2.64,0.03-2.95-1.1c-0.26-0.98,0.32-1.99,1.27-2.2
		c1.12-0.25,2.05,0.36,2.23,1.44c0.05,0.29-0.02,0.4-0.33,0.39c-0.61-0.02-1.23,0.01-1.84-0.01c-0.43-0.01-0.43,0.17-0.26,0.47
		c0.27,0.47,0.72,0.54,1.2,0.53C182.64,320.57,183.01,320.42,183.35,320.23z"/>
	<path class="st5" d="M161.33,320.25c0.14,0.39,0,0.62-0.36,0.79c-1.25,0.58-2.69,0.08-3-1.07c-0.27-0.98,0.31-1.99,1.26-2.21
		c1.12-0.25,2.05,0.35,2.24,1.43c0.05,0.28,0,0.41-0.32,0.4c-0.63-0.02-1.26,0-1.9-0.01c-0.34-0.01-0.38,0.14-0.24,0.41
		c0.27,0.53,0.75,0.6,1.28,0.58C160.66,320.56,160.99,320.39,161.33,320.25z"/>
	<path class="st4" d="M107.06,319.77c0-0.32,0-0.63,0-0.95c0-0.17,0.02-0.35-0.23-0.35c-0.27,0-0.2-0.21-0.21-0.36
		c-0.01-0.15-0.01-0.31,0.21-0.31c0.25,0.01,0.22-0.17,0.24-0.34c0.11-1.06,0.71-1.52,1.78-1.41c0.24,0.02,0.38,0.05,0.36,0.34
		c-0.02,0.24-0.01,0.43-0.34,0.42c-0.43-0.02-0.78,0.13-0.78,0.65c0,0.16-0.05,0.36,0.22,0.35c0.26-0.01,0.23,0.18,0.23,0.35
		c0,0.14,0.04,0.32-0.19,0.32c-0.3-0.01-0.25,0.2-0.25,0.38c0,0.63-0.03,1.26,0.01,1.89c0.03,0.45-0.21,0.42-0.51,0.41
		c-0.26-0.01-0.58,0.1-0.52-0.39C107.09,320.44,107.06,320.1,107.06,319.77z"/>
	<path class="st5" d="M139.31,319.58c0.17-0.49,0.33-0.98,0.5-1.46c0.09-0.27,0.91-0.48,1.09-0.28c0.09,0.1,0.02,0.21-0.02,0.31
		c-0.34,0.9-0.69,1.8-1.01,2.7c-0.1,0.28-0.27,0.31-0.51,0.3c-0.25-0.01-0.5,0.06-0.63-0.29c-0.34-0.9-0.71-1.79-1.09-2.67
		c-0.12-0.29-0.1-0.38,0.24-0.4c0.49-0.04,0.8,0.07,0.91,0.6c0.09,0.41,0.26,0.8,0.4,1.19
		C139.23,319.59,139.27,319.59,139.31,319.58z"/>
	<path class="st5" d="M122,316.68c0.03,0.13,0.04,0.15,0.04,0.17c0.03,0.89,0.03,0.9,0.91,0.94c0.28,0.01,0.33,0.12,0.33,0.37
		c0,0.25-0.1,0.3-0.33,0.32c-0.91,0.06-0.91,0.07-0.91,1c0,0.04,0,0.07,0,0.11c0,0.99,0.21,1.15,1.16,0.87
		c0.12,0.64,0.11,0.67-0.54,0.76c-1.14,0.15-1.63-0.28-1.64-1.43c0-0.32,0-0.63,0-0.95c0-0.11,0.05-0.28-0.06-0.31
		c-0.84-0.24-0.08-0.5,0.02-0.65C121.27,317.48,121.62,317.12,122,316.68z"/>
	<path class="st5" d="M136.86,318.52c-0.38-0.11-0.75-0.32-1.17-0.25c-0.15,0.02-0.31,0.05-0.33,0.24c-0.02,0.16,0.12,0.2,0.24,0.26
		c0.33,0.17,0.67,0.32,0.98,0.52c0.4,0.26,0.64,0.64,0.52,1.13c-0.11,0.49-0.47,0.73-0.96,0.79c-0.43,0.05-0.85,0.01-1.27-0.07
		c-0.31-0.06-0.36-0.24-0.3-0.47c0.07-0.29,0.26-0.06,0.4-0.05c0.29,0.02,0.58,0.13,0.88,0.06c0.17-0.04,0.35-0.06,0.37-0.27
		c0.02-0.17-0.12-0.26-0.26-0.33c-0.31-0.17-0.63-0.31-0.93-0.5c-0.39-0.24-0.68-0.56-0.57-1.05c0.11-0.49,0.49-0.72,0.96-0.8
		c0.32-0.06,0.63-0.02,0.94,0.02C136.81,317.81,137.05,318.02,136.86,318.52z"/>
	<path class="st6" d="M162.27,318.66c0-0.7,0.03-1.41-0.01-2.11c-0.02-0.43,0.19-0.44,0.5-0.42c0.27,0.02,0.54-0.08,0.53,0.39
		c-0.03,1.43-0.03,2.85,0,4.28c0.01,0.5-0.32,0.33-0.56,0.36c-0.27,0.02-0.5,0.03-0.47-0.38
		C162.3,320.07,162.27,319.36,162.27,318.66z"/>
	<path class="st6" d="M191.78,318.64c0,0.71-0.03,1.42,0.01,2.12c0.03,0.48-0.27,0.39-0.53,0.39c-0.25,0-0.51,0.08-0.5-0.36
		c0.03-1.43,0.03-2.87,0-4.3c-0.01-0.49,0.31-0.34,0.56-0.36c0.29-0.03,0.49-0.01,0.47,0.39
		C191.76,317.23,191.78,317.93,191.78,318.64z"/>
	<path class="st5" d="M151.55,318.87c0.32-0.44,0.43-0.82,0.76-1.03c0.31-0.19,0.61-0.17,0.88,0.03c0.31,0.23-0.02,0.46-0.04,0.69
		c-0.01,0.09-0.06,0.17-0.23,0.15c-0.91-0.12-1.37,0.3-1.38,1.24c0,0.22-0.02,0.45,0,0.67c0.05,0.41-0.07,0.54-0.51,0.54
		c-0.42,0-0.54-0.11-0.52-0.53c0.04-0.8,0.04-1.6,0-2.4c-0.02-0.47,0.22-0.45,0.54-0.45c0.31,0,0.56,0.01,0.49,0.43
		C151.52,318.38,151.55,318.55,151.55,318.87z"/>
	<path class="st5" d="M167.51,318.73c0.12-0.2,0.23-0.4,0.36-0.59c0.21-0.28,0.46-0.51,0.85-0.41c0.23,0.06,0.57,0.06,0.43,0.47
		c-0.09,0.26-0.05,0.63-0.57,0.44c-0.55-0.2-1.1,0.39-1.16,1.16c-0.02,0.24-0.04,0.49,0,0.72c0.1,0.59-0.2,0.67-0.69,0.64
		c-0.28-0.02-0.34-0.11-0.34-0.37c0.01-0.85,0.03-1.71-0.01-2.56c-0.02-0.48,0.24-0.43,0.55-0.44c0.33-0.01,0.55,0.04,0.48,0.45
		c-0.03,0.15,0,0.31,0,0.47C167.45,318.72,167.48,318.73,167.51,318.73z"/>
	<path class="st7" d="M165.85,321.09c-0.8,0.19-1.32,0.01-1.75-0.67c-0.65-1.02-0.66-0.95-0.05-1.94c0.42-0.68,0.93-0.8,1.68-0.62
		c-0.27,0.39-0.49,0.8-0.79,1.13c-0.3,0.34-0.24,0.58,0.02,0.9C165.27,320.26,165.53,320.67,165.85,321.09z"/>
	<path class="st5" d="M100.58,319.48c0-0.35,0.04-0.71-0.01-1.06c-0.09-0.6,0.22-0.67,0.7-0.62c0.23,0.02,0.33,0.07,0.33,0.32
		c-0.01,0.91-0.01,1.82,0,2.73c0.01,0.47-0.34,0.28-0.55,0.3c-0.23,0.03-0.49,0.07-0.47-0.33
		C100.6,320.37,100.58,319.92,100.58,319.48z"/>
	<path class="st5" d="M133.67,319.47c0,0.35-0.04,0.71,0.01,1.06c0.09,0.59-0.19,0.68-0.69,0.64c-0.27-0.02-0.34-0.11-0.34-0.37
		c0.01-0.87,0.03-1.75,0-2.62c-0.02-0.48,0.29-0.36,0.55-0.37c0.27-0.02,0.52-0.03,0.48,0.38
		C133.64,318.61,133.67,319.04,133.67,319.47z"/>
	<path class="st5" d="M173.78,319.44c0-0.37,0.03-0.75-0.01-1.11c-0.04-0.41,0.08-0.54,0.51-0.54c0.42,0,0.54,0.11,0.52,0.53
		c-0.04,0.82-0.03,1.64,0,2.45c0.02,0.47-0.28,0.38-0.54,0.38c-0.26,0.01-0.52,0.05-0.49-0.38
		C173.81,320.33,173.78,319.89,173.78,319.44z"/>
	<path class="st8" d="M184.92,321.25c-0.36-0.02-0.61-0.19-0.62-0.57c-0.02-0.37,0.21-0.59,0.57-0.61c0.37-0.02,0.61,0.2,0.63,0.56
		C185.52,320.99,185.29,321.2,184.92,321.25z"/>
	<path class="st8" d="M133.67,316.51c-0.08,0.3-0.23,0.5-0.53,0.49c-0.29-0.02-0.48-0.2-0.47-0.5c0.01-0.3,0.21-0.46,0.51-0.46
		C133.47,316.05,133.61,316.26,133.67,316.51z"/>
	<path class="st8" d="M101.09,316.03c0.29,0.04,0.49,0.2,0.48,0.49c-0.01,0.29-0.21,0.48-0.5,0.47c-0.29-0.01-0.49-0.19-0.48-0.49
		C100.59,316.2,100.8,316.06,101.09,316.03z"/>
	<path class="st8" d="M174.79,316.53c-0.07,0.28-0.22,0.48-0.52,0.47c-0.29-0.01-0.49-0.19-0.48-0.49c0.01-0.3,0.21-0.47,0.5-0.46
		C174.59,316.05,174.75,316.24,174.79,316.53z"/>
	<path class="st3" d="M168.53,264.8c-0.05-0.83,0.12-1.71,0.49-2.53c0.49-1.06,1.66-1.8,2.59-1.68c1.7,0.21,2.3,0.77,2.69,2.19
		c0.43,1.53,0.41,3.11-0.19,4.62c-0.55,1.4-1.47,1.82-2.8,1.65c-1.75-0.23-2.48-1.08-2.69-2.86
		C168.58,265.75,168.54,265.31,168.53,264.8z"/>
	<path class="st3" d="M185.18,264.8c-0.04-0.85,0.12-1.73,0.5-2.55c0.49-1.05,1.67-1.77,2.6-1.66c1.84,0.22,2.34,0.94,2.69,2.2
		c0.41,1.51,0.39,3.06-0.19,4.57c-0.54,1.4-1.46,1.72-2.82,1.73c-1.67,0.01-2.51-1.58-2.67-2.85
		C185.22,265.77,185.19,265.32,185.18,264.8z"/>
	<path class="st1" d="M100.92,300.13c0.09,1.76-0.47,3.27-1.77,4.47c-0.97,0.89-2.14,1.34-3.45,1.42c-1.03,0.07-2.04,0.02-3.04-0.31
		c-1.87-0.62-3.05-1.91-3.53-3.75c-0.4-1.52-0.35-3.08,0.35-4.56c0.77-1.63,2.08-2.62,3.8-2.97c1.93-0.39,3.82-0.25,5.49,0.99
		c1.08,0.8,1.72,1.89,2.04,3.19C100.94,299.11,100.9,299.62,100.92,300.13z"/>
	<path class="st1" d="M159.26,305.03c0,0.15,0.01,0.3,0,0.45c-0.05,0.5,0.21,1.09-0.42,1.44c-0.46,0.25-0.89,0.53-1.44,0.57
		c-1.06,0.07-1.57-0.24-1.74-1.21c-0.09-0.52,0.09-1,0.5-1.37c0.8-0.72,1.8-1.05,2.79-1.41c0.27-0.1,0.32,0.02,0.32,0.26
		C159.25,304.17,159.26,304.6,159.26,305.03z"/>
	<path class="st1" d="M197.4,301.78c-0.78,0-1.57-0.02-2.35,0.01c-0.35,0.01-0.43-0.13-0.37-0.42c0.26-1.26,0.83-2.1,2.24-2.27
		c1.54-0.19,2.51,0.41,2.94,1.43c0.51,1.19,0.48,1.24-0.79,1.24C198.52,301.78,197.96,301.78,197.4,301.78z"/>
	<path class="st1" d="M115.26,301.78c-0.76,0-1.53-0.03-2.29,0.01c-0.4,0.02-0.51-0.15-0.43-0.48c0.3-1.25,0.84-2.07,2.29-2.21
		c1.69-0.17,2.66,0.44,3.15,2.14c0.11,0.4,0.03,0.57-0.43,0.55C116.79,301.75,116.02,301.78,115.26,301.78z"/>
	<path class="st9" d="M115.44,319.65c0.02-0.55,0.16-1.07,0.47-1.52c0.21-0.3,0.49-0.5,0.9-0.41c0.41,0.09,0.58,0.4,0.62,0.77
		c0.09,0.73-0.12,1.4-0.56,1.99c-0.23,0.31-0.59,0.43-0.94,0.27C115.48,320.54,115.43,320.1,115.44,319.65z"/>
	<path class="st10" d="M156.35,319.46c0,0.79-0.35,1.26-0.94,1.26c-0.61,0-0.96-0.44-0.96-1.24c0-0.77,0.38-1.25,0.97-1.24
		C156,318.25,156.35,318.7,156.35,319.46z"/>
	<path class="st11" d="M142.37,319.49c0.02-0.41,0.07-0.8,0.41-1.06c0.5-0.38,1.19-0.16,1.39,0.44c0.11,0.34,0.12,0.69,0.05,1.04
		c-0.1,0.5-0.38,0.8-0.9,0.81c-0.5,0.01-0.82-0.3-0.92-0.86C142.38,319.73,142.38,319.6,142.37,319.49z"/>
	<path class="st11" d="M146.84,319.49c0.02-0.41,0.07-0.8,0.41-1.06c0.5-0.38,1.19-0.16,1.39,0.43c0.12,0.34,0.12,0.69,0.05,1.04
		c-0.1,0.5-0.38,0.8-0.9,0.82c-0.5,0.02-0.82-0.29-0.93-0.85C146.85,319.73,146.85,319.6,146.84,319.49z"/>
	<path class="st12" d="M171.53,320.01c0.1,0.5-0.19,0.64-0.55,0.68c-0.25,0.03-0.43-0.1-0.44-0.37c-0.01-0.27,0.5-0.69,0.83-0.68
		C171.74,319.65,171.4,319.95,171.53,320.01z"/>
	<path class="st11" d="M109.85,319.54c0.01-0.52,0.08-0.98,0.57-1.22c0.5-0.25,1.07,0.02,1.24,0.55c0.16,0.5,0.14,1-0.12,1.45
		c-0.23,0.39-0.62,0.44-1.02,0.33C109.92,320.49,109.9,319.99,109.85,319.54z"/>
	<path class="st13" d="M181.74,319.15c-0.11,0-0.23,0.01-0.33,0c-0.15-0.02-0.39,0.1-0.44-0.1c-0.05-0.2,0.09-0.4,0.26-0.52
		c0.29-0.21,0.63-0.21,0.96-0.08c0.25,0.09,0.42,0.33,0.39,0.56c-0.03,0.28-0.32,0.11-0.5,0.15
		C181.97,319.17,181.85,319.15,181.74,319.15z"/>
	<path class="st13" d="M159.72,319.15c-0.11,0-0.22,0.01-0.33,0c-0.15-0.02-0.39,0.1-0.44-0.1c-0.05-0.2,0.09-0.4,0.26-0.52
		c0.29-0.21,0.63-0.21,0.96-0.08c0.25,0.09,0.42,0.33,0.39,0.56c-0.03,0.28-0.32,0.11-0.5,0.15
		C159.95,319.17,159.83,319.15,159.72,319.15z"/>
</g>
</svg>
