<?xml version="1.0" encoding="utf-8"?>
<!-- Generator: Adobe Illustrator 25.2.1, SVG Export Plug-In . SVG Version: 6.00 Build 0)  -->
<svg version="1.1" id="Layer_1" xmlns="http://www.w3.org/2000/svg" xmlns:xlink="http://www.w3.org/1999/xlink" x="0px" y="0px"
	 viewBox="0 0 288 560" style="enable-background:new 0 0 288 560;" xml:space="preserve">
<style type="text/css">
	.st0{fill:#015ABA;}
	.st1{fill:#FDD401;}
	.st2{fill:#FEFEFE;}
	.st3{fill:#015BBA;}
	.st4{fill:#025BBA;}
	.st5{fill:#025BB9;}
	.st6{fill:#015BB9;}
	.st7{fill:#035CB8;}
	.st8{fill:#055DB7;}
	.st9{fill:#FCD401;}
	.st10{fill:#FCD402;}
	.st11{fill:#FCD302;}
	.st12{fill:#F9D204;}
	.st13{fill:#EDCC0C;}
</style>
<g>
	<path class="st0" d="M8.14,64.98c0-17.53,0-35.06-0.01-52.6c0-0.5,0.11-0.61,0.61-0.61c53.03,0.01,106.06,0.01,159.09,0.01
		c0.12,0.23,0.06,0.48,0.06,0.72c0,17.26,0,34.51,0,51.77c0,0.24,0.04,0.49-0.04,0.73c-0.16,0.22-0.4,0.25-0.65,0.26
		c-0.35,0.02-0.71,0.01-1.06,0.01c-52.1,0-104.19,0-156.29-0.01C9.28,65.26,8.64,65.47,8.14,64.98z"/>
	<path class="st1" d="M8.14,64.98c53.22,0,106.45,0,159.67,0c0.17,0.22,0.08,0.47,0.08,0.71c0,17.24,0,34.49,0,51.73
		c0,0.91,0.1,0.82-0.81,0.82c-39.59,0-79.18,0-118.77,0c-13.13,0-26.26,0-39.39,0c-0.26,0-0.53,0.06-0.79-0.06
		C8.14,100.44,8.14,82.71,8.14,64.98z"/>
	<path class="st2" d="M8.14,118.17c52.89,0,105.79,0,158.68,0c0.2,0,0.4-0.02,0.6,0c0.31,0.03,0.46-0.09,0.42-0.41
		c-0.01-0.11,0-0.22,0-0.33c0-17.26,0-34.53,0-51.79c0-0.22-0.01-0.44-0.02-0.66c0.01-0.27,0.02-0.53,0.02-0.8
		c0-17.47,0-34.93,0-52.4c0.04,0.03,0.14-0.07,0.13,0.07c-0.01,0.18,0,0.35,0,0.53c0,35.11,0,70.22,0.01,105.32
		c0,0.5-0.11,0.61-0.61,0.61c-52.88-0.01-105.75-0.01-158.63-0.02C8.55,118.29,8.29,118.45,8.14,118.17z"/>
	<path class="st1" d="M30.1,40.83c0.88-0.87,1.63-1.69,2.68-2.13c2.13-0.9,4.59-0.66,6.38,0.99c1.11,1.02,1.56,2.43,1.58,3.92
		c0.03,3.17,0,6.34,0.02,9.5c0,0.47-0.13,0.59-0.59,0.58c-1.17-0.03-2.35-0.04-3.52,0c-0.49,0.02-0.57-0.15-0.57-0.6
		c0.02-2.79,0.02-5.58,0-8.37c-0.01-0.71-0.18-1.38-0.52-2.04c-0.51-0.97-2.13-1.22-3.01-0.86c-1.01,0.41-1.72,1.16-2.36,2
		c-0.16,0.2-0.08,0.42-0.08,0.63c-0.01,2.86-0.02,5.72,0.01,8.57c0,0.49-0.08,0.69-0.63,0.67c-1.13-0.05-2.26-0.04-3.39,0
		c-0.51,0.02-0.66-0.11-0.66-0.64c0.02-5.94,0.01-11.87,0.01-17.81c0-1.24,0.02-2.48-0.01-3.72c-0.01-0.45,0.09-0.61,0.57-0.59
		c1.17,0.04,2.35,0.04,3.52,0c0.47-0.01,0.59,0.11,0.58,0.58C30.09,34.56,30.1,37.61,30.1,40.83z"/>
	<path class="st1" d="M112.21,45.94c-0.07-1.91,0.58-3.7,1.94-5.12c1.29-1.34,2.92-2.18,4.82-2.45c1.84-0.26,3.66-0.26,5.42,0.42
		c2.77,1.07,4.62,2.9,5.01,6.02c0.31,2.44-0.07,4.68-1.82,6.44c-1.62,1.62-3.64,2.49-5.99,2.58c-1.81,0.06-3.58-0.08-5.2-0.95
		c-2.21-1.17-3.68-2.93-4.04-5.48c-0.03-0.24-0.18-0.44-0.14-0.7C112.23,46.48,112.21,46.26,112.21,45.94z"/>
	<path class="st1" d="M149.34,46.18c-0.04,1.91-0.52,3.83-2.11,5.25c-1.65,1.47-3.6,2.33-5.88,2.4c-1.82,0.05-3.59-0.1-5.19-0.97
		c-2.17-1.17-3.61-2.92-4-5.45c-0.32-2.08-0.04-4.02,1.19-5.76c1.33-1.88,3.19-2.9,5.44-3.27c1.84-0.31,3.66-0.27,5.41,0.41
		c2.77,1.07,4.66,2.89,5.03,6.01C149.27,45.2,149.33,45.61,149.34,46.18z"/>
	<path class="st1" d="M55.52,51.34c-0.99,1.09-2.01,1.89-3.3,2.23c-2.22,0.6-4.29,0.33-5.97-1.39c-0.91-0.93-1.34-2.14-1.36-3.41
		c-0.06-3.28-0.01-6.56-0.03-9.84c0-0.49,0.16-0.57,0.6-0.56c1.15,0.03,2.31,0.04,3.46,0c0.49-0.02,0.63,0.11,0.62,0.61
		c-0.03,3.01-0.03,6.03-0.01,9.04c0.01,1.57,0.64,2.68,2.44,2.8c1.28,0.08,2.25-0.65,3-1.65c0.39-0.52,0.56-1.08,0.55-1.75
		c-0.04-2.81,0-5.63-0.03-8.44c-0.01-0.51,0.13-0.63,0.62-0.61c1.15,0.04,2.31,0.03,3.46,0c0.44-0.01,0.6,0.07,0.6,0.56
		c-0.02,4.74-0.02,9.48,0,14.23c0,0.39-0.07,0.54-0.5,0.53c-1.24-0.03-2.48-0.02-3.73,0c-0.35,0.01-0.46-0.09-0.45-0.45
		C55.54,52.66,55.52,52.08,55.52,51.34z"/>
	<path class="st1" d="M103.15,46.93c1.11-2.79,2.17-5.4,3.19-8.04c0.15-0.38,0.33-0.52,0.71-0.52c1.31,0.01,2.62,0.02,3.92,0
		c0.48-0.01,0.5,0.14,0.32,0.53c-1.07,2.32-2.13,4.65-3.18,6.99c-1.1,2.45-2.19,4.9-3.26,7.36c-0.21,0.49-0.48,0.81-1.07,0.69
		c-0.08-0.02-0.18,0-0.27,0c-1.74,0-1.73-0.01-2.42-1.59c-0.82-1.87-1.67-3.72-2.52-5.58c-1.16-2.54-2.33-5.08-3.48-7.62
		c-0.33-0.72-0.28-0.76,0.54-0.76c1.22,0,2.44,0.02,3.66-0.01c0.39-0.01,0.57,0.11,0.71,0.47c0.77,2.02,1.57,4.04,2.36,6.06
		C102.6,45.52,102.85,46.15,103.15,46.93z"/>
	<path class="st1" d="M22.78,49.59c0,1.02-0.01,2,0.01,2.97c0,0.28-0.07,0.37-0.35,0.49c-2.1,0.89-4.29,1.08-6.45,0.44
		c-1.79-0.53-2.87-1.88-3.18-3.74c-0.32-1.95-0.07-3.92-0.14-5.88c-0.02-0.62-0.02-1.24,0-1.86c0.01-0.33-0.06-0.49-0.43-0.46
		c-0.31,0.03-0.62,0.03-0.93,0c-0.26-0.03-0.64,0.2-0.75-0.16c-0.11-0.37-0.06-0.78,0.25-1.1c0.41-0.43,0.82-0.85,1.2-1.3
		c0.94-1.1,1.95-2.14,2.92-3.22c0.54-0.6,1.07-1.21,1.6-1.83c0.18-0.21,0.4-0.4,0.66-0.33c0.29,0.07,0.13,0.38,0.13,0.57
		c0.02,1.24,0.02,2.48,0,3.72c-0.01,0.38,0.11,0.48,0.48,0.48c1.46-0.02,2.93,0.02,4.39-0.02c0.52-0.01,0.64,0.15,0.61,0.63
		c-0.04,0.64-0.04,1.29,0,1.93c0.03,0.49-0.08,0.68-0.63,0.67c-1.44-0.04-2.88,0-4.32-0.02c-0.4-0.01-0.53,0.09-0.52,0.51
		c0.02,2.04-0.07,4.08,0.04,6.11c0.09,1.71,1.26,2.28,2.64,2.19C20.97,50.31,21.82,49.92,22.78,49.59z"/>
	<path class="st1" d="M72.82,49.64c1.21,0.5,2.38,0.85,3.59,1.04c1.03,0.16,2.06,0.19,3.07-0.08c0.42-0.11,0.72-0.41,0.79-0.86
		c0.07-0.44-0.21-0.71-0.54-0.94c-1.08-0.72-2.33-1.11-3.5-1.64c-1.38-0.63-2.68-1.32-3.34-2.8c-0.76-1.7-0.22-3.61,1.19-4.74
		c1.49-1.19,3.25-1.43,5.1-1.39c1.39,0.03,2.7,0.29,3.99,0.8c0.43,0.17,0.61,0.38,0.59,0.86c-0.04,0.84-0.01,1.68-0.01,2.58
		c-0.89-0.39-1.74-0.8-2.63-1.09c-1.06-0.35-2.14-0.45-3.24-0.33c-0.51,0.06-0.93,0.34-1.05,0.89c-0.12,0.55,0.25,0.75,0.67,0.97
		c1.26,0.66,2.62,1.09,3.89,1.73c1.57,0.79,2.79,1.91,3.1,3.73c0.22,1.32-0.06,2.54-0.95,3.59c-1.16,1.36-2.72,1.77-4.42,1.85
		c-1.82,0.08-3.6-0.08-5.36-0.64c-0.7-0.23-1.04-0.5-0.94-1.28C72.89,51.17,72.82,50.44,72.82,49.64z"/>
	<path class="st1" d="M157.47,42.78c0.35-0.62,0.7-1.24,1.04-1.86c0.51-0.91,1.18-1.69,2.07-2.23c1.39-0.83,2.75-0.5,4.05,0.29
		c0.85,0.52,0.84,0.53,0.54,1.48c-0.34,1.08-0.66,2.16-1.01,3.31c-0.48-0.4-1-0.61-1.5-0.85c-1.56-0.74-2.81-0.2-3.73,1.03
		c-0.64,0.85-1.04,1.83-1.52,2.78c-0.11,0.22-0.09,0.43-0.09,0.64c-0.01,1.93-0.02,3.85,0.01,5.78c0.01,0.43-0.11,0.56-0.55,0.55
		c-1.22-0.03-2.44-0.03-3.66,0c-0.39,0.01-0.47-0.12-0.47-0.49c0.01-4.78,0.01-9.57,0-14.35c0-0.39,0.12-0.48,0.49-0.47
		c1.24,0.02,2.48,0.02,3.72,0c0.4-0.01,0.47,0.14,0.46,0.5c-0.02,1.09-0.01,2.17-0.01,3.26c0,0.21,0.02,0.42,0.03,0.63
		C157.39,42.76,157.43,42.77,157.47,42.78z"/>
	<path class="st1" d="M64.43,46c0-2.35,0.01-4.69-0.01-7.04c0-0.44,0.07-0.61,0.57-0.6c1.22,0.04,2.44,0.02,3.66,0.01
		c0.34,0,0.46,0.07,0.46,0.43c-0.01,4.8-0.01,9.61,0,14.41c0,0.33-0.06,0.47-0.43,0.46c-1.26-0.02-2.53-0.03-3.79,0
		c-0.41,0.01-0.46-0.16-0.45-0.5C64.44,50.79,64.43,48.4,64.43,46z"/>
	<path class="st1" d="M69.36,33.35c-0.01,1.32-1.26,2.61-2.58,2.6c-1.59-0.02-2.68-1.52-2.63-2.71c0.04-1.14,1.08-2.47,2.62-2.54
		C68.07,30.65,69.37,32,69.36,33.35z"/>
	<path class="st3" d="M30.47,99.55c-1.99,0.1-3.98-0.05-5.9-0.77c-3.96-1.49-6.65-4.21-7.58-8.35c-0.72-3.2-0.11-6.24,1.95-8.93
		c2.04-2.68,4.71-4.3,8.01-4.79c3.08-0.46,6.16-0.3,9.01,1.12c2.65,1.32,4.63,3.38,5.76,6.14c1.27,3.1,1.16,6.23-0.45,9.16
		c-1.81,3.3-4.64,5.37-8.36,6.16C32.11,99.45,31.31,99.59,30.47,99.55z"/>
	<path class="st3" d="M81,84.13c-0.51,0.85-1.11,1.5-1.66,2.19c-1.35,1.68-2.72,3.33-4.06,5.01c-0.15,0.18-0.26,0.39,0,0.67
		c0.79,0.89,1.52,1.85,2.27,2.77c1.23,1.51,2.46,3.01,3.8,4.65c-1.92,0-3.66,0.01-5.39-0.01c-0.21,0-0.36-0.14-0.51-0.32
		c-1.88-2.31-3.78-4.6-5.67-6.91c-0.1-0.12-0.15-0.26-0.22-0.4c-0.06,0.04-0.13,0.08-0.19,0.12c0,1.58,0,3.17,0,4.75
		c0,0.73-0.02,1.46,0.01,2.19c0.02,0.44-0.15,0.58-0.58,0.58c-1.2-0.02-2.39-0.03-3.59,0c-0.51,0.01-0.64-0.17-0.64-0.66
		c0.02-2.5,0.01-5.01,0.01-7.51c0-4.61,0.01-9.21-0.01-13.82c0-0.63,0.18-0.8,0.79-0.78c1.08,0.05,2.17,0.05,3.26,0
		c0.65-0.03,0.77,0.21,0.77,0.8c-0.02,4.56-0.01,9.13-0.01,13.69c0,0.15,0,0.31,0,0.57c0.73-0.57,1.16-1.31,1.69-1.94
		c1.24-1.48,2.5-2.95,3.6-4.54c0.7-1,1.53-1.2,2.63-1.13C78.48,84.18,79.69,84.13,81,84.13z"/>
	<path class="st3" d="M129.38,86.48c0.8-0.94,1.59-1.65,2.58-2.04c2.42-0.96,5.5-0.58,7.14,1.91c0.5,0.76,0.72,1.64,0.79,2.56
		c0.27,3.25,0.04,6.5,0.14,9.74c0.02,0.62-0.17,0.81-0.79,0.78c-1.11-0.05-2.22-0.05-3.33,0c-0.58,0.02-0.71-0.19-0.7-0.73
		c0.02-3.04,0.01-6.07,0.01-9.11c0-1.55-0.83-2.56-2.33-2.63c-0.69-0.03-1.41,0.21-1.95,0.72c-0.5,0.46-1,0.92-1.38,1.5
		c-0.18,0.27-0.2,0.56-0.2,0.87c0.01,2.86-0.01,5.72,0.02,8.58c0.01,0.59-0.12,0.83-0.77,0.8c-1.15-0.05-2.31-0.03-3.46-0.01
		c-0.43,0.01-0.59-0.13-0.58-0.57c0.01-4.72,0.01-9.44,0-14.16c0-0.44,0.15-0.58,0.58-0.58c1.22,0.02,2.44,0.02,3.66,0
		c0.45-0.01,0.58,0.17,0.56,0.59C129.36,85.24,129.38,85.77,129.38,86.48z"/>
	<path class="st3" d="M113.54,95.87c0,0.53-0.06,1.01,0.01,1.46c0.11,0.75-0.19,1.13-0.87,1.41c-1.37,0.55-2.75,0.99-4.25,0.8
		c-0.74-0.09-1.45-0.31-1.72-1.14c-0.16-0.49-0.41-0.46-0.82-0.2c-1.83,1.15-3.8,1.75-5.95,1.21c-1.57-0.4-2.93-2.02-2.81-3.82
		c0.14-2.26,1.56-3.28,3.37-3.99c1.64-0.64,3.32-1.15,4.99-1.72c0.24-0.08,0.65-0.12,0.68-0.26c0.09-0.37,0.12-0.81,0.01-1.18
		c-0.24-0.8-0.9-1.26-1.67-1.37c-2.37-0.32-4.4,0.47-6.15,2.05c-0.12,0.11-0.22,0.35-0.4,0.29c-0.24-0.08-0.11-0.35-0.11-0.52
		c-0.02-0.86,0.01-1.73-0.01-2.59c-0.01-0.33,0.1-0.56,0.37-0.7c1.76-0.92,3.58-1.58,5.61-1.62c1.52-0.03,3.01,0,4.45,0.54
		c1.53,0.57,2.48,1.77,2.63,3.44c0.23,2.47,0.05,4.94,0.11,7.41c0.03,1.11,0.34,1.31,1.44,1.01
		C112.84,96.28,113.1,95.96,113.54,95.87z"/>
	<path class="st3" d="M153.71,92.5c-1.55,0-3.11,0.05-4.65-0.02c-0.71-0.03-0.72,0.31-0.64,0.77c0.29,1.82,1.53,3.09,3.35,3.51
		c2.45,0.56,4.57-0.25,6.59-1.52c0.14-0.09,0.25-0.29,0.45-0.19c0.21,0.1,0.1,0.31,0.1,0.47c0.02,0.46-0.03,0.93,0.02,1.39
		c0.06,0.62-0.24,0.93-0.75,1.21c-1.71,0.92-3.51,1.39-5.46,1.44c-1.67,0.04-3.3-0.08-4.86-0.75c-2.21-0.95-3.76-2.51-4.3-4.86
		c-0.68-2.95-0.22-5.69,2.05-7.88c1.38-1.33,3.08-2.02,5.03-2.09c1.53-0.06,3,0.08,4.37,0.81c2.16,1.15,3.46,2.91,3.93,5.33
		c0.13,0.69-0.02,1.39,0.2,2.07c0.1,0.32-0.28,0.31-0.52,0.31C156.99,92.5,155.35,92.5,153.71,92.5z"/>
	<path class="st3" d="M55.87,92.5c-1.55,0-3.1,0.04-4.65-0.02c-0.63-0.02-0.69,0.26-0.62,0.73c0.24,1.73,1.54,3.15,3.26,3.54
		c2.33,0.53,4.42-0.11,6.39-1.33c0.15-0.09,0.29-0.19,0.43-0.29c0.28-0.2,0.44-0.18,0.44,0.21c0,0.64,0,1.28,0,1.93
		c0,0.28-0.14,0.45-0.39,0.61c-1.23,0.81-2.59,1.25-4.01,1.52c-1.29,0.25-2.6,0.25-3.89,0.11c-3.61-0.39-6.58-2.37-7.23-6.22
		c-0.46-2.72,0.1-5.33,2.28-7.3c1.38-1.25,3.02-1.95,4.93-2.03c1.58-0.06,3.11,0.08,4.5,0.84c2.09,1.14,3.38,2.89,3.84,5.27
		c0.13,0.69,0,1.39,0.2,2.07c0.11,0.4-0.29,0.34-0.54,0.35C59.15,92.51,57.51,92.5,55.87,92.5z"/>
	<path class="st3" d="M87.72,88.44c0.73-1.11,1.33-2.21,2.21-3.17c1.25-1.36,3.07-1.73,4.66-0.71c1.19,0.76,1.18,0.77,0.72,2.19
		c-0.24,0.75-0.46,1.52-0.68,2.28c-0.1,0.34-0.22,0.44-0.56,0.21c-0.62-0.44-1.31-0.72-2.06-0.86c-0.93-0.17-1.67,0.17-2.3,0.8
		c-0.9,0.91-1.37,2.09-1.94,3.2c-0.1,0.19-0.06,0.39-0.06,0.58c-0.01,1.95-0.01,3.9,0,5.85c0,0.45-0.12,0.64-0.6,0.63
		c-1.22-0.03-2.44-0.02-3.66,0c-0.4,0.01-0.55-0.13-0.55-0.54c0.01-4.74,0.01-9.48,0-14.22c0-0.41,0.15-0.54,0.55-0.54
		c1.24,0.02,2.48,0.02,3.72,0c0.42-0.01,0.53,0.17,0.53,0.56C87.71,85.93,87.72,87.18,87.72,88.44z"/>
	<path class="st3" d="M115.67,91.77c0-2.32,0.01-4.65-0.01-6.97c-0.01-0.53,0.15-0.7,0.68-0.68c1.17,0.04,2.35,0.03,3.52,0
		c0.47-0.01,0.61,0.16,0.61,0.62c-0.01,4.69-0.01,9.39,0,14.08c0,0.46-0.14,0.62-0.61,0.61c-1.2-0.03-2.39-0.03-3.59,0
		c-0.47,0.01-0.61-0.16-0.61-0.62C115.68,96.46,115.67,94.12,115.67,91.77z"/>
	<path class="st3" d="M59.69,113.23c-0.94,1.38-2.28,1.65-3.71,1.66c-0.73,0.01-1.44-0.12-2.13-0.42c-1.74-0.75-2.58-2.24-2.28-4.11
		c0.33-2.06,1.8-3.5,3.64-3.64c1.39-0.1,2.67,0.06,3.6,1.23c0.81,1.03,0.92,2.19,0.43,3.38c-0.41,0.99-1.11,1.85-2.24,1.76
		c-0.81-0.06-1.58-0.04-2.38,0.05c-0.41,0.04-0.78-0.18-1.04-0.5c-0.65-0.83-0.54-1.75-0.16-2.64c0.36-0.85,0.9-1.53,1.94-1.58
		c0.11-0.01,0.22,0,0.33,0.01c0.52,0.06,0.97,0.5,1.58,0.12c0.33-0.2,0.47,0.12,0.4,0.48c-0.17,0.91-0.32,1.83-0.48,2.74
		c-0.03,0.19-0.11,0.41,0.11,0.54c0.23,0.14,0.43,0.01,0.6-0.14c0.82-0.72,1.25-1.61,1.06-2.71c-0.19-1.1-0.86-1.85-1.95-2.11
		c-1.4-0.34-2.76-0.22-3.82,0.87c-1.05,1.09-1.34,2.41-0.96,3.87c0.24,0.92,0.87,1.57,1.73,1.89c1.71,0.63,3.38,0.66,4.86-0.62
		C59.05,113.14,59.3,113.18,59.69,113.23z"/>
	<path class="st3" d="M116.73,79.21c0.13,1.48-1.01,2.53-2.47,2.61c-1.29,0.08-2.52-1.23-2.58-2.59c-0.06-1.3,1.27-2.67,2.59-2.67
		C115.64,76.57,116.73,77.75,116.73,79.21z"/>
	<path class="st3" d="M124.32,79.23c0.13,1.47-1.05,2.53-2.48,2.58c-1.32,0.05-2.54-1.25-2.57-2.6c-0.03-1.33,1.3-2.7,2.6-2.63
		C123.5,76.68,124.49,78.03,124.32,79.23z"/>
	<path class="st3" d="M65.37,109.55c0.24,0.01,0.29-0.14,0.38-0.22c0.49-0.41,1.03-0.49,1.61-0.25c0.56,0.23,0.77,0.72,0.79,1.28
		c0.03,0.77-0.01,1.55,0.02,2.32c0.02,0.57-0.39,0.35-0.64,0.37c-0.25,0.01-0.6,0.15-0.58-0.36c0.03-0.64,0.02-1.28,0-1.92
		c-0.01-0.48-0.07-0.97-0.69-1.02c-0.46-0.04-0.89,0.51-0.89,1.1c0,0.55-0.04,1.11,0.01,1.66c0.04,0.49-0.16,0.59-0.6,0.57
		c-0.39-0.02-0.64,0-0.63-0.54c0.04-1.66,0.04-3.32,0-4.97c-0.01-0.54,0.27-0.49,0.61-0.48c0.32,0.01,0.67-0.1,0.62,0.47
		C65.33,108.19,65.37,108.86,65.37,109.55z"/>
	<path class="st4" d="M72.11,112.45c-0.32,0.26-0.54,0.52-0.86,0.63c-0.92,0.33-1.83-0.25-1.88-1.25c-0.04-0.79,0.01-1.59-0.02-2.39
		c-0.02-0.55,0.38-0.37,0.64-0.38c0.26-0.01,0.6-0.12,0.58,0.37c-0.03,0.66,0,1.33-0.01,1.99c-0.01,0.49,0.08,0.9,0.67,0.94
		c0.46,0.03,0.9-0.42,0.91-0.95c0.02-0.64,0.04-1.28,0-1.92c-0.04-0.58,0.35-0.43,0.65-0.44c0.33-0.02,0.59-0.03,0.57,0.46
		c-0.04,0.99-0.01,1.99-0.01,2.99c0,0.29,0.07,0.56-0.4,0.56C72.2,113.07,72.2,113.1,72.11,112.45z"/>
	<path class="st4" d="M139.74,109.73c0.41-0.38,0.68-0.67,1.1-0.75c0.88-0.16,1.6,0.32,1.68,1.24c0.07,0.83,0.03,1.68,0.03,2.52
		c0,0.51-0.41,0.28-0.64,0.3c-0.22,0.02-0.57,0.15-0.56-0.31c0.01-0.69,0-1.37,0-2.06c0-0.48-0.1-0.91-0.69-0.94
		c-0.4-0.02-0.89,0.52-0.89,0.98c-0.01,0.64-0.03,1.28,0.01,1.92c0.03,0.54-0.33,0.41-0.61,0.41c-0.28,0-0.63,0.14-0.61-0.41
		c0.04-0.99,0.01-1.99,0.01-2.99c0-0.3-0.1-0.65,0.42-0.6C139.36,109.1,139.89,108.88,139.74,109.73z"/>
	<path class="st5" d="M127.09,109.72c0.37-0.31,0.59-0.56,0.9-0.68c0.9-0.35,1.82,0.22,1.9,1.23c0.06,0.81,0.02,1.64,0.02,2.46
		c0,0.57-0.44,0.28-0.68,0.32c-0.23,0.04-0.55,0.12-0.53-0.34c0.03-0.68,0.01-1.37,0-2.06c0-0.45-0.1-0.86-0.65-0.9
		c-0.41-0.03-0.92,0.48-0.93,0.95c-0.02,0.64-0.04,1.29,0.01,1.92c0.04,0.58-0.35,0.43-0.65,0.44c-0.31,0.01-0.6,0.06-0.58-0.45
		c0.04-0.99,0.02-1.99,0.01-2.99c0-0.34-0.01-0.62,0.47-0.56C126.74,109.1,127.26,108.88,127.09,109.72z"/>
	<path class="st4" d="M39.94,109.74c0.44-0.44,0.76-0.74,1.24-0.78c0.86-0.08,1.49,0.42,1.55,1.34c0.05,0.79,0.01,1.59,0.02,2.39
		c0,0.62-0.47,0.29-0.73,0.35c-0.28,0.06-0.51,0.03-0.49-0.38c0.03-0.66,0.01-1.33,0.01-1.99c0-0.48-0.1-0.91-0.69-0.93
		c-0.41-0.02-0.88,0.52-0.89,0.99c-0.01,0.64-0.03,1.29,0.01,1.93c0.03,0.55-0.34,0.39-0.62,0.4c-0.28,0-0.63,0.14-0.61-0.41
		c0.04-0.99,0.01-1.99,0.01-2.99c0-0.3-0.09-0.65,0.43-0.6C39.56,109.09,40.08,108.88,39.94,109.74z"/>
	<path class="st5" d="M101.6,108.94c1.35-0.02,2.33,0.85,2.35,2.08c0.03,1.26-0.96,2.17-2.34,2.16c-1.36-0.01-2.31-0.87-2.32-2.11
		C99.29,109.83,100.24,108.95,101.6,108.94z"/>
	<path class="st5" d="M87.33,108.95c1.38,0.05,2.28,0.92,2.25,2.17c-0.03,1.22-1.03,2.09-2.37,2.06c-1.4-0.03-2.32-0.93-2.28-2.21
		C84.97,109.75,85.98,108.9,87.33,108.95z"/>
	<path class="st5" d="M92.67,108.95c1.38,0.06,2.28,0.93,2.23,2.19c-0.04,1.22-1.04,2.08-2.39,2.03c-1.4-0.04-2.31-0.94-2.26-2.23
		C90.3,109.73,91.32,108.89,92.67,108.95z"/>
	<path class="st3" d="M118.79,110.22c-0.23-0.7,0.08-0.96,0.63-1.13c0.57-0.17,1.14-0.19,1.7-0.07c0.61,0.13,0.93,0.56,0.93,1.19
		c0,0.6,0,1.19,0,1.79c0,0.29,0.01,0.56,0.42,0.46c0.11-0.03,0.22-0.07,0.24,0.1c0.02,0.11,0.01,0.21-0.08,0.3
		c-0.29,0.3-1.33,0.41-1.6,0.09c-0.21-0.24-0.34-0.19-0.54-0.06c-0.11,0.07-0.23,0.13-0.35,0.17c-0.71,0.25-1.42,0-1.64-0.57
		c-0.21-0.55,0.11-1.12,0.83-1.44c0.34-0.15,0.71-0.24,1.05-0.39c0.18-0.08,0.5-0.03,0.45-0.37c-0.04-0.32-0.25-0.5-0.57-0.55
		C119.71,109.65,119.25,109.92,118.79,110.22z"/>
	<path class="st4" d="M48.61,108.95c1.38,0.05,2.28,0.92,2.25,2.18c-0.03,1.23-1.03,2.08-2.38,2.04c-1.4-0.03-2.32-0.93-2.27-2.21
		C46.24,109.74,47.26,108.9,48.61,108.95z"/>
	<path class="st5" d="M134.91,111.95c0.2,0.54-0.06,0.8-0.5,0.99c-1.49,0.65-3.14,0.03-3.51-1.31c-0.32-1.17,0.38-2.37,1.51-2.62
		c1.34-0.29,2.45,0.43,2.66,1.72c0.06,0.35-0.03,0.48-0.4,0.47c-0.73-0.02-1.46,0.01-2.19-0.01c-0.51-0.01-0.51,0.2-0.31,0.56
		c0.32,0.56,0.86,0.65,1.43,0.63C134.07,112.36,134.5,112.17,134.91,111.95z"/>
	<path class="st5" d="M108.7,111.97c0.17,0.47,0,0.73-0.43,0.94c-1.49,0.69-3.2,0.1-3.57-1.27c-0.32-1.17,0.37-2.37,1.5-2.63
		c1.33-0.3,2.45,0.42,2.66,1.71c0.06,0.33,0,0.49-0.38,0.48c-0.75-0.02-1.51,0-2.26-0.01c-0.41-0.01-0.45,0.16-0.29,0.49
		c0.32,0.63,0.9,0.72,1.52,0.69C107.89,112.35,108.29,112.14,108.7,111.97z"/>
	<path class="st4" d="M44.07,111.4c0-0.38,0-0.75,0-1.13c0-0.2,0.02-0.41-0.28-0.41c-0.32,0-0.24-0.24-0.25-0.43
		c-0.01-0.18-0.02-0.37,0.25-0.37c0.3,0.01,0.27-0.2,0.29-0.4c0.13-1.26,0.84-1.81,2.12-1.68c0.28,0.03,0.45,0.05,0.42,0.4
		c-0.02,0.29-0.01,0.51-0.41,0.49c-0.52-0.02-0.92,0.15-0.93,0.77c0,0.19-0.06,0.42,0.26,0.41c0.31-0.01,0.27,0.22,0.27,0.41
		c0,0.17,0.05,0.39-0.23,0.38c-0.35-0.01-0.3,0.24-0.3,0.45c0,0.75-0.04,1.51,0.01,2.25c0.04,0.53-0.26,0.5-0.6,0.49
		c-0.31-0.02-0.69,0.11-0.62-0.46C44.11,112.2,44.07,111.8,44.07,111.4z"/>
	<path class="st5" d="M82.47,111.18c0.2-0.58,0.39-1.16,0.6-1.74c0.11-0.32,1.08-0.57,1.29-0.33c0.11,0.12,0.03,0.25-0.02,0.37
		c-0.4,1.07-0.82,2.14-1.2,3.22c-0.12,0.33-0.32,0.37-0.6,0.36c-0.3-0.02-0.6,0.07-0.75-0.34c-0.41-1.07-0.85-2.13-1.3-3.18
		c-0.15-0.34-0.12-0.45,0.29-0.48c0.58-0.05,0.95,0.09,1.09,0.72c0.11,0.49,0.31,0.95,0.47,1.42
		C82.38,111.19,82.42,111.18,82.47,111.18z"/>
	<path class="st5" d="M61.86,107.73c0.04,0.16,0.04,0.18,0.04,0.2c0.03,1.06,0.03,1.07,1.08,1.12c0.34,0.02,0.39,0.14,0.4,0.44
		c0,0.3-0.12,0.36-0.39,0.38c-1.08,0.07-1.08,0.08-1.08,1.19c0,0.04,0,0.09,0,0.13c0,1.18,0.25,1.37,1.38,1.04
		c0.15,0.77,0.13,0.8-0.64,0.9c-1.36,0.18-1.95-0.33-1.95-1.7c0-0.38,0-0.75,0-1.13c0-0.13,0.06-0.33-0.07-0.36
		c-1-0.28-0.1-0.6,0.02-0.78C60.98,108.67,61.41,108.25,61.86,107.73z"/>
	<path class="st5" d="M79.55,109.91c-0.46-0.13-0.89-0.39-1.4-0.3c-0.17,0.03-0.37,0.06-0.39,0.28c-0.02,0.19,0.15,0.24,0.29,0.31
		c0.39,0.2,0.8,0.39,1.16,0.62c0.48,0.31,0.76,0.76,0.62,1.35c-0.14,0.58-0.56,0.87-1.14,0.95c-0.51,0.06-1.01,0.01-1.51-0.08
		c-0.37-0.07-0.43-0.28-0.36-0.57c0.09-0.34,0.31-0.07,0.47-0.06c0.35,0.02,0.69,0.15,1.05,0.07c0.2-0.04,0.42-0.07,0.44-0.32
		c0.02-0.21-0.15-0.3-0.31-0.39c-0.37-0.2-0.75-0.37-1.11-0.59c-0.46-0.28-0.81-0.67-0.67-1.25c0.13-0.58,0.58-0.85,1.15-0.95
		c0.38-0.07,0.75-0.03,1.12,0.02C79.49,109.07,79.77,109.32,79.55,109.91z"/>
	<path class="st6" d="M109.81,110.08c0-0.84,0.03-1.68-0.01-2.51c-0.03-0.51,0.23-0.53,0.6-0.5c0.32,0.02,0.65-0.09,0.63,0.47
		c-0.04,1.7-0.03,3.4,0,5.1c0.01,0.59-0.38,0.4-0.66,0.42c-0.33,0.03-0.59,0.04-0.56-0.45
		C109.84,111.76,109.81,110.92,109.81,110.08z"/>
	<path class="st6" d="M144.95,110.06c0,0.84-0.04,1.69,0.01,2.53c0.03,0.57-0.32,0.46-0.63,0.46c-0.3,0-0.61,0.09-0.6-0.43
		c0.03-1.71,0.03-3.41,0-5.12c-0.01-0.59,0.37-0.41,0.66-0.43c0.34-0.03,0.59-0.01,0.56,0.47
		C144.92,108.37,144.95,109.22,144.95,110.06z"/>
	<path class="st5" d="M97.04,110.33c0.38-0.53,0.51-0.97,0.91-1.22c0.36-0.23,0.73-0.2,1.05,0.04c0.37,0.27-0.03,0.55-0.04,0.83
		c-0.01,0.11-0.07,0.2-0.27,0.18c-1.09-0.15-1.63,0.35-1.65,1.48c0,0.27-0.03,0.53,0.01,0.8c0.06,0.48-0.09,0.65-0.6,0.64
		c-0.5,0-0.64-0.13-0.62-0.63c0.04-0.95,0.05-1.9,0-2.85c-0.03-0.55,0.26-0.53,0.64-0.53c0.37,0,0.67,0.01,0.58,0.52
		C97.02,109.75,97.04,109.95,97.04,110.33z"/>
	<path class="st5" d="M116.05,110.17c0.14-0.23,0.27-0.48,0.43-0.7c0.25-0.33,0.55-0.6,1.01-0.48c0.28,0.07,0.68,0.08,0.51,0.56
		c-0.11,0.31-0.06,0.75-0.68,0.52c-0.65-0.24-1.31,0.46-1.38,1.38c-0.02,0.29-0.04,0.58,0,0.86c0.12,0.71-0.23,0.8-0.82,0.76
		c-0.33-0.03-0.4-0.14-0.4-0.44c0.01-1.02,0.04-2.04-0.01-3.05c-0.03-0.57,0.29-0.51,0.66-0.52c0.4-0.01,0.65,0.05,0.57,0.53
		c-0.03,0.18,0,0.37,0,0.56C115.98,110.15,116.01,110.16,116.05,110.17z"/>
	<path class="st7" d="M114.07,112.98c-0.96,0.23-1.57,0.01-2.08-0.79c-0.78-1.21-0.78-1.13-0.05-2.31c0.5-0.81,1.11-0.96,2-0.74
		c-0.32,0.47-0.59,0.95-0.95,1.35c-0.36,0.4-0.29,0.7,0.03,1.07C113.38,111.99,113.69,112.47,114.07,112.98z"/>
	<path class="st5" d="M36.35,111.05c0-0.42,0.05-0.85-0.01-1.26c-0.1-0.71,0.26-0.8,0.83-0.74c0.27,0.03,0.39,0.08,0.39,0.38
		c-0.01,1.08-0.01,2.17,0,3.25c0.01,0.56-0.4,0.33-0.66,0.36c-0.28,0.03-0.59,0.08-0.56-0.4C36.38,112.12,36.35,111.58,36.35,111.05
		z"/>
	<path class="st5" d="M75.75,111.04c0,0.42-0.05,0.85,0.01,1.26c0.1,0.7-0.23,0.81-0.82,0.76c-0.33-0.03-0.41-0.13-0.4-0.44
		c0.01-1.04,0.03-2.08-0.01-3.12c-0.02-0.57,0.35-0.43,0.65-0.45c0.33-0.02,0.61-0.03,0.57,0.46
		C75.72,110.02,75.75,110.53,75.75,111.04z"/>
	<path class="st5" d="M123.52,111.01c0-0.44,0.03-0.89-0.01-1.33c-0.05-0.48,0.09-0.65,0.61-0.64c0.5,0.01,0.64,0.13,0.62,0.63
		c-0.04,0.97-0.04,1.95,0,2.92c0.02,0.56-0.33,0.45-0.64,0.46c-0.32,0.01-0.62,0.06-0.58-0.45
		C123.55,112.07,123.52,111.54,123.52,111.01z"/>
	<path class="st8" d="M136.78,113.16c-0.43-0.03-0.72-0.23-0.74-0.68c-0.02-0.45,0.25-0.71,0.68-0.73c0.44-0.02,0.73,0.24,0.75,0.67
		C137.49,112.86,137.22,113.1,136.78,113.16z"/>
	<path class="st8" d="M75.75,107.52c-0.09,0.36-0.28,0.6-0.64,0.58c-0.35-0.02-0.58-0.23-0.56-0.59c0.01-0.36,0.25-0.55,0.61-0.54
		C75.52,106.97,75.68,107.22,75.75,107.52z"/>
	<path class="st8" d="M36.96,106.95c0.34,0.05,0.58,0.23,0.57,0.59c-0.01,0.34-0.25,0.57-0.6,0.56c-0.35-0.01-0.58-0.23-0.57-0.58
		C36.37,107.15,36.61,106.98,36.96,106.95z"/>
	<path class="st8" d="M124.72,107.54c-0.08,0.33-0.26,0.57-0.62,0.56c-0.35-0.01-0.58-0.23-0.57-0.58c0.01-0.36,0.25-0.56,0.6-0.55
		C124.48,106.97,124.67,107.2,124.72,107.54z"/>
	<path class="st3" d="M117.26,45.94c-0.06-0.99,0.14-2.03,0.59-3.01c0.58-1.26,1.98-2.14,3.08-2c2.03,0.25,2.73,0.92,3.21,2.6
		c0.51,1.82,0.48,3.7-0.23,5.5c-0.66,1.66-1.75,2.17-3.33,1.96c-2.09-0.27-2.95-1.29-3.2-3.4
		C117.32,47.07,117.27,46.56,117.26,45.94z"/>
	<path class="st3" d="M137.09,45.95c-0.05-1.01,0.14-2.06,0.59-3.03c0.58-1.25,1.99-2.11,3.09-1.98c2.19,0.26,2.79,1.12,3.2,2.61
		c0.49,1.8,0.47,3.65-0.22,5.44c-0.64,1.66-1.74,2.04-3.36,2.06c-1.99,0.02-2.99-1.89-3.18-3.4
		C137.14,47.1,137.1,46.56,137.09,45.95z"/>
	<path class="st1" d="M36.76,88.02c0.11,2.1-0.56,3.89-2.11,5.32c-1.15,1.06-2.54,1.59-4.1,1.69c-1.23,0.08-2.42,0.03-3.62-0.37
		c-2.23-0.74-3.64-2.27-4.21-4.47c-0.47-1.81-0.41-3.67,0.42-5.43c0.92-1.94,2.47-3.12,4.53-3.54c2.3-0.47,4.55-0.3,6.53,1.17
		c1.29,0.96,2.05,2.25,2.43,3.8C36.78,86.8,36.73,87.41,36.76,88.02z"/>
	<path class="st1" d="M106.22,93.85c0,0.18,0.01,0.36,0,0.53c-0.06,0.6,0.25,1.3-0.5,1.71c-0.55,0.3-1.06,0.63-1.72,0.68
		c-1.26,0.09-1.87-0.28-2.07-1.44c-0.1-0.62,0.11-1.19,0.6-1.63c0.95-0.86,2.15-1.25,3.32-1.68c0.32-0.12,0.38,0.02,0.38,0.31
		C106.21,92.83,106.22,93.34,106.22,93.85z"/>
	<path class="st1" d="M151.65,89.98c-0.93,0-1.86-0.02-2.79,0.01c-0.41,0.01-0.52-0.16-0.44-0.5c0.31-1.5,0.99-2.5,2.67-2.7
		c1.84-0.22,2.99,0.49,3.51,1.71c0.61,1.42,0.57,1.48-0.94,1.48C152.98,89.98,152.31,89.98,151.65,89.98z"/>
	<path class="st1" d="M53.83,89.98c-0.91,0-1.82-0.03-2.73,0.01c-0.48,0.02-0.6-0.18-0.51-0.57c0.36-1.49,1-2.46,2.73-2.63
		c2.01-0.2,3.17,0.52,3.75,2.55c0.13,0.47,0.04,0.68-0.51,0.65C55.65,89.95,54.74,89.98,53.83,89.98z"/>
	<path class="st9" d="M54.05,111.26c0.02-0.65,0.18-1.27,0.56-1.81c0.26-0.36,0.59-0.6,1.07-0.49c0.49,0.11,0.69,0.48,0.74,0.91
		c0.11,0.87-0.14,1.67-0.66,2.36c-0.28,0.37-0.7,0.52-1.12,0.32C54.1,112.32,54.04,111.79,54.05,111.26z"/>
	<path class="st10" d="M102.76,111.03c0,0.95-0.41,1.5-1.12,1.5c-0.73,0-1.14-0.53-1.14-1.48c0-0.91,0.45-1.49,1.16-1.47
		C102.34,109.59,102.76,110.13,102.76,111.03z"/>
	<path class="st11" d="M86.12,111.06c0.03-0.49,0.08-0.95,0.49-1.26c0.59-0.45,1.42-0.19,1.66,0.52c0.14,0.41,0.14,0.82,0.06,1.24
		c-0.12,0.6-0.45,0.95-1.07,0.97c-0.59,0.02-0.98-0.35-1.1-1.02C86.13,111.35,86.13,111.2,86.12,111.06z"/>
	<path class="st11" d="M91.44,111.07c0.03-0.49,0.08-0.95,0.49-1.27c0.59-0.45,1.42-0.19,1.66,0.51c0.14,0.41,0.14,0.82,0.06,1.24
		c-0.12,0.6-0.45,0.95-1.07,0.97c-0.59,0.02-0.98-0.35-1.1-1.02C91.45,111.36,91.45,111.2,91.44,111.07z"/>
	<path class="st12" d="M120.84,111.69c0.12,0.6-0.23,0.76-0.66,0.81c-0.3,0.03-0.51-0.12-0.52-0.45c-0.01-0.32,0.6-0.82,0.99-0.81
		C121.09,111.26,120.69,111.62,120.84,111.69z"/>
	<path class="st11" d="M47.39,111.13c0.02-0.61,0.1-1.16,0.68-1.45c0.6-0.29,1.27,0.02,1.48,0.66c0.19,0.6,0.17,1.19-0.15,1.73
		c-0.27,0.47-0.74,0.52-1.22,0.39C47.48,112.27,47.45,111.66,47.39,111.13z"/>
	<path class="st13" d="M132.99,110.66c-0.13,0-0.27,0.02-0.4,0c-0.18-0.03-0.46,0.12-0.53-0.12c-0.06-0.24,0.11-0.48,0.31-0.62
		c0.35-0.25,0.75-0.25,1.14-0.1c0.3,0.11,0.5,0.39,0.47,0.67c-0.04,0.34-0.39,0.13-0.59,0.17
		C133.26,110.69,133.13,110.66,132.99,110.66z"/>
	<path class="st13" d="M106.78,110.66c-0.13,0-0.27,0.02-0.4,0c-0.18-0.03-0.46,0.12-0.53-0.12c-0.06-0.24,0.11-0.48,0.31-0.62
		c0.35-0.25,0.75-0.25,1.14-0.1c0.3,0.11,0.5,0.39,0.47,0.67c-0.04,0.33-0.39,0.13-0.59,0.17
		C107.05,110.69,106.91,110.66,106.78,110.66z"/>
</g>
</svg>
