<?xml version="1.0" encoding="utf-8"?>
<!-- Generator: Adobe Illustrator 25.2.1, SVG Export Plug-In . SVG Version: 6.00 Build 0)  -->
<svg version="1.1" id="Layer_1" xmlns="http://www.w3.org/2000/svg" xmlns:xlink="http://www.w3.org/1999/xlink" x="0px" y="0px"
	 viewBox="0 0 288 560" style="enable-background:new 0 0 288 560;" xml:space="preserve">
<style type="text/css">
	.st0{fill:#015ABA;}
	.st1{fill:#FDD401;}
	.st2{fill:#FEFEFE;}
	.st3{fill:#015BBA;}
	.st4{fill:#025BBA;}
	.st5{fill:#025BB9;}
	.st6{fill:#015BB9;}
	.st7{fill:#035CB8;}
	.st8{fill:#055DB7;}
	.st9{fill:#FCD401;}
	.st10{fill:#FCD402;}
	.st11{fill:#FCD302;}
	.st12{fill:#F9D204;}
	.st13{fill:#EDCC0C;}
</style>
<g>
	<path class="st0" d="M223.91,226.88c0,17.73,0,35.46,0,53.19c-0.18,0.23-0.44,0.28-0.71,0.29c-0.36,0.01-0.71,0.01-1.07,0.01
		c-52.09,0-104.18,0-156.27,0c-0.36,0-0.71,0-1.07-0.01c-0.28-0.01-0.53-0.06-0.71-0.29c0-17.73,0-35.46,0-53.19
		c0.23-0.12,0.48-0.06,0.72-0.06c52.8,0,105.6,0,158.4,0C223.43,226.82,223.68,226.76,223.91,226.88z"/>
	<path class="st1" d="M64.08,280.08c53.28,0,106.56,0,159.83,0c0,17.53,0,35.06,0.01,52.6c0,0.5-0.11,0.61-0.61,0.61
		c-53.08-0.01-106.16-0.01-159.23-0.01C64.08,315.54,64.08,297.81,64.08,280.08z"/>
	<path class="st2" d="M223.91,226.88c-53.28,0-106.56,0-159.83,0c0.03-0.04-0.07-0.14,0.07-0.13c0.18,0.01,0.36,0,0.53,0
		c52.88,0,105.76,0,158.63,0.01C223.51,226.76,223.77,226.6,223.91,226.88z"/>
	<path class="st1" d="M86.06,255.97c1.02-1.12,1.99-2.04,3.32-2.41c2.12-0.59,4.09-0.26,5.72,1.22c0.85,0.77,1.38,1.81,1.48,3.01
		c0.29,3.53,0.05,7.07,0.14,10.6c0.01,0.34-0.12,0.4-0.42,0.4c-1.24-0.01-2.49-0.03-3.73,0.01c-0.47,0.01-0.53-0.17-0.53-0.57
		c0.01-2.81,0.03-5.63-0.01-8.44c-0.01-0.97-0.16-1.97-1.08-2.57c-1.28-0.83-2.5-0.52-3.75,0.51c-0.84,0.7-1.22,1.51-1.18,2.67
		c0.1,2.61,0.02,5.23,0.04,7.84c0,0.42-0.09,0.57-0.54,0.56c-1.22-0.03-2.44-0.03-3.66,0c-0.38,0.01-0.48-0.11-0.48-0.48
		c0.01-7.27,0.01-14.53,0-21.8c0-0.37,0.1-0.49,0.48-0.48c1.22,0.02,2.44,0.03,3.66,0c0.45-0.01,0.54,0.13,0.54,0.55
		c-0.02,2.86-0.01,5.71-0.01,8.57C86.06,255.36,86.06,255.58,86.06,255.97z"/>
	<path class="st1" d="M185.56,261.24c-0.03,1.91-0.51,3.81-2.06,5.23c-1.66,1.51-3.62,2.39-5.92,2.45c-1.7,0.05-3.37-0.07-4.91-0.82
		c-2.36-1.16-3.89-2.96-4.31-5.64c-0.33-2.09-0.02-4.02,1.21-5.75c1.32-1.85,3.18-2.86,5.4-3.23c1.79-0.3,3.57-0.27,5.3,0.36
		c2.88,1.06,4.81,2.89,5.17,6.1C185.49,260.33,185.54,260.72,185.56,261.24z"/>
	<path class="st1" d="M188.08,261.05c-0.07-1.93,0.6-3.72,1.97-5.17c1.17-1.24,2.7-2.04,4.39-2.36c1.84-0.35,3.72-0.39,5.51,0.25
		c2.92,1.05,4.95,2.88,5.34,6.19c0.29,2.49-0.11,4.76-1.96,6.52c-1.62,1.54-3.61,2.38-5.92,2.45c-1.82,0.05-3.59-0.09-5.2-0.96
		c-2.17-1.17-3.64-2.92-3.99-5.45c-0.03-0.24-0.18-0.44-0.14-0.7C188.11,261.6,188.08,261.37,188.08,261.05z"/>
	<path class="st1" d="M111.5,266.44c-0.99,1.09-2.02,1.89-3.3,2.23c-2.22,0.6-4.29,0.33-5.97-1.39c-0.91-0.93-1.34-2.14-1.36-3.41
		c-0.06-3.28-0.01-6.56-0.03-9.84c0-0.49,0.16-0.57,0.6-0.56c1.15,0.03,2.31,0.04,3.46,0c0.49-0.02,0.63,0.11,0.62,0.61
		c-0.03,3.01-0.03,6.03-0.01,9.04c0.01,1.57,0.64,2.68,2.45,2.8c1.28,0.08,2.25-0.64,3.01-1.65c0.39-0.52,0.56-1.08,0.55-1.75
		c-0.04-2.81,0-5.63-0.03-8.44c0-0.51,0.13-0.63,0.62-0.61c1.15,0.04,2.31,0.03,3.46,0c0.44-0.01,0.61,0.07,0.6,0.56
		c-0.02,4.74-0.02,9.48,0,14.23c0,0.39-0.07,0.54-0.5,0.53c-1.24-0.03-2.49-0.02-3.73,0c-0.35,0.01-0.46-0.09-0.45-0.45
		C111.52,267.76,111.5,267.19,111.5,266.44z"/>
	<path class="st1" d="M159.18,262.05c1.12-2.85,2.16-5.51,3.2-8.16c0.12-0.3,0.33-0.42,0.67-0.41c1.33,0.01,2.66,0.01,3.99,0
		c0.34,0,0.5,0.04,0.31,0.44c-0.85,1.83-1.67,3.68-2.49,5.52c-1.33,2.96-2.66,5.92-3.97,8.88c-0.21,0.48-0.45,0.85-1.05,0.71
		c-0.08-0.02-0.18,0-0.27,0c-1.8,0-1.77-0.01-2.48-1.63c-1.03-2.34-2.1-4.66-3.15-7c-0.97-2.16-1.91-4.32-2.9-6.47
		c-0.21-0.46-0.04-0.47,0.32-0.47c1.35,0.01,2.71,0.02,4.06-0.01c0.37-0.01,0.48,0.17,0.59,0.46c0.79,2.04,1.58,4.08,2.38,6.12
		C158.62,260.65,158.87,261.26,159.18,262.05z"/>
	<path class="st1" d="M78.73,264.69c0,1.02-0.01,2,0.01,2.97c0,0.28-0.07,0.37-0.35,0.49c-2.11,0.89-4.29,1.08-6.45,0.44
		c-1.79-0.53-2.88-1.88-3.19-3.74c-0.32-1.95-0.07-3.92-0.14-5.88c-0.02-0.62-0.02-1.24,0-1.86c0.01-0.33-0.06-0.49-0.43-0.46
		c-0.31,0.03-0.62,0.03-0.93,0c-0.26-0.03-0.64,0.2-0.75-0.16c-0.11-0.37-0.06-0.78,0.25-1.1c0.41-0.43,0.82-0.85,1.2-1.3
		c0.94-1.1,1.95-2.14,2.92-3.22c0.54-0.6,1.07-1.21,1.6-1.83c0.18-0.21,0.4-0.4,0.66-0.33c0.29,0.07,0.13,0.38,0.13,0.57
		c0.02,1.24,0.02,2.48,0,3.72c-0.01,0.38,0.11,0.48,0.48,0.48c1.46-0.02,2.93,0.02,4.39-0.02c0.52-0.01,0.64,0.15,0.61,0.63
		c-0.04,0.64-0.04,1.29,0,1.93c0.03,0.49-0.08,0.68-0.63,0.67c-1.44-0.04-2.88,0-4.33-0.02c-0.4-0.01-0.53,0.09-0.52,0.51
		c0.02,2.04-0.07,4.08,0.04,6.11c0.09,1.71,1.26,2.28,2.64,2.19C76.92,265.41,77.77,265.03,78.73,264.69z"/>
	<path class="st1" d="M139.73,257.58c-1.01-0.48-1.98-0.93-3.02-1.21c-0.97-0.27-1.95-0.34-2.93-0.21c-0.47,0.07-0.87,0.37-0.97,0.9
		c-0.11,0.55,0.27,0.74,0.68,0.96c1.26,0.67,2.63,1.07,3.89,1.73c1.3,0.69,2.41,1.54,2.91,3.06c0.85,2.62-0.63,5.16-3.22,5.79
		c-2.68,0.66-5.36,0.46-7.95-0.59c-0.26-0.11-0.32-0.2-0.32-0.45c0.01-0.91,0-1.81,0-2.8c0.99,0.34,1.93,0.68,2.91,0.88
		c1.19,0.23,2.37,0.37,3.58,0.09c0.52-0.12,0.89-0.38,0.96-0.91c0.09-0.58-0.36-0.88-0.76-1.08c-1.08-0.53-2.2-0.99-3.29-1.48
		c-1.38-0.62-2.69-1.33-3.34-2.81c-0.75-1.7-0.21-3.61,1.22-4.74c1.49-1.19,3.25-1.42,5.11-1.38c1.28,0.03,2.49,0.27,3.69,0.68
		c0.6,0.2,0.94,0.49,0.87,1.2C139.68,255.97,139.73,256.75,139.73,257.58z"/>
	<path class="st1" d="M213.54,257.96c0.49-1.01,0.95-1.93,1.58-2.75c1.92-2.46,3.97-2.38,6.27-0.67c0.17,0.13,0.11,0.24,0.06,0.39
		c-0.41,1.28-0.8,2.57-1.2,3.87c-0.52-0.27-1-0.56-1.51-0.79c-1.57-0.73-2.81-0.21-3.74,1.02c-0.64,0.84-1.04,1.83-1.52,2.78
		c-0.11,0.22-0.09,0.42-0.09,0.64c-0.01,1.93-0.02,3.85,0.01,5.78c0,0.42-0.09,0.57-0.54,0.56c-1.22-0.03-2.44-0.03-3.66,0
		c-0.37,0.01-0.48-0.1-0.48-0.48c0.01-4.78,0.01-9.57,0-14.35c0-0.38,0.11-0.48,0.48-0.48c1.24,0.02,2.49,0.02,3.73,0
		c0.39-0.01,0.48,0.13,0.47,0.49c-0.02,1.09-0.01,2.17,0,3.26C213.4,257.42,213.32,257.65,213.54,257.96z"/>
	<path class="st1" d="M125.08,261.2c0,2.35-0.01,4.69,0.01,7.04c0,0.44-0.11,0.56-0.55,0.55c-1.22-0.03-2.44-0.03-3.66,0
		c-0.39,0.01-0.47-0.12-0.47-0.49c0.01-4.78,0.01-9.56,0-14.35c0-0.38,0.1-0.49,0.48-0.48c1.22,0.02,2.44,0.03,3.66,0
		c0.45-0.01,0.54,0.13,0.54,0.55C125.07,256.41,125.08,258.81,125.08,261.2z"/>
	<path class="st1" d="M120.16,248.4c-0.11-1.2,1.06-2.54,2.59-2.6c1.32-0.05,2.61,1.31,2.6,2.65c-0.01,1.32-1.27,2.62-2.59,2.6
		C121.16,251.02,120.01,249.5,120.16,248.4z"/>
	<path class="st3" d="M98.48,303.14c0,2.97-1.08,5.48-3.13,7.65c-1.91,2.01-4.24,3.22-6.92,3.7c-1.68,0.31-3.41,0.25-5.13,0.05
		c-2.02-0.24-3.86-0.9-5.52-2.03c-2.49-1.69-4.25-3.99-4.85-6.97c-0.65-3.22-0.1-6.24,1.95-8.93c2.04-2.68,4.71-4.31,8.01-4.8
		c3.08-0.46,6.17-0.31,9.01,1.11c2.74,1.37,4.71,3.52,5.88,6.37C98.29,300.53,98.47,301.83,98.48,303.14z"/>
	<path class="st3" d="M137.36,314.52c-1.9,0-3.6,0-5.31,0c-0.28,0-0.44-0.13-0.63-0.36c-1.88-2.31-3.79-4.6-5.69-6.9
		c-0.08-0.1-0.16-0.21-0.24-0.33c-0.24,0.22-0.14,0.43-0.14,0.61c-0.01,2.1-0.02,4.21,0.01,6.31c0.01,0.53-0.16,0.69-0.69,0.68
		c-1.15-0.03-2.31-0.03-3.46,0c-0.47,0.01-0.67-0.11-0.67-0.63c0.01-7.18,0.01-14.35,0-21.53c0-0.48,0.17-0.61,0.62-0.6
		c1.18,0.02,2.35,0.03,3.53,0c0.55-0.02,0.66,0.2,0.66,0.7c-0.02,4.54-0.01,9.08-0.01,13.62c0,0.21,0,0.43,0,0.84
		c0.83-1.01,1.55-1.86,2.26-2.73c1.02-1.27,2.11-2.49,3.02-3.83c0.7-1.03,1.56-1.24,2.69-1.16c1.08,0.08,2.17,0.02,3.26,0.02
		c0.33,0,0.48,0.03,0.2,0.38c-0.84,1.03-1.63,2.08-2.47,3.11c-1,1.24-2.02,2.45-3.01,3.69c-0.18,0.22-0.25,0.43,0.01,0.73
		c0.77,0.88,1.49,1.81,2.23,2.72C134.76,311.36,136,312.86,137.36,314.52z"/>
	<path class="st3" d="M185.42,301.58c0.81-0.95,1.6-1.66,2.6-2.06c2.44-0.96,5.5-0.57,7.14,1.93c0.5,0.76,0.71,1.64,0.79,2.56
		c0.26,3.25,0.04,6.5,0.13,9.74c0.02,0.56-0.12,0.79-0.73,0.77c-1.13-0.05-2.26-0.04-3.4,0c-0.52,0.02-0.69-0.14-0.69-0.68
		c0.02-3.01,0.02-6.03,0.01-9.04c0-0.99-0.21-1.94-1.18-2.43c-1.12-0.56-2.2-0.32-3.16,0.45c-0.34,0.28-0.65,0.6-0.94,0.94
		c-0.38,0.43-0.6,0.9-0.59,1.53c0.03,2.84,0,5.67,0.03,8.51c0,0.55-0.15,0.74-0.72,0.72c-1.15-0.04-2.31-0.03-3.46,0
		c-0.51,0.01-0.64-0.17-0.64-0.66c0.01-4.68,0.01-9.35,0-14.03c0-0.45,0.11-0.64,0.6-0.63c1.22,0.03,2.44,0.02,3.66,0
		c0.4-0.01,0.57,0.13,0.55,0.54C185.4,300.31,185.42,300.86,185.42,301.58z"/>
	<path class="st3" d="M169.57,310.97c0,0.48-0.07,0.93,0.01,1.35c0.18,0.92-0.29,1.31-1.06,1.61c-1.28,0.48-2.56,0.88-3.94,0.73
		c-0.8-0.09-1.54-0.29-1.85-1.17c-0.18-0.52-0.43-0.42-0.82-0.17c-1.64,1.05-3.45,1.61-5.4,1.32c-1.82-0.26-3.33-1.63-3.4-3.53
		c-0.06-1.62,0.61-3.03,2.2-3.82c1.97-0.99,4.07-1.61,6.16-2.28c0.27-0.09,0.7-0.03,0.75-0.35c0.06-0.39,0.1-0.81-0.08-1.23
		c-0.36-0.85-1.04-1.17-1.89-1.26c-2.4-0.25-4.38,0.65-6.08,2.27c-0.06,0.06-0.12,0.13-0.32,0.07c0-1.1-0.01-2.24,0.01-3.37
		c0-0.21,0.2-0.33,0.37-0.42c1.78-0.94,3.63-1.59,5.68-1.62c1.5-0.02,2.97,0.02,4.39,0.55c1.48,0.56,2.47,1.73,2.62,3.45
		c0.22,2.49,0.05,4.99,0.11,7.48c0.03,0.96,0.41,1.24,1.34,0.97C168.8,311.42,169.12,311.11,169.57,310.97z"/>
	<path class="st3" d="M209.76,307.61c-1.55,0-3.11,0.04-4.66-0.02c-0.62-0.02-0.7,0.23-0.63,0.72c0.24,1.76,1.55,3.16,3.32,3.55
		c2.31,0.52,4.38-0.14,6.33-1.32c0.15-0.09,0.29-0.19,0.43-0.29c0.36-0.26,0.45-0.1,0.45,0.26c-0.01,0.47-0.05,0.94,0.01,1.39
		c0.1,0.74-0.29,1.11-0.88,1.41c-1.69,0.85-3.45,1.3-5.36,1.36c-1.77,0.05-3.51-0.09-5.1-0.84c-2.05-0.97-3.56-2.52-4.06-4.79
		c-0.64-2.95-0.21-5.7,2.08-7.88c1.39-1.32,3.08-2.01,5.04-2.08c1.56-0.06,3.07,0.09,4.44,0.83c2.09,1.14,3.39,2.89,3.85,5.26
		c0.14,0.69,0,1.39,0.19,2.07c0.11,0.4-0.27,0.35-0.52,0.35C213.04,307.61,211.4,307.61,209.76,307.61z"/>
	<path class="st3" d="M111.89,307.61c-1.58,0-3.15,0.04-4.73-0.02c-0.69-0.03-0.65,0.35-0.59,0.76c0.28,1.81,1.53,3.1,3.35,3.52
		c2.32,0.53,4.37-0.15,6.32-1.35c0.15-0.09,0.28-0.2,0.43-0.29c0.24-0.15,0.42-0.18,0.42,0.19c0,0.66,0.01,1.33-0.01,1.99
		c-0.01,0.24-0.12,0.41-0.35,0.56c-1.27,0.83-2.66,1.29-4.14,1.55c-1.16,0.2-2.33,0.2-3.49,0.12c-3.7-0.25-6.91-2.35-7.55-6.27
		c-0.44-2.68,0.11-5.24,2.21-7.2c1.41-1.31,3.08-2.03,5.04-2.1c1.53-0.05,3.01,0.08,4.38,0.8c2.17,1.14,3.47,2.9,3.94,5.33
		c0.13,0.69,0,1.38,0.2,2.07c0.11,0.37-0.32,0.32-0.57,0.32C115.13,307.61,113.51,307.61,111.89,307.61z"/>
	<path class="st3" d="M143.73,303.53c0.6-0.79,0.99-1.68,1.59-2.44c0.93-1.18,1.97-2.13,3.63-2.01c1.02,0.07,1.81,0.64,2.63,1.14
		c0.19,0.11,0.17,0.32,0.12,0.48c-0.35,1.17-0.71,2.34-1.08,3.5c-0.09,0.28-0.26,0.3-0.5,0.14c-0.64-0.44-1.34-0.76-2.13-0.88
		c-0.93-0.15-1.65,0.19-2.28,0.83c-0.89,0.9-1.35,2.05-1.91,3.15c-0.11,0.22-0.08,0.43-0.08,0.64c-0.01,1.91-0.02,3.81,0.01,5.72
		c0.01,0.53-0.11,0.75-0.7,0.73c-1.17-0.04-2.35-0.03-3.53-0.01c-0.43,0.01-0.58-0.13-0.58-0.57c0.01-4.72,0.01-9.44,0-14.16
		c0-0.43,0.15-0.58,0.58-0.58c1.22,0.02,2.44,0.02,3.66,0c0.45-0.01,0.57,0.17,0.57,0.59C143.72,301.05,143.73,302.29,143.73,303.53
		z"/>
	<path class="st3" d="M176.5,306.88c0,2.32-0.01,4.65,0.01,6.97c0.01,0.53-0.16,0.69-0.69,0.68c-1.15-0.03-2.31-0.03-3.46,0
		c-0.47,0.01-0.67-0.1-0.67-0.62c0.02-4.69,0.02-9.39,0-14.08c0-0.47,0.15-0.62,0.62-0.61c1.2,0.02,2.4,0.03,3.59,0
		c0.48-0.01,0.61,0.17,0.6,0.62C176.49,302.19,176.5,304.53,176.5,306.88z"/>
	<path class="st3" d="M115.66,328.35c-0.94,1.36-2.28,1.63-3.72,1.64c-0.73,0-1.44-0.13-2.13-0.42c-1.73-0.75-2.58-2.26-2.27-4.12
		c0.34-2.06,1.8-3.49,3.65-3.63c1.39-0.1,2.67,0.07,3.6,1.24c0.81,1.03,0.91,2.19,0.42,3.38c-0.43,1.02-1.14,1.73-2.32,1.81
		c-0.27,0.02-0.57,0.04-0.74-0.19c-0.18-0.25-0.3-0.11-0.48-0.03c-1.38,0.65-2.58-0.14-2.56-1.66c0.02-1.47,0.98-2.75,2.16-2.84
		c0.15-0.01,0.31-0.02,0.46,0.01c0.48,0.11,0.89,0.43,1.45,0.11c0.34-0.2,0.54,0.06,0.46,0.49c-0.17,0.89-0.31,1.78-0.47,2.68
		c-0.04,0.21-0.15,0.45,0.1,0.6c0.23,0.13,0.43,0,0.6-0.15c0.82-0.72,1.25-1.62,1.05-2.71c-0.2-1.1-0.87-1.84-1.96-2.1
		c-1.4-0.33-2.76-0.22-3.82,0.88c-1.05,1.09-1.36,2.43-0.94,3.87c0.41,1.39,1.51,2.03,2.87,2.21c1.37,0.18,2.7,0.07,3.77-1
		C115,328.25,115.02,328.27,115.66,328.35z"/>
	<path class="st3" d="M172.77,294.31c0.13,1.48-1.01,2.52-2.46,2.62c-1.31,0.09-2.65-1.36-2.59-2.65c0.06-1.37,1.29-2.6,2.59-2.6
		C171.67,291.67,172.77,292.85,172.77,294.31z"/>
	<path class="st3" d="M180.36,294.28c0.15,1.45-0.97,2.53-2.45,2.64c-1.3,0.09-2.63-1.3-2.6-2.62c0.03-1.34,1.24-2.64,2.57-2.6
		C179.46,291.74,180.51,293.06,180.36,294.28z"/>
	<path class="st3" d="M121.36,324.64c0.23,0.03,0.28-0.13,0.37-0.21c0.46-0.41,1-0.48,1.55-0.29c0.57,0.2,0.82,0.68,0.85,1.24
		c0.04,0.82,0.02,1.64,0.02,2.45c0,0.57-0.45,0.26-0.69,0.31c-0.24,0.04-0.54,0.1-0.52-0.35c0.03-0.66,0.02-1.33,0-1.99
		c-0.01-0.46-0.1-0.91-0.68-0.97c-0.45-0.04-0.9,0.48-0.9,1.02c-0.01,0.62-0.03,1.24,0.01,1.86c0.04,0.58-0.36,0.42-0.65,0.44
		c-0.32,0.02-0.58,0.05-0.57-0.45c0.03-1.7,0.03-3.41,0-5.11c-0.01-0.59,0.38-0.4,0.67-0.43c0.33-0.03,0.6-0.03,0.56,0.46
		C121.32,323.3,121.36,323.97,121.36,324.64z"/>
	<path class="st4" d="M128.11,327.56c-0.25,0.2-0.42,0.38-0.62,0.5c-0.92,0.55-2.04,0.03-2.13-1.04c-0.07-0.84-0.02-1.68-0.02-2.52
		c0-0.56,0.44-0.29,0.69-0.33c0.25-0.04,0.54-0.09,0.53,0.36c-0.03,0.66,0,1.33-0.01,1.99c-0.01,0.48,0.07,0.91,0.66,0.96
		c0.48,0.04,0.92-0.43,0.93-1c0.01-0.62,0.04-1.24-0.01-1.86c-0.03-0.49,0.24-0.48,0.57-0.46c0.3,0.02,0.68-0.14,0.66,0.44
		c-0.04,0.95,0.01,1.9-0.02,2.85c-0.01,0.24,0.26,0.7-0.31,0.69C128.63,328.14,128.04,328.42,128.11,327.56z"/>
	<path class="st4" d="M195.79,324.87c0.47-0.53,0.85-0.81,1.38-0.82c0.79-0.02,1.37,0.5,1.42,1.35c0.05,0.79,0.01,1.59,0.02,2.39
		c0.01,0.56-0.4,0.33-0.66,0.36c-0.28,0.03-0.58,0.09-0.56-0.39c0.03-0.66,0.01-1.33,0.01-1.99c0-0.48-0.11-0.91-0.7-0.93
		c-0.4-0.01-0.88,0.53-0.89,0.99c-0.01,0.64-0.03,1.28,0,1.92c0.03,0.55-0.35,0.39-0.62,0.4c-0.29,0.01-0.62,0.12-0.6-0.41
		c0.04-0.99,0.01-1.99,0.01-2.99c0-0.31-0.08-0.64,0.44-0.59C195.43,324.19,195.94,323.99,195.79,324.87z"/>
	<path class="st5" d="M183.16,324.8c0.2-0.18,0.32-0.31,0.46-0.41c0.93-0.73,2.17-0.28,2.3,0.89c0.1,0.85,0.06,1.72,0.03,2.59
		c-0.02,0.54-0.47,0.22-0.72,0.27c-0.21,0.04-0.5,0.1-0.49-0.32c0.02-0.69,0.01-1.37,0-2.06c0-0.48-0.1-0.91-0.7-0.93
		c-0.4-0.02-0.88,0.53-0.89,0.99c-0.01,0.64-0.02,1.28,0,1.93c0.02,0.61-0.42,0.36-0.69,0.4c-0.3,0.04-0.55,0.05-0.53-0.42
		c0.04-0.97,0-1.95,0.02-2.92c0-0.26-0.19-0.69,0.37-0.65C182.71,324.19,183.28,323.93,183.16,324.8z"/>
	<path class="st4" d="M95.9,324.83c0.41-0.37,0.68-0.67,1.1-0.74c0.88-0.17,1.61,0.32,1.69,1.24c0.07,0.84,0.03,1.68,0.03,2.52
		c0,0.52-0.41,0.27-0.64,0.29c-0.22,0.02-0.57,0.17-0.56-0.3c0.01-0.69,0.01-1.37,0-2.06c0-0.47-0.09-0.91-0.68-0.94
		c-0.41-0.02-0.89,0.51-0.9,0.98c-0.01,0.64-0.03,1.29,0.01,1.92c0.03,0.54-0.33,0.41-0.61,0.41c-0.27-0.01-0.64,0.16-0.62-0.4
		c0.03-0.99,0.01-1.99,0.01-2.99c0-0.29-0.12-0.66,0.42-0.6C95.51,324.2,96.05,323.97,95.9,324.83z"/>
	<path class="st5" d="M157.63,324.04c1.35-0.01,2.33,0.85,2.35,2.08c0.02,1.26-0.96,2.16-2.35,2.15c-1.36-0.01-2.31-0.88-2.31-2.12
		C155.31,324.92,156.26,324.05,157.63,324.04z"/>
	<path class="st5" d="M143.26,324.04c1.35,0,2.32,0.87,2.33,2.1c0.01,1.25-0.99,2.16-2.37,2.13c-1.37-0.02-2.3-0.89-2.3-2.13
		C140.94,324.91,141.9,324.04,143.26,324.04z"/>
	<path class="st5" d="M148.68,324.05c1.38,0.05,2.28,0.92,2.24,2.18c-0.04,1.22-1.04,2.08-2.39,2.04c-1.4-0.04-2.32-0.94-2.27-2.22
		C146.31,324.84,147.32,324,148.68,324.05z"/>
	<path class="st3" d="M174.82,325.3c-0.23-0.67,0.08-0.95,0.66-1.12c0.57-0.16,1.14-0.18,1.7-0.06c0.58,0.13,0.9,0.54,0.91,1.15
		c0.01,0.62,0,1.24,0,1.86c0,0.26,0.01,0.51,0.38,0.45c0.12-0.02,0.27-0.11,0.29,0.11c0.02,0.14-0.01,0.26-0.16,0.32
		c-0.53,0.2-1.08,0.5-1.58-0.02c-0.19-0.2-0.31-0.1-0.44-0.01c-0.31,0.19-0.65,0.29-1.01,0.28c-0.52-0.01-0.92-0.25-1.05-0.75
		c-0.13-0.49,0.06-0.91,0.51-1.18c0.42-0.25,0.89-0.37,1.34-0.54c0.19-0.08,0.55-0.03,0.49-0.41c-0.06-0.36-0.32-0.52-0.66-0.54
		C175.69,324.78,175.26,325.05,174.82,325.3z"/>
	<path class="st4" d="M104.52,328.27c-1.36,0.02-2.33-0.85-2.35-2.08c-0.02-1.27,0.95-2.16,2.34-2.16c1.35,0,2.32,0.88,2.32,2.11
		C106.84,327.38,105.89,328.26,104.52,328.27z"/>
	<path class="st5" d="M190.96,327.06c0.2,0.57-0.08,0.8-0.48,0.98c-1.46,0.65-3.1,0.07-3.49-1.23c-0.36-1.18,0.27-2.38,1.4-2.68
		c1.31-0.35,2.44,0.34,2.72,1.62c0.09,0.4,0.02,0.57-0.43,0.55c-0.73-0.03-1.46,0-2.19-0.01c-0.41-0.01-0.46,0.16-0.29,0.48
		c0.32,0.64,0.9,0.72,1.52,0.7C190.15,327.45,190.55,327.26,190.96,327.06z"/>
	<path class="st5" d="M164.72,327.05c0.2,0.54-0.06,0.8-0.5,0.99c-1.49,0.65-3.15,0.03-3.51-1.32c-0.32-1.17,0.38-2.37,1.51-2.62
		c1.34-0.29,2.45,0.44,2.66,1.72c0.06,0.35-0.03,0.48-0.4,0.47c-0.73-0.02-1.46,0.01-2.19-0.01c-0.51-0.02-0.51,0.21-0.31,0.56
		c0.32,0.56,0.86,0.65,1.43,0.63C163.88,327.46,164.31,327.27,164.72,327.05z"/>
	<path class="st4" d="M100.04,326.54c0-0.38,0-0.75,0-1.13c0-0.22,0.04-0.46-0.31-0.46c-0.28,0-0.23-0.22-0.22-0.39
		c0-0.16-0.07-0.4,0.21-0.4c0.33,0,0.31-0.21,0.33-0.44c0.11-1.19,0.82-1.76,2.01-1.66c0.28,0.02,0.55-0.03,0.54,0.43
		c-0.01,0.4-0.16,0.47-0.51,0.47c-0.31,0-0.66,0.05-0.75,0.41c-0.07,0.28-0.38,0.71,0.27,0.78c0.23,0.03,0.18,0.22,0.17,0.36
		c-0.01,0.16,0.08,0.41-0.19,0.41c-0.45,0.01-0.34,0.31-0.34,0.56c-0.01,0.73-0.04,1.46,0.01,2.19c0.04,0.57-0.31,0.45-0.63,0.46
		c-0.35,0.01-0.67,0.05-0.6-0.49C100.08,327.3,100.04,326.92,100.04,326.54z"/>
	<path class="st5" d="M138.4,326.47c0.26-0.76,0.46-1.34,0.66-1.92c0.11-0.32,1.07-0.57,1.29-0.34c0.09,0.09,0.05,0.21,0.01,0.31
		c-0.42,1.11-0.86,2.22-1.26,3.34c-0.12,0.32-0.33,0.31-0.57,0.3c-0.26-0.02-0.57,0.12-0.72-0.28c-0.44-1.13-0.92-2.24-1.38-3.36
		c-0.05-0.11-0.11-0.24,0.06-0.33c0.41-0.21,1.11,0.06,1.27,0.5C137.96,325.22,138.15,325.75,138.4,326.47z"/>
	<path class="st5" d="M116.07,324.9c0.62-0.72,1.16-1.36,1.7-2c0.06,0.04,0.11,0.06,0.12,0.09c0.06,0.37-0.16,0.85,0.11,1.08
		c0.21,0.18,0.67,0.09,1.02,0.08c0.32-0.01,0.36,0.15,0.36,0.41c0,0.26-0.05,0.4-0.36,0.41c-0.36,0.01-0.85-0.19-1.05,0.12
		c-0.17,0.27-0.05,0.73-0.06,1.1c0,0.15,0,0.31,0,0.46c0.02,0.67,0.31,0.91,0.98,0.77c0.15-0.03,0.29-0.08,0.44-0.11
		c0.22,0.67-0.12,0.86-0.71,0.92c-1.33,0.14-1.91-0.34-1.91-1.68c0-0.31-0.02-0.62,0.01-0.93
		C116.73,325.22,116.68,324.9,116.07,324.9z"/>
	<path class="st5" d="M135.55,325.01c-0.46-0.13-0.9-0.39-1.4-0.3c-0.17,0.03-0.37,0.06-0.39,0.29c-0.02,0.19,0.15,0.24,0.29,0.31
		c0.39,0.2,0.8,0.39,1.16,0.62c0.48,0.31,0.76,0.76,0.62,1.35c-0.14,0.58-0.56,0.88-1.14,0.94c-0.53,0.06-1.05,0.02-1.58-0.1
		c-0.36-0.08-0.34-0.31-0.29-0.55c0.06-0.3,0.26-0.1,0.41-0.08c0.39,0.06,0.77,0.18,1.18,0.08c0.18-0.04,0.35-0.1,0.38-0.31
		c0.02-0.18-0.12-0.28-0.25-0.36c-0.39-0.21-0.79-0.39-1.17-0.62c-0.46-0.28-0.81-0.67-0.67-1.25c0.14-0.58,0.58-0.85,1.15-0.95
		c0.38-0.07,0.75-0.03,1.12,0.02C135.5,324.18,135.78,324.43,135.55,325.01z"/>
	<path class="st6" d="M165.84,325.16c0-0.86,0.02-1.72-0.01-2.58c-0.02-0.54,0.33-0.4,0.62-0.41c0.29,0,0.62-0.11,0.61,0.42
		c-0.03,1.72-0.03,3.44,0,5.16c0.01,0.54-0.34,0.4-0.62,0.4c-0.28,0-0.63,0.13-0.61-0.41C165.87,326.88,165.84,326.02,165.84,325.16
		z"/>
	<path class="st3" d="M199.8,325.13c0-0.82,0.03-1.64-0.01-2.46c-0.03-0.51,0.22-0.53,0.6-0.51c0.32,0.02,0.65-0.09,0.64,0.47
		c-0.04,1.68-0.04,3.37,0,5.05c0.01,0.56-0.31,0.45-0.63,0.47c-0.36,0.02-0.63,0.03-0.6-0.5
		C199.84,326.82,199.8,325.97,199.8,325.13z"/>
	<path class="st5" d="M153.17,325.26c0.16-0.25,0.31-0.52,0.49-0.76c0.2-0.28,0.47-0.49,0.84-0.43c0.3,0.05,0.75,0.03,0.63,0.54
		c-0.08,0.33-0.06,0.8-0.71,0.56c-0.64-0.24-1.3,0.5-1.35,1.41c-0.02,0.4-0.02,0.8,0,1.19c0.03,0.56-0.38,0.36-0.64,0.38
		c-0.26,0.02-0.59,0.11-0.58-0.38c0.03-1.08,0.02-2.17,0-3.25c-0.01-0.52,0.37-0.34,0.61-0.34c0.24,0,0.63-0.18,0.6,0.34
		c-0.01,0.24,0,0.48,0,0.72C153.1,325.24,153.14,325.25,153.17,325.26z"/>
	<path class="st5" d="M171.97,325.31c0.32-0.2,0.34-0.49,0.51-0.69c0.26-0.32,0.53-0.62,0.99-0.53c0.28,0.05,0.7,0.07,0.58,0.52
		c-0.08,0.3-0.02,0.83-0.7,0.57c-0.65-0.24-1.31,0.48-1.37,1.39c-0.02,0.29-0.04,0.58,0,0.86c0.1,0.64-0.18,0.79-0.76,0.74
		c-0.33-0.03-0.47-0.09-0.46-0.45c0.02-1.04,0.03-2.08,0-3.12c-0.02-0.59,0.37-0.41,0.66-0.43c0.34-0.03,0.63-0.01,0.56,0.47
		C171.95,324.82,171.97,325.03,171.97,325.31z"/>
	<path class="st7" d="M170,324.2c-0.4,0.58-0.74,1.09-1.11,1.58c-0.19,0.25-0.19,0.43,0.01,0.68c0.41,0.51,0.78,1.06,1.21,1.65
		c-0.83,0.09-1.47,0.13-1.99-0.68c-0.87-1.35-0.88-1.27-0.03-2.63C168.59,323.99,169.22,324.17,170,324.2z"/>
	<path class="st5" d="M93.52,326.18c0,0.53-0.02,1.06,0,1.59c0.02,0.56-0.39,0.36-0.65,0.37c-0.27,0.02-0.59,0.11-0.57-0.38
		c0.03-1.08,0.02-2.17,0-3.25c-0.01-0.52,0.37-0.33,0.61-0.34c0.24,0,0.62-0.17,0.6,0.35C93.51,325.07,93.52,325.62,93.52,326.18z"
		/>
	<path class="st5" d="M179.56,326.07c0-0.51,0.02-1.02,0-1.53c-0.02-0.56,0.39-0.35,0.65-0.37c0.27-0.02,0.58-0.11,0.57,0.38
		c-0.03,1.08-0.02,2.17,0,3.25c0.01,0.52-0.37,0.33-0.61,0.34c-0.24,0-0.62,0.17-0.6-0.35
		C179.57,327.22,179.56,326.64,179.56,326.07z"/>
	<path class="st5" d="M130.54,326.11c0-0.44,0.03-0.89-0.01-1.33c-0.05-0.48,0.09-0.65,0.61-0.64c0.5,0.01,0.64,0.13,0.62,0.63
		c-0.04,0.97-0.04,1.95,0,2.92c0.02,0.56-0.33,0.45-0.64,0.46c-0.32,0.01-0.62,0.06-0.58-0.45
		C130.57,327.18,130.54,326.64,130.54,326.11z"/>
	<path class="st8" d="M192.78,328.26c-0.43-0.05-0.71-0.28-0.69-0.73c0.01-0.45,0.3-0.69,0.73-0.68c0.44,0.01,0.71,0.28,0.7,0.72
		C193.51,328.01,193.22,328.24,192.78,328.26z"/>
	<path class="st8" d="M131.74,322.62c-0.06,0.34-0.24,0.58-0.59,0.58c-0.35,0.01-0.59-0.2-0.6-0.56c-0.01-0.36,0.22-0.57,0.57-0.58
		C131.48,322.05,131.67,322.28,131.74,322.62z"/>
	<path class="st8" d="M92.9,322.06c0.35,0.03,0.59,0.21,0.6,0.57c0,0.35-0.23,0.58-0.58,0.58c-0.34,0-0.58-0.21-0.59-0.56
		C92.32,322.28,92.55,322.1,92.9,322.06z"/>
	<path class="st8" d="M180.12,323.21c-0.33-0.07-0.57-0.25-0.55-0.61c0.02-0.36,0.26-0.55,0.61-0.53c0.35,0.02,0.58,0.24,0.56,0.59
		C180.72,323,180.48,323.19,180.12,323.21z"/>
	<path class="st3" d="M173.3,261.1c-0.05-1.08,0.14-2.12,0.6-3.09c0.59-1.25,2-2.09,3.1-1.96c2.3,0.27,2.82,1.24,3.19,2.62
		c0.49,1.8,0.47,3.65-0.23,5.44c-0.67,1.72-1.8,2.03-3.38,2.04c-1.95,0.01-2.97-1.81-3.17-3.41
		C173.35,262.19,173.31,261.65,173.3,261.1z"/>
	<path class="st3" d="M193.15,261.1c-0.05-1.08,0.14-2.12,0.6-3.09c0.59-1.25,2-2.09,3.1-1.96c2.3,0.27,2.82,1.24,3.19,2.62
		c0.49,1.8,0.47,3.65-0.23,5.44c-0.67,1.72-1.79,2.03-3.38,2.04c-1.98,0.01-2.97-1.84-3.17-3.41
		C193.19,262.19,193.15,261.65,193.15,261.1z"/>
	<path class="st1" d="M92.73,303.37c0.11,1.88-0.59,3.69-2.17,5.12c-1.13,1.02-2.49,1.52-3.99,1.64c-1.3,0.1-2.58,0.05-3.82-0.4
		c-2.17-0.79-3.56-2.33-4.1-4.51c-0.42-1.68-0.38-3.43,0.31-5.08c0.87-2.06,2.46-3.36,4.61-3.81c2.32-0.49,4.6-0.32,6.6,1.17
		c1.29,0.96,2.06,2.25,2.43,3.8C92.74,301.91,92.7,302.52,92.73,303.37z"/>
	<path class="st1" d="M162.24,308.96c0,0.18,0.01,0.36,0,0.53c-0.06,0.6,0.24,1.3-0.5,1.71c-0.55,0.3-1.06,0.63-1.72,0.67
		c-1.25,0.09-1.88-0.29-2.07-1.45c-0.1-0.61,0.11-1.19,0.6-1.63c0.95-0.86,2.15-1.24,3.32-1.68c0.33-0.12,0.38,0.03,0.37,0.31
		C162.24,307.94,162.24,308.45,162.24,308.96z"/>
	<path class="st1" d="M207.69,305.08c-0.91,0-1.82-0.03-2.73,0.01c-0.43,0.02-0.58-0.13-0.49-0.52c0.33-1.49,0.99-2.49,2.69-2.68
		c2.15-0.24,3.28,0.67,3.77,2.51c0.14,0.52,0.07,0.71-0.51,0.69C209.51,305.05,208.6,305.08,207.69,305.08z"/>
	<path class="st1" d="M109.84,305.08c-0.93,0-1.87-0.03-2.8,0.01c-0.46,0.02-0.51-0.18-0.48-0.54c0.13-1.28,1.19-2.46,2.45-2.65
		c0.72-0.11,1.45-0.11,2.15,0.15c1.2,0.46,1.66,1.48,1.93,2.62c0.07,0.31-0.05,0.42-0.39,0.41
		C111.75,305.06,110.8,305.08,109.84,305.08z"/>
	<path class="st9" d="M110.02,326.4c0.02-0.67,0.18-1.29,0.56-1.83c0.25-0.36,0.58-0.61,1.07-0.5c0.52,0.12,0.7,0.51,0.76,0.97
		c0.08,0.66-0.09,1.27-0.38,1.86c-0.26,0.52-0.61,0.97-1.27,0.81C110.07,327.53,110.04,326.95,110.02,326.4z"/>
	<path class="st10" d="M156.51,326.17c0.03-0.49,0.08-0.95,0.49-1.27c0.59-0.45,1.42-0.19,1.66,0.51c0.14,0.41,0.14,0.82,0.06,1.24
		c-0.12,0.6-0.45,0.95-1.07,0.97c-0.59,0.02-0.98-0.35-1.1-1.02C156.52,326.46,156.52,326.31,156.51,326.17z"/>
	<path class="st11" d="M142.12,326.13c0.03-0.49,0.1-0.95,0.52-1.25c0.58-0.41,1.39-0.16,1.62,0.51c0.14,0.4,0.17,0.82,0.07,1.24
		c-0.16,0.69-0.51,1.02-1.11,1c-0.6-0.02-0.96-0.37-1.07-1.06C142.13,326.42,142.13,326.27,142.12,326.13z"/>
	<path class="st11" d="M147.45,326.16c0.03-0.49,0.08-0.95,0.5-1.26c0.59-0.45,1.42-0.18,1.66,0.53c0.14,0.41,0.14,0.82,0.06,1.24
		c-0.12,0.6-0.46,0.95-1.08,0.96c-0.59,0.01-0.97-0.35-1.1-1.02C147.46,326.45,147.46,326.3,147.45,326.16z"/>
	<path class="st12" d="M176.87,326.79c0.12,0.59-0.22,0.76-0.66,0.81c-0.3,0.03-0.51-0.11-0.52-0.44c-0.01-0.33,0.59-0.83,0.99-0.81
		C177.07,326.37,176.81,326.69,176.87,326.79z"/>
	<path class="st11" d="M103.36,326.23c0.02-0.61,0.1-1.16,0.69-1.44c0.61-0.29,1.27,0.02,1.47,0.67c0.19,0.6,0.17,1.19-0.15,1.72
		c-0.27,0.47-0.74,0.52-1.22,0.38C103.45,327.36,103.43,326.76,103.36,326.23z"/>
	<path class="st13" d="M189.07,325.77c-0.13,0-0.27,0.02-0.4,0c-0.19-0.04-0.5,0.16-0.56-0.15c-0.04-0.23,0.13-0.46,0.34-0.61
		c0.42-0.3,1.17-0.2,1.43,0.2c0.09,0.14,0.23,0.31,0.14,0.48c-0.08,0.17-0.28,0.07-0.43,0.08
		C189.43,325.78,189.25,325.77,189.07,325.77z"/>
	<path class="st13" d="M162.8,325.77c-0.13,0-0.27,0.02-0.4,0c-0.18-0.03-0.47,0.12-0.53-0.12c-0.06-0.24,0.11-0.48,0.31-0.62
		c0.35-0.25,0.75-0.25,1.14-0.1c0.3,0.11,0.5,0.39,0.47,0.67c-0.04,0.33-0.39,0.13-0.59,0.17
		C163.07,325.79,162.93,325.77,162.8,325.77z"/>
</g>
</svg>
