<svg width="48" height="48" viewBox="0 0 48 48" fill="none" xmlns="http://www.w3.org/2000/svg">
<path d="M24 0C19.2533 0 14.6131 1.40758 10.6663 4.04473C6.71954 6.68188 3.6434 10.4302 1.8269 14.8156C0.0103989 19.201 -0.464881 24.0266 0.461164 28.6822C1.38721 33.3377 3.67299 37.6141 7.02945 40.9706C10.3859 44.327 14.6623 46.6128 19.3178 47.5388C23.9734 48.4649 28.799 47.9896 33.1844 46.1731C37.5698 44.3566 41.3181 41.2805 43.9553 37.3337C46.5924 33.3869 48 28.7467 48 24C48 17.6348 45.4714 11.5303 40.9706 7.02944C36.4697 2.52856 30.3652 0 24 0V0ZM37.8851 14.7436L27.2727 25.3549V34.8C27.2727 35.668 26.9279 36.5004 26.3142 37.1142C25.7004 37.7279 24.868 38.0727 24 38.0727C23.132 38.0727 22.2996 37.7279 21.6858 37.1142C21.0721 36.5004 20.7273 35.668 20.7273 34.8V24C20.728 23.7845 20.7499 23.5697 20.7927 23.3585C20.8113 23.2614 20.8473 23.172 20.8756 23.0782C20.9251 22.8467 21.0168 22.6263 21.1462 22.428C21.1898 22.3473 21.2258 22.2644 21.2771 22.1858C21.3975 22.0049 21.5357 21.8364 21.6895 21.6829L33.2564 10.1149C33.5603 9.81098 33.9211 9.56989 34.3182 9.40541C34.7153 9.24092 35.1409 9.15627 35.5707 9.15627C36.0005 9.15627 36.4262 9.24092 36.8233 9.40541C37.2204 9.56989 37.5812 9.81098 37.8851 10.1149C38.189 10.4188 38.4301 10.7796 38.5946 11.1767C38.7591 11.5738 38.8437 11.9995 38.8437 12.4293C38.8437 12.8591 38.7591 13.2847 38.5946 13.6818C38.4301 14.0789 38.189 14.4397 37.8851 14.7436V14.7436Z" fill="#011E41"/>
</svg>
