<svg width="48" height="48" viewBox="0 0 48 48" fill="none" xmlns="http://www.w3.org/2000/svg">
<path d="M37.9559 26.633C37.9557 26.5459 37.9376 26.4598 37.9028 26.3799C37.8679 26.3001 37.817 26.2283 37.7533 26.169C37.6895 26.1096 37.6142 26.064 37.5321 26.0349C37.45 26.0059 37.3628 25.994 37.2759 26H10.7259C10.6389 25.9938 10.5516 26.0056 10.4694 26.0346C10.3872 26.0636 10.3118 26.1092 10.2479 26.1686C10.1841 26.2279 10.1331 26.2998 10.0982 26.3797C10.0632 26.4596 10.0451 26.5458 10.0449 26.633C10.3037 29.1826 11.2834 31.6058 12.8693 33.6188C14.4552 35.6319 16.5817 37.1516 18.9999 38V44H17.9999C17.4695 44 16.9608 44.2107 16.5857 44.5858C16.2106 44.9609 15.9999 45.4696 15.9999 46C15.9999 46.5304 16.2106 47.0391 16.5857 47.4142C16.9608 47.7893 17.4695 48 17.9999 48H29.9999C30.5304 48 31.0391 47.7893 31.4141 47.4142C31.7892 47.0391 31.9999 46.5304 31.9999 46C31.9999 45.4696 31.7892 44.9609 31.4141 44.5858C31.0391 44.2107 30.5304 44 29.9999 44H28.9999V38C31.4185 37.1521 33.5454 35.6325 35.1316 33.6194C36.7177 31.6063 37.6974 29.1828 37.9559 26.633V26.633ZM12.9999 4V23C13.0007 23.265 13.1063 23.5189 13.2937 23.7062C13.4811 23.8936 13.7349 23.9992 13.9999 24H33.9999C34.2649 23.9992 34.5188 23.8936 34.7062 23.7062C34.8935 23.5189 34.9991 23.265 34.9999 23V4C35.5304 4 36.0391 3.78929 36.4141 3.41421C36.7892 3.03914 36.9999 2.53043 36.9999 2C36.9999 1.46957 36.7892 0.960859 36.4141 0.585786C36.0391 0.210714 35.5304 0 34.9999 0L12.9999 0C12.4695 0 11.9608 0.210714 11.5857 0.585786C11.2106 0.960859 10.9999 1.46957 10.9999 2C10.9999 2.53043 11.2106 3.03914 11.5857 3.41421C11.9608 3.78929 12.4695 4 12.9999 4V4ZM17.4999 6H20.9999C21.2651 6 21.5195 6.10536 21.707 6.29289C21.8946 6.48043 21.9999 6.73478 21.9999 7C21.9999 7.26522 21.8946 7.51957 21.707 7.70711C21.5195 7.89464 21.2651 8 20.9999 8H18.9099C18.8179 8.25869 18.6566 8.48712 18.4435 8.66033C18.2305 8.83354 17.9739 8.94486 17.7019 8.98213C17.4299 9.01941 17.1528 8.9812 16.901 8.87168C16.6493 8.76217 16.4324 8.58556 16.2742 8.36115C16.116 8.13674 16.0225 7.87317 16.004 7.59923C15.9854 7.32528 16.0425 7.05151 16.169 6.80782C16.2955 6.56413 16.4866 6.35989 16.7213 6.21743C16.956 6.07496 17.2254 5.99975 17.4999 6V6Z" fill="#011E41"/>
</svg>
