<svg width="48" height="48" viewBox="0 0 48 48" fill="none" xmlns="http://www.w3.org/2000/svg">
<path d="M24.5 41H21.5C20.5717 41 19.6815 41.3688 19.0251 42.0251C18.3687 42.6815 18 43.5717 18 44.5C18 45.4283 18.3687 46.3185 19.0251 46.9749C19.6815 47.6312 20.5717 48 21.5 48H24.5C25.4283 48 26.3185 47.6312 26.9749 46.9749C27.6313 46.3185 28 45.4283 28 44.5C28 43.5717 27.6313 42.6815 26.9749 42.0251C26.3185 41.3688 25.4283 41 24.5 41V41ZM30.5 31H21.5C20.5717 31 19.6815 31.3688 19.0251 32.0251C18.3687 32.6815 18 33.5717 18 34.5C18 35.4283 18.3687 36.3185 19.0251 36.9749C19.6815 37.6312 20.5717 38 21.5 38H30.5C31.4283 38 32.3185 37.6312 32.9749 36.9749C33.6312 36.3185 34 35.4283 34 34.5C34 33.5717 33.6312 32.6815 32.9749 32.0251C32.3185 31.3688 31.4283 31 30.5 31ZM32 24.5C32 23.5717 31.6313 22.6815 30.9749 22.0251C30.3185 21.3687 29.4283 21 28.5 21H12.5C11.5717 21 10.6815 21.3687 10.0251 22.0251C9.36875 22.6815 9 23.5717 9 24.5C9 25.4283 9.36875 26.3185 10.0251 26.9749C10.6815 27.6313 11.5717 28 12.5 28H28.5C29.4283 28 30.3185 27.6313 30.9749 26.9749C31.6313 26.3185 32 25.4283 32 24.5V24.5ZM39.5 11H13.5C12.5717 11 11.6815 11.3687 11.0251 12.0251C10.3687 12.6815 10 13.5717 10 14.5C10 15.4283 10.3687 16.3185 11.0251 16.9749C11.6815 17.6313 12.5717 18 13.5 18H39.5C40.4283 18 41.3185 17.6313 41.9749 16.9749C42.6312 16.3185 43 15.4283 43 14.5C43 13.5717 42.6312 12.6815 41.9749 12.0251C41.3185 11.3687 40.4283 11 39.5 11V11ZM44.5 0H3.5C2.57174 0 1.6815 0.368749 1.02513 1.02513C0.368749 1.6815 0 2.57174 0 3.5C0 4.42826 0.368749 5.3185 1.02513 5.97487C1.6815 6.63125 2.57174 7 3.5 7H44.5C45.4283 7 46.3185 6.63125 46.9749 5.97487C47.6312 5.3185 48 4.42826 48 3.5C48 2.57174 47.6312 1.6815 46.9749 1.02513C46.3185 0.368749 45.4283 0 44.5 0Z" fill="#011E41"/>
</svg>
