<svg width="48" height="48" viewBox="0 0 48 48" fill="none" xmlns="http://www.w3.org/2000/svg">
<path d="M20.4913 9.621L29.4313 18.561C29.574 18.7031 29.7439 18.8148 29.9309 18.8894C30.1179 18.964 30.3181 18.9999 30.5193 18.995C30.703 18.9999 30.8857 18.9673 31.0564 18.8994C31.2271 18.8315 31.3822 18.7297 31.5123 18.6L44.9913 5.12V11.5C44.9913 11.8978 45.1494 12.2794 45.4307 12.5607C45.712 12.842 46.0935 13 46.4913 13C46.8892 13 47.2707 12.842 47.552 12.5607C47.8333 12.2794 47.9913 11.8978 47.9913 11.5V1.5C47.9913 1.10218 47.8333 0.720644 47.552 0.43934C47.2707 0.158035 46.8892 0 46.4913 0L36.4913 0C36.0935 0 35.712 0.158035 35.4307 0.43934C35.1494 0.720644 34.9913 1.10218 34.9913 1.5C34.9913 1.89782 35.1494 2.27936 35.4307 2.56066C35.712 2.84196 36.0935 3 36.4913 3H42.8703L30.4913 15.379L21.6123 6.5C21.3038 6.22477 20.9048 6.07267 20.4913 6.07267C20.0779 6.07267 19.6789 6.22477 19.3703 6.5L0.430349 25.44C0.157242 25.723 0.00622679 26.102 0.0098286 26.4953C0.0134304 26.8886 0.171361 27.2647 0.449606 27.5427C0.72785 27.8207 1.10415 27.9783 1.49744 27.9815C1.89074 27.9847 2.26958 27.8334 2.55235 27.56L20.4913 9.621Z" fill="#011E41"/>
<path d="M47.1422 25H10.8422C10.6157 25.0021 10.3992 25.0937 10.24 25.2548C10.0807 25.4159 9.99165 25.6335 9.99219 25.86V28H44.0422C44.1672 27.9991 44.2912 28.023 44.4068 28.0704C44.5225 28.1178 44.6276 28.1878 44.716 28.2762C44.8044 28.3646 44.8744 28.4697 44.9218 28.5854C44.9692 28.701 44.9931 28.825 44.9922 28.95V43H47.1422C47.2538 43 47.3643 42.978 47.4675 42.9353C47.5706 42.8926 47.6643 42.83 47.7432 42.751C47.8222 42.6721 47.8848 42.5784 47.9275 42.4753C47.9702 42.3722 47.9922 42.2616 47.9922 42.15V25.86C47.9927 25.6335 47.9037 25.4159 47.7444 25.2548C47.5852 25.0937 47.3687 25.0021 47.1422 25Z" fill="#011E41"/>
<path d="M42.1422 30H5.84219C5.61676 30 5.40055 30.0896 5.24115 30.249C5.08174 30.4084 4.99219 30.6246 4.99219 30.85V47.14C4.99165 47.3665 5.08072 47.5841 5.23995 47.7452C5.39919 47.9063 5.61568 47.9979 5.84219 48H42.1422C42.3687 47.9979 42.5852 47.9063 42.7444 47.7452C42.9037 47.5841 42.9927 47.3665 42.9922 47.14V30.85C42.9922 30.7384 42.9702 30.6278 42.9275 30.5247C42.8848 30.4216 42.8222 30.3279 42.7432 30.249C42.6643 30.17 42.5706 30.1074 42.4675 30.0647C42.3643 30.022 42.2538 30 42.1422 30V30ZM10.9922 41C10.5966 41 10.2099 40.8827 9.88105 40.6629C9.55215 40.4432 9.29581 40.1308 9.14443 39.7654C8.99306 39.3999 8.95345 38.9978 9.03062 38.6098C9.10779 38.2219 9.29827 37.8655 9.57798 37.5858C9.85768 37.3061 10.214 37.1156 10.602 37.0384C10.99 36.9613 11.3921 37.0009 11.7576 37.1522C12.123 37.3036 12.4354 37.56 12.6551 37.8889C12.8749 38.2178 12.9922 38.6044 12.9922 39C12.9906 39.5299 12.7794 40.0377 12.4047 40.4125C12.0299 40.7872 11.5221 40.9984 10.9922 41V41ZM23.9922 45C22.8055 45 21.6455 44.6481 20.6588 43.9888C19.6721 43.3295 18.903 42.3925 18.4489 41.2961C17.9948 40.1997 17.876 38.9933 18.1075 37.8295C18.339 36.6656 18.9104 35.5965 19.7495 34.7574C20.5887 33.9182 21.6578 33.3468 22.8216 33.1153C23.9855 32.8838 25.1919 33.0026 26.2883 33.4567C27.3846 33.9108 28.3217 34.6799 28.981 35.6666C29.6403 36.6533 29.9922 37.8133 29.9922 39C29.9909 40.5909 29.3583 42.1162 28.2334 43.2412C27.1084 44.3661 25.5831 44.9987 23.9922 45ZM36.9922 41C36.5966 41 36.2099 40.8827 35.881 40.6629C35.5521 40.4432 35.2958 40.1308 35.1444 39.7654C34.9931 39.3999 34.9534 38.9978 35.0306 38.6098C35.1078 38.2219 35.2983 37.8655 35.578 37.5858C35.8577 37.3061 36.214 37.1156 36.602 37.0384C36.99 36.9613 37.3921 37.0009 37.7576 37.1522C38.123 37.3036 38.4354 37.56 38.6551 37.8889C38.8749 38.2178 38.9922 38.6044 38.9922 39C38.9906 39.5299 38.7794 40.0377 38.4047 40.4125C38.0299 40.7872 37.5221 40.9984 36.9922 41V41Z" fill="#011E41"/>
</svg>
