<svg width="48" height="48" viewBox="0 0 48 48" fill="none" xmlns="http://www.w3.org/2000/svg">
<path d="M40.5 41C40.8978 41 41.2794 40.842 41.5607 40.5607C41.842 40.2794 42 39.8978 42 39.5C42 39.1022 41.842 38.7206 41.5607 38.4393C41.2794 38.158 40.8978 38 40.5 38H37V36H40.5C40.8978 36 41.2794 35.842 41.5607 35.5607C41.842 35.2794 42 34.8978 42 34.5C42 34.1022 41.842 33.7206 41.5607 33.4393C41.2794 33.158 40.8978 33 40.5 33H37V31H39C39.5299 30.9984 40.0377 30.7872 40.4125 30.4125C40.7872 30.0377 40.9984 29.5299 41 29V2C40.9984 1.47005 40.7872 0.962265 40.4125 0.587535C40.0377 0.212805 39.5299 0.00158273 39 0L9 0C8.47005 0.00158273 7.96227 0.212805 7.58753 0.587535C7.2128 0.962265 7.00158 1.47005 7 2V29C7.00158 29.5299 7.2128 30.0377 7.58753 30.4125C7.96227 30.7872 8.47005 30.9984 9 31H11V33H7.5C7.10218 33 6.72064 33.158 6.43934 33.4393C6.15804 33.7206 6 34.1022 6 34.5C6 34.8978 6.15804 35.2794 6.43934 35.5607C6.72064 35.842 7.10218 36 7.5 36H11V38H7.5C7.10218 38 6.72064 38.158 6.43934 38.4393C6.15804 38.7206 6 39.1022 6 39.5C6 39.8978 6.15804 40.2794 6.43934 40.5607C6.72064 40.842 7.10218 41 7.5 41H11V43H7.5C7.10218 43 6.72064 43.158 6.43934 43.4393C6.15804 43.7206 6 44.1022 6 44.5C6 44.8978 6.15804 45.2794 6.43934 45.5607C6.72064 45.842 7.10218 46 7.5 46H11V46.5C11 46.8978 11.158 47.2794 11.4393 47.5607C11.7206 47.842 12.1022 48 12.5 48C12.8978 48 13.2794 47.842 13.5607 47.5607C13.842 47.2794 14 46.8978 14 46.5V46H34V46.5C34 46.8978 34.158 47.2794 34.4393 47.5607C34.7206 47.842 35.1022 48 35.5 48C35.8978 48 36.2794 47.842 36.5607 47.5607C36.842 47.2794 37 46.8978 37 46.5V46H40.5C40.8978 46 41.2794 45.842 41.5607 45.5607C41.842 45.2794 42 44.8978 42 44.5C42 44.1022 41.842 43.7206 41.5607 43.4393C41.2794 43.158 40.8978 43 40.5 43H37V41H40.5ZM34 31V33H14V31H34ZM34 36V38H14V36H34ZM34 41V43H14V41H34ZM36 28C35.6044 28 35.2178 27.8827 34.8889 27.6629C34.56 27.4432 34.3036 27.1308 34.1522 26.7654C34.0009 26.3999 33.9613 25.9978 34.0384 25.6098C34.1156 25.2219 34.3061 24.8655 34.5858 24.5858C34.8655 24.3061 35.2219 24.1156 35.6098 24.0384C35.9978 23.9613 36.3999 24.0009 36.7654 24.1522C37.1308 24.3036 37.4432 24.56 37.6629 24.8889C37.8827 25.2178 38 25.6044 38 26C37.9984 26.5299 37.7872 27.0377 37.4125 27.4125C37.0377 27.7872 36.5299 27.9984 36 28ZM10 7C10.0008 6.73503 10.1064 6.48113 10.2938 6.29377C10.4811 6.1064 10.735 6.00079 11 6H37C37.265 6.00079 37.5189 6.1064 37.7062 6.29377C37.8936 6.48113 37.9992 6.73503 38 7V19C37.9992 19.265 37.8936 19.5189 37.7062 19.7062C37.5189 19.8936 37.265 19.9992 37 20H11C10.735 19.9992 10.4811 19.8936 10.2938 19.7062C10.1064 19.5189 10.0008 19.265 10 19V7ZM10 26C10 25.6044 10.1173 25.2178 10.3371 24.8889C10.5568 24.56 10.8692 24.3036 11.2346 24.1522C11.6001 24.0009 12.0022 23.9613 12.3902 24.0384C12.7781 24.1156 13.1345 24.3061 13.4142 24.5858C13.6939 24.8655 13.8844 25.2219 13.9616 25.6098C14.0387 25.9978 13.9991 26.3999 13.8478 26.7654C13.6964 27.1308 13.44 27.4432 13.1111 27.6629C12.7822 27.8827 12.3956 28 12 28C11.4701 27.9984 10.9623 27.7872 10.5875 27.4125C10.2128 27.0377 10.0016 26.5299 10 26Z" fill="#011E41"/>
</svg>
