<svg width="48" height="48" viewBox="0 0 48 48" fill="none" xmlns="http://www.w3.org/2000/svg">
<path fill-rule="evenodd" clip-rule="evenodd" d="M12.7127 3.28158C12.5664 3.49642 12.5 3.80701 12.5 4C12.5 4.82843 11.8284 5.5 11 5.5C10.1716 5.5 9.5 4.82843 9.5 4C9.5 3.35965 9.66992 2.42024 10.2328 1.59342C10.85 0.686711 11.8929 0 13.3636 0H13.3748H13.3863H13.3981H13.4101H13.4223H13.4348H13.4476H13.4606H13.4739H13.4875H13.5013H13.5153H13.5296H13.5442H13.559H13.574H13.5894H13.6049H13.6207H13.6368H13.6531H13.6696H13.6864H13.7035H13.7208H13.7383H13.756H13.7741H13.7923H13.8108H13.8295H13.8485H13.8677H13.8871H13.9068H13.9267H13.9468H13.9672H13.9878H14.0087H14.0297H14.051H14.0725H14.0943H14.1163H14.1385H14.1609H14.1836H14.2064H14.2295H14.2529H14.2764H14.3002H14.3242H14.3484H14.3728H14.3974H14.4223H14.4474H14.4726H14.4981H14.5239H14.5498H14.5759H14.6023H14.6288H14.6556H14.6826H14.7097H14.7371H14.7647H14.7925H14.8205H14.8487H14.8771H14.9057H14.9346H14.9636H14.9928H15.0222H15.0518H15.0816H15.1116H15.1418H15.1722H15.2027H15.2335H15.2645H15.2956H15.327H15.3585H15.3902H15.4221H15.4542H15.4865H15.519H15.5516H15.5844H15.6175H15.6506H15.684H15.7176H15.7513H15.7852H15.8193H15.8536H15.888H15.9227H15.9575H15.9924H16.0276H16.0629H16.0984H16.134H16.1698H16.2058H16.242H16.2783H16.3148H16.3515H16.3883H16.4253H16.4624H16.4997H16.5372H16.5748H16.6126H16.6506H16.6887H16.7269H16.7654H16.8039H16.8427H16.8815H16.9206H16.9598H16.9991H17.0386H17.0782H17.118H17.158H17.198H17.2383H17.2787H17.3192H17.3598H17.4006H17.4416H17.4827H17.5239H17.5653H17.6068H17.6484H17.6902H17.7321H17.7742H17.8164H17.8587H17.9012H17.9438H17.9865H18.0293H18.0723H18.1154H18.1587H18.202H18.2455H18.2891H18.3329H18.3767H18.4207H18.4648H18.5091H18.5534H18.5979H18.6425H18.6872H18.732H18.777H18.8221H18.8672H18.9125H18.9579H19.0034H19.0491H19.0948H19.1407H19.1866H19.2327H19.2789H19.3251H19.3715H19.418H19.4646H19.5113H19.5581H19.605H19.652H19.6991H19.7463H19.7936H19.841H19.8885H19.9361H19.9838H20.0316H20.0795H20.1274H20.1755H20.2236H20.2719H20.3202H20.3686H20.4171H20.4657H20.5144H20.5632H20.612H20.661H20.71H20.7591H20.8082H20.8575H20.9068H20.9563H21.0058H21.0553H21.105H21.1547H21.2045H21.2544H21.3043H21.3543H21.4044H21.4546H21.5048H21.5551H21.6055H21.6559H21.7064H21.757H21.8076H21.8583H21.909H21.9599H22.0107H22.0617H22.1127H22.1637H22.2149H22.266H22.3173H22.3685H22.4199H22.4713H22.5227H22.5742H22.6258H22.6774H22.729H22.7807H22.8325H22.8843H22.9361H22.988H23.0399H23.0919H23.1439H23.196H23.2481H23.3003H23.3524H23.4047H23.4569H23.5092H23.5616H23.6139H23.6663H23.7188H23.7713H23.8238H23.8763H23.9289H23.9815H24.0341H24.0868H24.1394H24.1922H24.2449H24.2977H24.3504H24.4033H24.4561H24.5089H24.5618H24.6147H24.6676H24.7206H24.7735H24.8265H24.8795H24.9325H24.9855H25.0385H25.0916H25.1446H25.1977H25.2508H25.3038H25.3569H25.41H25.4631H25.5162H25.5694H25.6225H25.6756H25.7287H25.7819H25.835H25.8881H25.9413H25.9944H26.0475H26.1007H26.1538H26.2069H26.26H26.3131H26.3662H26.4193H26.4724H26.5255H26.5785H26.6316H26.6846H26.7376H26.7907H26.8437H26.8966H26.9496H27.0026H27.0555H27.1084H27.1613H27.2142H27.267H27.3199H27.3727H27.4254H27.4782H27.5309H27.5837H27.6363H27.689H27.7416H27.7942H27.8468H27.8993H27.9518H28.0043H28.0567H28.1091H28.1615H28.2138H28.2661H28.3184H28.3706H28.4228H28.4749H28.527H28.5791H28.6311H28.6831H28.735H28.7869H28.8387H28.8905H28.9423H28.994H29.0456H29.0972H29.1488H29.2003H29.2517H29.3031H29.3544H29.4057H29.4569H29.5081H29.5592H29.6103H29.6613H29.7122H29.7631H29.8139H29.8646H29.9153H29.9659H30.0165H30.067H30.1174H30.1678H30.2181H30.2683H30.3184H30.3685H30.4185H30.4685H30.5183H30.5681H30.6178H30.6675H30.717H30.7665H30.8159H30.8653H30.9145H30.9637H31.0128H31.0618H31.1107H31.1596H31.2083H31.257H31.3056H31.3541H31.4025H31.4508H31.499H31.5472H31.5952H31.6432H31.6911H31.7388H31.7865H31.8341H31.8816H31.929H31.9763H32.0235H32.0706H32.1176H32.1644H32.2112H32.2579H32.3045H32.351H32.3974H32.4436H32.4898H32.5359H32.5818H32.6276H32.6734H32.719H32.7645H32.8099H32.8552H32.9003H32.9454H32.9903H33.0351H33.0798H33.1244H33.1689H33.2132H33.2575H33.3016H33.3455H33.3894H33.4331H33.4767H33.5202H33.5636H33.6068H33.6499H33.6929H33.7357H33.7784H33.821H33.8634H33.9057H33.9479H33.99H34.0319H34.0736H34.1153H34.1568H34.1981H34.2393H34.2804H34.3213H34.3621H34.4028H34.4433H34.4837H34.5239H34.5639H34.6039H34.6436H34.6833H34.7227H34.7621H34.8012H34.8403H34.8791H34.9178H34.9564H34.9948H35.0331H35.0712H35.1091C35.6819 0 36.4934 0.168805 37.1997 0.706642C37.9771 1.29866 38.5 2.24564 38.5 3.5C38.5 4.32843 37.8284 5 37 5C36.1716 5 35.5 4.32843 35.5 3.5C35.5 3.30124 35.4621 3.20509 35.445 3.17006C35.4281 3.13548 35.4089 3.11377 35.3821 3.09336C35.3499 3.06884 35.3008 3.04279 35.2365 3.02337C35.2057 3.01404 35.1763 3.0078 35.1512 3.00407C35.1389 3.00225 35.1287 3.00119 35.121 3.0006L35.1121 3.00008C35.111 3.00004 35.1102 3.00002 35.1097 3.00001L35.1091 3H35.0712H35.0331H34.9948H34.9564H34.9178H34.8791H34.8403H34.8012H34.7621H34.7227H34.6833H34.6436H34.6039H34.5639H34.5239H34.4837H34.4433H34.4028H34.3621H34.3213H34.2804H34.2393H34.1981H34.1568H34.1153H34.0736H34.0319H33.99H33.9479H33.9057H33.8634H33.821H33.7784H33.7357H33.6929H33.6499H33.6068H33.5636H33.5202H33.4767H33.4331H33.3894H33.3455H33.3016H33.2575H33.2132H33.1689H33.1244H33.0798H33.0351H32.9903H32.9454H32.9003H32.8552H32.8099H32.7645H32.719H32.6734H32.6276H32.5818H32.5359H32.4898H32.4436H32.3974H32.351H32.3045H32.2579H32.2112H32.1644H32.1176H32.0706H32.0235H31.9763H31.929H31.8816H31.8341H31.7865H31.7388H31.6911H31.6432H31.5952H31.5472H31.499H31.4508H31.4025H31.3541H31.3056H31.257H31.2083H31.1596H31.1107H31.0618H31.0128H30.9637H30.9145H30.8653H30.8159H30.7665H30.717H30.6675H30.6178H30.5681H30.5183H30.4685H30.4185H30.3685H30.3184H30.2683H30.2181H30.1678H30.1174H30.067H30.0165H29.9659H29.9153H29.8646H29.8139H29.7631H29.7122H29.6613H29.6103H29.5592H29.5081H29.4569H29.4057H29.3544H29.3031H29.2517H29.2003H29.1488H29.0972H29.0456H28.994H28.9423H28.8905H28.8387H28.7869H28.735H28.6831H28.6311H28.5791H28.527H28.4749H28.4228H28.3706H28.3184H28.2661H28.2138H28.1615H28.1091H28.0567H28.0043H27.9518H27.8993H27.8468H27.7942H27.7416H27.689H27.6363H27.5837H27.5309H27.4782H27.4254H27.3727H27.3199H27.267H27.2142H27.1613H27.1084H27.0555H27.0026H26.9496H26.8966H26.8437H26.7907H26.7376H26.6846H26.6316H26.5785H26.5255H26.4724H26.4193H26.3662H26.3131H26.26H26.2069H26.1538H26.1007H26.0475H26V6.5H36C38.2091 6.5 40 8.29086 40 10.5V35.5323C40 37.7414 38.2091 39.5323 36 39.5323H35.2147L38.5776 45.3569C38.9918 46.0744 38.746 46.9918 38.0286 47.406C37.3111 47.8202 36.3937 47.5744 35.9795 46.8569L34.6187 44.5H12.7802L11.3476 46.9814C10.9333 47.6988 10.016 47.9446 9.29851 47.5304C8.58107 47.1162 8.33526 46.1988 8.74947 45.4814L12.1842 39.5323H12C9.79086 39.5323 8 37.7414 8 35.5323V10.5C8 8.29086 9.79086 6.5 12 6.5H23V3H22.988H22.9361H22.8843H22.8325H22.7807H22.729H22.6774H22.6258H22.5742H22.5227H22.4713H22.4199H22.3685H22.3173H22.266H22.2149H22.1637H22.1127H22.0617H22.0107H21.9599H21.909H21.8583H21.8076H21.757H21.7064H21.6559H21.6055H21.5551H21.5048H21.4546H21.4044H21.3543H21.3043H21.2544H21.2045H21.1547H21.105H21.0553H21.0058H20.9563H20.9068H20.8575H20.8082H20.7591H20.71H20.661H20.612H20.5632H20.5144H20.4657H20.4171H20.3686H20.3202H20.2719H20.2236H20.1755H20.1274H20.0795H20.0316H19.9838H19.9361H19.8885H19.841H19.7936H19.7463H19.6991H19.652H19.605H19.5581H19.5113H19.4646H19.418H19.3715H19.3251H19.2789H19.2327H19.1866H19.1407H19.0948H19.0491H19.0034H18.9579H18.9125H18.8672H18.8221H18.777H18.732H18.6872H18.6425H18.5979H18.5534H18.5091H18.4648H18.4207H18.3767H18.3329H18.2891H18.2455H18.202H18.1587H18.1154H18.0723H18.0293H17.9865H17.9438H17.9012H17.8587H17.8164H17.7742H17.7321H17.6902H17.6484H17.6068H17.5653H17.5239H17.4827H17.4416H17.4006H17.3598H17.3192H17.2787H17.2383H17.198H17.158H17.118H17.0782H17.0386H16.9991H16.9598H16.9206H16.8815H16.8427H16.8039H16.7654H16.7269H16.6887H16.6506H16.6126H16.5748H16.5372H16.4997H16.4624H16.4253H16.3883H16.3515H16.3148H16.2783H16.242H16.2058H16.1698H16.134H16.0984H16.0629H16.0276H15.9924H15.9575H15.9227H15.888H15.8536H15.8193H15.7852H15.7513H15.7176H15.684H15.6506H15.6175H15.5844H15.5516H15.519H15.4865H15.4542H15.4221H15.3902H15.3585H15.327H15.2956H15.2645H15.2335H15.2027H15.1722H15.1418H15.1116H15.0816H15.0518H15.0222H14.9928H14.9636H14.9346H14.9057H14.8771H14.8487H14.8205H14.7925H14.7647H14.7371H14.7097H14.6826H14.6556H14.6288H14.6023H14.5759H14.5498H14.5239H14.4981H14.4726H14.4474H14.4223H14.3974H14.3728H14.3484H14.3242H14.3002H14.2764H14.2529H14.2295H14.2064H14.1836H14.1609H14.1385H14.1163H14.0943H14.0725H14.051H14.0297H14.0087H13.9878H13.9672H13.9468H13.9267H13.9068H13.8871H13.8677H13.8485H13.8295H13.8108H13.7923H13.7741H13.756H13.7383H13.7208H13.7035H13.6864H13.6696H13.6531H13.6368H13.6207H13.6049H13.5894H13.574H13.559H13.5442H13.5296H13.5153H13.5013H13.4875H13.4739H13.4606H13.4476H13.4348H13.4223H13.4101H13.3981H13.3863H13.3748H13.3636C13.1189 3 12.9855 3.05175 12.9151 3.09018C12.8414 3.13037 12.775 3.18999 12.7127 3.28158ZM14.5122 41.5H32.8867L31.7506 39.5323H15.6483L14.5122 41.5ZM12 14C12 12.8954 12.8954 12 14 12H34C35.1046 12 36 12.8954 36 14V22C36 23.1046 35.1046 24 34 24H14C12.8954 24 12 23.1046 12 22V14ZM14 31.5C15.1046 31.5 16 30.6046 16 29.5C16 28.3954 15.1046 27.5 14 27.5C12.8954 27.5 12 28.3954 12 29.5C12 30.6046 12.8954 31.5 14 31.5ZM36 29.5C36 30.6046 35.1046 31.5 34 31.5C32.8954 31.5 32 30.6046 32 29.5C32 28.3954 32.8954 27.5 34 27.5C35.1046 27.5 36 28.3954 36 29.5Z" fill="#011E41"/>
</svg>
