<svg width="96" height="48" viewBox="0 0 96 48" fill="none" xmlns="http://www.w3.org/2000/svg">
<path d="M40.5 41C40.8978 41 41.2794 40.842 41.5607 40.5607C41.842 40.2794 42 39.8978 42 39.5C42 39.1022 41.842 38.7206 41.5607 38.4393C41.2794 38.158 40.8978 38 40.5 38H37V36H40.5C40.8978 36 41.2794 35.842 41.5607 35.5607C41.842 35.2794 42 34.8978 42 34.5C42 34.1022 41.842 33.7206 41.5607 33.4393C41.2794 33.158 40.8978 33 40.5 33H37V31H39C39.5299 30.9984 40.0377 30.7872 40.4125 30.4125C40.7872 30.0377 40.9984 29.5299 41 29V2C40.9984 1.47005 40.7872 0.962265 40.4125 0.587535C40.0377 0.212805 39.5299 0.00158273 39 0L9 0C8.47005 0.00158273 7.96227 0.212805 7.58753 0.587535C7.2128 0.962265 7.00158 1.47005 7 2V29C7.00158 29.5299 7.2128 30.0377 7.58753 30.4125C7.96227 30.7872 8.47005 30.9984 9 31H11V33H7.5C7.10218 33 6.72064 33.158 6.43934 33.4393C6.15804 33.7206 6 34.1022 6 34.5C6 34.8978 6.15804 35.2794 6.43934 35.5607C6.72064 35.842 7.10218 36 7.5 36H11V38H7.5C7.10218 38 6.72064 38.158 6.43934 38.4393C6.15804 38.7206 6 39.1022 6 39.5C6 39.8978 6.15804 40.2794 6.43934 40.5607C6.72064 40.842 7.10218 41 7.5 41H11V43H7.5C7.10218 43 6.72064 43.158 6.43934 43.4393C6.15804 43.7206 6 44.1022 6 44.5C6 44.8978 6.15804 45.2794 6.43934 45.5607C6.72064 45.842 7.10218 46 7.5 46H11V46.5C11 46.8978 11.158 47.2794 11.4393 47.5607C11.7206 47.842 12.1022 48 12.5 48C12.8978 48 13.2794 47.842 13.5607 47.5607C13.842 47.2794 14 46.8978 14 46.5V46H34V46.5C34 46.8978 34.158 47.2794 34.4393 47.5607C34.7206 47.842 35.1022 48 35.5 48C35.8978 48 36.2794 47.842 36.5607 47.5607C36.842 47.2794 37 46.8978 37 46.5V46H40.5C40.8978 46 41.2794 45.842 41.5607 45.5607C41.842 45.2794 42 44.8978 42 44.5C42 44.1022 41.842 43.7206 41.5607 43.4393C41.2794 43.158 40.8978 43 40.5 43H37V41H40.5ZM34 31V33H14V31H34ZM34 36V38H14V36H34ZM34 41V43H14V41H34ZM36 28C35.6044 28 35.2178 27.8827 34.8889 27.6629C34.56 27.4432 34.3036 27.1308 34.1522 26.7654C34.0009 26.3999 33.9613 25.9978 34.0384 25.6098C34.1156 25.2219 34.3061 24.8655 34.5858 24.5858C34.8655 24.3061 35.2219 24.1156 35.6098 24.0384C35.9978 23.9613 36.3999 24.0009 36.7654 24.1522C37.1308 24.3036 37.4432 24.56 37.6629 24.8889C37.8827 25.2178 38 25.6044 38 26C37.9984 26.5299 37.7872 27.0377 37.4125 27.4125C37.0377 27.7872 36.5299 27.9984 36 28ZM10 7C10.0008 6.73503 10.1064 6.48113 10.2938 6.29377C10.4811 6.1064 10.735 6.00079 11 6H37C37.265 6.00079 37.5189 6.1064 37.7062 6.29377C37.8936 6.48113 37.9992 6.73503 38 7V19C37.9992 19.265 37.8936 19.5189 37.7062 19.7062C37.5189 19.8936 37.265 19.9992 37 20H11C10.735 19.9992 10.4811 19.8936 10.2938 19.7062C10.1064 19.5189 10.0008 19.265 10 19V7ZM10 26C10 25.6044 10.1173 25.2178 10.3371 24.8889C10.5568 24.56 10.8692 24.3036 11.2346 24.1522C11.6001 24.0009 12.0022 23.9613 12.3902 24.0384C12.7781 24.1156 13.1345 24.3061 13.4142 24.5858C13.6939 24.8655 13.8844 25.2219 13.9616 25.6098C14.0387 25.9978 13.9991 26.3999 13.8478 26.7654C13.6964 27.1308 13.44 27.4432 13.1111 27.6629C12.7822 27.8827 12.3956 28 12 28C11.4701 27.9984 10.9623 27.7872 10.5875 27.4125C10.2128 27.0377 10.0016 26.5299 10 26Z" fill="#011E41"/>
<path fill-rule="evenodd" clip-rule="evenodd" d="M60.7127 3.28158C60.5664 3.49642 60.5 3.80701 60.5 4C60.5 4.82843 59.8284 5.5 59 5.5C58.1716 5.5 57.5 4.82843 57.5 4C57.5 3.35965 57.6699 2.42024 58.2328 1.59342C58.85 0.686711 59.8929 0 61.3636 0H61.3748H61.3863H61.3981H61.4101H61.4223H61.4348H61.4476H61.4606H61.4739H61.4875H61.5013H61.5153H61.5296H61.5442H61.559H61.574H61.5894H61.6049H61.6207H61.6368H61.6531H61.6696H61.6864H61.7035H61.7208H61.7383H61.756H61.7741H61.7923H61.8108H61.8295H61.8485H61.8677H61.8871H61.9068H61.9267H61.9468H61.9672H61.9878H62.0087H62.0297H62.051H62.0725H62.0943H62.1163H62.1385H62.1609H62.1836H62.2064H62.2295H62.2529H62.2764H62.3002H62.3242H62.3484H62.3728H62.3974H62.4223H62.4474H62.4726H62.4981H62.5239H62.5498H62.5759H62.6023H62.6288H62.6556H62.6826H62.7097H62.7371H62.7647H62.7925H62.8205H62.8487H62.8771H62.9057H62.9346H62.9636H62.9928H63.0222H63.0518H63.0816H63.1116H63.1418H63.1722H63.2027H63.2335H63.2645H63.2956H63.327H63.3585H63.3902H63.4221H63.4542H63.4865H63.519H63.5516H63.5844H63.6175H63.6506H63.684H63.7176H63.7513H63.7852H63.8193H63.8536H63.888H63.9227H63.9575H63.9924H64.0276H64.0629H64.0984H64.134H64.1698H64.2058H64.242H64.2783H64.3148H64.3515H64.3883H64.4253H64.4624H64.4997H64.5372H64.5748H64.6126H64.6506H64.6887H64.7269H64.7654H64.8039H64.8427H64.8815H64.9206H64.9598H64.9991H65.0386H65.0782H65.118H65.158H65.198H65.2383H65.2787H65.3192H65.3598H65.4006H65.4416H65.4827H65.5239H65.5653H65.6068H65.6484H65.6902H65.7321H65.7742H65.8164H65.8587H65.9012H65.9438H65.9865H66.0293H66.0723H66.1154H66.1587H66.202H66.2455H66.2891H66.3329H66.3767H66.4207H66.4648H66.5091H66.5534H66.5979H66.6425H66.6872H66.732H66.777H66.8221H66.8672H66.9125H66.9579H67.0034H67.0491H67.0948H67.1407H67.1866H67.2327H67.2789H67.3251H67.3715H67.418H67.4646H67.5113H67.5581H67.605H67.652H67.6991H67.7463H67.7936H67.841H67.8885H67.9361H67.9838H68.0316H68.0795H68.1274H68.1755H68.2236H68.2719H68.3202H68.3686H68.4171H68.4657H68.5144H68.5632H68.612H68.661H68.71H68.7591H68.8082H68.8575H68.9068H68.9563H69.0058H69.0553H69.105H69.1547H69.2045H69.2544H69.3043H69.3543H69.4044H69.4546H69.5048H69.5551H69.6055H69.6559H69.7064H69.757H69.8076H69.8583H69.909H69.9599H70.0107H70.0617H70.1127H70.1637H70.2149H70.266H70.3173H70.3685H70.4199H70.4713H70.5227H70.5742H70.6258H70.6774H70.729H70.7807H70.8325H70.8843H70.9361H70.988H71.0399H71.0919H71.1439H71.196H71.2481H71.3003H71.3524H71.4047H71.4569H71.5092H71.5616H71.6139H71.6663H71.7188H71.7713H71.8238H71.8763H71.9289H71.9815H72.0341H72.0868H72.1394H72.1922H72.2449H72.2977H72.3504H72.4033H72.4561H72.5089H72.5618H72.6147H72.6676H72.7206H72.7735H72.8265H72.8795H72.9325H72.9855H73.0385H73.0916H73.1446H73.1977H73.2508H73.3038H73.3569H73.41H73.4631H73.5162H73.5694H73.6225H73.6756H73.7287H73.7819H73.835H73.8881H73.9413H73.9944H74.0475H74.1007H74.1538H74.2069H74.26H74.3131H74.3662H74.4193H74.4724H74.5255H74.5785H74.6316H74.6846H74.7376H74.7907H74.8437H74.8966H74.9496H75.0026H75.0555H75.1084H75.1613H75.2142H75.267H75.3199H75.3727H75.4254H75.4782H75.5309H75.5837H75.6363H75.689H75.7416H75.7942H75.8468H75.8993H75.9518H76.0043H76.0567H76.1091H76.1615H76.2138H76.2661H76.3184H76.3706H76.4228H76.4749H76.527H76.5791H76.6311H76.6831H76.735H76.7869H76.8387H76.8905H76.9423H76.994H77.0456H77.0972H77.1488H77.2003H77.2517H77.3031H77.3544H77.4057H77.4569H77.5081H77.5592H77.6103H77.6613H77.7122H77.7631H77.8139H77.8646H77.9153H77.9659H78.0165H78.067H78.1174H78.1678H78.2181H78.2683H78.3184H78.3685H78.4185H78.4685H78.5183H78.5681H78.6178H78.6675H78.717H78.7665H78.8159H78.8653H78.9145H78.9637H79.0128H79.0618H79.1107H79.1596H79.2083H79.257H79.3056H79.3541H79.4025H79.4508H79.499H79.5472H79.5952H79.6432H79.6911H79.7388H79.7865H79.8341H79.8816H79.929H79.9763H80.0235H80.0706H80.1176H80.1644H80.2112H80.2579H80.3045H80.351H80.3974H80.4436H80.4898H80.5359H80.5818H80.6276H80.6734H80.719H80.7645H80.8099H80.8552H80.9003H80.9454H80.9903H81.0351H81.0798H81.1244H81.1689H81.2132H81.2575H81.3016H81.3455H81.3894H81.4331H81.4767H81.5202H81.5636H81.6068H81.6499H81.6929H81.7357H81.7784H81.821H81.8634H81.9057H81.9479H81.99H82.0319H82.0736H82.1153H82.1568H82.1981H82.2393H82.2804H82.3213H82.3621H82.4028H82.4433H82.4837H82.5239H82.5639H82.6039H82.6436H82.6833H82.7227H82.7621H82.8012H82.8403H82.8791H82.9178H82.9564H82.9948H83.0331H83.0712H83.1091C83.6819 0 84.4934 0.168805 85.1997 0.706642C85.9771 1.29866 86.5 2.24564 86.5 3.5C86.5 4.32843 85.8284 5 85 5C84.1716 5 83.5 4.32843 83.5 3.5C83.5 3.30124 83.4621 3.20509 83.445 3.17006C83.4281 3.13548 83.4089 3.11377 83.3821 3.09336C83.3499 3.06884 83.3008 3.04279 83.2365 3.02337C83.2057 3.01404 83.1763 3.0078 83.1512 3.00407C83.1389 3.00225 83.1287 3.00119 83.121 3.0006L83.1121 3.00008C83.111 3.00004 83.1102 3.00002 83.1097 3.00001L83.1091 3H83.0712H83.0331H82.9948H82.9564H82.9178H82.8791H82.8403H82.8012H82.7621H82.7227H82.6833H82.6436H82.6039H82.5639H82.5239H82.4837H82.4433H82.4028H82.3621H82.3213H82.2804H82.2393H82.1981H82.1568H82.1153H82.0736H82.0319H81.99H81.9479H81.9057H81.8634H81.821H81.7784H81.7357H81.6929H81.6499H81.6068H81.5636H81.5202H81.4767H81.4331H81.3894H81.3455H81.3016H81.2575H81.2132H81.1689H81.1244H81.0798H81.0351H80.9903H80.9454H80.9003H80.8552H80.8099H80.7645H80.719H80.6734H80.6276H80.5818H80.5359H80.4898H80.4436H80.3974H80.351H80.3045H80.2579H80.2112H80.1644H80.1176H80.0706H80.0235H79.9763H79.929H79.8816H79.8341H79.7865H79.7388H79.6911H79.6432H79.5952H79.5472H79.499H79.4508H79.4025H79.3541H79.3056H79.257H79.2083H79.1596H79.1107H79.0618H79.0128H78.9637H78.9145H78.8653H78.8159H78.7665H78.717H78.6675H78.6178H78.5681H78.5183H78.4685H78.4185H78.3685H78.3184H78.2683H78.2181H78.1678H78.1174H78.067H78.0165H77.9659H77.9153H77.8646H77.8139H77.7631H77.7122H77.6613H77.6103H77.5592H77.5081H77.4569H77.4057H77.3544H77.3031H77.2517H77.2003H77.1488H77.0972H77.0456H76.994H76.9423H76.8905H76.8387H76.7869H76.735H76.6831H76.6311H76.5791H76.527H76.4749H76.4228H76.3706H76.3184H76.2661H76.2138H76.1615H76.1091H76.0567H76.0043H75.9518H75.8993H75.8468H75.7942H75.7416H75.689H75.6363H75.5837H75.5309H75.4782H75.4254H75.3727H75.3199H75.267H75.2142H75.1613H75.1084H75.0555H75.0026H74.9496H74.8966H74.8437H74.7907H74.7376H74.6846H74.6316H74.5785H74.5255H74.4724H74.4193H74.3662H74.3131H74.26H74.2069H74.1538H74.1007H74.0475H74V6.5H84C86.2091 6.5 88 8.29086 88 10.5V35.5323C88 37.7414 86.2091 39.5323 84 39.5323H83.2147L86.5776 45.3569C86.9918 46.0744 86.746 46.9918 86.0286 47.406C85.3111 47.8202 84.3937 47.5744 83.9795 46.8569L82.6187 44.5H60.7802L59.3476 46.9814C58.9333 47.6988 58.016 47.9446 57.2985 47.5304C56.5811 47.1162 56.3353 46.1988 56.7495 45.4814L60.1842 39.5323H60C57.7909 39.5323 56 37.7414 56 35.5323V10.5C56 8.29086 57.7909 6.5 60 6.5H71V3H70.988H70.9361H70.8843H70.8325H70.7807H70.729H70.6774H70.6258H70.5742H70.5227H70.4713H70.4199H70.3685H70.3173H70.266H70.2149H70.1637H70.1127H70.0617H70.0107H69.9599H69.909H69.8583H69.8076H69.757H69.7064H69.6559H69.6055H69.5551H69.5048H69.4546H69.4044H69.3543H69.3043H69.2544H69.2045H69.1547H69.105H69.0553H69.0058H68.9563H68.9068H68.8575H68.8082H68.7591H68.71H68.661H68.612H68.5632H68.5144H68.4657H68.4171H68.3686H68.3202H68.2719H68.2236H68.1755H68.1274H68.0795H68.0316H67.9838H67.9361H67.8885H67.841H67.7936H67.7463H67.6991H67.652H67.605H67.5581H67.5113H67.4646H67.418H67.3715H67.3251H67.2789H67.2327H67.1866H67.1407H67.0948H67.0491H67.0034H66.9579H66.9125H66.8672H66.8221H66.777H66.732H66.6872H66.6425H66.5979H66.5534H66.5091H66.4648H66.4207H66.3767H66.3329H66.2891H66.2455H66.202H66.1587H66.1154H66.0723H66.0293H65.9865H65.9438H65.9012H65.8587H65.8164H65.7742H65.7321H65.6902H65.6484H65.6068H65.5653H65.5239H65.4827H65.4416H65.4006H65.3598H65.3192H65.2787H65.2383H65.198H65.158H65.118H65.0782H65.0386H64.9991H64.9598H64.9206H64.8815H64.8427H64.8039H64.7654H64.7269H64.6887H64.6506H64.6126H64.5748H64.5372H64.4997H64.4624H64.4253H64.3883H64.3515H64.3148H64.2783H64.242H64.2058H64.1698H64.134H64.0984H64.0629H64.0276H63.9924H63.9575H63.9227H63.888H63.8536H63.8193H63.7852H63.7513H63.7176H63.684H63.6506H63.6175H63.5844H63.5516H63.519H63.4865H63.4542H63.4221H63.3902H63.3585H63.327H63.2956H63.2645H63.2335H63.2027H63.1722H63.1418H63.1116H63.0816H63.0518H63.0222H62.9928H62.9636H62.9346H62.9057H62.8771H62.8487H62.8205H62.7925H62.7647H62.7371H62.7097H62.6826H62.6556H62.6288H62.6023H62.5759H62.5498H62.5239H62.4981H62.4726H62.4474H62.4223H62.3974H62.3728H62.3484H62.3242H62.3002H62.2764H62.2529H62.2295H62.2064H62.1836H62.1609H62.1385H62.1163H62.0943H62.0725H62.051H62.0297H62.0087H61.9878H61.9672H61.9468H61.9267H61.9068H61.8871H61.8677H61.8485H61.8295H61.8108H61.7923H61.7741H61.756H61.7383H61.7208H61.7035H61.6864H61.6696H61.6531H61.6368H61.6207H61.6049H61.5894H61.574H61.559H61.5442H61.5296H61.5153H61.5013H61.4875H61.4739H61.4606H61.4476H61.4348H61.4223H61.4101H61.3981H61.3863H61.3748H61.3636C61.1189 3 60.9855 3.05175 60.9151 3.09018C60.8414 3.13037 60.775 3.18999 60.7127 3.28158ZM62.5122 41.5H80.8867L79.7506 39.5323H63.6483L62.5122 41.5ZM60 14C60 12.8954 60.8954 12 62 12H82C83.1046 12 84 12.8954 84 14V22C84 23.1046 83.1046 24 82 24H62C60.8954 24 60 23.1046 60 22V14ZM62 31.5C63.1046 31.5 64 30.6046 64 29.5C64 28.3954 63.1046 27.5 62 27.5C60.8954 27.5 60 28.3954 60 29.5C60 30.6046 60.8954 31.5 62 31.5ZM84 29.5C84 30.6046 83.1046 31.5 82 31.5C80.8954 31.5 80 30.6046 80 29.5C80 28.3954 80.8954 27.5 82 27.5C83.1046 27.5 84 28.3954 84 29.5Z" fill="#011E41"/>
</svg>
