<svg width="48" height="48" viewBox="0 0 48 48" fill="none" xmlns="http://www.w3.org/2000/svg">
<path d="M40 27.6591L25.03 16.3391C24.7313 16.1199 24.3705 16.0018 24 16.0018C23.6295 16.0018 23.2687 16.1199 22.97 16.3391L8 27.6591C7.83621 27.7784 7.69789 27.9292 7.59314 28.1026C7.4884 28.276 7.41933 28.4686 7.39 28.6691L5 45.9991H23V36.2891C23 35.9891 23.45 35.8891 23.62 36.1491L29.15 45.9991H43L40.61 28.6691C40.5807 28.4686 40.5116 28.276 40.4069 28.1026C40.3021 27.9292 40.1638 27.7784 40 27.6591V27.6591ZM47.895 9.03813C47.9604 8.87071 47.9949 8.69285 47.997 8.51313C47.997 8.50813 48 8.50413 48 8.50013L47.997 8.48513C47.9947 8.30715 47.9605 8.13102 47.896 7.96513C47.891 7.95113 47.889 7.93813 47.883 7.92513C47.8094 7.74891 47.7028 7.58837 47.569 7.45213L47.561 7.43913L47.557 7.43613L42.559 2.43913C42.2776 2.15786 41.896 1.99991 41.4981 2C41.1003 2.00009 40.7188 2.15823 40.4375 2.43963C40.1562 2.72102 39.9983 3.10262 39.9984 3.50048C39.9985 3.89834 40.1566 4.27987 40.438 4.56113L42.878 6.99913H5.122L7.562 4.55913C7.83048 4.27542 7.9777 3.89818 7.97236 3.50761C7.96702 3.11704 7.80954 2.74397 7.53341 2.4677C7.25728 2.19144 6.88427 2.03379 6.49371 2.02826C6.10315 2.02274 5.72583 2.16978 5.442 2.43813L0.443 7.43613L0.439 7.43913L0.43 7.45213C0.296178 7.58837 0.189603 7.74891 0.116 7.92513C0.111 7.93813 0.109 7.95113 0.104 7.96513C0.0394824 8.13102 0.005273 8.30715 0.003 8.48513L0 8.50013L0.002 8.51313C0.00405764 8.69285 0.0386142 8.87071 0.104 9.03813L0.116 9.07413C0.190009 9.25316 0.297998 9.41616 0.434 9.55413L0.439 9.56113L0.443 9.56413L5.441 14.5611C5.72483 14.8295 6.10215 14.9765 6.49271 14.971C6.88327 14.9655 7.25628 14.8078 7.53241 14.5316C7.80854 14.2553 7.96602 13.8822 7.97136 13.4916C7.9767 13.1011 7.82948 12.7238 7.561 12.4401L5.123 9.99913H42.878L40.438 12.4391C40.1567 12.7205 39.9988 13.1021 39.9989 13.5C39.999 13.8978 40.1571 14.2794 40.4385 14.5606C40.7199 14.8419 41.1015 14.9998 41.4994 14.9998C41.8972 14.9997 42.2787 14.8415 42.56 14.5601L47.558 9.56313L47.562 9.56013L47.566 9.55313C47.7027 9.41534 47.8114 9.25232 47.886 9.07313L47.896 9.03713L47.895 9.03813Z" fill="#011E41"/>
</svg>
