<svg width="48" height="48" viewBox="0 0 48 48" fill="none" xmlns="http://www.w3.org/2000/svg">
<path d="M47.8767 16.1597L43.8804 2.1728C43.6612 1.40894 43.148 0.76324 42.4533 0.377392C41.7586 -0.00845483 40.9391 -0.102923 40.1749 0.114721L26.1879 4.11099C25.8095 4.21916 25.456 4.40082 25.1478 4.64558C24.8396 4.89034 24.5826 5.19342 24.3914 5.53752C24.0055 6.23244 23.9114 7.05222 24.1298 7.81653C24.238 8.19497 24.4197 8.5484 24.6644 8.85664C24.9092 9.16488 25.2123 9.4219 25.5564 9.61301C26.2513 9.99897 27.0711 10.0931 27.8354 9.8746L33.2303 8.33304L23.1068 26.4082L18.8478 22.1501C18.4238 21.7262 17.91 21.4031 17.3442 21.2048C16.7784 21.0064 16.1753 20.9379 15.5795 21.0043C14.9836 21.0707 14.4104 21.2703 13.9022 21.5883C13.3939 21.9064 12.9638 22.3347 12.6436 22.8415L0.654772 41.8238C0.365998 42.2674 0.168251 42.7641 0.0730146 43.2848C-0.0222214 43.8055 -0.013048 44.34 0.100002 44.8572C0.213052 45.3743 0.427726 45.8639 0.731555 46.2974C1.03539 46.7309 1.42232 47.0997 1.86988 47.3824C2.31744 47.6651 2.8167 47.8561 3.33869 47.9442C3.86067 48.0324 4.39496 48.0159 4.91054 47.8958C5.42611 47.7758 5.91269 47.5545 6.34202 47.2448C6.77135 46.9351 7.13486 46.5431 7.41146 46.0918L16.7308 31.3366L21.1886 35.7934C21.6252 36.2301 22.157 36.5596 22.7423 36.7563C23.3277 36.9529 23.9506 37.0111 24.5623 36.9265C25.1739 36.8419 25.7576 36.6168 26.2676 36.2686C26.7776 35.9205 27.2 35.459 27.5017 34.9202L40.4146 11.8617L42.113 17.8062C42.3314 18.5706 42.8444 19.217 43.5394 19.6032C43.8835 19.7944 44.2618 19.9159 44.6529 19.9609C45.044 20.0059 45.4401 19.9734 45.8186 19.8653C46.1971 19.7572 46.5506 19.5756 46.8589 19.3308C47.1673 19.0861 47.4244 18.783 47.6156 18.439C47.8068 18.0949 47.9283 17.7165 47.9733 17.3254C48.0183 16.9343 47.9858 16.5382 47.8777 16.1597H47.8767Z" fill="#011E41"/>
</svg>
