<svg width="48" height="48" viewBox="0 0 48 48" fill="none" xmlns="http://www.w3.org/2000/svg">
<g clip-path="url(#clip0_74_1717)">
<path d="M16 7.00001H32C33.9818 6.99968 35.9327 7.491 37.6779 8.42994C39.4232 9.36887 40.9082 10.7261 42 12.38V2.00001C42.0009 1.73711 41.9498 1.47662 41.8497 1.23355C41.7495 0.990484 41.6022 0.769638 41.4163 0.583736C41.2304 0.397835 41.0095 0.250551 40.7665 0.150369C40.5234 0.0501874 40.2629 -0.000912688 40 1.23375e-05H8.00001C7.73711 -0.000912688 7.47662 0.0501874 7.23355 0.150369C6.99048 0.250551 6.76964 0.397835 6.58374 0.583736C6.39783 0.769638 6.25055 0.990484 6.15037 1.23355C6.05019 1.47662 5.99909 1.73711 6.00001 2.00001V12.38C7.09181 10.7261 8.57686 9.36887 10.3221 8.42994C12.0673 7.491 14.0182 6.99968 16 7.00001Z" fill="#011E41"/>
<path d="M42.5 24.4C42.343 24.3065 42.175 24.2326 42 24.18C41.6806 24.0589 41.3416 23.9978 41 24V19C40.9963 16.6142 40.0469 14.3272 38.3599 12.6401C36.6728 10.9531 34.3858 10.0037 32 10H16C13.6142 10.0037 11.3272 10.9531 9.64013 12.6401C7.95311 14.3272 7.00371 16.6142 7 19V24C6.65842 23.9978 6.31939 24.0589 6 24.18C5.82496 24.2326 5.65703 24.3065 5.5 24.4C5.04346 24.6632 4.66439 25.0422 4.40104 25.4987C4.13769 25.9552 3.99936 26.473 4 27V39C3.99948 39.3941 4.07671 39.7845 4.22729 40.1487C4.37787 40.5129 4.59883 40.8438 4.87751 41.1225C5.15619 41.4012 5.48712 41.6221 5.85133 41.7727C6.21554 41.9233 6.60589 42.0005 7 42V45.07C7.00264 45.8463 7.31218 46.59 7.86109 47.1389C8.41 47.6878 9.15373 47.9974 9.93 48H10.07C10.8463 47.9974 11.59 47.6878 12.1389 47.1389C12.6878 46.59 12.9974 45.8463 13 45.07V42H35.04V45.07C35.0426 45.8463 35.3522 46.59 35.9011 47.1389C36.45 47.6878 37.1937 47.9974 37.97 48H38.07C38.8463 47.9974 39.59 47.6878 40.1389 47.1389C40.6878 46.59 40.9974 45.8463 41 45.07V42C41.3941 42.0005 41.7845 41.9233 42.1487 41.7727C42.5129 41.6221 42.8438 41.4012 43.1225 41.1225C43.4012 40.8438 43.6221 40.5129 43.7727 40.1487C43.9233 39.7845 44.0005 39.3941 44 39V27C44.0006 26.473 43.8623 25.9552 43.599 25.4987C43.3356 25.0422 42.9565 24.6632 42.5 24.4V24.4ZM9.5 34C9.00555 34 8.5222 33.8534 8.11108 33.5787C7.69995 33.304 7.37952 32.9135 7.1903 32.4567C7.00108 31.9999 6.95158 31.4972 7.04804 31.0123C7.1445 30.5273 7.3826 30.0819 7.73224 29.7322C8.08187 29.3826 8.52732 29.1445 9.01228 29.048C9.49723 28.9516 9.9999 29.0011 10.4567 29.1903C10.9135 29.3795 11.304 29.7 11.5787 30.1111C11.8534 30.5222 12 31.0055 12 31.5C11.9997 32.163 11.7363 32.7987 11.2675 33.2675C10.7987 33.7363 10.163 33.9997 9.5 34ZM19 35C19 35.5304 18.7893 36.0391 18.4142 36.4142C18.0391 36.7893 17.5304 37 17 37C16.4696 37 15.9609 36.7893 15.5858 36.4142C15.2107 36.0391 15 35.5304 15 35V30C15 29.8794 15.0101 29.759 15.03 29.64C15.117 29.1805 15.3612 28.7656 15.7206 28.4664C16.08 28.1672 16.5323 28.0023 17 28C17.467 28.0045 17.9182 28.1702 18.2771 28.4691C18.6361 28.7679 18.8809 29.1815 18.97 29.64C18.99 29.759 19 29.8794 19 30V35ZM26 35C26 35.5304 25.7893 36.0391 25.4142 36.4142C25.0391 36.7893 24.5304 37 24 37C23.4696 37 22.9609 36.7893 22.5858 36.4142C22.2107 36.0391 22 35.5304 22 35V30C22 29.8794 22.0101 29.759 22.03 29.64C22.117 29.1805 22.3612 28.7656 22.7206 28.4664C23.08 28.1672 23.5323 28.0023 24 28C24.467 28.0045 24.9182 28.1702 25.2771 28.4691C25.6361 28.7679 25.8809 29.1815 25.97 29.64C25.99 29.759 26 29.8794 26 30V35ZM33 35C33 35.5304 32.7893 36.0391 32.4142 36.4142C32.0391 36.7893 31.5304 37 31 37C30.4696 37 29.9609 36.7893 29.5858 36.4142C29.2107 36.0391 29 35.5304 29 35V30C29 29.8794 29.0101 29.759 29.03 29.64C29.117 29.1805 29.3612 28.7656 29.7206 28.4664C30.08 28.1672 30.5323 28.0023 31 28C31.467 28.0045 31.9182 28.1702 32.2771 28.4691C32.6361 28.7679 32.8809 29.1815 32.97 29.64C32.99 29.759 33 29.8794 33 30V35ZM35 24H13V19C13.0024 18.2051 13.3192 17.4434 13.8813 16.8813C14.4434 16.3192 15.2051 16.0024 16 16H32C32.7949 16.0024 33.5566 16.3192 34.1187 16.8813C34.6808 17.4434 34.9976 18.2051 35 19V24ZM38.5 34C38.0056 34 37.5222 33.8534 37.1111 33.5787C36.7 33.304 36.3795 32.9135 36.1903 32.4567C36.0011 31.9999 35.9516 31.4972 36.048 31.0123C36.1445 30.5273 36.3826 30.0819 36.7322 29.7322C37.0819 29.3826 37.5273 29.1445 38.0123 29.048C38.4972 28.9516 38.9999 29.0011 39.4567 29.1903C39.9135 29.3795 40.304 29.7 40.5787 30.1111C40.8534 30.5222 41 31.0055 41 31.5C40.9997 32.163 40.7363 32.7987 40.2675 33.2675C39.7987 33.7363 39.163 33.9997 38.5 34Z" fill="#011E41"/>
</g>
<defs>
<clipPath id="clip0_74_1717">
<rect width="48" height="48" fill="white"/>
</clipPath>
</defs>
</svg>
