<svg width="48" height="48" viewBox="0 0 48 48" fill="none" xmlns="http://www.w3.org/2000/svg">
<g clip-path="url(#clip0_74_681)">
<path d="M47.8993 19.4795L40.1396 14.1097C40.097 14.0852 40.0487 14.0722 39.9996 14.0722C39.9504 14.0722 39.9022 14.0852 39.8596 14.1097L32.0999 19.4795C32.0715 19.4962 32.0477 19.5194 32.0303 19.5473C32.0128 19.5751 32.0024 19.6068 31.9999 19.6395V26.0893C31.7899 26.0793 31.5599 26.0693 31.3299 26.0693C29.7008 26.0396 28.0962 26.4693 26.7 27.3093C25.8993 27.8358 24.955 28.1013 23.9971 28.0692C22.4252 28.0098 20.9337 27.3585 19.8216 26.2459C18.7095 25.1333 18.059 23.6415 18.0003 22.0695C17.9515 20.5594 18.5027 19.0914 19.5333 17.9867C20.564 16.882 21.9903 16.2305 23.5002 16.1747C24.385 16.1729 25.2554 16.3995 26.0271 16.8326C26.4905 17.0907 27.0375 17.1541 27.5477 17.0088C28.0578 16.8636 28.4894 16.5216 28.7475 16.0582C29.0055 15.5947 29.0689 15.0477 28.9237 14.5376C28.7784 14.0274 28.4365 13.5958 27.973 13.3378C26.6049 12.5768 25.0656 12.1766 23.5002 12.1748C20.9296 12.231 18.4861 13.3041 16.7054 15.1588C14.9247 17.0136 13.952 19.4987 14.0005 22.0695C14.0669 24.6969 15.1389 27.1987 16.9955 29.0591C18.8521 30.9194 21.3518 31.9965 23.9791 32.0681H24.0061C25.6298 32.0949 27.2284 31.6652 28.62 30.8282C29.4228 30.3002 30.3697 30.0347 31.3299 30.0682C32.2852 30.038 33.227 30.2996 34.0298 30.8182C35.2289 31.5549 36.5941 31.9782 37.9997 32.0491C38.2096 32.0591 38.4296 32.0691 38.6596 32.0691C40.2887 32.0989 41.8933 31.6692 43.2895 30.8292C43.8115 30.4967 44.3916 30.266 44.9994 30.1492C45.1077 30.1266 45.2172 30.1103 45.3274 30.1002C45.4814 30.0912 45.6344 30.0822 45.7994 30.0802C45.8657 30.0716 45.9325 30.0683 45.9994 30.0702C46.6712 30.0654 47.3417 30.1324 47.9993 30.2702V19.6395C47.9967 19.6068 47.9863 19.5751 47.9689 19.5473C47.9515 19.5194 47.9276 19.4962 47.8993 19.4795V19.4795ZM45.9994 41.9988C44.371 41.9666 42.767 42.398 41.3745 43.2427C40.5566 43.7372 39.619 43.9986 38.6631 43.9986C37.7073 43.9986 36.7697 43.7372 35.9517 43.2427C34.5589 42.3978 32.9546 41.9664 31.3259 41.9988C29.6981 41.9665 28.0948 42.3979 26.703 43.2427C25.8989 43.7656 24.9538 44.0294 23.9951 43.9987C23.0361 44.0294 22.0908 43.7655 21.2862 43.2427C19.8937 42.398 18.2898 41.9666 16.6614 41.9988C15.0333 41.9667 13.4297 42.3981 12.0376 43.2427C11.2337 43.7654 10.289 44.0292 9.33065 43.9987C8.37273 44.0294 7.42838 43.766 6.62475 43.2437C5.23292 42.3982 3.62912 41.9663 2.00091 41.9988C1.47049 41.9988 0.961802 42.2095 0.586743 42.5845C0.211683 42.9596 0.000976563 43.4683 0.000976562 43.9987C0.000976563 44.5291 0.211683 45.0378 0.586743 45.4129C0.961802 45.7879 1.47049 45.9986 2.00091 45.9986C2.95927 45.968 3.90398 46.2319 4.70781 46.7546C6.09923 47.5993 7.70223 48.0307 9.32965 47.9986C10.9577 48.0307 12.5613 47.5992 13.9535 46.7546C14.7576 46.2317 15.7027 45.9679 16.6614 45.9986C17.6207 45.9677 18.5665 46.2316 19.3713 46.7546C20.7632 47.599 22.3664 48.0304 23.9941 47.9986C25.6223 48.0306 27.226 47.5988 28.618 46.7536C29.4354 46.2591 30.3725 45.9978 31.3279 45.9978C32.2832 45.9978 33.2204 46.2591 34.0378 46.7536C35.4429 47.5684 37.0384 47.9975 38.6626 47.9975C40.2869 47.9975 41.8823 47.5684 43.2875 46.7536C44.0931 46.2309 45.0395 45.9674 45.9994 45.9986C46.5298 45.9986 47.0385 45.7879 47.4135 45.4129C47.7886 45.0378 47.9993 44.5291 47.9993 43.9987C47.9993 43.4683 47.7886 42.9596 47.4135 42.5845C47.0385 42.2095 46.5298 41.9988 45.9994 41.9988ZM45.9994 33.999C44.371 33.9669 42.767 34.3983 41.3745 35.243C40.5566 35.7375 39.619 35.9989 38.6631 35.9989C37.7073 35.9989 36.7697 35.7375 35.9517 35.243C34.5589 34.3981 32.9546 33.9667 31.3259 33.999C29.6981 33.9667 28.0948 34.3982 26.703 35.243C25.8989 35.7659 24.9538 36.0297 23.9951 35.999C23.0361 36.0297 22.0908 35.7658 21.2862 35.243C19.8937 34.3983 18.2898 33.9669 16.6614 33.999C15.0333 33.9669 13.4297 34.3984 12.0376 35.243C11.2337 35.7657 10.289 36.0295 9.33065 35.999C8.37273 36.0297 7.42838 35.7662 6.62475 35.244C5.23292 34.3984 3.62912 33.9666 2.00091 33.999C1.47049 33.999 0.961802 34.2097 0.586743 34.5848C0.211683 34.9599 0.000976563 35.4686 0.000976562 35.999C0.000976563 36.5294 0.211683 37.0381 0.586743 37.4131C0.961802 37.7882 1.47049 37.9989 2.00091 37.9989C2.95927 37.9683 3.90398 38.2322 4.70781 38.7549C6.09923 39.5996 7.70223 40.031 9.32965 39.9988C10.9577 40.0309 12.5613 39.5995 13.9535 38.7549C14.7576 38.232 15.7027 37.9682 16.6614 37.9989C17.6207 37.968 18.5665 38.2319 19.3713 38.7549C20.7632 39.5992 22.3664 40.0306 23.9941 39.9988C25.6223 40.0309 27.226 39.5991 28.618 38.7539C29.4354 38.2594 30.3725 37.998 31.3279 37.998C32.2832 37.998 33.2204 38.2594 34.0378 38.7539C35.4429 39.5687 37.0384 39.9978 38.6626 39.9978C40.2869 39.9978 41.8823 39.5687 43.2875 38.7539C44.0931 38.2312 45.0395 37.9677 45.9994 37.9989C46.5298 37.9989 47.0385 37.7882 47.4135 37.4131C47.7886 37.0381 47.9993 36.5294 47.9993 35.999C47.9993 35.4686 47.7886 34.9599 47.4135 34.5848C47.0385 34.2097 46.5298 33.999 45.9994 33.999Z" fill="#011E41"/>
<path d="M4.10316 31.0689C4.44698 31.0685 4.78489 30.9795 5.08427 30.8105C5.38366 30.6414 5.63441 30.3981 5.81232 30.1039C5.99023 29.8097 6.08929 29.4746 6.09994 29.1309C6.11059 28.7873 6.03246 28.4467 5.8731 28.142C4.56063 25.6266 3.91868 22.8154 4.0092 19.9796C4.09973 17.1439 4.91967 14.3793 6.3899 11.9527C7.86013 9.52618 9.931 7.51954 12.4027 6.12649C14.8744 4.73344 17.6634 4.001 20.5006 3.99986C24.6544 4.0648 28.6326 5.68633 31.6482 8.5437C32.0391 8.90226 32.5565 9.09085 33.0864 9.06797C33.6164 9.04509 34.1155 8.81262 34.4741 8.42171C34.8327 8.03079 35.0212 7.51345 34.9984 6.98349C34.9755 6.45353 34.743 5.95437 34.3521 5.59581C30.5994 2.06051 25.6559 0.0634104 20.5006 0C16.9754 0.00131914 13.5101 0.911323 10.4392 2.64218C7.36819 4.37304 4.79524 6.8663 2.96866 9.88132C1.14208 12.8963 0.123548 16.3313 0.0113652 19.8547C-0.100817 23.378 0.697141 26.8708 2.32822 29.996C2.4978 30.3199 2.7529 30.5912 3.06582 30.7804C3.37874 30.9695 3.73751 31.0693 4.10316 31.0689V31.0689Z" fill="#011E41"/>
</g>
<defs>
<clipPath id="clip0_74_681">
<rect width="48" height="48" fill="white"/>
</clipPath>
</defs>
</svg>
