<svg width="48" height="48" viewBox="0 0 48 48" fill="none" xmlns="http://www.w3.org/2000/svg">
<path d="M46 2H2C1.47005 2.00158 0.962265 2.2128 0.587535 2.58753C0.212805 2.96227 0.00158273 3.47005 0 4L0 46H9.97V23C9.97 19.279 11.4482 15.7104 14.0793 13.0793C16.7104 10.4482 20.279 8.97 24 8.97C27.721 8.97 31.2896 10.4482 33.9207 13.0793C36.5518 15.7104 38.03 19.279 38.03 23V46H48V4C47.9984 3.47005 47.7872 2.96227 47.4125 2.58753C47.0377 2.2128 46.5299 2.00158 46 2V2Z" fill="#011E41"/>
<path d="M32 35V31C32.0005 30.6059 31.9233 30.2155 31.7727 29.8513C31.6221 29.4871 31.4012 29.1562 31.1225 28.8775C30.8438 28.5988 30.5129 28.3779 30.1487 28.2273C29.7845 28.0767 29.3941 27.9995 29 28H19C18.6059 27.9995 18.2155 28.0767 17.8513 28.2273C17.4871 28.3779 17.1562 28.5988 16.8775 28.8775C16.5988 29.1562 16.3779 29.4871 16.2273 29.8513C16.0767 30.2155 15.9995 30.6059 16 31V35C15.2057 35.0045 14.4453 35.322 13.8836 35.8836C13.322 36.4453 13.0045 37.2057 13 38V40C12.9995 40.3941 13.0767 40.7845 13.2273 41.1487C13.3779 41.5129 13.5988 41.8438 13.8775 42.1225C14.1562 42.4012 14.4871 42.6221 14.8513 42.7727C15.2155 42.9233 15.6059 43.0005 16 43V44C16 44.5304 16.2107 45.0391 16.5858 45.4142C16.9609 45.7893 17.4696 46 18 46C18.5304 46 19.0391 45.7893 19.4142 45.4142C19.7893 45.0391 20 44.5304 20 44V43H28V44C28 44.5304 28.2107 45.0391 28.5858 45.4142C28.9609 45.7893 29.4696 46 30 46C30.5304 46 31.0391 45.7893 31.4142 45.4142C31.7893 45.0391 32 44.5304 32 44V43C32.3941 43.0005 32.7845 42.9233 33.1487 42.7727C33.5129 42.6221 33.8438 42.4012 34.1225 42.1225C34.4012 41.8438 34.6221 41.5129 34.7727 41.1487C34.9233 40.7845 35.0005 40.3941 35 40V38C34.9955 37.2057 34.678 36.4453 34.1164 35.8836C33.5547 35.322 32.7943 35.0045 32 35V35ZM19 32C19.0008 31.735 19.1064 31.4811 19.2938 31.2938C19.4811 31.1064 19.735 31.0008 20 31H28C28.265 31.0008 28.5189 31.1064 28.7062 31.2938C28.8936 31.4811 28.9992 31.735 29 32V35H19V32ZM17.5 37C17.7967 37 18.0867 37.088 18.3334 37.2528C18.58 37.4176 18.7723 37.6519 18.8858 37.926C18.9994 38.2001 19.0291 38.5017 18.9712 38.7926C18.9133 39.0836 18.7704 39.3509 18.5607 39.5607C18.3509 39.7704 18.0836 39.9133 17.7926 39.9712C17.5017 40.0291 17.2001 39.9994 16.926 39.8858C16.6519 39.7723 16.4176 39.58 16.2528 39.3334C16.088 39.0867 16 38.7967 16 38.5C15.9997 38.3029 16.0384 38.1078 16.1136 37.9257C16.1889 37.7436 16.2994 37.5781 16.4388 37.4388C16.5781 37.2994 16.7436 37.1889 16.9257 37.1136C17.1078 37.0384 17.3029 36.9997 17.5 37ZM30.5 40C30.2033 40 29.9133 39.912 29.6666 39.7472C29.42 39.5824 29.2277 39.3481 29.1142 39.074C29.0007 38.7999 28.9709 38.4983 29.0288 38.2074C29.0867 37.9164 29.2296 37.6491 29.4393 37.4393C29.6491 37.2296 29.9164 37.0867 30.2074 37.0288C30.4983 36.9709 30.7999 37.0007 31.074 37.1142C31.3481 37.2277 31.5824 37.42 31.7472 37.6666C31.912 37.9133 32 38.2033 32 38.5C32.0003 38.6971 31.9616 38.8922 31.8864 39.0743C31.8111 39.2564 31.7006 39.4219 31.5612 39.5613C31.4219 39.7006 31.2564 39.8111 31.0743 39.8864C30.8922 39.9616 30.6971 40.0003 30.5 40Z" fill="#011E41"/>
</svg>
