<svg width="46" height="48" viewBox="0 0 46 48" fill="none" xmlns="http://www.w3.org/2000/svg">
<path d="M37.0824 2.72826e-07H8.72527C7.57937 -0.00028631 6.44464 0.225204 5.38592 0.663588C4.32719 1.10197 3.36521 1.74466 2.55493 2.55493C1.74466 3.36521 1.10197 4.32719 0.663588 5.38592C0.225204 6.44464 -0.00028631 7.57937 2.72826e-07 8.72527V29.4478C-0.00028631 30.5937 0.225204 31.7284 0.663588 32.7871C1.10197 33.8459 1.74466 34.8079 2.55493 35.6181C3.36521 36.4284 4.32719 37.0711 5.38592 37.5095C6.44464 37.9479 7.57937 38.1733 8.72527 38.1731H23.9945L33.6032 47.7818C33.7106 47.887 33.8466 47.9582 33.9943 47.9864C34.142 48.0147 34.2947 47.9986 34.4334 47.9404C34.572 47.8822 34.6903 47.7843 34.7735 47.659C34.8567 47.5338 34.9011 47.3868 34.9011 47.2364V38.1731H37.0824C38.2283 38.1733 39.363 37.9479 40.4218 37.5095C41.4805 37.0711 42.4425 36.4284 43.2527 35.6181C44.063 34.8079 44.7057 33.8459 45.1441 32.7871C45.5825 31.7284 45.808 30.5937 45.8077 29.4478V8.72527C45.808 7.57937 45.5825 6.44464 45.1441 5.38592C44.7057 4.32719 44.063 3.36521 43.2527 2.55493C42.4425 1.74466 41.4805 1.10197 40.4218 0.663588C39.363 0.225204 38.2283 -0.00028631 37.0824 2.72826e-07V2.72826e-07ZM22.9038 30.5384C22.4724 30.5384 22.0507 30.4105 21.692 30.1708C21.3332 29.9311 21.0537 29.5905 20.8886 29.1919C20.7235 28.7933 20.6803 28.3547 20.7644 27.9316C20.8486 27.5084 21.0563 27.1198 21.3614 26.8147C21.6665 26.5096 22.0551 26.3019 22.4783 26.2177C22.9014 26.1336 23.34 26.1768 23.7386 26.3419C24.1372 26.507 24.4778 26.7865 24.7175 27.1453C24.9572 27.504 25.0852 27.9257 25.0852 28.3571C25.0834 28.9351 24.8531 29.4889 24.4444 29.8976C24.0357 30.3063 23.4818 30.5367 22.9038 30.5384ZM25.0852 20.7225C25.0852 21.301 24.8553 21.8559 24.4463 22.2649C24.0372 22.674 23.4824 22.9038 22.9038 22.9038C22.3253 22.9038 21.7705 22.674 21.3614 22.2649C20.9523 21.8559 20.7225 21.301 20.7225 20.7225V8.72527C20.7225 8.14675 20.9523 7.59192 21.3614 7.18285C21.7705 6.77377 22.3253 6.54395 22.9038 6.54395C23.4824 6.54395 24.0372 6.77377 24.4463 7.18285C24.8553 7.59192 25.0852 8.14675 25.0852 8.72527V20.7225Z" fill="#011E41"/>
<rect x="7" y="6" width="33" height="27" fill="#011E41"/>
<path d="M7.68963 17L7.68363 14.486L6.44763 16.556H6.01563L4.77962 14.534V17H3.86762V12.8H4.67163L6.24362 15.41L7.79163 12.8H8.59563L8.60163 17H7.68963ZM12.969 16.1H11.019L10.647 17H9.65097L11.523 12.8H12.483L14.361 17H13.341L12.969 16.1ZM12.663 15.362L11.997 13.754L11.331 15.362H12.663ZM15.3979 12.8H16.3639V15.536L18.3679 12.8H19.2799V17H18.3199V14.27L16.3159 17H15.3979V12.8ZM17.3359 12.53C16.5679 12.53 16.1799 12.224 16.1719 11.612H16.8379C16.8459 11.904 17.0119 12.05 17.3359 12.05C17.4959 12.05 17.6179 12.014 17.7019 11.942C17.7859 11.866 17.8299 11.756 17.8339 11.612H18.4999C18.4959 11.912 18.3979 12.14 18.2059 12.296C18.0139 12.452 17.7239 12.53 17.3359 12.53ZM20.8057 12.8H24.1957V13.574H21.7717V14.438H22.9357C23.4437 14.438 23.8297 14.544 24.0937 14.756C24.3617 14.968 24.4957 15.274 24.4957 15.674C24.4957 16.094 24.3477 16.42 24.0517 16.652C23.7557 16.884 23.3377 17 22.7977 17H20.8057V12.8ZM22.7437 16.28C22.9917 16.28 23.1817 16.232 23.3137 16.136C23.4457 16.036 23.5117 15.892 23.5117 15.704C23.5117 15.336 23.2557 15.152 22.7437 15.152H21.7717V16.28H22.7437ZM29.3492 12.8L27.5612 16.124C27.3892 16.444 27.1812 16.686 26.9372 16.85C26.6972 17.014 26.4352 17.096 26.1512 17.096C25.9312 17.096 25.7032 17.048 25.4672 16.952L25.7012 16.214C25.8692 16.266 26.0092 16.292 26.1212 16.292C26.2412 16.292 26.3492 16.264 26.4452 16.208C26.5412 16.148 26.6292 16.056 26.7092 15.932L26.7452 15.884L25.0892 12.8H26.1272L27.2432 15.056L28.3952 12.8H29.3492ZM33.5128 13.592H32.1688V17H31.2088V13.592H29.8708V12.8H33.5128V13.592ZM38.4551 12.8V17H37.4831V15.278H35.5751V17H34.6031V12.8H35.5751V14.456H37.4831V12.8H38.4551ZM39.9874 12.8H40.9534V17H39.9874V12.8ZM16.1411 19.592H14.7971V23H13.8371V19.592H12.4991V18.8H16.1411V19.592ZM20.4835 22.22V23H17.2315V18.8H20.4055V19.58H18.1975V20.492H20.1475V21.248H18.1975V22.22H20.4835ZM25.5706 23L25.5646 20.486L24.3286 22.556H23.8966L22.6606 20.534V23H21.7486V18.8H22.5526L24.1246 21.41L25.6726 18.8H26.4766L26.4826 23H25.5706ZM28.0059 18.8H28.9719V21.536L30.9759 18.8H31.8879V23H30.9279V20.27L28.9239 23H28.0059V18.8Z" fill="white"/>
</svg>
