<svg width="48" height="48" viewBox="0 0 48 48" fill="none" xmlns="http://www.w3.org/2000/svg">
<path d="M38 6H10C9.47005 6.00158 8.96227 6.2128 8.58753 6.58753C8.2128 6.96227 8.00158 7.47005 8 8V30H40V8C39.9984 7.47005 39.7872 6.96227 39.4125 6.58753C39.0377 6.2128 38.5299 6.00158 38 6V6ZM23 21.5C23 22.4283 22.6313 23.3185 21.9749 23.9749C21.3185 24.6313 20.4283 25 19.5 25C18.5717 25 17.6815 24.6313 17.0251 23.9749C16.3687 23.3185 16 22.4283 16 21.5V14C16 13.7348 16.1054 13.4804 16.2929 13.2929C16.4804 13.1054 16.7348 13 17 13C17.2652 13 17.5196 13.1054 17.7071 13.2929C17.8946 13.4804 18 13.7348 18 14V21.5C18 21.8978 18.158 22.2794 18.4393 22.5607C18.7206 22.842 19.1022 23 19.5 23C19.8978 23 20.2794 22.842 20.5607 22.5607C20.842 22.2794 21 21.8978 21 21.5V14C21 13.7348 21.1054 13.4804 21.2929 13.2929C21.4804 13.1054 21.7348 13 22 13C22.2652 13 22.5196 13.1054 22.7071 13.2929C22.8946 13.4804 23 13.7348 23 14V21.5ZM32 24C32.0002 24.2249 31.9241 24.4432 31.7843 24.6194C31.6445 24.7956 31.4491 24.9191 31.23 24.97C31.1549 24.9898 31.0776 24.9999 31 25C30.8153 24.9996 30.6344 24.9479 30.4772 24.8508C30.3201 24.7537 30.193 24.615 30.11 24.45L27 18.24V24C27 24.2652 26.8946 24.5196 26.7071 24.7071C26.5196 24.8946 26.2652 25 26 25C25.7348 25 25.4804 24.8946 25.2929 24.7071C25.1054 24.5196 25 24.2652 25 24V14C25.0013 13.7761 25.0778 13.5591 25.2171 13.3838C25.3564 13.2085 25.5505 13.085 25.7684 13.0331C25.9862 12.9813 26.2151 13.004 26.4185 13.0977C26.6219 13.1914 26.7879 13.3507 26.89 13.55L30 19.76V14C30 13.7348 30.1054 13.4804 30.2929 13.2929C30.4804 13.1054 30.7348 13 31 13C31.2652 13 31.5196 13.1054 31.7071 13.2929C31.8946 13.4804 32 13.7348 32 14V24ZM14 4H34C34.5304 4 35.0391 3.78929 35.4142 3.41421C35.7893 3.03914 36 2.53043 36 2C36 1.46957 35.7893 0.960859 35.4142 0.585786C35.0391 0.210714 34.5304 0 34 0L14 0C13.4696 0 12.9609 0.210714 12.5858 0.585786C12.2107 0.960859 12 1.46957 12 2C12 2.53043 12.2107 3.03914 12.5858 3.41421C12.9609 3.78929 13.4696 4 14 4V4ZM8 48H20V38C20.0016 37.4701 20.2128 36.9623 20.5875 36.5875C20.9623 36.2128 21.4701 36.0016 22 36H26C26.5299 36.0016 27.0377 36.2128 27.4125 36.5875C27.7872 36.9623 27.9984 37.4701 28 38V48H40V32H8V48Z" fill="#011E41"/>
</svg>
