<svg width="48" height="48" viewBox="0 0 48 48" fill="none" xmlns="http://www.w3.org/2000/svg">
<g clip-path="url(#clip0_74_1725)">
<path d="M46 29.999V26.059C45.9984 24.7175 45.4648 23.4314 44.5162 22.4828C43.5676 21.5342 42.2815 21.0006 40.94 20.999H38V18.639C37.996 16.3488 37.0845 14.1535 35.465 12.534C33.8456 10.9145 31.6503 10.003 29.36 9.99902H9.23C7.84373 10.0017 6.515 10.5535 5.53475 11.5338C4.55451 12.514 4.00265 13.8428 4 15.229V15.999H3C2.60589 15.9985 2.21554 16.0757 1.85133 16.2263C1.48712 16.3769 1.15619 16.5978 0.877508 16.8765C0.598827 17.1552 0.377869 17.4861 0.227292 17.8504C0.0767141 18.2146 -0.000523864 18.6049 2.67404e-06 18.999V25.999C0.0015854 26.529 0.212807 27.0368 0.587538 27.4115C0.962268 27.7862 1.47006 27.9974 2 27.999H4V29.999H3.99C3.72739 29.9976 3.46718 30.0491 3.22492 30.1504C2.98266 30.2518 2.76332 30.401 2.58 30.589C2.29906 30.8676 2.10732 31.2234 2.02918 31.6112C1.95105 31.9991 1.99005 32.4014 2.14122 32.767C2.2924 33.1326 2.54891 33.4449 2.87812 33.6643C3.20734 33.8837 3.59438 34.0002 3.99 33.999H8.03C8.02149 33.9026 8.01816 33.8058 8.02 33.709C8.01143 33.6427 8.00809 33.5758 8.01 33.509C8.01 31.7864 8.6943 30.1344 9.91234 28.9164C11.1304 27.6983 12.7824 27.014 14.505 27.014C16.2276 27.014 17.8796 27.6983 19.0977 28.9164C20.3157 30.1344 21 31.7864 21 33.509C21.0019 33.5758 20.9986 33.6427 20.99 33.709C20.9918 33.8058 20.9885 33.9026 20.98 33.999H30.03C30.0215 33.9026 30.0182 33.8058 30.02 33.709C30.0114 33.6427 30.0081 33.5758 30.01 33.509C30.01 31.7864 30.6943 30.1344 31.9123 28.9164C33.1304 27.6983 34.7824 27.014 36.505 27.014C38.2276 27.014 39.8796 27.6983 41.0977 28.9164C42.3157 30.1344 43 31.7864 43 33.509C43.0019 33.5758 42.9986 33.6427 42.99 33.709C42.9919 33.8058 42.9885 33.9026 42.98 33.999H46C46.5293 33.9954 47.0359 33.7835 47.4102 33.4092C47.7844 33.0349 47.9963 32.5283 48 31.999C47.9984 31.4691 47.7872 30.9613 47.4125 30.5866C47.0377 30.2118 46.53 30.0006 46 29.999ZM27 19.349V13.999H29.28C29.44 13.999 29.6 14.009 29.76 14.019C29.898 14.0282 30.0351 14.0483 30.17 14.079C31.0978 14.2588 31.9506 14.712 32.6188 15.3802C33.2871 16.0484 33.7402 16.9013 33.92 17.829C33.9505 17.9639 33.9706 18.101 33.98 18.239C33.99 18.399 34 18.559 34 18.719V20.999H27V19.349ZM11 23.999C10.324 24.0009 9.6677 23.7715 9.14 23.349C9.0488 23.2776 8.96197 23.2008 8.88 23.119C8.40166 22.6443 8.10149 22.0192 8.03 21.349C8.00965 21.2335 7.99961 21.1163 8 20.999V14.999C8.00079 14.7341 8.1064 14.4802 8.29377 14.2928C8.48113 14.1054 8.73503 13.9998 9 13.999C9.03364 13.9975 9.06733 14.0009 9.1 14.009C9.3459 14.0335 9.57399 14.1483 9.74021 14.3311C9.90644 14.514 9.99899 14.7519 10 14.999V20.999C9.99802 21.1194 10.0219 21.2387 10.07 21.349C10.1396 21.5397 10.2662 21.7044 10.4325 21.8208C10.5989 21.9372 10.797 21.9996 11 21.9996C11.203 21.9996 11.4011 21.9372 11.5675 21.8208C11.7338 21.7044 11.8604 21.5397 11.93 21.349C11.9781 21.2387 12.002 21.1194 12 20.999V14.999C12 14.7338 12.1054 14.4795 12.2929 14.2919C12.4804 14.1044 12.7348 13.999 13 13.999C13.2652 13.999 13.5196 14.1044 13.7071 14.2919C13.8946 14.4795 14 14.7338 14 14.999V20.999C14.0004 21.1163 13.9904 21.2335 13.97 21.349C13.8863 22.0782 13.5375 22.7511 12.9898 23.2398C12.4422 23.7284 11.734 23.9987 11 23.999V23.999ZM17 23.999C16.797 23.9994 16.5988 23.9371 16.4324 23.8208C16.266 23.7045 16.1395 23.5398 16.07 23.349C16.0219 23.2387 15.998 23.1194 16 22.999V14.999C15.9998 14.7826 16.07 14.572 16.1998 14.3989C16.3296 14.2257 16.5122 14.0995 16.72 14.039C16.8106 14.0109 16.9051 13.9974 17 13.999C17.1699 13.9988 17.3371 14.0418 17.4858 14.124C17.6345 14.2062 17.7599 14.325 17.85 14.469L20.9 19.349L21 19.509V14.999C21 14.7338 21.1054 14.4795 21.2929 14.2919C21.4804 14.1044 21.7348 13.999 22 13.999C22.2652 13.999 22.5196 14.1044 22.7071 14.2919C22.8946 14.4795 23 14.7338 23 14.999V22.999C23.0025 23.216 22.9333 23.4277 22.8031 23.6013C22.6729 23.7749 22.489 23.9007 22.28 23.959C22.1892 23.9864 22.0948 23.9999 22 23.999C21.8301 23.9994 21.6628 23.9564 21.5141 23.8742C21.3654 23.7919 21.2401 23.6731 21.15 23.529L21.04 23.349L19.79 21.349L19.57 20.999L18.54 19.349L18 18.489V22.999C18.002 23.1194 17.9781 23.2387 17.93 23.349C17.8605 23.5398 17.734 23.7045 17.5676 23.8208C17.4012 23.9371 17.203 23.9994 17 23.999V23.999Z" fill="#011E41"/>
<path d="M17.3102 29.999C16.5157 29.3582 15.5258 29.0088 14.5052 29.0088C13.4845 29.0088 12.4946 29.3582 11.7002 29.999C11.1723 30.419 10.7461 30.9528 10.4535 31.5606C10.1609 32.1684 10.0093 32.8344 10.0102 33.509C10.0085 33.5758 10.0119 33.6427 10.0202 33.709C10.0202 33.809 10.0302 33.899 10.0302 33.999C10.1535 35.0996 10.678 36.1161 11.5036 36.8543C12.3291 37.5925 13.3977 38.0006 14.5052 38.0006C15.6126 38.0006 16.6813 37.5925 17.5068 36.8543C18.3323 36.1161 18.8569 35.0996 18.9802 33.999C18.9802 33.899 18.9902 33.809 18.9902 33.709C18.9985 33.6427 19.0018 33.5758 19.0002 33.509C19.0011 32.8344 18.8495 32.1684 18.5569 31.5606C18.2642 30.9528 17.8381 30.419 17.3102 29.999V29.999ZM39.3102 29.999C38.5157 29.3582 37.5258 29.0088 36.5052 29.0088C35.4845 29.0088 34.4946 29.3582 33.7002 29.999C33.1723 30.419 32.7461 30.9528 32.4535 31.5606C32.1609 32.1684 32.0093 32.8344 32.0102 33.509C32.0085 33.5758 32.0119 33.6427 32.0202 33.709C32.0202 33.809 32.0302 33.899 32.0302 33.999C32.1535 35.0996 32.678 36.1161 33.5036 36.8543C34.3291 37.5925 35.3977 38.0006 36.5052 38.0006C37.6126 38.0006 38.6813 37.5925 39.5068 36.8543C40.3323 36.1161 40.8569 35.0996 40.9802 33.999C40.9802 33.899 40.9902 33.809 40.9902 33.709C40.9985 33.6427 41.0018 33.5758 41.0002 33.509C41.0011 32.8344 40.8495 32.1684 40.5569 31.5606C40.2642 30.9528 39.8381 30.419 39.3102 29.999Z" fill="#011E41"/>
</g>
<defs>
<clipPath id="clip0_74_1725">
<rect width="48" height="48" fill="white"/>
</clipPath>
</defs>
</svg>
