<svg width="48" height="48" viewBox="0 0 48 48" fill="none" xmlns="http://www.w3.org/2000/svg">
<path d="M46.5 44.9993H1.5C1.10218 44.9993 0.720644 45.1573 0.43934 45.4386C0.158035 45.72 0 46.1015 0 46.4993C0 46.8971 0.158035 47.2787 0.43934 47.56C0.720644 47.8413 1.10218 47.9993 1.5 47.9993H46.5C46.8978 47.9993 47.2794 47.8413 47.5607 47.56C47.842 47.2787 48 46.8971 48 46.4993C48 46.1015 47.842 45.72 47.5607 45.4386C47.2794 45.1573 46.8978 44.9993 46.5 44.9993ZM5.5 42.9993H42.5C42.8978 42.9993 43.2794 42.8413 43.5607 42.56C43.842 42.2787 44 41.8971 44 41.4993C44 41.1015 43.842 40.72 43.5607 40.4386C43.2794 40.1573 42.8978 39.9993 42.5 39.9993H5.5C5.10218 39.9993 4.72064 40.1573 4.43934 40.4386C4.15804 40.72 4 41.1015 4 41.4993C4 41.8971 4.15804 42.2787 4.43934 42.56C4.72064 42.8413 5.10218 42.9993 5.5 42.9993V42.9993ZM10 16.9993H14V37.9993H10V16.9993ZM18 16.9993H22V37.9993H18V16.9993ZM26 16.9993H30V37.9993H26V16.9993ZM34 16.9993H38V37.9993H34V16.9993ZM5.26 14.9993H42.74C42.9597 15 43.1738 14.9293 43.3499 14.7979C43.526 14.6665 43.6548 14.4815 43.7168 14.2707C43.7788 14.0599 43.7707 13.8347 43.6937 13.6288C43.6168 13.423 43.4751 13.2477 43.29 13.1293L24.55 0.15831C24.385 0.0554833 24.1944 0.000976563 24 0.000976562C23.8056 0.000976562 23.615 0.0554833 23.45 0.15831L4.71 13.1283C4.5249 13.2467 4.38322 13.422 4.30627 13.6278C4.22931 13.8337 4.22123 14.0589 4.28323 14.2697C4.34523 14.4805 4.47397 14.6655 4.65011 14.7969C4.82625 14.9283 5.04026 14.999 5.26 14.9983V14.9993ZM24 5.99931C24.5933 5.99931 25.1734 6.17526 25.6667 6.5049C26.1601 6.83455 26.5446 7.30308 26.7716 7.85126C26.9987 8.39944 27.0581 9.00264 26.9424 9.58458C26.8266 10.1665 26.5409 10.7011 26.1213 11.1206C25.7018 11.5402 25.1672 11.8259 24.5853 11.9417C24.0033 12.0574 23.4001 11.998 22.8519 11.7709C22.3038 11.5439 21.8352 11.1594 21.5056 10.666C21.1759 10.1727 21 9.59265 21 8.99931C20.9995 8.6052 21.0767 8.21485 21.2273 7.85064C21.3779 7.48642 21.5988 7.1555 21.8775 6.87682C22.1562 6.59814 22.4871 6.37718 22.8513 6.2266C23.2155 6.07602 23.6059 5.99878 24 5.99931Z" fill="#011E41"/>
</svg>
