<svg width="48" height="48" viewBox="0 0 48 48" fill="none" xmlns="http://www.w3.org/2000/svg">
<g clip-path="url(#clip0_74_1667)">
<path d="M2.77126e-06 33.9992C-0.000616357 33.4739 0.10251 32.9537 0.303462 32.4684C0.504414 31.9831 0.799235 31.5422 1.171 31.1712L21.171 11.1712C21.5425 10.7996 21.9835 10.5048 22.4689 10.3037C22.9543 10.1025 23.4746 9.99902 24 9.99902C24.5254 9.99902 25.0457 10.1025 25.5311 10.3037C26.0165 10.5048 26.4575 10.7996 26.829 11.1712L46.829 31.1712C47.2004 31.5427 47.4951 31.9837 47.6961 32.4691C47.8971 32.9545 48.0005 33.4747 48.0005 34C48.0004 34.5254 47.8969 35.0456 47.6958 35.5309C47.4947 36.0162 47.2 36.4572 46.8285 36.8287C46.457 37.2001 46.016 37.4947 45.5306 37.6957C45.0452 37.8967 44.525 38.0002 43.9996 38.0001C43.4743 38.0001 42.9541 37.8966 42.4688 37.6955C41.9834 37.4944 41.5424 37.1997 41.171 36.8282L24 19.6562L6.829 36.8282C6.26959 37.3878 5.55675 37.769 4.78068 37.9234C4.0046 38.0778 3.20016 37.9986 2.46911 37.6958C1.73807 37.3929 1.11327 36.8801 0.673759 36.222C0.234249 35.564 -0.00022394 34.7905 2.77126e-06 33.9992V33.9992Z" fill="#011E41"/>
</g>
<defs>
<clipPath id="clip0_74_1667">
<rect width="48" height="48" fill="white"/>
</clipPath>
</defs>
</svg>
