<svg width="48" height="48" viewBox="0 0 48 48" fill="none" xmlns="http://www.w3.org/2000/svg">
<path d="M40.1164 14.8808L26.1191 0.88349C25.8406 0.604944 25.51 0.383983 25.1462 0.233229C24.7823 0.0824757 24.3923 0.00488281 23.9985 0.00488281C23.6046 0.00488281 23.2146 0.0824757 22.8508 0.233229C22.4869 0.383983 22.1563 0.604944 21.8779 0.88349L7.88053 14.8808C7.59406 15.1575 7.36555 15.4885 7.20836 15.8544C7.05116 16.2204 6.96842 16.614 6.96496 17.0122C6.9615 17.4105 7.03739 17.8054 7.1882 18.1741C7.33901 18.5427 7.56173 18.8776 7.84336 19.1592C8.12498 19.4408 8.45987 19.6635 8.82849 19.8144C9.19711 19.9652 9.59207 20.0411 9.99034 20.0376C10.3886 20.0341 10.7822 19.9514 11.1481 19.7942C11.5141 19.637 11.845 19.4085 12.1217 19.122L20.999 10.2447V35.9978C20.999 36.7933 21.3151 37.5562 21.8776 38.1187C22.4401 38.6812 23.203 38.9972 23.9985 38.9972C24.794 38.9972 25.5569 38.6812 26.1194 38.1187C26.6819 37.5562 26.9979 36.7933 26.9979 35.9978V10.2447L35.8752 19.123C36.1529 19.4052 36.4838 19.6297 36.8487 19.7834C37.2136 19.9371 37.6053 20.017 38.0012 20.0186C38.3972 20.0202 38.7895 19.9433 39.1556 19.7925C39.5217 19.6417 39.8543 19.4199 40.1343 19.1399C40.4142 18.8599 40.6359 18.5272 40.7867 18.1611C40.9374 17.7949 41.0142 17.4026 41.0125 17.0066C41.0108 16.6107 40.9308 16.219 40.777 15.8541C40.6232 15.4893 40.3987 15.1585 40.1164 14.8808V14.8808Z" fill="#011E41"/>
<path d="M45.7949 33.998H29.9989V35.9977C29.9989 37.5887 29.3668 39.1145 28.2418 40.2395C27.1168 41.3645 25.591 41.9965 24 41.9965C22.409 41.9965 20.8832 41.3645 19.7582 40.2395C18.6332 39.1145 18.0011 37.5887 18.0011 35.9977V33.998H2.20514C1.58102 34.0422 0.99961 34.3311 0.587468 34.8018C0.175325 35.2726 -0.034181 35.8871 0.00455527 36.5116V45.4819C-0.034181 46.1063 0.175325 46.7208 0.587468 47.1916C0.99961 47.6623 1.58102 47.9512 2.20514 47.9954H45.7959C46.4198 47.951 47.001 47.662 47.4129 47.1913C47.8248 46.7205 48.0342 46.1062 47.9954 45.4819V36.5116C48.0342 35.8871 47.8247 35.2726 47.4125 34.8018C47.0004 34.3311 46.419 34.0422 45.7949 33.998V33.998ZM35.9977 42.9963C35.6022 42.9963 35.2156 42.8791 34.8868 42.6593C34.558 42.4396 34.3017 42.1273 34.1503 41.7619C33.999 41.3966 33.9594 40.9945 34.0365 40.6066C34.1137 40.2187 34.3041 39.8624 34.5838 39.5828C34.8634 39.3031 35.2197 39.1127 35.6076 39.0355C35.9955 38.9584 36.3976 38.998 36.7629 39.1493C37.1283 39.3007 37.4406 39.557 37.6603 39.8858C37.8801 40.2146 37.9973 40.6012 37.9973 40.9967C37.9973 41.527 37.7867 42.0357 37.4117 42.4107C37.0367 42.7857 36.528 42.9963 35.9977 42.9963ZM42.9964 42.9963C42.6009 42.9963 42.2143 42.8791 41.8855 42.6593C41.5566 42.4396 41.3003 42.1273 41.149 41.7619C40.9976 41.3966 40.958 40.9945 41.0352 40.6066C41.1123 40.2187 41.3028 39.8624 41.5824 39.5828C41.8621 39.3031 42.2184 39.1127 42.6063 39.0355C42.9942 38.9584 43.3962 38.998 43.7616 39.1493C44.127 39.3007 44.4393 39.557 44.659 39.8858C44.8787 40.2146 44.996 40.6012 44.996 40.9967C44.996 41.527 44.7853 42.0357 44.4103 42.4107C44.0353 42.7857 43.5267 42.9963 42.9964 42.9963Z" fill="#011E41"/>
</svg>
