<svg width="48" height="48" viewBox="0 0 48 48" fill="none" xmlns="http://www.w3.org/2000/svg">
<g clip-path="url(#clip0_74_1404)">
<path d="M46.9238 16H44.9938V13.06C44.9946 12.9206 44.9677 12.7824 44.9147 12.6534C44.8617 12.5245 44.7837 12.4073 44.6851 12.3087C44.5865 12.2101 44.4693 12.1321 44.3404 12.0791C44.2114 12.0261 44.0732 11.9992 43.9338 12H41.9938V1.5C41.9938 1.10218 41.8357 0.720644 41.5544 0.43934C41.2731 0.158035 40.8916 0 40.4938 0C40.096 0 39.7144 0.158035 39.4331 0.43934C39.1518 0.720644 38.9938 1.10218 38.9938 1.5V12H37.0538C36.9144 11.9992 36.7762 12.0261 36.6472 12.0791C36.5182 12.1321 36.4011 12.2101 36.3025 12.3087C36.2039 12.4073 36.1258 12.5245 36.0728 12.6534C36.0199 12.7824 35.993 12.9206 35.9938 13.06V16H34.0638C33.7801 16.0003 33.5081 16.1131 33.3075 16.3137C33.1069 16.5143 32.994 16.7863 32.9938 17.07V36L39.3438 47L39.9138 48H47.4938C47.5596 48.0007 47.6249 47.9882 47.6859 47.9633C47.7469 47.9384 47.8023 47.9016 47.8488 47.855C47.8954 47.8085 47.9322 47.7531 47.9571 47.6921C47.982 47.6312 47.9945 47.5658 47.9938 47.5V17.07C47.9935 16.7863 47.8807 16.5143 47.6801 16.3137C47.4795 16.1131 47.2075 16.0003 46.9238 16V16ZM35.9938 19.5C35.9931 19.4342 36.0056 19.3688 36.0305 19.3079C36.0554 19.2469 36.0922 19.1915 36.1387 19.145C36.1853 19.0984 36.2407 19.0616 36.3017 19.0367C36.3626 19.0118 36.4279 18.9993 36.4938 19H38.4938C38.5596 18.9993 38.6249 19.0118 38.6859 19.0367C38.7469 19.0616 38.8023 19.0984 38.8488 19.145C38.8954 19.1915 38.9322 19.2469 38.9571 19.3079C38.982 19.3688 38.9945 19.4342 38.9938 19.5V21.5C38.9945 21.5658 38.982 21.6312 38.9571 21.6921C38.9322 21.7531 38.8954 21.8085 38.8488 21.855C38.8023 21.9016 38.7469 21.9384 38.6859 21.9633C38.6249 21.9882 38.5596 22.0007 38.4938 22H36.4938C36.4279 22.0007 36.3626 21.9882 36.3017 21.9633C36.2407 21.9384 36.1853 21.9016 36.1387 21.855C36.0922 21.8085 36.0554 21.7531 36.0305 21.6921C36.0056 21.6312 35.9931 21.5658 35.9938 21.5V19.5ZM35.9938 25.5C35.9931 25.4342 36.0056 25.3688 36.0305 25.3079C36.0554 25.2469 36.0922 25.1915 36.1387 25.145C36.1853 25.0984 36.2407 25.0616 36.3017 25.0367C36.3626 25.0118 36.4279 24.9993 36.4938 25H38.4938C38.5596 24.9993 38.6249 25.0118 38.6859 25.0367C38.7469 25.0616 38.8023 25.0984 38.8488 25.145C38.8954 25.1915 38.9322 25.2469 38.9571 25.3079C38.982 25.3688 38.9945 25.4342 38.9938 25.5V27.5C38.9945 27.5658 38.982 27.6312 38.9571 27.6921C38.9322 27.7531 38.8954 27.8085 38.8488 27.855C38.8023 27.9016 38.7469 27.9384 38.6859 27.9633C38.6249 27.9882 38.5596 28.0007 38.4938 28H36.4938C36.4279 28.0007 36.3626 27.9882 36.3017 27.9633C36.2407 27.9384 36.1853 27.9016 36.1387 27.855C36.0922 27.8085 36.0554 27.7531 36.0305 27.6921C36.0056 27.6312 35.9931 27.5658 35.9938 27.5V25.5ZM38.9938 33.5C38.9945 33.5658 38.982 33.6312 38.9571 33.6921C38.9322 33.7531 38.8954 33.8085 38.8488 33.855C38.8023 33.9016 38.7469 33.9384 38.6859 33.9633C38.6249 33.9882 38.5596 34.0007 38.4938 34H36.4938C36.4279 34.0007 36.3626 33.9882 36.3017 33.9633C36.2407 33.9384 36.1853 33.9016 36.1387 33.855C36.0922 33.8085 36.0554 33.7531 36.0305 33.6921C36.0056 33.6312 35.9931 33.5658 35.9938 33.5V31.5C35.9931 31.4342 36.0056 31.3688 36.0305 31.3079C36.0554 31.2469 36.0922 31.1915 36.1387 31.145C36.1853 31.0984 36.2407 31.0616 36.3017 31.0367C36.3626 31.0118 36.4279 30.9993 36.4938 31H38.4938C38.5596 30.9993 38.6249 31.0118 38.6859 31.0367C38.7469 31.0616 38.8023 31.0984 38.8488 31.145C38.8954 31.1915 38.9322 31.2469 38.9571 31.3079C38.982 31.3688 38.9945 31.4342 38.9938 31.5V33.5ZM44.9938 45H41.9938V40C41.9946 39.735 42.1002 39.4811 42.2875 39.2938C42.4749 39.1064 42.7288 39.0008 42.9938 39H43.9938C44.2588 39.0008 44.5127 39.1064 44.7 39.2938C44.8874 39.4811 44.993 39.735 44.9938 40V45ZM44.9938 33.5C44.9945 33.5658 44.982 33.6312 44.9571 33.6921C44.9322 33.7531 44.8954 33.8085 44.8488 33.855C44.8023 33.9016 44.7469 33.9384 44.6859 33.9633C44.6249 33.9882 44.5596 34.0007 44.4938 34H42.4938C42.4279 34.0007 42.3626 33.9882 42.3017 33.9633C42.2407 33.9384 42.1853 33.9016 42.1387 33.855C42.0922 33.8085 42.0554 33.7531 42.0305 33.6921C42.0056 33.6312 41.9931 33.5658 41.9938 33.5V31.5C41.9931 31.4342 42.0056 31.3688 42.0305 31.3079C42.0554 31.2469 42.0922 31.1915 42.1387 31.145C42.1853 31.0984 42.2407 31.0616 42.3017 31.0367C42.3626 31.0118 42.4279 30.9993 42.4938 31H44.4938C44.5596 30.9993 44.6249 31.0118 44.6859 31.0367C44.7469 31.0616 44.8023 31.0984 44.8488 31.145C44.8954 31.1915 44.9322 31.2469 44.9571 31.3079C44.982 31.3688 44.9945 31.4342 44.9938 31.5V33.5ZM44.9938 27.5C44.9945 27.5658 44.982 27.6312 44.9571 27.6921C44.9322 27.7531 44.8954 27.8085 44.8488 27.855C44.8023 27.9016 44.7469 27.9384 44.6859 27.9633C44.6249 27.9882 44.5596 28.0007 44.4938 28H42.4938C42.4279 28.0007 42.3626 27.9882 42.3017 27.9633C42.2407 27.9384 42.1853 27.9016 42.1387 27.855C42.0922 27.8085 42.0554 27.7531 42.0305 27.6921C42.0056 27.6312 41.9931 27.5658 41.9938 27.5V25.5C41.9931 25.4342 42.0056 25.3688 42.0305 25.3079C42.0554 25.2469 42.0922 25.1915 42.1387 25.145C42.1853 25.0984 42.2407 25.0616 42.3017 25.0367C42.3626 25.0118 42.4279 24.9993 42.4938 25H44.4938C44.5596 24.9993 44.6249 25.0118 44.6859 25.0367C44.7469 25.0616 44.8023 25.0984 44.8488 25.145C44.8954 25.1915 44.9322 25.2469 44.9571 25.3079C44.982 25.3688 44.9945 25.4342 44.9938 25.5V27.5ZM44.9938 21.5C44.9945 21.5658 44.982 21.6312 44.9571 21.6921C44.9322 21.7531 44.8954 21.8085 44.8488 21.855C44.8023 21.9016 44.7469 21.9384 44.6859 21.9633C44.6249 21.9882 44.5596 22.0007 44.4938 22H42.4938C42.4279 22.0007 42.3626 21.9882 42.3017 21.9633C42.2407 21.9384 42.1853 21.9016 42.1387 21.855C42.0922 21.8085 42.0554 21.7531 42.0305 21.6921C42.0056 21.6312 41.9931 21.5658 41.9938 21.5V19.5C41.9931 19.4342 42.0056 19.3688 42.0305 19.3079C42.0554 19.2469 42.0922 19.1915 42.1387 19.145C42.1853 19.0984 42.2407 19.0616 42.3017 19.0367C42.3626 19.0118 42.4279 18.9993 42.4938 19H44.4938C44.5596 18.9993 44.6249 19.0118 44.6859 19.0367C44.7469 19.0616 44.8023 19.0984 44.8488 19.145C44.8954 19.1915 44.9322 19.2469 44.9571 19.3079C44.982 19.3688 44.9945 19.4342 44.9938 19.5V21.5ZM23.0438 22.64C22.5865 21.8381 21.9252 21.1714 21.1269 20.7077C20.3287 20.2439 19.4219 19.9997 18.4988 19.9997C17.5756 19.9997 16.6689 20.2439 15.8706 20.7077C15.0724 21.1714 14.4111 21.8381 13.9538 22.64L0.123781 46.71C0.0477483 46.8411 0.00773889 46.9899 0.0078126 47.1414C0.00788631 47.293 0.0480405 47.4418 0.124201 47.5728C0.200361 47.7038 0.309817 47.8123 0.441463 47.8873C0.573109 47.9624 0.72226 48.0012 0.873781 48H37.6038L32.9938 39.97L23.0438 22.64Z" fill="#011E41"/>
</g>
<defs>
<clipPath id="clip0_74_1404">
<rect width="48" height="48" fill="white"/>
</clipPath>
</defs>
</svg>
