<svg width="48" height="48" viewBox="0 0 48 48" fill="none" xmlns="http://www.w3.org/2000/svg">
<path d="M46.93 16H45V13.06C45.0008 12.9206 44.9739 12.7824 44.9209 12.6534C44.8679 12.5245 44.7899 12.4073 44.6913 12.3087C44.5927 12.2101 44.4755 12.1321 44.3466 12.0791C44.2176 12.0261 44.0794 11.9992 43.94 12H42V1.5C42 1.10218 41.842 0.720644 41.5607 0.43934C41.2794 0.158035 40.8978 0 40.5 0C40.1022 0 39.7206 0.158035 39.4393 0.43934C39.158 0.720644 39 1.10218 39 1.5V12H37.06C36.9206 11.9992 36.7824 12.0261 36.6534 12.0791C36.5245 12.1321 36.4073 12.2101 36.3087 12.3087C36.2101 12.4073 36.1321 12.5245 36.0791 12.6534C36.0261 12.7824 35.9992 12.9206 36 13.06V16H34.07C33.7863 16.0003 33.5143 16.1131 33.3137 16.3137C33.1131 16.5143 33.0003 16.7863 33 17.07V45H29V3C28.9992 2.73503 28.8936 2.48113 28.7062 2.29377C28.5189 2.1064 28.265 2.00079 28 2H16C15.735 2.00079 15.4811 2.1064 15.2938 2.29377C15.1064 2.48113 15.0008 2.73503 15 3V45H8V38.788C9.27719 38.4259 10.3803 37.6142 11.1059 36.5025C11.8314 35.3908 12.1304 34.0542 11.9476 32.7393C11.7649 31.4244 11.1127 30.22 10.1115 29.3483C9.11023 28.4766 7.82752 27.9965 6.5 27.9965C5.17248 27.9965 3.88977 28.4766 2.88854 29.3483C1.88731 30.22 1.23514 31.4244 1.05237 32.7393C0.869609 34.0542 1.16858 35.3908 1.89412 36.5025C2.61966 37.6142 3.72281 38.4259 5 38.788V45H0V48H48V17.07C47.9997 16.7863 47.8869 16.5143 47.6863 16.3137C47.4857 16.1131 47.2137 16.0003 46.93 16V16ZM42 31.5C41.9993 31.4342 42.0118 31.3688 42.0367 31.3079C42.0616 31.2469 42.0984 31.1915 42.145 31.145C42.1915 31.0984 42.2469 31.0616 42.3079 31.0367C42.3688 31.0118 42.4342 30.9993 42.5 31H44.5C44.5658 30.9993 44.6312 31.0118 44.6921 31.0367C44.7531 31.0616 44.8085 31.0984 44.855 31.145C44.9016 31.1915 44.9384 31.2469 44.9633 31.3079C44.9882 31.3688 45.0007 31.4342 45 31.5V33.5C45.0007 33.5658 44.9882 33.6312 44.9633 33.6921C44.9384 33.7531 44.9016 33.8085 44.855 33.855C44.8085 33.9016 44.7531 33.9384 44.6921 33.9633C44.6312 33.9882 44.5658 34.0007 44.5 34H42.5C42.4342 34.0007 42.3688 33.9882 42.3079 33.9633C42.2469 33.9384 42.1915 33.9016 42.145 33.855C42.0984 33.8085 42.0616 33.7531 42.0367 33.6921C42.0118 33.6312 41.9993 33.5658 42 33.5V31.5ZM44.5 28H42.5C42.4342 28.0007 42.3688 27.9882 42.3079 27.9633C42.2469 27.9384 42.1915 27.9016 42.145 27.855C42.0984 27.8085 42.0616 27.7531 42.0367 27.6921C42.0118 27.6312 41.9993 27.5658 42 27.5V25.5C41.9993 25.4342 42.0118 25.3688 42.0367 25.3079C42.0616 25.2469 42.0984 25.1915 42.145 25.145C42.1915 25.0984 42.2469 25.0616 42.3079 25.0367C42.3688 25.0118 42.4342 24.9993 42.5 25H44.5C44.5658 24.9993 44.6312 25.0118 44.6921 25.0367C44.7531 25.0616 44.8085 25.0984 44.855 25.145C44.9016 25.1915 44.9384 25.2469 44.9633 25.3079C44.9882 25.3688 45.0007 25.4342 45 25.5V27.5C45.0007 27.5658 44.9882 27.6312 44.9633 27.6921C44.9384 27.7531 44.9016 27.8085 44.855 27.855C44.8085 27.9016 44.7531 27.9384 44.6921 27.9633C44.6312 27.9882 44.5658 28.0007 44.5 28V28ZM44.5 22H42.5C42.4342 22.0007 42.3688 21.9882 42.3079 21.9633C42.2469 21.9384 42.1915 21.9016 42.145 21.855C42.0984 21.8085 42.0616 21.7531 42.0367 21.6921C42.0118 21.6312 41.9993 21.5658 42 21.5V19.5C41.9993 19.4342 42.0118 19.3688 42.0367 19.3079C42.0616 19.2469 42.0984 19.1915 42.145 19.145C42.1915 19.0984 42.2469 19.0616 42.3079 19.0367C42.3688 19.0118 42.4342 18.9993 42.5 19H44.5C44.5658 18.9993 44.6312 19.0118 44.6921 19.0367C44.7531 19.0616 44.8085 19.0984 44.855 19.145C44.9016 19.1915 44.9384 19.2469 44.9633 19.3079C44.9882 19.3688 45.0007 19.4342 45 19.5V21.5C45.0007 21.5658 44.9882 21.6312 44.9633 21.6921C44.9384 21.7531 44.9016 21.8085 44.855 21.855C44.8085 21.9016 44.7531 21.9384 44.6921 21.9633C44.6312 21.9882 44.5658 22.0007 44.5 22V22ZM36 19.5C35.9993 19.4342 36.0118 19.3688 36.0367 19.3079C36.0616 19.2469 36.0984 19.1915 36.145 19.145C36.1915 19.0984 36.2469 19.0616 36.3079 19.0367C36.3688 19.0118 36.4342 18.9993 36.5 19H38.5C38.5658 18.9993 38.6312 19.0118 38.6921 19.0367C38.7531 19.0616 38.8085 19.0984 38.855 19.145C38.9016 19.1915 38.9384 19.2469 38.9633 19.3079C38.9882 19.3688 39.0007 19.4342 39 19.5V21.5C39.0007 21.5658 38.9882 21.6312 38.9633 21.6921C38.9384 21.7531 38.9016 21.8085 38.855 21.855C38.8085 21.9016 38.7531 21.9384 38.6921 21.9633C38.6312 21.9882 38.5658 22.0007 38.5 22H36.5C36.4342 22.0007 36.3688 21.9882 36.3079 21.9633C36.2469 21.9384 36.1915 21.9016 36.145 21.855C36.0984 21.8085 36.0616 21.7531 36.0367 21.6921C36.0118 21.6312 35.9993 21.5658 36 21.5V19.5ZM36 25.5C35.9993 25.4342 36.0118 25.3688 36.0367 25.3079C36.0616 25.2469 36.0984 25.1915 36.145 25.145C36.1915 25.0984 36.2469 25.0616 36.3079 25.0367C36.3688 25.0118 36.4342 24.9993 36.5 25H38.5C38.5658 24.9993 38.6312 25.0118 38.6921 25.0367C38.7531 25.0616 38.8085 25.0984 38.855 25.145C38.9016 25.1915 38.9384 25.2469 38.9633 25.3079C38.9882 25.3688 39.0007 25.4342 39 25.5V27.5C39.0007 27.5658 38.9882 27.6312 38.9633 27.6921C38.9384 27.7531 38.9016 27.8085 38.855 27.855C38.8085 27.9016 38.7531 27.9384 38.6921 27.9633C38.6312 27.9882 38.5658 28.0007 38.5 28H36.5C36.4342 28.0007 36.3688 27.9882 36.3079 27.9633C36.2469 27.9384 36.1915 27.9016 36.145 27.855C36.0984 27.8085 36.0616 27.7531 36.0367 27.6921C36.0118 27.6312 35.9993 27.5658 36 27.5V25.5ZM36 31.5C35.9993 31.4342 36.0118 31.3688 36.0367 31.3079C36.0616 31.2469 36.0984 31.1915 36.145 31.145C36.1915 31.0984 36.2469 31.0616 36.3079 31.0367C36.3688 31.0118 36.4342 30.9993 36.5 31H38.5C38.5658 30.9993 38.6312 31.0118 38.6921 31.0367C38.7531 31.0616 38.8085 31.0984 38.855 31.145C38.9016 31.1915 38.9384 31.2469 38.9633 31.3079C38.9882 31.3688 39.0007 31.4342 39 31.5V33.5C39.0007 33.5658 38.9882 33.6312 38.9633 33.6921C38.9384 33.7531 38.9016 33.8085 38.855 33.855C38.8085 33.9016 38.7531 33.9384 38.6921 33.9633C38.6312 33.9882 38.5658 34.0007 38.5 34H36.5C36.4342 34.0007 36.3688 33.9882 36.3079 33.9633C36.2469 33.9384 36.1915 33.9016 36.145 33.855C36.0984 33.8085 36.0616 33.7531 36.0367 33.6921C36.0118 33.6312 35.9993 33.5658 36 33.5V31.5ZM19 8C19.0008 7.73503 19.1064 7.48113 19.2938 7.29377C19.4811 7.1064 19.735 7.00079 20 7H24C24.265 7.00079 24.5189 7.1064 24.7062 7.29377C24.8936 7.48113 24.9992 7.73503 25 8V9C24.9992 9.26497 24.8936 9.51887 24.7062 9.70623C24.5189 9.8936 24.265 9.99921 24 10H20C19.735 9.99921 19.4811 9.8936 19.2938 9.70623C19.1064 9.51887 19.0008 9.26497 19 9V8ZM19 16C19.0008 15.735 19.1064 15.4811 19.2938 15.2938C19.4811 15.1064 19.735 15.0008 20 15H24C24.265 15.0008 24.5189 15.1064 24.7062 15.2938C24.8936 15.4811 24.9992 15.735 25 16V17C24.9992 17.265 24.8936 17.5189 24.7062 17.7062C24.5189 17.8936 24.265 17.9992 24 18H20C19.735 17.9992 19.4811 17.8936 19.2938 17.7062C19.1064 17.5189 19.0008 17.265 19 17V16ZM19 24C19.0008 23.735 19.1064 23.4811 19.2938 23.2938C19.4811 23.1064 19.735 23.0008 20 23H24C24.265 23.0008 24.5189 23.1064 24.7062 23.2938C24.8936 23.4811 24.9992 23.735 25 24V25C24.9992 25.265 24.8936 25.5189 24.7062 25.7062C24.5189 25.8936 24.265 25.9992 24 26H20C19.735 25.9992 19.4811 25.8936 19.2938 25.7062C19.1064 25.5189 19.0008 25.265 19 25V24ZM19 45V40C19.0008 39.735 19.1064 39.4811 19.2938 39.2938C19.4811 39.1064 19.735 39.0008 20 39H24C24.265 39.0008 24.5189 39.1064 24.7062 39.2938C24.8936 39.4811 24.9992 39.735 25 40V45H19ZM42 45V40C42.0008 39.735 42.1064 39.4811 42.2938 39.2938C42.4811 39.1064 42.735 39.0008 43 39H44C44.265 39.0008 44.5189 39.1064 44.7062 39.2938C44.8936 39.4811 44.9992 39.735 45 40V45H42Z" fill="#011E41"/>
</svg>
