<svg width="48" height="48" viewBox="0 0 48 48" fill="none" xmlns="http://www.w3.org/2000/svg">
<path d="M36 22C39.3137 22 42 19.3137 42 16C42 12.6863 39.3137 10 36 10C32.6863 10 30 12.6863 30 16C30 19.3137 32.6863 22 36 22Z" fill="#011E41"/>
<path d="M37.0002 25H36.0002C34.4792 24.9979 32.9744 25.3125 31.5816 25.9237C30.1888 26.5349 28.9384 27.4293 27.9102 28.55C29.9204 31.2905 31.003 34.6013 31.0002 38V39H48.0002V36C48.0009 34.5552 47.717 33.1245 47.1644 31.7896C46.6119 30.4546 45.8017 29.2417 44.7801 28.2201C43.7585 27.1985 42.5455 26.3883 41.2106 25.8357C39.8757 25.2832 38.4449 24.9992 37.0002 25V25Z" fill="#011E41"/>
<path d="M14 22C18.4183 22 22 18.4183 22 14C22 9.58172 18.4183 6 14 6C9.58172 6 6 9.58172 6 14C6 18.4183 9.58172 22 14 22Z" fill="#011E41"/>
<path d="M15 25H13C9.55219 25 6.24558 26.3696 3.80761 28.8076C1.36964 31.2456 0 34.5522 0 38L0 42H28V38C27.9989 34.5525 26.629 31.2465 24.1912 28.8088C21.7535 26.371 18.4475 25.0011 15 25V25Z" fill="#011E41"/>
</svg>
