<svg width="48" height="48" viewBox="0 0 48 48" fill="none" xmlns="http://www.w3.org/2000/svg">
<path d="M46 15.4372H39.456L32.577 6.53019C31.6235 5.29547 30.3997 4.2958 28.9995 3.60797C27.5993 2.92015 26.06 2.5625 24.5 2.5625C22.94 2.5625 21.4007 2.92015 20.0005 3.60797C18.6003 4.2958 17.3765 5.29547 16.423 6.53019L9.544 15.4372H2C1.46957 15.4372 0.960859 15.6479 0.585786 16.023C0.210714 16.398 0 16.9068 0 17.4372C0 17.9676 0.210714 18.4763 0.585786 18.8514C0.960859 19.2265 1.46957 19.4372 2 19.4372H8.195C8.72884 22.9064 10.3554 26.1148 12.8382 28.596C15.321 31.0771 18.5305 32.7016 22 33.2332V45.4372H28V33.0522C31.2606 32.3437 34.2297 30.6633 36.5158 28.2329C38.8018 25.8024 40.2973 22.736 40.805 19.4382H46C46.5304 19.4382 47.0391 19.2275 47.4142 18.8524C47.7893 18.4773 48 17.9686 48 17.4382C48 16.9078 47.7893 16.399 47.4142 16.024C47.0391 15.6489 46.5304 15.4382 46 15.4382V15.4372ZM28 29.6272V24.4372C27.9968 23.6415 27.6777 22.8797 27.1128 22.3194C26.548 21.759 25.7837 21.446 24.988 21.4492C24.1924 21.4524 23.4306 21.7715 22.8702 22.3363C22.3098 22.9012 21.9968 23.6655 22 24.4612V29.6282C20.8561 28.9678 19.9622 27.9484 19.4567 26.7281C18.9513 25.5079 18.8626 24.1549 19.2044 22.8791C19.5463 21.6033 20.2996 20.476 21.3474 19.6719C22.3953 18.8679 23.6792 18.432 25 18.432C26.3208 18.432 27.6047 18.8679 28.6526 19.6719C29.7004 20.476 30.4537 21.6033 30.7956 22.8791C31.1374 24.1549 31.0487 25.5079 30.5433 26.7281C30.0378 27.9484 29.1439 28.9678 28 29.6282V29.6272Z" fill="#011E41"/>
</svg>
