<?xml version="1.0" encoding="utf-8"?>
<!-- Generator: Adobe Illustrator 25.2.1, SVG Export Plug-In . SVG Version: 6.00 Build 0)  -->
<svg version="1.1" id="Layer_1" xmlns="http://www.w3.org/2000/svg" xmlns:xlink="http://www.w3.org/1999/xlink" x="0px" y="0px"
	 viewBox="0 0 288 560" style="enable-background:new 0 0 288 560;" xml:space="preserve">
<style type="text/css">
	.st0{fill:#FEFEFE;}
	.st1{fill:#FCFCFC;}
	.st2{fill:#414141;}
	.st3{fill:#5B5B5B;}
	.st4{fill:#424242;}
	.st5{fill:#464646;}
	.st6{fill:#FED600;}
	.st7{fill:#FDFDFD;}
	.st8{fill:#FDD600;}
	.st9{fill:#0057B6;}
	.st10{fill:#0257B6;}
	.st11{fill:#FCD501;}
	.st12{fill:#FBD402;}
	.st13{fill:#434343;}
	.st14{fill:#444444;}
	.st15{fill:#484848;}
	.st16{fill:#474747;}
	.st17{fill:#494949;}
	.st18{fill:#F2CE05;}
	.st19{fill:#0456B1;}
	.st20{fill:#ECEDEF;}
	.st21{fill:#F3F2EE;}
	.st22{fill:#454545;}
	.st23{fill:#545454;}
	.st24{fill:#ECEEF0;}
	.st25{fill:#463F36;}
	.st26{fill:#646464;}
	.st27{fill:#575757;}
	.st28{fill:#435363;}
	.st29{fill:#5A5A5A;}
	.st30{fill:#575758;}
	.st31{fill:#334A64;}
	.st32{fill:#606060;}
	.st33{fill:#5C5C5C;}
	.st34{fill:#4D4D4E;}
	.st35{fill:#292927;}
	.st36{fill:#5D5D5D;}
	.st37{fill:#21211F;}
	.st38{fill:#6B6B6B;}
	.st39{fill:#505152;}
	.st40{fill:#545453;}
	.st41{fill:#6D6D6D;}
	.st42{fill:#4C4C4A;}
	.st43{fill:#626262;}
	.st44{fill:#1D1D1B;}
	.st45{fill:#474A4E;}
	.st46{fill:#686868;}
	.st47{fill:#11141C;}
	.st48{fill:#5E5E5E;}
	.st49{fill:#393A44;}
	.st50{fill:#616161;}
	.st51{fill:#2F2F2D;}
	.st52{fill:#535252;}
	.st53{fill:#1D2832;}
	.st54{fill:#555454;}
	.st55{fill:#485058;}
	.st56{fill:#4F4F4D;}
	.st57{fill:#615E48;}
	.st58{fill:#1F1912;}
	.st59{fill:#42413E;}
	.st60{fill:#484534;}
	.st61{fill:#393A43;}
	.st62{fill:#535353;}
	.st63{fill:#12141D;}
	.st64{fill:#57575C;}
	.st65{fill:#3D3B30;}
	.st66{fill:#676563;}
	.st67{fill:#2A2A28;}
	.st68{fill:#F4F3EE;}
	.st69{fill:#545452;}
	.st70{fill:#5B5322;}
	.st71{fill:#0058BD;}
	.st72{fill:#1465C1;}
	.st73{fill:#0E111D;}
	.st74{fill:#5F5F5F;}
	.st75{fill:#585339;}
	.st76{fill:#5D5737;}
	.st77{fill:#5E5837;}
	.st78{fill:#534F3B;}
	.st79{fill:#2E3248;}
	.st80{fill:#5F5937;}
	.st81{fill:#393B43;}
	.st82{fill:#E4E0C6;}
	.st83{fill:#645C35;}
	.st84{fill:#353845;}
	.st85{fill:#55513A;}
	.st86{fill:#716730;}
	.st87{fill:#404041;}
	.st88{fill:#323546;}
	.st89{fill:#D0D9E2;}
	.st90{fill:#4D4515;}
	.st91{fill:#FEDF00;}
	.st92{fill:#060A1E;}
	.st93{fill:#15161C;}
	.st94{fill:#373318;}
	.st95{fill:#080B1D;}
	.st96{fill:#1A242D;}
	.st97{fill:#1A2228;}
	.st98{fill:#1D1B17;}
	.st99{fill:#1A222A;}
	.st100{fill:#1F180F;}
	.st101{fill:#1F1910;}
	.st102{fill:#344558;}
	.st103{fill:#3B434A;}
	.st104{fill:#354557;}
	.st105{fill:#43403D;}
	.st106{fill:#43403C;}
	.st107{fill:#3C424A;}
	.st108{fill:#374453;}
	.st109{fill:#38444F;}
	.st110{fill:#3D4248;}
	.st111{fill:#F4F4F4;}
	.st112{fill:#FBFBFB;}
	.st113{fill:#0058BE;}
</style>
<g>
	<path class="st0" d="M202.2,234.54c0,3.45-0.01,6.89,0.02,10.34c0,0.51-0.1,0.7-0.62,0.6c-0.15-0.03-0.32,0-0.48,0
		c-35.49,0-70.97,0-106.46,0c0.15-0.8,0.9-0.4,1.32-0.66c0.33-0.09,0.68-0.11,0.99-0.25c0.71-0.28,1.44-0.49,2.08-0.92
		c0.4-0.26,0.85-0.46,1.24-0.73c0.44-0.23,0.75-0.62,1.13-0.93c0.1-0.06,0.21-0.11,0.32-0.14c3.83-2.05,5.63-5.38,6.12-9.54
		c0.06-0.5-0.16-0.75-0.66-0.76c-1.98-0.03-3.97-0.01-5.95-0.01c-0.68,0-0.77,0.59-1.1,0.94c-0.68,0.41-1.44,0.16-2.16,0.27
		c-0.58,0.16-0.32,0.66-0.41,1.02c-0.01,0.16-0.04,0.32-0.1,0.47c-0.12,0.31-0.28,0.59-0.43,0.89c-0.21,0.33-0.39,0.69-0.63,1.01
		c-0.14,0.14-0.32,0.17-0.51,0.16c-2.6-0.24-4.59-1.27-5.32-3.97c-0.16-0.6-0.58-0.79-1.17-0.79c-1.79,0-3.59,0.02-5.38-0.01
		c-0.68-0.01-1.01,0.36-1.26,0.89c-0.32,0.28-0.71,0.27-1.1,0.29c-1.39,0.08-1.39,0.08-1.18,1.51c0.07,0.29,0.1,0.58,0.12,0.87
		c0.03,0.56,0.28,1.07,0.43,1.6c0.11,0.34,0.2,0.69,0.35,1.02c0.1,0.23,0.28,0.4,0.43,0.6c0.05,0.09,0.08,0.19,0.1,0.29
		c0.15,0.57,0.56,1,0.88,1.47c0.27,0.37,0.5,0.76,0.92,0.99c0.29,0.22,0.54,0.47,0.76,0.76c0.22,0.41,0.62,0.64,0.98,0.91
		c0.42,0.38,0.96,0.59,1.42,0.91c0.46,0.35,0.97,0.59,1.54,0.71c0.49,0.22,0.96,0.47,1.51,0.52c0.28,0.14,0.72,0.1,0.65,0.6
		c-6.99,0-13.97-0.01-20.96,0.02c-0.71,0-0.86-0.14-0.86-0.85c0.03-9.35,0.03-18.7,0-28.05c0-0.71,0.14-0.85,0.86-0.85
		c43.91,0.02,87.81,0.02,131.72,0c0.71,0,0.87,0.14,0.86,0.85c-0.05,3.37-0.02,6.73-0.02,10.1c-0.46,0.42-1.04,0.33-1.59,0.33
		c-0.63-0.01-0.96,0.2-0.95,0.88c0.02,1.81,0.01,3.62,0,5.43c0,0.68,0.33,0.89,0.96,0.88C201.16,234.21,201.74,234.12,202.2,234.54z
		"/>
	<path class="st1" d="M202.2,230.03c0,1.35,0,2.69,0,4.04c-0.62,0.41-1.31,0.21-1.97,0.2c-0.42-0.01-0.63-0.3-0.64-0.71
		c-0.04-0.83-0.02-1.65-0.01-2.48c0.01-0.52,0.3-0.78,0.8-0.87c0.47-0.08,0.96,0,1.4-0.23C201.93,229.93,202.07,229.95,202.2,230.03
		z"/>
	<path class="st2" d="M201.96,230.03c-0.07,0.98-0.83,0.48-1.24,0.48c-0.73,0-0.93,0.21-0.93,0.93c-0.01,2.49-0.04,2.49,2.42,2.63
		c0,0.16,0,0.32,0,0.48c-0.94-0.07-2.22,0.42-2.73-0.2c-0.48-0.57-0.17-1.8-0.18-2.74c-0.02-1.38,0.02-2.76-0.02-4.14
		c-0.02-0.59,0.13-0.88,0.79-0.82c0.71,0.06,1.43,0.04,2.14,0.05c0,0.16,0,0.32,0,0.48c-0.28,0.27-0.63,0.33-0.99,0.32
		c-0.73-0.01-1.07,0.27-1.08,1.05c-0.01,0.79,0.27,1.18,1.08,1.18C201.49,229.72,201.77,229.79,201.96,230.03z"/>
	<path class="st0" d="M201.96,230.03c-0.04,0-0.08,0-0.12,0c-2.09-0.01-2.06-0.01-2.05-2.02c0-0.67,0.2-0.91,0.87-0.84
		c0.51,0.05,1.03,0.01,1.55,0.01c0,0.95,0,1.9,0,2.85C202.12,230.03,202.04,230.03,201.96,230.03z"/>
	<path class="st3" d="M96.1,244.94c-0.32,0.58-1.04,0.13-1.43,0.54c-0.32,0-0.64,0-0.96,0c-0.08-0.08-0.12-0.18-0.13-0.3
		c0.02-0.11,0.08-0.21,0.16-0.28c0.74-0.24,1.48-0.47,2.27-0.22c0.08,0.04,0.11,0.09,0.11,0.16
		C96.13,244.9,96.12,244.94,96.1,244.94z"/>
	<path class="st4" d="M90.6,245.48c0.03-0.39-0.59-0.1-0.54-0.51c-0.02-0.14,0.03-0.25,0.15-0.32c0.61-0.23,1.14-0.05,1.63,0.31
		c0.1,0.18,0.1,0.36-0.04,0.53C91.4,245.48,91,245.48,90.6,245.48z"/>
	<path class="st5" d="M91.8,245.48c0-0.15,0-0.3,0-0.45c0.13-0.16,0.31-0.19,0.51-0.19c0.48,0.11,1.01,0.02,1.41,0.4
		c0,0.08,0,0.16,0,0.24C93.07,245.48,92.44,245.48,91.8,245.48z"/>
	<path class="st6" d="M101.62,242.13c-0.07,0.05-0.15,0.1-0.22,0.14c-0.41,0.22-0.79,0.48-1.17,0.75c-0.41,0.27-0.88,0.46-1.29,0.73
		c-0.11,0.04-0.22,0.07-0.34,0.1c-0.8,0.31-1.68,0.18-2.5,0.41c-6.29,0.3-12.02-3.9-13.36-10.23c-0.08-0.39-0.11-0.78,0.11-1.15
		c0.09-0.11,0.2-0.18,0.34-0.23c1.54-0.14,3.09-0.2,4.63,0.03c0.6,0.32,0.64,0.91,0.72,1.48c0.19,0.63,0.58,1.14,1.05,1.59
		c0.08,0.07,0.16,0.14,0.23,0.22c0.24,0.36,0.59,0.58,0.96,0.78c0.43,0.22,0.89,0.33,1.35,0.46c0.58,0.17,1.16,0.16,1.74,0.01
		c0.41-0.1,0.81-0.24,1.18-0.44c0.33-0.14,0.64-0.34,0.94-0.53c0.05-0.02,0.1-0.04,0.14-0.06c0.09-0.07,0.18-0.14,0.27-0.21
		c0.2-0.25,0.41-0.49,0.69-0.66c1.39-0.41,1.97-1.69,2.9-2.6c0.12-0.05,0.24-0.08,0.37-0.11c1.66-0.03,3.32-0.2,4.97,0.1
		c0.48,0.33,0.37,0.79,0.29,1.25c-0.05,0.17-0.07,0.34-0.09,0.52c-0.09,0.68-0.25,1.36-0.2,2.06c-0.01,0.11-0.05,0.2-0.11,0.29
		c-0.28,0.31-0.42,0.7-0.6,1.06c-0.19,0.24-0.36,0.49-0.48,0.77c-0.27,0.45-0.66,0.84-0.68,1.42c-0.12,0.44-0.44,0.73-0.78,1.01
		c-0.26,0.17-0.49,0.36-0.61,0.66C101.97,241.92,101.79,242.02,101.62,242.13z"/>
	<path class="st7" d="M71.91,226.47c0-0.23,0.06-0.44,0.25-0.59c-0.08-0.83,0.36-1.5,0.7-2.21c0.24-0.41,0.34-0.87,0.49-1.31
		c0.03-0.07,0.07-0.13,0.13-0.17c0.41-0.35,0.75-0.77,1.07-1.2c0.09-0.23,0.25-0.38,0.48-0.47c0.34-0.47,0.81-0.79,1.21-1.2
		l-0.02,0.02c0.31-0.38,0.81-0.51,1.12-0.89c0.54-0.39,1.16-0.61,1.74-0.93c0.27-0.1,0.54-0.17,0.8-0.3
		c0.72-0.29,1.47-0.47,2.21-0.7c0.26-0.04,0.51-0.04,0.77-0.04c1.01-0.02,2.02-0.02,3.04,0c0.6-0.04,1.13,0.27,1.72,0.31
		c0.45,0.22,0.97,0.3,1.36,0.64c0.01,0.33-0.23,0.41-0.48,0.49c-1.22,0.16-2.45-0.02-3.68,0.23c-5.36,1.11-8.72,4.26-10.05,9.53
		c-0.13,0.37-0.16,0.79-0.44,1.1c-0.82,0.46-1.65,0.39-2.48,0.07C71.53,228.05,71.7,227.26,71.91,226.47z"/>
	<path class="st7" d="M82.88,232.94c0.75,6.45,6.25,11.06,13.21,11.07c0.42-0.09,0.85-0.2,1.25,0.08c0.08,0.33-0.21,0.38-0.39,0.52
		c-0.25,0.17-0.55,0.14-0.83,0.17c-0.8,0.08-1.6,0.16-2.4,0.24c-0.48,0.16-0.96,0.14-1.44,0.01c-0.16,0-0.32,0-0.48,0
		c-0.56-0.07-1.1-0.36-1.68-0.18c-0.56-0.06-1.1-0.17-1.61-0.43c-0.54-0.16-1.03-0.42-1.52-0.68c-0.44-0.33-0.96-0.5-1.42-0.79
		c-0.3-0.45-0.86-0.61-1.19-1.03c-0.33-0.17-0.59-0.41-0.73-0.76c-0.43-0.3-0.57-0.85-1.02-1.13c-0.3-0.47-0.46-1.03-0.88-1.43
		c-0.01-0.11-0.03-0.22-0.04-0.33c-0.21-0.25-0.3-0.56-0.44-0.84c-0.17-0.35-0.24-0.73-0.41-1.08c-0.12-0.52-0.37-1.01-0.43-1.55
		c0.01-0.53-0.21-1.06-0.08-1.6C80.97,232.52,81.8,232.44,82.88,232.94z"/>
	<path class="st8" d="M108.68,224.57c0.01,0.07-0.03,0.1-0.1,0.1c-0.25,0.36-0.46,0.74-0.7,1.11c-0.01,0.07-0.04,0.13-0.07,0.18
		c-0.23,0.31-0.46,0.63-0.67,0.95c-0.09,0.08-0.18,0.16-0.27,0.24c-0.12,0.2-0.23,0.4-0.46,0.5c-0.68,0.21-1.36,0-2.04,0
		c-0.44-0.09-0.84-0.29-1.22-0.51c-0.09-0.06-0.17-0.13-0.24-0.21c-0.21-0.3-0.45-0.57-0.67-0.87c-0.05-0.09-0.1-0.18-0.13-0.28
		c-0.1-0.34-0.23-0.66-0.42-0.96c-0.15-0.27-0.34-0.52-0.42-0.83c-0.02-0.11-0.01-0.21,0-0.32c0.11-0.53,0.05-1.05-0.05-1.57
		c0-0.17,0.04-0.32,0.21-0.41c0.16-0.24,0.31-0.47,0.47-0.71c0.09-0.08,0.19-0.14,0.31-0.18c0.17-0.08,0.35-0.11,0.53-0.12
		c2.53-0.11,4.49,0.99,6.14,2.79C109,223.88,108.94,224.25,108.68,224.57z"/>
	<path class="st9" d="M70.75,238.28l-0.02-0.07c-0.37-0.5-0.57-1.1-0.97-1.58c-0.07-0.04-0.11-0.09-0.11-0.17
		c0.11-0.69,0.61-1.1,1.14-1.45c1.71-1.12,3.48-2.07,5.65-1.79c0.25,0.35,0.51,0.69,0.76,1.04c0.36,0.51,0.52,1.07,0.46,1.68
		c-0.1,0.47-0.53,0.78-0.6,1.27c-0.09,0.29-0.33,0.5-0.47,0.76c-0.15,0.27-0.31,0.53-0.45,0.8c-0.25,0.66-0.75,1.09-1.37,1.4
		c-0.44,0.14-0.88,0.27-1.35,0.24c-0.44-0.09-0.9-0.16-1.29-0.42c-0.21-0.17-0.42-0.34-0.58-0.56
		C71.24,239.08,71,238.68,70.75,238.28z"/>
	<path class="st10" d="M87.45,225.74c-2.98,0.03-4.63,1.28-5.23,4.09c-0.15,0.7-0.53,0.65-1.01,0.65c-1.98,0-3.97-0.05-5.94,0.02
		c-0.95,0.03-1.33-0.23-1.1-1.18c0.01-0.14,0.07-0.25,0.18-0.35c1.27-0.43,2.58-0.11,3.86-0.22c0.48-0.04,1.06,0.16,1.33-0.48
		c0.22-0.49,0.39-0.99,0.51-1.51c0.03-0.11,0.08-0.22,0.14-0.32c0.5-0.64,1.08-1.17,1.78-1.59c0.37-0.2,0.74-0.4,1.15-0.53
		c0.95-0.13,1.9-0.17,2.83,0.15c0.29,0.09,0.57,0.22,0.83,0.37C87.03,225.12,87.56,225.19,87.45,225.74z"/>
	<path class="st11" d="M82.76,232.33c-0.16-0.88,0.1-1.25,1.1-1.21c1.99,0.09,3.98,0.02,5.98,0.03c0.42,0,0.86-0.1,0.97,0.56
		c0.45,2.7,2.16,4.01,4.84,4.2c0.21,0.01,0.39,0.05,0.47,0.27c0,0-0.02,0.02-0.02,0.02c-0.35,0.35-0.82,0.48-1.23,0.71
		c-1.25,0.64-2.49,0.63-3.73-0.02c-0.53-0.28-1.09-0.5-1.51-0.94l0.02,0.02c-0.54-0.47-0.78-1.13-1.15-1.72
		c-0.09-0.53-0.16-1.06-0.47-1.52c-1.65-0.26-3.31,0.02-4.97-0.15C82.93,232.55,82.83,232.46,82.76,232.33z"/>
	<path class="st10" d="M94.2,220.01c3.49,2.34,5.1,5.71,5.45,9.78c0.05,0.52-0.18,0.69-0.69,0.68c-2.23-0.02-4.46-0.03-6.69,0
		c-0.95,0.01-0.63-0.7-0.77-1.16c0.56-0.52,1.27-0.31,1.92-0.33c0.9-0.04,1.81-0.01,2.71-0.01c0.81,0.07,0.92-0.41,0.81-1.04
		c-0.2-0.6-0.16-1.24-0.35-1.84c-0.06-0.68-0.28-1.29-0.66-1.86c-0.15-0.23-0.26-0.48-0.33-0.75c-0.12-0.61-0.41-1.14-0.81-1.62
		c-0.19-0.24-0.34-0.5-0.52-0.74c-0.18-0.25-0.42-0.47-0.4-0.81C93.93,220.16,94.04,220.05,94.2,220.01z"/>
	<path class="st12" d="M102.55,241.01c0.25-0.35,0.51-0.7,0.76-1.05c0.25-0.4,0.55-0.78,0.78-1.19c0.18-0.32,0.35-0.65,0.55-0.96
		c0.16-0.4,0.27-0.81,0.57-1.14l-0.01,0.02c0.02-0.52,0.15-1.03,0.24-1.55c0.01-0.19,0.03-0.37,0.08-0.55
		c0.02-0.08,0.03-0.15,0.05-0.23c0.27-1.72,0.26-1.71-1.47-1.73c-1.23-0.01-2.46,0.05-3.69-0.04c-0.13-0.04-0.23-0.12-0.3-0.24
		c-0.02-0.91,0.36-1.27,1.35-1.23c1.98,0.09,3.97,0.04,5.96,0.02c0.58-0.01,0.9,0.12,0.85,0.78c-0.36,4.27-2.24,7.66-5.87,10.05
		c-0.25,0.16-0.49,0.26-0.78,0.16c0.09-0.17,0.17-0.33,0.26-0.5C102.11,241.44,102.32,241.22,102.55,241.01z"/>
	<path class="st13" d="M185.44,234.5c-0.7,0.16-0.7-0.32-0.83-0.6c-0.34-0.75-0.67-1.52-0.95-2.29c-0.18-0.48-0.46-0.7-0.98-0.62
		c-0.58,0.09-0.31,0.54-0.34,0.84c-0.09,0.91,0.13,1.84-0.15,2.76c-0.55-0.15-0.38-0.53-0.38-0.8c-0.02-2.05,0.03-4.11-0.03-6.16
		c-0.02-0.79,0.22-1.04,1-0.97c0.93,0.09,1.86,0.12,2.23,1.21c0.36,1.05,0.33,2.05-0.66,2.76c-0.41,0.3-0.33,0.53-0.17,0.89
		C184.61,232.47,185.01,233.45,185.44,234.5z"/>
	<path class="st13" d="M127.22,234.46c-1-0.35-0.99-1.27-1.39-1.94c-0.18-0.3-0.31-0.64-0.41-0.98c-0.14-0.47-0.44-0.59-0.89-0.56
		c-0.62,0.05-0.36,0.5-0.39,0.8c-0.08,0.92,0.12,1.86-0.12,2.77c-0.52-0.02-0.41-0.36-0.41-0.6c-0.01-2.17,0.02-4.35-0.02-6.52
		c-0.01-0.65,0.23-0.82,0.83-0.77c0.96,0.07,1.97,0.02,2.38,1.16c0.39,1.09,0.36,2.12-0.69,2.85c-0.47,0.32-0.2,0.6-0.08,0.9
		C126.42,232.53,126.82,233.49,127.22,234.46z"/>
	<path class="st14" d="M145.29,234.51c0-2.63,0-5.26,0-7.9c0.55,0.83,0.37,1.72,0.37,2.59c0,0.64,0.14,0.88,0.85,0.89
		c2,0.01,1.99,0.05,2-1.9c0-0.47,0.02-0.95,0.05-1.42c0-0.06,0.09-0.11,0.32-0.37c0,2.85,0,5.48,0,8.11
		c-0.55-0.78-0.26-1.67-0.37-2.51c-0.06-0.44,0.27-1.13-0.27-1.26c-0.75-0.18-1.59-0.1-2.37-0.02c-0.28,0.03-0.17,0.48-0.17,0.74
		c-0.01,1.02,0,2.04,0,3.05C145.55,234.51,145.42,234.51,145.29,234.51z"/>
	<path class="st15" d="M136.1,234.54c-0.42,0.12-0.68,0.02-0.76-0.45c-0.08-0.46-0.29-0.91-0.33-1.38
		c-0.07-0.86-0.51-1.02-1.33-1.06c-0.94-0.04-0.95,0.53-1.15,1.12c-0.2,0.6-0.15,1.83-0.63,1.67c-0.63-0.21,0-1.18,0.13-1.79
		c0.36-1.69,0.78-3.37,1.22-5.05c0.09-0.33-0.03-0.92,0.53-0.9c0.47,0.01,0.38,0.53,0.46,0.85c0.46,1.79,0.91,3.59,1.36,5.38
		c0.1,0.38,0.13,0.78,0.45,1.06C136.24,234.16,136.26,234.35,136.1,234.54z"/>
	<path class="st15" d="M190.02,234.03c0.03,0.25,0.15,0.47-0.17,0.51c-0.27,0.04-0.31-0.18-0.35-0.37
		c-0.11-0.46-0.28-0.91-0.33-1.38c-0.09-0.87-0.49-1.12-1.38-1.15c-0.97-0.03-0.91,0.59-1.13,1.15c-0.23,0.58-0.05,1.77-0.66,1.64
		c-0.61-0.14,0.04-1.12,0.16-1.7c0.39-1.85,0.87-3.68,1.32-5.51c0.05-0.21,0.04-0.51,0.35-0.54c0.3-0.03,0.41,0.18,0.47,0.43
		C188.87,229.44,189.45,231.77,190.02,234.03z"/>
	<path class="st16" d="M136.1,234.54c-0.01-0.19-0.02-0.37-0.04-0.56c0.53-2.26,1.06-4.53,1.6-6.79c0.05-0.21,0.04-0.51,0.37-0.52
		c0.38-0.01,0.4,0.3,0.47,0.57c0.55,2.22,1.11,4.44,1.66,6.66c0.05,0.2,0.26,0.5-0.05,0.62c-0.42,0.15-0.4-0.25-0.46-0.49
		c-0.08-0.31-0.14-0.62-0.23-0.92c-0.21-0.71-0.14-1.5-1.38-1.47c-1.2,0.02-0.98,0.81-1.26,1.43
		C136.56,233.56,136.89,234.31,136.1,234.54z"/>
	<path class="st17" d="M114.51,226.53c0.75,2.07,1.02,4.27,1.8,6.42c0.55-2.14,1.09-4.28,1.63-6.39c0.44,0.08,0.46,0.25,0.43,0.4
		c-0.55,2.35-1.11,4.69-1.67,7.04c-0.05,0.23-0.08,0.49-0.37,0.54c-0.31,0.05-0.42-0.16-0.48-0.41c-0.59-2.49-1.17-4.97-1.76-7.46
		C114.24,226.62,114.37,226.58,114.51,226.53z"/>
	<path class="st13" d="M151.24,226.54c0,1.31,0,2.63,0,3.94c0,0.71-0.05,1.43,0.05,2.13c0.1,0.73,0.38,1.41,1.3,1.44
		c0.97,0.03,1.36-0.64,1.42-1.44c0.09-1.3,0.04-2.6,0.07-3.91c0.02-0.72-0.12-1.47,0.12-2.19c0.14,0.04,0.27,0.05,0.27,0.08
		c0.24,2.12,0.21,4.25,0,6.36c-0.09,0.94-0.69,1.58-1.75,1.62c-1.06,0.04-1.69-0.56-1.85-1.5c-0.36-2.17-0.09-4.36-0.15-6.54
		C150.89,226.54,151.07,226.54,151.24,226.54z"/>
	<path class="st18" d="M102.31,225.71c0.01,0.09,0.01,0.18,0.02,0.27c0.21,0.35,0.5,0.64,0.74,0.97l-0.02-0.03
		c0.31,0.25,0.64,0.46,0.98,0.66c0.84-0.02,1.71,0.4,2.51-0.18c0.11-0.08,0.22-0.16,0.33-0.25c-0.22,1.34-1.46,2.03-3.06,1.7
		c-1.84-0.38-3.84-3.99-3.17-5.75c0.19,0.09,0.29,0.26,0.39,0.43c0.1,0.17,0.13,0.37,0.24,0.53c0.25,0.26,0.36,0.59,0.53,0.89
		C101.94,225.23,102.07,225.51,102.31,225.71z"/>
	<path class="st19" d="M77.98,235.45c0.56,0.8,0.53,1.61,0.04,2.42c-0.48,0.81-0.89,1.68-1.45,2.43c-1.27,1.7-3.33,1.66-4.68-0.04
		c0.04-0.04,0.09-0.07,0.13-0.11c0.35-0.09,0.66,0.15,1,0.11c0.55,0.22,1.09-0.03,1.63-0.07c0.55-0.31,1.11-0.6,1.36-1.23
		c0.17-0.31,0.43-0.58,0.56-0.91c0.14-0.33,0.47-0.56,0.53-0.93c0.13-0.29,0.29-0.56,0.47-0.83
		C77.75,236.03,77.57,235.6,77.98,235.45z"/>
	<path class="st13" d="M160.63,234.41c-0.38-0.05-0.37-0.27-0.37-0.46c-0.01-2.29-0.01-4.58,0-6.87c0-0.22-0.05-0.46,0.23-0.6
		c0.7-0.34,2.39,0.16,2.8,0.84c1.06,1.75,0.13,3.7-1.91,3.87c-0.58,0.05-0.6,0.28-0.62,0.73
		C160.72,232.75,160.94,233.6,160.63,234.41z"/>
	<path class="st20" d="M76.44,233.22c0,0.18-0.1,0.32-0.27,0.31c-2.71-0.2-4.66,1.27-6.52,2.93c0,0,0,0,0,0
		c-0.4-0.24-0.35-0.63-0.34-1.01c0.23-0.75,0.88-1.14,1.42-1.63l-0.02,0.02c0.5-0.42,1.17-0.51,1.71-0.85
		c0.41-0.15,0.8-0.32,1.18-0.53c0.66-0.05,1.32-0.18,1.93,0.19C75.83,232.83,76.23,232.88,76.44,233.22z"/>
	<path class="st21" d="M108.8,223.77c-1.67-1.81-3.64-2.99-6.23-2.8c-0.3-0.95,0.74-0.66,1.02-1.08c0.44-0.14,0.89-0.09,1.34-0.05
		c0.4,0.21,0.86,0.24,1.25,0.44l-0.03-0.03c0.35,0.39,0.85,0.4,1.31,0.5c0.07,0.03,0.11,0.09,0.12,0.17
		c0.31,0.42,0.83,0.58,1.18,0.95c0.08,0.1,0.16,0.19,0.25,0.29c0.42,0.46,0.49,0.95,0.11,1.48
		C109.04,223.74,108.92,223.78,108.8,223.77z"/>
	<path class="st22" d="M196.21,232.66c-0.74-1.6-1.48-3.2-2.23-4.79c-0.07,0-0.13,0-0.2,0.01c0,2.22,0,4.44,0,6.64
		c-0.38,0.01-0.44-0.14-0.44-0.3c-0.01-2.33-0.01-4.67-0.01-7c0-0.25-0.12-0.59,0.32-0.64c0.35-0.03,0.48,0.22,0.59,0.48
		c0.73,1.71,1.45,3.41,2.18,5.12C196.32,232.32,196.41,232.55,196.21,232.66z"/>
	<path class="st2" d="M175.83,234.42c-0.84,0.26-1.73,0.11-2.6,0.09c-0.4-0.01-0.28-0.41-0.28-0.66c-0.01-2.17,0.01-4.35-0.01-6.52
		c-0.01-0.51,0.16-0.73,0.68-0.68c0.73,0.07,1.49-0.13,2.31,0.15c-0.42,0.58-0.97,0.38-1.4,0.35c-0.8-0.06-1.11,0.13-1.08,1.01
		c0.06,1.77,0,1.77,1.75,1.87c0.15,0.01,0.29,0.06,0.53,0.12c-0.44,0.65-1.03,0.37-1.51,0.38c-0.57,0-0.82,0.17-0.74,0.75
		c0.02,0.16,0,0.32,0,0.47c0.02,0.71-0.19,1.56,0.13,2.08c0.33,0.52,1.25,0.11,1.91,0.21C175.66,234.06,175.82,234.08,175.83,234.42
		z"/>
	<path class="st2" d="M122.01,230.32c-0.59,0.75-2.02-0.6-2.17,0.93c-0.09,0.86-0.26,1.87,0.1,2.56c0.35,0.67,1.54-0.1,2.41,0.51
		c-0.99,0.39-1.88,0.19-2.74,0.2c-0.42,0.01-0.3-0.39-0.3-0.64c-0.01-2.17,0-4.35-0.01-6.52c0-0.48,0.11-0.75,0.66-0.7
		c0.75,0.07,1.52-0.11,2.3,0.13c-0.18,0.52-0.51,0.35-0.75,0.39c-0.54,0.08-1.39-0.26-1.55,0.17c-0.26,0.69-0.12,1.55-0.11,2.33
		c0.01,0.51,0.45,0.29,0.73,0.35C121.04,230.13,121.63,229.78,122.01,230.32z"/>
	<path class="st16" d="M170.13,234.1c-1.16,0.8-2.28,0.65-2.84-0.58c-0.88-1.91-0.89-3.93-0.1-5.86c0.63-1.52,2.24-1.59,3.41-0.25
		c0.17,0.26,0.14,0.45-0.18,0.56c-0.25-0.02-0.43-0.18-0.64-0.29c-0.86-0.47-1.45-0.34-1.83,0.54c-0.7,1.64-0.58,3.31,0.15,4.92
		c0.36,0.79,1.15,0.52,1.79,0.58C170.07,233.77,170.21,233.87,170.13,234.1z"/>
	<path class="st4" d="M129.16,234.63c0-1.8,0-3.59,0-5.39c0-1.79,0-1.79-1.53-2.43c1.22,0,2.43,0,3.72,0
		c-0.1,0.15-0.17,0.32-0.21,0.32c-1.45-0.23-1.54,0.59-1.48,1.71c0.08,1.57,0.03,3.15,0.02,4.73
		C129.67,233.93,129.79,234.33,129.16,234.63z"/>
	<path class="st4" d="M159.38,234.34c-0.97,0.35-1.79,0.15-2.58,0.19c-0.32,0.02-0.38-0.2-0.38-0.46c0.02-2.44,0.04-4.89,0.07-7.33
		c0-0.04,0.11-0.09,0.18-0.14c0.43,0.15,0.26,0.52,0.26,0.79c0.02,1.81,0.07,3.63-0.02,5.44c-0.05,1,0.27,1.35,1.25,1.21
		C158.5,233.99,158.88,233.93,159.38,234.34z"/>
	<path class="st13" d="M196.21,232.66c0.07-0.16,0.15-0.32,0.22-0.48c0.17,0.3,0.35,0.61,0.52,0.91c0.08,0,0.16,0,0.24,0
		c0-2.16,0-4.32,0-6.56c0.59,0.21,0.46,0.53,0.46,0.77c0.01,2.16,0.01,4.33,0,6.49c0,0.26,0.22,0.67-0.3,0.75
		c-0.43,0.06-0.52-0.29-0.64-0.57C196.53,233.54,196.37,233.09,196.21,232.66z"/>
	<path class="st4" d="M141.85,226.61c0,1.92,0,3.84,0,5.76c0,1.59,0,1.59,1.59,1.65c0.23,0.01,0.48-0.05,0.77,0.37
		c-0.92,0.28-1.79,0.12-2.64,0.12c-0.24,0-0.25-0.26-0.25-0.46c0.01-2.41,0.01-4.81,0.03-7.22c0-0.08,0.12-0.16,0.19-0.25
		C141.65,226.6,141.75,226.61,141.85,226.61z"/>
	<path class="st4" d="M178.04,230.78c-0.57,1.19,0,2.53-0.64,3.73c0-2.63,0-5.26,0-7.89c0.54,0.6,0.29,1.3,0.39,1.95
		c0.09,0.63-0.25,1.31,0.22,1.89C178.11,230.56,178.12,230.67,178.04,230.78z"/>
	<path class="st23" d="M170.13,234.1c-0.09-0.09-0.19-0.18-0.28-0.28c0.51-1.81,0.63-3.65,0.35-5.51c-0.02-0.16,0.06-0.3,0.17-0.42
		c0.19-0.11,0.21-0.3,0.23-0.49C171.8,229.63,171.58,232.74,170.13,234.1z"/>
	<path class="st4" d="M191.01,234.51c0-2.63,0-5.26,0-7.89c0.09,0,0.17,0,0.26,0c0,2.63,0,5.26,0,7.9
		C191.19,234.51,191.1,234.51,191.01,234.51z"/>
	<path class="st24" d="M89.16,227.99l0.01,0.03c-0.22-0.29-0.24-0.67-0.41-0.98c-0.12-0.27-0.33-0.53-0.12-0.85
		c1.01-0.32,1.46,0.48,2.02,1.02c0.36,0.34,0.67,0.75,0.8,1.25c0.01,0.21-0.04,0.39-0.23,0.51c-0.6,0.14-1.21,0.17-1.81-0.03
		C89.12,228.69,89.18,228.33,89.16,227.99z"/>
	<path class="st23" d="M178.04,230.78c-0.01-0.11-0.02-0.21-0.03-0.32c-0.03-0.41,0.3-0.63,0.51-0.91c0.24,0,0.4,0.06,0.27,0.35
		c0.12,1.21,0.99,2.08,1.41,3.15c0.18,0.47,0.42,0.92,0.64,1.37c-0.43,0.25-0.61,0.04-0.76-0.29c-0.39-0.85-0.77-1.71-1.22-2.53
		C178.67,231.27,178.69,230.67,178.04,230.78z"/>
	<path class="st25" d="M79.84,228.14c0.09,0.76-0.26,1.01-1.02,0.98c-1.49-0.05-2.98-0.03-4.47-0.03c-0.95,0.14-1.89,0.2-2.84-0.03
		c-0.01-0.15-0.03-0.3-0.04-0.45c0.25-0.15,0.34,0.15,0.53,0.18c0.75-0.11,1.54,0.19,2.25-0.21c1.53-0.24,3.08,0.15,4.6-0.22
		c0.25-0.16,0.43-0.43,0.72-0.54C79.78,227.84,79.93,227.89,79.84,228.14z"/>
	<path class="st26" d="M86.06,216.69c-1.13,0-2.25,0-3.38,0c-0.28-0.24-0.68,0.06-0.95-0.21c1.68-0.45,3.36-0.52,5.04,0
		C86.59,216.71,86.26,216.49,86.06,216.69z"/>
	<path class="st27" d="M82.76,232.33c0.07,0.03,0.13,0.07,0.18,0.12c0.13,0.13,0.13,0.26,0.01,0.4c-0.02,0.04-0.04,0.07-0.08,0.09
		c-0.62-0.02-1.24-0.03-1.87-0.06c-0.36-0.02-0.48,0.17-0.5,0.48c-0.23,0.3,0.07,0.73-0.24,1.01c-0.06-0.35-0.12-0.69-0.19-1.04
		c-0.15-0.75,0.17-0.98,0.9-0.94C81.57,232.44,82.17,232.36,82.76,232.33z"/>
	<path class="st28" d="M96.55,229.22c-1.68,0.03-3.36,0.07-5.03,0.1c-0.77-0.27-1.61,0.09-2.37-0.23c0.06-0.04,0.13-0.08,0.19-0.12
		c1.96,0,3.91-0.37,5.88-0.22C95.69,228.79,96.26,228.6,96.55,229.22z"/>
	<path class="st29" d="M178.78,229.9c-0.09-0.12-0.18-0.23-0.27-0.35c0.44-0.84,0.88-1.67,1.32-2.51c0.11-0.2,0.2-0.49,0.5-0.29
		c0.24,0.16,0.04,0.32-0.05,0.49C179.82,228.15,179.41,229.09,178.78,229.9z"/>
	<path class="st30" d="M97.62,232.43c0.83-0.02,1.66-0.05,2.49-0.07c0.04,0.02,0.06,0.06,0.08,0.1c0.06,0.08,0.07,0.16,0.01,0.25
		c-0.08,0.05-0.16,0.09-0.24,0.15l-0.08,0.07c-0.67,0.3-1.44,0.31-2.07,0.74c-0.19-0.06-0.3-0.2-0.37-0.37
		C97.48,232.99,97.27,232.65,97.62,232.43z"/>
	<path class="st31" d="M93.99,220.26c0.15,0.24,0.3,0.48,0.45,0.72c-0.04,0.18-0.16,0.29-0.34,0.33c-0.89-0.41-1.51-1.07-1.91-1.96
		c0.06-0.17,0.17-0.29,0.34-0.35c0.16,0.08,0.31,0.17,0.47,0.25c0.13,0.21,0.36,0.31,0.54,0.46
		C93.73,219.87,93.91,220.03,93.99,220.26z"/>
	<path class="st32" d="M73.1,223.6c-0.31,0.76-0.62,1.52-0.93,2.28c-0.5-1.04,0.05-1.81,0.67-2.57
		C73,223.34,73.03,223.49,73.1,223.6z"/>
	<path class="st33" d="M82.04,216.76c-0.74,0.22-1.49,0.44-2.23,0.65c-0.11-0.07-0.26-0.09-0.29-0.26c0.63-0.33,1.25-0.65,1.99-0.63
		C81.67,216.65,81.94,216.53,82.04,216.76z"/>
	<path class="st34" d="M96.79,244.51c0.16-0.09,0.33-0.18,0.49-0.27c0.38-0.41,0.97-0.37,1.41-0.64c0.1-0.01,0.2-0.01,0.3-0.02
		c0.13,0.03,0.21,0.1,0.24,0.23c-0.65,0.49-1.38,0.79-2.17,0.95C96.92,244.74,96.83,244.65,96.79,244.51z"/>
	<path class="st2" d="M79.13,217.68c-0.57,0.32-1.14,0.63-1.7,0.95c-0.17-0.08-0.25-0.2-0.2-0.39c0.49-0.38,1.01-0.69,1.63-0.83
		C79.01,217.44,79.1,217.53,79.13,217.68z"/>
	<path class="st35" d="M75.52,232.64c-0.71-0.01-1.43-0.2-2.13,0.09c-0.13-0.1-0.14-0.21-0.04-0.34
		C74.13,232,74.89,231.83,75.52,232.64z"/>
	<path class="st36" d="M72,228.8c-0.18-0.06-0.35-0.12-0.53-0.18c-0.03-0.75-0.23-1.53,0.44-2.14
		C71.94,227.25,71.97,228.02,72,228.8z"/>
	<path class="st37" d="M77.98,235.45c-0.1,0.34,0.02,0.74-0.3,1.01c-0.14-0.03-0.23-0.12-0.25-0.26c0.22-0.68-0.13-1.3-0.22-1.94
		C78,234.31,77.64,235.11,77.98,235.45z"/>
	<path class="st13" d="M87.01,243.56c0.48,0.23,0.97,0.47,1.45,0.7c0.08,0.1,0.07,0.2-0.02,0.29c-0.72,0.11-1.17-0.35-1.67-0.74
		C86.8,243.67,86.87,243.59,87.01,243.56z"/>
	<path class="st38" d="M88.44,244.55c0.01-0.1,0.01-0.2,0.02-0.29c0.6,0.06,1.2,0.13,1.65,0.59c0,0,0.01,0.08,0.01,0.08
		s-0.07,0.04-0.07,0.04C89.4,245.28,88.92,244.9,88.44,244.55z"/>
	<path class="st39" d="M103.51,219.98c-0.19,0.45-0.97,0.35-0.94,1c-0.17-0.01-0.35-0.01-0.52-0.02c-0.04-0.08-0.02-0.16,0.04-0.22
		c0.04-0.87,0.78-0.75,1.32-0.91C103.51,219.84,103.55,219.88,103.51,219.98z"/>
	<path class="st40" d="M109.05,223.61c0.19-0.48-0.02-0.96-0.03-1.44c1.07,0.41,0.76,1.04,0.28,1.71
		C109.15,223.85,109.07,223.76,109.05,223.61z"/>
	<path class="st41" d="M89.19,217.13c0.46,0.03,0.85,0.2,1.17,0.53c0.13,0.16,0.15,0.33,0.05,0.51c-0.29,0.21-0.58,0.17-0.86-0.02
		c-0.23-0.2-0.47-0.38-0.5-0.72C89.04,217.31,89.09,217.21,89.19,217.13z"/>
	<path class="st42" d="M103.51,219.98c-0.01-0.07-0.04-0.11-0.1-0.15c0.6-0.57,1.23-0.41,1.86-0.08c-0.02,0.17-0.18,0.2-0.3,0.27
		C104.49,220.01,104,219.99,103.51,219.98z"/>
	<path class="st43" d="M81.74,238.59c0.75,0.14,0.75,0.82,0.99,1.34c0.08,0.14,0.06,0.27-0.06,0.38
		C82.2,239.82,81.66,239.37,81.74,238.59z"/>
	<path class="st44" d="M72.42,233.12c-0.5,0.41-1.01,0.78-1.71,0.71c0.21-0.73,0.94-0.66,1.46-0.92
		C72.28,232.95,72.36,233.02,72.42,233.12z"/>
	<path class="st45" d="M87.45,225.74c-0.23-0.23-0.47-0.46-0.7-0.69c0.04-0.17,0.15-0.29,0.32-0.33c0.74,0.21,1.2,0.71,1.46,1.41
		c-0.04,0.18-0.15,0.29-0.33,0.32C87.95,226.21,87.7,225.97,87.45,225.74z"/>
	<path class="st46" d="M77.23,218.24c0.07,0.13,0.13,0.26,0.2,0.39c-0.31,0.39-0.67,0.71-1.21,0.71
		C76.29,218.73,76.78,218.5,77.23,218.24z"/>
	<path class="st47" d="M101.14,224.08c-0.28-0.05-0.21-0.29-0.25-0.47c-0.18-0.4-0.15-0.8-0.02-1.2c0.04-0.35-0.06-0.81,0.56-0.7
		c-0.03,0.15-0.06,0.3-0.09,0.46c0.03,0.56,0.05,1.12,0.06,1.68l-0.09-0.01C101.3,223.95,101.25,224.03,101.14,224.08z"/>
	<path class="st14" d="M80.55,235c0.41,0.38,0.43,0.9,0.49,1.4c0.07,0.22,0.23,0.47-0.2,0.5c-0.19-0.54-0.52-1.04-0.51-1.64
		C80.4,235.17,80.4,235.02,80.55,235z"/>
	<path class="st43" d="M87.01,243.56c-0.08,0.08-0.16,0.17-0.24,0.25c-0.55-0.24-1.16-0.36-1.51-0.93c0.11-0.12,0.23-0.13,0.37-0.05
		C86.15,242.97,86.63,243.17,87.01,243.56z"/>
	<path class="st4" d="M86.06,216.69c0.18-0.27,0.48-0.16,0.72-0.22c0.51-0.07,0.94,0.2,1.41,0.29c-0.03,0.4-0.27,0.31-0.52,0.21
		C87.13,216.88,86.6,216.79,86.06,216.69z"/>
	<path class="st48" d="M74.55,220.99c-0.09,0.64-0.25,1.2-1.07,1.2C73.44,221.44,74.01,221.23,74.55,220.99z"/>
	<path class="st49" d="M99.24,243.82c-0.08-0.08-0.16-0.15-0.24-0.23c0.4-0.24,0.8-0.48,1.19-0.72c0.24-0.08,0.3,0.01,0.22,0.23
		C100.09,243.44,99.69,243.67,99.24,243.82z"/>
	<path class="st50" d="M76.24,219.32c-0.18,0.62-0.61,0.99-1.21,1.2C75.05,219.73,75.56,219.44,76.24,219.32z"/>
	<path class="st51" d="M70.73,233.82c-0.15,0.69-0.91,0.89-1.2,1.46c-0.14-0.03-0.22-0.12-0.24-0.25
		C69.58,234.39,70.02,233.94,70.73,233.82z"/>
	<path class="st52" d="M71.52,229.06c0.95,0.01,1.89,0.02,2.84,0.03c-0.06,0.07-0.13,0.14-0.19,0.22
		C73.3,229.03,72.37,229.47,71.52,229.06z"/>
	<path class="st53" d="M69.76,236.63c0.67,0.32,0.9,0.9,0.97,1.58C70.09,237.88,69.79,237.34,69.76,236.63z"/>
	<path class="st44" d="M108.77,221.88c-0.55-0.13-1.07-0.29-1.18-0.95C108.01,221.22,108.7,221.17,108.77,221.88z"/>
	<path class="st54" d="M87.67,216.98c0.17-0.07,0.34-0.14,0.52-0.21c0.33,0.12,0.67,0.25,1,0.37c-0.01,0.09-0.02,0.18-0.03,0.27
		c-0.06,0.12-0.15,0.13-0.25,0.05C88.41,217.53,88.05,217.22,87.67,216.98z"/>
	<path class="st26" d="M85.63,242.83c-0.12,0.02-0.24,0.03-0.37,0.05c-0.39-0.24-0.86-0.41-0.9-0.97
		C85.04,241.89,85.36,242.33,85.63,242.83z"/>
	<path class="st2" d="M73.1,223.6c-0.09-0.1-0.17-0.19-0.26-0.29c0.09-0.36,0.02-0.81,0.52-0.95C73.87,222.9,73.2,223.19,73.1,223.6
		z"/>
	<path class="st26" d="M82.67,240.31c0.02-0.13,0.04-0.26,0.06-0.38c0.5,0.27,0.9,0.6,0.91,1.23
		C83.09,241.13,82.9,240.69,82.67,240.31z"/>
	<path class="st55" d="M92.54,219.01c-0.09,0.11-0.18,0.22-0.27,0.32c-0.56,0.07-0.89-0.2-1.06-0.7c0.04-0.18,0.1-0.34,0.34-0.25
		C91.95,218.48,92.24,218.74,92.54,219.01z"/>
	<path class="st56" d="M107.47,220.76c-0.69,0.5-1.06,0.14-1.31-0.5C106.68,220.21,107.06,220.53,107.47,220.76z"/>
	<path class="st57" d="M100.41,243.1c-0.07-0.08-0.15-0.15-0.22-0.23c0.34-0.31,0.57-0.85,1.2-0.59
		C101.27,242.79,100.8,242.89,100.41,243.1z"/>
	<path class="st58" d="M70.75,238.28c0.48,0.18,0.65,0.63,0.87,1.03c-0.03,0.12-0.1,0.2-0.2,0.26
		C70.95,239.27,70.74,238.83,70.75,238.28z"/>
	<path class="st59" d="M91.55,218.38c-0.08,0.07-0.15,0.14-0.23,0.21c-0.5,0.21-0.77-0.03-0.93-0.47c-0.01-0.15-0.02-0.3-0.03-0.44
		C90.81,217.82,91.22,218.03,91.55,218.38z"/>
	<path class="st60" d="M107.88,225.78c-0.08-0.57,0.2-0.9,0.7-1.11C108.62,225.21,108.47,225.63,107.88,225.78z"/>
	<path class="st61" d="M97.08,235.49c-0.17,0.24-0.33,0.5-0.68,0.49c-0.1-0.44,0.25-0.66,0.47-0.94c0.18-0.06,0.26,0.04,0.32,0.19
		C97.19,235.33,97.15,235.42,97.08,235.49z"/>
	<path class="st62" d="M80.55,235c-0.07,0.09-0.14,0.17-0.21,0.26c-0.02-0.29-0.05-0.59-0.07-0.88c0.09-0.34-0.08-0.73,0.24-1.01
		C80.57,233.91,80.69,234.45,80.55,235z"/>
	<path class="st29" d="M80.85,236.9c0.07-0.17,0.13-0.33,0.2-0.5c0.14,0.34,0.27,0.67,0.41,1.01c-0.08,0.15-0.01,0.36-0.19,0.46
		C80.98,237.61,80.94,237.24,80.85,236.9z"/>
	<path class="st13" d="M96.79,244.51c0.09,0.09,0.18,0.17,0.27,0.26c-0.3,0.22-0.61,0.32-0.97,0.17c0.03-0.05,0.04-0.1,0.02-0.16
		C96.25,244.47,96.55,244.54,96.79,244.51z"/>
	<path class="st44" d="M72.42,233.12c-0.08-0.07-0.17-0.14-0.25-0.2c0.4-0.17,0.79-0.35,1.19-0.52c0.01,0.11,0.03,0.23,0.04,0.34
		C73.07,232.86,72.74,232.99,72.42,233.12z"/>
	<path class="st63" d="M107.14,226.91c0-0.47,0.19-0.81,0.67-0.95C107.92,226.51,107.5,226.69,107.14,226.91z"/>
	<path class="st64" d="M97.08,235.28c-0.07-0.08-0.14-0.17-0.21-0.25c0.14-0.25,0.28-0.5,0.42-0.75c0.19,0.04,0.31,0.16,0.38,0.33
		C97.7,235.03,97.53,235.28,97.08,235.28z"/>
	<path class="st4" d="M97.53,234.54c-0.08-0.09-0.16-0.17-0.24-0.26c0.01-0.14,0.02-0.29,0.02-0.43c0.14-0.14,0.05-0.39,0.25-0.5
		c0.08,0.09,0.17,0.19,0.25,0.28C98.07,234.05,97.97,234.34,97.53,234.54z"/>
	<path class="st2" d="M79.13,217.68c-0.09-0.09-0.19-0.18-0.28-0.27c0.13-0.33,0.45-0.17,0.67-0.26c0.1,0.09,0.19,0.17,0.29,0.26
		C79.59,217.5,79.36,217.59,79.13,217.68z"/>
	<path class="st2" d="M81.26,237.87c0.06-0.15,0.13-0.31,0.19-0.46c0.14,0.27,0.34,0.52,0.25,0.85
		C81.45,238.24,81.25,238.17,81.26,237.87z"/>
	<path class="st44" d="M104.98,220.03c0.1-0.09,0.2-0.18,0.3-0.27c0.33,0.13,0.7,0.19,0.91,0.54
		C105.76,220.3,105.34,220.3,104.98,220.03z"/>
	<path class="st65" d="M109.05,223.61c0.08,0.09,0.17,0.18,0.25,0.27c-0.15,0.28-0.21,0.64-0.62,0.69c-0.18-0.3,0.05-0.54,0.12-0.8
		C108.88,223.72,108.96,223.67,109.05,223.61z"/>
	<path class="st28" d="M89.16,227.99c0.1,0.27,0.19,0.54,0.29,0.81c-0.05,0.1-0.12,0.17-0.22,0.22c-0.03,0.02-0.07,0.05-0.1,0.08
		C88.84,228.72,88.71,228.35,89.16,227.99z"/>
	<path class="st22" d="M88.88,226.96c0.25,0.31,0.21,0.71,0.3,1.06c-0.31-0.17-0.54-0.4-0.53-0.78
		C88.54,227,88.65,226.93,88.88,226.96z"/>
	<path class="st66" d="M88.88,226.96c-0.08,0.09-0.16,0.19-0.23,0.28c-0.24-0.21-0.38-0.48-0.43-0.79c0.08-0.09,0.15-0.18,0.23-0.26
		c0.1-0.05,0.18-0.02,0.25,0.07C88.75,226.49,88.81,226.72,88.88,226.96z"/>
	<path class="st58" d="M71.43,239.57c0.07-0.09,0.13-0.17,0.2-0.26c0.15,0.16,0.3,0.33,0.45,0.49c0.02,0.15-0.03,0.27-0.16,0.36
		c0,0-0.02,0.11-0.02,0.11C71.74,240.03,71.58,239.8,71.43,239.57z"/>
	<path class="st67" d="M69.29,235.02c0.08,0.08,0.16,0.17,0.24,0.25c0.04,0.39,0.08,0.79,0.12,1.18c-0.21,0.06-0.35,0-0.39-0.22
		c-0.15-0.41-0.16-0.82,0.01-1.22C69.28,235.01,69.29,235.02,69.29,235.02z"/>
	<path class="st68" d="M97.56,233.36c-0.08,0.17-0.16,0.33-0.25,0.5c0.07-0.48-0.26-1.05,0.3-1.43
		C97.6,232.74,97.58,233.05,97.56,233.36z"/>
	<path class="st69" d="M69.28,235.01c0,0.41-0.01,0.82-0.01,1.22C68.95,235.82,68.93,235.42,69.28,235.01z"/>
	<path class="st4" d="M82.04,216.76c-0.18-0.08-0.35-0.16-0.53-0.23c0.07-0.03,0.14-0.05,0.22-0.05c0.31,0.09,0.69-0.11,0.95,0.21
		C82.47,216.71,82.26,216.74,82.04,216.76z"/>
	<path class="st70" d="M100.87,222.41c0.01,0.4,0.01,0.8,0.02,1.2c-0.08-0.17-0.17-0.34-0.25-0.5
		C100.72,222.88,100.79,222.64,100.87,222.41z"/>
	<path class="st71" d="M93.99,220.26c-0.22-0.09-0.39-0.23-0.46-0.47c0.14-0.12,0.28-0.12,0.41,0.02c0.09,0.07,0.18,0.13,0.27,0.2
		C94.13,220.1,94.06,220.18,93.99,220.26z"/>
	<path class="st72" d="M93.93,219.81c-0.14-0.01-0.27-0.01-0.41-0.02c-0.25-0.1-0.43-0.28-0.52-0.54
		C93.37,219.35,93.69,219.52,93.93,219.81z"/>
	<path class="st73" d="M102.09,220.74c-0.02,0.07-0.03,0.15-0.04,0.22c-0.05,0.03-0.1,0.04-0.15,0.04
		C101.84,220.82,101.94,220.76,102.09,220.74z"/>
	<path class="st74" d="M92.28,245.03c0.48,0,0.96-0.01,1.44-0.01c0,0.07,0,0.14,0,0.21C93.23,245.17,92.71,245.42,92.28,245.03z"/>
	<path class="st68" d="M97.53,234.54c0.21-0.27,0.29-0.57,0.28-0.9c0.34-1.24,1.33-0.64,2.08-0.72c-0.54,1.28-1.37,2.25-2.81,2.56
		c-0.02-0.07-0.02-0.14,0-0.2C97.38,235.13,97.52,234.87,97.53,234.54z"/>
	<path class="st75" d="M82.96,232.85c0-0.13-0.01-0.27-0.01-0.4c1.62-0.01,3.24-0.03,4.86-0.04c0.22,0,0.49-0.07,0.6,0.23
		c-0.12,0.12-0.25,0.22-0.44,0.23C86.3,232.87,84.63,232.86,82.96,232.85z"/>
	<path class="st76" d="M100.17,232.64c0-0.06,0.01-0.13,0.02-0.19c1.48-0.01,2.96,0.05,4.43-0.07c1.17-0.09,1.51,0.35,1.32,1.41
		c-0.06,0.35-0.01,0.72-0.23,1.03c-0.32-0.15-0.22-0.55-0.47-0.75c0.15-0.38,0.29-0.77,0.2-1.19c-1.28-0.3-2.59-0.05-3.88-0.13
		C101.1,232.72,100.62,232.87,100.17,232.64z"/>
	<path class="st77" d="M91.07,236.68c1.28,0.55,2.56,0.58,3.84,0c0.1,0.08,0.24,0.1,0.27,0.26c-0.31,0.32-0.68,0.51-1.14,0.5
		c-0.7,0.11-1.39,0.13-2.09,0c-0.5-0.04-0.97-0.17-1.36-0.51C90.69,236.71,90.81,236.54,91.07,236.68z"/>
	<path class="st75" d="M100.17,232.64c1.39,0,2.78-0.01,4.17,0.01c0.38,0,0.81-0.13,1.11,0.24c-1.83-0.01-3.65-0.03-5.48-0.04
		C100.04,232.78,100.1,232.71,100.17,232.64z"/>
	<path class="st78" d="M88.72,234.29c0.33,0.55,0.85,1,0.93,1.68c-0.94-0.04-0.87-1.01-1.37-1.46
		C88.36,234.32,88.45,234.13,88.72,234.29z"/>
	<path class="st79" d="M104.27,238.85c-0.25,0.43-0.3,1.03-0.96,1.11c-0.19-0.67,0.43-0.93,0.7-1.38
		C104.24,238.53,104.36,238.59,104.27,238.85z"/>
	<path class="st80" d="M105.66,235.25c-0.07,0.51-0.1,1.03-0.46,1.45c-0.46-0.73,0.07-1.43,0.08-2.14
		C105.78,234.58,105.42,235.08,105.66,235.25z"/>
	<path class="st81" d="M88.72,234.29c-0.15,0.07-0.29,0.15-0.44,0.22c-0.11-0.55-0.21-1.09-0.32-1.64c0.09-0.18,0.25-0.22,0.44-0.23
		C88.5,233.2,88.61,233.75,88.72,234.29z"/>
	<path class="st82" d="M98.7,243.6c-0.42,0.33-0.88,0.56-1.41,0.64c-0.35-0.34-0.81-0.08-1.2-0.22
		C96.96,243.88,97.83,243.74,98.7,243.6z"/>
	<path class="st76" d="M91.07,236.68c-0.16,0.08-0.32,0.16-0.48,0.24c-0.44-0.2-0.95-0.34-0.97-0.96
		C90.27,235.89,90.61,236.41,91.07,236.68z"/>
	<path class="st83" d="M105.22,236.67c0,0.46-0.11,0.88-0.47,1.2c-0.12,0.09-0.23,0.08-0.32-0.04
		C104.62,237.41,104.45,236.72,105.22,236.67z"/>
	<path class="st84" d="M95.18,236.94c-0.09-0.09-0.18-0.17-0.27-0.26c0.4-0.15,0.7-0.55,1.19-0.47
		C96.02,236.73,95.59,236.82,95.18,236.94z"/>
	<path class="st85" d="M104.42,237.83c0.11,0.01,0.22,0.03,0.32,0.04c-0.06,0.37-0.17,0.72-0.47,0.97
		c-0.09-0.09-0.18-0.18-0.26-0.27C104.07,238.29,103.91,237.88,104.42,237.83z"/>
	<path class="st86" d="M91.96,237.43c0.7,0,1.39,0,2.09,0C93.35,237.73,92.65,237.72,91.96,237.43z"/>
	<path class="st87" d="M105.66,235.25c-0.13-0.23-0.25-0.46-0.38-0.69c-0.01-0.16-0.03-0.32-0.04-0.48
		c0.51,0.03,0.39,0.45,0.47,0.75C105.7,234.96,105.68,235.1,105.66,235.25z"/>
	<path class="st88" d="M102.55,241.01c-0.05,0.39-0.19,0.7-0.68,0.62C101.94,241.26,102.12,241,102.55,241.01z"/>
	<path class="st9" d="M88.68,226.25c-0.08-0.02-0.16-0.05-0.25-0.07c-0.38-0.55-0.8-1.06-1.44-1.34c-0.3,0.03-0.56-0.1-0.83-0.22
		c-1.08-0.32-2.16-0.42-3.26-0.16c-0.35,0.16-0.72,0.29-1.07,0.46c-0.57,0.48-1.2,0.91-1.53,1.62l0.01,0.08
		c-0.33,0.36-0.38,0.89-0.73,1.25c-0.1,0.24-0.2,0.48-0.29,0.71c-1.44,0.26-2.89,0.11-4.33,0.09c-0.86-0.01-0.46-0.7-0.44-1.15
		c0.59-4.46,5-8.76,9.84-9.65c1.35-0.25,2.69-0.25,4.04-0.2c0.39,0.23,0.91-0.13,1.26,0.28c0.21,0.19,0.47,0.15,0.72,0.14
		c0.31,0.16,0.62,0.32,0.93,0.47c0.23,0.36,0.61,0.53,0.95,0.75c0.64,0.64,1.28,1.27,1.91,1.91c0.35,0.08,0.48,0.4,0.68,0.63
		c0.43,0.46,0.6,1.09,1.02,1.56c0.08,0.18,0.15,0.36,0.23,0.54c0.1,0.77,0.56,1.43,0.62,2.21c0,0.72,0.52,1.41,0.06,2.14
		c-1.85,0.61-3.71,0.5-5.57,0.06C90.53,227.5,89.99,226.43,88.68,226.25z"/>
	<path class="st10" d="M74.52,227.54c-0.06,0.79,0.24,1.12,1.09,1.07c1.22-0.07,2.45-0.02,3.68-0.02c-1.68,0.35-3.36,0.36-5.03-0.02
		C74.35,228.24,74.24,227.84,74.52,227.54z"/>
	<path class="st89" d="M89.67,217.97c-0.41-0.12-0.88-0.01-1.26-0.28c0.17-0.08,0.34-0.16,0.5-0.24c0.08-0.02,0.17-0.03,0.25-0.05
		C89.33,217.59,89.5,217.78,89.67,217.97z"/>
	<path class="st90" d="M106.54,227.4c-0.84,0.95-1.8,0.63-2.76,0.24c0.1-0.19,0.33-0.1,0.46-0.21
		C105,227.42,105.77,227.59,106.54,227.4z"/>
	<path class="st91" d="M101.4,223.85c-0.24-0.55-0.41-1.11-0.06-1.68C101.79,222.72,101.72,223.28,101.4,223.85z"/>
	<path class="st92" d="M101.14,224.08c0.06-0.08,0.11-0.16,0.17-0.24c0.16,0.33,0.52,0.55,0.55,0.95c0.12,0.25-0.01,0.27-0.21,0.23
		C101.48,224.71,101.31,224.39,101.14,224.08z"/>
	<path class="st93" d="M104.24,227.44c-0.15,0.07-0.31,0.14-0.46,0.21c-0.33-0.16-0.7-0.27-0.73-0.72
		C103.44,227.09,103.84,227.27,104.24,227.44z"/>
	<path class="st94" d="M101.65,225.02c0.07-0.08,0.14-0.15,0.21-0.23c0.32,0.22,0.44,0.54,0.46,0.91
		C101.78,225.78,101.77,225.34,101.65,225.02z"/>
	<path class="st95" d="M103.07,226.95c-0.5-0.13-0.71-0.49-0.74-0.97C102.67,226.23,103.08,226.43,103.07,226.95z"/>
	<path class="st96" d="M76.22,239.05c-0.32,0.59-0.72,1.07-1.42,1.21c-0.07-0.06-0.09-0.13-0.08-0.19c0.02-0.07,0.04-0.1,0.06-0.1
		c0.45-0.42,0.94-0.79,1.22-1.36C76.18,238.71,76.1,238.93,76.22,239.05z"/>
	<path class="st97" d="M74.78,239.97c0.01,0.1,0.01,0.2,0.02,0.29c-0.6,0.42-1.26,0.26-1.91,0.2c0-0.46,0.28-0.32,0.54-0.25
		C73.87,240.14,74.33,240.05,74.78,239.97z"/>
	<path class="st98" d="M77.43,236.21c0.08,0.09,0.17,0.17,0.25,0.26c-0.04,0.3-0.17,0.54-0.43,0.71c-0.11,0.13-0.2,0.12-0.28-0.03
		C76.81,236.69,77.09,236.43,77.43,236.21z"/>
	<path class="st99" d="M73.42,240.22c-0.21,0.02-0.41,0.04-0.54,0.25c-0.32-0.1-0.65-0.21-0.97-0.31c0.05-0.12,0.11-0.24,0.16-0.36
		C72.52,239.94,72.97,240.08,73.42,240.22z"/>
	<path class="st100" d="M76.22,239.05c-0.18-0.09-0.21-0.26-0.22-0.44c0.16-0.23,0.33-0.46,0.49-0.68c0.1,0.03,0.17,0.09,0.22,0.18
		C76.69,238.5,76.44,238.77,76.22,239.05z"/>
	<path class="st101" d="M76.71,238.11c-0.07-0.06-0.15-0.12-0.22-0.18c-0.04-0.38,0.36-0.49,0.48-0.78
		c0.09,0.01,0.19,0.02,0.28,0.03C77.14,237.53,77.06,237.89,76.71,238.11z"/>
	<path class="st102" d="M82.69,224.34c1.23-0.39,2.44-0.35,3.62,0.2c-0.02,0.15-0.16,0.17-0.25,0.24c-1-0.34-2.04-0.21-3.06-0.2
		C82.72,224.72,82.68,224.56,82.69,224.34z"/>
	<path class="st103" d="M80.3,226.56c0.07-0.92,0.78-1.32,1.43-1.77c0.15,0.03,0.24,0.12,0.27,0.27
		C81.44,225.55,80.87,226.05,80.3,226.56z"/>
	<path class="st104" d="M79.58,227.89c0.01-0.55,0.09-1.06,0.73-1.25c-0.01,0.55-0.18,1.04-0.47,1.5
		C79.75,228.06,79.67,227.97,79.58,227.89z"/>
	<path class="st105" d="M82.01,225.05c-0.09-0.09-0.18-0.18-0.27-0.26c0.32-0.15,0.64-0.3,0.96-0.45c0.1,0.08,0.2,0.16,0.3,0.24
		C82.72,224.85,82.36,224.95,82.01,225.05z"/>
	<path class="st106" d="M86.06,224.78c0.08-0.08,0.17-0.16,0.25-0.24c0.23,0.1,0.45,0.2,0.68,0.3c-0.08,0.07-0.16,0.14-0.24,0.2
		C86.52,224.96,86.29,224.87,86.06,224.78z"/>
	<path class="st107" d="M89.24,229.02c0.07-0.07,0.14-0.15,0.22-0.22c0.61-0.02,1.22-0.05,1.83-0.07c1.68-0.28,3.38-0.04,5.06-0.14
		c0.54,0.09,0.45-0.68,0.93-0.69c-0.06,0.54,0.41,1.37-0.73,1.31c-1.96-0.32-3.93-0.05-5.89-0.16
		C90.18,229.03,89.71,229.03,89.24,229.02z"/>
	<path class="st108" d="M97.28,227.9c-0.36,0.19-0.04,0.77-0.52,0.9c-0.17-0.23-0.08-0.45,0.03-0.66c0.12-0.73-0.4-1.41-0.17-2.15
		c0.05,0,0.1,0,0.15,0.01C97.33,226.53,96.9,227.32,97.28,227.9z"/>
	<path class="st102" d="M96.77,225.99c-0.05,0-0.1,0-0.15-0.01c-0.23-0.65-0.9-1.19-0.51-2C96.55,224.58,96.95,225.19,96.77,225.99z
		"/>
	<path class="st109" d="M95.88,223.44c-0.73-0.24-0.79-1.01-1.19-1.5c0.07-0.1,0.09-0.25,0.25-0.28
		C95.44,222.15,95.79,222.73,95.88,223.44z"/>
	<path class="st110" d="M94.94,221.66c-0.08,0.09-0.17,0.19-0.25,0.28c-0.17-0.23-0.34-0.46-0.51-0.7c0.09-0.09,0.17-0.17,0.26-0.26
		C94.61,221.21,94.77,221.43,94.94,221.66z"/>
	<path class="st1" d="M182.22,228.74c0.48-0.46-0.61-1.56,0.79-1.56c1.1,0,1.67,0.6,1.66,1.71c-0.01,1.05-0.56,1.63-1.62,1.61
		C181.49,230.47,182.77,229.25,182.22,228.74z"/>
	<path class="st1" d="M124.04,228.81c0.47-0.48-0.66-1.65,0.82-1.63c1.06,0.01,1.59,0.56,1.62,1.63c0.02,1.1-0.56,1.73-1.66,1.69
		C123.42,230.44,124.49,229.32,124.04,228.81z"/>
	<path class="st111" d="M133.88,228.04c0.18,0.73,0.39,1.45,0.52,2.19c0.05,0.28,0.36,0.67,0.01,0.86c-0.37,0.2-0.89,0.2-1.27,0
		c-0.36-0.19-0.06-0.57,0-0.85c0.15-0.73,0.33-1.45,0.5-2.17C133.72,228.06,133.8,228.05,133.88,228.04z"/>
	<path class="st111" d="M187.97,227.88c0.23,0.95,0.43,1.75,0.6,2.55c0.05,0.23,0.31,0.6-0.09,0.7c-0.37,0.09-0.81,0.09-1.18-0.02
		c-0.36-0.11-0.14-0.48-0.07-0.72C187.46,229.6,187.46,228.75,187.97,227.88z"/>
	<path class="st111" d="M138.21,228.08c0.19,0.81,0.38,1.61,0.56,2.42c0.05,0.21,0.24,0.53-0.08,0.61c-0.38,0.09-0.8,0.09-1.18,0.02
		c-0.31-0.06-0.19-0.38-0.14-0.6c0.2-0.83,0.41-1.66,0.62-2.5C138.06,228.05,138.14,228.07,138.21,228.08z"/>
	<path class="st112" d="M160.77,228.75c0-0.24-0.03-0.48,0.01-0.71c0.06-0.36-0.25-0.9,0.21-1.05c0.53-0.18,1.12-0.05,1.58,0.32
		c0.77,0.61,0.74,2.53-0.04,3.11c-0.44,0.33-0.99,0.44-1.48,0.28c-0.56-0.18-0.2-0.74-0.27-1.12
		C160.73,229.31,160.77,229.03,160.77,228.75z"/>
	<path class="st7" d="M170.36,227.89c0.38,2.02,0.78,4.05-0.52,5.93c-1.32,0.44-1.99,0.15-2.34-1.12c-0.37-1.35-0.39-2.73-0.09-4.1
		c0.16-0.72,0.48-1.35,1.27-1.57C169.51,226.8,169.93,227.36,170.36,227.89z"/>
	<path class="st113" d="M96.79,228.14c-0.01,0.22-0.02,0.44-0.03,0.66c-1.83-0.02-3.65-0.05-5.47-0.07
		c-0.02-0.11-0.05-0.22-0.07-0.33c1.43-0.01,2.87-0.03,4.3-0.03C95.96,228.36,96.4,228.38,96.79,228.14z"/>
</g>
</svg>
