<svg width="48" height="48" viewBox="0 0 48 48" fill="none" xmlns="http://www.w3.org/2000/svg">
<path d="M24 2.4499e-07C19.2533 2.4499e-07 14.6131 1.40758 10.6663 4.04473C6.71954 6.68188 3.6434 10.4302 1.8269 14.8156C0.0103987 19.201 -0.464881 24.0266 0.461164 28.6822C1.38721 33.3377 3.67299 37.6141 7.02945 40.9706C10.3859 44.327 14.6623 46.6128 19.3178 47.5388C23.9734 48.4649 28.799 47.9896 33.1844 46.1731C37.5698 44.3566 41.3181 41.2805 43.9553 37.3337C46.5924 33.3869 48 28.7467 48 24C48.0004 20.8481 47.38 17.7271 46.174 14.8151C44.9681 11.903 43.2003 9.25713 40.9716 7.02843C38.7429 4.79974 36.097 3.03193 33.1849 1.82597C30.2729 0.620021 27.1519 -0.000450116 24 2.4499e-07V2.4499e-07ZM34.8229 25.0514L27.7143 29.44L20.1029 34.1257C19.9183 34.2303 19.7095 34.2848 19.4973 34.2839C19.2852 34.2829 19.0769 34.2265 18.8933 34.1202C18.7096 34.014 18.5569 33.8615 18.4504 33.6781C18.3438 33.4946 18.287 33.2865 18.2857 33.0743V14.9257C18.287 14.7135 18.3438 14.5054 18.4504 14.3219C18.5569 14.1384 18.7096 13.986 18.8933 13.8797C19.0769 13.7735 19.2852 13.7171 19.4973 13.7161C19.7095 13.7152 19.9183 13.7697 20.1029 13.8743L27.7143 18.56L34.8229 22.9486C35.0078 23.0548 35.1615 23.208 35.2683 23.3926C35.3752 23.5772 35.4314 23.7867 35.4314 24C35.4314 24.2133 35.3752 24.4228 35.2683 24.6074C35.1615 24.792 35.0078 24.9452 34.8229 25.0514Z" fill="#011E41"/>
</svg>
