<?xml version="1.0" encoding="utf-8"?>
<!-- Generator: Adobe Illustrator 25.2.1, SVG Export Plug-In . SVG Version: 6.00 Build 0)  -->
<svg version="1.1" id="Layer_1" xmlns="http://www.w3.org/2000/svg" xmlns:xlink="http://www.w3.org/1999/xlink" x="0px" y="0px"
	 viewBox="0 0 48 48" style="enable-background:new 0 0 48 48;" xml:space="preserve">
<style type="text/css">
	.st0{fill:#FDFDFD;}
	.st1{fill:#373736;}
	.st2{fill:#277EBE;}
	.st3{fill:#1F72B5;}
	.st4{fill:#216AAF;}
	.st5{fill:#5897C9;}
	.st6{fill:#6A6A6A;}
	.st7{fill:#2DA4DD;}
	.st8{fill:#2F9ED8;}
	.st9{fill:#2DA7DF;}
	.st10{fill:#2D99D4;}
	.st11{fill:#2C93CF;}
	.st12{fill:#2C88C6;}
	.st13{fill:#2C8ECB;}
	.st14{fill:#2B82C2;}
	.st15{fill:#2277B9;}
	.st16{fill:#2566AB;}
	.st17{fill:#2D91CE;}
	.st18{fill:#2EA1DB;}
	.st19{fill:#2E9AD5;}
	.st20{fill:#28519A;}
	.st21{fill:#257DBD;}
	.st22{fill:#2C96D2;}
	.st23{fill:#2DA6DE;}
	.st24{fill:#84AE28;}
	.st25{fill:#383837;}
	.st26{fill:#206DB1;}
	.st27{fill:#2B5DA3;}
	.st28{fill:#2A579F;}
	.st29{fill:#BFCA0B;}
	.st30{fill:#2EA0DA;}
	.st31{fill:#B6C60D;}
	.st32{fill:#6EA52E;}
	.st33{fill:#274A95;}
	.st34{fill:#7CAB2B;}
	.st35{fill:#2C8DCB;}
	.st36{fill:#2A4491;}
	.st37{fill:#2D95D1;}
	.st38{fill:#CAD009;}
	.st39{fill:#94B523;}
	.st40{fill:#64A130;}
	.st41{fill:#274A94;}
	.st42{fill:#285099;}
	.st43{fill:#1F6FB3;}
	.st44{fill:#8EB225;}
	.st45{fill:#EB6920;}
	.st46{fill:#2B83C2;}
	.st47{fill:#A2BC19;}
	.st48{fill:#2565AA;}
	.st49{fill:#589D32;}
	.st50{fill:#2A58A0;}
	.st51{fill:#AFC211;}
	.st52{fill:#A9BF15;}
	.st53{fill:#75A82D;}
	.st54{fill:#EE7B13;}
	.st55{fill:#EC721A;}
	.st56{fill:#9DB91C;}
	.st57{fill:#EB6123;}
	.st58{fill:#2C88C7;}
	.st59{fill:#2E3E8C;}
	.st60{fill:#2861A7;}
	.st61{fill:#4F9B34;}
	.st62{fill:#257CBD;}
	.st63{fill:#2B5CA3;}
	.st64{fill:#2D3687;}
	.st65{fill:#F08A0B;}
	.st66{fill:#2D3E8C;}
	.st67{fill:#2A4490;}
	.st68{fill:#2269AD;}
	.st69{fill:#2D9AD5;}
	.st70{fill:#2762A8;}
	.st71{fill:#E84C28;}
	.st72{fill:#3E9636;}
	.st73{fill:#EA5A25;}
	.st74{fill:#EF8110;}
	.st75{fill:#29569E;}
	.st76{fill:#D2D507;}
	.st77{fill:#489935;}
	.st78{fill:#309436;}
	.st79{fill:#E95327;}
	.st80{fill:#2C92CE;}
	.st81{fill:#E74329;}
	.st82{fill:#2A5DA4;}
	.st83{fill:#EB6B1F;}
	.st84{fill:#86AE28;}
	.st85{fill:#D8D906;}
	.st86{fill:#CAD109;}
	.st87{fill:#B7C60D;}
	.st88{fill:#EE7C12;}
	.st89{fill:#BFCB0B;}
	.st90{fill:#2B4491;}
	.st91{fill:#92B424;}
	.st92{fill:#6CA42F;}
	.st93{fill:#2C8BC8;}
	.st94{fill:#7DAB2B;}
	.st95{fill:#E63B2B;}
	.st96{fill:#EA6023;}
	.st97{fill:#EB6921;}
	.st98{fill:#5A9E32;}
	.st99{fill:#A0BB1B;}
	.st100{fill:#239237;}
	.st101{fill:#D5D708;}
	.st102{fill:#2961A6;}
	.st103{fill:#EE7A13;}
	.st104{fill:#2C85C4;}
	.st105{fill:#2961A7;}
	.st106{fill:#F0880E;}
	.st107{fill:#ADC112;}
	.st108{fill:#1A903A;}
	.st109{fill:#B0C311;}
	.st110{fill:#9CB81D;}
	.st111{fill:#2F3888;}
	.st112{fill:#E95527;}
	.st113{fill:#AABF14;}
	.st114{fill:#2EA3DB;}
	.st115{fill:#206FB2;}
	.st116{fill:#75A82E;}
	.st117{fill:#2FA3DB;}
	.st118{fill:#EA5F24;}
	.st119{fill:#E84829;}
	.st120{fill:#E95328;}
	.st121{fill:#EE7B15;}
	.st122{fill:#2176B8;}
	.st123{fill:#CAD10A;}
	.st124{fill:#2F3F8D;}
	.st125{fill:#29559D;}
	.st126{fill:#B7C70D;}
	.st127{fill:#294A95;}
	.st128{fill:#519B33;}
	.st129{fill:#2E9AD4;}
	.st130{fill:#569D33;}
	.st131{fill:#EF8310;}
	.st132{fill:#267CBC;}
	.st133{fill:#1F70B3;}
	.st134{fill:#C0CB0B;}
	.st135{fill:#A3BE1E;}
	.st136{fill:#E84929;}
	.st137{fill:#7CAA2B;}
	.st138{fill:#BECA0C;}
	.st139{fill:#2E3F8C;}
	.st140{fill:#2B82C1;}
	.st141{fill:#2A5EA4;}
	.st142{fill:#3D9636;}
	.st143{fill:#E7442A;}
	.st144{fill:#5A9E33;}
	.st145{fill:#D6D80A;}
	.st146{fill:#E95627;}
	.st147{fill:#82AD2B;}
	.st148{fill:#329537;}
	.st149{fill:#6FA52F;}
	.st150{fill:#EB6124;}
	.st151{fill:#F0890F;}
	.st152{fill:#F18D0E;}
	.st153{fill:#29549C;}
	.st154{fill:#469836;}
	.st155{fill:#E73E2E;}
	.st156{fill:#259238;}
	.st157{fill:#359538;}
	.st158{fill:#509B34;}
	.st159{fill:#2C89C7;}
	.st160{fill:#EA5C26;}
	.st161{fill:#2179BA;}
	.st162{fill:#64A131;}
	.st163{fill:#D4D70B;}
	.st164{fill:#25943C;}
	.st165{fill:#A2BC1A;}
	.st166{fill:#ADC213;}
	.st167{fill:#2E8AC8;}
	.st168{fill:#2569AD;}
	.st169{fill:#284994;}
	.st170{fill:#E8482D;}
	.st171{fill:#EC6D1F;}
	.st172{fill:#75A72E;}
	.st173{fill:#EE7E15;}
	.st174{fill:#2C943A;}
	.st175{fill:#2666AB;}
	.st176{fill:#EC731E;}
	.st177{fill:#2C5EA4;}
	.st178{fill:#2A549C;}
	.st179{fill:#E74130;}
	.st180{fill:#2C4490;}
	.st181{fill:#294C96;}
	.st182{fill:#1F933E;}
	.st183{fill:#E74031;}
	.st184{fill:#334490;}
	.st185{fill:#2D7FBE;}
	.st186{fill:#313D8B;}
	.st187{fill:#AFC426;}
	.st188{fill:#3A9536;}
	.st189{fill:#529D37;}
	.st190{fill:#B9C70D;}
	.st191{fill:#92B425;}
	.st192{fill:#3E559A;}
	.st193{fill:#EF8114;}
	.st194{fill:#2B58A0;}
	.st195{fill:#EA5B26;}
	.st196{fill:#E84830;}
	.st197{fill:#374E96;}
	.st198{fill:#339AD4;}
	.st199{fill:#67A331;}
	.st200{fill:#A0BA1B;}
	.st201{fill:#C9D00D;}
	.st202{fill:#77A82D;}
	.st203{fill:#EC6D21;}
	.st204{fill:#3E9B43;}
	.st205{fill:#ADC115;}
	.st206{fill:#85AE2A;}
	.st207{fill:#2274B6;}
	.st208{fill:#EC702A;}
	.st209{fill:#2667AC;}
	.st210{fill:#EA5839;}
	.st211{fill:#D8D911;}
	.st212{fill:#F18E15;}
	.st213{fill:#53A042;}
	.st214{fill:#EB6826;}
	.st215{fill:#F08A25;}
	.st216{fill:#B0C312;}
	.st217{fill:#73A834;}
	.st218{fill:#EB6321;}
	.st219{fill:#95B62A;}
	.st220{fill:#EA5C44;}
	.st221{fill:#F08825;}
	.st222{fill:#FEFEFE;}
	.st223{fill:#FCFCFC;}
</style>
<g>
	<path class="st0" d="M43.92,30.58c0,1.62,0,3.23,0,4.85c0,0.11-0.02,0.13-0.13,0.13c-13.19,0-26.38,0-39.57,0
		c-0.12,0-0.14-0.03-0.14-0.14c0-7.61,0-15.22,0-22.84c0-0.13,0.04-0.14,0.15-0.14c11.67,0,23.35,0,35.02,0
		c0.01,0.03-0.01,0.04-0.03,0.06c-0.05,0.02-0.1,0.03-0.16,0.05c-0.07,0.02-0.14,0.05-0.22,0.06c-0.08,0.02-0.16,0.04-0.23,0.08
		c-0.09,0.04-0.17,0.08-0.25,0.13c-0.11,0.04-0.19,0.12-0.28,0.19c-0.14,0.09-0.24,0.21-0.35,0.32c-0.15,0.18-0.29,0.36-0.38,0.58
		c-0.57,1.2-0.1,2.67,1.08,3.29c0.21,0.1,0.41,0.19,0.64,0.23c0.15,0.03,0.31,0.06,0.47,0.05c0.15-0.01,0.3,0.02,0.45-0.01
		c0.05-0.01,0.1-0.02,0.15-0.03c0.08-0.02,0.17-0.03,0.25-0.06c0.08-0.03,0.17-0.06,0.25-0.09c0.05-0.02,0.09-0.04,0.13-0.07
		c0.07-0.04,0.15-0.07,0.21-0.13c0.04-0.04,0.1-0.05,0.14-0.09c0.05-0.04,0.11-0.07,0.15-0.13c0.04-0.05,0.09-0.08,0.14-0.12
		c0.04-0.04,0.09-0.08,0.13-0.13c0.03-0.04,0.06-0.09,0.09-0.13c0.02-0.03,0.04-0.07,0.06-0.1c0.02-0.04,0.05-0.06,0.07-0.1
		c0.02-0.03,0.04-0.07,0.06-0.11c0.03-0.07,0.07-0.14,0.1-0.21c0.04-0.07,0.07-0.15,0.09-0.23c0.03-0.08,0.04-0.17,0.06-0.26
		c0.05-0.24,0.08-0.48,0.04-0.72c-0.06-0.51-0.22-0.97-0.56-1.35c-0.07-0.1-0.14-0.21-0.25-0.27c-0.06-0.06-0.12-0.12-0.19-0.16
		c-0.06-0.04-0.13-0.09-0.19-0.13c-0.07-0.05-0.15-0.1-0.24-0.12c-0.05-0.02-0.09-0.03-0.14-0.05c-0.03-0.01-0.05-0.02-0.07-0.04
		c-0.04-0.02-0.08-0.03-0.12-0.04c-0.04-0.01-0.08-0.02-0.13-0.03c-0.04-0.01-0.09-0.02-0.13-0.03c-0.05-0.03-0.14,0-0.15-0.09
		c1.29,0,2.58,0,3.86,0c0.11,0,0.13,0.02,0.13,0.13c0,5.85,0,11.7,0,17.56c-0.02,0.01-0.03,0.01-0.05-0.01
		c-0.13-0.51-0.52-0.72-0.97-0.88c-0.22-0.08-0.45-0.13-0.67-0.2c-0.11-0.03-0.21-0.07-0.31-0.13c-0.11-0.07-0.18-0.16-0.17-0.29
		c0.01-0.12,0.1-0.2,0.2-0.25c0.2-0.09,0.41-0.06,0.61-0.04c0.18,0.02,0.35,0.1,0.51,0.17c0.11,0.05,0.22,0.1,0.35,0.1
		c0.13,0,0.23-0.04,0.29-0.16c0.07-0.12,0.06-0.24-0.01-0.35c-0.09-0.13-0.21-0.23-0.35-0.3c-0.22-0.11-0.45-0.2-0.7-0.21
		c-0.43-0.03-0.86-0.03-1.26,0.17c-0.75,0.36-0.69,1.41-0.12,1.77c0.34,0.22,0.71,0.34,1.09,0.44c0.13,0.04,0.26,0.07,0.37,0.14
		c0.12,0.07,0.22,0.16,0.2,0.32c-0.02,0.15-0.13,0.23-0.26,0.27c-0.3,0.1-0.59,0.04-0.87-0.07c-0.11-0.05-0.22-0.11-0.33-0.17
		c-0.07-0.04-0.15-0.08-0.24-0.1c-0.14-0.03-0.29-0.02-0.38,0.11c-0.09,0.13-0.07,0.28,0,0.42c0.07,0.14,0.21,0.21,0.34,0.28
		c0.3,0.15,0.63,0.24,0.97,0.24c0.25,0,0.5,0.02,0.75-0.05c0.39-0.11,0.71-0.3,0.87-0.7C43.83,30.63,43.84,30.57,43.92,30.58z"/>
	<path class="st1" d="M43.92,30.58c-0.01,0-0.02,0.01-0.03,0.01c-0.17,0.55-0.59,0.78-1.12,0.86c-0.55,0.08-1.09,0.02-1.6-0.24
		c-0.11-0.06-0.21-0.12-0.29-0.22c-0.12-0.15-0.15-0.39-0.06-0.52c0.09-0.14,0.3-0.2,0.5-0.13c0.1,0.03,0.19,0.09,0.28,0.15
		c0.3,0.17,0.61,0.27,0.96,0.22c0.07-0.01,0.15-0.03,0.21-0.07c0.19-0.11,0.2-0.31,0.02-0.44c-0.12-0.09-0.27-0.12-0.41-0.17
		c-0.39-0.11-0.78-0.21-1.12-0.45c-0.4-0.28-0.57-0.77-0.42-1.24c0.11-0.33,0.34-0.55,0.66-0.66c0.67-0.23,1.33-0.21,1.95,0.15
		c0.07,0.04,0.13,0.09,0.19,0.14c0.17,0.16,0.21,0.38,0.1,0.55c-0.09,0.15-0.31,0.2-0.52,0.12c-0.22-0.08-0.42-0.2-0.66-0.24
		c-0.19-0.03-0.38-0.04-0.57,0.01c-0.12,0.03-0.21,0.09-0.22,0.22c-0.02,0.13,0.06,0.22,0.17,0.28c0.16,0.08,0.34,0.13,0.51,0.17
		c0.3,0.08,0.59,0.16,0.87,0.32c0.29,0.16,0.51,0.38,0.55,0.73c0.03,0.12-0.01,0.24,0.03,0.36C43.92,30.51,43.92,30.54,43.92,30.58z
		"/>
	<path class="st2" d="M41,17.1c-0.05,0.08-0.14,0.09-0.21,0.13c-0.04-0.02-0.06-0.06-0.07-0.1c-0.21-0.64-0.44-1.27-0.63-1.91
		c-0.26-0.83-0.56-1.64-0.8-2.47c-0.03-0.09-0.11-0.16-0.07-0.27c0.01-0.01,0.02-0.03,0.03-0.04c0.04,0,0.09,0,0.13,0
		c0.02,0.02,0.06,0.01,0.09,0.04c0.04,0.03,0.05,0.08,0.07,0.13c0.39,1.21,0.79,2.42,1.19,3.63C40.82,16.53,40.91,16.81,41,17.1z"/>
	<path class="st3" d="M41.29,16.88c-0.03,0.07-0.09,0.1-0.15,0.13c-0.09,0-0.1-0.07-0.12-0.13c-0.3-0.95-0.63-1.89-0.93-2.85
		c-0.14-0.45-0.3-0.89-0.44-1.33c-0.02-0.07-0.07-0.15-0.03-0.23c0.05-0.04,0.12,0.01,0.17-0.03c0.01,0,0.02,0,0.03,0
		c0.05,0.05,0.07,0.12,0.09,0.18c0.29,0.88,0.58,1.75,0.86,2.63c0.15,0.47,0.31,0.94,0.46,1.41C41.27,16.74,41.29,16.8,41.29,16.88z
		"/>
	<path class="st4" d="M41.29,16.88c-0.13-0.24-0.19-0.51-0.28-0.77c-0.28-0.81-0.54-1.64-0.81-2.45c-0.13-0.4-0.29-0.79-0.38-1.21
		c0.03,0,0.06,0,0.1,0c0.04,0.07,0.12,0.01,0.17,0.06c0.04,0.23,0.12,0.44,0.19,0.66c0.39,1.15,0.74,2.3,1.14,3.45
		c0.02,0.05,0.04,0.1,0.01,0.15C41.4,16.83,41.32,16.82,41.29,16.88z"/>
	<path class="st5" d="M39.8,12.44c-0.04,0.05-0.11,0.02-0.16,0.03c-0.06,0.05-0.13,0.04-0.19,0c-0.03,0-0.05-0.01-0.07-0.03
		C39.52,12.44,39.66,12.44,39.8,12.44z"/>
	<path class="st6" d="M43.92,30.48c-0.06-0.11-0.02-0.24-0.03-0.36c0.01,0,0.02,0,0.03,0.01C43.92,30.25,43.92,30.36,43.92,30.48z"
		/>
	<path class="st1" d="M6.77,29.84c0.46-1.1,0.92-2.16,1.37-3.22c0.1-0.23,0.19-0.46,0.29-0.69c0.13-0.31,0.4-0.44,0.68-0.32
		c0.27,0.12,0.36,0.41,0.23,0.72c-0.32,0.74-0.65,1.49-0.97,2.23c-0.37,0.85-0.74,1.7-1.11,2.55c-0.11,0.26-0.29,0.36-0.55,0.33
		c-0.19-0.02-0.31-0.12-0.38-0.29c-0.7-1.61-1.41-3.23-2.12-4.84c-0.08-0.18-0.08-0.35,0.03-0.52c0.1-0.16,0.25-0.24,0.45-0.22
		c0.2,0.02,0.35,0.12,0.43,0.31c0.33,0.79,0.66,1.57,0.99,2.36c0.2,0.48,0.4,0.96,0.6,1.44C6.72,29.72,6.74,29.76,6.77,29.84z"/>
	<path class="st1" d="M23.45,29.85c-0.37,0-0.73,0-1.1,0c-0.09,0-0.11,0.02-0.1,0.12c0.07,0.35,0.34,0.63,0.69,0.68
		c0.38,0.05,0.73-0.01,1.04-0.26c0.13-0.11,0.28-0.18,0.46-0.14c0.24,0.05,0.36,0.26,0.3,0.49c-0.03,0.12-0.11,0.22-0.21,0.3
		c-0.67,0.56-1.93,0.61-2.63,0.09c-0.55-0.41-0.75-0.98-0.75-1.64c0-0.93,0.57-1.67,1.44-1.89c1.16-0.3,2.19,0.43,2.3,1.63
		c0.01,0.07,0.01,0.15,0.02,0.22c0.02,0.25-0.11,0.4-0.36,0.4C24.18,29.85,23.81,29.85,23.45,29.85z"/>
	<path class="st1" d="M28.46,30.05c0-0.28,0-0.55,0-0.83c0-0.45-0.32-0.76-0.78-0.77c-0.46,0-0.78,0.3-0.79,0.76
		c0,0.56,0,1.13,0,1.69c0,0.26-0.15,0.46-0.36,0.53c-0.22,0.07-0.46-0.01-0.59-0.2c-0.07-0.1-0.09-0.2-0.09-0.32
		c0-0.54-0.01-1.08,0-1.63c0.02-1.03,0.82-1.77,1.86-1.74c0.91,0.02,1.58,0.54,1.76,1.39c0.03,0.13,0.04,0.26,0.04,0.39
		c0,0.52,0,1.03,0,1.55c0,0.35-0.21,0.58-0.52,0.58c-0.31,0-0.53-0.23-0.53-0.59C28.46,30.59,28.46,30.32,28.46,30.05z"/>
	<path class="st1" d="M12.43,30.06c0-0.33-0.04-0.66,0.01-0.99c0.13-0.95,0.86-1.56,1.84-1.54c1.08,0.02,1.8,0.75,1.8,1.83
		c0,0.51,0,1.01,0,1.52c0,0.34-0.22,0.57-0.53,0.57c-0.3-0.01-0.51-0.24-0.51-0.57c0-0.55,0-1.1,0-1.64c0-0.32-0.13-0.57-0.43-0.71
		c-0.31-0.13-0.61-0.11-0.89,0.1c-0.21,0.17-0.27,0.41-0.27,0.67c0,0.54,0,1.08,0,1.63c0,0.31-0.24,0.53-0.53,0.52
		c-0.29-0.01-0.5-0.23-0.51-0.53c0-0.09,0-0.17,0-0.26c0-0.2,0-0.4,0-0.61C12.42,30.06,12.43,30.06,12.43,30.06z"/>
	<path class="st1" d="M39.74,29.03c-0.01,0.28,0.04,0.62-0.02,0.96c-0.15,0.94-0.94,1.55-1.9,1.5c-0.91-0.06-1.55-0.59-1.71-1.45
		c-0.02-0.11-0.03-0.22-0.03-0.33c0-0.53-0.01-1.05,0-1.58c0-0.33,0.21-0.54,0.5-0.55c0.31-0.01,0.54,0.2,0.54,0.52
		c0,0.56,0,1.12,0,1.67c0,0.66,0.66,1.02,1.22,0.69c0.29-0.17,0.36-0.45,0.36-0.75c0-0.53,0-1.05,0-1.58c0-0.33,0.2-0.55,0.51-0.55
		c0.31,0,0.52,0.22,0.52,0.55C39.74,28.4,39.74,28.69,39.74,29.03z"/>
	<path class="st1" d="M19.02,31.48c-1.07-0.01-1.84-0.62-2.01-1.59c-0.24-1.32,0.67-2.38,2.02-2.36c0.48,0.01,0.91,0.13,1.27,0.46
		c0.02,0.02,0.05,0.04,0.07,0.07c0.16,0.19,0.17,0.44,0.03,0.6c-0.13,0.15-0.4,0.17-0.59,0.06c-0.06-0.04-0.12-0.09-0.18-0.12
		c-0.36-0.22-0.74-0.26-1.12-0.04c-0.39,0.22-0.51,0.6-0.49,1.02c0.03,0.52,0.29,0.86,0.7,0.98c0.31,0.09,0.61,0.04,0.89-0.13
		c0.07-0.04,0.14-0.1,0.21-0.14c0.2-0.12,0.45-0.08,0.58,0.08c0.13,0.15,0.12,0.4-0.03,0.57c-0.23,0.28-0.54,0.42-0.88,0.5
		C19.33,31.47,19.16,31.48,19.02,31.48z"/>
	<path class="st1" d="M31.1,29.8c0-0.39,0-0.78,0-1.16c0-0.1-0.03-0.14-0.13-0.13c-0.15,0.01-0.31,0-0.46,0
		c-0.23,0-0.41-0.18-0.42-0.42c-0.01-0.23,0.16-0.43,0.39-0.44c0.15-0.01,0.31-0.01,0.46,0c0.12,0.01,0.17-0.02,0.16-0.16
		c-0.01-0.3,0-0.61,0-0.91c0-0.3,0.22-0.52,0.51-0.52c0.29-0.01,0.52,0.22,0.52,0.52c0,0.3,0.01,0.61,0,0.91
		c0,0.13,0.04,0.16,0.16,0.16c0.17-0.01,0.34-0.01,0.51,0c0.27,0.01,0.45,0.2,0.44,0.45c-0.01,0.25-0.19,0.42-0.45,0.42
		c-0.16,0-0.33,0.01-0.49,0c-0.13-0.01-0.17,0.03-0.17,0.16c0.01,0.76,0.01,1.51,0,2.27c0,0.34-0.27,0.56-0.6,0.51
		c-0.25-0.04-0.43-0.24-0.43-0.5C31.1,30.56,31.1,30.18,31.1,29.8z"/>
	<path class="st1" d="M11.27,29.51c0,0.45,0,0.9,0,1.36c0,0.34-0.21,0.58-0.52,0.58c-0.31,0-0.53-0.23-0.53-0.57
		c0-0.92,0-1.84,0-2.76c0-0.23,0.09-0.41,0.3-0.5c0.19-0.09,0.39-0.07,0.55,0.07c0.14,0.12,0.19,0.27,0.19,0.45
		C11.27,28.59,11.27,29.05,11.27,29.51z"/>
	<path class="st1" d="M33.88,29.51c0-0.46,0-0.91,0-1.37c0-0.34,0.21-0.56,0.51-0.56c0.31,0,0.53,0.22,0.53,0.55
		c0,0.92,0,1.84,0,2.76c0,0.35-0.22,0.57-0.53,0.57c-0.31-0.01-0.51-0.23-0.51-0.57C33.88,30.42,33.88,29.96,33.88,29.51z"/>
	<path class="st7" d="M37.33,13.88c0.09-0.22,0.22-0.41,0.38-0.57c0.07,0.05,0.09,0.13,0.12,0.2c0.41,1.25,0.82,2.5,1.23,3.75
		c0.02,0.07,0.06,0.14-0.01,0.21c-0.23-0.03-0.44-0.11-0.64-0.23c-0.05-0.06-0.09-0.13-0.11-0.21c-0.31-0.98-0.65-1.96-0.96-2.95
		C37.33,14.01,37.3,13.95,37.33,13.88z"/>
	<path class="st8" d="M39.06,17.46c0.01-0.07-0.01-0.13-0.03-0.19c-0.28-0.86-0.56-1.71-0.85-2.57c-0.15-0.47-0.31-0.94-0.46-1.4
		c0.1-0.12,0.21-0.24,0.35-0.32c0.09,0.09,0.1,0.21,0.13,0.32c0.4,1.23,0.8,2.46,1.21,3.69c0.06,0.17,0.14,0.34,0.13,0.53
		C39.38,17.53,39.22,17.51,39.06,17.46z"/>
	<path class="st9" d="M37.33,13.88c0.24,0.74,0.48,1.47,0.72,2.21c0.12,0.38,0.25,0.77,0.37,1.15C37.15,16.6,36.74,15,37.33,13.88z"
		/>
	<path class="st10" d="M39.54,17.52c-0.26-0.81-0.53-1.62-0.79-2.43c-0.21-0.65-0.43-1.31-0.64-1.96c-0.02-0.05-0.02-0.1-0.04-0.15
		c0.09-0.08,0.18-0.14,0.29-0.19c0.08,0.05,0.09,0.14,0.11,0.22c0.47,1.41,0.93,2.82,1.39,4.24c0.03,0.1,0.08,0.19,0.16,0.25
		C39.86,17.54,39.7,17.53,39.54,17.52z"/>
	<path class="st1" d="M38.17,33.92c0.14,0.07,0.26,0.14,0.31,0.29c0.09,0.26-0.06,0.53-0.34,0.6c-0.29,0.08-0.59,0.03-0.89,0.03
		c-0.1,0-0.14-0.09-0.14-0.18c0-0.45,0-0.89,0-1.34c0-0.11,0.05-0.19,0.17-0.19c0.23,0,0.47-0.02,0.7,0.01
		c0.2,0.02,0.37,0.11,0.42,0.33C38.46,33.68,38.35,33.81,38.17,33.92z"/>
	<path class="st11" d="M40.02,17.49c-0.11,0.02-0.14-0.05-0.17-0.14c-0.38-1.16-0.76-2.33-1.14-3.49c-0.12-0.36-0.24-0.71-0.35-1.07
		c0.08-0.06,0.17-0.1,0.26-0.13c0.05,0.03,0.07,0.08,0.08,0.13c0.48,1.49,0.98,2.97,1.46,4.46c0.02,0.07,0.05,0.14,0,0.21
		C40.11,17.5,40.07,17.49,40.02,17.49z"/>
	<path class="st12" d="M40.66,17.3c-0.07,0.06-0.17,0.07-0.25,0.1c-0.09,0.01-0.09-0.07-0.1-0.12c-0.29-0.88-0.58-1.75-0.86-2.63
		c-0.2-0.61-0.4-1.21-0.6-1.81c-0.03-0.08-0.08-0.17-0.01-0.26c0.07-0.02,0.15-0.04,0.22-0.06c0.05,0.04,0.07,0.11,0.09,0.17
		c0.51,1.52,0.99,3.05,1.51,4.57C40.66,17.27,40.66,17.28,40.66,17.3z"/>
	<path class="st13" d="M38.84,12.58c-0.01,0.09,0.02,0.17,0.05,0.25c0.39,1.17,0.78,2.35,1.16,3.52c0.1,0.3,0.19,0.61,0.29,0.91
		c0.02,0.05,0.02,0.11,0.07,0.14c-0.08,0.05-0.17,0.06-0.26,0.07c-0.01-0.15-0.06-0.29-0.11-0.43c-0.39-1.18-0.78-2.35-1.17-3.53
		c-0.09-0.28-0.18-0.57-0.27-0.85C38.68,12.62,38.76,12.59,38.84,12.58z"/>
	<path class="st14" d="M40.66,17.3c-0.07-0.02-0.07-0.09-0.09-0.14c-0.35-1.05-0.69-2.09-1.04-3.14c-0.15-0.44-0.29-0.89-0.43-1.33
		c-0.02-0.05-0.03-0.11-0.04-0.17c0.05-0.01,0.11-0.02,0.16-0.03c0.24,0.59,0.4,1.2,0.6,1.8c0.31,0.89,0.6,1.79,0.89,2.69
		c0.03,0.09,0.05,0.17,0.07,0.26C40.75,17.27,40.71,17.29,40.66,17.3z"/>
	<path class="st1" d="M42.72,34.4c-0.08,0-0.16,0-0.24,0c-0.04,0-0.09-0.03-0.11,0.03c-0.01,0.04,0.03,0.08,0.06,0.11
		c0.12,0.09,0.25,0.08,0.38,0.03c0.03-0.01,0.07-0.03,0.1-0.05c0.07-0.03,0.14-0.04,0.18,0.03c0.04,0.07,0,0.13-0.05,0.16
		c-0.2,0.15-0.42,0.17-0.65,0.09c-0.2-0.07-0.31-0.23-0.35-0.44c-0.05-0.33,0.18-0.63,0.51-0.67c0.32-0.04,0.58,0.19,0.6,0.52
		c0.01,0.12-0.03,0.18-0.16,0.18C42.9,34.4,42.81,34.4,42.72,34.4z"/>
	<path class="st15" d="M39.45,12.48c0.06,0,0.13,0,0.19,0c0.11,0.42,0.27,0.83,0.4,1.24c0.24,0.74,0.48,1.48,0.73,2.22
		c0.1,0.31,0.2,0.62,0.3,0.94c0.02,0.05,0.03,0.1,0.07,0.14c-0.03,0.06-0.1,0.05-0.14,0.09c-0.08-0.02-0.07-0.09-0.08-0.14
		c-0.46-1.4-0.92-2.8-1.38-4.2C39.51,12.67,39.48,12.58,39.45,12.48z"/>
	<path class="st1" d="M39.84,34.29c0,0.33-0.26,0.57-0.6,0.57c-0.33,0-0.59-0.26-0.58-0.59c0.01-0.32,0.26-0.56,0.59-0.56
		C39.59,33.71,39.85,33.96,39.84,34.29z"/>
	<path class="st12" d="M42.32,21.92c-0.06,0.03-0.12,0.04-0.19,0.03c-0.04-0.03-0.06-0.08-0.07-0.12c-0.36-1.08-0.72-2.16-1.06-3.25
		c-0.02-0.05-0.03-0.1-0.01-0.16c0.06-0.05,0.14-0.08,0.22-0.1c0.37,1.15,0.75,2.29,1.12,3.44C42.34,21.81,42.37,21.87,42.32,21.92z
		"/>
	<path class="st16" d="M41.43,16.76c-0.4-1.21-0.8-2.41-1.2-3.62c-0.06-0.18-0.11-0.35-0.17-0.53c-0.01-0.03-0.06-0.09,0.03-0.11
		c0.04,0,0.09,0,0.13,0.02c0.03,0.05,0.06,0.1,0.07,0.16c0.39,1.15,0.75,2.3,1.14,3.45c0.05,0.16,0.13,0.32,0.12,0.49
		C41.52,16.68,41.48,16.73,41.43,16.76z"/>
	<path class="st9" d="M40.85,21.64c-0.71-0.45-1.04-1.47-0.71-2.21c0.07,0.04,0.09,0.1,0.11,0.17c0.19,0.6,0.4,1.19,0.59,1.79
		C40.87,21.46,40.92,21.55,40.85,21.64z"/>
	<path class="st17" d="M40.72,18.6c0.03-0.05,0.08-0.08,0.13-0.1c0.09,0.02,0.11,0.09,0.13,0.16c0.24,0.82,0.55,1.62,0.79,2.44
		c0.07,0.23,0.14,0.46,0.22,0.68c0.02,0.05,0.05,0.11,0.04,0.17c-0.08,0.03-0.15,0.01-0.23,0c-0.04-0.04-0.07-0.09-0.09-0.15
		c-0.33-1.02-0.67-2.03-1-3.05C40.71,18.71,40.69,18.66,40.72,18.6z"/>
	<path class="st18" d="M40.85,21.64c0-0.06-0.01-0.12-0.03-0.19c-0.21-0.63-0.41-1.25-0.62-1.88c-0.02-0.05-0.04-0.1-0.06-0.14
		c0.02-0.13,0.09-0.24,0.16-0.34c0.07,0.04,0.09,0.12,0.11,0.19c0.25,0.77,0.51,1.54,0.76,2.31c0.03,0.08,0.06,0.16-0.01,0.24
		C41.05,21.77,40.94,21.72,40.85,21.64z"/>
	<path class="st14" d="M42.32,21.92c-0.01-0.11-0.06-0.2-0.09-0.3c-0.28-0.85-0.56-1.7-0.84-2.55c-0.07-0.2-0.13-0.4-0.19-0.6
		c-0.02-0.05-0.04-0.1,0-0.15c0.05-0.03,0.1-0.05,0.16-0.06c0.39,1.15,0.76,2.32,1.15,3.47c0.02,0.04,0.03,0.09,0.01,0.14
		C42.45,21.9,42.39,21.92,42.32,21.92z"/>
	<path class="st1" d="M40.11,33.7c0.1,0,0.14,0.08,0.19,0.14c0.19,0.23,0.19,0.23,0.38,0c0.03-0.04,0.06-0.07,0.1-0.11
		c0.06-0.05,0.12-0.04,0.17,0c0.06,0.05,0.06,0.11,0.02,0.17c-0.08,0.1-0.16,0.2-0.25,0.29c-0.05,0.06-0.05,0.09,0,0.15
		c0.08,0.09,0.15,0.18,0.23,0.26c0.06,0.07,0.07,0.14,0,0.2c-0.07,0.07-0.14,0.05-0.21-0.02c-0.09-0.09-0.15-0.28-0.27-0.27
		c-0.09,0-0.17,0.17-0.25,0.27c-0.06,0.07-0.13,0.09-0.21,0.02c-0.07-0.06-0.05-0.13,0-0.2c0.09-0.12,0.27-0.22,0.26-0.34
		c-0.01-0.12-0.17-0.23-0.26-0.34c-0.04-0.04-0.05-0.09-0.02-0.15C40.02,33.73,40.07,33.71,40.11,33.7z"/>
	<path class="st19" d="M40.39,18.95c0.04-0.08,0.1-0.14,0.16-0.19c0.12,0.01,0.11,0.11,0.14,0.18c0.22,0.65,0.43,1.3,0.64,1.95
		c0.09,0.29,0.19,0.57,0.28,0.86c0.02,0.06,0.06,0.13,0.03,0.2c-0.09-0.01-0.17-0.02-0.25-0.06c-0.11-0.2-0.16-0.43-0.24-0.64
		C40.88,20.49,40.67,19.71,40.39,18.95z"/>
	<path class="st20" d="M41.93,15.99c0,0.09-0.05,0.15-0.1,0.22c-0.09,0-0.1-0.07-0.12-0.13c-0.3-0.92-0.61-1.84-0.91-2.77
		c-0.05-0.15-0.1-0.29-0.14-0.44c-0.02-0.06-0.06-0.12-0.01-0.18c0.1,0.01,0.19,0.06,0.26,0.13c0.32,0.97,0.64,1.95,0.96,2.92
		C41.91,15.82,41.94,15.9,41.93,15.99z"/>
	<path class="st1" d="M41.4,34.36c0-0.06-0.01-0.13,0-0.19c0.01-0.12,0-0.21-0.16-0.18c-0.08,0.01-0.13-0.04-0.13-0.13
		c0-0.08,0.06-0.14,0.14-0.12c0.17,0.03,0.16-0.08,0.16-0.19c0-0.12-0.03-0.29,0.16-0.29c0.19,0,0.16,0.17,0.15,0.29
		c-0.01,0.14,0.02,0.21,0.17,0.18c0.08-0.01,0.15,0.03,0.15,0.12c0,0.1-0.07,0.14-0.16,0.13c-0.16-0.03-0.17,0.05-0.16,0.18
		c0.01,0.16,0,0.33,0,0.49c0,0.1-0.04,0.18-0.15,0.19c-0.12,0.01-0.17-0.08-0.17-0.19C41.4,34.56,41.4,34.46,41.4,34.36z"/>
	<path class="st21" d="M42.51,21.87c-0.28-0.84-0.55-1.67-0.83-2.51c-0.1-0.3-0.2-0.59-0.29-0.89c-0.02-0.07-0.06-0.14-0.03-0.21
		c0.04-0.01,0.09-0.02,0.13-0.03c0.03,0.03,0.04,0.07,0.06,0.11c0.36,1.09,0.72,2.18,1.07,3.27c0.02,0.07,0.06,0.12,0.08,0.19
		C42.65,21.84,42.58,21.86,42.51,21.87z"/>
	<path class="st22" d="M41.65,21.95c-0.28-0.83-0.55-1.67-0.83-2.5c-0.06-0.19-0.13-0.37-0.19-0.56c-0.02-0.05-0.03-0.1-0.08-0.13
		c0.05-0.06,0.1-0.12,0.17-0.16c0.2,0.68,0.44,1.34,0.65,2.01c0.15,0.45,0.29,0.9,0.43,1.35C41.75,21.96,41.7,21.95,41.65,21.95z"/>
	<path class="st23" d="M39.63,25.41c-0.65-0.36-0.92-1.21-0.57-1.83c0.06,0.03,0.08,0.1,0.1,0.16c0.19,0.49,0.34,0.98,0.5,1.47
		C39.69,25.28,39.73,25.36,39.63,25.41z"/>
	<path class="st24" d="M35.32,23.01c-0.03-0.05-0.04-0.1-0.03-0.16c0.19-0.09,0.39-0.08,0.59-0.11c0.78-0.1,1.56-0.19,2.34-0.28
		c0.1-0.01,0.21-0.04,0.31,0c0,0.06,0,0.13,0,0.19c-0.19,0.09-0.39,0.08-0.59,0.1c-0.8,0.1-1.59,0.19-2.39,0.29
		C35.48,23.06,35.4,23.07,35.32,23.01z"/>
	<path class="st25" d="M43.69,33.97c0,0.22,0,0.45,0,0.67c0,0.11-0.03,0.2-0.15,0.21c-0.13,0.01-0.17-0.09-0.17-0.2
		c0-0.45,0-0.89,0-1.34c0-0.11,0.04-0.21,0.17-0.21c0.12,0,0.15,0.1,0.15,0.2C43.69,33.53,43.69,33.75,43.69,33.97z"/>
	<path class="st26" d="M41.74,18.19c0.11-0.03,0.22-0.03,0.33,0c-0.02,0.03-0.05,0.04-0.08,0.05c-0.05,0.06,0,0.12,0.01,0.18
		c0.33,0.99,0.64,1.98,0.98,2.97c0.02,0.07,0.07,0.15,0.04,0.23c-0.02,0.03-0.05,0.05-0.09,0.06c-0.1,0.01-0.11-0.07-0.13-0.13
		c-0.21-0.61-0.42-1.22-0.61-1.84c-0.13-0.44-0.3-0.86-0.43-1.3C41.74,18.33,41.69,18.27,41.74,18.19z"/>
	<path class="st27" d="M40.35,12.57c0.04,0,0.09,0.01,0.12,0.04c0.15,0.32,0.25,0.67,0.35,1.01c0.17,0.55,0.36,1.09,0.54,1.63
		c0.11,0.33,0.2,0.67,0.32,1c0.02,0.05,0.03,0.1,0.03,0.16c0,0.04-0.03,0.07-0.06,0.1c-0.11,0.04-0.12-0.05-0.15-0.11
		c-0.06-0.16-0.1-0.32-0.15-0.49c-0.36-1.04-0.68-2.09-1.03-3.13C40.3,12.71,40.22,12.62,40.35,12.57z"/>
	<path class="st28" d="M43.5,21.13c-0.02,0.07-0.1,0.1-0.13,0.16c-0.12,0.03-0.12-0.08-0.14-0.14c-0.12-0.32-0.21-0.66-0.32-0.98
		c-0.19-0.56-0.38-1.12-0.55-1.68c-0.01-0.05-0.03-0.09-0.03-0.14c0-0.07,0.02-0.12,0.11-0.09c0.04,0,0.09,0,0.12,0.04
		c0.1,0.34,0.22,0.67,0.35,0.99c0.18,0.46,0.27,0.94,0.43,1.4C43.38,20.83,43.46,20.97,43.5,21.13z"/>
	<path class="st29" d="M35.46,21.89c0.03-0.07,0.06-0.14,0.12-0.19c0.07-0.06,0.15-0.07,0.24-0.08c0.66-0.06,1.32-0.15,1.98-0.24
		c0.08-0.01,0.15,0,0.21,0.03c0.06,0.04,0.12,0.09,0.16,0.16c-0.07,0.1-0.19,0.09-0.29,0.1c-0.51,0.05-1.02,0.12-1.53,0.18
		c-0.2,0.03-0.4,0.04-0.6,0.07C35.64,21.95,35.54,21.96,35.46,21.89z"/>
	<path class="st30" d="M39.63,25.41c0.05-0.07,0.01-0.13-0.01-0.19c-0.19-0.54-0.37-1.09-0.56-1.63c0.03-0.12,0.1-0.21,0.19-0.3
		c0.03,0.02,0.04,0.06,0.05,0.09c0.21,0.65,0.44,1.3,0.64,1.96c0.02,0.06,0.06,0.13,0.01,0.2C39.84,25.52,39.73,25.47,39.63,25.41z"
		/>
	<path class="st3" d="M41.74,18.19c0.25,0.76,0.5,1.53,0.75,2.29c0.11,0.35,0.23,0.69,0.35,1.04c0.02,0.06,0.02,0.13,0.09,0.16
		c-0.05,0.05-0.1,0.08-0.17,0.09c-0.07-0.04-0.08-0.11-0.1-0.18c-0.35-1.05-0.69-2.11-1.04-3.16c-0.03-0.07-0.08-0.16,0.02-0.23
		C41.68,18.19,41.71,18.19,41.74,18.19z"/>
	<path class="st8" d="M40.39,18.95c0.08,0.03,0.08,0.11,0.1,0.17c0.25,0.68,0.44,1.39,0.68,2.08c0.08,0.23,0.19,0.45,0.22,0.69
		c-0.08-0.01-0.16-0.04-0.23-0.08c0.01-0.07,0-0.15-0.03-0.22c-0.25-0.76-0.5-1.53-0.75-2.29c-0.02-0.08-0.05-0.15-0.08-0.22
		C40.32,19.03,40.35,18.98,40.39,18.95z"/>
	<path class="st15" d="M41.65,18.2c-0.04,0.05-0.02,0.11,0,0.16c0.29,0.88,0.59,1.76,0.88,2.65c0.08,0.25,0.16,0.5,0.24,0.75
		c-0.02,0.01-0.04,0.02-0.07,0.04c-0.08,0-0.09-0.06-0.11-0.12c-0.36-1.09-0.72-2.19-1.07-3.28c-0.02-0.06-0.04-0.11-0.03-0.17
		C41.54,18.22,41.59,18.21,41.65,18.2z"/>
	<path class="st31" d="M35.46,21.89c0.45-0.01,0.89-0.09,1.34-0.14c0.33-0.04,0.66-0.08,0.99-0.11c0.13-0.01,0.25-0.04,0.37-0.07
		c0.05,0.05,0.09,0.09,0.11,0.16c-0.03,0.08-0.11,0.07-0.18,0.08c-0.43,0.07-0.87,0.1-1.31,0.16c-0.38,0.05-0.77,0.07-1.15,0.14
		c-0.09,0.02-0.18,0.04-0.26-0.03C35.39,22.01,35.42,21.95,35.46,21.89z"/>
	<path class="st32" d="M38.52,22.92c0,0.06,0,0.11-0.04,0.16c-0.16,0.09-0.34,0.08-0.51,0.1c-0.75,0.09-1.49,0.18-2.24,0.27
		c-0.07,0.01-0.14,0.03-0.22,0.05c-0.05-0.05-0.08-0.12-0.1-0.19c0.02-0.1,0.1-0.08,0.16-0.09c0.59-0.08,1.18-0.14,1.77-0.22
		c0.32-0.04,0.63-0.07,0.95-0.11C38.38,22.87,38.46,22.85,38.52,22.92z"/>
	<path class="st19" d="M39.95,25.53c-0.19-0.68-0.44-1.34-0.66-2.02c-0.02-0.08-0.05-0.15-0.05-0.23c0.03-0.06,0.07-0.11,0.13-0.14
		c0.07,0.04,0.08,0.12,0.1,0.19c0.22,0.61,0.41,1.24,0.61,1.86c0.04,0.14,0.08,0.28,0.18,0.4C40.16,25.6,40.06,25.58,39.95,25.53z"
		/>
	<path class="st13" d="M39.54,23.02c0.04-0.03,0.08-0.06,0.13-0.07c0.05,0.03,0.08,0.09,0.1,0.14c0.26,0.78,0.5,1.56,0.77,2.34
		c0.02,0.04,0.03,0.09,0,0.14l0,0c-0.18,0.02-0.22,0.01-0.27-0.15c-0.24-0.74-0.49-1.47-0.73-2.21
		C39.51,23.14,39.49,23.08,39.54,23.02z"/>
	<path class="st33" d="M41.93,15.99c-0.16-0.39-0.28-0.8-0.41-1.2c-0.2-0.6-0.4-1.21-0.59-1.81c-0.02-0.05-0.08-0.1,0-0.16
		c0.07,0.03,0.14,0.07,0.19,0.13c0.3,0.88,0.57,1.78,0.87,2.66c0.02,0.05,0.03,0.1,0.04,0.15C42.01,15.85,41.99,15.92,41.93,15.99z"
		/>
	<path class="st34" d="M35.32,23.01c0.37-0.01,0.73-0.07,1.1-0.12c0.3-0.04,0.6-0.07,0.9-0.11c0.33-0.04,0.67-0.08,1-0.12
		c0.07-0.01,0.15,0,0.22-0.01c0,0.04,0,0.09,0,0.13c-0.07,0.06-0.15,0.07-0.24,0.08c-0.96,0.12-1.92,0.22-2.88,0.35
		c-0.02,0-0.03,0-0.05-0.01C35.34,23.15,35.32,23.08,35.32,23.01z"/>
	<path class="st35" d="M42.04,21.96c-0.13-0.22-0.19-0.46-0.26-0.7c-0.17-0.6-0.39-1.19-0.59-1.78c-0.08-0.24-0.15-0.49-0.22-0.73
		c-0.03-0.09-0.06-0.17-0.12-0.24c0.04-0.04,0.08-0.07,0.13-0.09c0.25,0.75,0.49,1.5,0.74,2.25c0.12,0.37,0.24,0.73,0.37,1.1
		c0.02,0.06,0.03,0.12,0.05,0.18C42.1,21.96,42.07,21.96,42.04,21.96z"/>
	<path class="st36" d="M42.03,15.76c-0.06-0.03-0.06-0.1-0.08-0.15c-0.28-0.84-0.56-1.68-0.83-2.52c-0.01-0.04-0.07-0.09,0-0.14
		c0.08,0.03,0.14,0.09,0.19,0.15c0.09,0.14,0.14,0.3,0.18,0.45c0.16,0.55,0.36,1.1,0.54,1.64c0.03,0.1,0.06,0.2,0.07,0.31
		C42.09,15.6,42.06,15.68,42.03,15.76z"/>
	<path class="st37" d="M39.54,23.02c0.02,0.23,0.12,0.45,0.19,0.67c0.18,0.57,0.38,1.13,0.56,1.7c0.04,0.13,0.1,0.19,0.24,0.17
		c-0.08,0.04-0.17,0.03-0.26,0.02c-0.09-0.02-0.12-0.09-0.15-0.17c-0.24-0.76-0.49-1.52-0.74-2.27
		C39.43,23.1,39.48,23.05,39.54,23.02z"/>
	<path class="st38" d="M38,21.42c-0.29,0.03-0.58,0.06-0.88,0.1c-0.45,0.05-0.9,0.1-1.34,0.16c-0.07,0.01-0.14,0.02-0.2,0.03
		c0.06-0.1,0.13-0.19,0.23-0.26c0.32-0.08,0.65-0.09,0.97-0.13c0.21-0.03,0.43-0.05,0.65-0.08c0.11-0.01,0.22-0.01,0.33,0
		C37.84,21.28,37.93,21.34,38,21.42z"/>
	<path class="st39" d="M35.29,22.79c-0.03-0.06-0.01-0.13,0-0.19c0.12-0.11,0.28-0.08,0.43-0.09c0.65-0.07,1.3-0.17,1.96-0.23
		c0.21-0.02,0.42-0.05,0.63-0.07c0.06-0.01,0.13-0.02,0.19,0.01c0.04,0.04,0.03,0.08,0.03,0.13c-0.17,0.11-0.38,0.09-0.57,0.12
		c-0.31,0.04-0.63,0.08-0.94,0.11c-0.23,0.02-0.46,0.06-0.69,0.08c-0.22,0.02-0.43,0.05-0.64,0.08
		C35.55,22.75,35.42,22.74,35.29,22.79z"/>
	<path class="st40" d="M35.52,23.49c0.01-0.07,0.07-0.08,0.13-0.09c0.58-0.07,1.16-0.13,1.74-0.19c0.37-0.04,0.73-0.1,1.1-0.13
		c-0.05,0.05,0,0.14-0.06,0.19c-0.35,0.07-0.71,0.08-1.06,0.13c-0.5,0.07-1,0.11-1.5,0.18c-0.09,0.01-0.19,0.03-0.29,0.01
		C35.55,23.56,35.53,23.53,35.52,23.49z"/>
	<path class="st41" d="M43.68,20.77c-0.03,0.06-0.06,0.13-0.09,0.19c-0.1,0.03-0.11-0.06-0.13-0.11c-0.07-0.19-0.12-0.38-0.18-0.57
		c-0.18-0.55-0.37-1.09-0.55-1.64c-0.03-0.09-0.09-0.19-0.03-0.29c0.09,0.02,0.16,0.06,0.23,0.12c0.04,0.05,0.05,0.1,0.07,0.16
		c0.17,0.65,0.42,1.27,0.62,1.9C43.64,20.61,43.66,20.69,43.68,20.77z"/>
	<path class="st42" d="M42.7,18.35c0.06,0.35,0.21,0.68,0.31,1.01c0.16,0.49,0.32,0.97,0.48,1.46c0.02,0.06,0.02,0.13,0.1,0.15
		c-0.02,0.06-0.05,0.11-0.1,0.16c-0.11-0.09-0.14-0.23-0.18-0.35c-0.19-0.51-0.29-1.04-0.49-1.55c-0.1-0.25-0.19-0.49-0.27-0.75
		c-0.02-0.06-0.06-0.13-0.02-0.19C42.59,18.33,42.66,18.29,42.7,18.35z"/>
	<path class="st43" d="M40.15,22.79c0.05,0,0.11,0,0.16,0c0.1,0.09,0.12,0.22,0.16,0.34c0.16,0.44,0.29,0.89,0.46,1.32
		c0.08,0.2,0.07,0.42,0.17,0.61c0.04,0.07,0.07,0.14,0.1,0.22c-0.05,0.06-0.12,0.1-0.19,0.13c-0.06-0.03-0.07-0.09-0.09-0.15
		c-0.28-0.77-0.5-1.57-0.77-2.35C40.13,22.87,40.11,22.83,40.15,22.79z"/>
	<path class="st44" d="M35.29,22.79c0.08-0.07,0.16-0.1,0.27-0.08c0.1,0.01,0.22-0.02,0.33-0.03c0.25-0.04,0.5-0.05,0.75-0.09
		c0.13-0.02,0.26-0.01,0.39-0.06c0.1-0.04,0.23-0.03,0.35-0.05c0.15-0.03,0.31-0.05,0.46-0.05c0.23-0.01,0.45-0.08,0.67-0.08
		c0.03,0.04,0.03,0.08,0.02,0.13c-0.23,0.03-0.47,0.07-0.7,0.09c-0.42,0.05-0.85,0.11-1.27,0.15c-0.43,0.04-0.85,0.12-1.27,0.14
		C35.29,22.83,35.29,22.81,35.29,22.79z"/>
	<path class="st45" d="M32.93,19.34c0.07-0.04,0.14-0.06,0.22-0.06c0.04,0.03,0.07,0.08,0.08,0.13c0.17,0.54,0.37,1.06,0.54,1.6
		c0.02,0.05,0.04,0.1,0.01,0.15c-0.06,0.05-0.12,0.07-0.19,0.09c-0.07-0.08-0.11-0.18-0.14-0.28c-0.17-0.49-0.33-0.98-0.5-1.47
		C32.93,19.44,32.91,19.39,32.93,19.34z"/>
	<path class="st46" d="M40.79,25.51c-0.03,0.03-0.06,0.03-0.09,0.03c-0.09,0-0.11-0.08-0.13-0.14c-0.17-0.52-0.37-1.03-0.5-1.56
		c-0.06-0.25-0.19-0.48-0.26-0.74c-0.02-0.07-0.06-0.14-0.01-0.21c0.04-0.03,0.08-0.04,0.13-0.04c0.07,0.03,0.08,0.09,0.1,0.15
		c0.27,0.77,0.51,1.55,0.76,2.33C40.81,25.38,40.83,25.45,40.79,25.51z"/>
	<path class="st47" d="M35.28,22.5c0.02-0.07,0-0.14,0.04-0.2c0.56-0.06,1.12-0.13,1.67-0.19c0.39-0.05,0.79-0.09,1.18-0.15
		c0.07-0.01,0.15-0.02,0.22-0.01c0.04,0.05,0.06,0.1,0.07,0.17c-0.16,0.1-0.34,0.08-0.51,0.1c-0.84,0.08-1.68,0.22-2.52,0.29
		C35.38,22.51,35.33,22.53,35.28,22.5z"/>
	<path class="st48" d="M41.97,18.2c0.03,0,0.07-0.01,0.1-0.01c0.01-0.01,0.02,0,0.02,0c0.07,0.04,0.09,0.1,0.11,0.17
		c0.31,0.97,0.63,1.94,0.95,2.9c0.02,0.06,0.05,0.12,0.04,0.19c0.01,0.06-0.06,0.06-0.08,0.09c-0.12,0.03-0.1-0.08-0.12-0.13
		c-0.2-0.58-0.38-1.17-0.58-1.75c-0.14-0.43-0.28-0.86-0.42-1.28C41.98,18.32,41.94,18.26,41.97,18.2z"/>
	<path class="st49" d="M35.58,23.58c0.18-0.09,0.38-0.05,0.57-0.09c0.39-0.06,0.78-0.08,1.17-0.14c0.31-0.05,0.63-0.06,0.94-0.12
		c0.06-0.01,0.12-0.03,0.16,0.03c-0.01,0.05-0.02,0.09-0.06,0.13c-0.21,0.06-0.42,0.06-0.64,0.09c-0.32,0.04-0.65,0.08-0.97,0.12
		c-0.22,0.02-0.45,0.06-0.67,0.07c-0.14,0.01-0.27,0.05-0.41,0.03C35.64,23.67,35.61,23.63,35.58,23.58z"/>
	<path class="st50" d="M40.66,12.7c0.25,0.76,0.5,1.53,0.75,2.29c0.11,0.35,0.23,0.71,0.34,1.06c0.02,0.06,0.02,0.13,0.09,0.16
		c-0.01,0.04-0.02,0.07-0.06,0.1c-0.12,0.03-0.11-0.08-0.13-0.13c-0.16-0.45-0.29-0.91-0.44-1.35c-0.23-0.67-0.43-1.35-0.66-2.02
		c-0.02-0.05-0.06-0.11-0.02-0.16C40.57,12.67,40.63,12.65,40.66,12.7z"/>
	<path class="st51" d="M35.38,22.08c0.24,0.02,0.46-0.06,0.69-0.07c0.35-0.02,0.69-0.09,1.04-0.12c0.29-0.02,0.58-0.07,0.86-0.11
		c0.1-0.02,0.2,0.01,0.3-0.05c0.03,0.02,0.05,0.05,0.06,0.09c0,0.1-0.08,0.1-0.15,0.11c-0.73,0.09-1.47,0.18-2.2,0.26
		c-0.15,0.02-0.31,0.04-0.46,0.05c-0.06,0.01-0.15,0.03-0.17-0.08C35.35,22.14,35.35,22.11,35.38,22.08z"/>
	<path class="st52" d="M35.35,22.17c0.15,0.1,0.31,0,0.46-0.01c0.32-0.02,0.65-0.07,0.97-0.11C37.19,22,37.6,21.95,38,21.9
		c0.11-0.02,0.24,0.04,0.33-0.07c0.04,0.03,0.06,0.08,0.07,0.13c-0.08,0.08-0.19,0.05-0.29,0.06c-0.21,0.04-0.44,0.03-0.65,0.08
		c-0.32,0.07-0.64,0.06-0.96,0.13c-0.17,0.04-0.36,0.04-0.55,0.06c-0.17,0.02-0.34,0.04-0.51,0.06c-0.05,0.01-0.1,0.01-0.13-0.03
		C35.32,22.26,35.32,22.21,35.35,22.17z"/>
	<path class="st53" d="M35.38,23.2c0.11-0.12,0.26-0.07,0.39-0.09c0.4-0.06,0.8-0.09,1.21-0.14c0.39-0.05,0.78-0.1,1.17-0.15
		c0.13-0.02,0.26-0.03,0.39-0.04c0,0.04,0.01,0.09-0.02,0.13c-0.34,0-0.67,0.08-1.01,0.11c-0.32,0.03-0.63,0.07-0.94,0.12
		c-0.38,0.05-0.77,0.07-1.15,0.16C35.39,23.27,35.38,23.24,35.38,23.2z"/>
	<path class="st54" d="M34.11,20.88c-0.03,0.06-0.07,0.12-0.13,0.15c-0.09,0.04-0.1-0.04-0.12-0.08c-0.04-0.1-0.07-0.2-0.1-0.3
		c-0.12-0.39-0.27-0.77-0.4-1.15c-0.02-0.05-0.04-0.1-0.04-0.15c0-0.06,0.01-0.1,0.08-0.06c0.06,0,0.11-0.01,0.16,0.03
		c0.05,0.04,0.07,0.1,0.09,0.16c0.14,0.43,0.29,0.86,0.45,1.29C34.12,20.8,34.14,20.84,34.11,20.88z"/>
	<path class="st55" d="M33.41,19.28c-0.05,0.01-0.06,0.03-0.05,0.07c0.19,0.55,0.37,1.09,0.56,1.64c0.01,0.03,0.03,0.04,0.06,0.04
		c-0.05,0.06-0.11,0.11-0.19,0.13c-0.21-0.63-0.43-1.26-0.64-1.88C33.24,19.25,33.32,19.24,33.41,19.28z"/>
	<path class="st56" d="M35.28,22.5c0.32-0.07,0.65-0.08,0.98-0.13c0.35-0.05,0.71-0.09,1.06-0.13c0.38-0.04,0.76-0.08,1.14-0.13
		c0.03,0.03,0.03,0.06,0.03,0.1c-0.28,0.04-0.55,0.07-0.83,0.11c-0.42,0.05-0.85,0.1-1.27,0.15c-0.37,0.04-0.74,0.09-1.11,0.13
		C35.27,22.56,35.24,22.53,35.28,22.5z"/>
	<path class="st57" d="M32.93,19.34c0.08,0.22,0.17,0.43,0.24,0.65c0.13,0.37,0.23,0.76,0.39,1.12c0.02,0.04,0.02,0.09,0.03,0.14
		c-0.06,0.03-0.12,0.05-0.19,0.04c-0.06-0.05-0.07-0.13-0.09-0.2c-0.18-0.55-0.37-1.1-0.57-1.65
		C32.79,19.38,32.85,19.35,32.93,19.34z"/>
	<path class="st58" d="M39.8,22.89c0,0.08,0.04,0.15,0.06,0.23c0.23,0.71,0.47,1.42,0.7,2.14c0.03,0.1,0.07,0.2,0.13,0.28
		c-0.05,0.04-0.11,0.03-0.16,0.03c-0.14-0.43-0.28-0.86-0.43-1.29c-0.12-0.34-0.22-0.69-0.33-1.04c-0.03-0.1-0.07-0.19-0.1-0.28
		C39.7,22.92,39.75,22.89,39.8,22.89z"/>
	<path class="st59" d="M42.09,15.51c-0.17-0.5-0.34-0.99-0.51-1.49c-0.1-0.3-0.19-0.61-0.28-0.92c0.09,0.08,0.2,0.15,0.25,0.27
		c0.21,0.54,0.37,1.1,0.55,1.62c-0.02-0.07-0.04-0.16,0.03-0.25C42.18,15,42.15,15.25,42.09,15.51z"/>
	<path class="st60" d="M40.35,12.57c-0.07,0.05-0.02,0.11,0,0.16c0.35,1.08,0.71,2.15,1.07,3.23c0.05,0.15,0.09,0.29,0.14,0.44
		c0.02,0.06,0.04,0.1,0.1,0.1c-0.02,0.05-0.05,0.09-0.1,0.13c-0.15-0.46-0.31-0.91-0.46-1.37c-0.28-0.86-0.57-1.72-0.85-2.58
		c-0.02-0.05-0.04-0.1-0.03-0.15C40.26,12.54,40.31,12.53,40.35,12.57z"/>
	<path class="st61" d="M35.68,23.71c0.11-0.09,0.26-0.05,0.39-0.08c0.15-0.04,0.32-0.04,0.48-0.05c0.13-0.01,0.26-0.07,0.39-0.03
		c0.09,0.02,0.17-0.03,0.26-0.04c0.13-0.02,0.27-0.01,0.41-0.05c0.1-0.03,0.23-0.04,0.33-0.04c0.15,0.01,0.29-0.08,0.44-0.02
		c-0.02,0.06-0.05,0.12-0.1,0.16c-0.82,0.07-1.64,0.2-2.46,0.28C35.75,23.81,35.7,23.77,35.68,23.71z"/>
	<path class="st62" d="M40.79,25.51c-0.01-0.12-0.06-0.22-0.1-0.33c-0.26-0.78-0.51-1.55-0.77-2.32c0.04-0.03,0.08-0.03,0.13-0.03
		c0.07,0.04,0.08,0.11,0.1,0.18c0.13,0.38,0.28,0.76,0.38,1.15c0.12,0.44,0.3,0.86,0.42,1.3C40.9,25.46,40.84,25.48,40.79,25.51z"/>
	<path class="st18" d="M37.04,25.55c0.03-0.09,0.08-0.16,0.15-0.22c0.08-0.01,0.08,0.05,0.1,0.1c0.14,0.44,0.28,0.88,0.43,1.31
		c0.01,0.04,0.03,0.08-0.01,0.12c-0.1,0-0.2-0.04-0.29-0.09c-0.14-0.37-0.26-0.75-0.39-1.13C37.03,25.62,37.03,25.58,37.04,25.55z"
		/>
	<path class="st63" d="M42.43,18.25c-0.13,0.03-0.06,0.11-0.04,0.17c0.22,0.67,0.44,1.34,0.66,2.01c0.08,0.24,0.15,0.48,0.23,0.72
		c0.02,0.05,0.02,0.12,0.1,0.13c-0.01,0.05-0.05,0.07-0.08,0.1c-0.11,0.01-0.11-0.08-0.13-0.15c-0.08-0.26-0.15-0.53-0.24-0.79
		c-0.14-0.38-0.27-0.76-0.39-1.14c-0.1-0.31-0.18-0.62-0.29-0.93c-0.02-0.05-0.1-0.17,0.07-0.16
		C42.34,18.22,42.39,18.22,42.43,18.25z"/>
	<path class="st15" d="M40.95,25.44c-0.01-0.01-0.03-0.01-0.04-0.03c-0.12-0.35-0.27-0.68-0.36-1.04c-0.04-0.14-0.08-0.28-0.13-0.42
		c-0.12-0.38-0.25-0.75-0.37-1.13c0.03-0.03,0.06-0.03,0.1-0.02c0.29,0.87,0.58,1.74,0.86,2.61C41,25.43,40.98,25.44,40.95,25.44z"
		/>
	<path class="st64" d="M42.13,14.74c0,0.11,0,0.22,0,0.35c-0.08-0.04-0.08-0.11-0.1-0.16c-0.17-0.48-0.33-0.97-0.5-1.45
		c-0.01-0.04-0.03-0.07,0.01-0.1c0.3,0.3,0.45,0.67,0.54,1.07C42.12,14.54,42.14,14.63,42.13,14.74z"/>
	<path class="st65" d="M33.79,19.39c0.45,0.23,0.65,0.79,0.45,1.26c-0.08,0.02-0.1-0.05-0.12-0.1c-0.14-0.33-0.25-0.68-0.35-1.02
		C33.76,19.48,33.75,19.43,33.79,19.39z"/>
	<path class="st66" d="M43.81,20.2c0,0.13-0.03,0.26-0.07,0.38c-0.08,0.04-0.09-0.03-0.11-0.08c-0.19-0.61-0.41-1.21-0.6-1.82
		c-0.01-0.04-0.04-0.1,0.04-0.11c0.09,0.06,0.17,0.13,0.24,0.22c0.08,0.32,0.2,0.62,0.31,0.93C43.69,19.88,43.7,20.06,43.81,20.2z"
		/>
	<path class="st67" d="M43.08,18.58c-0.04,0.03-0.01,0.07,0,0.1c0.2,0.6,0.39,1.2,0.59,1.8c0.01,0.04,0.01,0.1,0.08,0.11
		c-0.02,0.06-0.04,0.13-0.06,0.19c-0.04-0.02-0.05-0.06-0.06-0.11c-0.19-0.56-0.39-1.11-0.56-1.67c-0.05-0.17-0.13-0.35-0.13-0.53
		C42.99,18.49,43.04,18.53,43.08,18.58z"/>
	<path class="st68" d="M41.2,25.28c-0.08,0-0.08-0.06-0.11-0.11c-0.1-0.22-0.13-0.46-0.2-0.68c-0.09-0.3-0.21-0.6-0.32-0.9
		c-0.09-0.26-0.18-0.53-0.27-0.8c0.04,0,0.09,0,0.13,0c0.06,0.04,0.08,0.11,0.1,0.18c0.24,0.7,0.46,1.4,0.69,2.1
		c0.02,0.06,0.05,0.12,0.01,0.18C41.22,25.26,41.21,25.27,41.2,25.28z"/>
	<path class="st69" d="M37.72,26.87c-0.15-0.47-0.3-0.94-0.46-1.41c-0.01-0.04-0.02-0.1-0.06-0.12c0.05-0.07,0.11-0.13,0.2-0.16
		c0.14,0.5,0.33,0.98,0.47,1.48c0.02,0.07,0.07,0.14,0.01,0.21C37.83,26.87,37.77,26.87,37.72,26.87z"/>
	<path class="st70" d="M41.23,25.25c-0.27-0.82-0.53-1.64-0.8-2.46c0.06,0,0.11-0.01,0.17,0.02c0.25,0.72,0.47,1.45,0.71,2.17
		c0.02,0.06,0.04,0.11,0.02,0.17C41.31,25.2,41.28,25.23,41.23,25.25z"/>
	<path class="st50" d="M40.53,12.64c0.29,0.89,0.58,1.78,0.88,2.67c0.09,0.29,0.18,0.58,0.28,0.86c0.02,0.05,0.01,0.12,0.09,0.13
		c0,0.05-0.05,0.06-0.07,0.09c-0.12-0.19-0.17-0.41-0.23-0.62c-0.12-0.44-0.28-0.86-0.42-1.3c-0.18-0.57-0.37-1.14-0.56-1.71
		c-0.02-0.06-0.04-0.11-0.03-0.17C40.49,12.62,40.51,12.63,40.53,12.64z"/>
	<path class="st71" d="M32.43,19.76c0.03-0.06,0.06-0.12,0.12-0.16c0.08,0,0.09,0.07,0.11,0.12c0.15,0.46,0.33,0.91,0.47,1.37
		c0.02,0.07,0.09,0.17-0.07,0.17c-0.07,0-0.13-0.02-0.19-0.07c0.01-0.08-0.01-0.16-0.04-0.23c-0.12-0.34-0.22-0.69-0.35-1.03
		C32.45,19.87,32.43,19.82,32.43,19.76z"/>
	<path class="st72" d="M36.06,24.03c-0.07-0.02-0.12-0.06-0.17-0.12c-0.01-0.08,0.06-0.08,0.11-0.08c0.55-0.05,1.1-0.14,1.65-0.19
		c0.13-0.01,0.26-0.04,0.39-0.05c0.06-0.01,0.13-0.03,0.15,0.06c-0.03,0.05-0.06,0.1-0.12,0.13c-0.34,0.07-0.7,0.08-1.04,0.13
		C36.71,23.96,36.39,23.99,36.06,24.03z"/>
	<path class="st68" d="M41.97,18.2c0.31,0.94,0.62,1.88,0.92,2.82c0.04,0.14,0.09,0.27,0.14,0.41c0.02,0.04,0.01,0.11,0.08,0.12
		c-0.01,0.04-0.05,0.05-0.08,0.07c-0.29-0.87-0.58-1.74-0.87-2.61c-0.08-0.23-0.15-0.46-0.23-0.69
		C41.91,18.26,41.87,18.2,41.97,18.2z"/>
	<path class="st9" d="M37.04,25.55c0.12,0.33,0.23,0.67,0.35,1c0.02,0.07,0.04,0.14,0.04,0.22C36.98,26.55,36.8,25.99,37.04,25.55z"
		/>
	<path class="st73" d="M32.74,19.44c0.06,0,0.07,0.05,0.09,0.1c0.19,0.56,0.38,1.12,0.57,1.69c0.01,0.02,0,0.04,0.01,0.06
		c-0.04,0-0.08,0.02-0.13,0c-0.03-0.03-0.06-0.06-0.07-0.1c-0.18-0.53-0.37-1.06-0.54-1.59c-0.01-0.04-0.02-0.07,0-0.11
		C32.69,19.46,32.71,19.44,32.74,19.44z"/>
	<path class="st74" d="M33.79,19.39c0.05,0.29,0.15,0.57,0.26,0.85c0.06,0.14,0.07,0.3,0.19,0.41c-0.02,0.09-0.06,0.17-0.13,0.23
		c-0.2-0.52-0.38-1.04-0.55-1.58C33.65,19.31,33.73,19.34,33.79,19.39z"/>
	<path class="st75" d="M41.52,24.93c-0.01,0.06-0.07,0.08-0.1,0.13c-0.08-0.01-0.09-0.08-0.11-0.14c-0.22-0.63-0.41-1.27-0.62-1.9
		c-0.02-0.06-0.08-0.14,0.04-0.17c0.03,0,0.07,0,0.09,0.03c0.11,0.2,0.18,0.42,0.24,0.64C41.2,23.99,41.37,24.45,41.52,24.93z"/>
	<path class="st76" d="M37.75,21.23c-0.29,0.04-0.58,0.08-0.87,0.12c-0.33,0.04-0.67,0.08-1,0.12c-0.03,0-0.05,0-0.07-0.03
		c0.04-0.06,0.09-0.1,0.16-0.13c0.17-0.1,0.36-0.1,0.55-0.12c0.28-0.03,0.55-0.07,0.83-0.09c0.06,0,0.12,0,0.18,0.02
		C37.62,21.13,37.67,21.21,37.75,21.23z"/>
	<path class="st77" d="M38.2,23.65c-0.1-0.08-0.2,0-0.3,0.01c-0.4,0.03-0.79,0.1-1.19,0.14c-0.22,0.03-0.45,0.05-0.67,0.07
		c-0.05,0.01-0.11-0.01-0.14,0.04c-0.04-0.01-0.07-0.04-0.09-0.07c0.1-0.13,0.26-0.07,0.39-0.08c0.34-0.04,0.68-0.1,1.03-0.13
		c0.29-0.03,0.58-0.06,0.87-0.1c0.06-0.01,0.13-0.03,0.18,0.04C38.25,23.6,38.23,23.63,38.2,23.65z"/>
	<path class="st78" d="M36.06,24.03c0.09-0.12,0.24-0.07,0.35-0.08c0.34-0.04,0.68-0.1,1.03-0.13c0.21-0.02,0.42-0.07,0.64-0.04
		c-0.05,0.06-0.1,0.12-0.17,0.15c-0.51,0.09-1.03,0.13-1.55,0.2c-0.05,0.01-0.1-0.01-0.14-0.01C36.16,24.1,36.11,24.07,36.06,24.03z
		"/>
	<path class="st64" d="M43.81,20.2c-0.05,0.03-0.07,0-0.09-0.05c-0.14-0.4-0.28-0.8-0.41-1.2c-0.02-0.05-0.04-0.11,0-0.16
		c0.18,0.19,0.32,0.41,0.4,0.66C43.8,19.7,43.84,19.95,43.81,20.2z"/>
	<path class="st79" d="M32.67,19.49c0.2,0.6,0.41,1.2,0.61,1.8c-0.08,0-0.16,0.01-0.23-0.03c0.06-0.01,0.08-0.04,0.06-0.1
		c-0.18-0.51-0.35-1.02-0.53-1.52c0-0.01-0.02-0.02-0.03-0.04C32.58,19.55,32.62,19.51,32.67,19.49z"/>
	<path class="st80" d="M37.88,26.87c-0.13-0.5-0.3-0.99-0.47-1.48c-0.02-0.07-0.07-0.14-0.01-0.21c0.03-0.02,0.06-0.04,0.1-0.05
		c0.06,0.08,0.07,0.18,0.1,0.27c0.16,0.48,0.33,0.97,0.48,1.45C38.02,26.88,37.95,26.88,37.88,26.87z"/>
	<path class="st81" d="M32.43,19.76c0.09,0.08,0.1,0.2,0.13,0.3c0.12,0.34,0.23,0.68,0.34,1.02c0.02,0.05,0.05,0.1-0.04,0.12
		c-0.06-0.01-0.12-0.05-0.16-0.1c-0.13-0.37-0.27-0.74-0.37-1.12C32.35,19.9,32.37,19.82,32.43,19.76z"/>
	<path class="st82" d="M40.73,22.85c-0.05,0.03-0.03,0.07-0.02,0.11c0.22,0.67,0.44,1.34,0.66,2.01c0.01,0.03,0.03,0.05,0.05,0.08
		c-0.01,0.05-0.05,0.08-0.09,0.11c-0.25-0.75-0.5-1.51-0.75-2.26c-0.01-0.03-0.02-0.06,0.02-0.08
		C40.65,22.82,40.69,22.81,40.73,22.85z"/>
	<path class="st83" d="M10.6,25.88c0.1-0.04,0.2-0.04,0.3,0c-0.03,0.06-0.05,0.11-0.05,0.18c0,0.25,0,0.51,0,0.76
		c0,0.07,0.02,0.12,0.05,0.18c-0.1,0.04-0.19,0.05-0.29,0C10.52,26.63,10.52,26.25,10.6,25.88z"/>
	<path class="st84" d="M34.93,23.23c0,0.04,0,0.09,0,0.13c-0.18,0.11-0.39,0.08-0.59,0.11c-0.42,0.06-0.84,0.1-1.26,0.16
		c-0.07,0.01-0.15,0.01-0.22,0c-0.03-0.04-0.03-0.08-0.03-0.13c0.14-0.09,0.29-0.08,0.44-0.09c0.53-0.06,1.06-0.15,1.6-0.18
		C34.9,23.22,34.92,23.22,34.93,23.23z"/>
	<path class="st85" d="M37.53,21.13c-0.52,0.06-1.05,0.13-1.57,0.19C36.45,20.97,36.97,20.9,37.53,21.13z"/>
	<path class="st86" d="M34.34,22.4c0.1,0.03,0.18,0.08,0.24,0.16c-0.17,0.09-0.36,0.07-0.54,0.1c-0.27,0.04-0.54,0.06-0.81,0.1
		c-0.07,0.01-0.15,0.02-0.21-0.04c0.04-0.08,0.11-0.15,0.19-0.19c0.33-0.07,0.67-0.08,1.01-0.14C34.26,22.38,34.3,22.38,34.34,22.4z
		"/>
	<path class="st87" d="M32.89,22.98c0-0.04,0.01-0.07,0.04-0.09c0.05-0.04,0.11-0.07,0.18-0.08c0.46-0.05,0.92-0.11,1.38-0.16
		c0.06-0.01,0.13-0.02,0.18,0.02c0.03,0.02,0.06,0.05,0.07,0.09c0,0.08-0.06,0.07-0.11,0.08c-0.52,0.07-1.04,0.12-1.55,0.19
		C33.02,23.03,32.95,23.03,32.89,22.98z"/>
	<path class="st88" d="M33.02,18.89c-0.01,0.05-0.05,0.08-0.08,0.11c-0.06,0.03-0.09,0-0.11-0.05c-0.12-0.33-0.24-0.67-0.33-1.01
		c-0.01-0.02,0-0.04,0.02-0.06c0.08-0.01,0.16,0.01,0.23,0.05c0.13,0.25,0.2,0.53,0.31,0.79C33.07,18.78,33.05,18.84,33.02,18.89z"
		/>
	<path class="st89" d="M34.68,22.66c-0.54,0.06-1.08,0.13-1.61,0.19c-0.05,0.01-0.09,0.02-0.14,0.03c0.01-0.06,0.05-0.12,0.1-0.16
		c0.36-0.01,0.71-0.08,1.07-0.12c0.16-0.02,0.32-0.06,0.49-0.04C34.61,22.61,34.67,22.6,34.68,22.66z"/>
	<path class="st42" d="M41.52,24.93c-0.06,0-0.06-0.05-0.07-0.09c-0.21-0.63-0.41-1.25-0.62-1.88c-0.01-0.02,0-0.05-0.01-0.08
		c0.04,0.06,0.12,0.02,0.16,0.07c0.16,0.57,0.36,1.12,0.54,1.68c0.02,0.07,0.05,0.13,0.05,0.2C41.56,24.86,41.54,24.89,41.52,24.93z
		"/>
	<path class="st90" d="M41.08,23.01c0.05,0.01,0.09,0.05,0.12,0.09c0.14,0.28,0.21,0.59,0.31,0.88c0.07,0.19,0.15,0.38,0.15,0.6
		c-0.01,0.03-0.02,0.06-0.03,0.1c-0.09,0-0.13-0.06-0.15-0.13c-0.14-0.46-0.31-0.91-0.45-1.37C41.03,23.11,40.96,23.03,41.08,23.01z
		"/>
	<path class="st91" d="M32.55,21.79c0.04,0.05,0.03,0.11,0.03,0.16c-0.09,0.07-0.2,0.06-0.3,0.08c-0.41,0.05-0.82,0.09-1.23,0.15
		c-0.04-0.05-0.03-0.11-0.02-0.16c0.02-0.05,0.06-0.07,0.11-0.07c0.45-0.05,0.9-0.11,1.35-0.16C32.51,21.78,32.53,21.79,32.55,21.79
		z"/>
	<path class="st92" d="M34.91,23.56c0,0.04,0,0.09-0.03,0.13c-0.57,0.05-1.13,0.13-1.7,0.19c-0.08,0.01-0.17,0.02-0.24-0.04
		c0-0.01,0-0.02,0-0.03c-0.03-0.11,0.05-0.1,0.11-0.1c0.25-0.04,0.49-0.06,0.74-0.09c0.34-0.04,0.68-0.09,1.03-0.12
		c0.03,0,0.06,0,0.09,0.01C34.92,23.52,34.92,23.54,34.91,23.56z"/>
	<path class="st93" d="M38.08,26.84c-0.06-0.02-0.07-0.08-0.08-0.13c-0.16-0.47-0.31-0.94-0.47-1.4c-0.02-0.06-0.03-0.12-0.03-0.19
		c0.03-0.01,0.06-0.02,0.1-0.03c0.03,0.03,0.05,0.07,0.06,0.11c0.18,0.54,0.35,1.07,0.52,1.61C38.15,26.85,38.11,26.84,38.08,26.84z
		"/>
	<path class="st94" d="M34.91,23.56c0-0.01,0-0.02-0.01-0.03c-0.12-0.06-0.24-0.01-0.36,0.01c-0.49,0.06-0.98,0.11-1.47,0.18
		c-0.06,0.01-0.13,0-0.19,0.01c-0.03-0.03-0.03-0.06-0.03-0.1c0.11-0.07,0.23-0.05,0.35-0.06c0.43-0.06,0.85-0.11,1.28-0.16
		c0.15-0.02,0.29-0.03,0.44-0.04C34.94,23.43,34.95,23.5,34.91,23.56z"/>
	<path class="st95" d="M32.33,19.98c0.04,0.02,0.05,0.06,0.06,0.1c0.1,0.29,0.2,0.58,0.3,0.87c0.01,0.04,0.07,0.09,0.01,0.14
		C32.34,20.84,32.2,20.41,32.33,19.98z"/>
	<path class="st96" d="M32.61,19.17c-0.03,0-0.06,0-0.1,0.01c-0.06-0.05-0.08-0.12-0.1-0.19c-0.1-0.33-0.23-0.64-0.35-0.96
		c0.04-0.05,0.09-0.09,0.16-0.1c0.08-0.01,0.09,0.06,0.11,0.11c0.12,0.32,0.22,0.65,0.33,0.97C32.67,19.07,32.69,19.13,32.61,19.17z
		"/>
	<path class="st47" d="M34.84,22.91c0.03,0.03,0.04,0.06,0.04,0.1c-0.16,0.12-0.35,0.08-0.52,0.1c-0.42,0.06-0.84,0.1-1.26,0.16
		c-0.09,0.01-0.18,0.03-0.27,0c0-0.03,0-0.06,0.01-0.1c0.12-0.12,0.28-0.08,0.42-0.1c0.41-0.05,0.83-0.1,1.24-0.15
		C34.61,22.9,34.73,22.88,34.84,22.91z"/>
	<path class="st97" d="M32.61,19.17c0.02-0.04,0.03-0.07,0.02-0.12c-0.13-0.36-0.25-0.72-0.37-1.08c-0.01-0.02-0.03-0.03-0.04-0.05
		c0.05-0.04,0.11-0.05,0.17-0.05c0.05,0.04,0.07,0.09,0.09,0.15c0.09,0.31,0.18,0.61,0.31,0.9c0.02,0.05,0.05,0.11,0.02,0.17
		C32.75,19.14,32.68,19.16,32.61,19.17z"/>
	<path class="st98" d="M34.85,23.76c0,0.03-0.01,0.06-0.04,0.08c-0.24,0.08-0.49,0.08-0.73,0.11c-0.24,0.03-0.48,0.06-0.72,0.09
		c-0.09,0.01-0.18,0-0.27,0c-0.03-0.02-0.05-0.04-0.06-0.07c0-0.07,0.05-0.08,0.1-0.09c0.52-0.06,1.05-0.12,1.57-0.19
		C34.75,23.68,34.84,23.64,34.85,23.76z"/>
	<path class="st44" d="M34.91,23.23c-0.21,0.06-0.43,0.06-0.65,0.09c-0.42,0.06-0.84,0.11-1.27,0.16c-0.05,0.01-0.11,0-0.16,0.01
		c0-0.02,0-0.04-0.01-0.06c0.14-0.12,0.32-0.11,0.49-0.12c0.26-0.02,0.51-0.08,0.77-0.09c0.24-0.01,0.48-0.09,0.73-0.07
		C34.87,23.15,34.94,23.14,34.91,23.23z"/>
	<path class="st99" d="M32.55,21.79c-0.18,0.09-0.39,0.06-0.58,0.1c-0.31,0.06-0.64,0.06-0.95,0.13c-0.01-0.06-0.01-0.11,0.02-0.16
		c0.34-0.08,0.69-0.09,1.03-0.14c0.14-0.02,0.29-0.06,0.44-0.02C32.54,21.73,32.55,21.76,32.55,21.79z"/>
	<path class="st62" d="M38.32,26.74c-0.02,0.02-0.04,0.03-0.06,0.03c-0.1,0.04-0.1-0.05-0.12-0.1c-0.05-0.14-0.11-0.28-0.14-0.42
		c-0.08-0.35-0.24-0.67-0.32-1.01c-0.02-0.07-0.06-0.15,0.07-0.17c0.07,0.01,0.08,0.06,0.1,0.11c0.16,0.48,0.33,0.96,0.47,1.45
		C38.33,26.67,38.33,26.71,38.32,26.74z"/>
	<path class="st100" d="M36.22,24.12c0.24-0.08,0.5-0.07,0.74-0.12c0.27-0.05,0.54-0.07,0.81-0.1c0.05-0.01,0.1-0.02,0.14,0.02
		c-0.06,0.05-0.11,0.11-0.19,0.13c-0.41,0.07-0.83,0.09-1.24,0.15C36.39,24.2,36.3,24.17,36.22,24.12z"/>
	<path class="st101" d="M34.34,22.4c-0.34,0.1-0.7,0.1-1.04,0.16c-0.03,0-0.06-0.02-0.09-0.03C33.52,22.25,33.99,22.2,34.34,22.4z"
		/>
	<path class="st102" d="M42.3,18.22c-0.07,0.01-0.06,0.05-0.05,0.1c0.19,0.53,0.32,1.07,0.51,1.6c0.16,0.43,0.3,0.85,0.42,1.29
		c0.02,0.06,0.02,0.14,0.1,0.17c-0.02,0.03-0.03,0.06-0.07,0.06c-0.08-0.06-0.08-0.15-0.1-0.22c-0.3-0.96-0.63-1.9-0.93-2.86
		c-0.02-0.05-0.06-0.1-0.02-0.16C42.21,18.19,42.25,18.19,42.3,18.22z"/>
	<path class="st103" d="M10.6,25.88c0,0.37,0,0.75,0,1.12c-0.06,0-0.12-0.02-0.16-0.06c-0.03-0.04-0.05-0.08-0.05-0.13
		c-0.01-0.24-0.01-0.49,0-0.73c0-0.05,0.02-0.09,0.05-0.13C10.48,25.9,10.54,25.88,10.6,25.88z"/>
	<path class="st48" d="M38.55,26.55c-0.01,0.03-0.03,0.05-0.06,0.07c-0.09,0.01-0.1-0.06-0.12-0.12c-0.15-0.42-0.29-0.85-0.43-1.28
		c-0.03-0.08-0.05-0.18,0.11-0.14c0.01,0,0.02,0,0.03,0c0.06,0.04,0.08,0.11,0.1,0.18c0.08,0.38,0.26,0.74,0.35,1.12
		C38.54,26.44,38.56,26.49,38.55,26.55z"/>
	<path class="st104" d="M37.75,25.09c-0.06,0.01-0.07,0.04-0.05,0.09c0.02,0.09,0.03,0.18,0.07,0.26c0.19,0.4,0.26,0.83,0.41,1.24
		c0.02,0.04,0.01,0.1,0.08,0.1c-0.02,0.03-0.05,0.04-0.09,0.04c-0.12-0.1-0.12-0.25-0.17-0.38c-0.13-0.38-0.25-0.77-0.38-1.16
		c-0.02-0.06-0.05-0.12-0.04-0.18c0.05-0.02,0.1-0.04,0.16-0.03c0.01,0.01,0.01,0.01,0.01,0.02C37.76,25.08,37.76,25.09,37.75,25.09
		z"/>
	<path class="st39" d="M34.91,23.23c-0.06-0.11-0.17-0.06-0.24-0.05c-0.4,0.04-0.8,0.12-1.21,0.16c-0.21,0.02-0.42,0.05-0.63,0.09
		c-0.02-0.03-0.01-0.06,0-0.1c0.11-0.09,0.24-0.07,0.37-0.08c0.55-0.06,1.09-0.14,1.64-0.19c0.03,0,0.05,0,0.07,0.02
		c0.01,0.05,0.02,0.11,0.03,0.16c0,0-0.01,0-0.01,0L34.91,23.23z"/>
	<path class="st105" d="M42.16,18.19c0,0.12,0.07,0.22,0.11,0.33c0.16,0.52,0.32,1.04,0.5,1.56c0.16,0.45,0.29,0.91,0.44,1.36
		c-0.01,0.01-0.02,0.01-0.03,0.01c-0.11-0.2-0.16-0.41-0.23-0.62c-0.29-0.88-0.58-1.76-0.87-2.64
		C42.12,18.19,42.14,18.19,42.16,18.19z"/>
	<path class="st106" d="M33.02,18.89c0.01-0.13-0.05-0.24-0.09-0.36c-0.08-0.19-0.16-0.39-0.19-0.6
		C33.12,18.09,33.26,18.54,33.02,18.89z"/>
	<path class="st107" d="M32.51,21.7c-0.22,0.03-0.43,0.07-0.65,0.09c-0.25,0.02-0.5,0.05-0.75,0.09c-0.03,0-0.05,0-0.07-0.03
		c0-0.03,0-0.07,0.02-0.1c0.16-0.09,0.35-0.08,0.52-0.1c0.24-0.03,0.49-0.06,0.74-0.09c0.05-0.01,0.09,0,0.14,0.03
		C32.49,21.63,32.51,21.66,32.51,21.7z"/>
	<path class="st108" d="M36.47,24.22c0.15-0.1,0.32-0.08,0.48-0.1c0.23-0.04,0.46-0.05,0.69-0.08c0.03,0,0.05,0,0.07,0.02
		C37.33,24.29,36.91,24.34,36.47,24.22z"/>
	<path class="st33" d="M41.08,23.01c-0.08,0.05-0.02,0.11,0,0.15c0.15,0.46,0.3,0.91,0.44,1.37c0.02,0.07,0.07,0.1,0.12,0.14
		c-0.02,0.05-0.05,0.11-0.07,0.16c-0.06-0.03-0.06-0.1-0.08-0.15c-0.17-0.53-0.35-1.06-0.52-1.59c-0.01-0.05-0.06-0.1,0-0.14
		C41.02,22.95,41.05,22.97,41.08,23.01z"/>
	<path class="st109" d="M32.89,22.98c0.36,0,0.71-0.08,1.07-0.11c0.23-0.02,0.45-0.06,0.67-0.08c0.04-0.01,0.09,0.01,0.12-0.04
		c0.01,0.01,0.02,0.03,0.03,0.04c0,0.08-0.06,0.11-0.12,0.12c-0.48,0.04-0.95,0.12-1.42,0.16c-0.12,0.01-0.25,0.08-0.37,0
		C32.86,23.04,32.86,23,32.89,22.98z"/>
	<path class="st55" d="M32.8,19.09c-0.17-0.4-0.3-0.8-0.42-1.22c0.04,0,0.09,0,0.13,0c0.11,0.34,0.22,0.67,0.33,1.01
		c0.02,0.05,0.02,0.11,0.09,0.11C32.9,19.04,32.86,19.08,32.8,19.09z"/>
	<path class="st110" d="M34.9,23.07c-0.22,0.03-0.45,0.07-0.67,0.09c-0.45,0.06-0.91,0.11-1.36,0.16c-0.02,0-0.03,0-0.05,0
		c0-0.02,0-0.04,0-0.06c0.2-0.07,0.42-0.06,0.62-0.09c0.47-0.07,0.95-0.11,1.43-0.17C34.9,23.03,34.91,23.05,34.9,23.07z"/>
	<path class="st111" d="M41.35,23.24c0.22,0.22,0.34,0.48,0.36,0.79c0.02,0.11,0.02,0.22,0,0.33c0,0.01,0,0.02,0,0.03
		c-0.08,0.01-0.08-0.05-0.1-0.1c-0.12-0.3-0.18-0.62-0.29-0.92C41.3,23.32,41.27,23.26,41.35,23.24z"/>
	<path class="st112" d="M32.05,18.03c0.05,0,0.07,0.04,0.08,0.08c0.13,0.36,0.27,0.71,0.37,1.07c-0.08,0.01-0.16,0.02-0.23-0.03
		c0.02-0.08,0-0.15-0.03-0.22c-0.08-0.23-0.15-0.47-0.24-0.69c-0.02-0.05-0.04-0.1-0.02-0.15C32.02,18.07,32.04,18.05,32.05,18.03z"
		/>
	<path class="st113" d="M32.86,23.07c0.33-0.04,0.66-0.07,0.99-0.11c0.24-0.03,0.47-0.06,0.71-0.08c0.09-0.01,0.17-0.01,0.22-0.09
		c0.04,0.03,0.06,0.08,0.06,0.12c-0.25,0.03-0.5,0.06-0.75,0.1c-0.42,0.05-0.84,0.11-1.25,0.16C32.83,23.13,32.83,23.1,32.86,23.07z
		"/>
	<path class="st114" d="M34.05,26.91c-0.32-0.25-0.32-0.68,0-0.93c0.03,0.03,0.05,0.07,0.05,0.11c0,0.23,0,0.47,0,0.7
		C34.09,26.83,34.08,26.88,34.05,26.91z"/>
	<path class="st115" d="M38.05,25.08c-0.04,0.01-0.11-0.01-0.08,0.07c0.16,0.48,0.32,0.96,0.49,1.44c0,0.01,0.02,0.02,0.04,0.03
		c-0.01,0.03-0.04,0.05-0.07,0.06c-0.07,0.04-0.09-0.02-0.1-0.06c-0.17-0.49-0.32-0.99-0.49-1.49c-0.01-0.03,0-0.05,0.02-0.07
		C37.92,25.05,37.98,25.04,38.05,25.08z"/>
	<path class="st116" d="M32.89,23.72c0.18-0.09,0.38-0.07,0.57-0.1c0.43-0.06,0.86-0.11,1.3-0.16c0.05-0.01,0.13-0.05,0.15,0.06
		c-0.54,0.06-1.09,0.12-1.63,0.2c-0.11,0.02-0.25-0.03-0.34,0.09C32.9,23.78,32.89,23.75,32.89,23.72z"/>
	<path class="st117" d="M35.64,27.03c-0.37-0.15-0.51-0.57-0.29-0.9C35.47,26.42,35.64,26.7,35.64,27.03z"/>
	<path class="st40" d="M34.85,23.76c-0.15-0.1-0.29,0-0.44,0.01c-0.32,0.02-0.65,0.06-0.97,0.11c-0.14,0.02-0.3-0.02-0.42,0.09
		c-0.03-0.04-0.06-0.08-0.09-0.12c0.38-0.01,0.75-0.08,1.13-0.12c0.26-0.03,0.51-0.05,0.77-0.08c0.04,0,0.04,0.02,0.05,0.04
		C34.88,23.71,34.88,23.74,34.85,23.76z"/>
	<path class="st118" d="M10.89,27c-0.08,0-0.1-0.03-0.1-0.11c0-0.3,0-0.61,0-0.91c0-0.08,0.03-0.11,0.1-0.11
		c0.01,0,0.02,0,0.03,0.01c0.05,0.07,0.05,0.15,0.05,0.23c0.01,0.29-0.01,0.57,0.02,0.86C10.96,27,10.93,27,10.89,27z"/>
	<path class="st119" d="M11.21,26.79c-0.02,0.06-0.06,0.1-0.12,0.12c-0.07,0.01-0.08-0.05-0.08-0.09c-0.02-0.27-0.02-0.54,0-0.81
		c0-0.03,0.02-0.05,0.04-0.07c0.07,0.03,0.13,0.08,0.16,0.15C11.28,26.32,11.28,26.56,11.21,26.79z"/>
	<path class="st77" d="M33.25,24.19c-0.06-0.03-0.1-0.07-0.14-0.12c0.09-0.07,0.21-0.04,0.3-0.05c0.44-0.05,0.89-0.1,1.33-0.16
		c0.02,0,0.03,0.01,0.04,0.02c-0.03,0.05-0.04,0.12-0.1,0.16C34.21,24.08,33.73,24.15,33.25,24.19z"/>
	<path class="st120" d="M11.05,25.94c0,0.27,0,0.54,0,0.81c0,0.06-0.02,0.12,0.04,0.16c-0.03,0.03-0.06,0.06-0.1,0.06
		c-0.09-0.01-0.07-0.08-0.07-0.14c0-0.32,0-0.63,0-0.95C10.96,25.92,11.02,25.9,11.05,25.94z"/>
	<path class="st121" d="M33.12,16.63c0.04,0,0.07,0,0.09,0.03c0.1,0.23,0.23,0.44,0.19,0.71c-0.01,0.04-0.03,0.07-0.07,0.09
		c-0.07,0.01-0.08-0.05-0.11-0.09c-0.1-0.19-0.15-0.4-0.21-0.61C32.99,16.67,32.98,16.58,33.12,16.63z"/>
	<path class="st122" d="M37.85,25.06c0.16,0.5,0.32,1,0.49,1.5c0.01,0.04,0.01,0.11,0.08,0.12c-0.02,0.03-0.05,0.06-0.09,0.06
		c-0.16-0.48-0.32-0.95-0.48-1.43c-0.03-0.08-0.04-0.17-0.09-0.23c0-0.01,0-0.02,0-0.03C37.78,25.06,37.82,25.06,37.85,25.06z"/>
	<path class="st27" d="M38.55,26.55c-0.09-0.16-0.12-0.35-0.18-0.52c-0.11-0.31-0.22-0.62-0.3-0.94c0.04,0,0.07,0,0.1,0.03
		c0.09,0.09,0.09,0.22,0.13,0.33c0.11,0.28,0.2,0.58,0.3,0.87c0.02,0.05,0.02,0.09,0.02,0.14C38.6,26.5,38.58,26.53,38.55,26.55z"/>
	<path class="st84" d="M31.04,22.18c0.08-0.13,0.22-0.07,0.33-0.09c0.36-0.06,0.73-0.1,1.09-0.14c0.04,0,0.07,0,0.11,0
		c0.02,0.03,0.03,0.07,0,0.1c-0.21,0.07-0.44,0.06-0.66,0.1c-0.24,0.04-0.48,0.05-0.73,0.09c-0.05,0.01-0.11,0.01-0.15-0.03
		C31.04,22.2,31.04,22.19,31.04,22.18z"/>
	<path class="st123" d="M32.2,21.35c0.06,0.01,0.1,0.05,0.13,0.1c-0.08,0.07-0.19,0.07-0.28,0.08c-0.25,0.02-0.49,0.07-0.73,0.08
		c-0.05,0-0.1,0.01-0.15-0.03c0.02-0.06,0.06-0.09,0.11-0.12C31.57,21.34,31.88,21.28,32.2,21.35z"/>
	<path class="st124" d="M38.44,25.28c0.29,0.25,0.38,0.56,0.29,0.92c-0.05,0-0.07-0.04-0.09-0.08c-0.08-0.24-0.17-0.48-0.24-0.72
		C38.4,25.36,38.37,25.3,38.44,25.28z"/>
	<path class="st125" d="M38.62,26.46c-0.1-0.18-0.14-0.37-0.2-0.56c-0.08-0.26-0.2-0.51-0.25-0.78c0.04,0.02,0.1,0.02,0.13,0.06
		c0.15,0.39,0.3,0.78,0.38,1.19C38.66,26.4,38.65,26.43,38.62,26.46z"/>
	<path class="st126" d="M32.46,21.6c-0.41,0.05-0.82,0.11-1.24,0.16c-0.05,0.01-0.11,0-0.16,0c0.01-0.03,0.01-0.07,0.04-0.09
		c0.14-0.08,0.3-0.06,0.44-0.09c0.22-0.04,0.44-0.05,0.66-0.08c0.06-0.01,0.12-0.01,0.17,0.01C32.4,21.55,32.46,21.55,32.46,21.6z"
		/>
	<path class="st127" d="M38.67,26.36c-0.12-0.23-0.17-0.48-0.24-0.73c-0.05-0.15-0.17-0.29-0.13-0.46c0.06,0.02,0.11,0.05,0.15,0.1
		c0.04,0.32,0.17,0.62,0.29,0.92C38.71,26.25,38.69,26.31,38.67,26.36z"/>
	<path class="st128" d="M34.78,23.87c-0.36,0.07-0.72,0.11-1.08,0.14c-0.2,0.02-0.39,0.04-0.59,0.05c-0.01-0.01-0.02-0.02-0.03-0.03
		c0.09-0.09,0.21-0.04,0.32-0.06c0.46-0.07,0.92-0.11,1.38-0.17c0.01,0,0.02,0.01,0.03,0.02C34.8,23.85,34.79,23.86,34.78,23.87z"/>
	<path class="st129" d="M35.64,27.03c-0.07-0.31-0.24-0.59-0.29-0.9c0.02-0.05,0.05-0.09,0.1-0.12c0.14,0.32,0.23,0.65,0.34,0.98
		c0.01,0.03,0,0.05-0.02,0.07C35.72,27.07,35.68,27.05,35.64,27.03z"/>
	<path class="st130" d="M30.82,20.9c-0.06-0.02-0.1-0.06-0.13-0.12c0.03-0.1,0.12-0.09,0.19-0.1c0.17-0.02,0.34-0.04,0.51-0.06
		c0.06-0.01,0.14-0.03,0.16,0.07c-0.01,0.06-0.04,0.1-0.08,0.13C31.26,20.89,31.04,20.91,30.82,20.9z"/>
	<path class="st131" d="M10.44,25.94c0,0.33,0,0.67,0,1c-0.06-0.02-0.1-0.05-0.13-0.1c-0.08-0.27-0.08-0.53,0-0.8
		C10.34,25.99,10.38,25.96,10.44,25.94z"/>
	<path class="st132" d="M35.64,25.89c0.03-0.02,0.06-0.04,0.1-0.03c0.11,0.19,0.15,0.42,0.23,0.62c0.07,0.17,0.12,0.35,0.18,0.52
		c-0.02,0.03-0.05,0.04-0.09,0.04c-0.07,0.03-0.1-0.01-0.12-0.07c-0.11-0.32-0.22-0.64-0.32-0.96
		C35.62,25.97,35.61,25.92,35.64,25.89z"/>
	<path class="st133" d="M36.15,27c-0.03,0-0.05-0.01-0.06-0.04c-0.12-0.34-0.23-0.68-0.35-1.02c-0.01-0.02,0-0.05,0-0.08
		c0.03,0,0.06,0,0.1-0.01c0.06,0.03,0.07,0.09,0.09,0.15c0.08,0.28,0.17,0.56,0.27,0.83c0.02,0.05,0.04,0.1,0,0.15
		C36.18,26.99,36.17,26.99,36.15,27z"/>
	<path class="st134" d="M32.38,21.51c-0.19,0.06-0.39,0.05-0.59,0.08c-0.23,0.04-0.46,0.05-0.69,0.08c0-0.04,0.02-0.07,0.06-0.1
		c0.32-0.04,0.64-0.07,0.96-0.11c0.07-0.01,0.14-0.01,0.21-0.02C32.35,21.46,32.38,21.47,32.38,21.51z"/>
	<path class="st135" d="M31.04,18.64c-0.06-0.11-0.04-0.2,0.06-0.28c0.08-0.06,0.17-0.07,0.25-0.01c0.09,0.06,0.14,0.14,0.08,0.25
		C31.3,18.66,31.17,18.7,31.04,18.64z"/>
	<path class="st136" d="M32.55,16.95c0.01-0.06,0.04-0.12,0.09-0.16c0.08-0.01,0.1,0.05,0.12,0.1c0.06,0.18,0.13,0.36,0.18,0.54
		c0.01,0.05,0.07,0.15-0.07,0.13c-0.05,0-0.1-0.02-0.13-0.06C32.67,17.31,32.57,17.14,32.55,16.95z"/>
	<path class="st137" d="M31.05,22.21c0.4-0.05,0.81-0.09,1.21-0.14c0.11-0.01,0.22-0.02,0.32-0.01c0,0.02,0,0.04-0.01,0.06
		c-0.18,0.11-0.39,0.06-0.59,0.1c-0.24,0.05-0.48,0.05-0.72,0.09c-0.07,0.01-0.14,0.01-0.2-0.03
		C31.04,22.26,31.04,22.24,31.05,22.21z"/>
	<path class="st138" d="M31.4,20.07c0.05,0.03,0.1,0.07,0.12,0.13c-0.19,0.1-0.41,0.09-0.61,0.11c-0.09,0.01-0.19,0.07-0.29-0.01
		c0.01-0.07,0.04-0.12,0.09-0.16C30.94,20.07,31.17,20.03,31.4,20.07z"/>
	<path class="st139" d="M41.35,23.24c-0.01,0.02-0.02,0.04-0.02,0.06c0.11,0.35,0.21,0.69,0.32,1.03c0.01,0.02,0.03,0.04,0.05,0.06
		c-0.01,0.06-0.02,0.13-0.04,0.19c-0.15-0.44-0.29-0.88-0.44-1.32c-0.02-0.05-0.04-0.1-0.03-0.15
		C41.27,23.13,41.32,23.17,41.35,23.24z"/>
	<path class="st140" d="M34.4,27.03c-0.01,0-0.02,0-0.03,0c-0.08-0.02-0.11-0.08-0.11-0.15c0-0.29,0-0.58,0-0.87
		c0-0.06,0.01-0.12,0.07-0.15c0.02,0,0.04,0,0.07,0c0.04,0.04,0.04,0.09,0.04,0.15c0,0.29,0,0.58,0,0.87
		C34.44,26.93,34.44,26.99,34.4,27.03z"/>
	<path class="st71" d="M32,18.08c0.13,0.31,0.22,0.63,0.33,0.95c0.02,0.06,0.03,0.1-0.05,0.12c-0.03,0-0.07,0-0.09-0.03
		c-0.03-0.22-0.11-0.43-0.2-0.64c-0.04-0.09-0.08-0.18-0.08-0.29C31.93,18.15,31.95,18.11,32,18.08z"/>
	<path class="st141" d="M35.9,25.85c0.06,0,0.12-0.01,0.17,0.03c0.01,0.17,0.09,0.33,0.14,0.49c0.05,0.16,0.11,0.31,0.14,0.47
		c-0.01,0.03-0.03,0.05-0.06,0.07c-0.06,0.01-0.08-0.03-0.1-0.08c-0.11-0.3-0.21-0.6-0.3-0.91C35.87,25.9,35.88,25.87,35.9,25.85z"
		/>
	<path class="st92" d="M32.57,22.15c-0.01,0.03-0.02,0.06-0.03,0.1c-0.14,0.08-0.31,0.07-0.46,0.09c-0.31,0.04-0.63,0.09-0.94,0.1
		c-0.02-0.01-0.03-0.03-0.03-0.06c-0.01-0.05,0.03-0.07,0.07-0.07C31.64,22.25,32.1,22.17,32.57,22.15z"/>
	<path class="st142" d="M33.25,24.19c0.12-0.11,0.27-0.06,0.41-0.08c0.29-0.05,0.58-0.08,0.88-0.11c0.05-0.01,0.11-0.02,0.15,0.03
		c-0.01,0.03-0.03,0.06-0.06,0.06c-0.24,0.08-0.49,0.07-0.73,0.11c-0.18,0.03-0.36,0.05-0.55,0.06
		C33.3,24.25,33.27,24.23,33.25,24.19z"/>
	<path class="st143" d="M31.91,18.19c0.13,0.25,0.22,0.52,0.31,0.79c0.01,0.04,0.02,0.1-0.03,0.13c-0.04,0-0.07-0.02-0.1-0.06
		c-0.11-0.24-0.2-0.48-0.24-0.74C31.87,18.28,31.89,18.23,31.91,18.19z"/>
	<path class="st17" d="M35.77,27.06c-0.09-0.28-0.18-0.56-0.28-0.84c-0.02-0.07-0.05-0.14-0.04-0.21c0.01-0.03,0.03-0.05,0.06-0.06
		c0.03,0.02,0.05,0.05,0.06,0.09c0.11,0.34,0.24,0.67,0.32,1.02C35.86,27.1,35.81,27.07,35.77,27.06z"/>
	<path class="st17" d="M34.24,27c-0.04,0.01-0.07-0.01-0.1-0.04c-0.03-0.04-0.05-0.08-0.05-0.13c0-0.26,0-0.52,0-0.78
		c0-0.05,0.02-0.09,0.05-0.13c0.03-0.02,0.06-0.04,0.1-0.03c0.03,0.03,0.03,0.08,0.03,0.12c0,0.29,0,0.58,0,0.88
		C34.27,26.92,34.27,26.97,34.24,27z"/>
	<path class="st144" d="M31.24,22.56c-0.04-0.02-0.06-0.05-0.07-0.09c-0.01-0.06,0.04-0.05,0.07-0.05c0.38-0.05,0.76-0.09,1.14-0.14
		c0.05-0.01,0.12-0.03,0.14,0.06c0,0.03-0.01,0.05-0.03,0.06C32.07,22.47,31.65,22.52,31.24,22.56z"/>
	<path class="st145" d="M32.2,21.35c-0.31,0-0.62,0.07-0.93,0.1C31.54,21.2,31.89,21.16,32.2,21.35z"/>
	<path class="st97" d="M32.8,16.66c0.03-0.04,0.07-0.04,0.12-0.04c0.04-0.02,0.06,0.01,0.07,0.04c0.1,0.26,0.18,0.53,0.27,0.79
		c0.01,0.02,0,0.04-0.02,0.06c-0.03,0.03-0.06,0.04-0.1,0.04c-0.07-0.03-0.08-0.1-0.1-0.15C32.97,17.15,32.89,16.9,32.8,16.66z"/>
	<path class="st146" d="M32.86,17.55c0.03-0.01,0.07-0.01,0.05-0.06c-0.08-0.23-0.16-0.45-0.24-0.68c0-0.01-0.02-0.02-0.04-0.03
		c0.02-0.04,0.05-0.08,0.1-0.09c0.06-0.01,0.07,0.04,0.08,0.08c0.07,0.23,0.17,0.45,0.24,0.69c0.01,0.04,0.03,0.08-0.01,0.12
		C32.99,17.58,32.92,17.6,32.86,17.55z"/>
	<path class="st147" d="M30.63,20.65c-0.03-0.03-0.03-0.06-0.03-0.1c0.11-0.08,0.24-0.07,0.37-0.08c0.17-0.02,0.34-0.04,0.51-0.06
		c0.12-0.01,0.16,0.04,0.12,0.15c-0.22,0.08-0.46,0.07-0.69,0.1C30.81,20.67,30.71,20.72,30.63,20.65z"/>
	<path class="st39" d="M31.58,20.55c0.01-0.08,0.01-0.11-0.09-0.1c-0.3,0.04-0.59,0.07-0.89,0.1c0-0.03,0-0.06,0-0.1
		c0.18-0.1,0.39-0.08,0.59-0.11c0.13-0.02,0.27-0.08,0.4,0.01c0.04,0.07,0.04,0.15,0,0.22c-0.01-0.01-0.01-0.01-0.01-0.02
		C31.58,20.56,31.58,20.55,31.58,20.55z"/>
	<path class="st148" d="M33.34,24.25c0.13-0.11,0.29-0.06,0.44-0.09c0.26-0.05,0.53-0.07,0.79-0.1c0.01,0,0.03,0.01,0.04,0.02
		c-0.04,0.02-0.04,0.09-0.1,0.09c-0.36,0.07-0.72,0.11-1.08,0.13C33.41,24.29,33.38,24.27,33.34,24.25z"/>
	<path class="st149" d="M31.58,20.55c0,0.01,0,0.02,0.01,0.03c0,0.04,0,0.07-0.03,0.1c-0.1-0.09-0.21-0.01-0.32,0
		c-0.18,0.02-0.38,0-0.55,0.09c-0.04-0.03-0.06-0.07-0.07-0.13C30.95,20.63,31.26,20.55,31.58,20.55z"/>
	<path class="st69" d="M34.14,25.92c0,0.35,0,0.7,0,1.05c-0.04-0.01-0.07-0.02-0.1-0.06c0-0.31,0-0.62,0-0.93
		C34.07,25.94,34.1,25.92,34.14,25.92z"/>
	<path class="st150" d="M33.06,17.58c-0.11-0.3-0.21-0.59-0.32-0.89c0.02-0.01,0.04-0.02,0.06-0.03c0.08,0.01,0.07,0.08,0.09,0.13
		c0.09,0.25,0.17,0.51,0.26,0.76C33.12,17.57,33.09,17.59,33.06,17.58z"/>
	<path class="st151" d="M33.41,17.37c-0.01-0.18-0.1-0.34-0.14-0.51c-0.02-0.07-0.05-0.13-0.05-0.2
		C33.51,16.8,33.59,17.09,33.41,17.37z"/>
	<path class="st152" d="M10.31,26.04c0,0.27,0,0.53,0,0.8C10.09,26.59,10.09,26.29,10.31,26.04z"/>
	<path class="st153" d="M34.71,25.95c0.03,0,0.05,0.03,0.07,0.05c0.07,0.29,0.07,0.59,0,0.88c-0.03,0.02-0.05,0.03-0.08,0.05
		c-0.05-0.01-0.06-0.06-0.06-0.1c-0.01-0.26-0.01-0.52,0-0.78C34.65,26.01,34.65,25.95,34.71,25.95z"/>
	<path class="st154" d="M31.4,22.69c-0.05-0.02-0.1-0.05-0.13-0.1c0-0.04,0.03-0.05,0.06-0.06c0.37-0.02,0.73-0.09,1.09-0.12
		c0.02,0,0.03,0.01,0.04,0.02c-0.02,0.05-0.05,0.1-0.11,0.13C32.04,22.62,31.72,22.65,31.4,22.69z"/>
	<path class="st155" d="M31.85,18.32c0.1,0.24,0.19,0.48,0.24,0.74C31.85,18.89,31.76,18.62,31.85,18.32z"/>
	<path class="st156" d="M33.44,24.31c0.25-0.09,0.52-0.08,0.78-0.11c0.1-0.01,0.2-0.08,0.31-0.01c-0.05,0.04-0.1,0.08-0.16,0.1
		c-0.24,0.05-0.49,0.08-0.73,0.09C33.57,24.35,33.5,24.33,33.44,24.31z"/>
	<path class="st157" d="M31.4,22.69c0.07-0.12,0.2-0.06,0.3-0.08c0.18-0.04,0.38-0.04,0.56-0.07c0.04-0.01,0.07,0,0.1,0.04
		c-0.02,0.04-0.05,0.07-0.1,0.09c-0.24,0.06-0.49,0.07-0.73,0.09C31.47,22.75,31.43,22.72,31.4,22.69z"/>
	<path class="st46" d="M35.64,25.89c0.09,0.35,0.22,0.69,0.33,1.04c0.01,0.05,0.02,0.11,0.09,0.11c-0.04,0.03-0.09,0.03-0.14,0.03
		c-0.14-0.26-0.2-0.55-0.29-0.83c-0.03-0.1-0.12-0.19-0.06-0.31C35.6,25.91,35.62,25.9,35.64,25.89z"/>
	<path class="st158" d="M32.46,22.44c-0.37,0.04-0.73,0.11-1.11,0.12c-0.03,0-0.06,0-0.09,0.03c-0.01-0.01-0.02-0.02-0.03-0.03
		c0.11-0.12,0.27-0.06,0.4-0.08c0.24-0.05,0.5-0.07,0.74-0.1c0.04,0,0.07-0.01,0.1,0.03C32.47,22.42,32.47,22.43,32.46,22.44z"/>
	<path class="st159" d="M35.58,25.92c0.1,0.32,0.2,0.63,0.3,0.95c0.02,0.07,0.05,0.13,0.05,0.2c0,0-0.01,0.01-0.01,0.01
		s-0.01,0-0.01,0c-0.15-0.24-0.19-0.52-0.29-0.78c-0.04-0.11-0.07-0.22-0.1-0.33C35.54,25.94,35.56,25.93,35.58,25.92z"/>
	<path class="st160" d="M33.95,16.76c-0.07,0.04-0.14,0.04-0.2,0c-0.02-0.18-0.13-0.33-0.12-0.52c0.03-0.04,0.07-0.07,0.13-0.07
		C33.88,16.35,33.94,16.55,33.95,16.76z"/>
	<path class="st161" d="M34.4,27.03c0-0.39,0-0.78,0-1.17c0.06-0.01,0.11-0.01,0.16,0.03c0,0.01-0.01,0.02-0.01,0.02
		c-0.04,0.03-0.04,0.07-0.04,0.12c0,0.28,0,0.56,0,0.84c0,0.04,0,0.08,0.04,0.12c0,0.01,0.01,0.02,0.01,0.02
		C34.51,27.04,34.45,27.03,34.4,27.03z"/>
	<path class="st162" d="M32.51,22.34c-0.15-0.09-0.3,0-0.45,0.01c-0.28,0.02-0.55,0.08-0.83,0.09c-0.02,0-0.04,0.02-0.07,0.04
		c-0.01-0.01-0.02-0.03-0.03-0.04c0.21-0.1,0.44-0.08,0.66-0.11c0.24-0.04,0.49-0.05,0.74-0.08C32.55,22.28,32.54,22.32,32.51,22.34
		z"/>
	<path class="st163" d="M31.4,20.07c-0.23,0.03-0.45,0.08-0.68,0.07C30.92,19.93,31.18,19.9,31.4,20.07z"/>
	<path class="st164" d="M31.52,22.75c0.12-0.11,0.28-0.06,0.42-0.08c0.1-0.01,0.21-0.08,0.31-0.01
		C32.03,22.82,31.79,22.86,31.52,22.75z"/>
	<path class="st165" d="M31.59,20.36c-0.33-0.01-0.66,0.08-0.99,0.1c0-0.02,0-0.04,0-0.06c0.02-0.03,0.03-0.05,0.07-0.06
		c0.28-0.02,0.55-0.07,0.83-0.09c0.02,0,0.04,0.01,0.06,0.02C31.59,20.29,31.59,20.32,31.59,20.36z"/>
	<path class="st166" d="M31.56,20.26c-0.26,0.03-0.52,0.07-0.77,0.09c-0.06,0.01-0.13,0-0.18,0.03c0-0.04-0.01-0.07,0.03-0.1
		c0.3-0.03,0.6-0.06,0.9-0.1C31.55,20.22,31.56,20.24,31.56,20.26z"/>
	<path class="st167" d="M34.24,27c0-0.37,0-0.74,0-1.12c0.03-0.02,0.06-0.03,0.09-0.02c-0.05,0.07-0.03,0.15-0.03,0.23
		c0,0.26,0,0.51,0,0.77c0,0.07,0,0.13,0.06,0.17C34.32,27.03,34.28,27.03,34.24,27z"/>
	<path class="st168" d="M35.9,25.85c0.08,0.35,0.22,0.68,0.34,1.02c0.01,0.02,0.03,0.03,0.05,0.04c-0.02,0.04-0.05,0.06-0.1,0.07
		c-0.12-0.38-0.24-0.75-0.36-1.13C35.86,25.83,35.88,25.83,35.9,25.85z"/>
	<path class="st169" d="M34.78,26.88c0-0.29,0-0.59,0-0.88c0.05,0.02,0.06,0.07,0.09,0.11c0.08,0.22,0.07,0.45,0,0.67
		C34.86,26.83,34.83,26.86,34.78,26.88z"/>
	<path class="st170" d="M33.63,16.24c0.05,0.15,0.1,0.29,0.15,0.44c0.01,0.03,0,0.06-0.03,0.08C33.52,16.66,33.47,16.46,33.63,16.24
		z"/>
	<path class="st171" d="M33.95,16.76c-0.07-0.2-0.13-0.39-0.2-0.59c0.03-0.03,0.06-0.03,0.1-0.02c0.14,0.16,0.22,0.35,0.19,0.57
		C34.02,16.75,33.99,16.76,33.95,16.76z"/>
	<path class="st172" d="M32.57,22.15c-0.24,0.03-0.49,0.07-0.73,0.1c-0.21,0.03-0.42,0.04-0.63,0.07c-0.04,0-0.08,0.02-0.11,0.06
		c-0.03-0.02-0.03-0.06-0.04-0.09c0.34-0.03,0.68-0.07,1.02-0.12c0.16-0.02,0.33-0.03,0.49-0.04
		C32.57,22.13,32.57,22.14,32.57,22.15z"/>
	<path class="st173" d="M34.05,16.72c-0.03-0.2-0.12-0.38-0.19-0.57c0.07-0.01,0.14,0.01,0.19,0.06c0.07,0.12,0.13,0.24,0.1,0.38
		C34.13,16.65,34.1,16.7,34.05,16.72z"/>
	<path class="st174" d="M30.82,20.9c0.21-0.06,0.43-0.09,0.65-0.09C31.29,21.01,31.06,21.04,30.82,20.9z"/>
	<path class="st175" d="M34.65,26.97C34.63,27,34.59,27,34.56,27c0,0,0-0.01,0-0.01c-0.07-0.37-0.07-0.74,0-1.11c0,0,0-0.01,0-0.01
		c0.04,0,0.07,0,0.1,0.03C34.65,26.27,34.66,26.62,34.65,26.97z"/>
	<path class="st176" d="M33.25,17.52c-0.12-0.29-0.17-0.61-0.33-0.89c0.07-0.03,0.13-0.03,0.2,0c-0.04,0.01-0.11-0.01-0.08,0.06
		c0.09,0.26,0.13,0.54,0.3,0.77C33.32,17.49,33.29,17.51,33.25,17.52z"/>
	<path class="st177" d="M34.65,26.97c-0.06-0.06-0.03-0.14-0.03-0.21c0-0.23,0-0.46,0-0.69c0-0.05-0.02-0.11,0.03-0.15
		c0.03,0,0.05,0.01,0.06,0.03c-0.06,0.09-0.03,0.19-0.03,0.28c0,0.24-0.03,0.47,0.02,0.71C34.7,26.96,34.68,26.97,34.65,26.97z"/>
	<path class="st178" d="M36.35,26.84c-0.07-0.03-0.06-0.09-0.07-0.15c-0.08-0.23-0.16-0.46-0.23-0.69c-0.01-0.04-0.08-0.1,0.02-0.12
		c0.03,0,0.07,0.01,0.09,0.04c-0.01,0.14,0.06,0.26,0.1,0.4c0.04,0.16,0.12,0.3,0.13,0.47C36.39,26.81,36.37,26.83,36.35,26.84z"/>
	<path class="st179" d="M11.21,26.79c0-0.23,0-0.46,0-0.7C11.38,26.32,11.38,26.56,11.21,26.79z"/>
	<path class="st180" d="M36.47,26.58c0.01,0.04-0.01,0.07-0.03,0.1c-0.04,0.03-0.07,0.01-0.08-0.03c-0.06-0.21-0.14-0.41-0.2-0.63
		c-0.01-0.03,0-0.06,0.03-0.08c0.04,0.01,0.07,0.03,0.09,0.07C36.38,26.19,36.44,26.38,36.47,26.58z"/>
	<path class="st181" d="M36.19,25.94c0.04,0.26,0.11,0.51,0.25,0.74c0.01,0.05-0.04,0.06-0.06,0.1c-0.13-0.25-0.18-0.54-0.28-0.8
		c-0.01-0.04,0.02-0.05,0.06-0.06C36.16,25.92,36.18,25.93,36.19,25.94z"/>
	<path class="st182" d="M33.63,24.38c0.24-0.08,0.48-0.11,0.73-0.09C34.13,24.41,33.89,24.44,33.63,24.38z"/>
	<path class="st183" d="M32.55,16.95c0.09,0.17,0.18,0.34,0.18,0.54C32.54,17.35,32.48,17.17,32.55,16.95z"/>
	<path class="st184" d="M34.88,26.78c0-0.22,0-0.45,0-0.67C35.03,26.31,35.03,26.56,34.88,26.78z"/>
	<path class="st185" d="M32.64,25.98c-0.11,0.07-0.21,0.03-0.25-0.08c-0.04-0.12,0.01-0.21,0.15-0.23
		C32.61,25.76,32.64,25.87,32.64,25.98z"/>
	<path class="st186" d="M36.47,26.58c-0.08-0.19-0.15-0.38-0.19-0.58C36.47,26.16,36.52,26.36,36.47,26.58z"/>
	<path class="st187" d="M31.39,18.06c-0.05-0.07-0.04-0.13,0.02-0.18c0.05-0.04,0.1-0.05,0.16-0.02c0.06,0.04,0.1,0.09,0.06,0.17
		C31.55,18.06,31.47,18.08,31.39,18.06z"/>
	<path class="st188" d="M31.04,18.64c0.13-0.01,0.26-0.05,0.39-0.03c-0.04,0.09-0.09,0.16-0.2,0.16
		C31.14,18.75,31.06,18.74,31.04,18.64z"/>
	<path class="st189" d="M30.85,19.62c-0.03-0.01-0.05-0.03-0.06-0.06c0-0.05,0.04-0.06,0.07-0.07c0.13-0.03,0.26-0.04,0.39-0.04
		c0.04,0,0.09,0,0.08,0.06c-0.01,0.04-0.03,0.07-0.07,0.08C31.13,19.61,30.99,19.65,30.85,19.62z"/>
	<path class="st190" d="M31.3,19.11c0.01,0.01,0.02,0.02,0.03,0.03c0,0.02,0,0.05-0.03,0.05c-0.19,0.03-0.39,0.09-0.59,0.04
		c0-0.04,0.01-0.07,0.04-0.09C30.94,19.08,31.12,19.03,31.3,19.11z"/>
	<path class="st191" d="M31.37,19.24c0.02,0.02,0.03,0.05,0.02,0.07c-0.13,0.12-0.3,0.06-0.45,0.1c-0.06,0.02-0.13,0-0.19,0.02
		c-0.01,0-0.02,0-0.03,0c-0.04-0.04-0.03-0.08-0.02-0.13c0.01-0.01,0.03-0.02,0.05-0.02C30.96,19.27,31.16,19.23,31.37,19.24z"/>
	<path class="st192" d="M32.64,25.98c-0.06-0.1-0.1-0.2-0.1-0.32c0.09,0,0.16,0.04,0.18,0.13C32.75,25.88,32.72,25.94,32.64,25.98z"
		/>
	<path class="st193" d="M34.56,16.08c0.21,0.04,0.27,0.19,0.13,0.36C34.58,16.34,34.53,16.23,34.56,16.08z"/>
	<path class="st194" d="M33.31,25.89c0.05-0.01,0.09-0.02,0.13,0.02c0.05,0.11,0.1,0.23,0.1,0.35c-0.01,0.03-0.03,0.06-0.06,0.06
		C33.35,26.21,33.3,26.06,33.31,25.89z"/>
	<path class="st195" d="M34.39,16.14c0.02-0.04,0.05-0.06,0.1-0.06c0.06,0.13,0.16,0.25,0.1,0.41c-0.02,0-0.04,0-0.06,0
		C34.42,16.4,34.39,16.28,34.39,16.14z"/>
	<path class="st196" d="M34.39,16.14c0.04,0.12,0.09,0.24,0.13,0.35C34.32,16.45,34.27,16.31,34.39,16.14z"/>
	<path class="st197" d="M33.54,26.27c-0.04-0.11-0.11-0.22-0.1-0.35C33.61,26.01,33.63,26.1,33.54,26.27z"/>
	<path class="st198" d="M33.28,26.36c-0.2-0.07-0.24-0.2-0.13-0.39C33.24,26.09,33.29,26.22,33.28,26.36z"/>
	<path class="st199" d="M31.34,19.51c-0.19-0.04-0.37,0-0.55,0.05c-0.02-0.01-0.04-0.03-0.04-0.05c0-0.01-0.01-0.04,0.01-0.04
		c0.2-0.04,0.4-0.13,0.6-0.02C31.37,19.47,31.36,19.49,31.34,19.51z"/>
	<path class="st200" d="M31.37,19.24c-0.21,0.07-0.43,0.09-0.65,0.07c0-0.02,0-0.04,0.02-0.04c0.21-0.04,0.41-0.08,0.62-0.06
		C31.37,19.22,31.37,19.23,31.37,19.24z"/>
	<path class="st46" d="M33.28,26.36c-0.04-0.13-0.09-0.26-0.13-0.39c0.01-0.03,0.03-0.05,0.07-0.06c0.1,0.13,0.1,0.31,0.19,0.44
		C33.37,26.4,33.32,26.39,33.28,26.36z"/>
	<path class="st201" d="M31.3,19.11c-0.18,0.01-0.36,0.02-0.55,0.03c0.01-0.03,0.03-0.05,0.05-0.07c0.14-0.07,0.28-0.08,0.42-0.03
		C31.27,19.06,31.29,19.08,31.3,19.11z"/>
	<path class="st202" d="M31.37,19.44c-0.21-0.01-0.41,0-0.62,0.06c-0.03-0.02-0.03-0.04-0.03-0.07c0,0,0.01,0,0.01,0
		c0.19-0.06,0.38-0.06,0.57-0.08C31.36,19.35,31.39,19.38,31.37,19.44L31.37,19.44z"/>
	<path class="st203" d="M34.59,16.49c0.01-0.15-0.09-0.27-0.1-0.41c0.02-0.01,0.04-0.03,0.07-0.01c0.04,0.12,0.09,0.24,0.13,0.36
		C34.66,16.48,34.63,16.5,34.59,16.49z"/>
	<path class="st204" d="M30.85,19.62c0.14-0.01,0.27-0.08,0.41-0.02C31.14,19.71,31,19.72,30.85,19.62z"/>
	<path class="st205" d="M31.36,19.21c-0.21,0.03-0.43,0.02-0.64,0.1c0,0-0.01,0-0.01,0s-0.01,0-0.01,0c-0.01-0.03,0-0.05,0.02-0.07
		c0.16-0.02,0.33-0.04,0.49-0.06c0.04,0,0.09,0.01,0.12-0.03C31.36,19.16,31.36,19.18,31.36,19.21z"/>
	<path class="st206" d="M31.37,19.44c-0.04-0.12-0.13-0.06-0.2-0.06c-0.15,0.01-0.29,0.03-0.44,0.05c0.1-0.12,0.26-0.04,0.38-0.08
		c0.08-0.03,0.18-0.03,0.28-0.04C31.4,19.35,31.41,19.4,31.37,19.44z"/>
	<path class="st207" d="M33.41,26.36c-0.15-0.11-0.14-0.29-0.19-0.44c0.02-0.01,0.04-0.02,0.06-0.03
		C33.33,26.05,33.42,26.19,33.41,26.36L33.41,26.36z"/>
	<path class="st208" d="M35.13,16.4c-0.02,0.02-0.04,0.03-0.06,0.03c-0.08-0.07-0.12-0.15-0.07-0.26c0.02-0.02,0.04-0.02,0.07-0.02
		C35.17,16.22,35.19,16.3,35.13,16.4z"/>
	<path class="st209" d="M33.41,26.36c-0.04-0.16-0.09-0.31-0.13-0.47c0.01,0,0.02,0,0.03,0c0.05,0.15,0.11,0.3,0.16,0.44
		C33.46,26.36,33.44,26.36,33.41,26.36z"/>
	<path class="st210" d="M35,16.17c0.02,0.09,0.05,0.17,0.07,0.26c-0.08,0.01-0.13-0.03-0.15-0.1C34.9,16.26,34.92,16.2,35,16.17z"/>
	<path class="st211" d="M31.24,19.05c-0.14-0.01-0.28,0.01-0.42,0.03C30.96,18.96,31.07,18.95,31.24,19.05z"/>
	<path class="st212" d="M34.14,16.6c-0.03-0.13-0.06-0.26-0.1-0.38C34.18,16.31,34.22,16.44,34.14,16.6z"/>
	<path class="st213" d="M31.39,18.06c0.08-0.04,0.15-0.07,0.24-0.03C31.56,18.16,31.48,18.16,31.39,18.06z"/>
	<path class="st214" d="M35.49,16.44c-0.02,0.04-0.06,0.03-0.1,0.02c-0.02-0.04-0.07-0.07-0.03-0.13c0.02-0.05,0.06-0.03,0.1-0.03
		C35.48,16.35,35.52,16.39,35.49,16.44z"/>
	<path class="st215" d="M35.13,16.4c0.01-0.09-0.01-0.17-0.06-0.25C35.22,16.22,35.23,16.27,35.13,16.4z"/>
	<path class="st216" d="M31.66,17.59c0-0.06,0.04-0.1,0.1-0.09c0.05,0,0.09,0.03,0.08,0.09C31.78,17.63,31.72,17.63,31.66,17.59z"/>
	<path class="st139" d="M41.71,24.35c0-0.11,0-0.22,0-0.33C41.75,24.13,41.75,24.24,41.71,24.35z"/>
	<path class="st217" d="M31.84,17.62c-0.04,0.09-0.09,0.09-0.16,0.03C31.72,17.56,31.78,17.6,31.84,17.62z"/>
	<path class="st218" d="M35.74,16.49c0,0.03-0.02,0.04-0.05,0.04c-0.02,0-0.04-0.01-0.04-0.04c0-0.03,0.01-0.05,0.04-0.05
		C35.73,16.44,35.74,16.46,35.74,16.49z"/>
	<path class="st219" d="M31.84,17.62c-0.05,0.01-0.12-0.02-0.16,0.03c-0.03-0.01-0.03-0.04-0.02-0.06c0.06,0,0.12,0,0.18,0
		C31.84,17.59,31.84,17.6,31.84,17.62z"/>
	<path class="st220" d="M35.36,16.34c0.01,0.04,0.02,0.09,0.03,0.13C35.32,16.44,35.31,16.39,35.36,16.34z"/>
	<path class="st221" d="M35.49,16.44c-0.01-0.04-0.02-0.09-0.04-0.13C35.52,16.34,35.54,16.38,35.49,16.44z"/>
	<path class="st222" d="M23.07,29.11c-0.23,0-0.47,0-0.7,0c-0.09,0-0.12-0.01-0.09-0.12c0.1-0.39,0.42-0.63,0.84-0.63
		c0.37,0,0.69,0.28,0.78,0.64c0.02,0.08,0,0.1-0.08,0.1C23.56,29.1,23.31,29.11,23.07,29.11z"/>
	<path class="st222" d="M37.73,34.57c-0.3,0-0.29,0-0.3-0.31c0-0.14,0.03-0.2,0.18-0.18c0.11,0.01,0.22,0,0.33,0
		c0.16,0.01,0.26,0.1,0.26,0.24c0,0.14-0.1,0.23-0.26,0.24C37.87,34.57,37.8,34.57,37.73,34.57z"/>
	<path class="st222" d="M37.7,33.8c-0.01,0-0.01,0-0.02,0c-0.26,0-0.31-0.07-0.26-0.33c0.01-0.05,0.04-0.05,0.08-0.05
		c0.13,0,0.26,0,0.4,0c0.12,0.01,0.2,0.07,0.2,0.2c0,0.13-0.08,0.19-0.21,0.19C37.83,33.81,37.77,33.8,37.7,33.8z"/>
	<path class="st223" d="M42.86,34.18c-0.14,0-0.27,0-0.39,0c-0.1,0-0.11-0.04-0.06-0.11c0.06-0.1,0.15-0.13,0.26-0.11
		C42.78,33.98,42.83,34.06,42.86,34.18z"/>
	<path class="st0" d="M39.54,34.28c0,0.17-0.12,0.3-0.29,0.3c-0.17,0-0.29-0.13-0.29-0.31c0-0.17,0.12-0.3,0.29-0.3
		C39.42,33.97,39.54,34.1,39.54,34.28z"/>
	<path class="st115" d="M34.55,25.89c0,0.37,0,0.74,0,1.11c-0.07,0.01-0.09-0.03-0.09-0.09c0-0.31,0-0.62,0-0.92
		C34.46,25.91,34.48,25.88,34.55,25.89z"/>
</g>
</svg>
