<svg width="48" height="48" viewBox="0 0 48 48" fill="none" xmlns="http://www.w3.org/2000/svg">
<path d="M46 22H41.88C41.5095 18.6229 40.1845 15.4212 38.06 12.77L41.41 9.41C41.5952 9.22484 41.742 9.00501 41.8423 8.76309C41.9425 8.52116 41.994 8.26186 41.994 8C41.994 7.73814 41.9425 7.47884 41.8423 7.23691C41.742 6.99499 41.5952 6.77516 41.41 6.59C41.2248 6.40484 41.005 6.25796 40.7631 6.15775C40.5212 6.05754 40.2619 6.00596 40 6.00596C39.7381 6.00596 39.4788 6.05754 39.2369 6.15775C38.995 6.25796 38.7752 6.40484 38.59 6.59L35.23 9.94C32.5788 7.81553 29.3771 6.49047 26 6.12V2C26 1.46957 25.7893 0.960859 25.4142 0.585786C25.0391 0.210714 24.5304 0 24 0C23.4696 0 22.9609 0.210714 22.5858 0.585786C22.2107 0.960859 22 1.46957 22 2V6.12C18.6229 6.49047 15.4212 7.81553 12.77 9.94L9.41 6.59C9.22484 6.40484 9.00501 6.25796 8.76309 6.15775C8.52116 6.05754 8.26186 6.00596 8 6.00596C7.73814 6.00596 7.47884 6.05754 7.23691 6.15775C6.99499 6.25796 6.77516 6.40484 6.59 6.59C6.21604 6.96396 6.00596 7.47115 6.00596 8C6.00596 8.52885 6.21604 9.03604 6.59 9.41L9.94 12.77C7.81553 15.4212 6.49047 18.6229 6.12 22H2C1.46957 22 0.960859 22.2107 0.585786 22.5858C0.210714 22.9609 0 23.4696 0 24C0 24.5304 0.210714 25.0391 0.585786 25.4142C0.960859 25.7893 1.46957 26 2 26H6.12C6.49047 29.3771 7.81553 32.5788 9.94 35.23L6.59 38.59C6.40484 38.7752 6.25796 38.995 6.15775 39.2369C6.05754 39.4788 6.00596 39.7381 6.00596 40C6.00596 40.2619 6.05754 40.5212 6.15775 40.7631C6.25796 41.005 6.40484 41.2248 6.59 41.41C6.96396 41.784 7.47115 41.994 8 41.994C8.26186 41.994 8.52116 41.9425 8.76309 41.8423C9.00501 41.742 9.22484 41.5952 9.41 41.41L12.77 38.06C15.4212 40.1845 18.6229 41.5095 22 41.88V46C22 46.5304 22.2107 47.0391 22.5858 47.4142C22.9609 47.7893 23.4696 48 24 48C24.5304 48 25.0391 47.7893 25.4142 47.4142C25.7893 47.0391 26 46.5304 26 46V41.88C29.3771 41.5095 32.5788 40.1845 35.23 38.06L38.59 41.41C38.7752 41.5952 38.995 41.742 39.2369 41.8423C39.4788 41.9425 39.7381 41.994 40 41.994C40.2619 41.994 40.5212 41.9425 40.7631 41.8423C41.005 41.742 41.2248 41.5952 41.41 41.41C41.5952 41.2248 41.742 41.005 41.8423 40.7631C41.9425 40.5212 41.994 40.2619 41.994 40C41.994 39.7381 41.9425 39.4788 41.8423 39.2369C41.742 38.995 41.5952 38.7752 41.41 38.59L38.06 35.23C40.1845 32.5788 41.5095 29.3771 41.88 26H46C46.5304 26 47.0391 25.7893 47.4142 25.4142C47.7893 25.0391 48 24.5304 48 24C48 23.4696 47.7893 22.9609 47.4142 22.5858C47.0391 22.2107 46.5304 22 46 22ZM15.5 22C15.0055 22 14.5222 21.8534 14.1111 21.5787C13.7 21.304 13.3795 20.9135 13.1903 20.4567C13.0011 19.9999 12.9516 19.4972 13.048 19.0123C13.1445 18.5273 13.3826 18.0819 13.7322 17.7322C14.0819 17.3826 14.5273 17.1445 15.0123 17.048C15.4972 16.9516 15.9999 17.0011 16.4567 17.1903C16.9135 17.3795 17.304 17.7 17.5787 18.1111C17.8534 18.5222 18 19.0055 18 19.5C18 20.163 17.7366 20.7989 17.2678 21.2678C16.7989 21.7366 16.163 22 15.5 22ZM28 34C27.0111 34 26.0444 33.7068 25.2221 33.1573C24.3999 32.6079 23.759 31.827 23.3806 30.9134C23.0022 29.9998 22.9031 28.9945 23.0961 28.0245C23.289 27.0546 23.7652 26.1637 24.4645 25.4645C25.1637 24.7652 26.0546 24.289 27.0245 24.0961C27.9945 23.9031 28.9998 24.0022 29.9134 24.3806C30.827 24.759 31.6079 25.3999 32.1573 26.2221C32.7068 27.0444 33 28.0111 33 29C32.9995 30.3259 32.4725 31.5974 31.5349 32.535C30.5974 33.4725 29.3259 33.9995 28 34V34Z" fill="#011E41"/>
</svg>
