<svg width="48" height="48" viewBox="0 0 48 48" fill="none" xmlns="http://www.w3.org/2000/svg">
<path d="M41 0H19C18.735 0.000791363 18.4811 0.106402 18.2938 0.293767C18.1064 0.481133 18.0008 0.735027 18 1V12H29C29.421 12.0014 29.837 12.0911 30.2211 12.2633C30.6053 12.4356 30.949 12.6865 31.23 13H38C38.2652 13 38.5196 13.1054 38.7071 13.2929C38.8946 13.4804 39 13.7348 39 14C39 14.2652 38.8946 14.5196 38.7071 14.7071C38.5196 14.8946 38.2652 15 38 15H32V18H38C38.2652 18 38.5196 18.1054 38.7071 18.2929C38.8946 18.4804 39 18.7348 39 19C39 19.2652 38.8946 19.5196 38.7071 19.7071C38.5196 19.8946 38.2652 20 38 20H32V23H38C38.2652 23 38.5196 23.1054 38.7071 23.2929C38.8946 23.4804 39 23.7348 39 24C39 24.2652 38.8946 24.5196 38.7071 24.7071C38.5196 24.8946 38.2652 25 38 25H32V34H41C41.265 33.9992 41.5189 33.8936 41.7062 33.7062C41.8936 33.5189 41.9992 33.265 42 33V1C41.9992 0.735027 41.8936 0.481133 41.7062 0.293767C41.5189 0.106402 41.265 0.000791363 41 0V0ZM38 10H22C21.7348 10 21.4804 9.89464 21.2929 9.70711C21.1054 9.51957 21 9.26522 21 9C21 8.73478 21.1054 8.48043 21.2929 8.29289C21.4804 8.10536 21.7348 8 22 8H38C38.2652 8 38.5196 8.10536 38.7071 8.29289C38.8946 8.48043 39 8.73478 39 9C39 9.26522 38.8946 9.51957 38.7071 9.70711C38.5196 9.89464 38.2652 10 38 10Z" fill="#011E41"/>
<path d="M29 14H7C6.73503 14.0008 6.48113 14.1064 6.29377 14.2938C6.1064 14.4811 6.00079 14.735 6 15V47C6.00079 47.265 6.1064 47.5189 6.29377 47.7062C6.48113 47.8936 6.73503 47.9992 7 48H29C29.265 47.9992 29.5189 47.8936 29.7062 47.7062C29.8936 47.5189 29.9992 47.265 30 47V15C29.9992 14.735 29.8936 14.4811 29.7062 14.2938C29.5189 14.1064 29.265 14.0008 29 14ZM10 22H26C26.2652 22 26.5196 22.1054 26.7071 22.2929C26.8946 22.4804 27 22.7348 27 23C27 23.2652 26.8946 23.5196 26.7071 23.7071C26.5196 23.8946 26.2652 24 26 24H10C9.73478 24 9.48043 23.8946 9.29289 23.7071C9.10536 23.5196 9 23.2652 9 23C9 22.7348 9.10536 22.4804 9.29289 22.2929C9.48043 22.1054 9.73478 22 10 22V22ZM10 27H26C26.2652 27 26.5196 27.1054 26.7071 27.2929C26.8946 27.4804 27 27.7348 27 28C27 28.2652 26.8946 28.5196 26.7071 28.7071C26.5196 28.8946 26.2652 29 26 29H10C9.73478 29 9.48043 28.8946 9.29289 28.7071C9.10536 28.5196 9 28.2652 9 28C9 27.7348 9.10536 27.4804 9.29289 27.2929C9.48043 27.1054 9.73478 27 10 27V27ZM26 39H10C9.73478 39 9.48043 38.8946 9.29289 38.7071C9.10536 38.5196 9 38.2652 9 38C9 37.7348 9.10536 37.4804 9.29289 37.2929C9.48043 37.1054 9.73478 37 10 37H26C26.2652 37 26.5196 37.1054 26.7071 37.2929C26.8946 37.4804 27 37.7348 27 38C27 38.2652 26.8946 38.5196 26.7071 38.7071C26.5196 38.8946 26.2652 39 26 39ZM10 34C9.73478 34 9.48043 33.8946 9.29289 33.7071C9.10536 33.5196 9 33.2652 9 33C9 32.7348 9.10536 32.4804 9.29289 32.2929C9.48043 32.1054 9.73478 32 10 32H26C26.2652 32 26.5196 32.1054 26.7071 32.2929C26.8946 32.4804 27 32.7348 27 33C27 33.2652 26.8946 33.5196 26.7071 33.7071C26.5196 33.8946 26.2652 34 26 34H10Z" fill="#011E41"/>
</svg>
