<?xml version="1.0" encoding="utf-8"?>
<!-- Generator: Adobe Illustrator 21.0.0, SVG Export Plug-In . SVG Version: 6.00 Build 0)  -->
<svg version="1.1" id="Layer_2" xmlns="http://www.w3.org/2000/svg" xmlns:xlink="http://www.w3.org/1999/xlink" x="0px" y="0px"
	 viewBox="0 0 323.7 227.4" style="enable-background:new 0 0 323.7 227.4;" xml:space="preserve">
<style type="text/css">
	.Arched_x0020_Green{fill:url(#SVGID_1_);stroke:#FFFFFF;stroke-width:0.25;stroke-miterlimit:1;}
	.st0{fill:#F58345;}
	.st1{fill:#ED1C24;}
</style>
<linearGradient id="SVGID_1_" gradientUnits="userSpaceOnUse" x1="-264.4074" y1="406.4665" x2="-263.7003" y2="405.7594">
	<stop  offset="0" style="stop-color:#1EAB4B"/>
	<stop  offset="0.9831" style="stop-color:#19361A"/>
</linearGradient>
<g>
	<path class="st0" d="M276.2,46.6c-3.5,4.7-11.2,12.5-22.2,10.1c-9.8-2.1-16.9-0.9-21.1,0.4c-3.1,1-3.9,0.4-1.8-1.5
		c3.4-3.1,10.4-6.9,23.7-4.9c19,2.9,31.1-17.6,27.4-32.9c-0.5-1.9-2-3.4-3.2-0.5c-2.3,5.6-9.6,14.3-32.6,17.1
		c-27.8,3.3-43.9,24-43.9,24c-3.4,4.4-10.8,16.7-9.9,17.8c1,1.1,14.3,6.4,9.6,23.8c-0.5,1.7,11.9,5.9,17.6,6.4c0,0,27,2.7,40.3-25.4
		c0.6-1.2-0.3-3.2-1.8-2.2c-3.6,2.3-10.7,5.8-18.7,4.6c-6.4-1-13.8-4.2-24.8,0.1c-1.5,0.6-3.9,0.6-2.1-1.2
		c3.6-3.9,11.2-8.4,24.5-4.9c18.5,4.8,40.8-8.5,41.4-29.8C278.6,46.3,277.6,44.7,276.2,46.6"/>
	<path class="st1" d="M180.1,39.8c3.6,0.5,7.1,3.3,10.6,8.3c3.5,5,5,9.5,4.4,13.4c-0.6,4.3-3.2,6.2-7.8,5.5c-1-0.1-1.6,0.1-1.6,0.7
		c-0.2,1.5,0.2,2.4,1.6,4.3c0.2,0.2,1.3,1.2,1.2,1.7c-0.2,0.7-6-1.7-7.7-4.2c-6.3-9.2-8.9-17.2-7.9-24.2
		C173.5,41.1,175.9,39.2,180.1,39.8"/>
	<path class="st1" d="M185.7,82.4c12.3-3,17.7,14.9,7.6,32.4c-3.5,6-15.1,20.7-14.8,16.4c0.3-4.1,9.5-32.7-3.2-49.6
		c-21.2-28.4-61.4-7.7-80.2,4.1C62.4,106,54.7,79.3,34.5,75.1C12.4,70.4,125.6,45.9,164,61C179.9,67.2,185.7,82.4,185.7,82.4"/>
	<path class="st1" d="M104.3,187.3l2.7,14.6h4.2l5.2-29.7h-4.4l-2.4,13.8c-0.4,2.2-0.6,7-0.6,7s-0.5-4.4-0.9-6.2l-2.7-14.6h-4.2
		L96,201.9h4.4l2.4-13.8c0.2-1.4,0.6-6.5,0.6-7C103.5,181.8,104.1,186.1,104.3,187.3 M128.2,187.7l0,0.2h-4c0.6-3.2,1.3-4.3,3-4.3
		C128.6,183.7,128.9,184.6,128.2,187.7 M130.7,196.6c-2.8,1.5-5.4,2.1-6.7,1.2c-1.2-0.8-1.1-2.5-0.5-6.2h8.6l0.9-4.7
		c0.9-5-1-6.9-5.2-6.9c-5.2,0-7.6,2.8-9,11.2c-1.6,9.4,1,11.2,5.2,11.2c2.5,0,4.6-0.8,6-1.3L130.7,196.6z M144.7,196.2l-0.8,0.7
		c-1,0.9-1.6,1.3-2.2,1.3c-0.9,0-1.6-0.2-0.4-7.1c1.2-6.9,2-7.1,2.9-7.1c0.6,0,1.1,0.2,1.7,1.2l0.5,0.7L144.7,196.2z M149.3,198.1
		l4.6-25.8h-4.9l-1.7,9.6c-1-1.1-2.6-1.8-3.8-1.8c-3.2,0-5.5,2.6-7,11.2c-1.5,8.6,0.2,11.2,3.4,11.2c1.5,0,3.3-1.1,4.9-2.5
		c0.3,1,0.8,1.8,1.3,2.1h4.7l0.7-3.8H149.3z M164.7,187.7l0,0.2h-4c0.6-3.2,1.3-4.3,3-4.3C165.1,183.7,165.4,184.6,164.7,187.7
		 M167.2,196.6c-2.8,1.5-5.4,2.1-6.7,1.2c-1.2-0.8-1.1-2.5-0.5-6.2h8.6l0.9-4.7c0.9-5-1-6.9-5.2-6.9c-5.2,0-7.6,2.8-9,11.2
		c-1.6,9.4,1,11.2,5.2,11.2c2.5,0,4.6-0.8,6-1.3L167.2,196.6z M179.3,183.9c0-1.8-0.8-3-1.5-3.5h-3c0.1,1.4-0.2,3.9-0.6,6l-2.7,15.5
		h4.9l2.4-13.6l1.6-1.2c1.8-1.3,2.9-1.5,4.2-1l1.1-6.1c-1.1,0-2.5,0.6-4,1.9L179.3,183.9z M190.8,198.1l4.6-25.8h-7.1l-0.7,3.8h2.2
		l-4.6,25.8h7.1l0.7-3.8H190.8z M205.6,196.2l-0.8,0.7c-1,0.9-1.6,1.3-2.1,1.3c-0.9,0-1.6-0.2-0.4-7.1c1.2-6.9,2-7.1,2.9-7.1
		c0.6,0,1.1,0.2,1.7,1.2l0.5,0.7L205.6,196.2z M208.8,182.5c-1.2-1.4-2.8-2.5-4.4-2.5c-3.2,0-5.5,2.6-7,11.2
		c-1.5,8.6,0.2,11.2,3.4,11.2c1.5,0,3.3-1.1,4.9-2.5c0.3,1,0.8,1.8,1.3,2.1h4.7l0.7-3.8h-2.2l2-11.7c0.4-2.1,1-4.6,1.5-6h-3
		C210.2,180.8,209.4,181.5,208.8,182.5 M223.7,201.9h7.1l0.7-3.8h-2.2l2.1-11.8c0.7-3.9,0.2-6.3-3.1-6.3c-1.5,0-3.2,0.7-4.8,2.1
		l-1,0.8c-0.3-1.2-0.9-2.1-1.5-2.5h-3c0.1,1.4-0.2,3.9-0.6,6l-2.7,15.5h4.9l2.7-15.1l1.1-1.1c1.1-1,1.8-1.4,2.4-1.4
		c0.7,0,0.9,0.5,0.7,2L223.7,201.9z M243.5,196.2l-0.8,0.7c-1,0.9-1.6,1.3-2.1,1.3c-0.9,0-1.6-0.2-0.4-7.1c1.2-6.9,2-7.1,2.9-7.1
		c0.6,0,1.1,0.2,1.7,1.2l0.5,0.7L243.5,196.2z M248.1,198.1l4.6-25.8h-4.9l-1.7,9.6c-1-1.1-2.6-1.8-3.8-1.8c-3.2,0-5.5,2.6-7,11.2
		c-1.5,8.6,0.2,11.2,3.4,11.2c1.5,0,3.3-1.1,4.9-2.5c0.3,1,0.8,1.8,1.3,2.1h4.7l0.7-3.8H248.1z"/>
	<path class="st1" d="M27.1,164.3l11.6-29.9h-4.7l-6.2,16.5c-0.8,2.2-2,6.3-2,6.3s0.3-4.1,0.2-6.3l-0.2-16.5h-5.1l1.1,29.9H27.1z
		 M42.9,160.4l4.6-26.1h-7.2l-0.7,3.9h2.3l-4.6,26.1h7.2l0.7-3.9H42.9z M57.8,158.2l-0.8,0.8c-1.1,1-1.8,1.4-2.4,1.4
		c-0.7,0-1-0.5-0.7-2l2.8-15.7h-4.9l-2.8,15.7c-0.7,3.9-0.2,6.4,3.1,6.4c1.6,0,3.1-0.7,4.9-2.1l0.8-0.6c0.3,1.2,0.9,2,1.4,2.3h4.8
		l0.7-3.9h-2.3l3.1-17.8h-4.9L57.8,158.2z M81.8,143.5c-1.4-0.6-3.4-1.1-5.3-1.1c-3.6,0-6.4,1.2-8.2,11.1
		c-1.7,9.7,0.9,11.1,4.8,11.1c2.1,0,3.6-0.4,5.2-1l0.9-5c-1.6,0.9-3.1,1.5-4.2,1.5c-1.6,0-2.7-0.4-1.6-6.6c1.1-6.2,2.3-6.6,3.9-6.6
		c1.2,0,2.4,0.3,3.7,1.3L81.8,143.5z M89.9,164.3h7.2l0.7-3.9h-2.3l2.1-11.9c0.7-4,0.2-6.4-3.1-6.4c-1.6,0-3.6,0.8-4.9,2.1l-0.1,0.1
		l1.8-10h-4.9l-5.3,29.9h4.9l2.7-15.6l0.8-0.8c1.1-1,1.8-1.4,2.4-1.4c0.7,0,1,0.5,0.7,2L89.9,164.3z M109.8,163.7l0.7-3.6
		c-0.5,0.2-1.6,0.3-2,0.3c-1.5,0-1.8-0.3-1.6-1.8l2.1-12.1h3.8l0.7-3.9h-3.8l0.9-4.9h-4.9l-0.9,4.9h-2.9l-0.7,3.9h2.9l-2.1,12.1
		c-0.9,4.8-0.4,5.9,3.3,5.9C107.4,164.5,109.1,164,109.8,163.7 M123.5,150l0,0.2h-4.1c0.7-3.2,1.3-4.3,3-4.3
		C123.9,145.9,124.1,146.8,123.5,150 M125.9,159c-2.8,1.6-5.5,2.1-6.8,1.2c-1.2-0.8-1.1-2.5-0.5-6.3h8.6l0.9-4.8
		c0.9-5-1-6.9-5.2-6.9c-5.2,0-7.6,2.9-9.1,11.3c-1.6,9.5,3,11.3,5.2,11.3c2.6,0,4.6-0.8,6.1-1.3L125.9,159z M134.9,160.4l4.6-26.1
		h-7.2l-0.7,3.9h2.3l-4.6,26.1h7.2l0.7-3.9H134.9z M146.5,160.4l3.1-17.8h-7.2l-0.7,3.9h2.3l-3.1,17.8h7.2l0.7-3.9H146.5z
		 M148.6,133.9c-1.6,0-3.2,1.3-3.5,2.9c-0.3,1.6,0.8,2.9,2.4,2.9c1.6,0,3.2-1.3,3.5-2.9C151.3,135.2,150.2,133.9,148.6,133.9
		 M160.8,164.3h7.2l0.7-3.9h-2.3l2.1-11.9c0.7-3.9,0.2-6.4-3.1-6.4c-1.6,0-3.2,0.7-4.9,2.1l-1,0.8c-0.3-1.3-0.9-2.1-1.5-2.5h-3
		c0.1,1.4-0.2,3.9-0.6,6.1l-2.7,15.6h4.9l2.7-15.3l1.1-1.1c1.1-1,1.8-1.4,2.4-1.4c0.7,0,1,0.5,0.7,2L160.8,164.3z M181.8,148.2
		l-1.8,10.3l-0.8,0.7c-1,1-1.6,1.3-2.2,1.3c-0.9,0-1.6-0.2-0.4-7.2c1.2-6.9,2-7.2,2.9-7.2c0.6,0,1.1,0.2,1.7,1.2L181.8,148.2z
		 M183.7,166l3-17.3c0.4-2.2,1-4.7,1.6-6.1h-3c-0.7,0.3-1.4,1.1-2.1,2.1c-1.2-1.4-2.9-2.6-4.4-2.6c-3.3,0-5.5,2.6-7.1,11.3
		c-1.5,8.7,0.2,11.3,3.4,11.3c1.2,0,2.7-0.7,4.2-1.9l-0.6,3.4c-0.3,1.7-1.6,2.6-3,2.6c-1.9,0-3.5-0.7-5.1-1.8l-0.8,4.4
		c1.3,0.5,3.3,1.4,5.9,1.4C180.1,173,182.7,171.4,183.7,166 M200.3,150l0,0.2h-4.1c0.7-3.2,1.3-4.3,3-4.3
		C200.7,145.9,200.9,146.8,200.3,150 M202.7,159c-2.8,1.6-5.5,2.1-6.8,1.2c-1.2-0.8-1.1-2.5-0.5-6.3h8.6l0.9-4.8
		c0.9-5-1-6.9-5.2-6.9c-5.2,0-7.6,2.9-9.1,11.3c-1.6,9.5,1,11.3,5.2,11.3c2.6,0,4.6-0.8,6.1-1.3L202.7,159z M216.1,164.3h7.2
		l0.7-3.9h-2.3l2.1-11.9c0.7-3.9,0.2-6.4-3.1-6.4c-1.6,0-3.2,0.7-4.9,2.1l-1,0.8c-0.3-1.3-0.9-2.1-1.5-2.5h-3
		c0.1,1.4-0.2,3.9-0.6,6.1l-2.7,15.6h4.9l2.7-15.3l1.1-1.1c1.1-1,1.8-1.4,2.4-1.4c0.7,0,1,0.5,0.7,2L216.1,164.3z M245.8,149.5
		l-0.2-15.1h-3.5l-5.8,15.1c-1,2.5-2.1,6.9-2.2,7.2c0-0.3,0.3-4.7,0.4-7.2l0.3-15.1h-5l0.4,29.9h4.5l5-13.1c0.8-2.1,1.9-5.8,2-6
		c0,0.1-0.2,3.9-0.2,6l0.4,13.1h4.5l11-29.9h-4.6l-5.3,15.1c-0.9,2.5-2,6.8-2.1,7.2C245.5,156.2,245.8,152,245.8,149.5 M265.1,150
		l0,0.2H261c0.7-3.2,1.3-4.3,3-4.3C265.5,145.9,265.7,146.8,265.1,150 M267.6,159c-2.8,1.6-5.5,2.1-6.8,1.2
		c-1.2-0.8-1.1-2.5-0.5-6.3h8.6l0.9-4.8c0.9-5-1-6.9-5.2-6.9c-5.2,0-7.6,2.9-9.1,11.3c-1.6,9.5,1,11.3,5.2,11.3
		c2.6,0,4.6-0.8,6.1-1.3L267.6,159z M279.8,146.1c0-1.8-0.8-3-1.6-3.5h-3c0.1,1.4-0.2,3.9-0.6,6.1l-2.7,15.6h4.9l2.4-13.7l1.6-1.2
		c1.8-1.3,2.9-1.5,4.2-1l1.1-6.2c-1.1,0-2.5,0.6-4,1.9L279.8,146.1z M295,164.3h5.4l0.7-3.9h-2.2l-1.9-9.5l7.3-8.4h-5l-4.1,4.8
		c-1.6,1.8-2.8,3.7-2.8,3.7s0.4-2.1,0.6-3.1l2.4-13.6h-4.8l-5.3,29.9h4.8l1.2-6.9l2-2.3L295,164.3z"/>
</g>
</svg>
