<svg width="48" height="48" viewBox="0 0 48 48" fill="none" xmlns="http://www.w3.org/2000/svg">
<path d="M32.0104 14.058V2C32.0104 1.46957 31.7997 0.960859 31.4246 0.585786C31.0495 0.210714 30.5408 0 30.0104 0C29.48 0 28.9712 0.210714 28.5962 0.585786C28.2211 0.960859 28.0104 1.46957 28.0104 2V14H20.0104V12C20.0104 11.7348 19.905 11.4804 19.7175 11.2929C19.53 11.1054 19.2756 11 19.0104 11H17.0104C16.7452 11 16.4908 11.1054 16.3033 11.2929C16.1157 11.4804 16.0104 11.7348 16.0104 12V14.055C15.4105 14.2241 14.8851 14.5902 14.5186 15.0943C14.1522 15.5984 13.9661 16.2112 13.9904 16.834V28.167C13.9845 28.6106 14.0785 29.0498 14.2654 29.4521C14.4524 29.8544 14.7275 30.2095 15.0704 30.491V44.899C15.0728 45.7205 15.4001 46.5078 15.9809 47.0888C16.5617 47.6698 17.3489 47.9974 18.1704 48H29.9104C30.7317 47.9974 31.5187 47.6699 32.0995 47.0891C32.6803 46.5083 33.0078 45.7214 33.0104 44.9V30.415C33.3288 30.1337 33.5829 29.7872 33.7554 29.3989C33.928 29.0107 34.0149 28.5898 34.0104 28.165V16.834C34.0343 16.2145 33.8504 15.6049 33.488 15.1019C33.1256 14.5989 32.6055 14.2315 32.0104 14.058V14.058ZM29.0104 41.25C29.0091 41.3499 28.9881 41.4485 28.9486 41.5403C28.9092 41.6321 28.852 41.7152 28.7804 41.7849C28.7088 41.8545 28.6241 41.9094 28.5313 41.9463C28.4385 41.9832 28.3393 42.0015 28.2394 42H19.7594C19.6595 42.0015 19.5603 41.9832 19.4675 41.9463C19.3746 41.9094 19.29 41.8545 19.2184 41.7849C19.1468 41.7152 19.0896 41.6321 19.0501 41.5403C19.0107 41.4485 18.9897 41.3499 18.9884 41.25V36.75C18.9897 36.6502 19.0106 36.5516 19.05 36.4599C19.0895 36.3682 19.1465 36.2852 19.218 36.2155C19.2895 36.1459 19.3741 36.091 19.4668 36.054C19.5595 36.017 19.6586 35.9987 19.7584 36H28.2394C28.3393 35.9985 28.4385 36.0168 28.5313 36.0537C28.6241 36.0906 28.7088 36.1455 28.7804 36.2151C28.852 36.2848 28.9092 36.3679 28.9486 36.4597C28.9881 36.5515 29.0091 36.6501 29.0104 36.75V41.25ZM29.0104 29H18.9904C18.7252 29 18.4708 28.8946 18.2833 28.7071C18.0957 28.5196 17.9904 28.2652 17.9904 28C17.9904 27.7348 18.0957 27.4804 18.2833 27.2929C18.4708 27.1054 18.7252 27 18.9904 27H29.0104C29.2756 27 29.53 27.1054 29.7175 27.2929C29.905 27.4804 30.0104 27.7348 30.0104 28C30.0104 28.2652 29.905 28.5196 29.7175 28.7071C29.53 28.8946 29.2756 29 29.0104 29ZM29.0104 25H18.9904C18.7252 25 18.4708 24.8946 18.2833 24.7071C18.0957 24.5196 17.9904 24.2652 17.9904 24C17.9904 23.7348 18.0957 23.4804 18.2833 23.2929C18.4708 23.1054 18.7252 23 18.9904 23H29.0104C29.2756 23 29.53 23.1054 29.7175 23.2929C29.905 23.4804 30.0104 23.7348 30.0104 24C30.0104 24.2652 29.905 24.5196 29.7175 24.7071C29.53 24.8946 29.2756 25 29.0104 25ZM29.0104 21H18.9904C18.7252 21 18.4708 20.8946 18.2833 20.7071C18.0957 20.5196 17.9904 20.2652 17.9904 20C17.9904 19.7348 18.0957 19.4804 18.2833 19.2929C18.4708 19.1054 18.7252 19 18.9904 19H29.0104C29.2756 19 29.53 19.1054 29.7175 19.2929C29.905 19.4804 30.0104 19.7348 30.0104 20C30.0104 20.2652 29.905 20.5196 29.7175 20.7071C29.53 20.8946 29.2756 21 29.0104 21Z" fill="#011E41"/>
</svg>
