<svg width="48" height="48" viewBox="0 0 48 48" fill="none" xmlns="http://www.w3.org/2000/svg">
<path d="M38.1781 2.72826e-07H9.82097C8.67507 -0.00028631 7.54035 0.225204 6.48162 0.663588C5.42289 1.10197 4.46091 1.74466 3.65064 2.55493C2.84036 3.36521 2.19768 4.32719 1.75929 5.38592C1.32091 6.44464 1.09542 7.57937 1.0957 8.72527V29.4478C1.09542 30.5937 1.32091 31.7284 1.75929 32.7871C2.19768 33.8459 2.84036 34.8079 3.65064 35.6181C4.46091 36.4284 5.42289 37.0711 6.48162 37.5095C7.54035 37.9479 8.67507 38.1733 9.82097 38.1731H25.0902L34.6989 47.7818C34.8063 47.887 34.9423 47.9582 35.09 47.9864C35.2377 48.0147 35.3904 47.9986 35.5291 47.9404C35.6677 47.8822 35.786 47.7843 35.8692 47.659C35.9524 47.5338 35.9968 47.3868 35.9968 47.2364V38.1731H38.1781C39.324 38.1733 40.4587 37.9479 41.5175 37.5095C42.5762 37.0711 43.5382 36.4284 44.3484 35.6181C45.1587 34.8079 45.8014 33.8459 46.2398 32.7871C46.6782 31.7284 46.9037 30.5937 46.9034 29.4478V8.72527C46.9037 7.57937 46.6782 6.44464 46.2398 5.38592C45.8014 4.32719 45.1587 3.36521 44.3484 2.55493C43.5382 1.74466 42.5762 1.10197 41.5175 0.663588C40.4587 0.225204 39.324 -0.00028631 38.1781 2.72826e-07V2.72826e-07ZM23.9995 30.5384C23.5681 30.5384 23.1464 30.4105 22.7877 30.1708C22.4289 29.9311 22.1494 29.5905 21.9843 29.1919C21.8192 28.7933 21.776 28.3547 21.8601 27.9316C21.9443 27.5084 22.1521 27.1198 22.4571 26.8147C22.7622 26.5096 23.1508 26.3019 23.574 26.2177C23.9971 26.1336 24.4357 26.1768 24.8343 26.3419C25.2329 26.507 25.5736 26.7865 25.8132 27.1453C26.0529 27.504 26.1809 27.9257 26.1809 28.3571C26.1791 28.9351 25.9488 29.4889 25.5401 29.8976C25.1314 30.3063 24.5775 30.5367 23.9995 30.5384ZM26.1809 20.7225C26.1809 21.301 25.951 21.8559 25.542 22.2649C25.1329 22.674 24.5781 22.9038 23.9995 22.9038C23.421 22.9038 22.8662 22.674 22.4571 22.2649C22.048 21.8559 21.8182 21.301 21.8182 20.7225V8.72527C21.8182 8.14675 22.048 7.59192 22.4571 7.18285C22.8662 6.77377 23.421 6.54395 23.9995 6.54395C24.5781 6.54395 25.1329 6.77377 25.542 7.18285C25.951 7.59192 26.1809 8.14675 26.1809 8.72527V20.7225Z" fill="#011E41"/>
</svg>
