<svg width="48" height="48" viewBox="0 0 48 48" fill="none" xmlns="http://www.w3.org/2000/svg">
<g clip-path="url(#clip0_109_2973)">
<path fill-rule="evenodd" clip-rule="evenodd" d="M45.6 0H2.4C1.76406 0.00189927 1.15472 0.255366 0.705042 0.705042C0.255366 1.15472 0.00189927 1.76406 0 2.4V45.6C0.00189927 46.2359 0.255366 46.8453 0.705042 47.295C1.15472 47.7446 1.76406 47.9981 2.4 48H45.6C46.2359 47.9981 46.8453 47.7446 47.295 47.295C47.7446 46.8453 47.9981 46.2359 48 45.6V2.4C47.9981 1.76406 47.7446 1.15472 47.295 0.705042C46.8453 0.255366 46.2359 0.00189927 45.6 0ZM11 3H3V10H11V3ZM14 3H45V10H14V3ZM16.222 17.3594C18.5243 15.8211 21.2311 15 24 15C27.713 15 31.274 16.475 33.8995 19.1005C36.525 21.726 38 25.287 38 29C38 31.7689 37.1789 34.4757 35.6406 36.778C34.1022 39.0803 31.9157 40.8747 29.3576 41.9343C26.7994 42.9939 23.9845 43.2712 21.2687 42.731C18.553 42.1908 16.0584 40.8574 14.1005 38.8995C12.1426 36.9416 10.8092 34.447 10.269 31.7313C9.7288 29.0155 10.006 26.2006 11.0657 23.6424C12.1253 21.0843 13.9197 18.8978 16.222 17.3594ZM18.1665 37.7304C19.8932 38.8842 21.9233 39.5 24 39.5C26.7838 39.4969 29.4527 38.3897 31.4212 36.4212C33.3897 34.4527 34.4969 31.7838 34.5 29C34.5 26.9233 33.8842 24.8932 32.7304 23.1665C31.5767 21.4398 29.9368 20.094 28.0182 19.2993C26.0995 18.5045 23.9883 18.2966 21.9515 18.7017C19.9147 19.1069 18.0438 20.1069 16.5754 21.5754C15.1069 23.0438 14.1069 24.9147 13.7017 26.9515C13.2966 28.9883 13.5045 31.0995 14.2993 33.0182C15.094 34.9368 16.4398 36.5767 18.1665 37.7304Z" fill="#011E41"/>
<path d="M29.5 5C29.2033 5 28.9133 5.08797 28.6666 5.2528C28.42 5.41762 28.2277 5.65189 28.1142 5.92597C28.0006 6.20006 27.9709 6.50166 28.0288 6.79264C28.0867 7.08361 28.2296 7.35088 28.4393 7.56066C28.6491 7.77044 28.9164 7.9133 29.2074 7.97118C29.4983 8.02906 29.7999 7.99935 30.074 7.88582C30.3481 7.77229 30.5824 7.58003 30.7472 7.33335C30.912 7.08668 31 6.79667 31 6.5C31 6.30301 30.9612 6.10794 30.8859 5.92594C30.8105 5.74394 30.7 5.57857 30.5607 5.43928C30.4214 5.29999 30.2561 5.1895 30.0741 5.11413C29.8921 5.03875 29.697 4.99997 29.5 5Z" fill="#011E41"/>
<path d="M35.5 5C35.2033 5 34.9133 5.08797 34.6666 5.2528C34.42 5.41762 34.2277 5.65189 34.1142 5.92597C34.0006 6.20006 33.9709 6.50166 34.0288 6.79264C34.0867 7.08361 34.2296 7.35088 34.4393 7.56066C34.6491 7.77044 34.9164 7.9133 35.2074 7.97118C35.4983 8.02906 35.7999 7.99935 36.074 7.88582C36.3481 7.77229 36.5824 7.58003 36.7472 7.33335C36.912 7.08668 37 6.79667 37 6.5C37 6.30301 36.9612 6.10794 36.8859 5.92594C36.8105 5.74394 36.7 5.57857 36.5607 5.43928C36.4214 5.29999 36.2561 5.1895 36.0741 5.11413C35.8921 5.03875 35.697 4.99997 35.5 5Z" fill="#011E41"/>
<path d="M41.5 5C41.2033 5 40.9133 5.08797 40.6666 5.2528C40.42 5.41762 40.2277 5.65189 40.1142 5.92597C40.0006 6.20006 39.9709 6.50166 40.0288 6.79264C40.0867 7.08361 40.2296 7.35088 40.4393 7.56066C40.6491 7.77044 40.9164 7.9133 41.2074 7.97118C41.4983 8.02906 41.7999 7.99935 42.074 7.88582C42.3481 7.77229 42.5824 7.58003 42.7472 7.33335C42.912 7.08668 43 6.79667 43 6.5C43 6.30301 42.9612 6.10794 42.8859 5.92594C42.8105 5.74394 42.7 5.57857 42.5607 5.43928C42.4214 5.29999 42.2561 5.1895 42.0741 5.11413C41.8921 5.03875 41.697 4.99997 41.5 5Z" fill="#011E41"/>
</g>
<defs>
<clipPath id="clip0_109_2973">
<rect width="48" height="48" fill="white"/>
</clipPath>
</defs>
</svg>
