<svg width="48" height="48" viewBox="0 0 48 48" fill="none" xmlns="http://www.w3.org/2000/svg">
<g clip-path="url(#clip0_74_1504)">
<path fill-rule="evenodd" clip-rule="evenodd" d="M43 23V21C42.9987 19.4091 42.3661 17.8838 41.2412 16.7588C40.1162 15.6339 38.5909 15.0013 37 15H33V12C33.0005 11.6059 32.9233 11.2155 32.7727 10.8513C32.6221 10.4871 32.4012 10.1562 32.1225 9.87751C31.8438 9.59883 31.5129 9.37787 31.1487 9.22729C30.7845 9.07671 30.3941 8.99948 30 9H3C2.60589 8.99948 2.21554 9.07671 1.85133 9.22729C1.48712 9.37787 1.15619 9.59883 0.877508 9.87751C0.598827 10.1562 0.377869 10.4871 0.227292 10.8513C0.0767141 11.2155 -0.000523864 11.6059 2.67404e-06 12V35H5C5 33.4087 5.63214 31.8826 6.75736 30.7574C7.88258 29.6321 9.4087 29 11 29C12.5913 29 14.1174 29.6321 15.2426 30.7574C16.3679 31.8826 17 33.4087 17 35H29C29 33.4087 29.6321 31.8826 30.7574 30.7574C31.8826 29.6321 33.4087 29 35 29C36.5913 29 38.1174 29.6321 39.2426 30.7574C40.3679 31.8826 41 33.4087 41 35H46C46.53 34.9984 47.0377 34.7872 47.4125 34.4125C47.7872 34.0377 47.9984 33.5299 48 33V28C47.9995 26.6741 47.4725 25.4026 46.535 24.4651C45.5974 23.5275 44.3259 23.0005 43 23V23ZM17 25C16.476 25.0016 15.9567 24.8999 15.472 24.7006C14.9873 24.5014 14.5466 24.2087 14.1751 23.839C13.8036 23.4694 13.5086 23.0302 13.307 22.5465C13.1054 22.0628 13.0011 21.5441 13 21.02C13 19.02 16.28 14.83 16.9 14.05C16.9111 14.0337 16.926 14.0204 16.9434 14.0112C16.9609 14.0019 16.9803 13.9971 17 13.9971C17.0197 13.9971 17.0391 14.0019 17.0566 14.0112C17.074 14.0204 17.0889 14.0337 17.1 14.05C17.72 14.83 21 19.02 21 21.02C20.999 21.5441 20.8946 22.0628 20.693 22.5465C20.4914 23.0302 20.1964 23.4694 19.8249 23.839C19.4534 24.2087 19.0127 24.5014 18.528 24.7006C18.0433 24.8999 17.524 25.0016 17 25V25ZM37 18C37.3941 17.9995 37.7845 18.0767 38.1487 18.2273C38.5129 18.3779 38.8438 18.5988 39.1225 18.8775C39.4012 19.1562 39.6221 19.4871 39.7727 19.8513C39.9233 20.2155 40.0005 20.6059 40 21V23H33V18H37Z" fill="#011E41"/>
<path d="M11 39C13.2091 39 15 37.2091 15 35C15 32.7909 13.2091 31 11 31C8.79086 31 7 32.7909 7 35C7 37.2091 8.79086 39 11 39Z" fill="#011E41"/>
<path d="M35 39C37.2091 39 39 37.2091 39 35C39 32.7909 37.2091 31 35 31C32.7909 31 31 32.7909 31 35C31 37.2091 32.7909 39 35 39Z" fill="#011E41"/>
</g>
<defs>
<clipPath id="clip0_74_1504">
<rect width="48" height="48" fill="white"/>
</clipPath>
</defs>
</svg>
