<svg width="48" height="48" viewBox="0 0 48 48" fill="none" xmlns="http://www.w3.org/2000/svg">
<g clip-path="url(#clip0_74_1502)">
<path d="M24.4291 0.210149C24.3782 0.144711 24.3129 0.0917656 24.2384 0.0553478C24.1639 0.0189299 24.0821 0 23.9991 0C23.9162 0 23.8343 0.0189299 23.7598 0.0553478C23.6853 0.0917656 23.6201 0.144711 23.5691 0.210149C20.9291 3.61015 6.99911 21.9201 6.99911 30.6101C6.94843 35.1702 8.71078 39.5638 11.8987 42.8248C15.0866 46.0859 19.439 47.9474 23.9991 48.0001C28.5592 47.9474 32.9116 46.0859 36.0995 42.8248C39.2874 39.5638 41.0498 35.1702 40.9991 30.6101C40.9991 21.9201 27.0691 3.61015 24.4291 0.210149V0.210149ZM28.4991 41.0001C28.1013 41.0001 27.7198 40.8421 27.4385 40.5608C27.1571 40.2795 26.9991 39.898 26.9991 39.5001C26.9991 39.1023 27.1571 38.7208 27.4385 38.4395C27.7198 38.1582 28.1013 38.0001 28.4991 38.0001C30.9791 38.0001 32.9991 35.5301 32.9991 32.5001C32.9991 32.1023 33.1571 31.7208 33.4385 31.4395C33.7198 31.1582 34.1013 31.0001 34.4991 31.0001C34.8969 31.0001 35.2785 31.1582 35.5598 31.4395C35.8411 31.7208 35.9991 32.1023 35.9991 32.5001C35.9991 37.1901 32.6391 41.0001 28.4991 41.0001Z" fill="#011E41"/>
</g>
<defs>
<clipPath id="clip0_74_1502">
<rect width="48" height="48" fill="white"/>
</clipPath>
</defs>
</svg>
