<svg width="48" height="48" viewBox="0 0 48 48" fill="none" xmlns="http://www.w3.org/2000/svg">
<path d="M42.32 31.1777C43.564 32.8717 48 39.1287 48 41.9877C48 43.579 47.3679 45.1051 46.2426 46.2304C45.1174 47.3556 43.5913 47.9877 42 47.9877C40.4087 47.9877 38.8826 47.3556 37.7574 46.2304C36.6321 45.1051 36 43.579 36 41.9877C36 39.1287 40.436 32.8717 41.68 31.1777C41.7162 31.1265 41.7642 31.0848 41.8198 31.056C41.8755 31.0272 41.9373 31.0121 42 31.0121C42.0627 31.0121 42.1245 31.0272 42.1802 31.056C42.2358 31.0848 42.2838 31.1265 42.32 31.1777V31.1777ZM2 1.01172H5C5.53043 1.01172 6.03914 1.22243 6.41421 1.59751C6.78929 1.97258 7 2.48129 7 3.01172V8.01172H19V3.01172H14.5C14.1022 3.01172 13.7206 2.85368 13.4393 2.57238C13.158 2.29107 13 1.90954 13 1.51172C13 1.11389 13.158 0.732363 13.4393 0.451059C13.7206 0.169754 14.1022 0.0117188 14.5 0.0117188L28.5 0.0117188C28.8978 0.0117188 29.2794 0.169754 29.5607 0.451059C29.842 0.732363 30 1.11389 30 1.51172C30 1.90954 29.842 2.29107 29.5607 2.57238C29.2794 2.85368 28.8978 3.01172 28.5 3.01172H24V8.01172H34.147C37.2896 8.01516 40.3024 9.26506 42.5245 11.4872C44.7467 13.7093 45.9966 16.7222 46 19.8647V22.0117H47C47.2652 22.0117 47.5196 22.1171 47.7071 22.3046C47.8946 22.4921 48 22.7465 48 23.0117V26.0117C48 26.2769 47.8946 26.5313 47.7071 26.7188C47.5196 26.9064 47.2652 27.0117 47 27.0117H37C36.7348 27.0117 36.4804 26.9064 36.2929 26.7188C36.1054 26.5313 36 26.2769 36 26.0117V23.0117C36 22.7465 36.1054 22.4921 36.2929 22.3046C36.4804 22.1171 36.7348 22.0117 37 22.0117H38V19.8647C37.9989 18.8432 37.5927 17.8638 36.8703 17.1414C36.148 16.4191 35.1686 16.0128 34.147 16.0117H7V21.0117C7 21.5422 6.78929 22.0509 6.41421 22.4259C6.03914 22.801 5.53043 23.0117 5 23.0117H2C1.46957 23.0117 0.960859 22.801 0.585786 22.4259C0.210714 22.0509 0 21.5422 0 21.0117V3.01172C0 2.48129 0.210714 1.97258 0.585786 1.59751C0.960859 1.22243 1.46957 1.01172 2 1.01172V1.01172Z" fill="#011E41"/>
</svg>
