<?xml version="1.0" encoding="utf-8"?>
<!-- Generator: Adobe Illustrator 25.2.1, SVG Export Plug-In . SVG Version: 6.00 Build 0)  -->
<svg version="1.1" id="Layer_1" xmlns="http://www.w3.org/2000/svg" xmlns:xlink="http://www.w3.org/1999/xlink" x="0px" y="0px"
	 viewBox="0 0 48 48" style="enable-background:new 0 0 48 48;" xml:space="preserve">
<style type="text/css">
	.st0{fill:#F5F5F5;}
	.st1{fill:#7AC3A3;}
	.st2{fill:#706F6F;}
	.st3{fill:#8C8C8C;}
	.st4{fill:#B3B3B3;}
	.st5{fill:#F4F4F4;}
</style>
<g>
	<path class="st0" d="M47.99,24c0,7.92,0,15.83,0.01,23.75c0,0.2-0.05,0.25-0.25,0.25c-15.83-0.01-31.67-0.01-47.5,0
		C0.05,48,0,47.95,0,47.75c0.01-15.83,0.01-31.67,0-47.5C0,0.05,0.05,0,0.25,0c15.83,0.01,31.67,0.01,47.5,0
		C47.95,0,48,0.05,48,0.25C47.99,8.17,47.99,16.08,47.99,24z"/>
	<path class="st1" d="M16.19,20.53c-0.46,0-0.46-0.01-0.41-0.43c0.07-0.54,0.14-1.07,0.2-1.61c0.02-0.18,0.01-0.36-0.01-0.54
		c-0.07-0.92,0.06-1.82,0.44-2.66c0.22-0.49,0.57-0.86,1.04-1.14c0.58-0.36,0.88-0.96,1.2-1.54c0.04-0.07-0.01-0.12-0.03-0.18
		c-0.27-0.71-0.15-1.19,0.47-1.66c0.25-0.19,0.43-0.36,0.46-0.72c0.03-0.5,0.37-0.63,0.86-0.49c0.42,0.12,0.81,0.32,1.26,0.38
		c0.81,0.11,1.61,0.95,1.77,1.75c0.06,0.31-0.01,0.58-0.26,0.77c-0.11,0.09-0.16,0.19-0.17,0.32c-0.05,0.34-0.21,0.62-0.45,0.85
		c-0.19,0.18-0.27,0.39-0.27,0.65c0,0.27-0.1,0.35-0.37,0.32c-0.23-0.02-0.47,0.1-0.57,0.24c-0.28,0.41-0.63,0.23-0.97,0.21
		c-0.1-0.01-0.2-0.17-0.28-0.03c-0.1,0.15-0.25,0.31-0.18,0.52c0.15,0.45,0.38,0.85,0.63,1.25c0.03,0.05,0.09,0.08,0.15,0.11
		c0.95,0.43,1.39,1.22,1.53,2.2c0.04,0.28,0.14,0.52,0.31,0.76c0.55,0.76,0.97,1.58,1.07,2.53c0.02,0.19-0.04,0.21-0.19,0.21
		c-0.41,0-0.41,0.01-0.49-0.39c-0.13-0.67-0.4-1.28-0.79-1.82c-0.3-0.42-0.46-0.84-0.5-1.35c-0.07-0.8-0.46-1.43-1.21-1.79
		c-0.07-0.04-0.15-0.07-0.18-0.15c-0.24-0.48-0.5-0.96-0.63-1.49c-0.05-0.22,0.18-0.78,0.37-0.88c0.08-0.05,0.2-0.06,0.26-0.02
		c0.19,0.14,0.43,0.04,0.61,0.16c0.1,0.06,0.17,0,0.23-0.08c0.12-0.17,0.66-0.46,0.84-0.42c0.15,0.03,0.15-0.06,0.15-0.15
		c-0.01-0.3,0.11-0.53,0.32-0.74c0.25-0.25,0.39-0.56,0.38-0.92c0-0.09,0.02-0.14,0.1-0.2c0.29-0.2,0.35-0.36,0.25-0.69
		c-0.19-0.63-1.02-1.3-1.67-1.34c-0.17-0.01-0.32,0.05-0.47,0.11c-0.12,0.05-0.18,0.03-0.22-0.1c-0.04-0.11-0.49-0.32-0.6-0.28
		c-0.1,0.03-0.1,0.13-0.09,0.2c0.05,0.4-0.12,0.67-0.46,0.88c-0.13,0.08-0.23,0.2-0.33,0.32c-0.18,0.22-0.22,0.46-0.07,0.7
		c0.18,0.31,0.16,0.6-0.02,0.92c-0.29,0.5-0.58,1-0.99,1.41c-0.13,0.13-0.27,0.24-0.42,0.33c-0.58,0.34-0.78,0.92-0.91,1.53
		c-0.13,0.63-0.16,1.26-0.08,1.91c0.03,0.24-0.06,0.5-0.09,0.75c-0.05,0.4-0.12,0.8-0.14,1.21C16.55,20.51,16.41,20.58,16.19,20.53z
		"/>
	<path class="st2" d="M14.18,29.72c0.66,0.04,1.3-0.04,1.94-0.06c0.07,0,0.14,0,0.14-0.11c0-0.7,0.42-1.19,0.86-1.66
		c0.34-0.37,0.77-0.62,1.27-0.73c0.23-0.05,0.44-0.02,0.57,0.2c0.12,0.21,0.04,0.4-0.1,0.57c-0.07,0.09-0.15,0.16-0.28,0.13
		c-0.17-0.04-0.16-0.19-0.17-0.34c-0.7,0.31-1.21,0.81-1.55,1.47c-0.16,0.3-0.1,0.38,0.22,0.44c0.71,0.13,1.59-0.47,1.69-1.17
		c0.03-0.18,0.1-0.29,0.29-0.29c0.19-0.01,0.28,0.11,0.31,0.28c0.01,0.07,0.02,0.15,0,0.21c-0.24,0.88-0.08,1.75,0,2.63
		c0.09,0.97,0.04,1.92-0.61,2.73c-0.53,0.67-1.25,0.87-2.06,0.71c-0.75-0.15-1.3-0.55-1.55-1.31c-0.02-0.05-0.04-0.1-0.04-0.16
		c-0.02-0.13-0.03-0.26,0.13-0.31c0.17-0.05,0.26,0.05,0.29,0.2c0.12,0.45,0.42,0.75,0.84,0.93c1.17,0.5,2.09-0.12,2.37-1.31
		c0.18-0.75,0.05-1.51-0.02-2.26c-0.02-0.25-0.04-0.5-0.06-0.79c-0.36,0.23-0.7,0.41-1.11,0.44c-0.35,0.02-0.69,0.02-0.99-0.17
		c-0.13-0.08-0.25-0.03-0.37-0.01c-0.69,0.11-1.38,0.25-2.09,0.24c-0.31,0-0.62-0.02-0.88-0.21c-0.09-0.06-0.15-0.02-0.23,0
		c-0.21,0.07-0.43,0.15-0.65,0.19c-0.48,0.1-0.79-0.12-0.87-0.6c-0.08-0.47-0.05-0.95-0.05-1.43c0-0.18,0.1-0.28,0.29-0.28
		c0.2,0,0.27,0.11,0.26,0.29c-0.01,0.4-0.03,0.79,0.03,1.19c0.05,0.31,0.13,0.38,0.45,0.37c0.07,0,0.14-0.01,0.22-0.01
		c0.23,0,0.31-0.08,0.34-0.34c0.12-0.93,0.61-1.62,1.47-2.02c0.26-0.12,0.55-0.16,0.79,0.05c0.25,0.22,0.24,0.51,0.16,0.8
		c-0.16,0.6-0.57,0.99-1.05,1.33C14.32,29.61,14.22,29.62,14.18,29.72z"/>
	<path class="st2" d="M7.3,27.42c-0.37,0.76-0.72,1.48-1.07,2.2c-0.15,0.31-0.32,0.61-0.54,0.87c-0.1,0.11-0.21,0.2-0.38,0.17
		c-0.16-0.04-0.18-0.18-0.22-0.31C4.56,28.68,4,27.04,3.14,25.51c-0.23-0.4-0.48-0.79-0.84-1.08c-0.14-0.12-0.18-0.26-0.06-0.4
		C2.36,23.88,2.51,23.9,2.65,24c0.31,0.22,0.54,0.53,0.73,0.86c0.87,1.42,1.45,2.96,1.98,4.52c0.04,0.11,0.08,0.22,0.13,0.37
		c0.3-0.49,0.54-0.98,0.77-1.47c0.27-0.56,0.52-1.13,0.77-1.7c0.07-0.15,0.14-0.31,0.34-0.3c0.21,0.01,0.27,0.18,0.3,0.36
		c0.2,0.93,0.53,1.81,0.9,2.74c0.11-0.75,0.19-1.44,0.3-2.13c0.3-1.85,0.98-3.52,2.4-4.82c1.08-0.99,2.39-1.45,3.82-1.6
		c0.39-0.04,0.77-0.04,1.16-0.02c0.09,0,0.26-0.04,0.26,0.11c0,0.17-0.17,0.09-0.26,0.09c-1.13,0.1-2.24,0.26-3.26,0.79
		c-1.46,0.75-2.39,1.97-2.98,3.47c-0.43,1.1-0.67,2.24-0.77,3.41c-0.04,0.43-0.1,0.86-0.16,1.29c-0.03,0.18-0.09,0.36-0.3,0.41
		c-0.22,0.05-0.35-0.1-0.46-0.26c-0.32-0.51-0.5-1.08-0.7-1.64C7.53,28.15,7.42,27.8,7.3,27.42z"/>
	<path class="st2" d="M23.67,24.87c0.02,0.61-0.04,1.32-0.06,2.04c0,0.21,0.05,0.27,0.26,0.24c1.22-0.15,2.43-0.34,3.63-0.57
		c0.12-0.02,0.18-0.06,0.18-0.21c-0.03-1.21,0-2.42-0.11-3.62c-0.01-0.14-0.04-0.28-0.11-0.41c-0.1-0.18-0.04-0.32,0.14-0.4
		c0.18-0.08,0.3,0.02,0.37,0.17c0.16,0.34,0.17,0.72,0.19,1.08c0.05,0.99,0.07,1.98,0.05,2.98c0,0.22,0.04,0.27,0.27,0.22
		c1.06-0.23,2.12-0.44,3.18-0.64c0.09-0.02,0.25-0.15,0.29,0.03c0.04,0.17-0.14,0.15-0.24,0.18c-1.08,0.31-2.17,0.62-3.25,0.92
		c-0.18,0.05-0.24,0.11-0.23,0.31c0.06,0.83,0.01,1.66,0.2,2.48c0.03,0.11,0.07,0.22,0.1,0.33c0.05,0.17,0.02,0.31-0.15,0.38
		c-0.17,0.07-0.29-0.01-0.36-0.15c-0.17-0.32-0.21-0.67-0.24-1.02c-0.05-0.65-0.08-1.3-0.1-1.94c-0.01-0.17-0.06-0.19-0.2-0.16
		c-1.08,0.26-2.17,0.47-3.27,0.62c-0.02,0-0.04,0.01-0.05,0.01c-0.18,0.05-0.43-0.06-0.53,0.1c-0.08,0.15-0.03,0.37-0.03,0.56
		c0,0.46-0.01,0.92,0.11,1.37c0.03,0.12,0.03,0.24,0.21,0.16c0.11-0.05,0.21,0.01,0.26,0.13c0.05,0.11,0,0.19-0.07,0.27
		c-0.23,0.24-0.63,0.16-0.82-0.17c-0.16-0.29-0.21-0.61-0.23-0.94c-0.02-0.39-0.02-0.78-0.02-1.16c0-0.18-0.04-0.26-0.24-0.25
		c-0.33,0.02-0.65-0.01-0.96-0.11c-0.28-0.09-0.51-0.24-0.55-0.56c-0.02-0.13,0.03-0.25,0.16-0.31c0.14-0.06,0.29-0.03,0.33,0.09
		c0.09,0.26,0.31,0.25,0.51,0.28c0.71,0.12,0.76,0.08,0.77-0.63c0.02-0.95,0.03-1.89,0.05-2.84c0-0.2,0.03-0.37,0.28-0.37
		c0.26,0,0.27,0.18,0.27,0.38C23.67,24.06,23.67,24.41,23.67,24.87z"/>
	<path class="st2" d="M43.33,28.22c-0.5,0.48-0.83,1.09-1.24,1.63c-0.21,0.27-0.25,0.28-0.54,0.09c-0.09-0.06-0.17-0.03-0.26-0.01
		c-0.79,0.14-1.58,0.3-2.38,0.29c-0.23,0-0.45-0.03-0.66-0.11c-0.29-0.11-0.4-0.3-0.4-0.61c0.01-0.84,0.75-1.88,1.55-2.14
		c0.63-0.21,1.05,0.15,0.92,0.8c-0.13,0.64-0.57,1.05-1.07,1.4c-0.07,0.05-0.13,0.09-0.27,0.17c0.36,0,0.65,0.01,0.94,0
		c0.47-0.02,0.93-0.07,1.4-0.09c0.17-0.01,0.21-0.06,0.21-0.22c0-0.46-0.01-0.92-0.08-1.38c-0.01-0.06-0.02-0.13-0.02-0.19
		c0-0.17,0.09-0.27,0.26-0.28c0.16-0.01,0.26,0.07,0.28,0.23c0.04,0.35,0.08,0.69,0.13,1.08c0.2-0.24,0.38-0.45,0.55-0.67
		c0.27-0.34,0.6-0.6,0.95-0.84c0.16-0.11,0.34-0.22,0.52-0.07c0.17,0.14,0.06,0.31,0,0.47c-0.11,0.3-0.19,0.6-0.19,0.92
		c0,0.61,0.26,0.87,0.87,0.93c0.59,0.06,1.19-0.04,1.86,0.01c-0.86,0.35-1.65,0.6-2.51,0.34c-0.51-0.16-0.71-0.58-0.76-1.08
		c-0.02-0.19,0-0.38,0-0.57C43.42,28.27,43.45,28.21,43.33,28.22z"/>
	<path class="st2" d="M32.82,29.33c-0.27,0.24-0.54,0.45-0.84,0.62c-0.21,0.12-0.44,0.22-0.69,0.23c-0.47,0.03-0.83-0.24-0.96-0.7
		c-0.16-0.57-0.05-1.15-0.03-1.72c0-0.09,0.02-0.18,0.03-0.27c0.01-0.18,0.11-0.29,0.29-0.28c0.18,0.01,0.27,0.14,0.26,0.32
		c-0.02,0.36-0.05,0.72-0.08,1.08c-0.02,0.25,0,0.49,0.07,0.72c0.08,0.24,0.27,0.35,0.5,0.29c0.55-0.14,0.97-0.48,1.3-0.92
		c0.11-0.14,0.1-0.38,0.14-0.57c0.04-0.18,0.12-0.33,0.34-0.3c0.24,0.03,0.27,0.21,0.26,0.4c-0.01,0.11-0.04,0.21-0.08,0.31
		c-0.15,0.39-0.02,0.77,0.34,0.96c0.47,0.25,0.98,0.19,1.48,0.16c0.15-0.01,0.09-0.13,0.08-0.21c-0.05-0.38-0.1-0.77-0.15-1.15
		c-0.02-0.19,0.01-0.35,0.25-0.37c0.23-0.01,0.29,0.13,0.3,0.33c0.03,0.3,0.07,0.6,0.11,0.92c0.13-0.09,0.13-0.2,0.16-0.3
		c0.12-0.41,0.29-0.79,0.56-1.13c0.41-0.52,1.1-0.75,1.69-0.56c0.12,0.04,0.21,0.1,0.19,0.25c-0.02,0.13-0.1,0.18-0.22,0.19
		c-0.98,0.07-1.39,0.4-1.69,1.38c-0.04,0.14-0.2,0.31-0.02,0.47c0.02,0.01,0.03,0.02,0,0.03c-0.21,0.07-0.17,0.3-0.28,0.44
		c-0.21,0.27-0.48,0.32-0.72,0.07c-0.1-0.1-0.18-0.06-0.27-0.04c-0.35,0.09-0.71,0.12-1.07,0.11
		C33.54,30.06,33.07,29.89,32.82,29.33z"/>
	<path class="st1" d="M16.21,21.66c0.18-0.05,0.31,0.05,0.43,0.24c0.18,0.31,0.4,0.6,0.61,0.89c0.09,0.13,0.09,0.22,0.01,0.36
		c-0.42,0.73-0.82,1.47-0.96,2.31c-0.06,0.33,0.03,0.65,0.13,0.95c0.07,0.21,0.01,0.23-0.18,0.24c-0.26,0.02-0.37-0.07-0.45-0.33
		c-0.17-0.61-0.12-1.19,0.07-1.78c0.13-0.41,0.28-0.82,0.5-1.2c0.15-0.26,0.13-0.45-0.06-0.66c-0.16-0.17-0.29-0.37-0.4-0.57
		C15.67,21.73,15.72,21.66,16.21,21.66z"/>
	<path class="st2" d="M11.97,25.2c0.24,0.7,0.88,0.4,1.41,0.52c-0.25,0.21-0.45,0.4-0.67,0.56c-0.15,0.12-0.21,0.24-0.17,0.44
		c0.04,0.16,0.03,0.34,0.04,0.53c-0.07-0.02-0.12-0.02-0.15-0.05c-0.43-0.3-0.81-0.22-1.18,0.1c-0.08,0.07-0.17,0.14-0.3,0.15
		c-0.03-0.25,0.04-0.48,0.09-0.71c0.03-0.18,0-0.32-0.14-0.45c-0.2-0.18-0.38-0.4-0.61-0.64c0.28,0,0.53-0.01,0.78,0
		c0.26,0.01,0.45-0.08,0.55-0.33c0.02-0.05,0.06-0.09,0.09-0.13c0.05-0.01,0.07,0.02,0.09,0.06c-0.02,0.35-0.12,0.64-0.56,0.73
		c0.2,0.2,0.32,0.4,0.25,0.66c-0.02,0.07,0.04,0.08,0.1,0.07c0.36-0.03,0.36-0.03,0.73,0.15c-0.1-0.29-0.12-0.56,0.1-0.79
		c0.07-0.07-0.01-0.11-0.07-0.12c-0.37-0.09-0.44-0.37-0.47-0.7C11.89,25.22,11.92,25.19,11.97,25.2z"/>
	<path class="st3" d="M11.77,25.26c-0.02-0.02-0.04-0.04-0.06-0.06c0.02-0.08,0.06-0.14,0.14-0.2c0.04,0.07,0.08,0.14,0.11,0.2
		c-0.02,0.02-0.04,0.04-0.06,0.06C11.86,25.27,11.82,25.13,11.77,25.26z"/>
	<path class="st4" d="M43.33,28.22c0.02-0.04,0.06-0.09,0.09-0.05c0.04,0.05,0.01,0.12-0.03,0.17
		C43.38,28.29,43.39,28.24,43.33,28.22z"/>
	<path class="st5" d="M13.63,29.42c-0.07-0.13-0.01-0.23,0.03-0.32c0.21-0.49,0.48-0.93,1-1.15c0.08-0.04,0.17-0.1,0.25-0.03
		c0.07,0.06,0.01,0.16-0.01,0.23C14.66,28.76,14.24,29.19,13.63,29.42z"/>
	<path class="st0" d="M38.41,29.46c0.19-0.68,0.48-1.19,1.06-1.5c0.08-0.04,0.2-0.13,0.27-0.06c0.08,0.08,0.02,0.2-0.02,0.3
		C39.49,28.79,39.07,29.19,38.41,29.46z"/>
	<path class="st0" d="M11.77,25.26c0.05-0.1,0.1-0.08,0.14,0c0.07,0.39,0.24,0.69,0.75,0.69c-0.48,0.28-0.34,0.67-0.21,1.1
		c-0.37-0.22-0.67-0.52-1.07-0.17c0.1-0.38,0.1-0.7-0.29-0.92C11.57,25.94,11.69,25.62,11.77,25.26z"/>
</g>
</svg>
