<svg width="48" height="48" viewBox="0 0 48 48" fill="none" xmlns="http://www.w3.org/2000/svg">
<path d="M47.8765 19.4004C46.3809 14.9103 43.8622 10.8293 40.5191 7.47943C37.176 4.12958 33.1001 1.60259 28.613 0.0979081C28.3634 0.0167718 28.1003 -0.0144127 27.8387 0.00613516C27.5771 0.026683 27.3221 0.0985608 27.0882 0.217665C26.8544 0.336769 26.6463 0.500766 26.4758 0.700293C26.3053 0.899821 26.1758 1.13097 26.0947 1.38055C26.0135 1.63012 25.9824 1.89323 26.0029 2.15486C26.0235 2.41648 26.0953 2.6715 26.2144 2.90535C26.3335 3.1392 26.4975 3.3473 26.6971 3.51776C26.8966 3.68823 27.1277 3.81773 27.3773 3.89887C31.2674 5.20338 34.801 7.39443 37.6989 10.299C40.5969 13.2035 42.7799 16.742 44.0756 20.6351C44.1566 20.8847 44.2861 21.1158 44.4565 21.3154C44.6269 21.5149 44.8349 21.679 45.0687 21.7981C45.3025 21.9173 45.5575 21.9892 45.8191 22.0098C46.0807 22.0304 46.3438 21.9993 46.5934 21.9182C46.843 21.8372 47.0741 21.7077 47.2737 21.5373C47.4732 21.3669 47.6373 21.1589 47.7564 20.9251C47.8756 20.6913 47.9475 20.4363 47.9681 20.1747C47.9887 19.9131 47.9576 19.65 47.8765 19.4004V19.4004ZM25.765 7.18538C25.278 6.99349 24.7352 7.00039 24.2532 7.2046C23.7713 7.4088 23.3887 7.794 23.1878 8.27735C22.9869 8.7607 22.9837 9.30359 23.1789 9.78926C23.3741 10.2749 23.7521 10.6646 24.2317 10.8745C27.1644 12.0055 29.8279 13.738 32.0507 15.9605C34.2735 18.183 36.0064 20.8462 37.1379 23.7787C37.3475 24.2581 37.7366 24.6361 38.2218 24.8317C38.7071 25.0272 39.2496 25.0246 39.7329 24.8245C40.2163 24.6243 40.6018 24.2426 40.8068 23.7613C41.0117 23.28 41.0197 22.7375 40.829 22.2504C39.4911 18.8372 37.4624 15.7372 34.8702 13.1448C32.278 10.5525 29.1781 8.52357 25.765 7.18538V7.18538ZM22.981 14.2808C22.5197 14.0286 21.9776 13.9683 21.4722 14.113C20.9668 14.2578 20.5388 14.5959 20.2811 15.0542C20.0233 15.5124 19.9565 16.0537 20.0953 16.5608C20.234 17.0679 20.567 17.4999 21.0221 17.7631C24.9258 19.8831 28.1312 23.0892 30.2503 26.9933C30.5106 27.455 30.9436 27.7943 31.4541 27.9367C31.9646 28.0791 32.5107 28.0128 32.9724 27.7525C33.434 27.4922 33.7734 27.0592 33.9157 26.5487C34.0581 26.0382 33.9919 25.4921 33.7316 25.0304C31.2462 20.4958 27.5161 16.7663 22.981 14.2818V14.2808ZM21.5905 23.6059L20.2479 24.9974L12.5241 18.2147C12.3798 18.0965 12.1991 18.0319 12.0127 18.0319C11.8262 18.0319 11.6455 18.0965 11.5012 18.2147L0.169238 28.1651C0.12588 28.2024 0.0907175 28.2483 0.0659614 28.2999C0.0412053 28.3514 0.027392 28.4076 0.0253906 28.4648L0.0253906 48H9.01584V40.5869C9.0157 40.3797 9.05641 40.1744 9.13562 39.983C9.21483 39.7915 9.33099 39.6175 9.47747 39.4709C9.62395 39.3243 9.79788 39.208 9.98931 39.1287C10.1807 39.0494 10.3859 39.0086 10.5932 39.0086H13.4321C13.6394 39.0086 13.8447 39.0494 14.0362 39.1288C14.2277 39.2082 14.4017 39.3246 14.5482 39.4712C14.6947 39.6179 14.8108 39.792 14.89 39.9836C14.9691 40.1752 15.0097 40.3806 15.0095 40.5879V48H23.9999V28.4668C23.9979 28.4096 23.9841 28.3534 23.9593 28.3019C23.9346 28.2503 23.8994 28.2044 23.8561 28.1671L23.2477 27.6326L24.4065 26.4249C24.78 26.0514 24.9899 25.5447 24.9899 25.0164C24.9899 24.4881 24.78 23.9815 24.4065 23.6079C24.0329 23.2344 23.5263 23.0245 22.998 23.0245C22.4697 23.0245 21.963 23.2344 21.5895 23.6079L21.5905 23.6059Z" fill="#011E41"/>
</svg>
