<svg width="48" height="48" viewBox="0 0 48 48" fill="none" xmlns="http://www.w3.org/2000/svg">
<path fill-rule="evenodd" clip-rule="evenodd" d="M46 10.5366H35V2.34146C34.9984 1.72104 34.7872 1.12655 34.4125 0.687846C34.0377 0.249137 33.5299 0.00185295 33 0H15C14.4701 0.00185295 13.9623 0.249137 13.5875 0.687846C13.2128 1.12655 13.0016 1.72104 13 2.34146V10.5366H2C1.47005 10.5384 0.962265 10.7857 0.587535 11.2244C0.212805 11.6631 0.00158273 12.2576 0 12.878V45.6585C0.00158273 46.279 0.212805 46.8734 0.587535 47.3122C0.962265 47.7509 1.47005 47.9981 2 48H46C46.5299 47.9981 47.0377 47.7509 47.4125 47.3122C47.7872 46.8734 47.9984 46.279 48 45.6585V12.878C47.9984 12.2576 47.7872 11.6631 47.4125 11.2244C47.0377 10.7857 46.5299 10.5384 46 10.5366ZM30 5.85366H18V10.5366H30V5.85366Z" fill="#011E41"/>
</svg>
