<svg width="48" height="48" viewBox="0 0 48 48" fill="none" xmlns="http://www.w3.org/2000/svg">
<path d="M40.3636 7.57135V6.5459L48 14.1823H41.2145C40.989 14.182 40.7727 14.0922 40.6132 13.9327C40.4537 13.7732 40.3639 13.5569 40.3636 13.3314V7.57135ZM48 16.3641V39.2732C48 39.8518 47.7701 40.4068 47.361 40.816C46.9518 41.2251 46.3968 41.455 45.8182 41.455H2.18182C1.60316 41.455 1.04821 41.2251 0.63904 40.816C0.22987 40.4068 0 39.8518 0 39.2732V8.72772C0 8.14906 0.22987 7.59411 0.63904 7.18494C1.04821 6.77577 1.60316 6.5459 2.18182 6.5459H38.1818V13.3314C38.1827 14.1354 38.5025 14.9063 39.071 15.4749C39.6396 16.0434 40.4105 16.3632 41.2145 16.3641H48ZM10.4924 26.1823L12.9764 21.2154C13.0404 21.0871 13.0786 20.9476 13.0887 20.8046C13.0987 20.6616 13.0806 20.5181 13.0352 20.3821C12.9898 20.2462 12.9181 20.1205 12.8242 20.0123C12.7302 19.9041 12.6159 19.8154 12.4876 19.7514C12.3594 19.6873 12.2198 19.6492 12.0769 19.6391C11.9339 19.629 11.7904 19.6471 11.6544 19.6925C11.5185 19.7379 11.3928 19.8096 11.2846 19.9036C11.1763 19.9975 11.0877 20.1119 11.0236 20.2401L9.27273 23.7419L7.52182 20.2401C7.39249 19.9811 7.16559 19.7842 6.89104 19.6925C6.61648 19.6009 6.31677 19.622 6.05782 19.7514C5.79887 19.8807 5.6019 20.1076 5.51025 20.3821C5.4186 20.6567 5.43976 20.9564 5.56909 21.2154L8.05309 26.1823L5.56909 31.1492C5.43976 31.4081 5.4186 31.7078 5.51025 31.9824C5.6019 32.2569 5.79887 32.4838 6.05782 32.6132C6.31677 32.7425 6.61648 32.7637 6.89104 32.672C7.16559 32.5804 7.39249 32.3834 7.52182 32.1244L9.27273 28.6226L11.0236 32.1244C11.0877 32.2527 11.1763 32.367 11.2846 32.461C11.3928 32.5549 11.5185 32.6266 11.6544 32.672C11.7904 32.7174 11.9339 32.7356 12.0769 32.7255C12.2198 32.7154 12.3594 32.6772 12.4876 32.6132C12.6159 32.5491 12.7302 32.4605 12.8242 32.3522C12.9181 32.244 12.9898 32.1183 13.0352 31.9824C13.0806 31.8464 13.0987 31.7029 13.0887 31.5599C13.0786 31.417 13.0404 31.2774 12.9764 31.1492L10.4924 26.1823ZM22.9091 31.6368C22.9091 31.3475 22.7942 31.07 22.5896 30.8654C22.385 30.6608 22.1075 30.5459 21.8182 30.5459H17.4545V20.7277C17.4545 20.4384 17.3396 20.1609 17.135 19.9563C16.9304 19.7517 16.653 19.6368 16.3636 19.6368C16.0743 19.6368 15.7968 19.7517 15.5922 19.9563C15.3877 20.1609 15.2727 20.4384 15.2727 20.7277V31.6368C15.2727 31.9261 15.3877 32.2036 15.5922 32.4082C15.7968 32.6128 16.0743 32.7277 16.3636 32.7277H21.8182C22.1075 32.7277 22.385 32.6128 22.5896 32.4082C22.7942 32.2036 22.9091 31.9261 22.9091 31.6368ZM31.6364 28.3641C31.6355 27.4964 31.2904 26.6644 30.6768 26.0509C30.0633 25.4373 29.2314 25.0922 28.3636 25.0914H27.2727C26.9835 25.0911 26.7062 24.976 26.5017 24.7715C26.2971 24.567 26.1821 24.2897 26.1818 24.0004V22.9095C26.1821 22.6203 26.2971 22.343 26.5017 22.1385C26.7062 21.9339 26.9835 21.8189 27.2727 21.8186H29.4545C29.7439 21.8186 30.0214 21.7037 30.2259 21.4991C30.4305 21.2945 30.5455 21.017 30.5455 20.7277C30.5455 20.4384 30.4305 20.1609 30.2259 19.9563C30.0214 19.7517 29.7439 19.6368 29.4545 19.6368H27.2727C26.405 19.6377 25.5731 19.9828 24.9595 20.5963C24.3459 21.2099 24.0009 22.0418 24 22.9095V24.0004C24.0009 24.8682 24.3459 25.7001 24.9595 26.3137C25.5731 26.9272 26.405 27.2723 27.2727 27.2732H28.3636C28.6529 27.2735 28.9302 27.3885 29.1347 27.593C29.3392 27.7975 29.4543 28.0748 29.4545 28.3641V29.455C29.4543 29.7442 29.3392 30.0215 29.1347 30.2261C28.9302 30.4306 28.6529 30.5456 28.3636 30.5459H25.0909C24.8016 30.5459 24.5241 30.6608 24.3195 30.8654C24.1149 31.07 24 31.3475 24 31.6368C24 31.9261 24.1149 32.2036 24.3195 32.4082C24.5241 32.6128 24.8016 32.7277 25.0909 32.7277H28.3636C29.2314 32.7269 30.0633 32.3818 30.6768 31.7682C31.2904 31.1546 31.6355 30.3227 31.6364 29.455V28.3641ZM38.856 26.1823L41.34 21.2154C41.404 21.0871 41.4422 20.9476 41.4523 20.8046C41.4624 20.6616 41.4442 20.5181 41.3988 20.3821C41.3535 20.2462 41.2817 20.1205 41.1878 20.0123C41.0938 19.9041 40.9795 19.8154 40.8513 19.7514C40.7231 19.6873 40.5835 19.6492 40.4405 19.6391C40.2976 19.629 40.154 19.6471 40.0181 19.6925C39.8821 19.7379 39.7564 19.8096 39.6482 19.9036C39.54 19.9975 39.4513 20.1119 39.3873 20.2401L37.6364 23.7419L35.8855 20.2401C35.7561 19.9811 35.5292 19.7842 35.2547 19.6925C34.9801 19.6009 34.6804 19.622 34.4215 19.7514C34.1625 19.8807 33.9655 20.1076 33.8739 20.3821C33.7822 20.6567 33.8034 20.9564 33.9327 21.2154L36.4167 26.1823L33.9327 31.1492C33.8034 31.4081 33.7822 31.7078 33.8739 31.9824C33.9655 32.2569 34.1625 32.4838 34.4215 32.6132C34.6804 32.7425 34.9801 32.7637 35.2547 32.672C35.5292 32.5804 35.7561 32.3834 35.8855 32.1244L37.6364 28.6226L39.3873 32.1244C39.5166 32.3834 39.7435 32.5804 40.0181 32.672C40.2926 32.7637 40.5923 32.7425 40.8513 32.6132C41.1102 32.4838 41.3072 32.2569 41.3988 31.9824C41.4905 31.7078 41.4693 31.4081 41.34 31.1492L38.856 26.1823Z" fill="#011E41"/>
</svg>
