<svg width="48" height="48" viewBox="0 0 48 48" fill="none" xmlns="http://www.w3.org/2000/svg">
<path d="M39.2722 0H33.8176V3.27273H30.5449V6.54545H33.8176V9.81818H30.5449V13.0909H33.8176V22.9091C33.8168 23.1982 33.7016 23.4751 33.4972 23.6795C33.2928 23.8839 33.0158 23.9991 32.7267 24H27.2722C26.9831 23.9991 26.7062 23.8839 26.5018 23.6795C26.2974 23.4751 26.1821 23.1982 26.1813 22.9091V16.3636H29.454V13.0909H26.1813V9.81818H29.454V6.54545H26.1813V3.27273H29.454V0H8.72674C8.14862 0.00172661 7.59467 0.232151 7.18587 0.640947C6.77707 1.04974 6.54665 1.6037 6.54492 2.18182V45.8182C6.54665 46.3963 6.77707 46.9503 7.18587 47.3591C7.59467 47.7678 8.14862 47.9983 8.72674 48H29.454V40.3636C29.4539 39.7906 29.5666 39.2231 29.7859 38.6936C30.0051 38.1641 30.3265 37.683 30.7318 37.2778C31.137 36.8725 31.6181 36.5511 32.1476 36.3319C32.6771 36.1126 33.2446 35.9999 33.8176 36H41.454V2.18182C41.4523 1.6037 41.2219 1.04974 40.8131 0.640947C40.4043 0.232151 39.8503 0.00172661 39.2722 0V0Z" fill="#011E41"/>
<path d="M31.636 40.3641V48.0004L41.4542 38.1823H33.8178C33.2397 38.184 32.6858 38.4144 32.277 38.8232C31.8682 39.232 31.6377 39.786 31.636 40.3641V40.3641ZM28.3633 18.5459H31.636V21.8186H28.3633V18.5459Z" fill="#011E41"/>
</svg>
