<?xml version="1.0" encoding="utf-8"?>
<!-- Generator: Adobe Illustrator 25.2.1, SVG Export Plug-In . SVG Version: 6.00 Build 0)  -->
<svg version="1.1" id="Layer_1" xmlns="http://www.w3.org/2000/svg" xmlns:xlink="http://www.w3.org/1999/xlink" x="0px" y="0px"
	 viewBox="0 0 48 48" style="enable-background:new 0 0 48 48;" xml:space="preserve">
<style type="text/css">
	.st0{fill:#FEFEFE;}
	.st1{fill:#E51E2B;}
	.st2{fill:#020202;}
	.st3{fill:#E32335;}
	.st4{fill:#E31F28;}
	.st5{fill:#D5232D;}
	.st6{fill:#C2232B;}
	.st7{fill:#C7222B;}
	.st8{fill:#C12329;}
	.st9{fill:#C71E27;}
	.st10{fill:#BB2035;}
	.st11{fill:#C11E27;}
	.st12{fill:#C81E27;}
	.st13{fill:#CE2F3B;}
	.st14{fill:#CD1E2B;}
	.st15{fill:#C81A27;}
	.st16{fill:#C71E26;}
	.st17{fill:#CE1C27;}
	.st18{fill:#C21D2B;}
	.st19{fill:#BE232E;}
	.st20{fill:#BB222C;}
	.st21{fill:#FDFDFD;}
	.st22{fill:#FDCF00;}
	.st23{fill:#FACF0B;}
	.st24{fill:#F6D02B;}
	.st25{fill:#F8CF2E;}
	.st26{fill:#F6D12B;}
	.st27{fill:#FED40C;}
	.st28{fill:#F5CB09;}
	.st29{fill:#F8CC09;}
	.st30{fill:#F3D02C;}
	.st31{fill:#F2D22E;}
	.st32{fill:#F9D625;}
	.st33{fill:#F3D233;}
	.st34{fill:#F1CE35;}
	.st35{fill:#F9D736;}
	.st36{fill:#FDCF01;}
	.st37{fill:#020204;}
	.st38{fill:#020106;}
	.st39{fill:#F2D136;}
	.st40{fill:#F1D033;}
	.st41{fill:#F6D62E;}
	.st42{fill:#FBD41D;}
	.st43{fill:#F3D22C;}
	.st44{fill:#E7CC58;}
	.st45{fill:#FDDC30;}
	.st46{fill:#EDD268;}
</style>
<g>
	<path class="st0" d="M24.01,30.48c-6.52,0-13.04,0-19.55,0.01c-0.21,0-0.25-0.04-0.25-0.25c0.01-4.15,0.01-8.31,0-12.46
		c0-0.2,0.03-0.26,0.25-0.25c13.04,0.01,26.07,0.01,39.11,0c0.2,0,0.24,0.04,0.24,0.24c-0.01,4.15-0.01,8.31,0,12.46
		c0,0.21-0.04,0.27-0.26,0.27C37.03,30.48,30.52,30.48,24.01,30.48z"/>
	<path class="st1" d="M4.57,18.39c0.05-0.18,0.14-0.34,0.32-0.41c0.16-0.06,0.32-0.05,0.49-0.05c3.48,0,6.97,0,10.45,0
		c0.57,0,0.69,0.09,0.87,0.64c0.01,0.32,0.01,0.63,0.01,0.95c0,3.23,0,6.45,0,9.68c0,0.49-0.23,0.75-0.72,0.8
		c-0.08,0.01-0.15,0.01-0.23,0.01c-3.42,0-6.84,0-10.27,0c-0.26,0-0.53,0.01-0.72-0.22c0.01-0.06,0.04-0.13,0.02-0.17
		c-0.18-0.28-0.07-0.58-0.09-0.87c-0.04-0.64-0.15-1.27-0.13-1.91c0.02-0.54,0.06-1.08,0.02-1.62c-0.03-0.32-0.08-0.66,0.18-0.93
		c0.01-0.05,0.03-0.09,0.07-0.12c0.1,0.01,0.12,0.09,0.12,0.16c0.01,0.63,0.22,1.21,0.4,1.8c0.01,0.14,0.04,0.27,0.16,0.37
		c0.27,0.49,0.56,0.95,0.95,1.36c0.14,0.14,0.31,0.26,0.43,0.43c0.06,0.08,0.14,0.15,0.23,0.19c0.18,0.11,0.34,0.24,0.52,0.36
		c0.3,0.23,0.62,0.42,1.01,0.47c0.25,0.02,0.49,0.07,0.72,0.18c0.15,0.12,0.34,0.11,0.52,0.13c0.03,0,0.06,0.01,0.08,0.02
		c0.11,0.04,0.23,0.02,0.34,0.02c0.22-0.02,0.45,0.03,0.67-0.04c0.08-0.04,0.17-0.06,0.26-0.05c0.19,0.05,0.38,0.05,0.56-0.07
		c0.27-0.13,0.57-0.18,0.85-0.29c1.34-0.52,2.33-1.42,2.99-2.68c0.04-0.09,0.09-0.17,0.15-0.24c0.09-0.06,0.1-0.15,0.11-0.25
		c0.15-0.56,0.31-1.11,0.36-1.69c0.07-0.77-0.05-1.51-0.29-2.24c-0.27-0.84-0.75-1.55-1.36-2.19c-0.07-0.14-0.13-0.29-0.3-0.34
		c-0.13-0.06-0.24-0.15-0.34-0.24c-0.06-0.07-0.08-0.18-0.21-0.17c-0.31-0.09-0.58-0.26-0.84-0.43c-0.07-0.1-0.17-0.09-0.28-0.09
		c-0.46-0.18-0.95-0.25-1.43-0.36c-0.4-0.11-0.8-0.07-1.2-0.01c-0.49,0.11-0.99,0.21-1.47,0.38c-0.12,0-0.24,0-0.34,0.07
		c-0.14,0.07-0.29,0.12-0.38,0.25c-0.31,0.24-0.65,0.44-0.96,0.7c-0.59,0.49-1,1.12-1.4,1.75c-0.09,0.07-0.1,0.17-0.09,0.27
		c-0.15,0.36-0.21,0.75-0.39,1.11c-0.12,0.16-0.03,0.39-0.16,0.55c-0.25,0.13-0.25,0.13-0.26-0.13c0-0.21-0.02-0.43,0.01-0.63
		c0.07-0.58-0.03-1.16-0.01-1.74c0.02-0.62,0.01-1.23,0-1.85C4.59,18.79,4.63,18.59,4.57,18.39z"/>
	<path class="st2" d="M23.87,20.32c-0.05,0.82-0.11,1.63-0.16,2.45c-0.01,0.14-0.03,0.29-0.02,0.43c0.01,0.23-0.08,0.31-0.32,0.29
		c-0.38-0.02-0.37-0.01-0.34-0.37c0.1-1.08,0.19-2.17,0.27-3.25c0.03-0.44,0.02-0.44,0.44-0.44c0.55,0,0.55,0,0.71,0.52
		c0.28,0.91,0.55,1.81,0.85,2.8c0.22-0.72,0.41-1.36,0.61-2c0.12-0.39,0.23-0.77,0.35-1.16c0.02-0.08,0.04-0.17,0.16-0.17
		c0.24,0,0.48,0,0.73,0c0.15,0,0.11,0.11,0.12,0.18c0.08,0.83,0.15,1.67,0.22,2.5c0.03,0.39,0.07,0.79,0.11,1.18
		c0.01,0.14,0,0.2-0.17,0.2c-0.51,0.01-0.52,0.02-0.55-0.5c-0.05-0.78-0.09-1.56-0.14-2.34c-0.01-0.1,0.03-0.21-0.06-0.31
		c-0.11,0.11-0.12,0.26-0.16,0.39c-0.26,0.83-0.52,1.66-0.76,2.5c-0.06,0.21-0.15,0.26-0.35,0.26c-0.51-0.01-0.5,0-0.65-0.48
		c-0.27-0.9-0.55-1.79-0.82-2.69C23.91,20.32,23.89,20.32,23.87,20.32z"/>
	<path class="st2" d="M39.09,27.44c0-0.89,0-1.78,0-2.68c0-0.1-0.06-0.26,0.05-0.29c0.17-0.04,0.36-0.02,0.55,0
		c0.06,0.01,0.04,0.1,0.04,0.15c0,1.24,0,2.48,0,3.73c0,0.06,0.02,0.12-0.04,0.16c-0.17,0.11-0.8-0.04-0.9-0.21
		c-0.53-0.87-1.06-1.74-1.6-2.6c-0.04-0.06-0.05-0.14-0.17-0.18c0,0.54,0,1.06,0,1.58c0,0.4-0.01,0.81,0,1.21
		c0.01,0.17-0.06,0.2-0.21,0.2c-0.41,0-0.41,0.01-0.41-0.38c0-1.15,0-2.29,0-3.44c0-0.07-0.04-0.16,0.03-0.22
		c0.12-0.11,0.77,0.01,0.86,0.16c0.52,0.84,1.03,1.69,1.55,2.53c0.06,0.1,0.12,0.19,0.18,0.29C39.05,27.45,39.07,27.45,39.09,27.44z
		"/>
	<path class="st2" d="M20.96,26.35c0.6,0.25,0.81,0.62,0.71,1.21c-0.09,0.54-0.51,0.91-1.12,0.95c-0.47,0.03-0.95,0.01-1.42,0.02
		c-0.15,0-0.17-0.06-0.17-0.19c0-1.23,0-2.47,0-3.7c0-0.09-0.02-0.18,0.12-0.17c0.56,0.02,1.12-0.06,1.68,0.04
		c0.49,0.09,0.72,0.34,0.79,0.76c0.07,0.43-0.1,0.76-0.51,1C21.02,26.29,21,26.31,20.96,26.35z"/>
	<path class="st2" d="M31.44,26.35c0.57,0.21,0.8,0.56,0.74,1.1c-0.07,0.61-0.46,1.01-1.11,1.06c-0.49,0.04-0.99,0.01-1.48,0.02
		c-0.12,0-0.14-0.06-0.14-0.16c0-1.25,0-2.5,0-3.76c0-0.08,0-0.15,0.12-0.15c0.54,0.01,1.09-0.02,1.62,0.03
		c0.52,0.05,0.77,0.32,0.84,0.77c0.08,0.48-0.08,0.78-0.54,1.04C31.48,26.31,31.47,26.32,31.44,26.35z"/>
	<path class="st2" d="M22.37,21.38c0.02,0.23-0.01,0.46-0.06,0.69c-0.15,0.68-0.51,1.22-1.22,1.4c-0.71,0.18-1.41,0.14-1.95-0.45
		c-0.44-0.48-0.49-1.09-0.46-1.71c0.01-0.24,0.05-0.48,0.12-0.71c0.3-0.94,1.06-1.37,2.17-1.23c0.78,0.1,1.35,0.78,1.4,1.7
		C22.38,21.17,22.37,21.28,22.37,21.38z"/>
	<path class="st2" d="M31.78,21.5c-0.02-0.36,0.04-0.71,0.17-1.04c0.3-0.78,1.03-1.2,1.89-1.12c0.9,0.09,1.44,0.58,1.59,1.45
		c0.08,0.46,0.07,0.92-0.05,1.37c-0.26,1.01-1,1.49-2.12,1.38c-0.85-0.09-1.44-0.78-1.48-1.74C31.77,21.7,31.78,21.6,31.78,21.5z"/>
	<path class="st2" d="M25.34,28.5c-0.76,0.05-0.76,0.05-1.06-0.59c-0.12-0.26-0.25-0.52-0.36-0.78c-0.06-0.14-0.13-0.18-0.28-0.18
		c-0.5,0.01-0.5,0-0.5,0.51c0,0.29-0.01,0.58,0,0.87c0,0.14-0.03,0.2-0.19,0.2c-0.47,0.01-0.47,0.02-0.47-0.46c0-1.12,0-2.23,0-3.35
		c0-0.19,0.04-0.27,0.25-0.26c0.53,0.03,1.06-0.05,1.59,0.05c0.51,0.1,0.83,0.41,0.89,0.85c0.07,0.52-0.03,0.99-0.51,1.28
		c-0.21,0.13-0.21,0.22-0.11,0.41C24.85,27.53,25.09,28.01,25.34,28.5z"/>
	<path class="st2" d="M31.37,23.46c-0.76,0.06-0.76,0.06-1.06-0.59c-0.08-0.17-0.19-0.34-0.24-0.52c-0.1-0.37-0.32-0.48-0.69-0.44
		c-0.19,0.02-0.22,0.08-0.21,0.24c0.01,0.37-0.01,0.73,0.01,1.1c0.01,0.19-0.05,0.26-0.24,0.24c-0.09-0.01-0.17-0.01-0.26,0
		c-0.13,0.01-0.16-0.04-0.16-0.17c0-1.24,0-2.49,0-3.73c0-0.15,0.05-0.17,0.18-0.17c0.46,0.01,0.93,0,1.39,0.01
		c0.59,0.01,0.98,0.29,1.11,0.78c0.16,0.56-0.04,1.13-0.51,1.41c-0.17,0.1-0.19,0.16-0.1,0.34C30.86,22.45,31.11,22.95,31.37,23.46z
		"/>
	<path class="st2" d="M29,28.5c-0.74,0.06-0.75,0.07-0.93-0.6c-0.08-0.28-0.19-0.4-0.49-0.36c-0.3,0.03-0.6,0.01-0.9,0
		c-0.14,0-0.21,0.04-0.24,0.18c-0.03,0.16-0.11,0.31-0.13,0.47c-0.04,0.29-0.2,0.38-0.47,0.34c-0.11-0.02-0.23,0-0.38,0
		c0.18-0.51,0.35-1,0.51-1.49c0.27-0.79,0.54-1.57,0.8-2.36c0.05-0.16,0.12-0.2,0.28-0.2c0.56,0,0.56-0.01,0.74,0.52
		C28.19,26.14,28.59,27.31,29,28.5z"/>
	<path class="st2" d="M35.92,28.5c-0.02,0.01-0.03,0.01-0.04,0.01c-0.68,0.05-0.7,0.05-0.88-0.61c-0.08-0.28-0.19-0.4-0.49-0.36
		c-0.3,0.03-0.6,0.01-0.9,0c-0.14,0-0.21,0.03-0.24,0.18c-0.04,0.18-0.11,0.35-0.15,0.53c-0.04,0.23-0.16,0.32-0.4,0.28
		c-0.13-0.02-0.27,0-0.44,0c0.25-0.75,0.5-1.47,0.74-2.19c0.18-0.54,0.38-1.09,0.55-1.63c0.05-0.17,0.12-0.24,0.31-0.24
		c0.56,0.01,0.56,0,0.73,0.51c0.38,1.11,0.76,2.23,1.14,3.34C35.89,28.37,35.9,28.43,35.92,28.5z"/>
	<path class="st2" d="M36.23,21.44c0-0.6,0-1.19,0-1.79c0-0.16,0.02-0.24,0.21-0.23c0.67,0.01,1.33,0.02,2,0
		c0.26-0.01,0.19,0.16,0.18,0.28c0,0.13,0.1,0.32-0.19,0.31c-0.43-0.02-0.87,0.01-1.3-0.01c-0.21-0.01-0.26,0.06-0.25,0.26
		c0.02,0.22,0.01,0.44,0,0.66c-0.01,0.16,0.05,0.19,0.2,0.19c0.42-0.01,0.83,0.01,1.25-0.01c0.32-0.01,0.16,0.22,0.18,0.34
		c0.03,0.13,0.03,0.26-0.19,0.25c-0.39-0.02-0.79,0.01-1.19-0.01c-0.21-0.01-0.26,0.06-0.25,0.26c0.02,0.22,0.02,0.44,0,0.66
		c-0.02,0.22,0.04,0.3,0.28,0.29c0.42-0.02,0.85,0.01,1.27-0.01c0.26-0.01,0.2,0.15,0.18,0.28c-0.01,0.12,0.11,0.32-0.18,0.32
		c-0.68-0.01-1.35-0.01-2.03,0c-0.16,0-0.19-0.06-0.19-0.2C36.24,22.67,36.23,22.05,36.23,21.44z"/>
	<path class="st2" d="M39.49,21.45c0-0.6,0.01-1.19,0-1.79c0-0.17,0.02-0.26,0.23-0.25c0.43,0.02,0.87,0,1.3,0.01
		c0.68,0.02,1.07,0.35,1.19,0.98c0.12,0.67-0.2,1.27-0.77,1.52c-0.3,0.13-0.6,0.11-0.91,0.12c-0.42,0-0.38-0.06-0.38,0.39
		c0,0.28-0.01,0.56,0,0.84c0.01,0.16-0.03,0.24-0.2,0.21c-0.02,0-0.04,0-0.06,0c-0.4,0-0.4,0-0.4-0.38
		C39.49,22.55,39.49,22,39.49,21.45z"/>
	<path class="st2" d="M42.15,26.81c0,0.49-0.01,0.98,0,1.47c0,0.18-0.03,0.25-0.23,0.25c-0.45-0.01-0.45,0-0.45-0.45
		c0-0.92-0.01-1.85,0-2.77c0-0.2-0.03-0.28-0.25-0.26c-0.25,0.02-0.5-0.01-0.75,0.01c-0.25,0.02-0.21-0.14-0.19-0.27
		c0.01-0.12-0.11-0.32,0.18-0.32c0.91,0.01,1.82,0.01,2.72,0c0.15,0,0.17,0.06,0.17,0.19c0.01,0.4,0.01,0.4-0.38,0.4
		c-0.04,0-0.08,0-0.12,0c-0.23,0.02-0.54-0.1-0.66,0.05c-0.12,0.14-0.04,0.44-0.04,0.67C42.15,26.11,42.15,26.46,42.15,26.81z"/>
	<path class="st3" d="M16.7,18.57c-0.07-0.03-0.07-0.11-0.09-0.17c-0.11-0.3-0.31-0.42-0.64-0.42c-3.54,0.01-7.09,0.01-10.63,0.01
		c-0.14,0-0.29,0-0.43-0.01c0.11-0.11,0.24-0.1,0.38-0.1c3.57,0,7.14,0,10.72,0C16.44,17.88,16.68,18.13,16.7,18.57z"/>
	<path class="st4" d="M4.57,18.39c0.06,0.14,0.26,0.26,0.05,0.44c-0.04,0.04-0.01,0.15-0.01,0.22c0,0.76,0,1.52,0,2.28
		c0,0.27,0.01,0.53,0.15,0.78c0.05,0.08,0.04,0.19,0,0.28c-0.15,0.01-0.04-0.15-0.14-0.19c-0.03,0.38,0.04,0.76-0.02,1.16
		c0.1,0,0.16-0.09,0.25-0.06c0.07,0.06,0.07,0.14,0.05,0.23c-0.01,0.03-0.02,0.05-0.04,0.07c-0.02,0.01-0.05,0.01-0.07-0.01
		c-0.03-0.01-0.06-0.03-0.07,0.02c0.07-0.06,0.09,0,0.12,0.04c0.08,0.21-0.03,0.42,0,0.63c0.01,0.14-0.05,0.25-0.08,0.37
		c-0.12,0-0.06-0.12-0.14-0.15c0,0.31-0.1,0.67,0.02,0.89c0.24,0.43-0.12,0.77-0.04,1.16c0.07,0.33,0.01,0.69,0.02,1.04
		c0,0.19,0.01,0.35,0.13,0.53c0.14,0.23,0.04,0.54,0.04,0.82c0,0.21-0.12,0.43,0.13,0.61c0.1,0.07-0.06,0.16-0.14,0.22
		c-0.17-0.12-0.23-0.29-0.23-0.5c0-3.57,0-7.14,0-10.7C4.54,18.53,4.56,18.46,4.57,18.39z"/>
	<path class="st0" d="M7.63,28.86c-0.2-0.08-0.35-0.23-0.52-0.35c-0.09-0.05-0.15-0.14-0.24-0.19c-0.2-0.2-0.41-0.39-0.59-0.6
		c-0.32-0.36-0.58-0.76-0.79-1.18c-0.08-0.11-0.13-0.23-0.17-0.36c-0.25-0.66-0.4-1.33-0.46-2.03c-0.07-0.18-0.05-0.37-0.01-0.56
		l0,0c0.06-0.27,0-0.55,0.12-0.81c0.13-0.39,0.25-0.78,0.38-1.16c-0.02-0.09,0.02-0.17,0.1-0.22c0.51-0.95,1.2-1.75,2.13-2.33
		c0.08-0.05,0.16-0.11,0.24-0.16c0.14-0.12,0.32-0.16,0.46-0.25c0.08-0.02,0.14-0.09,0.23-0.06c0.49-0.19,1-0.29,1.51-0.39
		c0.42-0.04,0.85-0.05,1.27,0.01c0.49,0.1,0.99,0.19,1.46,0.38c0.09-0.02,0.16,0.03,0.23,0.08c0.29,0.16,0.57,0.32,0.86,0.48
		c0.1,0,0.13,0.09,0.18,0.14c0.11,0.08,0.23,0.16,0.34,0.25c0.14,0.05,0.21,0.18,0.3,0.28c0.77,0.78,1.31,1.7,1.56,2.77
		c0.27,1.12,0.2,2.23-0.2,3.32c-0.02,0.04-0.02,0.09-0.04,0.14c-0.02,0.09-0.05,0.18-0.11,0.25c-0.36,0.69-0.79,1.32-1.37,1.85
		c-0.72,0.66-1.56,1.1-2.51,1.34c-0.04,0.01-0.09,0.03-0.13,0.05c-0.19,0.06-0.38,0.12-0.58,0.08c-0.08-0.01-0.16,0-0.23,0.04
		c-0.24,0.07-0.49,0.02-0.74,0.03c-0.12-0.01-0.25,0.03-0.36-0.03l0,0c-0.19-0.05-0.4-0.02-0.58-0.12
		c-0.25-0.07-0.48-0.19-0.75-0.17C8.3,29.2,7.94,29.09,7.63,28.86z"/>
	<path class="st5" d="M7.63,28.86c0.34,0.16,0.7,0.27,1,0.51C8.25,29.29,7.9,29.17,7.63,28.86z"/>
	<path class="st4" d="M5.29,29.49c-0.02,0.04-0.03,0.07-0.05,0.08c-0.05,0.03-0.09,0-0.11-0.04C5.06,29.42,5,29.3,4.93,29.19
		c-0.03-0.05-0.03-0.1,0.02-0.12c0.02-0.01,0.07,0.01,0.1,0.03C5.17,29.2,5.14,29.4,5.29,29.49z"/>
	<path class="st6" d="M11.29,18.22c-0.42,0-0.85,0-1.27-0.01C10.44,18.12,10.86,18.1,11.29,18.22z"/>
	<path class="st7" d="M4.97,22.79c-0.04,0.27-0.03,0.54-0.12,0.81c0-0.1,0-0.19,0-0.29c-0.02-0.18,0.03-0.35,0.07-0.52
		c0-0.01,0.02-0.01,0.02-0.01C4.95,22.78,4.96,22.79,4.97,22.79z"/>
	<path class="st8" d="M10.3,29.67c0.25,0,0.5,0,0.75-0.01c-0.24,0.13-0.5,0.03-0.75,0.06c-0.02-0.01-0.03-0.03-0.02-0.04
		C10.29,29.68,10.3,29.67,10.3,29.67z"/>
	<path class="st7" d="M4.85,23.6c0.04,0.19,0.03,0.37,0.01,0.56c-0.01,0.04-0.01,0.09-0.02,0.13c-0.11-0.22-0.03-0.46-0.05-0.69l0,0
		C4.81,23.6,4.83,23.6,4.85,23.6z"/>
	<path class="st9" d="M11.29,29.63c0.19-0.03,0.39-0.05,0.58-0.08C11.69,29.68,11.5,29.71,11.29,29.63z"/>
	<path class="st10" d="M8.28,18.68c-0.16,0.08-0.31,0.16-0.47,0.24c0.09-0.16,0.25-0.19,0.41-0.24C8.24,18.66,8.26,18.66,8.28,18.68
		z"/>
	<path class="st11" d="M9.38,29.54c0.2,0.03,0.4,0.03,0.58,0.12C9.76,29.66,9.55,29.7,9.38,29.54z"/>
	<path class="st12" d="M14.66,19.83c-0.12-0.07-0.21-0.17-0.3-0.28C14.54,19.56,14.61,19.69,14.66,19.83z"/>
	<path class="st13" d="M5.32,26.19c0.08,0.11,0.14,0.23,0.17,0.36C5.35,26.46,5.31,26.34,5.32,26.19z"/>
	<path class="st14" d="M6.87,28.33c0.13,0,0.18,0.09,0.24,0.19C6.99,28.5,6.92,28.42,6.87,28.33z"/>
	<path class="st15" d="M14.02,19.31c-0.06-0.05-0.12-0.1-0.18-0.14C14,19.08,13.98,19.23,14.02,19.31z"/>
	<path class="st16" d="M8.28,18.68c-0.02,0-0.04,0-0.06,0C8.3,18.6,8.38,18.52,8.5,18.6C8.43,18.63,8.35,18.66,8.28,18.68z"/>
	<path class="st17" d="M10.3,29.67c0,0.02,0,0.04,0,0.06c-0.12-0.02-0.25,0.05-0.35-0.06C10.07,29.67,10.19,29.62,10.3,29.67z"/>
	<path class="st18" d="M5.44,21.4c-0.03,0.07-0.06,0.15-0.1,0.22C5.28,21.51,5.33,21.44,5.44,21.4z"/>
	<path class="st19" d="M15.87,26.31c0.02-0.09,0.05-0.18,0.11-0.25C16,26.17,15.99,26.26,15.87,26.31z"/>
	<path class="st20" d="M12.97,18.69c-0.08-0.03-0.15-0.06-0.23-0.08C12.86,18.53,12.92,18.58,12.97,18.69z"/>
	<path class="st0" d="M19.64,27.33c0-0.65,0-0.65,0.65-0.63c0.44,0.01,0.68,0.2,0.69,0.57c0.01,0.42-0.22,0.66-0.68,0.68
		C19.64,27.99,19.64,27.99,19.64,27.33z"/>
	<path class="st21" d="M19.64,25.6c0-0.63,0-0.63,0.64-0.58c0.35,0.02,0.55,0.2,0.56,0.5c0.02,0.31-0.18,0.56-0.48,0.63
		c-0.02,0-0.04,0.01-0.06,0.01C19.66,26.25,19.64,26.23,19.64,25.6z"/>
	<path class="st21" d="M30.12,27.31c0-0.61,0-0.61,0.63-0.6c0.47,0,0.7,0.19,0.72,0.56c0.02,0.43-0.23,0.67-0.71,0.69
		C30.12,27.98,30.12,27.98,30.12,27.31z"/>
	<path class="st21" d="M30.12,25.57c0-0.58,0-0.58,0.58-0.56c0.42,0.01,0.62,0.17,0.63,0.51c0.01,0.36-0.2,0.59-0.6,0.63
		C30.12,26.22,30.12,26.22,30.12,25.57z"/>
	<path class="st0" d="M21.67,21.4c0.02,0.25-0.01,0.47-0.07,0.7c-0.16,0.57-0.55,0.87-1.11,0.86c-0.53,0-0.89-0.3-1.04-0.87
		c-0.13-0.48-0.12-0.95,0.06-1.42c0.19-0.51,0.61-0.79,1.11-0.76c0.51,0.03,0.87,0.35,1,0.89C21.66,21.01,21.7,21.21,21.67,21.4z"/>
	<path class="st0" d="M32.47,21.46c-0.01-0.35,0.05-0.69,0.23-1c0.22-0.39,0.58-0.56,1.01-0.54c0.46,0.02,0.78,0.27,0.93,0.7
		c0.19,0.55,0.19,1.1-0.01,1.64c-0.18,0.49-0.54,0.71-1.08,0.7c-0.46-0.01-0.8-0.26-0.97-0.73c-0.04-0.12-0.07-0.24-0.09-0.36
		C32.47,21.73,32.48,21.6,32.47,21.46z"/>
	<path class="st21" d="M23.14,25.7c0-0.66,0-0.66,0.66-0.66c0.43,0,0.7,0.21,0.72,0.55c0.03,0.4-0.23,0.72-0.64,0.79
		C23.14,26.49,23.14,26.49,23.14,25.7z"/>
	<path class="st21" d="M29.17,20.69c0-0.75,0-0.75,0.67-0.71c0.43,0.03,0.68,0.22,0.72,0.56c0.04,0.37-0.19,0.66-0.6,0.76
		c-0.01,0-0.02,0.01-0.03,0.01c-0.24,0.03-0.54,0.11-0.7-0.01C29.06,21.19,29.2,20.87,29.17,20.69z"/>
	<path class="st21" d="M27.24,25.26c0.17,0.54,0.34,1.08,0.51,1.62c0.03,0.09-0.01,0.12-0.1,0.12c-0.29,0-0.58,0-0.87,0
		c-0.08,0-0.14-0.03-0.11-0.12c0.16-0.54,0.33-1.09,0.5-1.63C27.2,25.26,27.22,25.26,27.24,25.26z"/>
	<path class="st21" d="M34.18,25.26c0.11,0.35,0.23,0.7,0.33,1.05c0.06,0.23,0.28,0.5,0.14,0.66C34.55,27.08,34.21,27,33.98,27
		c-0.4,0-0.4,0-0.29-0.39c0.14-0.45,0.28-0.9,0.42-1.35C34.14,25.26,34.16,25.26,34.18,25.26z"/>
	<path class="st21" d="M40.15,20.74c0-0.06,0-0.12,0-0.17c0-0.63,0-0.63,0.67-0.59c0.41,0.03,0.63,0.21,0.7,0.56
		c0.07,0.38-0.09,0.73-0.41,0.87c-0.28,0.12-0.57,0.07-0.86,0.08c-0.11,0-0.1-0.09-0.1-0.17C40.15,21.12,40.15,20.93,40.15,20.74z"
		/>
	<path class="st1" d="M4.75,24.44C4.64,24.25,4.69,24.13,4.72,24C4.73,24.12,4.73,24.25,4.75,24.44z"/>
	<path class="st1" d="M4.79,23.6c-0.03,0.04-0.06,0.08-0.1,0.13c0-0.09-0.05-0.17,0.05-0.22C4.74,23.51,4.77,23.57,4.79,23.6
		C4.79,23.6,4.79,23.6,4.79,23.6z"/>
	<path class="st22" d="M12.06,19.31c0.56,0.13,1.05,0.4,1.49,0.77c0.08,0.09,0.2,0.15,0.29,0.22c0.94,0.83,1.48,1.86,1.63,3.11
		c0.26,2.16-1.04,4.16-2.9,4.98c-1.64,0.73-3.81,0.43-5.07-0.74C7.31,27.44,7.05,27.27,6.9,27c-0.51-0.61-0.86-1.31-1.01-2.09
		c-0.1-0.49-0.12-1-0.06-1.51c0.14-1.24,0.7-2.25,1.61-3.08c0.49-0.45,1.09-0.75,1.71-0.98C10.11,19,11.09,19.03,12.06,19.31z"/>
	<path class="st23" d="M9.08,19.38c-0.26,0.22-0.61,0.29-0.9,0.46c-0.55,0.32-0.99,0.76-1.37,1.25c-0.19,0.24-0.39,0.47-0.48,0.77
		c-0.12,0.39-0.39,0.73-0.4,1.13C5.91,23.5,5.79,24,5.89,24.52c0.05,0.27,0.02,0.59,0.15,0.82c0.18,0.32,0.24,0.69,0.45,1
		c0.15,0.22,0.35,0.4,0.44,0.66c-0.02,0.03-0.04,0.03-0.07,0c-0.62-0.7-0.95-1.52-1.09-2.43c-0.31-2.02,0.83-4.16,2.81-5.07
		c0.12-0.06,0.25-0.09,0.38-0.14C9,19.34,9.05,19.34,9.08,19.38z"/>
	<path class="st24" d="M9.08,19.38c-0.04,0-0.08,0-0.12-0.01c0.86-0.36,1.74-0.39,2.64-0.21c0.15,0.03,0.33,0.02,0.46,0.14
		c-0.51-0.04-1.01-0.19-1.54-0.18C10.03,19.15,9.56,19.27,9.08,19.38z"/>
	<path class="st25" d="M6.87,27.01c0.02,0,0.05,0,0.07,0c0.16,0.25,0.43,0.39,0.58,0.65C7.24,27.5,7.03,27.28,6.87,27.01z"/>
	<path class="st26" d="M13.85,20.3c-0.13-0.03-0.24-0.09-0.29-0.22C13.68,20.11,13.77,20.2,13.85,20.3z"/>
	<path class="st2" d="M12.33,21.05c0.16,0.17,0.39,0.29,0.47,0.53c0.16,0.15,0.17,0.35,0.2,0.56c-0.02,0.17,0.05,0.35-0.04,0.52
		c-0.01,0.05-0.02,0.09-0.03,0.14c0.04,0.09-0.03,0.15-0.05,0.23c-0.03,0.12-0.11,0.21-0.19,0.29c-0.04,0.04-0.08,0.08-0.12,0.12
		c-0.11,0.09-0.22,0.18-0.35,0.24c0,0.07,0.09,0.03,0.11,0.07c0.44,0.16,0.73,0.46,0.81,0.94c0,0.06,0,0.13-0.07,0.13
		c-0.09,0.01-0.11-0.08-0.13-0.14c-0.06,0.23,0.2,0.14,0.26,0.25c0.04,0.2,0.03,0.39-0.02,0.59c-0.06,0.5-0.23,0.93-0.72,1.15l0,0
		c-0.12,0.13-0.3,0.16-0.44,0.26c-0.17,0.05-0.33,0.09-0.5,0.13c-0.88,0.07-1.77,0.06-2.65,0.02C8.76,26.99,8.8,26.89,8.8,26.8
		c0-1.9,0-3.81,0-5.71c0-0.1-0.07-0.24,0.11-0.28c1-0.07,1.99-0.09,2.99,0.04C12.04,20.87,12.22,20.92,12.33,21.05z"/>
	<path class="st27" d="M12.33,21.05c-0.95-0.38-1.95-0.18-2.93-0.23c-0.16-0.01-0.33-0.01-0.49-0.01c0.03-0.14,0.15-0.1,0.24-0.1
		c0.68,0,1.37-0.02,2.05,0.01c0.33,0.01,0.67,0.03,0.98,0.16C12.26,20.91,12.33,20.94,12.33,21.05z"/>
	<path class="st28" d="M13.15,25.56c-0.01-0.23,0.05-0.46-0.01-0.69c-0.05-0.06,0-0.13-0.04-0.19c-0.12-0.45-0.38-0.76-0.82-0.91
		c-0.05-0.03-0.1-0.06-0.12-0.12c0.14-0.07,0.25-0.19,0.42-0.22c-0.25,0.22-0.14,0.33,0.11,0.45c0.34,0.16,0.47,0.47,0.53,0.82
		c0.05,0.29,0.15,0.58,0,0.86C13.19,25.59,13.17,25.59,13.15,25.56z"/>
	<path class="st29" d="M13.15,25.56c0.02,0,0.04,0,0.05,0c0,0.05,0,0.1,0.01,0.14c0.02,0.12,0.25-0.05,0.21,0.14
		c-0.03,0.13-0.2-0.01-0.26,0.11c-0.05,0.12-0.15,0.22-0.18,0.35c-0.07,0.28-0.29,0.32-0.53,0.36C12.83,26.39,13.03,26,13.15,25.56z
		"/>
	<path class="st30" d="M8.85,27.06c0.57,0,1.15,0,1.72-0.01c0.33-0.01,0.67-0.03,1-0.05c0.02,0.01,0.03,0.03,0.02,0.04
		c-0.01,0.01-0.01,0.02-0.02,0.02c-0.06,0.02-0.13,0.05-0.19,0.05c-0.8,0-1.61,0-2.41,0C8.94,27.12,8.89,27.08,8.85,27.06z"/>
	<path class="st31" d="M12.98,22.09c-0.06-0.17-0.07-0.36-0.17-0.52c0.22,0.11,0.2,0.32,0.23,0.52
		C13.01,22.12,12.99,22.12,12.98,22.09z"/>
	<path class="st32" d="M11.58,27.07c0-0.02,0-0.04,0-0.06c0.15-0.04,0.3-0.08,0.45-0.12c0.03-0.02,0.05-0.01,0.07,0.01
		C11.96,27.03,11.76,27.03,11.58,27.07z"/>
	<path class="st28" d="M12.68,23.31c0.01-0.12,0.1-0.2,0.17-0.29c0.03,0.01,0.04,0.04,0.06,0.06C12.9,23.21,12.82,23.29,12.68,23.31
		z"/>
	<path class="st33" d="M12.98,22.09c0.02,0,0.04,0,0.05,0c0,0.19,0,0.37-0.01,0.56c0,0.01-0.01,0.02-0.02,0.01
		c-0.02,0-0.03-0.01-0.05-0.02C12.97,22.46,12.97,22.28,12.98,22.09z"/>
	<path class="st34" d="M12.1,26.89c-0.02,0-0.05-0.01-0.07-0.01c0.14-0.07,0.28-0.15,0.43-0.22C12.4,26.83,12.24,26.85,12.1,26.89z"
		/>
	<path class="st35" d="M12.91,23.07c-0.02-0.02-0.04-0.04-0.06-0.06c0.03-0.08,0.05-0.15,0.08-0.23
		C13.03,22.89,12.91,22.98,12.91,23.07z"/>
	<path class="st36" d="M11.69,24.7c0.04,0.07,0.08,0.15,0.12,0.22c0.03,0.13,0.03,0.27,0,0.4c-0.04,0.24-0.23,0.38-0.39,0.53
		c-0.43,0.12-0.87,0.09-1.3,0.05c-0.05-0.45-0.01-0.9-0.02-1.35c0-0.07,0.02-0.13,0.08-0.17c0.35-0.02,0.7-0.04,1.05,0.01
		c0.11-0.01,0.21,0.03,0.28,0.11C11.55,24.6,11.62,24.66,11.69,24.7z"/>
	<path class="st36" d="M11.35,22.03c0.29,0.21,0.32,0.5,0.2,0.79c-0.1,0.25-0.27,0.47-0.6,0.43c-0.26,0.09-0.52,0.05-0.78,0.03
		c-0.09-0.04-0.08-0.12-0.08-0.2c0-0.34,0-0.67,0-1.01c0-0.12,0.02-0.21,0.17-0.19C10.63,21.92,11.02,21.79,11.35,22.03z"/>
	<path class="st37" d="M12.39,25.31c-0.3,0.11-0.37-0.1-0.44-0.33c-0.04-0.14,0-0.31-0.12-0.44c-0.05-0.05-0.02-0.14,0.09-0.11
		c0.08,0.02,0.15,0.01,0.15-0.08c0-0.09-0.1-0.14-0.16-0.14c-0.22-0.02-0.43-0.08-0.65-0.03c-0.06,0.01-0.12,0.05-0.13-0.04
		c-0.01-0.08,0.07-0.04,0.1-0.06c0.3-0.23,0.66-0.1,0.9,0.01c0.19,0.08,0.35,0.21,0.59,0.22c0.15,0,0.06,0.13,0,0.18
		c-0.14,0.12-0.17,0.22-0.03,0.38c0.09,0.09,0.06,0.25,0.03,0.36C12.67,25.41,12.52,25.3,12.39,25.31z"/>
	<path class="st38" d="M11.82,22.43c0.04,0.19,0.12,0.3,0.3,0.21c0.05-0.02,0.11-0.01,0.11,0.05c0.01,0.09,0,0.17-0.09,0.22
		c-0.04,0.02-0.12,0.11-0.13,0.05C11.96,22.78,11.62,22.75,11.82,22.43z"/>
	<path class="st39" d="M10.3,21.92c-0.07,0.01-0.16,0-0.16,0.08c0.01,0.42-0.08,0.84,0.05,1.25c0.05,0.08,0.18-0.04,0.22,0.08
		c-0.29,0.09-0.37-0.03-0.35-0.31c0.02-0.32,0.02-0.63,0-0.95c-0.01-0.2,0.06-0.26,0.25-0.21c0.02,0.01,0.03,0.02,0.02,0.04
		C10.32,21.91,10.31,21.92,10.3,21.92z"/>
	<path class="st40" d="M10.19,24.41c-0.12,0.31-0.03,0.64-0.06,0.96c-0.01,0.18,0,0.36,0,0.54c0.03,0.03,0.03,0.05,0,0.07
		c-0.08-0.01-0.07-0.08-0.07-0.13c0-0.48,0.01-0.96,0.01-1.44C10.11,24.37,10.15,24.37,10.19,24.41z"/>
	<path class="st41" d="M10.13,25.97c0-0.02,0-0.05,0-0.07c0.43,0.02,0.86,0.01,1.29-0.04C11.01,26.09,10.56,25.97,10.13,25.97z"/>
	<path class="st42" d="M10.4,23.33c-0.06-0.05-0.17,0.01-0.22-0.08c0.26,0,0.52,0,0.77,0.01C10.8,23.44,10.59,23.32,10.4,23.33z"/>
	<path class="st37" d="M13.1,24.68c0.05,0.06,0.05,0.12,0.04,0.19c-0.06,0.04-0.1,0.16-0.18,0.09c-0.12-0.11-0.09-0.27-0.05-0.41
		c0.1,0.04,0.03,0.14,0.09,0.19C13.1,24.81,13.08,24.72,13.1,24.68z"/>
	<path class="st43" d="M10.3,21.92c0-0.02,0-0.04,0-0.06c0.26-0.02,0.52-0.03,0.77,0c0.11,0.01,0.23,0.04,0.28,0.17
		C11.02,21.87,10.66,21.93,10.3,21.92z"/>
	<path class="st44" d="M10.19,24.41c-0.04,0-0.08,0-0.12,0c0.39-0.1,0.78-0.1,1.17,0C10.89,24.4,10.54,24.41,10.19,24.41z"/>
	<path class="st37" d="M11.82,25.33c0-0.13,0-0.27,0-0.4C11.9,25.06,11.9,25.2,11.82,25.33z"/>
	<path class="st45" d="M11.69,24.7c-0.12,0-0.19-0.06-0.18-0.19C11.6,24.56,11.66,24.62,11.69,24.7z"/>
	<path class="st37" d="M11.5,24.32c0.07-0.04,0.12-0.03,0.17,0.01c0.01,0.01,0,0.04-0.01,0.05C11.6,24.41,11.56,24.36,11.5,24.32z"
		/>
	<path class="st46" d="M12.15,23.65c0.04,0.04,0.08,0.08,0.12,0.12c-0.07-0.02-0.17,0.01-0.2-0.09
		C12.08,23.67,12.12,23.66,12.15,23.65z"/>
</g>
</svg>
